M48
; DRILL file {KiCad (6.0.4)} date Mon May  2 22:40:24 2022
; FORMAT={-:-/ absolute / metric / decimal}
; #@! TF.CreationDate,2022-05-02T22:40:24+08:00
; #@! TF.GenerationSoftware,Kicad,Pcbnew,(6.0.4)
; #@! TF.FileFunction,Plated,1,6,PTH
FMAT,2
METRIC
; #@! TA.AperFunction,Plated,PTH,ViaDrill
T1C0.200
; #@! TA.AperFunction,Plated,PTH,ViaDrill
T2C0.300
%
G90
G05
T1
X107.175Y-80.105
X107.175Y-81.305
X107.175Y-82.505
X107.175Y-83.705
X107.175Y-84.905
X107.175Y-94.905
X107.175Y-96.105
X107.175Y-97.305
X107.175Y-98.505
X107.175Y-99.705
X107.175Y-100.905
X107.975Y-79.105
X109.175Y-79.105
X109.85Y-82.48
X109.85Y-87.87
X109.86Y-93.31
X109.86Y-98.71
X110.375Y-79.105
X111.575Y-79.105
X112.775Y-79.105
X113.975Y-79.105
X113.975Y-103.705
X114.26Y-83.96
X114.26Y-84.53
X114.26Y-89.35
X114.26Y-89.92
X114.27Y-94.79
X114.27Y-95.36
X114.27Y-100.16
X114.27Y-100.73
X114.775Y-102.905
X114.87Y-83.96
X114.87Y-84.53
X114.87Y-89.35
X114.87Y-89.92
X114.88Y-94.79
X114.88Y-95.36
X114.88Y-100.16
X114.88Y-100.73
X115.175Y-79.105
X115.575Y-102.105
X116.375Y-101.305
X116.575Y-79.105
X117.975Y-89.705
X117.975Y-95.105
X120.175Y-89.705
X120.175Y-95.105
X121.395Y-104.955
X121.575Y-86.105
X121.575Y-87.305
X121.575Y-88.505
X122.698Y-104.028
X122.775Y-86.105
X122.775Y-87.305
X122.945Y-104.955
X123.052Y-104.382
X123.375Y-80.505
X123.375Y-83.505
X123.975Y-86.105
X124.198Y-104.028
X124.445Y-104.955
X124.49Y-80.035
X124.552Y-104.382
X124.775Y-93.505
X125.698Y-104.028
X125.945Y-104.955
X126.052Y-104.382
X126.175Y-90.905
X126.275Y-80.205
X126.975Y-90.105
X127.198Y-104.028
X127.265Y-88.625
X127.445Y-104.955
X127.525Y-98.605
X127.552Y-104.382
X127.695Y-80.205
X127.695Y-84.015
X127.835Y-88.315
X128.416Y-88.315
X128.698Y-104.028
X128.715Y-83.905
X128.945Y-104.955
X128.997Y-88.315
X129.052Y-104.382
X129.185Y-80.205
X129.578Y-88.315
X129.655Y-83.905
X130.159Y-88.315
X130.198Y-104.028
X130.445Y-104.955
X130.552Y-104.382
X130.675Y-80.205
X130.675Y-84.015
X130.74Y-88.315
X131.321Y-88.315
X131.698Y-104.028
X131.902Y-88.315
X131.945Y-104.955
X132.052Y-104.382
X132.075Y-80.205
X132.075Y-84.015
X132.483Y-88.315
X133.064Y-88.315
X133.198Y-104.028
X133.445Y-104.955
X133.552Y-104.382
X133.645Y-88.315
X133.975Y-80.505
X134.555Y-85.505
X134.575Y-88.305
X134.698Y-104.028
X134.945Y-104.955
X134.975Y-80.505
X135.052Y-104.382
X135.426Y-91.509
X135.575Y-88.305
X135.855Y-83.1
X135.895Y-100.425
X136.198Y-103.628
X136.552Y-103.982
X136.675Y-88.31
X136.675Y-90.31
X136.675Y-93.31
X136.675Y-96.31
X137.175Y-100.555
X137.675Y-86.305
X137.675Y-88.305
X137.675Y-90.305
X137.675Y-91.31
X137.675Y-93.31
X137.675Y-95.305
X137.675Y-96.305
X137.675Y-98.305
X138.675Y-89.305
X138.675Y-93.305
X138.675Y-98.305
X138.675Y-85.305
X138.675Y-86.305
X138.675Y-87.305
X138.675Y-88.305
X138.675Y-90.305
X138.675Y-91.305
X138.675Y-94.305
X138.675Y-95.305
X138.675Y-96.305
X138.675Y-97.305
X138.675Y-99.305
X138.675Y-100.31
X139.197Y-83.1
X139.197Y-80.0
X139.535Y-104.605
X139.675Y-86.305
X139.675Y-87.305
X139.675Y-88.305
X139.675Y-89.305
X139.675Y-90.305
X139.675Y-91.31
X139.675Y-93.305
X139.675Y-94.305
X139.675Y-95.305
X139.675Y-96.305
X139.675Y-97.305
X139.675Y-98.305
X140.175Y-79.905
X140.2Y-83.1
X140.675Y-91.305
X140.675Y-84.305
X140.675Y-86.305
X140.675Y-87.305
X140.675Y-88.305
X140.675Y-89.305
X140.675Y-90.305
X140.675Y-93.305
X140.675Y-94.305
X140.675Y-95.31
X140.675Y-97.305
X140.675Y-98.305
X141.031Y-104.605
X141.173Y-80.0
X141.675Y-84.305
X141.675Y-85.305
X141.675Y-86.305
X141.675Y-87.305
X141.675Y-89.31
X141.675Y-90.31
X141.675Y-93.305
X141.675Y-94.305
X141.675Y-95.305
X141.675Y-96.305
X141.675Y-97.305
X141.675Y-91.305
X142.293Y-80.01
X142.3Y-83.1
X142.528Y-104.605
X142.6Y-101.18
X142.6Y-101.73
X142.605Y-102.415
X142.675Y-84.305
X142.675Y-85.305
X142.675Y-86.305
X142.675Y-87.305
X142.675Y-89.305
X142.675Y-90.305
X142.675Y-91.305
X142.675Y-92.305
X142.675Y-93.31
X142.675Y-97.305
X142.675Y-98.31
X142.675Y-99.305
X143.175Y-79.905
X143.675Y-85.305
X143.675Y-86.305
X143.675Y-87.31
X143.675Y-88.305
X143.675Y-91.305
X143.675Y-92.31
X143.675Y-93.305
X143.675Y-95.305
X143.675Y-96.305
X143.675Y-97.31
X144.024Y-104.605
X144.025Y-103.305
X144.025Y-103.855
X144.675Y-85.31
X144.675Y-86.31
X144.675Y-87.305
X144.675Y-88.305
X144.675Y-89.305
X144.675Y-90.31
X144.675Y-91.31
X144.675Y-92.305
X144.675Y-93.305
X144.675Y-94.305
X144.675Y-95.305
X144.675Y-97.31
X144.675Y-96.305
X145.52Y-104.605
X145.675Y-87.305
X145.675Y-88.305
X145.675Y-89.305
X145.675Y-93.305
X145.675Y-95.305
X145.675Y-96.305
X145.675Y-97.305
X145.675Y-99.305
X145.775Y-100.33
X145.775Y-100.88
X146.675Y-84.305
X146.675Y-85.305
X146.675Y-86.305
X146.675Y-87.305
X146.675Y-88.305
X146.675Y-91.305
X146.675Y-92.305
X146.675Y-95.305
X146.675Y-96.305
X146.675Y-97.305
X146.675Y-89.305
X146.675Y-93.305
X146.675Y-94.305
X146.675Y-98.305
X147.016Y-104.605
X147.675Y-89.305
X147.675Y-84.305
X147.675Y-85.305
X147.675Y-86.305
X147.675Y-87.305
X147.675Y-90.305
X147.675Y-91.305
X147.675Y-92.305
X147.675Y-93.305
X147.675Y-94.305
X147.675Y-95.305
X147.675Y-96.305
X148.512Y-104.605
X148.675Y-80.0
X148.675Y-84.305
X148.675Y-85.305
X148.675Y-86.305
X148.675Y-88.305
X148.675Y-89.305
X148.675Y-90.305
X148.675Y-91.305
X148.675Y-92.305
X148.675Y-93.305
X148.675Y-94.305
X148.675Y-95.305
X148.675Y-96.305
X148.675Y-97.305
X148.675Y-98.305
X148.675Y-99.305
X149.672Y-100.312
X149.675Y-86.305
X149.675Y-88.305
X149.675Y-90.305
X149.675Y-92.305
X149.675Y-93.305
X149.675Y-95.305
X149.675Y-96.305
X149.675Y-97.305
X149.675Y-98.305
X149.675Y-99.305
X149.775Y-87.305
X150.009Y-104.605
X150.445Y-83.355
X150.575Y-87.305
X150.664Y-93.288
X150.675Y-92.305
X150.675Y-96.305
X150.675Y-97.305
X150.675Y-98.305
X150.675Y-99.305
X150.675Y-100.305
X151.505Y-104.605
X151.675Y-84.31
X151.675Y-96.305
X151.675Y-97.305
X151.675Y-99.305
X151.675Y-98.305
X151.883Y-80.0
X151.885Y-83.35
X152.785Y-104.605
X155.275Y-89.815
X155.275Y-90.515
X155.275Y-93.585
X155.275Y-94.285
X155.285Y-83.995
X155.285Y-85.495
X155.285Y-86.085
X155.285Y-86.785
X155.285Y-87.355
X155.285Y-88.855
X155.285Y-91.425
X155.285Y-92.925
X155.285Y-94.935
X155.285Y-96.435
X155.998Y-104.728
X156.125Y-83.995
X156.125Y-87.355
X156.125Y-88.855
X156.125Y-91.425
X156.125Y-92.925
X156.125Y-94.935
X156.125Y-96.435
X156.352Y-105.082
X156.685Y-83.435
X157.498Y-104.728
X157.852Y-105.082
X158.872Y-105.085
X159.226Y-104.731
X160.185Y-93.605
X160.538Y-104.728
X160.545Y-92.405
X160.675Y-88.405
X160.675Y-90.805
X160.675Y-96.405
X160.675Y-86.805
X160.675Y-98.005
X160.875Y-93.605
X160.892Y-105.082
X161.675Y-93.605
X161.675Y-95.205
X161.675Y-96.005
X161.675Y-96.805
X161.675Y-97.605
X161.675Y-98.405
X161.675Y-99.205
X161.888Y-105.062
X162.242Y-104.708
X162.475Y-87.205
X162.475Y-89.605
X162.475Y-91.205
X162.475Y-96.805
X162.475Y-97.605
X162.485Y-93.605
X163.075Y-85.505
X163.275Y-92.005
X163.275Y-92.805
X163.275Y-93.605
X163.275Y-95.205
X163.275Y-96.005
X163.275Y-98.405
X163.275Y-99.205
X163.378Y-105.072
X163.435Y-87.19
X163.455Y-87.825
X163.475Y-90.005
X163.732Y-104.718
X163.905Y-85.775
X164.055Y-90.915
X164.065Y-91.475
X164.868Y-105.072
X165.095Y-91.515
X165.222Y-104.718
X165.575Y-93.905
X165.585Y-93.305
X165.675Y-89.605
X165.675Y-87.205
X165.675Y-88.005
X165.675Y-88.805
X165.675Y-90.405
X165.675Y-92.005
X165.675Y-95.205
X165.675Y-96.805
X165.675Y-98.405
X165.675Y-99.205
X165.675Y-86.405
X165.775Y-79.305
X166.368Y-105.072
X166.475Y-90.405
X166.475Y-88.005
X166.475Y-89.605
X166.475Y-91.205
X166.475Y-92.005
X166.475Y-95.205
X166.475Y-96.005
X166.475Y-96.805
X166.475Y-87.205
X166.722Y-104.718
X166.975Y-79.305
X167.275Y-92.805
X167.275Y-93.605
X167.275Y-94.405
X167.275Y-95.205
X167.275Y-97.605
X167.275Y-98.405
X167.275Y-99.205
X167.515Y-86.205
X167.775Y-102.105
X167.88Y-104.87
X167.935Y-81.25
X167.935Y-81.95
X167.935Y-82.65
X168.175Y-79.305
X168.275Y-87.205
X168.275Y-88.005
X168.34Y-95.03
X168.355Y-88.745
X168.355Y-89.675
X168.355Y-92.405
X168.355Y-96.405
X168.355Y-98.005
X168.36Y-97.215
X168.615Y-84.905
X168.975Y-102.105
X169.375Y-79.305
X169.995Y-84.47
X170.175Y-102.105
X170.505Y-97.67
X170.505Y-99.17
X170.575Y-79.305
X170.575Y-92.356
X170.575Y-93.856
X170.575Y-95.013
X170.575Y-96.513
X171.105Y-97.67
X171.105Y-99.17
X171.175Y-92.356
X171.175Y-93.856
X171.175Y-95.013
X171.175Y-96.513
X171.375Y-102.105
X171.775Y-79.305
X172.105Y-90.416
X172.105Y-90.976
X172.105Y-91.556
X172.625Y-104.155
X172.625Y-90.706
X172.625Y-91.286
X172.975Y-79.305
X173.125Y-104.455
X173.541Y-93.094
X173.541Y-94.594
X173.541Y-95.752
X173.541Y-97.252
X173.541Y-98.409
X173.541Y-99.909
X173.625Y-104.755
X173.905Y-93.6
X174.125Y-105.055
X174.141Y-94.594
X174.141Y-95.752
X174.141Y-97.252
X174.141Y-98.409
X174.141Y-99.909
X174.175Y-79.305
X174.775Y-80.105
X174.775Y-81.305
X174.775Y-82.505
X174.775Y-83.705
X174.775Y-84.905
X174.955Y-93.89
X174.955Y-95.196
X174.955Y-96.502
X174.955Y-97.808
X174.955Y-99.114
X174.955Y-100.42
T2
X112.125Y-104.905
X112.625Y-104.905
X113.125Y-104.905
X116.6Y-86.88
X116.6Y-81.49
X116.6Y-81.99
X116.6Y-82.49
X116.6Y-87.38
X116.6Y-87.88
X116.61Y-92.31
X116.61Y-92.81
X116.61Y-93.31
X116.61Y-97.68
X116.61Y-98.18
X116.61Y-98.68
X120.189Y-98.919
X120.2Y-81.36
X120.2Y-82.035
X120.2Y-82.71
X120.2Y-86.645
X120.2Y-87.37
X120.2Y-88.095
X120.21Y-92.06
X120.21Y-92.772
X120.21Y-93.485
X120.21Y-97.415
X120.21Y-98.177
X144.993Y-79.9
X154.375Y-104.905
X154.875Y-104.905
X165.725Y-80.94
X165.935Y-83.78
X166.525Y-83.78
X170.195Y-82.44
X170.575Y-81.11
X170.575Y-81.76
T0
M30
