%TF.GenerationSoftware,KiCad,Pcbnew,(6.0.0)*%
%TF.CreationDate,2022-04-29T09:14:56+08:00*%
%TF.ProjectId,XC6SLX25(FTG256)_CoreBoard,58433653-4c58-4323-9528-465447323536,rev?*%
%TF.SameCoordinates,Original*%
%TF.FileFunction,Paste,Top*%
%TF.FilePolarity,Positive*%
%FSLAX46Y46*%
G04 Gerber Fmt 4.6, Leading zero omitted, Abs format (unit mm)*
G04 Created by KiCad (PCBNEW (6.0.0)) date 2022-04-29 09:14:56*
%MOMM*%
%LPD*%
G01*
G04 APERTURE LIST*
G04 Aperture macros list*
%AMRoundRect*
0 Rectangle with rounded corners*
0 $1 Rounding radius*
0 $2 $3 $4 $5 $6 $7 $8 $9 X,Y pos of 4 corners*
0 Add a 4 corners polygon primitive as box body*
4,1,4,$2,$3,$4,$5,$6,$7,$8,$9,$2,$3,0*
0 Add four circle primitives for the rounded corners*
1,1,$1+$1,$2,$3*
1,1,$1+$1,$4,$5*
1,1,$1+$1,$6,$7*
1,1,$1+$1,$8,$9*
0 Add four rect primitives between the rounded corners*
20,1,$1+$1,$2,$3,$4,$5,0*
20,1,$1+$1,$4,$5,$6,$7,0*
20,1,$1+$1,$6,$7,$8,$9,0*
20,1,$1+$1,$8,$9,$2,$3,0*%
%AMOutline4P*
0 Free polygon, 4 corners , with rotation*
0 The origin of the aperture is its center*
0 number of corners: always 4*
0 $1 to $8 corner X, Y*
0 $9 Rotation angle, in degrees counterclockwise*
0 create outline with 4 corners*
4,1,4,$1,$2,$3,$4,$5,$6,$7,$8,$1,$2,$9*%
G04 Aperture macros list end*
%ADD10RoundRect,0.135000X0.135000X0.185000X-0.135000X0.185000X-0.135000X-0.185000X0.135000X-0.185000X0*%
%ADD11R,0.800000X2.700000*%
%ADD12RoundRect,0.135000X0.185000X-0.135000X0.185000X0.135000X-0.185000X0.135000X-0.185000X-0.135000X0*%
%ADD13RoundRect,0.140000X-0.140000X-0.170000X0.140000X-0.170000X0.140000X0.170000X-0.140000X0.170000X0*%
%ADD14RoundRect,0.135000X-0.185000X0.135000X-0.185000X-0.135000X0.185000X-0.135000X0.185000X0.135000X0*%
%ADD15RoundRect,0.140000X0.170000X-0.140000X0.170000X0.140000X-0.170000X0.140000X-0.170000X-0.140000X0*%
%ADD16RoundRect,0.135000X-0.135000X-0.185000X0.135000X-0.185000X0.135000X0.185000X-0.135000X0.185000X0*%
%ADD17R,0.500000X0.320000*%
%ADD18RoundRect,0.140000X0.140000X0.170000X-0.140000X0.170000X-0.140000X-0.170000X0.140000X-0.170000X0*%
%ADD19O,0.250000X0.750000*%
%ADD20O,0.900000X0.250000*%
%ADD21O,0.300000X0.500000*%
%ADD22Outline4P,-0.050000X-0.150000X0.050000X-0.150000X0.050000X0.150000X-0.050000X0.150000X225.000000*%
%ADD23Outline4P,-0.050000X-0.150000X0.050000X-0.150000X0.050000X0.150000X-0.050000X0.150000X135.000000*%
%ADD24RoundRect,0.100000X-0.100000X0.525000X-0.100000X-0.525000X0.100000X-0.525000X0.100000X0.525000X0*%
%ADD25Outline4P,-0.050000X-0.150000X0.050000X-0.150000X0.050000X0.150000X-0.050000X0.150000X45.000000*%
%ADD26R,0.650000X1.050000*%
%ADD27C,0.380000*%
%ADD28RoundRect,0.147500X-0.147500X-0.172500X0.147500X-0.172500X0.147500X0.172500X-0.147500X0.172500X0*%
%ADD29RoundRect,0.140000X-0.170000X0.140000X-0.170000X-0.140000X0.170000X-0.140000X0.170000X0.140000X0*%
%ADD30RoundRect,0.200000X-0.200000X-0.250000X0.200000X-0.250000X0.200000X0.250000X-0.200000X0.250000X0*%
%ADD31RoundRect,0.147500X0.172500X-0.147500X0.172500X0.147500X-0.172500X0.147500X-0.172500X-0.147500X0*%
%ADD32R,0.800000X0.800000*%
%ADD33R,1.100000X0.500000*%
%ADD34C,0.400000*%
%ADD35R,0.640000X0.640000*%
%ADD36R,0.850000X0.280000*%
%ADD37R,0.280000X0.700000*%
%ADD38R,0.350000X2.500000*%
G04 APERTURE END LIST*
D10*
%TO.C,R29*%
X111489051Y-97769999D03*
X110469051Y-97769999D03*
%TD*%
D11*
%TO.C,L1*%
X117980002Y-87356667D03*
X120180002Y-87356667D03*
%TD*%
D12*
%TO.C,R38*%
X149775000Y-82555000D03*
X149775000Y-81535000D03*
%TD*%
D13*
%TO.C,C38*%
X171295000Y-80529999D03*
X172255000Y-80529999D03*
%TD*%
D14*
%TO.C,R5*%
X148675001Y-81535000D03*
X148675001Y-82555000D03*
%TD*%
D15*
%TO.C,C52*%
X169555000Y-88775000D03*
X169555000Y-87815000D03*
%TD*%
D12*
%TO.C,R20*%
X164650001Y-82940000D03*
X164650001Y-81920000D03*
%TD*%
D13*
%TO.C,C44*%
X161745000Y-81940000D03*
X162705000Y-81940000D03*
%TD*%
D16*
%TO.C,R36*%
X110439054Y-80590000D03*
X111459054Y-80590000D03*
%TD*%
%TO.C,R27*%
X110469052Y-98709999D03*
X111489052Y-98709999D03*
%TD*%
D10*
%TO.C,R26*%
X113350947Y-100581731D03*
X112330947Y-100581731D03*
%TD*%
D17*
%TO.C,RN3*%
X172705401Y-99170452D03*
X172705401Y-98670452D03*
X172705401Y-98170452D03*
X172705401Y-97670452D03*
X171705401Y-97670452D03*
X171705401Y-98170452D03*
X171705401Y-98670452D03*
X171705401Y-99170452D03*
%TD*%
D10*
%TO.C,R22*%
X113320946Y-89736058D03*
X112300946Y-89736058D03*
%TD*%
D18*
%TO.C,C45*%
X162705000Y-82910000D03*
X161745000Y-82910000D03*
%TD*%
D19*
%TO.C,U5*%
X114780001Y-97205000D03*
X114280001Y-97205000D03*
X113780001Y-97205000D03*
D20*
X112930001Y-97680000D03*
X112930001Y-98180000D03*
X112930001Y-98680000D03*
D19*
X113780001Y-99155000D03*
X114280001Y-98510000D03*
X114280001Y-98750000D03*
D21*
X114280001Y-98180000D03*
D19*
X114280001Y-99155000D03*
X114780001Y-99155000D03*
D20*
X115630001Y-98680000D03*
D22*
X115590001Y-98050000D03*
D23*
X115590001Y-98310000D03*
X115590001Y-97810000D03*
D24*
X115380001Y-98180000D03*
D25*
X115600001Y-98560000D03*
D20*
X115630001Y-98180000D03*
X115630001Y-97680000D03*
%TD*%
D11*
%TO.C,L4*%
X117980002Y-81990000D03*
X120180002Y-81990000D03*
%TD*%
D17*
%TO.C,RN9*%
X153695001Y-87355000D03*
X153695001Y-87855000D03*
X153695001Y-88355000D03*
X153695001Y-88855000D03*
X154695001Y-88855000D03*
X154695001Y-88355000D03*
X154695001Y-87855000D03*
X154695001Y-87355000D03*
%TD*%
D10*
%TO.C,R30*%
X113320948Y-95170001D03*
X112300948Y-95170001D03*
%TD*%
D16*
%TO.C,R28*%
X110469051Y-96830001D03*
X111489051Y-96830001D03*
%TD*%
D26*
%TO.C,Btn1*%
X124490000Y-84185000D03*
X124490000Y-80035000D03*
X122340000Y-80035000D03*
X122340000Y-84160000D03*
%TD*%
D11*
%TO.C,L2*%
X117990002Y-98180000D03*
X120190002Y-98180000D03*
%TD*%
D27*
%TO.C,DDR3-1*%
X161275000Y-86805000D03*
X162075000Y-86805000D03*
X162875000Y-86805000D03*
X166075000Y-86805000D03*
X166875000Y-86805000D03*
X167675000Y-86805000D03*
X161275000Y-87605000D03*
X162075000Y-87605000D03*
X162875000Y-87605000D03*
X166075000Y-87605000D03*
X166875000Y-87605000D03*
X167675000Y-87605000D03*
X161275000Y-88405000D03*
X162075000Y-88405000D03*
X162875000Y-88405000D03*
X166075000Y-88405000D03*
X166875000Y-88405000D03*
X167675000Y-88405000D03*
X161275000Y-89205000D03*
X162075000Y-89205000D03*
X162875000Y-89205000D03*
X166075000Y-89205000D03*
X166875000Y-89205000D03*
X167675000Y-89205000D03*
X161275000Y-90005000D03*
X162075000Y-90005000D03*
X162875000Y-90005000D03*
X166075000Y-90005000D03*
X166875000Y-90005000D03*
X167675000Y-90005000D03*
X161275000Y-90805000D03*
X162075000Y-90805000D03*
X162875000Y-90805000D03*
X166075000Y-90805000D03*
X166875000Y-90805000D03*
X167675000Y-90805000D03*
X161275000Y-91605000D03*
X162075000Y-91605000D03*
X162875000Y-91605000D03*
X166075000Y-91605000D03*
X166875000Y-91605000D03*
X167675000Y-91605000D03*
X161275000Y-92405000D03*
X162075000Y-92405000D03*
X162875000Y-92405000D03*
X166075000Y-92405000D03*
X166875000Y-92405000D03*
X167675000Y-92405000D03*
X161275000Y-93205000D03*
X162075000Y-93205000D03*
X162875000Y-93205000D03*
X166075000Y-93205000D03*
X166875000Y-93205000D03*
X167675000Y-93205000D03*
X161275000Y-94005000D03*
X162075000Y-94005000D03*
X162875000Y-94005000D03*
X166075000Y-94005000D03*
X166875000Y-94005000D03*
X167675000Y-94005000D03*
X161275000Y-94805000D03*
X162075000Y-94805000D03*
X162875000Y-94805000D03*
X166075000Y-94805000D03*
X166875000Y-94805000D03*
X167675000Y-94805000D03*
X161275000Y-95605000D03*
X162075000Y-95605000D03*
X162875000Y-95605000D03*
X166075000Y-95605000D03*
X166875000Y-95605000D03*
X167675000Y-95605000D03*
X161275000Y-96405000D03*
X162075000Y-96405000D03*
X162875000Y-96405000D03*
X166075000Y-96405000D03*
X166875000Y-96405000D03*
X167675000Y-96405000D03*
X161275000Y-97205000D03*
X162075000Y-97205000D03*
X162875000Y-97205000D03*
X166075000Y-97205000D03*
X166875000Y-97205000D03*
X167675000Y-97205000D03*
X161275000Y-98005000D03*
X162075000Y-98005000D03*
X162875000Y-98005000D03*
X166075000Y-98005000D03*
X166875000Y-98005000D03*
X167675000Y-98005000D03*
X161275000Y-98805000D03*
X162075000Y-98805000D03*
X162875000Y-98805000D03*
X166075000Y-98805000D03*
X166875000Y-98805000D03*
X167675000Y-98805000D03*
%TD*%
D28*
%TO.C,D4*%
X110461553Y-84340000D03*
X111431553Y-84340000D03*
%TD*%
D17*
%TO.C,RN1*%
X172705401Y-93856362D03*
X172705401Y-93356362D03*
X172705401Y-92856362D03*
X172705401Y-92356362D03*
X171705401Y-92356362D03*
X171705401Y-92856362D03*
X171705401Y-93356362D03*
X171705401Y-93856362D03*
%TD*%
D13*
%TO.C,C40*%
X171295000Y-82360000D03*
X172255000Y-82360000D03*
%TD*%
D19*
%TO.C,U6*%
X114780000Y-91838334D03*
X114280000Y-91838334D03*
X113780000Y-91838334D03*
D20*
X112930000Y-92313334D03*
X112930000Y-92813334D03*
X112930000Y-93313334D03*
D19*
X113780000Y-93788334D03*
X114280000Y-93788334D03*
X114280000Y-93383334D03*
X114280000Y-93143334D03*
D21*
X114280000Y-92813334D03*
D19*
X114780000Y-93788334D03*
D25*
X115600000Y-93193334D03*
D22*
X115590000Y-92683334D03*
D23*
X115590000Y-92943334D03*
D20*
X115630000Y-93313334D03*
D23*
X115590000Y-92443334D03*
D24*
X115380000Y-92813334D03*
D20*
X115630000Y-92813334D03*
X115630000Y-92313334D03*
%TD*%
D29*
%TO.C,C26*%
X152986927Y-81565000D03*
X152986927Y-82525000D03*
%TD*%
D16*
%TO.C,R31*%
X110449052Y-93310000D03*
X111469052Y-93310000D03*
%TD*%
D15*
%TO.C,C47*%
X159445000Y-96415000D03*
X159445000Y-95455000D03*
%TD*%
D14*
%TO.C,R21*%
X163670000Y-81920000D03*
X163670000Y-82940000D03*
%TD*%
D30*
%TO.C,X1*%
X144260000Y-80980001D03*
X144260000Y-82830001D03*
X145710000Y-82830001D03*
X145710000Y-80980001D03*
%TD*%
D16*
%TO.C,R32*%
X110449053Y-91430000D03*
X111469053Y-91430000D03*
%TD*%
D31*
%TO.C,LED2*%
X150865000Y-82525000D03*
X150865000Y-81555000D03*
%TD*%
D29*
%TO.C,C48*%
X159445000Y-93605000D03*
X159445000Y-94565000D03*
%TD*%
D18*
%TO.C,C75*%
X111439053Y-94237782D03*
X110479053Y-94237782D03*
%TD*%
D16*
%TO.C,R23*%
X110439052Y-87870000D03*
X111459052Y-87870000D03*
%TD*%
D13*
%TO.C,C39*%
X171295000Y-81449998D03*
X172255000Y-81449998D03*
%TD*%
D10*
%TO.C,R37*%
X111459052Y-81534147D03*
X110439052Y-81534147D03*
%TD*%
D12*
%TO.C,R4*%
X140205000Y-82545000D03*
X140205000Y-81525000D03*
%TD*%
%TO.C,R18*%
X171275000Y-84470000D03*
X171275000Y-83450000D03*
%TD*%
D15*
%TO.C,C51*%
X159445000Y-86795000D03*
X159445000Y-85835000D03*
%TD*%
D10*
%TO.C,R25*%
X111459051Y-86930001D03*
X110439051Y-86930001D03*
%TD*%
D17*
%TO.C,RN8*%
X153695001Y-94935000D03*
X153695001Y-95435000D03*
X153695001Y-95935000D03*
X153695001Y-96435000D03*
X154695001Y-96435000D03*
X154695001Y-95935000D03*
X154695001Y-95435000D03*
X154695001Y-94935000D03*
%TD*%
%TO.C,RN2*%
X172705401Y-96513407D03*
X172705401Y-96013407D03*
X172705401Y-95513407D03*
X172705401Y-95013407D03*
X171705401Y-95013407D03*
X171705401Y-95513407D03*
X171705401Y-96013407D03*
X171705401Y-96513407D03*
%TD*%
D31*
%TO.C,LED1*%
X136955001Y-82520000D03*
X136955001Y-81550000D03*
%TD*%
D18*
%TO.C,C68*%
X111459054Y-99644530D03*
X110499054Y-99644530D03*
%TD*%
D29*
%TO.C,C42*%
X173135000Y-83480000D03*
X173135000Y-84440000D03*
%TD*%
%TO.C,C35*%
X169555000Y-93605000D03*
X169555000Y-94565000D03*
%TD*%
%TO.C,C49*%
X159445000Y-90815000D03*
X159445000Y-91775000D03*
%TD*%
D19*
%TO.C,U4*%
X114770000Y-86381667D03*
X114270000Y-86381667D03*
X113770000Y-86381667D03*
D20*
X112920000Y-86856667D03*
X112920000Y-87356667D03*
X112920000Y-87856667D03*
D19*
X113770000Y-88331667D03*
X114270000Y-88331667D03*
X114270000Y-87686667D03*
X114270000Y-87926667D03*
D21*
X114270000Y-87356667D03*
D19*
X114770000Y-88331667D03*
D25*
X115590000Y-87736667D03*
D20*
X115620000Y-87856667D03*
D22*
X115580000Y-87226667D03*
D23*
X115580000Y-86986667D03*
D24*
X115370000Y-87356667D03*
D23*
X115580000Y-87486667D03*
D20*
X115620000Y-87356667D03*
X115620000Y-86856667D03*
%TD*%
D29*
%TO.C,C56*%
X169555000Y-98005000D03*
X169555000Y-98965000D03*
%TD*%
D17*
%TO.C,RN10*%
X153695001Y-83995000D03*
X153695001Y-84495000D03*
X153695001Y-84995000D03*
X153695001Y-85495000D03*
X154695001Y-85495000D03*
X154695001Y-84995000D03*
X154695001Y-84495000D03*
X154695001Y-83995000D03*
%TD*%
D15*
%TO.C,C54*%
X169555000Y-92405000D03*
X169555000Y-91445000D03*
%TD*%
D14*
%TO.C,R7*%
X151885000Y-81535000D03*
X151885000Y-82555000D03*
%TD*%
D18*
%TO.C,C82*%
X111429052Y-83410000D03*
X110469052Y-83410000D03*
%TD*%
D15*
%TO.C,C57*%
X169555000Y-86895000D03*
X169555000Y-85935000D03*
%TD*%
D28*
%TO.C,D2*%
X110491552Y-100579999D03*
X111461552Y-100579999D03*
%TD*%
D12*
%TO.C,R8*%
X135860000Y-82545000D03*
X135860000Y-81525000D03*
%TD*%
%TO.C,R9*%
X142300000Y-82545000D03*
X142300000Y-81525000D03*
%TD*%
%TO.C,R39*%
X138077364Y-82545000D03*
X138077364Y-81525000D03*
%TD*%
D32*
%TO.C,U2*%
X129675000Y-81610000D03*
X128675000Y-81610000D03*
X129675000Y-82610000D03*
X128675000Y-82610000D03*
D33*
X126275000Y-80205000D03*
X126275000Y-81475000D03*
X126275000Y-82745000D03*
X126275000Y-84015000D03*
X132075000Y-84015000D03*
X132075000Y-82745000D03*
X132075000Y-81475000D03*
X132075000Y-80205000D03*
%TD*%
D29*
%TO.C,C53*%
X169555000Y-89665000D03*
X169555000Y-90625000D03*
%TD*%
D10*
%TO.C,R34*%
X113320948Y-84340001D03*
X112300948Y-84340001D03*
%TD*%
D28*
%TO.C,D1*%
X110461552Y-89732924D03*
X111431552Y-89732924D03*
%TD*%
D19*
%TO.C,U7*%
X114770000Y-81015000D03*
X114270000Y-81015000D03*
X113770000Y-81015000D03*
D20*
X112920000Y-81490000D03*
X112920000Y-81990000D03*
X112920000Y-82490000D03*
D19*
X113770000Y-82965000D03*
X114270000Y-82320000D03*
D21*
X114270000Y-81990000D03*
D19*
X114270000Y-82560000D03*
X114270000Y-82965000D03*
X114770000Y-82965000D03*
D23*
X115580000Y-82120000D03*
D20*
X115620000Y-82490000D03*
D24*
X115370000Y-81990000D03*
D23*
X115580000Y-81620000D03*
D22*
X115580000Y-81860000D03*
D25*
X115590000Y-82370000D03*
D20*
X115620000Y-81990000D03*
X115620000Y-81490000D03*
%TD*%
D16*
%TO.C,R24*%
X110439052Y-85990000D03*
X111459052Y-85990000D03*
%TD*%
D12*
%TO.C,R3*%
X141172501Y-82545000D03*
X141172501Y-81525000D03*
%TD*%
D16*
%TO.C,R35*%
X110439053Y-82479999D03*
X111459053Y-82479999D03*
%TD*%
D28*
%TO.C,D3*%
X110471552Y-95170000D03*
X111441552Y-95170000D03*
%TD*%
D18*
%TO.C,C61*%
X111429053Y-88800000D03*
X110469053Y-88800000D03*
%TD*%
D17*
%TO.C,RN7*%
X153695001Y-91425000D03*
X153695001Y-91925000D03*
X153695001Y-92425000D03*
X153695001Y-92925000D03*
X154695001Y-92925000D03*
X154695001Y-92425000D03*
X154695001Y-91925000D03*
X154695001Y-91425000D03*
%TD*%
D14*
%TO.C,R6*%
X139197500Y-81525000D03*
X139197500Y-82545000D03*
%TD*%
D29*
%TO.C,C50*%
X159445000Y-88405000D03*
X159445000Y-89365000D03*
%TD*%
D11*
%TO.C,L3*%
X117990002Y-92813334D03*
X120190002Y-92813334D03*
%TD*%
D29*
%TO.C,C46*%
X159445000Y-98015000D03*
X159445000Y-98975000D03*
%TD*%
D34*
%TO.C,U1*%
X151175000Y-99805000D03*
X150175000Y-99805000D03*
X149175000Y-99805000D03*
X148175000Y-99805000D03*
X147175000Y-99805000D03*
X146175000Y-99805000D03*
X145175000Y-99805000D03*
X144175000Y-99805000D03*
X143175000Y-99805000D03*
X142175000Y-99805000D03*
X141175000Y-99805000D03*
X140175000Y-99805000D03*
X139175000Y-99805000D03*
X138175000Y-99805000D03*
X137175000Y-99805000D03*
X136175000Y-99805000D03*
X151175000Y-98805000D03*
X150175000Y-98805000D03*
X149175000Y-98805000D03*
X148175000Y-98805000D03*
X147175000Y-98805000D03*
X146175000Y-98805000D03*
X145175000Y-98805000D03*
X144175000Y-98805000D03*
X143175000Y-98805000D03*
X142175000Y-98805000D03*
X141175000Y-98805000D03*
X140175000Y-98805000D03*
X139175000Y-98805000D03*
X138175000Y-98805000D03*
X137175000Y-98805000D03*
X136175000Y-98805000D03*
X151175000Y-97805000D03*
X150175000Y-97805000D03*
X149175000Y-97805000D03*
X148175000Y-97805000D03*
X147175000Y-97805000D03*
X146175000Y-97805000D03*
X145175000Y-97805000D03*
X144175000Y-97805000D03*
X143175000Y-97805000D03*
X142175000Y-97805000D03*
X141175000Y-97805000D03*
X140175000Y-97805000D03*
X139175000Y-97805000D03*
X138175000Y-97805000D03*
X137175000Y-97805000D03*
X136175000Y-97805000D03*
X151175000Y-96805000D03*
X150175000Y-96805000D03*
X149175000Y-96805000D03*
X148175000Y-96805000D03*
X147175000Y-96805000D03*
X146175000Y-96805000D03*
X145175000Y-96805000D03*
X144175000Y-96805000D03*
X143175000Y-96805000D03*
X142175000Y-96805000D03*
X141175000Y-96805000D03*
X140175000Y-96805000D03*
X139175000Y-96805000D03*
X138175000Y-96805000D03*
X137175000Y-96805000D03*
X136175000Y-96805000D03*
X151175000Y-95805000D03*
X150175000Y-95805000D03*
X149175000Y-95805000D03*
X148175000Y-95805000D03*
X147175000Y-95805000D03*
X146175000Y-95805000D03*
X145175000Y-95805000D03*
X144175000Y-95805000D03*
X143175000Y-95805000D03*
X142175000Y-95805000D03*
X141175000Y-95805000D03*
X140175000Y-95805000D03*
X139175000Y-95805000D03*
X138175000Y-95805000D03*
X137175000Y-95805000D03*
X136175000Y-95805000D03*
X151175000Y-94805000D03*
X150175000Y-94805000D03*
X149175000Y-94805000D03*
X148175000Y-94805000D03*
X147175000Y-94805000D03*
X146175000Y-94805000D03*
X145175000Y-94805000D03*
X144175000Y-94805000D03*
X143175000Y-94805000D03*
X142175000Y-94805000D03*
X141175000Y-94805000D03*
X140175000Y-94805000D03*
X139175000Y-94805000D03*
X138175000Y-94805000D03*
X137175000Y-94805000D03*
X136175000Y-94805000D03*
X151175000Y-93805000D03*
X150175000Y-93805000D03*
X149175000Y-93805000D03*
X148175000Y-93805000D03*
X147175000Y-93805000D03*
X146175000Y-93805000D03*
X145175000Y-93805000D03*
X144175000Y-93805000D03*
X143175000Y-93805000D03*
X142175000Y-93805000D03*
X141175000Y-93805000D03*
X140175000Y-93805000D03*
X139175000Y-93805000D03*
X138175000Y-93805000D03*
X137175000Y-93805000D03*
X136175000Y-93805000D03*
X151175000Y-92805000D03*
X150175000Y-92805000D03*
X149175000Y-92805000D03*
X148175000Y-92805000D03*
X147175000Y-92805000D03*
X146175000Y-92805000D03*
X145175000Y-92805000D03*
X144175000Y-92805000D03*
X143175000Y-92805000D03*
X142175000Y-92805000D03*
X141175000Y-92805000D03*
X140175000Y-92805000D03*
X139175000Y-92805000D03*
X138175000Y-92805000D03*
X137175000Y-92805000D03*
X136175000Y-92805000D03*
X151175000Y-91805000D03*
X150175000Y-91805000D03*
X149175000Y-91805000D03*
X148175000Y-91805000D03*
X147175000Y-91805000D03*
X146175000Y-91805000D03*
X145175000Y-91805000D03*
X144175000Y-91805000D03*
X143175000Y-91805000D03*
X142175000Y-91805000D03*
X141175000Y-91805000D03*
X140175000Y-91805000D03*
X139175000Y-91805000D03*
X138175000Y-91805000D03*
X137175000Y-91805000D03*
X136175000Y-91805000D03*
X151175000Y-90805000D03*
X150175000Y-90805000D03*
X149175000Y-90805000D03*
X148175000Y-90805000D03*
X147175000Y-90805000D03*
X146175000Y-90805000D03*
X145175000Y-90805000D03*
X144175000Y-90805000D03*
X143175000Y-90805000D03*
X142175000Y-90805000D03*
X141175000Y-90805000D03*
X140175000Y-90805000D03*
X139175000Y-90805000D03*
X138175000Y-90805000D03*
X137175000Y-90805000D03*
X136175000Y-90805000D03*
X151175000Y-89805000D03*
X150175000Y-89805000D03*
X149175000Y-89805000D03*
X148175000Y-89805000D03*
X147175000Y-89805000D03*
X146175000Y-89805000D03*
X145175000Y-89805000D03*
X144175000Y-89805000D03*
X143175000Y-89805000D03*
X142175000Y-89805000D03*
X141175000Y-89805000D03*
X140175000Y-89805000D03*
X139175000Y-89805000D03*
X138175000Y-89805000D03*
X137175000Y-89805000D03*
X136175000Y-89805000D03*
X151175000Y-88805000D03*
X150175000Y-88805000D03*
X149175000Y-88805000D03*
X148175000Y-88805000D03*
X147175000Y-88805000D03*
X146175000Y-88805000D03*
X145175000Y-88805000D03*
X144175000Y-88805000D03*
X143175000Y-88805000D03*
X142175000Y-88805000D03*
X141175000Y-88805000D03*
X140175000Y-88805000D03*
X139175000Y-88805000D03*
X138175000Y-88805000D03*
X137175000Y-88805000D03*
X136175000Y-88805000D03*
X151175000Y-87805000D03*
X150175000Y-87805000D03*
X149175000Y-87805000D03*
X148175000Y-87805000D03*
X147175000Y-87805000D03*
X146175000Y-87805000D03*
X145175000Y-87805000D03*
X144175000Y-87805000D03*
X143175000Y-87805000D03*
X142175000Y-87805000D03*
X141175000Y-87805000D03*
X140175000Y-87805000D03*
X139175000Y-87805000D03*
X138175000Y-87805000D03*
X137175000Y-87805000D03*
X136175000Y-87805000D03*
X151175000Y-86805000D03*
X150175000Y-86805000D03*
X149175000Y-86805000D03*
X148175000Y-86805000D03*
X147175000Y-86805000D03*
X146175000Y-86805000D03*
X145175000Y-86805000D03*
X144175000Y-86805000D03*
X143175000Y-86805000D03*
X142175000Y-86805000D03*
X141175000Y-86805000D03*
X140175000Y-86805000D03*
X139175000Y-86805000D03*
X138175000Y-86805000D03*
X137175000Y-86805000D03*
X136175000Y-86805000D03*
X151175000Y-85805000D03*
X150175000Y-85805000D03*
X149175000Y-85805000D03*
X148175000Y-85805000D03*
X147175000Y-85805000D03*
X146175000Y-85805000D03*
X145175000Y-85805000D03*
X144175000Y-85805000D03*
X143175000Y-85805000D03*
X142175000Y-85805000D03*
X141175000Y-85805000D03*
X140175000Y-85805000D03*
X139175000Y-85805000D03*
X138175000Y-85805000D03*
X137175000Y-85805000D03*
X136175000Y-85805000D03*
X151175000Y-84805000D03*
X150175000Y-84805000D03*
X149175000Y-84805000D03*
X148175000Y-84805000D03*
X147175000Y-84805000D03*
X146175000Y-84805000D03*
X145175000Y-84805000D03*
X144175000Y-84805000D03*
X143175000Y-84805000D03*
X142175000Y-84805000D03*
X141175000Y-84805000D03*
X140175000Y-84805000D03*
X139175000Y-84805000D03*
X138175000Y-84805000D03*
X137175000Y-84805000D03*
X136175000Y-84805000D03*
%TD*%
D15*
%TO.C,C55*%
X169555000Y-96405000D03*
X169555000Y-95445000D03*
%TD*%
D10*
%TO.C,R33*%
X111469052Y-92370000D03*
X110449052Y-92370000D03*
%TD*%
D35*
%TO.C,U3*%
X168347500Y-81940000D03*
X168347500Y-81140000D03*
X167522500Y-81140000D03*
X168347500Y-82740000D03*
X167522500Y-81940000D03*
X167522500Y-82740000D03*
D36*
X169410000Y-82940000D03*
X169410000Y-82440000D03*
X169410000Y-81940000D03*
X169410000Y-81440000D03*
X169410000Y-80940000D03*
X166460000Y-80940000D03*
X166460000Y-81440000D03*
X166460000Y-81940000D03*
X166460000Y-82440000D03*
X166460000Y-82940000D03*
D37*
X167685000Y-83490000D03*
X167685000Y-80390000D03*
X168185000Y-83490000D03*
X168185000Y-80390000D03*
%TD*%
D14*
%TO.C,R19*%
X172210000Y-83450000D03*
X172210000Y-84470000D03*
%TD*%
D12*
%TO.C,R2*%
X147545000Y-82555000D03*
X147545000Y-81535000D03*
%TD*%
D38*
%TO.C,J1*%
X173875000Y-106910000D03*
X173375000Y-106910000D03*
X172875000Y-106910000D03*
X172375000Y-106910000D03*
X171875000Y-106910000D03*
X171375000Y-106910000D03*
X170875000Y-106910000D03*
X170375000Y-106910000D03*
X169875000Y-106910000D03*
X169375000Y-106910000D03*
X168875000Y-106910000D03*
X168375000Y-106910000D03*
X167875000Y-106910000D03*
X167375000Y-106910000D03*
X166875000Y-106910000D03*
X166375000Y-106910000D03*
X165875000Y-106910000D03*
X165375000Y-106910000D03*
X164875000Y-106910000D03*
X164375000Y-106910000D03*
X163875000Y-106910000D03*
X163375000Y-106910000D03*
X162875000Y-106910000D03*
X162375000Y-106910000D03*
X161875000Y-106910000D03*
X161375000Y-106910000D03*
X160875000Y-106910000D03*
X160375000Y-106910000D03*
X159875000Y-106910000D03*
X159375000Y-106910000D03*
X158875000Y-106910000D03*
X158375000Y-106910000D03*
X157875000Y-106910000D03*
X157375000Y-106910000D03*
X156875000Y-106910000D03*
X156375000Y-106910000D03*
X155875000Y-106910000D03*
X155375000Y-106910000D03*
X154875000Y-106910000D03*
X154375000Y-106910000D03*
X153875000Y-106910000D03*
X153375000Y-106910000D03*
X152875000Y-106910000D03*
X152375000Y-106910000D03*
X151875000Y-106910000D03*
X151375000Y-106910000D03*
X150875000Y-106910000D03*
X150375000Y-106910000D03*
X149875000Y-106910000D03*
X149375000Y-106910000D03*
X148875000Y-106910000D03*
X148375000Y-106910000D03*
X147875000Y-106910000D03*
X147375000Y-106910000D03*
X146875000Y-106910000D03*
X146375000Y-106910000D03*
X145875000Y-106910000D03*
X145375000Y-106910000D03*
X144875000Y-106910000D03*
X144375000Y-106910000D03*
X143875000Y-106910000D03*
X143375000Y-106910000D03*
X142875000Y-106910000D03*
X142375000Y-106910000D03*
X141875000Y-106910000D03*
X141375000Y-106910000D03*
X140875000Y-106910000D03*
X140375000Y-106910000D03*
X139875000Y-106910000D03*
X139375000Y-106910000D03*
X138875000Y-106910000D03*
X138375000Y-106910000D03*
X135875000Y-106910000D03*
X135375000Y-106910000D03*
X134875000Y-106910000D03*
X134375000Y-106910000D03*
X133875000Y-106910000D03*
X133375000Y-106910000D03*
X132875000Y-106910000D03*
X132375000Y-106910000D03*
X131875000Y-106910000D03*
X131375000Y-106910000D03*
X130875000Y-106910000D03*
X130375000Y-106910000D03*
X129875000Y-106910000D03*
X129375000Y-106910000D03*
X128875000Y-106910000D03*
X128375000Y-106910000D03*
X127875000Y-106910000D03*
X127375000Y-106910000D03*
X126875000Y-106910000D03*
X126375000Y-106910000D03*
X125875000Y-106910000D03*
X125375000Y-106910000D03*
X124875000Y-106910000D03*
X124375000Y-106910000D03*
X123875000Y-106910000D03*
X123375000Y-106910000D03*
X122875000Y-106910000D03*
X122375000Y-106910000D03*
X121875000Y-106910000D03*
X121375000Y-106910000D03*
X120875000Y-106910000D03*
X120375000Y-106910000D03*
X119875000Y-106910000D03*
X119375000Y-106910000D03*
X118875000Y-106910000D03*
X118375000Y-106910000D03*
X117875000Y-106910000D03*
X117375000Y-106910000D03*
X116875000Y-106910000D03*
X116375000Y-106910000D03*
X115875000Y-106910000D03*
X115375000Y-106910000D03*
X114875000Y-106910000D03*
X114375000Y-106910000D03*
X113875000Y-106910000D03*
X113375000Y-106910000D03*
X112875000Y-106910000D03*
X112375000Y-106910000D03*
X111875000Y-106910000D03*
X111375000Y-106910000D03*
X110875000Y-106910000D03*
X110375000Y-106910000D03*
X109875000Y-106910000D03*
X109375000Y-106910000D03*
X108875000Y-106910000D03*
X108375000Y-106910000D03*
X107875000Y-106910000D03*
X107375000Y-106910000D03*
%TD*%
M02*
