%TF.GenerationSoftware,KiCad,Pcbnew,(5.1.10)-1*%
%TF.CreationDate,2021-11-06T17:28:22+08:00*%
%TF.ProjectId,WirelessPower,57697265-6c65-4737-9350-6f7765722e6b,rev?*%
%TF.SameCoordinates,Original*%
%TF.FileFunction,Soldermask,Top*%
%TF.FilePolarity,Negative*%
%FSLAX46Y46*%
G04 Gerber Fmt 4.6, Leading zero omitted, Abs format (unit mm)*
G04 Created by KiCad (PCBNEW (5.1.10)-1) date 2021-11-06 17:28:22*
%MOMM*%
%LPD*%
G01*
G04 APERTURE LIST*
%ADD10C,0.010000*%
%ADD11R,0.900000X1.500000*%
%ADD12R,0.760000X0.220000*%
%ADD13R,2.050000X3.050000*%
%ADD14R,0.600000X0.240000*%
%ADD15R,0.240000X0.600000*%
%ADD16O,1.400000X1.400000*%
%ADD17C,1.400000*%
%ADD18R,1.300000X0.300000*%
%ADD19R,2.200000X1.800000*%
%ADD20O,1.700000X1.700000*%
%ADD21R,1.700000X1.700000*%
%ADD22C,2.200000*%
%ADD23R,0.500000X0.630000*%
%ADD24R,0.850000X0.280000*%
%ADD25R,0.750000X0.280000*%
G04 APERTURE END LIST*
D10*
%TO.C,U2*%
G36*
X163593000Y-117853000D02*
G01*
X163593000Y-117080000D01*
X163593208Y-117072045D01*
X163593833Y-117064112D01*
X163594871Y-117056222D01*
X163596322Y-117048397D01*
X163598179Y-117040660D01*
X163600439Y-117033029D01*
X163603096Y-117025528D01*
X163606141Y-117018176D01*
X163609567Y-117010993D01*
X163613364Y-117004000D01*
X163617522Y-116997215D01*
X163622029Y-116990657D01*
X163626874Y-116984343D01*
X163632042Y-116978292D01*
X163637520Y-116972520D01*
X163643292Y-116967042D01*
X163649343Y-116961874D01*
X163655657Y-116957029D01*
X163662215Y-116952522D01*
X163669000Y-116948364D01*
X163675993Y-116944567D01*
X163683176Y-116941141D01*
X163690528Y-116938096D01*
X163698029Y-116935439D01*
X163705660Y-116933179D01*
X163713397Y-116931322D01*
X163721222Y-116929871D01*
X163729112Y-116928833D01*
X163737045Y-116928208D01*
X163745000Y-116928000D01*
X163845000Y-116928000D01*
X163852955Y-116928208D01*
X163860888Y-116928833D01*
X163868778Y-116929871D01*
X163876603Y-116931322D01*
X163884340Y-116933179D01*
X163891971Y-116935439D01*
X163899472Y-116938096D01*
X163906824Y-116941141D01*
X163914007Y-116944567D01*
X163921000Y-116948364D01*
X163927785Y-116952522D01*
X163934343Y-116957029D01*
X163940657Y-116961874D01*
X163946708Y-116967042D01*
X163952480Y-116972520D01*
X163957958Y-116978292D01*
X163963126Y-116984343D01*
X163967971Y-116990657D01*
X163972478Y-116997215D01*
X163976636Y-117004000D01*
X163980433Y-117010993D01*
X163983859Y-117018176D01*
X163986904Y-117025528D01*
X163989561Y-117033029D01*
X163991821Y-117040660D01*
X163993678Y-117048397D01*
X163995129Y-117056222D01*
X163996167Y-117064112D01*
X163996792Y-117072045D01*
X163997000Y-117080000D01*
X163997000Y-117453000D01*
X164142000Y-117453000D01*
X164143000Y-117453000D01*
X164143000Y-117078000D01*
X164143206Y-117070150D01*
X164143822Y-117062321D01*
X164144847Y-117054535D01*
X164146278Y-117046813D01*
X164148111Y-117039177D01*
X164150342Y-117031647D01*
X164152963Y-117024245D01*
X164155968Y-117016990D01*
X164159349Y-117009901D01*
X164163096Y-117003000D01*
X164167199Y-116996304D01*
X164171647Y-116989832D01*
X164176428Y-116983602D01*
X164181528Y-116977630D01*
X164186934Y-116971934D01*
X164192630Y-116966528D01*
X164198602Y-116961428D01*
X164204832Y-116956647D01*
X164211304Y-116952199D01*
X164218000Y-116948096D01*
X164224901Y-116944349D01*
X164231990Y-116940968D01*
X164239245Y-116937963D01*
X164246647Y-116935342D01*
X164254177Y-116933111D01*
X164261813Y-116931278D01*
X164269535Y-116929847D01*
X164277321Y-116928822D01*
X164285150Y-116928206D01*
X164293000Y-116928000D01*
X164396000Y-116928000D01*
X164403903Y-116928207D01*
X164411784Y-116928827D01*
X164419622Y-116929859D01*
X164427395Y-116931300D01*
X164435082Y-116933145D01*
X164442662Y-116935390D01*
X164450114Y-116938029D01*
X164457417Y-116941055D01*
X164464553Y-116944458D01*
X164471500Y-116948230D01*
X164478240Y-116952361D01*
X164484756Y-116956838D01*
X164491027Y-116961651D01*
X164497039Y-116966785D01*
X164502773Y-116972227D01*
X164508215Y-116977961D01*
X164513349Y-116983973D01*
X164518162Y-116990244D01*
X164522639Y-116996760D01*
X164526770Y-117003500D01*
X164530542Y-117010447D01*
X164533945Y-117017583D01*
X164536971Y-117024886D01*
X164539610Y-117032338D01*
X164541855Y-117039918D01*
X164543700Y-117047605D01*
X164545141Y-117055378D01*
X164546173Y-117063216D01*
X164546793Y-117071097D01*
X164547000Y-117079000D01*
X164547000Y-117853000D01*
X165045000Y-117853000D01*
X165052955Y-117853208D01*
X165060888Y-117853833D01*
X165068778Y-117854871D01*
X165076603Y-117856322D01*
X165084340Y-117858179D01*
X165091971Y-117860439D01*
X165099472Y-117863096D01*
X165106824Y-117866141D01*
X165114007Y-117869567D01*
X165121000Y-117873364D01*
X165127785Y-117877522D01*
X165134343Y-117882029D01*
X165140657Y-117886874D01*
X165146708Y-117892042D01*
X165152480Y-117897520D01*
X165157958Y-117903292D01*
X165163126Y-117909343D01*
X165167971Y-117915657D01*
X165172478Y-117922215D01*
X165176636Y-117929000D01*
X165180433Y-117935993D01*
X165183859Y-117943176D01*
X165186904Y-117950528D01*
X165189561Y-117958029D01*
X165191821Y-117965660D01*
X165193678Y-117973397D01*
X165195129Y-117981222D01*
X165196167Y-117989112D01*
X165196792Y-117997045D01*
X165197000Y-118005000D01*
X165197000Y-120956000D01*
X165196794Y-120963850D01*
X165196178Y-120971679D01*
X165195153Y-120979465D01*
X165193722Y-120987187D01*
X165191889Y-120994823D01*
X165189658Y-121002353D01*
X165187037Y-121009755D01*
X165184032Y-121017010D01*
X165180651Y-121024099D01*
X165176904Y-121031000D01*
X165172801Y-121037696D01*
X165168353Y-121044168D01*
X165163572Y-121050398D01*
X165158472Y-121056370D01*
X165153066Y-121062066D01*
X165147370Y-121067472D01*
X165141398Y-121072572D01*
X165135168Y-121077353D01*
X165128696Y-121081801D01*
X165122000Y-121085904D01*
X165115099Y-121089651D01*
X165108010Y-121093032D01*
X165100755Y-121096037D01*
X165093353Y-121098658D01*
X165085823Y-121100889D01*
X165078187Y-121102722D01*
X165070465Y-121104153D01*
X165062679Y-121105178D01*
X165054850Y-121105794D01*
X165047000Y-121106000D01*
X164548000Y-121106000D01*
X164547948Y-121106001D01*
X164547895Y-121106005D01*
X164547844Y-121106012D01*
X164547792Y-121106022D01*
X164547741Y-121106034D01*
X164547691Y-121106049D01*
X164547642Y-121106066D01*
X164547593Y-121106086D01*
X164547546Y-121106109D01*
X164547500Y-121106134D01*
X164547455Y-121106161D01*
X164547412Y-121106191D01*
X164547371Y-121106223D01*
X164547331Y-121106257D01*
X164547293Y-121106293D01*
X164547257Y-121106331D01*
X164547223Y-121106371D01*
X164547191Y-121106412D01*
X164547161Y-121106455D01*
X164547134Y-121106500D01*
X164547109Y-121106546D01*
X164547086Y-121106593D01*
X164547066Y-121106642D01*
X164547049Y-121106691D01*
X164547034Y-121106741D01*
X164547022Y-121106792D01*
X164547012Y-121106844D01*
X164547005Y-121106895D01*
X164547001Y-121106948D01*
X164547000Y-121107000D01*
X164547000Y-121881000D01*
X164546794Y-121888850D01*
X164546178Y-121896679D01*
X164545153Y-121904465D01*
X164543722Y-121912187D01*
X164541889Y-121919823D01*
X164539658Y-121927353D01*
X164537037Y-121934755D01*
X164534032Y-121942010D01*
X164530651Y-121949099D01*
X164526904Y-121956000D01*
X164522801Y-121962696D01*
X164518353Y-121969168D01*
X164513572Y-121975398D01*
X164508472Y-121981370D01*
X164503066Y-121987066D01*
X164497370Y-121992472D01*
X164491398Y-121997572D01*
X164485168Y-122002353D01*
X164478696Y-122006801D01*
X164472000Y-122010904D01*
X164465099Y-122014651D01*
X164458010Y-122018032D01*
X164450755Y-122021037D01*
X164443353Y-122023658D01*
X164435823Y-122025889D01*
X164428187Y-122027722D01*
X164420465Y-122029153D01*
X164412679Y-122030178D01*
X164404850Y-122030794D01*
X164397000Y-122031000D01*
X164292000Y-122031000D01*
X164284202Y-122030796D01*
X164276425Y-122030184D01*
X164268691Y-122029166D01*
X164261021Y-122027744D01*
X164253436Y-122025923D01*
X164245956Y-122023707D01*
X164238603Y-122021103D01*
X164231396Y-122018118D01*
X164224355Y-122014760D01*
X164217500Y-122011038D01*
X164210849Y-122006962D01*
X164204420Y-122002544D01*
X164198231Y-121997795D01*
X164192300Y-121992729D01*
X164186641Y-121987359D01*
X164181271Y-121981700D01*
X164176205Y-121975769D01*
X164171456Y-121969580D01*
X164167038Y-121963151D01*
X164162962Y-121956500D01*
X164159240Y-121949645D01*
X164155882Y-121942604D01*
X164152897Y-121935397D01*
X164150293Y-121928044D01*
X164148077Y-121920564D01*
X164146256Y-121912979D01*
X164144834Y-121905309D01*
X164143816Y-121897575D01*
X164143204Y-121889798D01*
X164143000Y-121882000D01*
X164143000Y-121507000D01*
X163998000Y-121507000D01*
X163997948Y-121507001D01*
X163997895Y-121507005D01*
X163997844Y-121507012D01*
X163997792Y-121507022D01*
X163997741Y-121507034D01*
X163997691Y-121507049D01*
X163997642Y-121507066D01*
X163997593Y-121507086D01*
X163997546Y-121507109D01*
X163997500Y-121507134D01*
X163997455Y-121507161D01*
X163997412Y-121507191D01*
X163997371Y-121507223D01*
X163997331Y-121507257D01*
X163997293Y-121507293D01*
X163997257Y-121507331D01*
X163997223Y-121507371D01*
X163997191Y-121507412D01*
X163997161Y-121507455D01*
X163997134Y-121507500D01*
X163997109Y-121507546D01*
X163997086Y-121507593D01*
X163997066Y-121507642D01*
X163997049Y-121507691D01*
X163997034Y-121507741D01*
X163997022Y-121507792D01*
X163997012Y-121507844D01*
X163997005Y-121507895D01*
X163997001Y-121507948D01*
X163997000Y-121508000D01*
X163997000Y-121881000D01*
X163996794Y-121888850D01*
X163996178Y-121896679D01*
X163995153Y-121904465D01*
X163993722Y-121912187D01*
X163991889Y-121919823D01*
X163989658Y-121927353D01*
X163987037Y-121934755D01*
X163984032Y-121942010D01*
X163980651Y-121949099D01*
X163976904Y-121956000D01*
X163972801Y-121962696D01*
X163968353Y-121969168D01*
X163963572Y-121975398D01*
X163958472Y-121981370D01*
X163953066Y-121987066D01*
X163947370Y-121992472D01*
X163941398Y-121997572D01*
X163935168Y-122002353D01*
X163928696Y-122006801D01*
X163922000Y-122010904D01*
X163915099Y-122014651D01*
X163908010Y-122018032D01*
X163900755Y-122021037D01*
X163893353Y-122023658D01*
X163885823Y-122025889D01*
X163878187Y-122027722D01*
X163870465Y-122029153D01*
X163862679Y-122030178D01*
X163854850Y-122030794D01*
X163847000Y-122031000D01*
X163741000Y-122031000D01*
X163733254Y-122030797D01*
X163725530Y-122030189D01*
X163717848Y-122029178D01*
X163710229Y-122027766D01*
X163702695Y-122025957D01*
X163695265Y-122023756D01*
X163687962Y-122021170D01*
X163680803Y-122018205D01*
X163673809Y-122014869D01*
X163667000Y-122011172D01*
X163660393Y-122007123D01*
X163654008Y-122002735D01*
X163647861Y-121998018D01*
X163641969Y-121992985D01*
X163636348Y-121987652D01*
X163631015Y-121982031D01*
X163625982Y-121976139D01*
X163621265Y-121969992D01*
X163616877Y-121963607D01*
X163612828Y-121957000D01*
X163609131Y-121950191D01*
X163605795Y-121943197D01*
X163602830Y-121936038D01*
X163600244Y-121928735D01*
X163598043Y-121921305D01*
X163596234Y-121913771D01*
X163594822Y-121906152D01*
X163593811Y-121898470D01*
X163593203Y-121890746D01*
X163593000Y-121883000D01*
X163593000Y-121107000D01*
X163095000Y-121107000D01*
X163087045Y-121106792D01*
X163079112Y-121106167D01*
X163071222Y-121105129D01*
X163063397Y-121103678D01*
X163055660Y-121101821D01*
X163048029Y-121099561D01*
X163040528Y-121096904D01*
X163033176Y-121093859D01*
X163025993Y-121090433D01*
X163019000Y-121086636D01*
X163012215Y-121082478D01*
X163005657Y-121077971D01*
X162999343Y-121073126D01*
X162993292Y-121067958D01*
X162987520Y-121062480D01*
X162982042Y-121056708D01*
X162976874Y-121050657D01*
X162972029Y-121044343D01*
X162967522Y-121037785D01*
X162963364Y-121031000D01*
X162959567Y-121024007D01*
X162956141Y-121016824D01*
X162953096Y-121009472D01*
X162950439Y-121001971D01*
X162948179Y-120994340D01*
X162946322Y-120986603D01*
X162944871Y-120978778D01*
X162943833Y-120970888D01*
X162943208Y-120962955D01*
X162943000Y-120955000D01*
X162943000Y-118006000D01*
X162943208Y-117998045D01*
X162943833Y-117990112D01*
X162944871Y-117982222D01*
X162946322Y-117974397D01*
X162948179Y-117966660D01*
X162950439Y-117959029D01*
X162953096Y-117951528D01*
X162956141Y-117944176D01*
X162959567Y-117936993D01*
X162963364Y-117930000D01*
X162967522Y-117923215D01*
X162972029Y-117916657D01*
X162976874Y-117910343D01*
X162982042Y-117904292D01*
X162987520Y-117898520D01*
X162993292Y-117893042D01*
X162999343Y-117887874D01*
X163005657Y-117883029D01*
X163012215Y-117878522D01*
X163019000Y-117874364D01*
X163025993Y-117870567D01*
X163033176Y-117867141D01*
X163040528Y-117864096D01*
X163048029Y-117861439D01*
X163055660Y-117859179D01*
X163063397Y-117857322D01*
X163071222Y-117855871D01*
X163079112Y-117854833D01*
X163087045Y-117854208D01*
X163095000Y-117854000D01*
X163592000Y-117854000D01*
X163592052Y-117853999D01*
X163592105Y-117853995D01*
X163592156Y-117853988D01*
X163592208Y-117853978D01*
X163592259Y-117853966D01*
X163592309Y-117853951D01*
X163592358Y-117853934D01*
X163592407Y-117853914D01*
X163592454Y-117853891D01*
X163592500Y-117853866D01*
X163592545Y-117853839D01*
X163592588Y-117853809D01*
X163592629Y-117853777D01*
X163592669Y-117853743D01*
X163592707Y-117853707D01*
X163592743Y-117853669D01*
X163592777Y-117853629D01*
X163592809Y-117853588D01*
X163592839Y-117853545D01*
X163592866Y-117853500D01*
X163592891Y-117853454D01*
X163592914Y-117853407D01*
X163592934Y-117853358D01*
X163592951Y-117853309D01*
X163592966Y-117853259D01*
X163592978Y-117853208D01*
X163592988Y-117853156D01*
X163592995Y-117853105D01*
X163592999Y-117853052D01*
X163593000Y-117853000D01*
G37*
X163593000Y-117853000D02*
X163593000Y-117080000D01*
X163593208Y-117072045D01*
X163593833Y-117064112D01*
X163594871Y-117056222D01*
X163596322Y-117048397D01*
X163598179Y-117040660D01*
X163600439Y-117033029D01*
X163603096Y-117025528D01*
X163606141Y-117018176D01*
X163609567Y-117010993D01*
X163613364Y-117004000D01*
X163617522Y-116997215D01*
X163622029Y-116990657D01*
X163626874Y-116984343D01*
X163632042Y-116978292D01*
X163637520Y-116972520D01*
X163643292Y-116967042D01*
X163649343Y-116961874D01*
X163655657Y-116957029D01*
X163662215Y-116952522D01*
X163669000Y-116948364D01*
X163675993Y-116944567D01*
X163683176Y-116941141D01*
X163690528Y-116938096D01*
X163698029Y-116935439D01*
X163705660Y-116933179D01*
X163713397Y-116931322D01*
X163721222Y-116929871D01*
X163729112Y-116928833D01*
X163737045Y-116928208D01*
X163745000Y-116928000D01*
X163845000Y-116928000D01*
X163852955Y-116928208D01*
X163860888Y-116928833D01*
X163868778Y-116929871D01*
X163876603Y-116931322D01*
X163884340Y-116933179D01*
X163891971Y-116935439D01*
X163899472Y-116938096D01*
X163906824Y-116941141D01*
X163914007Y-116944567D01*
X163921000Y-116948364D01*
X163927785Y-116952522D01*
X163934343Y-116957029D01*
X163940657Y-116961874D01*
X163946708Y-116967042D01*
X163952480Y-116972520D01*
X163957958Y-116978292D01*
X163963126Y-116984343D01*
X163967971Y-116990657D01*
X163972478Y-116997215D01*
X163976636Y-117004000D01*
X163980433Y-117010993D01*
X163983859Y-117018176D01*
X163986904Y-117025528D01*
X163989561Y-117033029D01*
X163991821Y-117040660D01*
X163993678Y-117048397D01*
X163995129Y-117056222D01*
X163996167Y-117064112D01*
X163996792Y-117072045D01*
X163997000Y-117080000D01*
X163997000Y-117453000D01*
X164142000Y-117453000D01*
X164143000Y-117453000D01*
X164143000Y-117078000D01*
X164143206Y-117070150D01*
X164143822Y-117062321D01*
X164144847Y-117054535D01*
X164146278Y-117046813D01*
X164148111Y-117039177D01*
X164150342Y-117031647D01*
X164152963Y-117024245D01*
X164155968Y-117016990D01*
X164159349Y-117009901D01*
X164163096Y-117003000D01*
X164167199Y-116996304D01*
X164171647Y-116989832D01*
X164176428Y-116983602D01*
X164181528Y-116977630D01*
X164186934Y-116971934D01*
X164192630Y-116966528D01*
X164198602Y-116961428D01*
X164204832Y-116956647D01*
X164211304Y-116952199D01*
X164218000Y-116948096D01*
X164224901Y-116944349D01*
X164231990Y-116940968D01*
X164239245Y-116937963D01*
X164246647Y-116935342D01*
X164254177Y-116933111D01*
X164261813Y-116931278D01*
X164269535Y-116929847D01*
X164277321Y-116928822D01*
X164285150Y-116928206D01*
X164293000Y-116928000D01*
X164396000Y-116928000D01*
X164403903Y-116928207D01*
X164411784Y-116928827D01*
X164419622Y-116929859D01*
X164427395Y-116931300D01*
X164435082Y-116933145D01*
X164442662Y-116935390D01*
X164450114Y-116938029D01*
X164457417Y-116941055D01*
X164464553Y-116944458D01*
X164471500Y-116948230D01*
X164478240Y-116952361D01*
X164484756Y-116956838D01*
X164491027Y-116961651D01*
X164497039Y-116966785D01*
X164502773Y-116972227D01*
X164508215Y-116977961D01*
X164513349Y-116983973D01*
X164518162Y-116990244D01*
X164522639Y-116996760D01*
X164526770Y-117003500D01*
X164530542Y-117010447D01*
X164533945Y-117017583D01*
X164536971Y-117024886D01*
X164539610Y-117032338D01*
X164541855Y-117039918D01*
X164543700Y-117047605D01*
X164545141Y-117055378D01*
X164546173Y-117063216D01*
X164546793Y-117071097D01*
X164547000Y-117079000D01*
X164547000Y-117853000D01*
X165045000Y-117853000D01*
X165052955Y-117853208D01*
X165060888Y-117853833D01*
X165068778Y-117854871D01*
X165076603Y-117856322D01*
X165084340Y-117858179D01*
X165091971Y-117860439D01*
X165099472Y-117863096D01*
X165106824Y-117866141D01*
X165114007Y-117869567D01*
X165121000Y-117873364D01*
X165127785Y-117877522D01*
X165134343Y-117882029D01*
X165140657Y-117886874D01*
X165146708Y-117892042D01*
X165152480Y-117897520D01*
X165157958Y-117903292D01*
X165163126Y-117909343D01*
X165167971Y-117915657D01*
X165172478Y-117922215D01*
X165176636Y-117929000D01*
X165180433Y-117935993D01*
X165183859Y-117943176D01*
X165186904Y-117950528D01*
X165189561Y-117958029D01*
X165191821Y-117965660D01*
X165193678Y-117973397D01*
X165195129Y-117981222D01*
X165196167Y-117989112D01*
X165196792Y-117997045D01*
X165197000Y-118005000D01*
X165197000Y-120956000D01*
X165196794Y-120963850D01*
X165196178Y-120971679D01*
X165195153Y-120979465D01*
X165193722Y-120987187D01*
X165191889Y-120994823D01*
X165189658Y-121002353D01*
X165187037Y-121009755D01*
X165184032Y-121017010D01*
X165180651Y-121024099D01*
X165176904Y-121031000D01*
X165172801Y-121037696D01*
X165168353Y-121044168D01*
X165163572Y-121050398D01*
X165158472Y-121056370D01*
X165153066Y-121062066D01*
X165147370Y-121067472D01*
X165141398Y-121072572D01*
X165135168Y-121077353D01*
X165128696Y-121081801D01*
X165122000Y-121085904D01*
X165115099Y-121089651D01*
X165108010Y-121093032D01*
X165100755Y-121096037D01*
X165093353Y-121098658D01*
X165085823Y-121100889D01*
X165078187Y-121102722D01*
X165070465Y-121104153D01*
X165062679Y-121105178D01*
X165054850Y-121105794D01*
X165047000Y-121106000D01*
X164548000Y-121106000D01*
X164547948Y-121106001D01*
X164547895Y-121106005D01*
X164547844Y-121106012D01*
X164547792Y-121106022D01*
X164547741Y-121106034D01*
X164547691Y-121106049D01*
X164547642Y-121106066D01*
X164547593Y-121106086D01*
X164547546Y-121106109D01*
X164547500Y-121106134D01*
X164547455Y-121106161D01*
X164547412Y-121106191D01*
X164547371Y-121106223D01*
X164547331Y-121106257D01*
X164547293Y-121106293D01*
X164547257Y-121106331D01*
X164547223Y-121106371D01*
X164547191Y-121106412D01*
X164547161Y-121106455D01*
X164547134Y-121106500D01*
X164547109Y-121106546D01*
X164547086Y-121106593D01*
X164547066Y-121106642D01*
X164547049Y-121106691D01*
X164547034Y-121106741D01*
X164547022Y-121106792D01*
X164547012Y-121106844D01*
X164547005Y-121106895D01*
X164547001Y-121106948D01*
X164547000Y-121107000D01*
X164547000Y-121881000D01*
X164546794Y-121888850D01*
X164546178Y-121896679D01*
X164545153Y-121904465D01*
X164543722Y-121912187D01*
X164541889Y-121919823D01*
X164539658Y-121927353D01*
X164537037Y-121934755D01*
X164534032Y-121942010D01*
X164530651Y-121949099D01*
X164526904Y-121956000D01*
X164522801Y-121962696D01*
X164518353Y-121969168D01*
X164513572Y-121975398D01*
X164508472Y-121981370D01*
X164503066Y-121987066D01*
X164497370Y-121992472D01*
X164491398Y-121997572D01*
X164485168Y-122002353D01*
X164478696Y-122006801D01*
X164472000Y-122010904D01*
X164465099Y-122014651D01*
X164458010Y-122018032D01*
X164450755Y-122021037D01*
X164443353Y-122023658D01*
X164435823Y-122025889D01*
X164428187Y-122027722D01*
X164420465Y-122029153D01*
X164412679Y-122030178D01*
X164404850Y-122030794D01*
X164397000Y-122031000D01*
X164292000Y-122031000D01*
X164284202Y-122030796D01*
X164276425Y-122030184D01*
X164268691Y-122029166D01*
X164261021Y-122027744D01*
X164253436Y-122025923D01*
X164245956Y-122023707D01*
X164238603Y-122021103D01*
X164231396Y-122018118D01*
X164224355Y-122014760D01*
X164217500Y-122011038D01*
X164210849Y-122006962D01*
X164204420Y-122002544D01*
X164198231Y-121997795D01*
X164192300Y-121992729D01*
X164186641Y-121987359D01*
X164181271Y-121981700D01*
X164176205Y-121975769D01*
X164171456Y-121969580D01*
X164167038Y-121963151D01*
X164162962Y-121956500D01*
X164159240Y-121949645D01*
X164155882Y-121942604D01*
X164152897Y-121935397D01*
X164150293Y-121928044D01*
X164148077Y-121920564D01*
X164146256Y-121912979D01*
X164144834Y-121905309D01*
X164143816Y-121897575D01*
X164143204Y-121889798D01*
X164143000Y-121882000D01*
X164143000Y-121507000D01*
X163998000Y-121507000D01*
X163997948Y-121507001D01*
X163997895Y-121507005D01*
X163997844Y-121507012D01*
X163997792Y-121507022D01*
X163997741Y-121507034D01*
X163997691Y-121507049D01*
X163997642Y-121507066D01*
X163997593Y-121507086D01*
X163997546Y-121507109D01*
X163997500Y-121507134D01*
X163997455Y-121507161D01*
X163997412Y-121507191D01*
X163997371Y-121507223D01*
X163997331Y-121507257D01*
X163997293Y-121507293D01*
X163997257Y-121507331D01*
X163997223Y-121507371D01*
X163997191Y-121507412D01*
X163997161Y-121507455D01*
X163997134Y-121507500D01*
X163997109Y-121507546D01*
X163997086Y-121507593D01*
X163997066Y-121507642D01*
X163997049Y-121507691D01*
X163997034Y-121507741D01*
X163997022Y-121507792D01*
X163997012Y-121507844D01*
X163997005Y-121507895D01*
X163997001Y-121507948D01*
X163997000Y-121508000D01*
X163997000Y-121881000D01*
X163996794Y-121888850D01*
X163996178Y-121896679D01*
X163995153Y-121904465D01*
X163993722Y-121912187D01*
X163991889Y-121919823D01*
X163989658Y-121927353D01*
X163987037Y-121934755D01*
X163984032Y-121942010D01*
X163980651Y-121949099D01*
X163976904Y-121956000D01*
X163972801Y-121962696D01*
X163968353Y-121969168D01*
X163963572Y-121975398D01*
X163958472Y-121981370D01*
X163953066Y-121987066D01*
X163947370Y-121992472D01*
X163941398Y-121997572D01*
X163935168Y-122002353D01*
X163928696Y-122006801D01*
X163922000Y-122010904D01*
X163915099Y-122014651D01*
X163908010Y-122018032D01*
X163900755Y-122021037D01*
X163893353Y-122023658D01*
X163885823Y-122025889D01*
X163878187Y-122027722D01*
X163870465Y-122029153D01*
X163862679Y-122030178D01*
X163854850Y-122030794D01*
X163847000Y-122031000D01*
X163741000Y-122031000D01*
X163733254Y-122030797D01*
X163725530Y-122030189D01*
X163717848Y-122029178D01*
X163710229Y-122027766D01*
X163702695Y-122025957D01*
X163695265Y-122023756D01*
X163687962Y-122021170D01*
X163680803Y-122018205D01*
X163673809Y-122014869D01*
X163667000Y-122011172D01*
X163660393Y-122007123D01*
X163654008Y-122002735D01*
X163647861Y-121998018D01*
X163641969Y-121992985D01*
X163636348Y-121987652D01*
X163631015Y-121982031D01*
X163625982Y-121976139D01*
X163621265Y-121969992D01*
X163616877Y-121963607D01*
X163612828Y-121957000D01*
X163609131Y-121950191D01*
X163605795Y-121943197D01*
X163602830Y-121936038D01*
X163600244Y-121928735D01*
X163598043Y-121921305D01*
X163596234Y-121913771D01*
X163594822Y-121906152D01*
X163593811Y-121898470D01*
X163593203Y-121890746D01*
X163593000Y-121883000D01*
X163593000Y-121107000D01*
X163095000Y-121107000D01*
X163087045Y-121106792D01*
X163079112Y-121106167D01*
X163071222Y-121105129D01*
X163063397Y-121103678D01*
X163055660Y-121101821D01*
X163048029Y-121099561D01*
X163040528Y-121096904D01*
X163033176Y-121093859D01*
X163025993Y-121090433D01*
X163019000Y-121086636D01*
X163012215Y-121082478D01*
X163005657Y-121077971D01*
X162999343Y-121073126D01*
X162993292Y-121067958D01*
X162987520Y-121062480D01*
X162982042Y-121056708D01*
X162976874Y-121050657D01*
X162972029Y-121044343D01*
X162967522Y-121037785D01*
X162963364Y-121031000D01*
X162959567Y-121024007D01*
X162956141Y-121016824D01*
X162953096Y-121009472D01*
X162950439Y-121001971D01*
X162948179Y-120994340D01*
X162946322Y-120986603D01*
X162944871Y-120978778D01*
X162943833Y-120970888D01*
X162943208Y-120962955D01*
X162943000Y-120955000D01*
X162943000Y-118006000D01*
X162943208Y-117998045D01*
X162943833Y-117990112D01*
X162944871Y-117982222D01*
X162946322Y-117974397D01*
X162948179Y-117966660D01*
X162950439Y-117959029D01*
X162953096Y-117951528D01*
X162956141Y-117944176D01*
X162959567Y-117936993D01*
X162963364Y-117930000D01*
X162967522Y-117923215D01*
X162972029Y-117916657D01*
X162976874Y-117910343D01*
X162982042Y-117904292D01*
X162987520Y-117898520D01*
X162993292Y-117893042D01*
X162999343Y-117887874D01*
X163005657Y-117883029D01*
X163012215Y-117878522D01*
X163019000Y-117874364D01*
X163025993Y-117870567D01*
X163033176Y-117867141D01*
X163040528Y-117864096D01*
X163048029Y-117861439D01*
X163055660Y-117859179D01*
X163063397Y-117857322D01*
X163071222Y-117855871D01*
X163079112Y-117854833D01*
X163087045Y-117854208D01*
X163095000Y-117854000D01*
X163592000Y-117854000D01*
X163592052Y-117853999D01*
X163592105Y-117853995D01*
X163592156Y-117853988D01*
X163592208Y-117853978D01*
X163592259Y-117853966D01*
X163592309Y-117853951D01*
X163592358Y-117853934D01*
X163592407Y-117853914D01*
X163592454Y-117853891D01*
X163592500Y-117853866D01*
X163592545Y-117853839D01*
X163592588Y-117853809D01*
X163592629Y-117853777D01*
X163592669Y-117853743D01*
X163592707Y-117853707D01*
X163592743Y-117853669D01*
X163592777Y-117853629D01*
X163592809Y-117853588D01*
X163592839Y-117853545D01*
X163592866Y-117853500D01*
X163592891Y-117853454D01*
X163592914Y-117853407D01*
X163592934Y-117853358D01*
X163592951Y-117853309D01*
X163592966Y-117853259D01*
X163592978Y-117853208D01*
X163592988Y-117853156D01*
X163592995Y-117853105D01*
X163592999Y-117853052D01*
X163593000Y-117853000D01*
%TO.C,U4*%
G36*
X141405000Y-116190000D02*
G01*
X141405000Y-113680000D01*
X144055000Y-113680000D01*
X144055000Y-116190000D01*
X141405000Y-116190000D01*
G37*
X141405000Y-116190000D02*
X141405000Y-113680000D01*
X144055000Y-113680000D01*
X144055000Y-116190000D01*
X141405000Y-116190000D01*
%TO.C,U3*%
G36*
X144715000Y-116189999D02*
G01*
X144715000Y-113679999D01*
X147365000Y-113679999D01*
X147365000Y-116189999D01*
X144715000Y-116189999D01*
G37*
X144715000Y-116189999D02*
X144715000Y-113679999D01*
X147365000Y-113679999D01*
X147365000Y-116189999D01*
X144715000Y-116189999D01*
%TD*%
D11*
%TO.C,U5*%
X153770000Y-116559999D03*
D12*
X152785000Y-117359999D03*
X152785000Y-116959999D03*
X152785000Y-116559999D03*
X152785000Y-116159999D03*
X152785000Y-115759999D03*
X154755000Y-115759999D03*
X154755000Y-116159999D03*
X154755000Y-116559999D03*
X154755000Y-116959999D03*
X154755000Y-117359999D03*
%TD*%
D13*
%TO.C,U2*%
X164070000Y-119480000D03*
D14*
X165720000Y-117730000D03*
X165720000Y-118230000D03*
X165720000Y-118730000D03*
X165720000Y-121230000D03*
X165720000Y-120730000D03*
X165720000Y-120230000D03*
X165720000Y-119730000D03*
X165720000Y-119230000D03*
X162420000Y-117730000D03*
X162420000Y-118230000D03*
X162420000Y-118730000D03*
X162420000Y-121230000D03*
X162420000Y-120730000D03*
X162420000Y-120230000D03*
X162420000Y-119730000D03*
X162420000Y-119230000D03*
D15*
X164820000Y-121630000D03*
X163320000Y-121630000D03*
X164820000Y-117330000D03*
X163320000Y-117330000D03*
%TD*%
%TO.C,C22*%
G36*
G01*
X168145000Y-113640000D02*
X168145000Y-114140000D01*
G75*
G02*
X167920000Y-114365000I-225000J0D01*
G01*
X167470000Y-114365000D01*
G75*
G02*
X167245000Y-114140000I0J225000D01*
G01*
X167245000Y-113640000D01*
G75*
G02*
X167470000Y-113415000I225000J0D01*
G01*
X167920000Y-113415000D01*
G75*
G02*
X168145000Y-113640000I0J-225000D01*
G01*
G37*
G36*
G01*
X169695000Y-113640000D02*
X169695000Y-114140000D01*
G75*
G02*
X169470000Y-114365000I-225000J0D01*
G01*
X169020000Y-114365000D01*
G75*
G02*
X168795000Y-114140000I0J225000D01*
G01*
X168795000Y-113640000D01*
G75*
G02*
X169020000Y-113415000I225000J0D01*
G01*
X169470000Y-113415000D01*
G75*
G02*
X169695000Y-113640000I0J-225000D01*
G01*
G37*
%TD*%
D16*
%TO.C,J6*%
X168870000Y-111140000D03*
D17*
X171410000Y-111140000D03*
%TD*%
%TO.C,C21*%
G36*
G01*
X156910000Y-112755000D02*
X157410000Y-112755000D01*
G75*
G02*
X157635000Y-112980000I0J-225000D01*
G01*
X157635000Y-113430000D01*
G75*
G02*
X157410000Y-113655000I-225000J0D01*
G01*
X156910000Y-113655000D01*
G75*
G02*
X156685000Y-113430000I0J225000D01*
G01*
X156685000Y-112980000D01*
G75*
G02*
X156910000Y-112755000I225000J0D01*
G01*
G37*
G36*
G01*
X156910000Y-111205000D02*
X157410000Y-111205000D01*
G75*
G02*
X157635000Y-111430000I0J-225000D01*
G01*
X157635000Y-111880000D01*
G75*
G02*
X157410000Y-112105000I-225000J0D01*
G01*
X156910000Y-112105000D01*
G75*
G02*
X156685000Y-111880000I0J225000D01*
G01*
X156685000Y-111430000D01*
G75*
G02*
X156910000Y-111205000I225000J0D01*
G01*
G37*
%TD*%
%TO.C,C20*%
G36*
G01*
X158160000Y-112755000D02*
X158660000Y-112755000D01*
G75*
G02*
X158885000Y-112980000I0J-225000D01*
G01*
X158885000Y-113430000D01*
G75*
G02*
X158660000Y-113655000I-225000J0D01*
G01*
X158160000Y-113655000D01*
G75*
G02*
X157935000Y-113430000I0J225000D01*
G01*
X157935000Y-112980000D01*
G75*
G02*
X158160000Y-112755000I225000J0D01*
G01*
G37*
G36*
G01*
X158160000Y-111205000D02*
X158660000Y-111205000D01*
G75*
G02*
X158885000Y-111430000I0J-225000D01*
G01*
X158885000Y-111880000D01*
G75*
G02*
X158660000Y-112105000I-225000J0D01*
G01*
X158160000Y-112105000D01*
G75*
G02*
X157935000Y-111880000I0J225000D01*
G01*
X157935000Y-111430000D01*
G75*
G02*
X158160000Y-111205000I225000J0D01*
G01*
G37*
%TD*%
%TO.C,C19*%
G36*
G01*
X163860000Y-112735000D02*
X164360000Y-112735000D01*
G75*
G02*
X164585000Y-112960000I0J-225000D01*
G01*
X164585000Y-113410000D01*
G75*
G02*
X164360000Y-113635000I-225000J0D01*
G01*
X163860000Y-113635000D01*
G75*
G02*
X163635000Y-113410000I0J225000D01*
G01*
X163635000Y-112960000D01*
G75*
G02*
X163860000Y-112735000I225000J0D01*
G01*
G37*
G36*
G01*
X163860000Y-111185000D02*
X164360000Y-111185000D01*
G75*
G02*
X164585000Y-111410000I0J-225000D01*
G01*
X164585000Y-111860000D01*
G75*
G02*
X164360000Y-112085000I-225000J0D01*
G01*
X163860000Y-112085000D01*
G75*
G02*
X163635000Y-111860000I0J225000D01*
G01*
X163635000Y-111410000D01*
G75*
G02*
X163860000Y-111185000I225000J0D01*
G01*
G37*
%TD*%
%TO.C,C15*%
G36*
G01*
X165235000Y-114690000D02*
X165235000Y-114190000D01*
G75*
G02*
X165460000Y-113965000I225000J0D01*
G01*
X165910000Y-113965000D01*
G75*
G02*
X166135000Y-114190000I0J-225000D01*
G01*
X166135000Y-114690000D01*
G75*
G02*
X165910000Y-114915000I-225000J0D01*
G01*
X165460000Y-114915000D01*
G75*
G02*
X165235000Y-114690000I0J225000D01*
G01*
G37*
G36*
G01*
X163685000Y-114690000D02*
X163685000Y-114190000D01*
G75*
G02*
X163910000Y-113965000I225000J0D01*
G01*
X164360000Y-113965000D01*
G75*
G02*
X164585000Y-114190000I0J-225000D01*
G01*
X164585000Y-114690000D01*
G75*
G02*
X164360000Y-114915000I-225000J0D01*
G01*
X163910000Y-114915000D01*
G75*
G02*
X163685000Y-114690000I0J225000D01*
G01*
G37*
%TD*%
%TO.C,C14*%
G36*
G01*
X162710000Y-112735000D02*
X163210000Y-112735000D01*
G75*
G02*
X163435000Y-112960000I0J-225000D01*
G01*
X163435000Y-113410000D01*
G75*
G02*
X163210000Y-113635000I-225000J0D01*
G01*
X162710000Y-113635000D01*
G75*
G02*
X162485000Y-113410000I0J225000D01*
G01*
X162485000Y-112960000D01*
G75*
G02*
X162710000Y-112735000I225000J0D01*
G01*
G37*
G36*
G01*
X162710000Y-111185000D02*
X163210000Y-111185000D01*
G75*
G02*
X163435000Y-111410000I0J-225000D01*
G01*
X163435000Y-111860000D01*
G75*
G02*
X163210000Y-112085000I-225000J0D01*
G01*
X162710000Y-112085000D01*
G75*
G02*
X162485000Y-111860000I0J225000D01*
G01*
X162485000Y-111410000D01*
G75*
G02*
X162710000Y-111185000I225000J0D01*
G01*
G37*
%TD*%
%TO.C,C13*%
G36*
G01*
X161560000Y-112745000D02*
X162060000Y-112745000D01*
G75*
G02*
X162285000Y-112970000I0J-225000D01*
G01*
X162285000Y-113420000D01*
G75*
G02*
X162060000Y-113645000I-225000J0D01*
G01*
X161560000Y-113645000D01*
G75*
G02*
X161335000Y-113420000I0J225000D01*
G01*
X161335000Y-112970000D01*
G75*
G02*
X161560000Y-112745000I225000J0D01*
G01*
G37*
G36*
G01*
X161560000Y-111195000D02*
X162060000Y-111195000D01*
G75*
G02*
X162285000Y-111420000I0J-225000D01*
G01*
X162285000Y-111870000D01*
G75*
G02*
X162060000Y-112095000I-225000J0D01*
G01*
X161560000Y-112095000D01*
G75*
G02*
X161335000Y-111870000I0J225000D01*
G01*
X161335000Y-111420000D01*
G75*
G02*
X161560000Y-111195000I225000J0D01*
G01*
G37*
%TD*%
%TO.C,C2*%
G36*
G01*
X165235000Y-115840000D02*
X165235000Y-115340000D01*
G75*
G02*
X165460000Y-115115000I225000J0D01*
G01*
X165910000Y-115115000D01*
G75*
G02*
X166135000Y-115340000I0J-225000D01*
G01*
X166135000Y-115840000D01*
G75*
G02*
X165910000Y-116065000I-225000J0D01*
G01*
X165460000Y-116065000D01*
G75*
G02*
X165235000Y-115840000I0J225000D01*
G01*
G37*
G36*
G01*
X163685000Y-115840000D02*
X163685000Y-115340000D01*
G75*
G02*
X163910000Y-115115000I225000J0D01*
G01*
X164360000Y-115115000D01*
G75*
G02*
X164585000Y-115340000I0J-225000D01*
G01*
X164585000Y-115840000D01*
G75*
G02*
X164360000Y-116065000I-225000J0D01*
G01*
X163910000Y-116065000D01*
G75*
G02*
X163685000Y-115840000I0J225000D01*
G01*
G37*
%TD*%
%TO.C,C1*%
G36*
G01*
X159459999Y-113290000D02*
X160760001Y-113290000D01*
G75*
G02*
X161010000Y-113539999I0J-249999D01*
G01*
X161010000Y-114190001D01*
G75*
G02*
X160760001Y-114440000I-249999J0D01*
G01*
X159459999Y-114440000D01*
G75*
G02*
X159210000Y-114190001I0J249999D01*
G01*
X159210000Y-113539999D01*
G75*
G02*
X159459999Y-113290000I249999J0D01*
G01*
G37*
G36*
G01*
X159459999Y-110340000D02*
X160760001Y-110340000D01*
G75*
G02*
X161010000Y-110589999I0J-249999D01*
G01*
X161010000Y-111240001D01*
G75*
G02*
X160760001Y-111490000I-249999J0D01*
G01*
X159459999Y-111490000D01*
G75*
G02*
X159210000Y-111240001I0J249999D01*
G01*
X159210000Y-110589999D01*
G75*
G02*
X159459999Y-110340000I249999J0D01*
G01*
G37*
%TD*%
D18*
%TO.C,J7*%
X178230000Y-112710000D03*
X178230000Y-113210000D03*
X178230000Y-113710000D03*
X178230000Y-114210000D03*
X178230000Y-114710000D03*
X178230000Y-115210000D03*
X178230000Y-115710000D03*
X178230000Y-116210000D03*
X178230000Y-116710000D03*
X178230000Y-117210000D03*
X178230000Y-117710000D03*
X178230000Y-118210000D03*
X178230000Y-118710000D03*
X178230000Y-119210000D03*
D19*
X181480000Y-121110000D03*
X181480000Y-110810000D03*
%TD*%
%TO.C,C18*%
G36*
G01*
X168145000Y-115950000D02*
X168145000Y-116450000D01*
G75*
G02*
X167920000Y-116675000I-225000J0D01*
G01*
X167470000Y-116675000D01*
G75*
G02*
X167245000Y-116450000I0J225000D01*
G01*
X167245000Y-115950000D01*
G75*
G02*
X167470000Y-115725000I225000J0D01*
G01*
X167920000Y-115725000D01*
G75*
G02*
X168145000Y-115950000I0J-225000D01*
G01*
G37*
G36*
G01*
X169695000Y-115950000D02*
X169695000Y-116450000D01*
G75*
G02*
X169470000Y-116675000I-225000J0D01*
G01*
X169020000Y-116675000D01*
G75*
G02*
X168795000Y-116450000I0J225000D01*
G01*
X168795000Y-115950000D01*
G75*
G02*
X169020000Y-115725000I225000J0D01*
G01*
X169470000Y-115725000D01*
G75*
G02*
X169695000Y-115950000I0J-225000D01*
G01*
G37*
%TD*%
%TO.C,C17*%
G36*
G01*
X158370000Y-117845000D02*
X158870000Y-117845000D01*
G75*
G02*
X159095000Y-118070000I0J-225000D01*
G01*
X159095000Y-118520000D01*
G75*
G02*
X158870000Y-118745000I-225000J0D01*
G01*
X158370000Y-118745000D01*
G75*
G02*
X158145000Y-118520000I0J225000D01*
G01*
X158145000Y-118070000D01*
G75*
G02*
X158370000Y-117845000I225000J0D01*
G01*
G37*
G36*
G01*
X158370000Y-116295000D02*
X158870000Y-116295000D01*
G75*
G02*
X159095000Y-116520000I0J-225000D01*
G01*
X159095000Y-116970000D01*
G75*
G02*
X158870000Y-117195000I-225000J0D01*
G01*
X158370000Y-117195000D01*
G75*
G02*
X158145000Y-116970000I0J225000D01*
G01*
X158145000Y-116520000D01*
G75*
G02*
X158370000Y-116295000I225000J0D01*
G01*
G37*
%TD*%
%TO.C,C16*%
G36*
G01*
X159530000Y-117845000D02*
X160030000Y-117845000D01*
G75*
G02*
X160255000Y-118070000I0J-225000D01*
G01*
X160255000Y-118520000D01*
G75*
G02*
X160030000Y-118745000I-225000J0D01*
G01*
X159530000Y-118745000D01*
G75*
G02*
X159305000Y-118520000I0J225000D01*
G01*
X159305000Y-118070000D01*
G75*
G02*
X159530000Y-117845000I225000J0D01*
G01*
G37*
G36*
G01*
X159530000Y-116295000D02*
X160030000Y-116295000D01*
G75*
G02*
X160255000Y-116520000I0J-225000D01*
G01*
X160255000Y-116970000D01*
G75*
G02*
X160030000Y-117195000I-225000J0D01*
G01*
X159530000Y-117195000D01*
G75*
G02*
X159305000Y-116970000I0J225000D01*
G01*
X159305000Y-116520000D01*
G75*
G02*
X159530000Y-116295000I225000J0D01*
G01*
G37*
%TD*%
%TO.C,C10*%
G36*
G01*
X168145000Y-114790000D02*
X168145000Y-115290000D01*
G75*
G02*
X167920000Y-115515000I-225000J0D01*
G01*
X167470000Y-115515000D01*
G75*
G02*
X167245000Y-115290000I0J225000D01*
G01*
X167245000Y-114790000D01*
G75*
G02*
X167470000Y-114565000I225000J0D01*
G01*
X167920000Y-114565000D01*
G75*
G02*
X168145000Y-114790000I0J-225000D01*
G01*
G37*
G36*
G01*
X169695000Y-114790000D02*
X169695000Y-115290000D01*
G75*
G02*
X169470000Y-115515000I-225000J0D01*
G01*
X169020000Y-115515000D01*
G75*
G02*
X168795000Y-115290000I0J225000D01*
G01*
X168795000Y-114790000D01*
G75*
G02*
X169020000Y-114565000I225000J0D01*
G01*
X169470000Y-114565000D01*
G75*
G02*
X169695000Y-114790000I0J-225000D01*
G01*
G37*
%TD*%
%TO.C,C9*%
G36*
G01*
X168400000Y-120220000D02*
X168400000Y-119880000D01*
G75*
G02*
X168540000Y-119740000I140000J0D01*
G01*
X168820000Y-119740000D01*
G75*
G02*
X168960000Y-119880000I0J-140000D01*
G01*
X168960000Y-120220000D01*
G75*
G02*
X168820000Y-120360000I-140000J0D01*
G01*
X168540000Y-120360000D01*
G75*
G02*
X168400000Y-120220000I0J140000D01*
G01*
G37*
G36*
G01*
X167440000Y-120220000D02*
X167440000Y-119880000D01*
G75*
G02*
X167580000Y-119740000I140000J0D01*
G01*
X167860000Y-119740000D01*
G75*
G02*
X168000000Y-119880000I0J-140000D01*
G01*
X168000000Y-120220000D01*
G75*
G02*
X167860000Y-120360000I-140000J0D01*
G01*
X167580000Y-120360000D01*
G75*
G02*
X167440000Y-120220000I0J140000D01*
G01*
G37*
%TD*%
%TO.C,C8*%
G36*
G01*
X168400000Y-119400000D02*
X168400000Y-119060000D01*
G75*
G02*
X168540000Y-118920000I140000J0D01*
G01*
X168820000Y-118920000D01*
G75*
G02*
X168960000Y-119060000I0J-140000D01*
G01*
X168960000Y-119400000D01*
G75*
G02*
X168820000Y-119540000I-140000J0D01*
G01*
X168540000Y-119540000D01*
G75*
G02*
X168400000Y-119400000I0J140000D01*
G01*
G37*
G36*
G01*
X167440000Y-119400000D02*
X167440000Y-119060000D01*
G75*
G02*
X167580000Y-118920000I140000J0D01*
G01*
X167860000Y-118920000D01*
G75*
G02*
X168000000Y-119060000I0J-140000D01*
G01*
X168000000Y-119400000D01*
G75*
G02*
X167860000Y-119540000I-140000J0D01*
G01*
X167580000Y-119540000D01*
G75*
G02*
X167440000Y-119400000I0J140000D01*
G01*
G37*
%TD*%
%TO.C,C5*%
G36*
G01*
X160080000Y-120250000D02*
X160080000Y-119910000D01*
G75*
G02*
X160220000Y-119770000I140000J0D01*
G01*
X160500000Y-119770000D01*
G75*
G02*
X160640000Y-119910000I0J-140000D01*
G01*
X160640000Y-120250000D01*
G75*
G02*
X160500000Y-120390000I-140000J0D01*
G01*
X160220000Y-120390000D01*
G75*
G02*
X160080000Y-120250000I0J140000D01*
G01*
G37*
G36*
G01*
X159120000Y-120250000D02*
X159120000Y-119910000D01*
G75*
G02*
X159260000Y-119770000I140000J0D01*
G01*
X159540000Y-119770000D01*
G75*
G02*
X159680000Y-119910000I0J-140000D01*
G01*
X159680000Y-120250000D01*
G75*
G02*
X159540000Y-120390000I-140000J0D01*
G01*
X159260000Y-120390000D01*
G75*
G02*
X159120000Y-120250000I0J140000D01*
G01*
G37*
%TD*%
%TO.C,C4*%
G36*
G01*
X160080000Y-121070000D02*
X160080000Y-120730000D01*
G75*
G02*
X160220000Y-120590000I140000J0D01*
G01*
X160500000Y-120590000D01*
G75*
G02*
X160640000Y-120730000I0J-140000D01*
G01*
X160640000Y-121070000D01*
G75*
G02*
X160500000Y-121210000I-140000J0D01*
G01*
X160220000Y-121210000D01*
G75*
G02*
X160080000Y-121070000I0J140000D01*
G01*
G37*
G36*
G01*
X159120000Y-121070000D02*
X159120000Y-120730000D01*
G75*
G02*
X159260000Y-120590000I140000J0D01*
G01*
X159540000Y-120590000D01*
G75*
G02*
X159680000Y-120730000I0J-140000D01*
G01*
X159680000Y-121070000D01*
G75*
G02*
X159540000Y-121210000I-140000J0D01*
G01*
X159260000Y-121210000D01*
G75*
G02*
X159120000Y-121070000I0J140000D01*
G01*
G37*
%TD*%
%TO.C,C7*%
G36*
G01*
X168400000Y-118580000D02*
X168400000Y-118240000D01*
G75*
G02*
X168540000Y-118100000I140000J0D01*
G01*
X168820000Y-118100000D01*
G75*
G02*
X168960000Y-118240000I0J-140000D01*
G01*
X168960000Y-118580000D01*
G75*
G02*
X168820000Y-118720000I-140000J0D01*
G01*
X168540000Y-118720000D01*
G75*
G02*
X168400000Y-118580000I0J140000D01*
G01*
G37*
G36*
G01*
X167440000Y-118580000D02*
X167440000Y-118240000D01*
G75*
G02*
X167580000Y-118100000I140000J0D01*
G01*
X167860000Y-118100000D01*
G75*
G02*
X168000000Y-118240000I0J-140000D01*
G01*
X168000000Y-118580000D01*
G75*
G02*
X167860000Y-118720000I-140000J0D01*
G01*
X167580000Y-118720000D01*
G75*
G02*
X167440000Y-118580000I0J140000D01*
G01*
G37*
%TD*%
%TO.C,C6*%
G36*
G01*
X161090000Y-117680000D02*
X161430000Y-117680000D01*
G75*
G02*
X161570000Y-117820000I0J-140000D01*
G01*
X161570000Y-118100000D01*
G75*
G02*
X161430000Y-118240000I-140000J0D01*
G01*
X161090000Y-118240000D01*
G75*
G02*
X160950000Y-118100000I0J140000D01*
G01*
X160950000Y-117820000D01*
G75*
G02*
X161090000Y-117680000I140000J0D01*
G01*
G37*
G36*
G01*
X161090000Y-116720000D02*
X161430000Y-116720000D01*
G75*
G02*
X161570000Y-116860000I0J-140000D01*
G01*
X161570000Y-117140000D01*
G75*
G02*
X161430000Y-117280000I-140000J0D01*
G01*
X161090000Y-117280000D01*
G75*
G02*
X160950000Y-117140000I0J140000D01*
G01*
X160950000Y-116860000D01*
G75*
G02*
X161090000Y-116720000I140000J0D01*
G01*
G37*
%TD*%
%TO.C,R3*%
G36*
G01*
X168450000Y-117555000D02*
X168450000Y-117185000D01*
G75*
G02*
X168585000Y-117050000I135000J0D01*
G01*
X168855000Y-117050000D01*
G75*
G02*
X168990000Y-117185000I0J-135000D01*
G01*
X168990000Y-117555000D01*
G75*
G02*
X168855000Y-117690000I-135000J0D01*
G01*
X168585000Y-117690000D01*
G75*
G02*
X168450000Y-117555000I0J135000D01*
G01*
G37*
G36*
G01*
X167430000Y-117555000D02*
X167430000Y-117185000D01*
G75*
G02*
X167565000Y-117050000I135000J0D01*
G01*
X167835000Y-117050000D01*
G75*
G02*
X167970000Y-117185000I0J-135000D01*
G01*
X167970000Y-117555000D01*
G75*
G02*
X167835000Y-117690000I-135000J0D01*
G01*
X167565000Y-117690000D01*
G75*
G02*
X167430000Y-117555000I0J135000D01*
G01*
G37*
%TD*%
D16*
%TO.C,TH2*%
X155030000Y-112060000D03*
D17*
X152490000Y-112060000D03*
%TD*%
D16*
%TO.C,TH1*%
X174010000Y-118640000D03*
D17*
X174010000Y-121180000D03*
%TD*%
%TO.C,R11*%
G36*
G01*
X156699999Y-115435000D02*
X156699999Y-115065000D01*
G75*
G02*
X156834999Y-114930000I135000J0D01*
G01*
X157104999Y-114930000D01*
G75*
G02*
X157239999Y-115065000I0J-135000D01*
G01*
X157239999Y-115435000D01*
G75*
G02*
X157104999Y-115570000I-135000J0D01*
G01*
X156834999Y-115570000D01*
G75*
G02*
X156699999Y-115435000I0J135000D01*
G01*
G37*
G36*
G01*
X155679999Y-115435000D02*
X155679999Y-115065000D01*
G75*
G02*
X155814999Y-114930000I135000J0D01*
G01*
X156084999Y-114930000D01*
G75*
G02*
X156219999Y-115065000I0J-135000D01*
G01*
X156219999Y-115435000D01*
G75*
G02*
X156084999Y-115570000I-135000J0D01*
G01*
X155814999Y-115570000D01*
G75*
G02*
X155679999Y-115435000I0J135000D01*
G01*
G37*
%TD*%
%TO.C,R10*%
G36*
G01*
X150640000Y-116274999D02*
X150640000Y-116644999D01*
G75*
G02*
X150505000Y-116779999I-135000J0D01*
G01*
X150235000Y-116779999D01*
G75*
G02*
X150100000Y-116644999I0J135000D01*
G01*
X150100000Y-116274999D01*
G75*
G02*
X150235000Y-116139999I135000J0D01*
G01*
X150505000Y-116139999D01*
G75*
G02*
X150640000Y-116274999I0J-135000D01*
G01*
G37*
G36*
G01*
X151660000Y-116274999D02*
X151660000Y-116644999D01*
G75*
G02*
X151525000Y-116779999I-135000J0D01*
G01*
X151255000Y-116779999D01*
G75*
G02*
X151120000Y-116644999I0J135000D01*
G01*
X151120000Y-116274999D01*
G75*
G02*
X151255000Y-116139999I135000J0D01*
G01*
X151525000Y-116139999D01*
G75*
G02*
X151660000Y-116274999I0J-135000D01*
G01*
G37*
%TD*%
%TO.C,R9*%
G36*
G01*
X156700000Y-116355000D02*
X156700000Y-115985000D01*
G75*
G02*
X156835000Y-115850000I135000J0D01*
G01*
X157105000Y-115850000D01*
G75*
G02*
X157240000Y-115985000I0J-135000D01*
G01*
X157240000Y-116355000D01*
G75*
G02*
X157105000Y-116490000I-135000J0D01*
G01*
X156835000Y-116490000D01*
G75*
G02*
X156700000Y-116355000I0J135000D01*
G01*
G37*
G36*
G01*
X155680000Y-116355000D02*
X155680000Y-115985000D01*
G75*
G02*
X155815000Y-115850000I135000J0D01*
G01*
X156085000Y-115850000D01*
G75*
G02*
X156220000Y-115985000I0J-135000D01*
G01*
X156220000Y-116355000D01*
G75*
G02*
X156085000Y-116490000I-135000J0D01*
G01*
X155815000Y-116490000D01*
G75*
G02*
X155680000Y-116355000I0J135000D01*
G01*
G37*
%TD*%
%TO.C,R8*%
G36*
G01*
X156700000Y-117275000D02*
X156700000Y-116905000D01*
G75*
G02*
X156835000Y-116770000I135000J0D01*
G01*
X157105000Y-116770000D01*
G75*
G02*
X157240000Y-116905000I0J-135000D01*
G01*
X157240000Y-117275000D01*
G75*
G02*
X157105000Y-117410000I-135000J0D01*
G01*
X156835000Y-117410000D01*
G75*
G02*
X156700000Y-117275000I0J135000D01*
G01*
G37*
G36*
G01*
X155680000Y-117275000D02*
X155680000Y-116905000D01*
G75*
G02*
X155815000Y-116770000I135000J0D01*
G01*
X156085000Y-116770000D01*
G75*
G02*
X156220000Y-116905000I0J-135000D01*
G01*
X156220000Y-117275000D01*
G75*
G02*
X156085000Y-117410000I-135000J0D01*
G01*
X155815000Y-117410000D01*
G75*
G02*
X155680000Y-117275000I0J135000D01*
G01*
G37*
%TD*%
%TO.C,R5*%
G36*
G01*
X150640000Y-115355000D02*
X150640000Y-115725000D01*
G75*
G02*
X150505000Y-115860000I-135000J0D01*
G01*
X150235000Y-115860000D01*
G75*
G02*
X150100000Y-115725000I0J135000D01*
G01*
X150100000Y-115355000D01*
G75*
G02*
X150235000Y-115220000I135000J0D01*
G01*
X150505000Y-115220000D01*
G75*
G02*
X150640000Y-115355000I0J-135000D01*
G01*
G37*
G36*
G01*
X151660000Y-115355000D02*
X151660000Y-115725000D01*
G75*
G02*
X151525000Y-115860000I-135000J0D01*
G01*
X151255000Y-115860000D01*
G75*
G02*
X151120000Y-115725000I0J135000D01*
G01*
X151120000Y-115355000D01*
G75*
G02*
X151255000Y-115220000I135000J0D01*
G01*
X151525000Y-115220000D01*
G75*
G02*
X151660000Y-115355000I0J-135000D01*
G01*
G37*
%TD*%
%TO.C,R2*%
G36*
G01*
X165535000Y-123290000D02*
X165905000Y-123290000D01*
G75*
G02*
X166040000Y-123425000I0J-135000D01*
G01*
X166040000Y-123695000D01*
G75*
G02*
X165905000Y-123830000I-135000J0D01*
G01*
X165535000Y-123830000D01*
G75*
G02*
X165400000Y-123695000I0J135000D01*
G01*
X165400000Y-123425000D01*
G75*
G02*
X165535000Y-123290000I135000J0D01*
G01*
G37*
G36*
G01*
X165535000Y-122270000D02*
X165905000Y-122270000D01*
G75*
G02*
X166040000Y-122405000I0J-135000D01*
G01*
X166040000Y-122675000D01*
G75*
G02*
X165905000Y-122810000I-135000J0D01*
G01*
X165535000Y-122810000D01*
G75*
G02*
X165400000Y-122675000I0J135000D01*
G01*
X165400000Y-122405000D01*
G75*
G02*
X165535000Y-122270000I135000J0D01*
G01*
G37*
%TD*%
%TO.C,R1*%
G36*
G01*
X162605000Y-122809999D02*
X162235000Y-122809999D01*
G75*
G02*
X162100000Y-122674999I0J135000D01*
G01*
X162100000Y-122404999D01*
G75*
G02*
X162235000Y-122269999I135000J0D01*
G01*
X162605000Y-122269999D01*
G75*
G02*
X162740000Y-122404999I0J-135000D01*
G01*
X162740000Y-122674999D01*
G75*
G02*
X162605000Y-122809999I-135000J0D01*
G01*
G37*
G36*
G01*
X162605000Y-123829999D02*
X162235000Y-123829999D01*
G75*
G02*
X162100000Y-123694999I0J135000D01*
G01*
X162100000Y-123424999D01*
G75*
G02*
X162235000Y-123289999I135000J0D01*
G01*
X162605000Y-123289999D01*
G75*
G02*
X162740000Y-123424999I0J-135000D01*
G01*
X162740000Y-123694999D01*
G75*
G02*
X162605000Y-123829999I-135000J0D01*
G01*
G37*
%TD*%
%TO.C,C12*%
G36*
G01*
X152690000Y-120405000D02*
X153190000Y-120405000D01*
G75*
G02*
X153415000Y-120630000I0J-225000D01*
G01*
X153415000Y-121080000D01*
G75*
G02*
X153190000Y-121305000I-225000J0D01*
G01*
X152690000Y-121305000D01*
G75*
G02*
X152465000Y-121080000I0J225000D01*
G01*
X152465000Y-120630000D01*
G75*
G02*
X152690000Y-120405000I225000J0D01*
G01*
G37*
G36*
G01*
X152690000Y-118855000D02*
X153190000Y-118855000D01*
G75*
G02*
X153415000Y-119080000I0J-225000D01*
G01*
X153415000Y-119530000D01*
G75*
G02*
X153190000Y-119755000I-225000J0D01*
G01*
X152690000Y-119755000D01*
G75*
G02*
X152465000Y-119530000I0J225000D01*
G01*
X152465000Y-119080000D01*
G75*
G02*
X152690000Y-118855000I225000J0D01*
G01*
G37*
%TD*%
%TO.C,C11*%
G36*
G01*
X155020000Y-119755000D02*
X154520000Y-119755000D01*
G75*
G02*
X154295000Y-119530000I0J225000D01*
G01*
X154295000Y-119080000D01*
G75*
G02*
X154520000Y-118855000I225000J0D01*
G01*
X155020000Y-118855000D01*
G75*
G02*
X155245000Y-119080000I0J-225000D01*
G01*
X155245000Y-119530000D01*
G75*
G02*
X155020000Y-119755000I-225000J0D01*
G01*
G37*
G36*
G01*
X155020000Y-121305000D02*
X154520000Y-121305000D01*
G75*
G02*
X154295000Y-121080000I0J225000D01*
G01*
X154295000Y-120630000D01*
G75*
G02*
X154520000Y-120405000I225000J0D01*
G01*
X155020000Y-120405000D01*
G75*
G02*
X155245000Y-120630000I0J-225000D01*
G01*
X155245000Y-121080000D01*
G75*
G02*
X155020000Y-121305000I-225000J0D01*
G01*
G37*
%TD*%
D20*
%TO.C,BAT*%
X137790000Y-121090000D03*
D21*
X135250000Y-121090000D03*
%TD*%
D22*
%TO.C,J4*%
X185610000Y-123790000D03*
%TD*%
%TO.C,J3*%
X185610000Y-71790000D03*
%TD*%
%TO.C,J2*%
X133610000Y-123790000D03*
%TD*%
%TO.C,J1*%
X133610000Y-71790000D03*
%TD*%
%TO.C,R7*%
G36*
G01*
X141665000Y-121240000D02*
X141295000Y-121240000D01*
G75*
G02*
X141160000Y-121105000I0J135000D01*
G01*
X141160000Y-120835000D01*
G75*
G02*
X141295000Y-120700000I135000J0D01*
G01*
X141665000Y-120700000D01*
G75*
G02*
X141800000Y-120835000I0J-135000D01*
G01*
X141800000Y-121105000D01*
G75*
G02*
X141665000Y-121240000I-135000J0D01*
G01*
G37*
G36*
G01*
X141665000Y-122260000D02*
X141295000Y-122260000D01*
G75*
G02*
X141160000Y-122125000I0J135000D01*
G01*
X141160000Y-121855000D01*
G75*
G02*
X141295000Y-121720000I135000J0D01*
G01*
X141665000Y-121720000D01*
G75*
G02*
X141800000Y-121855000I0J-135000D01*
G01*
X141800000Y-122125000D01*
G75*
G02*
X141665000Y-122260000I-135000J0D01*
G01*
G37*
%TD*%
%TO.C,R4*%
G36*
G01*
X143290000Y-121455000D02*
X143290000Y-121085000D01*
G75*
G02*
X143425000Y-120950000I135000J0D01*
G01*
X143695000Y-120950000D01*
G75*
G02*
X143830000Y-121085000I0J-135000D01*
G01*
X143830000Y-121455000D01*
G75*
G02*
X143695000Y-121590000I-135000J0D01*
G01*
X143425000Y-121590000D01*
G75*
G02*
X143290000Y-121455000I0J135000D01*
G01*
G37*
G36*
G01*
X142270000Y-121455000D02*
X142270000Y-121085000D01*
G75*
G02*
X142405000Y-120950000I135000J0D01*
G01*
X142675000Y-120950000D01*
G75*
G02*
X142810000Y-121085000I0J-135000D01*
G01*
X142810000Y-121455000D01*
G75*
G02*
X142675000Y-121590000I-135000J0D01*
G01*
X142405000Y-121590000D01*
G75*
G02*
X142270000Y-121455000I0J135000D01*
G01*
G37*
%TD*%
%TO.C,C3*%
G36*
G01*
X141640000Y-119250000D02*
X141300000Y-119250000D01*
G75*
G02*
X141160000Y-119110000I0J140000D01*
G01*
X141160000Y-118830000D01*
G75*
G02*
X141300000Y-118690000I140000J0D01*
G01*
X141640000Y-118690000D01*
G75*
G02*
X141780000Y-118830000I0J-140000D01*
G01*
X141780000Y-119110000D01*
G75*
G02*
X141640000Y-119250000I-140000J0D01*
G01*
G37*
G36*
G01*
X141640000Y-120210000D02*
X141300000Y-120210000D01*
G75*
G02*
X141160000Y-120070000I0J140000D01*
G01*
X141160000Y-119790000D01*
G75*
G02*
X141300000Y-119650000I140000J0D01*
G01*
X141640000Y-119650000D01*
G75*
G02*
X141780000Y-119790000I0J-140000D01*
G01*
X141780000Y-120070000D01*
G75*
G02*
X141640000Y-120210000I-140000J0D01*
G01*
G37*
%TD*%
D23*
%TO.C,U4*%
X143705000Y-116965000D03*
X141755000Y-116965000D03*
X142405000Y-116965000D03*
X143055000Y-116965000D03*
%TD*%
%TO.C,U3*%
X147015000Y-116964999D03*
X145065000Y-116964999D03*
X145715000Y-116964999D03*
X146365000Y-116964999D03*
%TD*%
D24*
%TO.C,U1*%
X143634999Y-120310000D03*
D25*
X143684999Y-119810000D03*
X143684999Y-119310000D03*
X142534999Y-119310000D03*
X142534999Y-119810000D03*
X142534999Y-120310000D03*
%TD*%
M02*
