M48
; DRILL file {KiCad (5.1.8)-1} date 09/17/21 09:19:27
; FORMAT={-:-/ absolute / inch / decimal}
; #@! TF.CreationDate,2021-09-17T09:19:27+08:00
; #@! TF.GenerationSoftware,Kicad,Pcbnew,(5.1.8)-1
; #@! TF.FileFunction,Plated,1,4,PTH
FMAT,2
INCH
T1C0.0118
T2C0.0276
T3C0.0394
%
G90
G05
T1
X5.3374Y-2.924
X5.3374Y-3.0028
X5.3374Y-3.0815
X5.3374Y-3.1602
X5.3374Y-3.239
X5.3374Y-3.3177
X5.3374Y-3.3965
X5.3374Y-3.4752
X5.3374Y-3.5539
X5.3374Y-3.6327
X5.3374Y-3.7114
X5.3374Y-3.7902
X5.3374Y-3.8689
X5.3374Y-3.9476
X5.3374Y-4.0264
X5.3374Y-4.1051
X5.3374Y-4.1839
X5.3374Y-4.2626
X5.4161Y-2.924
X5.4161Y-3.0028
X5.4161Y-3.0815
X5.4161Y-3.1602
X5.4161Y-3.239
X5.4161Y-3.3177
X5.4161Y-3.3965
X5.4161Y-3.4752
X5.4161Y-3.5539
X5.4161Y-3.6327
X5.4161Y-3.7114
X5.4161Y-3.7902
X5.4161Y-3.8689
X5.4161Y-3.9476
X5.4161Y-4.0264
X5.4161Y-4.1051
X5.4161Y-4.1839
X5.4161Y-4.2626
X5.4327Y-4.8819
X5.4591Y-4.9102
X5.485Y-4.8827
X5.4949Y-2.924
X5.4949Y-3.0028
X5.4949Y-3.0815
X5.4949Y-3.1602
X5.4949Y-3.239
X5.4949Y-3.3177
X5.4949Y-3.3965
X5.4949Y-3.4752
X5.4949Y-3.5539
X5.4949Y-3.6327
X5.4949Y-3.7114
X5.4949Y-3.7902
X5.4949Y-3.8689
X5.4949Y-3.9476
X5.4949Y-4.0264
X5.4949Y-4.1051
X5.4949Y-4.1839
X5.4949Y-4.2626
X5.5132Y-4.9102
X5.5392Y-4.8827
X5.5674Y-4.9102
X5.5736Y-2.924
X5.5736Y-3.0028
X5.5736Y-3.0815
X5.5736Y-3.1602
X5.5736Y-3.239
X5.5736Y-3.3177
X5.5736Y-3.3965
X5.5736Y-3.4752
X5.5736Y-3.5539
X5.5736Y-3.6327
X5.5736Y-3.7114
X5.5736Y-3.7902
X5.5736Y-3.8689
X5.5736Y-3.9476
X5.5736Y-4.0264
X5.5736Y-4.1051
X5.5736Y-4.1839
X5.5736Y-4.2626
X5.5934Y-4.8827
X5.6216Y-4.9102
X5.6476Y-4.8827
X5.6524Y-2.924
X5.6524Y-3.0028
X5.6524Y-3.0815
X5.6524Y-3.1602
X5.6524Y-3.239
X5.6524Y-3.3177
X5.6524Y-3.3965
X5.6524Y-3.4752
X5.6524Y-3.5539
X5.6524Y-3.6327
X5.6524Y-3.7114
X5.6524Y-3.7902
X5.6524Y-3.8689
X5.6524Y-3.9476
X5.6524Y-4.0264
X5.6524Y-4.1051
X5.6524Y-4.1839
X5.6524Y-4.2626
X5.6758Y-4.9102
X5.7018Y-4.8827
X5.702Y-4.6756
X5.713Y-4.7413
X5.713Y-4.7807
X5.713Y-4.8197
X5.73Y-4.9102
X5.7311Y-2.924
X5.7311Y-3.0028
X5.7311Y-3.0815
X5.7311Y-3.1602
X5.7311Y-3.239
X5.7311Y-3.3177
X5.7311Y-3.3965
X5.7311Y-3.4752
X5.7311Y-3.5539
X5.7311Y-3.6327
X5.7311Y-3.7114
X5.7311Y-3.7902
X5.7311Y-3.8689
X5.7311Y-3.9476
X5.7311Y-4.0264
X5.7311Y-4.1051
X5.7311Y-4.1839
X5.7311Y-4.2626
X5.7531Y-4.6626
X5.7531Y-4.702
X5.7531Y-4.7413
X5.7531Y-4.7807
X5.7531Y-4.8197
X5.756Y-4.8827
X5.7842Y-4.9102
X5.7925Y-4.6626
X5.7925Y-4.702
X5.7925Y-4.7413
X5.7925Y-4.7807
X5.7925Y-4.8197
X5.8098Y-2.924
X5.8098Y-3.0028
X5.8098Y-3.0815
X5.8098Y-3.1602
X5.8098Y-3.239
X5.8098Y-3.3177
X5.8098Y-3.3965
X5.8098Y-3.4752
X5.8098Y-3.5539
X5.8098Y-3.6327
X5.8098Y-3.7114
X5.8098Y-3.7902
X5.8098Y-3.8689
X5.8098Y-3.9476
X5.8098Y-4.0264
X5.8098Y-4.1051
X5.8098Y-4.1839
X5.8098Y-4.2626
X5.8101Y-4.8827
X5.8319Y-4.6626
X5.8319Y-4.702
X5.8319Y-4.7413
X5.8319Y-4.7807
X5.8319Y-4.8197
X5.8346Y-4.6051
X5.8383Y-4.9102
X5.8643Y-4.8827
X5.8713Y-4.6626
X5.8713Y-4.702
X5.8713Y-4.7413
X5.8713Y-4.7807
X5.8713Y-4.8197
X5.8886Y-2.924
X5.8886Y-3.0028
X5.8886Y-3.0815
X5.8886Y-3.1602
X5.8886Y-3.239
X5.8886Y-3.3177
X5.8886Y-3.3965
X5.8886Y-3.4752
X5.8886Y-3.5539
X5.8886Y-3.6327
X5.8886Y-3.7114
X5.8886Y-3.7902
X5.8886Y-3.8689
X5.8886Y-3.9476
X5.8886Y-4.0264
X5.8886Y-4.1051
X5.8886Y-4.1839
X5.8886Y-4.2626
X5.8925Y-4.9091
X5.9185Y-4.8815
X5.9201Y-4.6386
X5.9634Y-4.6264
X5.9673Y-2.924
X5.9673Y-3.0028
X5.9673Y-3.0815
X5.9673Y-3.1602
X5.9673Y-3.239
X5.9673Y-3.3177
X5.9673Y-3.3965
X5.9673Y-3.4752
X5.9673Y-3.5539
X5.9673Y-3.6327
X5.9673Y-3.7114
X5.9673Y-3.7902
X5.9673Y-3.8689
X5.9673Y-3.9476
X5.9673Y-4.0264
X5.9673Y-4.1051
X5.9673Y-4.1839
X5.9673Y-4.2626
X5.9846Y-4.5618
X6.0224Y-4.8244
X6.0461Y-2.924
X6.0461Y-3.0028
X6.0461Y-3.0815
X6.0461Y-3.1602
X6.0461Y-3.239
X6.0461Y-3.3177
X6.0461Y-3.3965
X6.0461Y-3.4752
X6.0461Y-3.5539
X6.0461Y-3.6327
X6.0461Y-3.7114
X6.0461Y-3.7902
X6.0461Y-3.8689
X6.0461Y-3.9476
X6.0461Y-4.0264
X6.0461Y-4.1051
X6.0461Y-4.1839
X6.0461Y-4.2626
X6.0476Y-4.589
X6.0602Y-4.5709
X6.0602Y-4.6067
X6.0618Y-4.8244
X6.1012Y-4.8244
X6.1248Y-2.924
X6.1248Y-3.0028
X6.1248Y-3.0815
X6.1248Y-3.1602
X6.1248Y-3.239
X6.1248Y-3.3177
X6.1248Y-3.3965
X6.1248Y-3.4752
X6.1248Y-3.5539
X6.1248Y-3.6327
X6.1248Y-3.7114
X6.1248Y-3.7902
X6.1248Y-3.8689
X6.1248Y-3.9476
X6.1248Y-4.0264
X6.1248Y-4.1051
X6.1248Y-4.1839
X6.1248Y-4.2626
X6.1406Y-4.8244
X6.1756Y-4.6654
X6.176Y-4.728
X6.176Y-4.7717
X6.1799Y-4.8244
X6.2035Y-2.924
X6.2035Y-3.0028
X6.2035Y-3.0815
X6.2035Y-3.1602
X6.2035Y-3.239
X6.2035Y-3.3177
X6.2035Y-3.3965
X6.2035Y-3.4752
X6.2035Y-3.5539
X6.2035Y-3.6327
X6.2035Y-3.7114
X6.2035Y-3.7902
X6.2035Y-3.8689
X6.2035Y-3.9476
X6.2035Y-4.0264
X6.2035Y-4.1051
X6.2035Y-4.1839
X6.2035Y-4.2626
X6.215Y-4.5374
X6.2193Y-4.8244
X6.2382Y-4.7209
X6.2382Y-4.7431
X6.2382Y-4.7654
X6.2587Y-4.8244
X6.2823Y-2.924
X6.2823Y-3.0028
X6.2823Y-3.0815
X6.2823Y-3.1602
X6.2823Y-3.239
X6.2823Y-3.3177
X6.2823Y-3.3965
X6.2823Y-3.4752
X6.2823Y-3.5539
X6.2823Y-3.6327
X6.2823Y-3.7114
X6.2823Y-3.7902
X6.2823Y-3.8689
X6.2823Y-3.9476
X6.2823Y-4.0264
X6.2823Y-4.1051
X6.2823Y-4.1839
X6.2823Y-4.2626
X6.337Y-4.5457
X6.3543Y-4.8213
X6.3602Y-4.5457
X6.3602Y-4.5689
X6.361Y-2.924
X6.361Y-3.0028
X6.361Y-3.0815
X6.361Y-3.1602
X6.361Y-3.239
X6.361Y-3.3177
X6.361Y-3.3965
X6.361Y-3.4752
X6.361Y-3.5539
X6.361Y-3.6327
X6.361Y-3.7114
X6.361Y-3.7902
X6.361Y-3.8689
X6.361Y-3.9476
X6.361Y-4.0264
X6.361Y-4.1051
X6.361Y-4.1839
X6.361Y-4.2626
X6.3835Y-4.5457
X6.3835Y-4.5689
X6.4299Y-4.8154
X6.4346Y-4.6567
X6.4346Y-4.6803
X6.4346Y-4.7039
X6.4346Y-4.7276
X6.4346Y-4.7512
X6.4398Y-2.924
X6.4398Y-3.0028
X6.4398Y-3.0815
X6.4398Y-3.1602
X6.4398Y-3.239
X6.4398Y-3.3177
X6.4398Y-3.3965
X6.4398Y-3.4752
X6.4398Y-3.5539
X6.4398Y-3.6327
X6.4398Y-3.7114
X6.4398Y-3.7902
X6.4398Y-3.8689
X6.4398Y-3.9476
X6.4398Y-4.0264
X6.4398Y-4.1051
X6.4398Y-4.1839
X6.4398Y-4.2626
X6.4583Y-4.6567
X6.4583Y-4.6803
X6.4583Y-4.7039
X6.4583Y-4.7276
X6.4583Y-4.7512
X6.4819Y-4.6567
X6.4819Y-4.6803
X6.4819Y-4.7039
X6.4819Y-4.7276
X6.4819Y-4.7512
X6.489Y-4.8154
X6.5134Y-4.5598
X6.5134Y-4.5815
X6.5185Y-2.924
X6.5185Y-3.0028
X6.5185Y-3.0815
X6.5185Y-3.1602
X6.5185Y-3.239
X6.5185Y-3.3177
X6.5185Y-3.3965
X6.5185Y-3.4752
X6.5185Y-3.5539
X6.5185Y-3.6327
X6.5185Y-3.7114
X6.5185Y-3.7902
X6.5185Y-3.8689
X6.5185Y-3.9476
X6.5185Y-4.0264
X6.5185Y-4.1051
X6.5185Y-4.1839
X6.5185Y-4.2626
X6.535Y-4.5598
X6.535Y-4.5815
X6.5591Y-4.7957
X6.585Y-4.7598
X6.5972Y-2.924
X6.5972Y-3.0028
X6.5972Y-3.0815
X6.5972Y-3.1602
X6.5972Y-3.239
X6.5972Y-3.3177
X6.5972Y-3.3965
X6.5972Y-3.4752
X6.5972Y-3.5539
X6.5972Y-3.6327
X6.5972Y-3.7114
X6.5972Y-3.7902
X6.5972Y-3.8689
X6.5972Y-3.9476
X6.5972Y-4.0264
X6.5972Y-4.1051
X6.5972Y-4.1839
X6.5972Y-4.2626
X6.676Y-2.924
X6.676Y-3.0028
X6.676Y-3.0815
X6.676Y-3.1602
X6.676Y-3.239
X6.676Y-3.3177
X6.676Y-3.3965
X6.676Y-3.4752
X6.676Y-3.5539
X6.676Y-3.6327
X6.676Y-3.7114
X6.676Y-3.7902
X6.676Y-3.8689
X6.676Y-3.9476
X6.676Y-4.0264
X6.676Y-4.1051
X6.676Y-4.1839
X6.676Y-4.2626
X6.6803Y-4.6661
X6.6803Y-4.6941
X6.6803Y-4.722
X6.7244Y-4.6945
X6.7547Y-2.924
X6.7547Y-3.0028
X6.7547Y-3.0815
X6.7547Y-3.1602
X6.7547Y-3.239
X6.7547Y-3.3177
X6.7547Y-3.3965
X6.7547Y-3.4752
X6.7547Y-3.5539
X6.7547Y-3.6327
X6.7547Y-3.7114
X6.7547Y-3.7902
X6.7547Y-3.8689
X6.7547Y-3.9476
X6.7547Y-4.0264
X6.7547Y-4.1051
X6.7547Y-4.1839
X6.7547Y-4.2626
X6.8335Y-2.924
X6.8335Y-3.0028
X6.8335Y-3.0815
X6.8335Y-3.1602
X6.8335Y-3.239
X6.8335Y-3.3177
X6.8335Y-3.3965
X6.8335Y-3.4752
X6.8335Y-3.5539
X6.8335Y-3.6327
X6.8335Y-3.7114
X6.8335Y-3.7902
X6.8335Y-3.8689
X6.8335Y-3.9476
X6.8335Y-4.0264
X6.8335Y-4.1051
X6.8335Y-4.1839
X6.8335Y-4.2626
X6.8783Y-4.5555
X6.9122Y-2.924
X6.9122Y-3.0028
X6.9122Y-3.0815
X6.9122Y-3.1602
X6.9122Y-3.239
X6.9122Y-3.3177
X6.9122Y-3.3965
X6.9122Y-3.4752
X6.9122Y-3.5539
X6.9122Y-3.6327
X6.9122Y-3.7114
X6.9122Y-3.7902
X6.9122Y-3.8689
X6.9122Y-3.9476
X6.9122Y-4.0264
X6.9122Y-4.1051
X6.9122Y-4.1839
X6.9122Y-4.2626
X6.9173Y-4.5358
X6.9504Y-4.5161
X6.9909Y-2.924
X6.9909Y-3.0028
X6.9909Y-3.0815
X6.9909Y-3.1602
X6.9909Y-3.239
X6.9909Y-3.3177
X6.9909Y-3.3965
X6.9909Y-3.4752
X6.9909Y-3.5539
X6.9909Y-3.6327
X6.9909Y-3.7114
X6.9909Y-3.7902
X6.9909Y-3.8689
X6.9909Y-3.9476
X6.9909Y-4.0264
X6.9909Y-4.1051
X6.9909Y-4.1839
X6.9909Y-4.2626
X7.0669Y-4.652
X7.0669Y-4.6756
X7.0669Y-4.6992
X7.0697Y-2.924
X7.0697Y-3.0028
X7.0697Y-3.0815
X7.0697Y-3.1602
X7.0697Y-3.239
X7.0697Y-3.3177
X7.0697Y-3.3965
X7.0697Y-3.4752
X7.0697Y-3.5539
X7.0697Y-3.6327
X7.0697Y-3.7114
X7.0697Y-3.7902
X7.0697Y-3.8689
X7.0697Y-3.9476
X7.0697Y-4.0264
X7.0697Y-4.1051
X7.0697Y-4.1839
X7.0697Y-4.2626
X7.0795Y-4.5343
X7.0906Y-4.652
X7.0906Y-4.6756
X7.0906Y-4.6992
X7.1142Y-4.652
X7.1142Y-4.6756
X7.1142Y-4.6992
X7.1398Y-4.4374
X7.1484Y-2.924
X7.1484Y-3.0028
X7.1484Y-3.0815
X7.1484Y-3.1602
X7.1484Y-3.239
X7.1484Y-3.3177
X7.1484Y-3.3965
X7.1484Y-3.4752
X7.1484Y-3.5539
X7.1484Y-3.6327
X7.1484Y-3.7114
X7.1484Y-3.7902
X7.1484Y-3.8689
X7.1484Y-3.9476
X7.1484Y-4.0264
X7.1484Y-4.1051
X7.1484Y-4.1839
X7.1484Y-4.2626
X7.1709Y-4.474
X7.2016Y-4.5012
X7.2272Y-2.924
X7.2272Y-3.0028
X7.2272Y-3.0815
X7.2272Y-3.1602
X7.2272Y-3.239
X7.2272Y-3.3177
X7.2272Y-3.3965
X7.2272Y-3.4752
X7.2272Y-3.5539
X7.2272Y-3.6327
X7.2272Y-3.7114
X7.2272Y-3.7902
X7.2272Y-3.8689
X7.2272Y-3.9476
X7.2272Y-4.0264
X7.2272Y-4.1051
X7.2272Y-4.1839
X7.2272Y-4.2626
T2
X6.8508Y-4.6709
X6.8508Y-4.7709
X6.6484Y-4.4114
X6.7484Y-4.4114
X6.0035Y-4.4118
X6.1035Y-4.4118
T3
X5.3248Y-4.7673
X5.4248Y-4.7673
T0
M30
