%TF.GenerationSoftware,KiCad,Pcbnew,(5.99.0-12889-g70df3822b5)*%
%TF.CreationDate,2021-11-07T20:36:39+08:00*%
%TF.ProjectId,WirelessPower,57697265-6c65-4737-9350-6f7765722e6b,rev?*%
%TF.SameCoordinates,Original*%
%TF.FileFunction,Legend,Top*%
%TF.FilePolarity,Positive*%
%FSLAX46Y46*%
G04 Gerber Fmt 4.6, Leading zero omitted, Abs format (unit mm)*
G04 Created by KiCad (PCBNEW (5.99.0-12889-g70df3822b5)) date 2021-11-07 20:36:39*
%MOMM*%
%LPD*%
G01*
G04 APERTURE LIST*
%ADD10C,0.150000*%
%ADD11C,0.120000*%
%ADD12C,0.100000*%
%ADD13C,0.127000*%
%ADD14C,0.200000*%
G04 APERTURE END LIST*
D10*
X144555529Y-120920000D02*
G75*
G03*
X144555529Y-120920000I-165529J0D01*
G01*
D11*
X137210000Y-115290000D02*
X139370000Y-115290000D01*
X133440000Y-115290000D02*
X135600000Y-115290000D01*
X134510000Y-116370000D02*
X134510000Y-114210000D01*
X140240000Y-112320000D02*
X140240000Y-118110000D01*
X132740000Y-112320000D02*
X140240000Y-112320000D01*
X132740000Y-112320000D02*
X132740000Y-118020000D01*
X134610000Y-109080000D02*
X184610000Y-109080000D01*
X184610000Y-73390000D02*
X184610000Y-109080000D01*
X134610000Y-73390000D02*
X134610000Y-109080000D01*
X134610000Y-73390000D02*
X184610000Y-73390000D01*
D12*
%TO.C,C22*%
X170414285Y-114144285D02*
X170385714Y-114172857D01*
X170300000Y-114201428D01*
X170242857Y-114201428D01*
X170157142Y-114172857D01*
X170100000Y-114115714D01*
X170071428Y-114058571D01*
X170042857Y-113944285D01*
X170042857Y-113858571D01*
X170071428Y-113744285D01*
X170100000Y-113687142D01*
X170157142Y-113630000D01*
X170242857Y-113601428D01*
X170300000Y-113601428D01*
X170385714Y-113630000D01*
X170414285Y-113658571D01*
X170642857Y-113658571D02*
X170671428Y-113630000D01*
X170728571Y-113601428D01*
X170871428Y-113601428D01*
X170928571Y-113630000D01*
X170957142Y-113658571D01*
X170985714Y-113715714D01*
X170985714Y-113772857D01*
X170957142Y-113858571D01*
X170614285Y-114201428D01*
X170985714Y-114201428D01*
X171214285Y-113658571D02*
X171242857Y-113630000D01*
X171300000Y-113601428D01*
X171442857Y-113601428D01*
X171500000Y-113630000D01*
X171528571Y-113658571D01*
X171557142Y-113715714D01*
X171557142Y-113772857D01*
X171528571Y-113858571D01*
X171185714Y-114201428D01*
X171557142Y-114201428D01*
%TO.C,C21*%
X157394285Y-110585714D02*
X157422857Y-110614285D01*
X157451428Y-110700000D01*
X157451428Y-110757142D01*
X157422857Y-110842857D01*
X157365714Y-110900000D01*
X157308571Y-110928571D01*
X157194285Y-110957142D01*
X157108571Y-110957142D01*
X156994285Y-110928571D01*
X156937142Y-110900000D01*
X156880000Y-110842857D01*
X156851428Y-110757142D01*
X156851428Y-110700000D01*
X156880000Y-110614285D01*
X156908571Y-110585714D01*
X156908571Y-110357142D02*
X156880000Y-110328571D01*
X156851428Y-110271428D01*
X156851428Y-110128571D01*
X156880000Y-110071428D01*
X156908571Y-110042857D01*
X156965714Y-110014285D01*
X157022857Y-110014285D01*
X157108571Y-110042857D01*
X157451428Y-110385714D01*
X157451428Y-110014285D01*
X157451428Y-109442857D02*
X157451428Y-109785714D01*
X157451428Y-109614285D02*
X156851428Y-109614285D01*
X156937142Y-109671428D01*
X156994285Y-109728571D01*
X157022857Y-109785714D01*
%TO.C,C20*%
X158621785Y-110585714D02*
X158650357Y-110614285D01*
X158678928Y-110700000D01*
X158678928Y-110757142D01*
X158650357Y-110842857D01*
X158593214Y-110900000D01*
X158536071Y-110928571D01*
X158421785Y-110957142D01*
X158336071Y-110957142D01*
X158221785Y-110928571D01*
X158164642Y-110900000D01*
X158107500Y-110842857D01*
X158078928Y-110757142D01*
X158078928Y-110700000D01*
X158107500Y-110614285D01*
X158136071Y-110585714D01*
X158136071Y-110357142D02*
X158107500Y-110328571D01*
X158078928Y-110271428D01*
X158078928Y-110128571D01*
X158107500Y-110071428D01*
X158136071Y-110042857D01*
X158193214Y-110014285D01*
X158250357Y-110014285D01*
X158336071Y-110042857D01*
X158678928Y-110385714D01*
X158678928Y-110014285D01*
X158078928Y-109642857D02*
X158078928Y-109585714D01*
X158107500Y-109528571D01*
X158136071Y-109500000D01*
X158193214Y-109471428D01*
X158307500Y-109442857D01*
X158450357Y-109442857D01*
X158564642Y-109471428D01*
X158621785Y-109500000D01*
X158650357Y-109528571D01*
X158678928Y-109585714D01*
X158678928Y-109642857D01*
X158650357Y-109700000D01*
X158621785Y-109728571D01*
X158564642Y-109757142D01*
X158450357Y-109785714D01*
X158307500Y-109785714D01*
X158193214Y-109757142D01*
X158136071Y-109728571D01*
X158107500Y-109700000D01*
X158078928Y-109642857D01*
%TO.C,C19*%
X164314285Y-110585714D02*
X164342857Y-110614285D01*
X164371428Y-110700000D01*
X164371428Y-110757142D01*
X164342857Y-110842857D01*
X164285714Y-110900000D01*
X164228571Y-110928571D01*
X164114285Y-110957142D01*
X164028571Y-110957142D01*
X163914285Y-110928571D01*
X163857142Y-110900000D01*
X163800000Y-110842857D01*
X163771428Y-110757142D01*
X163771428Y-110700000D01*
X163800000Y-110614285D01*
X163828571Y-110585714D01*
X164371428Y-110014285D02*
X164371428Y-110357142D01*
X164371428Y-110185714D02*
X163771428Y-110185714D01*
X163857142Y-110242857D01*
X163914285Y-110300000D01*
X163942857Y-110357142D01*
X164371428Y-109728571D02*
X164371428Y-109614285D01*
X164342857Y-109557142D01*
X164314285Y-109528571D01*
X164228571Y-109471428D01*
X164114285Y-109442857D01*
X163885714Y-109442857D01*
X163828571Y-109471428D01*
X163800000Y-109500000D01*
X163771428Y-109557142D01*
X163771428Y-109671428D01*
X163800000Y-109728571D01*
X163828571Y-109757142D01*
X163885714Y-109785714D01*
X164028571Y-109785714D01*
X164085714Y-109757142D01*
X164114285Y-109728571D01*
X164142857Y-109671428D01*
X164142857Y-109557142D01*
X164114285Y-109500000D01*
X164085714Y-109471428D01*
X164028571Y-109442857D01*
%TO.C,C15*%
X162324285Y-114654285D02*
X162295714Y-114682857D01*
X162210000Y-114711428D01*
X162152857Y-114711428D01*
X162067142Y-114682857D01*
X162010000Y-114625714D01*
X161981428Y-114568571D01*
X161952857Y-114454285D01*
X161952857Y-114368571D01*
X161981428Y-114254285D01*
X162010000Y-114197142D01*
X162067142Y-114140000D01*
X162152857Y-114111428D01*
X162210000Y-114111428D01*
X162295714Y-114140000D01*
X162324285Y-114168571D01*
X162895714Y-114711428D02*
X162552857Y-114711428D01*
X162724285Y-114711428D02*
X162724285Y-114111428D01*
X162667142Y-114197142D01*
X162610000Y-114254285D01*
X162552857Y-114282857D01*
X163438571Y-114111428D02*
X163152857Y-114111428D01*
X163124285Y-114397142D01*
X163152857Y-114368571D01*
X163210000Y-114340000D01*
X163352857Y-114340000D01*
X163410000Y-114368571D01*
X163438571Y-114397142D01*
X163467142Y-114454285D01*
X163467142Y-114597142D01*
X163438571Y-114654285D01*
X163410000Y-114682857D01*
X163352857Y-114711428D01*
X163210000Y-114711428D01*
X163152857Y-114682857D01*
X163124285Y-114654285D01*
%TO.C,C14*%
X163164285Y-110585714D02*
X163192857Y-110614285D01*
X163221428Y-110700000D01*
X163221428Y-110757142D01*
X163192857Y-110842857D01*
X163135714Y-110900000D01*
X163078571Y-110928571D01*
X162964285Y-110957142D01*
X162878571Y-110957142D01*
X162764285Y-110928571D01*
X162707142Y-110900000D01*
X162650000Y-110842857D01*
X162621428Y-110757142D01*
X162621428Y-110700000D01*
X162650000Y-110614285D01*
X162678571Y-110585714D01*
X163221428Y-110014285D02*
X163221428Y-110357142D01*
X163221428Y-110185714D02*
X162621428Y-110185714D01*
X162707142Y-110242857D01*
X162764285Y-110300000D01*
X162792857Y-110357142D01*
X162821428Y-109500000D02*
X163221428Y-109500000D01*
X162592857Y-109642857D02*
X163021428Y-109785714D01*
X163021428Y-109414285D01*
%TO.C,C13*%
X162034285Y-110585714D02*
X162062857Y-110614285D01*
X162091428Y-110700000D01*
X162091428Y-110757142D01*
X162062857Y-110842857D01*
X162005714Y-110900000D01*
X161948571Y-110928571D01*
X161834285Y-110957142D01*
X161748571Y-110957142D01*
X161634285Y-110928571D01*
X161577142Y-110900000D01*
X161520000Y-110842857D01*
X161491428Y-110757142D01*
X161491428Y-110700000D01*
X161520000Y-110614285D01*
X161548571Y-110585714D01*
X162091428Y-110014285D02*
X162091428Y-110357142D01*
X162091428Y-110185714D02*
X161491428Y-110185714D01*
X161577142Y-110242857D01*
X161634285Y-110300000D01*
X161662857Y-110357142D01*
X161491428Y-109814285D02*
X161491428Y-109442857D01*
X161720000Y-109642857D01*
X161720000Y-109557142D01*
X161748571Y-109500000D01*
X161777142Y-109471428D01*
X161834285Y-109442857D01*
X161977142Y-109442857D01*
X162034285Y-109471428D01*
X162062857Y-109500000D01*
X162091428Y-109557142D01*
X162091428Y-109728571D01*
X162062857Y-109785714D01*
X162034285Y-109814285D01*
%TO.C,C2*%
X162810000Y-115804285D02*
X162781428Y-115832857D01*
X162695714Y-115861428D01*
X162638571Y-115861428D01*
X162552857Y-115832857D01*
X162495714Y-115775714D01*
X162467142Y-115718571D01*
X162438571Y-115604285D01*
X162438571Y-115518571D01*
X162467142Y-115404285D01*
X162495714Y-115347142D01*
X162552857Y-115290000D01*
X162638571Y-115261428D01*
X162695714Y-115261428D01*
X162781428Y-115290000D01*
X162810000Y-115318571D01*
X163038571Y-115318571D02*
X163067142Y-115290000D01*
X163124285Y-115261428D01*
X163267142Y-115261428D01*
X163324285Y-115290000D01*
X163352857Y-115318571D01*
X163381428Y-115375714D01*
X163381428Y-115432857D01*
X163352857Y-115518571D01*
X163010000Y-115861428D01*
X163381428Y-115861428D01*
%TO.C,C1*%
X160020000Y-110054285D02*
X159991428Y-110082857D01*
X159905714Y-110111428D01*
X159848571Y-110111428D01*
X159762857Y-110082857D01*
X159705714Y-110025714D01*
X159677142Y-109968571D01*
X159648571Y-109854285D01*
X159648571Y-109768571D01*
X159677142Y-109654285D01*
X159705714Y-109597142D01*
X159762857Y-109540000D01*
X159848571Y-109511428D01*
X159905714Y-109511428D01*
X159991428Y-109540000D01*
X160020000Y-109568571D01*
X160591428Y-110111428D02*
X160248571Y-110111428D01*
X160420000Y-110111428D02*
X160420000Y-109511428D01*
X160362857Y-109597142D01*
X160305714Y-109654285D01*
X160248571Y-109682857D01*
%TO.C,C18*%
X170424285Y-116424285D02*
X170395714Y-116452857D01*
X170310000Y-116481428D01*
X170252857Y-116481428D01*
X170167142Y-116452857D01*
X170110000Y-116395714D01*
X170081428Y-116338571D01*
X170052857Y-116224285D01*
X170052857Y-116138571D01*
X170081428Y-116024285D01*
X170110000Y-115967142D01*
X170167142Y-115910000D01*
X170252857Y-115881428D01*
X170310000Y-115881428D01*
X170395714Y-115910000D01*
X170424285Y-115938571D01*
X170995714Y-116481428D02*
X170652857Y-116481428D01*
X170824285Y-116481428D02*
X170824285Y-115881428D01*
X170767142Y-115967142D01*
X170710000Y-116024285D01*
X170652857Y-116052857D01*
X171338571Y-116138571D02*
X171281428Y-116110000D01*
X171252857Y-116081428D01*
X171224285Y-116024285D01*
X171224285Y-115995714D01*
X171252857Y-115938571D01*
X171281428Y-115910000D01*
X171338571Y-115881428D01*
X171452857Y-115881428D01*
X171510000Y-115910000D01*
X171538571Y-115938571D01*
X171567142Y-115995714D01*
X171567142Y-116024285D01*
X171538571Y-116081428D01*
X171510000Y-116110000D01*
X171452857Y-116138571D01*
X171338571Y-116138571D01*
X171281428Y-116167142D01*
X171252857Y-116195714D01*
X171224285Y-116252857D01*
X171224285Y-116367142D01*
X171252857Y-116424285D01*
X171281428Y-116452857D01*
X171338571Y-116481428D01*
X171452857Y-116481428D01*
X171510000Y-116452857D01*
X171538571Y-116424285D01*
X171567142Y-116367142D01*
X171567142Y-116252857D01*
X171538571Y-116195714D01*
X171510000Y-116167142D01*
X171452857Y-116138571D01*
%TO.C,C17*%
X159064264Y-115461218D02*
X159104670Y-115461218D01*
X159185482Y-115501624D01*
X159225888Y-115542030D01*
X159266294Y-115622842D01*
X159266294Y-115703654D01*
X159246091Y-115764264D01*
X159185482Y-115865279D01*
X159124873Y-115925888D01*
X159023857Y-115986497D01*
X158963248Y-116006700D01*
X158882436Y-116006700D01*
X158801624Y-115966294D01*
X158761218Y-115925888D01*
X158720812Y-115845076D01*
X158720812Y-115804670D01*
X158700609Y-115016751D02*
X158943045Y-115259187D01*
X158821827Y-115137969D02*
X158397563Y-115562233D01*
X158498578Y-115542030D01*
X158579390Y-115542030D01*
X158640000Y-115562233D01*
X158134923Y-115299593D02*
X157852081Y-115016751D01*
X158458172Y-114774314D01*
%TO.C,C16*%
X160314264Y-115441218D02*
X160354670Y-115441218D01*
X160435482Y-115481624D01*
X160475888Y-115522030D01*
X160516294Y-115602842D01*
X160516294Y-115683654D01*
X160496091Y-115744264D01*
X160435482Y-115845279D01*
X160374873Y-115905888D01*
X160273857Y-115966497D01*
X160213248Y-115986700D01*
X160132436Y-115986700D01*
X160051624Y-115946294D01*
X160011218Y-115905888D01*
X159970812Y-115825076D01*
X159970812Y-115784670D01*
X159950609Y-114996751D02*
X160193045Y-115239187D01*
X160071827Y-115117969D02*
X159647563Y-115542233D01*
X159748578Y-115522030D01*
X159829390Y-115522030D01*
X159890000Y-115542233D01*
X159162690Y-115057360D02*
X159243502Y-115138172D01*
X159304111Y-115158375D01*
X159344517Y-115158375D01*
X159445532Y-115138172D01*
X159546548Y-115077563D01*
X159708172Y-114915938D01*
X159728375Y-114855329D01*
X159728375Y-114814923D01*
X159708172Y-114754314D01*
X159627360Y-114673502D01*
X159566751Y-114653299D01*
X159526345Y-114653299D01*
X159465735Y-114673502D01*
X159364720Y-114774517D01*
X159344517Y-114835126D01*
X159344517Y-114875532D01*
X159364720Y-114936142D01*
X159445532Y-115016954D01*
X159506142Y-115037157D01*
X159546548Y-115037157D01*
X159607157Y-115016954D01*
%TO.C,C10*%
X170424285Y-115264285D02*
X170395714Y-115292857D01*
X170310000Y-115321428D01*
X170252857Y-115321428D01*
X170167142Y-115292857D01*
X170110000Y-115235714D01*
X170081428Y-115178571D01*
X170052857Y-115064285D01*
X170052857Y-114978571D01*
X170081428Y-114864285D01*
X170110000Y-114807142D01*
X170167142Y-114750000D01*
X170252857Y-114721428D01*
X170310000Y-114721428D01*
X170395714Y-114750000D01*
X170424285Y-114778571D01*
X170995714Y-115321428D02*
X170652857Y-115321428D01*
X170824285Y-115321428D02*
X170824285Y-114721428D01*
X170767142Y-114807142D01*
X170710000Y-114864285D01*
X170652857Y-114892857D01*
X171367142Y-114721428D02*
X171424285Y-114721428D01*
X171481428Y-114750000D01*
X171510000Y-114778571D01*
X171538571Y-114835714D01*
X171567142Y-114950000D01*
X171567142Y-115092857D01*
X171538571Y-115207142D01*
X171510000Y-115264285D01*
X171481428Y-115292857D01*
X171424285Y-115321428D01*
X171367142Y-115321428D01*
X171310000Y-115292857D01*
X171281428Y-115264285D01*
X171252857Y-115207142D01*
X171224285Y-115092857D01*
X171224285Y-114950000D01*
X171252857Y-114835714D01*
X171281428Y-114778571D01*
X171310000Y-114750000D01*
X171367142Y-114721428D01*
%TO.C,C9*%
X170424286Y-120244285D02*
X170395714Y-120272857D01*
X170310000Y-120301428D01*
X170252857Y-120301428D01*
X170167143Y-120272857D01*
X170110000Y-120215714D01*
X170081428Y-120158571D01*
X170052857Y-120044285D01*
X170052857Y-119958571D01*
X170081428Y-119844285D01*
X170110000Y-119787142D01*
X170167143Y-119730000D01*
X170252857Y-119701428D01*
X170310000Y-119701428D01*
X170395714Y-119730000D01*
X170424286Y-119758571D01*
X170710000Y-120301428D02*
X170824286Y-120301428D01*
X170881428Y-120272857D01*
X170910000Y-120244285D01*
X170967143Y-120158571D01*
X170995714Y-120044285D01*
X170995714Y-119815714D01*
X170967143Y-119758571D01*
X170938571Y-119730000D01*
X170881428Y-119701428D01*
X170767143Y-119701428D01*
X170710000Y-119730000D01*
X170681428Y-119758571D01*
X170652857Y-119815714D01*
X170652857Y-119958571D01*
X170681428Y-120015714D01*
X170710000Y-120044285D01*
X170767143Y-120072857D01*
X170881428Y-120072857D01*
X170938571Y-120044285D01*
X170967143Y-120015714D01*
X170995714Y-119958571D01*
%TO.C,C8*%
X170424286Y-119434285D02*
X170395714Y-119462857D01*
X170310000Y-119491428D01*
X170252857Y-119491428D01*
X170167143Y-119462857D01*
X170110000Y-119405714D01*
X170081428Y-119348571D01*
X170052857Y-119234285D01*
X170052857Y-119148571D01*
X170081428Y-119034285D01*
X170110000Y-118977142D01*
X170167143Y-118920000D01*
X170252857Y-118891428D01*
X170310000Y-118891428D01*
X170395714Y-118920000D01*
X170424286Y-118948571D01*
X170767143Y-119148571D02*
X170710000Y-119120000D01*
X170681428Y-119091428D01*
X170652857Y-119034285D01*
X170652857Y-119005714D01*
X170681428Y-118948571D01*
X170710000Y-118920000D01*
X170767143Y-118891428D01*
X170881428Y-118891428D01*
X170938571Y-118920000D01*
X170967143Y-118948571D01*
X170995714Y-119005714D01*
X170995714Y-119034285D01*
X170967143Y-119091428D01*
X170938571Y-119120000D01*
X170881428Y-119148571D01*
X170767143Y-119148571D01*
X170710000Y-119177142D01*
X170681428Y-119205714D01*
X170652857Y-119262857D01*
X170652857Y-119377142D01*
X170681428Y-119434285D01*
X170710000Y-119462857D01*
X170767143Y-119491428D01*
X170881428Y-119491428D01*
X170938571Y-119462857D01*
X170967143Y-119434285D01*
X170995714Y-119377142D01*
X170995714Y-119262857D01*
X170967143Y-119205714D01*
X170938571Y-119177142D01*
X170881428Y-119148571D01*
%TO.C,C5*%
X159780000Y-119504285D02*
X159751428Y-119532857D01*
X159665714Y-119561428D01*
X159608571Y-119561428D01*
X159522857Y-119532857D01*
X159465714Y-119475714D01*
X159437142Y-119418571D01*
X159408571Y-119304285D01*
X159408571Y-119218571D01*
X159437142Y-119104285D01*
X159465714Y-119047142D01*
X159522857Y-118990000D01*
X159608571Y-118961428D01*
X159665714Y-118961428D01*
X159751428Y-118990000D01*
X159780000Y-119018571D01*
X160322857Y-118961428D02*
X160037142Y-118961428D01*
X160008571Y-119247142D01*
X160037142Y-119218571D01*
X160094285Y-119190000D01*
X160237142Y-119190000D01*
X160294285Y-119218571D01*
X160322857Y-119247142D01*
X160351428Y-119304285D01*
X160351428Y-119447142D01*
X160322857Y-119504285D01*
X160294285Y-119532857D01*
X160237142Y-119561428D01*
X160094285Y-119561428D01*
X160037142Y-119532857D01*
X160008571Y-119504285D01*
%TO.C,C4*%
X159780000Y-121994285D02*
X159751428Y-122022857D01*
X159665714Y-122051428D01*
X159608571Y-122051428D01*
X159522857Y-122022857D01*
X159465714Y-121965714D01*
X159437142Y-121908571D01*
X159408571Y-121794285D01*
X159408571Y-121708571D01*
X159437142Y-121594285D01*
X159465714Y-121537142D01*
X159522857Y-121480000D01*
X159608571Y-121451428D01*
X159665714Y-121451428D01*
X159751428Y-121480000D01*
X159780000Y-121508571D01*
X160294285Y-121651428D02*
X160294285Y-122051428D01*
X160151428Y-121422857D02*
X160008571Y-121851428D01*
X160380000Y-121851428D01*
%TO.C,C7*%
X170424286Y-118624285D02*
X170395714Y-118652857D01*
X170310000Y-118681428D01*
X170252857Y-118681428D01*
X170167143Y-118652857D01*
X170110000Y-118595714D01*
X170081428Y-118538571D01*
X170052857Y-118424285D01*
X170052857Y-118338571D01*
X170081428Y-118224285D01*
X170110000Y-118167142D01*
X170167143Y-118110000D01*
X170252857Y-118081428D01*
X170310000Y-118081428D01*
X170395714Y-118110000D01*
X170424286Y-118138571D01*
X170624286Y-118081428D02*
X171024286Y-118081428D01*
X170767143Y-118681428D01*
%TO.C,C6*%
X161464285Y-119070000D02*
X161492857Y-119098571D01*
X161521428Y-119184285D01*
X161521428Y-119241428D01*
X161492857Y-119327142D01*
X161435714Y-119384285D01*
X161378571Y-119412857D01*
X161264285Y-119441428D01*
X161178571Y-119441428D01*
X161064285Y-119412857D01*
X161007142Y-119384285D01*
X160950000Y-119327142D01*
X160921428Y-119241428D01*
X160921428Y-119184285D01*
X160950000Y-119098571D01*
X160978571Y-119070000D01*
X160921428Y-118555714D02*
X160921428Y-118670000D01*
X160950000Y-118727142D01*
X160978571Y-118755714D01*
X161064285Y-118812857D01*
X161178571Y-118841428D01*
X161407142Y-118841428D01*
X161464285Y-118812857D01*
X161492857Y-118784285D01*
X161521428Y-118727142D01*
X161521428Y-118612857D01*
X161492857Y-118555714D01*
X161464285Y-118527142D01*
X161407142Y-118498571D01*
X161264285Y-118498571D01*
X161207142Y-118527142D01*
X161178571Y-118555714D01*
X161150000Y-118612857D01*
X161150000Y-118727142D01*
X161178571Y-118784285D01*
X161207142Y-118812857D01*
X161264285Y-118841428D01*
%TO.C,R3*%
X170424286Y-117621428D02*
X170224286Y-117335714D01*
X170081428Y-117621428D02*
X170081428Y-117021428D01*
X170310000Y-117021428D01*
X170367143Y-117050000D01*
X170395714Y-117078571D01*
X170424286Y-117135714D01*
X170424286Y-117221428D01*
X170395714Y-117278571D01*
X170367143Y-117307142D01*
X170310000Y-117335714D01*
X170081428Y-117335714D01*
X170624286Y-117021428D02*
X170995714Y-117021428D01*
X170795714Y-117250000D01*
X170881428Y-117250000D01*
X170938571Y-117278571D01*
X170967143Y-117307142D01*
X170995714Y-117364285D01*
X170995714Y-117507142D01*
X170967143Y-117564285D01*
X170938571Y-117592857D01*
X170881428Y-117621428D01*
X170710000Y-117621428D01*
X170652857Y-117592857D01*
X170624286Y-117564285D01*
%TO.C,R11*%
X154049187Y-114074670D02*
X153705735Y-114014061D01*
X153806751Y-114317106D02*
X153382487Y-113892842D01*
X153544111Y-113731218D01*
X153604720Y-113711015D01*
X153645126Y-113711015D01*
X153705735Y-113731218D01*
X153766345Y-113791827D01*
X153786548Y-113852436D01*
X153786548Y-113892842D01*
X153766345Y-113953451D01*
X153604720Y-114115076D01*
X154453248Y-113670609D02*
X154210812Y-113913045D01*
X154332030Y-113791827D02*
X153907766Y-113367563D01*
X153927969Y-113468578D01*
X153927969Y-113549390D01*
X153907766Y-113610000D01*
X154857309Y-113266548D02*
X154614873Y-113508984D01*
X154736091Y-113387766D02*
X154311827Y-112963502D01*
X154332030Y-113064517D01*
X154332030Y-113145329D01*
X154311827Y-113205938D01*
%TO.C,R10*%
X148704285Y-116731428D02*
X148504285Y-116445714D01*
X148361428Y-116731428D02*
X148361428Y-116131428D01*
X148590000Y-116131428D01*
X148647142Y-116160000D01*
X148675714Y-116188571D01*
X148704285Y-116245714D01*
X148704285Y-116331428D01*
X148675714Y-116388571D01*
X148647142Y-116417142D01*
X148590000Y-116445714D01*
X148361428Y-116445714D01*
X149275714Y-116731428D02*
X148932857Y-116731428D01*
X149104285Y-116731428D02*
X149104285Y-116131428D01*
X149047142Y-116217142D01*
X148990000Y-116274285D01*
X148932857Y-116302857D01*
X149647142Y-116131428D02*
X149704285Y-116131428D01*
X149761428Y-116160000D01*
X149790000Y-116188571D01*
X149818571Y-116245714D01*
X149847142Y-116360000D01*
X149847142Y-116502857D01*
X149818571Y-116617142D01*
X149790000Y-116674285D01*
X149761428Y-116702857D01*
X149704285Y-116731428D01*
X149647142Y-116731428D01*
X149590000Y-116702857D01*
X149561428Y-116674285D01*
X149532857Y-116617142D01*
X149504285Y-116502857D01*
X149504285Y-116360000D01*
X149532857Y-116245714D01*
X149561428Y-116188571D01*
X149590000Y-116160000D01*
X149647142Y-116131428D01*
%TO.C,R9*%
X155001218Y-114332639D02*
X154657766Y-114272030D01*
X154758781Y-114575076D02*
X154334517Y-114150812D01*
X154496142Y-113989187D01*
X154556751Y-113968984D01*
X154597157Y-113968984D01*
X154657766Y-113989187D01*
X154718375Y-114049796D01*
X154738578Y-114110406D01*
X154738578Y-114150812D01*
X154718375Y-114211421D01*
X154556751Y-114373045D01*
X155203248Y-114130609D02*
X155284061Y-114049796D01*
X155304264Y-113989187D01*
X155304264Y-113948781D01*
X155284061Y-113847766D01*
X155223451Y-113746751D01*
X155061827Y-113585126D01*
X155001218Y-113564923D01*
X154960812Y-113564923D01*
X154900203Y-113585126D01*
X154819390Y-113665938D01*
X154799187Y-113726548D01*
X154799187Y-113766954D01*
X154819390Y-113827563D01*
X154920406Y-113928578D01*
X154981015Y-113948781D01*
X155021421Y-113948781D01*
X155082030Y-113928578D01*
X155162842Y-113847766D01*
X155183045Y-113787157D01*
X155183045Y-113746751D01*
X155162842Y-113686142D01*
%TO.C,R8*%
X155561218Y-114892639D02*
X155217766Y-114832030D01*
X155318781Y-115135076D02*
X154894517Y-114710812D01*
X155056142Y-114549187D01*
X155116751Y-114528984D01*
X155157157Y-114528984D01*
X155217766Y-114549187D01*
X155278375Y-114609796D01*
X155298578Y-114670406D01*
X155298578Y-114710812D01*
X155278375Y-114771421D01*
X155116751Y-114933045D01*
X155561218Y-114407766D02*
X155500609Y-114427969D01*
X155460203Y-114427969D01*
X155399593Y-114407766D01*
X155379390Y-114387563D01*
X155359187Y-114326954D01*
X155359187Y-114286548D01*
X155379390Y-114225938D01*
X155460203Y-114145126D01*
X155520812Y-114124923D01*
X155561218Y-114124923D01*
X155621827Y-114145126D01*
X155642030Y-114165329D01*
X155662233Y-114225938D01*
X155662233Y-114266345D01*
X155642030Y-114326954D01*
X155561218Y-114407766D01*
X155541015Y-114468375D01*
X155541015Y-114508781D01*
X155561218Y-114569390D01*
X155642030Y-114650203D01*
X155702639Y-114670406D01*
X155743045Y-114670406D01*
X155803654Y-114650203D01*
X155884467Y-114569390D01*
X155904670Y-114508781D01*
X155904670Y-114468375D01*
X155884467Y-114407766D01*
X155803654Y-114326954D01*
X155743045Y-114306751D01*
X155702639Y-114306751D01*
X155642030Y-114326954D01*
%TO.C,R5*%
X149240000Y-115811428D02*
X149040000Y-115525714D01*
X148897142Y-115811428D02*
X148897142Y-115211428D01*
X149125714Y-115211428D01*
X149182857Y-115240000D01*
X149211428Y-115268571D01*
X149240000Y-115325714D01*
X149240000Y-115411428D01*
X149211428Y-115468571D01*
X149182857Y-115497142D01*
X149125714Y-115525714D01*
X148897142Y-115525714D01*
X149782857Y-115211428D02*
X149497142Y-115211428D01*
X149468571Y-115497142D01*
X149497142Y-115468571D01*
X149554285Y-115440000D01*
X149697142Y-115440000D01*
X149754285Y-115468571D01*
X149782857Y-115497142D01*
X149811428Y-115554285D01*
X149811428Y-115697142D01*
X149782857Y-115754285D01*
X149754285Y-115782857D01*
X149697142Y-115811428D01*
X149554285Y-115811428D01*
X149497142Y-115782857D01*
X149468571Y-115754285D01*
%TO.C,R2*%
X164540000Y-123331428D02*
X164340000Y-123045714D01*
X164197142Y-123331428D02*
X164197142Y-122731428D01*
X164425714Y-122731428D01*
X164482857Y-122760000D01*
X164511428Y-122788571D01*
X164540000Y-122845714D01*
X164540000Y-122931428D01*
X164511428Y-122988571D01*
X164482857Y-123017142D01*
X164425714Y-123045714D01*
X164197142Y-123045714D01*
X164768571Y-122788571D02*
X164797142Y-122760000D01*
X164854285Y-122731428D01*
X164997142Y-122731428D01*
X165054285Y-122760000D01*
X165082857Y-122788571D01*
X165111428Y-122845714D01*
X165111428Y-122902857D01*
X165082857Y-122988571D01*
X164740000Y-123331428D01*
X165111428Y-123331428D01*
%TO.C,R1*%
X163470000Y-123331428D02*
X163270000Y-123045714D01*
X163127142Y-123331428D02*
X163127142Y-122731428D01*
X163355714Y-122731428D01*
X163412857Y-122760000D01*
X163441428Y-122788571D01*
X163470000Y-122845714D01*
X163470000Y-122931428D01*
X163441428Y-122988571D01*
X163412857Y-123017142D01*
X163355714Y-123045714D01*
X163127142Y-123045714D01*
X164041428Y-123331428D02*
X163698571Y-123331428D01*
X163870000Y-123331428D02*
X163870000Y-122731428D01*
X163812857Y-122817142D01*
X163755714Y-122874285D01*
X163698571Y-122902857D01*
%TO.C,C12*%
X151934285Y-120465714D02*
X151962857Y-120494285D01*
X151991428Y-120580000D01*
X151991428Y-120637142D01*
X151962857Y-120722857D01*
X151905714Y-120780000D01*
X151848571Y-120808571D01*
X151734285Y-120837142D01*
X151648571Y-120837142D01*
X151534285Y-120808571D01*
X151477142Y-120780000D01*
X151420000Y-120722857D01*
X151391428Y-120637142D01*
X151391428Y-120580000D01*
X151420000Y-120494285D01*
X151448571Y-120465714D01*
X151991428Y-119894285D02*
X151991428Y-120237142D01*
X151991428Y-120065714D02*
X151391428Y-120065714D01*
X151477142Y-120122857D01*
X151534285Y-120180000D01*
X151562857Y-120237142D01*
X151448571Y-119665714D02*
X151420000Y-119637142D01*
X151391428Y-119580000D01*
X151391428Y-119437142D01*
X151420000Y-119380000D01*
X151448571Y-119351428D01*
X151505714Y-119322857D01*
X151562857Y-119322857D01*
X151648571Y-119351428D01*
X151991428Y-119694285D01*
X151991428Y-119322857D01*
%TO.C,C11*%
X156194285Y-120445714D02*
X156222857Y-120474285D01*
X156251428Y-120560000D01*
X156251428Y-120617142D01*
X156222857Y-120702857D01*
X156165714Y-120760000D01*
X156108571Y-120788571D01*
X155994285Y-120817142D01*
X155908571Y-120817142D01*
X155794285Y-120788571D01*
X155737142Y-120760000D01*
X155680000Y-120702857D01*
X155651428Y-120617142D01*
X155651428Y-120560000D01*
X155680000Y-120474285D01*
X155708571Y-120445714D01*
X156251428Y-119874285D02*
X156251428Y-120217142D01*
X156251428Y-120045714D02*
X155651428Y-120045714D01*
X155737142Y-120102857D01*
X155794285Y-120160000D01*
X155822857Y-120217142D01*
X156251428Y-119302857D02*
X156251428Y-119645714D01*
X156251428Y-119474285D02*
X155651428Y-119474285D01*
X155737142Y-119531428D01*
X155794285Y-119588571D01*
X155822857Y-119645714D01*
%TO.C,R7*%
X140791428Y-121570000D02*
X140505714Y-121770000D01*
X140791428Y-121912857D02*
X140191428Y-121912857D01*
X140191428Y-121684285D01*
X140220000Y-121627142D01*
X140248571Y-121598571D01*
X140305714Y-121570000D01*
X140391428Y-121570000D01*
X140448571Y-121598571D01*
X140477142Y-121627142D01*
X140505714Y-121684285D01*
X140505714Y-121912857D01*
X140191428Y-121370000D02*
X140191428Y-120970000D01*
X140791428Y-121227142D01*
%TO.C,R4*%
X142940000Y-122511428D02*
X142740000Y-122225714D01*
X142597142Y-122511428D02*
X142597142Y-121911428D01*
X142825714Y-121911428D01*
X142882857Y-121940000D01*
X142911428Y-121968571D01*
X142940000Y-122025714D01*
X142940000Y-122111428D01*
X142911428Y-122168571D01*
X142882857Y-122197142D01*
X142825714Y-122225714D01*
X142597142Y-122225714D01*
X143454285Y-122111428D02*
X143454285Y-122511428D01*
X143311428Y-121882857D02*
X143168571Y-122311428D01*
X143540000Y-122311428D01*
%TO.C,C3*%
X140734285Y-119540000D02*
X140762857Y-119568571D01*
X140791428Y-119654285D01*
X140791428Y-119711428D01*
X140762857Y-119797142D01*
X140705714Y-119854285D01*
X140648571Y-119882857D01*
X140534285Y-119911428D01*
X140448571Y-119911428D01*
X140334285Y-119882857D01*
X140277142Y-119854285D01*
X140220000Y-119797142D01*
X140191428Y-119711428D01*
X140191428Y-119654285D01*
X140220000Y-119568571D01*
X140248571Y-119540000D01*
X140191428Y-119340000D02*
X140191428Y-118968571D01*
X140420000Y-119168571D01*
X140420000Y-119082857D01*
X140448571Y-119025714D01*
X140477142Y-118997142D01*
X140534285Y-118968571D01*
X140677142Y-118968571D01*
X140734285Y-118997142D01*
X140762857Y-119025714D01*
X140791428Y-119082857D01*
X140791428Y-119254285D01*
X140762857Y-119311428D01*
X140734285Y-119340000D01*
D13*
%TO.C,U5*%
X154770000Y-117789999D02*
X152770000Y-117789999D01*
X154770000Y-115329999D02*
X152770000Y-115329999D01*
D14*
X155270000Y-117789999D02*
G75*
G03*
X155270000Y-117789999I-100000J0D01*
G01*
D12*
%TO.C,U4*%
X141430000Y-117880000D02*
G75*
G03*
X141430000Y-117880000I-100000J0D01*
G01*
X141080000Y-117180000D02*
X141080000Y-113880000D01*
X144380000Y-117180000D02*
X144380000Y-113880000D01*
%TO.C,U3*%
X147690000Y-117179999D02*
X147690000Y-113879999D01*
X144390000Y-117179999D02*
X144390000Y-113879999D01*
X144740000Y-117879999D02*
G75*
G03*
X144740000Y-117879999I-100000J0D01*
G01*
D14*
%TO.C,U2*%
X163420000Y-116480000D02*
G75*
G03*
X163420000Y-116480000I-100000J0D01*
G01*
D13*
X165820000Y-121730000D02*
X165820000Y-121580000D01*
X165170000Y-121730000D02*
X165820000Y-121730000D01*
X162320000Y-121730000D02*
X162970000Y-121730000D01*
X162320000Y-121580000D02*
X162320000Y-121730000D01*
X165820000Y-117230000D02*
X165820000Y-117380000D01*
X165170000Y-117230000D02*
X165820000Y-117230000D01*
X162320000Y-117230000D02*
X162970000Y-117230000D01*
X162320000Y-117380000D02*
X162320000Y-117230000D01*
D11*
%TO.C,C22*%
X168610580Y-113380000D02*
X168329420Y-113380000D01*
X168610580Y-114400000D02*
X168329420Y-114400000D01*
%TO.C,J6*%
X172330000Y-111140000D02*
G75*
G03*
X172330000Y-111140000I-920000J0D01*
G01*
X170490000Y-111140000D02*
X169870000Y-111140000D01*
D12*
%TO.C,C21*%
X157670000Y-112289420D02*
X157670000Y-112570580D01*
X156650000Y-112289420D02*
X156650000Y-112570580D01*
%TO.C,C20*%
X158920000Y-112289420D02*
X158920000Y-112570580D01*
X157900000Y-112289420D02*
X157900000Y-112570580D01*
%TO.C,C19*%
X164620000Y-112269420D02*
X164620000Y-112550580D01*
X163600000Y-112269420D02*
X163600000Y-112550580D01*
%TO.C,C15*%
X164769420Y-113930000D02*
X165050580Y-113930000D01*
X164769420Y-114950000D02*
X165050580Y-114950000D01*
%TO.C,C14*%
X163470000Y-112269420D02*
X163470000Y-112550580D01*
X162450000Y-112269420D02*
X162450000Y-112550580D01*
%TO.C,C13*%
X162320000Y-112279420D02*
X162320000Y-112560580D01*
X161300000Y-112279420D02*
X161300000Y-112560580D01*
%TO.C,C2*%
X164769420Y-115080000D02*
X165050580Y-115080000D01*
X164769420Y-116100000D02*
X165050580Y-116100000D01*
%TO.C,C1*%
X161020000Y-111678748D02*
X161020000Y-113101252D01*
X159200000Y-111678748D02*
X159200000Y-113101252D01*
%TO.C,J7*%
X178780000Y-119620000D02*
X177580000Y-119620000D01*
X184580000Y-110810000D02*
X182840000Y-110810000D01*
X184580000Y-121110000D02*
X184580000Y-110810000D01*
X182840000Y-121110000D02*
X184580000Y-121110000D01*
X178780000Y-110810000D02*
X180120000Y-110810000D01*
X178780000Y-112300000D02*
X178780000Y-110810000D01*
X178780000Y-121110000D02*
X180120000Y-121110000D01*
X178780000Y-119620000D02*
X178780000Y-121110000D01*
%TO.C,C18*%
X168610580Y-116710000D02*
X168329420Y-116710000D01*
X168610580Y-115690000D02*
X168329420Y-115690000D01*
%TO.C,C17*%
X159130000Y-117379420D02*
X159130000Y-117660580D01*
X158110000Y-117379420D02*
X158110000Y-117660580D01*
%TO.C,C16*%
X160290000Y-117379420D02*
X160290000Y-117660580D01*
X159270000Y-117379420D02*
X159270000Y-117660580D01*
%TO.C,C10*%
X168610580Y-115550000D02*
X168329420Y-115550000D01*
X168610580Y-114530000D02*
X168329420Y-114530000D01*
%TO.C,C9*%
X168092164Y-119690000D02*
X168307836Y-119690000D01*
X168092164Y-120410000D02*
X168307836Y-120410000D01*
%TO.C,C8*%
X168092164Y-118870000D02*
X168307836Y-118870000D01*
X168092164Y-119590000D02*
X168307836Y-119590000D01*
%TO.C,C5*%
X159772164Y-119720000D02*
X159987836Y-119720000D01*
X159772164Y-120440000D02*
X159987836Y-120440000D01*
%TO.C,C4*%
X159772164Y-120540000D02*
X159987836Y-120540000D01*
X159772164Y-121260000D02*
X159987836Y-121260000D01*
%TO.C,C7*%
X168092164Y-118050000D02*
X168307836Y-118050000D01*
X168092164Y-118770000D02*
X168307836Y-118770000D01*
%TO.C,C6*%
X161620000Y-117372164D02*
X161620000Y-117587836D01*
X160900000Y-117372164D02*
X160900000Y-117587836D01*
%TO.C,R3*%
X168056359Y-117750000D02*
X168363641Y-117750000D01*
X168056359Y-116990000D02*
X168363641Y-116990000D01*
%TO.C,TH2*%
X153410000Y-112060000D02*
X154030000Y-112060000D01*
X153410000Y-112060000D02*
G75*
G03*
X153410000Y-112060000I-920000J0D01*
G01*
%TO.C,TH1*%
X174010000Y-120260000D02*
X174010000Y-119640000D01*
X174930000Y-121180000D02*
G75*
G03*
X174930000Y-121180000I-920000J0D01*
G01*
%TO.C,R11*%
X156306358Y-115630000D02*
X156613640Y-115630000D01*
X156306358Y-114870000D02*
X156613640Y-114870000D01*
%TO.C,R10*%
X151033641Y-116079999D02*
X150726359Y-116079999D01*
X151033641Y-116839999D02*
X150726359Y-116839999D01*
%TO.C,R9*%
X156306359Y-116550000D02*
X156613641Y-116550000D01*
X156306359Y-115790000D02*
X156613641Y-115790000D01*
%TO.C,R8*%
X156306359Y-117470000D02*
X156613641Y-117470000D01*
X156306359Y-116710000D02*
X156613641Y-116710000D01*
%TO.C,R5*%
X151033641Y-115160000D02*
X150726359Y-115160000D01*
X151033641Y-115920000D02*
X150726359Y-115920000D01*
%TO.C,R2*%
X165340000Y-122896359D02*
X165340000Y-123203641D01*
X166100000Y-122896359D02*
X166100000Y-123203641D01*
%TO.C,R1*%
X162800000Y-123203640D02*
X162800000Y-122896358D01*
X162040000Y-123203640D02*
X162040000Y-122896358D01*
%TO.C,C12*%
X152430000Y-119939420D02*
X152430000Y-120220580D01*
X153450000Y-119939420D02*
X153450000Y-120220580D01*
%TO.C,C11*%
X155280000Y-120220580D02*
X155280000Y-119939420D01*
X154260000Y-120220580D02*
X154260000Y-119939420D01*
%TO.C,J5*%
X139120000Y-122420000D02*
X139120000Y-119760000D01*
X136520000Y-122420000D02*
X139120000Y-122420000D01*
X136520000Y-119760000D02*
X139120000Y-119760000D01*
X136520000Y-122420000D02*
X136520000Y-119760000D01*
X135250000Y-122420000D02*
X133920000Y-122420000D01*
X133920000Y-122420000D02*
X133920000Y-121090000D01*
%TO.C,R7*%
X141100000Y-121633641D02*
X141100000Y-121326359D01*
X141860000Y-121633641D02*
X141860000Y-121326359D01*
%TO.C,R4*%
X142896359Y-120890000D02*
X143203641Y-120890000D01*
X142896359Y-121650000D02*
X143203641Y-121650000D01*
%TO.C,C3*%
X141110000Y-119557836D02*
X141110000Y-119342164D01*
X141830000Y-119557836D02*
X141830000Y-119342164D01*
%TO.C,U1*%
X143904999Y-118960000D02*
X142354999Y-118960000D01*
X144054999Y-120660000D02*
X142354999Y-120660000D01*
%TD*%
M02*
