G04 #@! TF.GenerationSoftware,KiCad,Pcbnew,(6.0.0)*
G04 #@! TF.CreationDate,2022-01-13T15:14:10+08:00*
G04 #@! TF.ProjectId,PowerSupply,506f7765-7253-4757-9070-6c792e6b6963,rev?*
G04 #@! TF.SameCoordinates,PX5e56640PY77750e0*
G04 #@! TF.FileFunction,Paste,Bot*
G04 #@! TF.FilePolarity,Positive*
%FSLAX46Y46*%
G04 Gerber Fmt 4.6, Leading zero omitted, Abs format (unit mm)*
G04 Created by KiCad (PCBNEW (6.0.0)) date 2022-01-13 15:14:10*
%MOMM*%
%LPD*%
G01*
G04 APERTURE LIST*
G04 Aperture macros list*
%AMRoundRect*
0 Rectangle with rounded corners*
0 $1 Rounding radius*
0 $2 $3 $4 $5 $6 $7 $8 $9 X,Y pos of 4 corners*
0 Add a 4 corners polygon primitive as box body*
4,1,4,$2,$3,$4,$5,$6,$7,$8,$9,$2,$3,0*
0 Add four circle primitives for the rounded corners*
1,1,$1+$1,$2,$3*
1,1,$1+$1,$4,$5*
1,1,$1+$1,$6,$7*
1,1,$1+$1,$8,$9*
0 Add four rect primitives between the rounded corners*
20,1,$1+$1,$2,$3,$4,$5,0*
20,1,$1+$1,$4,$5,$6,$7,0*
20,1,$1+$1,$6,$7,$8,$9,0*
20,1,$1+$1,$8,$9,$2,$3,0*%
%AMOutline4P*
0 Free polygon, 4 corners , with rotation*
0 The origin of the aperture is its center*
0 number of corners: always 4*
0 $1 to $8 corner X, Y*
0 $9 Rotation angle, in degrees counterclockwise*
0 create outline with 4 corners*
4,1,4,$1,$2,$3,$4,$5,$6,$7,$8,$1,$2,$9*%
G04 Aperture macros list end*
%ADD10C,0.010000*%
%ADD11R,0.240000X0.600000*%
%ADD12R,0.600000X0.240000*%
%ADD13R,0.240000X0.990000*%
%ADD14R,0.517500X0.427500*%
%ADD15RoundRect,0.225000X0.225000X0.250000X-0.225000X0.250000X-0.225000X-0.250000X0.225000X-0.250000X0*%
%ADD16RoundRect,0.140000X0.140000X0.170000X-0.140000X0.170000X-0.140000X-0.170000X0.140000X-0.170000X0*%
%ADD17RoundRect,0.140000X-0.170000X0.140000X-0.170000X-0.140000X0.170000X-0.140000X0.170000X0.140000X0*%
%ADD18RoundRect,0.140000X0.170000X-0.140000X0.170000X0.140000X-0.170000X0.140000X-0.170000X-0.140000X0*%
%ADD19RoundRect,0.140000X-0.140000X-0.170000X0.140000X-0.170000X0.140000X0.170000X-0.140000X0.170000X0*%
%ADD20RoundRect,0.225000X-0.225000X-0.250000X0.225000X-0.250000X0.225000X0.250000X-0.225000X0.250000X0*%
%ADD21R,2.500000X1.900000*%
%ADD22RoundRect,0.135000X0.185000X-0.135000X0.185000X0.135000X-0.185000X0.135000X-0.185000X-0.135000X0*%
%ADD23RoundRect,0.135000X-0.135000X-0.185000X0.135000X-0.185000X0.135000X0.185000X-0.135000X0.185000X0*%
%ADD24RoundRect,0.135000X-0.185000X0.135000X-0.185000X-0.135000X0.185000X-0.135000X0.185000X0.135000X0*%
%ADD25R,0.300000X1.300000*%
%ADD26R,1.800000X2.200000*%
%ADD27RoundRect,0.225000X-0.250000X0.225000X-0.250000X-0.225000X0.250000X-0.225000X0.250000X0.225000X0*%
%ADD28RoundRect,0.225000X0.250000X-0.225000X0.250000X0.225000X-0.250000X0.225000X-0.250000X-0.225000X0*%
%ADD29R,1.900000X2.500000*%
%ADD30O,0.750000X0.250000*%
%ADD31O,0.250000X0.900000*%
%ADD32O,0.500000X0.300000*%
%ADD33Outline4P,-0.050000X-0.150000X0.050000X-0.150000X0.050000X0.150000X-0.050000X0.150000X225.000000*%
%ADD34Outline4P,-0.050000X-0.150000X0.050000X-0.150000X0.050000X0.150000X-0.050000X0.150000X135.000000*%
%ADD35Outline4P,-0.050000X-0.150000X0.050000X-0.150000X0.050000X0.150000X-0.050000X0.150000X45.000000*%
%ADD36RoundRect,0.100000X-0.525000X-0.100000X0.525000X-0.100000X0.525000X0.100000X-0.525000X0.100000X0*%
%ADD37RoundRect,0.147500X-0.172500X0.147500X-0.172500X-0.147500X0.172500X-0.147500X0.172500X0.147500X0*%
%ADD38RoundRect,0.275000X3.225000X0.275000X-3.225000X0.275000X-3.225000X-0.275000X3.225000X-0.275000X0*%
%ADD39RoundRect,0.275000X0.275000X-3.225000X0.275000X3.225000X-0.275000X3.225000X-0.275000X-3.225000X0*%
G04 APERTURE END LIST*
D10*
G04 #@! TO.C,U1*
X58090000Y26945000D02*
X57170000Y26945000D01*
X57170000Y26945000D02*
X57170000Y27795000D01*
X57170000Y27795000D02*
X58090000Y27795000D01*
X58090000Y27795000D02*
X58090000Y26945000D01*
G36*
X58090000Y26945000D02*
G01*
X57170000Y26945000D01*
X57170000Y27795000D01*
X58090000Y27795000D01*
X58090000Y26945000D01*
G37*
X58090000Y26945000D02*
X57170000Y26945000D01*
X57170000Y27795000D01*
X58090000Y27795000D01*
X58090000Y26945000D01*
X56970000Y25895000D02*
X56050000Y25895000D01*
X56050000Y25895000D02*
X56050000Y26745000D01*
X56050000Y26745000D02*
X56970000Y26745000D01*
X56970000Y26745000D02*
X56970000Y25895000D01*
G36*
X56970000Y25895000D02*
G01*
X56050000Y25895000D01*
X56050000Y26745000D01*
X56970000Y26745000D01*
X56970000Y25895000D01*
G37*
X56970000Y25895000D02*
X56050000Y25895000D01*
X56050000Y26745000D01*
X56970000Y26745000D01*
X56970000Y25895000D01*
X58090000Y25895000D02*
X57170000Y25895000D01*
X57170000Y25895000D02*
X57170000Y26745000D01*
X57170000Y26745000D02*
X58090000Y26745000D01*
X58090000Y26745000D02*
X58090000Y25895000D01*
G36*
X58090000Y25895000D02*
G01*
X57170000Y25895000D01*
X57170000Y26745000D01*
X58090000Y26745000D01*
X58090000Y25895000D01*
G37*
X58090000Y25895000D02*
X57170000Y25895000D01*
X57170000Y26745000D01*
X58090000Y26745000D01*
X58090000Y25895000D01*
X56970000Y24845000D02*
X56050000Y24845000D01*
X56050000Y24845000D02*
X56050000Y25695000D01*
X56050000Y25695000D02*
X56970000Y25695000D01*
X56970000Y25695000D02*
X56970000Y24845000D01*
G36*
X56970000Y24845000D02*
G01*
X56050000Y24845000D01*
X56050000Y25695000D01*
X56970000Y25695000D01*
X56970000Y24845000D01*
G37*
X56970000Y24845000D02*
X56050000Y24845000D01*
X56050000Y25695000D01*
X56970000Y25695000D01*
X56970000Y24845000D01*
X56695000Y24645000D02*
X56695000Y23920000D01*
X56695000Y23920000D02*
X56695069Y23917383D01*
X56695069Y23917383D02*
X56695274Y23914774D01*
X56695274Y23914774D02*
X56695616Y23912178D01*
X56695616Y23912178D02*
X56696093Y23909604D01*
X56696093Y23909604D02*
X56696704Y23907059D01*
X56696704Y23907059D02*
X56697447Y23904549D01*
X56697447Y23904549D02*
X56698321Y23902082D01*
X56698321Y23902082D02*
X56699323Y23899663D01*
X56699323Y23899663D02*
X56700450Y23897300D01*
X56700450Y23897300D02*
X56701699Y23895000D01*
X56701699Y23895000D02*
X56703066Y23892768D01*
X56703066Y23892768D02*
X56704549Y23890611D01*
X56704549Y23890611D02*
X56706143Y23888534D01*
X56706143Y23888534D02*
X56707843Y23886543D01*
X56707843Y23886543D02*
X56709645Y23884645D01*
X56709645Y23884645D02*
X56711543Y23882843D01*
X56711543Y23882843D02*
X56713534Y23881143D01*
X56713534Y23881143D02*
X56715611Y23879549D01*
X56715611Y23879549D02*
X56717768Y23878066D01*
X56717768Y23878066D02*
X56720000Y23876699D01*
X56720000Y23876699D02*
X56722300Y23875450D01*
X56722300Y23875450D02*
X56724663Y23874323D01*
X56724663Y23874323D02*
X56727082Y23873321D01*
X56727082Y23873321D02*
X56729549Y23872447D01*
X56729549Y23872447D02*
X56732059Y23871704D01*
X56732059Y23871704D02*
X56734604Y23871093D01*
X56734604Y23871093D02*
X56737178Y23870616D01*
X56737178Y23870616D02*
X56739774Y23870274D01*
X56739774Y23870274D02*
X56742383Y23870069D01*
X56742383Y23870069D02*
X56745000Y23870000D01*
X56745000Y23870000D02*
X56845000Y23870000D01*
X56845000Y23870000D02*
X56847617Y23870069D01*
X56847617Y23870069D02*
X56850226Y23870274D01*
X56850226Y23870274D02*
X56852822Y23870616D01*
X56852822Y23870616D02*
X56855396Y23871093D01*
X56855396Y23871093D02*
X56857941Y23871704D01*
X56857941Y23871704D02*
X56860451Y23872447D01*
X56860451Y23872447D02*
X56862918Y23873321D01*
X56862918Y23873321D02*
X56865337Y23874323D01*
X56865337Y23874323D02*
X56867700Y23875450D01*
X56867700Y23875450D02*
X56870000Y23876699D01*
X56870000Y23876699D02*
X56872232Y23878066D01*
X56872232Y23878066D02*
X56874389Y23879549D01*
X56874389Y23879549D02*
X56876466Y23881143D01*
X56876466Y23881143D02*
X56878457Y23882843D01*
X56878457Y23882843D02*
X56880355Y23884645D01*
X56880355Y23884645D02*
X56882157Y23886543D01*
X56882157Y23886543D02*
X56883857Y23888534D01*
X56883857Y23888534D02*
X56885451Y23890611D01*
X56885451Y23890611D02*
X56886934Y23892768D01*
X56886934Y23892768D02*
X56888301Y23895000D01*
X56888301Y23895000D02*
X56889550Y23897300D01*
X56889550Y23897300D02*
X56890677Y23899663D01*
X56890677Y23899663D02*
X56891679Y23902082D01*
X56891679Y23902082D02*
X56892553Y23904549D01*
X56892553Y23904549D02*
X56893296Y23907059D01*
X56893296Y23907059D02*
X56893907Y23909604D01*
X56893907Y23909604D02*
X56894384Y23912178D01*
X56894384Y23912178D02*
X56894726Y23914774D01*
X56894726Y23914774D02*
X56894931Y23917383D01*
X56894931Y23917383D02*
X56895000Y23920000D01*
X56895000Y23920000D02*
X56895000Y24395000D01*
X56895000Y24395000D02*
X57245000Y24395000D01*
X57245000Y24395000D02*
X57245000Y23920000D01*
X57245000Y23920000D02*
X57245069Y23917383D01*
X57245069Y23917383D02*
X57245274Y23914774D01*
X57245274Y23914774D02*
X57245616Y23912178D01*
X57245616Y23912178D02*
X57246093Y23909604D01*
X57246093Y23909604D02*
X57246704Y23907059D01*
X57246704Y23907059D02*
X57247447Y23904549D01*
X57247447Y23904549D02*
X57248321Y23902082D01*
X57248321Y23902082D02*
X57249323Y23899663D01*
X57249323Y23899663D02*
X57250450Y23897300D01*
X57250450Y23897300D02*
X57251699Y23895000D01*
X57251699Y23895000D02*
X57253066Y23892768D01*
X57253066Y23892768D02*
X57254549Y23890611D01*
X57254549Y23890611D02*
X57256143Y23888534D01*
X57256143Y23888534D02*
X57257843Y23886543D01*
X57257843Y23886543D02*
X57259645Y23884645D01*
X57259645Y23884645D02*
X57261543Y23882843D01*
X57261543Y23882843D02*
X57263534Y23881143D01*
X57263534Y23881143D02*
X57265611Y23879549D01*
X57265611Y23879549D02*
X57267768Y23878066D01*
X57267768Y23878066D02*
X57270000Y23876699D01*
X57270000Y23876699D02*
X57272300Y23875450D01*
X57272300Y23875450D02*
X57274663Y23874323D01*
X57274663Y23874323D02*
X57277082Y23873321D01*
X57277082Y23873321D02*
X57279549Y23872447D01*
X57279549Y23872447D02*
X57282059Y23871704D01*
X57282059Y23871704D02*
X57284604Y23871093D01*
X57284604Y23871093D02*
X57287178Y23870616D01*
X57287178Y23870616D02*
X57289774Y23870274D01*
X57289774Y23870274D02*
X57292383Y23870069D01*
X57292383Y23870069D02*
X57295000Y23870000D01*
X57295000Y23870000D02*
X57395000Y23870000D01*
X57395000Y23870000D02*
X57397617Y23870069D01*
X57397617Y23870069D02*
X57400226Y23870274D01*
X57400226Y23870274D02*
X57402822Y23870616D01*
X57402822Y23870616D02*
X57405396Y23871093D01*
X57405396Y23871093D02*
X57407941Y23871704D01*
X57407941Y23871704D02*
X57410451Y23872447D01*
X57410451Y23872447D02*
X57412918Y23873321D01*
X57412918Y23873321D02*
X57415337Y23874323D01*
X57415337Y23874323D02*
X57417700Y23875450D01*
X57417700Y23875450D02*
X57420000Y23876699D01*
X57420000Y23876699D02*
X57422232Y23878066D01*
X57422232Y23878066D02*
X57424389Y23879549D01*
X57424389Y23879549D02*
X57426466Y23881143D01*
X57426466Y23881143D02*
X57428457Y23882843D01*
X57428457Y23882843D02*
X57430355Y23884645D01*
X57430355Y23884645D02*
X57432157Y23886543D01*
X57432157Y23886543D02*
X57433857Y23888534D01*
X57433857Y23888534D02*
X57435451Y23890611D01*
X57435451Y23890611D02*
X57436934Y23892768D01*
X57436934Y23892768D02*
X57438301Y23895000D01*
X57438301Y23895000D02*
X57439550Y23897300D01*
X57439550Y23897300D02*
X57440677Y23899663D01*
X57440677Y23899663D02*
X57441679Y23902082D01*
X57441679Y23902082D02*
X57442553Y23904549D01*
X57442553Y23904549D02*
X57443296Y23907059D01*
X57443296Y23907059D02*
X57443907Y23909604D01*
X57443907Y23909604D02*
X57444384Y23912178D01*
X57444384Y23912178D02*
X57444726Y23914774D01*
X57444726Y23914774D02*
X57444931Y23917383D01*
X57444931Y23917383D02*
X57445000Y23920000D01*
X57445000Y23920000D02*
X57445000Y24645000D01*
X57445000Y24645000D02*
X56695000Y24645000D01*
X56695000Y24645000D02*
X56695000Y24645000D01*
G36*
X57445000Y23920000D02*
G01*
X57444931Y23917383D01*
X57444726Y23914774D01*
X57444384Y23912178D01*
X57443907Y23909604D01*
X57443296Y23907059D01*
X57442553Y23904549D01*
X57441679Y23902082D01*
X57440677Y23899663D01*
X57439550Y23897300D01*
X57438301Y23895000D01*
X57436934Y23892768D01*
X57435451Y23890611D01*
X57433857Y23888534D01*
X57432157Y23886543D01*
X57430355Y23884645D01*
X57428457Y23882843D01*
X57426466Y23881143D01*
X57424389Y23879549D01*
X57422232Y23878066D01*
X57420000Y23876699D01*
X57417700Y23875450D01*
X57415337Y23874323D01*
X57412918Y23873321D01*
X57410451Y23872447D01*
X57407941Y23871704D01*
X57405396Y23871093D01*
X57402822Y23870616D01*
X57400226Y23870274D01*
X57397617Y23870069D01*
X57395000Y23870000D01*
X57295000Y23870000D01*
X57292383Y23870069D01*
X57289774Y23870274D01*
X57287178Y23870616D01*
X57284604Y23871093D01*
X57282059Y23871704D01*
X57279549Y23872447D01*
X57277082Y23873321D01*
X57274663Y23874323D01*
X57272300Y23875450D01*
X57270000Y23876699D01*
X57267768Y23878066D01*
X57265611Y23879549D01*
X57263534Y23881143D01*
X57261543Y23882843D01*
X57259645Y23884645D01*
X57257843Y23886543D01*
X57256143Y23888534D01*
X57254549Y23890611D01*
X57253066Y23892768D01*
X57251699Y23895000D01*
X57250450Y23897300D01*
X57249323Y23899663D01*
X57248321Y23902082D01*
X57247447Y23904549D01*
X57246704Y23907059D01*
X57246093Y23909604D01*
X57245616Y23912178D01*
X57245274Y23914774D01*
X57245069Y23917383D01*
X57245000Y23920000D01*
X57245000Y24395000D01*
X56895000Y24395000D01*
X56895000Y23920000D01*
X56894931Y23917383D01*
X56894726Y23914774D01*
X56894384Y23912178D01*
X56893907Y23909604D01*
X56893296Y23907059D01*
X56892553Y23904549D01*
X56891679Y23902082D01*
X56890677Y23899663D01*
X56889550Y23897300D01*
X56888301Y23895000D01*
X56886934Y23892768D01*
X56885451Y23890611D01*
X56883857Y23888534D01*
X56882157Y23886543D01*
X56880355Y23884645D01*
X56878457Y23882843D01*
X56876466Y23881143D01*
X56874389Y23879549D01*
X56872232Y23878066D01*
X56870000Y23876699D01*
X56867700Y23875450D01*
X56865337Y23874323D01*
X56862918Y23873321D01*
X56860451Y23872447D01*
X56857941Y23871704D01*
X56855396Y23871093D01*
X56852822Y23870616D01*
X56850226Y23870274D01*
X56847617Y23870069D01*
X56845000Y23870000D01*
X56745000Y23870000D01*
X56742383Y23870069D01*
X56739774Y23870274D01*
X56737178Y23870616D01*
X56734604Y23871093D01*
X56732059Y23871704D01*
X56729549Y23872447D01*
X56727082Y23873321D01*
X56724663Y23874323D01*
X56722300Y23875450D01*
X56720000Y23876699D01*
X56717768Y23878066D01*
X56715611Y23879549D01*
X56713534Y23881143D01*
X56711543Y23882843D01*
X56709645Y23884645D01*
X56707843Y23886543D01*
X56706143Y23888534D01*
X56704549Y23890611D01*
X56703066Y23892768D01*
X56701699Y23895000D01*
X56700450Y23897300D01*
X56699323Y23899663D01*
X56698321Y23902082D01*
X56697447Y23904549D01*
X56696704Y23907059D01*
X56696093Y23909604D01*
X56695616Y23912178D01*
X56695274Y23914774D01*
X56695069Y23917383D01*
X56695000Y23920000D01*
X56695000Y24645000D01*
X57445000Y24645000D01*
X57445000Y23920000D01*
G37*
X57445000Y23920000D02*
X57444931Y23917383D01*
X57444726Y23914774D01*
X57444384Y23912178D01*
X57443907Y23909604D01*
X57443296Y23907059D01*
X57442553Y23904549D01*
X57441679Y23902082D01*
X57440677Y23899663D01*
X57439550Y23897300D01*
X57438301Y23895000D01*
X57436934Y23892768D01*
X57435451Y23890611D01*
X57433857Y23888534D01*
X57432157Y23886543D01*
X57430355Y23884645D01*
X57428457Y23882843D01*
X57426466Y23881143D01*
X57424389Y23879549D01*
X57422232Y23878066D01*
X57420000Y23876699D01*
X57417700Y23875450D01*
X57415337Y23874323D01*
X57412918Y23873321D01*
X57410451Y23872447D01*
X57407941Y23871704D01*
X57405396Y23871093D01*
X57402822Y23870616D01*
X57400226Y23870274D01*
X57397617Y23870069D01*
X57395000Y23870000D01*
X57295000Y23870000D01*
X57292383Y23870069D01*
X57289774Y23870274D01*
X57287178Y23870616D01*
X57284604Y23871093D01*
X57282059Y23871704D01*
X57279549Y23872447D01*
X57277082Y23873321D01*
X57274663Y23874323D01*
X57272300Y23875450D01*
X57270000Y23876699D01*
X57267768Y23878066D01*
X57265611Y23879549D01*
X57263534Y23881143D01*
X57261543Y23882843D01*
X57259645Y23884645D01*
X57257843Y23886543D01*
X57256143Y23888534D01*
X57254549Y23890611D01*
X57253066Y23892768D01*
X57251699Y23895000D01*
X57250450Y23897300D01*
X57249323Y23899663D01*
X57248321Y23902082D01*
X57247447Y23904549D01*
X57246704Y23907059D01*
X57246093Y23909604D01*
X57245616Y23912178D01*
X57245274Y23914774D01*
X57245069Y23917383D01*
X57245000Y23920000D01*
X57245000Y24395000D01*
X56895000Y24395000D01*
X56895000Y23920000D01*
X56894931Y23917383D01*
X56894726Y23914774D01*
X56894384Y23912178D01*
X56893907Y23909604D01*
X56893296Y23907059D01*
X56892553Y23904549D01*
X56891679Y23902082D01*
X56890677Y23899663D01*
X56889550Y23897300D01*
X56888301Y23895000D01*
X56886934Y23892768D01*
X56885451Y23890611D01*
X56883857Y23888534D01*
X56882157Y23886543D01*
X56880355Y23884645D01*
X56878457Y23882843D01*
X56876466Y23881143D01*
X56874389Y23879549D01*
X56872232Y23878066D01*
X56870000Y23876699D01*
X56867700Y23875450D01*
X56865337Y23874323D01*
X56862918Y23873321D01*
X56860451Y23872447D01*
X56857941Y23871704D01*
X56855396Y23871093D01*
X56852822Y23870616D01*
X56850226Y23870274D01*
X56847617Y23870069D01*
X56845000Y23870000D01*
X56745000Y23870000D01*
X56742383Y23870069D01*
X56739774Y23870274D01*
X56737178Y23870616D01*
X56734604Y23871093D01*
X56732059Y23871704D01*
X56729549Y23872447D01*
X56727082Y23873321D01*
X56724663Y23874323D01*
X56722300Y23875450D01*
X56720000Y23876699D01*
X56717768Y23878066D01*
X56715611Y23879549D01*
X56713534Y23881143D01*
X56711543Y23882843D01*
X56709645Y23884645D01*
X56707843Y23886543D01*
X56706143Y23888534D01*
X56704549Y23890611D01*
X56703066Y23892768D01*
X56701699Y23895000D01*
X56700450Y23897300D01*
X56699323Y23899663D01*
X56698321Y23902082D01*
X56697447Y23904549D01*
X56696704Y23907059D01*
X56696093Y23909604D01*
X56695616Y23912178D01*
X56695274Y23914774D01*
X56695069Y23917383D01*
X56695000Y23920000D01*
X56695000Y24645000D01*
X57445000Y24645000D01*
X57445000Y23920000D01*
X56970000Y26945000D02*
X56050000Y26945000D01*
X56050000Y26945000D02*
X56050000Y27795000D01*
X56050000Y27795000D02*
X56970000Y27795000D01*
X56970000Y27795000D02*
X56970000Y26945000D01*
G36*
X56970000Y26945000D02*
G01*
X56050000Y26945000D01*
X56050000Y27795000D01*
X56970000Y27795000D01*
X56970000Y26945000D01*
G37*
X56970000Y26945000D02*
X56050000Y26945000D01*
X56050000Y27795000D01*
X56970000Y27795000D01*
X56970000Y26945000D01*
X58090000Y24845000D02*
X57170000Y24845000D01*
X57170000Y24845000D02*
X57170000Y25695000D01*
X57170000Y25695000D02*
X58090000Y25695000D01*
X58090000Y25695000D02*
X58090000Y24845000D01*
G36*
X58090000Y24845000D02*
G01*
X57170000Y24845000D01*
X57170000Y25695000D01*
X58090000Y25695000D01*
X58090000Y24845000D01*
G37*
X58090000Y24845000D02*
X57170000Y24845000D01*
X57170000Y25695000D01*
X58090000Y25695000D01*
X58090000Y24845000D01*
G04 #@! TD*
D11*
G04 #@! TO.C,U1*
X57820000Y28470000D03*
D12*
X58720000Y28070000D03*
X58720000Y27570000D03*
X58720000Y27070000D03*
X58720000Y26570000D03*
X58720000Y26070000D03*
X58720000Y25570000D03*
X58720000Y25070000D03*
X58720000Y24570000D03*
D11*
X57820000Y24170000D03*
X56320000Y24170000D03*
D12*
X55420000Y24570000D03*
X55420000Y25070000D03*
X55420000Y25570000D03*
X55420000Y26070000D03*
X55420000Y26570000D03*
X55420000Y27070000D03*
X55420000Y27570000D03*
X55420000Y28070000D03*
D11*
X56320000Y28470000D03*
D13*
X57340000Y24360000D03*
D14*
X57070000Y24580000D03*
D13*
X56790000Y28275000D03*
D14*
X57070000Y28040000D03*
D13*
X57340000Y28275000D03*
X56790000Y24360000D03*
G04 #@! TD*
D15*
G04 #@! TO.C,C1*
X58255000Y21210000D03*
X56705000Y21210000D03*
G04 #@! TD*
D16*
G04 #@! TO.C,C2*
X57520000Y22320000D03*
X56560000Y22320000D03*
G04 #@! TD*
D17*
G04 #@! TO.C,C3*
X56600000Y30610000D03*
X56600000Y29650000D03*
G04 #@! TD*
D18*
G04 #@! TO.C,C4*
X58680000Y29650000D03*
X58680000Y30610000D03*
G04 #@! TD*
G04 #@! TO.C,C5*
X54140000Y29650000D03*
X54140000Y30610000D03*
G04 #@! TD*
D16*
G04 #@! TO.C,C6*
X57520000Y23240000D03*
X56560000Y23240000D03*
G04 #@! TD*
D19*
G04 #@! TO.C,C39*
X59580000Y25060000D03*
X60540000Y25060000D03*
G04 #@! TD*
D20*
G04 #@! TO.C,C40*
X53895000Y23250000D03*
X55445000Y23250000D03*
G04 #@! TD*
G04 #@! TO.C,C41*
X53905000Y22230000D03*
X55455000Y22230000D03*
G04 #@! TD*
D21*
G04 #@! TO.C,L1*
X61620000Y19070000D03*
X61620000Y23170000D03*
G04 #@! TD*
D22*
G04 #@! TO.C,R1*
X54140000Y27710000D03*
X54140000Y28730000D03*
G04 #@! TD*
G04 #@! TO.C,R2*
X55420000Y29620000D03*
X55420000Y30640000D03*
G04 #@! TD*
D23*
G04 #@! TO.C,R7*
X59550000Y27570000D03*
X60570000Y27570000D03*
G04 #@! TD*
D24*
G04 #@! TO.C,R8*
X54140000Y26940000D03*
X54140000Y25920000D03*
G04 #@! TD*
D22*
G04 #@! TO.C,R34*
X57560000Y29620000D03*
X57560000Y30640000D03*
G04 #@! TD*
D25*
G04 #@! TO.C,J1*
X59420000Y16605000D03*
X58920000Y16605000D03*
X58420000Y16605000D03*
X57920000Y16605000D03*
X57420000Y16605000D03*
X56920000Y16605000D03*
X56420000Y16605000D03*
X55920000Y16605000D03*
X55420000Y16605000D03*
X54920000Y16605000D03*
X54420000Y16605000D03*
X53920000Y16605000D03*
X53420000Y16605000D03*
X52920000Y16605000D03*
D26*
X51020000Y13355000D03*
X61320000Y13355000D03*
G04 #@! TD*
D20*
G04 #@! TO.C,C42*
X53905000Y21210000D03*
X55455000Y21210000D03*
G04 #@! TD*
G04 #@! TO.C,C7*
X42095000Y28630000D03*
X43645000Y28630000D03*
G04 #@! TD*
G04 #@! TO.C,C8*
X32085000Y27620000D03*
X33635000Y27620000D03*
G04 #@! TD*
D17*
G04 #@! TO.C,C9*
X51070000Y25960000D03*
X51070000Y25000000D03*
G04 #@! TD*
D18*
G04 #@! TO.C,C10*
X20090000Y28660000D03*
X20090000Y29620000D03*
G04 #@! TD*
D17*
G04 #@! TO.C,C11*
X16340000Y29620000D03*
X16340000Y28660000D03*
G04 #@! TD*
D15*
G04 #@! TO.C,C12*
X15345000Y25720001D03*
X13795000Y25720001D03*
G04 #@! TD*
G04 #@! TO.C,C13*
X15330000Y24690000D03*
X13780000Y24690000D03*
G04 #@! TD*
D20*
G04 #@! TO.C,C14*
X22065000Y28640000D03*
X23615000Y28640000D03*
G04 #@! TD*
G04 #@! TO.C,C15*
X32084999Y28639999D03*
X33634999Y28639999D03*
G04 #@! TD*
D27*
G04 #@! TO.C,C16*
X52230000Y25985000D03*
X52230000Y24435000D03*
G04 #@! TD*
D20*
G04 #@! TO.C,C17*
X42095000Y27610000D03*
X43645000Y27610000D03*
G04 #@! TD*
D19*
G04 #@! TO.C,C18*
X22230000Y26630000D03*
X23190000Y26630000D03*
G04 #@! TD*
G04 #@! TO.C,C19*
X32210000Y26650000D03*
X33170000Y26650000D03*
G04 #@! TD*
D18*
G04 #@! TO.C,C20*
X30119999Y28660000D03*
X30119999Y29620000D03*
G04 #@! TD*
G04 #@! TO.C,C21*
X40100000Y28660000D03*
X40100000Y29620000D03*
G04 #@! TD*
D17*
G04 #@! TO.C,C22*
X26350000Y29620000D03*
X26350000Y28660000D03*
G04 #@! TD*
G04 #@! TO.C,C23*
X36320000Y29620000D03*
X36320000Y28660000D03*
G04 #@! TD*
D15*
G04 #@! TO.C,C24*
X25355000Y24700000D03*
X23805000Y24700000D03*
G04 #@! TD*
G04 #@! TO.C,C25*
X35315000Y25720001D03*
X33765000Y25720001D03*
G04 #@! TD*
G04 #@! TO.C,C26*
X25355000Y25720001D03*
X23805000Y25720001D03*
G04 #@! TD*
G04 #@! TO.C,C27*
X35315000Y24700000D03*
X33765000Y24700000D03*
G04 #@! TD*
D28*
G04 #@! TO.C,C28*
X52230000Y28245000D03*
X52230000Y29795000D03*
G04 #@! TD*
D20*
G04 #@! TO.C,C29*
X22065000Y27620000D03*
X23615000Y27620000D03*
G04 #@! TD*
D19*
G04 #@! TO.C,C30*
X42260000Y26650000D03*
X43220000Y26650000D03*
G04 #@! TD*
D18*
G04 #@! TO.C,C31*
X50100000Y28670000D03*
X50100000Y29630000D03*
G04 #@! TD*
D17*
G04 #@! TO.C,C32*
X46280000Y29620000D03*
X46280000Y28660000D03*
G04 #@! TD*
D15*
G04 #@! TO.C,C33*
X45315000Y24700000D03*
X43765000Y24700000D03*
G04 #@! TD*
G04 #@! TO.C,C34*
X45315000Y25720001D03*
X43765000Y25720001D03*
G04 #@! TD*
D29*
G04 #@! TO.C,L2*
X19920000Y21200000D03*
X15820000Y21200000D03*
G04 #@! TD*
G04 #@! TO.C,L3*
X29860000Y21200000D03*
X25760000Y21200000D03*
G04 #@! TD*
G04 #@! TO.C,L4*
X39820000Y21200000D03*
X35720000Y21200000D03*
G04 #@! TD*
G04 #@! TO.C,L5*
X49830000Y21200000D03*
X45730000Y21200000D03*
G04 #@! TD*
D24*
G04 #@! TO.C,R3*
X18280000Y29650000D03*
X18280000Y28630000D03*
G04 #@! TD*
D22*
G04 #@! TO.C,R4*
X19220000Y28630000D03*
X19220000Y29650000D03*
G04 #@! TD*
G04 #@! TO.C,R5*
X21020000Y26800000D03*
X21020000Y27820000D03*
G04 #@! TD*
D24*
G04 #@! TO.C,R6*
X17360000Y29650000D03*
X17360000Y28630000D03*
G04 #@! TD*
D22*
G04 #@! TO.C,R9*
X15330000Y26770000D03*
X15330000Y27790000D03*
G04 #@! TD*
G04 #@! TO.C,R10*
X15330000Y28630000D03*
X15330000Y29650000D03*
G04 #@! TD*
D24*
G04 #@! TO.C,R11*
X28250000Y29650000D03*
X28250000Y28630000D03*
G04 #@! TD*
D22*
G04 #@! TO.C,R12*
X29239999Y28630000D03*
X29239999Y29650000D03*
G04 #@! TD*
D24*
G04 #@! TO.C,R13*
X38240000Y29650000D03*
X38240000Y28630000D03*
G04 #@! TD*
D22*
G04 #@! TO.C,R14*
X39230000Y28630000D03*
X39230000Y29650000D03*
G04 #@! TD*
G04 #@! TO.C,R15*
X31010000Y26800000D03*
X31010000Y27820000D03*
G04 #@! TD*
G04 #@! TO.C,R16*
X41060000Y26800000D03*
X41060000Y27820000D03*
G04 #@! TD*
D24*
G04 #@! TO.C,R17*
X27350001Y29650000D03*
X27350001Y28630000D03*
G04 #@! TD*
G04 #@! TO.C,R18*
X37320000Y29650000D03*
X37320000Y28630000D03*
G04 #@! TD*
D22*
G04 #@! TO.C,R19*
X25349999Y26770000D03*
X25349999Y27790000D03*
G04 #@! TD*
G04 #@! TO.C,R20*
X25350000Y28630000D03*
X25350000Y29650000D03*
G04 #@! TD*
G04 #@! TO.C,R21*
X35280000Y26770000D03*
X35280000Y27790000D03*
G04 #@! TD*
G04 #@! TO.C,R22*
X35280000Y28630000D03*
X35280000Y29650000D03*
G04 #@! TD*
D24*
G04 #@! TO.C,R23*
X48250000Y29650000D03*
X48250000Y28630000D03*
G04 #@! TD*
D22*
G04 #@! TO.C,R24*
X49220000Y28640000D03*
X49220000Y29660000D03*
G04 #@! TD*
G04 #@! TO.C,R25*
X51080000Y26800000D03*
X51080000Y27820000D03*
G04 #@! TD*
D24*
G04 #@! TO.C,R26*
X47310000Y29650000D03*
X47310000Y28630000D03*
G04 #@! TD*
D22*
G04 #@! TO.C,R27*
X45300000Y26770000D03*
X45300000Y27790000D03*
G04 #@! TD*
G04 #@! TO.C,R28*
X45300000Y28630000D03*
X45300000Y29650000D03*
G04 #@! TD*
D30*
G04 #@! TO.C,U2*
X16885000Y25540000D03*
X16885000Y26040000D03*
X16885000Y26540000D03*
D31*
X17360000Y27390000D03*
X17860000Y27390000D03*
X18360000Y27390000D03*
D30*
X18835000Y26540000D03*
X18190000Y26040000D03*
X18430000Y26040000D03*
X18835000Y26040000D03*
D32*
X17860000Y26040000D03*
D30*
X18835000Y25540000D03*
D31*
X18360000Y24690000D03*
D33*
X18240000Y24720000D03*
D34*
X17990000Y24730000D03*
D35*
X17730000Y24730000D03*
D34*
X17490000Y24730000D03*
D36*
X17860000Y24940000D03*
D31*
X17860000Y24690000D03*
X17360000Y24690000D03*
G04 #@! TD*
D30*
G04 #@! TO.C,U3*
X26805000Y25529999D03*
X26805000Y26029999D03*
X26805000Y26529999D03*
D31*
X27280000Y27379999D03*
X27780000Y27379999D03*
X28280000Y27379999D03*
D30*
X28755000Y26529999D03*
X28350000Y26029999D03*
D32*
X27780000Y26029999D03*
D30*
X28110000Y26029999D03*
X28755000Y26029999D03*
X28755000Y25529999D03*
D34*
X27910000Y24719999D03*
X27410000Y24719999D03*
D35*
X27650000Y24719999D03*
D31*
X28280000Y24679999D03*
D33*
X28160000Y24709999D03*
D36*
X27780000Y24929999D03*
D31*
X27780000Y24679999D03*
X27280000Y24679999D03*
G04 #@! TD*
D30*
G04 #@! TO.C,U4*
X36795000Y25529999D03*
X36795000Y26029999D03*
X36795000Y26529999D03*
D31*
X37270000Y27379999D03*
X37770000Y27379999D03*
X38270000Y27379999D03*
D30*
X38745000Y26529999D03*
X38340000Y26029999D03*
X38100000Y26029999D03*
D32*
X37770000Y26029999D03*
D30*
X38745000Y26029999D03*
X38745000Y25529999D03*
D34*
X37400000Y24719999D03*
D36*
X37770000Y24929999D03*
D34*
X37900000Y24719999D03*
D31*
X38270000Y24679999D03*
D35*
X37640000Y24719999D03*
D33*
X38150000Y24709999D03*
D31*
X37770000Y24679999D03*
X37270000Y24679999D03*
G04 #@! TD*
D30*
G04 #@! TO.C,U5*
X46895000Y25529999D03*
X46895000Y26029999D03*
X46895000Y26529999D03*
D31*
X47370000Y27379999D03*
X47870000Y27379999D03*
X48370000Y27379999D03*
D30*
X48845000Y26529999D03*
X48200000Y26029999D03*
D32*
X47870000Y26029999D03*
D30*
X48845000Y26029999D03*
X48440000Y26029999D03*
X48845000Y25529999D03*
D36*
X47870000Y24929999D03*
D31*
X48370000Y24679999D03*
D34*
X47500000Y24719999D03*
D33*
X48250000Y24709999D03*
D34*
X48000000Y24719999D03*
D35*
X47740000Y24719999D03*
D31*
X47870000Y24679999D03*
X47370000Y24679999D03*
G04 #@! TD*
D37*
G04 #@! TO.C,D1*
X21020000Y29625000D03*
X21020000Y28655000D03*
G04 #@! TD*
G04 #@! TO.C,D2*
X31010000Y29605000D03*
X31010000Y28635000D03*
G04 #@! TD*
G04 #@! TO.C,D3*
X41060000Y29625000D03*
X41060000Y28655000D03*
G04 #@! TD*
G04 #@! TO.C,D4*
X51080000Y29635000D03*
X51080000Y28665000D03*
G04 #@! TD*
D38*
G04 #@! TO.C,J2*
X58640000Y32810000D03*
G04 #@! TD*
D39*
G04 #@! TO.C,J3*
X64920000Y16860000D03*
G04 #@! TD*
D38*
G04 #@! TO.C,J4*
X44933334Y32810000D03*
G04 #@! TD*
D39*
G04 #@! TO.C,J6*
X64920000Y26220000D03*
G04 #@! TD*
G04 #@! TO.C,J7*
X11190000Y16860000D03*
G04 #@! TD*
D38*
G04 #@! TO.C,J8*
X31226668Y32810000D03*
G04 #@! TD*
G04 #@! TO.C,J9*
X44933334Y11090000D03*
G04 #@! TD*
D39*
G04 #@! TO.C,J10*
X11190000Y26530000D03*
G04 #@! TD*
D38*
G04 #@! TO.C,J11*
X17520000Y32810000D03*
G04 #@! TD*
M02*
