%TF.GenerationSoftware,KiCad,Pcbnew,(6.0.0)*%
%TF.CreationDate,2022-04-01T15:34:28+08:00*%
%TF.ProjectId,LinkCharge40_Receiver,4c696e6b-4368-4617-9267-6534305f5265,rev?*%
%TF.SameCoordinates,Original*%
%TF.FileFunction,Copper,L4,Bot*%
%TF.FilePolarity,Positive*%
%FSLAX46Y46*%
G04 Gerber Fmt 4.6, Leading zero omitted, Abs format (unit mm)*
G04 Created by KiCad (PCBNEW (6.0.0)) date 2022-04-01 15:34:28*
%MOMM*%
%LPD*%
G01*
G04 APERTURE LIST*
G04 Aperture macros list*
%AMRoundRect*
0 Rectangle with rounded corners*
0 $1 Rounding radius*
0 $2 $3 $4 $5 $6 $7 $8 $9 X,Y pos of 4 corners*
0 Add a 4 corners polygon primitive as box body*
4,1,4,$2,$3,$4,$5,$6,$7,$8,$9,$2,$3,0*
0 Add four circle primitives for the rounded corners*
1,1,$1+$1,$2,$3*
1,1,$1+$1,$4,$5*
1,1,$1+$1,$6,$7*
1,1,$1+$1,$8,$9*
0 Add four rect primitives between the rounded corners*
20,1,$1+$1,$2,$3,$4,$5,0*
20,1,$1+$1,$4,$5,$6,$7,0*
20,1,$1+$1,$6,$7,$8,$9,0*
20,1,$1+$1,$8,$9,$2,$3,0*%
G04 Aperture macros list end*
%TA.AperFunction,ComponentPad*%
%ADD10R,1.350000X1.350000*%
%TD*%
%TA.AperFunction,ComponentPad*%
%ADD11O,1.350000X1.350000*%
%TD*%
%TA.AperFunction,ComponentPad*%
%ADD12C,0.700000*%
%TD*%
%TA.AperFunction,ComponentPad*%
%ADD13C,4.400000*%
%TD*%
%TA.AperFunction,ComponentPad*%
%ADD14C,3.200000*%
%TD*%
%TA.AperFunction,ComponentPad*%
%ADD15RoundRect,0.352940X-1.447060X1.447060X-1.447060X-1.447060X1.447060X-1.447060X1.447060X1.447060X0*%
%TD*%
%TA.AperFunction,ComponentPad*%
%ADD16C,3.600000*%
%TD*%
%TA.AperFunction,ViaPad*%
%ADD17C,0.450000*%
%TD*%
G04 APERTURE END LIST*
D10*
%TO.P,J3,1,Pin_1*%
%TO.N,+3V3*%
X139700000Y-71175000D03*
D11*
%TO.P,J3,2,Pin_2*%
%TO.N,Net-(J3-Pad2)*%
X141700000Y-71175000D03*
%TO.P,J3,3,Pin_3*%
%TO.N,Net-(J3-Pad3)*%
X143700000Y-71175000D03*
%TO.P,J3,4,Pin_4*%
%TO.N,GND*%
X145700000Y-71175000D03*
%TD*%
D12*
%TO.P,H3,1,Pin_1*%
%TO.N,unconnected-(H3-Pad1)*%
X111800000Y-116850000D03*
X111800000Y-120150000D03*
X112966726Y-119666726D03*
X110633274Y-117333274D03*
D13*
X111800000Y-118500000D03*
D12*
X110633274Y-119666726D03*
X112966726Y-117333274D03*
X110150000Y-118500000D03*
X113450000Y-118500000D03*
%TD*%
D10*
%TO.P,J6,1,Pin_1*%
%TO.N,Net-(J6-Pad1)*%
X114200000Y-76800000D03*
D11*
%TO.P,J6,2,Pin_2*%
%TO.N,+5V*%
X112200000Y-76800000D03*
%TD*%
D12*
%TO.P,H1,1,Pin_1*%
%TO.N,unconnected-(H1-Pad1)*%
X157633274Y-72666726D03*
X158800000Y-69850000D03*
X157633274Y-70333274D03*
D13*
X158800000Y-71500000D03*
D12*
X159966726Y-70333274D03*
X157150000Y-71500000D03*
X158800000Y-73150000D03*
X159966726Y-72666726D03*
X160450000Y-71500000D03*
%TD*%
%TO.P,H2,1,Pin_1*%
%TO.N,unconnected-(H2-Pad1)*%
X157533274Y-119666726D03*
X158700000Y-120150000D03*
X160350000Y-118500000D03*
X159866726Y-117333274D03*
X157050000Y-118500000D03*
D13*
X158700000Y-118500000D03*
D12*
X157533274Y-117333274D03*
X159866726Y-119666726D03*
X158700000Y-116850000D03*
%TD*%
D14*
%TO.P,J5,1,Pin_1*%
%TO.N,COIL-*%
X132800000Y-117300000D03*
%TO.P,J5,2,Pin_2*%
%TO.N,VAC1*%
X137800000Y-117300000D03*
%TD*%
D10*
%TO.P,J7,1,Pin_1*%
%TO.N,Net-(J6-Pad1)*%
X114200000Y-81456977D03*
D11*
%TO.P,J7,2,Pin_2*%
%TO.N,+5V*%
X112200000Y-81456977D03*
%TD*%
D15*
%TO.P,J4,1,Pin_1*%
%TO.N,GND*%
X156120000Y-98630000D03*
D16*
%TO.P,J4,2,Pin_2*%
X156120000Y-103430000D03*
%TO.P,J4,3,Pin_3*%
%TO.N,VDC*%
X156120000Y-108230000D03*
%TO.P,J4,4,Pin_4*%
X156120000Y-113030000D03*
%TD*%
D10*
%TO.P,J2,1,Pin_1*%
%TO.N,+3V3*%
X148725000Y-71175000D03*
D11*
%TO.P,J2,2,Pin_2*%
%TO.N,Net-(J2-Pad2)*%
X150725000Y-71175000D03*
%TO.P,J2,3,Pin_3*%
%TO.N,Net-(J2-Pad3)*%
X152725000Y-71175000D03*
%TO.P,J2,4,Pin_4*%
%TO.N,GND*%
X154725000Y-71175000D03*
%TD*%
D10*
%TO.P,J1,1,Pin_1*%
%TO.N,GND*%
X159130000Y-86900000D03*
D11*
%TO.P,J1,2,Pin_2*%
%TO.N,TEMP*%
X159130000Y-84900000D03*
%TD*%
D12*
%TO.P,H4,1,Pin_1*%
%TO.N,unconnected-(H4-Pad1)*%
X110633274Y-72666726D03*
D13*
X111800000Y-71500000D03*
D12*
X110633274Y-70333274D03*
X110150000Y-71500000D03*
X113450000Y-71500000D03*
X112966726Y-72666726D03*
X111800000Y-69850000D03*
X111800000Y-73150000D03*
X112966726Y-70333274D03*
%TD*%
D17*
%TO.N,GND*%
X109510000Y-113740000D03*
X148975000Y-79125000D03*
X136660000Y-69190000D03*
X109510000Y-90740000D03*
X138000000Y-84000000D03*
X109510000Y-86740000D03*
X132500000Y-91600000D03*
X109510000Y-108740000D03*
X109510000Y-109740000D03*
X116660000Y-69190000D03*
X147660000Y-69190000D03*
X161110000Y-79740000D03*
X123100000Y-110610000D03*
X126160000Y-111130000D03*
X143325000Y-118850000D03*
X116225000Y-118850000D03*
X161110000Y-105740000D03*
X134000000Y-74000000D03*
X161110000Y-111740000D03*
X148175000Y-77525000D03*
X151105000Y-86735000D03*
X122660000Y-69190000D03*
X127877500Y-82447500D03*
X161110000Y-115740000D03*
X129820000Y-111060000D03*
X161110000Y-85740000D03*
X132220000Y-111060000D03*
X125660000Y-69190000D03*
X161110000Y-77740000D03*
X153660000Y-69190000D03*
X128660000Y-69190000D03*
X161110000Y-94740000D03*
X145775000Y-95059998D03*
X151660000Y-69190000D03*
X161110000Y-96740000D03*
X130277500Y-82447500D03*
X127877500Y-81647500D03*
X143265000Y-89439998D03*
X128677500Y-81647501D03*
X109510000Y-112740000D03*
X122700000Y-72700000D03*
X161110000Y-78740000D03*
X109510000Y-107740000D03*
X119300000Y-76900000D03*
X109510000Y-98740000D03*
X138000000Y-85000000D03*
X133000000Y-73000000D03*
X147895000Y-86735000D03*
X109510000Y-83740000D03*
X118225000Y-118850000D03*
X147895000Y-85155000D03*
X137660000Y-69190000D03*
X109510000Y-81740000D03*
X161110000Y-102740000D03*
X137000000Y-73000000D03*
X161110000Y-76740000D03*
X109510000Y-104740000D03*
X133660000Y-69190000D03*
X136000000Y-73000000D03*
X138660000Y-69190000D03*
X109510000Y-79740000D03*
X119800000Y-77420000D03*
X115000000Y-89330000D03*
X122500000Y-92100000D03*
X131620000Y-111060000D03*
X139000000Y-84000000D03*
X109510000Y-73740000D03*
X109510000Y-99740000D03*
X126640000Y-111540000D03*
X130277500Y-80847500D03*
X147375000Y-79125000D03*
X154660000Y-69190000D03*
X122170000Y-110610000D03*
X122650000Y-110200000D03*
X130420000Y-111060000D03*
X148975000Y-78325000D03*
X136000000Y-74000000D03*
X124800000Y-81770000D03*
X147375000Y-78325000D03*
X161110000Y-82740000D03*
X122170000Y-109790000D03*
X129477500Y-80047500D03*
X129477500Y-82447501D03*
X139570000Y-119840000D03*
X113660000Y-69190000D03*
X124225000Y-118850000D03*
X131070000Y-119840000D03*
X152325000Y-118850000D03*
X123660000Y-69190000D03*
X149775000Y-77525000D03*
X109510000Y-94740000D03*
X119570000Y-85930000D03*
X140660000Y-69190000D03*
X128677500Y-80847500D03*
X117512436Y-94770742D03*
X116532436Y-94770742D03*
X156660000Y-69190000D03*
X138095000Y-95530000D03*
X129740000Y-84770000D03*
X127877500Y-80047500D03*
X119800000Y-76370000D03*
X123100000Y-109790000D03*
X147375000Y-79925000D03*
X161110000Y-114740000D03*
X131020000Y-111060000D03*
X109510000Y-110740000D03*
X135000000Y-73000000D03*
X118800000Y-77420000D03*
X117025000Y-94275000D03*
X142825000Y-97075000D03*
X109510000Y-75740000D03*
X148975000Y-77525000D03*
X109510000Y-101740000D03*
X161110000Y-101740000D03*
X155325000Y-118850000D03*
X155080000Y-82370000D03*
X150660000Y-69190000D03*
X109510000Y-80740000D03*
X161110000Y-116740000D03*
X161110000Y-113740000D03*
X139660000Y-69190000D03*
X121200000Y-100900000D03*
X109510000Y-84740000D03*
X161110000Y-74740000D03*
X143725000Y-97050000D03*
X120660000Y-69190000D03*
X116532436Y-93800742D03*
X134170000Y-119840000D03*
X141660000Y-69190000D03*
X146325000Y-118850000D03*
X123225000Y-118850000D03*
X161110000Y-99740000D03*
X161110000Y-112740000D03*
X109510000Y-76740000D03*
X143660000Y-69190000D03*
X109510000Y-102740000D03*
X153325000Y-118850000D03*
X109510000Y-93740000D03*
X117225000Y-118850000D03*
X127090000Y-111130000D03*
X109510000Y-87740000D03*
X109510000Y-92740000D03*
X146660000Y-69190000D03*
X161110000Y-90740000D03*
X161110000Y-88740000D03*
X161110000Y-87740000D03*
X134660000Y-69190000D03*
X149775000Y-78325000D03*
X109510000Y-88740000D03*
X120225000Y-118850000D03*
X141325000Y-118850000D03*
X149775000Y-79925000D03*
X130277500Y-80047500D03*
X109510000Y-85740000D03*
X161110000Y-106740000D03*
X127225000Y-118850000D03*
X142325000Y-118850000D03*
X150325000Y-118850000D03*
X161110000Y-73740000D03*
X151105000Y-85145000D03*
X132170000Y-119840000D03*
X109510000Y-114740000D03*
X118800000Y-76370000D03*
X161110000Y-97740000D03*
X130660000Y-69190000D03*
X149660000Y-69190000D03*
X109510000Y-74740000D03*
X161110000Y-92740000D03*
X138570000Y-119840000D03*
X148660000Y-69190000D03*
X124660000Y-69190000D03*
X161110000Y-100740000D03*
X129225000Y-118850000D03*
X161110000Y-84740000D03*
X145275000Y-95579998D03*
X126225000Y-118850000D03*
X119500000Y-100900000D03*
X109510000Y-97740000D03*
X128677500Y-80047500D03*
X161110000Y-98740000D03*
X136370000Y-119840000D03*
X145325000Y-118850000D03*
X129477500Y-80847500D03*
X161110000Y-86740000D03*
X144660000Y-69190000D03*
X145660000Y-69190000D03*
X109510000Y-106740000D03*
X147325000Y-118850000D03*
X161110000Y-108740000D03*
X145275000Y-94529998D03*
X148175000Y-78325000D03*
X114660000Y-69190000D03*
X122500000Y-92900000D03*
X109510000Y-103740000D03*
X149775000Y-79125000D03*
X148175000Y-79125000D03*
X161110000Y-109740000D03*
X130700000Y-91600000D03*
X109510000Y-82740000D03*
X134000000Y-73000000D03*
X161110000Y-110740000D03*
X161110000Y-89740000D03*
X133000000Y-74000000D03*
X127090000Y-111950000D03*
X139000000Y-85000000D03*
X109510000Y-89740000D03*
X127877500Y-80847500D03*
X131660000Y-69190000D03*
X130277500Y-81647501D03*
X161110000Y-107740000D03*
X146275000Y-94529998D03*
X151325000Y-118850000D03*
X128677500Y-82447500D03*
X147375000Y-77525000D03*
X154325000Y-118850000D03*
X122225000Y-118850000D03*
X161110000Y-104740000D03*
X129477500Y-81647500D03*
X109510000Y-77740000D03*
X126660000Y-69190000D03*
X138095000Y-94823750D03*
X144325000Y-118850000D03*
X132660000Y-69190000D03*
X118660000Y-69190000D03*
X117660000Y-69190000D03*
X135660000Y-69190000D03*
X146845000Y-85155000D03*
X109510000Y-105740000D03*
X148175000Y-79925000D03*
X137000000Y-74000000D03*
X109510000Y-95740000D03*
X140270000Y-119140000D03*
X155660000Y-69190000D03*
X152660000Y-69190000D03*
X129660000Y-69190000D03*
X109510000Y-115740000D03*
X148975000Y-79925000D03*
X117522436Y-93800741D03*
X115660000Y-69190000D03*
X135270000Y-119840000D03*
X127660000Y-69190000D03*
X147540000Y-92320000D03*
X119840000Y-91790000D03*
X109510000Y-116740000D03*
X161110000Y-83740000D03*
X119500000Y-98100000D03*
X109510000Y-100740000D03*
X161110000Y-75740000D03*
X146275000Y-95579998D03*
X145860000Y-76330000D03*
X130370000Y-119140000D03*
X142660000Y-69190000D03*
X109510000Y-91740000D03*
X161110000Y-103740000D03*
X161110000Y-81740000D03*
X126160000Y-111950000D03*
X145815000Y-85155000D03*
X138095000Y-96236250D03*
X161110000Y-93740000D03*
X161110000Y-95740000D03*
X161110000Y-80740000D03*
X125225000Y-118850000D03*
X137470000Y-119840000D03*
X119830000Y-72040000D03*
X109510000Y-96740000D03*
X121225000Y-118850000D03*
X115225000Y-118850000D03*
X133170000Y-119840000D03*
X121660000Y-69190000D03*
X119225000Y-118850000D03*
X119660000Y-69190000D03*
X161110000Y-91740000D03*
X109510000Y-111740000D03*
X129247499Y-87730000D03*
X149325000Y-118850000D03*
X109510000Y-78740000D03*
X148770000Y-89410000D03*
X128225000Y-118850000D03*
X148325000Y-118850000D03*
X135000000Y-74000000D03*
X115180000Y-99770000D03*
%TO.N,COIL-*%
X152140000Y-88620000D03*
%TO.N,VDDA*%
X156800000Y-80670000D03*
X123270000Y-75060000D03*
X152720000Y-79590000D03*
%TO.N,Net-(C1-Pad1)*%
X114690000Y-94270000D03*
X119525000Y-94025000D03*
%TO.N,+5V*%
X129260000Y-85540000D03*
X116700000Y-72190000D03*
X120300000Y-79300000D03*
X117475000Y-85950000D03*
X147540000Y-98340000D03*
X130430000Y-77260000D03*
X118800000Y-79350000D03*
X117009258Y-99190742D03*
X146850000Y-98340000D03*
X144975000Y-92269997D03*
%TO.N,HT*%
X123121425Y-94115000D03*
X110462436Y-94460742D03*
X147765000Y-89439998D03*
X111022436Y-94460742D03*
X144465001Y-93539998D03*
X123121425Y-94640000D03*
X135290000Y-93380000D03*
%TO.N,VAC1*%
X126600000Y-106500000D03*
X127200000Y-106800000D03*
X126600000Y-107200000D03*
X126610000Y-90670000D03*
X127200000Y-107500000D03*
X127800000Y-107200000D03*
X126600000Y-105800000D03*
X127200000Y-106100000D03*
X127800000Y-105800000D03*
X127800000Y-107900000D03*
X127200000Y-105400000D03*
X111520000Y-115080000D03*
X127200000Y-108200000D03*
X126600000Y-107900000D03*
X127800000Y-106500000D03*
X126625000Y-103675000D03*
%TO.N,+3V3*%
X154475000Y-75285000D03*
X152220000Y-79140000D03*
X127280000Y-75020000D03*
X122710000Y-88060000D03*
%TO.N,ISENSE*%
X121520000Y-83560000D03*
X126000000Y-79100000D03*
X116650000Y-102740000D03*
%TO.N,Net-(C37-Pad2)*%
X133075000Y-87600000D03*
X124100000Y-103675000D03*
%TO.N,VACC_MID*%
X123170000Y-83570000D03*
X120350000Y-102730000D03*
%TO.N,Net-(R26-Pad2)*%
X128690000Y-90640000D03*
X127900000Y-110960000D03*
%TO.N,PWM1_L*%
X133330000Y-82640000D03*
X149380000Y-74430000D03*
%TO.N,PWM1_H*%
X133300000Y-80610000D03*
X150470000Y-73780000D03*
%TO.N,PWM2_L*%
X133290000Y-79720000D03*
X145040000Y-73570000D03*
%TO.N,PWM2_H*%
X144840000Y-75760000D03*
X133310000Y-81610000D03*
X128920000Y-77710000D03*
%TO.N,AC_I_2*%
X133310000Y-78540000D03*
X147100000Y-82480000D03*
%TO.N,VDC*%
X149860000Y-89430000D03*
X146780000Y-89430000D03*
X149050000Y-104170000D03*
%TO.N,Net-(R24-Pad2)*%
X127910000Y-102370000D03*
X127900000Y-90660000D03*
%TO.N,Net-(D3-Pad3)*%
X135710000Y-104030000D03*
X142360002Y-95839998D03*
X149150000Y-93339999D03*
X151425000Y-95739998D03*
%TO.N,Net-(J2-Pad2)*%
X152410000Y-76260000D03*
%TO.N,Net-(J3-Pad2)*%
X145190000Y-81120000D03*
%TO.N,Net-(J3-Pad3)*%
X146117500Y-81190000D03*
%TO.N,Net-(NCP15XW153J03RC1-Pad1)*%
X135090000Y-98930000D03*
X118300000Y-72400000D03*
%TO.N,EN_MOD*%
X112670000Y-105420000D03*
X148690000Y-74490000D03*
%TO.N,MIN_LD*%
X144490000Y-80440000D03*
X142680000Y-84150000D03*
%TO.N,Net-(Q5-Pad4)*%
X140305000Y-94549998D03*
X133570000Y-102510000D03*
%TO.N,Net-(Q6-Pad4)*%
X140280000Y-97649999D03*
X133555000Y-111050000D03*
%TO.N,Net-(R10-Pad2)*%
X130980000Y-89980000D03*
X125360000Y-102380000D03*
%TO.N,Net-(R12-Pad2)*%
X130060000Y-89320000D03*
X125350000Y-110970000D03*
%TO.N,AC_I_1*%
X128200000Y-77820000D03*
X149425000Y-82165000D03*
X132390000Y-75387500D03*
%TO.N,EN_GAIN*%
X142180000Y-79990000D03*
X125640000Y-81010000D03*
%TO.N,Net-(R49-Pad1)*%
X135420000Y-80050000D03*
X150430000Y-75280000D03*
%TO.N,Net-(R51-Pad1)*%
X147560000Y-75270000D03*
X135450000Y-82130000D03*
%TO.N,EN_LOAD*%
X148030000Y-74730000D03*
X148410000Y-95200000D03*
%TO.N,EN_DRV*%
X152610000Y-77030000D03*
X125610000Y-83520000D03*
%TD*%
%TA.AperFunction,Conductor*%
%TO.N,GND*%
G36*
X157783687Y-68800000D02*
G01*
X157870030Y-68819707D01*
X157939271Y-68874926D01*
X157977698Y-68954718D01*
X157977698Y-69043282D01*
X157939271Y-69123074D01*
X157870030Y-69178293D01*
X157856943Y-69184026D01*
X157739052Y-69230702D01*
X157739045Y-69230705D01*
X157733234Y-69233006D01*
X157457516Y-69384584D01*
X157452460Y-69388257D01*
X157452459Y-69388258D01*
X157208029Y-69565846D01*
X157208025Y-69565850D01*
X157202970Y-69569522D01*
X157198413Y-69573802D01*
X157198411Y-69573803D01*
X157180299Y-69590812D01*
X156973610Y-69784906D01*
X156969636Y-69789709D01*
X156969631Y-69789715D01*
X156921632Y-69847736D01*
X156773053Y-70027337D01*
X156604463Y-70292993D01*
X156601803Y-70298645D01*
X156601799Y-70298653D01*
X156482205Y-70552804D01*
X156470497Y-70577685D01*
X156468563Y-70583636D01*
X156468563Y-70583637D01*
X156394055Y-70812950D01*
X156373269Y-70876921D01*
X156372098Y-70883062D01*
X156372097Y-70883064D01*
X156317463Y-71169469D01*
X156314312Y-71185985D01*
X156294556Y-71500000D01*
X156314312Y-71814015D01*
X156315483Y-71820155D01*
X156315484Y-71820161D01*
X156366756Y-72088936D01*
X156373269Y-72123079D01*
X156375200Y-72129022D01*
X156375201Y-72129026D01*
X156463246Y-72400000D01*
X156470497Y-72422315D01*
X156473158Y-72427970D01*
X156473160Y-72427975D01*
X156601799Y-72701347D01*
X156601803Y-72701355D01*
X156604463Y-72707007D01*
X156773053Y-72972663D01*
X156777036Y-72977477D01*
X156777037Y-72977479D01*
X156969631Y-73210285D01*
X156969636Y-73210291D01*
X156973610Y-73215094D01*
X156978158Y-73219365D01*
X156978160Y-73219367D01*
X157192629Y-73420767D01*
X157202970Y-73430478D01*
X157208025Y-73434150D01*
X157208029Y-73434154D01*
X157452459Y-73611742D01*
X157457516Y-73615416D01*
X157733234Y-73766994D01*
X158025775Y-73882819D01*
X158092554Y-73899965D01*
X158324465Y-73959510D01*
X158324472Y-73959511D01*
X158330527Y-73961066D01*
X158642682Y-74000500D01*
X158957318Y-74000500D01*
X159269473Y-73961066D01*
X159275528Y-73959511D01*
X159275535Y-73959510D01*
X159507446Y-73899965D01*
X159574225Y-73882819D01*
X159866766Y-73766994D01*
X160142484Y-73615416D01*
X160147541Y-73611742D01*
X160391971Y-73434154D01*
X160391975Y-73434150D01*
X160397030Y-73430478D01*
X160407371Y-73420767D01*
X160621840Y-73219367D01*
X160621842Y-73219365D01*
X160626390Y-73215094D01*
X160630364Y-73210291D01*
X160630369Y-73210285D01*
X160822963Y-72977479D01*
X160822964Y-72977477D01*
X160826947Y-72972663D01*
X160995537Y-72707007D01*
X160998197Y-72701355D01*
X160998201Y-72701347D01*
X161109246Y-72465364D01*
X161120939Y-72440513D01*
X161175534Y-72370780D01*
X161254979Y-72331639D01*
X161343538Y-72330844D01*
X161423673Y-72368552D01*
X161479511Y-72437295D01*
X161500000Y-72525244D01*
X161500000Y-117769289D01*
X161480293Y-117855632D01*
X161425074Y-117924873D01*
X161345282Y-117963300D01*
X161256718Y-117963300D01*
X161176926Y-117924873D01*
X161121707Y-117855632D01*
X161111740Y-117830783D01*
X161031439Y-117583641D01*
X161031435Y-117583630D01*
X161029503Y-117577685D01*
X161020941Y-117559490D01*
X160898201Y-117298653D01*
X160898197Y-117298645D01*
X160895537Y-117292993D01*
X160726947Y-117027337D01*
X160722963Y-117022521D01*
X160530369Y-116789715D01*
X160530364Y-116789709D01*
X160526390Y-116784906D01*
X160508838Y-116768423D01*
X160301589Y-116573803D01*
X160301587Y-116573802D01*
X160297030Y-116569522D01*
X160291975Y-116565850D01*
X160291971Y-116565846D01*
X160047541Y-116388258D01*
X160047540Y-116388257D01*
X160042484Y-116384584D01*
X159766766Y-116233006D01*
X159474225Y-116117181D01*
X159387784Y-116094987D01*
X159175535Y-116040490D01*
X159175528Y-116040489D01*
X159169473Y-116038934D01*
X158857318Y-115999500D01*
X158542682Y-115999500D01*
X158230527Y-116038934D01*
X158224472Y-116040489D01*
X158224465Y-116040490D01*
X158012216Y-116094987D01*
X157925775Y-116117181D01*
X157633234Y-116233006D01*
X157357516Y-116384584D01*
X157352460Y-116388257D01*
X157352459Y-116388258D01*
X157108029Y-116565846D01*
X157108025Y-116565850D01*
X157102970Y-116569522D01*
X157098413Y-116573802D01*
X157098411Y-116573803D01*
X156891163Y-116768423D01*
X156873610Y-116784906D01*
X156869636Y-116789709D01*
X156869631Y-116789715D01*
X156677037Y-117022521D01*
X156673053Y-117027337D01*
X156504463Y-117292993D01*
X156501803Y-117298645D01*
X156501799Y-117298653D01*
X156379059Y-117559490D01*
X156370497Y-117577685D01*
X156368563Y-117583636D01*
X156368563Y-117583637D01*
X156309013Y-117766914D01*
X156273269Y-117876921D01*
X156272098Y-117883062D01*
X156272097Y-117883064D01*
X156245505Y-118022467D01*
X156214312Y-118185985D01*
X156194556Y-118500000D01*
X156214312Y-118814015D01*
X156215483Y-118820155D01*
X156215484Y-118820161D01*
X156269020Y-119100806D01*
X156273269Y-119123079D01*
X156275200Y-119129021D01*
X156275201Y-119129026D01*
X156291039Y-119177769D01*
X156298978Y-119265976D01*
X156267859Y-119348892D01*
X156203846Y-119410095D01*
X156119618Y-119437463D01*
X156054732Y-119432623D01*
X156047333Y-119430823D01*
X156034280Y-119425615D01*
X156028007Y-119425000D01*
X156015151Y-119425000D01*
X156012154Y-119424888D01*
X155997760Y-119421223D01*
X155971952Y-119423806D01*
X155969904Y-119424011D01*
X155950086Y-119425000D01*
X140725185Y-119425000D01*
X140725185Y-119421881D01*
X140719547Y-119422100D01*
X140719584Y-119423077D01*
X140672094Y-119424860D01*
X140664628Y-119425000D01*
X140647095Y-119425000D01*
X140647095Y-119424617D01*
X140641645Y-119423891D01*
X140641724Y-119426000D01*
X140607904Y-119427270D01*
X140591025Y-119434522D01*
X140587021Y-119435424D01*
X140583193Y-119436901D01*
X140565130Y-119440265D01*
X140548767Y-119450352D01*
X140522893Y-119463792D01*
X140518134Y-119465837D01*
X140505220Y-119471385D01*
X140500350Y-119475386D01*
X140496904Y-119478832D01*
X140495733Y-119479894D01*
X140490987Y-119484414D01*
X140485634Y-119489267D01*
X140469993Y-119498909D01*
X140458871Y-119513535D01*
X140456459Y-119516707D01*
X140438769Y-119536967D01*
X139734022Y-120241714D01*
X139659034Y-120288833D01*
X139593308Y-120300000D01*
X131006692Y-120300000D01*
X130920349Y-120280293D01*
X130865978Y-120241714D01*
X130172617Y-119548353D01*
X130174823Y-119546147D01*
X130170682Y-119542316D01*
X130170016Y-119543034D01*
X130135152Y-119510692D01*
X130129801Y-119505537D01*
X130117400Y-119493136D01*
X130117673Y-119492863D01*
X130114333Y-119488496D01*
X130112895Y-119490046D01*
X130101557Y-119479528D01*
X130101556Y-119479527D01*
X130088083Y-119467029D01*
X130071016Y-119460220D01*
X130067545Y-119458026D01*
X130063798Y-119456366D01*
X130048648Y-119445972D01*
X130029942Y-119441533D01*
X130002139Y-119432741D01*
X129984280Y-119425615D01*
X129978007Y-119425000D01*
X129973141Y-119425000D01*
X129971576Y-119424923D01*
X129964993Y-119424762D01*
X129957782Y-119424409D01*
X129939909Y-119420168D01*
X129917754Y-119423183D01*
X129890920Y-119425000D01*
X114485150Y-119425000D01*
X114477069Y-119424836D01*
X114471680Y-119424617D01*
X114434328Y-119423099D01*
X114423317Y-119426607D01*
X114339664Y-119419018D01*
X114263670Y-119373539D01*
X114214934Y-119299591D01*
X114203109Y-119211820D01*
X114212034Y-119168313D01*
X114226731Y-119123079D01*
X114230980Y-119100806D01*
X114284516Y-118820161D01*
X114284517Y-118820155D01*
X114285688Y-118814015D01*
X114305444Y-118500000D01*
X114285688Y-118185985D01*
X114254496Y-118022467D01*
X114227903Y-117883064D01*
X114227902Y-117883062D01*
X114226731Y-117876921D01*
X114190988Y-117766914D01*
X114131437Y-117583637D01*
X114131437Y-117583636D01*
X114129503Y-117577685D01*
X114120941Y-117559490D01*
X113998201Y-117298653D01*
X113998197Y-117298645D01*
X113995537Y-117292993D01*
X113962003Y-117240151D01*
X130895585Y-117240151D01*
X130895861Y-117247177D01*
X130895861Y-117247179D01*
X130897470Y-117288136D01*
X130906152Y-117509083D01*
X130907415Y-117516000D01*
X130907416Y-117516007D01*
X130953239Y-117766914D01*
X130953241Y-117766922D01*
X130954505Y-117773843D01*
X131039682Y-118029148D01*
X131042828Y-118035444D01*
X131156836Y-118263612D01*
X131156840Y-118263618D01*
X131159981Y-118269905D01*
X131313003Y-118491309D01*
X131317781Y-118496478D01*
X131317782Y-118496479D01*
X131339015Y-118519449D01*
X131495695Y-118688944D01*
X131704411Y-118858866D01*
X131710435Y-118862492D01*
X131710441Y-118862497D01*
X131915079Y-118985699D01*
X131934987Y-118997684D01*
X131941472Y-119000430D01*
X132176331Y-119099880D01*
X132176338Y-119099882D01*
X132182822Y-119102628D01*
X132236785Y-119116936D01*
X132436171Y-119169803D01*
X132436175Y-119169804D01*
X132442972Y-119171606D01*
X132634295Y-119194251D01*
X132703265Y-119202414D01*
X132703267Y-119202414D01*
X132710245Y-119203240D01*
X132844778Y-119200069D01*
X132972282Y-119197065D01*
X132972287Y-119197065D01*
X132979310Y-119196899D01*
X133021848Y-119189819D01*
X133237846Y-119153867D01*
X133237849Y-119153866D01*
X133244796Y-119152710D01*
X133251509Y-119150587D01*
X133251513Y-119150586D01*
X133494695Y-119073677D01*
X133494694Y-119073677D01*
X133501408Y-119071554D01*
X133540538Y-119052764D01*
X133737685Y-118958096D01*
X133737691Y-118958092D01*
X133744025Y-118955051D01*
X133967806Y-118805526D01*
X134168286Y-118625961D01*
X134172809Y-118620580D01*
X134172815Y-118620574D01*
X134336942Y-118425321D01*
X134336943Y-118425319D01*
X134341465Y-118419940D01*
X134345181Y-118413981D01*
X134345185Y-118413976D01*
X134480167Y-118197537D01*
X134480167Y-118197536D01*
X134483887Y-118191572D01*
X134552911Y-118035444D01*
X134589869Y-117951848D01*
X134589872Y-117951841D01*
X134592712Y-117945416D01*
X134594619Y-117938656D01*
X134594621Y-117938649D01*
X134663858Y-117693150D01*
X134665767Y-117686382D01*
X134701595Y-117419638D01*
X134705355Y-117300000D01*
X134686347Y-117031533D01*
X134629700Y-116768423D01*
X134536547Y-116515919D01*
X134504038Y-116455669D01*
X134412087Y-116285255D01*
X134412085Y-116285251D01*
X134408744Y-116279060D01*
X134248843Y-116062571D01*
X134060034Y-115870772D01*
X133846083Y-115707490D01*
X133796116Y-115679507D01*
X133617397Y-115579419D01*
X133617393Y-115579417D01*
X133611261Y-115575983D01*
X133360251Y-115478875D01*
X133098063Y-115418103D01*
X133091060Y-115417496D01*
X133091057Y-115417496D01*
X132994188Y-115409106D01*
X132829928Y-115394880D01*
X132822895Y-115395267D01*
X132822893Y-115395267D01*
X132568228Y-115409282D01*
X132561196Y-115409669D01*
X132297228Y-115462176D01*
X132043292Y-115551352D01*
X131804455Y-115675418D01*
X131585481Y-115831899D01*
X131580397Y-115836749D01*
X131580392Y-115836753D01*
X131477081Y-115935307D01*
X131390740Y-116017672D01*
X131386384Y-116023197D01*
X131386379Y-116023203D01*
X131228479Y-116223500D01*
X131224118Y-116229032D01*
X131088939Y-116461760D01*
X130987900Y-116711213D01*
X130923017Y-116972414D01*
X130895585Y-117240151D01*
X113962003Y-117240151D01*
X113826947Y-117027337D01*
X113822963Y-117022521D01*
X113630369Y-116789715D01*
X113630364Y-116789709D01*
X113626390Y-116784906D01*
X113608838Y-116768423D01*
X113401589Y-116573803D01*
X113401587Y-116573802D01*
X113397030Y-116569522D01*
X113391975Y-116565850D01*
X113391971Y-116565846D01*
X113147541Y-116388258D01*
X113147540Y-116388257D01*
X113142484Y-116384584D01*
X112866766Y-116233006D01*
X112574225Y-116117181D01*
X112487784Y-116094987D01*
X112275535Y-116040490D01*
X112275528Y-116040489D01*
X112269473Y-116038934D01*
X111957318Y-115999500D01*
X111642682Y-115999500D01*
X111330527Y-116038934D01*
X111324472Y-116040489D01*
X111324465Y-116040490D01*
X111112216Y-116094987D01*
X111025775Y-116117181D01*
X110733234Y-116233006D01*
X110457516Y-116384584D01*
X110452460Y-116388257D01*
X110452459Y-116388258D01*
X110208029Y-116565846D01*
X110208025Y-116565850D01*
X110202970Y-116569522D01*
X110198413Y-116573802D01*
X110198411Y-116573803D01*
X109991163Y-116768423D01*
X109973610Y-116784906D01*
X109969636Y-116789709D01*
X109969631Y-116789715D01*
X109777037Y-117022521D01*
X109773053Y-117027337D01*
X109604463Y-117292993D01*
X109601803Y-117298645D01*
X109601799Y-117298653D01*
X109479059Y-117559490D01*
X109424464Y-117629225D01*
X109345019Y-117668365D01*
X109256460Y-117669160D01*
X109176325Y-117631452D01*
X109120487Y-117562709D01*
X109099998Y-117474760D01*
X109099998Y-115080000D01*
X110989965Y-115080000D01*
X111008026Y-115217183D01*
X111060976Y-115345017D01*
X111145209Y-115454791D01*
X111254982Y-115539024D01*
X111267030Y-115544014D01*
X111267031Y-115544015D01*
X111279110Y-115549018D01*
X111382817Y-115591974D01*
X111520000Y-115610035D01*
X111657183Y-115591974D01*
X111760890Y-115549018D01*
X111772969Y-115544015D01*
X111772970Y-115544014D01*
X111785018Y-115539024D01*
X111894791Y-115454791D01*
X111979024Y-115345017D01*
X112031974Y-115217183D01*
X112050035Y-115080000D01*
X112031974Y-114942817D01*
X112020800Y-114915839D01*
X111984016Y-114827035D01*
X111979024Y-114814983D01*
X111894791Y-114705209D01*
X111785018Y-114620976D01*
X111772970Y-114615986D01*
X111772969Y-114615985D01*
X111721395Y-114594623D01*
X111657183Y-114568026D01*
X111520000Y-114549965D01*
X111382817Y-114568026D01*
X111370768Y-114573017D01*
X111370767Y-114573017D01*
X111318605Y-114594623D01*
X111254983Y-114620976D01*
X111145209Y-114705209D01*
X111060976Y-114814983D01*
X111055984Y-114827035D01*
X111019201Y-114915839D01*
X111008026Y-114942817D01*
X110989965Y-115080000D01*
X109099998Y-115080000D01*
X109099998Y-110970000D01*
X124819965Y-110970000D01*
X124838026Y-111107183D01*
X124843017Y-111119232D01*
X124843017Y-111119233D01*
X124861635Y-111164180D01*
X124890976Y-111235017D01*
X124975209Y-111344791D01*
X125084982Y-111429024D01*
X125097030Y-111434014D01*
X125097031Y-111434015D01*
X125131200Y-111448168D01*
X125212817Y-111481974D01*
X125350000Y-111500035D01*
X125487183Y-111481974D01*
X125568800Y-111448168D01*
X125602969Y-111434015D01*
X125602970Y-111434014D01*
X125615018Y-111429024D01*
X125724791Y-111344791D01*
X125809024Y-111235017D01*
X125838365Y-111164180D01*
X125856983Y-111119233D01*
X125856983Y-111119232D01*
X125861974Y-111107183D01*
X125880035Y-110970000D01*
X125878718Y-110960000D01*
X127369965Y-110960000D01*
X127388026Y-111097183D01*
X127440976Y-111225017D01*
X127525209Y-111334791D01*
X127634982Y-111419024D01*
X127647030Y-111424014D01*
X127647031Y-111424015D01*
X127668069Y-111432729D01*
X127762817Y-111471974D01*
X127900000Y-111490035D01*
X128037183Y-111471974D01*
X128131931Y-111432729D01*
X128152969Y-111424015D01*
X128152970Y-111424014D01*
X128165018Y-111419024D01*
X128274791Y-111334791D01*
X128359024Y-111225017D01*
X128411974Y-111097183D01*
X128418186Y-111050000D01*
X133024965Y-111050000D01*
X133043026Y-111187183D01*
X133095976Y-111315017D01*
X133180209Y-111424791D01*
X133289982Y-111509024D01*
X133302030Y-111514014D01*
X133302031Y-111514015D01*
X133336200Y-111528168D01*
X133417817Y-111561974D01*
X133555000Y-111580035D01*
X133692183Y-111561974D01*
X133773800Y-111528168D01*
X133807969Y-111514015D01*
X133807970Y-111514014D01*
X133820018Y-111509024D01*
X133929791Y-111424791D01*
X134014024Y-111315017D01*
X134066974Y-111187183D01*
X134085035Y-111050000D01*
X134066974Y-110912817D01*
X134014024Y-110784983D01*
X133929791Y-110675209D01*
X133820018Y-110590976D01*
X133807970Y-110585986D01*
X133807969Y-110585985D01*
X133773800Y-110571832D01*
X133692183Y-110538026D01*
X133555000Y-110519965D01*
X133417817Y-110538026D01*
X133405768Y-110543017D01*
X133405767Y-110543017D01*
X133323070Y-110577271D01*
X133289983Y-110590976D01*
X133180209Y-110675209D01*
X133095976Y-110784983D01*
X133043026Y-110912817D01*
X133024965Y-111050000D01*
X128418186Y-111050000D01*
X128430035Y-110960000D01*
X128411974Y-110822817D01*
X128359024Y-110694983D01*
X128274791Y-110585209D01*
X128165018Y-110500976D01*
X128152970Y-110495986D01*
X128152969Y-110495985D01*
X128118800Y-110481832D01*
X128037183Y-110448026D01*
X127900000Y-110429965D01*
X127762817Y-110448026D01*
X127750768Y-110453017D01*
X127750767Y-110453017D01*
X127726625Y-110463017D01*
X127634983Y-110500976D01*
X127525209Y-110585209D01*
X127440976Y-110694983D01*
X127388026Y-110822817D01*
X127369965Y-110960000D01*
X125878718Y-110960000D01*
X125861974Y-110832817D01*
X125809024Y-110704983D01*
X125724791Y-110595209D01*
X125615018Y-110510976D01*
X125602970Y-110505986D01*
X125602969Y-110505985D01*
X125568800Y-110491832D01*
X125487183Y-110458026D01*
X125350000Y-110439965D01*
X125212817Y-110458026D01*
X125200768Y-110463017D01*
X125200767Y-110463017D01*
X125121177Y-110495984D01*
X125084983Y-110510976D01*
X124975209Y-110595209D01*
X124890976Y-110704983D01*
X124838026Y-110832817D01*
X124819965Y-110970000D01*
X109099998Y-110970000D01*
X109099999Y-107793813D01*
X125700000Y-107793813D01*
X125700362Y-107808540D01*
X125700969Y-107820890D01*
X125702052Y-107835568D01*
X125719443Y-108012142D01*
X125723761Y-108041256D01*
X125728578Y-108065476D01*
X125735732Y-108094041D01*
X125785435Y-108257893D01*
X125786251Y-108260173D01*
X125791232Y-108274092D01*
X125795357Y-108285621D01*
X125804810Y-108308441D01*
X125817394Y-108335047D01*
X125898104Y-108486046D01*
X125913242Y-108511302D01*
X125926960Y-108531832D01*
X125944495Y-108555475D01*
X126053122Y-108687838D01*
X126072894Y-108709653D01*
X126090347Y-108727106D01*
X126112162Y-108746878D01*
X126114047Y-108748425D01*
X126114054Y-108748431D01*
X126192708Y-108812980D01*
X126244525Y-108855505D01*
X126268168Y-108873040D01*
X126288695Y-108886756D01*
X126313949Y-108901893D01*
X126316087Y-108903036D01*
X126316105Y-108903046D01*
X126406125Y-108951163D01*
X126406145Y-108951173D01*
X126406163Y-108951183D01*
X126406167Y-108951185D01*
X126464955Y-108982607D01*
X126491555Y-108995188D01*
X126493796Y-108996116D01*
X126493811Y-108996123D01*
X126512123Y-109003709D01*
X126512140Y-109003716D01*
X126514374Y-109004641D01*
X126542107Y-109014565D01*
X126544418Y-109015266D01*
X126544424Y-109015268D01*
X126595784Y-109030847D01*
X126705960Y-109064268D01*
X126720138Y-109067819D01*
X126732159Y-109070830D01*
X126732172Y-109070833D01*
X126734528Y-109071423D01*
X126736922Y-109071899D01*
X126736926Y-109071900D01*
X126742315Y-109072972D01*
X126758745Y-109076239D01*
X126761151Y-109076596D01*
X126761152Y-109076596D01*
X126785437Y-109080198D01*
X126785455Y-109080200D01*
X126787854Y-109080556D01*
X126790273Y-109080794D01*
X126790279Y-109080795D01*
X126963222Y-109097829D01*
X126963228Y-109097830D01*
X126964431Y-109097948D01*
X126968796Y-109098270D01*
X126977953Y-109098946D01*
X126977982Y-109098948D01*
X126979110Y-109099031D01*
X126980275Y-109099088D01*
X126980287Y-109099089D01*
X126990214Y-109099577D01*
X126990233Y-109099578D01*
X126991460Y-109099638D01*
X127006187Y-109100000D01*
X134293308Y-109100000D01*
X134379651Y-109119707D01*
X134434022Y-109158286D01*
X135441714Y-110165978D01*
X135488833Y-110240966D01*
X135500000Y-110306692D01*
X135500000Y-116593813D01*
X135500362Y-116608540D01*
X135500969Y-116620890D01*
X135502052Y-116635568D01*
X135519443Y-116812142D01*
X135523761Y-116841256D01*
X135528578Y-116865476D01*
X135535732Y-116894041D01*
X135585435Y-117057893D01*
X135595357Y-117085621D01*
X135604810Y-117108441D01*
X135617394Y-117135047D01*
X135698104Y-117286046D01*
X135713242Y-117311302D01*
X135726960Y-117331832D01*
X135744495Y-117355475D01*
X135853122Y-117487838D01*
X135872894Y-117509653D01*
X135873294Y-117510053D01*
X135918453Y-117585994D01*
X135924828Y-117611343D01*
X135954505Y-117773843D01*
X136039682Y-118029148D01*
X136042828Y-118035444D01*
X136156836Y-118263612D01*
X136156840Y-118263618D01*
X136159981Y-118269905D01*
X136313003Y-118491309D01*
X136317781Y-118496478D01*
X136317782Y-118496479D01*
X136339015Y-118519449D01*
X136495695Y-118688944D01*
X136704411Y-118858866D01*
X136710435Y-118862492D01*
X136710441Y-118862497D01*
X136915079Y-118985699D01*
X136934987Y-118997684D01*
X136941472Y-119000430D01*
X137176331Y-119099880D01*
X137176338Y-119099882D01*
X137182822Y-119102628D01*
X137236785Y-119116936D01*
X137436171Y-119169803D01*
X137436175Y-119169804D01*
X137442972Y-119171606D01*
X137634295Y-119194251D01*
X137703265Y-119202414D01*
X137703267Y-119202414D01*
X137710245Y-119203240D01*
X137844778Y-119200069D01*
X137972282Y-119197065D01*
X137972287Y-119197065D01*
X137979310Y-119196899D01*
X138021848Y-119189819D01*
X138237846Y-119153867D01*
X138237849Y-119153866D01*
X138244796Y-119152710D01*
X138251509Y-119150587D01*
X138251513Y-119150586D01*
X138494695Y-119073677D01*
X138494694Y-119073677D01*
X138501408Y-119071554D01*
X138540538Y-119052764D01*
X138737685Y-118958096D01*
X138737691Y-118958092D01*
X138744025Y-118955051D01*
X138967806Y-118805526D01*
X139168286Y-118625961D01*
X139172809Y-118620580D01*
X139172815Y-118620574D01*
X139336942Y-118425321D01*
X139336943Y-118425319D01*
X139341465Y-118419940D01*
X139345181Y-118413981D01*
X139345185Y-118413976D01*
X139480167Y-118197537D01*
X139480167Y-118197536D01*
X139483887Y-118191572D01*
X139552911Y-118035444D01*
X139589869Y-117951848D01*
X139589872Y-117951841D01*
X139592712Y-117945416D01*
X139594619Y-117938656D01*
X139594621Y-117938649D01*
X139663857Y-117693155D01*
X139663858Y-117693150D01*
X139665767Y-117686382D01*
X139673145Y-117631452D01*
X139674750Y-117619506D01*
X139705777Y-117536556D01*
X139727137Y-117509681D01*
X139727106Y-117509653D01*
X139727537Y-117509177D01*
X139746878Y-117487838D01*
X139855505Y-117355475D01*
X139873040Y-117331832D01*
X139886758Y-117311302D01*
X139901896Y-117286046D01*
X139982606Y-117135047D01*
X139995190Y-117108441D01*
X140004643Y-117085621D01*
X140014565Y-117057893D01*
X140064268Y-116894041D01*
X140071422Y-116865476D01*
X140076239Y-116841256D01*
X140080557Y-116812142D01*
X140097948Y-116635568D01*
X140099031Y-116620890D01*
X140099638Y-116608540D01*
X140100000Y-116593813D01*
X140100000Y-113007953D01*
X154014707Y-113007953D01*
X154031194Y-113293878D01*
X154086332Y-113574920D01*
X154088526Y-113581328D01*
X154088527Y-113581332D01*
X154110281Y-113644869D01*
X154179102Y-113845878D01*
X154307787Y-114101740D01*
X154470006Y-114337770D01*
X154474563Y-114342778D01*
X154658193Y-114544586D01*
X154658198Y-114544591D01*
X154662756Y-114549600D01*
X154667954Y-114553946D01*
X154667958Y-114553950D01*
X154848862Y-114705209D01*
X154882472Y-114733311D01*
X154888213Y-114736912D01*
X155119345Y-114881901D01*
X155119351Y-114881904D01*
X155125088Y-114885503D01*
X155131260Y-114888290D01*
X155131266Y-114888293D01*
X155225336Y-114930767D01*
X155386114Y-115003361D01*
X155660719Y-115084703D01*
X155819654Y-115109023D01*
X155937124Y-115126999D01*
X155937127Y-115126999D01*
X155943824Y-115128024D01*
X156230189Y-115132523D01*
X156236913Y-115131709D01*
X156236919Y-115131709D01*
X156414767Y-115110186D01*
X156514514Y-115098115D01*
X156791539Y-115025439D01*
X156840191Y-115005287D01*
X157049871Y-114918435D01*
X157049873Y-114918434D01*
X157056138Y-114915839D01*
X157061989Y-114912420D01*
X157061993Y-114912418D01*
X157297571Y-114774757D01*
X157303415Y-114771342D01*
X157528793Y-114594623D01*
X157728102Y-114388952D01*
X157897655Y-114158134D01*
X158034313Y-113906441D01*
X158054910Y-113851934D01*
X158133153Y-113644869D01*
X158133154Y-113644865D01*
X158135548Y-113638530D01*
X158199487Y-113359358D01*
X158224946Y-113074092D01*
X158225408Y-113030000D01*
X158205928Y-112744263D01*
X158147850Y-112463814D01*
X158140342Y-112442610D01*
X158054508Y-112200223D01*
X158054506Y-112200218D01*
X158052248Y-112193842D01*
X157920891Y-111939342D01*
X157911890Y-111926534D01*
X157760103Y-111710565D01*
X157756209Y-111705024D01*
X157751603Y-111700067D01*
X157751597Y-111700060D01*
X157565868Y-111500192D01*
X157565864Y-111500189D01*
X157561251Y-111495224D01*
X157554912Y-111490035D01*
X157458451Y-111411083D01*
X157339623Y-111313823D01*
X157095427Y-111164180D01*
X156833182Y-111049062D01*
X156557739Y-110970600D01*
X156274196Y-110930246D01*
X156133935Y-110929512D01*
X155994582Y-110928782D01*
X155994575Y-110928782D01*
X155987800Y-110928747D01*
X155703851Y-110966129D01*
X155697318Y-110967916D01*
X155697314Y-110967917D01*
X155434133Y-111039915D01*
X155434129Y-111039917D01*
X155427602Y-111041702D01*
X155421372Y-111044359D01*
X155421370Y-111044360D01*
X155403965Y-111051784D01*
X155164165Y-111154068D01*
X155158347Y-111157550D01*
X155158345Y-111157551D01*
X155028909Y-111235017D01*
X154918415Y-111301146D01*
X154694900Y-111480215D01*
X154497755Y-111687962D01*
X154330629Y-111920543D01*
X154196614Y-112173653D01*
X154098190Y-112442610D01*
X154037178Y-112722436D01*
X154036647Y-112729188D01*
X154036646Y-112729192D01*
X154015238Y-113001205D01*
X154014707Y-113007953D01*
X140100000Y-113007953D01*
X140100000Y-108207953D01*
X154014707Y-108207953D01*
X154031194Y-108493878D01*
X154086332Y-108774920D01*
X154088526Y-108781328D01*
X154088527Y-108781332D01*
X154114421Y-108856961D01*
X154179102Y-109045878D01*
X154307787Y-109301740D01*
X154470006Y-109537770D01*
X154474563Y-109542778D01*
X154658193Y-109744586D01*
X154658198Y-109744591D01*
X154662756Y-109749600D01*
X154667954Y-109753946D01*
X154667958Y-109753950D01*
X154877274Y-109928965D01*
X154882472Y-109933311D01*
X154888213Y-109936912D01*
X155119345Y-110081901D01*
X155119351Y-110081904D01*
X155125088Y-110085503D01*
X155131260Y-110088290D01*
X155131266Y-110088293D01*
X155296499Y-110162898D01*
X155386114Y-110203361D01*
X155660719Y-110284703D01*
X155804418Y-110306692D01*
X155937124Y-110326999D01*
X155937127Y-110326999D01*
X155943824Y-110328024D01*
X156230189Y-110332523D01*
X156236913Y-110331709D01*
X156236919Y-110331709D01*
X156443639Y-110306692D01*
X156514514Y-110298115D01*
X156791539Y-110225439D01*
X156840191Y-110205287D01*
X157049871Y-110118435D01*
X157049873Y-110118434D01*
X157056138Y-110115839D01*
X157061989Y-110112420D01*
X157061993Y-110112418D01*
X157297571Y-109974757D01*
X157303415Y-109971342D01*
X157528793Y-109794623D01*
X157728102Y-109588952D01*
X157897655Y-109358134D01*
X158034313Y-109106441D01*
X158036759Y-109099970D01*
X158133153Y-108844869D01*
X158133154Y-108844865D01*
X158135548Y-108838530D01*
X158199487Y-108559358D01*
X158201944Y-108531832D01*
X158224598Y-108277993D01*
X158224598Y-108277989D01*
X158224946Y-108274092D01*
X158225408Y-108230000D01*
X158205928Y-107944263D01*
X158147850Y-107663814D01*
X158140342Y-107642610D01*
X158054508Y-107400223D01*
X158054506Y-107400218D01*
X158052248Y-107393842D01*
X157920891Y-107139342D01*
X157911890Y-107126534D01*
X157760103Y-106910565D01*
X157756209Y-106905024D01*
X157751603Y-106900067D01*
X157751597Y-106900060D01*
X157565868Y-106700192D01*
X157565864Y-106700189D01*
X157561251Y-106695224D01*
X157339623Y-106513823D01*
X157095427Y-106364180D01*
X156833182Y-106249062D01*
X156557739Y-106170600D01*
X156274196Y-106130246D01*
X156133935Y-106129512D01*
X155994582Y-106128782D01*
X155994575Y-106128782D01*
X155987800Y-106128747D01*
X155703851Y-106166129D01*
X155697318Y-106167916D01*
X155697314Y-106167917D01*
X155434133Y-106239915D01*
X155434129Y-106239917D01*
X155427602Y-106241702D01*
X155421372Y-106244359D01*
X155421370Y-106244360D01*
X155403965Y-106251784D01*
X155164165Y-106354068D01*
X155158347Y-106357550D01*
X155158345Y-106357551D01*
X155151816Y-106361459D01*
X154918415Y-106501146D01*
X154694900Y-106680215D01*
X154497755Y-106887962D01*
X154330629Y-107120543D01*
X154196614Y-107373653D01*
X154098190Y-107642610D01*
X154037178Y-107922436D01*
X154036647Y-107929188D01*
X154036646Y-107929192D01*
X154025920Y-108065476D01*
X154014707Y-108207953D01*
X140100000Y-108207953D01*
X140100000Y-105806187D01*
X140099638Y-105791460D01*
X140099031Y-105779110D01*
X140097948Y-105764432D01*
X140080557Y-105587858D01*
X140076239Y-105558744D01*
X140071422Y-105534524D01*
X140064268Y-105505960D01*
X140014565Y-105342107D01*
X140004641Y-105314374D01*
X139995188Y-105291555D01*
X139982606Y-105264953D01*
X139901896Y-105113954D01*
X139886758Y-105088698D01*
X139873040Y-105068168D01*
X139855505Y-105044525D01*
X139793455Y-104968916D01*
X139748431Y-104914054D01*
X139748425Y-104914047D01*
X139746878Y-104912162D01*
X139727106Y-104890347D01*
X139709653Y-104872894D01*
X139687838Y-104853122D01*
X139555475Y-104744495D01*
X139531832Y-104726960D01*
X139511305Y-104713244D01*
X139486050Y-104698106D01*
X139335048Y-104617394D01*
X139325009Y-104612646D01*
X139310651Y-104605855D01*
X139310643Y-104605851D01*
X139308441Y-104604810D01*
X139294750Y-104599138D01*
X139287886Y-104596295D01*
X139287877Y-104596291D01*
X139285621Y-104595357D01*
X139283345Y-104594543D01*
X139283328Y-104594536D01*
X139260173Y-104586251D01*
X139257893Y-104585435D01*
X139094041Y-104535732D01*
X139091669Y-104535138D01*
X139091662Y-104535136D01*
X139067844Y-104529171D01*
X139067842Y-104529170D01*
X139065472Y-104528577D01*
X139041255Y-104523761D01*
X139038848Y-104523404D01*
X139014563Y-104519802D01*
X139014545Y-104519800D01*
X139012146Y-104519444D01*
X139009727Y-104519206D01*
X139009721Y-104519205D01*
X138836778Y-104502171D01*
X138836772Y-104502170D01*
X138835569Y-104502052D01*
X138831204Y-104501730D01*
X138822047Y-104501054D01*
X138822018Y-104501052D01*
X138820890Y-104500969D01*
X138819725Y-104500912D01*
X138819713Y-104500911D01*
X138809786Y-104500423D01*
X138809767Y-104500422D01*
X138808540Y-104500362D01*
X138793813Y-104500000D01*
X136381941Y-104500000D01*
X136295598Y-104480293D01*
X136226357Y-104425074D01*
X136187930Y-104345282D01*
X136187930Y-104256718D01*
X136198089Y-104224847D01*
X136216983Y-104179232D01*
X136220807Y-104170000D01*
X148519965Y-104170000D01*
X148538026Y-104307183D01*
X148590976Y-104435017D01*
X148675209Y-104544791D01*
X148685554Y-104552729D01*
X148771334Y-104618551D01*
X148784982Y-104629024D01*
X148797030Y-104634014D01*
X148797031Y-104634015D01*
X148831200Y-104648168D01*
X148912817Y-104681974D01*
X149050000Y-104700035D01*
X149187183Y-104681974D01*
X149268800Y-104648168D01*
X149302969Y-104634015D01*
X149302970Y-104634014D01*
X149315018Y-104629024D01*
X149328667Y-104618551D01*
X149414446Y-104552729D01*
X149424791Y-104544791D01*
X149509024Y-104435017D01*
X149561974Y-104307183D01*
X149580035Y-104170000D01*
X149561974Y-104032817D01*
X149555450Y-104017065D01*
X149514016Y-103917035D01*
X149509024Y-103904983D01*
X149424791Y-103795209D01*
X149315018Y-103710976D01*
X149302970Y-103705986D01*
X149302969Y-103705985D01*
X149259391Y-103687935D01*
X149187183Y-103658026D01*
X149050000Y-103639965D01*
X148912817Y-103658026D01*
X148900768Y-103663017D01*
X148900767Y-103663017D01*
X148815518Y-103698328D01*
X148784983Y-103710976D01*
X148675209Y-103795209D01*
X148590976Y-103904983D01*
X148585984Y-103917035D01*
X148544551Y-104017065D01*
X148538026Y-104032817D01*
X148519965Y-104170000D01*
X136220807Y-104170000D01*
X136221974Y-104167183D01*
X136240035Y-104030000D01*
X136221974Y-103892817D01*
X136169024Y-103764983D01*
X136084791Y-103655209D01*
X135975018Y-103570976D01*
X135962970Y-103565986D01*
X135962969Y-103565985D01*
X135926182Y-103550748D01*
X135847183Y-103518026D01*
X135710000Y-103499965D01*
X135572817Y-103518026D01*
X135560768Y-103523017D01*
X135560767Y-103523017D01*
X135493818Y-103550748D01*
X135444983Y-103570976D01*
X135335209Y-103655209D01*
X135250976Y-103764983D01*
X135198026Y-103892817D01*
X135179965Y-104030000D01*
X135198026Y-104167183D01*
X135203017Y-104179232D01*
X135221911Y-104224847D01*
X135236746Y-104312159D01*
X135212228Y-104397261D01*
X135153214Y-104463297D01*
X135071392Y-104497188D01*
X135038059Y-104500000D01*
X127006187Y-104500000D01*
X127002130Y-104500100D01*
X126999920Y-104500154D01*
X126913119Y-104482574D01*
X126842542Y-104429074D01*
X126802167Y-104350249D01*
X126799991Y-104261712D01*
X126836445Y-104181000D01*
X126889408Y-104134277D01*
X126890018Y-104134024D01*
X126999791Y-104049791D01*
X127084024Y-103940017D01*
X127136974Y-103812183D01*
X127155035Y-103675000D01*
X127136974Y-103537817D01*
X127130844Y-103523016D01*
X127089016Y-103422035D01*
X127084024Y-103409983D01*
X126999791Y-103300209D01*
X126890018Y-103215976D01*
X126877970Y-103210986D01*
X126877969Y-103210985D01*
X126805777Y-103181083D01*
X126762183Y-103163026D01*
X126625000Y-103144965D01*
X126487817Y-103163026D01*
X126475768Y-103168017D01*
X126475767Y-103168017D01*
X126413002Y-103194015D01*
X126359983Y-103215976D01*
X126250209Y-103300209D01*
X126165976Y-103409983D01*
X126160984Y-103422035D01*
X126119157Y-103523016D01*
X126113026Y-103537817D01*
X126094965Y-103675000D01*
X126113026Y-103812183D01*
X126165976Y-103940017D01*
X126250209Y-104049791D01*
X126359982Y-104134024D01*
X126372030Y-104139014D01*
X126372031Y-104139015D01*
X126406200Y-104153168D01*
X126487817Y-104186974D01*
X126528180Y-104192288D01*
X126611212Y-104223096D01*
X126672654Y-104286880D01*
X126700336Y-104371006D01*
X126688776Y-104458812D01*
X126640263Y-104532906D01*
X126559973Y-104580016D01*
X126542107Y-104585435D01*
X126539827Y-104586251D01*
X126516672Y-104594536D01*
X126516655Y-104594543D01*
X126514379Y-104595357D01*
X126512123Y-104596291D01*
X126512114Y-104596295D01*
X126505250Y-104599138D01*
X126491559Y-104604810D01*
X126489357Y-104605851D01*
X126489349Y-104605855D01*
X126474991Y-104612646D01*
X126464952Y-104617394D01*
X126313950Y-104698106D01*
X126288695Y-104713244D01*
X126268168Y-104726960D01*
X126244525Y-104744495D01*
X126112162Y-104853122D01*
X126090347Y-104872894D01*
X126072894Y-104890347D01*
X126053122Y-104912162D01*
X126051575Y-104914047D01*
X126051569Y-104914054D01*
X126006545Y-104968916D01*
X125944495Y-105044525D01*
X125926960Y-105068168D01*
X125913242Y-105088698D01*
X125898104Y-105113954D01*
X125817394Y-105264953D01*
X125804812Y-105291555D01*
X125795359Y-105314374D01*
X125785435Y-105342107D01*
X125735732Y-105505960D01*
X125728578Y-105534524D01*
X125723761Y-105558744D01*
X125719443Y-105587858D01*
X125702052Y-105764432D01*
X125700969Y-105779110D01*
X125700362Y-105791460D01*
X125700000Y-105806187D01*
X125700000Y-107793813D01*
X109099999Y-107793813D01*
X109099999Y-106700192D01*
X109099999Y-105420000D01*
X112139965Y-105420000D01*
X112158026Y-105557183D01*
X112163017Y-105569232D01*
X112163017Y-105569233D01*
X112170732Y-105587858D01*
X112210976Y-105685017D01*
X112295209Y-105794791D01*
X112404982Y-105879024D01*
X112417030Y-105884014D01*
X112417031Y-105884015D01*
X112451200Y-105898168D01*
X112532817Y-105931974D01*
X112670000Y-105950035D01*
X112807183Y-105931974D01*
X112888800Y-105898168D01*
X112922969Y-105884015D01*
X112922970Y-105884014D01*
X112935018Y-105879024D01*
X113044791Y-105794791D01*
X113129024Y-105685017D01*
X113169268Y-105587858D01*
X113176983Y-105569233D01*
X113176983Y-105569232D01*
X113181974Y-105557183D01*
X113200035Y-105420000D01*
X113181974Y-105282817D01*
X113129024Y-105154983D01*
X113044791Y-105045209D01*
X112935018Y-104960976D01*
X112922970Y-104955986D01*
X112922969Y-104955985D01*
X112888800Y-104941832D01*
X112807183Y-104908026D01*
X112670000Y-104889965D01*
X112532817Y-104908026D01*
X112520768Y-104913017D01*
X112520767Y-104913017D01*
X112435518Y-104948328D01*
X112404983Y-104960976D01*
X112295209Y-105045209D01*
X112210976Y-105154983D01*
X112158026Y-105282817D01*
X112139965Y-105420000D01*
X109099999Y-105420000D01*
X109099999Y-103675000D01*
X123569965Y-103675000D01*
X123588026Y-103812183D01*
X123640976Y-103940017D01*
X123725209Y-104049791D01*
X123834982Y-104134024D01*
X123847030Y-104139014D01*
X123847031Y-104139015D01*
X123881200Y-104153168D01*
X123962817Y-104186974D01*
X124100000Y-104205035D01*
X124237183Y-104186974D01*
X124318800Y-104153168D01*
X124352969Y-104139015D01*
X124352970Y-104139014D01*
X124365018Y-104134024D01*
X124474791Y-104049791D01*
X124559024Y-103940017D01*
X124611974Y-103812183D01*
X124630035Y-103675000D01*
X124611974Y-103537817D01*
X124605844Y-103523016D01*
X124564016Y-103422035D01*
X124559024Y-103409983D01*
X124474791Y-103300209D01*
X124365018Y-103215976D01*
X124352970Y-103210986D01*
X124352969Y-103210985D01*
X124280777Y-103181083D01*
X124237183Y-103163026D01*
X124100000Y-103144965D01*
X123962817Y-103163026D01*
X123950768Y-103168017D01*
X123950767Y-103168017D01*
X123888002Y-103194015D01*
X123834983Y-103215976D01*
X123725209Y-103300209D01*
X123640976Y-103409983D01*
X123635984Y-103422035D01*
X123594157Y-103523016D01*
X123588026Y-103537817D01*
X123569965Y-103675000D01*
X109099999Y-103675000D01*
X109099999Y-102740000D01*
X116119965Y-102740000D01*
X116138026Y-102877183D01*
X116143017Y-102889232D01*
X116143017Y-102889233D01*
X116172778Y-102961083D01*
X116190976Y-103005017D01*
X116275209Y-103114791D01*
X116384982Y-103199024D01*
X116397030Y-103204014D01*
X116397031Y-103204015D01*
X116431200Y-103218168D01*
X116512817Y-103251974D01*
X116650000Y-103270035D01*
X116787183Y-103251974D01*
X116868800Y-103218168D01*
X116902969Y-103204015D01*
X116902970Y-103204014D01*
X116915018Y-103199024D01*
X117024791Y-103114791D01*
X117109024Y-103005017D01*
X117127222Y-102961083D01*
X117156983Y-102889233D01*
X117156983Y-102889232D01*
X117161974Y-102877183D01*
X117180035Y-102740000D01*
X117178718Y-102730000D01*
X119819965Y-102730000D01*
X119838026Y-102867183D01*
X119843017Y-102879232D01*
X119843017Y-102879233D01*
X119855070Y-102908332D01*
X119890976Y-102995017D01*
X119975209Y-103104791D01*
X119985554Y-103112729D01*
X120057606Y-103168017D01*
X120084982Y-103189024D01*
X120097030Y-103194014D01*
X120097031Y-103194015D01*
X120121174Y-103204015D01*
X120212817Y-103241974D01*
X120350000Y-103260035D01*
X120487183Y-103241974D01*
X120578826Y-103204015D01*
X120602969Y-103194015D01*
X120602970Y-103194014D01*
X120615018Y-103189024D01*
X120642395Y-103168017D01*
X120714446Y-103112729D01*
X120724791Y-103104791D01*
X120809024Y-102995017D01*
X120844930Y-102908332D01*
X120856983Y-102879233D01*
X120856983Y-102879232D01*
X120861974Y-102867183D01*
X120880035Y-102730000D01*
X120861974Y-102592817D01*
X120809024Y-102464983D01*
X120743814Y-102380000D01*
X124829965Y-102380000D01*
X124848026Y-102517183D01*
X124900976Y-102645017D01*
X124985209Y-102754791D01*
X125094982Y-102839024D01*
X125107030Y-102844014D01*
X125107031Y-102844015D01*
X125131746Y-102854252D01*
X125222817Y-102891974D01*
X125360000Y-102910035D01*
X125497183Y-102891974D01*
X125588254Y-102854252D01*
X125612969Y-102844015D01*
X125612970Y-102844014D01*
X125625018Y-102839024D01*
X125734791Y-102754791D01*
X125819024Y-102645017D01*
X125871974Y-102517183D01*
X125890035Y-102380000D01*
X125888718Y-102370000D01*
X127379965Y-102370000D01*
X127398026Y-102507183D01*
X127403017Y-102519232D01*
X127403017Y-102519233D01*
X127407159Y-102529233D01*
X127450976Y-102635017D01*
X127535209Y-102744791D01*
X127644982Y-102829024D01*
X127657030Y-102834014D01*
X127657031Y-102834015D01*
X127681174Y-102844015D01*
X127772817Y-102881974D01*
X127910000Y-102900035D01*
X128047183Y-102881974D01*
X128138826Y-102844015D01*
X128162969Y-102834015D01*
X128162970Y-102834014D01*
X128175018Y-102829024D01*
X128284791Y-102744791D01*
X128369024Y-102635017D01*
X128412841Y-102529233D01*
X128416983Y-102519233D01*
X128416983Y-102519232D01*
X128420807Y-102510000D01*
X133039965Y-102510000D01*
X133058026Y-102647183D01*
X133110976Y-102775017D01*
X133195209Y-102884791D01*
X133304982Y-102969024D01*
X133317030Y-102974014D01*
X133317031Y-102974015D01*
X133338639Y-102982965D01*
X133432817Y-103021974D01*
X133570000Y-103040035D01*
X133707183Y-103021974D01*
X133801361Y-102982965D01*
X133822969Y-102974015D01*
X133822970Y-102974014D01*
X133835018Y-102969024D01*
X133944791Y-102884791D01*
X134029024Y-102775017D01*
X134081974Y-102647183D01*
X134100035Y-102510000D01*
X134081974Y-102372817D01*
X134075450Y-102357065D01*
X134034016Y-102257035D01*
X134029024Y-102244983D01*
X133944791Y-102135209D01*
X133835018Y-102050976D01*
X133822970Y-102045986D01*
X133822969Y-102045985D01*
X133788800Y-102031832D01*
X133707183Y-101998026D01*
X133570000Y-101979965D01*
X133432817Y-101998026D01*
X133420768Y-102003017D01*
X133420767Y-102003017D01*
X133390500Y-102015554D01*
X133304983Y-102050976D01*
X133195209Y-102135209D01*
X133110976Y-102244983D01*
X133105984Y-102257035D01*
X133064551Y-102357065D01*
X133058026Y-102372817D01*
X133039965Y-102510000D01*
X128420807Y-102510000D01*
X128421974Y-102507183D01*
X128440035Y-102370000D01*
X128421974Y-102232817D01*
X128415848Y-102218026D01*
X128374016Y-102117035D01*
X128369024Y-102104983D01*
X128284791Y-101995209D01*
X128175018Y-101910976D01*
X128162970Y-101905986D01*
X128162969Y-101905985D01*
X128128800Y-101891832D01*
X128047183Y-101858026D01*
X127910000Y-101839965D01*
X127772817Y-101858026D01*
X127760768Y-101863017D01*
X127760767Y-101863017D01*
X127736625Y-101873017D01*
X127644983Y-101910976D01*
X127535209Y-101995209D01*
X127450976Y-102104983D01*
X127445984Y-102117035D01*
X127404153Y-102218026D01*
X127398026Y-102232817D01*
X127379965Y-102370000D01*
X125888718Y-102370000D01*
X125871974Y-102242817D01*
X125865848Y-102228026D01*
X125824016Y-102127035D01*
X125819024Y-102114983D01*
X125734791Y-102005209D01*
X125625018Y-101920976D01*
X125612970Y-101915986D01*
X125612969Y-101915985D01*
X125578800Y-101901832D01*
X125497183Y-101868026D01*
X125360000Y-101849965D01*
X125222817Y-101868026D01*
X125210768Y-101873017D01*
X125210767Y-101873017D01*
X125131177Y-101905984D01*
X125094983Y-101920976D01*
X124985209Y-102005209D01*
X124900976Y-102114983D01*
X124895984Y-102127035D01*
X124854153Y-102228026D01*
X124848026Y-102242817D01*
X124829965Y-102380000D01*
X120743814Y-102380000D01*
X120724791Y-102355209D01*
X120615018Y-102270976D01*
X120602970Y-102265986D01*
X120602969Y-102265985D01*
X120547035Y-102242817D01*
X120487183Y-102218026D01*
X120350000Y-102199965D01*
X120212817Y-102218026D01*
X120200768Y-102223017D01*
X120200767Y-102223017D01*
X120147736Y-102244983D01*
X120084983Y-102270976D01*
X119975209Y-102355209D01*
X119890976Y-102464983D01*
X119838026Y-102592817D01*
X119819965Y-102730000D01*
X117178718Y-102730000D01*
X117161974Y-102602817D01*
X117109024Y-102474983D01*
X117024791Y-102365209D01*
X116915018Y-102280976D01*
X116902970Y-102275986D01*
X116902969Y-102275985D01*
X116829968Y-102245748D01*
X116787183Y-102228026D01*
X116650000Y-102209965D01*
X116512817Y-102228026D01*
X116500768Y-102233017D01*
X116500767Y-102233017D01*
X116470032Y-102245748D01*
X116384983Y-102280976D01*
X116275209Y-102365209D01*
X116190976Y-102474983D01*
X116138026Y-102602817D01*
X116119965Y-102740000D01*
X109099999Y-102740000D01*
X109099999Y-99190742D01*
X116479223Y-99190742D01*
X116497284Y-99327925D01*
X116502275Y-99339974D01*
X116502275Y-99339975D01*
X116522592Y-99389024D01*
X116550234Y-99455759D01*
X116634467Y-99565533D01*
X116744240Y-99649766D01*
X116756288Y-99654756D01*
X116756289Y-99654757D01*
X116790458Y-99668910D01*
X116872075Y-99702716D01*
X117009258Y-99720777D01*
X117146441Y-99702716D01*
X117228058Y-99668910D01*
X117262227Y-99654757D01*
X117262228Y-99654756D01*
X117274276Y-99649766D01*
X117384049Y-99565533D01*
X117468282Y-99455759D01*
X117495924Y-99389024D01*
X117516241Y-99339975D01*
X117516241Y-99339974D01*
X117521232Y-99327925D01*
X117539293Y-99190742D01*
X117521232Y-99053559D01*
X117470053Y-98930000D01*
X134559965Y-98930000D01*
X134578026Y-99067183D01*
X134630976Y-99195017D01*
X134715209Y-99304791D01*
X134824982Y-99389024D01*
X134837030Y-99394014D01*
X134837031Y-99394015D01*
X134871200Y-99408168D01*
X134952817Y-99441974D01*
X135090000Y-99460035D01*
X135227183Y-99441974D01*
X135308800Y-99408168D01*
X135342969Y-99394015D01*
X135342970Y-99394014D01*
X135355018Y-99389024D01*
X135464791Y-99304791D01*
X135549024Y-99195017D01*
X135601974Y-99067183D01*
X135620035Y-98930000D01*
X135601974Y-98792817D01*
X135579956Y-98739659D01*
X135554016Y-98677035D01*
X135549024Y-98664983D01*
X135464791Y-98555209D01*
X135355018Y-98470976D01*
X135342970Y-98465986D01*
X135342969Y-98465985D01*
X135308800Y-98451832D01*
X135227183Y-98418026D01*
X135090000Y-98399965D01*
X134952817Y-98418026D01*
X134940768Y-98423017D01*
X134940767Y-98423017D01*
X134855518Y-98458328D01*
X134824983Y-98470976D01*
X134715209Y-98555209D01*
X134630976Y-98664983D01*
X134625984Y-98677035D01*
X134600045Y-98739659D01*
X134578026Y-98792817D01*
X134559965Y-98930000D01*
X117470053Y-98930000D01*
X117468282Y-98925725D01*
X117384049Y-98815951D01*
X117274276Y-98731718D01*
X117262228Y-98726728D01*
X117262227Y-98726727D01*
X117208434Y-98704446D01*
X117146441Y-98678768D01*
X117009258Y-98660707D01*
X116872075Y-98678768D01*
X116860026Y-98683759D01*
X116860025Y-98683759D01*
X116810082Y-98704446D01*
X116744241Y-98731718D01*
X116634467Y-98815951D01*
X116550234Y-98925725D01*
X116497284Y-99053559D01*
X116479223Y-99190742D01*
X109099999Y-99190742D01*
X109099999Y-98340000D01*
X146319965Y-98340000D01*
X146338026Y-98477183D01*
X146390976Y-98605017D01*
X146475209Y-98714791D01*
X146584982Y-98799024D01*
X146597030Y-98804014D01*
X146597031Y-98804015D01*
X146625848Y-98815951D01*
X146712817Y-98851974D01*
X146850000Y-98870035D01*
X146987183Y-98851974D01*
X147115018Y-98799024D01*
X147116224Y-98801936D01*
X147180116Y-98782223D01*
X147267691Y-98795417D01*
X147274647Y-98798767D01*
X147274982Y-98799024D01*
X147402817Y-98851974D01*
X147540000Y-98870035D01*
X147677183Y-98851974D01*
X147764152Y-98815951D01*
X147792969Y-98804015D01*
X147792970Y-98804014D01*
X147805018Y-98799024D01*
X147914791Y-98714791D01*
X147999024Y-98605017D01*
X148051974Y-98477183D01*
X148070035Y-98340000D01*
X148051974Y-98202817D01*
X147999024Y-98074983D01*
X147914791Y-97965209D01*
X147805018Y-97880976D01*
X147792970Y-97875986D01*
X147792969Y-97875985D01*
X147758800Y-97861832D01*
X147677183Y-97828026D01*
X147540000Y-97809965D01*
X147402817Y-97828026D01*
X147390768Y-97833017D01*
X147390767Y-97833017D01*
X147274983Y-97880976D01*
X147273779Y-97878068D01*
X147209846Y-97897780D01*
X147122274Y-97884568D01*
X147115360Y-97881239D01*
X147115018Y-97880976D01*
X146987183Y-97828026D01*
X146850000Y-97809965D01*
X146712817Y-97828026D01*
X146700768Y-97833017D01*
X146700767Y-97833017D01*
X146615518Y-97868328D01*
X146584983Y-97880976D01*
X146475209Y-97965209D01*
X146390976Y-98074983D01*
X146338026Y-98202817D01*
X146319965Y-98340000D01*
X109099999Y-98340000D01*
X109099999Y-97649999D01*
X139749965Y-97649999D01*
X139768026Y-97787182D01*
X139820976Y-97915016D01*
X139905209Y-98024790D01*
X140014982Y-98109023D01*
X140027030Y-98114013D01*
X140027031Y-98114014D01*
X140061200Y-98128167D01*
X140142817Y-98161973D01*
X140280000Y-98180034D01*
X140417183Y-98161973D01*
X140498800Y-98128167D01*
X140532969Y-98114014D01*
X140532970Y-98114013D01*
X140545018Y-98109023D01*
X140654791Y-98024790D01*
X140739024Y-97915016D01*
X140791974Y-97787182D01*
X140810035Y-97649999D01*
X140791974Y-97512816D01*
X140739024Y-97384982D01*
X140654791Y-97275208D01*
X140545018Y-97190975D01*
X140532970Y-97185985D01*
X140532969Y-97185984D01*
X140498800Y-97171831D01*
X140417183Y-97138025D01*
X140280000Y-97119964D01*
X140142817Y-97138025D01*
X140130768Y-97143016D01*
X140130767Y-97143016D01*
X140045518Y-97178327D01*
X140014983Y-97190975D01*
X139905209Y-97275208D01*
X139820976Y-97384982D01*
X139768026Y-97512816D01*
X139749965Y-97649999D01*
X109099999Y-97649999D01*
X109099999Y-95839998D01*
X141829967Y-95839998D01*
X141848028Y-95977181D01*
X141900978Y-96105015D01*
X141985211Y-96214789D01*
X142094984Y-96299022D01*
X142107032Y-96304012D01*
X142107033Y-96304013D01*
X142141202Y-96318166D01*
X142222819Y-96351972D01*
X142360002Y-96370033D01*
X142497185Y-96351972D01*
X142578802Y-96318166D01*
X142612971Y-96304013D01*
X142612972Y-96304012D01*
X142625020Y-96299022D01*
X142734793Y-96214789D01*
X142819026Y-96105015D01*
X142871976Y-95977181D01*
X142890037Y-95839998D01*
X142876871Y-95739998D01*
X150894965Y-95739998D01*
X150913026Y-95877181D01*
X150965976Y-96005015D01*
X151050209Y-96114789D01*
X151159982Y-96199022D01*
X151172030Y-96204012D01*
X151172031Y-96204013D01*
X151206200Y-96218166D01*
X151287817Y-96251972D01*
X151425000Y-96270033D01*
X151562183Y-96251972D01*
X151643800Y-96218166D01*
X151677969Y-96204013D01*
X151677970Y-96204012D01*
X151690018Y-96199022D01*
X151799791Y-96114789D01*
X151884024Y-96005015D01*
X151936974Y-95877181D01*
X151955035Y-95739998D01*
X151936974Y-95602815D01*
X151884024Y-95474981D01*
X151799791Y-95365207D01*
X151690018Y-95280974D01*
X151677970Y-95275984D01*
X151677969Y-95275983D01*
X151643800Y-95261830D01*
X151562183Y-95228024D01*
X151425000Y-95209963D01*
X151287817Y-95228024D01*
X151275768Y-95233015D01*
X151275767Y-95233015D01*
X151190518Y-95268326D01*
X151159983Y-95280974D01*
X151050209Y-95365207D01*
X150965976Y-95474981D01*
X150913026Y-95602815D01*
X150894965Y-95739998D01*
X142876871Y-95739998D01*
X142871976Y-95702815D01*
X142853838Y-95659024D01*
X142824018Y-95587033D01*
X142819026Y-95574981D01*
X142734793Y-95465207D01*
X142625020Y-95380974D01*
X142612972Y-95375984D01*
X142612971Y-95375983D01*
X142548389Y-95349233D01*
X142497185Y-95328024D01*
X142360002Y-95309963D01*
X142222819Y-95328024D01*
X142210770Y-95333015D01*
X142210769Y-95333015D01*
X142133050Y-95365207D01*
X142094985Y-95380974D01*
X141985211Y-95465207D01*
X141900978Y-95574981D01*
X141895986Y-95587033D01*
X141866167Y-95659024D01*
X141848028Y-95702815D01*
X141829967Y-95839998D01*
X109099999Y-95839998D01*
X109099999Y-95200000D01*
X147879965Y-95200000D01*
X147898026Y-95337183D01*
X147903017Y-95349232D01*
X147903017Y-95349233D01*
X147919453Y-95388914D01*
X147950976Y-95465017D01*
X148035209Y-95574791D01*
X148144982Y-95659024D01*
X148157030Y-95664014D01*
X148157031Y-95664015D01*
X148191200Y-95678168D01*
X148272817Y-95711974D01*
X148410000Y-95730035D01*
X148547183Y-95711974D01*
X148628800Y-95678168D01*
X148662969Y-95664015D01*
X148662970Y-95664014D01*
X148675018Y-95659024D01*
X148784791Y-95574791D01*
X148869024Y-95465017D01*
X148900547Y-95388914D01*
X148916983Y-95349233D01*
X148916983Y-95349232D01*
X148921974Y-95337183D01*
X148940035Y-95200000D01*
X148921974Y-95062817D01*
X148869024Y-94934983D01*
X148784791Y-94825209D01*
X148721944Y-94776984D01*
X148685367Y-94748917D01*
X148685366Y-94748916D01*
X148675018Y-94740976D01*
X148662970Y-94735986D01*
X148662969Y-94735985D01*
X148626991Y-94721083D01*
X148547183Y-94688026D01*
X148410000Y-94669965D01*
X148272817Y-94688026D01*
X148260768Y-94693017D01*
X148260767Y-94693017D01*
X148245765Y-94699231D01*
X148144983Y-94740976D01*
X148035209Y-94825209D01*
X147950976Y-94934983D01*
X147898026Y-95062817D01*
X147879965Y-95200000D01*
X109099999Y-95200000D01*
X109099999Y-94460742D01*
X109932401Y-94460742D01*
X109950462Y-94597925D01*
X109955453Y-94609974D01*
X109955453Y-94609975D01*
X109987078Y-94686324D01*
X110003412Y-94725759D01*
X110087645Y-94835533D01*
X110197418Y-94919766D01*
X110209466Y-94924756D01*
X110209467Y-94924757D01*
X110222775Y-94930269D01*
X110325253Y-94972716D01*
X110462436Y-94990777D01*
X110599619Y-94972716D01*
X110611661Y-94967728D01*
X110611669Y-94967726D01*
X110666282Y-94945104D01*
X110753594Y-94930269D01*
X110818590Y-94945104D01*
X110873203Y-94967726D01*
X110873211Y-94967728D01*
X110885253Y-94972716D01*
X111022436Y-94990777D01*
X111159619Y-94972716D01*
X111262097Y-94930269D01*
X111275405Y-94924757D01*
X111275406Y-94924756D01*
X111287454Y-94919766D01*
X111397227Y-94835533D01*
X111481460Y-94725759D01*
X111497794Y-94686324D01*
X111529419Y-94609975D01*
X111529419Y-94609974D01*
X111534410Y-94597925D01*
X111552471Y-94460742D01*
X111534410Y-94323559D01*
X111524803Y-94300364D01*
X111512226Y-94270000D01*
X114159965Y-94270000D01*
X114178026Y-94407183D01*
X114230976Y-94535017D01*
X114315209Y-94644791D01*
X114325554Y-94652729D01*
X114386156Y-94699231D01*
X114424982Y-94729024D01*
X114437030Y-94734014D01*
X114437031Y-94734015D01*
X114453837Y-94740976D01*
X114552817Y-94781974D01*
X114690000Y-94800035D01*
X114827183Y-94781974D01*
X114926163Y-94740976D01*
X114942969Y-94734015D01*
X114942970Y-94734014D01*
X114955018Y-94729024D01*
X114993845Y-94699231D01*
X115054446Y-94652729D01*
X115064791Y-94644791D01*
X115068467Y-94640000D01*
X122591390Y-94640000D01*
X122609451Y-94777183D01*
X122614442Y-94789232D01*
X122614442Y-94789233D01*
X122620129Y-94802963D01*
X122662401Y-94905017D01*
X122746634Y-95014791D01*
X122756979Y-95022729D01*
X122826074Y-95075748D01*
X122856407Y-95099024D01*
X122868455Y-95104014D01*
X122868456Y-95104015D01*
X122902625Y-95118168D01*
X122984242Y-95151974D01*
X123121425Y-95170035D01*
X123258608Y-95151974D01*
X123340225Y-95118168D01*
X123374394Y-95104015D01*
X123374395Y-95104014D01*
X123386443Y-95099024D01*
X123416777Y-95075748D01*
X123485871Y-95022729D01*
X123496216Y-95014791D01*
X123580449Y-94905017D01*
X123622721Y-94802963D01*
X123628408Y-94789233D01*
X123628408Y-94789232D01*
X123633399Y-94777183D01*
X123651460Y-94640000D01*
X123639611Y-94549998D01*
X139774965Y-94549998D01*
X139793026Y-94687181D01*
X139798017Y-94699230D01*
X139798017Y-94699231D01*
X139830223Y-94776984D01*
X139845976Y-94815015D01*
X139930209Y-94924789D01*
X139940554Y-94932727D01*
X140013986Y-94989074D01*
X140039982Y-95009022D01*
X140052030Y-95014012D01*
X140052031Y-95014013D01*
X140073074Y-95022729D01*
X140167817Y-95061972D01*
X140305000Y-95080033D01*
X140442183Y-95061972D01*
X140536926Y-95022729D01*
X140557969Y-95014013D01*
X140557970Y-95014012D01*
X140570018Y-95009022D01*
X140596015Y-94989074D01*
X140669446Y-94932727D01*
X140679791Y-94924789D01*
X140764024Y-94815015D01*
X140779777Y-94776984D01*
X140811983Y-94699231D01*
X140811983Y-94699230D01*
X140816974Y-94687181D01*
X140835035Y-94549998D01*
X140816974Y-94412815D01*
X140811580Y-94399791D01*
X140769016Y-94297033D01*
X140764024Y-94284981D01*
X140679791Y-94175207D01*
X140618186Y-94127935D01*
X140580367Y-94098915D01*
X140580366Y-94098914D01*
X140570018Y-94090974D01*
X140557970Y-94085984D01*
X140557969Y-94085983D01*
X140519461Y-94070033D01*
X140442183Y-94038024D01*
X140305000Y-94019963D01*
X140167817Y-94038024D01*
X140155768Y-94043015D01*
X140155767Y-94043015D01*
X140071274Y-94078013D01*
X140039983Y-94090974D01*
X139930209Y-94175207D01*
X139845976Y-94284981D01*
X139840984Y-94297033D01*
X139798421Y-94399791D01*
X139793026Y-94412815D01*
X139774965Y-94549998D01*
X123639611Y-94549998D01*
X123633399Y-94502817D01*
X123613035Y-94453653D01*
X123598201Y-94366341D01*
X123613035Y-94301347D01*
X123622720Y-94277965D01*
X123633399Y-94252183D01*
X123651460Y-94115000D01*
X123633399Y-93977817D01*
X123580449Y-93849983D01*
X123496216Y-93740209D01*
X123429781Y-93689231D01*
X123396792Y-93663917D01*
X123396791Y-93663916D01*
X123386443Y-93655976D01*
X123374395Y-93650986D01*
X123374394Y-93650985D01*
X123330888Y-93632965D01*
X123258608Y-93603026D01*
X123121425Y-93584965D01*
X122984242Y-93603026D01*
X122972193Y-93608017D01*
X122972192Y-93608017D01*
X122911962Y-93632965D01*
X122856408Y-93655976D01*
X122746634Y-93740209D01*
X122662401Y-93849983D01*
X122609451Y-93977817D01*
X122591390Y-94115000D01*
X122609451Y-94252183D01*
X122620130Y-94277965D01*
X122629815Y-94301347D01*
X122644649Y-94388659D01*
X122629815Y-94453653D01*
X122609451Y-94502817D01*
X122591390Y-94640000D01*
X115068467Y-94640000D01*
X115149024Y-94535017D01*
X115201974Y-94407183D01*
X115220035Y-94270000D01*
X115201974Y-94132817D01*
X115187932Y-94098915D01*
X115157315Y-94025000D01*
X118994965Y-94025000D01*
X119013026Y-94162183D01*
X119018017Y-94174232D01*
X119018017Y-94174233D01*
X119026919Y-94195725D01*
X119065976Y-94290017D01*
X119150209Y-94399791D01*
X119160554Y-94407729D01*
X119246498Y-94473677D01*
X119259982Y-94484024D01*
X119272030Y-94489014D01*
X119272031Y-94489015D01*
X119276271Y-94490771D01*
X119387817Y-94536974D01*
X119525000Y-94555035D01*
X119662183Y-94536974D01*
X119773729Y-94490771D01*
X119777969Y-94489015D01*
X119777970Y-94489014D01*
X119790018Y-94484024D01*
X119803503Y-94473677D01*
X119889446Y-94407729D01*
X119899791Y-94399791D01*
X119984024Y-94290017D01*
X120023081Y-94195725D01*
X120031983Y-94174233D01*
X120031983Y-94174232D01*
X120036974Y-94162183D01*
X120055035Y-94025000D01*
X120036974Y-93887817D01*
X120016764Y-93839024D01*
X119989016Y-93772035D01*
X119984024Y-93759983D01*
X119899791Y-93650209D01*
X119790018Y-93565976D01*
X119777970Y-93560986D01*
X119777969Y-93560985D01*
X119727300Y-93539998D01*
X119662183Y-93513026D01*
X119525000Y-93494965D01*
X119387817Y-93513026D01*
X119375768Y-93518017D01*
X119375767Y-93518017D01*
X119353928Y-93527063D01*
X119259983Y-93565976D01*
X119150209Y-93650209D01*
X119065976Y-93759983D01*
X119060984Y-93772035D01*
X119033237Y-93839024D01*
X119013026Y-93887817D01*
X118994965Y-94025000D01*
X115157315Y-94025000D01*
X115154016Y-94017035D01*
X115149024Y-94004983D01*
X115064791Y-93895209D01*
X114955018Y-93810976D01*
X114942970Y-93805986D01*
X114942969Y-93805985D01*
X114861004Y-93772035D01*
X114827183Y-93758026D01*
X114690000Y-93739965D01*
X114552817Y-93758026D01*
X114540768Y-93763017D01*
X114540767Y-93763017D01*
X114518996Y-93772035D01*
X114424983Y-93810976D01*
X114315209Y-93895209D01*
X114230976Y-94004983D01*
X114225984Y-94017035D01*
X114192069Y-94098915D01*
X114178026Y-94132817D01*
X114159965Y-94270000D01*
X111512226Y-94270000D01*
X111486452Y-94207777D01*
X111481460Y-94195725D01*
X111397227Y-94085951D01*
X111317795Y-94025000D01*
X111297803Y-94009659D01*
X111297802Y-94009658D01*
X111287454Y-94001718D01*
X111275406Y-93996728D01*
X111275405Y-93996727D01*
X111226284Y-93976381D01*
X111159619Y-93948768D01*
X111022436Y-93930707D01*
X110885253Y-93948768D01*
X110818589Y-93976381D01*
X110731277Y-93991215D01*
X110666284Y-93976381D01*
X110663003Y-93975022D01*
X110599619Y-93948768D01*
X110462436Y-93930707D01*
X110325253Y-93948768D01*
X110313204Y-93953759D01*
X110313203Y-93953759D01*
X110255122Y-93977817D01*
X110197419Y-94001718D01*
X110087645Y-94085951D01*
X110003412Y-94195725D01*
X109998420Y-94207777D01*
X109960070Y-94300364D01*
X109950462Y-94323559D01*
X109932401Y-94460742D01*
X109099999Y-94460742D01*
X109099999Y-93380000D01*
X134759965Y-93380000D01*
X134778026Y-93517183D01*
X134783017Y-93529232D01*
X134783017Y-93529233D01*
X134801525Y-93573916D01*
X134830976Y-93645017D01*
X134915209Y-93754791D01*
X134959575Y-93788834D01*
X134994146Y-93815362D01*
X135024982Y-93839024D01*
X135037030Y-93844014D01*
X135037031Y-93844015D01*
X135044197Y-93846983D01*
X135152817Y-93891974D01*
X135290000Y-93910035D01*
X135427183Y-93891974D01*
X135535803Y-93846983D01*
X135542969Y-93844015D01*
X135542970Y-93844014D01*
X135555018Y-93839024D01*
X135585855Y-93815362D01*
X135620425Y-93788834D01*
X135664791Y-93754791D01*
X135749024Y-93645017D01*
X135778475Y-93573916D01*
X135792524Y-93539998D01*
X143934966Y-93539998D01*
X143953027Y-93677181D01*
X143958018Y-93689230D01*
X143958018Y-93689231D01*
X143983419Y-93750554D01*
X144005977Y-93805015D01*
X144090210Y-93914789D01*
X144113174Y-93932410D01*
X144172349Y-93977817D01*
X144199983Y-93999022D01*
X144212031Y-94004012D01*
X144212032Y-94004013D01*
X144243471Y-94017035D01*
X144327818Y-94051972D01*
X144465001Y-94070033D01*
X144602184Y-94051972D01*
X144686531Y-94017035D01*
X144717970Y-94004013D01*
X144717971Y-94004012D01*
X144730019Y-93999022D01*
X144757654Y-93977817D01*
X144816828Y-93932410D01*
X144839792Y-93914789D01*
X144924025Y-93805015D01*
X144946583Y-93750554D01*
X144971984Y-93689231D01*
X144971984Y-93689230D01*
X144976975Y-93677181D01*
X144995036Y-93539998D01*
X144976975Y-93402815D01*
X144950956Y-93339999D01*
X148619965Y-93339999D01*
X148638026Y-93477182D01*
X148643017Y-93489231D01*
X148643017Y-93489232D01*
X148652168Y-93511324D01*
X148690976Y-93605016D01*
X148775209Y-93714790D01*
X148884982Y-93799023D01*
X148897030Y-93804013D01*
X148897031Y-93804014D01*
X148931200Y-93818167D01*
X149012817Y-93851973D01*
X149150000Y-93870034D01*
X149287183Y-93851973D01*
X149368800Y-93818167D01*
X149402969Y-93804014D01*
X149402970Y-93804013D01*
X149415018Y-93799023D01*
X149524791Y-93714790D01*
X149609024Y-93605016D01*
X149647832Y-93511324D01*
X149656983Y-93489232D01*
X149656983Y-93489231D01*
X149661974Y-93477182D01*
X149680035Y-93339999D01*
X149661974Y-93202816D01*
X149640538Y-93151063D01*
X149614016Y-93087034D01*
X149609024Y-93074982D01*
X149524791Y-92965208D01*
X149458287Y-92914177D01*
X149425367Y-92888916D01*
X149425366Y-92888915D01*
X149415018Y-92880975D01*
X149402970Y-92875985D01*
X149402969Y-92875984D01*
X149344263Y-92851668D01*
X149287183Y-92828025D01*
X149150000Y-92809964D01*
X149012817Y-92828025D01*
X149000768Y-92833016D01*
X149000767Y-92833016D01*
X148955737Y-92851668D01*
X148884983Y-92880975D01*
X148775209Y-92965208D01*
X148690976Y-93074982D01*
X148685984Y-93087034D01*
X148659463Y-93151063D01*
X148638026Y-93202816D01*
X148619965Y-93339999D01*
X144950956Y-93339999D01*
X144924025Y-93274981D01*
X144839792Y-93165207D01*
X144826525Y-93155027D01*
X144823241Y-93151063D01*
X144820223Y-93148045D01*
X144820506Y-93147762D01*
X144770024Y-93086832D01*
X144748705Y-93000873D01*
X144766794Y-92914177D01*
X144820707Y-92843915D01*
X144899767Y-92804003D01*
X144949025Y-92801229D01*
X144949025Y-92798329D01*
X144962065Y-92798329D01*
X144975000Y-92800032D01*
X145112183Y-92781971D01*
X145193800Y-92748165D01*
X145227969Y-92734012D01*
X145227970Y-92734011D01*
X145240018Y-92729021D01*
X145349791Y-92644788D01*
X145434024Y-92535014D01*
X145486974Y-92407180D01*
X145505035Y-92269997D01*
X145486974Y-92132814D01*
X145434024Y-92004980D01*
X145349791Y-91895206D01*
X145240018Y-91810973D01*
X145227970Y-91805983D01*
X145227969Y-91805982D01*
X145193800Y-91791829D01*
X145112183Y-91758023D01*
X144975000Y-91739962D01*
X144837817Y-91758023D01*
X144825768Y-91763014D01*
X144825767Y-91763014D01*
X144740518Y-91798325D01*
X144709983Y-91810973D01*
X144600209Y-91895206D01*
X144515976Y-92004980D01*
X144463026Y-92132814D01*
X144444965Y-92269997D01*
X144463026Y-92407180D01*
X144515976Y-92535014D01*
X144600209Y-92644788D01*
X144613476Y-92654968D01*
X144616760Y-92658932D01*
X144619778Y-92661950D01*
X144619495Y-92662233D01*
X144669977Y-92723163D01*
X144691296Y-92809122D01*
X144673207Y-92895818D01*
X144619294Y-92966080D01*
X144540234Y-93005992D01*
X144490976Y-93008766D01*
X144490976Y-93011666D01*
X144477936Y-93011666D01*
X144465001Y-93009963D01*
X144327818Y-93028024D01*
X144315769Y-93033015D01*
X144315768Y-93033015D01*
X144239430Y-93064635D01*
X144199984Y-93080974D01*
X144090210Y-93165207D01*
X144005977Y-93274981D01*
X143953027Y-93402815D01*
X143934966Y-93539998D01*
X135792524Y-93539998D01*
X135796983Y-93529233D01*
X135796983Y-93529232D01*
X135801974Y-93517183D01*
X135820035Y-93380000D01*
X135801974Y-93242817D01*
X135790762Y-93215747D01*
X135754016Y-93127035D01*
X135749024Y-93114983D01*
X135664791Y-93005209D01*
X135555018Y-92920976D01*
X135542970Y-92915986D01*
X135542969Y-92915985D01*
X135494280Y-92895818D01*
X135427183Y-92868026D01*
X135290000Y-92849965D01*
X135152817Y-92868026D01*
X135140768Y-92873017D01*
X135140767Y-92873017D01*
X135085720Y-92895818D01*
X135024983Y-92920976D01*
X134915209Y-93005209D01*
X134830976Y-93114983D01*
X134825984Y-93127035D01*
X134789239Y-93215747D01*
X134778026Y-93242817D01*
X134759965Y-93380000D01*
X109099999Y-93380000D01*
X109099999Y-90670000D01*
X126079965Y-90670000D01*
X126098026Y-90807183D01*
X126150976Y-90935017D01*
X126235209Y-91044791D01*
X126344982Y-91129024D01*
X126357030Y-91134014D01*
X126357031Y-91134015D01*
X126388342Y-91146984D01*
X126472817Y-91181974D01*
X126610000Y-91200035D01*
X126747183Y-91181974D01*
X126831658Y-91146984D01*
X126862969Y-91134015D01*
X126862970Y-91134014D01*
X126875018Y-91129024D01*
X126984791Y-91044791D01*
X127069024Y-90935017D01*
X127074016Y-90922965D01*
X127080536Y-90911672D01*
X127081998Y-90912516D01*
X127124466Y-90852661D01*
X127201978Y-90809820D01*
X127290402Y-90804853D01*
X127372224Y-90838744D01*
X127428803Y-90902054D01*
X127429464Y-90901672D01*
X127435984Y-90912965D01*
X127440976Y-90925017D01*
X127525209Y-91034791D01*
X127634982Y-91119024D01*
X127647030Y-91124014D01*
X127647031Y-91124015D01*
X127671174Y-91134015D01*
X127762817Y-91171974D01*
X127900000Y-91190035D01*
X128037183Y-91171974D01*
X128128826Y-91134015D01*
X128152969Y-91124015D01*
X128152970Y-91124014D01*
X128165018Y-91119024D01*
X128187480Y-91101788D01*
X128267977Y-91064860D01*
X128356525Y-91066515D01*
X128408129Y-91087327D01*
X128414631Y-91091081D01*
X128424982Y-91099024D01*
X128437031Y-91104015D01*
X128437033Y-91104016D01*
X128473267Y-91119024D01*
X128552817Y-91151974D01*
X128690000Y-91170035D01*
X128827183Y-91151974D01*
X128908800Y-91118168D01*
X128942969Y-91104015D01*
X128942970Y-91104014D01*
X128955018Y-91099024D01*
X129064791Y-91014791D01*
X129149024Y-90905017D01*
X129184557Y-90819233D01*
X129196983Y-90789233D01*
X129196983Y-90789232D01*
X129201974Y-90777183D01*
X129220035Y-90640000D01*
X129201974Y-90502817D01*
X129149024Y-90374983D01*
X129064791Y-90265209D01*
X128955018Y-90180976D01*
X128942970Y-90175986D01*
X128942969Y-90175985D01*
X128899611Y-90158026D01*
X128827183Y-90128026D01*
X128690000Y-90109965D01*
X128552817Y-90128026D01*
X128540768Y-90133017D01*
X128540767Y-90133017D01*
X128523993Y-90139965D01*
X128424983Y-90180976D01*
X128402519Y-90198213D01*
X128322025Y-90235140D01*
X128233477Y-90233485D01*
X128181874Y-90212674D01*
X128175365Y-90208916D01*
X128165018Y-90200976D01*
X128152970Y-90195986D01*
X128152969Y-90195985D01*
X128104681Y-90175984D01*
X128037183Y-90148026D01*
X127900000Y-90129965D01*
X127762817Y-90148026D01*
X127750768Y-90153017D01*
X127750767Y-90153017D01*
X127695317Y-90175985D01*
X127634983Y-90200976D01*
X127525209Y-90285209D01*
X127440976Y-90394983D01*
X127435984Y-90407035D01*
X127429464Y-90418328D01*
X127428002Y-90417484D01*
X127385534Y-90477339D01*
X127308022Y-90520180D01*
X127219598Y-90525147D01*
X127137776Y-90491256D01*
X127081197Y-90427946D01*
X127080536Y-90428328D01*
X127074016Y-90417035D01*
X127069024Y-90404983D01*
X126984791Y-90295209D01*
X126932865Y-90255364D01*
X126885367Y-90218917D01*
X126885366Y-90218916D01*
X126875018Y-90210976D01*
X126862970Y-90205986D01*
X126862969Y-90205985D01*
X126802590Y-90180976D01*
X126747183Y-90158026D01*
X126610000Y-90139965D01*
X126472817Y-90158026D01*
X126460768Y-90163017D01*
X126460767Y-90163017D01*
X126417410Y-90180976D01*
X126344983Y-90210976D01*
X126235209Y-90295209D01*
X126150976Y-90404983D01*
X126145984Y-90417035D01*
X126107463Y-90510035D01*
X126098026Y-90532817D01*
X126079965Y-90670000D01*
X109099999Y-90670000D01*
X109099999Y-89320000D01*
X129529965Y-89320000D01*
X129548026Y-89457183D01*
X129553017Y-89469232D01*
X129553017Y-89469233D01*
X129572382Y-89515985D01*
X129600976Y-89585017D01*
X129685209Y-89694791D01*
X129794982Y-89779024D01*
X129807030Y-89784014D01*
X129807031Y-89784015D01*
X129832215Y-89794446D01*
X129922817Y-89831974D01*
X130060000Y-89850035D01*
X130072935Y-89848332D01*
X130184250Y-89833677D01*
X130184252Y-89833676D01*
X130197183Y-89831974D01*
X130205495Y-89828531D01*
X130291625Y-89825310D01*
X130372798Y-89860727D01*
X130430565Y-89927856D01*
X130451922Y-89994864D01*
X130468026Y-90117183D01*
X130473017Y-90129232D01*
X130473017Y-90129233D01*
X130501589Y-90198212D01*
X130520976Y-90245017D01*
X130605209Y-90354791D01*
X130615554Y-90362729D01*
X130670620Y-90404983D01*
X130714982Y-90439024D01*
X130727030Y-90444014D01*
X130727031Y-90444015D01*
X130761200Y-90458168D01*
X130842817Y-90491974D01*
X130980000Y-90510035D01*
X131117183Y-90491974D01*
X131198800Y-90458168D01*
X131232969Y-90444015D01*
X131232970Y-90444014D01*
X131245018Y-90439024D01*
X131289381Y-90404983D01*
X131344446Y-90362729D01*
X131354791Y-90354791D01*
X131439024Y-90245017D01*
X131458411Y-90198212D01*
X131486983Y-90129233D01*
X131486983Y-90129232D01*
X131491974Y-90117183D01*
X131510035Y-89980000D01*
X131491974Y-89842817D01*
X131486094Y-89828620D01*
X131444016Y-89727035D01*
X131439024Y-89714983D01*
X131354791Y-89605209D01*
X131245018Y-89520976D01*
X131232970Y-89515986D01*
X131232969Y-89515985D01*
X131198800Y-89501832D01*
X131117183Y-89468026D01*
X130980000Y-89449965D01*
X130967065Y-89451668D01*
X130855750Y-89466323D01*
X130855748Y-89466324D01*
X130842817Y-89468026D01*
X130834506Y-89471469D01*
X130748375Y-89474690D01*
X130667202Y-89439273D01*
X130659222Y-89430000D01*
X146249965Y-89430000D01*
X146268026Y-89567183D01*
X146320976Y-89695017D01*
X146405209Y-89804791D01*
X146514982Y-89889024D01*
X146527030Y-89894014D01*
X146527031Y-89894015D01*
X146551169Y-89904013D01*
X146642817Y-89941974D01*
X146780000Y-89960035D01*
X146917183Y-89941974D01*
X147008831Y-89904013D01*
X147032969Y-89894015D01*
X147032970Y-89894014D01*
X147045018Y-89889024D01*
X147135501Y-89819593D01*
X147145247Y-89812115D01*
X147225744Y-89775187D01*
X147314292Y-89776843D01*
X147389999Y-89815062D01*
X147390209Y-89814789D01*
X147396466Y-89819590D01*
X147396469Y-89819593D01*
X147489633Y-89891081D01*
X147499982Y-89899022D01*
X147512030Y-89904012D01*
X147512031Y-89904013D01*
X147546200Y-89918166D01*
X147627817Y-89951972D01*
X147765000Y-89970033D01*
X147902183Y-89951972D01*
X147983800Y-89918166D01*
X148017969Y-89904013D01*
X148017970Y-89904012D01*
X148030018Y-89899022D01*
X148043048Y-89889024D01*
X148129446Y-89822727D01*
X148139791Y-89814789D01*
X148224024Y-89705015D01*
X148268653Y-89597271D01*
X148271983Y-89589231D01*
X148271983Y-89589230D01*
X148276974Y-89577181D01*
X148295035Y-89439998D01*
X148293719Y-89430000D01*
X149329965Y-89430000D01*
X149348026Y-89567183D01*
X149400976Y-89695017D01*
X149485209Y-89804791D01*
X149594982Y-89889024D01*
X149607030Y-89894014D01*
X149607031Y-89894015D01*
X149631169Y-89904013D01*
X149722817Y-89941974D01*
X149860000Y-89960035D01*
X149997183Y-89941974D01*
X150088831Y-89904013D01*
X150112969Y-89894015D01*
X150112970Y-89894014D01*
X150125018Y-89889024D01*
X150234791Y-89804791D01*
X150319024Y-89695017D01*
X150371974Y-89567183D01*
X150390035Y-89430000D01*
X150371974Y-89292817D01*
X150319024Y-89164983D01*
X150234791Y-89055209D01*
X150142572Y-88984446D01*
X150135367Y-88978917D01*
X150135366Y-88978916D01*
X150125018Y-88970976D01*
X150112970Y-88965986D01*
X150112969Y-88965985D01*
X150033370Y-88933015D01*
X149997183Y-88918026D01*
X149860000Y-88899965D01*
X149722817Y-88918026D01*
X149710768Y-88923017D01*
X149710767Y-88923017D01*
X149702788Y-88926322D01*
X149594983Y-88970976D01*
X149485209Y-89055209D01*
X149400976Y-89164983D01*
X149348026Y-89292817D01*
X149329965Y-89430000D01*
X148293719Y-89430000D01*
X148276974Y-89302815D01*
X148224024Y-89174981D01*
X148139791Y-89065207D01*
X148058369Y-89002729D01*
X148040367Y-88988915D01*
X148040366Y-88988914D01*
X148030018Y-88980974D01*
X148017970Y-88975984D01*
X148017969Y-88975983D01*
X147983800Y-88961830D01*
X147902183Y-88928024D01*
X147765000Y-88909963D01*
X147627817Y-88928024D01*
X147615768Y-88933015D01*
X147615767Y-88933015D01*
X147586328Y-88945209D01*
X147499983Y-88980974D01*
X147489638Y-88988912D01*
X147489631Y-88988916D01*
X147399752Y-89057883D01*
X147319255Y-89094811D01*
X147230707Y-89093155D01*
X147155001Y-89054936D01*
X147154791Y-89055209D01*
X147153348Y-89054102D01*
X147148534Y-89050408D01*
X147148531Y-89050405D01*
X147055367Y-88978917D01*
X147055366Y-88978916D01*
X147045018Y-88970976D01*
X147032970Y-88965986D01*
X147032969Y-88965985D01*
X146953370Y-88933015D01*
X146917183Y-88918026D01*
X146780000Y-88899965D01*
X146642817Y-88918026D01*
X146630768Y-88923017D01*
X146630767Y-88923017D01*
X146622788Y-88926322D01*
X146514983Y-88970976D01*
X146405209Y-89055209D01*
X146320976Y-89164983D01*
X146268026Y-89292817D01*
X146249965Y-89430000D01*
X130659222Y-89430000D01*
X130609435Y-89372144D01*
X130588078Y-89305136D01*
X130584870Y-89280767D01*
X130571974Y-89182817D01*
X130564443Y-89164634D01*
X130524016Y-89067035D01*
X130519024Y-89054983D01*
X130434791Y-88945209D01*
X130369833Y-88895364D01*
X130335367Y-88868917D01*
X130335366Y-88868916D01*
X130325018Y-88860976D01*
X130312970Y-88855986D01*
X130312969Y-88855985D01*
X130278800Y-88841832D01*
X130197183Y-88808026D01*
X130060000Y-88789965D01*
X129922817Y-88808026D01*
X129910768Y-88813017D01*
X129910767Y-88813017D01*
X129825518Y-88848328D01*
X129794983Y-88860976D01*
X129685209Y-88945209D01*
X129600976Y-89054983D01*
X129595984Y-89067035D01*
X129555558Y-89164634D01*
X129548026Y-89182817D01*
X129529965Y-89320000D01*
X109099999Y-89320000D01*
X109099999Y-88620000D01*
X151609965Y-88620000D01*
X151628026Y-88757183D01*
X151633017Y-88769232D01*
X151633017Y-88769233D01*
X151651153Y-88813017D01*
X151680976Y-88885017D01*
X151765209Y-88994791D01*
X151775554Y-89002729D01*
X151856976Y-89065207D01*
X151874982Y-89079024D01*
X151887030Y-89084014D01*
X151887031Y-89084015D01*
X151909098Y-89093155D01*
X152002817Y-89131974D01*
X152140000Y-89150035D01*
X152277183Y-89131974D01*
X152370902Y-89093155D01*
X152392969Y-89084015D01*
X152392970Y-89084014D01*
X152405018Y-89079024D01*
X152423025Y-89065207D01*
X152504446Y-89002729D01*
X152514791Y-88994791D01*
X152599024Y-88885017D01*
X152628847Y-88813017D01*
X152646983Y-88769233D01*
X152646983Y-88769232D01*
X152651974Y-88757183D01*
X152670035Y-88620000D01*
X152651974Y-88482817D01*
X152599024Y-88354983D01*
X152514791Y-88245209D01*
X152452203Y-88197183D01*
X152415367Y-88168917D01*
X152415366Y-88168916D01*
X152405018Y-88160976D01*
X152392970Y-88155986D01*
X152392969Y-88155985D01*
X152330318Y-88130035D01*
X152277183Y-88108026D01*
X152140000Y-88089965D01*
X152002817Y-88108026D01*
X151990768Y-88113017D01*
X151990767Y-88113017D01*
X151953793Y-88128332D01*
X151874983Y-88160976D01*
X151765209Y-88245209D01*
X151680976Y-88354983D01*
X151628026Y-88482817D01*
X151609965Y-88620000D01*
X109099999Y-88620000D01*
X109099999Y-88060000D01*
X122179965Y-88060000D01*
X122198026Y-88197183D01*
X122250976Y-88325017D01*
X122335209Y-88434791D01*
X122345554Y-88442729D01*
X122414649Y-88495748D01*
X122444982Y-88519024D01*
X122457030Y-88524014D01*
X122457031Y-88524015D01*
X122491200Y-88538168D01*
X122572817Y-88571974D01*
X122710000Y-88590035D01*
X122847183Y-88571974D01*
X122928800Y-88538168D01*
X122962969Y-88524015D01*
X122962970Y-88524014D01*
X122975018Y-88519024D01*
X123005352Y-88495748D01*
X123074446Y-88442729D01*
X123084791Y-88434791D01*
X123169024Y-88325017D01*
X123221974Y-88197183D01*
X123240035Y-88060000D01*
X123221974Y-87922817D01*
X123169024Y-87794983D01*
X123084791Y-87685209D01*
X122975018Y-87600976D01*
X122972662Y-87600000D01*
X132544965Y-87600000D01*
X132563026Y-87737183D01*
X132615976Y-87865017D01*
X132700209Y-87974791D01*
X132809982Y-88059024D01*
X132822030Y-88064014D01*
X132822031Y-88064015D01*
X132843567Y-88072935D01*
X132937817Y-88111974D01*
X133075000Y-88130035D01*
X133212183Y-88111974D01*
X133306433Y-88072935D01*
X133327969Y-88064015D01*
X133327970Y-88064014D01*
X133340018Y-88059024D01*
X133449791Y-87974791D01*
X133534024Y-87865017D01*
X133586974Y-87737183D01*
X133605035Y-87600000D01*
X133586974Y-87462817D01*
X133534024Y-87334983D01*
X133449791Y-87225209D01*
X133340018Y-87140976D01*
X133327970Y-87135986D01*
X133327969Y-87135985D01*
X133293800Y-87121832D01*
X133212183Y-87088026D01*
X133075000Y-87069965D01*
X132937817Y-87088026D01*
X132925768Y-87093017D01*
X132925767Y-87093017D01*
X132840518Y-87128328D01*
X132809983Y-87140976D01*
X132700209Y-87225209D01*
X132615976Y-87334983D01*
X132563026Y-87462817D01*
X132544965Y-87600000D01*
X122972662Y-87600000D01*
X122962970Y-87595986D01*
X122962969Y-87595985D01*
X122928800Y-87581832D01*
X122847183Y-87548026D01*
X122710000Y-87529965D01*
X122572817Y-87548026D01*
X122560768Y-87553017D01*
X122560767Y-87553017D01*
X122478567Y-87587065D01*
X122444983Y-87600976D01*
X122335209Y-87685209D01*
X122250976Y-87794983D01*
X122198026Y-87922817D01*
X122179965Y-88060000D01*
X109099999Y-88060000D01*
X109099999Y-85950000D01*
X116944965Y-85950000D01*
X116963026Y-86087183D01*
X117015976Y-86215017D01*
X117100209Y-86324791D01*
X117209982Y-86409024D01*
X117222030Y-86414014D01*
X117222031Y-86414015D01*
X117256200Y-86428168D01*
X117337817Y-86461974D01*
X117475000Y-86480035D01*
X117612183Y-86461974D01*
X117693800Y-86428168D01*
X117727969Y-86414015D01*
X117727970Y-86414014D01*
X117740018Y-86409024D01*
X117849791Y-86324791D01*
X117934024Y-86215017D01*
X117986974Y-86087183D01*
X118005035Y-85950000D01*
X117986974Y-85812817D01*
X117934024Y-85684983D01*
X117849791Y-85575209D01*
X117803906Y-85540000D01*
X128729965Y-85540000D01*
X128748026Y-85677183D01*
X128753017Y-85689232D01*
X128753017Y-85689233D01*
X128761477Y-85709657D01*
X128800976Y-85805017D01*
X128885209Y-85914791D01*
X128895554Y-85922729D01*
X128947951Y-85962935D01*
X128994982Y-85999024D01*
X129007030Y-86004014D01*
X129007031Y-86004015D01*
X129041200Y-86018168D01*
X129122817Y-86051974D01*
X129260000Y-86070035D01*
X129397183Y-86051974D01*
X129478800Y-86018168D01*
X129512969Y-86004015D01*
X129512970Y-86004014D01*
X129525018Y-85999024D01*
X129572050Y-85962935D01*
X129624446Y-85922729D01*
X129634791Y-85914791D01*
X129719024Y-85805017D01*
X129758523Y-85709657D01*
X129766983Y-85689233D01*
X129766983Y-85689232D01*
X129771974Y-85677183D01*
X129790035Y-85540000D01*
X129771974Y-85402817D01*
X129719024Y-85274983D01*
X129634791Y-85165209D01*
X129525018Y-85080976D01*
X129512970Y-85075986D01*
X129512969Y-85075985D01*
X129478800Y-85061832D01*
X129397183Y-85028026D01*
X129260000Y-85009965D01*
X129122817Y-85028026D01*
X129110768Y-85033017D01*
X129110767Y-85033017D01*
X129028135Y-85067244D01*
X128994983Y-85080976D01*
X128885209Y-85165209D01*
X128800976Y-85274983D01*
X128748026Y-85402817D01*
X128729965Y-85540000D01*
X117803906Y-85540000D01*
X117750367Y-85498917D01*
X117750366Y-85498916D01*
X117740018Y-85490976D01*
X117727970Y-85485986D01*
X117727969Y-85485985D01*
X117693800Y-85471832D01*
X117612183Y-85438026D01*
X117475000Y-85419965D01*
X117337817Y-85438026D01*
X117325768Y-85443017D01*
X117325767Y-85443017D01*
X117272623Y-85465030D01*
X117209983Y-85490976D01*
X117100209Y-85575209D01*
X117015976Y-85684983D01*
X116963026Y-85812817D01*
X116944965Y-85950000D01*
X109099999Y-85950000D01*
X109099999Y-84886314D01*
X158149876Y-84886314D01*
X158165884Y-85076948D01*
X158168567Y-85086306D01*
X158168568Y-85086310D01*
X158169316Y-85088917D01*
X158218614Y-85260843D01*
X158223062Y-85269497D01*
X158223062Y-85269498D01*
X158301268Y-85421668D01*
X158306060Y-85430993D01*
X158312105Y-85438620D01*
X158312107Y-85438623D01*
X158418840Y-85573287D01*
X158418844Y-85573291D01*
X158424889Y-85580918D01*
X158505713Y-85649705D01*
X158563159Y-85698596D01*
X158563162Y-85698598D01*
X158570575Y-85704907D01*
X158579068Y-85709654D01*
X158579073Y-85709657D01*
X158729075Y-85793490D01*
X158729081Y-85793492D01*
X158737570Y-85798237D01*
X158746825Y-85801244D01*
X158746827Y-85801245D01*
X158910253Y-85854346D01*
X158910257Y-85854347D01*
X158919512Y-85857354D01*
X158929176Y-85858506D01*
X158929179Y-85858507D01*
X159099809Y-85878853D01*
X159099811Y-85878853D01*
X159109472Y-85880005D01*
X159300213Y-85865328D01*
X159484472Y-85813882D01*
X159493151Y-85809498D01*
X159493156Y-85809496D01*
X159646547Y-85732012D01*
X159646546Y-85732012D01*
X159655228Y-85727627D01*
X159805979Y-85609848D01*
X159835879Y-85575209D01*
X159877435Y-85527065D01*
X159930982Y-85465030D01*
X159945984Y-85438623D01*
X159973169Y-85390767D01*
X160025476Y-85298691D01*
X160029354Y-85287035D01*
X160082789Y-85126401D01*
X160082789Y-85126400D01*
X160085861Y-85117166D01*
X160109838Y-84927369D01*
X160110220Y-84900000D01*
X160107930Y-84876639D01*
X160092502Y-84719299D01*
X160091552Y-84709608D01*
X160036259Y-84526467D01*
X159982501Y-84425364D01*
X159951014Y-84366145D01*
X159951011Y-84366141D01*
X159946446Y-84357555D01*
X159825535Y-84209303D01*
X159738214Y-84137065D01*
X159685628Y-84093562D01*
X159685627Y-84093561D01*
X159678132Y-84087361D01*
X159509851Y-83996371D01*
X159327101Y-83939801D01*
X159179208Y-83924257D01*
X159146520Y-83920821D01*
X159146519Y-83920821D01*
X159136843Y-83919804D01*
X158946325Y-83937142D01*
X158936986Y-83939891D01*
X158936984Y-83939891D01*
X158772149Y-83988405D01*
X158772146Y-83988406D01*
X158762803Y-83991156D01*
X158754175Y-83995666D01*
X158754169Y-83995669D01*
X158650178Y-84050035D01*
X158593268Y-84079787D01*
X158585682Y-84085887D01*
X158585681Y-84085887D01*
X158551482Y-84113384D01*
X158444176Y-84199660D01*
X158321207Y-84346208D01*
X158229045Y-84513850D01*
X158226103Y-84523125D01*
X158226102Y-84523127D01*
X158181518Y-84663676D01*
X158171200Y-84696201D01*
X158149876Y-84886314D01*
X109099999Y-84886314D01*
X109099999Y-84150000D01*
X142149965Y-84150000D01*
X142168026Y-84287183D01*
X142173017Y-84299232D01*
X142173017Y-84299233D01*
X142196005Y-84354732D01*
X142220976Y-84415017D01*
X142305209Y-84524791D01*
X142414982Y-84609024D01*
X142427030Y-84614014D01*
X142427031Y-84614015D01*
X142461200Y-84628168D01*
X142542817Y-84661974D01*
X142680000Y-84680035D01*
X142817183Y-84661974D01*
X142898800Y-84628168D01*
X142932969Y-84614015D01*
X142932970Y-84614014D01*
X142945018Y-84609024D01*
X143054791Y-84524791D01*
X143139024Y-84415017D01*
X143163995Y-84354732D01*
X143186983Y-84299233D01*
X143186983Y-84299232D01*
X143191974Y-84287183D01*
X143210035Y-84150000D01*
X143191974Y-84012817D01*
X143181863Y-83988405D01*
X143144016Y-83897035D01*
X143139024Y-83884983D01*
X143054791Y-83775209D01*
X142945018Y-83690976D01*
X142932970Y-83685986D01*
X142932969Y-83685985D01*
X142892525Y-83669233D01*
X142817183Y-83638026D01*
X142680000Y-83619965D01*
X142542817Y-83638026D01*
X142530768Y-83643017D01*
X142530767Y-83643017D01*
X142496567Y-83657183D01*
X142414983Y-83690976D01*
X142305209Y-83775209D01*
X142220976Y-83884983D01*
X142215984Y-83897035D01*
X142178138Y-83988405D01*
X142168026Y-84012817D01*
X142149965Y-84150000D01*
X109099999Y-84150000D01*
X109099999Y-83767271D01*
X109099999Y-83560000D01*
X120989965Y-83560000D01*
X121008026Y-83697183D01*
X121060976Y-83825017D01*
X121145209Y-83934791D01*
X121155554Y-83942729D01*
X121224546Y-83995669D01*
X121254982Y-84019024D01*
X121267030Y-84024014D01*
X121267031Y-84024015D01*
X121290356Y-84033676D01*
X121382817Y-84071974D01*
X121520000Y-84090035D01*
X121657183Y-84071974D01*
X121749644Y-84033676D01*
X121772969Y-84024015D01*
X121772970Y-84024014D01*
X121785018Y-84019024D01*
X121815455Y-83995669D01*
X121884446Y-83942729D01*
X121894791Y-83934791D01*
X121979024Y-83825017D01*
X122031974Y-83697183D01*
X122048718Y-83570000D01*
X122639965Y-83570000D01*
X122658026Y-83707183D01*
X122663017Y-83719232D01*
X122663017Y-83719233D01*
X122690488Y-83785554D01*
X122710976Y-83835017D01*
X122795209Y-83944791D01*
X122805554Y-83952729D01*
X122861514Y-83995669D01*
X122904982Y-84029024D01*
X122917030Y-84034014D01*
X122917031Y-84034015D01*
X122951200Y-84048168D01*
X123032817Y-84081974D01*
X123170000Y-84100035D01*
X123307183Y-84081974D01*
X123388800Y-84048168D01*
X123422969Y-84034015D01*
X123422970Y-84034014D01*
X123435018Y-84029024D01*
X123478487Y-83995669D01*
X123534446Y-83952729D01*
X123544791Y-83944791D01*
X123629024Y-83835017D01*
X123649512Y-83785554D01*
X123676983Y-83719233D01*
X123676983Y-83719232D01*
X123681974Y-83707183D01*
X123700035Y-83570000D01*
X123693452Y-83520000D01*
X125079965Y-83520000D01*
X125098026Y-83657183D01*
X125103017Y-83669232D01*
X125103017Y-83669233D01*
X125123728Y-83719233D01*
X125150976Y-83785017D01*
X125235209Y-83894791D01*
X125344982Y-83979024D01*
X125357030Y-83984014D01*
X125357031Y-83984015D01*
X125367630Y-83988405D01*
X125472817Y-84031974D01*
X125610000Y-84050035D01*
X125747183Y-84031974D01*
X125852370Y-83988405D01*
X125862969Y-83984015D01*
X125862970Y-83984014D01*
X125875018Y-83979024D01*
X125984791Y-83894791D01*
X126069024Y-83785017D01*
X126096272Y-83719233D01*
X126116983Y-83669233D01*
X126116983Y-83669232D01*
X126121974Y-83657183D01*
X126140035Y-83520000D01*
X126121974Y-83382817D01*
X126089735Y-83304983D01*
X126074016Y-83267035D01*
X126069024Y-83254983D01*
X125984791Y-83145209D01*
X125875018Y-83060976D01*
X125862970Y-83055986D01*
X125862969Y-83055985D01*
X125824292Y-83039965D01*
X125747183Y-83008026D01*
X125610000Y-82989965D01*
X125472817Y-83008026D01*
X125460768Y-83013017D01*
X125460767Y-83013017D01*
X125391597Y-83041668D01*
X125344983Y-83060976D01*
X125235209Y-83145209D01*
X125150976Y-83254983D01*
X125145984Y-83267035D01*
X125130266Y-83304983D01*
X125098026Y-83382817D01*
X125079965Y-83520000D01*
X123693452Y-83520000D01*
X123681974Y-83432817D01*
X123629024Y-83304983D01*
X123544791Y-83195209D01*
X123435018Y-83110976D01*
X123422970Y-83105986D01*
X123422969Y-83105985D01*
X123386991Y-83091083D01*
X123307183Y-83058026D01*
X123170000Y-83039965D01*
X123032817Y-83058026D01*
X123020768Y-83063017D01*
X123020767Y-83063017D01*
X122953009Y-83091083D01*
X122904983Y-83110976D01*
X122795209Y-83195209D01*
X122710976Y-83304983D01*
X122658026Y-83432817D01*
X122639965Y-83570000D01*
X122048718Y-83570000D01*
X122050035Y-83560000D01*
X122031974Y-83422817D01*
X122010415Y-83370767D01*
X121984016Y-83307035D01*
X121979024Y-83294983D01*
X121894791Y-83185209D01*
X121785018Y-83100976D01*
X121772970Y-83095986D01*
X121772969Y-83095985D01*
X121707619Y-83068917D01*
X121657183Y-83048026D01*
X121520000Y-83029965D01*
X121382817Y-83048026D01*
X121370768Y-83053017D01*
X121370767Y-83053017D01*
X121332381Y-83068917D01*
X121254983Y-83100976D01*
X121145209Y-83185209D01*
X121060976Y-83294983D01*
X121055984Y-83307035D01*
X121029586Y-83370767D01*
X121008026Y-83422817D01*
X120989965Y-83560000D01*
X109099999Y-83560000D01*
X109099999Y-81443291D01*
X111219876Y-81443291D01*
X111235884Y-81633925D01*
X111238567Y-81643283D01*
X111238568Y-81643287D01*
X111268385Y-81747271D01*
X111288614Y-81817820D01*
X111293062Y-81826474D01*
X111293062Y-81826475D01*
X111369662Y-81975520D01*
X111376060Y-81987970D01*
X111382105Y-81995597D01*
X111382107Y-81995600D01*
X111488840Y-82130264D01*
X111488844Y-82130268D01*
X111494889Y-82137895D01*
X111570569Y-82202304D01*
X111633159Y-82255573D01*
X111633162Y-82255575D01*
X111640575Y-82261884D01*
X111649068Y-82266631D01*
X111649073Y-82266634D01*
X111799075Y-82350467D01*
X111799081Y-82350469D01*
X111807570Y-82355214D01*
X111816825Y-82358221D01*
X111816827Y-82358222D01*
X111980253Y-82411323D01*
X111980257Y-82411324D01*
X111989512Y-82414331D01*
X111999176Y-82415483D01*
X111999179Y-82415484D01*
X112169809Y-82435830D01*
X112169811Y-82435830D01*
X112179472Y-82436982D01*
X112370213Y-82422305D01*
X112554472Y-82370859D01*
X112563151Y-82366475D01*
X112563156Y-82366473D01*
X112697445Y-82298638D01*
X112725228Y-82284604D01*
X112875979Y-82166825D01*
X112893254Y-82146811D01*
X112964588Y-82094329D01*
X113051632Y-82077995D01*
X113137143Y-82101044D01*
X113204185Y-82158913D01*
X113225845Y-82203610D01*
X113227618Y-82202823D01*
X113263944Y-82284604D01*
X113273061Y-82305130D01*
X113286064Y-82318110D01*
X113338959Y-82370913D01*
X113352287Y-82384218D01*
X113420400Y-82414331D01*
X113440681Y-82423297D01*
X113454673Y-82429483D01*
X113469533Y-82431215D01*
X113469535Y-82431216D01*
X113474612Y-82431808D01*
X113474619Y-82431808D01*
X113480354Y-82432477D01*
X114919646Y-82432477D01*
X114925484Y-82431782D01*
X114925488Y-82431782D01*
X114931019Y-82431124D01*
X114931022Y-82431123D01*
X114945846Y-82429359D01*
X114959494Y-82423297D01*
X115031361Y-82391375D01*
X115031362Y-82391374D01*
X115048153Y-82383916D01*
X115089180Y-82342817D01*
X115114260Y-82317694D01*
X115114261Y-82317693D01*
X115127241Y-82304690D01*
X115172506Y-82202304D01*
X115175500Y-82176623D01*
X115175500Y-81010000D01*
X125109965Y-81010000D01*
X125128026Y-81147183D01*
X125180976Y-81275017D01*
X125265209Y-81384791D01*
X125275554Y-81392729D01*
X125354092Y-81452994D01*
X125374982Y-81469024D01*
X125387030Y-81474014D01*
X125387031Y-81474015D01*
X125411973Y-81484346D01*
X125502817Y-81521974D01*
X125640000Y-81540035D01*
X125777183Y-81521974D01*
X125868027Y-81484346D01*
X125892969Y-81474015D01*
X125892970Y-81474014D01*
X125905018Y-81469024D01*
X125925909Y-81452994D01*
X126004446Y-81392729D01*
X126014791Y-81384791D01*
X126099024Y-81275017D01*
X126151974Y-81147183D01*
X126170035Y-81010000D01*
X126151974Y-80872817D01*
X126099024Y-80744983D01*
X126014791Y-80635209D01*
X125970425Y-80601166D01*
X125915367Y-80558917D01*
X125915366Y-80558916D01*
X125905018Y-80550976D01*
X125892970Y-80545986D01*
X125892969Y-80545985D01*
X125835801Y-80522306D01*
X125777183Y-80498026D01*
X125640000Y-80479965D01*
X125502817Y-80498026D01*
X125490768Y-80503017D01*
X125490767Y-80503017D01*
X125457632Y-80516742D01*
X125374983Y-80550976D01*
X125265209Y-80635209D01*
X125180976Y-80744983D01*
X125128026Y-80872817D01*
X125109965Y-81010000D01*
X115175500Y-81010000D01*
X115175500Y-80737331D01*
X115172382Y-80711131D01*
X115159858Y-80682935D01*
X115134398Y-80625616D01*
X115134397Y-80625615D01*
X115126939Y-80608824D01*
X115066142Y-80548133D01*
X115060717Y-80542717D01*
X115060716Y-80542716D01*
X115047713Y-80529736D01*
X114975987Y-80498026D01*
X114959012Y-80490521D01*
X114959011Y-80490521D01*
X114945327Y-80484471D01*
X114930467Y-80482739D01*
X114930465Y-80482738D01*
X114925388Y-80482146D01*
X114925381Y-80482146D01*
X114919646Y-80481477D01*
X113480354Y-80481477D01*
X113474516Y-80482172D01*
X113474512Y-80482172D01*
X113468981Y-80482830D01*
X113468978Y-80482831D01*
X113454154Y-80484595D01*
X113440507Y-80490657D01*
X113440506Y-80490657D01*
X113368639Y-80522579D01*
X113368638Y-80522580D01*
X113351847Y-80530038D01*
X113328578Y-80553348D01*
X113286156Y-80595844D01*
X113272759Y-80609264D01*
X113227494Y-80711650D01*
X113224257Y-80710219D01*
X113194683Y-80765591D01*
X113123197Y-80817872D01*
X113036107Y-80833959D01*
X112950662Y-80810665D01*
X112903208Y-80775355D01*
X112901688Y-80773825D01*
X112895535Y-80766280D01*
X112867658Y-80743218D01*
X112755628Y-80650539D01*
X112755627Y-80650538D01*
X112748132Y-80644338D01*
X112579851Y-80553348D01*
X112397101Y-80496778D01*
X112237137Y-80479965D01*
X112216520Y-80477798D01*
X112216519Y-80477798D01*
X112206843Y-80476781D01*
X112016325Y-80494119D01*
X112006986Y-80496868D01*
X112006984Y-80496868D01*
X111842149Y-80545382D01*
X111842146Y-80545383D01*
X111832803Y-80548133D01*
X111824175Y-80552643D01*
X111824169Y-80552646D01*
X111689720Y-80622935D01*
X111663268Y-80636764D01*
X111514176Y-80756637D01*
X111449295Y-80833959D01*
X111406161Y-80885364D01*
X111391207Y-80903185D01*
X111299045Y-81070827D01*
X111296103Y-81080102D01*
X111296102Y-81080104D01*
X111274824Y-81147183D01*
X111241200Y-81253178D01*
X111219876Y-81443291D01*
X109099999Y-81443291D01*
X109099999Y-79350000D01*
X118269965Y-79350000D01*
X118288026Y-79487183D01*
X118293017Y-79499232D01*
X118293017Y-79499233D01*
X118322647Y-79570767D01*
X118340976Y-79615017D01*
X118425209Y-79724791D01*
X118444030Y-79739233D01*
X118503652Y-79784983D01*
X118534982Y-79809024D01*
X118547030Y-79814014D01*
X118547031Y-79814015D01*
X118581200Y-79828168D01*
X118662817Y-79861974D01*
X118800000Y-79880035D01*
X118937183Y-79861974D01*
X119018800Y-79828168D01*
X119052969Y-79814015D01*
X119052970Y-79814014D01*
X119065018Y-79809024D01*
X119096349Y-79784983D01*
X119155970Y-79739233D01*
X119174791Y-79724791D01*
X119259024Y-79615017D01*
X119277353Y-79570767D01*
X119306983Y-79499233D01*
X119306983Y-79499232D01*
X119311974Y-79487183D01*
X119330035Y-79350000D01*
X119323452Y-79300000D01*
X119769965Y-79300000D01*
X119788026Y-79437183D01*
X119793017Y-79449232D01*
X119793017Y-79449233D01*
X119807010Y-79483016D01*
X119840976Y-79565017D01*
X119925209Y-79674791D01*
X119950661Y-79694321D01*
X119993487Y-79727183D01*
X120034982Y-79759024D01*
X120047030Y-79764014D01*
X120047031Y-79764015D01*
X120072673Y-79774636D01*
X120162817Y-79811974D01*
X120300000Y-79830035D01*
X120437183Y-79811974D01*
X120527327Y-79774636D01*
X120552969Y-79764015D01*
X120552970Y-79764014D01*
X120565018Y-79759024D01*
X120606514Y-79727183D01*
X120615875Y-79720000D01*
X132759965Y-79720000D01*
X132778026Y-79857183D01*
X132783017Y-79869232D01*
X132783017Y-79869233D01*
X132796079Y-79900767D01*
X132830976Y-79985017D01*
X132881125Y-80050372D01*
X132918053Y-80130869D01*
X132916397Y-80219417D01*
X132881125Y-80292660D01*
X132848916Y-80334635D01*
X132848915Y-80334637D01*
X132840976Y-80344983D01*
X132835984Y-80357035D01*
X132801171Y-80441083D01*
X132788026Y-80472817D01*
X132769965Y-80610000D01*
X132788026Y-80747183D01*
X132793017Y-80759232D01*
X132793017Y-80759233D01*
X132812915Y-80807271D01*
X132840976Y-80875017D01*
X132913886Y-80970035D01*
X132925209Y-80984791D01*
X132924230Y-80985542D01*
X132964353Y-81049397D01*
X132974269Y-81137404D01*
X132945018Y-81220997D01*
X132934397Y-81236267D01*
X132858916Y-81334635D01*
X132858915Y-81334637D01*
X132850976Y-81344983D01*
X132845984Y-81357035D01*
X132827543Y-81401557D01*
X132798026Y-81472817D01*
X132779965Y-81610000D01*
X132798026Y-81747183D01*
X132850976Y-81875017D01*
X132935209Y-81984791D01*
X132945554Y-81992729D01*
X132947111Y-81994286D01*
X132994230Y-82069274D01*
X133004146Y-82157281D01*
X132974895Y-82240874D01*
X132955929Y-82264657D01*
X132955209Y-82265209D01*
X132870976Y-82374983D01*
X132818026Y-82502817D01*
X132799965Y-82640000D01*
X132818026Y-82777183D01*
X132870976Y-82905017D01*
X132955209Y-83014791D01*
X133064982Y-83099024D01*
X133077030Y-83104014D01*
X133077031Y-83104015D01*
X133088866Y-83108917D01*
X133192817Y-83151974D01*
X133330000Y-83170035D01*
X133467183Y-83151974D01*
X133571134Y-83108917D01*
X133582969Y-83104015D01*
X133582970Y-83104014D01*
X133595018Y-83099024D01*
X133704791Y-83014791D01*
X133789024Y-82905017D01*
X133841974Y-82777183D01*
X133860035Y-82640000D01*
X133841974Y-82502817D01*
X133789024Y-82374983D01*
X133704791Y-82265209D01*
X133694446Y-82257271D01*
X133692889Y-82255714D01*
X133645770Y-82180726D01*
X133640055Y-82130000D01*
X134919965Y-82130000D01*
X134938026Y-82267183D01*
X134943017Y-82279232D01*
X134943017Y-82279233D01*
X134958948Y-82317694D01*
X134990976Y-82395017D01*
X135075209Y-82504791D01*
X135184982Y-82589024D01*
X135197030Y-82594014D01*
X135197031Y-82594015D01*
X135221746Y-82604252D01*
X135312817Y-82641974D01*
X135450000Y-82660035D01*
X135587183Y-82641974D01*
X135678254Y-82604252D01*
X135702969Y-82594015D01*
X135702970Y-82594014D01*
X135715018Y-82589024D01*
X135824791Y-82504791D01*
X135843814Y-82480000D01*
X146569965Y-82480000D01*
X146588026Y-82617183D01*
X146593017Y-82629232D01*
X146593017Y-82629233D01*
X146602835Y-82652935D01*
X146640976Y-82745017D01*
X146725209Y-82854791D01*
X146834982Y-82939024D01*
X146847030Y-82944014D01*
X146847031Y-82944015D01*
X146881200Y-82958168D01*
X146962817Y-82991974D01*
X147100000Y-83010035D01*
X147237183Y-82991974D01*
X147318800Y-82958168D01*
X147352969Y-82944015D01*
X147352970Y-82944014D01*
X147365018Y-82939024D01*
X147474791Y-82854791D01*
X147559024Y-82745017D01*
X147597165Y-82652935D01*
X147606983Y-82629233D01*
X147606983Y-82629232D01*
X147611974Y-82617183D01*
X147630035Y-82480000D01*
X147611974Y-82342817D01*
X147596182Y-82304690D01*
X147564016Y-82227035D01*
X147559024Y-82214983D01*
X147520670Y-82165000D01*
X148894965Y-82165000D01*
X148913026Y-82302183D01*
X148965976Y-82430017D01*
X149050209Y-82539791D01*
X149159982Y-82624024D01*
X149172030Y-82629014D01*
X149172031Y-82629015D01*
X149191271Y-82636984D01*
X149287817Y-82676974D01*
X149425000Y-82695035D01*
X149562183Y-82676974D01*
X149658729Y-82636984D01*
X149677969Y-82629015D01*
X149677970Y-82629014D01*
X149690018Y-82624024D01*
X149799791Y-82539791D01*
X149884024Y-82430017D01*
X149936974Y-82302183D01*
X149955035Y-82165000D01*
X149936974Y-82027817D01*
X149923630Y-81995600D01*
X149889016Y-81912035D01*
X149884024Y-81899983D01*
X149799791Y-81790209D01*
X149743719Y-81747183D01*
X149700367Y-81713917D01*
X149700366Y-81713916D01*
X149690018Y-81705976D01*
X149677970Y-81700986D01*
X149677969Y-81700985D01*
X149643800Y-81686832D01*
X149562183Y-81653026D01*
X149425000Y-81634965D01*
X149287817Y-81653026D01*
X149275768Y-81658017D01*
X149275767Y-81658017D01*
X149244481Y-81670976D01*
X149159983Y-81705976D01*
X149050209Y-81790209D01*
X148965976Y-81899983D01*
X148960984Y-81912035D01*
X148926371Y-81995600D01*
X148913026Y-82027817D01*
X148894965Y-82165000D01*
X147520670Y-82165000D01*
X147474791Y-82105209D01*
X147365018Y-82020976D01*
X147352970Y-82015986D01*
X147352969Y-82015985D01*
X147297035Y-81992817D01*
X147237183Y-81968026D01*
X147100000Y-81949965D01*
X146962817Y-81968026D01*
X146950768Y-81973017D01*
X146950767Y-81973017D01*
X146899419Y-81994286D01*
X146834983Y-82020976D01*
X146725209Y-82105209D01*
X146640976Y-82214983D01*
X146635984Y-82227035D01*
X146603819Y-82304690D01*
X146588026Y-82342817D01*
X146569965Y-82480000D01*
X135843814Y-82480000D01*
X135909024Y-82395017D01*
X135941052Y-82317694D01*
X135956983Y-82279233D01*
X135956983Y-82279232D01*
X135961974Y-82267183D01*
X135980035Y-82130000D01*
X135961974Y-81992817D01*
X135954810Y-81975520D01*
X135914016Y-81877035D01*
X135909024Y-81864983D01*
X135824791Y-81755209D01*
X135715018Y-81670976D01*
X135702970Y-81665986D01*
X135702969Y-81665985D01*
X135662020Y-81649024D01*
X135587183Y-81618026D01*
X135450000Y-81599965D01*
X135312817Y-81618026D01*
X135300768Y-81623017D01*
X135300767Y-81623017D01*
X135232428Y-81651324D01*
X135184983Y-81670976D01*
X135075209Y-81755209D01*
X134990976Y-81864983D01*
X134985984Y-81877035D01*
X134945191Y-81975520D01*
X134938026Y-81992817D01*
X134919965Y-82130000D01*
X133640055Y-82130000D01*
X133635854Y-82092719D01*
X133665105Y-82009126D01*
X133684071Y-81985343D01*
X133684791Y-81984791D01*
X133769024Y-81875017D01*
X133821974Y-81747183D01*
X133840035Y-81610000D01*
X133821974Y-81472817D01*
X133792458Y-81401557D01*
X133774016Y-81357035D01*
X133769024Y-81344983D01*
X133684791Y-81235209D01*
X133685770Y-81234458D01*
X133645647Y-81170603D01*
X133635731Y-81082596D01*
X133664982Y-80999003D01*
X133675603Y-80983733D01*
X133751084Y-80885365D01*
X133751085Y-80885363D01*
X133759024Y-80875017D01*
X133787085Y-80807271D01*
X133806983Y-80759233D01*
X133806983Y-80759232D01*
X133811974Y-80747183D01*
X133830035Y-80610000D01*
X133811974Y-80472817D01*
X133798830Y-80441083D01*
X133764016Y-80357035D01*
X133759024Y-80344983D01*
X133708875Y-80279628D01*
X133671947Y-80199131D01*
X133673603Y-80110583D01*
X133702778Y-80050000D01*
X134889965Y-80050000D01*
X134908026Y-80187183D01*
X134913017Y-80199232D01*
X134913017Y-80199233D01*
X134927919Y-80235209D01*
X134960976Y-80315017D01*
X135045209Y-80424791D01*
X135066441Y-80441083D01*
X135142774Y-80499656D01*
X135154982Y-80509024D01*
X135167030Y-80514014D01*
X135167031Y-80514015D01*
X135187048Y-80522306D01*
X135282817Y-80561974D01*
X135420000Y-80580035D01*
X135557183Y-80561974D01*
X135652952Y-80522306D01*
X135672969Y-80514015D01*
X135672970Y-80514014D01*
X135685018Y-80509024D01*
X135697227Y-80499656D01*
X135773559Y-80441083D01*
X135794791Y-80424791D01*
X135879024Y-80315017D01*
X135912081Y-80235209D01*
X135926983Y-80199233D01*
X135926983Y-80199232D01*
X135931974Y-80187183D01*
X135950035Y-80050000D01*
X135942136Y-79990000D01*
X141649965Y-79990000D01*
X141668026Y-80127183D01*
X141673017Y-80139232D01*
X141673017Y-80139233D01*
X141702734Y-80210976D01*
X141720976Y-80255017D01*
X141805209Y-80364791D01*
X141914982Y-80449024D01*
X141927030Y-80454014D01*
X141927031Y-80454015D01*
X141961200Y-80468168D01*
X142042817Y-80501974D01*
X142180000Y-80520035D01*
X142317183Y-80501974D01*
X142398800Y-80468168D01*
X142432969Y-80454015D01*
X142432970Y-80454014D01*
X142445018Y-80449024D01*
X142456778Y-80440000D01*
X143959965Y-80440000D01*
X143978026Y-80577183D01*
X143983017Y-80589232D01*
X143983017Y-80589233D01*
X144011114Y-80657065D01*
X144030976Y-80705017D01*
X144115209Y-80814791D01*
X144140189Y-80833959D01*
X144207681Y-80885748D01*
X144224982Y-80899024D01*
X144237030Y-80904014D01*
X144237031Y-80904015D01*
X144247722Y-80908443D01*
X144352817Y-80951974D01*
X144490000Y-80970035D01*
X144489502Y-80973815D01*
X144551823Y-80988039D01*
X144621064Y-81043258D01*
X144659491Y-81123050D01*
X144662776Y-81141352D01*
X144678026Y-81257183D01*
X144730976Y-81385017D01*
X144815209Y-81494791D01*
X144924982Y-81579024D01*
X144937030Y-81584014D01*
X144937031Y-81584015D01*
X144968538Y-81597065D01*
X145052817Y-81631974D01*
X145190000Y-81650035D01*
X145327183Y-81631974D01*
X145411462Y-81597065D01*
X145442969Y-81584015D01*
X145442970Y-81584014D01*
X145455018Y-81579024D01*
X145465363Y-81571086D01*
X145465368Y-81571083D01*
X145488759Y-81553133D01*
X145569256Y-81516204D01*
X145657804Y-81517859D01*
X145736865Y-81557769D01*
X145738378Y-81559147D01*
X145742709Y-81564791D01*
X145753054Y-81572729D01*
X145836380Y-81636668D01*
X145852482Y-81649024D01*
X145864530Y-81654014D01*
X145864531Y-81654015D01*
X145874191Y-81658016D01*
X145980317Y-81701974D01*
X146117500Y-81720035D01*
X146254683Y-81701974D01*
X146360809Y-81658016D01*
X146370469Y-81654015D01*
X146370470Y-81654014D01*
X146382518Y-81649024D01*
X146398621Y-81636668D01*
X146481946Y-81572729D01*
X146492291Y-81564791D01*
X146576524Y-81455017D01*
X146629474Y-81327183D01*
X146647535Y-81190000D01*
X146629474Y-81052817D01*
X146576524Y-80924983D01*
X146492291Y-80815209D01*
X146428526Y-80766280D01*
X146392867Y-80738917D01*
X146392866Y-80738916D01*
X146382518Y-80730976D01*
X146370470Y-80725986D01*
X146370469Y-80725985D01*
X146301657Y-80697483D01*
X146254683Y-80678026D01*
X146193721Y-80670000D01*
X156269965Y-80670000D01*
X156288026Y-80807183D01*
X156340976Y-80935017D01*
X156425209Y-81044791D01*
X156534982Y-81129024D01*
X156547030Y-81134014D01*
X156547031Y-81134015D01*
X156581200Y-81148168D01*
X156662817Y-81181974D01*
X156800000Y-81200035D01*
X156937183Y-81181974D01*
X157018800Y-81148168D01*
X157052969Y-81134015D01*
X157052970Y-81134014D01*
X157065018Y-81129024D01*
X157174791Y-81044791D01*
X157259024Y-80935017D01*
X157311974Y-80807183D01*
X157330035Y-80670000D01*
X157311974Y-80532817D01*
X157298830Y-80501083D01*
X157264016Y-80417035D01*
X157259024Y-80404983D01*
X157174791Y-80295209D01*
X157096599Y-80235209D01*
X157075367Y-80218917D01*
X157075366Y-80218916D01*
X157065018Y-80210976D01*
X157052970Y-80205986D01*
X157052969Y-80205985D01*
X157018800Y-80191832D01*
X156937183Y-80158026D01*
X156800000Y-80139965D01*
X156662817Y-80158026D01*
X156650768Y-80163017D01*
X156650767Y-80163017D01*
X156592782Y-80187035D01*
X156534983Y-80210976D01*
X156425209Y-80295209D01*
X156340976Y-80404983D01*
X156335984Y-80417035D01*
X156301171Y-80501083D01*
X156288026Y-80532817D01*
X156269965Y-80670000D01*
X146193721Y-80670000D01*
X146117500Y-80659965D01*
X145980317Y-80678026D01*
X145968268Y-80683017D01*
X145968267Y-80683017D01*
X145890174Y-80715364D01*
X145852483Y-80730976D01*
X145819041Y-80756637D01*
X145818739Y-80756869D01*
X145738242Y-80793797D01*
X145649694Y-80792141D01*
X145570634Y-80752230D01*
X145569122Y-80750853D01*
X145564791Y-80745209D01*
X145455018Y-80660976D01*
X145442970Y-80655986D01*
X145442969Y-80655985D01*
X145392810Y-80635209D01*
X145327183Y-80608026D01*
X145190000Y-80589965D01*
X145190498Y-80586185D01*
X145128177Y-80571961D01*
X145058936Y-80516742D01*
X145020509Y-80436950D01*
X145017223Y-80418643D01*
X145001974Y-80302817D01*
X144949024Y-80174983D01*
X144864791Y-80065209D01*
X144755018Y-79980976D01*
X144742970Y-79975986D01*
X144742969Y-79975985D01*
X144708800Y-79961832D01*
X144627183Y-79928026D01*
X144490000Y-79909965D01*
X144352817Y-79928026D01*
X144340768Y-79933017D01*
X144340767Y-79933017D01*
X144289033Y-79954446D01*
X144224983Y-79980976D01*
X144115209Y-80065209D01*
X144030976Y-80174983D01*
X143978026Y-80302817D01*
X143959965Y-80440000D01*
X142456778Y-80440000D01*
X142554791Y-80364791D01*
X142639024Y-80255017D01*
X142657266Y-80210976D01*
X142686983Y-80139233D01*
X142686983Y-80139232D01*
X142691974Y-80127183D01*
X142710035Y-79990000D01*
X142691974Y-79852817D01*
X142682538Y-79830035D01*
X142644016Y-79737035D01*
X142639024Y-79724983D01*
X142554791Y-79615209D01*
X142510425Y-79581166D01*
X142455367Y-79538917D01*
X142455366Y-79538916D01*
X142445018Y-79530976D01*
X142432970Y-79525986D01*
X142432969Y-79525985D01*
X142398800Y-79511832D01*
X142317183Y-79478026D01*
X142180000Y-79459965D01*
X142042817Y-79478026D01*
X142030768Y-79483017D01*
X142030767Y-79483017D01*
X141991618Y-79499233D01*
X141914983Y-79530976D01*
X141805209Y-79615209D01*
X141720976Y-79724983D01*
X141715984Y-79737035D01*
X141677463Y-79830035D01*
X141668026Y-79852817D01*
X141649965Y-79990000D01*
X135942136Y-79990000D01*
X135931974Y-79912817D01*
X135918396Y-79880035D01*
X135884016Y-79797035D01*
X135879024Y-79784983D01*
X135794791Y-79675209D01*
X135716599Y-79615209D01*
X135695367Y-79598917D01*
X135695366Y-79598916D01*
X135685018Y-79590976D01*
X135672970Y-79585986D01*
X135672969Y-79585985D01*
X135619927Y-79564015D01*
X135557183Y-79538026D01*
X135420000Y-79519965D01*
X135282817Y-79538026D01*
X135270768Y-79543017D01*
X135270767Y-79543017D01*
X135232123Y-79559024D01*
X135154983Y-79590976D01*
X135045209Y-79675209D01*
X134960976Y-79784983D01*
X134955984Y-79797035D01*
X134921605Y-79880035D01*
X134908026Y-79912817D01*
X134889965Y-80050000D01*
X133702778Y-80050000D01*
X133708875Y-80037340D01*
X133741084Y-79995365D01*
X133741085Y-79995363D01*
X133749024Y-79985017D01*
X133783921Y-79900767D01*
X133796983Y-79869233D01*
X133796983Y-79869232D01*
X133801974Y-79857183D01*
X133820035Y-79720000D01*
X133801974Y-79582817D01*
X133788830Y-79551083D01*
X133754016Y-79467035D01*
X133749024Y-79454983D01*
X133664791Y-79345209D01*
X133654139Y-79337035D01*
X133600074Y-79295549D01*
X133543571Y-79227352D01*
X133522254Y-79141392D01*
X133522544Y-79140000D01*
X151689965Y-79140000D01*
X151708026Y-79277183D01*
X151713017Y-79289232D01*
X151713017Y-79289233D01*
X151732915Y-79337271D01*
X151760976Y-79405017D01*
X151845209Y-79514791D01*
X151954982Y-79599024D01*
X151967030Y-79604014D01*
X151967031Y-79604015D01*
X152070771Y-79646985D01*
X152070775Y-79646986D01*
X152082817Y-79651974D01*
X152093943Y-79653439D01*
X152171300Y-79694321D01*
X152225350Y-79769007D01*
X152231967Y-79784983D01*
X152255074Y-79840767D01*
X152260976Y-79855017D01*
X152345209Y-79964791D01*
X152359796Y-79975984D01*
X152394919Y-80002935D01*
X152454982Y-80049024D01*
X152467030Y-80054014D01*
X152467031Y-80054015D01*
X152474892Y-80057271D01*
X152582817Y-80101974D01*
X152720000Y-80120035D01*
X152857183Y-80101974D01*
X152965108Y-80057271D01*
X152972969Y-80054015D01*
X152972970Y-80054014D01*
X152985018Y-80049024D01*
X153045082Y-80002935D01*
X153080204Y-79975984D01*
X153094791Y-79964791D01*
X153179024Y-79855017D01*
X153218785Y-79759024D01*
X153226983Y-79739233D01*
X153226983Y-79739232D01*
X153231974Y-79727183D01*
X153250035Y-79590000D01*
X153231974Y-79452817D01*
X153179024Y-79324983D01*
X153094791Y-79215209D01*
X153043365Y-79175748D01*
X152995367Y-79138917D01*
X152995366Y-79138916D01*
X152985018Y-79130976D01*
X152972970Y-79125986D01*
X152972969Y-79125985D01*
X152869229Y-79083015D01*
X152869225Y-79083014D01*
X152857183Y-79078026D01*
X152846057Y-79076561D01*
X152768700Y-79035679D01*
X152714650Y-78960993D01*
X152684016Y-78887034D01*
X152684015Y-78887032D01*
X152679024Y-78874983D01*
X152594791Y-78765209D01*
X152485018Y-78680976D01*
X152472970Y-78675986D01*
X152472969Y-78675985D01*
X152407619Y-78648917D01*
X152357183Y-78628026D01*
X152220000Y-78609965D01*
X152082817Y-78628026D01*
X152070768Y-78633017D01*
X152070767Y-78633017D01*
X152032381Y-78648917D01*
X151954983Y-78680976D01*
X151845209Y-78765209D01*
X151760976Y-78874983D01*
X151755984Y-78887035D01*
X151717562Y-78979796D01*
X151708026Y-79002817D01*
X151689965Y-79140000D01*
X133522544Y-79140000D01*
X133540344Y-79054696D01*
X133600073Y-78979798D01*
X133684791Y-78914791D01*
X133769024Y-78805017D01*
X133821974Y-78677183D01*
X133840035Y-78540000D01*
X133821974Y-78402817D01*
X133769024Y-78274983D01*
X133684791Y-78165209D01*
X133575018Y-78080976D01*
X133562970Y-78075986D01*
X133562969Y-78075985D01*
X133528800Y-78061832D01*
X133447183Y-78028026D01*
X133310000Y-78009965D01*
X133172817Y-78028026D01*
X133160768Y-78033017D01*
X133160767Y-78033017D01*
X133075518Y-78068328D01*
X133044983Y-78080976D01*
X132935209Y-78165209D01*
X132850976Y-78274983D01*
X132798026Y-78402817D01*
X132779965Y-78540000D01*
X132798026Y-78677183D01*
X132850976Y-78805017D01*
X132935209Y-78914791D01*
X132945553Y-78922728D01*
X132945555Y-78922730D01*
X132999926Y-78964451D01*
X133056429Y-79032648D01*
X133077746Y-79118608D01*
X133059656Y-79205304D01*
X132999925Y-79280203D01*
X132915209Y-79345209D01*
X132830976Y-79454983D01*
X132825984Y-79467035D01*
X132791171Y-79551083D01*
X132778026Y-79582817D01*
X132759965Y-79720000D01*
X120615875Y-79720000D01*
X120649339Y-79694321D01*
X120674791Y-79674791D01*
X120759024Y-79565017D01*
X120792990Y-79483016D01*
X120806983Y-79449233D01*
X120806983Y-79449232D01*
X120811974Y-79437183D01*
X120830035Y-79300000D01*
X120811974Y-79162817D01*
X120802075Y-79138917D01*
X120785955Y-79100000D01*
X125469965Y-79100000D01*
X125488026Y-79237183D01*
X125493017Y-79249232D01*
X125493017Y-79249233D01*
X125512202Y-79295549D01*
X125540976Y-79365017D01*
X125625209Y-79474791D01*
X125635554Y-79482729D01*
X125714122Y-79543017D01*
X125734982Y-79559024D01*
X125747030Y-79564014D01*
X125747031Y-79564015D01*
X125774431Y-79575364D01*
X125862817Y-79611974D01*
X126000000Y-79630035D01*
X126137183Y-79611974D01*
X126225569Y-79575364D01*
X126252969Y-79564015D01*
X126252970Y-79564014D01*
X126265018Y-79559024D01*
X126285879Y-79543017D01*
X126364446Y-79482729D01*
X126374791Y-79474791D01*
X126459024Y-79365017D01*
X126487798Y-79295549D01*
X126506983Y-79249233D01*
X126506983Y-79249232D01*
X126511974Y-79237183D01*
X126530035Y-79100000D01*
X126511974Y-78962817D01*
X126500682Y-78935554D01*
X126464016Y-78847035D01*
X126459024Y-78834983D01*
X126374791Y-78725209D01*
X126310641Y-78675984D01*
X126275367Y-78648917D01*
X126275366Y-78648916D01*
X126265018Y-78640976D01*
X126252970Y-78635986D01*
X126252969Y-78635985D01*
X126218800Y-78621832D01*
X126137183Y-78588026D01*
X126000000Y-78569965D01*
X125862817Y-78588026D01*
X125850768Y-78593017D01*
X125850767Y-78593017D01*
X125770356Y-78626324D01*
X125734983Y-78640976D01*
X125625209Y-78725209D01*
X125540976Y-78834983D01*
X125535984Y-78847035D01*
X125499319Y-78935554D01*
X125488026Y-78962817D01*
X125469965Y-79100000D01*
X120785955Y-79100000D01*
X120764016Y-79047035D01*
X120759024Y-79034983D01*
X120674791Y-78925209D01*
X120565018Y-78840976D01*
X120552970Y-78835986D01*
X120552969Y-78835985D01*
X120503184Y-78815364D01*
X120437183Y-78788026D01*
X120300000Y-78769965D01*
X120162817Y-78788026D01*
X120150768Y-78793017D01*
X120150767Y-78793017D01*
X120081597Y-78821668D01*
X120034983Y-78840976D01*
X119925209Y-78925209D01*
X119840976Y-79034983D01*
X119835984Y-79047035D01*
X119797926Y-79138917D01*
X119788026Y-79162817D01*
X119769965Y-79300000D01*
X119323452Y-79300000D01*
X119311974Y-79212817D01*
X119302509Y-79189965D01*
X119264016Y-79097035D01*
X119259024Y-79084983D01*
X119174791Y-78975209D01*
X119106400Y-78922730D01*
X119075367Y-78898917D01*
X119075366Y-78898916D01*
X119065018Y-78890976D01*
X119052970Y-78885986D01*
X119052969Y-78885985D01*
X119001426Y-78864636D01*
X118937183Y-78838026D01*
X118800000Y-78819965D01*
X118662817Y-78838026D01*
X118650768Y-78843017D01*
X118650767Y-78843017D01*
X118598574Y-78864636D01*
X118534983Y-78890976D01*
X118425209Y-78975209D01*
X118340976Y-79084983D01*
X118335984Y-79097035D01*
X118297492Y-79189965D01*
X118288026Y-79212817D01*
X118269965Y-79350000D01*
X109099999Y-79350000D01*
X109100000Y-77820000D01*
X127669965Y-77820000D01*
X127688026Y-77957183D01*
X127740976Y-78085017D01*
X127825209Y-78194791D01*
X127934982Y-78279024D01*
X127947030Y-78284014D01*
X127947031Y-78284015D01*
X127981200Y-78298168D01*
X128062817Y-78331974D01*
X128200000Y-78350035D01*
X128337183Y-78331974D01*
X128418800Y-78298168D01*
X128452969Y-78284015D01*
X128452970Y-78284014D01*
X128465018Y-78279024D01*
X128533560Y-78226429D01*
X128614057Y-78189501D01*
X128702605Y-78191156D01*
X128730859Y-78200453D01*
X128770767Y-78216984D01*
X128770775Y-78216986D01*
X128782817Y-78221974D01*
X128920000Y-78240035D01*
X129057183Y-78221974D01*
X129169253Y-78175554D01*
X129172969Y-78174015D01*
X129172970Y-78174014D01*
X129185018Y-78169024D01*
X129294791Y-78084791D01*
X129379024Y-77975017D01*
X129431974Y-77847183D01*
X129450035Y-77710000D01*
X129431974Y-77572817D01*
X129421129Y-77546633D01*
X129384016Y-77457035D01*
X129379024Y-77444983D01*
X129294791Y-77335209D01*
X129196778Y-77260000D01*
X129899965Y-77260000D01*
X129918026Y-77397183D01*
X129923017Y-77409232D01*
X129923017Y-77409233D01*
X129933539Y-77434636D01*
X129970976Y-77525017D01*
X130055209Y-77634791D01*
X130088996Y-77660717D01*
X130134649Y-77695748D01*
X130164982Y-77719024D01*
X130177030Y-77724014D01*
X130177031Y-77724015D01*
X130184820Y-77727241D01*
X130292817Y-77771974D01*
X130430000Y-77790035D01*
X130567183Y-77771974D01*
X130675180Y-77727241D01*
X130682969Y-77724015D01*
X130682970Y-77724014D01*
X130695018Y-77719024D01*
X130725352Y-77695748D01*
X130771004Y-77660717D01*
X130804791Y-77634791D01*
X130889024Y-77525017D01*
X130926461Y-77434636D01*
X130936983Y-77409233D01*
X130936983Y-77409232D01*
X130941974Y-77397183D01*
X130960035Y-77260000D01*
X130941974Y-77122817D01*
X130889024Y-76994983D01*
X130804791Y-76885209D01*
X130695018Y-76800976D01*
X130682970Y-76795986D01*
X130682969Y-76795985D01*
X130636262Y-76776639D01*
X130567183Y-76748026D01*
X130430000Y-76729965D01*
X130292817Y-76748026D01*
X130280768Y-76753017D01*
X130280767Y-76753017D01*
X130223738Y-76776639D01*
X130164983Y-76800976D01*
X130055209Y-76885209D01*
X129970976Y-76994983D01*
X129918026Y-77122817D01*
X129899965Y-77260000D01*
X129196778Y-77260000D01*
X129185018Y-77250976D01*
X129172970Y-77245986D01*
X129172969Y-77245985D01*
X129138800Y-77231832D01*
X129057183Y-77198026D01*
X128920000Y-77179965D01*
X128782817Y-77198026D01*
X128770768Y-77203017D01*
X128770767Y-77203017D01*
X128685518Y-77238328D01*
X128654983Y-77250976D01*
X128597588Y-77295017D01*
X128586439Y-77303572D01*
X128505942Y-77340500D01*
X128417394Y-77338844D01*
X128389141Y-77329547D01*
X128349233Y-77313016D01*
X128349225Y-77313014D01*
X128337183Y-77308026D01*
X128200000Y-77289965D01*
X128062817Y-77308026D01*
X128050768Y-77313017D01*
X128050767Y-77313017D01*
X127988415Y-77338844D01*
X127934983Y-77360976D01*
X127825209Y-77445209D01*
X127740976Y-77554983D01*
X127735984Y-77567035D01*
X127709340Y-77631361D01*
X127688026Y-77682817D01*
X127669965Y-77820000D01*
X109100000Y-77820000D01*
X109100000Y-76786314D01*
X111219876Y-76786314D01*
X111235884Y-76976948D01*
X111288614Y-77160843D01*
X111293062Y-77169497D01*
X111293062Y-77169498D01*
X111366822Y-77313017D01*
X111376060Y-77330993D01*
X111382105Y-77338620D01*
X111382107Y-77338623D01*
X111488840Y-77473287D01*
X111488844Y-77473291D01*
X111494889Y-77480918D01*
X111558863Y-77535364D01*
X111633159Y-77598596D01*
X111633162Y-77598598D01*
X111640575Y-77604907D01*
X111649068Y-77609654D01*
X111649073Y-77609657D01*
X111799075Y-77693490D01*
X111799081Y-77693492D01*
X111807570Y-77698237D01*
X111816825Y-77701244D01*
X111816827Y-77701245D01*
X111980253Y-77754346D01*
X111980257Y-77754347D01*
X111989512Y-77757354D01*
X111999176Y-77758506D01*
X111999179Y-77758507D01*
X112169809Y-77778853D01*
X112169811Y-77778853D01*
X112179472Y-77780005D01*
X112370213Y-77765328D01*
X112554472Y-77713882D01*
X112563151Y-77709498D01*
X112563156Y-77709496D01*
X112716547Y-77632012D01*
X112716546Y-77632012D01*
X112725228Y-77627627D01*
X112875979Y-77509848D01*
X112893254Y-77489834D01*
X112964588Y-77437352D01*
X113051632Y-77421018D01*
X113137143Y-77444067D01*
X113204185Y-77501936D01*
X113225845Y-77546633D01*
X113227618Y-77545846D01*
X113263944Y-77627627D01*
X113273061Y-77648153D01*
X113312740Y-77687763D01*
X113338959Y-77713936D01*
X113352287Y-77727241D01*
X113420400Y-77757354D01*
X113440681Y-77766320D01*
X113454673Y-77772506D01*
X113469533Y-77774238D01*
X113469535Y-77774239D01*
X113474612Y-77774831D01*
X113474619Y-77774831D01*
X113480354Y-77775500D01*
X114919646Y-77775500D01*
X114925484Y-77774805D01*
X114925488Y-77774805D01*
X114931019Y-77774147D01*
X114931022Y-77774146D01*
X114945846Y-77772382D01*
X114959494Y-77766320D01*
X115031361Y-77734398D01*
X115031362Y-77734397D01*
X115048153Y-77726939D01*
X115104227Y-77670767D01*
X115114260Y-77660717D01*
X115114261Y-77660716D01*
X115127241Y-77647713D01*
X115172506Y-77545327D01*
X115175500Y-77519646D01*
X115175500Y-76080354D01*
X115172382Y-76054154D01*
X115151453Y-76007035D01*
X115134398Y-75968639D01*
X115134397Y-75968638D01*
X115126939Y-75951847D01*
X115066142Y-75891156D01*
X115060717Y-75885740D01*
X115060716Y-75885739D01*
X115047713Y-75872759D01*
X114970864Y-75838784D01*
X114959012Y-75833544D01*
X114959011Y-75833544D01*
X114945327Y-75827494D01*
X114930467Y-75825762D01*
X114930465Y-75825761D01*
X114925388Y-75825169D01*
X114925381Y-75825169D01*
X114919646Y-75824500D01*
X113480354Y-75824500D01*
X113474516Y-75825195D01*
X113474512Y-75825195D01*
X113468981Y-75825853D01*
X113468978Y-75825854D01*
X113454154Y-75827618D01*
X113440507Y-75833680D01*
X113440506Y-75833680D01*
X113368639Y-75865602D01*
X113368638Y-75865603D01*
X113351847Y-75873061D01*
X113328578Y-75896371D01*
X113286156Y-75938867D01*
X113272759Y-75952287D01*
X113227494Y-76054673D01*
X113224257Y-76053242D01*
X113194683Y-76108614D01*
X113123197Y-76160895D01*
X113036107Y-76176982D01*
X112950662Y-76153688D01*
X112903208Y-76118378D01*
X112901688Y-76116848D01*
X112895535Y-76109303D01*
X112846794Y-76068981D01*
X112755628Y-75993562D01*
X112755627Y-75993561D01*
X112748132Y-75987361D01*
X112579851Y-75896371D01*
X112397101Y-75839801D01*
X112249208Y-75824257D01*
X112216520Y-75820821D01*
X112216519Y-75820821D01*
X112206843Y-75819804D01*
X112016325Y-75837142D01*
X112006986Y-75839891D01*
X112006984Y-75839891D01*
X111842149Y-75888405D01*
X111842146Y-75888406D01*
X111832803Y-75891156D01*
X111824175Y-75895666D01*
X111824169Y-75895669D01*
X111689477Y-75966085D01*
X111663268Y-75979787D01*
X111514176Y-76099660D01*
X111449295Y-76176982D01*
X111420681Y-76211083D01*
X111391207Y-76246208D01*
X111299045Y-76413850D01*
X111296103Y-76423125D01*
X111296102Y-76423127D01*
X111245973Y-76581156D01*
X111241200Y-76596201D01*
X111227424Y-76719024D01*
X111222269Y-76764983D01*
X111219876Y-76786314D01*
X109100000Y-76786314D01*
X109100000Y-75060000D01*
X122739965Y-75060000D01*
X122758026Y-75197183D01*
X122763017Y-75209232D01*
X122763017Y-75209233D01*
X122781153Y-75253017D01*
X122810976Y-75325017D01*
X122895209Y-75434791D01*
X122905554Y-75442729D01*
X122973652Y-75494983D01*
X123004982Y-75519024D01*
X123017030Y-75524014D01*
X123017031Y-75524015D01*
X123038639Y-75532965D01*
X123132817Y-75571974D01*
X123270000Y-75590035D01*
X123407183Y-75571974D01*
X123501361Y-75532965D01*
X123522969Y-75524015D01*
X123522970Y-75524014D01*
X123535018Y-75519024D01*
X123566349Y-75494983D01*
X123634446Y-75442729D01*
X123644791Y-75434791D01*
X123729024Y-75325017D01*
X123758847Y-75253017D01*
X123776983Y-75209233D01*
X123776983Y-75209232D01*
X123781974Y-75197183D01*
X123800035Y-75060000D01*
X123794769Y-75020000D01*
X126749965Y-75020000D01*
X126768026Y-75157183D01*
X126773017Y-75169232D01*
X126773017Y-75169233D01*
X126798173Y-75229965D01*
X126820976Y-75285017D01*
X126905209Y-75394791D01*
X127014982Y-75479024D01*
X127027030Y-75484014D01*
X127027031Y-75484015D01*
X127053511Y-75494983D01*
X127142817Y-75531974D01*
X127280000Y-75550035D01*
X127417183Y-75531974D01*
X127506489Y-75494983D01*
X127532969Y-75484015D01*
X127532970Y-75484014D01*
X127545018Y-75479024D01*
X127654791Y-75394791D01*
X127660386Y-75387500D01*
X131859965Y-75387500D01*
X131878026Y-75524683D01*
X131883017Y-75536732D01*
X131883017Y-75536733D01*
X131888527Y-75550035D01*
X131930976Y-75652517D01*
X132015209Y-75762291D01*
X132025554Y-75770229D01*
X132108244Y-75833680D01*
X132124982Y-75846524D01*
X132137030Y-75851514D01*
X132137031Y-75851515D01*
X132170382Y-75865329D01*
X132252817Y-75899474D01*
X132390000Y-75917535D01*
X132527183Y-75899474D01*
X132609618Y-75865329D01*
X132642969Y-75851515D01*
X132642970Y-75851514D01*
X132655018Y-75846524D01*
X132671757Y-75833680D01*
X132754446Y-75770229D01*
X132764791Y-75762291D01*
X132766549Y-75760000D01*
X144309965Y-75760000D01*
X144328026Y-75897183D01*
X144333017Y-75909232D01*
X144333017Y-75909233D01*
X144357624Y-75968639D01*
X144380976Y-76025017D01*
X144465209Y-76134791D01*
X144574982Y-76219024D01*
X144587030Y-76224014D01*
X144587031Y-76224015D01*
X144621200Y-76238168D01*
X144702817Y-76271974D01*
X144840000Y-76290035D01*
X144977183Y-76271974D01*
X145006092Y-76260000D01*
X151879965Y-76260000D01*
X151898026Y-76397183D01*
X151903017Y-76409232D01*
X151903017Y-76409233D01*
X151905541Y-76415326D01*
X151950976Y-76525017D01*
X152035209Y-76634791D01*
X152045554Y-76642729D01*
X152054778Y-76651953D01*
X152053372Y-76653359D01*
X152099340Y-76708844D01*
X152120655Y-76794804D01*
X152105543Y-76874670D01*
X152098026Y-76892817D01*
X152079965Y-77030000D01*
X152098026Y-77167183D01*
X152103017Y-77179232D01*
X152103017Y-77179233D01*
X152131114Y-77247065D01*
X152150976Y-77295017D01*
X152235209Y-77404791D01*
X152344982Y-77489024D01*
X152357030Y-77494014D01*
X152357031Y-77494015D01*
X152376155Y-77501936D01*
X152472817Y-77541974D01*
X152610000Y-77560035D01*
X152747183Y-77541974D01*
X152843845Y-77501936D01*
X152862969Y-77494015D01*
X152862970Y-77494014D01*
X152875018Y-77489024D01*
X152984791Y-77404791D01*
X153069024Y-77295017D01*
X153088886Y-77247065D01*
X153116983Y-77179233D01*
X153116983Y-77179232D01*
X153121974Y-77167183D01*
X153140035Y-77030000D01*
X153121974Y-76892817D01*
X153069024Y-76764983D01*
X152984791Y-76655209D01*
X152974446Y-76647271D01*
X152965222Y-76638047D01*
X152966628Y-76636641D01*
X152920660Y-76581156D01*
X152899345Y-76495196D01*
X152914457Y-76415330D01*
X152921974Y-76397183D01*
X152940035Y-76260000D01*
X152921974Y-76122817D01*
X152916377Y-76109303D01*
X152874016Y-76007035D01*
X152869024Y-75994983D01*
X152784791Y-75885209D01*
X152709738Y-75827618D01*
X152685367Y-75808917D01*
X152685366Y-75808916D01*
X152675018Y-75800976D01*
X152662970Y-75795986D01*
X152662969Y-75795985D01*
X152617095Y-75776984D01*
X152547183Y-75748026D01*
X152410000Y-75729965D01*
X152272817Y-75748026D01*
X152260768Y-75753017D01*
X152260767Y-75753017D01*
X152202905Y-75776984D01*
X152144983Y-75800976D01*
X152035209Y-75885209D01*
X151950976Y-75994983D01*
X151945984Y-76007035D01*
X151903624Y-76109303D01*
X151898026Y-76122817D01*
X151879965Y-76260000D01*
X145006092Y-76260000D01*
X145058800Y-76238168D01*
X145092969Y-76224015D01*
X145092970Y-76224014D01*
X145105018Y-76219024D01*
X145214791Y-76134791D01*
X145299024Y-76025017D01*
X145322376Y-75968639D01*
X145346983Y-75909233D01*
X145346983Y-75909232D01*
X145351974Y-75897183D01*
X145370035Y-75760000D01*
X145351974Y-75622817D01*
X145338396Y-75590035D01*
X145304016Y-75507035D01*
X145299024Y-75494983D01*
X145214791Y-75385209D01*
X145149833Y-75335364D01*
X145115367Y-75308917D01*
X145115366Y-75308916D01*
X145105018Y-75300976D01*
X145092970Y-75295986D01*
X145092969Y-75295985D01*
X145058800Y-75281832D01*
X145030234Y-75270000D01*
X147029965Y-75270000D01*
X147048026Y-75407183D01*
X147053017Y-75419232D01*
X147053017Y-75419233D01*
X147080108Y-75484636D01*
X147100976Y-75535017D01*
X147185209Y-75644791D01*
X147294982Y-75729024D01*
X147307030Y-75734014D01*
X147307031Y-75734015D01*
X147331174Y-75744015D01*
X147422817Y-75781974D01*
X147560000Y-75800035D01*
X147697183Y-75781974D01*
X147788826Y-75744015D01*
X147812969Y-75734015D01*
X147812970Y-75734014D01*
X147825018Y-75729024D01*
X147934791Y-75644791D01*
X148019024Y-75535017D01*
X148039892Y-75484636D01*
X148066983Y-75419233D01*
X148066983Y-75419232D01*
X148071974Y-75407183D01*
X148074491Y-75388063D01*
X148105301Y-75305033D01*
X148169086Y-75243592D01*
X148195635Y-75230189D01*
X148282969Y-75194015D01*
X148282970Y-75194014D01*
X148295018Y-75189024D01*
X148331868Y-75160748D01*
X148394446Y-75112729D01*
X148404791Y-75104791D01*
X148420087Y-75084857D01*
X148488284Y-75028354D01*
X148574244Y-75007036D01*
X148603930Y-75008703D01*
X148690000Y-75020035D01*
X148827183Y-75001974D01*
X148932546Y-74958332D01*
X148942969Y-74954015D01*
X148942970Y-74954014D01*
X148955018Y-74949024D01*
X148970723Y-74936973D01*
X149051219Y-74900043D01*
X149139767Y-74901697D01*
X149168024Y-74910994D01*
X149242817Y-74941974D01*
X149380000Y-74960035D01*
X149517183Y-74941974D01*
X149645018Y-74889024D01*
X149645248Y-74889579D01*
X149720011Y-74866519D01*
X149807585Y-74879720D01*
X149880759Y-74929611D01*
X149925039Y-75006310D01*
X149931656Y-75094626D01*
X149925198Y-75117848D01*
X149926393Y-75118168D01*
X149923017Y-75130767D01*
X149918026Y-75142817D01*
X149899965Y-75280000D01*
X149918026Y-75417183D01*
X149923017Y-75429232D01*
X149923017Y-75429233D01*
X149956920Y-75511083D01*
X149970976Y-75545017D01*
X150055209Y-75654791D01*
X150164982Y-75739024D01*
X150177030Y-75744014D01*
X150177031Y-75744015D01*
X150196179Y-75751946D01*
X150292817Y-75791974D01*
X150430000Y-75810035D01*
X150567183Y-75791974D01*
X150663821Y-75751946D01*
X150682969Y-75744015D01*
X150682970Y-75744014D01*
X150695018Y-75739024D01*
X150804791Y-75654791D01*
X150889024Y-75545017D01*
X150903080Y-75511083D01*
X150936983Y-75429233D01*
X150936983Y-75429232D01*
X150941974Y-75417183D01*
X150959377Y-75285000D01*
X153944965Y-75285000D01*
X153963026Y-75422183D01*
X154015976Y-75550017D01*
X154100209Y-75659791D01*
X154110554Y-75667729D01*
X154193880Y-75731668D01*
X154209982Y-75744024D01*
X154222030Y-75749014D01*
X154222031Y-75749015D01*
X154231691Y-75753016D01*
X154337817Y-75796974D01*
X154475000Y-75815035D01*
X154612183Y-75796974D01*
X154718309Y-75753016D01*
X154727969Y-75749015D01*
X154727970Y-75749014D01*
X154740018Y-75744024D01*
X154756121Y-75731668D01*
X154839446Y-75667729D01*
X154849791Y-75659791D01*
X154934024Y-75550017D01*
X154986974Y-75422183D01*
X155005035Y-75285000D01*
X154986974Y-75147817D01*
X154981473Y-75134535D01*
X154939016Y-75032035D01*
X154934024Y-75019983D01*
X154849791Y-74910209D01*
X154740018Y-74825976D01*
X154727970Y-74820986D01*
X154727969Y-74820985D01*
X154688872Y-74804791D01*
X154612183Y-74773026D01*
X154475000Y-74754965D01*
X154337817Y-74773026D01*
X154325768Y-74778017D01*
X154325767Y-74778017D01*
X154261129Y-74804791D01*
X154209983Y-74825976D01*
X154100209Y-74910209D01*
X154015976Y-75019983D01*
X154010984Y-75032035D01*
X153968528Y-75134535D01*
X153963026Y-75147817D01*
X153944965Y-75285000D01*
X150959377Y-75285000D01*
X150960035Y-75280000D01*
X150941974Y-75142817D01*
X150933552Y-75122483D01*
X150894016Y-75027035D01*
X150889024Y-75014983D01*
X150804791Y-74905209D01*
X150711883Y-74833917D01*
X150705367Y-74828917D01*
X150705366Y-74828916D01*
X150695018Y-74820976D01*
X150682970Y-74815986D01*
X150682969Y-74815985D01*
X150632264Y-74794983D01*
X150567183Y-74768026D01*
X150430000Y-74749965D01*
X150292817Y-74768026D01*
X150280768Y-74773017D01*
X150280767Y-74773017D01*
X150177034Y-74815984D01*
X150177032Y-74815985D01*
X150164983Y-74820976D01*
X150164753Y-74820421D01*
X150089993Y-74843482D01*
X150002419Y-74830283D01*
X149929244Y-74780394D01*
X149884962Y-74703696D01*
X149878343Y-74615381D01*
X149884798Y-74592151D01*
X149883607Y-74591832D01*
X149886983Y-74579233D01*
X149891974Y-74567183D01*
X149910035Y-74430000D01*
X149908332Y-74417065D01*
X149908332Y-74410465D01*
X149928039Y-74324122D01*
X149983258Y-74254881D01*
X150063050Y-74216454D01*
X150151614Y-74216454D01*
X150200650Y-74235700D01*
X150204982Y-74239024D01*
X150217031Y-74244015D01*
X150217033Y-74244016D01*
X150264727Y-74263771D01*
X150332817Y-74291974D01*
X150470000Y-74310035D01*
X150607183Y-74291974D01*
X150696735Y-74254881D01*
X150722969Y-74244015D01*
X150722970Y-74244014D01*
X150735018Y-74239024D01*
X150753317Y-74224983D01*
X150834446Y-74162729D01*
X150844791Y-74154791D01*
X150929024Y-74045017D01*
X150959321Y-73971872D01*
X150976983Y-73929233D01*
X150976983Y-73929232D01*
X150981974Y-73917183D01*
X151000035Y-73780000D01*
X150981974Y-73642817D01*
X150969103Y-73611742D01*
X150934016Y-73527035D01*
X150929024Y-73514983D01*
X150844791Y-73405209D01*
X150735018Y-73320976D01*
X150722970Y-73315986D01*
X150722969Y-73315985D01*
X150671426Y-73294636D01*
X150607183Y-73268026D01*
X150470000Y-73249965D01*
X150332817Y-73268026D01*
X150320768Y-73273017D01*
X150320767Y-73273017D01*
X150268574Y-73294636D01*
X150204983Y-73320976D01*
X150095209Y-73405209D01*
X150010976Y-73514983D01*
X150005984Y-73527035D01*
X149970898Y-73611742D01*
X149958026Y-73642817D01*
X149939965Y-73780000D01*
X149941668Y-73792935D01*
X149941668Y-73799535D01*
X149921961Y-73885878D01*
X149866742Y-73955119D01*
X149786950Y-73993546D01*
X149698386Y-73993546D01*
X149649350Y-73974300D01*
X149645018Y-73970976D01*
X149632969Y-73965985D01*
X149632967Y-73965984D01*
X149556825Y-73934446D01*
X149517183Y-73918026D01*
X149380000Y-73899965D01*
X149242817Y-73918026D01*
X149230768Y-73923017D01*
X149230767Y-73923017D01*
X149203175Y-73934446D01*
X149114983Y-73970976D01*
X149099320Y-73982995D01*
X149099274Y-73983030D01*
X149018777Y-74019958D01*
X148930229Y-74018302D01*
X148901977Y-74009006D01*
X148881441Y-74000500D01*
X148827183Y-73978026D01*
X148690000Y-73959965D01*
X148552817Y-73978026D01*
X148540768Y-73983017D01*
X148540767Y-73983017D01*
X148498559Y-74000500D01*
X148424983Y-74030976D01*
X148315209Y-74115209D01*
X148307271Y-74125554D01*
X148299913Y-74135143D01*
X148231716Y-74191646D01*
X148145756Y-74212964D01*
X148116070Y-74211297D01*
X148030000Y-74199965D01*
X147892817Y-74218026D01*
X147880768Y-74223017D01*
X147880767Y-74223017D01*
X147876021Y-74224983D01*
X147764983Y-74270976D01*
X147655209Y-74355209D01*
X147570976Y-74464983D01*
X147565984Y-74477035D01*
X147527926Y-74568917D01*
X147518026Y-74592817D01*
X147515509Y-74611936D01*
X147484700Y-74694967D01*
X147420915Y-74756408D01*
X147394365Y-74769811D01*
X147386625Y-74773017D01*
X147294983Y-74810976D01*
X147185209Y-74895209D01*
X147100976Y-75004983D01*
X147095984Y-75017035D01*
X147056347Y-75112729D01*
X147048026Y-75132817D01*
X147029965Y-75270000D01*
X145030234Y-75270000D01*
X144977183Y-75248026D01*
X144840000Y-75229965D01*
X144702817Y-75248026D01*
X144690768Y-75253017D01*
X144690767Y-75253017D01*
X144666067Y-75263248D01*
X144574983Y-75300976D01*
X144465209Y-75385209D01*
X144380976Y-75494983D01*
X144375984Y-75507035D01*
X144341605Y-75590035D01*
X144328026Y-75622817D01*
X144309965Y-75760000D01*
X132766549Y-75760000D01*
X132849024Y-75652517D01*
X132891473Y-75550035D01*
X132896983Y-75536733D01*
X132896983Y-75536732D01*
X132901974Y-75524683D01*
X132920035Y-75387500D01*
X132901974Y-75250317D01*
X132894250Y-75231668D01*
X132854016Y-75134535D01*
X132849024Y-75122483D01*
X132764791Y-75012709D01*
X132666106Y-74936984D01*
X132665367Y-74936417D01*
X132665366Y-74936416D01*
X132655018Y-74928476D01*
X132642970Y-74923486D01*
X132642969Y-74923485D01*
X132591752Y-74902271D01*
X132527183Y-74875526D01*
X132390000Y-74857465D01*
X132252817Y-74875526D01*
X132240768Y-74880517D01*
X132240767Y-74880517D01*
X132203996Y-74895748D01*
X132124983Y-74928476D01*
X132015209Y-75012709D01*
X131930976Y-75122483D01*
X131925984Y-75134535D01*
X131885751Y-75231668D01*
X131878026Y-75250317D01*
X131859965Y-75387500D01*
X127660386Y-75387500D01*
X127739024Y-75285017D01*
X127761827Y-75229965D01*
X127786983Y-75169233D01*
X127786983Y-75169232D01*
X127791974Y-75157183D01*
X127810035Y-75020000D01*
X127791974Y-74882817D01*
X127784508Y-74864791D01*
X127745166Y-74769811D01*
X127739024Y-74754983D01*
X127654791Y-74645209D01*
X127590641Y-74595984D01*
X127555367Y-74568917D01*
X127555366Y-74568916D01*
X127545018Y-74560976D01*
X127532970Y-74555986D01*
X127532969Y-74555985D01*
X127498800Y-74541832D01*
X127417183Y-74508026D01*
X127280000Y-74489965D01*
X127142817Y-74508026D01*
X127130768Y-74513017D01*
X127130767Y-74513017D01*
X127050356Y-74546324D01*
X127014983Y-74560976D01*
X126905209Y-74645209D01*
X126820976Y-74754983D01*
X126814834Y-74769811D01*
X126775493Y-74864791D01*
X126768026Y-74882817D01*
X126749965Y-75020000D01*
X123794769Y-75020000D01*
X123781974Y-74922817D01*
X123760415Y-74870767D01*
X123734016Y-74807035D01*
X123729024Y-74794983D01*
X123644791Y-74685209D01*
X123535018Y-74600976D01*
X123522970Y-74595986D01*
X123522969Y-74595985D01*
X123457619Y-74568917D01*
X123407183Y-74548026D01*
X123270000Y-74529965D01*
X123132817Y-74548026D01*
X123120768Y-74553017D01*
X123120767Y-74553017D01*
X123082381Y-74568917D01*
X123004983Y-74600976D01*
X122895209Y-74685209D01*
X122810976Y-74794983D01*
X122805984Y-74807035D01*
X122779586Y-74870767D01*
X122758026Y-74922817D01*
X122739965Y-75060000D01*
X109100000Y-75060000D01*
X109100000Y-72525244D01*
X109119707Y-72438901D01*
X109174926Y-72369660D01*
X109254718Y-72331233D01*
X109343282Y-72331233D01*
X109423074Y-72369660D01*
X109479061Y-72440513D01*
X109490754Y-72465364D01*
X109601799Y-72701347D01*
X109601803Y-72701355D01*
X109604463Y-72707007D01*
X109773053Y-72972663D01*
X109777036Y-72977477D01*
X109777037Y-72977479D01*
X109969631Y-73210285D01*
X109969636Y-73210291D01*
X109973610Y-73215094D01*
X109978158Y-73219365D01*
X109978160Y-73219367D01*
X110192629Y-73420767D01*
X110202970Y-73430478D01*
X110208025Y-73434150D01*
X110208029Y-73434154D01*
X110452459Y-73611742D01*
X110457516Y-73615416D01*
X110733234Y-73766994D01*
X111025775Y-73882819D01*
X111092554Y-73899965D01*
X111324465Y-73959510D01*
X111324472Y-73959511D01*
X111330527Y-73961066D01*
X111642682Y-74000500D01*
X111957318Y-74000500D01*
X112269473Y-73961066D01*
X112275528Y-73959511D01*
X112275535Y-73959510D01*
X112507446Y-73899965D01*
X112574225Y-73882819D01*
X112866766Y-73766994D01*
X113142484Y-73615416D01*
X113147541Y-73611742D01*
X113204994Y-73570000D01*
X144509965Y-73570000D01*
X144528026Y-73707183D01*
X144580976Y-73835017D01*
X144665209Y-73944791D01*
X144774982Y-74029024D01*
X144787030Y-74034014D01*
X144787031Y-74034015D01*
X144813593Y-74045017D01*
X144902817Y-74081974D01*
X145040000Y-74100035D01*
X145177183Y-74081974D01*
X145266407Y-74045017D01*
X145292969Y-74034015D01*
X145292970Y-74034014D01*
X145305018Y-74029024D01*
X145414791Y-73944791D01*
X145499024Y-73835017D01*
X145551974Y-73707183D01*
X145570035Y-73570000D01*
X145551974Y-73432817D01*
X145499024Y-73304983D01*
X145414791Y-73195209D01*
X145305018Y-73110976D01*
X145292970Y-73105986D01*
X145292969Y-73105985D01*
X145258800Y-73091832D01*
X145177183Y-73058026D01*
X145040000Y-73039965D01*
X144902817Y-73058026D01*
X144890768Y-73063017D01*
X144890767Y-73063017D01*
X144805518Y-73098328D01*
X144774983Y-73110976D01*
X144665209Y-73195209D01*
X144580976Y-73304983D01*
X144528026Y-73432817D01*
X144509965Y-73570000D01*
X113204994Y-73570000D01*
X113391971Y-73434154D01*
X113391975Y-73434150D01*
X113397030Y-73430478D01*
X113407371Y-73420767D01*
X113621840Y-73219367D01*
X113621842Y-73219365D01*
X113626390Y-73215094D01*
X113630364Y-73210291D01*
X113630369Y-73210285D01*
X113822963Y-72977479D01*
X113822964Y-72977477D01*
X113826947Y-72972663D01*
X113995537Y-72707007D01*
X113998197Y-72701355D01*
X113998201Y-72701347D01*
X114126840Y-72427975D01*
X114126842Y-72427970D01*
X114129503Y-72422315D01*
X114136754Y-72400000D01*
X114204987Y-72190000D01*
X116169965Y-72190000D01*
X116188026Y-72327183D01*
X116240976Y-72455017D01*
X116325209Y-72564791D01*
X116434982Y-72649024D01*
X116447030Y-72654014D01*
X116447031Y-72654015D01*
X116473593Y-72665017D01*
X116562817Y-72701974D01*
X116700000Y-72720035D01*
X116837183Y-72701974D01*
X116926407Y-72665017D01*
X116952969Y-72654015D01*
X116952970Y-72654014D01*
X116965018Y-72649024D01*
X117074791Y-72564791D01*
X117159024Y-72455017D01*
X117181813Y-72400000D01*
X117769965Y-72400000D01*
X117788026Y-72537183D01*
X117840976Y-72665017D01*
X117925209Y-72774791D01*
X118034982Y-72859024D01*
X118047030Y-72864014D01*
X118047031Y-72864015D01*
X118081200Y-72878168D01*
X118162817Y-72911974D01*
X118300000Y-72930035D01*
X118437183Y-72911974D01*
X118518800Y-72878168D01*
X118552969Y-72864015D01*
X118552970Y-72864014D01*
X118565018Y-72859024D01*
X118674791Y-72774791D01*
X118759024Y-72665017D01*
X118811974Y-72537183D01*
X118830035Y-72400000D01*
X118811974Y-72262817D01*
X118759024Y-72134983D01*
X118674791Y-72025209D01*
X118565018Y-71940976D01*
X118552970Y-71935986D01*
X118552969Y-71935985D01*
X118501426Y-71914636D01*
X118453165Y-71894646D01*
X138724500Y-71894646D01*
X138727618Y-71920846D01*
X138733680Y-71934493D01*
X138733680Y-71934494D01*
X138763944Y-72002627D01*
X138773061Y-72023153D01*
X138786064Y-72036133D01*
X138838959Y-72088936D01*
X138852287Y-72102241D01*
X138920400Y-72132354D01*
X138940681Y-72141320D01*
X138954673Y-72147506D01*
X138969533Y-72149238D01*
X138969535Y-72149239D01*
X138974612Y-72149831D01*
X138974619Y-72149831D01*
X138980354Y-72150500D01*
X140419646Y-72150500D01*
X140425484Y-72149805D01*
X140425488Y-72149805D01*
X140431019Y-72149147D01*
X140431022Y-72149146D01*
X140445846Y-72147382D01*
X140459494Y-72141320D01*
X140531361Y-72109398D01*
X140531362Y-72109397D01*
X140548153Y-72101939D01*
X140587763Y-72062260D01*
X140614260Y-72035717D01*
X140614261Y-72035716D01*
X140627241Y-72022713D01*
X140672506Y-71920327D01*
X140675730Y-71921752D01*
X140705347Y-71866312D01*
X140776838Y-71814040D01*
X140863930Y-71797962D01*
X140949373Y-71821265D01*
X140994331Y-71855214D01*
X140994889Y-71855918D01*
X141002301Y-71862226D01*
X141133159Y-71973596D01*
X141133162Y-71973598D01*
X141140575Y-71979907D01*
X141149068Y-71984654D01*
X141149073Y-71984657D01*
X141299075Y-72068490D01*
X141299081Y-72068492D01*
X141307570Y-72073237D01*
X141316825Y-72076244D01*
X141316827Y-72076245D01*
X141480253Y-72129346D01*
X141480257Y-72129347D01*
X141489512Y-72132354D01*
X141499176Y-72133506D01*
X141499179Y-72133507D01*
X141669809Y-72153853D01*
X141669811Y-72153853D01*
X141679472Y-72155005D01*
X141870213Y-72140328D01*
X142054472Y-72088882D01*
X142063151Y-72084498D01*
X142063156Y-72084496D01*
X142216547Y-72007012D01*
X142216546Y-72007012D01*
X142225228Y-72002627D01*
X142375979Y-71884848D01*
X142407538Y-71848287D01*
X142438480Y-71812439D01*
X142500982Y-71740030D01*
X142525300Y-71697223D01*
X142585083Y-71631884D01*
X142667297Y-71598954D01*
X142755657Y-71604957D01*
X142832662Y-71648702D01*
X142864474Y-71690354D01*
X142866337Y-71689153D01*
X142871612Y-71697338D01*
X142876060Y-71705993D01*
X142882105Y-71713620D01*
X142882107Y-71713623D01*
X142988840Y-71848287D01*
X142988844Y-71848291D01*
X142994889Y-71855918D01*
X143053757Y-71906019D01*
X143133159Y-71973596D01*
X143133162Y-71973598D01*
X143140575Y-71979907D01*
X143149068Y-71984654D01*
X143149073Y-71984657D01*
X143299075Y-72068490D01*
X143299081Y-72068492D01*
X143307570Y-72073237D01*
X143316825Y-72076244D01*
X143316827Y-72076245D01*
X143480253Y-72129346D01*
X143480257Y-72129347D01*
X143489512Y-72132354D01*
X143499176Y-72133506D01*
X143499179Y-72133507D01*
X143669809Y-72153853D01*
X143669811Y-72153853D01*
X143679472Y-72155005D01*
X143870213Y-72140328D01*
X144054472Y-72088882D01*
X144063151Y-72084498D01*
X144063156Y-72084496D01*
X144216547Y-72007012D01*
X144216546Y-72007012D01*
X144225228Y-72002627D01*
X144363438Y-71894646D01*
X147749500Y-71894646D01*
X147752618Y-71920846D01*
X147758680Y-71934493D01*
X147758680Y-71934494D01*
X147788944Y-72002627D01*
X147798061Y-72023153D01*
X147811064Y-72036133D01*
X147863959Y-72088936D01*
X147877287Y-72102241D01*
X147945400Y-72132354D01*
X147965681Y-72141320D01*
X147979673Y-72147506D01*
X147994533Y-72149238D01*
X147994535Y-72149239D01*
X147999612Y-72149831D01*
X147999619Y-72149831D01*
X148005354Y-72150500D01*
X149444646Y-72150500D01*
X149450484Y-72149805D01*
X149450488Y-72149805D01*
X149456019Y-72149147D01*
X149456022Y-72149146D01*
X149470846Y-72147382D01*
X149484494Y-72141320D01*
X149556361Y-72109398D01*
X149556362Y-72109397D01*
X149573153Y-72101939D01*
X149612763Y-72062260D01*
X149639260Y-72035717D01*
X149639261Y-72035716D01*
X149652241Y-72022713D01*
X149697506Y-71920327D01*
X149700730Y-71921752D01*
X149730347Y-71866312D01*
X149801838Y-71814040D01*
X149888930Y-71797962D01*
X149974373Y-71821265D01*
X150019331Y-71855214D01*
X150019889Y-71855918D01*
X150027301Y-71862226D01*
X150158159Y-71973596D01*
X150158162Y-71973598D01*
X150165575Y-71979907D01*
X150174068Y-71984654D01*
X150174073Y-71984657D01*
X150324075Y-72068490D01*
X150324081Y-72068492D01*
X150332570Y-72073237D01*
X150341825Y-72076244D01*
X150341827Y-72076245D01*
X150505253Y-72129346D01*
X150505257Y-72129347D01*
X150514512Y-72132354D01*
X150524176Y-72133506D01*
X150524179Y-72133507D01*
X150694809Y-72153853D01*
X150694811Y-72153853D01*
X150704472Y-72155005D01*
X150895213Y-72140328D01*
X151079472Y-72088882D01*
X151088151Y-72084498D01*
X151088156Y-72084496D01*
X151241547Y-72007012D01*
X151241546Y-72007012D01*
X151250228Y-72002627D01*
X151400979Y-71884848D01*
X151432538Y-71848287D01*
X151463480Y-71812439D01*
X151525982Y-71740030D01*
X151550300Y-71697223D01*
X151610083Y-71631884D01*
X151692297Y-71598954D01*
X151780657Y-71604957D01*
X151857662Y-71648702D01*
X151889474Y-71690354D01*
X151891337Y-71689153D01*
X151896612Y-71697338D01*
X151901060Y-71705993D01*
X151907105Y-71713620D01*
X151907107Y-71713623D01*
X152013840Y-71848287D01*
X152013844Y-71848291D01*
X152019889Y-71855918D01*
X152078757Y-71906019D01*
X152158159Y-71973596D01*
X152158162Y-71973598D01*
X152165575Y-71979907D01*
X152174068Y-71984654D01*
X152174073Y-71984657D01*
X152324075Y-72068490D01*
X152324081Y-72068492D01*
X152332570Y-72073237D01*
X152341825Y-72076244D01*
X152341827Y-72076245D01*
X152505253Y-72129346D01*
X152505257Y-72129347D01*
X152514512Y-72132354D01*
X152524176Y-72133506D01*
X152524179Y-72133507D01*
X152694809Y-72153853D01*
X152694811Y-72153853D01*
X152704472Y-72155005D01*
X152895213Y-72140328D01*
X153079472Y-72088882D01*
X153088151Y-72084498D01*
X153088156Y-72084496D01*
X153241547Y-72007012D01*
X153241546Y-72007012D01*
X153250228Y-72002627D01*
X153400979Y-71884848D01*
X153432538Y-71848287D01*
X153463480Y-71812439D01*
X153525982Y-71740030D01*
X153531126Y-71730976D01*
X153571465Y-71659965D01*
X153620476Y-71573691D01*
X153633067Y-71535843D01*
X153677789Y-71401401D01*
X153677789Y-71401400D01*
X153680861Y-71392166D01*
X153704838Y-71202369D01*
X153705220Y-71175000D01*
X153686552Y-70984608D01*
X153631259Y-70801467D01*
X153579228Y-70703612D01*
X153546014Y-70641145D01*
X153546011Y-70641141D01*
X153541446Y-70632555D01*
X153496696Y-70577685D01*
X153426687Y-70491846D01*
X153426686Y-70491845D01*
X153420535Y-70484303D01*
X153273132Y-70362361D01*
X153104851Y-70271371D01*
X152922101Y-70214801D01*
X152774208Y-70199257D01*
X152741520Y-70195821D01*
X152741519Y-70195821D01*
X152731843Y-70194804D01*
X152541325Y-70212142D01*
X152531986Y-70214891D01*
X152531984Y-70214891D01*
X152367149Y-70263405D01*
X152367146Y-70263406D01*
X152357803Y-70266156D01*
X152349175Y-70270666D01*
X152349169Y-70270669D01*
X152238523Y-70328514D01*
X152188268Y-70354787D01*
X152039176Y-70474660D01*
X151973605Y-70552804D01*
X151927083Y-70608247D01*
X151916207Y-70621208D01*
X151911521Y-70629732D01*
X151899940Y-70650798D01*
X151841075Y-70716968D01*
X151759330Y-70751044D01*
X151670895Y-70746277D01*
X151593286Y-70703612D01*
X151549847Y-70648355D01*
X151546014Y-70641145D01*
X151546011Y-70641141D01*
X151541446Y-70632555D01*
X151496696Y-70577685D01*
X151426687Y-70491846D01*
X151426686Y-70491845D01*
X151420535Y-70484303D01*
X151273132Y-70362361D01*
X151104851Y-70271371D01*
X150922101Y-70214801D01*
X150774208Y-70199257D01*
X150741520Y-70195821D01*
X150741519Y-70195821D01*
X150731843Y-70194804D01*
X150541325Y-70212142D01*
X150531986Y-70214891D01*
X150531984Y-70214891D01*
X150367149Y-70263405D01*
X150367146Y-70263406D01*
X150357803Y-70266156D01*
X150349175Y-70270666D01*
X150349169Y-70270669D01*
X150238523Y-70328514D01*
X150188268Y-70354787D01*
X150039176Y-70474660D01*
X150032920Y-70482115D01*
X150025964Y-70488927D01*
X150025028Y-70487971D01*
X149962608Y-70535254D01*
X149875801Y-70552804D01*
X149789975Y-70530952D01*
X149722131Y-70474026D01*
X149699527Y-70428201D01*
X149697382Y-70429154D01*
X149659398Y-70343639D01*
X149659397Y-70343638D01*
X149651939Y-70326847D01*
X149591142Y-70266156D01*
X149585717Y-70260740D01*
X149585716Y-70260739D01*
X149572713Y-70247759D01*
X149490155Y-70211260D01*
X149484012Y-70208544D01*
X149484011Y-70208544D01*
X149470327Y-70202494D01*
X149455467Y-70200762D01*
X149455465Y-70200761D01*
X149450388Y-70200169D01*
X149450381Y-70200169D01*
X149444646Y-70199500D01*
X148005354Y-70199500D01*
X147999516Y-70200195D01*
X147999512Y-70200195D01*
X147993981Y-70200853D01*
X147993978Y-70200854D01*
X147979154Y-70202618D01*
X147965507Y-70208680D01*
X147965506Y-70208680D01*
X147893639Y-70240602D01*
X147893638Y-70240603D01*
X147876847Y-70248061D01*
X147853578Y-70271371D01*
X147811156Y-70313867D01*
X147797759Y-70327287D01*
X147752494Y-70429673D01*
X147749500Y-70455354D01*
X147749500Y-71894646D01*
X144363438Y-71894646D01*
X144375979Y-71884848D01*
X144407538Y-71848287D01*
X144438480Y-71812439D01*
X144500982Y-71740030D01*
X144506126Y-71730976D01*
X144546465Y-71659965D01*
X144595476Y-71573691D01*
X144608067Y-71535843D01*
X144652789Y-71401401D01*
X144652789Y-71401400D01*
X144655861Y-71392166D01*
X144679838Y-71202369D01*
X144680220Y-71175000D01*
X144661552Y-70984608D01*
X144606259Y-70801467D01*
X144554228Y-70703612D01*
X144521014Y-70641145D01*
X144521011Y-70641141D01*
X144516446Y-70632555D01*
X144471696Y-70577685D01*
X144401687Y-70491846D01*
X144401686Y-70491845D01*
X144395535Y-70484303D01*
X144248132Y-70362361D01*
X144079851Y-70271371D01*
X143897101Y-70214801D01*
X143749208Y-70199257D01*
X143716520Y-70195821D01*
X143716519Y-70195821D01*
X143706843Y-70194804D01*
X143516325Y-70212142D01*
X143506986Y-70214891D01*
X143506984Y-70214891D01*
X143342149Y-70263405D01*
X143342146Y-70263406D01*
X143332803Y-70266156D01*
X143324175Y-70270666D01*
X143324169Y-70270669D01*
X143213523Y-70328514D01*
X143163268Y-70354787D01*
X143014176Y-70474660D01*
X142948605Y-70552804D01*
X142902083Y-70608247D01*
X142891207Y-70621208D01*
X142886521Y-70629732D01*
X142874940Y-70650798D01*
X142816075Y-70716968D01*
X142734330Y-70751044D01*
X142645895Y-70746277D01*
X142568286Y-70703612D01*
X142524847Y-70648355D01*
X142521014Y-70641145D01*
X142521011Y-70641141D01*
X142516446Y-70632555D01*
X142471696Y-70577685D01*
X142401687Y-70491846D01*
X142401686Y-70491845D01*
X142395535Y-70484303D01*
X142248132Y-70362361D01*
X142079851Y-70271371D01*
X141897101Y-70214801D01*
X141749208Y-70199257D01*
X141716520Y-70195821D01*
X141716519Y-70195821D01*
X141706843Y-70194804D01*
X141516325Y-70212142D01*
X141506986Y-70214891D01*
X141506984Y-70214891D01*
X141342149Y-70263405D01*
X141342146Y-70263406D01*
X141332803Y-70266156D01*
X141324175Y-70270666D01*
X141324169Y-70270669D01*
X141213523Y-70328514D01*
X141163268Y-70354787D01*
X141014176Y-70474660D01*
X141007920Y-70482115D01*
X141000964Y-70488927D01*
X141000028Y-70487971D01*
X140937608Y-70535254D01*
X140850801Y-70552804D01*
X140764975Y-70530952D01*
X140697131Y-70474026D01*
X140674527Y-70428201D01*
X140672382Y-70429154D01*
X140634398Y-70343639D01*
X140634397Y-70343638D01*
X140626939Y-70326847D01*
X140566142Y-70266156D01*
X140560717Y-70260740D01*
X140560716Y-70260739D01*
X140547713Y-70247759D01*
X140465155Y-70211260D01*
X140459012Y-70208544D01*
X140459011Y-70208544D01*
X140445327Y-70202494D01*
X140430467Y-70200762D01*
X140430465Y-70200761D01*
X140425388Y-70200169D01*
X140425381Y-70200169D01*
X140419646Y-70199500D01*
X138980354Y-70199500D01*
X138974516Y-70200195D01*
X138974512Y-70200195D01*
X138968981Y-70200853D01*
X138968978Y-70200854D01*
X138954154Y-70202618D01*
X138940507Y-70208680D01*
X138940506Y-70208680D01*
X138868639Y-70240602D01*
X138868638Y-70240603D01*
X138851847Y-70248061D01*
X138828578Y-70271371D01*
X138786156Y-70313867D01*
X138772759Y-70327287D01*
X138727494Y-70429673D01*
X138724500Y-70455354D01*
X138724500Y-71894646D01*
X118453165Y-71894646D01*
X118437183Y-71888026D01*
X118300000Y-71869965D01*
X118162817Y-71888026D01*
X118150768Y-71893017D01*
X118150767Y-71893017D01*
X118098574Y-71914636D01*
X118034983Y-71940976D01*
X117925209Y-72025209D01*
X117840976Y-72134983D01*
X117788026Y-72262817D01*
X117769965Y-72400000D01*
X117181813Y-72400000D01*
X117211974Y-72327183D01*
X117230035Y-72190000D01*
X117211974Y-72052817D01*
X117205064Y-72036133D01*
X117164016Y-71937035D01*
X117159024Y-71924983D01*
X117074791Y-71815209D01*
X116965018Y-71730976D01*
X116952970Y-71725986D01*
X116952969Y-71725985D01*
X116918800Y-71711832D01*
X116837183Y-71678026D01*
X116700000Y-71659965D01*
X116562817Y-71678026D01*
X116550768Y-71683017D01*
X116550767Y-71683017D01*
X116533054Y-71690354D01*
X116434983Y-71730976D01*
X116325209Y-71815209D01*
X116240976Y-71924983D01*
X116235984Y-71937035D01*
X116194937Y-72036133D01*
X116188026Y-72052817D01*
X116169965Y-72190000D01*
X114204987Y-72190000D01*
X114224799Y-72129026D01*
X114224800Y-72129022D01*
X114226731Y-72123079D01*
X114233244Y-72088936D01*
X114284516Y-71820161D01*
X114284517Y-71820155D01*
X114285688Y-71814015D01*
X114305444Y-71500000D01*
X114285688Y-71185985D01*
X114282538Y-71169469D01*
X114227903Y-70883064D01*
X114227902Y-70883062D01*
X114226731Y-70876921D01*
X114205946Y-70812950D01*
X114131437Y-70583637D01*
X114131437Y-70583636D01*
X114129503Y-70577685D01*
X114117795Y-70552804D01*
X113998201Y-70298653D01*
X113998197Y-70298645D01*
X113995537Y-70292993D01*
X113826947Y-70027337D01*
X113678368Y-69847736D01*
X113630369Y-69789715D01*
X113630364Y-69789709D01*
X113626390Y-69784906D01*
X113419702Y-69590812D01*
X113401589Y-69573803D01*
X113401587Y-69573802D01*
X113397030Y-69569522D01*
X113391975Y-69565850D01*
X113391971Y-69565846D01*
X113147541Y-69388258D01*
X113147540Y-69388257D01*
X113142484Y-69384584D01*
X112866766Y-69233006D01*
X112764206Y-69192400D01*
X112743054Y-69184025D01*
X112670029Y-69133916D01*
X112625977Y-69057086D01*
X112619623Y-68968751D01*
X112652226Y-68886407D01*
X112717327Y-68826363D01*
X112802033Y-68800512D01*
X112816310Y-68799999D01*
X135299976Y-68799999D01*
X157783687Y-68800000D01*
G37*
%TD.AperFunction*%
%TD*%
%TA.AperFunction,Conductor*%
%TO.N,VAC1*%
G36*
X138806163Y-104800607D02*
G01*
X138982740Y-104817999D01*
X139006957Y-104822815D01*
X139170809Y-104872518D01*
X139193629Y-104881971D01*
X139344631Y-104962683D01*
X139365158Y-104976399D01*
X139497521Y-105085026D01*
X139514974Y-105102479D01*
X139623601Y-105234842D01*
X139637319Y-105255372D01*
X139718029Y-105406371D01*
X139727482Y-105429190D01*
X139777185Y-105593043D01*
X139782002Y-105617263D01*
X139799393Y-105793837D01*
X139800000Y-105806187D01*
X139800000Y-116593813D01*
X139799393Y-116606163D01*
X139782002Y-116782737D01*
X139777185Y-116806957D01*
X139727482Y-116970809D01*
X139718029Y-116993629D01*
X139637319Y-117144628D01*
X139623601Y-117165158D01*
X139514974Y-117297521D01*
X139497521Y-117314974D01*
X139365158Y-117423601D01*
X139344631Y-117437317D01*
X139252417Y-117486607D01*
X139193629Y-117518029D01*
X139170810Y-117527482D01*
X139006957Y-117577185D01*
X138982740Y-117582001D01*
X138806163Y-117599393D01*
X138793813Y-117600000D01*
X136806187Y-117600000D01*
X136793837Y-117599393D01*
X136617260Y-117582001D01*
X136593043Y-117577185D01*
X136429190Y-117527482D01*
X136406371Y-117518029D01*
X136347583Y-117486607D01*
X136255369Y-117437317D01*
X136234842Y-117423601D01*
X136102479Y-117314974D01*
X136085026Y-117297521D01*
X135976399Y-117165158D01*
X135962681Y-117144628D01*
X135881971Y-116993629D01*
X135872518Y-116970809D01*
X135822815Y-116806957D01*
X135817998Y-116782737D01*
X135800607Y-116606163D01*
X135800000Y-116593813D01*
X135800000Y-110100000D01*
X134500000Y-108800000D01*
X127006187Y-108800000D01*
X126993837Y-108799393D01*
X126817260Y-108782001D01*
X126793043Y-108777185D01*
X126629190Y-108727482D01*
X126606371Y-108718029D01*
X126547583Y-108686607D01*
X126455369Y-108637317D01*
X126434842Y-108623601D01*
X126302479Y-108514974D01*
X126285026Y-108497521D01*
X126176399Y-108365158D01*
X126162681Y-108344628D01*
X126081971Y-108193629D01*
X126072518Y-108170809D01*
X126022815Y-108006957D01*
X126017998Y-107982737D01*
X126000607Y-107806163D01*
X126000000Y-107793813D01*
X126000000Y-105806187D01*
X126000607Y-105793837D01*
X126017998Y-105617263D01*
X126022815Y-105593043D01*
X126072518Y-105429190D01*
X126081971Y-105406371D01*
X126162681Y-105255372D01*
X126176399Y-105234842D01*
X126285026Y-105102479D01*
X126302479Y-105085026D01*
X126434842Y-104976399D01*
X126455369Y-104962683D01*
X126606371Y-104881971D01*
X126629191Y-104872518D01*
X126793043Y-104822815D01*
X126817260Y-104817999D01*
X126993837Y-104800607D01*
X127006187Y-104800000D01*
X138793813Y-104800000D01*
X138806163Y-104800607D01*
G37*
%TD.AperFunction*%
%TD*%
M02*
