G04 #@! TF.GenerationSoftware,KiCad,Pcbnew,(5.99.0-12889-g70df3822b5)*
G04 #@! TF.CreationDate,2021-11-21T20:45:43+08:00*
G04 #@! TF.ProjectId,PowerSupply,506f7765-7253-4757-9070-6c792e6b6963,rev?*
G04 #@! TF.SameCoordinates,PX5e56640PY77750e0*
G04 #@! TF.FileFunction,Copper,L4,Bot*
G04 #@! TF.FilePolarity,Positive*
%FSLAX46Y46*%
G04 Gerber Fmt 4.6, Leading zero omitted, Abs format (unit mm)*
G04 Created by KiCad (PCBNEW (5.99.0-12889-g70df3822b5)) date 2021-11-21 20:45:43*
%MOMM*%
%LPD*%
G01*
G04 APERTURE LIST*
G04 Aperture macros list*
%AMRoundRect*
0 Rectangle with rounded corners*
0 $1 Rounding radius*
0 $2 $3 $4 $5 $6 $7 $8 $9 X,Y pos of 4 corners*
0 Add a 4 corners polygon primitive as box body*
4,1,4,$2,$3,$4,$5,$6,$7,$8,$9,$2,$3,0*
0 Add four circle primitives for the rounded corners*
1,1,$1+$1,$2,$3*
1,1,$1+$1,$4,$5*
1,1,$1+$1,$6,$7*
1,1,$1+$1,$8,$9*
0 Add four rect primitives between the rounded corners*
20,1,$1+$1,$2,$3,$4,$5,0*
20,1,$1+$1,$4,$5,$6,$7,0*
20,1,$1+$1,$6,$7,$8,$9,0*
20,1,$1+$1,$8,$9,$2,$3,0*%
%AMOutline4P*
0 Free polygon, 4 corners , with rotation*
0 The origin of the aperture is its center*
0 number of corners: always 4*
0 $1 to $8 corner X, Y*
0 $9 Rotation angle, in degrees counterclockwise*
0 create outline with 4 corners*
4,1,4,$1,$2,$3,$4,$5,$6,$7,$8,$1,$2,$9*%
G04 Aperture macros list end*
G04 #@! TA.AperFunction,ConnectorPad*
%ADD10R,0.700000X3.200000*%
G04 #@! TD*
G04 #@! TA.AperFunction,ConnectorPad*
%ADD11R,0.700000X4.300000*%
G04 #@! TD*
G04 #@! TA.AperFunction,SMDPad,CuDef*
%ADD12RoundRect,0.225000X0.225000X0.250000X-0.225000X0.250000X-0.225000X-0.250000X0.225000X-0.250000X0*%
G04 #@! TD*
G04 #@! TA.AperFunction,SMDPad,CuDef*
%ADD13RoundRect,0.140000X0.140000X0.170000X-0.140000X0.170000X-0.140000X-0.170000X0.140000X-0.170000X0*%
G04 #@! TD*
G04 #@! TA.AperFunction,SMDPad,CuDef*
%ADD14RoundRect,0.140000X-0.170000X0.140000X-0.170000X-0.140000X0.170000X-0.140000X0.170000X0.140000X0*%
G04 #@! TD*
G04 #@! TA.AperFunction,SMDPad,CuDef*
%ADD15RoundRect,0.140000X0.170000X-0.140000X0.170000X0.140000X-0.170000X0.140000X-0.170000X-0.140000X0*%
G04 #@! TD*
G04 #@! TA.AperFunction,SMDPad,CuDef*
%ADD16RoundRect,0.140000X-0.140000X-0.170000X0.140000X-0.170000X0.140000X0.170000X-0.140000X0.170000X0*%
G04 #@! TD*
G04 #@! TA.AperFunction,SMDPad,CuDef*
%ADD17RoundRect,0.225000X-0.225000X-0.250000X0.225000X-0.250000X0.225000X0.250000X-0.225000X0.250000X0*%
G04 #@! TD*
G04 #@! TA.AperFunction,SMDPad,CuDef*
%ADD18R,2.500000X1.900000*%
G04 #@! TD*
G04 #@! TA.AperFunction,SMDPad,CuDef*
%ADD19RoundRect,0.135000X0.185000X-0.135000X0.185000X0.135000X-0.185000X0.135000X-0.185000X-0.135000X0*%
G04 #@! TD*
G04 #@! TA.AperFunction,SMDPad,CuDef*
%ADD20RoundRect,0.135000X-0.135000X-0.185000X0.135000X-0.185000X0.135000X0.185000X-0.135000X0.185000X0*%
G04 #@! TD*
G04 #@! TA.AperFunction,SMDPad,CuDef*
%ADD21RoundRect,0.135000X-0.185000X0.135000X-0.185000X-0.135000X0.185000X-0.135000X0.185000X0.135000X0*%
G04 #@! TD*
G04 #@! TA.AperFunction,SMDPad,CuDef*
%ADD22R,0.240000X0.600000*%
G04 #@! TD*
G04 #@! TA.AperFunction,SMDPad,CuDef*
%ADD23R,0.600000X0.240000*%
G04 #@! TD*
G04 #@! TA.AperFunction,SMDPad,CuDef*
%ADD24R,0.240000X0.990000*%
G04 #@! TD*
G04 #@! TA.AperFunction,SMDPad,CuDef*
%ADD25R,2.050000X3.050000*%
G04 #@! TD*
G04 #@! TA.AperFunction,SMDPad,CuDef*
%ADD26R,0.517500X0.427500*%
G04 #@! TD*
G04 #@! TA.AperFunction,SMDPad,CuDef*
%ADD27R,0.300000X1.300000*%
G04 #@! TD*
G04 #@! TA.AperFunction,SMDPad,CuDef*
%ADD28R,1.800000X2.200000*%
G04 #@! TD*
G04 #@! TA.AperFunction,SMDPad,CuDef*
%ADD29RoundRect,0.225000X-0.250000X0.225000X-0.250000X-0.225000X0.250000X-0.225000X0.250000X0.225000X0*%
G04 #@! TD*
G04 #@! TA.AperFunction,SMDPad,CuDef*
%ADD30RoundRect,0.225000X0.250000X-0.225000X0.250000X0.225000X-0.250000X0.225000X-0.250000X-0.225000X0*%
G04 #@! TD*
G04 #@! TA.AperFunction,SMDPad,CuDef*
%ADD31R,1.900000X2.500000*%
G04 #@! TD*
G04 #@! TA.AperFunction,SMDPad,CuDef*
%ADD32O,0.750000X0.250000*%
G04 #@! TD*
G04 #@! TA.AperFunction,SMDPad,CuDef*
%ADD33O,0.250000X0.900000*%
G04 #@! TD*
G04 #@! TA.AperFunction,SMDPad,CuDef*
%ADD34O,0.500000X0.300000*%
G04 #@! TD*
G04 #@! TA.AperFunction,SMDPad,CuDef*
%ADD35Outline4P,-0.050000X-0.150000X0.050000X-0.150000X0.050000X0.150000X-0.050000X0.150000X225.000000*%
G04 #@! TD*
G04 #@! TA.AperFunction,SMDPad,CuDef*
%ADD36Outline4P,-0.050000X-0.150000X0.050000X-0.150000X0.050000X0.150000X-0.050000X0.150000X135.000000*%
G04 #@! TD*
G04 #@! TA.AperFunction,SMDPad,CuDef*
%ADD37Outline4P,-0.050000X-0.150000X0.050000X-0.150000X0.050000X0.150000X-0.050000X0.150000X45.000000*%
G04 #@! TD*
G04 #@! TA.AperFunction,SMDPad,CuDef*
%ADD38RoundRect,0.100000X-0.525000X-0.100000X0.525000X-0.100000X0.525000X0.100000X-0.525000X0.100000X0*%
G04 #@! TD*
G04 #@! TA.AperFunction,SMDPad,CuDef*
%ADD39RoundRect,0.147500X-0.172500X0.147500X-0.172500X-0.147500X0.172500X-0.147500X0.172500X0.147500X0*%
G04 #@! TD*
G04 #@! TA.AperFunction,SMDPad,CuDef*
%ADD40RoundRect,0.275000X3.225000X0.275000X-3.225000X0.275000X-3.225000X-0.275000X3.225000X-0.275000X0*%
G04 #@! TD*
G04 #@! TA.AperFunction,SMDPad,CuDef*
%ADD41RoundRect,0.275000X0.275000X-3.225000X0.275000X3.225000X-0.275000X3.225000X-0.275000X-3.225000X0*%
G04 #@! TD*
G04 #@! TA.AperFunction,ViaPad*
%ADD42C,0.500000*%
G04 #@! TD*
G04 #@! TA.AperFunction,Conductor*
%ADD43C,0.250000*%
G04 #@! TD*
G04 #@! TA.AperFunction,Conductor*
%ADD44C,0.500000*%
G04 #@! TD*
G04 #@! TA.AperFunction,Conductor*
%ADD45C,0.700000*%
G04 #@! TD*
G04 #@! TA.AperFunction,Conductor*
%ADD46C,0.450000*%
G04 #@! TD*
G04 #@! TA.AperFunction,Conductor*
%ADD47C,0.350000*%
G04 #@! TD*
G04 #@! TA.AperFunction,Conductor*
%ADD48C,0.150000*%
G04 #@! TD*
G04 #@! TA.AperFunction,Conductor*
%ADD49C,0.900000*%
G04 #@! TD*
G04 #@! TA.AperFunction,Conductor*
%ADD50C,0.600000*%
G04 #@! TD*
G04 #@! TA.AperFunction,Conductor*
%ADD51C,0.300000*%
G04 #@! TD*
G04 APERTURE END LIST*
D10*
G04 #@! TO.P,PCI1,A1*
G04 #@! TO.N,+1V2*
X13050000Y5600000D03*
D11*
G04 #@! TO.P,PCI1,A2*
X14050000Y5050000D03*
G04 #@! TO.P,PCI1,A3*
X15050000Y5050000D03*
G04 #@! TO.P,PCI1,A4*
G04 #@! TO.N,+1V5*
X16050000Y5050000D03*
G04 #@! TO.P,PCI1,A5*
X17050000Y5050000D03*
G04 #@! TO.P,PCI1,A6*
X18050000Y5050000D03*
G04 #@! TO.P,PCI1,A7*
G04 #@! TO.N,+2V5*
X19050000Y5050000D03*
G04 #@! TO.P,PCI1,A8*
X20050000Y5050000D03*
G04 #@! TO.P,PCI1,A9*
G04 #@! TO.N,+3V3*
X21050000Y5050000D03*
G04 #@! TO.P,PCI1,A10*
X22050000Y5050000D03*
G04 #@! TO.P,PCI1,A11*
X23050000Y5050000D03*
G04 #@! TO.P,PCI1,A12*
G04 #@! TO.N,N/C*
X26050000Y5050000D03*
G04 #@! TO.P,PCI1,A13*
X27050000Y5050000D03*
G04 #@! TO.P,PCI1,A14*
X28050000Y5050000D03*
G04 #@! TO.P,PCI1,A15*
X29050000Y5050000D03*
G04 #@! TO.P,PCI1,A16*
X30050000Y5050000D03*
G04 #@! TO.P,PCI1,A17*
X31050000Y5050000D03*
G04 #@! TO.P,PCI1,A18*
X32050000Y5050000D03*
G04 #@! TD*
D12*
G04 #@! TO.P,C1,1*
G04 #@! TO.N,BAT+*
X58255000Y21210000D03*
G04 #@! TO.P,C1,2*
G04 #@! TO.N,GND*
X56705000Y21210000D03*
G04 #@! TD*
D13*
G04 #@! TO.P,C2,1*
G04 #@! TO.N,BAT+*
X57520000Y22320000D03*
G04 #@! TO.P,C2,2*
G04 #@! TO.N,GND*
X56560000Y22320000D03*
G04 #@! TD*
D14*
G04 #@! TO.P,C3,1*
G04 #@! TO.N,Net-(C3-Pad1)*
X56600000Y30610000D03*
G04 #@! TO.P,C3,2*
G04 #@! TO.N,GND*
X56600000Y29650000D03*
G04 #@! TD*
D15*
G04 #@! TO.P,C4,1*
G04 #@! TO.N,Net-(C4-Pad1)*
X58680000Y29650000D03*
G04 #@! TO.P,C4,2*
G04 #@! TO.N,GND*
X58680000Y30610000D03*
G04 #@! TD*
G04 #@! TO.P,C5,1*
G04 #@! TO.N,Net-(C5-Pad1)*
X54140000Y29650000D03*
G04 #@! TO.P,C5,2*
G04 #@! TO.N,GND*
X54140000Y30610000D03*
G04 #@! TD*
D13*
G04 #@! TO.P,C6,1*
G04 #@! TO.N,Net-(C6-Pad1)*
X57520000Y23240000D03*
G04 #@! TO.P,C6,2*
G04 #@! TO.N,GND*
X56560000Y23240000D03*
G04 #@! TD*
D16*
G04 #@! TO.P,C39,1*
G04 #@! TO.N,Net-(C39-Pad1)*
X59580000Y25060000D03*
G04 #@! TO.P,C39,2*
G04 #@! TO.N,Net-(C39-Pad2)*
X60540000Y25060000D03*
G04 #@! TD*
D17*
G04 #@! TO.P,C40,1*
G04 #@! TO.N,+5V*
X53895000Y23250000D03*
G04 #@! TO.P,C40,2*
G04 #@! TO.N,GND*
X55445000Y23250000D03*
G04 #@! TD*
G04 #@! TO.P,C41,1*
G04 #@! TO.N,+5V*
X53905000Y22230000D03*
G04 #@! TO.P,C41,2*
G04 #@! TO.N,GND*
X55455000Y22230000D03*
G04 #@! TD*
D18*
G04 #@! TO.P,L1,1*
G04 #@! TO.N,BAT+*
X61620000Y19070000D03*
G04 #@! TO.P,L1,2*
G04 #@! TO.N,Net-(C39-Pad2)*
X61620000Y23170000D03*
G04 #@! TD*
D19*
G04 #@! TO.P,R1,1*
G04 #@! TO.N,Net-(C3-Pad1)*
X54140000Y27710000D03*
G04 #@! TO.P,R1,2*
G04 #@! TO.N,Net-(C5-Pad1)*
X54140000Y28730000D03*
G04 #@! TD*
G04 #@! TO.P,R2,1*
G04 #@! TO.N,Net-(R2-Pad1)*
X55420000Y29620000D03*
G04 #@! TO.P,R2,2*
G04 #@! TO.N,GND*
X55420000Y30640000D03*
G04 #@! TD*
D20*
G04 #@! TO.P,R7,1*
G04 #@! TO.N,Net-(R7-Pad1)*
X59550000Y27570000D03*
G04 #@! TO.P,R7,2*
G04 #@! TO.N,Net-(C39-Pad2)*
X60570000Y27570000D03*
G04 #@! TD*
D21*
G04 #@! TO.P,R8,1*
G04 #@! TO.N,Net-(R34-Pad2)*
X54140000Y26940000D03*
G04 #@! TO.P,R8,2*
G04 #@! TO.N,+5V*
X54140000Y25920000D03*
G04 #@! TD*
D19*
G04 #@! TO.P,R34,1*
G04 #@! TO.N,GND*
X57560000Y29620000D03*
G04 #@! TO.P,R34,2*
G04 #@! TO.N,Net-(R34-Pad2)*
X57560000Y30640000D03*
G04 #@! TD*
D22*
G04 #@! TO.P,U1,1*
G04 #@! TO.N,Net-(C4-Pad1)*
X57820000Y28470000D03*
D23*
G04 #@! TO.P,U1,2*
X58720000Y28070000D03*
G04 #@! TO.P,U1,3*
G04 #@! TO.N,Net-(R7-Pad1)*
X58720000Y27570000D03*
G04 #@! TO.P,U1,4*
G04 #@! TO.N,Net-(C39-Pad2)*
X58720000Y27070000D03*
G04 #@! TO.P,U1,5*
X58720000Y26570000D03*
G04 #@! TO.P,U1,6*
X58720000Y26070000D03*
G04 #@! TO.P,U1,7*
X58720000Y25570000D03*
G04 #@! TO.P,U1,8*
G04 #@! TO.N,Net-(C39-Pad1)*
X58720000Y25070000D03*
G04 #@! TO.P,U1,9*
G04 #@! TO.N,BAT+*
X58720000Y24570000D03*
D22*
G04 #@! TO.P,U1,10*
G04 #@! TO.N,Net-(C6-Pad1)*
X57820000Y24170000D03*
G04 #@! TO.P,U1,11*
G04 #@! TO.N,GND*
X56320000Y24170000D03*
D23*
G04 #@! TO.P,U1,12*
X55420000Y24570000D03*
G04 #@! TO.P,U1,13*
G04 #@! TO.N,N/C*
X55420000Y25070000D03*
G04 #@! TO.P,U1,14*
G04 #@! TO.N,+5V*
X55420000Y25570000D03*
G04 #@! TO.P,U1,15*
X55420000Y26070000D03*
G04 #@! TO.P,U1,16*
X55420000Y26570000D03*
G04 #@! TO.P,U1,17*
G04 #@! TO.N,Net-(R34-Pad2)*
X55420000Y27070000D03*
G04 #@! TO.P,U1,18*
G04 #@! TO.N,Net-(C3-Pad1)*
X55420000Y27570000D03*
G04 #@! TO.P,U1,19*
G04 #@! TO.N,Net-(R2-Pad1)*
X55420000Y28070000D03*
D22*
G04 #@! TO.P,U1,20*
G04 #@! TO.N,GND*
X56320000Y28470000D03*
D24*
G04 #@! TO.P,U1,21*
X56790000Y28275000D03*
X57340000Y24360000D03*
D25*
X57070000Y26320000D03*
D26*
X57070000Y28040000D03*
X57070000Y24580000D03*
D24*
X56790000Y24360000D03*
X57340000Y28275000D03*
G04 #@! TD*
D27*
G04 #@! TO.P,J1,1*
G04 #@! TO.N,BAT+*
X59420000Y16605000D03*
G04 #@! TO.P,J1,2*
X58920000Y16605000D03*
G04 #@! TO.P,J1,3*
X58420000Y16605000D03*
G04 #@! TO.P,J1,4*
G04 #@! TO.N,GND*
X57920000Y16605000D03*
G04 #@! TO.P,J1,5*
X57420000Y16605000D03*
G04 #@! TO.P,J1,6*
X56920000Y16605000D03*
G04 #@! TO.P,J1,7*
X56420000Y16605000D03*
G04 #@! TO.P,J1,8*
G04 #@! TO.N,BAT_CHG*
X55920000Y16605000D03*
G04 #@! TO.P,J1,9*
G04 #@! TO.N,BAT_PG*
X55420000Y16605000D03*
G04 #@! TO.P,J1,10*
G04 #@! TO.N,BAT_ISET*
X54920000Y16605000D03*
G04 #@! TO.P,J1,11*
G04 #@! TO.N,REG_POWER*
X54420000Y16605000D03*
G04 #@! TO.P,J1,12*
G04 #@! TO.N,REG_CHG*
X53920000Y16605000D03*
G04 #@! TO.P,J1,13*
G04 #@! TO.N,REG_EN1*
X53420000Y16605000D03*
G04 #@! TO.P,J1,14*
G04 #@! TO.N,REG_EN2*
X52920000Y16605000D03*
D28*
G04 #@! TO.P,J1,MP*
G04 #@! TO.N,N/C*
X51020000Y13355000D03*
X61320000Y13355000D03*
G04 #@! TD*
D17*
G04 #@! TO.P,C42,1*
G04 #@! TO.N,+5V*
X53905000Y21210000D03*
G04 #@! TO.P,C42,2*
G04 #@! TO.N,GND*
X55455000Y21210000D03*
G04 #@! TD*
G04 #@! TO.P,C7,1*
G04 #@! TO.N,+5V*
X42095000Y28630000D03*
G04 #@! TO.P,C7,2*
G04 #@! TO.N,GND*
X43645000Y28630000D03*
G04 #@! TD*
G04 #@! TO.P,C8,1*
G04 #@! TO.N,+5V*
X32085000Y27620000D03*
G04 #@! TO.P,C8,2*
G04 #@! TO.N,GND*
X33635000Y27620000D03*
G04 #@! TD*
D14*
G04 #@! TO.P,C9,1*
G04 #@! TO.N,+5V*
X51070000Y25960000D03*
G04 #@! TO.P,C9,2*
G04 #@! TO.N,GND*
X51070000Y25000000D03*
G04 #@! TD*
D15*
G04 #@! TO.P,C10,1*
G04 #@! TO.N,Net-(C10-Pad1)*
X20090000Y28660000D03*
G04 #@! TO.P,C10,2*
G04 #@! TO.N,GND*
X20090000Y29620000D03*
G04 #@! TD*
D14*
G04 #@! TO.P,C11,1*
G04 #@! TO.N,+1V2*
X16340000Y29620000D03*
G04 #@! TO.P,C11,2*
G04 #@! TO.N,Net-(C11-Pad2)*
X16340000Y28660000D03*
G04 #@! TD*
D12*
G04 #@! TO.P,C12,1*
G04 #@! TO.N,+1V2*
X15345000Y25720001D03*
G04 #@! TO.P,C12,2*
G04 #@! TO.N,GND*
X13795000Y25720001D03*
G04 #@! TD*
G04 #@! TO.P,C13,1*
G04 #@! TO.N,+1V2*
X15330000Y24690000D03*
G04 #@! TO.P,C13,2*
G04 #@! TO.N,GND*
X13780000Y24690000D03*
G04 #@! TD*
D17*
G04 #@! TO.P,C14,1*
G04 #@! TO.N,+5V*
X22065000Y28640000D03*
G04 #@! TO.P,C14,2*
G04 #@! TO.N,GND*
X23615000Y28640000D03*
G04 #@! TD*
G04 #@! TO.P,C15,1*
G04 #@! TO.N,+5V*
X32084999Y28639999D03*
G04 #@! TO.P,C15,2*
G04 #@! TO.N,GND*
X33634999Y28639999D03*
G04 #@! TD*
D29*
G04 #@! TO.P,C16,1*
G04 #@! TO.N,+5V*
X52230000Y25985000D03*
G04 #@! TO.P,C16,2*
G04 #@! TO.N,GND*
X52230000Y24435000D03*
G04 #@! TD*
D17*
G04 #@! TO.P,C17,1*
G04 #@! TO.N,+5V*
X42095000Y27610000D03*
G04 #@! TO.P,C17,2*
G04 #@! TO.N,GND*
X43645000Y27610000D03*
G04 #@! TD*
D16*
G04 #@! TO.P,C18,1*
G04 #@! TO.N,+5V*
X22230000Y26630000D03*
G04 #@! TO.P,C18,2*
G04 #@! TO.N,GND*
X23190000Y26630000D03*
G04 #@! TD*
G04 #@! TO.P,C19,1*
G04 #@! TO.N,+5V*
X32210000Y26650000D03*
G04 #@! TO.P,C19,2*
G04 #@! TO.N,GND*
X33170000Y26650000D03*
G04 #@! TD*
D15*
G04 #@! TO.P,C20,1*
G04 #@! TO.N,Net-(C20-Pad1)*
X30119999Y28660000D03*
G04 #@! TO.P,C20,2*
G04 #@! TO.N,GND*
X30119999Y29620000D03*
G04 #@! TD*
G04 #@! TO.P,C21,1*
G04 #@! TO.N,Net-(C21-Pad1)*
X40100000Y28660000D03*
G04 #@! TO.P,C21,2*
G04 #@! TO.N,GND*
X40100000Y29620000D03*
G04 #@! TD*
D14*
G04 #@! TO.P,C22,1*
G04 #@! TO.N,+1V5*
X26350000Y29620000D03*
G04 #@! TO.P,C22,2*
G04 #@! TO.N,Net-(C22-Pad2)*
X26350000Y28660000D03*
G04 #@! TD*
G04 #@! TO.P,C23,1*
G04 #@! TO.N,+2V5*
X36320000Y29620000D03*
G04 #@! TO.P,C23,2*
G04 #@! TO.N,Net-(C23-Pad2)*
X36320000Y28660000D03*
G04 #@! TD*
D12*
G04 #@! TO.P,C24,1*
G04 #@! TO.N,+1V5*
X25355000Y24700000D03*
G04 #@! TO.P,C24,2*
G04 #@! TO.N,GND*
X23805000Y24700000D03*
G04 #@! TD*
G04 #@! TO.P,C25,1*
G04 #@! TO.N,+2V5*
X35315000Y25720001D03*
G04 #@! TO.P,C25,2*
G04 #@! TO.N,GND*
X33765000Y25720001D03*
G04 #@! TD*
G04 #@! TO.P,C26,1*
G04 #@! TO.N,+1V5*
X25355000Y25720001D03*
G04 #@! TO.P,C26,2*
G04 #@! TO.N,GND*
X23805000Y25720001D03*
G04 #@! TD*
G04 #@! TO.P,C27,1*
G04 #@! TO.N,+2V5*
X35315000Y24700000D03*
G04 #@! TO.P,C27,2*
G04 #@! TO.N,GND*
X33765000Y24700000D03*
G04 #@! TD*
D30*
G04 #@! TO.P,C28,1*
G04 #@! TO.N,+5V*
X52230000Y28245000D03*
G04 #@! TO.P,C28,2*
G04 #@! TO.N,GND*
X52230000Y29795000D03*
G04 #@! TD*
D17*
G04 #@! TO.P,C29,1*
G04 #@! TO.N,+5V*
X22065000Y27620000D03*
G04 #@! TO.P,C29,2*
G04 #@! TO.N,GND*
X23615000Y27620000D03*
G04 #@! TD*
D16*
G04 #@! TO.P,C30,1*
G04 #@! TO.N,+5V*
X42260000Y26650000D03*
G04 #@! TO.P,C30,2*
G04 #@! TO.N,GND*
X43220000Y26650000D03*
G04 #@! TD*
D15*
G04 #@! TO.P,C31,1*
G04 #@! TO.N,Net-(C31-Pad1)*
X50100000Y28670000D03*
G04 #@! TO.P,C31,2*
G04 #@! TO.N,GND*
X50100000Y29630000D03*
G04 #@! TD*
D14*
G04 #@! TO.P,C32,1*
G04 #@! TO.N,+3V3*
X46280000Y29620000D03*
G04 #@! TO.P,C32,2*
G04 #@! TO.N,Net-(C32-Pad2)*
X46280000Y28660000D03*
G04 #@! TD*
D12*
G04 #@! TO.P,C33,1*
G04 #@! TO.N,+3V3*
X45315000Y24700000D03*
G04 #@! TO.P,C33,2*
G04 #@! TO.N,GND*
X43765000Y24700000D03*
G04 #@! TD*
G04 #@! TO.P,C34,1*
G04 #@! TO.N,+3V3*
X45315000Y25720001D03*
G04 #@! TO.P,C34,2*
G04 #@! TO.N,GND*
X43765000Y25720001D03*
G04 #@! TD*
D31*
G04 #@! TO.P,L2,1*
G04 #@! TO.N,Net-(L2-Pad1)*
X19920000Y21200000D03*
G04 #@! TO.P,L2,2*
G04 #@! TO.N,+1V2*
X15820000Y21200000D03*
G04 #@! TD*
G04 #@! TO.P,L3,1*
G04 #@! TO.N,Net-(L3-Pad1)*
X29860000Y21200000D03*
G04 #@! TO.P,L3,2*
G04 #@! TO.N,+1V5*
X25760000Y21200000D03*
G04 #@! TD*
G04 #@! TO.P,L4,1*
G04 #@! TO.N,Net-(L4-Pad1)*
X39820000Y21200000D03*
G04 #@! TO.P,L4,2*
G04 #@! TO.N,+2V5*
X35720000Y21200000D03*
G04 #@! TD*
G04 #@! TO.P,L5,1*
G04 #@! TO.N,Net-(L5-Pad1)*
X49830000Y21200000D03*
G04 #@! TO.P,L5,2*
G04 #@! TO.N,+3V3*
X45730000Y21200000D03*
G04 #@! TD*
D21*
G04 #@! TO.P,R3,1*
G04 #@! TO.N,+5V*
X18280000Y29650000D03*
G04 #@! TO.P,R3,2*
G04 #@! TO.N,Net-(C10-Pad1)*
X18280000Y28630000D03*
G04 #@! TD*
D19*
G04 #@! TO.P,R4,1*
G04 #@! TO.N,Net-(C10-Pad1)*
X19220000Y28630000D03*
G04 #@! TO.P,R4,2*
G04 #@! TO.N,GND*
X19220000Y29650000D03*
G04 #@! TD*
G04 #@! TO.P,R5,1*
G04 #@! TO.N,+5V*
X21020000Y26800000D03*
G04 #@! TO.P,R5,2*
G04 #@! TO.N,PG_1.2*
X21020000Y27820000D03*
G04 #@! TD*
D21*
G04 #@! TO.P,R6,1*
G04 #@! TO.N,+5V*
X17360000Y29650000D03*
G04 #@! TO.P,R6,2*
G04 #@! TO.N,Net-(R6-Pad2)*
X17360000Y28630000D03*
G04 #@! TD*
D19*
G04 #@! TO.P,R9,1*
G04 #@! TO.N,+1V2*
X15330000Y26770000D03*
G04 #@! TO.P,R9,2*
G04 #@! TO.N,Net-(R10-Pad1)*
X15330000Y27790000D03*
G04 #@! TD*
G04 #@! TO.P,R10,1*
G04 #@! TO.N,Net-(R10-Pad1)*
X15330000Y28630000D03*
G04 #@! TO.P,R10,2*
G04 #@! TO.N,GND*
X15330000Y29650000D03*
G04 #@! TD*
D21*
G04 #@! TO.P,R11,1*
G04 #@! TO.N,+5V*
X28250000Y29650000D03*
G04 #@! TO.P,R11,2*
G04 #@! TO.N,Net-(C20-Pad1)*
X28250000Y28630000D03*
G04 #@! TD*
D19*
G04 #@! TO.P,R12,1*
G04 #@! TO.N,Net-(C20-Pad1)*
X29239999Y28630000D03*
G04 #@! TO.P,R12,2*
G04 #@! TO.N,GND*
X29239999Y29650000D03*
G04 #@! TD*
D21*
G04 #@! TO.P,R13,1*
G04 #@! TO.N,+5V*
X38240000Y29650000D03*
G04 #@! TO.P,R13,2*
G04 #@! TO.N,Net-(C21-Pad1)*
X38240000Y28630000D03*
G04 #@! TD*
D19*
G04 #@! TO.P,R14,1*
G04 #@! TO.N,Net-(C21-Pad1)*
X39230000Y28630000D03*
G04 #@! TO.P,R14,2*
G04 #@! TO.N,GND*
X39230000Y29650000D03*
G04 #@! TD*
G04 #@! TO.P,R15,1*
G04 #@! TO.N,+5V*
X31010000Y26800000D03*
G04 #@! TO.P,R15,2*
G04 #@! TO.N,PG_1.5*
X31010000Y27820000D03*
G04 #@! TD*
G04 #@! TO.P,R16,1*
G04 #@! TO.N,+5V*
X41060000Y26800000D03*
G04 #@! TO.P,R16,2*
G04 #@! TO.N,PG_2.5*
X41060000Y27820000D03*
G04 #@! TD*
D21*
G04 #@! TO.P,R17,1*
G04 #@! TO.N,+5V*
X27350001Y29650000D03*
G04 #@! TO.P,R17,2*
G04 #@! TO.N,Net-(R17-Pad2)*
X27350001Y28630000D03*
G04 #@! TD*
G04 #@! TO.P,R18,1*
G04 #@! TO.N,+5V*
X37320000Y29650000D03*
G04 #@! TO.P,R18,2*
G04 #@! TO.N,Net-(R18-Pad2)*
X37320000Y28630000D03*
G04 #@! TD*
D19*
G04 #@! TO.P,R19,1*
G04 #@! TO.N,+1V5*
X25349999Y26770000D03*
G04 #@! TO.P,R19,2*
G04 #@! TO.N,Net-(R19-Pad2)*
X25349999Y27790000D03*
G04 #@! TD*
G04 #@! TO.P,R20,1*
G04 #@! TO.N,Net-(R19-Pad2)*
X25350000Y28630000D03*
G04 #@! TO.P,R20,2*
G04 #@! TO.N,GND*
X25350000Y29650000D03*
G04 #@! TD*
G04 #@! TO.P,R21,1*
G04 #@! TO.N,+2V5*
X35280000Y26770000D03*
G04 #@! TO.P,R21,2*
G04 #@! TO.N,Net-(R21-Pad2)*
X35280000Y27790000D03*
G04 #@! TD*
G04 #@! TO.P,R22,1*
G04 #@! TO.N,Net-(R21-Pad2)*
X35280000Y28630000D03*
G04 #@! TO.P,R22,2*
G04 #@! TO.N,GND*
X35280000Y29650000D03*
G04 #@! TD*
D21*
G04 #@! TO.P,R23,1*
G04 #@! TO.N,+5V*
X48250000Y29650000D03*
G04 #@! TO.P,R23,2*
G04 #@! TO.N,Net-(C31-Pad1)*
X48250000Y28630000D03*
G04 #@! TD*
D19*
G04 #@! TO.P,R24,1*
G04 #@! TO.N,Net-(C31-Pad1)*
X49220000Y28640000D03*
G04 #@! TO.P,R24,2*
G04 #@! TO.N,GND*
X49220000Y29660000D03*
G04 #@! TD*
G04 #@! TO.P,R25,1*
G04 #@! TO.N,+5V*
X51080000Y26800000D03*
G04 #@! TO.P,R25,2*
G04 #@! TO.N,PG_3.3*
X51080000Y27820000D03*
G04 #@! TD*
D21*
G04 #@! TO.P,R26,1*
G04 #@! TO.N,+5V*
X47310000Y29650000D03*
G04 #@! TO.P,R26,2*
G04 #@! TO.N,Net-(R26-Pad2)*
X47310000Y28630000D03*
G04 #@! TD*
D19*
G04 #@! TO.P,R27,1*
G04 #@! TO.N,+3V3*
X45300000Y26770000D03*
G04 #@! TO.P,R27,2*
G04 #@! TO.N,Net-(R27-Pad2)*
X45300000Y27790000D03*
G04 #@! TD*
G04 #@! TO.P,R28,1*
G04 #@! TO.N,Net-(R27-Pad2)*
X45300000Y28630000D03*
G04 #@! TO.P,R28,2*
G04 #@! TO.N,GND*
X45300000Y29650000D03*
G04 #@! TD*
D32*
G04 #@! TO.P,U2,1*
G04 #@! TO.N,Net-(L2-Pad1)*
X16885000Y25540000D03*
G04 #@! TO.P,U2,2*
G04 #@! TO.N,+1V2*
X16885000Y26040000D03*
G04 #@! TO.P,U2,3*
G04 #@! TO.N,Net-(R10-Pad1)*
X16885000Y26540000D03*
D33*
G04 #@! TO.P,U2,4*
G04 #@! TO.N,Net-(C11-Pad2)*
X17360000Y27390000D03*
G04 #@! TO.P,U2,5*
G04 #@! TO.N,Net-(R6-Pad2)*
X17860000Y27390000D03*
G04 #@! TO.P,U2,6*
G04 #@! TO.N,Net-(C10-Pad1)*
X18360000Y27390000D03*
D32*
G04 #@! TO.P,U2,7*
G04 #@! TO.N,PG_1.2*
X18835000Y26540000D03*
G04 #@! TO.P,U2,8*
G04 #@! TO.N,+5V*
X18190000Y26040000D03*
X18430000Y26040000D03*
X18835000Y26040000D03*
D34*
X17860000Y26040000D03*
D32*
G04 #@! TO.P,U2,9*
G04 #@! TO.N,Net-(L2-Pad1)*
X18835000Y25540000D03*
D33*
G04 #@! TO.P,U2,10*
G04 #@! TO.N,GND*
X18360000Y24690000D03*
D35*
X18240000Y24720000D03*
D36*
X17990000Y24730000D03*
D37*
X17730000Y24730000D03*
D36*
X17490000Y24730000D03*
D38*
X17860000Y24940000D03*
D33*
G04 #@! TO.P,U2,11*
X17860000Y24690000D03*
G04 #@! TO.P,U2,12*
X17360000Y24690000D03*
G04 #@! TD*
D32*
G04 #@! TO.P,U3,1*
G04 #@! TO.N,Net-(L3-Pad1)*
X26805000Y25529999D03*
G04 #@! TO.P,U3,2*
G04 #@! TO.N,+1V5*
X26805000Y26029999D03*
G04 #@! TO.P,U3,3*
G04 #@! TO.N,Net-(R19-Pad2)*
X26805000Y26529999D03*
D33*
G04 #@! TO.P,U3,4*
G04 #@! TO.N,Net-(C22-Pad2)*
X27280000Y27379999D03*
G04 #@! TO.P,U3,5*
G04 #@! TO.N,Net-(R17-Pad2)*
X27780000Y27379999D03*
G04 #@! TO.P,U3,6*
G04 #@! TO.N,Net-(C20-Pad1)*
X28280000Y27379999D03*
D32*
G04 #@! TO.P,U3,7*
G04 #@! TO.N,PG_1.5*
X28755000Y26529999D03*
G04 #@! TO.P,U3,8*
G04 #@! TO.N,+5V*
X28350000Y26029999D03*
D34*
X27780000Y26029999D03*
D32*
X28110000Y26029999D03*
X28755000Y26029999D03*
G04 #@! TO.P,U3,9*
G04 #@! TO.N,Net-(L3-Pad1)*
X28755000Y25529999D03*
D36*
G04 #@! TO.P,U3,10*
G04 #@! TO.N,GND*
X27910000Y24719999D03*
X27410000Y24719999D03*
D37*
X27650000Y24719999D03*
D33*
X28280000Y24679999D03*
D35*
X28160000Y24709999D03*
D38*
X27780000Y24929999D03*
D33*
G04 #@! TO.P,U3,11*
X27780000Y24679999D03*
G04 #@! TO.P,U3,12*
X27280000Y24679999D03*
G04 #@! TD*
D32*
G04 #@! TO.P,U4,1*
G04 #@! TO.N,Net-(L4-Pad1)*
X36795000Y25529999D03*
G04 #@! TO.P,U4,2*
G04 #@! TO.N,+2V5*
X36795000Y26029999D03*
G04 #@! TO.P,U4,3*
G04 #@! TO.N,Net-(R21-Pad2)*
X36795000Y26529999D03*
D33*
G04 #@! TO.P,U4,4*
G04 #@! TO.N,Net-(C23-Pad2)*
X37270000Y27379999D03*
G04 #@! TO.P,U4,5*
G04 #@! TO.N,Net-(R18-Pad2)*
X37770000Y27379999D03*
G04 #@! TO.P,U4,6*
G04 #@! TO.N,Net-(C21-Pad1)*
X38270000Y27379999D03*
D32*
G04 #@! TO.P,U4,7*
G04 #@! TO.N,PG_2.5*
X38745000Y26529999D03*
G04 #@! TO.P,U4,8*
G04 #@! TO.N,+5V*
X38340000Y26029999D03*
X38100000Y26029999D03*
D34*
X37770000Y26029999D03*
D32*
X38745000Y26029999D03*
G04 #@! TO.P,U4,9*
G04 #@! TO.N,Net-(L4-Pad1)*
X38745000Y25529999D03*
D36*
G04 #@! TO.P,U4,10*
G04 #@! TO.N,GND*
X37400000Y24719999D03*
D38*
X37770000Y24929999D03*
D36*
X37900000Y24719999D03*
D33*
X38270000Y24679999D03*
D37*
X37640000Y24719999D03*
D35*
X38150000Y24709999D03*
D33*
G04 #@! TO.P,U4,11*
X37770000Y24679999D03*
G04 #@! TO.P,U4,12*
X37270000Y24679999D03*
G04 #@! TD*
D32*
G04 #@! TO.P,U5,1*
G04 #@! TO.N,Net-(L5-Pad1)*
X46895000Y25529999D03*
G04 #@! TO.P,U5,2*
G04 #@! TO.N,+3V3*
X46895000Y26029999D03*
G04 #@! TO.P,U5,3*
G04 #@! TO.N,Net-(R27-Pad2)*
X46895000Y26529999D03*
D33*
G04 #@! TO.P,U5,4*
G04 #@! TO.N,Net-(C32-Pad2)*
X47370000Y27379999D03*
G04 #@! TO.P,U5,5*
G04 #@! TO.N,Net-(R26-Pad2)*
X47870000Y27379999D03*
G04 #@! TO.P,U5,6*
G04 #@! TO.N,Net-(C31-Pad1)*
X48370000Y27379999D03*
D32*
G04 #@! TO.P,U5,7*
G04 #@! TO.N,PG_3.3*
X48845000Y26529999D03*
G04 #@! TO.P,U5,8*
G04 #@! TO.N,+5V*
X48200000Y26029999D03*
D34*
X47870000Y26029999D03*
D32*
X48845000Y26029999D03*
X48440000Y26029999D03*
G04 #@! TO.P,U5,9*
G04 #@! TO.N,Net-(L5-Pad1)*
X48845000Y25529999D03*
D38*
G04 #@! TO.P,U5,10*
G04 #@! TO.N,GND*
X47870000Y24929999D03*
D33*
X48370000Y24679999D03*
D36*
X47500000Y24719999D03*
D35*
X48250000Y24709999D03*
D36*
X48000000Y24719999D03*
D37*
X47740000Y24719999D03*
D33*
G04 #@! TO.P,U5,11*
X47870000Y24679999D03*
G04 #@! TO.P,U5,12*
X47370000Y24679999D03*
G04 #@! TD*
D39*
G04 #@! TO.P,D1,1*
G04 #@! TO.N,GND*
X21020000Y29625000D03*
G04 #@! TO.P,D1,2*
G04 #@! TO.N,PG_1.2*
X21020000Y28655000D03*
G04 #@! TD*
G04 #@! TO.P,D2,1*
G04 #@! TO.N,GND*
X31010000Y29605000D03*
G04 #@! TO.P,D2,2*
G04 #@! TO.N,PG_1.5*
X31010000Y28635000D03*
G04 #@! TD*
G04 #@! TO.P,D3,1*
G04 #@! TO.N,GND*
X41060000Y29625000D03*
G04 #@! TO.P,D3,2*
G04 #@! TO.N,PG_2.5*
X41060000Y28655000D03*
G04 #@! TD*
G04 #@! TO.P,D4,1*
G04 #@! TO.N,GND*
X51080000Y29635000D03*
G04 #@! TO.P,D4,2*
G04 #@! TO.N,PG_3.3*
X51080000Y28665000D03*
G04 #@! TD*
D40*
G04 #@! TO.P,J2,1*
G04 #@! TO.N,GND*
X58640000Y32810000D03*
G04 #@! TD*
D41*
G04 #@! TO.P,J3,1*
G04 #@! TO.N,GND*
X64920000Y16860000D03*
G04 #@! TD*
D40*
G04 #@! TO.P,J4,1*
G04 #@! TO.N,GND*
X44933334Y32810000D03*
G04 #@! TD*
D41*
G04 #@! TO.P,J6,1*
G04 #@! TO.N,GND*
X64920000Y26220000D03*
G04 #@! TD*
G04 #@! TO.P,J7,1*
G04 #@! TO.N,GND*
X11190000Y16860000D03*
G04 #@! TD*
D40*
G04 #@! TO.P,J8,1*
G04 #@! TO.N,GND*
X31226668Y32810000D03*
G04 #@! TD*
G04 #@! TO.P,J9,1*
G04 #@! TO.N,GND*
X44933334Y11090000D03*
G04 #@! TD*
D41*
G04 #@! TO.P,J10,1*
G04 #@! TO.N,GND*
X11190000Y26530000D03*
G04 #@! TD*
D40*
G04 #@! TO.P,J11,1*
G04 #@! TO.N,GND*
X17520000Y32810000D03*
G04 #@! TD*
D42*
G04 #@! TO.N,GND*
X11690000Y29590000D03*
X10690000Y29590000D03*
X65390000Y29490000D03*
X64390000Y29490000D03*
X57429999Y14305001D03*
X57970000Y15005000D03*
X56870000Y15005001D03*
X56880000Y14305001D03*
X57980000Y14305000D03*
X57419999Y15005001D03*
X57970000Y13605000D03*
X57419999Y13605001D03*
X56880000Y12905001D03*
X57980000Y12905000D03*
X56870000Y13605001D03*
X57429999Y12905001D03*
X58680000Y12905001D03*
X59219999Y13605001D03*
X59770000Y13605000D03*
X59780000Y12905000D03*
X58670000Y13605001D03*
X59229999Y12905001D03*
X59219999Y15005001D03*
X59780000Y14305000D03*
X59229999Y14305001D03*
X58670000Y15005001D03*
X59770000Y15005000D03*
X58680000Y14305001D03*
X57075000Y26693334D03*
X57750000Y26693334D03*
X56400000Y26703334D03*
X57065000Y25916668D03*
X56390001Y25926668D03*
X57740000Y25916668D03*
X56390000Y25150000D03*
X57065000Y25140000D03*
X57740000Y25140000D03*
X13160000Y33320000D03*
X14160000Y33320000D03*
X15160000Y33320000D03*
X16160000Y33320000D03*
X17160000Y33320000D03*
X18160000Y33320000D03*
X19160000Y33320000D03*
X20160000Y33320000D03*
X21160000Y33320000D03*
X22160000Y33320000D03*
X23160000Y33320000D03*
X24160000Y33320000D03*
X25160000Y33320000D03*
X26160000Y33320000D03*
X27160000Y33320000D03*
X28160000Y33320000D03*
X29160000Y33320000D03*
X30160000Y33320000D03*
X31160000Y33320000D03*
X32160000Y33320000D03*
X33160000Y33320000D03*
X34160000Y33320000D03*
X35160000Y33320000D03*
X36160000Y33320000D03*
X37160000Y33320000D03*
X38160000Y33320000D03*
X39160000Y33320000D03*
X40160000Y33320000D03*
X41160000Y33320000D03*
X42160000Y33320000D03*
X43160000Y33320000D03*
X44160000Y33320000D03*
X45160000Y33320000D03*
X46160000Y33320000D03*
X47160000Y33320000D03*
X48160000Y33320000D03*
X49160000Y33320000D03*
X50160000Y33320000D03*
X51160000Y33320000D03*
X52160000Y33320000D03*
X53160000Y33320000D03*
X54160000Y33320000D03*
X55160000Y33320000D03*
X56160000Y33320000D03*
X57160000Y33320000D03*
X58160000Y33320000D03*
X59160000Y33320000D03*
X60160000Y33320000D03*
X61160000Y33320000D03*
X12290000Y32130000D03*
X13160000Y32320000D03*
X14160000Y32320000D03*
X15160000Y32320000D03*
X16160000Y32320000D03*
X17160000Y32320000D03*
X18160000Y32320000D03*
X19160000Y32320000D03*
X20160000Y32320000D03*
X21160000Y32320000D03*
X22160000Y32320000D03*
X23160000Y32320000D03*
X24160000Y32320000D03*
X25160000Y32320000D03*
X26160000Y32320000D03*
X27160000Y32320000D03*
X28160000Y32320000D03*
X29160000Y32320000D03*
X30160000Y32320000D03*
X31160000Y32320000D03*
X32160000Y32320000D03*
X33160000Y32320000D03*
X34160000Y32320000D03*
X35160000Y32320000D03*
X36160000Y32320000D03*
X37160000Y32320000D03*
X38160000Y32320000D03*
X39160000Y32320000D03*
X40160000Y32320000D03*
X41160000Y32320000D03*
X42160000Y32320000D03*
X43160000Y32320000D03*
X44160000Y32320000D03*
X45160000Y32320000D03*
X46160000Y32320000D03*
X47160000Y32320000D03*
X48160000Y32320000D03*
X49160000Y32320000D03*
X50160000Y32320000D03*
X51160000Y32320000D03*
X52160000Y32320000D03*
X53160000Y32320000D03*
X54160000Y32320000D03*
X55160000Y32320000D03*
X56160000Y32320000D03*
X57160000Y32320000D03*
X58160000Y32320000D03*
X59160000Y32320000D03*
X60160000Y32320000D03*
X61160000Y32320000D03*
X62160000Y32320000D03*
X62160000Y33320000D03*
X63160000Y32320000D03*
X63160000Y33320000D03*
X63860000Y32050000D03*
X64160000Y33320000D03*
X11300000Y33020000D03*
X10670000Y31600000D03*
X11780000Y31470000D03*
X10690000Y30590000D03*
X11690000Y30590000D03*
X10690000Y28590000D03*
X11690000Y28590000D03*
X10690000Y27590000D03*
X11690000Y27590000D03*
X10690000Y26590000D03*
X11690000Y26590000D03*
X10690000Y25590000D03*
X11690000Y25590000D03*
X10690000Y24590000D03*
X11690000Y24590000D03*
X10690000Y23590000D03*
X11690000Y23590000D03*
X10690000Y22590000D03*
X11690000Y22590000D03*
X10690000Y21590000D03*
X11690000Y21590000D03*
X10690000Y20590000D03*
X11690000Y20590000D03*
X10690000Y19590000D03*
X11690000Y19590000D03*
X10690000Y18590000D03*
X11690000Y18590000D03*
X10690000Y17590000D03*
X11690000Y17590000D03*
X10690000Y16590000D03*
X11690000Y16590000D03*
X10690000Y15590000D03*
X11690000Y15590000D03*
X10690000Y14590000D03*
X11690000Y14590000D03*
X10690000Y13590000D03*
X11690000Y13590000D03*
X10690000Y12590000D03*
X11690000Y12590000D03*
X11690000Y11590000D03*
X41690000Y11590000D03*
X42690000Y11590000D03*
X43690000Y11590000D03*
X44690000Y11590000D03*
X45690000Y11590000D03*
X46690000Y11590000D03*
X47690000Y11590000D03*
X48690000Y11590000D03*
X49690000Y11590000D03*
X50690000Y11590000D03*
X51690000Y11590000D03*
X52690000Y11590000D03*
X53690000Y11590000D03*
X54690000Y11590000D03*
X55690000Y11590000D03*
X56690000Y11590000D03*
X57690000Y11590000D03*
X58690000Y11590000D03*
X59690000Y11590000D03*
X60690000Y11590000D03*
X61690000Y11590000D03*
X62690000Y11590000D03*
X63600000Y11860000D03*
X33690000Y10590000D03*
X34690000Y10590000D03*
X35690000Y10590000D03*
X36690000Y10590000D03*
X37690000Y10590000D03*
X38690000Y10590000D03*
X39690000Y10590000D03*
X40690000Y10590000D03*
X41690000Y10590000D03*
X42690000Y10590000D03*
X43690000Y10590000D03*
X44690000Y10590000D03*
X45690000Y10590000D03*
X46690000Y10590000D03*
X47690000Y10590000D03*
X48690000Y10590000D03*
X49690000Y10590000D03*
X50690000Y10590000D03*
X51690000Y10590000D03*
X52690000Y10590000D03*
X53690000Y10590000D03*
X54690000Y10590000D03*
X55690000Y10590000D03*
X56690000Y10590000D03*
X57690000Y10590000D03*
X58690000Y10590000D03*
X59690000Y10590000D03*
X60690000Y10590000D03*
X61690000Y10590000D03*
X62690000Y10590000D03*
X63690000Y10590000D03*
X64870000Y32980000D03*
X64290000Y31450000D03*
X65380000Y31520000D03*
X64390000Y30490000D03*
X65380000Y30500000D03*
X64390000Y28490000D03*
X65390000Y28490000D03*
X64390000Y27490000D03*
X65390000Y27490000D03*
X64390000Y26490000D03*
X65390000Y26490000D03*
X64390000Y25490000D03*
X65390000Y25490000D03*
X64390000Y24490000D03*
X65390000Y24490000D03*
X64390000Y23490000D03*
X65390000Y23490000D03*
X64390000Y22490000D03*
X65390000Y22490000D03*
X64390000Y21490000D03*
X65390000Y21490000D03*
X64390000Y20490000D03*
X65390000Y20490000D03*
X64390000Y19490000D03*
X65390000Y19490000D03*
X64390000Y18490000D03*
X65390000Y18490000D03*
X64390000Y17490000D03*
X65390000Y17490000D03*
X64390000Y16490000D03*
X65390000Y16490000D03*
X64390000Y15490000D03*
X65390000Y15490000D03*
X64390000Y14490000D03*
X65390000Y14490000D03*
X64390000Y13490000D03*
X65390000Y13490000D03*
X64210000Y12480000D03*
X65390000Y12550000D03*
X65320000Y11760000D03*
X64440000Y10700000D03*
X21660000Y32820000D03*
X36660000Y32820000D03*
X52660000Y32820000D03*
X53660000Y32820000D03*
X54660000Y32820000D03*
X59660000Y32820000D03*
X43660000Y32820000D03*
X44660000Y32820000D03*
X48660000Y32820000D03*
X19660000Y32820000D03*
X51660000Y32820000D03*
X28660000Y32820000D03*
X56660000Y32820000D03*
X22660000Y32820000D03*
X37660000Y32820000D03*
X27660000Y32820000D03*
X55660000Y32820000D03*
X39660000Y32820000D03*
X46660000Y32820000D03*
X50660000Y32820000D03*
X31660000Y32820000D03*
X20660000Y32820000D03*
X23660000Y32820000D03*
X34660000Y32820000D03*
X32660000Y32820000D03*
X29660000Y32820000D03*
X57660000Y32820000D03*
X61660000Y32820000D03*
X45660000Y32820000D03*
X49660000Y32820000D03*
X41660000Y32820000D03*
X18660000Y32820000D03*
X60660000Y32820000D03*
X30660000Y32820000D03*
X42660000Y32820000D03*
X24660000Y32820000D03*
X58660000Y32820000D03*
X40660000Y32820000D03*
X33660000Y32820000D03*
X25660000Y32820000D03*
X35660000Y32820000D03*
X26660000Y32820000D03*
X38660000Y32820000D03*
X47660000Y32820000D03*
X62660000Y32820000D03*
X63660000Y32820000D03*
X64370000Y32530000D03*
X12590000Y32770000D03*
X13660000Y32820000D03*
X14660000Y32820000D03*
X15660000Y32820000D03*
X16660000Y32820000D03*
X17660000Y32820000D03*
X64770000Y31920000D03*
X64890000Y31060000D03*
X64900000Y29990000D03*
X64890000Y17980000D03*
X64890000Y13980000D03*
X64100000Y11360000D03*
X64890000Y27980000D03*
X64890000Y21980000D03*
X64890000Y25980000D03*
X64890000Y20980000D03*
X64890000Y15980000D03*
X64820000Y12910000D03*
X64890000Y14980000D03*
X64890000Y24980000D03*
X64890000Y23980000D03*
X64890000Y19980000D03*
X64890000Y16980000D03*
X64890000Y22980000D03*
X64890000Y18980000D03*
X64890000Y26980000D03*
X64890000Y28980000D03*
X10850000Y32400000D03*
X11190000Y27110000D03*
X11190000Y20110000D03*
X11190000Y29110000D03*
X11190000Y19110000D03*
X11190000Y31110000D03*
X11190000Y28110000D03*
X11190000Y26110000D03*
X11190000Y24110000D03*
X11190000Y23110000D03*
X11190000Y22110000D03*
X11190000Y21110000D03*
X11190000Y25110000D03*
X11190000Y15110000D03*
X11190000Y13110000D03*
X11190000Y14110000D03*
X11190000Y17110000D03*
X11190000Y18110000D03*
X11190000Y16110000D03*
X11190000Y30110000D03*
X11190000Y12090000D03*
X47210000Y11080000D03*
X54210000Y11080000D03*
X41210000Y11080000D03*
X43210000Y11080000D03*
X62210000Y11080000D03*
X55210000Y11080000D03*
X48210000Y11080000D03*
X61210000Y11080000D03*
X49210000Y11080000D03*
X51210000Y11080000D03*
X58210000Y11080000D03*
X57210000Y11080000D03*
X56210000Y11080000D03*
X50210000Y11080000D03*
X42210000Y11080000D03*
X44210000Y11080000D03*
X45210000Y11080000D03*
X46210000Y11080000D03*
X60210000Y11080000D03*
X53210000Y11080000D03*
X59210000Y11080000D03*
X63210000Y11080000D03*
X52210000Y11080000D03*
X11800000Y32570000D03*
X11360000Y31990000D03*
X65310000Y32360000D03*
X64650000Y11940000D03*
X64980000Y11120000D03*
X57019999Y18505001D03*
X57570000Y18505000D03*
X56470000Y18505001D03*
X57029999Y17805001D03*
X56480000Y17805001D03*
X57580000Y17805000D03*
X57019999Y19895001D03*
X56480000Y19195001D03*
X56470000Y19895001D03*
X57570000Y19895000D03*
X57580000Y19195000D03*
X57029999Y19195001D03*
X55279999Y19895001D03*
X54740000Y19195001D03*
X55840000Y19195000D03*
X55830000Y19895000D03*
X54730000Y19895001D03*
X55289999Y19195001D03*
X53590000Y19195001D03*
X54139999Y19195001D03*
X53580000Y19895001D03*
X54129999Y19895001D03*
X36430000Y24410000D03*
X26480000Y24410000D03*
X46450000Y24380000D03*
X16520000Y24390000D03*
X43650000Y29550000D03*
X43120000Y29550000D03*
X20490000Y30430000D03*
X21090000Y30430000D03*
X19890000Y30430000D03*
X31110000Y30430000D03*
X29910000Y30430000D03*
X30510000Y30430000D03*
X40440000Y30430000D03*
X41040000Y30430000D03*
X39840000Y30430000D03*
X51050000Y30430000D03*
X50450000Y30430000D03*
X49850000Y30430000D03*
X44180000Y29550000D03*
X33630000Y29550000D03*
X33100000Y29550000D03*
X34160000Y29550000D03*
X23610000Y29550000D03*
X23080000Y29550000D03*
X24140000Y29550000D03*
X51440000Y23790000D03*
X17140000Y23810000D03*
X16520000Y23810000D03*
X17750000Y23810000D03*
X18380000Y23810000D03*
X26480000Y23800000D03*
X27710000Y23800000D03*
X27100000Y23800000D03*
X28340000Y23800000D03*
X36430000Y23810000D03*
X37660000Y23810000D03*
X38290000Y23810000D03*
X37050000Y23810000D03*
X46450000Y23820000D03*
X48310000Y23820000D03*
X47680000Y23820000D03*
X47070000Y23820000D03*
X50620000Y24510000D03*
X51010000Y24130000D03*
X56390001Y27480000D03*
X57075000Y29075000D03*
X57740000Y27470000D03*
X57065000Y27470000D03*
X12160000Y33320000D03*
G04 #@! TO.N,+3V3*
X46290000Y30380000D03*
X45380000Y23780000D03*
G04 #@! TO.N,+5V*
X53845000Y25250000D03*
X54500000Y25250000D03*
X53550000Y24700000D03*
X20470000Y25720000D03*
X52625000Y26800000D03*
X53175000Y25866668D03*
X53175000Y25250000D03*
X54150000Y24700000D03*
X21070000Y25720000D03*
X21670000Y25720000D03*
X22270000Y25720000D03*
X20470000Y25120000D03*
X21070000Y25120000D03*
X21670000Y25120000D03*
X22270000Y25120000D03*
X30390000Y25700000D03*
X30390000Y25100000D03*
X30990000Y25700000D03*
X31590000Y25700000D03*
X32190000Y25100000D03*
X32190000Y25700000D03*
X31590000Y25100000D03*
X30990000Y25100000D03*
X40460000Y25100000D03*
X42260000Y25700000D03*
X41060000Y25100000D03*
X41660000Y25700000D03*
X41060000Y25700000D03*
X41660000Y25100000D03*
X42260000Y25100000D03*
X40460000Y25700000D03*
X39870000Y25700000D03*
X29780000Y25700000D03*
X19850000Y25730000D03*
X20190000Y26630000D03*
X30070000Y26610000D03*
X40180000Y26650000D03*
X53175000Y27100000D03*
X52325000Y27350000D03*
X53175000Y26483334D03*
X52000000Y26800000D03*
X28260000Y30360000D03*
X27340000Y30360000D03*
X38250000Y30350000D03*
X37330000Y30350000D03*
X47320000Y30380000D03*
X48240000Y30380000D03*
X18280000Y30320000D03*
X17360000Y30320000D03*
G04 #@! TO.N,+1V2*
X14160000Y29190000D03*
X16340000Y30380000D03*
G04 #@! TO.N,+1V5*
X26350000Y30380000D03*
X25385000Y23775000D03*
G04 #@! TO.N,+2V5*
X36320000Y30380000D03*
X35335000Y23755000D03*
G04 #@! TO.N,Net-(C3-Pad1)*
X56600000Y31300000D03*
X54700000Y27700000D03*
G04 #@! TO.N,Net-(R34-Pad2)*
X57560000Y31300000D03*
X54700000Y26940000D03*
G04 #@! TO.N,REG_EN2*
X52925000Y15350000D03*
X26050000Y8690000D03*
G04 #@! TO.N,REG_EN1*
X53420000Y17785000D03*
X27050000Y9630000D03*
G04 #@! TO.N,REG_CHG*
X28043332Y10610000D03*
X53920000Y15345000D03*
G04 #@! TO.N,REG_POWER*
X29044998Y11945000D03*
X54420000Y17785000D03*
G04 #@! TO.N,BAT_ISET*
X30046664Y11945000D03*
X54920000Y15345000D03*
G04 #@! TO.N,BAT_PG*
X31048330Y11945000D03*
X55420000Y17785000D03*
G04 #@! TO.N,BAT_CHG*
X55920000Y15345000D03*
X32060000Y11945000D03*
G04 #@! TD*
D43*
G04 #@! TO.N,GND*
X56509999Y24080000D02*
X56509999Y24990000D01*
X56509999Y24080000D02*
X56510000Y23390000D01*
X56710000Y24010000D02*
X56710000Y23320000D01*
X56710000Y24010000D02*
X56710000Y24920000D01*
X56530000Y23220001D02*
X56770000Y23460000D01*
X56770000Y24150000D02*
X56770000Y23460000D01*
X56170000Y24490000D02*
X56170000Y25400000D01*
X56000000Y24599999D02*
X56390001Y24990000D01*
D44*
X29269999Y29620000D02*
X29239999Y29650000D01*
X39200000Y29620000D02*
X40120000Y29620000D01*
X31080000Y29620000D02*
X29269999Y29620000D01*
D43*
X56320000Y27070000D02*
X57070000Y26320000D01*
X56420000Y24180000D02*
X56330000Y24180000D01*
X56320001Y24170000D02*
X56320000Y25080000D01*
X56320000Y28470000D02*
X56320000Y27070000D01*
D44*
X49230000Y29620000D02*
X51140000Y29620000D01*
X40120000Y29620000D02*
X40150000Y29650000D01*
D43*
X56330000Y24180000D02*
X56320001Y24170000D01*
X56000000Y24550000D02*
X56390001Y24160000D01*
X56320000Y23480000D02*
X56560000Y23240000D01*
X55420000Y24570000D02*
X56030000Y24570000D01*
X56320001Y24170000D02*
X56320000Y23480000D01*
X56320000Y25080000D02*
X56390000Y25150000D01*
D44*
X21090000Y29620000D02*
X19250000Y29620000D01*
D45*
G04 #@! TO.N,+3V3*
X21050000Y3250000D02*
X23050000Y3250000D01*
D44*
X45030000Y26770000D02*
X45030000Y24265000D01*
X45030000Y24425000D02*
X45030000Y21920000D01*
X45410000Y24605000D02*
X45410000Y22100000D01*
X45235000Y23075000D02*
X46330000Y21980000D01*
X45620000Y24445000D02*
X45620000Y21940000D01*
X45325000Y24720000D02*
X45325000Y23885000D01*
X45325000Y23495000D02*
X46420000Y22400000D01*
X45610000Y26180000D02*
X45610000Y24125000D01*
X45325000Y23885000D02*
X45325000Y23495000D01*
D45*
X21540000Y10230000D02*
X21540000Y5490000D01*
X22570000Y9940000D02*
X22570000Y5200000D01*
X21550000Y3340000D02*
X21550000Y5340001D01*
X22610000Y3330000D02*
X22610000Y5330001D01*
X21190000Y10630000D02*
X25620000Y15060000D01*
X21920000Y9670000D02*
X26350000Y14100000D01*
X40450000Y13680000D02*
X26410000Y13680000D01*
X40030000Y14750000D02*
X25990000Y14750000D01*
X39360000Y14560000D02*
X45300000Y20500000D01*
X39770000Y14150000D02*
X45710000Y20090000D01*
X21600000Y10100000D02*
X26030000Y14530000D01*
D46*
X46290000Y30380000D02*
X46290000Y29630000D01*
D45*
X40340000Y13180000D02*
X25890000Y13180000D01*
X22050000Y5050000D02*
X22050000Y11100000D01*
D46*
X45315000Y25274999D02*
X45315000Y24700000D01*
D45*
X22050000Y11100000D02*
X25180000Y14230000D01*
X45730000Y19390000D02*
X45730000Y21200000D01*
X39250000Y15260000D02*
X45190000Y21200000D01*
D44*
X45300000Y24715000D02*
X45315000Y24700000D01*
D45*
X46310000Y20620000D02*
X46310000Y19150000D01*
X21050000Y11300000D02*
X25010000Y15260000D01*
D46*
X46060000Y26010000D02*
X45305000Y25255000D01*
D44*
X45300000Y26770000D02*
X45300000Y24715000D01*
D45*
X23050000Y10340000D02*
X23050000Y5050000D01*
X21050000Y5050000D02*
X21050000Y11300000D01*
X40570000Y14230000D02*
X45730000Y19390000D01*
X46310000Y19150000D02*
X40340000Y13180000D01*
D47*
X45624998Y26029999D02*
X45315000Y25720001D01*
D45*
X45190000Y21200000D02*
X45730000Y21200000D01*
X21050000Y5050000D02*
X23050000Y5050000D01*
X25180000Y14230000D02*
X40570000Y14230000D01*
D46*
X46040001Y26029999D02*
X45300000Y26770000D01*
D45*
X25010000Y15260000D02*
X39250000Y15260000D01*
D46*
X46290000Y29630000D02*
X46280000Y29620000D01*
D45*
X45730000Y21200000D02*
X46310000Y20620000D01*
X25890000Y13180000D02*
X23050000Y10340000D01*
D47*
X46895000Y26029999D02*
X45624998Y26029999D01*
D48*
G04 #@! TO.N,+5V*
X55639999Y25570000D02*
X55640000Y26570000D01*
X55540000Y25570001D02*
X55539999Y26570000D01*
X55339999Y25570000D02*
X55340000Y26570000D01*
X55199998Y25570000D02*
X55200000Y26570000D01*
D44*
X54090000Y25795001D02*
X54090000Y23560000D01*
D43*
X54980000Y25810000D02*
X54260000Y25090000D01*
X54940000Y26040000D02*
X54220000Y25320000D01*
X54950000Y26270000D02*
X54230000Y25550000D01*
X54490000Y25920000D02*
X55140000Y26570000D01*
D48*
X55099998Y25570000D02*
X55100000Y26570000D01*
X55019998Y25520000D02*
X55020000Y26520000D01*
D44*
X53690000Y25220000D02*
X53690000Y23554999D01*
X53700000Y22179999D02*
X53700000Y21140000D01*
X54080000Y22179999D02*
X54080000Y21140000D01*
X53710000Y23229999D02*
X53710000Y22190000D01*
X54080000Y23229999D02*
X54080000Y22190000D01*
X32160000Y26280000D02*
X29990000Y26280000D01*
X31890000Y26050000D02*
X29720000Y26050000D01*
X32100000Y25720000D02*
X29930000Y25720000D01*
X32190000Y25570000D02*
X30020000Y25570000D01*
X30370000Y25100000D02*
X29850000Y25620000D01*
X32010000Y25100000D02*
X30370000Y25100000D01*
D47*
X19660000Y26210000D02*
X20140000Y26690000D01*
D44*
X22090000Y26630000D02*
X20190000Y26630000D01*
X22060000Y26330000D02*
X20160000Y26330000D01*
X21900000Y26090000D02*
X20000000Y26090000D01*
X22000000Y25740000D02*
X20100000Y25740000D01*
X22100000Y25480000D02*
X20200000Y25480000D01*
D47*
X19710000Y26040000D02*
X20380000Y25370000D01*
D44*
X22175000Y27105000D02*
X21510000Y26440000D01*
X40190000Y26650000D02*
X40060000Y26520000D01*
X42130000Y26300000D02*
X40160000Y26300000D01*
X41880000Y26030000D02*
X39910000Y26030000D01*
X41940000Y25700000D02*
X39970000Y25700000D01*
X42110000Y25510000D02*
X40140000Y25510000D01*
D47*
X39730000Y26060000D02*
X40399999Y25390001D01*
D44*
X51715000Y26540000D02*
X50080000Y26540000D01*
D47*
X51430000Y26510000D02*
X52120000Y27200000D01*
X51590000Y26130000D02*
X52280000Y26820000D01*
D44*
X53690000Y24540000D02*
X52160000Y26070000D01*
X18280000Y29990000D02*
X17360000Y29990000D01*
X28260000Y30360000D02*
X28260000Y29690000D01*
X28260000Y30030000D02*
X27340000Y30030000D01*
X27340000Y30360000D02*
X27340000Y29690000D01*
X28260000Y30360000D02*
X27340000Y30360000D01*
X37330000Y30350000D02*
X37330000Y29680000D01*
X38250000Y30350000D02*
X37330000Y30350000D01*
X38250000Y30020000D02*
X37330000Y30020000D01*
X38250000Y30350000D02*
X38250000Y29680000D01*
X48240000Y30380000D02*
X48240000Y29710000D01*
X47320000Y30380000D02*
X47320000Y29710000D01*
X48240000Y30380000D02*
X47320000Y30380000D01*
X48240000Y30050000D02*
X47320000Y30050000D01*
X52290000Y28030000D02*
X52290000Y26230000D01*
X52900000Y27460000D02*
X52900000Y25660000D01*
X53600000Y26030000D02*
X53280000Y26350000D01*
X53550000Y24680000D02*
X52020000Y26210000D01*
X32190000Y25100000D02*
X30550000Y25100000D01*
D49*
X32080000Y28660000D02*
X32080000Y27425000D01*
D44*
X42260000Y25150000D02*
X42210000Y25100000D01*
D45*
X53894999Y22290000D02*
X53895000Y22289999D01*
D44*
X32240000Y26610000D02*
X30070000Y26610000D01*
X53620000Y24690000D02*
X53620000Y24760000D01*
D47*
X38745000Y26029999D02*
X39360001Y26029999D01*
D43*
X55140000Y26570000D02*
X55420000Y26570000D01*
D44*
X40400000Y25100000D02*
X40140000Y25360000D01*
X54140000Y25920000D02*
X53820000Y25920000D01*
D43*
X54930000Y25570000D02*
X54210000Y24850000D01*
D49*
X22065000Y28640000D02*
X22065000Y27620000D01*
D44*
X42260000Y26650000D02*
X42260000Y25150000D01*
X32190000Y26630000D02*
X32210000Y26650000D01*
D47*
X38745000Y26029999D02*
X39469999Y26029999D01*
X29740000Y25620000D02*
X30030000Y25620000D01*
X48845000Y26029999D02*
X49339999Y26029999D01*
D44*
X20460000Y25110000D02*
X20200000Y25370000D01*
D43*
X54490000Y25920000D02*
X55140000Y26570000D01*
D47*
X47870000Y26029999D02*
X51829999Y26029999D01*
D46*
X52600001Y26029999D02*
X52640000Y25990000D01*
D44*
X53690000Y25790000D02*
X53690000Y25220000D01*
X53190000Y27440000D02*
X53190000Y25640000D01*
D47*
X18835000Y26040000D02*
X19420000Y26040000D01*
D44*
X52540000Y28090000D02*
X53190000Y27440000D01*
D50*
X32084999Y27404999D02*
X31330000Y26650000D01*
D47*
X28755000Y26029999D02*
X29330001Y26029999D01*
D44*
X53690000Y23554999D02*
X53894999Y23350000D01*
X53510000Y25920000D02*
X53190000Y26240000D01*
X42150000Y26650000D02*
X40180000Y26650000D01*
X18280000Y30320000D02*
X18280000Y29650000D01*
D47*
X40030000Y25360000D02*
X40140000Y25360000D01*
X47870000Y26029999D02*
X50665000Y26029999D01*
X19490000Y26040000D02*
X19970000Y26520000D01*
D44*
X22270000Y25110000D02*
X20460000Y25110000D01*
X53620000Y24760000D02*
X52090000Y26290000D01*
X17360000Y30320000D02*
X17360000Y29650000D01*
D47*
X28755000Y26029999D02*
X29399999Y26029999D01*
D44*
X51425000Y26220000D02*
X49790000Y26220000D01*
X22065000Y27375000D02*
X21400000Y26710000D01*
X53620000Y25220000D02*
X53610000Y25220000D01*
X53820000Y25920000D02*
X53690000Y25790000D01*
X42210000Y26620000D02*
X42180000Y26650000D01*
D48*
X55420000Y25570001D02*
X55420000Y26569999D01*
D47*
X19420000Y26040000D02*
X20090000Y25370000D01*
D44*
X53610000Y25220000D02*
X53190000Y25640000D01*
X22230000Y26630000D02*
X20330000Y26630000D01*
X42095000Y26835000D02*
X42260000Y26670000D01*
X54140000Y25920000D02*
X53510000Y25920000D01*
X18280000Y29650000D02*
X17360000Y29650000D01*
X52740000Y25640000D02*
X52090000Y26290000D01*
X22270000Y26590000D02*
X22230000Y26630000D01*
D47*
X29399999Y26029999D02*
X30030000Y26660000D01*
D44*
X18280000Y30320000D02*
X17360000Y30320000D01*
D47*
X18835000Y26040000D02*
X19490000Y26040000D01*
D44*
X53190000Y25640000D02*
X52740000Y25640000D01*
X52090000Y28090000D02*
X52090000Y26290000D01*
D47*
X51080000Y26800000D02*
X51400000Y26800000D01*
D44*
X52640000Y25990000D02*
X52640000Y27790000D01*
X30550000Y25100000D02*
X30030000Y25620000D01*
D47*
X39960000Y26520000D02*
X40160000Y26520000D01*
D43*
X54210000Y26060000D02*
X54560000Y26060000D01*
D47*
X38745000Y26029999D02*
X37770000Y26029999D01*
D44*
X32190000Y25620000D02*
X32190000Y27515000D01*
D47*
X39469999Y26029999D02*
X39960000Y26520000D01*
D44*
X22270000Y25110000D02*
X22270000Y26590000D01*
D47*
X17860000Y26040000D02*
X18835000Y26040000D01*
D44*
X32190000Y25100000D02*
X32190000Y26630000D01*
X42210000Y25100000D02*
X40400000Y25100000D01*
X53895000Y22289999D02*
X53895000Y21250000D01*
X48250000Y29650000D02*
X47310000Y29650000D01*
X22230000Y26630000D02*
X22230000Y27455000D01*
D47*
X39360001Y26029999D02*
X40030000Y25360000D01*
D43*
X54210000Y24850000D02*
X54210000Y23665001D01*
D44*
X52090000Y28090000D02*
X52540000Y28090000D01*
D47*
X29330001Y26029999D02*
X29740000Y25620000D01*
D44*
X21400000Y26710000D02*
X21020000Y26710000D01*
X38240000Y29650000D02*
X37320000Y29650000D01*
D47*
X28755000Y26029999D02*
X27780000Y26029999D01*
D43*
X54210000Y23665001D02*
X53894999Y23350000D01*
X54170000Y24580000D02*
X54170000Y24470000D01*
D44*
X28250000Y29650000D02*
X27350001Y29650000D01*
D47*
X50110000Y26800000D02*
X51080000Y26800000D01*
X51400000Y26800000D02*
X52090000Y27490000D01*
X48200000Y26029999D02*
X52600001Y26029999D01*
D45*
X53894999Y23350000D02*
X53894999Y22290000D01*
D43*
X55420000Y25570000D02*
X54930000Y25570000D01*
D47*
X49339999Y26029999D02*
X50110000Y26800000D01*
D50*
X31330000Y26650000D02*
X31010000Y26650000D01*
D49*
X42095000Y28630000D02*
X42095000Y26835000D01*
D43*
X55140000Y25550000D02*
X54170000Y24580000D01*
D47*
X20090000Y25370000D02*
X20200000Y25370000D01*
D44*
X53895000Y21250000D02*
X53905000Y21240000D01*
D45*
G04 #@! TO.N,+1V2*
X15050000Y4560000D02*
X13050000Y4560000D01*
X15050000Y3930000D02*
X13050000Y3930000D01*
X15020000Y3250000D02*
X14020000Y3250000D01*
D44*
X15120000Y26750000D02*
X15120000Y24245000D01*
D47*
X15000000Y26470000D02*
X14740000Y26730000D01*
D44*
X15130000Y24425000D02*
X15130000Y21920000D01*
X15700000Y24470000D02*
X15700000Y21965000D01*
X15335000Y23075000D02*
X16430000Y21980000D01*
X15510000Y24605000D02*
X15510000Y22100000D01*
X15425000Y23495000D02*
X16520000Y22400000D01*
X15700000Y25990000D02*
X15700000Y23485000D01*
D51*
X16040000Y25920000D02*
X15310000Y26650000D01*
D45*
X14520000Y5440000D02*
X14520000Y18150000D01*
X13590000Y5760000D02*
X13590000Y18470000D01*
X14750000Y18180000D02*
X16100000Y19530000D01*
X13860000Y18680000D02*
X15210000Y20030000D01*
D51*
X16250000Y26050000D02*
X15370000Y25170000D01*
D45*
X14050000Y18230000D02*
X15760000Y19940000D01*
D47*
X15330000Y26770000D02*
X14430000Y26770000D01*
D46*
X15330000Y26770000D02*
X15250000Y26770000D01*
D45*
X14050000Y5050000D02*
X14050000Y18230000D01*
D44*
X15664999Y26040000D02*
X15345000Y25720001D01*
X15345000Y24705000D02*
X15330000Y24690000D01*
D45*
X15050000Y17760000D02*
X16400000Y19110000D01*
X13600000Y5050000D02*
X13050000Y5600000D01*
X16400000Y20620000D02*
X15820000Y21200000D01*
D47*
X14170000Y27030000D02*
X14170000Y29180000D01*
X16885000Y26040000D02*
X15940000Y26040000D01*
D51*
X15940000Y26040000D02*
X15664999Y26040000D01*
D45*
X13050000Y5600000D02*
X13050000Y18610000D01*
X13050000Y3910000D02*
X13700000Y3260000D01*
D44*
X15330000Y26750000D02*
X15330000Y24670000D01*
D45*
X15050000Y5050000D02*
X15050000Y17760000D01*
X13050000Y5600000D02*
X13050000Y3910000D01*
X15760000Y21140000D02*
X15820000Y21200000D01*
D47*
X14170000Y29180000D02*
X14160000Y29190000D01*
D45*
X15640000Y21200000D02*
X15820000Y21200000D01*
D51*
X15510000Y26770000D02*
X15330000Y26770000D01*
D45*
X13050000Y18610000D02*
X15640000Y21200000D01*
D51*
X16240000Y26040000D02*
X15510000Y26770000D01*
D45*
X15760000Y19940000D02*
X15760000Y21140000D01*
X16400000Y19110000D02*
X16400000Y20620000D01*
D46*
X16340000Y30380000D02*
X16340000Y29620000D01*
D45*
X15050000Y5050000D02*
X13600000Y5050000D01*
D47*
X14430000Y26770000D02*
X14170000Y27030000D01*
D45*
G04 #@! TO.N,+1V5*
X18050000Y3250000D02*
X16050000Y3250000D01*
X16590000Y6140001D02*
X16590000Y4140000D01*
X17530000Y6260001D02*
X17530000Y4260000D01*
X16510000Y5260001D02*
X16510000Y3260000D01*
X17540000Y5260001D02*
X17540000Y3260000D01*
D44*
X25070000Y26780000D02*
X25070000Y24275000D01*
X25070000Y24455000D02*
X25070000Y21950000D01*
X25275000Y23105000D02*
X26370000Y22010000D01*
X25365000Y23525000D02*
X26460000Y22430000D01*
X25450000Y24635000D02*
X25450000Y22130000D01*
X25660000Y24475000D02*
X25660000Y21970000D01*
D51*
X25940000Y25870000D02*
X25199999Y26610001D01*
D44*
X25660000Y25820000D02*
X25660000Y23765000D01*
X25365000Y23975000D02*
X25365000Y23525000D01*
D45*
X17600000Y5190000D02*
X17600000Y13620000D01*
X16560000Y5290000D02*
X16560000Y13230000D01*
X17340000Y14210000D02*
X25550000Y22420000D01*
X24320000Y21200000D02*
X16050000Y12930000D01*
D51*
X26090000Y26029999D02*
X25349999Y26770000D01*
D45*
X25500000Y20600000D02*
X26360000Y20600000D01*
D47*
X26805000Y26029999D02*
X26099999Y26029999D01*
D46*
X26350000Y30380000D02*
X26350000Y29620000D01*
D45*
X18050000Y13150000D02*
X25500000Y20600000D01*
X25760000Y21200000D02*
X24320000Y21200000D01*
X18050000Y5050000D02*
X18050000Y13150000D01*
X16050000Y12930000D02*
X16050000Y5050000D01*
X17050000Y5050000D02*
X17050000Y12990000D01*
D46*
X25664998Y26029999D02*
X25355000Y25720001D01*
D47*
X26099999Y26029999D02*
X25940000Y25870000D01*
D44*
X25360000Y26770000D02*
X25360000Y24705001D01*
D51*
X26130000Y26029999D02*
X25355000Y25254999D01*
D45*
X17050000Y12990000D02*
X25260000Y21200000D01*
X25260000Y21200000D02*
X25760000Y21200000D01*
X26360000Y20600000D02*
X25760000Y21200000D01*
X18050000Y5050000D02*
X16050000Y5050000D01*
D44*
G04 #@! TO.N,+2V5*
X35020000Y26770000D02*
X35020000Y24265000D01*
X35400000Y24585000D02*
X35400000Y22080000D01*
X35610000Y24425000D02*
X35610000Y21920000D01*
X35225000Y23055000D02*
X36320000Y21960000D01*
X35610000Y25700000D02*
X35610000Y23645000D01*
X35315000Y23955000D02*
X35315000Y23475000D01*
D45*
X19610000Y4650000D02*
X19610000Y12150000D01*
X19550000Y4550000D02*
X19550000Y3550000D01*
X19210000Y11940000D02*
X24560000Y17290000D01*
X24530000Y16800000D02*
X31820000Y16800000D01*
X31250000Y16640000D02*
X35010000Y20400000D01*
X32030000Y16460000D02*
X32030000Y16580000D01*
X20050000Y3250000D02*
X19050000Y3250000D01*
D44*
X35960000Y26020000D02*
X35215001Y25275001D01*
X35970000Y26030000D02*
X35229999Y26770001D01*
D45*
X32540000Y16250000D02*
X24440000Y16250000D01*
X24440000Y16250000D02*
X20050000Y11860000D01*
D44*
X35624998Y26029999D02*
X35315000Y25720001D01*
D45*
X35670000Y20220000D02*
X35790000Y20220000D01*
D44*
X35020000Y24405000D02*
X35020000Y21900000D01*
D45*
X35120000Y21200000D02*
X35720000Y21200000D01*
D44*
X35315000Y25285000D02*
X35315000Y24700000D01*
X35315000Y23475000D02*
X36410000Y22380000D01*
D45*
X36310000Y20020000D02*
X32540000Y16250000D01*
D44*
X35280000Y26770000D02*
X35280000Y24735000D01*
D45*
X20050000Y11860000D02*
X20050000Y5050000D01*
X19050000Y5050000D02*
X19050000Y12670000D01*
D44*
X35315000Y24700000D02*
X35020000Y24405000D01*
D45*
X36310000Y20610000D02*
X36310000Y20020000D01*
X31230000Y17440000D02*
X34990000Y21200000D01*
D46*
X36320000Y30380000D02*
X36320000Y29620000D01*
D44*
X35315000Y24700000D02*
X35315000Y23955000D01*
D45*
X35720000Y21200000D02*
X36310000Y20610000D01*
D44*
X35280000Y24735000D02*
X35315000Y24700000D01*
X36410000Y21890000D02*
X35720000Y21200000D01*
X36410000Y22380000D02*
X36410000Y21890000D01*
X35020000Y21900000D02*
X35720000Y21200000D01*
D45*
X35720000Y21200000D02*
X35160000Y21200000D01*
D47*
X36795000Y26029999D02*
X35624998Y26029999D01*
D45*
X19050000Y12670000D02*
X23820000Y17440000D01*
X34990000Y21200000D02*
X35720000Y21200000D01*
X23820000Y17440000D02*
X31230000Y17440000D01*
X32030000Y16580000D02*
X35670000Y20220000D01*
D51*
G04 #@! TO.N,BAT+*
X58420000Y16105000D02*
X59420000Y16105000D01*
X58420000Y17105000D02*
X59420000Y17105000D01*
X58420000Y16885000D02*
X59420000Y16885000D01*
X58420000Y16365000D02*
X59420000Y16365000D01*
X57760000Y22290000D02*
X58467107Y22997107D01*
X58660000Y16835000D02*
X58660000Y19470000D01*
X58950000Y16945000D02*
X58950000Y19580000D01*
X59210000Y16995000D02*
X59210000Y19630000D01*
X59480000Y16995000D02*
X59480000Y19630000D01*
X59710000Y17355000D02*
X59710000Y19990000D01*
X59930000Y17555000D02*
X59930000Y20190000D01*
D44*
X58590000Y21580000D02*
X58590000Y20475000D01*
X58190000Y22180000D02*
X59630000Y20740000D01*
X58760000Y21460000D02*
X60200000Y20020000D01*
X58520000Y21120000D02*
X59960000Y19680000D01*
X58260000Y20860000D02*
X59700000Y19420000D01*
D51*
X58630000Y16755000D02*
X58630000Y21170000D01*
X58850000Y16755000D02*
X58850000Y21170000D01*
X59040000Y16755000D02*
X59040000Y21170000D01*
D44*
X58280000Y21190000D02*
X58280000Y21880000D01*
D51*
X60310000Y17650000D02*
X60310000Y20480000D01*
X61150000Y18620000D02*
X59390000Y16860000D01*
X61120000Y18780000D02*
X59360000Y17020000D01*
D44*
X58420000Y22410000D02*
X58420000Y24430000D01*
X58770000Y22000000D02*
X60210000Y20560000D01*
D51*
X60210000Y17730000D02*
X60210000Y20560000D01*
X58420000Y16605000D02*
X58410000Y16615000D01*
D44*
X61180000Y19200000D02*
X61180000Y19590000D01*
X57520000Y22320000D02*
X57550000Y22320000D01*
D51*
X59420000Y16605000D02*
X59420000Y16915000D01*
D44*
X58580000Y22320000D02*
X58590000Y22330000D01*
D51*
X61180000Y19200000D02*
X61180000Y18365000D01*
X61180000Y18365000D02*
X59420000Y16605000D01*
X58410000Y21055000D02*
X58255000Y21210000D01*
X58410000Y16640000D02*
X58410000Y21055000D01*
D44*
X58770000Y22410000D02*
X58770000Y22860000D01*
D51*
X59420000Y16915000D02*
X60210000Y17705000D01*
D44*
X57550000Y22320000D02*
X57990000Y21880000D01*
X61180000Y19590000D02*
X60210000Y20560000D01*
X58060000Y21140000D02*
X58060000Y21830000D01*
X57990000Y21880000D02*
X57990000Y22250000D01*
X57520000Y22320000D02*
X58580000Y22320000D01*
X58770000Y22860000D02*
X58770000Y24430000D01*
D51*
X58420000Y16605000D02*
X59420000Y16605000D01*
X58870000Y22050000D02*
X58590000Y22330000D01*
D44*
X58770000Y22860000D02*
X58770000Y22000000D01*
D43*
G04 #@! TO.N,Net-(C3-Pad1)*
X54740000Y27570000D02*
X54310000Y27570000D01*
D44*
X56600000Y31300000D02*
X56600000Y30610000D01*
D43*
X54310000Y27570000D02*
X54150000Y27730000D01*
D46*
X54140000Y27710000D02*
X54690000Y27710000D01*
X54690000Y27710000D02*
X54700000Y27700000D01*
D43*
X55420000Y27570000D02*
X54740000Y27570000D01*
G04 #@! TO.N,Net-(C4-Pad1)*
X58680000Y28300000D02*
X57850000Y28300000D01*
X58690000Y28460000D02*
X57860000Y28460000D01*
X58690000Y28640000D02*
X57860000Y28640000D01*
X58670000Y29090000D02*
X58083101Y28503101D01*
D44*
X58690000Y29550000D02*
X58690000Y28200000D01*
D43*
X58480000Y28070000D02*
X58719999Y28070000D01*
X58080000Y28470000D02*
X58480000Y28070001D01*
D44*
G04 #@! TO.N,Net-(C5-Pad1)*
X54130000Y29650000D02*
X54130000Y28730000D01*
D43*
G04 #@! TO.N,Net-(C6-Pad1)*
X57820000Y23540000D02*
X57520000Y23240000D01*
X57820000Y24170000D02*
X57820000Y23540000D01*
G04 #@! TO.N,Net-(C39-Pad1)*
X58720000Y25070000D02*
X59700000Y25070001D01*
D44*
G04 #@! TO.N,Net-(R2-Pad1)*
X55420000Y29620000D02*
X55420000Y28200000D01*
D43*
G04 #@! TO.N,Net-(R7-Pad1)*
X59550000Y27570000D02*
X58720000Y27570000D01*
G04 #@! TO.N,Net-(R34-Pad2)*
X54670000Y27070000D02*
X54260000Y27070000D01*
D46*
X54700000Y26940000D02*
X54140000Y26940000D01*
D43*
X55420000Y27070000D02*
X54670000Y27070000D01*
D44*
X57560000Y31300000D02*
X57560000Y30640000D01*
D43*
X54260000Y27070000D02*
X54150000Y26960000D01*
D48*
G04 #@! TO.N,Net-(C39-Pad2)*
X58950000Y25600000D02*
X58950000Y27099999D01*
X58840000Y25600000D02*
X58840000Y27099999D01*
X58580000Y25600000D02*
X58579999Y27100000D01*
X58500000Y25600000D02*
X58500000Y27099999D01*
D43*
X59040000Y25780000D02*
X59040000Y26826518D01*
X59250000Y25780000D02*
X59250000Y26826518D01*
X59440000Y25770000D02*
X59440000Y26816518D01*
X59650000Y25770000D02*
X59650000Y26816518D01*
X59840000Y25790000D02*
X59840000Y26836518D01*
X60070000Y25960000D02*
X60070000Y27006518D01*
X60270000Y26100000D02*
X60270000Y27146518D01*
X60070000Y25840000D02*
X60310000Y25600000D01*
X60180000Y25990000D02*
X60420000Y25750000D01*
D44*
X61320000Y27340000D02*
X61320000Y24640000D01*
X61680000Y27160000D02*
X61680000Y24460000D01*
X61390000Y26350000D02*
X61390000Y23650000D01*
X62050000Y24570000D02*
X61050000Y23570000D01*
X62320000Y26640000D02*
X62320000Y24150000D01*
X62050000Y26980000D02*
X62050000Y24490000D01*
X60540000Y25060000D02*
X60540000Y24320000D01*
D43*
X59880000Y25840000D02*
X60510000Y25210000D01*
D44*
X60570000Y25130000D02*
X60520000Y25080000D01*
D45*
X61710000Y23150000D02*
X61710000Y23290000D01*
D48*
X58719999Y25570000D02*
X58720000Y27070000D01*
D44*
X60540000Y25060000D02*
X60640000Y24960000D01*
X60570000Y27570000D02*
X60570000Y25130000D01*
D43*
X59830000Y26830000D02*
X60570000Y27570000D01*
D44*
X60930000Y27210000D02*
X60570000Y27570000D01*
X62720000Y24160000D02*
X61710000Y23150000D01*
D43*
X59180000Y25760000D02*
X59890000Y25760000D01*
D44*
X62720000Y26650000D02*
X62720000Y24160000D01*
X60570000Y27570000D02*
X61800000Y27570000D01*
D43*
X58970000Y27070000D02*
X59210000Y26830000D01*
D44*
X61800000Y27570000D02*
X62720000Y26650000D01*
D43*
X59210000Y26830000D02*
X59830000Y26830000D01*
X60520000Y25130000D02*
X60520000Y25080000D01*
D44*
X60540000Y24320000D02*
X61710000Y23150000D01*
X62180000Y24300000D02*
X61180000Y23300000D01*
D43*
X58720000Y27070000D02*
X58970000Y27070000D01*
D44*
X60930000Y23700000D02*
X60930000Y27210000D01*
D43*
X58990000Y25570000D02*
X59180000Y25760000D01*
D51*
G04 #@! TO.N,REG_EN2*
X52920000Y16605000D02*
X52920000Y15578544D01*
G04 #@! TO.N,REG_EN1*
X53420000Y16605000D02*
X53420000Y17785000D01*
G04 #@! TO.N,REG_CHG*
X53920000Y16605000D02*
X53920000Y15345000D01*
G04 #@! TO.N,REG_POWER*
X54420000Y16605000D02*
X54420000Y17785000D01*
G04 #@! TO.N,BAT_ISET*
X54920000Y16605000D02*
X54920000Y15345000D01*
G04 #@! TO.N,BAT_PG*
X55420000Y16605000D02*
X55420000Y17785000D01*
G04 #@! TO.N,BAT_CHG*
X55920000Y16605000D02*
X55920000Y15345000D01*
D43*
G04 #@! TO.N,Net-(C11-Pad2)*
X17360000Y27390000D02*
X17360000Y27590000D01*
X16340000Y28610000D02*
X16340000Y28660000D01*
X17360000Y27590000D02*
X16340000Y28610000D01*
G04 #@! TO.N,Net-(C22-Pad2)*
X27280000Y27380000D02*
X27280000Y27590000D01*
X26410000Y28460000D02*
X26410000Y28660000D01*
X27280000Y27590000D02*
X26410000Y28460000D01*
G04 #@! TO.N,Net-(C23-Pad2)*
X36320000Y28570000D02*
X36320000Y28660000D01*
X37270000Y27620000D02*
X36320000Y28570000D01*
X37270000Y27379999D02*
X37270000Y27620000D01*
G04 #@! TO.N,Net-(C32-Pad2)*
X47370000Y27379999D02*
X47370000Y27570000D01*
X47370000Y27570000D02*
X46280000Y28660000D01*
D51*
G04 #@! TO.N,Net-(L2-Pad1)*
X19330000Y24990000D02*
X19330000Y21735000D01*
X19550000Y24902500D02*
X19550000Y21647500D01*
X19760000Y24620000D02*
X19760000Y21365000D01*
X19970000Y24410000D02*
X19970000Y21155000D01*
X20200000Y24180000D02*
X20200000Y20925000D01*
X20350000Y23990000D02*
X20350000Y20735000D01*
X20490000Y23820000D02*
X20490000Y20565000D01*
X19130000Y21990000D02*
X19920000Y21200000D01*
X20720000Y23850000D02*
X20720000Y22000000D01*
X19130000Y25245000D02*
X19130000Y21990000D01*
X20720000Y22000000D02*
X19920000Y21200000D01*
X18835000Y25540000D02*
X19030000Y25540000D01*
X19030000Y25540000D02*
X20720000Y23850000D01*
X16885000Y25540000D02*
X18835000Y25540000D01*
X18755000Y25475000D02*
X19050000Y25180000D01*
G04 #@! TO.N,Net-(L3-Pad1)*
X29260000Y24980000D02*
X29260000Y21755001D01*
X29450000Y24840000D02*
X29450000Y21615001D01*
X29670000Y24590000D02*
X29670000Y21365001D01*
X29900000Y24410000D02*
X29900000Y21185001D01*
X30150000Y24190000D02*
X30150000Y20965001D01*
X30410000Y23950000D02*
X30410000Y20725001D01*
X30660000Y22000000D02*
X29860000Y21200000D01*
X28960001Y25529999D02*
X30660000Y23830000D01*
X29060000Y22000000D02*
X29860000Y21200000D01*
X29060000Y25224999D02*
X29060000Y22000000D01*
X26805000Y25529999D02*
X28755000Y25529999D01*
X30660000Y23830000D02*
X30660000Y22000000D01*
X28705000Y25465000D02*
X29010000Y25160000D01*
X28755000Y25529999D02*
X28960001Y25529999D01*
G04 #@! TO.N,Net-(L4-Pad1)*
X39240000Y25090000D02*
X39240000Y21835001D01*
X39480000Y24830000D02*
X39480000Y21575001D01*
X39690000Y24580000D02*
X39690000Y21325001D01*
X39930000Y24400000D02*
X39930000Y21145001D01*
X40150000Y24170000D02*
X40150000Y20915001D01*
X40390000Y23920000D02*
X40390000Y20665001D01*
X38695000Y25475000D02*
X38960000Y25210000D01*
X36795000Y25529999D02*
X38745000Y25529999D01*
X38745000Y25529999D02*
X38940001Y25529999D01*
X40610000Y21990000D02*
X39820000Y21200000D01*
X38940001Y25529999D02*
X40610000Y23860000D01*
X39010000Y25264999D02*
X39010000Y22010000D01*
X38745000Y25529999D02*
X39010000Y25264999D01*
X39010000Y22010000D02*
X39820000Y21200000D01*
X40610000Y23860000D02*
X40610000Y21990000D01*
G04 #@! TO.N,Net-(L5-Pad1)*
X49250000Y25190000D02*
X49250000Y21845001D01*
X49380000Y24940000D02*
X49380000Y21595001D01*
X49610000Y24110000D02*
X49610000Y20765001D01*
X49810000Y23910000D02*
X49810000Y20565001D01*
X50190000Y23460000D02*
X50190000Y20115001D01*
X50420000Y23320000D02*
X50420000Y22080000D01*
X48845000Y25529999D02*
X49030000Y25344999D01*
X48845000Y25529999D02*
X46895000Y25529999D01*
X49590000Y25000000D02*
X49590000Y24160000D01*
X50630000Y22000000D02*
X49830000Y21200000D01*
X49820000Y24770000D02*
X49820000Y24120000D01*
X49030000Y25344999D02*
X49030000Y22000000D01*
X48845000Y25529999D02*
X49060001Y25529999D01*
X49590000Y25000000D02*
X49820000Y24770000D01*
X50070000Y23480000D02*
X50070000Y20365001D01*
X49060001Y25529999D02*
X49590000Y25000000D01*
X49820000Y24120000D02*
X50630000Y23310000D01*
X49030000Y22000000D02*
X49830000Y21200000D01*
X50630000Y23120000D02*
X50630000Y22000000D01*
X49920000Y23630000D02*
X50070000Y23480000D01*
X49590000Y24160000D02*
X50630000Y23120000D01*
X50630000Y23310000D02*
X50630000Y23120000D01*
D43*
G04 #@! TO.N,Net-(R6-Pad2)*
X17370000Y28630000D02*
X17370000Y28490000D01*
X17370000Y28490000D02*
X17860000Y28000000D01*
X17860000Y28000000D02*
X17860000Y27390000D01*
D44*
G04 #@! TO.N,Net-(R10-Pad1)*
X15340000Y28630000D02*
X15340000Y27790000D01*
D43*
X16885000Y26540000D02*
X16580000Y26540000D01*
X16580000Y26540000D02*
X15330000Y27790000D01*
G04 #@! TO.N,Net-(R17-Pad2)*
X27350001Y28390000D02*
X27350000Y28630000D01*
X27780000Y27380001D02*
X27780000Y27960001D01*
X27780000Y27960001D02*
X27350001Y28390000D01*
G04 #@! TO.N,Net-(R18-Pad2)*
X37770000Y27379999D02*
X37770000Y28000000D01*
X37770000Y28000000D02*
X37320000Y28450000D01*
X37320000Y28450000D02*
X37320000Y28630000D01*
G04 #@! TO.N,Net-(R19-Pad2)*
X25349999Y27790000D02*
X25349999Y27750001D01*
D44*
X25240000Y27790001D02*
X25239999Y27790000D01*
D43*
X26570001Y26529999D02*
X26805000Y26529999D01*
D44*
X25350000Y28630000D02*
X25350000Y27790001D01*
D43*
X25349999Y27750001D02*
X26570001Y26529999D01*
G04 #@! TO.N,Net-(R21-Pad2)*
X36795000Y26529999D02*
X36540001Y26529999D01*
X36540001Y26529999D02*
X35280000Y27790000D01*
D44*
X35280000Y28630000D02*
X35280000Y27790000D01*
D43*
G04 #@! TO.N,Net-(R26-Pad2)*
X47870000Y27379999D02*
X47870000Y27940000D01*
X47870000Y27940000D02*
X47310000Y28500000D01*
X47310000Y28500000D02*
X47310000Y28630000D01*
D44*
G04 #@! TO.N,Net-(R27-Pad2)*
X45300000Y28630000D02*
X45300000Y27790000D01*
D43*
X46560001Y26529999D02*
X45300000Y27790000D01*
X46895000Y26529999D02*
X46560001Y26529999D01*
D44*
G04 #@! TO.N,PG_1.2*
X21020000Y28700000D02*
X21020000Y27775000D01*
D43*
X20950000Y27800000D02*
X20325000Y27800000D01*
X20325000Y27800000D02*
X19065000Y26540000D01*
X19065000Y26540000D02*
X18835000Y26540000D01*
X21020000Y27730000D02*
X20950000Y27800000D01*
D44*
G04 #@! TO.N,PG_1.5*
X31010000Y28715000D02*
X31010000Y27750000D01*
D43*
X30275000Y27800000D02*
X29000000Y26525000D01*
X31050000Y27800000D02*
X30275000Y27800000D01*
G04 #@! TO.N,PG_2.5*
X41110000Y27750000D02*
X40225000Y27750000D01*
D44*
X41060000Y28655000D02*
X41060000Y27740000D01*
D43*
X40225000Y27750000D02*
X39004999Y26529999D01*
X39004999Y26529999D02*
X38745000Y26529999D01*
G04 #@! TO.N,PG_3.3*
X49004999Y26529999D02*
X48845000Y26529999D01*
X51110000Y27820000D02*
X50295000Y27820000D01*
D44*
X51080000Y28665000D02*
X51080000Y27820000D01*
D43*
X50295000Y27820000D02*
X49004999Y26529999D01*
G04 #@! TO.N,Net-(C10-Pad1)*
X18410000Y28170000D02*
X18805980Y28565980D01*
D44*
X20130000Y28630000D02*
X18280000Y28630000D01*
D43*
X18360000Y28550000D02*
X18280000Y28630000D01*
X18360000Y28210000D02*
X18094020Y28475980D01*
X18360000Y27930000D02*
X18360000Y28210000D01*
X18360000Y27390000D02*
X18360000Y28550000D01*
G04 #@! TO.N,Net-(C20-Pad1)*
X28665269Y28555269D02*
X28340000Y28230000D01*
X28280000Y28599999D02*
X28250000Y28630000D01*
D44*
X30119999Y28660000D02*
X28280000Y28660000D01*
D43*
X28280000Y27380001D02*
X28280000Y28599999D01*
X28064731Y28485269D02*
X28280000Y28270000D01*
D44*
X28280000Y28660000D02*
X28250000Y28630000D01*
D43*
G04 #@! TO.N,Net-(C21-Pad1)*
X38616170Y28530000D02*
X38283830Y28197660D01*
D44*
X40150000Y28630000D02*
X38240000Y28630000D01*
D43*
X38041915Y28493085D02*
X38308085Y28226915D01*
X38270000Y28600000D02*
X38240000Y28630000D01*
X38270000Y27379999D02*
X38270000Y28600000D01*
G04 #@! TO.N,Net-(C31-Pad1)*
X48711127Y28451127D02*
X48400000Y28140000D01*
X48060000Y28490000D02*
X48371127Y28178873D01*
D44*
X50110000Y28630000D02*
X48250000Y28630000D01*
D43*
X48370000Y27379999D02*
X48370000Y28510000D01*
X48370000Y28510000D02*
X48250000Y28630000D01*
G04 #@! TD*
G04 #@! TA.AperFunction,Conductor*
G04 #@! TO.N,GND*
G36*
X63984608Y33638710D02*
G01*
X63989145Y33637910D01*
X64000000Y33635996D01*
X64010857Y33637910D01*
X64021876Y33637910D01*
X64021876Y33637541D01*
X64034201Y33638177D01*
X64233032Y33623957D01*
X64250827Y33621399D01*
X64470320Y33573652D01*
X64487559Y33568590D01*
X64608744Y33523390D01*
X64698024Y33490090D01*
X64714376Y33482622D01*
X64911519Y33374974D01*
X64926643Y33365254D01*
X65106461Y33230644D01*
X65120047Y33218871D01*
X65278871Y33060047D01*
X65290644Y33046461D01*
X65425254Y32866643D01*
X65434974Y32851519D01*
X65542622Y32654376D01*
X65550090Y32638024D01*
X65604711Y32491582D01*
X65628588Y32427565D01*
X65633653Y32410315D01*
X65681399Y32190827D01*
X65683957Y32173032D01*
X65698177Y31974201D01*
X65697542Y31961879D01*
X65697910Y31961879D01*
X65697910Y31950859D01*
X65695996Y31940000D01*
X65698710Y31924612D01*
X65700624Y31902735D01*
X65700361Y23532417D01*
X65700001Y12037276D01*
X65698087Y12015402D01*
X65697286Y12010859D01*
X65697286Y12010854D01*
X65695372Y12000000D01*
X65697286Y11989143D01*
X65697286Y11978124D01*
X65696917Y11978124D01*
X65697553Y11965799D01*
X65683333Y11766968D01*
X65680775Y11749173D01*
X65640847Y11565623D01*
X65633029Y11529685D01*
X65627966Y11512441D01*
X65602629Y11444511D01*
X65549466Y11301976D01*
X65541998Y11285624D01*
X65434350Y11088481D01*
X65424630Y11073357D01*
X65290020Y10893539D01*
X65278247Y10879953D01*
X65119423Y10721129D01*
X65105837Y10709356D01*
X64926019Y10574746D01*
X64910895Y10565026D01*
X64713752Y10457378D01*
X64697400Y10449910D01*
X64608120Y10416610D01*
X64486935Y10371410D01*
X64469696Y10366348D01*
X64352449Y10340843D01*
X64250203Y10318601D01*
X64232408Y10316043D01*
X64033577Y10301823D01*
X64021252Y10302459D01*
X64021252Y10302090D01*
X64010233Y10302090D01*
X63999376Y10304004D01*
X63983985Y10301290D01*
X63962112Y10299377D01*
X53483969Y10299586D01*
X39996414Y10313481D01*
X32920731Y10320771D01*
X32852631Y10340843D01*
X32806194Y10394547D01*
X32796162Y10464831D01*
X32825722Y10529382D01*
X32832271Y10536369D01*
X33823821Y11516755D01*
X34525318Y12210354D01*
X49819500Y12210354D01*
X49822618Y12184154D01*
X49868061Y12081847D01*
X49947287Y12002759D01*
X49957924Y11998056D01*
X49957926Y11998055D01*
X50004498Y11977466D01*
X50049673Y11957494D01*
X50075354Y11954500D01*
X51964646Y11954500D01*
X51968350Y11954941D01*
X51968353Y11954941D01*
X51975746Y11955821D01*
X51990846Y11957618D01*
X52035531Y11977466D01*
X52082518Y11998337D01*
X52093153Y12003061D01*
X52172241Y12082287D01*
X52217506Y12184673D01*
X52220500Y12210354D01*
X60119500Y12210354D01*
X60122618Y12184154D01*
X60168061Y12081847D01*
X60247287Y12002759D01*
X60257924Y11998056D01*
X60257926Y11998055D01*
X60304498Y11977466D01*
X60349673Y11957494D01*
X60375354Y11954500D01*
X62264646Y11954500D01*
X62268350Y11954941D01*
X62268353Y11954941D01*
X62275746Y11955821D01*
X62290846Y11957618D01*
X62335531Y11977466D01*
X62382518Y11998337D01*
X62393153Y12003061D01*
X62472241Y12082287D01*
X62517506Y12184673D01*
X62520500Y12210354D01*
X62520500Y14499646D01*
X62517382Y14525846D01*
X62471939Y14628153D01*
X62392713Y14707241D01*
X62382076Y14711944D01*
X62382074Y14711945D01*
X62322538Y14738265D01*
X62290327Y14752506D01*
X62264646Y14755500D01*
X60375354Y14755500D01*
X60371650Y14755059D01*
X60371647Y14755059D01*
X60364254Y14754179D01*
X60349154Y14752382D01*
X60246847Y14706939D01*
X60167759Y14627713D01*
X60122494Y14525327D01*
X60119500Y14499646D01*
X60119500Y12210354D01*
X52220500Y12210354D01*
X52220500Y14499646D01*
X52217382Y14525846D01*
X52171939Y14628153D01*
X52092713Y14707241D01*
X52082076Y14711944D01*
X52082074Y14711945D01*
X52022538Y14738265D01*
X51990327Y14752506D01*
X51964646Y14755500D01*
X50075354Y14755500D01*
X50071650Y14755059D01*
X50071647Y14755059D01*
X50064254Y14754179D01*
X50049154Y14752382D01*
X49946847Y14706939D01*
X49867759Y14627713D01*
X49822494Y14525327D01*
X49819500Y14499646D01*
X49819500Y12210354D01*
X34525318Y12210354D01*
X34811282Y12493099D01*
X34873785Y12526770D01*
X34899871Y12529500D01*
X40259000Y12529500D01*
X40270640Y12528951D01*
X40278296Y12527240D01*
X40286219Y12527489D01*
X40348230Y12529438D01*
X40352188Y12529500D01*
X40380925Y12529500D01*
X40385196Y12530039D01*
X40397024Y12530971D01*
X40442569Y12532403D01*
X40450183Y12534615D01*
X40450188Y12534616D01*
X40462792Y12538278D01*
X40482156Y12542289D01*
X40503058Y12544929D01*
X40510429Y12547848D01*
X40510431Y12547848D01*
X40545420Y12561702D01*
X40556631Y12565541D01*
X40600398Y12578256D01*
X40618536Y12588982D01*
X40636281Y12597676D01*
X40655871Y12605432D01*
X40692738Y12632218D01*
X40702646Y12638725D01*
X40735042Y12657883D01*
X40735047Y12657887D01*
X40741865Y12661919D01*
X40756758Y12676812D01*
X40771792Y12689653D01*
X40782423Y12697377D01*
X40788837Y12702037D01*
X40817880Y12737144D01*
X40825869Y12745923D01*
X44177709Y16097763D01*
X44240021Y16131789D01*
X44266868Y16134668D01*
X52343567Y16130457D01*
X52411676Y16110419D01*
X52458141Y16056740D01*
X52469500Y16004457D01*
X52469500Y15703156D01*
X52452618Y15640154D01*
X52449169Y15634180D01*
X52444139Y15627625D01*
X52388670Y15493709D01*
X52369750Y15350000D01*
X52388670Y15206291D01*
X52444139Y15072375D01*
X52532379Y14957379D01*
X52647375Y14869139D01*
X52781291Y14813670D01*
X52831218Y14807097D01*
X52841406Y14802513D01*
X52841957Y14805031D01*
X52867385Y14799471D01*
X52867385Y14796553D01*
X52880862Y14796524D01*
X52880863Y14796524D01*
X52903909Y14796475D01*
X52913622Y14795828D01*
X52916810Y14795828D01*
X52925000Y14794750D01*
X52933189Y14795828D01*
X52937298Y14795828D01*
X52945952Y14796386D01*
X53876580Y14794414D01*
X53892757Y14793336D01*
X53911810Y14790828D01*
X53911811Y14790828D01*
X53920000Y14789750D01*
X53928188Y14790828D01*
X53928191Y14790828D01*
X53945861Y14793154D01*
X53962572Y14794232D01*
X54892934Y14792261D01*
X54909113Y14791183D01*
X54911810Y14790828D01*
X54911813Y14790828D01*
X54920000Y14789750D01*
X54928187Y14790828D01*
X54928190Y14790828D01*
X54930021Y14791069D01*
X54946734Y14792147D01*
X55352844Y14791287D01*
X55917416Y14790090D01*
X55920000Y14789750D01*
X55922502Y14790079D01*
X55924799Y14790074D01*
X55924800Y14790074D01*
X55941885Y14790038D01*
X55941886Y14790038D01*
X55960000Y14790000D01*
X55960000Y14794413D01*
X55967671Y14796026D01*
X56063709Y14808670D01*
X56197625Y14864139D01*
X56312621Y14952379D01*
X56400861Y15067375D01*
X56456330Y15201291D01*
X56475250Y15345000D01*
X56456330Y15488709D01*
X56400861Y15622625D01*
X56395833Y15629178D01*
X56391705Y15636327D01*
X56393105Y15637135D01*
X56370937Y15694481D01*
X56370500Y15704963D01*
X56370500Y17299646D01*
X56367382Y17325846D01*
X56321939Y17428153D01*
X56242713Y17507241D01*
X56232076Y17511944D01*
X56232074Y17511945D01*
X56148992Y17548675D01*
X56148993Y17548675D01*
X56140327Y17552506D01*
X56114646Y17555500D01*
X56088711Y17555500D01*
X56020590Y17575502D01*
X55974097Y17629158D01*
X55963789Y17697947D01*
X55974172Y17776812D01*
X55975250Y17785000D01*
X55956330Y17928709D01*
X55900861Y18062625D01*
X55812621Y18177621D01*
X55697625Y18265861D01*
X55689996Y18269021D01*
X55571339Y18318170D01*
X55571336Y18318171D01*
X55563709Y18321330D01*
X55495469Y18330314D01*
X55463384Y18334538D01*
X55453314Y18336282D01*
X55450000Y18336995D01*
X55450000Y18340000D01*
X55436320Y18339941D01*
X55436318Y18339941D01*
X55425512Y18339894D01*
X55425511Y18339894D01*
X55422797Y18339882D01*
X55420000Y18340250D01*
X55417012Y18339857D01*
X55414164Y18339845D01*
X55414163Y18339845D01*
X54655860Y18336547D01*
X54463297Y18335710D01*
X54446304Y18336787D01*
X54428188Y18339172D01*
X54420000Y18340250D01*
X54390768Y18336401D01*
X54374882Y18335325D01*
X53495267Y18331501D01*
X53478273Y18332578D01*
X53457143Y18335360D01*
X53420000Y18340250D01*
X53364804Y18332983D01*
X53294657Y18343922D01*
X53241558Y18391050D01*
X53222359Y18458033D01*
X53222589Y18684248D01*
X53224229Y20302309D01*
X53244300Y20370409D01*
X53298003Y20416848D01*
X53350942Y20428179D01*
X54380000Y20422339D01*
X54442989Y20494709D01*
X54688108Y20776337D01*
X54700000Y20790000D01*
X54700000Y24456062D01*
X54720002Y24524183D01*
X54736905Y24545157D01*
X54846158Y24654410D01*
X54908470Y24688436D01*
X54979285Y24683371D01*
X54986201Y24680555D01*
X55041007Y24656325D01*
X55041008Y24656325D01*
X55049673Y24652494D01*
X55075354Y24649500D01*
X55764646Y24649500D01*
X55768350Y24649941D01*
X55768353Y24649941D01*
X55776788Y24650945D01*
X55790846Y24652618D01*
X55853742Y24680555D01*
X55882518Y24693337D01*
X55893153Y24698061D01*
X55916990Y24721939D01*
X55964023Y24769055D01*
X55972241Y24777287D01*
X55983942Y24803752D01*
X56013675Y24871008D01*
X56017506Y24879673D01*
X56020500Y24905354D01*
X56020500Y25234646D01*
X56017382Y25260846D01*
X56013545Y25269484D01*
X56011039Y25278603D01*
X56012446Y25278990D01*
X56004408Y25339321D01*
X56013589Y25370691D01*
X56013676Y25371009D01*
X56017506Y25379673D01*
X56020500Y25405354D01*
X56020500Y25734646D01*
X56017382Y25760846D01*
X56017989Y25760918D01*
X56015499Y25779374D01*
X56015499Y25860831D01*
X56018014Y25879614D01*
X56017506Y25879673D01*
X56020500Y25905354D01*
X56020500Y26234646D01*
X56017382Y26260846D01*
X56017990Y26260918D01*
X56015500Y26279371D01*
X56015500Y26360834D01*
X56018014Y26379614D01*
X56017506Y26379673D01*
X56018626Y26389279D01*
X56020500Y26405354D01*
X56020500Y26734646D01*
X56017382Y26760846D01*
X56013545Y26769484D01*
X56011039Y26778603D01*
X56012446Y26778990D01*
X56004408Y26839321D01*
X56013589Y26870691D01*
X56013676Y26871009D01*
X56017506Y26879673D01*
X56020500Y26905354D01*
X56020500Y27234646D01*
X56017382Y27260846D01*
X56013545Y27269484D01*
X56011039Y27278603D01*
X56012446Y27278990D01*
X56004408Y27339321D01*
X56013589Y27370691D01*
X56013676Y27371009D01*
X56017506Y27379673D01*
X56020500Y27405354D01*
X56020500Y27734646D01*
X56017382Y27760846D01*
X56013545Y27769483D01*
X56013102Y27771097D01*
X56014336Y27842083D01*
X56053753Y27901133D01*
X56118837Y27929498D01*
X56135712Y27930483D01*
X56166560Y27930208D01*
X56171884Y27930161D01*
X56190000Y27930000D01*
X56190000Y29844000D01*
X56210002Y29912121D01*
X56263658Y29958614D01*
X56316000Y29970000D01*
X57834000Y29970000D01*
X57902121Y29949998D01*
X57948614Y29896342D01*
X57960000Y29844000D01*
X57960000Y29196500D01*
X57939998Y29128379D01*
X57886342Y29081886D01*
X57834000Y29070500D01*
X57655354Y29070500D01*
X57651650Y29070059D01*
X57651647Y29070059D01*
X57644254Y29069179D01*
X57629154Y29067382D01*
X57620514Y29063544D01*
X57620513Y29063544D01*
X57600107Y29054480D01*
X57526847Y29021939D01*
X57447759Y28942713D01*
X57443056Y28932076D01*
X57443055Y28932074D01*
X57425496Y28892356D01*
X57402494Y28840327D01*
X57399500Y28814646D01*
X57399500Y28125354D01*
X57399941Y28121650D01*
X57399941Y28121647D01*
X57400171Y28119715D01*
X57402618Y28099154D01*
X57406456Y28090514D01*
X57406456Y28090513D01*
X57443337Y28007482D01*
X57448061Y27996847D01*
X57456294Y27988628D01*
X57456295Y27988627D01*
X57481813Y27963154D01*
X57527287Y27917759D01*
X57537924Y27913056D01*
X57537926Y27913055D01*
X57597462Y27886735D01*
X57629673Y27872494D01*
X57655354Y27869500D01*
X57984646Y27869500D01*
X57986893Y27869767D01*
X58055779Y27853898D01*
X58105364Y27803087D01*
X58119776Y27737015D01*
X58119500Y27734646D01*
X58119500Y27405354D01*
X58122618Y27379154D01*
X58126455Y27370516D01*
X58128961Y27361397D01*
X58127554Y27361010D01*
X58135592Y27300679D01*
X58126411Y27269309D01*
X58126324Y27268991D01*
X58122494Y27260327D01*
X58119500Y27234646D01*
X58119500Y26905354D01*
X58119941Y26901650D01*
X58119941Y26901647D01*
X58122618Y26879154D01*
X58122010Y26879082D01*
X58124500Y26860629D01*
X58124500Y26779165D01*
X58121986Y26760386D01*
X58122494Y26760327D01*
X58119500Y26734646D01*
X58119500Y26405354D01*
X58119941Y26401650D01*
X58119941Y26401647D01*
X58122618Y26379154D01*
X58122010Y26379082D01*
X58124500Y26360629D01*
X58124500Y26279165D01*
X58121986Y26260386D01*
X58122494Y26260327D01*
X58119500Y26234646D01*
X58119500Y25905354D01*
X58119941Y25901650D01*
X58119941Y25901647D01*
X58122618Y25879154D01*
X58122010Y25879082D01*
X58124500Y25860629D01*
X58124500Y25779165D01*
X58121986Y25760386D01*
X58122494Y25760327D01*
X58119500Y25734646D01*
X58119500Y25405354D01*
X58122618Y25379154D01*
X58126455Y25370516D01*
X58128961Y25361397D01*
X58127554Y25361010D01*
X58135592Y25300679D01*
X58126411Y25269309D01*
X58126324Y25268991D01*
X58122494Y25260327D01*
X58119500Y25234646D01*
X58119500Y24956896D01*
X58099498Y24888775D01*
X58078788Y24864150D01*
X58075588Y24861207D01*
X58013106Y24803752D01*
X57949424Y24772366D01*
X57927820Y24770500D01*
X57655354Y24770500D01*
X57651650Y24770059D01*
X57651647Y24770059D01*
X57644254Y24769179D01*
X57629154Y24767382D01*
X57526847Y24721939D01*
X57518628Y24713706D01*
X57518627Y24713705D01*
X57502709Y24697759D01*
X57447759Y24642713D01*
X57402494Y24540327D01*
X57399500Y24514646D01*
X57399500Y24386000D01*
X57379498Y24317879D01*
X57325842Y24271386D01*
X57273501Y24260000D01*
X56989015Y24260001D01*
X56930000Y24260001D01*
X56940000Y21960000D01*
X56947834Y21960000D01*
X56962798Y21947147D01*
X56992157Y21931199D01*
X57004606Y21916769D01*
X57065001Y21835001D01*
X57171548Y21756304D01*
X57180435Y21753183D01*
X57180437Y21753182D01*
X57278992Y21718572D01*
X57296526Y21712415D01*
X57304172Y21711692D01*
X57304173Y21711692D01*
X57309403Y21711198D01*
X57327362Y21709500D01*
X57330328Y21709500D01*
X57333295Y21709360D01*
X57333254Y21708482D01*
X57397907Y21689498D01*
X57418881Y21672595D01*
X57470441Y21621035D01*
X57504467Y21558723D01*
X57506433Y21516802D01*
X57504500Y21500829D01*
X57504501Y20919172D01*
X57514871Y20833472D01*
X57517849Y20825949D01*
X57517850Y20825947D01*
X57537492Y20776337D01*
X57567872Y20699605D01*
X57654922Y20584922D01*
X57769605Y20497872D01*
X57867845Y20458976D01*
X57910555Y20430920D01*
X57922595Y20418880D01*
X57956621Y20356568D01*
X57959500Y20329785D01*
X57959500Y16649220D01*
X57958627Y16634411D01*
X57954636Y16600690D01*
X57956328Y16591426D01*
X57956328Y16591425D01*
X57967450Y16530529D01*
X57969500Y16507891D01*
X57969500Y16431055D01*
X57968161Y16419353D01*
X57968681Y16419312D01*
X57967942Y16409921D01*
X57965815Y16400745D01*
X57966480Y16391350D01*
X57966480Y16391347D01*
X57969185Y16353151D01*
X57969500Y16344252D01*
X57969500Y16171055D01*
X57968161Y16159353D01*
X57968681Y16159312D01*
X57967942Y16149921D01*
X57965815Y16140745D01*
X57966480Y16131350D01*
X57966480Y16131347D01*
X57969185Y16093151D01*
X57969500Y16084252D01*
X57969500Y15910354D01*
X57972618Y15884154D01*
X58018061Y15781847D01*
X58097287Y15702759D01*
X58107924Y15698056D01*
X58107926Y15698055D01*
X58142801Y15682637D01*
X58199673Y15657494D01*
X58225354Y15654500D01*
X59614646Y15654500D01*
X59618350Y15654941D01*
X59618353Y15654941D01*
X59631461Y15656501D01*
X59631462Y15656501D01*
X59640846Y15657618D01*
X59649483Y15661454D01*
X59654764Y15662906D01*
X59687799Y15667411D01*
X60362693Y15669327D01*
X62361593Y15675000D01*
X64321691Y17595336D01*
X64315364Y17595336D01*
X64297758Y17619364D01*
X64294781Y17621640D01*
X64270644Y17688407D01*
X64270408Y17696503D01*
X64270413Y17697947D01*
X64287901Y23547967D01*
X64289946Y24231882D01*
X64289946Y24231883D01*
X64290000Y24250000D01*
X64276356Y24250000D01*
X64263034Y24252919D01*
X64263522Y24255147D01*
X64212931Y24270002D01*
X64194214Y24284703D01*
X64181178Y24297103D01*
X63829008Y24632074D01*
X63309662Y25126057D01*
X63274088Y25187499D01*
X63270500Y25217354D01*
X63270500Y26635007D01*
X63270611Y26640283D01*
X63271849Y26669828D01*
X63273210Y26702294D01*
X63271153Y26711063D01*
X63263273Y26744662D01*
X63261110Y26756333D01*
X63256372Y26790919D01*
X63255206Y26799432D01*
X63249235Y26813230D01*
X63242201Y26834499D01*
X63240730Y26840772D01*
X63240729Y26840774D01*
X63238768Y26849136D01*
X63225848Y26872638D01*
X63217806Y26887265D01*
X63212583Y26897927D01*
X63198716Y26929973D01*
X63198715Y26929974D01*
X63195305Y26937855D01*
X63185842Y26949541D01*
X63173351Y26968129D01*
X63166106Y26981308D01*
X63159102Y26989422D01*
X63134567Y27013957D01*
X63125742Y27023758D01*
X63105794Y27048392D01*
X63105793Y27048393D01*
X63100386Y27055070D01*
X63093384Y27060046D01*
X63093382Y27060048D01*
X63085051Y27065968D01*
X63068945Y27079579D01*
X62199882Y27948642D01*
X62196229Y27952451D01*
X62160015Y27991833D01*
X62154201Y27998156D01*
X62117198Y28021099D01*
X62107448Y28027800D01*
X62072783Y28054112D01*
X62058804Y28059646D01*
X62038801Y28069707D01*
X62026014Y28077635D01*
X62017763Y28080032D01*
X62017761Y28080033D01*
X61984228Y28089775D01*
X61972995Y28093621D01*
X61932547Y28109636D01*
X61924006Y28110534D01*
X61924005Y28110534D01*
X61917592Y28111208D01*
X61895617Y28115520D01*
X61881175Y28119715D01*
X61873692Y28120264D01*
X61872792Y28120331D01*
X61872781Y28120331D01*
X61870485Y28120500D01*
X61835783Y28120500D01*
X61822613Y28121190D01*
X61819992Y28121465D01*
X61782546Y28125401D01*
X61774081Y28123969D01*
X61774072Y28123969D01*
X61764000Y28122265D01*
X61742987Y28120500D01*
X60984204Y28120500D01*
X60925246Y28135145D01*
X60918660Y28138632D01*
X60911085Y28144227D01*
X60895586Y28149670D01*
X60794774Y28185073D01*
X60794772Y28185074D01*
X60787526Y28187618D01*
X60779884Y28188340D01*
X60779881Y28188341D01*
X60769974Y28189277D01*
X60757038Y28190500D01*
X60382962Y28190500D01*
X60370026Y28189277D01*
X60360119Y28188341D01*
X60360116Y28188340D01*
X60352474Y28187618D01*
X60345228Y28185074D01*
X60345226Y28185073D01*
X60327310Y28178781D01*
X60228915Y28144227D01*
X60221338Y28138631D01*
X60221337Y28138630D01*
X60134859Y28074756D01*
X60068181Y28050373D01*
X59998905Y28065910D01*
X59985141Y28074756D01*
X59898663Y28138630D01*
X59898662Y28138631D01*
X59891085Y28144227D01*
X59792690Y28178781D01*
X59774774Y28185073D01*
X59774772Y28185074D01*
X59767526Y28187618D01*
X59759884Y28188340D01*
X59759881Y28188341D01*
X59749974Y28189277D01*
X59737038Y28190500D01*
X59430532Y28190500D01*
X59362411Y28210502D01*
X59315381Y28265351D01*
X59279822Y28345405D01*
X59271939Y28363153D01*
X59263704Y28371374D01*
X59262661Y28372891D01*
X59240500Y28444259D01*
X59240500Y29270965D01*
X59247617Y29312713D01*
X59285040Y29419279D01*
X59287585Y29426526D01*
X59290500Y29457362D01*
X59290500Y29842638D01*
X59287585Y29873474D01*
X59257353Y29959563D01*
X59246818Y29989563D01*
X59246817Y29989565D01*
X59243696Y29998452D01*
X59164999Y30104999D01*
X59058452Y30183696D01*
X59049565Y30186817D01*
X59049563Y30186818D01*
X58940721Y30225040D01*
X58933474Y30227585D01*
X58925828Y30228308D01*
X58925827Y30228308D01*
X58920597Y30228802D01*
X58902638Y30230500D01*
X58457362Y30230500D01*
X58454415Y30230221D01*
X58452688Y30230140D01*
X58446755Y30230000D01*
X58287817Y30230000D01*
X58219696Y30250002D01*
X58173203Y30303658D01*
X58163099Y30373932D01*
X58168935Y30397749D01*
X58175073Y30415226D01*
X58175074Y30415228D01*
X58177618Y30422474D01*
X58180500Y30452962D01*
X58180500Y30827038D01*
X58178971Y30843218D01*
X58178341Y30849881D01*
X58178340Y30849884D01*
X58177618Y30857526D01*
X58175058Y30864818D01*
X58137348Y30972198D01*
X58137348Y30972199D01*
X58134227Y30981085D01*
X58128632Y30988660D01*
X58125145Y30995246D01*
X58110500Y31054204D01*
X58110500Y31255662D01*
X58111578Y31272109D01*
X58114172Y31291812D01*
X58115250Y31300000D01*
X58110649Y31334945D01*
X58110500Y31336443D01*
X58110500Y31337785D01*
X58110009Y31341366D01*
X58110008Y31341380D01*
X58104770Y31379611D01*
X58104682Y31380267D01*
X58096986Y31438725D01*
X58096330Y31443709D01*
X58095822Y31444936D01*
X58095206Y31449432D01*
X58066475Y31515826D01*
X58065730Y31517586D01*
X58044019Y31570001D01*
X58040861Y31577625D01*
X58038272Y31581000D01*
X58035305Y31587855D01*
X57992578Y31640619D01*
X57990549Y31643193D01*
X57987709Y31646895D01*
X57960949Y31681768D01*
X57957646Y31686073D01*
X57957644Y31686075D01*
X57952621Y31692621D01*
X57948128Y31696069D01*
X57947360Y31696921D01*
X57945793Y31698392D01*
X57940386Y31705070D01*
X57888245Y31742124D01*
X57884558Y31744848D01*
X57837625Y31780861D01*
X57830389Y31783859D01*
X57826200Y31786548D01*
X57824445Y31787465D01*
X57817442Y31792442D01*
X57809359Y31795352D01*
X57809357Y31795353D01*
X57760790Y31812838D01*
X57755253Y31814980D01*
X57721079Y31829135D01*
X57703709Y31836330D01*
X57695518Y31837409D01*
X57688982Y31839160D01*
X57685787Y31840162D01*
X57683611Y31840624D01*
X57675532Y31843533D01*
X57645654Y31845727D01*
X57619135Y31847675D01*
X57611918Y31848415D01*
X57568188Y31854172D01*
X57560000Y31855250D01*
X57551812Y31854172D01*
X57543552Y31854172D01*
X57543552Y31854471D01*
X57540581Y31854386D01*
X57533672Y31853951D01*
X57525109Y31854580D01*
X57516688Y31852882D01*
X57473255Y31844125D01*
X57464799Y31842717D01*
X57424476Y31837408D01*
X57424474Y31837407D01*
X57416291Y31836330D01*
X57408665Y31833171D01*
X57403978Y31831915D01*
X57386918Y31826715D01*
X57377257Y31824767D01*
X57333355Y31802398D01*
X57324370Y31798256D01*
X57317362Y31795353D01*
X57282375Y31780861D01*
X57275820Y31775831D01*
X57274343Y31774698D01*
X57254846Y31762396D01*
X57242868Y31756293D01*
X57236545Y31750479D01*
X57236541Y31750476D01*
X57209241Y31725373D01*
X57200661Y31718161D01*
X57173936Y31697654D01*
X57173929Y31697647D01*
X57167379Y31692621D01*
X57166494Y31691468D01*
X57106952Y31658952D01*
X57036136Y31664013D01*
X56993852Y31694428D01*
X56992350Y31692829D01*
X56988894Y31695481D01*
X56985793Y31698393D01*
X56980386Y31705070D01*
X56928245Y31742124D01*
X56924558Y31744848D01*
X56877625Y31780861D01*
X56870389Y31783859D01*
X56866200Y31786548D01*
X56864445Y31787465D01*
X56857442Y31792442D01*
X56849359Y31795352D01*
X56849357Y31795353D01*
X56800790Y31812838D01*
X56795253Y31814980D01*
X56761079Y31829135D01*
X56743709Y31836330D01*
X56735518Y31837409D01*
X56728982Y31839160D01*
X56725787Y31840162D01*
X56723611Y31840624D01*
X56715532Y31843533D01*
X56685654Y31845727D01*
X56659135Y31847675D01*
X56651918Y31848415D01*
X56608188Y31854172D01*
X56600000Y31855250D01*
X56591812Y31854172D01*
X56583552Y31854172D01*
X56583552Y31854471D01*
X56580581Y31854386D01*
X56573672Y31853951D01*
X56565109Y31854580D01*
X56556688Y31852882D01*
X56513255Y31844125D01*
X56504799Y31842717D01*
X56464476Y31837408D01*
X56464474Y31837407D01*
X56456291Y31836330D01*
X56448665Y31833171D01*
X56443978Y31831915D01*
X56426918Y31826715D01*
X56417257Y31824767D01*
X56373355Y31802398D01*
X56364370Y31798256D01*
X56357362Y31795353D01*
X56322375Y31780861D01*
X56315820Y31775831D01*
X56314343Y31774698D01*
X56294846Y31762396D01*
X56282868Y31756293D01*
X56276545Y31750479D01*
X56276541Y31750476D01*
X56249241Y31725373D01*
X56240661Y31718161D01*
X56213935Y31697653D01*
X56213929Y31697647D01*
X56207379Y31692621D01*
X56199045Y31681761D01*
X56184383Y31665731D01*
X56171844Y31654201D01*
X56167315Y31646896D01*
X56167314Y31646895D01*
X56149668Y31618435D01*
X56142544Y31608126D01*
X56119139Y31577625D01*
X56115980Y31569997D01*
X56115979Y31569996D01*
X56112546Y31561707D01*
X56103222Y31543524D01*
X56092365Y31526014D01*
X56089967Y31517760D01*
X56081625Y31489046D01*
X56077036Y31475978D01*
X56069304Y31457310D01*
X56063670Y31443709D01*
X56062593Y31435528D01*
X56062592Y31435525D01*
X56060956Y31423098D01*
X56057033Y31404404D01*
X56050285Y31381175D01*
X56049500Y31370485D01*
X56049500Y31344338D01*
X56048422Y31327891D01*
X56044750Y31300000D01*
X56045828Y31291812D01*
X56048422Y31272109D01*
X56049500Y31255662D01*
X56049500Y31011681D01*
X56036280Y30958461D01*
X56036304Y30958452D01*
X56033184Y30949569D01*
X56033183Y30949566D01*
X56005253Y30870032D01*
X55992415Y30833474D01*
X55989500Y30802638D01*
X55989500Y30417362D01*
X55992415Y30386526D01*
X55994061Y30381839D01*
X55989204Y30312179D01*
X55946759Y30255267D01*
X55880284Y30230337D01*
X55871070Y30230000D01*
X54373245Y30230000D01*
X54367312Y30230140D01*
X54365585Y30230221D01*
X54362638Y30230500D01*
X53917362Y30230500D01*
X53899403Y30228802D01*
X53894173Y30228308D01*
X53894172Y30228308D01*
X53886526Y30227585D01*
X53879279Y30225040D01*
X53770437Y30186818D01*
X53770435Y30186817D01*
X53761548Y30183696D01*
X53655001Y30104999D01*
X53576304Y29998452D01*
X53573183Y29989565D01*
X53573182Y29989563D01*
X53562647Y29959563D01*
X53532415Y29873474D01*
X53529500Y29842638D01*
X53529500Y29457362D01*
X53529778Y29454419D01*
X53529779Y29454402D01*
X53530398Y29447853D01*
X53516893Y29378152D01*
X53467849Y29326818D01*
X53404957Y29310000D01*
X48994513Y29310000D01*
X48926392Y29330002D01*
X48879899Y29383658D01*
X48869072Y29447860D01*
X48869085Y29447990D01*
X48870220Y29460002D01*
X48870222Y29460019D01*
X48870222Y29460023D01*
X48870500Y29462962D01*
X48870500Y29837038D01*
X48867618Y29867526D01*
X48862985Y29880721D01*
X48827348Y29982198D01*
X48827348Y29982199D01*
X48824227Y29991085D01*
X48818632Y29998660D01*
X48814223Y30006987D01*
X48815405Y30007613D01*
X48794341Y30065210D01*
X48794361Y30069822D01*
X48793951Y30076331D01*
X48794580Y30084891D01*
X48792883Y30093306D01*
X48792794Y30094723D01*
X48790500Y30117701D01*
X48790500Y30335662D01*
X48791578Y30352109D01*
X48794172Y30371812D01*
X48795250Y30380000D01*
X48794172Y30388188D01*
X48794172Y30396448D01*
X48794471Y30396448D01*
X48794386Y30399419D01*
X48793951Y30406328D01*
X48794580Y30414891D01*
X48791510Y30430119D01*
X48784125Y30466745D01*
X48782717Y30475201D01*
X48776986Y30518724D01*
X48776330Y30523709D01*
X48775822Y30524936D01*
X48775206Y30529432D01*
X48771795Y30537313D01*
X48769485Y30545587D01*
X48769657Y30545635D01*
X48769458Y30546270D01*
X48769289Y30546211D01*
X48766465Y30554319D01*
X48764767Y30562743D01*
X48742398Y30606645D01*
X48738256Y30615630D01*
X48724019Y30650001D01*
X48720861Y30657625D01*
X48718272Y30661000D01*
X48715305Y30667855D01*
X48709900Y30674530D01*
X48705453Y30681871D01*
X48705607Y30681964D01*
X48705241Y30682528D01*
X48705095Y30682426D01*
X48700190Y30689483D01*
X48696293Y30697132D01*
X48690483Y30703451D01*
X48690479Y30703456D01*
X48665373Y30730759D01*
X48658161Y30739339D01*
X48637650Y30766068D01*
X48637647Y30766071D01*
X48632621Y30772621D01*
X48628128Y30776069D01*
X48627360Y30776921D01*
X48625793Y30778392D01*
X48620386Y30785070D01*
X48613383Y30790047D01*
X48607120Y30795928D01*
X48607243Y30796059D01*
X48606749Y30796494D01*
X48606635Y30796356D01*
X48600016Y30801832D01*
X48594201Y30808156D01*
X48586901Y30812682D01*
X48586895Y30812687D01*
X48558435Y30830332D01*
X48548125Y30837457D01*
X48524175Y30855835D01*
X48517625Y30860861D01*
X48510389Y30863858D01*
X48506191Y30866553D01*
X48504443Y30867467D01*
X48497442Y30872442D01*
X48489361Y30875351D01*
X48481751Y30879330D01*
X48481833Y30879486D01*
X48481233Y30879776D01*
X48481161Y30879615D01*
X48473316Y30883108D01*
X48466014Y30887635D01*
X48429046Y30898375D01*
X48415978Y30902964D01*
X48391343Y30913168D01*
X48391342Y30913168D01*
X48383709Y30916330D01*
X48375518Y30917409D01*
X48368982Y30919160D01*
X48365784Y30920162D01*
X48363615Y30920623D01*
X48355532Y30923533D01*
X48346966Y30924162D01*
X48338563Y30925948D01*
X48338600Y30926123D01*
X48334058Y30926941D01*
X48334015Y30926703D01*
X48327517Y30927872D01*
X48321175Y30929715D01*
X48313692Y30930264D01*
X48312792Y30930331D01*
X48312781Y30930331D01*
X48310485Y30930500D01*
X48284338Y30930500D01*
X48267891Y30931578D01*
X48248188Y30934172D01*
X48240000Y30935250D01*
X48231812Y30934172D01*
X48223552Y30934172D01*
X48223552Y30934471D01*
X48211389Y30934120D01*
X48208372Y30934341D01*
X48190953Y30936849D01*
X48189849Y30937088D01*
X48189841Y30940000D01*
X46274146Y30940000D01*
X46274160Y30934685D01*
X46274143Y30934680D01*
X46255093Y30930654D01*
X46146291Y30916330D01*
X46138664Y30913171D01*
X46138661Y30913170D01*
X46035646Y30870500D01*
X46012375Y30860861D01*
X45897379Y30772621D01*
X45809139Y30657625D01*
X45753670Y30523709D01*
X45734750Y30380000D01*
X45753670Y30236291D01*
X45756831Y30228660D01*
X45758968Y30220684D01*
X45757497Y30220290D01*
X45764500Y30185082D01*
X45764500Y30075191D01*
X45744498Y30007070D01*
X45739851Y30000332D01*
X45716304Y29968452D01*
X45672415Y29843474D01*
X45669500Y29812638D01*
X45669500Y29526000D01*
X45649498Y29457879D01*
X45595842Y29411386D01*
X45543500Y29400000D01*
X44650000Y29400000D01*
X44643903Y29392753D01*
X44643900Y29392750D01*
X44131663Y28783864D01*
X44120000Y28770000D01*
X44120000Y24256000D01*
X44099998Y24187879D01*
X44046342Y24141386D01*
X43994000Y24130000D01*
X42940162Y24130000D01*
X42872041Y24150002D01*
X42825548Y24203658D01*
X42814162Y24256000D01*
X42814162Y25083477D01*
X42814172Y25083630D01*
X42814172Y25091812D01*
X42815250Y25100000D01*
X42814172Y25108188D01*
X42814172Y25116370D01*
X42814162Y25116523D01*
X42814162Y25149060D01*
X42814569Y25156825D01*
X42814503Y25158913D01*
X42815401Y25167454D01*
X42814554Y25172460D01*
X42815157Y25174780D01*
X42814162Y25174780D01*
X42814162Y25370000D01*
X42812293Y25370000D01*
X42810500Y25382472D01*
X42810500Y25655662D01*
X42811578Y25672109D01*
X42814172Y25691812D01*
X42815250Y25700000D01*
X42811578Y25727891D01*
X42810500Y25744338D01*
X42810500Y26297917D01*
X42817617Y26339665D01*
X42835040Y26389279D01*
X42837585Y26396526D01*
X42840500Y26427362D01*
X42840500Y26708781D01*
X42843123Y26730534D01*
X42842637Y26730608D01*
X42843481Y26736153D01*
X42844815Y26741606D01*
X42845500Y26752648D01*
X42845500Y28673822D01*
X42845499Y28673827D01*
X42845499Y28920828D01*
X42835129Y29006528D01*
X42829028Y29021939D01*
X42792183Y29114999D01*
X42782128Y29140395D01*
X42695078Y29255078D01*
X42580395Y29342128D01*
X42446528Y29395129D01*
X42360829Y29405500D01*
X42095176Y29405500D01*
X41829172Y29405499D01*
X41825415Y29405044D01*
X41825409Y29405044D01*
X41755874Y29396630D01*
X41743472Y29395129D01*
X41735949Y29392151D01*
X41735947Y29392150D01*
X41714499Y29383658D01*
X41609605Y29342128D01*
X41494922Y29255078D01*
X41494454Y29255694D01*
X41438160Y29224954D01*
X41369629Y29229192D01*
X41324642Y29244990D01*
X41317395Y29247535D01*
X41309749Y29248258D01*
X41309748Y29248258D01*
X41303665Y29248833D01*
X41286029Y29250500D01*
X41060191Y29250500D01*
X40833972Y29250499D01*
X40831024Y29250220D01*
X40831015Y29250220D01*
X40810255Y29248258D01*
X40810254Y29248258D01*
X40802605Y29247535D01*
X40795359Y29244991D01*
X40795357Y29244990D01*
X40725626Y29220502D01*
X40675500Y29202899D01*
X40648631Y29183053D01*
X40645606Y29180819D01*
X40578928Y29156436D01*
X40509652Y29171972D01*
X40495886Y29180820D01*
X40486031Y29188099D01*
X40486027Y29188101D01*
X40478452Y29193696D01*
X40353474Y29237585D01*
X40345828Y29238308D01*
X40345827Y29238308D01*
X40340597Y29238802D01*
X40322638Y29240500D01*
X39877362Y29240500D01*
X39859403Y29238802D01*
X39854173Y29238308D01*
X39854172Y29238308D01*
X39846526Y29237585D01*
X39839279Y29235040D01*
X39730434Y29196817D01*
X39730431Y29196816D01*
X39721548Y29193696D01*
X39721539Y29193720D01*
X39668319Y29180500D01*
X39567754Y29180500D01*
X39526006Y29187617D01*
X39504773Y29195074D01*
X39504766Y29195076D01*
X39497526Y29197618D01*
X39489885Y29198340D01*
X39489882Y29198341D01*
X39478714Y29199396D01*
X39467038Y29200500D01*
X38992962Y29200500D01*
X38990023Y29200222D01*
X38990019Y29200222D01*
X38983594Y29199614D01*
X38964668Y29197825D01*
X38894969Y29211327D01*
X38843632Y29260368D01*
X38826958Y29329379D01*
X38833928Y29365015D01*
X38855073Y29425226D01*
X38855074Y29425230D01*
X38857618Y29432474D01*
X38860500Y29462962D01*
X38860500Y29837038D01*
X38857618Y29867526D01*
X38852985Y29880721D01*
X38814227Y29991085D01*
X38815993Y29991705D01*
X38806308Y30037863D01*
X38804491Y30037749D01*
X38803951Y30046329D01*
X38804580Y30054891D01*
X38802883Y30063306D01*
X38802794Y30064723D01*
X38800500Y30087701D01*
X38800500Y30305662D01*
X38801578Y30322109D01*
X38804172Y30341812D01*
X38805250Y30350000D01*
X38804172Y30358188D01*
X38804172Y30366448D01*
X38804471Y30366448D01*
X38804386Y30369419D01*
X38803951Y30376328D01*
X38804580Y30384891D01*
X38800866Y30403312D01*
X38794125Y30436745D01*
X38792717Y30445201D01*
X38786986Y30488724D01*
X38786330Y30493709D01*
X38785822Y30494936D01*
X38785206Y30499432D01*
X38781795Y30507313D01*
X38779485Y30515587D01*
X38779657Y30515635D01*
X38779458Y30516270D01*
X38779289Y30516211D01*
X38776465Y30524319D01*
X38774767Y30532743D01*
X38752398Y30576645D01*
X38748256Y30585630D01*
X38734019Y30620001D01*
X38730861Y30627625D01*
X38728272Y30631000D01*
X38725305Y30637855D01*
X38719900Y30644530D01*
X38715453Y30651871D01*
X38715607Y30651964D01*
X38715241Y30652528D01*
X38715095Y30652426D01*
X38710190Y30659483D01*
X38706293Y30667132D01*
X38700483Y30673451D01*
X38700479Y30673456D01*
X38675373Y30700759D01*
X38668161Y30709339D01*
X38647650Y30736068D01*
X38647647Y30736071D01*
X38642621Y30742621D01*
X38638128Y30746069D01*
X38637360Y30746921D01*
X38635793Y30748392D01*
X38630386Y30755070D01*
X38623383Y30760047D01*
X38617120Y30765928D01*
X38617243Y30766059D01*
X38616749Y30766494D01*
X38616635Y30766356D01*
X38610016Y30771832D01*
X38604201Y30778156D01*
X38596901Y30782682D01*
X38596895Y30782687D01*
X38568435Y30800332D01*
X38558125Y30807457D01*
X38534175Y30825835D01*
X38527625Y30830861D01*
X38520389Y30833858D01*
X38516191Y30836553D01*
X38514443Y30837467D01*
X38507442Y30842442D01*
X38499361Y30845351D01*
X38491751Y30849330D01*
X38491833Y30849486D01*
X38491233Y30849776D01*
X38491161Y30849615D01*
X38483316Y30853108D01*
X38476014Y30857635D01*
X38439046Y30868375D01*
X38425978Y30872964D01*
X38401343Y30883168D01*
X38401342Y30883168D01*
X38393709Y30886330D01*
X38385518Y30887409D01*
X38378982Y30889160D01*
X38375784Y30890162D01*
X38373615Y30890623D01*
X38365532Y30893533D01*
X38356966Y30894162D01*
X38348563Y30895948D01*
X38348600Y30896123D01*
X38344058Y30896941D01*
X38344015Y30896703D01*
X38337517Y30897872D01*
X38331175Y30899715D01*
X38323692Y30900265D01*
X38322792Y30900331D01*
X38322781Y30900331D01*
X38320485Y30900500D01*
X38294338Y30900500D01*
X38277891Y30901578D01*
X38258188Y30904172D01*
X38250000Y30905250D01*
X38241812Y30904172D01*
X38233552Y30904172D01*
X38233552Y30904471D01*
X38230581Y30904386D01*
X38223671Y30903951D01*
X38215109Y30904580D01*
X38206694Y30902883D01*
X38205277Y30902794D01*
X38182299Y30900500D01*
X37374338Y30900500D01*
X37357891Y30901578D01*
X37338188Y30904172D01*
X37330000Y30905250D01*
X37321812Y30904172D01*
X37313552Y30904172D01*
X37313552Y30904471D01*
X37310581Y30904386D01*
X37303670Y30903951D01*
X37295109Y30904580D01*
X37286694Y30902883D01*
X37286690Y30902883D01*
X37284724Y30902486D01*
X37259819Y30900000D01*
X36528196Y30900000D01*
X36479979Y30909591D01*
X36477784Y30910500D01*
X36463709Y30916330D01*
X36320000Y30935250D01*
X36176291Y30916330D01*
X36042375Y30860861D01*
X35927379Y30772621D01*
X35839139Y30657625D01*
X35783670Y30523709D01*
X35764750Y30380000D01*
X35783670Y30236291D01*
X35786831Y30228660D01*
X35788968Y30220684D01*
X35787497Y30220290D01*
X35794500Y30185082D01*
X35794500Y30061652D01*
X35774498Y29993531D01*
X35769862Y29986808D01*
X35756304Y29968452D01*
X35712415Y29843474D01*
X35709500Y29812638D01*
X35709500Y29520658D01*
X35689498Y29452537D01*
X35635842Y29406044D01*
X35583500Y29394658D01*
X34730000Y29394658D01*
X34723903Y29387411D01*
X34723900Y29387408D01*
X34216157Y28783864D01*
X34200000Y28764658D01*
X34200000Y24256000D01*
X34179998Y24187879D01*
X34126342Y24141386D01*
X34074000Y24130000D01*
X32869101Y24130000D01*
X32800980Y24150002D01*
X32754487Y24203658D01*
X32743101Y24256000D01*
X32743101Y25075418D01*
X32744172Y25091757D01*
X32744172Y25091812D01*
X32745250Y25100000D01*
X32744172Y25108188D01*
X32744172Y25116448D01*
X32744471Y25116448D01*
X32744386Y25119419D01*
X32743951Y25126329D01*
X32744580Y25134891D01*
X32743159Y25141936D01*
X32743101Y25143794D01*
X32743101Y25390000D01*
X32741774Y25390000D01*
X32740500Y25398858D01*
X32740500Y25544708D01*
X32740838Y25553936D01*
X32743951Y25596327D01*
X32744580Y25604891D01*
X32742883Y25613307D01*
X32742794Y25614723D01*
X32740500Y25637701D01*
X32740500Y25655662D01*
X32741578Y25672109D01*
X32744172Y25691812D01*
X32745250Y25700000D01*
X32741578Y25727891D01*
X32740500Y25744338D01*
X32740500Y26240965D01*
X32747617Y26282713D01*
X32785040Y26389279D01*
X32787585Y26396526D01*
X32790500Y26427362D01*
X32790500Y26584708D01*
X32790838Y26593936D01*
X32793951Y26636327D01*
X32794580Y26644891D01*
X32792883Y26653307D01*
X32792794Y26654723D01*
X32790500Y26677701D01*
X32790500Y26872638D01*
X32787585Y26903474D01*
X32755457Y26994962D01*
X32751759Y27065861D01*
X32764568Y27098565D01*
X32766931Y27102758D01*
X32772128Y27109605D01*
X32775290Y27117592D01*
X32775292Y27117595D01*
X32822150Y27235948D01*
X32825129Y27243472D01*
X32835500Y27329171D01*
X32835499Y27910828D01*
X32834661Y27917759D01*
X32831412Y27944604D01*
X32830500Y27959740D01*
X32830500Y28300268D01*
X32831413Y28315406D01*
X32835043Y28345405D01*
X32835499Y28349170D01*
X32835498Y28930827D01*
X32825128Y29016527D01*
X32822149Y29024053D01*
X32776086Y29140395D01*
X32772127Y29150394D01*
X32685077Y29265077D01*
X32570394Y29352127D01*
X32436527Y29405128D01*
X32350828Y29415499D01*
X32085175Y29415499D01*
X31819171Y29415498D01*
X31815414Y29415043D01*
X31815408Y29415043D01*
X31745873Y29406629D01*
X31733471Y29405128D01*
X31725948Y29402150D01*
X31725946Y29402149D01*
X31655250Y29374158D01*
X31599604Y29352127D01*
X31484921Y29265077D01*
X31472141Y29248240D01*
X31415022Y29206075D01*
X31344174Y29201483D01*
X31330032Y29205539D01*
X31274642Y29224990D01*
X31267395Y29227535D01*
X31259749Y29228258D01*
X31259748Y29228258D01*
X31253665Y29228833D01*
X31236029Y29230500D01*
X31225387Y29230500D01*
X31182706Y29237949D01*
X31133612Y29255624D01*
X31125532Y29258533D01*
X31116970Y29259162D01*
X31116969Y29259162D01*
X31050320Y29264057D01*
X30975109Y29269580D01*
X30966694Y29267883D01*
X30966691Y29267883D01*
X30835677Y29241465D01*
X30835676Y29241465D01*
X30827257Y29239767D01*
X30821827Y29237000D01*
X30788638Y29230579D01*
X30786940Y29230499D01*
X30783972Y29230499D01*
X30781021Y29230220D01*
X30781018Y29230220D01*
X30760255Y29228258D01*
X30760254Y29228258D01*
X30752605Y29227535D01*
X30745359Y29224991D01*
X30745357Y29224990D01*
X30634386Y29186020D01*
X30634383Y29186019D01*
X30625500Y29182899D01*
X30625419Y29183130D01*
X30561569Y29170097D01*
X30513210Y29184297D01*
X30506026Y29188101D01*
X30498451Y29193696D01*
X30486822Y29197780D01*
X30397373Y29229192D01*
X30373473Y29237585D01*
X30365827Y29238308D01*
X30365826Y29238308D01*
X30360596Y29238802D01*
X30342637Y29240500D01*
X29897361Y29240500D01*
X29879402Y29238802D01*
X29874172Y29238308D01*
X29874171Y29238308D01*
X29866525Y29237585D01*
X29859278Y29235040D01*
X29809664Y29217617D01*
X29767916Y29210500D01*
X28967457Y29210500D01*
X28899336Y29230502D01*
X28852843Y29284158D01*
X28842739Y29354432D01*
X28848573Y29378242D01*
X28867618Y29432474D01*
X28870500Y29462962D01*
X28870500Y29837038D01*
X28867618Y29867526D01*
X28862985Y29880721D01*
X28824227Y29991085D01*
X28825631Y29991578D01*
X28813457Y30049598D01*
X28813951Y30056327D01*
X28814580Y30064891D01*
X28812883Y30073307D01*
X28812794Y30074723D01*
X28810500Y30097701D01*
X28810500Y30315662D01*
X28811578Y30332109D01*
X28814172Y30351812D01*
X28815250Y30360000D01*
X28814172Y30368188D01*
X28814172Y30376448D01*
X28814471Y30376448D01*
X28814386Y30379419D01*
X28813951Y30386328D01*
X28814580Y30394891D01*
X28809452Y30420325D01*
X28804125Y30446745D01*
X28802717Y30455201D01*
X28798303Y30488724D01*
X28796330Y30503709D01*
X28795822Y30504936D01*
X28795206Y30509432D01*
X28791795Y30517313D01*
X28789485Y30525587D01*
X28789657Y30525635D01*
X28789458Y30526270D01*
X28789289Y30526211D01*
X28786465Y30534319D01*
X28784767Y30542743D01*
X28762398Y30586645D01*
X28758256Y30595630D01*
X28744019Y30630001D01*
X28740861Y30637625D01*
X28738272Y30641000D01*
X28735305Y30647855D01*
X28729900Y30654530D01*
X28725453Y30661871D01*
X28725607Y30661964D01*
X28725241Y30662528D01*
X28725095Y30662426D01*
X28720190Y30669483D01*
X28716293Y30677132D01*
X28710483Y30683451D01*
X28710479Y30683456D01*
X28685373Y30710759D01*
X28678161Y30719339D01*
X28657650Y30746068D01*
X28657647Y30746071D01*
X28652621Y30752621D01*
X28648128Y30756069D01*
X28647360Y30756921D01*
X28645793Y30758392D01*
X28640386Y30765070D01*
X28633383Y30770047D01*
X28627120Y30775928D01*
X28627243Y30776059D01*
X28626749Y30776494D01*
X28626635Y30776356D01*
X28620016Y30781832D01*
X28614201Y30788156D01*
X28606901Y30792682D01*
X28606895Y30792687D01*
X28578435Y30810332D01*
X28568125Y30817457D01*
X28559501Y30824075D01*
X28537625Y30840861D01*
X28530389Y30843858D01*
X28526191Y30846553D01*
X28524443Y30847467D01*
X28517442Y30852442D01*
X28509361Y30855351D01*
X28501751Y30859330D01*
X28501833Y30859486D01*
X28501233Y30859776D01*
X28501161Y30859615D01*
X28493316Y30863108D01*
X28486014Y30867635D01*
X28449046Y30878375D01*
X28435978Y30882964D01*
X28411343Y30893168D01*
X28411342Y30893168D01*
X28403709Y30896330D01*
X28395518Y30897409D01*
X28388982Y30899160D01*
X28385784Y30900162D01*
X28383615Y30900623D01*
X28375532Y30903533D01*
X28366966Y30904162D01*
X28358563Y30905948D01*
X28358600Y30906123D01*
X28354058Y30906941D01*
X28354015Y30906703D01*
X28347517Y30907872D01*
X28341175Y30909715D01*
X28333692Y30910264D01*
X28332792Y30910331D01*
X28332781Y30910331D01*
X28330485Y30910500D01*
X28304338Y30910500D01*
X28287891Y30911578D01*
X28268188Y30914172D01*
X28260000Y30915250D01*
X28251812Y30914172D01*
X28243552Y30914172D01*
X28243552Y30914471D01*
X28240581Y30914386D01*
X28233671Y30913951D01*
X28225109Y30914580D01*
X28216694Y30912883D01*
X28215277Y30912794D01*
X28192299Y30910500D01*
X27384338Y30910500D01*
X27367891Y30911578D01*
X27348188Y30914172D01*
X27340000Y30915250D01*
X27331812Y30914172D01*
X27323552Y30914172D01*
X27323552Y30914471D01*
X27320581Y30914386D01*
X27313670Y30913951D01*
X27305109Y30914580D01*
X27296694Y30912883D01*
X27296690Y30912883D01*
X27294724Y30912486D01*
X27269819Y30910000D01*
X26529757Y30910000D01*
X26499317Y30914007D01*
X26493709Y30916330D01*
X26350000Y30935250D01*
X26206291Y30916330D01*
X26072375Y30860861D01*
X25957379Y30772621D01*
X25869139Y30657625D01*
X25813670Y30523709D01*
X25794750Y30380000D01*
X25813670Y30236291D01*
X25816831Y30228660D01*
X25818968Y30220684D01*
X25817497Y30220290D01*
X25824500Y30185082D01*
X25824500Y30061652D01*
X25804498Y29993531D01*
X25799862Y29986808D01*
X25786304Y29968452D01*
X25742415Y29843474D01*
X25739500Y29812638D01*
X25739500Y29581240D01*
X25719498Y29513119D01*
X25665842Y29466626D01*
X25613500Y29455240D01*
X24720000Y29455240D01*
X24713903Y29447993D01*
X24713900Y29447990D01*
X24202692Y28840327D01*
X24190000Y28825240D01*
X24190000Y24256000D01*
X24169998Y24187879D01*
X24116342Y24141386D01*
X24064000Y24130000D01*
X22906000Y24130000D01*
X22837879Y24150002D01*
X22791386Y24203658D01*
X22780000Y24256000D01*
X22780000Y24874193D01*
X22785002Y24909344D01*
X22792750Y24936011D01*
X22795182Y24943495D01*
X22813533Y24994468D01*
X22814162Y25003037D01*
X22815948Y25011439D01*
X22816124Y25011402D01*
X22816941Y25015942D01*
X22816703Y25015985D01*
X22817872Y25022483D01*
X22819715Y25028825D01*
X22820500Y25039515D01*
X22820500Y25075662D01*
X22821578Y25092109D01*
X22824172Y25111810D01*
X22824172Y25111812D01*
X22825250Y25120000D01*
X22824171Y25128192D01*
X22824171Y25132803D01*
X22823950Y25136317D01*
X22824580Y25144891D01*
X22822881Y25153316D01*
X22822791Y25154750D01*
X22820500Y25177701D01*
X22820500Y25675662D01*
X22821578Y25692109D01*
X22824172Y25711812D01*
X22825250Y25720000D01*
X22821578Y25747891D01*
X22820500Y25764338D01*
X22820500Y26575007D01*
X22820611Y26580283D01*
X22822850Y26633709D01*
X22823210Y26642294D01*
X22813829Y26682292D01*
X22810500Y26711063D01*
X22810500Y26852638D01*
X22807585Y26883474D01*
X22787617Y26940335D01*
X22780500Y26982083D01*
X22780500Y27157230D01*
X22789348Y27203613D01*
X22802150Y27235948D01*
X22805129Y27243472D01*
X22815500Y27329171D01*
X22815500Y28683822D01*
X22815499Y28683827D01*
X22815499Y28930828D01*
X22805129Y29016528D01*
X22801117Y29026663D01*
X22761974Y29125527D01*
X22752128Y29150395D01*
X22673524Y29253951D01*
X22670270Y29258238D01*
X22670269Y29258239D01*
X22665078Y29265078D01*
X22550395Y29352128D01*
X22416528Y29405129D01*
X22330829Y29415500D01*
X22065176Y29415500D01*
X21799172Y29415499D01*
X21795415Y29415044D01*
X21795409Y29415044D01*
X21725874Y29406630D01*
X21713472Y29405129D01*
X21705949Y29402151D01*
X21705947Y29402150D01*
X21645335Y29378152D01*
X21579605Y29352128D01*
X21464922Y29265078D01*
X21460167Y29258813D01*
X21398160Y29224954D01*
X21329629Y29229192D01*
X21284642Y29244990D01*
X21277395Y29247535D01*
X21269749Y29248258D01*
X21269748Y29248258D01*
X21263665Y29248833D01*
X21246029Y29250500D01*
X21045296Y29250500D01*
X21036068Y29250838D01*
X20985109Y29254580D01*
X20976690Y29252882D01*
X20975272Y29252793D01*
X20952292Y29250499D01*
X20793972Y29250499D01*
X20791024Y29250220D01*
X20791015Y29250220D01*
X20770255Y29248258D01*
X20770254Y29248258D01*
X20762605Y29247535D01*
X20755359Y29244991D01*
X20755357Y29244990D01*
X20685626Y29220502D01*
X20635500Y29202899D01*
X20627928Y29197306D01*
X20627922Y29197303D01*
X20620603Y29191897D01*
X20553924Y29167515D01*
X20484649Y29183053D01*
X20480393Y29185788D01*
X20476032Y29188097D01*
X20468452Y29193696D01*
X20459565Y29196817D01*
X20459563Y29196818D01*
X20350721Y29235040D01*
X20343474Y29237585D01*
X20335828Y29238308D01*
X20335827Y29238308D01*
X20330597Y29238802D01*
X20312638Y29240500D01*
X19867362Y29240500D01*
X19849403Y29238802D01*
X19844173Y29238308D01*
X19844172Y29238308D01*
X19836526Y29237585D01*
X19829279Y29235040D01*
X19720434Y29196817D01*
X19720431Y29196816D01*
X19711548Y29193696D01*
X19711539Y29193720D01*
X19658319Y29180500D01*
X19557754Y29180500D01*
X19516006Y29187617D01*
X19494773Y29195074D01*
X19494766Y29195076D01*
X19487526Y29197618D01*
X19479885Y29198340D01*
X19479882Y29198341D01*
X19468714Y29199396D01*
X19457038Y29200500D01*
X18993946Y29200500D01*
X18925825Y29220502D01*
X18879332Y29274158D01*
X18869228Y29344432D01*
X18875063Y29368248D01*
X18881866Y29387618D01*
X18897618Y29432474D01*
X18900500Y29462962D01*
X18900500Y29837038D01*
X18897618Y29867526D01*
X18892985Y29880721D01*
X18857348Y29982198D01*
X18857348Y29982199D01*
X18854227Y29991085D01*
X18848632Y29998661D01*
X18845145Y30005246D01*
X18830500Y30064204D01*
X18830500Y30275662D01*
X18831578Y30292109D01*
X18834172Y30311812D01*
X18835250Y30320000D01*
X18834172Y30328188D01*
X18834172Y30336448D01*
X18834471Y30336448D01*
X18834386Y30339419D01*
X18833951Y30346328D01*
X18834580Y30354891D01*
X18830372Y30375760D01*
X18824125Y30406745D01*
X18822717Y30415201D01*
X18818767Y30445201D01*
X18816330Y30463709D01*
X18815822Y30464936D01*
X18815206Y30469432D01*
X18811795Y30477313D01*
X18809485Y30485587D01*
X18809657Y30485635D01*
X18809458Y30486270D01*
X18809289Y30486211D01*
X18806465Y30494319D01*
X18804767Y30502743D01*
X18782398Y30546645D01*
X18778256Y30555630D01*
X18764019Y30590001D01*
X18760861Y30597625D01*
X18758272Y30601000D01*
X18755305Y30607855D01*
X18749900Y30614530D01*
X18745453Y30621871D01*
X18745607Y30621964D01*
X18745241Y30622528D01*
X18745095Y30622426D01*
X18740190Y30629483D01*
X18736293Y30637132D01*
X18730483Y30643451D01*
X18730479Y30643456D01*
X18705373Y30670759D01*
X18698161Y30679339D01*
X18677650Y30706068D01*
X18677647Y30706071D01*
X18672621Y30712621D01*
X18668128Y30716069D01*
X18667360Y30716921D01*
X18665793Y30718392D01*
X18660386Y30725070D01*
X18653383Y30730047D01*
X18647120Y30735928D01*
X18647243Y30736059D01*
X18646749Y30736494D01*
X18646635Y30736356D01*
X18640016Y30741832D01*
X18634201Y30748156D01*
X18626901Y30752682D01*
X18626895Y30752687D01*
X18598435Y30770332D01*
X18588125Y30777457D01*
X18564175Y30795835D01*
X18557625Y30800861D01*
X18550389Y30803858D01*
X18546191Y30806553D01*
X18544443Y30807467D01*
X18537442Y30812442D01*
X18529361Y30815351D01*
X18521751Y30819330D01*
X18521833Y30819486D01*
X18521233Y30819776D01*
X18521161Y30819615D01*
X18513316Y30823108D01*
X18506014Y30827635D01*
X18469046Y30838375D01*
X18455978Y30842964D01*
X18431343Y30853168D01*
X18431342Y30853168D01*
X18423709Y30856330D01*
X18415518Y30857409D01*
X18408982Y30859160D01*
X18405784Y30860162D01*
X18403615Y30860623D01*
X18395532Y30863533D01*
X18386966Y30864162D01*
X18378563Y30865948D01*
X18378600Y30866123D01*
X18374058Y30866941D01*
X18374015Y30866703D01*
X18367517Y30867872D01*
X18361175Y30869715D01*
X18353692Y30870265D01*
X18352792Y30870331D01*
X18352781Y30870331D01*
X18350485Y30870500D01*
X18324338Y30870500D01*
X18307891Y30871578D01*
X18288188Y30874172D01*
X18280000Y30875250D01*
X18271812Y30874172D01*
X18263552Y30874172D01*
X18263552Y30874471D01*
X18260581Y30874386D01*
X18253671Y30873951D01*
X18245109Y30874580D01*
X18236694Y30872883D01*
X18235277Y30872794D01*
X18212299Y30870500D01*
X17404338Y30870500D01*
X17387891Y30871578D01*
X17368188Y30874172D01*
X17360000Y30875250D01*
X17351812Y30874172D01*
X17343552Y30874172D01*
X17343552Y30874471D01*
X17340581Y30874386D01*
X17333670Y30873951D01*
X17325109Y30874580D01*
X17316694Y30872883D01*
X17316690Y30872883D01*
X17314724Y30872486D01*
X17289819Y30870000D01*
X16620624Y30870000D01*
X16572406Y30879591D01*
X16539628Y30893168D01*
X16483709Y30916330D01*
X16340000Y30935250D01*
X16196291Y30916330D01*
X16062375Y30860861D01*
X15947379Y30772621D01*
X15859139Y30657625D01*
X15803670Y30523709D01*
X15784750Y30380000D01*
X15803670Y30236291D01*
X15806831Y30228660D01*
X15808968Y30220684D01*
X15807497Y30220290D01*
X15814500Y30185082D01*
X15814500Y30061652D01*
X15794498Y29993531D01*
X15789862Y29986808D01*
X15776304Y29968452D01*
X15732415Y29843474D01*
X15729500Y29812638D01*
X15729500Y29566000D01*
X15709498Y29497879D01*
X15655842Y29451386D01*
X15603500Y29440000D01*
X14724194Y29440000D01*
X14656073Y29460002D01*
X14624232Y29489296D01*
X14557647Y29576071D01*
X14552621Y29582621D01*
X14437625Y29670861D01*
X14303709Y29726330D01*
X14160000Y29745250D01*
X14016291Y29726330D01*
X13882375Y29670861D01*
X13767379Y29582621D01*
X13679139Y29467625D01*
X13623670Y29333709D01*
X13604750Y29190000D01*
X13623670Y29046291D01*
X13678468Y28913996D01*
X13679139Y28912375D01*
X13678926Y28912287D01*
X13694500Y28854163D01*
X13694500Y27097373D01*
X13693261Y27086277D01*
X13693859Y27086229D01*
X13693139Y27077283D01*
X13691158Y27068527D01*
X13693959Y27023379D01*
X13694258Y27018560D01*
X13694500Y27010758D01*
X13694500Y26995855D01*
X13695672Y26987672D01*
X13695841Y26986492D01*
X13696871Y26976434D01*
X13699592Y26932583D01*
X13702641Y26924138D01*
X13703932Y26917902D01*
X13705865Y26910151D01*
X13707646Y26904062D01*
X13708919Y26895171D01*
X13712636Y26886996D01*
X13727108Y26855164D01*
X13730920Y26845799D01*
X13742791Y26812917D01*
X13742793Y26812914D01*
X13745841Y26804470D01*
X13751136Y26797223D01*
X13754129Y26791593D01*
X13758132Y26784743D01*
X13761577Y26779356D01*
X13765294Y26771180D01*
X13771154Y26764380D01*
X13771154Y26764379D01*
X13793981Y26737887D01*
X13800266Y26729971D01*
X13804702Y26723899D01*
X13804708Y26723892D01*
X13807577Y26719965D01*
X13817618Y26709924D01*
X13823976Y26703077D01*
X13845842Y26677701D01*
X13854204Y26667996D01*
X13861733Y26663116D01*
X13868502Y26657211D01*
X13868432Y26657131D01*
X13878794Y26648748D01*
X14046127Y26481415D01*
X14053098Y26472690D01*
X14053556Y26473080D01*
X14059374Y26466244D01*
X14064165Y26458650D01*
X14086607Y26438830D01*
X14101699Y26425501D01*
X14107386Y26420155D01*
X14117915Y26409626D01*
X14123616Y26405354D01*
X14125485Y26403953D01*
X14133327Y26397568D01*
X14158728Y26375135D01*
X14166255Y26368487D01*
X14174381Y26364672D01*
X14179706Y26361174D01*
X14186546Y26357064D01*
X14192122Y26354012D01*
X14199305Y26348628D01*
X14207713Y26345476D01*
X14240454Y26333202D01*
X14249774Y26329275D01*
X14289548Y26310601D01*
X14298418Y26309220D01*
X14304498Y26307361D01*
X14312219Y26305335D01*
X14318432Y26303969D01*
X14326843Y26300816D01*
X14353880Y26298807D01*
X14370676Y26297559D01*
X14380723Y26296405D01*
X14388145Y26295249D01*
X14388147Y26295249D01*
X14392956Y26294500D01*
X14407162Y26294500D01*
X14416498Y26294154D01*
X14452836Y26291454D01*
X14519288Y26266459D01*
X14561677Y26209506D01*
X14569500Y26165800D01*
X14569500Y24207215D01*
X14570082Y24202970D01*
X14570082Y24202963D01*
X14578334Y24142726D01*
X14579500Y24125626D01*
X14579500Y22557505D01*
X14575404Y22526909D01*
X14572494Y22520327D01*
X14569500Y22494646D01*
X14569500Y21101636D01*
X14549498Y21033515D01*
X14532595Y21012541D01*
X12647302Y19127248D01*
X12638685Y19119407D01*
X12632060Y19115202D01*
X12626633Y19109423D01*
X12626632Y19109422D01*
X12584151Y19064184D01*
X12581396Y19061342D01*
X12561089Y19041035D01*
X12558660Y19037904D01*
X12558655Y19037898D01*
X12558442Y19037623D01*
X12550745Y19028610D01*
X12519552Y18995393D01*
X12515733Y18988446D01*
X12509404Y18976934D01*
X12498550Y18960410D01*
X12485638Y18943764D01*
X12467546Y18901955D01*
X12462330Y18891307D01*
X12440373Y18851368D01*
X12438402Y18843689D01*
X12438401Y18843688D01*
X12435133Y18830959D01*
X12428727Y18812250D01*
X12423512Y18800200D01*
X12423510Y18800195D01*
X12420365Y18792926D01*
X12419126Y18785102D01*
X12413239Y18747935D01*
X12410831Y18736310D01*
X12401472Y18699860D01*
X12401471Y18699855D01*
X12399500Y18692177D01*
X12399500Y18671116D01*
X12397949Y18651404D01*
X12394653Y18630595D01*
X12395399Y18622704D01*
X12398941Y18585235D01*
X12399500Y18573377D01*
X12399500Y11226263D01*
X12379498Y11158142D01*
X12325842Y11111649D01*
X12255568Y11101545D01*
X12190986Y11131040D01*
X12187756Y11133839D01*
X12184571Y11137024D01*
X12012728Y11265665D01*
X11824325Y11368540D01*
X11696826Y11416095D01*
X11627408Y11441987D01*
X11627402Y11441989D01*
X11623200Y11443556D01*
X11618814Y11444510D01*
X11618811Y11444511D01*
X11494776Y11471493D01*
X11413447Y11489185D01*
X11206924Y11503956D01*
X11199334Y11505294D01*
X11188480Y11503380D01*
X11177972Y11503380D01*
X11165619Y11503987D01*
X11152348Y11505294D01*
X11035974Y11516756D01*
X11011754Y11521572D01*
X10866534Y11565624D01*
X10843720Y11575075D01*
X10709896Y11646606D01*
X10689359Y11660328D01*
X10572060Y11756593D01*
X10554595Y11774058D01*
X10458330Y11891357D01*
X10444607Y11911895D01*
X10420820Y11956397D01*
X10373077Y12045718D01*
X10363625Y12068535D01*
X10362081Y12073627D01*
X10319574Y12213752D01*
X10314757Y12237975D01*
X10301989Y12367617D01*
X10301382Y12379967D01*
X10301382Y12390476D01*
X10303296Y12401332D01*
X10300584Y12416714D01*
X10298669Y12438600D01*
X10298673Y12526770D01*
X10299072Y23559419D01*
X10299375Y31902726D01*
X10301289Y31924597D01*
X10302090Y31929140D01*
X10302090Y31929145D01*
X10304004Y31940000D01*
X10302090Y31950857D01*
X10302090Y31961876D01*
X10302459Y31961876D01*
X10301823Y31974201D01*
X10316043Y32173032D01*
X10318601Y32190827D01*
X10366347Y32410315D01*
X10371412Y32427565D01*
X10395290Y32491582D01*
X10449910Y32638024D01*
X10457378Y32654376D01*
X10565026Y32851519D01*
X10574746Y32866643D01*
X10709356Y33046461D01*
X10721129Y33060047D01*
X10879953Y33218871D01*
X10893539Y33230644D01*
X11073357Y33365254D01*
X11088481Y33374974D01*
X11285624Y33482622D01*
X11301976Y33490090D01*
X11391256Y33523390D01*
X11512441Y33568590D01*
X11529680Y33573652D01*
X11749173Y33621399D01*
X11766968Y33623957D01*
X11965799Y33638177D01*
X11978124Y33637541D01*
X11978124Y33637910D01*
X11989143Y33637910D01*
X12000000Y33635996D01*
X12015392Y33638710D01*
X12037271Y33640624D01*
X63962729Y33640624D01*
X63984608Y33638710D01*
G37*
G04 #@! TD.AperFunction*
G04 #@! TA.AperFunction,Conductor*
G36*
X52237405Y25209998D02*
G01*
X52258379Y25193096D01*
X52993095Y24458381D01*
X53027120Y24396068D01*
X53030000Y24369285D01*
X53030000Y23656169D01*
X53009998Y23588048D01*
X52956342Y23541555D01*
X52903935Y23530169D01*
X51866377Y23530708D01*
X51096016Y23531108D01*
X51027906Y23551145D01*
X50999708Y23578753D01*
X50998579Y23577788D01*
X50995887Y23580940D01*
X50994275Y23582828D01*
X50957048Y23620055D01*
X50953618Y23623621D01*
X50921246Y23658641D01*
X50914854Y23665556D01*
X50908495Y23669249D01*
X50902337Y23674766D01*
X50316905Y24260198D01*
X50282879Y24322510D01*
X50280000Y24349293D01*
X50280000Y25104000D01*
X50300002Y25172121D01*
X50353658Y25218614D01*
X50406000Y25230000D01*
X52169284Y25230000D01*
X52237405Y25209998D01*
G37*
G04 #@! TD.AperFunction*
G04 #@! TA.AperFunction,Conductor*
G36*
X48521621Y25059497D02*
G01*
X48568114Y25005841D01*
X48579500Y24953499D01*
X48579500Y23658483D01*
X48559498Y23590362D01*
X48505842Y23543869D01*
X48453435Y23532483D01*
X47453643Y23533003D01*
X46296433Y23533604D01*
X46228324Y23553641D01*
X46181859Y23607321D01*
X46170500Y23659604D01*
X46170500Y24482785D01*
X46167012Y24508252D01*
X46161666Y24547274D01*
X46160500Y24564374D01*
X46160500Y24945742D01*
X46180502Y25013863D01*
X46234158Y25060356D01*
X46285643Y25071739D01*
X47425912Y25079496D01*
X47426769Y25079499D01*
X48453500Y25079499D01*
X48521621Y25059497D01*
G37*
G04 #@! TD.AperFunction*
G04 #@! TA.AperFunction,Conductor*
G36*
X38469329Y25059497D02*
G01*
X38490303Y25042594D01*
X38522595Y25010302D01*
X38556621Y24947990D01*
X38559500Y24921207D01*
X38559500Y23663694D01*
X38539498Y23595573D01*
X38485842Y23549080D01*
X38433435Y23537694D01*
X37440121Y23538210D01*
X36286433Y23538810D01*
X36218324Y23558847D01*
X36171859Y23612527D01*
X36160500Y23664810D01*
X36160500Y24947103D01*
X36180502Y25015224D01*
X36234158Y25061717D01*
X36285643Y25073100D01*
X37225787Y25079496D01*
X37226644Y25079499D01*
X38401208Y25079499D01*
X38469329Y25059497D01*
G37*
G04 #@! TD.AperFunction*
G04 #@! TA.AperFunction,Conductor*
G36*
X28469329Y25059497D02*
G01*
X28490303Y25042594D01*
X28572595Y24960302D01*
X28606621Y24897990D01*
X28609500Y24871207D01*
X28609500Y23668869D01*
X28589498Y23600748D01*
X28535842Y23554255D01*
X28483435Y23542869D01*
X26336435Y23543985D01*
X26268324Y23564022D01*
X26221859Y23617702D01*
X26210500Y23669985D01*
X26210500Y24946151D01*
X26230502Y25014272D01*
X26284158Y25060765D01*
X26335643Y25072148D01*
X27415787Y25079496D01*
X27416644Y25079499D01*
X28401208Y25079499D01*
X28469329Y25059497D01*
G37*
G04 #@! TD.AperFunction*
G04 #@! TA.AperFunction,Conductor*
G36*
X18519328Y25069498D02*
G01*
X18540302Y25052595D01*
X18642595Y24950302D01*
X18676621Y24887990D01*
X18679500Y24861207D01*
X18679500Y23674033D01*
X18659498Y23605912D01*
X18605842Y23559419D01*
X18553434Y23548033D01*
X16376434Y23549165D01*
X16308324Y23569202D01*
X16261859Y23622882D01*
X16250500Y23675165D01*
X16250500Y24956150D01*
X16270502Y25024271D01*
X16324158Y25070764D01*
X16375643Y25082147D01*
X17456012Y25089497D01*
X17456869Y25089500D01*
X18451207Y25089500D01*
X18519328Y25069498D01*
G37*
G04 #@! TD.AperFunction*
G04 #@! TD*
M02*
