%FSLAX45Y45*%
G04 Gerber Fmt 4.5, Leading zero omitted, Abs format (unit mm)*
G04 Created by KiCad (PCBNEW (6.0.4)) date 2022-07-06 17:37:41*
%MOMM*%
%LPD*%
G01*
G04 APERTURE LIST*
%TA.AperFunction,Profile*%
%ADD10C,0.100000*%
%TD*%
%ADD11C,0.200000*%
%ADD12C,0.065000*%
G04 APERTURE END LIST*
D10*
X13376000Y-6601000D02*
G75*
G03*
X13296000Y-6681000I0J-80000D01*
G01*
X15083000Y-6681000D02*
X15083000Y-9012000D01*
X15083000Y-9012000D02*
X13296000Y-9012000D01*
X15083000Y-6681000D02*
G75*
G03*
X15003000Y-6601000I-80000J0D01*
G01*
X13296000Y-9012000D02*
X13296000Y-6681000D01*
X13376000Y-6601000D02*
X15003000Y-6601000D01*
D11*
D12*
X13875500Y-7132500D02*
X13940500Y-7197500D01*
X13940500Y-7132500D02*
X13875500Y-7197500D01*
X14453500Y-7132500D02*
X14518500Y-7197500D01*
X14518500Y-7132500D02*
X14453500Y-7197500D01*
D11*
X13548619Y-9327476D02*
X13548619Y-9127476D01*
X13596238Y-9127476D01*
X13624809Y-9137000D01*
X13643857Y-9156048D01*
X13653381Y-9175095D01*
X13662905Y-9213190D01*
X13662905Y-9241762D01*
X13653381Y-9279857D01*
X13643857Y-9298905D01*
X13624809Y-9317952D01*
X13596238Y-9327476D01*
X13548619Y-9327476D01*
X13748619Y-9327476D02*
X13748619Y-9194143D01*
X13748619Y-9232238D02*
X13758143Y-9213190D01*
X13767667Y-9203667D01*
X13786714Y-9194143D01*
X13805762Y-9194143D01*
X13872428Y-9327476D02*
X13872428Y-9194143D01*
X13872428Y-9127476D02*
X13862905Y-9137000D01*
X13872428Y-9146524D01*
X13881952Y-9137000D01*
X13872428Y-9127476D01*
X13872428Y-9146524D01*
X13996238Y-9327476D02*
X13977190Y-9317952D01*
X13967667Y-9298905D01*
X13967667Y-9127476D01*
X14101000Y-9327476D02*
X14081952Y-9317952D01*
X14072428Y-9298905D01*
X14072428Y-9127476D01*
X14329571Y-9327476D02*
X14329571Y-9127476D01*
X14396238Y-9270333D01*
X14462905Y-9127476D01*
X14462905Y-9327476D01*
X14643857Y-9327476D02*
X14643857Y-9222714D01*
X14634333Y-9203667D01*
X14615286Y-9194143D01*
X14577190Y-9194143D01*
X14558143Y-9203667D01*
X14643857Y-9317952D02*
X14624809Y-9327476D01*
X14577190Y-9327476D01*
X14558143Y-9317952D01*
X14548619Y-9298905D01*
X14548619Y-9279857D01*
X14558143Y-9260810D01*
X14577190Y-9251286D01*
X14624809Y-9251286D01*
X14643857Y-9241762D01*
X14739095Y-9194143D02*
X14739095Y-9394143D01*
X14739095Y-9203667D02*
X14758143Y-9194143D01*
X14796238Y-9194143D01*
X14815286Y-9203667D01*
X14824809Y-9213190D01*
X14834333Y-9232238D01*
X14834333Y-9289381D01*
X14824809Y-9308429D01*
X14815286Y-9317952D01*
X14796238Y-9327476D01*
X14758143Y-9327476D01*
X14739095Y-9317952D01*
X14920048Y-9308429D02*
X14929571Y-9317952D01*
X14920048Y-9327476D01*
X14910524Y-9317952D01*
X14920048Y-9308429D01*
X14920048Y-9327476D01*
X14920048Y-9203667D02*
X14929571Y-9213190D01*
X14920048Y-9222714D01*
X14910524Y-9213190D01*
X14920048Y-9203667D01*
X14920048Y-9222714D01*
D12*
X13226000Y-9624500D02*
X13291000Y-9689500D01*
X13291000Y-9624500D02*
X13226000Y-9689500D01*
D11*
X13586714Y-9547476D02*
X13605762Y-9547476D01*
X13624809Y-9557000D01*
X13634333Y-9566524D01*
X13643857Y-9585571D01*
X13653381Y-9623667D01*
X13653381Y-9671286D01*
X13643857Y-9709381D01*
X13634333Y-9728429D01*
X13624809Y-9737952D01*
X13605762Y-9747476D01*
X13586714Y-9747476D01*
X13567667Y-9737952D01*
X13558143Y-9728429D01*
X13548619Y-9709381D01*
X13539095Y-9671286D01*
X13539095Y-9623667D01*
X13548619Y-9585571D01*
X13558143Y-9566524D01*
X13567667Y-9557000D01*
X13586714Y-9547476D01*
X13739095Y-9728429D02*
X13748619Y-9737952D01*
X13739095Y-9747476D01*
X13729571Y-9737952D01*
X13739095Y-9728429D01*
X13739095Y-9747476D01*
X13920048Y-9547476D02*
X13881952Y-9547476D01*
X13862905Y-9557000D01*
X13853381Y-9566524D01*
X13834333Y-9595095D01*
X13824809Y-9633190D01*
X13824809Y-9709381D01*
X13834333Y-9728429D01*
X13843857Y-9737952D01*
X13862905Y-9747476D01*
X13901000Y-9747476D01*
X13920048Y-9737952D01*
X13929571Y-9728429D01*
X13939095Y-9709381D01*
X13939095Y-9661762D01*
X13929571Y-9642714D01*
X13920048Y-9633190D01*
X13901000Y-9623667D01*
X13862905Y-9623667D01*
X13843857Y-9633190D01*
X13834333Y-9642714D01*
X13824809Y-9661762D01*
X14120048Y-9547476D02*
X14024809Y-9547476D01*
X14015286Y-9642714D01*
X14024809Y-9633190D01*
X14043857Y-9623667D01*
X14091476Y-9623667D01*
X14110524Y-9633190D01*
X14120048Y-9642714D01*
X14129571Y-9661762D01*
X14129571Y-9709381D01*
X14120048Y-9728429D01*
X14110524Y-9737952D01*
X14091476Y-9747476D01*
X14043857Y-9747476D01*
X14024809Y-9737952D01*
X14015286Y-9728429D01*
X14253381Y-9547476D02*
X14272428Y-9547476D01*
X14291476Y-9557000D01*
X14301000Y-9566524D01*
X14310524Y-9585571D01*
X14320048Y-9623667D01*
X14320048Y-9671286D01*
X14310524Y-9709381D01*
X14301000Y-9728429D01*
X14291476Y-9737952D01*
X14272428Y-9747476D01*
X14253381Y-9747476D01*
X14234333Y-9737952D01*
X14224809Y-9728429D01*
X14215286Y-9709381D01*
X14205762Y-9671286D01*
X14205762Y-9623667D01*
X14215286Y-9585571D01*
X14224809Y-9566524D01*
X14234333Y-9557000D01*
X14253381Y-9547476D01*
X14405762Y-9747476D02*
X14405762Y-9614143D01*
X14405762Y-9633190D02*
X14415286Y-9623667D01*
X14434333Y-9614143D01*
X14462905Y-9614143D01*
X14481952Y-9623667D01*
X14491476Y-9642714D01*
X14491476Y-9747476D01*
X14491476Y-9642714D02*
X14501000Y-9623667D01*
X14520048Y-9614143D01*
X14548619Y-9614143D01*
X14567667Y-9623667D01*
X14577190Y-9642714D01*
X14577190Y-9747476D01*
X14672428Y-9747476D02*
X14672428Y-9614143D01*
X14672428Y-9633190D02*
X14681952Y-9623667D01*
X14701000Y-9614143D01*
X14729571Y-9614143D01*
X14748619Y-9623667D01*
X14758143Y-9642714D01*
X14758143Y-9747476D01*
X14758143Y-9642714D02*
X14767667Y-9623667D01*
X14786714Y-9614143D01*
X14815286Y-9614143D01*
X14834333Y-9623667D01*
X14843857Y-9642714D01*
X14843857Y-9747476D01*
X15234333Y-9537952D02*
X15062905Y-9795095D01*
X15491476Y-9547476D02*
X15510524Y-9547476D01*
X15529571Y-9557000D01*
X15539095Y-9566524D01*
X15548619Y-9585571D01*
X15558143Y-9623667D01*
X15558143Y-9671286D01*
X15548619Y-9709381D01*
X15539095Y-9728429D01*
X15529571Y-9737952D01*
X15510524Y-9747476D01*
X15491476Y-9747476D01*
X15472428Y-9737952D01*
X15462905Y-9728429D01*
X15453381Y-9709381D01*
X15443857Y-9671286D01*
X15443857Y-9623667D01*
X15453381Y-9585571D01*
X15462905Y-9566524D01*
X15472428Y-9557000D01*
X15491476Y-9547476D01*
X15643857Y-9728429D02*
X15653381Y-9737952D01*
X15643857Y-9747476D01*
X15634333Y-9737952D01*
X15643857Y-9728429D01*
X15643857Y-9747476D01*
X15777190Y-9547476D02*
X15796238Y-9547476D01*
X15815286Y-9557000D01*
X15824809Y-9566524D01*
X15834333Y-9585571D01*
X15843857Y-9623667D01*
X15843857Y-9671286D01*
X15834333Y-9709381D01*
X15824809Y-9728429D01*
X15815286Y-9737952D01*
X15796238Y-9747476D01*
X15777190Y-9747476D01*
X15758143Y-9737952D01*
X15748619Y-9728429D01*
X15739095Y-9709381D01*
X15729571Y-9671286D01*
X15729571Y-9623667D01*
X15739095Y-9585571D01*
X15748619Y-9566524D01*
X15758143Y-9557000D01*
X15777190Y-9547476D01*
X15920048Y-9566524D02*
X15929571Y-9557000D01*
X15948619Y-9547476D01*
X15996238Y-9547476D01*
X16015286Y-9557000D01*
X16024809Y-9566524D01*
X16034333Y-9585571D01*
X16034333Y-9604619D01*
X16024809Y-9633190D01*
X15910524Y-9747476D01*
X16034333Y-9747476D01*
X16215286Y-9547476D02*
X16120048Y-9547476D01*
X16110524Y-9642714D01*
X16120048Y-9633190D01*
X16139095Y-9623667D01*
X16186714Y-9623667D01*
X16205762Y-9633190D01*
X16215286Y-9642714D01*
X16224809Y-9661762D01*
X16224809Y-9709381D01*
X16215286Y-9728429D01*
X16205762Y-9737952D01*
X16186714Y-9747476D01*
X16139095Y-9747476D01*
X16120048Y-9737952D01*
X16110524Y-9728429D01*
X16396238Y-9547476D02*
X16358143Y-9547476D01*
X16339095Y-9557000D01*
X16329571Y-9566524D01*
X16310524Y-9595095D01*
X16301000Y-9633190D01*
X16301000Y-9709381D01*
X16310524Y-9728429D01*
X16320048Y-9737952D01*
X16339095Y-9747476D01*
X16377190Y-9747476D01*
X16396238Y-9737952D01*
X16405762Y-9728429D01*
X16415286Y-9709381D01*
X16415286Y-9661762D01*
X16405762Y-9642714D01*
X16396238Y-9633190D01*
X16377190Y-9623667D01*
X16339095Y-9623667D01*
X16320048Y-9633190D01*
X16310524Y-9642714D01*
X16301000Y-9661762D01*
X16491476Y-9547476D02*
X16491476Y-9585571D01*
X16567667Y-9547476D02*
X16567667Y-9585571D01*
X16862905Y-9823667D02*
X16853381Y-9814143D01*
X16834333Y-9785571D01*
X16824810Y-9766524D01*
X16815286Y-9737952D01*
X16805762Y-9690333D01*
X16805762Y-9652238D01*
X16815286Y-9604619D01*
X16824810Y-9576048D01*
X16834333Y-9557000D01*
X16853381Y-9528429D01*
X16862905Y-9518905D01*
X16929571Y-9566524D02*
X16939095Y-9557000D01*
X16958143Y-9547476D01*
X17005762Y-9547476D01*
X17024810Y-9557000D01*
X17034333Y-9566524D01*
X17043857Y-9585571D01*
X17043857Y-9604619D01*
X17034333Y-9633190D01*
X16920048Y-9747476D01*
X17043857Y-9747476D01*
X17281952Y-9747476D02*
X17281952Y-9547476D01*
X17367667Y-9747476D02*
X17367667Y-9642714D01*
X17358143Y-9623667D01*
X17339095Y-9614143D01*
X17310524Y-9614143D01*
X17291476Y-9623667D01*
X17281952Y-9633190D01*
X17491476Y-9747476D02*
X17472429Y-9737952D01*
X17462905Y-9728429D01*
X17453381Y-9709381D01*
X17453381Y-9652238D01*
X17462905Y-9633190D01*
X17472429Y-9623667D01*
X17491476Y-9614143D01*
X17520048Y-9614143D01*
X17539095Y-9623667D01*
X17548619Y-9633190D01*
X17558143Y-9652238D01*
X17558143Y-9709381D01*
X17548619Y-9728429D01*
X17539095Y-9737952D01*
X17520048Y-9747476D01*
X17491476Y-9747476D01*
X17672429Y-9747476D02*
X17653381Y-9737952D01*
X17643857Y-9718905D01*
X17643857Y-9547476D01*
X17824810Y-9737952D02*
X17805762Y-9747476D01*
X17767667Y-9747476D01*
X17748619Y-9737952D01*
X17739095Y-9718905D01*
X17739095Y-9642714D01*
X17748619Y-9623667D01*
X17767667Y-9614143D01*
X17805762Y-9614143D01*
X17824810Y-9623667D01*
X17834333Y-9642714D01*
X17834333Y-9661762D01*
X17739095Y-9680810D01*
X17910524Y-9737952D02*
X17929571Y-9747476D01*
X17967667Y-9747476D01*
X17986714Y-9737952D01*
X17996238Y-9718905D01*
X17996238Y-9709381D01*
X17986714Y-9690333D01*
X17967667Y-9680810D01*
X17939095Y-9680810D01*
X17920048Y-9671286D01*
X17910524Y-9652238D01*
X17910524Y-9642714D01*
X17920048Y-9623667D01*
X17939095Y-9614143D01*
X17967667Y-9614143D01*
X17986714Y-9623667D01*
X18062905Y-9823667D02*
X18072429Y-9814143D01*
X18091476Y-9785571D01*
X18101000Y-9766524D01*
X18110524Y-9737952D01*
X18120048Y-9690333D01*
X18120048Y-9652238D01*
X18110524Y-9604619D01*
X18101000Y-9576048D01*
X18091476Y-9557000D01*
X18072429Y-9528429D01*
X18062905Y-9518905D01*
X18424810Y-9823667D02*
X18415286Y-9814143D01*
X18396238Y-9785571D01*
X18386714Y-9766524D01*
X18377190Y-9737952D01*
X18367667Y-9690333D01*
X18367667Y-9652238D01*
X18377190Y-9604619D01*
X18386714Y-9576048D01*
X18396238Y-9557000D01*
X18415286Y-9528429D01*
X18424810Y-9518905D01*
X18501000Y-9614143D02*
X18501000Y-9747476D01*
X18501000Y-9633190D02*
X18510524Y-9623667D01*
X18529571Y-9614143D01*
X18558143Y-9614143D01*
X18577190Y-9623667D01*
X18586714Y-9642714D01*
X18586714Y-9747476D01*
X18710524Y-9747476D02*
X18691476Y-9737952D01*
X18681952Y-9728429D01*
X18672429Y-9709381D01*
X18672429Y-9652238D01*
X18681952Y-9633190D01*
X18691476Y-9623667D01*
X18710524Y-9614143D01*
X18739095Y-9614143D01*
X18758143Y-9623667D01*
X18767667Y-9633190D01*
X18777190Y-9652238D01*
X18777190Y-9709381D01*
X18767667Y-9728429D01*
X18758143Y-9737952D01*
X18739095Y-9747476D01*
X18710524Y-9747476D01*
X18834333Y-9614143D02*
X18910524Y-9614143D01*
X18862905Y-9547476D02*
X18862905Y-9718905D01*
X18872429Y-9737952D01*
X18891476Y-9747476D01*
X18910524Y-9747476D01*
X19129571Y-9614143D02*
X19129571Y-9814143D01*
X19129571Y-9623667D02*
X19148619Y-9614143D01*
X19186714Y-9614143D01*
X19205762Y-9623667D01*
X19215286Y-9633190D01*
X19224810Y-9652238D01*
X19224810Y-9709381D01*
X19215286Y-9728429D01*
X19205762Y-9737952D01*
X19186714Y-9747476D01*
X19148619Y-9747476D01*
X19129571Y-9737952D01*
X19339095Y-9747476D02*
X19320048Y-9737952D01*
X19310524Y-9718905D01*
X19310524Y-9547476D01*
X19501000Y-9747476D02*
X19501000Y-9642714D01*
X19491476Y-9623667D01*
X19472429Y-9614143D01*
X19434333Y-9614143D01*
X19415286Y-9623667D01*
X19501000Y-9737952D02*
X19481952Y-9747476D01*
X19434333Y-9747476D01*
X19415286Y-9737952D01*
X19405762Y-9718905D01*
X19405762Y-9699857D01*
X19415286Y-9680810D01*
X19434333Y-9671286D01*
X19481952Y-9671286D01*
X19501000Y-9661762D01*
X19567667Y-9614143D02*
X19643857Y-9614143D01*
X19596238Y-9547476D02*
X19596238Y-9718905D01*
X19605762Y-9737952D01*
X19624810Y-9747476D01*
X19643857Y-9747476D01*
X19786714Y-9737952D02*
X19767667Y-9747476D01*
X19729571Y-9747476D01*
X19710524Y-9737952D01*
X19701000Y-9718905D01*
X19701000Y-9642714D01*
X19710524Y-9623667D01*
X19729571Y-9614143D01*
X19767667Y-9614143D01*
X19786714Y-9623667D01*
X19796238Y-9642714D01*
X19796238Y-9661762D01*
X19701000Y-9680810D01*
X19967667Y-9747476D02*
X19967667Y-9547476D01*
X19967667Y-9737952D02*
X19948619Y-9747476D01*
X19910524Y-9747476D01*
X19891476Y-9737952D01*
X19881952Y-9728429D01*
X19872429Y-9709381D01*
X19872429Y-9652238D01*
X19881952Y-9633190D01*
X19891476Y-9623667D01*
X19910524Y-9614143D01*
X19948619Y-9614143D01*
X19967667Y-9623667D01*
X20043857Y-9823667D02*
X20053381Y-9814143D01*
X20072429Y-9785571D01*
X20081952Y-9766524D01*
X20091476Y-9737952D01*
X20101000Y-9690333D01*
X20101000Y-9652238D01*
X20091476Y-9604619D01*
X20081952Y-9576048D01*
X20072429Y-9557000D01*
X20053381Y-9528429D01*
X20043857Y-9518905D01*
M02*
