G04 #@! TF.GenerationSoftware,KiCad,Pcbnew,(6.0.0)*
G04 #@! TF.CreationDate,2022-02-21T22:13:02+08:00*
G04 #@! TF.ProjectId,USB3G2_SATA3_Bridge(JMS580),55534233-4732-45f5-9341-5441335f4272,rev?*
G04 #@! TF.SameCoordinates,Original*
G04 #@! TF.FileFunction,Copper,L2,Inr*
G04 #@! TF.FilePolarity,Positive*
%FSLAX46Y46*%
G04 Gerber Fmt 4.6, Leading zero omitted, Abs format (unit mm)*
G04 Created by KiCad (PCBNEW (6.0.0)) date 2022-02-21 22:13:02*
%MOMM*%
%LPD*%
G01*
G04 APERTURE LIST*
G04 #@! TA.AperFunction,ComponentPad*
%ADD10C,0.650000*%
G04 #@! TD*
G04 #@! TA.AperFunction,ComponentPad*
%ADD11O,0.800000X1.400000*%
G04 #@! TD*
G04 #@! TA.AperFunction,ComponentPad*
%ADD12C,0.700000*%
G04 #@! TD*
G04 #@! TA.AperFunction,ComponentPad*
%ADD13C,4.400000*%
G04 #@! TD*
G04 #@! TA.AperFunction,ComponentPad*
%ADD14O,1.400000X2.400000*%
G04 #@! TD*
G04 #@! TA.AperFunction,ViaPad*
%ADD15C,0.450000*%
G04 #@! TD*
G04 #@! TA.AperFunction,Conductor*
%ADD16C,0.200000*%
G04 #@! TD*
G04 #@! TA.AperFunction,Conductor*
%ADD17C,0.300000*%
G04 #@! TD*
G04 #@! TA.AperFunction,Conductor*
%ADD18C,0.400000*%
G04 #@! TD*
G04 #@! TA.AperFunction,Conductor*
%ADD19C,0.250000*%
G04 #@! TD*
G04 APERTURE END LIST*
D10*
G04 #@! TO.N,GND*
G04 #@! TO.C,J2*
X130534999Y-69395000D03*
G04 #@! TO.N,/SS_TX1X+*
X130934999Y-68695000D03*
G04 #@! TO.N,/SS_TX1X-*
X131734999Y-68695000D03*
G04 #@! TO.N,VBUS*
X132134999Y-69395000D03*
G04 #@! TO.N,CC2*
X132534999Y-68695000D03*
G04 #@! TO.N,D+*
X132934999Y-69395000D03*
G04 #@! TO.N,D-*
X133734999Y-69395000D03*
G04 #@! TO.N,unconnected-(J2-PadB8)*
X134134999Y-68695000D03*
G04 #@! TO.N,VBUS*
X134534999Y-69395000D03*
G04 #@! TO.N,SS_RX2-*
X134934999Y-68695000D03*
G04 #@! TO.N,SS_RX2+*
X135734999Y-68695000D03*
G04 #@! TO.N,GND*
X136134999Y-69395000D03*
D11*
X137824999Y-64405000D03*
X128844999Y-64405000D03*
X137464999Y-68795000D03*
X129204999Y-68795000D03*
G04 #@! TD*
D12*
G04 #@! TO.N,N/C*
G04 #@! TO.C,H2*
X116600000Y-64500000D03*
X116600000Y-67800000D03*
X118250000Y-66150000D03*
X115433274Y-64983274D03*
X117766726Y-67316726D03*
X117766726Y-64983274D03*
X115433274Y-67316726D03*
X114950000Y-66150000D03*
D13*
X116600000Y-66150000D03*
G04 #@! TD*
D12*
G04 #@! TO.N,N/C*
G04 #@! TO.C,H3*
X131133274Y-82163274D03*
X133950000Y-83330000D03*
X133466726Y-84496726D03*
X132300000Y-81680000D03*
X130650000Y-83330000D03*
X131133274Y-84496726D03*
X132300000Y-84980000D03*
X133466726Y-82163274D03*
D13*
X132300000Y-83330000D03*
G04 #@! TD*
D12*
G04 #@! TO.N,N/C*
G04 #@! TO.C,H1*
X150000000Y-67800000D03*
X148833274Y-67316726D03*
X148350000Y-66150000D03*
X148833274Y-64983274D03*
X151650000Y-66150000D03*
X151166726Y-67316726D03*
X151166726Y-64983274D03*
D13*
X150000000Y-66150000D03*
D12*
X150000000Y-64500000D03*
G04 #@! TD*
D14*
G04 #@! TO.N,GND*
G04 #@! TO.C,J1*
X152014200Y-90851400D03*
X114594200Y-90851400D03*
G04 #@! TD*
D15*
G04 #@! TO.N,GND*
X114000000Y-85000000D03*
X135000000Y-63500000D03*
X145000000Y-63500000D03*
X123000000Y-63500000D03*
X146164999Y-78050000D03*
X114000000Y-88000000D03*
X148340000Y-93000000D03*
X114000000Y-80000000D03*
X150500001Y-70000000D03*
X136340000Y-93000000D03*
X150254998Y-87050000D03*
X137340000Y-93000000D03*
X133000000Y-63500000D03*
X143340000Y-93000000D03*
X143999999Y-63500000D03*
X139340000Y-93000000D03*
X135340000Y-93000000D03*
X145164999Y-80050000D03*
X152950000Y-77270000D03*
X146000000Y-63500000D03*
X146340000Y-93000000D03*
X145370000Y-86380000D03*
X152340000Y-93000000D03*
X151340000Y-93000000D03*
X143000000Y-63500000D03*
X144340000Y-93000000D03*
X120890000Y-80550000D03*
X144164999Y-79050000D03*
X149500000Y-70000000D03*
X146164999Y-79050000D03*
X129340000Y-93000000D03*
X132340000Y-93000000D03*
X150340000Y-93000000D03*
X136280000Y-82480000D03*
X119000000Y-63500000D03*
X114000000Y-77000000D03*
X145370000Y-85460000D03*
X149184999Y-87050000D03*
X131340000Y-93000000D03*
X115340000Y-93000000D03*
X152980000Y-80210000D03*
X114340000Y-93000000D03*
X125340000Y-93000000D03*
X121000000Y-63500000D03*
X121290000Y-78100000D03*
X148000001Y-63500000D03*
X128340000Y-93000000D03*
X127000000Y-63500000D03*
X147000000Y-63500000D03*
X123340000Y-93000000D03*
X119340000Y-93000000D03*
X114000000Y-87000000D03*
X142000000Y-63500000D03*
X126000000Y-63500000D03*
X114000000Y-78000000D03*
X130340000Y-93000000D03*
X125000000Y-63500000D03*
X141560000Y-85460000D03*
X114000000Y-74000000D03*
X146164999Y-80050000D03*
X133340000Y-93000000D03*
X122000000Y-63500000D03*
X114000000Y-82000000D03*
X118340000Y-93000000D03*
X138340000Y-93000000D03*
X144164999Y-80050000D03*
X114000000Y-89000000D03*
X122340000Y-93000000D03*
X141340000Y-93000000D03*
X115420000Y-68990000D03*
X131000000Y-63500000D03*
X114000000Y-73000000D03*
X138170000Y-82480000D03*
X127340000Y-93000000D03*
X114000000Y-84000000D03*
X145164999Y-78050000D03*
X135999999Y-63500000D03*
X139000000Y-63500000D03*
X116850000Y-79610000D03*
X147340000Y-93000000D03*
X151010001Y-69070000D03*
X134000000Y-63500000D03*
X132000001Y-63500000D03*
X115420000Y-70000000D03*
X152950000Y-78220000D03*
X144164999Y-78050000D03*
X149340000Y-93000000D03*
X151500000Y-70000000D03*
X114000000Y-71000000D03*
X134340000Y-93000000D03*
X126340000Y-93000000D03*
X152970000Y-82240000D03*
X151254998Y-87050000D03*
X141000000Y-63500000D03*
X152980000Y-81240000D03*
X114000000Y-72000000D03*
X114000000Y-83000000D03*
X117340000Y-93000000D03*
X119999999Y-63500000D03*
X145340000Y-93000000D03*
X114000000Y-75000000D03*
X121340000Y-93000000D03*
X124340000Y-93000000D03*
X145164999Y-79050000D03*
X114000000Y-79000000D03*
X142340000Y-93000000D03*
X114000000Y-86000000D03*
X140340000Y-93000000D03*
X114000000Y-81000000D03*
X140000001Y-63500000D03*
X116340000Y-93000000D03*
X114000000Y-76000000D03*
X141560000Y-86380000D03*
X124000001Y-63500000D03*
X127999999Y-63500000D03*
X120340000Y-93000000D03*
X116830000Y-80850000D03*
G04 #@! TO.N,VBUS*
X123635000Y-82130000D03*
X148010000Y-70060000D03*
X124290000Y-82790000D03*
X122980000Y-82130000D03*
X146640000Y-65914952D03*
X124920000Y-82790000D03*
X141630000Y-64930000D03*
X148010000Y-69500000D03*
X117460000Y-77850000D03*
X124290000Y-82130000D03*
X146640000Y-66430000D03*
G04 #@! TO.N,3V3*
X141600000Y-76070000D03*
X152240000Y-87060000D03*
X119300000Y-77225000D03*
X144600000Y-67790000D03*
X144750000Y-72400000D03*
X152950000Y-79220000D03*
X149490000Y-81550000D03*
X144860000Y-75170000D03*
G04 #@! TO.N,1V0*
X151784999Y-75460000D03*
X141660000Y-81680000D03*
X151784999Y-73570000D03*
X151784999Y-74200000D03*
X144100000Y-82820000D03*
X141300000Y-77160000D03*
X117809999Y-83120000D03*
X117809999Y-85010000D03*
X151784999Y-74830000D03*
X122975000Y-80625000D03*
X150250000Y-82400000D03*
X146280000Y-75080000D03*
X117809999Y-83750000D03*
X141304999Y-79250000D03*
X117809999Y-84380000D03*
X145360000Y-82840000D03*
G04 #@! TO.N,CC1*
X133360000Y-73710000D03*
X150574999Y-77280000D03*
G04 #@! TO.N,CC2*
X150574999Y-78230000D03*
G04 #@! TO.N,Net-(C30-Pad2)*
X143370000Y-66519952D03*
X143420000Y-74500000D03*
G04 #@! TO.N,D+*
X133340000Y-72140000D03*
X141003210Y-74902698D03*
G04 #@! TO.N,D-*
X141003210Y-74302698D03*
X133340000Y-72900000D03*
G04 #@! TO.N,SS_RX2-*
X136924999Y-81709555D03*
G04 #@! TO.N,SS_RX2+*
X137524999Y-81709555D03*
G04 #@! TO.N,GPIO11*
X121292500Y-76200000D03*
X150170000Y-79360000D03*
G04 #@! TO.N,GPIO7*
X147910000Y-81860000D03*
X130400000Y-79080000D03*
G04 #@! TO.N,GPIO4*
X144830000Y-66530000D03*
X144200000Y-74600000D03*
G04 #@! TO.N,GPIO2*
X145770000Y-74500000D03*
X146070000Y-67850000D03*
G04 #@! TO.N,GPIO1*
X145690000Y-66900000D03*
X146930000Y-74870000D03*
G04 #@! TO.N,GPIO8*
X149445000Y-84585000D03*
G04 #@! TO.N,GPIO9*
X152030000Y-83870000D03*
G04 #@! TD*
D16*
G04 #@! TO.N,GPIO7*
X147810787Y-81760787D02*
X147910000Y-81860000D01*
X145642641Y-81175000D02*
X146396573Y-81175000D01*
X142433680Y-83141320D02*
X143521321Y-82053679D01*
X136144214Y-84020000D02*
X140312359Y-84020000D01*
X135102893Y-83392893D02*
X135437107Y-83727107D01*
X131835026Y-79285026D02*
X134517107Y-81967107D01*
X130441317Y-79081317D02*
X131408865Y-79081317D01*
X145642641Y-81175000D02*
G75*
G03*
X143521321Y-82053679I-1J-2999998D01*
G01*
X142433680Y-83141320D02*
G75*
G02*
X140312359Y-84020000I-2121318J2121314D01*
G01*
X135102893Y-83392893D02*
G75*
G02*
X134810000Y-82685786I707106J707106D01*
G01*
X134810000Y-82674214D02*
X134810000Y-82685786D01*
X147810787Y-81760787D02*
G75*
G03*
X146396573Y-81175000I-1414214J-1414213D01*
G01*
X136144214Y-84019999D02*
G75*
G02*
X135437108Y-83727106I-3J999993D01*
G01*
X131835026Y-79285026D02*
G75*
G03*
X131408865Y-79081317I-505535J-509963D01*
G01*
X134809999Y-82674214D02*
G75*
G03*
X134517106Y-81967108I-999998J1D01*
G01*
D17*
G04 #@! TO.N,3V3*
X149490000Y-81550000D02*
X149490000Y-82151573D01*
D18*
X149490000Y-81550000D02*
X150175786Y-81550000D01*
X150912893Y-81257107D02*
X152950000Y-79220000D01*
D16*
X121314214Y-75625000D02*
X128107359Y-75625000D01*
D17*
X150075787Y-83565787D02*
X151654214Y-85144214D01*
D16*
X135600000Y-82289214D02*
X135600000Y-82431472D01*
D17*
X152240000Y-86558427D02*
X152240000Y-87060000D01*
D16*
X136514214Y-83180000D02*
X139952359Y-83180000D01*
X130228680Y-76503680D02*
X135307107Y-81582107D01*
D18*
X149490000Y-81550000D02*
X150205786Y-81550000D01*
D16*
X142280786Y-76070000D02*
X141600000Y-76070000D01*
X119300000Y-77225000D02*
X120607107Y-75917893D01*
X142073680Y-82301320D02*
X142546320Y-81828680D01*
X135775736Y-82855736D02*
X135807107Y-82887107D01*
X143132107Y-76507107D02*
X142987893Y-76362893D01*
X143425000Y-79707359D02*
X143425000Y-77214214D01*
X143132107Y-76507107D02*
G75*
G02*
X143425000Y-77214214I-707101J-707104D01*
G01*
D17*
X151654214Y-85144214D02*
G75*
G02*
X152240000Y-86558427I-1414214J-1414213D01*
G01*
D16*
X142280786Y-76070001D02*
G75*
G02*
X142987892Y-76362894I1J-999998D01*
G01*
D17*
X149490001Y-82151573D02*
G75*
G03*
X150075788Y-83565786I1999999J0D01*
G01*
D16*
X143424999Y-79707359D02*
G75*
G02*
X142546319Y-81828679I-2999993J-3D01*
G01*
X121314214Y-75625001D02*
G75*
G03*
X120607108Y-75917894I-3J-999993D01*
G01*
X142073680Y-82301320D02*
G75*
G02*
X139952359Y-83180000I-2121323J2121325D01*
G01*
X130228680Y-76503680D02*
G75*
G03*
X128107359Y-75625000I-2121323J-2121325D01*
G01*
X135775736Y-82855736D02*
G75*
G02*
X135600000Y-82431472I424260J424263D01*
G01*
D18*
X150912893Y-81257107D02*
G75*
G02*
X150205786Y-81550000I-707106J707106D01*
G01*
D16*
X135599999Y-82289214D02*
G75*
G03*
X135307106Y-81582108I-999998J1D01*
G01*
X136514214Y-83179999D02*
G75*
G02*
X135807108Y-82887106I-3J999993D01*
G01*
D17*
G04 #@! TO.N,Net-(C30-Pad2)*
X143302842Y-73612842D02*
X143167157Y-73477157D01*
X143167158Y-66722794D02*
X143370000Y-66519952D01*
X143420000Y-74500000D02*
X143420000Y-73895685D01*
X143050000Y-73194315D02*
X143050000Y-67005637D01*
X143050001Y-73194315D02*
G75*
G03*
X143167157Y-73477157I399997J-1D01*
G01*
X143302842Y-73612842D02*
G75*
G02*
X143420000Y-73895685I-282835J-282841D01*
G01*
X143050001Y-67005637D02*
G75*
G02*
X143167159Y-66722795I400003J-2D01*
G01*
D16*
G04 #@! TO.N,GPIO11*
X136324214Y-83600000D02*
X140087359Y-83600000D01*
X130203680Y-77078680D02*
X134907107Y-81782107D01*
X135375736Y-83065736D02*
X135617107Y-83307107D01*
X121292500Y-76200000D02*
X128082359Y-76200000D01*
X145382670Y-80789971D02*
X148325815Y-80789971D01*
X149032922Y-80497078D02*
X150170000Y-79360000D01*
X142208680Y-82721320D02*
X143261350Y-81668650D01*
X135200000Y-82489214D02*
X135200000Y-82641472D01*
X135199999Y-82489214D02*
G75*
G03*
X134907106Y-81782108I-999993J3D01*
G01*
X149032922Y-80497078D02*
G75*
G02*
X148325815Y-80789971I-707106J707106D01*
G01*
X136324214Y-83599999D02*
G75*
G02*
X135617108Y-83307106I-1J999998D01*
G01*
X135375736Y-83065736D02*
G75*
G02*
X135200000Y-82641472I424260J424263D01*
G01*
X142208680Y-82721320D02*
G75*
G02*
X140087359Y-83600000I-2121323J2121325D01*
G01*
X130203680Y-77078680D02*
G75*
G03*
X128082359Y-76200000I-2121323J-2121325D01*
G01*
X145382670Y-80789971D02*
G75*
G03*
X143261350Y-81668650I-1J-2999998D01*
G01*
D17*
G04 #@! TO.N,GPIO4*
X144200000Y-73657107D02*
X144200000Y-74600000D01*
X144830000Y-66530000D02*
X143987157Y-67372843D01*
X143870000Y-67655685D02*
X143870000Y-72912893D01*
X144016447Y-73266447D02*
X144053554Y-73303554D01*
X144053554Y-73303554D02*
G75*
G02*
X144200000Y-73657107I-353556J-353553D01*
G01*
X143870001Y-67655685D02*
G75*
G02*
X143987157Y-67372843I399997J1D01*
G01*
X143870000Y-72912893D02*
G75*
G03*
X144016447Y-73266447I499997J-1D01*
G01*
D19*
G04 #@! TO.N,GPIO2*
X145770000Y-68315685D02*
X145770000Y-74500000D01*
X146070000Y-67850000D02*
X145887158Y-68032842D01*
X145770001Y-68315685D02*
G75*
G02*
X145887159Y-68032843I400008J-4D01*
G01*
G04 #@! TO.N,GPIO1*
X146027158Y-67017158D02*
X146344214Y-67334214D01*
X146930000Y-68748427D02*
X146930000Y-74870000D01*
X145690000Y-66900000D02*
X145744315Y-66900000D01*
X146929999Y-68748427D02*
G75*
G03*
X146344213Y-67334215I-1999999J0D01*
G01*
X145744315Y-66900001D02*
G75*
G02*
X146027157Y-67017159I-2J-400003D01*
G01*
G04 #@! TD*
G04 #@! TA.AperFunction,Conductor*
G04 #@! TO.N,GND*
G36*
X150389966Y-62951101D02*
G01*
X150407684Y-62954225D01*
X150416281Y-62952709D01*
X150439034Y-62951360D01*
X150715285Y-62966900D01*
X150726329Y-62968147D01*
X151024567Y-63018905D01*
X151035402Y-63021382D01*
X151189319Y-63065803D01*
X151326059Y-63105267D01*
X151336553Y-63108946D01*
X151615961Y-63224894D01*
X151625970Y-63229722D01*
X151890632Y-63376287D01*
X151900028Y-63382202D01*
X152146584Y-63557524D01*
X152155258Y-63564458D01*
X152380584Y-63766313D01*
X152388434Y-63774183D01*
X152589713Y-64000051D01*
X152596620Y-64008740D01*
X152744382Y-64217691D01*
X152771286Y-64255736D01*
X152777187Y-64265162D01*
X152923056Y-64530201D01*
X152927862Y-64540229D01*
X153043080Y-64819938D01*
X153046731Y-64830441D01*
X153129853Y-65121307D01*
X153132304Y-65132155D01*
X153182283Y-65430523D01*
X153183501Y-65441576D01*
X153189065Y-65545310D01*
X153194998Y-65655933D01*
X153198319Y-65717862D01*
X153196911Y-65740612D01*
X153195373Y-65749204D01*
X153198541Y-65767448D01*
X153200000Y-65784385D01*
X153200000Y-67487712D01*
X153197801Y-67508463D01*
X153195577Y-67518838D01*
X153196686Y-67526832D01*
X153194374Y-67544334D01*
X153189382Y-67566032D01*
X153174323Y-67600152D01*
X153157677Y-67624218D01*
X153131061Y-67650347D01*
X153106689Y-67666548D01*
X153072303Y-67680973D01*
X153050518Y-67685565D01*
X153032976Y-67687556D01*
X153025000Y-67686299D01*
X153016500Y-67687958D01*
X153016499Y-67687958D01*
X153015070Y-67688237D01*
X153010939Y-67689043D01*
X152991977Y-67690876D01*
X152510785Y-67690876D01*
X152493594Y-67689372D01*
X152484407Y-67687752D01*
X152475877Y-67686248D01*
X152467348Y-67687752D01*
X152467068Y-67687752D01*
X152460828Y-67688608D01*
X152328792Y-67701612D01*
X152328791Y-67701612D01*
X152323950Y-67702089D01*
X152319296Y-67703501D01*
X152319295Y-67703501D01*
X152203466Y-67738637D01*
X152177861Y-67746404D01*
X152173569Y-67748698D01*
X152173562Y-67748701D01*
X152162558Y-67754583D01*
X152102325Y-67765339D01*
X152047274Y-67738637D01*
X152018432Y-67684676D01*
X152026815Y-67624068D01*
X152032302Y-67614226D01*
X152193870Y-67359636D01*
X152193879Y-67359619D01*
X152195537Y-67357007D01*
X152196854Y-67354207D01*
X152196859Y-67354199D01*
X152328176Y-67075135D01*
X152329503Y-67072315D01*
X152351169Y-67005635D01*
X152425773Y-66776029D01*
X152425775Y-66776021D01*
X152426731Y-66773079D01*
X152485688Y-66464015D01*
X152486689Y-66448117D01*
X152505249Y-66153099D01*
X152505444Y-66150000D01*
X152490656Y-65914952D01*
X152485884Y-65839094D01*
X152485883Y-65839088D01*
X152485688Y-65835985D01*
X152426731Y-65526921D01*
X152425775Y-65523979D01*
X152425773Y-65523971D01*
X152330465Y-65230646D01*
X152329503Y-65227685D01*
X152279543Y-65121515D01*
X152196859Y-64945801D01*
X152196854Y-64945793D01*
X152195537Y-64942993D01*
X152026947Y-64677337D01*
X152012468Y-64659834D01*
X151828371Y-64437301D01*
X151826390Y-64434906D01*
X151597030Y-64219522D01*
X151342484Y-64034584D01*
X151258691Y-63988518D01*
X151069488Y-63884502D01*
X151069482Y-63884499D01*
X151066766Y-63883006D01*
X150791352Y-63773962D01*
X150777115Y-63768325D01*
X150777112Y-63768324D01*
X150774225Y-63767181D01*
X150771222Y-63766410D01*
X150771216Y-63766408D01*
X150472480Y-63689706D01*
X150472479Y-63689706D01*
X150469473Y-63688934D01*
X150466392Y-63688545D01*
X150466388Y-63688544D01*
X150361279Y-63675266D01*
X150157318Y-63649500D01*
X149842682Y-63649500D01*
X149638721Y-63675266D01*
X149533612Y-63688544D01*
X149533608Y-63688545D01*
X149530527Y-63688934D01*
X149527521Y-63689706D01*
X149527520Y-63689706D01*
X149228784Y-63766408D01*
X149228778Y-63766410D01*
X149225775Y-63767181D01*
X149222888Y-63768324D01*
X149222885Y-63768325D01*
X149208648Y-63773962D01*
X148933234Y-63883006D01*
X148930518Y-63884499D01*
X148930512Y-63884502D01*
X148741309Y-63988518D01*
X148657516Y-64034584D01*
X148402970Y-64219522D01*
X148173610Y-64434906D01*
X148171629Y-64437301D01*
X147987533Y-64659834D01*
X147973053Y-64677337D01*
X147804463Y-64942993D01*
X147803146Y-64945793D01*
X147803141Y-64945801D01*
X147720457Y-65121515D01*
X147670497Y-65227685D01*
X147669535Y-65230646D01*
X147574227Y-65523971D01*
X147574225Y-65523979D01*
X147573269Y-65526921D01*
X147514312Y-65835985D01*
X147514117Y-65839088D01*
X147514116Y-65839094D01*
X147509344Y-65914952D01*
X147494556Y-66150000D01*
X147494751Y-66153099D01*
X147513312Y-66448117D01*
X147514312Y-66464015D01*
X147573269Y-66773079D01*
X147574225Y-66776021D01*
X147574227Y-66776029D01*
X147648831Y-67005635D01*
X147670497Y-67072315D01*
X147671824Y-67075135D01*
X147803141Y-67354199D01*
X147803146Y-67354207D01*
X147804463Y-67357007D01*
X147973053Y-67622663D01*
X147975029Y-67625052D01*
X147975033Y-67625057D01*
X148047635Y-67712817D01*
X148173610Y-67865094D01*
X148402970Y-68080478D01*
X148657516Y-68265416D01*
X148725555Y-68302821D01*
X148930512Y-68415498D01*
X148930518Y-68415501D01*
X148933234Y-68416994D01*
X148936122Y-68418137D01*
X148936121Y-68418137D01*
X149222885Y-68531675D01*
X149222888Y-68531676D01*
X149225775Y-68532819D01*
X149228778Y-68533590D01*
X149228784Y-68533592D01*
X149527520Y-68610294D01*
X149530527Y-68611066D01*
X149533608Y-68611455D01*
X149533612Y-68611456D01*
X149638721Y-68624734D01*
X149842682Y-68650500D01*
X150157318Y-68650500D01*
X150361279Y-68624734D01*
X150466388Y-68611456D01*
X150466392Y-68611455D01*
X150469473Y-68611066D01*
X150472480Y-68610294D01*
X150771216Y-68533592D01*
X150771222Y-68533590D01*
X150774225Y-68532819D01*
X150777112Y-68531676D01*
X150777115Y-68531675D01*
X151063879Y-68418137D01*
X151063878Y-68418137D01*
X151066766Y-68416994D01*
X151069482Y-68415501D01*
X151069488Y-68415498D01*
X151274445Y-68302821D01*
X151342484Y-68265416D01*
X151596953Y-68080534D01*
X151655144Y-68061627D01*
X151713335Y-68080534D01*
X151749299Y-68130034D01*
X151749881Y-68189365D01*
X151713746Y-68308489D01*
X151712089Y-68313950D01*
X151711612Y-68318793D01*
X151703972Y-68396363D01*
X151702813Y-68403166D01*
X151701541Y-68406346D01*
X151700920Y-68412619D01*
X151700918Y-68415035D01*
X151700918Y-68415036D01*
X151700912Y-68422658D01*
X151700435Y-68432284D01*
X151698608Y-68450832D01*
X151697752Y-68457073D01*
X151697752Y-68457348D01*
X151696248Y-68465877D01*
X151699344Y-68483433D01*
X151700847Y-68500699D01*
X151700502Y-68913720D01*
X151700029Y-69480008D01*
X151698525Y-69497115D01*
X151696882Y-69506433D01*
X151695372Y-69514999D01*
X151696876Y-69523528D01*
X151696876Y-69523808D01*
X151697732Y-69530048D01*
X151710396Y-69658628D01*
X151711213Y-69666926D01*
X151712625Y-69671580D01*
X151712625Y-69671581D01*
X151749690Y-69793768D01*
X151755528Y-69813015D01*
X151757822Y-69817307D01*
X151757823Y-69817309D01*
X151808688Y-69912468D01*
X151827493Y-69947650D01*
X151830578Y-69951410D01*
X151830580Y-69951412D01*
X151886264Y-70019264D01*
X151924340Y-70065660D01*
X151928110Y-70068754D01*
X152018649Y-70143056D01*
X152042350Y-70162507D01*
X152046638Y-70164799D01*
X152148498Y-70219245D01*
X152176985Y-70234472D01*
X152323074Y-70278787D01*
X152327917Y-70279264D01*
X152405587Y-70286914D01*
X152412450Y-70288081D01*
X152415720Y-70289385D01*
X152421993Y-70290000D01*
X152432066Y-70290000D01*
X152441768Y-70290477D01*
X152447780Y-70291069D01*
X152459953Y-70292268D01*
X152466192Y-70293124D01*
X152466472Y-70293124D01*
X152475001Y-70294628D01*
X152492719Y-70291504D01*
X152509909Y-70290000D01*
X152981483Y-70290000D01*
X152995991Y-70291069D01*
X153019238Y-70294513D01*
X153026634Y-70292998D01*
X153044396Y-70294288D01*
X153068208Y-70298433D01*
X153104808Y-70312718D01*
X153129857Y-70328840D01*
X153158020Y-70356241D01*
X153174823Y-70380837D01*
X153190108Y-70417033D01*
X153194906Y-70440726D01*
X153196682Y-70458445D01*
X153195372Y-70465876D01*
X153196876Y-70474406D01*
X153198496Y-70483593D01*
X153200000Y-70500784D01*
X153200000Y-78610113D01*
X153181093Y-78668304D01*
X153131593Y-78704268D01*
X153087526Y-78705418D01*
X153087183Y-78708026D01*
X152956433Y-78690812D01*
X152950000Y-78689965D01*
X152943567Y-78690812D01*
X152819248Y-78707179D01*
X152819246Y-78707180D01*
X152812817Y-78708026D01*
X152781949Y-78720812D01*
X152690981Y-78758491D01*
X152690977Y-78758493D01*
X152684983Y-78760976D01*
X152575209Y-78845209D01*
X152571258Y-78850358D01*
X152494924Y-78949837D01*
X152494922Y-78949841D01*
X152490976Y-78954983D01*
X152488495Y-78960973D01*
X152488492Y-78960978D01*
X152487036Y-78964494D01*
X152465577Y-78996610D01*
X150591972Y-80870214D01*
X150580369Y-80880150D01*
X150559741Y-80895220D01*
X150555444Y-80900810D01*
X150555443Y-80900811D01*
X150551327Y-80906166D01*
X150535643Y-80922357D01*
X150490830Y-80959134D01*
X150474695Y-80969915D01*
X150405535Y-81006882D01*
X150387607Y-81014308D01*
X150366166Y-81020812D01*
X150312562Y-81037072D01*
X150293530Y-81040858D01*
X150286574Y-81041543D01*
X150242182Y-81045915D01*
X150225988Y-81045460D01*
X150225987Y-81045563D01*
X150218937Y-81045477D01*
X150211964Y-81044391D01*
X150204967Y-81045306D01*
X150204966Y-81045306D01*
X150179287Y-81048664D01*
X150166451Y-81049500D01*
X149674575Y-81049500D01*
X149636691Y-81041964D01*
X149627183Y-81038026D01*
X149620754Y-81037180D01*
X149620752Y-81037179D01*
X149496433Y-81020812D01*
X149490000Y-81019965D01*
X149483567Y-81020812D01*
X149359248Y-81037179D01*
X149359246Y-81037180D01*
X149352817Y-81038026D01*
X149288898Y-81064502D01*
X149288893Y-81064504D01*
X149227897Y-81069305D01*
X149175728Y-81037335D01*
X149152313Y-80980807D01*
X149166597Y-80921312D01*
X149185733Y-80898608D01*
X149298705Y-80799534D01*
X149305782Y-80793879D01*
X149319648Y-80783804D01*
X149333825Y-80764291D01*
X149343909Y-80752484D01*
X150188108Y-79908285D01*
X150245188Y-79880136D01*
X150275548Y-79876139D01*
X150300751Y-79872821D01*
X150300752Y-79872821D01*
X150307183Y-79871974D01*
X150435018Y-79819024D01*
X150544791Y-79734791D01*
X150629024Y-79625017D01*
X150631507Y-79619023D01*
X150631509Y-79619019D01*
X150679491Y-79503177D01*
X150681974Y-79497183D01*
X150683581Y-79484982D01*
X150699188Y-79366433D01*
X150700035Y-79360000D01*
X150681974Y-79222817D01*
X150636411Y-79112817D01*
X150631509Y-79100981D01*
X150631507Y-79100977D01*
X150629024Y-79094983D01*
X150544791Y-78985209D01*
X150539642Y-78981258D01*
X150539637Y-78981253D01*
X150477430Y-78933519D01*
X150442775Y-78883095D01*
X150444377Y-78821930D01*
X150481625Y-78773389D01*
X150540291Y-78756012D01*
X150550610Y-78756824D01*
X150574999Y-78760035D01*
X150581432Y-78759188D01*
X150586727Y-78758491D01*
X150605556Y-78756012D01*
X150705751Y-78742821D01*
X150705753Y-78742820D01*
X150712182Y-78741974D01*
X150840017Y-78689024D01*
X150949790Y-78604791D01*
X151034023Y-78495017D01*
X151036506Y-78489023D01*
X151036508Y-78489019D01*
X151070726Y-78406408D01*
X151086973Y-78367183D01*
X151105034Y-78230000D01*
X151086973Y-78092817D01*
X151070726Y-78053592D01*
X151036508Y-77970981D01*
X151036506Y-77970977D01*
X151034023Y-77964983D01*
X150949790Y-77855209D01*
X150944641Y-77851258D01*
X150944638Y-77851255D01*
X150921554Y-77833542D01*
X150886898Y-77783118D01*
X150888499Y-77721953D01*
X150921554Y-77676458D01*
X150944638Y-77658745D01*
X150944641Y-77658742D01*
X150949790Y-77654791D01*
X151034023Y-77545017D01*
X151036506Y-77539023D01*
X151036508Y-77539019D01*
X151084490Y-77423177D01*
X151086973Y-77417183D01*
X151090424Y-77390976D01*
X151104187Y-77286433D01*
X151105034Y-77280000D01*
X151092959Y-77188283D01*
X151087820Y-77149248D01*
X151087819Y-77149246D01*
X151086973Y-77142817D01*
X151061709Y-77081823D01*
X151036508Y-77020981D01*
X151036506Y-77020977D01*
X151034023Y-77014983D01*
X150949790Y-76905209D01*
X150840017Y-76820976D01*
X150712182Y-76768026D01*
X150705753Y-76767180D01*
X150705751Y-76767179D01*
X150581432Y-76750812D01*
X150574999Y-76749965D01*
X150568566Y-76750812D01*
X150444247Y-76767179D01*
X150444245Y-76767180D01*
X150437816Y-76768026D01*
X150422626Y-76774318D01*
X150315980Y-76818491D01*
X150315976Y-76818493D01*
X150309982Y-76820976D01*
X150200208Y-76905209D01*
X150115975Y-77014983D01*
X150113492Y-77020977D01*
X150113490Y-77020981D01*
X150088289Y-77081823D01*
X150063025Y-77142817D01*
X150062179Y-77149246D01*
X150062178Y-77149248D01*
X150057039Y-77188283D01*
X150044964Y-77280000D01*
X150045811Y-77286433D01*
X150059575Y-77390976D01*
X150063025Y-77417183D01*
X150065508Y-77423177D01*
X150113490Y-77539019D01*
X150113492Y-77539023D01*
X150115975Y-77545017D01*
X150200208Y-77654791D01*
X150205357Y-77658742D01*
X150205360Y-77658745D01*
X150228444Y-77676458D01*
X150263100Y-77726882D01*
X150261499Y-77788047D01*
X150228444Y-77833542D01*
X150205360Y-77851255D01*
X150205357Y-77851258D01*
X150200208Y-77855209D01*
X150115975Y-77964983D01*
X150113492Y-77970977D01*
X150113490Y-77970981D01*
X150079272Y-78053592D01*
X150063025Y-78092817D01*
X150044964Y-78230000D01*
X150063025Y-78367183D01*
X150079272Y-78406408D01*
X150113490Y-78489019D01*
X150113492Y-78489023D01*
X150115975Y-78495017D01*
X150200208Y-78604791D01*
X150205357Y-78608742D01*
X150205362Y-78608747D01*
X150267569Y-78656481D01*
X150302224Y-78706905D01*
X150300622Y-78768070D01*
X150263374Y-78816611D01*
X150204708Y-78833988D01*
X150194389Y-78833176D01*
X150170000Y-78829965D01*
X150163567Y-78830812D01*
X150039248Y-78847179D01*
X150039246Y-78847180D01*
X150032817Y-78848026D01*
X149993592Y-78864273D01*
X149910981Y-78898491D01*
X149910977Y-78898493D01*
X149904983Y-78900976D01*
X149795209Y-78985209D01*
X149710976Y-79094983D01*
X149708493Y-79100977D01*
X149708491Y-79100981D01*
X149700925Y-79119248D01*
X149658026Y-79222817D01*
X149657179Y-79229248D01*
X149657179Y-79229249D01*
X149649864Y-79284811D01*
X149621715Y-79341892D01*
X148777516Y-80186091D01*
X148765709Y-80196175D01*
X148746196Y-80210352D01*
X148741613Y-80216660D01*
X148739112Y-80219161D01*
X148724811Y-80234329D01*
X148666416Y-80282252D01*
X148650279Y-80293034D01*
X148563834Y-80339240D01*
X148545906Y-80346667D01*
X148452098Y-80375123D01*
X148433071Y-80378907D01*
X148357891Y-80386312D01*
X148337045Y-80385698D01*
X148333512Y-80385698D01*
X148325815Y-80384479D01*
X148318118Y-80385698D01*
X148301993Y-80388252D01*
X148286506Y-80389471D01*
X145421979Y-80389471D01*
X145406492Y-80388252D01*
X145390368Y-80385698D01*
X145390367Y-80385698D01*
X145382670Y-80384479D01*
X145374970Y-80385699D01*
X145372406Y-80385699D01*
X145369176Y-80386033D01*
X145051397Y-80401644D01*
X145051390Y-80401645D01*
X145048961Y-80401764D01*
X145046542Y-80402123D01*
X145046540Y-80402123D01*
X144946163Y-80417013D01*
X144718466Y-80450788D01*
X144394367Y-80531971D01*
X144392077Y-80532791D01*
X144392075Y-80532791D01*
X144082074Y-80643710D01*
X144082068Y-80643713D01*
X144079786Y-80644529D01*
X144077591Y-80645567D01*
X144077589Y-80645568D01*
X143996002Y-80684156D01*
X143844627Y-80755752D01*
X143833425Y-80761050D01*
X143772738Y-80768838D01*
X143719063Y-80739467D01*
X143692902Y-80684156D01*
X143695064Y-80647500D01*
X143716837Y-80560579D01*
X143764182Y-80371564D01*
X143813206Y-80041068D01*
X143815033Y-80003892D01*
X143828937Y-79720862D01*
X143829273Y-79717613D01*
X143829273Y-79715054D01*
X143830492Y-79707359D01*
X143826719Y-79683536D01*
X143825500Y-79668050D01*
X143825500Y-77253524D01*
X143826719Y-77238037D01*
X143829273Y-77221912D01*
X143829273Y-77221910D01*
X143830492Y-77214215D01*
X143827811Y-77197292D01*
X143826805Y-77188283D01*
X143816710Y-77034249D01*
X143816709Y-77034242D01*
X143816498Y-77031021D01*
X143780682Y-76850960D01*
X143721670Y-76677116D01*
X143646691Y-76525073D01*
X143641907Y-76515372D01*
X143641904Y-76515367D01*
X143640471Y-76512461D01*
X143538476Y-76359814D01*
X143516730Y-76335017D01*
X143434563Y-76241323D01*
X143428904Y-76234241D01*
X143423416Y-76226688D01*
X143418833Y-76220380D01*
X143399317Y-76206201D01*
X143387503Y-76196111D01*
X143298882Y-76107489D01*
X143288794Y-76095677D01*
X143279199Y-76082471D01*
X143274619Y-76076167D01*
X143260739Y-76066082D01*
X143253680Y-76060443D01*
X143135185Y-75956525D01*
X142982538Y-75854530D01*
X142979632Y-75853097D01*
X142979627Y-75853094D01*
X142857618Y-75792926D01*
X142817884Y-75773331D01*
X142644039Y-75714319D01*
X142463980Y-75678503D01*
X142460756Y-75678292D01*
X142460751Y-75678291D01*
X142306722Y-75668195D01*
X142297717Y-75667189D01*
X142280786Y-75664508D01*
X142273089Y-75665727D01*
X142256964Y-75668281D01*
X142241477Y-75669500D01*
X141974894Y-75669500D01*
X141914626Y-75649042D01*
X141870167Y-75614927D01*
X141865018Y-75610976D01*
X141737183Y-75558026D01*
X141730754Y-75557180D01*
X141730752Y-75557179D01*
X141606433Y-75540812D01*
X141600000Y-75539965D01*
X141593567Y-75540812D01*
X141469248Y-75557179D01*
X141469246Y-75557180D01*
X141462817Y-75558026D01*
X141423592Y-75574273D01*
X141340981Y-75608491D01*
X141340977Y-75608493D01*
X141334983Y-75610976D01*
X141225209Y-75695209D01*
X141140976Y-75804983D01*
X141138493Y-75810977D01*
X141138491Y-75810981D01*
X141121048Y-75853094D01*
X141088026Y-75932817D01*
X141087180Y-75939246D01*
X141087179Y-75939248D01*
X141082871Y-75971974D01*
X141069965Y-76070000D01*
X141088026Y-76207183D01*
X141100753Y-76237910D01*
X141138491Y-76329019D01*
X141138493Y-76329023D01*
X141140976Y-76335017D01*
X141225209Y-76444791D01*
X141230358Y-76448742D01*
X141252527Y-76465753D01*
X141287182Y-76516178D01*
X141285580Y-76577342D01*
X141248333Y-76625884D01*
X141205183Y-76642448D01*
X141193915Y-76643932D01*
X141162817Y-76648026D01*
X141147907Y-76654202D01*
X141040981Y-76698491D01*
X141040977Y-76698493D01*
X141034983Y-76700976D01*
X140925209Y-76785209D01*
X140840976Y-76894983D01*
X140838493Y-76900977D01*
X140838491Y-76900981D01*
X140816185Y-76954834D01*
X140788026Y-77022817D01*
X140787180Y-77029246D01*
X140787179Y-77029248D01*
X140776948Y-77106961D01*
X140769965Y-77160000D01*
X140770812Y-77166433D01*
X140786611Y-77286433D01*
X140788026Y-77297183D01*
X140790509Y-77303177D01*
X140838491Y-77419019D01*
X140838493Y-77419023D01*
X140840976Y-77425017D01*
X140925209Y-77534791D01*
X141034982Y-77619024D01*
X141162817Y-77671974D01*
X141169246Y-77672820D01*
X141169248Y-77672821D01*
X141293567Y-77689188D01*
X141300000Y-77690035D01*
X141306433Y-77689188D01*
X141430752Y-77672821D01*
X141430754Y-77672820D01*
X141437183Y-77671974D01*
X141565018Y-77619024D01*
X141674791Y-77534791D01*
X141759024Y-77425017D01*
X141761507Y-77419023D01*
X141761509Y-77419019D01*
X141809491Y-77303177D01*
X141811974Y-77297183D01*
X141813390Y-77286433D01*
X141829188Y-77166433D01*
X141830035Y-77160000D01*
X141823052Y-77106961D01*
X141812821Y-77029248D01*
X141812820Y-77029246D01*
X141811974Y-77022817D01*
X141783815Y-76954834D01*
X141761509Y-76900981D01*
X141761507Y-76900977D01*
X141759024Y-76894983D01*
X141674791Y-76785209D01*
X141647473Y-76764247D01*
X141612818Y-76713822D01*
X141614420Y-76652658D01*
X141651667Y-76604116D01*
X141694817Y-76587552D01*
X141706085Y-76586068D01*
X141737183Y-76581974D01*
X141865018Y-76529024D01*
X141914626Y-76490958D01*
X141974894Y-76470500D01*
X142241477Y-76470500D01*
X142256963Y-76471719D01*
X142280786Y-76475492D01*
X142288483Y-76474273D01*
X142292048Y-76474273D01*
X142312857Y-76473660D01*
X142326589Y-76475012D01*
X142388040Y-76481064D01*
X142407069Y-76484849D01*
X142500875Y-76513305D01*
X142518802Y-76520731D01*
X142605251Y-76566939D01*
X142621387Y-76577720D01*
X142653742Y-76604273D01*
X142679785Y-76625646D01*
X142694043Y-76640770D01*
X142696584Y-76643311D01*
X142701167Y-76649619D01*
X142707475Y-76654202D01*
X142720677Y-76663794D01*
X142732489Y-76673882D01*
X142821112Y-76762504D01*
X142831202Y-76774318D01*
X142845381Y-76793834D01*
X142851689Y-76798417D01*
X142854190Y-76800918D01*
X142869358Y-76815219D01*
X142917282Y-76873614D01*
X142928064Y-76889751D01*
X142974269Y-76976195D01*
X142981696Y-76994123D01*
X143010152Y-77087931D01*
X143013937Y-77106959D01*
X143017469Y-77142817D01*
X143021341Y-77182135D01*
X143020727Y-77202983D01*
X143020727Y-77206516D01*
X143019508Y-77214213D01*
X143020727Y-77221910D01*
X143023281Y-77238035D01*
X143024500Y-77253522D01*
X143024500Y-79668050D01*
X143023281Y-79683536D01*
X143019508Y-79707359D01*
X143020727Y-79715054D01*
X143021536Y-79720161D01*
X143022599Y-79741200D01*
X143013216Y-79908285D01*
X143008466Y-79992860D01*
X143007223Y-80003888D01*
X142988259Y-80115509D01*
X142960257Y-80280316D01*
X142957787Y-80291140D01*
X142888169Y-80532791D01*
X142880163Y-80560579D01*
X142876497Y-80571054D01*
X142784203Y-80793874D01*
X142769195Y-80830106D01*
X142764381Y-80840102D01*
X142637705Y-81069305D01*
X142628749Y-81085510D01*
X142622842Y-81094911D01*
X142460584Y-81323591D01*
X142453670Y-81332262D01*
X142306582Y-81496851D01*
X142253711Y-81527641D01*
X142192838Y-81521473D01*
X142147215Y-81480702D01*
X142141302Y-81468768D01*
X142129133Y-81439389D01*
X142119024Y-81414983D01*
X142034791Y-81305209D01*
X141925018Y-81220976D01*
X141797183Y-81168026D01*
X141790754Y-81167180D01*
X141790752Y-81167179D01*
X141666433Y-81150812D01*
X141660000Y-81149965D01*
X141653567Y-81150812D01*
X141529248Y-81167179D01*
X141529246Y-81167180D01*
X141522817Y-81168026D01*
X141505476Y-81175209D01*
X141400981Y-81218491D01*
X141400977Y-81218493D01*
X141394983Y-81220976D01*
X141285209Y-81305209D01*
X141200976Y-81414983D01*
X141198493Y-81420977D01*
X141198491Y-81420981D01*
X141173524Y-81481258D01*
X141148026Y-81542817D01*
X141147180Y-81549246D01*
X141147179Y-81549248D01*
X141136273Y-81632089D01*
X141129965Y-81680000D01*
X141130812Y-81686433D01*
X141144895Y-81793399D01*
X141148026Y-81817183D01*
X141150509Y-81823177D01*
X141198491Y-81939019D01*
X141198493Y-81939023D01*
X141200976Y-81945017D01*
X141285209Y-82054791D01*
X141394982Y-82139024D01*
X141400977Y-82141507D01*
X141400982Y-82141510D01*
X141407238Y-82144101D01*
X141453763Y-82183838D01*
X141468046Y-82243333D01*
X141444630Y-82299861D01*
X141426640Y-82316304D01*
X141339911Y-82377842D01*
X141330511Y-82383748D01*
X141085102Y-82519381D01*
X141075112Y-82524192D01*
X140816054Y-82631497D01*
X140805583Y-82635161D01*
X140660974Y-82676823D01*
X140536140Y-82712787D01*
X140525316Y-82715257D01*
X140489285Y-82721379D01*
X140248887Y-82762225D01*
X140237865Y-82763466D01*
X140070871Y-82772844D01*
X139986202Y-82777599D01*
X139965166Y-82776536D01*
X139960057Y-82775727D01*
X139960056Y-82775727D01*
X139952359Y-82774508D01*
X139929093Y-82778193D01*
X139928537Y-82778281D01*
X139913050Y-82779500D01*
X136553522Y-82779500D01*
X136538035Y-82778281D01*
X136537480Y-82778193D01*
X136514213Y-82774508D01*
X136506516Y-82775727D01*
X136502951Y-82775727D01*
X136482142Y-82776340D01*
X136475918Y-82775727D01*
X136471372Y-82775279D01*
X136406960Y-82768936D01*
X136387931Y-82765151D01*
X136294123Y-82736695D01*
X136276195Y-82729268D01*
X136189751Y-82683063D01*
X136173614Y-82672281D01*
X136115219Y-82624358D01*
X136100938Y-82609209D01*
X136098414Y-82606684D01*
X136093834Y-82600381D01*
X136087532Y-82595802D01*
X136082021Y-82590291D01*
X136082133Y-82590180D01*
X136072665Y-82580712D01*
X136072553Y-82580824D01*
X136067041Y-82575312D01*
X136062461Y-82569009D01*
X136056156Y-82564428D01*
X136050649Y-82558922D01*
X136051057Y-82558514D01*
X136039628Y-82547381D01*
X136035163Y-82541562D01*
X136022241Y-82519180D01*
X136012286Y-82495146D01*
X136005597Y-82470183D01*
X136004640Y-82462914D01*
X136004848Y-82446960D01*
X136004273Y-82446960D01*
X136004273Y-82439169D01*
X136005492Y-82431473D01*
X136001719Y-82407650D01*
X136000500Y-82392164D01*
X136000500Y-82328523D01*
X136001719Y-82313036D01*
X136004273Y-82296911D01*
X136005492Y-82289214D01*
X136002811Y-82272283D01*
X136001805Y-82263278D01*
X135991709Y-82109249D01*
X135991708Y-82109244D01*
X135991497Y-82106020D01*
X135960496Y-81950166D01*
X135956314Y-81929143D01*
X135956314Y-81929142D01*
X135955681Y-81925961D01*
X135896669Y-81752116D01*
X135875680Y-81709555D01*
X136394964Y-81709555D01*
X136395811Y-81715988D01*
X136408849Y-81815017D01*
X136413025Y-81846738D01*
X136418501Y-81859958D01*
X136463490Y-81968574D01*
X136463492Y-81968578D01*
X136465975Y-81974572D01*
X136550208Y-82084346D01*
X136659981Y-82168579D01*
X136787816Y-82221529D01*
X136794245Y-82222375D01*
X136794247Y-82222376D01*
X136918566Y-82238743D01*
X136924999Y-82239590D01*
X136931432Y-82238743D01*
X137055751Y-82222376D01*
X137055753Y-82222375D01*
X137062182Y-82221529D01*
X137187115Y-82169781D01*
X137248110Y-82164980D01*
X137262879Y-82169779D01*
X137387816Y-82221529D01*
X137394245Y-82222375D01*
X137394247Y-82222376D01*
X137518566Y-82238743D01*
X137524999Y-82239590D01*
X137531432Y-82238743D01*
X137655751Y-82222376D01*
X137655753Y-82222375D01*
X137662182Y-82221529D01*
X137790017Y-82168579D01*
X137899790Y-82084346D01*
X137984023Y-81974572D01*
X137986506Y-81968578D01*
X137986508Y-81968574D01*
X138031497Y-81859958D01*
X138036973Y-81846738D01*
X138041150Y-81815017D01*
X138054187Y-81715988D01*
X138055034Y-81709555D01*
X138046168Y-81642213D01*
X138037820Y-81578803D01*
X138037819Y-81578801D01*
X138036973Y-81572372D01*
X138003002Y-81490358D01*
X137986508Y-81450536D01*
X137986506Y-81450532D01*
X137984023Y-81444538D01*
X137899790Y-81334764D01*
X137790017Y-81250531D01*
X137662182Y-81197581D01*
X137655753Y-81196735D01*
X137655751Y-81196734D01*
X137541413Y-81181681D01*
X137524999Y-81179520D01*
X137508585Y-81181681D01*
X137394247Y-81196734D01*
X137394245Y-81196735D01*
X137387816Y-81197581D01*
X137321195Y-81225176D01*
X137262884Y-81249329D01*
X137201888Y-81254130D01*
X137187119Y-81249331D01*
X137062182Y-81197581D01*
X137055753Y-81196735D01*
X137055751Y-81196734D01*
X136941413Y-81181681D01*
X136924999Y-81179520D01*
X136908585Y-81181681D01*
X136794247Y-81196734D01*
X136794245Y-81196735D01*
X136787816Y-81197581D01*
X136750386Y-81213085D01*
X136665980Y-81248046D01*
X136665976Y-81248048D01*
X136659982Y-81250531D01*
X136550208Y-81334764D01*
X136465975Y-81444538D01*
X136463492Y-81450532D01*
X136463490Y-81450536D01*
X136446996Y-81490358D01*
X136413025Y-81572372D01*
X136412179Y-81578801D01*
X136412178Y-81578803D01*
X136403830Y-81642213D01*
X136394964Y-81709555D01*
X135875680Y-81709555D01*
X135855429Y-81668491D01*
X135816906Y-81590373D01*
X135816903Y-81590368D01*
X135815470Y-81587462D01*
X135808748Y-81577401D01*
X135775499Y-81527641D01*
X135713475Y-81434815D01*
X135609557Y-81316320D01*
X135603918Y-81309261D01*
X135593833Y-81295381D01*
X135574323Y-81281206D01*
X135562510Y-81271118D01*
X133541392Y-79250000D01*
X140774964Y-79250000D01*
X140775811Y-79256433D01*
X140787474Y-79345017D01*
X140793025Y-79387183D01*
X140795508Y-79393177D01*
X140843490Y-79509019D01*
X140843492Y-79509023D01*
X140845975Y-79515017D01*
X140930208Y-79624791D01*
X141039981Y-79709024D01*
X141167816Y-79761974D01*
X141174245Y-79762820D01*
X141174247Y-79762821D01*
X141298566Y-79779188D01*
X141304999Y-79780035D01*
X141311432Y-79779188D01*
X141435751Y-79762821D01*
X141435753Y-79762820D01*
X141442182Y-79761974D01*
X141570017Y-79709024D01*
X141679790Y-79624791D01*
X141764023Y-79515017D01*
X141766506Y-79509023D01*
X141766508Y-79509019D01*
X141814490Y-79393177D01*
X141816973Y-79387183D01*
X141822525Y-79345017D01*
X141834187Y-79256433D01*
X141835034Y-79250000D01*
X141816973Y-79112817D01*
X141800715Y-79073567D01*
X141766508Y-78990981D01*
X141766506Y-78990977D01*
X141764023Y-78984983D01*
X141679790Y-78875209D01*
X141570017Y-78790976D01*
X141442182Y-78738026D01*
X141435753Y-78737180D01*
X141435751Y-78737179D01*
X141311432Y-78720812D01*
X141304999Y-78719965D01*
X141298566Y-78720812D01*
X141174247Y-78737179D01*
X141174245Y-78737180D01*
X141167816Y-78738026D01*
X141158285Y-78741974D01*
X141045980Y-78788491D01*
X141045976Y-78788493D01*
X141039982Y-78790976D01*
X140930208Y-78875209D01*
X140845975Y-78984983D01*
X140843492Y-78990977D01*
X140843490Y-78990981D01*
X140809283Y-79073567D01*
X140793025Y-79112817D01*
X140774964Y-79250000D01*
X133541392Y-79250000D01*
X130539670Y-76248277D01*
X130529582Y-76236464D01*
X130519990Y-76223262D01*
X130519986Y-76223258D01*
X130515406Y-76216954D01*
X130509100Y-76212372D01*
X130507287Y-76210559D01*
X130504763Y-76208508D01*
X130269022Y-75994846D01*
X130267215Y-75993208D01*
X130235236Y-75969491D01*
X130000807Y-75795626D01*
X130000801Y-75795622D01*
X129998854Y-75794178D01*
X129892056Y-75730166D01*
X129714368Y-75623664D01*
X129714363Y-75623662D01*
X129712277Y-75622411D01*
X129556518Y-75548742D01*
X129412441Y-75480598D01*
X129412439Y-75480597D01*
X129410244Y-75479559D01*
X129407962Y-75478742D01*
X129407956Y-75478740D01*
X129097955Y-75367820D01*
X129097953Y-75367819D01*
X129095663Y-75367000D01*
X128771564Y-75285818D01*
X128441069Y-75236793D01*
X128438644Y-75236674D01*
X128438635Y-75236673D01*
X128120853Y-75221062D01*
X128117623Y-75220728D01*
X128115059Y-75220728D01*
X128107359Y-75219508D01*
X128099662Y-75220727D01*
X128099661Y-75220727D01*
X128090431Y-75222189D01*
X128084194Y-75223177D01*
X128083537Y-75223281D01*
X128068050Y-75224500D01*
X121353524Y-75224500D01*
X121338037Y-75223281D01*
X121337381Y-75223177D01*
X121314215Y-75219508D01*
X121297284Y-75222189D01*
X121288279Y-75223195D01*
X121134250Y-75233291D01*
X121134245Y-75233292D01*
X121131021Y-75233503D01*
X120950961Y-75269319D01*
X120777116Y-75328331D01*
X120774213Y-75329763D01*
X120774212Y-75329763D01*
X120615368Y-75408095D01*
X120615363Y-75408098D01*
X120612461Y-75409529D01*
X120459814Y-75511525D01*
X120341323Y-75615439D01*
X120334255Y-75621087D01*
X120320380Y-75631167D01*
X120315800Y-75637471D01*
X120315799Y-75637472D01*
X120306200Y-75650684D01*
X120296111Y-75662497D01*
X119281892Y-76676715D01*
X119224812Y-76704864D01*
X119194452Y-76708861D01*
X119169249Y-76712179D01*
X119169248Y-76712179D01*
X119162817Y-76713026D01*
X119156823Y-76715509D01*
X119156822Y-76715509D01*
X119040981Y-76763491D01*
X119040977Y-76763493D01*
X119034983Y-76765976D01*
X118925209Y-76850209D01*
X118840976Y-76959983D01*
X118838493Y-76965977D01*
X118838491Y-76965981D01*
X118812865Y-77027850D01*
X118788026Y-77087817D01*
X118787180Y-77094246D01*
X118787179Y-77094248D01*
X118778523Y-77160000D01*
X118769965Y-77225000D01*
X118772695Y-77245734D01*
X118784846Y-77338026D01*
X118788026Y-77362183D01*
X118799411Y-77389670D01*
X118838491Y-77484019D01*
X118838493Y-77484023D01*
X118840976Y-77490017D01*
X118925209Y-77599791D01*
X119034982Y-77684024D01*
X119162817Y-77736974D01*
X119169246Y-77737820D01*
X119169248Y-77737821D01*
X119293567Y-77754188D01*
X119300000Y-77755035D01*
X119306433Y-77754188D01*
X119430752Y-77737821D01*
X119430754Y-77737820D01*
X119437183Y-77736974D01*
X119565018Y-77684024D01*
X119674791Y-77599791D01*
X119759024Y-77490017D01*
X119761507Y-77484023D01*
X119761509Y-77484019D01*
X119809491Y-77368178D01*
X119809491Y-77368177D01*
X119811974Y-77362183D01*
X119820136Y-77300188D01*
X119848285Y-77243108D01*
X120245135Y-76846258D01*
X120668050Y-76423342D01*
X120722567Y-76395565D01*
X120782999Y-76405136D01*
X120826264Y-76448401D01*
X120829511Y-76455446D01*
X120833476Y-76465017D01*
X120917709Y-76574791D01*
X121027482Y-76659024D01*
X121155317Y-76711974D01*
X121161746Y-76712820D01*
X121161748Y-76712821D01*
X121286067Y-76729188D01*
X121292500Y-76730035D01*
X121298933Y-76729188D01*
X121423252Y-76712821D01*
X121423254Y-76712820D01*
X121429683Y-76711974D01*
X121557518Y-76659024D01*
X121607126Y-76620958D01*
X121667394Y-76600500D01*
X128043050Y-76600500D01*
X128058536Y-76601719D01*
X128082359Y-76605492D01*
X128090056Y-76604273D01*
X128090057Y-76604273D01*
X128095166Y-76603464D01*
X128116202Y-76602401D01*
X128171246Y-76605492D01*
X128367865Y-76616534D01*
X128378887Y-76617775D01*
X128514223Y-76640770D01*
X128655316Y-76664743D01*
X128666140Y-76667213D01*
X128757127Y-76693426D01*
X128935583Y-76744839D01*
X128946054Y-76748503D01*
X129205112Y-76855808D01*
X129215102Y-76860619D01*
X129424221Y-76976195D01*
X129460510Y-76996251D01*
X129469910Y-77002158D01*
X129668151Y-77142817D01*
X129698586Y-77164412D01*
X129707262Y-77171331D01*
X129873584Y-77319965D01*
X129895209Y-77339290D01*
X129909333Y-77354917D01*
X129916954Y-77365406D01*
X129923258Y-77369986D01*
X129923262Y-77369990D01*
X129936464Y-77379582D01*
X129948277Y-77389670D01*
X131070420Y-78511813D01*
X131098197Y-78566330D01*
X131088626Y-78626762D01*
X131045361Y-78670027D01*
X131000416Y-78680817D01*
X130776609Y-78680817D01*
X130716343Y-78660360D01*
X130665018Y-78620976D01*
X130659026Y-78618494D01*
X130659024Y-78618493D01*
X130601101Y-78594501D01*
X130537183Y-78568026D01*
X130530754Y-78567180D01*
X130530752Y-78567179D01*
X130406433Y-78550812D01*
X130400000Y-78549965D01*
X130393567Y-78550812D01*
X130269248Y-78567179D01*
X130269246Y-78567180D01*
X130262817Y-78568026D01*
X130223592Y-78584273D01*
X130140981Y-78618491D01*
X130140977Y-78618493D01*
X130134983Y-78620976D01*
X130025209Y-78705209D01*
X129940976Y-78814983D01*
X129938493Y-78820977D01*
X129938491Y-78820981D01*
X129917666Y-78871258D01*
X129888026Y-78942817D01*
X129887180Y-78949246D01*
X129887179Y-78949248D01*
X129882445Y-78985209D01*
X129869965Y-79080000D01*
X129888026Y-79217183D01*
X129901619Y-79250000D01*
X129938491Y-79339019D01*
X129938493Y-79339023D01*
X129940976Y-79345017D01*
X130025209Y-79454791D01*
X130134982Y-79539024D01*
X130262817Y-79591974D01*
X130269246Y-79592820D01*
X130269248Y-79592821D01*
X130393567Y-79609188D01*
X130400000Y-79610035D01*
X130406433Y-79609188D01*
X130530752Y-79592821D01*
X130530754Y-79592820D01*
X130537183Y-79591974D01*
X130665018Y-79539024D01*
X130712910Y-79502275D01*
X130773178Y-79481817D01*
X131347040Y-79481817D01*
X131356901Y-79482364D01*
X131364043Y-79484324D01*
X131371823Y-79483963D01*
X131379571Y-79484825D01*
X131379554Y-79484982D01*
X131395759Y-79486413D01*
X131422824Y-79492536D01*
X131443674Y-79499776D01*
X131487515Y-79520732D01*
X131506247Y-79532414D01*
X131528014Y-79549636D01*
X131539300Y-79561344D01*
X131539412Y-79561231D01*
X131544945Y-79566715D01*
X131549553Y-79573000D01*
X131555878Y-79577553D01*
X131568231Y-79586446D01*
X131580395Y-79596788D01*
X132217937Y-80234329D01*
X132660090Y-80676482D01*
X132687867Y-80730999D01*
X132678296Y-80791431D01*
X132635031Y-80834696D01*
X132577678Y-80844705D01*
X132457318Y-80829500D01*
X132142682Y-80829500D01*
X131938721Y-80855266D01*
X131833612Y-80868544D01*
X131833608Y-80868545D01*
X131830527Y-80868934D01*
X131827521Y-80869706D01*
X131827520Y-80869706D01*
X131528784Y-80946408D01*
X131528778Y-80946410D01*
X131525775Y-80947181D01*
X131522888Y-80948324D01*
X131522885Y-80948325D01*
X131440845Y-80980807D01*
X131233234Y-81063006D01*
X131230518Y-81064499D01*
X131230512Y-81064502D01*
X131084799Y-81144609D01*
X130957516Y-81214584D01*
X130702970Y-81399522D01*
X130542728Y-81550000D01*
X130488439Y-81600981D01*
X130473610Y-81614906D01*
X130400631Y-81703122D01*
X130276172Y-81853567D01*
X130273053Y-81857337D01*
X130104463Y-82122993D01*
X130103146Y-82125793D01*
X130103141Y-82125801D01*
X129993645Y-82358492D01*
X129970497Y-82407685D01*
X129965269Y-82423776D01*
X129874227Y-82703971D01*
X129874225Y-82703979D01*
X129873269Y-82706921D01*
X129814312Y-83015985D01*
X129814117Y-83019088D01*
X129814116Y-83019094D01*
X129799542Y-83250752D01*
X129794556Y-83330000D01*
X129794751Y-83333099D01*
X129812754Y-83619248D01*
X129814312Y-83644015D01*
X129873269Y-83953079D01*
X129874225Y-83956021D01*
X129874227Y-83956029D01*
X129942270Y-84165442D01*
X129970497Y-84252315D01*
X129971824Y-84255135D01*
X130103141Y-84534199D01*
X130103146Y-84534207D01*
X130104463Y-84537007D01*
X130273053Y-84802663D01*
X130275029Y-84805052D01*
X130275033Y-84805057D01*
X130336410Y-84879248D01*
X130473610Y-85045094D01*
X130702970Y-85260478D01*
X130957516Y-85445416D01*
X131029382Y-85484925D01*
X131230512Y-85595498D01*
X131230518Y-85595501D01*
X131233234Y-85596994D01*
X131236122Y-85598137D01*
X131236121Y-85598137D01*
X131522885Y-85711675D01*
X131522888Y-85711676D01*
X131525775Y-85712819D01*
X131528778Y-85713590D01*
X131528784Y-85713592D01*
X131824408Y-85789495D01*
X131830527Y-85791066D01*
X131833608Y-85791455D01*
X131833612Y-85791456D01*
X131938721Y-85804734D01*
X132142682Y-85830500D01*
X132457318Y-85830500D01*
X132661279Y-85804734D01*
X132766388Y-85791456D01*
X132766392Y-85791455D01*
X132769473Y-85791066D01*
X132775592Y-85789495D01*
X133071216Y-85713592D01*
X133071222Y-85713590D01*
X133074225Y-85712819D01*
X133077112Y-85711676D01*
X133077115Y-85711675D01*
X133363879Y-85598137D01*
X133363878Y-85598137D01*
X133366766Y-85596994D01*
X133369482Y-85595501D01*
X133369488Y-85595498D01*
X133570618Y-85484925D01*
X133642484Y-85445416D01*
X133897030Y-85260478D01*
X134126390Y-85045094D01*
X134263590Y-84879248D01*
X134324967Y-84805057D01*
X134324971Y-84805052D01*
X134326947Y-84802663D01*
X134495537Y-84537007D01*
X134496854Y-84534207D01*
X134496859Y-84534199D01*
X134628176Y-84255135D01*
X134629503Y-84252315D01*
X134657730Y-84165442D01*
X134725773Y-83956029D01*
X134725775Y-83956021D01*
X134726731Y-83953079D01*
X134739742Y-83884873D01*
X134750962Y-83826058D01*
X134780438Y-83772441D01*
X134835800Y-83746390D01*
X134895902Y-83757855D01*
X134918212Y-83774605D01*
X135126117Y-83982510D01*
X135136206Y-83994324D01*
X135145800Y-84007530D01*
X135145802Y-84007532D01*
X135150380Y-84013833D01*
X135162433Y-84022590D01*
X135164254Y-84023913D01*
X135171323Y-84029561D01*
X135289814Y-84133475D01*
X135442461Y-84235471D01*
X135445363Y-84236902D01*
X135445368Y-84236905D01*
X135590413Y-84308432D01*
X135607116Y-84316669D01*
X135780961Y-84375681D01*
X135961021Y-84411497D01*
X135964245Y-84411708D01*
X135964250Y-84411709D01*
X136118279Y-84421805D01*
X136127284Y-84422811D01*
X136144215Y-84425492D01*
X136168038Y-84421719D01*
X136183524Y-84420500D01*
X140273050Y-84420500D01*
X140288537Y-84421719D01*
X140304661Y-84424273D01*
X140304662Y-84424273D01*
X140312359Y-84425492D01*
X140320059Y-84424272D01*
X140322623Y-84424272D01*
X140325853Y-84423938D01*
X140643632Y-84408327D01*
X140643639Y-84408326D01*
X140646068Y-84408207D01*
X140648487Y-84407848D01*
X140648489Y-84407848D01*
X140769148Y-84389950D01*
X140976564Y-84359183D01*
X141300663Y-84278001D01*
X141303908Y-84276840D01*
X141612956Y-84166261D01*
X141612962Y-84166259D01*
X141615244Y-84165442D01*
X141628698Y-84159079D01*
X141915077Y-84023631D01*
X141917278Y-84022590D01*
X141919364Y-84021339D01*
X141919369Y-84021337D01*
X142171261Y-83870358D01*
X142203855Y-83850822D01*
X142205802Y-83849378D01*
X142205808Y-83849374D01*
X142470265Y-83653239D01*
X142470266Y-83653239D01*
X142472216Y-83651792D01*
X142474009Y-83650167D01*
X142474015Y-83650162D01*
X142709766Y-83436488D01*
X142712288Y-83434439D01*
X142714100Y-83432627D01*
X142720406Y-83428046D01*
X142724984Y-83421745D01*
X142724989Y-83421740D01*
X142734582Y-83408536D01*
X142744670Y-83396723D01*
X143401808Y-82739585D01*
X143456325Y-82711808D01*
X143516757Y-82721379D01*
X143560022Y-82764644D01*
X143570812Y-82809589D01*
X143570812Y-82813567D01*
X143569965Y-82820000D01*
X143570812Y-82826433D01*
X143583230Y-82920752D01*
X143588026Y-82957183D01*
X143596161Y-82976823D01*
X143638491Y-83079019D01*
X143638493Y-83079023D01*
X143640976Y-83085017D01*
X143725209Y-83194791D01*
X143834982Y-83279024D01*
X143962817Y-83331974D01*
X143969246Y-83332820D01*
X143969248Y-83332821D01*
X144093567Y-83349188D01*
X144100000Y-83350035D01*
X144106433Y-83349188D01*
X144230752Y-83332821D01*
X144230754Y-83332820D01*
X144237183Y-83331974D01*
X144365018Y-83279024D01*
X144474791Y-83194791D01*
X144559024Y-83085017D01*
X144561507Y-83079023D01*
X144561509Y-83079019D01*
X144603839Y-82976823D01*
X144611974Y-82957183D01*
X144616771Y-82920752D01*
X144627402Y-82840000D01*
X144829965Y-82840000D01*
X144830812Y-82846433D01*
X144841819Y-82930035D01*
X144848026Y-82977183D01*
X144862828Y-83012919D01*
X144898491Y-83099019D01*
X144898493Y-83099023D01*
X144900976Y-83105017D01*
X144985209Y-83214791D01*
X145094982Y-83299024D01*
X145222817Y-83351974D01*
X145229246Y-83352820D01*
X145229248Y-83352821D01*
X145353567Y-83369188D01*
X145360000Y-83370035D01*
X145366433Y-83369188D01*
X145490752Y-83352821D01*
X145490754Y-83352820D01*
X145497183Y-83351974D01*
X145625018Y-83299024D01*
X145734791Y-83214791D01*
X145819024Y-83105017D01*
X145821507Y-83099023D01*
X145821509Y-83099019D01*
X145857172Y-83012919D01*
X145871974Y-82977183D01*
X145878182Y-82930035D01*
X145889188Y-82846433D01*
X145890035Y-82840000D01*
X145880679Y-82768936D01*
X145872821Y-82709248D01*
X145872820Y-82709246D01*
X145871974Y-82702817D01*
X145853927Y-82659248D01*
X145821509Y-82580981D01*
X145821507Y-82580977D01*
X145819024Y-82574983D01*
X145768195Y-82508742D01*
X145738742Y-82470358D01*
X145734791Y-82465209D01*
X145625018Y-82380976D01*
X145497183Y-82328026D01*
X145490754Y-82327180D01*
X145490752Y-82327179D01*
X145366433Y-82310812D01*
X145360000Y-82309965D01*
X145353567Y-82310812D01*
X145229248Y-82327179D01*
X145229246Y-82327180D01*
X145222817Y-82328026D01*
X145192931Y-82340405D01*
X145100981Y-82378491D01*
X145100977Y-82378493D01*
X145094983Y-82380976D01*
X144985209Y-82465209D01*
X144981258Y-82470358D01*
X144951805Y-82508742D01*
X144900976Y-82574983D01*
X144898493Y-82580977D01*
X144898491Y-82580981D01*
X144866073Y-82659248D01*
X144848026Y-82702817D01*
X144847180Y-82709246D01*
X144847179Y-82709248D01*
X144839321Y-82768936D01*
X144829965Y-82840000D01*
X144627402Y-82840000D01*
X144629188Y-82826433D01*
X144630035Y-82820000D01*
X144626085Y-82790000D01*
X144612821Y-82689248D01*
X144612820Y-82689246D01*
X144611974Y-82682817D01*
X144584421Y-82616298D01*
X144561509Y-82560981D01*
X144561507Y-82560977D01*
X144559024Y-82554983D01*
X144474791Y-82445209D01*
X144365018Y-82360976D01*
X144237183Y-82308026D01*
X144230754Y-82307180D01*
X144230752Y-82307179D01*
X144168150Y-82298937D01*
X144109043Y-82291156D01*
X144053819Y-82264815D01*
X144024624Y-82211044D01*
X144032610Y-82150382D01*
X144064677Y-82112263D01*
X144255090Y-81977157D01*
X144264491Y-81971250D01*
X144294362Y-81954741D01*
X144509898Y-81835618D01*
X144519888Y-81830807D01*
X144778952Y-81723500D01*
X144789417Y-81719838D01*
X144925087Y-81680752D01*
X145058861Y-81642213D01*
X145069684Y-81639743D01*
X145182886Y-81620509D01*
X145346113Y-81592775D01*
X145357135Y-81591534D01*
X145524129Y-81582156D01*
X145608798Y-81577401D01*
X145629834Y-81578464D01*
X145634943Y-81579273D01*
X145634944Y-81579273D01*
X145642641Y-81580492D01*
X145654013Y-81578691D01*
X145664935Y-81576961D01*
X145666464Y-81576719D01*
X145681950Y-81575500D01*
X146357264Y-81575500D01*
X146372750Y-81576719D01*
X146374279Y-81576961D01*
X146385202Y-81578691D01*
X146396573Y-81580492D01*
X146407946Y-81578691D01*
X146429900Y-81577684D01*
X146598880Y-81588760D01*
X146611705Y-81590448D01*
X146762830Y-81620509D01*
X146804194Y-81628737D01*
X146816703Y-81632089D01*
X146976795Y-81686433D01*
X147002530Y-81695169D01*
X147014494Y-81700124D01*
X147061901Y-81723503D01*
X147190507Y-81786925D01*
X147201712Y-81793394D01*
X147350250Y-81892644D01*
X147388127Y-81940690D01*
X147393399Y-81962035D01*
X147395390Y-81977157D01*
X147398026Y-81997183D01*
X147400509Y-82003177D01*
X147448491Y-82119019D01*
X147448493Y-82119023D01*
X147450976Y-82125017D01*
X147535209Y-82234791D01*
X147644982Y-82319024D01*
X147772817Y-82371974D01*
X147779246Y-82372820D01*
X147779248Y-82372821D01*
X147903567Y-82389188D01*
X147910000Y-82390035D01*
X147916433Y-82389188D01*
X148040752Y-82372821D01*
X148040754Y-82372820D01*
X148047183Y-82371974D01*
X148175018Y-82319024D01*
X148284791Y-82234791D01*
X148369024Y-82125017D01*
X148371507Y-82119023D01*
X148371509Y-82119019D01*
X148419491Y-82003177D01*
X148421974Y-81997183D01*
X148425389Y-81971250D01*
X148439188Y-81866433D01*
X148440035Y-81860000D01*
X148426239Y-81755209D01*
X148422821Y-81729248D01*
X148422820Y-81729246D01*
X148421974Y-81722817D01*
X148387564Y-81639743D01*
X148371509Y-81600981D01*
X148371507Y-81600977D01*
X148369024Y-81594983D01*
X148284791Y-81485209D01*
X148175018Y-81400976D01*
X148126634Y-81380935D01*
X148080108Y-81341199D01*
X148065824Y-81281704D01*
X148089238Y-81225176D01*
X148141407Y-81193207D01*
X148164519Y-81190471D01*
X148286506Y-81190471D01*
X148301992Y-81191690D01*
X148325815Y-81195463D01*
X148342738Y-81192782D01*
X148351745Y-81191776D01*
X148380492Y-81189892D01*
X148505781Y-81181681D01*
X148505788Y-81181680D01*
X148509009Y-81181469D01*
X148689069Y-81145653D01*
X148712142Y-81137821D01*
X148736512Y-81129548D01*
X148862913Y-81086641D01*
X148999988Y-81019043D01*
X149060541Y-81010263D01*
X149114689Y-81038752D01*
X149141750Y-81093627D01*
X149131389Y-81153929D01*
X149116372Y-81174317D01*
X149115209Y-81175209D01*
X149111258Y-81180358D01*
X149110243Y-81181681D01*
X149030976Y-81284983D01*
X149028493Y-81290977D01*
X149028491Y-81290981D01*
X149017987Y-81316341D01*
X148978026Y-81412817D01*
X148977180Y-81419246D01*
X148977179Y-81419248D01*
X148963721Y-81521473D01*
X148959965Y-81550000D01*
X148960812Y-81556433D01*
X148976840Y-81678171D01*
X148978026Y-81687183D01*
X149004922Y-81752116D01*
X149030976Y-81815017D01*
X149029097Y-81815795D01*
X149039500Y-81854613D01*
X149039500Y-82105453D01*
X149038128Y-82121878D01*
X149036734Y-82130166D01*
X149035003Y-82140453D01*
X149034867Y-82151573D01*
X149035409Y-82155355D01*
X149035534Y-82156227D01*
X149036378Y-82164714D01*
X149051073Y-82426374D01*
X149051540Y-82429120D01*
X149051540Y-82429124D01*
X149096710Y-82694978D01*
X149097176Y-82697720D01*
X149097945Y-82700389D01*
X149163284Y-82927183D01*
X149173371Y-82962197D01*
X149174436Y-82964768D01*
X149276292Y-83210671D01*
X149278698Y-83216480D01*
X149280045Y-83218917D01*
X149410487Y-83454936D01*
X149410493Y-83454945D01*
X149411834Y-83457372D01*
X149481835Y-83556029D01*
X149548627Y-83650162D01*
X149571105Y-83681842D01*
X149572947Y-83683903D01*
X149572950Y-83683907D01*
X149639034Y-83757855D01*
X149723234Y-83852074D01*
X149735927Y-83866278D01*
X149742744Y-83874811D01*
X149746193Y-83879656D01*
X149753959Y-83887615D01*
X149769520Y-83899277D01*
X149774466Y-83902984D01*
X149785098Y-83912201D01*
X149883430Y-84010533D01*
X149911207Y-84065050D01*
X149901636Y-84125482D01*
X149858371Y-84168747D01*
X149797939Y-84178318D01*
X149753158Y-84159079D01*
X149710018Y-84125976D01*
X149582183Y-84073026D01*
X149575754Y-84072180D01*
X149575752Y-84072179D01*
X149451433Y-84055812D01*
X149445000Y-84054965D01*
X149438567Y-84055812D01*
X149314248Y-84072179D01*
X149314246Y-84072180D01*
X149307817Y-84073026D01*
X149268592Y-84089273D01*
X149185981Y-84123491D01*
X149185977Y-84123493D01*
X149179983Y-84125976D01*
X149070209Y-84210209D01*
X148985976Y-84319983D01*
X148983493Y-84325977D01*
X148983491Y-84325981D01*
X148969985Y-84358589D01*
X148933026Y-84447817D01*
X148932180Y-84454246D01*
X148932179Y-84454248D01*
X148923104Y-84523177D01*
X148914965Y-84585000D01*
X148933026Y-84722183D01*
X148935509Y-84728177D01*
X148983491Y-84844019D01*
X148983493Y-84844023D01*
X148985976Y-84850017D01*
X149070209Y-84959791D01*
X149179982Y-85044024D01*
X149307817Y-85096974D01*
X149314246Y-85097820D01*
X149314248Y-85097821D01*
X149438567Y-85114188D01*
X149445000Y-85115035D01*
X149451433Y-85114188D01*
X149575752Y-85097821D01*
X149575754Y-85097820D01*
X149582183Y-85096974D01*
X149710018Y-85044024D01*
X149819791Y-84959791D01*
X149904024Y-84850017D01*
X149906507Y-84844023D01*
X149906509Y-84844019D01*
X149954491Y-84728177D01*
X149956974Y-84722183D01*
X149975035Y-84585000D01*
X149966896Y-84523177D01*
X149957821Y-84454248D01*
X149957820Y-84454246D01*
X149956974Y-84447817D01*
X149920015Y-84358589D01*
X149906509Y-84325981D01*
X149906507Y-84325977D01*
X149904024Y-84319983D01*
X149870919Y-84276840D01*
X149850495Y-84219164D01*
X149867872Y-84160498D01*
X149916414Y-84123251D01*
X149977578Y-84121649D01*
X150019465Y-84146568D01*
X151305428Y-85432531D01*
X151315364Y-85444134D01*
X151328479Y-85462086D01*
X151334069Y-85466383D01*
X151334071Y-85466385D01*
X151340999Y-85471710D01*
X151355091Y-85484920D01*
X151465028Y-85610280D01*
X151472905Y-85620546D01*
X151578300Y-85778279D01*
X151584776Y-85789495D01*
X151668682Y-85959641D01*
X151673637Y-85971604D01*
X151734616Y-86151241D01*
X151737968Y-86163750D01*
X151774979Y-86349815D01*
X151776669Y-86362655D01*
X151787166Y-86522824D01*
X151786200Y-86544524D01*
X151784901Y-86552867D01*
X151785816Y-86559864D01*
X151785816Y-86559865D01*
X151788664Y-86581644D01*
X151789500Y-86594480D01*
X151789500Y-86755387D01*
X151779097Y-86794205D01*
X151780976Y-86794983D01*
X151728026Y-86922817D01*
X151709965Y-87060000D01*
X151728026Y-87197183D01*
X151730509Y-87203177D01*
X151778491Y-87319019D01*
X151778493Y-87319023D01*
X151780976Y-87325017D01*
X151865209Y-87434791D01*
X151974982Y-87519024D01*
X152102817Y-87571974D01*
X152109246Y-87572820D01*
X152109248Y-87572821D01*
X152233567Y-87589188D01*
X152240000Y-87590035D01*
X152246433Y-87589188D01*
X152370752Y-87572821D01*
X152370754Y-87572820D01*
X152377183Y-87571974D01*
X152505018Y-87519024D01*
X152614791Y-87434791D01*
X152699024Y-87325017D01*
X152701507Y-87319023D01*
X152701509Y-87319019D01*
X152749491Y-87203177D01*
X152751974Y-87197183D01*
X152770035Y-87060000D01*
X152751974Y-86922817D01*
X152699024Y-86794983D01*
X152700903Y-86794205D01*
X152690500Y-86755387D01*
X152690500Y-86604547D01*
X152691872Y-86588122D01*
X152694363Y-86573318D01*
X152694363Y-86573313D01*
X152694997Y-86569547D01*
X152695133Y-86558427D01*
X152694591Y-86554639D01*
X152694590Y-86554631D01*
X152694467Y-86553773D01*
X152693624Y-86545297D01*
X152679085Y-86286411D01*
X152678929Y-86283626D01*
X152632825Y-86012281D01*
X152617660Y-85959641D01*
X152557402Y-85750478D01*
X152557400Y-85750472D01*
X152556631Y-85747803D01*
X152493544Y-85595498D01*
X152452368Y-85496090D01*
X152452365Y-85496083D01*
X152451303Y-85493520D01*
X152318167Y-85252629D01*
X152207724Y-85096974D01*
X152160506Y-85030426D01*
X152160502Y-85030421D01*
X152158897Y-85028159D01*
X152157049Y-85026092D01*
X152157045Y-85026086D01*
X152020075Y-84872817D01*
X151994071Y-84843718D01*
X151987241Y-84835167D01*
X151986026Y-84833460D01*
X151986025Y-84833459D01*
X151983809Y-84830346D01*
X151981141Y-84827611D01*
X151981137Y-84827607D01*
X151978718Y-84825128D01*
X151978715Y-84825125D01*
X151976042Y-84822386D01*
X151955535Y-84807017D01*
X151944903Y-84797800D01*
X151591570Y-84444467D01*
X151563793Y-84389950D01*
X151573364Y-84329518D01*
X151616629Y-84286253D01*
X151677061Y-84276682D01*
X151721842Y-84295921D01*
X151764982Y-84329024D01*
X151892817Y-84381974D01*
X151899246Y-84382820D01*
X151899248Y-84382821D01*
X152023567Y-84399188D01*
X152030000Y-84400035D01*
X152036433Y-84399188D01*
X152160752Y-84382821D01*
X152160754Y-84382820D01*
X152167183Y-84381974D01*
X152295018Y-84329024D01*
X152404791Y-84244791D01*
X152489024Y-84135017D01*
X152491507Y-84129023D01*
X152491509Y-84129019D01*
X152538729Y-84015017D01*
X152541974Y-84007183D01*
X152544498Y-83988016D01*
X152559188Y-83876433D01*
X152560035Y-83870000D01*
X152547191Y-83772441D01*
X152542821Y-83739248D01*
X152542820Y-83739246D01*
X152541974Y-83732817D01*
X152507738Y-83650162D01*
X152491509Y-83610981D01*
X152491507Y-83610977D01*
X152489024Y-83604983D01*
X152404791Y-83495209D01*
X152295018Y-83410976D01*
X152167183Y-83358026D01*
X152160754Y-83357180D01*
X152160752Y-83357179D01*
X152036433Y-83340812D01*
X152030000Y-83339965D01*
X152023567Y-83340812D01*
X151899248Y-83357179D01*
X151899246Y-83357180D01*
X151892817Y-83358026D01*
X151853592Y-83374273D01*
X151770981Y-83408491D01*
X151770977Y-83408493D01*
X151764983Y-83410976D01*
X151655209Y-83495209D01*
X151570976Y-83604983D01*
X151568493Y-83610977D01*
X151568491Y-83610981D01*
X151552262Y-83650162D01*
X151518026Y-83732817D01*
X151517180Y-83739246D01*
X151517179Y-83739248D01*
X151512809Y-83772441D01*
X151499965Y-83870000D01*
X151500812Y-83876433D01*
X151515503Y-83988016D01*
X151518026Y-84007183D01*
X151521271Y-84015017D01*
X151568491Y-84129019D01*
X151568493Y-84129023D01*
X151570976Y-84135017D01*
X151594951Y-84166261D01*
X151604081Y-84178160D01*
X151624505Y-84235836D01*
X151607128Y-84294502D01*
X151558586Y-84331749D01*
X151497422Y-84333351D01*
X151455535Y-84308432D01*
X150424573Y-83277470D01*
X150414637Y-83265867D01*
X150412672Y-83263177D01*
X150401522Y-83247915D01*
X150388999Y-83238288D01*
X150374908Y-83225078D01*
X150264981Y-83099730D01*
X150257099Y-83089459D01*
X150247065Y-83074443D01*
X150230455Y-83015555D01*
X150251631Y-82958151D01*
X150302504Y-82924157D01*
X150316456Y-82921286D01*
X150380752Y-82912821D01*
X150380754Y-82912820D01*
X150387183Y-82911974D01*
X150515018Y-82859024D01*
X150624791Y-82774791D01*
X150709024Y-82665017D01*
X150711507Y-82659023D01*
X150711509Y-82659019D01*
X150752117Y-82560981D01*
X150761974Y-82537183D01*
X150763581Y-82524983D01*
X150779188Y-82406433D01*
X150780035Y-82400000D01*
X150768253Y-82310509D01*
X150762821Y-82269248D01*
X150762820Y-82269246D01*
X150761974Y-82262817D01*
X150721342Y-82164721D01*
X150711509Y-82140981D01*
X150711507Y-82140977D01*
X150709024Y-82134983D01*
X150705074Y-82129835D01*
X150688898Y-82108754D01*
X150668475Y-82051077D01*
X150685853Y-81992412D01*
X150735618Y-81954741D01*
X150778163Y-81940299D01*
X150778166Y-81940298D01*
X150781235Y-81939256D01*
X150957646Y-81852260D01*
X151121193Y-81742982D01*
X151237029Y-81641396D01*
X151244876Y-81635187D01*
X151261597Y-81623282D01*
X151270439Y-81614653D01*
X151287978Y-81591251D01*
X151297194Y-81580620D01*
X153030996Y-79846818D01*
X153085513Y-79819041D01*
X153145945Y-79828612D01*
X153189210Y-79871877D01*
X153200000Y-79916822D01*
X153200000Y-93301000D01*
X153181093Y-93359191D01*
X153131593Y-93395155D01*
X153101000Y-93400000D01*
X113499000Y-93400000D01*
X113440809Y-93381093D01*
X113404845Y-93331593D01*
X113400000Y-93301000D01*
X113400000Y-91557396D01*
X115605014Y-91557396D01*
X115614723Y-91767167D01*
X115615828Y-91771751D01*
X115640284Y-91873226D01*
X115663924Y-91971318D01*
X115750840Y-92162481D01*
X115872337Y-92333760D01*
X115950327Y-92408419D01*
X116020627Y-92475717D01*
X116020631Y-92475720D01*
X116024031Y-92478975D01*
X116200446Y-92592885D01*
X116204823Y-92594649D01*
X116312011Y-92637847D01*
X116395219Y-92671381D01*
X116399843Y-92672284D01*
X116597827Y-92710948D01*
X116597834Y-92710949D01*
X116601322Y-92711630D01*
X116606843Y-92711900D01*
X116761669Y-92711900D01*
X116857740Y-92702734D01*
X116913553Y-92697409D01*
X116913555Y-92697409D01*
X116918246Y-92696961D01*
X117119749Y-92637847D01*
X117306439Y-92541695D01*
X117471579Y-92411976D01*
X117609210Y-92253371D01*
X117714366Y-92071601D01*
X117749190Y-91971318D01*
X117781709Y-91877673D01*
X117781710Y-91877671D01*
X117783253Y-91873226D01*
X117813386Y-91665404D01*
X117808387Y-91557396D01*
X148795014Y-91557396D01*
X148804723Y-91767167D01*
X148805828Y-91771751D01*
X148830284Y-91873226D01*
X148853924Y-91971318D01*
X148940840Y-92162481D01*
X149062337Y-92333760D01*
X149140327Y-92408419D01*
X149210627Y-92475717D01*
X149210631Y-92475720D01*
X149214031Y-92478975D01*
X149390446Y-92592885D01*
X149394823Y-92594649D01*
X149502011Y-92637847D01*
X149585219Y-92671381D01*
X149589843Y-92672284D01*
X149787827Y-92710948D01*
X149787834Y-92710949D01*
X149791322Y-92711630D01*
X149796843Y-92711900D01*
X149951669Y-92711900D01*
X150047740Y-92702734D01*
X150103553Y-92697409D01*
X150103555Y-92697409D01*
X150108246Y-92696961D01*
X150309749Y-92637847D01*
X150496439Y-92541695D01*
X150661579Y-92411976D01*
X150799210Y-92253371D01*
X150904366Y-92071601D01*
X150939190Y-91971318D01*
X150971709Y-91877673D01*
X150971710Y-91877671D01*
X150973253Y-91873226D01*
X151003386Y-91665404D01*
X150993677Y-91455633D01*
X150969240Y-91354236D01*
X150945581Y-91256065D01*
X150945579Y-91256060D01*
X150944476Y-91251482D01*
X150857560Y-91060319D01*
X150736063Y-90889040D01*
X150651315Y-90807912D01*
X150587773Y-90747083D01*
X150587769Y-90747080D01*
X150584369Y-90743825D01*
X150407954Y-90629915D01*
X150301739Y-90587109D01*
X150217556Y-90553182D01*
X150217554Y-90553181D01*
X150213181Y-90551419D01*
X150207887Y-90550385D01*
X150010573Y-90511852D01*
X150010566Y-90511851D01*
X150007078Y-90511170D01*
X150001557Y-90510900D01*
X149846731Y-90510900D01*
X149750660Y-90520066D01*
X149694847Y-90525391D01*
X149694845Y-90525391D01*
X149690154Y-90525839D01*
X149488651Y-90584953D01*
X149301961Y-90681105D01*
X149136821Y-90810824D01*
X148999190Y-90969429D01*
X148894034Y-91151199D01*
X148892490Y-91155644D01*
X148892490Y-91155645D01*
X148857619Y-91256065D01*
X148825147Y-91349574D01*
X148795014Y-91557396D01*
X117808387Y-91557396D01*
X117803677Y-91455633D01*
X117779240Y-91354236D01*
X117755581Y-91256065D01*
X117755579Y-91256060D01*
X117754476Y-91251482D01*
X117667560Y-91060319D01*
X117546063Y-90889040D01*
X117461315Y-90807912D01*
X117397773Y-90747083D01*
X117397769Y-90747080D01*
X117394369Y-90743825D01*
X117217954Y-90629915D01*
X117111739Y-90587109D01*
X117027556Y-90553182D01*
X117027554Y-90553181D01*
X117023181Y-90551419D01*
X117017887Y-90550385D01*
X116820573Y-90511852D01*
X116820566Y-90511851D01*
X116817078Y-90511170D01*
X116811557Y-90510900D01*
X116656731Y-90510900D01*
X116560660Y-90520066D01*
X116504847Y-90525391D01*
X116504845Y-90525391D01*
X116500154Y-90525839D01*
X116298651Y-90584953D01*
X116111961Y-90681105D01*
X115946821Y-90810824D01*
X115809190Y-90969429D01*
X115704034Y-91151199D01*
X115702490Y-91155644D01*
X115702490Y-91155645D01*
X115667619Y-91256065D01*
X115635147Y-91349574D01*
X115605014Y-91557396D01*
X113400000Y-91557396D01*
X113400000Y-85010000D01*
X117279964Y-85010000D01*
X117280811Y-85016433D01*
X117293793Y-85115035D01*
X117298025Y-85147183D01*
X117300508Y-85153177D01*
X117348490Y-85269019D01*
X117348492Y-85269023D01*
X117350975Y-85275017D01*
X117435208Y-85384791D01*
X117544981Y-85469024D01*
X117672816Y-85521974D01*
X117679245Y-85522820D01*
X117679247Y-85522821D01*
X117803566Y-85539188D01*
X117809999Y-85540035D01*
X117816432Y-85539188D01*
X117940751Y-85522821D01*
X117940753Y-85522820D01*
X117947182Y-85521974D01*
X118075017Y-85469024D01*
X118184790Y-85384791D01*
X118269023Y-85275017D01*
X118271506Y-85269023D01*
X118271508Y-85269019D01*
X118319490Y-85153177D01*
X118321973Y-85147183D01*
X118326206Y-85115035D01*
X118339187Y-85016433D01*
X118340034Y-85010000D01*
X118321973Y-84872817D01*
X118291829Y-84800042D01*
X118271508Y-84750981D01*
X118271506Y-84750977D01*
X118269023Y-84744983D01*
X118267426Y-84742902D01*
X118255044Y-84684653D01*
X118267114Y-84647504D01*
X118269023Y-84645017D01*
X118271506Y-84639023D01*
X118271508Y-84639019D01*
X118319490Y-84523177D01*
X118321973Y-84517183D01*
X118331106Y-84447817D01*
X118339187Y-84386433D01*
X118340034Y-84380000D01*
X118333892Y-84333351D01*
X118322820Y-84249248D01*
X118322819Y-84249246D01*
X118321973Y-84242817D01*
X118295257Y-84178318D01*
X118271508Y-84120981D01*
X118271506Y-84120977D01*
X118269023Y-84114983D01*
X118267426Y-84112902D01*
X118255044Y-84054653D01*
X118267114Y-84017504D01*
X118269023Y-84015017D01*
X118271506Y-84009023D01*
X118271508Y-84009019D01*
X118319490Y-83893177D01*
X118321973Y-83887183D01*
X118323373Y-83876554D01*
X118336795Y-83774605D01*
X118340034Y-83750000D01*
X118333237Y-83698374D01*
X118322820Y-83619248D01*
X118322819Y-83619246D01*
X118321973Y-83612817D01*
X118305726Y-83573592D01*
X118271508Y-83490981D01*
X118271506Y-83490977D01*
X118269023Y-83484983D01*
X118267426Y-83482902D01*
X118255044Y-83424653D01*
X118267114Y-83387504D01*
X118269023Y-83385017D01*
X118271506Y-83379023D01*
X118271508Y-83379019D01*
X118319490Y-83263177D01*
X118321973Y-83257183D01*
X118323194Y-83247915D01*
X118339187Y-83126433D01*
X118340034Y-83120000D01*
X118334036Y-83074443D01*
X118322820Y-82989248D01*
X118322819Y-82989246D01*
X118321973Y-82982817D01*
X118298573Y-82926323D01*
X118271508Y-82860981D01*
X118271506Y-82860977D01*
X118269023Y-82854983D01*
X118184790Y-82745209D01*
X118075017Y-82660976D01*
X117947182Y-82608026D01*
X117940753Y-82607180D01*
X117940751Y-82607179D01*
X117816432Y-82590812D01*
X117809999Y-82589965D01*
X117803566Y-82590812D01*
X117679247Y-82607179D01*
X117679245Y-82607180D01*
X117672816Y-82608026D01*
X117633591Y-82624273D01*
X117550980Y-82658491D01*
X117550976Y-82658493D01*
X117544982Y-82660976D01*
X117435208Y-82745209D01*
X117350975Y-82854983D01*
X117348492Y-82860977D01*
X117348490Y-82860981D01*
X117321425Y-82926323D01*
X117298025Y-82982817D01*
X117297179Y-82989246D01*
X117297178Y-82989248D01*
X117285962Y-83074443D01*
X117279964Y-83120000D01*
X117280811Y-83126433D01*
X117296805Y-83247915D01*
X117298025Y-83257183D01*
X117300508Y-83263177D01*
X117348490Y-83379019D01*
X117348492Y-83379023D01*
X117350975Y-83385017D01*
X117352572Y-83387098D01*
X117364954Y-83445347D01*
X117352884Y-83482496D01*
X117350975Y-83484983D01*
X117348492Y-83490977D01*
X117348490Y-83490981D01*
X117314272Y-83573592D01*
X117298025Y-83612817D01*
X117297179Y-83619246D01*
X117297178Y-83619248D01*
X117286761Y-83698374D01*
X117279964Y-83750000D01*
X117283203Y-83774605D01*
X117296626Y-83876554D01*
X117298025Y-83887183D01*
X117300508Y-83893177D01*
X117348490Y-84009019D01*
X117348492Y-84009023D01*
X117350975Y-84015017D01*
X117352572Y-84017098D01*
X117364954Y-84075347D01*
X117352884Y-84112496D01*
X117350975Y-84114983D01*
X117348492Y-84120977D01*
X117348490Y-84120981D01*
X117324741Y-84178318D01*
X117298025Y-84242817D01*
X117297179Y-84249246D01*
X117297178Y-84249248D01*
X117286106Y-84333351D01*
X117279964Y-84380000D01*
X117280811Y-84386433D01*
X117288893Y-84447817D01*
X117298025Y-84517183D01*
X117300508Y-84523177D01*
X117348490Y-84639019D01*
X117348492Y-84639023D01*
X117350975Y-84645017D01*
X117352572Y-84647098D01*
X117364954Y-84705347D01*
X117352884Y-84742496D01*
X117350975Y-84744983D01*
X117348492Y-84750977D01*
X117348490Y-84750981D01*
X117328169Y-84800042D01*
X117298025Y-84872817D01*
X117279964Y-85010000D01*
X113400000Y-85010000D01*
X113400000Y-82130000D01*
X122449965Y-82130000D01*
X122451844Y-82144274D01*
X122467076Y-82259965D01*
X122468026Y-82267183D01*
X122477463Y-82289965D01*
X122518491Y-82389019D01*
X122518493Y-82389023D01*
X122520976Y-82395017D01*
X122524927Y-82400166D01*
X122574837Y-82465209D01*
X122605209Y-82504791D01*
X122714982Y-82589024D01*
X122842817Y-82641974D01*
X122849246Y-82642820D01*
X122849248Y-82642821D01*
X122925175Y-82652817D01*
X122968273Y-82658491D01*
X122973567Y-82659188D01*
X122980000Y-82660035D01*
X122986433Y-82659188D01*
X122991728Y-82658491D01*
X123034825Y-82652817D01*
X123110752Y-82642821D01*
X123110754Y-82642820D01*
X123117183Y-82641974D01*
X123201187Y-82607179D01*
X123239024Y-82591507D01*
X123239026Y-82591506D01*
X123245018Y-82589024D01*
X123250167Y-82585073D01*
X123255786Y-82581829D01*
X123256968Y-82583877D01*
X123304905Y-82566900D01*
X123357893Y-82584117D01*
X123359214Y-82581829D01*
X123364833Y-82585073D01*
X123369982Y-82589024D01*
X123375974Y-82591506D01*
X123375976Y-82591507D01*
X123413813Y-82607179D01*
X123497817Y-82641974D01*
X123504246Y-82642820D01*
X123504248Y-82642821D01*
X123580175Y-82652817D01*
X123623273Y-82658491D01*
X123628567Y-82659188D01*
X123635000Y-82660035D01*
X123641433Y-82659188D01*
X123641435Y-82659188D01*
X123651667Y-82657841D01*
X123711827Y-82668991D01*
X123753944Y-82713374D01*
X123762741Y-82768916D01*
X123759965Y-82790000D01*
X123760812Y-82796433D01*
X123776024Y-82911974D01*
X123778026Y-82927183D01*
X123790452Y-82957183D01*
X123828491Y-83049019D01*
X123828493Y-83049023D01*
X123830976Y-83055017D01*
X123915209Y-83164791D01*
X124024982Y-83249024D01*
X124152817Y-83301974D01*
X124159246Y-83302820D01*
X124159248Y-83302821D01*
X124283567Y-83319188D01*
X124290000Y-83320035D01*
X124296433Y-83319188D01*
X124420752Y-83302821D01*
X124420754Y-83302820D01*
X124427183Y-83301974D01*
X124514355Y-83265867D01*
X124549022Y-83251508D01*
X124549025Y-83251507D01*
X124555018Y-83249024D01*
X124557099Y-83247427D01*
X124615350Y-83235046D01*
X124652495Y-83247116D01*
X124654982Y-83249024D01*
X124660975Y-83251507D01*
X124660978Y-83251508D01*
X124695645Y-83265867D01*
X124782817Y-83301974D01*
X124789246Y-83302820D01*
X124789248Y-83302821D01*
X124913567Y-83319188D01*
X124920000Y-83320035D01*
X124926433Y-83319188D01*
X125050752Y-83302821D01*
X125050754Y-83302820D01*
X125057183Y-83301974D01*
X125185018Y-83249024D01*
X125294791Y-83164791D01*
X125379024Y-83055017D01*
X125381507Y-83049023D01*
X125381509Y-83049019D01*
X125419548Y-82957183D01*
X125431974Y-82927183D01*
X125433977Y-82911974D01*
X125449188Y-82796433D01*
X125450035Y-82790000D01*
X125443017Y-82736695D01*
X125432821Y-82659248D01*
X125432820Y-82659246D01*
X125431974Y-82652817D01*
X125405940Y-82589965D01*
X125381509Y-82530981D01*
X125381507Y-82530977D01*
X125379024Y-82524983D01*
X125294791Y-82415209D01*
X125185018Y-82330976D01*
X125057183Y-82278026D01*
X125050754Y-82277180D01*
X125050752Y-82277179D01*
X124926433Y-82260812D01*
X124920000Y-82259965D01*
X124915086Y-82260612D01*
X124857510Y-82241905D01*
X124821546Y-82192405D01*
X124817548Y-82148889D01*
X124818156Y-82144274D01*
X124820035Y-82130000D01*
X124814024Y-82084346D01*
X124802821Y-81999248D01*
X124802820Y-81999246D01*
X124801974Y-81992817D01*
X124760480Y-81892640D01*
X124751509Y-81870981D01*
X124751507Y-81870977D01*
X124749024Y-81864983D01*
X124664791Y-81755209D01*
X124555018Y-81670976D01*
X124427183Y-81618026D01*
X124420754Y-81617180D01*
X124420752Y-81617179D01*
X124296433Y-81600812D01*
X124290000Y-81599965D01*
X124283567Y-81600812D01*
X124159248Y-81617179D01*
X124159246Y-81617180D01*
X124152817Y-81618026D01*
X124024983Y-81670976D01*
X124019834Y-81674927D01*
X124014215Y-81678171D01*
X124013034Y-81676125D01*
X123965080Y-81693100D01*
X123912107Y-81675884D01*
X123910786Y-81678171D01*
X123905165Y-81674926D01*
X123900018Y-81670976D01*
X123894026Y-81668494D01*
X123894024Y-81668493D01*
X123828604Y-81641396D01*
X123772183Y-81618026D01*
X123765754Y-81617180D01*
X123765752Y-81617179D01*
X123641433Y-81600812D01*
X123635000Y-81599965D01*
X123628567Y-81600812D01*
X123504248Y-81617179D01*
X123504246Y-81617180D01*
X123497817Y-81618026D01*
X123369983Y-81670976D01*
X123364834Y-81674927D01*
X123359215Y-81678171D01*
X123358034Y-81676125D01*
X123310080Y-81693100D01*
X123257107Y-81675884D01*
X123255786Y-81678171D01*
X123250165Y-81674926D01*
X123245018Y-81670976D01*
X123239026Y-81668494D01*
X123239024Y-81668493D01*
X123173604Y-81641396D01*
X123117183Y-81618026D01*
X123110754Y-81617180D01*
X123110752Y-81617179D01*
X122986433Y-81600812D01*
X122980000Y-81599965D01*
X122973567Y-81600812D01*
X122849248Y-81617179D01*
X122849246Y-81617180D01*
X122842817Y-81618026D01*
X122824247Y-81625718D01*
X122720981Y-81668491D01*
X122720977Y-81668493D01*
X122714983Y-81670976D01*
X122605209Y-81755209D01*
X122520976Y-81864983D01*
X122518493Y-81870977D01*
X122518491Y-81870981D01*
X122509520Y-81892640D01*
X122468026Y-81992817D01*
X122467180Y-81999246D01*
X122467179Y-81999248D01*
X122455976Y-82084346D01*
X122449965Y-82130000D01*
X113400000Y-82130000D01*
X113400000Y-80625000D01*
X122444965Y-80625000D01*
X122463026Y-80762183D01*
X122465509Y-80768177D01*
X122513491Y-80884019D01*
X122513493Y-80884023D01*
X122515976Y-80890017D01*
X122600209Y-80999791D01*
X122709982Y-81084024D01*
X122837817Y-81136974D01*
X122844246Y-81137820D01*
X122844248Y-81137821D01*
X122942924Y-81150812D01*
X122966600Y-81153929D01*
X122968567Y-81154188D01*
X122975000Y-81155035D01*
X122981433Y-81154188D01*
X122983401Y-81153929D01*
X123007076Y-81150812D01*
X123105752Y-81137821D01*
X123105754Y-81137820D01*
X123112183Y-81136974D01*
X123240018Y-81084024D01*
X123349791Y-80999791D01*
X123434024Y-80890017D01*
X123436507Y-80884023D01*
X123436509Y-80884019D01*
X123484491Y-80768177D01*
X123486974Y-80762183D01*
X123505035Y-80625000D01*
X123486974Y-80487817D01*
X123451330Y-80401764D01*
X123436509Y-80365981D01*
X123436507Y-80365977D01*
X123434024Y-80359983D01*
X123349791Y-80250209D01*
X123240018Y-80165976D01*
X123112183Y-80113026D01*
X123105754Y-80112180D01*
X123105752Y-80112179D01*
X122981433Y-80095812D01*
X122975000Y-80094965D01*
X122968567Y-80095812D01*
X122844248Y-80112179D01*
X122844246Y-80112180D01*
X122837817Y-80113026D01*
X122798592Y-80129273D01*
X122715981Y-80163491D01*
X122715977Y-80163493D01*
X122709983Y-80165976D01*
X122600209Y-80250209D01*
X122515976Y-80359983D01*
X122513493Y-80365977D01*
X122513491Y-80365981D01*
X122498670Y-80401764D01*
X122463026Y-80487817D01*
X122444965Y-80625000D01*
X113400000Y-80625000D01*
X113400000Y-77850000D01*
X116929965Y-77850000D01*
X116948026Y-77987183D01*
X116950509Y-77993177D01*
X116998491Y-78109019D01*
X116998493Y-78109023D01*
X117000976Y-78115017D01*
X117085209Y-78224791D01*
X117194982Y-78309024D01*
X117322817Y-78361974D01*
X117329246Y-78362820D01*
X117329248Y-78362821D01*
X117453567Y-78379188D01*
X117460000Y-78380035D01*
X117466433Y-78379188D01*
X117590752Y-78362821D01*
X117590754Y-78362820D01*
X117597183Y-78361974D01*
X117725018Y-78309024D01*
X117834791Y-78224791D01*
X117919024Y-78115017D01*
X117921507Y-78109023D01*
X117921509Y-78109019D01*
X117969491Y-77993177D01*
X117971974Y-77987183D01*
X117990035Y-77850000D01*
X117977421Y-77754188D01*
X117972821Y-77719248D01*
X117972820Y-77719246D01*
X117971974Y-77712817D01*
X117947939Y-77654791D01*
X117921509Y-77590981D01*
X117921507Y-77590977D01*
X117919024Y-77584983D01*
X117834791Y-77475209D01*
X117725018Y-77390976D01*
X117597183Y-77338026D01*
X117590754Y-77337180D01*
X117590752Y-77337179D01*
X117466433Y-77320812D01*
X117460000Y-77319965D01*
X117453567Y-77320812D01*
X117329248Y-77337179D01*
X117329246Y-77337180D01*
X117322817Y-77338026D01*
X117283592Y-77354273D01*
X117200981Y-77388491D01*
X117200977Y-77388493D01*
X117194983Y-77390976D01*
X117085209Y-77475209D01*
X117000976Y-77584983D01*
X116998493Y-77590977D01*
X116998491Y-77590981D01*
X116972061Y-77654791D01*
X116948026Y-77712817D01*
X116947180Y-77719246D01*
X116947179Y-77719248D01*
X116942579Y-77754188D01*
X116929965Y-77850000D01*
X113400000Y-77850000D01*
X113400000Y-74902698D01*
X140473175Y-74902698D01*
X140474022Y-74909131D01*
X140489940Y-75030035D01*
X140491236Y-75039881D01*
X140493719Y-75045875D01*
X140541701Y-75161717D01*
X140541703Y-75161721D01*
X140544186Y-75167715D01*
X140548137Y-75172864D01*
X140594505Y-75233291D01*
X140628419Y-75277489D01*
X140738192Y-75361722D01*
X140866027Y-75414672D01*
X140872456Y-75415518D01*
X140872458Y-75415519D01*
X140996777Y-75431886D01*
X141003210Y-75432733D01*
X141009643Y-75431886D01*
X141133962Y-75415519D01*
X141133964Y-75415518D01*
X141140393Y-75414672D01*
X141268228Y-75361722D01*
X141378001Y-75277489D01*
X141411916Y-75233291D01*
X141458283Y-75172864D01*
X141462234Y-75167715D01*
X141464717Y-75161721D01*
X141464719Y-75161717D01*
X141512701Y-75045875D01*
X141515184Y-75039881D01*
X141516481Y-75030035D01*
X141532398Y-74909131D01*
X141533245Y-74902698D01*
X141522827Y-74823567D01*
X141516031Y-74771946D01*
X141516030Y-74771944D01*
X141515184Y-74765515D01*
X141463436Y-74640583D01*
X141458635Y-74579587D01*
X141463436Y-74564813D01*
X141484069Y-74515000D01*
X141515184Y-74439881D01*
X141524484Y-74369247D01*
X141532398Y-74309131D01*
X141533245Y-74302698D01*
X141524330Y-74234983D01*
X141516031Y-74171946D01*
X141516030Y-74171944D01*
X141515184Y-74165515D01*
X141483384Y-74088742D01*
X141464719Y-74043679D01*
X141464717Y-74043675D01*
X141462234Y-74037681D01*
X141378001Y-73927907D01*
X141268228Y-73843674D01*
X141140393Y-73790724D01*
X141133964Y-73789878D01*
X141133962Y-73789877D01*
X141009643Y-73773510D01*
X141003210Y-73772663D01*
X140996777Y-73773510D01*
X140872458Y-73789877D01*
X140872456Y-73789878D01*
X140866027Y-73790724D01*
X140826802Y-73806971D01*
X140744191Y-73841189D01*
X140744187Y-73841191D01*
X140738193Y-73843674D01*
X140628419Y-73927907D01*
X140544186Y-74037681D01*
X140541703Y-74043675D01*
X140541701Y-74043679D01*
X140523036Y-74088742D01*
X140491236Y-74165515D01*
X140490390Y-74171944D01*
X140490389Y-74171946D01*
X140482090Y-74234983D01*
X140473175Y-74302698D01*
X140474022Y-74309131D01*
X140481937Y-74369247D01*
X140491236Y-74439881D01*
X140522351Y-74515000D01*
X140542984Y-74564813D01*
X140547785Y-74625809D01*
X140542984Y-74640583D01*
X140491236Y-74765515D01*
X140490390Y-74771944D01*
X140490389Y-74771946D01*
X140483593Y-74823567D01*
X140473175Y-74902698D01*
X113400000Y-74902698D01*
X113400000Y-72900000D01*
X132809965Y-72900000D01*
X132810812Y-72906433D01*
X132826452Y-73025226D01*
X132828026Y-73037183D01*
X132836309Y-73057179D01*
X132878491Y-73159019D01*
X132878493Y-73159023D01*
X132880976Y-73165017D01*
X132929920Y-73228801D01*
X132952144Y-73257764D01*
X132972568Y-73315440D01*
X132952144Y-73378300D01*
X132900976Y-73444983D01*
X132898493Y-73450977D01*
X132898491Y-73450981D01*
X132864273Y-73533592D01*
X132848026Y-73572817D01*
X132847180Y-73579246D01*
X132847179Y-73579248D01*
X132837428Y-73653316D01*
X132829965Y-73710000D01*
X132830812Y-73716433D01*
X132846488Y-73835499D01*
X132848026Y-73847183D01*
X132850509Y-73853177D01*
X132898491Y-73969019D01*
X132898493Y-73969023D01*
X132900976Y-73975017D01*
X132985209Y-74084791D01*
X133094982Y-74169024D01*
X133222817Y-74221974D01*
X133229246Y-74222820D01*
X133229248Y-74222821D01*
X133353567Y-74239188D01*
X133360000Y-74240035D01*
X133366433Y-74239188D01*
X133490752Y-74222821D01*
X133490754Y-74222820D01*
X133497183Y-74221974D01*
X133625018Y-74169024D01*
X133734791Y-74084791D01*
X133819024Y-73975017D01*
X133821507Y-73969023D01*
X133821509Y-73969019D01*
X133869491Y-73853177D01*
X133871974Y-73847183D01*
X133873513Y-73835499D01*
X133889188Y-73716433D01*
X133890035Y-73710000D01*
X133882572Y-73653316D01*
X133872821Y-73579248D01*
X133872820Y-73579246D01*
X133871974Y-73572817D01*
X133855727Y-73533592D01*
X133821509Y-73450981D01*
X133821507Y-73450977D01*
X133819024Y-73444983D01*
X133747856Y-73352235D01*
X133727432Y-73294560D01*
X133747856Y-73231700D01*
X133750081Y-73228801D01*
X133776544Y-73194314D01*
X142594867Y-73194314D01*
X142595410Y-73198103D01*
X142598888Y-73222389D01*
X142597775Y-73228801D01*
X142599574Y-73228659D01*
X142607069Y-73323904D01*
X142607070Y-73323911D01*
X142607374Y-73327773D01*
X142638626Y-73457946D01*
X142689856Y-73581627D01*
X142691890Y-73584947D01*
X142691891Y-73584948D01*
X142757772Y-73692456D01*
X142757776Y-73692461D01*
X142759804Y-73695771D01*
X142762324Y-73698721D01*
X142762333Y-73698734D01*
X142786521Y-73727054D01*
X142793340Y-73736024D01*
X142795976Y-73739935D01*
X142798578Y-73744945D01*
X142802882Y-73749985D01*
X142815998Y-73763101D01*
X142826641Y-73775685D01*
X142837563Y-73791025D01*
X142845329Y-73798985D01*
X142848394Y-73801282D01*
X142865836Y-73814354D01*
X142876468Y-73823571D01*
X142940504Y-73887607D01*
X142968281Y-73942124D01*
X142969500Y-73957611D01*
X142969500Y-74195387D01*
X142959097Y-74234205D01*
X142960976Y-74234983D01*
X142908026Y-74362817D01*
X142907180Y-74369246D01*
X142907179Y-74369248D01*
X142895360Y-74459019D01*
X142889965Y-74500000D01*
X142890812Y-74506433D01*
X142906529Y-74625809D01*
X142908026Y-74637183D01*
X142916309Y-74657179D01*
X142958491Y-74759019D01*
X142958493Y-74759023D01*
X142960976Y-74765017D01*
X143045209Y-74874791D01*
X143154982Y-74959024D01*
X143282817Y-75011974D01*
X143289246Y-75012820D01*
X143289248Y-75012821D01*
X143413567Y-75029188D01*
X143420000Y-75030035D01*
X143426433Y-75029188D01*
X143550752Y-75012821D01*
X143550754Y-75012820D01*
X143557183Y-75011974D01*
X143685018Y-74959024D01*
X143690167Y-74955073D01*
X143695788Y-74951828D01*
X143696973Y-74953881D01*
X143744898Y-74936912D01*
X143803563Y-74954291D01*
X143817490Y-74965874D01*
X143821258Y-74969642D01*
X143825209Y-74974791D01*
X143934982Y-75059024D01*
X144062817Y-75111974D01*
X144069246Y-75112820D01*
X144069248Y-75112821D01*
X144193567Y-75129188D01*
X144200000Y-75130035D01*
X144224426Y-75126819D01*
X144284586Y-75137969D01*
X144326704Y-75182350D01*
X144335501Y-75212049D01*
X144348026Y-75307183D01*
X144350509Y-75313177D01*
X144398491Y-75429019D01*
X144398493Y-75429023D01*
X144400976Y-75435017D01*
X144485209Y-75544791D01*
X144594982Y-75629024D01*
X144722817Y-75681974D01*
X144729246Y-75682820D01*
X144729248Y-75682821D01*
X144853567Y-75699188D01*
X144860000Y-75700035D01*
X144866433Y-75699188D01*
X144990752Y-75682821D01*
X144990754Y-75682820D01*
X144997183Y-75681974D01*
X145125018Y-75629024D01*
X145234791Y-75544791D01*
X145319024Y-75435017D01*
X145321507Y-75429023D01*
X145321509Y-75429019D01*
X145369491Y-75313177D01*
X145371974Y-75307183D01*
X145375884Y-75277489D01*
X145389188Y-75176433D01*
X145390035Y-75170000D01*
X145381054Y-75101784D01*
X145376409Y-75066502D01*
X145387559Y-75006341D01*
X145431941Y-74964224D01*
X145492603Y-74956238D01*
X145512447Y-74962116D01*
X145632817Y-75011974D01*
X145639248Y-75012821D01*
X145639249Y-75012821D01*
X145667603Y-75016554D01*
X145722828Y-75042896D01*
X145752833Y-75101784D01*
X145768026Y-75217183D01*
X145781098Y-75248742D01*
X145818491Y-75339019D01*
X145818493Y-75339023D01*
X145820976Y-75345017D01*
X145905209Y-75454791D01*
X146014982Y-75539024D01*
X146142817Y-75591974D01*
X146149246Y-75592820D01*
X146149248Y-75592821D01*
X146255178Y-75606767D01*
X146268273Y-75608491D01*
X146273567Y-75609188D01*
X146280000Y-75610035D01*
X146286433Y-75609188D01*
X146291728Y-75608491D01*
X146304822Y-75606767D01*
X146410752Y-75592821D01*
X146410754Y-75592820D01*
X146417183Y-75591974D01*
X146545018Y-75539024D01*
X146648003Y-75460000D01*
X151254964Y-75460000D01*
X151255811Y-75466433D01*
X151268197Y-75560509D01*
X151273025Y-75597183D01*
X151287243Y-75631508D01*
X151323490Y-75719019D01*
X151323492Y-75719023D01*
X151325975Y-75725017D01*
X151410208Y-75834791D01*
X151519981Y-75919024D01*
X151647816Y-75971974D01*
X151654245Y-75972820D01*
X151654247Y-75972821D01*
X151778566Y-75989188D01*
X151784999Y-75990035D01*
X151791432Y-75989188D01*
X151915751Y-75972821D01*
X151915753Y-75972820D01*
X151922182Y-75971974D01*
X152050017Y-75919024D01*
X152159790Y-75834791D01*
X152244023Y-75725017D01*
X152246506Y-75719023D01*
X152246508Y-75719019D01*
X152282755Y-75631508D01*
X152296973Y-75597183D01*
X152301802Y-75560509D01*
X152314187Y-75466433D01*
X152315034Y-75460000D01*
X152304873Y-75382821D01*
X152297820Y-75329248D01*
X152297819Y-75329246D01*
X152296973Y-75322817D01*
X152274814Y-75269319D01*
X152246508Y-75200981D01*
X152246506Y-75200977D01*
X152244023Y-75194983D01*
X152242426Y-75192902D01*
X152230044Y-75134653D01*
X152242114Y-75097504D01*
X152244023Y-75095017D01*
X152246506Y-75089023D01*
X152246508Y-75089019D01*
X152292185Y-74978742D01*
X152296973Y-74967183D01*
X152298568Y-74955073D01*
X152314187Y-74836433D01*
X152315034Y-74830000D01*
X152307391Y-74771946D01*
X152297820Y-74699248D01*
X152297819Y-74699246D01*
X152296973Y-74692817D01*
X152263076Y-74610981D01*
X152246508Y-74570981D01*
X152246506Y-74570977D01*
X152244023Y-74564983D01*
X152242426Y-74562902D01*
X152230044Y-74504653D01*
X152242114Y-74467504D01*
X152244023Y-74465017D01*
X152246506Y-74459023D01*
X152246508Y-74459019D01*
X152294490Y-74343177D01*
X152296973Y-74337183D01*
X152298726Y-74323874D01*
X152314187Y-74206433D01*
X152315034Y-74200000D01*
X152296973Y-74062817D01*
X152280726Y-74023592D01*
X152246508Y-73940981D01*
X152246506Y-73940977D01*
X152244023Y-73934983D01*
X152242426Y-73932902D01*
X152230044Y-73874653D01*
X152242114Y-73837504D01*
X152244023Y-73835017D01*
X152246506Y-73829023D01*
X152246508Y-73829019D01*
X152285027Y-73736024D01*
X152296973Y-73707183D01*
X152298086Y-73698734D01*
X152314187Y-73576433D01*
X152315034Y-73570000D01*
X152300754Y-73461535D01*
X152297820Y-73439248D01*
X152297819Y-73439246D01*
X152296973Y-73432817D01*
X152269403Y-73366256D01*
X152246508Y-73310981D01*
X152246506Y-73310977D01*
X152244023Y-73304983D01*
X152159790Y-73195209D01*
X152050017Y-73110976D01*
X151922182Y-73058026D01*
X151915753Y-73057180D01*
X151915751Y-73057179D01*
X151791432Y-73040812D01*
X151784999Y-73039965D01*
X151778566Y-73040812D01*
X151654247Y-73057179D01*
X151654245Y-73057180D01*
X151647816Y-73058026D01*
X151608591Y-73074273D01*
X151525980Y-73108491D01*
X151525976Y-73108493D01*
X151519982Y-73110976D01*
X151410208Y-73195209D01*
X151325975Y-73304983D01*
X151323492Y-73310977D01*
X151323490Y-73310981D01*
X151300595Y-73366256D01*
X151273025Y-73432817D01*
X151272179Y-73439246D01*
X151272178Y-73439248D01*
X151269244Y-73461535D01*
X151254964Y-73570000D01*
X151255811Y-73576433D01*
X151271913Y-73698734D01*
X151273025Y-73707183D01*
X151284971Y-73736024D01*
X151323490Y-73829019D01*
X151323492Y-73829023D01*
X151325975Y-73835017D01*
X151327572Y-73837098D01*
X151339954Y-73895347D01*
X151327884Y-73932496D01*
X151325975Y-73934983D01*
X151323492Y-73940977D01*
X151323490Y-73940981D01*
X151289272Y-74023592D01*
X151273025Y-74062817D01*
X151254964Y-74200000D01*
X151255811Y-74206433D01*
X151271273Y-74323874D01*
X151273025Y-74337183D01*
X151275508Y-74343177D01*
X151323490Y-74459019D01*
X151323492Y-74459023D01*
X151325975Y-74465017D01*
X151327572Y-74467098D01*
X151339954Y-74525347D01*
X151327884Y-74562496D01*
X151325975Y-74564983D01*
X151323492Y-74570977D01*
X151323490Y-74570981D01*
X151306922Y-74610981D01*
X151273025Y-74692817D01*
X151272179Y-74699246D01*
X151272178Y-74699248D01*
X151262607Y-74771946D01*
X151254964Y-74830000D01*
X151255811Y-74836433D01*
X151271431Y-74955073D01*
X151273025Y-74967183D01*
X151277813Y-74978742D01*
X151323490Y-75089019D01*
X151323492Y-75089023D01*
X151325975Y-75095017D01*
X151327572Y-75097098D01*
X151339954Y-75155347D01*
X151327884Y-75192496D01*
X151325975Y-75194983D01*
X151323492Y-75200977D01*
X151323490Y-75200981D01*
X151295184Y-75269319D01*
X151273025Y-75322817D01*
X151272179Y-75329246D01*
X151272178Y-75329248D01*
X151265125Y-75382821D01*
X151254964Y-75460000D01*
X146648003Y-75460000D01*
X146654791Y-75454791D01*
X146684964Y-75415468D01*
X146735390Y-75380813D01*
X146788339Y-75380119D01*
X146792817Y-75381974D01*
X146930000Y-75400035D01*
X146936433Y-75399188D01*
X147060752Y-75382821D01*
X147060754Y-75382820D01*
X147067183Y-75381974D01*
X147195018Y-75329024D01*
X147304791Y-75244791D01*
X147389024Y-75135017D01*
X147391507Y-75129023D01*
X147391509Y-75129019D01*
X147439491Y-75013177D01*
X147441974Y-75007183D01*
X147445719Y-74978742D01*
X147459188Y-74876433D01*
X147460035Y-74870000D01*
X147446279Y-74765515D01*
X147442821Y-74739248D01*
X147442820Y-74739246D01*
X147441974Y-74732817D01*
X147413328Y-74663659D01*
X147391509Y-74610981D01*
X147391507Y-74610977D01*
X147389024Y-74604983D01*
X147385074Y-74599836D01*
X147385071Y-74599830D01*
X147375958Y-74587954D01*
X147355500Y-74527687D01*
X147355500Y-70350802D01*
X147374407Y-70292611D01*
X147423907Y-70256647D01*
X147485093Y-70256647D01*
X147534593Y-70292611D01*
X147545963Y-70312914D01*
X147550976Y-70325017D01*
X147635209Y-70434791D01*
X147744982Y-70519024D01*
X147872817Y-70571974D01*
X147879246Y-70572820D01*
X147879248Y-70572821D01*
X148003567Y-70589188D01*
X148010000Y-70590035D01*
X148016433Y-70589188D01*
X148140752Y-70572821D01*
X148140754Y-70572820D01*
X148147183Y-70571974D01*
X148275018Y-70519024D01*
X148384791Y-70434791D01*
X148469024Y-70325017D01*
X148471508Y-70319021D01*
X148471509Y-70319019D01*
X148519491Y-70203177D01*
X148521974Y-70197183D01*
X148526540Y-70162507D01*
X148539188Y-70066433D01*
X148540035Y-70060000D01*
X148525739Y-69951412D01*
X148522821Y-69929248D01*
X148522820Y-69929246D01*
X148521974Y-69922817D01*
X148478510Y-69817884D01*
X148473709Y-69756889D01*
X148478510Y-69742115D01*
X148494547Y-69703399D01*
X148521974Y-69637183D01*
X148529273Y-69581747D01*
X148537855Y-69516557D01*
X148540035Y-69500000D01*
X148529437Y-69419500D01*
X148522821Y-69369248D01*
X148522820Y-69369246D01*
X148521974Y-69362817D01*
X148493936Y-69295127D01*
X148471509Y-69240981D01*
X148471507Y-69240977D01*
X148469024Y-69234983D01*
X148384791Y-69125209D01*
X148275018Y-69040976D01*
X148147183Y-68988026D01*
X148140754Y-68987180D01*
X148140752Y-68987179D01*
X148016433Y-68970812D01*
X148010000Y-68969965D01*
X148003567Y-68970812D01*
X147879248Y-68987179D01*
X147879246Y-68987180D01*
X147872817Y-68988026D01*
X147860787Y-68993009D01*
X147750981Y-69038491D01*
X147750977Y-69038493D01*
X147744983Y-69040976D01*
X147635209Y-69125209D01*
X147550976Y-69234983D01*
X147548492Y-69240981D01*
X147545964Y-69247084D01*
X147506227Y-69293609D01*
X147446732Y-69307893D01*
X147390205Y-69284478D01*
X147358235Y-69232309D01*
X147355500Y-69209198D01*
X147355500Y-68789706D01*
X147356719Y-68774219D01*
X147359585Y-68756124D01*
X147359585Y-68756123D01*
X147360804Y-68748427D01*
X147359585Y-68740732D01*
X147359585Y-68740728D01*
X147359289Y-68738860D01*
X147358225Y-68728920D01*
X147353799Y-68650110D01*
X147344046Y-68476429D01*
X147342004Y-68464407D01*
X147298879Y-68210594D01*
X147298879Y-68210592D01*
X147298413Y-68207852D01*
X147258848Y-68070518D01*
X147223766Y-67948745D01*
X147223765Y-67948742D01*
X147222996Y-67946073D01*
X147140290Y-67746404D01*
X147119808Y-67696955D01*
X147119805Y-67696948D01*
X147118743Y-67694385D01*
X146986965Y-67455951D01*
X146968577Y-67430035D01*
X146830929Y-67236038D01*
X146830925Y-67236033D01*
X146829320Y-67233771D01*
X146827473Y-67231704D01*
X146827468Y-67231698D01*
X146715334Y-67106220D01*
X146690657Y-67050232D01*
X146703602Y-66990431D01*
X146749225Y-66949661D01*
X146764703Y-66945330D01*
X146764481Y-66944501D01*
X146770751Y-66942821D01*
X146777183Y-66941974D01*
X146905018Y-66889024D01*
X147014791Y-66804791D01*
X147099024Y-66695017D01*
X147101507Y-66689023D01*
X147101509Y-66689019D01*
X147149491Y-66573177D01*
X147151974Y-66567183D01*
X147157346Y-66526384D01*
X147169188Y-66436433D01*
X147170035Y-66430000D01*
X147151974Y-66292817D01*
X147117820Y-66210360D01*
X147113019Y-66149365D01*
X147117820Y-66134591D01*
X147149491Y-66058129D01*
X147151974Y-66052135D01*
X147160166Y-65989917D01*
X147169188Y-65921385D01*
X147170035Y-65914952D01*
X147151974Y-65777769D01*
X147127160Y-65717862D01*
X147101509Y-65655933D01*
X147101507Y-65655929D01*
X147099024Y-65649935D01*
X147014791Y-65540161D01*
X146905018Y-65455928D01*
X146777183Y-65402978D01*
X146770754Y-65402132D01*
X146770752Y-65402131D01*
X146646433Y-65385764D01*
X146640000Y-65384917D01*
X146633567Y-65385764D01*
X146509248Y-65402131D01*
X146509246Y-65402132D01*
X146502817Y-65402978D01*
X146463592Y-65419225D01*
X146380981Y-65453443D01*
X146380977Y-65453445D01*
X146374983Y-65455928D01*
X146265209Y-65540161D01*
X146180976Y-65649935D01*
X146178493Y-65655929D01*
X146178491Y-65655933D01*
X146152840Y-65717862D01*
X146128026Y-65777769D01*
X146109965Y-65914952D01*
X146110812Y-65921385D01*
X146119835Y-65989917D01*
X146128026Y-66052135D01*
X146130509Y-66058129D01*
X146162180Y-66134591D01*
X146166981Y-66195587D01*
X146162181Y-66210359D01*
X146128026Y-66292817D01*
X146116973Y-66376775D01*
X146116818Y-66377949D01*
X146090477Y-66433174D01*
X146036706Y-66462369D01*
X145976044Y-66454383D01*
X145965820Y-66448117D01*
X145965788Y-66448172D01*
X145960167Y-66444927D01*
X145955018Y-66440976D01*
X145827183Y-66388026D01*
X145820754Y-66387180D01*
X145820752Y-66387179D01*
X145714822Y-66373233D01*
X145690000Y-66369965D01*
X145665178Y-66373233D01*
X145559248Y-66387179D01*
X145559246Y-66387180D01*
X145552817Y-66388026D01*
X145507736Y-66406699D01*
X145462621Y-66425386D01*
X145401625Y-66430187D01*
X145349456Y-66398217D01*
X145333272Y-66371808D01*
X145326385Y-66355181D01*
X145289024Y-66264983D01*
X145204791Y-66155209D01*
X145095018Y-66070976D01*
X144967183Y-66018026D01*
X144960754Y-66017180D01*
X144960752Y-66017179D01*
X144836433Y-66000812D01*
X144830000Y-65999965D01*
X144823567Y-66000812D01*
X144699248Y-66017179D01*
X144699246Y-66017180D01*
X144692817Y-66018026D01*
X144653592Y-66034273D01*
X144570981Y-66068491D01*
X144570977Y-66068493D01*
X144564983Y-66070976D01*
X144455209Y-66155209D01*
X144370976Y-66264983D01*
X144368493Y-66270977D01*
X144368491Y-66270981D01*
X144318026Y-66392817D01*
X144316151Y-66392040D01*
X144296055Y-66426842D01*
X144060334Y-66662563D01*
X144005817Y-66690340D01*
X143945385Y-66680769D01*
X143902120Y-66637504D01*
X143892177Y-66579636D01*
X143893028Y-66573177D01*
X143900035Y-66519952D01*
X143892261Y-66460906D01*
X143882821Y-66389200D01*
X143882820Y-66389198D01*
X143881974Y-66382769D01*
X143844715Y-66292817D01*
X143831509Y-66260933D01*
X143831507Y-66260929D01*
X143829024Y-66254935D01*
X143744791Y-66145161D01*
X143635018Y-66060928D01*
X143507183Y-66007978D01*
X143500754Y-66007132D01*
X143500752Y-66007131D01*
X143376433Y-65990764D01*
X143370000Y-65989917D01*
X143363567Y-65990764D01*
X143239248Y-66007131D01*
X143239246Y-66007132D01*
X143232817Y-66007978D01*
X143210604Y-66017179D01*
X143110981Y-66058443D01*
X143110977Y-66058445D01*
X143104983Y-66060928D01*
X142995209Y-66145161D01*
X142910976Y-66254935D01*
X142863330Y-66369965D01*
X142861011Y-66375563D01*
X142845245Y-66400905D01*
X142845329Y-66400968D01*
X142844606Y-66401932D01*
X142844602Y-66401938D01*
X142843041Y-66404021D01*
X142843035Y-66404028D01*
X142828322Y-66423660D01*
X142823003Y-66427405D01*
X142824376Y-66428578D01*
X142759805Y-66504180D01*
X142689857Y-66618324D01*
X142638627Y-66742005D01*
X142607375Y-66872177D01*
X142605854Y-66891508D01*
X142604148Y-66913184D01*
X142602625Y-66924354D01*
X142601723Y-66928982D01*
X142600020Y-66934367D01*
X142599500Y-66940974D01*
X142599500Y-66959516D01*
X142598128Y-66975943D01*
X142595003Y-66994515D01*
X142594867Y-67005635D01*
X142598298Y-67029590D01*
X142598500Y-67031004D01*
X142599500Y-67045038D01*
X142599500Y-73148194D01*
X142598128Y-73164619D01*
X142595003Y-73183194D01*
X142594867Y-73194314D01*
X133776544Y-73194314D01*
X133799024Y-73165017D01*
X133801507Y-73159023D01*
X133801509Y-73159019D01*
X133843691Y-73057179D01*
X133851974Y-73037183D01*
X133853549Y-73025226D01*
X133869188Y-72906433D01*
X133870035Y-72900000D01*
X133854071Y-72778742D01*
X133852821Y-72769248D01*
X133852820Y-72769246D01*
X133851974Y-72762817D01*
X133834172Y-72719839D01*
X133801509Y-72640981D01*
X133801507Y-72640977D01*
X133799024Y-72634983D01*
X133795073Y-72629833D01*
X133795070Y-72629829D01*
X133757040Y-72580268D01*
X133736615Y-72522592D01*
X133757040Y-72459732D01*
X133795070Y-72410171D01*
X133795073Y-72410167D01*
X133799024Y-72405017D01*
X133801507Y-72399023D01*
X133801509Y-72399019D01*
X133849491Y-72283177D01*
X133851974Y-72277183D01*
X133853866Y-72262817D01*
X133869188Y-72146433D01*
X133870035Y-72140000D01*
X133861884Y-72078085D01*
X133852821Y-72009248D01*
X133852820Y-72009246D01*
X133851974Y-72002817D01*
X133829340Y-71948172D01*
X133801509Y-71880981D01*
X133801507Y-71880977D01*
X133799024Y-71874983D01*
X133714791Y-71765209D01*
X133605018Y-71680976D01*
X133477183Y-71628026D01*
X133470754Y-71627180D01*
X133470752Y-71627179D01*
X133346433Y-71610812D01*
X133340000Y-71609965D01*
X133333567Y-71610812D01*
X133209248Y-71627179D01*
X133209246Y-71627180D01*
X133202817Y-71628026D01*
X133163592Y-71644273D01*
X133080981Y-71678491D01*
X133080977Y-71678493D01*
X133074983Y-71680976D01*
X132965209Y-71765209D01*
X132880976Y-71874983D01*
X132878493Y-71880977D01*
X132878491Y-71880981D01*
X132850660Y-71948172D01*
X132828026Y-72002817D01*
X132827180Y-72009246D01*
X132827179Y-72009248D01*
X132818116Y-72078085D01*
X132809965Y-72140000D01*
X132810812Y-72146433D01*
X132826135Y-72262817D01*
X132828026Y-72277183D01*
X132830509Y-72283177D01*
X132878491Y-72399019D01*
X132878493Y-72399023D01*
X132880976Y-72405017D01*
X132884927Y-72410167D01*
X132884930Y-72410171D01*
X132922960Y-72459732D01*
X132943385Y-72517408D01*
X132922960Y-72580268D01*
X132884930Y-72629829D01*
X132884927Y-72629833D01*
X132880976Y-72634983D01*
X132878493Y-72640977D01*
X132878491Y-72640981D01*
X132845828Y-72719839D01*
X132828026Y-72762817D01*
X132827180Y-72769246D01*
X132827179Y-72769248D01*
X132825929Y-72778742D01*
X132809965Y-72900000D01*
X113400000Y-72900000D01*
X113400000Y-70504978D01*
X113400773Y-70492632D01*
X113403175Y-70473524D01*
X113403175Y-70473522D01*
X113404255Y-70464929D01*
X113402639Y-70457836D01*
X113403590Y-70439938D01*
X113407589Y-70414456D01*
X113421827Y-70376721D01*
X113434837Y-70356241D01*
X113438302Y-70350787D01*
X113466405Y-70321867D01*
X113491859Y-70304653D01*
X113529174Y-70289340D01*
X113554537Y-70284613D01*
X113572392Y-70283150D01*
X113579527Y-70284562D01*
X113588087Y-70283236D01*
X113588089Y-70283236D01*
X113601444Y-70281167D01*
X113616599Y-70280000D01*
X114103858Y-70280000D01*
X114118792Y-70281133D01*
X114141166Y-70284547D01*
X114149661Y-70282846D01*
X114150041Y-70282837D01*
X114155952Y-70281891D01*
X114290682Y-70265666D01*
X114433966Y-70219245D01*
X114565653Y-70146142D01*
X114638699Y-70084588D01*
X114677165Y-70052174D01*
X114677167Y-70052172D01*
X114680829Y-70049086D01*
X114715938Y-70005412D01*
X128955772Y-70005412D01*
X128965695Y-70163138D01*
X128984404Y-70220719D01*
X129009656Y-70298433D01*
X129014532Y-70313441D01*
X129017870Y-70318701D01*
X129017871Y-70318703D01*
X129065725Y-70394108D01*
X129099213Y-70446877D01*
X129214417Y-70555062D01*
X129219880Y-70558065D01*
X129219881Y-70558066D01*
X129347449Y-70628197D01*
X129347453Y-70628198D01*
X129352907Y-70631197D01*
X129358933Y-70632744D01*
X129358935Y-70632745D01*
X129499945Y-70668951D01*
X129499949Y-70668952D01*
X129505980Y-70670500D01*
X129924349Y-70670500D01*
X130041791Y-70655664D01*
X130188731Y-70597486D01*
X130302163Y-70515073D01*
X130311550Y-70508253D01*
X130311551Y-70508252D01*
X130316586Y-70504594D01*
X130320552Y-70499800D01*
X130320555Y-70499797D01*
X130413353Y-70387622D01*
X130417323Y-70382823D01*
X130484613Y-70239826D01*
X130488983Y-70216921D01*
X130513059Y-70090704D01*
X130514226Y-70084588D01*
X130504303Y-69926862D01*
X130468493Y-69816650D01*
X130457392Y-69782486D01*
X130457391Y-69782485D01*
X130455466Y-69776559D01*
X130448142Y-69765017D01*
X130374122Y-69648381D01*
X130374121Y-69648380D01*
X130370785Y-69643123D01*
X130255581Y-69534938D01*
X130241751Y-69527335D01*
X130122549Y-69461803D01*
X130122545Y-69461802D01*
X130117091Y-69458803D01*
X130111065Y-69457256D01*
X130111063Y-69457255D01*
X129970053Y-69421049D01*
X129970049Y-69421048D01*
X129964018Y-69419500D01*
X129545649Y-69419500D01*
X129428207Y-69434336D01*
X129281267Y-69492514D01*
X129153412Y-69585406D01*
X129149446Y-69590200D01*
X129149443Y-69590203D01*
X129059812Y-69698550D01*
X129052675Y-69707177D01*
X128985385Y-69850174D01*
X128984219Y-69856288D01*
X128984218Y-69856290D01*
X128971887Y-69920935D01*
X128955772Y-70005412D01*
X114715938Y-70005412D01*
X114775197Y-69931698D01*
X114839201Y-69809845D01*
X114843008Y-69802598D01*
X114843009Y-69802597D01*
X114845236Y-69798356D01*
X114888333Y-69654037D01*
X114894527Y-69590203D01*
X114896201Y-69572952D01*
X114897307Y-69566416D01*
X114898509Y-69563404D01*
X114899124Y-69557131D01*
X114899124Y-69547615D01*
X114899587Y-69538054D01*
X114901438Y-69518977D01*
X114902249Y-69513036D01*
X114902249Y-69512650D01*
X114903752Y-69504124D01*
X114900628Y-69486406D01*
X114899124Y-69469216D01*
X114899124Y-68688402D01*
X130304940Y-68688402D01*
X130305595Y-68694335D01*
X130305595Y-68694339D01*
X130317687Y-68803867D01*
X130321553Y-68838883D01*
X130323605Y-68844490D01*
X130371529Y-68975451D01*
X130371531Y-68975455D01*
X130373581Y-68981057D01*
X130458021Y-69106716D01*
X130462433Y-69110731D01*
X130462436Y-69110734D01*
X130564938Y-69204004D01*
X130569997Y-69208607D01*
X130618575Y-69234983D01*
X130697800Y-69277999D01*
X130697802Y-69278000D01*
X130703046Y-69280847D01*
X130779481Y-69300899D01*
X130843716Y-69317751D01*
X130843720Y-69317751D01*
X130849485Y-69319264D01*
X130855446Y-69319358D01*
X130855449Y-69319358D01*
X130925174Y-69320453D01*
X131000862Y-69321642D01*
X131006678Y-69320310D01*
X131142613Y-69289177D01*
X131142616Y-69289176D01*
X131148436Y-69287843D01*
X131283688Y-69219819D01*
X131283692Y-69219827D01*
X131340360Y-69204004D01*
X131383455Y-69215914D01*
X131418575Y-69234983D01*
X131458234Y-69256516D01*
X131500351Y-69300899D01*
X131509148Y-69356441D01*
X131504940Y-69388402D01*
X131505595Y-69394335D01*
X131505595Y-69394339D01*
X131518916Y-69514999D01*
X131521553Y-69538883D01*
X131526415Y-69552168D01*
X131571529Y-69675451D01*
X131571530Y-69675453D01*
X131573581Y-69681057D01*
X131658021Y-69806716D01*
X131662433Y-69810731D01*
X131662436Y-69810734D01*
X131764938Y-69904004D01*
X131769997Y-69908607D01*
X131804705Y-69927452D01*
X131897800Y-69977999D01*
X131897802Y-69978000D01*
X131903046Y-69980847D01*
X131979797Y-70000982D01*
X132043716Y-70017751D01*
X132043720Y-70017751D01*
X132049485Y-70019264D01*
X132055446Y-70019358D01*
X132055449Y-70019358D01*
X132125173Y-70020453D01*
X132200862Y-70021642D01*
X132206678Y-70020310D01*
X132342613Y-69989177D01*
X132342616Y-69989176D01*
X132348436Y-69987843D01*
X132483688Y-69919819D01*
X132483692Y-69919827D01*
X132540360Y-69904004D01*
X132583455Y-69915914D01*
X132603618Y-69926862D01*
X132697800Y-69977999D01*
X132697802Y-69978000D01*
X132703046Y-69980847D01*
X132779797Y-70000982D01*
X132843716Y-70017751D01*
X132843720Y-70017751D01*
X132849485Y-70019264D01*
X132855446Y-70019358D01*
X132855449Y-70019358D01*
X132925173Y-70020453D01*
X133000862Y-70021642D01*
X133006678Y-70020310D01*
X133142613Y-69989177D01*
X133142616Y-69989176D01*
X133148436Y-69987843D01*
X133283688Y-69919819D01*
X133283692Y-69919827D01*
X133340360Y-69904004D01*
X133383455Y-69915914D01*
X133403618Y-69926862D01*
X133497800Y-69977999D01*
X133497802Y-69978000D01*
X133503046Y-69980847D01*
X133579797Y-70000982D01*
X133643716Y-70017751D01*
X133643720Y-70017751D01*
X133649485Y-70019264D01*
X133655446Y-70019358D01*
X133655449Y-70019358D01*
X133725173Y-70020453D01*
X133800862Y-70021642D01*
X133806678Y-70020310D01*
X133942613Y-69989177D01*
X133942616Y-69989176D01*
X133948436Y-69987843D01*
X134083688Y-69919819D01*
X134083692Y-69919827D01*
X134140360Y-69904004D01*
X134183455Y-69915914D01*
X134203618Y-69926862D01*
X134297800Y-69977999D01*
X134297802Y-69978000D01*
X134303046Y-69980847D01*
X134379797Y-70000982D01*
X134443716Y-70017751D01*
X134443720Y-70017751D01*
X134449485Y-70019264D01*
X134455446Y-70019358D01*
X134455449Y-70019358D01*
X134525173Y-70020453D01*
X134600862Y-70021642D01*
X134606678Y-70020310D01*
X134671727Y-70005412D01*
X136305772Y-70005412D01*
X136315695Y-70163138D01*
X136334404Y-70220719D01*
X136359656Y-70298433D01*
X136364532Y-70313441D01*
X136367870Y-70318701D01*
X136367871Y-70318703D01*
X136415725Y-70394108D01*
X136449213Y-70446877D01*
X136564417Y-70555062D01*
X136569880Y-70558065D01*
X136569881Y-70558066D01*
X136697449Y-70628197D01*
X136697453Y-70628198D01*
X136702907Y-70631197D01*
X136708933Y-70632744D01*
X136708935Y-70632745D01*
X136849945Y-70668951D01*
X136849949Y-70668952D01*
X136855980Y-70670500D01*
X136974349Y-70670500D01*
X137091791Y-70655664D01*
X137238731Y-70597486D01*
X137352163Y-70515073D01*
X137361550Y-70508253D01*
X137361551Y-70508252D01*
X137366586Y-70504594D01*
X137370552Y-70499800D01*
X137370555Y-70499797D01*
X137463353Y-70387622D01*
X137467323Y-70382823D01*
X137534613Y-70239826D01*
X137538983Y-70216921D01*
X137563059Y-70090704D01*
X137564226Y-70084588D01*
X137554303Y-69926862D01*
X137518493Y-69816650D01*
X137507392Y-69782486D01*
X137507391Y-69782485D01*
X137505466Y-69776559D01*
X137498142Y-69765017D01*
X137424122Y-69648381D01*
X137424121Y-69648380D01*
X137420785Y-69643123D01*
X137305581Y-69534938D01*
X137291751Y-69527335D01*
X137172549Y-69461803D01*
X137172545Y-69461802D01*
X137167091Y-69458803D01*
X137161065Y-69457256D01*
X137161063Y-69457255D01*
X137020053Y-69421049D01*
X137020049Y-69421048D01*
X137014018Y-69419500D01*
X136895649Y-69419500D01*
X136778207Y-69434336D01*
X136631267Y-69492514D01*
X136503412Y-69585406D01*
X136499446Y-69590200D01*
X136499443Y-69590203D01*
X136409812Y-69698550D01*
X136402675Y-69707177D01*
X136335385Y-69850174D01*
X136334219Y-69856288D01*
X136334218Y-69856290D01*
X136321887Y-69920935D01*
X136305772Y-70005412D01*
X134671727Y-70005412D01*
X134742613Y-69989177D01*
X134742616Y-69989176D01*
X134748436Y-69987843D01*
X134759336Y-69982361D01*
X134878354Y-69922502D01*
X134878356Y-69922501D01*
X134883688Y-69919819D01*
X134998809Y-69821495D01*
X135061439Y-69734337D01*
X135083671Y-69703399D01*
X135083672Y-69703397D01*
X135087155Y-69698550D01*
X135143623Y-69558080D01*
X135159281Y-69448066D01*
X135164499Y-69411401D01*
X135164499Y-69411399D01*
X135164955Y-69408196D01*
X135165093Y-69395000D01*
X135161977Y-69369248D01*
X135160273Y-69355168D01*
X135172053Y-69295127D01*
X135214074Y-69254831D01*
X135229477Y-69247084D01*
X135283688Y-69219819D01*
X135283692Y-69219827D01*
X135340360Y-69204004D01*
X135383455Y-69215914D01*
X135390647Y-69219819D01*
X135497800Y-69277999D01*
X135497802Y-69278000D01*
X135503046Y-69280847D01*
X135579481Y-69300899D01*
X135643716Y-69317751D01*
X135643720Y-69317751D01*
X135649485Y-69319264D01*
X135655446Y-69319358D01*
X135655449Y-69319358D01*
X135725174Y-69320453D01*
X135800862Y-69321642D01*
X135806678Y-69320310D01*
X135942613Y-69289177D01*
X135942616Y-69289176D01*
X135948436Y-69287843D01*
X135959336Y-69282361D01*
X136078354Y-69222502D01*
X136078356Y-69222501D01*
X136083688Y-69219819D01*
X136198809Y-69121495D01*
X136253829Y-69044927D01*
X136283671Y-69003399D01*
X136283672Y-69003397D01*
X136287155Y-68998550D01*
X136343623Y-68858080D01*
X136361424Y-68733008D01*
X136364499Y-68711401D01*
X136364499Y-68711399D01*
X136364955Y-68708196D01*
X136365093Y-68695000D01*
X136346905Y-68544701D01*
X136316565Y-68464407D01*
X136295501Y-68408664D01*
X136293391Y-68403080D01*
X136207639Y-68278311D01*
X136157471Y-68233613D01*
X136099056Y-68181567D01*
X136099054Y-68181566D01*
X136094602Y-68177599D01*
X136083127Y-68171523D01*
X136047051Y-68152422D01*
X135960804Y-68106757D01*
X135955016Y-68105303D01*
X135955013Y-68105302D01*
X135819759Y-68071328D01*
X135819760Y-68071328D01*
X135813971Y-68069874D01*
X135738274Y-68069478D01*
X135668544Y-68069113D01*
X135668542Y-68069113D01*
X135662578Y-68069082D01*
X135515366Y-68104424D01*
X135380834Y-68173861D01*
X135379627Y-68171523D01*
X135331197Y-68185572D01*
X135288022Y-68174115D01*
X135260687Y-68159642D01*
X135160804Y-68106757D01*
X135155016Y-68105303D01*
X135155013Y-68105302D01*
X135019759Y-68071328D01*
X135019760Y-68071328D01*
X135013971Y-68069874D01*
X134938274Y-68069478D01*
X134868544Y-68069113D01*
X134868542Y-68069113D01*
X134862578Y-68069082D01*
X134715366Y-68104424D01*
X134580834Y-68173861D01*
X134579627Y-68171523D01*
X134531197Y-68185572D01*
X134488022Y-68174115D01*
X134460687Y-68159642D01*
X134360804Y-68106757D01*
X134355016Y-68105303D01*
X134355013Y-68105302D01*
X134219759Y-68071328D01*
X134219760Y-68071328D01*
X134213971Y-68069874D01*
X134138274Y-68069478D01*
X134068544Y-68069113D01*
X134068542Y-68069113D01*
X134062578Y-68069082D01*
X133915366Y-68104424D01*
X133862977Y-68131464D01*
X133786140Y-68171122D01*
X133786138Y-68171124D01*
X133780834Y-68173861D01*
X133666748Y-68273385D01*
X133663317Y-68278267D01*
X133663316Y-68278268D01*
X133604487Y-68361974D01*
X133579695Y-68397249D01*
X133577528Y-68402807D01*
X133577527Y-68402809D01*
X133527285Y-68531675D01*
X133524701Y-68538302D01*
X133523922Y-68544217D01*
X133523922Y-68544218D01*
X133523241Y-68549391D01*
X133504940Y-68688402D01*
X133505595Y-68694335D01*
X133505595Y-68694339D01*
X133510154Y-68735631D01*
X133497746Y-68795545D01*
X133457159Y-68834467D01*
X133380835Y-68873861D01*
X133379628Y-68871523D01*
X133331197Y-68885572D01*
X133288023Y-68874115D01*
X133213111Y-68834452D01*
X133170531Y-68790514D01*
X133161423Y-68733010D01*
X133164955Y-68708196D01*
X133165093Y-68695000D01*
X133146905Y-68544701D01*
X133116565Y-68464407D01*
X133095501Y-68408664D01*
X133093391Y-68403080D01*
X133007639Y-68278311D01*
X132957471Y-68233613D01*
X132899056Y-68181567D01*
X132899054Y-68181566D01*
X132894602Y-68177599D01*
X132883127Y-68171523D01*
X132847051Y-68152422D01*
X132760804Y-68106757D01*
X132755016Y-68105303D01*
X132755013Y-68105302D01*
X132619759Y-68071328D01*
X132619760Y-68071328D01*
X132613971Y-68069874D01*
X132538274Y-68069478D01*
X132468544Y-68069113D01*
X132468542Y-68069113D01*
X132462578Y-68069082D01*
X132315366Y-68104424D01*
X132180834Y-68173861D01*
X132179627Y-68171523D01*
X132131197Y-68185572D01*
X132088022Y-68174115D01*
X132060687Y-68159642D01*
X131960804Y-68106757D01*
X131955016Y-68105303D01*
X131955013Y-68105302D01*
X131819759Y-68071328D01*
X131819760Y-68071328D01*
X131813971Y-68069874D01*
X131738274Y-68069478D01*
X131668544Y-68069113D01*
X131668542Y-68069113D01*
X131662578Y-68069082D01*
X131515366Y-68104424D01*
X131380834Y-68173861D01*
X131379627Y-68171523D01*
X131331197Y-68185572D01*
X131288022Y-68174115D01*
X131260687Y-68159642D01*
X131160804Y-68106757D01*
X131155016Y-68105303D01*
X131155013Y-68105302D01*
X131019759Y-68071328D01*
X131019760Y-68071328D01*
X131013971Y-68069874D01*
X130938274Y-68069478D01*
X130868544Y-68069113D01*
X130868542Y-68069113D01*
X130862578Y-68069082D01*
X130715366Y-68104424D01*
X130662977Y-68131464D01*
X130586140Y-68171122D01*
X130586138Y-68171124D01*
X130580834Y-68173861D01*
X130466748Y-68273385D01*
X130463317Y-68278267D01*
X130463316Y-68278268D01*
X130404487Y-68361974D01*
X130379695Y-68397249D01*
X130377528Y-68402807D01*
X130377527Y-68402809D01*
X130327285Y-68531675D01*
X130324701Y-68538302D01*
X130323922Y-68544217D01*
X130323922Y-68544218D01*
X130323241Y-68549391D01*
X130304940Y-68688402D01*
X114899124Y-68688402D01*
X114899124Y-68490784D01*
X114900628Y-68473593D01*
X114902248Y-68464407D01*
X114902248Y-68464406D01*
X114903752Y-68455876D01*
X114902299Y-68447637D01*
X114902247Y-68447119D01*
X114902247Y-68446257D01*
X114901931Y-68443969D01*
X114887610Y-68301070D01*
X114885875Y-68295453D01*
X114866767Y-68233613D01*
X114854108Y-68192642D01*
X114854994Y-68131464D01*
X114891671Y-68082490D01*
X114950130Y-68064427D01*
X115006887Y-68083324D01*
X115257516Y-68265416D01*
X115325555Y-68302821D01*
X115530512Y-68415498D01*
X115530518Y-68415501D01*
X115533234Y-68416994D01*
X115536122Y-68418137D01*
X115536121Y-68418137D01*
X115822885Y-68531675D01*
X115822888Y-68531676D01*
X115825775Y-68532819D01*
X115828778Y-68533590D01*
X115828784Y-68533592D01*
X116127520Y-68610294D01*
X116130527Y-68611066D01*
X116133608Y-68611455D01*
X116133612Y-68611456D01*
X116238721Y-68624734D01*
X116442682Y-68650500D01*
X116757318Y-68650500D01*
X116961279Y-68624734D01*
X117066388Y-68611456D01*
X117066392Y-68611455D01*
X117069473Y-68611066D01*
X117072480Y-68610294D01*
X117371216Y-68533592D01*
X117371222Y-68533590D01*
X117374225Y-68532819D01*
X117377112Y-68531676D01*
X117377115Y-68531675D01*
X117663879Y-68418137D01*
X117663878Y-68418137D01*
X117666766Y-68416994D01*
X117669482Y-68415501D01*
X117669488Y-68415498D01*
X117874445Y-68302821D01*
X117942484Y-68265416D01*
X118197030Y-68080478D01*
X118426390Y-67865094D01*
X118552365Y-67712817D01*
X118624967Y-67625057D01*
X118624971Y-67625052D01*
X118626947Y-67622663D01*
X118795537Y-67357007D01*
X118796854Y-67354207D01*
X118796859Y-67354199D01*
X118928176Y-67075135D01*
X118929503Y-67072315D01*
X118951169Y-67005635D01*
X119025773Y-66776029D01*
X119025775Y-66776021D01*
X119026731Y-66773079D01*
X119085688Y-66464015D01*
X119086689Y-66448117D01*
X119105249Y-66153099D01*
X119105444Y-66150000D01*
X119090656Y-65914952D01*
X119085884Y-65839094D01*
X119085883Y-65839088D01*
X119085688Y-65835985D01*
X119026731Y-65526921D01*
X119025775Y-65523979D01*
X119025773Y-65523971D01*
X118930465Y-65230646D01*
X118929503Y-65227685D01*
X118879543Y-65121515D01*
X118796859Y-64945801D01*
X118796854Y-64945793D01*
X118795537Y-64942993D01*
X118787291Y-64930000D01*
X141099965Y-64930000D01*
X141100812Y-64936433D01*
X141114717Y-65042046D01*
X141118026Y-65067183D01*
X141120509Y-65073177D01*
X141168491Y-65189019D01*
X141168493Y-65189023D01*
X141170976Y-65195017D01*
X141255209Y-65304791D01*
X141364982Y-65389024D01*
X141492817Y-65441974D01*
X141499246Y-65442820D01*
X141499248Y-65442821D01*
X141623567Y-65459188D01*
X141630000Y-65460035D01*
X141636433Y-65459188D01*
X141760752Y-65442821D01*
X141760754Y-65442820D01*
X141767183Y-65441974D01*
X141895018Y-65389024D01*
X142004791Y-65304791D01*
X142089024Y-65195017D01*
X142091507Y-65189023D01*
X142091509Y-65189019D01*
X142139491Y-65073177D01*
X142141974Y-65067183D01*
X142145284Y-65042046D01*
X142159188Y-64936433D01*
X142160035Y-64930000D01*
X142156767Y-64905178D01*
X142142821Y-64799248D01*
X142142820Y-64799246D01*
X142141974Y-64792817D01*
X142103094Y-64698951D01*
X142091509Y-64670981D01*
X142091507Y-64670977D01*
X142089024Y-64664983D01*
X142004791Y-64555209D01*
X141895018Y-64470976D01*
X141767183Y-64418026D01*
X141760754Y-64417180D01*
X141760752Y-64417179D01*
X141636433Y-64400812D01*
X141630000Y-64399965D01*
X141623567Y-64400812D01*
X141499248Y-64417179D01*
X141499246Y-64417180D01*
X141492817Y-64418026D01*
X141457205Y-64432777D01*
X141370981Y-64468491D01*
X141370977Y-64468493D01*
X141364983Y-64470976D01*
X141255209Y-64555209D01*
X141170976Y-64664983D01*
X141168493Y-64670977D01*
X141168491Y-64670981D01*
X141156906Y-64698951D01*
X141118026Y-64792817D01*
X141117180Y-64799246D01*
X141117179Y-64799248D01*
X141103233Y-64905178D01*
X141099965Y-64930000D01*
X118787291Y-64930000D01*
X118626947Y-64677337D01*
X118612468Y-64659834D01*
X118428371Y-64437301D01*
X118426390Y-64434906D01*
X118197030Y-64219522D01*
X117942484Y-64034584D01*
X117858691Y-63988518D01*
X117669488Y-63884502D01*
X117669482Y-63884499D01*
X117666766Y-63883006D01*
X117391352Y-63773962D01*
X117377115Y-63768325D01*
X117377112Y-63768324D01*
X117374225Y-63767181D01*
X117371222Y-63766410D01*
X117371216Y-63766408D01*
X117072480Y-63689706D01*
X117072479Y-63689706D01*
X117069473Y-63688934D01*
X117066392Y-63688545D01*
X117066388Y-63688544D01*
X116961279Y-63675266D01*
X116757318Y-63649500D01*
X116442682Y-63649500D01*
X116238721Y-63675266D01*
X116133612Y-63688544D01*
X116133608Y-63688545D01*
X116130527Y-63688934D01*
X116127521Y-63689706D01*
X116127520Y-63689706D01*
X115828784Y-63766408D01*
X115828778Y-63766410D01*
X115825775Y-63767181D01*
X115822888Y-63768324D01*
X115822885Y-63768325D01*
X115808648Y-63773962D01*
X115533234Y-63883006D01*
X115530518Y-63884499D01*
X115530512Y-63884502D01*
X115341309Y-63988518D01*
X115257516Y-64034584D01*
X115002970Y-64219522D01*
X114773610Y-64434906D01*
X114771629Y-64437301D01*
X114587533Y-64659834D01*
X114573053Y-64677337D01*
X114404463Y-64942993D01*
X114403146Y-64945793D01*
X114403141Y-64945801D01*
X114320457Y-65121515D01*
X114270497Y-65227685D01*
X114269535Y-65230646D01*
X114174227Y-65523971D01*
X114174225Y-65523979D01*
X114173269Y-65526921D01*
X114114312Y-65835985D01*
X114114117Y-65839088D01*
X114114116Y-65839094D01*
X114109344Y-65914952D01*
X114094556Y-66150000D01*
X114094751Y-66153099D01*
X114113312Y-66448117D01*
X114114312Y-66464015D01*
X114173269Y-66773079D01*
X114174225Y-66776021D01*
X114174227Y-66776029D01*
X114248831Y-67005635D01*
X114270497Y-67072315D01*
X114271824Y-67075135D01*
X114403141Y-67354199D01*
X114403146Y-67354207D01*
X114404463Y-67357007D01*
X114406121Y-67359619D01*
X114406130Y-67359636D01*
X114558596Y-67599883D01*
X114573813Y-67659146D01*
X114551289Y-67716035D01*
X114499628Y-67748820D01*
X114438564Y-67744978D01*
X114429997Y-67741106D01*
X114425160Y-67738637D01*
X114406682Y-67729204D01*
X114256829Y-67687373D01*
X114173967Y-67681360D01*
X114169325Y-67680633D01*
X114169280Y-67680615D01*
X114167126Y-67680404D01*
X114165408Y-67680235D01*
X114165400Y-67680235D01*
X114163007Y-67680000D01*
X114158800Y-67680000D01*
X114151636Y-67679740D01*
X114138211Y-67678766D01*
X114113584Y-67676979D01*
X114111302Y-67676728D01*
X114110447Y-67676751D01*
X114109904Y-67676712D01*
X114101638Y-67675487D01*
X114089420Y-67677989D01*
X114069569Y-67680000D01*
X113591114Y-67680000D01*
X113581478Y-67678766D01*
X113581441Y-67679230D01*
X113572807Y-67678535D01*
X113564429Y-67676353D01*
X113556530Y-67677100D01*
X113539117Y-67673996D01*
X113516770Y-67667752D01*
X113482956Y-67650799D01*
X113459331Y-67632579D01*
X113434345Y-67604186D01*
X113419276Y-67578434D01*
X113406762Y-67542743D01*
X113403409Y-67519785D01*
X113402544Y-67502116D01*
X113404289Y-67494375D01*
X113400801Y-67467128D01*
X113400000Y-67454557D01*
X113400000Y-65784908D01*
X113401504Y-65767717D01*
X113403124Y-65758530D01*
X113404628Y-65750000D01*
X113403109Y-65741384D01*
X113401761Y-65718644D01*
X113412356Y-65529974D01*
X113417297Y-65442000D01*
X113418539Y-65430973D01*
X113418616Y-65430523D01*
X113469280Y-65132338D01*
X113471750Y-65121515D01*
X113555610Y-64830428D01*
X113559277Y-64819948D01*
X113609396Y-64698951D01*
X113675203Y-64540079D01*
X113680017Y-64530083D01*
X113710501Y-64474927D01*
X113826548Y-64264957D01*
X113832450Y-64255563D01*
X113858023Y-64219522D01*
X114007743Y-64008511D01*
X114014664Y-63999832D01*
X114216514Y-63773962D01*
X114224365Y-63766111D01*
X114450235Y-63564261D01*
X114458914Y-63557340D01*
X114705966Y-63382047D01*
X114715360Y-63376145D01*
X114980492Y-63229611D01*
X114990482Y-63224800D01*
X115270355Y-63108873D01*
X115280831Y-63105207D01*
X115571918Y-63021347D01*
X115582741Y-63018877D01*
X115718590Y-62995795D01*
X115881381Y-62968135D01*
X115892403Y-62966894D01*
X116144989Y-62952709D01*
X116169047Y-62951358D01*
X116191787Y-62952706D01*
X116200403Y-62954225D01*
X116218121Y-62951101D01*
X116235311Y-62949597D01*
X150372776Y-62949597D01*
X150389966Y-62951101D01*
G37*
G04 #@! TD.AperFunction*
G04 #@! TD*
M02*
