%FSLAX45Y45*%
G04 Gerber Fmt 4.5, Leading zero omitted, Abs format (unit mm)*
G04 Created by KiCad (PCBNEW (6.0.0)) date 2022-03-25 21:28:24*
%MOMM*%
%LPD*%
G01*
G04 APERTURE LIST*
%TA.AperFunction,Profile*%
%ADD10C,0.100000*%
%TD*%
%ADD11C,0.200000*%
%ADD12C,0.020000*%
%ADD13C,0.030000*%
%ADD14C,0.040000*%
%ADD15C,0.050000*%
%ADD16C,0.100000*%
%ADD17C,0.220000*%
G04 APERTURE END LIST*
D10*
X11413412Y-6998000D02*
X11358588Y-6998000D01*
X15350000Y-7046588D02*
G75*
G03*
X15301088Y-6999000I-47606J0D01*
G01*
X11310000Y-9370000D02*
X11310000Y-7048000D01*
X15200000Y-6951500D02*
G75*
G03*
X15247500Y-6999000I47500J0D01*
G01*
X15247588Y-6799088D02*
G75*
G03*
X15200088Y-6846588I0J-47500D01*
G01*
X11459912Y-6845588D02*
G75*
G03*
X11411000Y-6798000I-47606J0D01*
G01*
X11310000Y-6748000D02*
G75*
G03*
X11354000Y-6798000I47841J-2260D01*
G01*
X11459912Y-6845588D02*
X11459912Y-6950412D01*
X11413412Y-6998000D02*
G75*
G03*
X11459912Y-6950412I-1100J47588D01*
G01*
X15350000Y-9370000D02*
X11310000Y-9370000D01*
X15247588Y-6799088D02*
X15303055Y-6799088D01*
X15350000Y-6753000D02*
X15350000Y-6575000D01*
X11354000Y-6798000D02*
X11411000Y-6798000D01*
X15301088Y-6999000D02*
X15247500Y-6999000D01*
X15350000Y-6575000D02*
G75*
G03*
X15040768Y-6264960I-309232J808D01*
G01*
X11620040Y-6264960D02*
G75*
G03*
X11310000Y-6575000I0J-310040D01*
G01*
X11310000Y-6748000D02*
X11310000Y-6575000D01*
X15303055Y-6799088D02*
G75*
G03*
X15350000Y-6753000I-872J47841D01*
G01*
X15200088Y-6846588D02*
X15200000Y-6951500D01*
X11358588Y-6998000D02*
G75*
G03*
X11310000Y-7048000I-993J-47643D01*
G01*
X11620040Y-6264960D02*
X15040768Y-6264960D01*
X15350000Y-7046588D02*
X15350000Y-9370000D01*
D11*
D12*
X12119250Y-7610000D02*
X12139250Y-7630000D01*
X12139250Y-7610000D02*
X12119250Y-7630000D01*
X13030000Y-7898000D02*
X13050000Y-7918000D01*
X13050000Y-7898000D02*
X13030000Y-7918000D01*
X13274500Y-7273057D02*
X13294500Y-7293057D01*
X13294500Y-7273057D02*
X13274500Y-7293057D01*
X13334500Y-7273057D02*
X13354500Y-7293057D01*
X13354500Y-7273057D02*
X13334500Y-7293057D01*
X13425000Y-7195000D02*
X13445000Y-7215000D01*
X13445000Y-7195000D02*
X13425000Y-7215000D01*
X13645787Y-7880213D02*
X13665787Y-7900213D01*
X13665787Y-7880213D02*
X13645787Y-7900213D01*
X13683000Y-8183000D02*
X13703000Y-8203000D01*
X13703000Y-8183000D02*
X13683000Y-8203000D01*
X13688213Y-7837787D02*
X13708213Y-7857787D01*
X13708213Y-7837787D02*
X13688213Y-7857787D01*
X13784000Y-7447000D02*
X13804000Y-7467000D01*
X13804000Y-7447000D02*
X13784000Y-7467000D01*
X13864000Y-8183000D02*
X13884000Y-8203000D01*
X13884000Y-8183000D02*
X13864000Y-8203000D01*
X13960000Y-7319000D02*
X13980000Y-7339000D01*
X13980000Y-7319000D02*
X13960000Y-7339000D01*
X13960000Y-7575000D02*
X13980000Y-7595000D01*
X13980000Y-7575000D02*
X13960000Y-7595000D01*
X14090321Y-7420270D02*
X14110321Y-7440270D01*
X14110321Y-7420270D02*
X14090321Y-7440270D01*
X14090321Y-7480270D02*
X14110321Y-7500270D01*
X14110321Y-7480270D02*
X14090321Y-7500270D01*
X14327000Y-6638000D02*
X14347000Y-6658000D01*
X14347000Y-6638000D02*
X14327000Y-6658000D01*
X14332000Y-7440000D02*
X14352000Y-7460000D01*
X14352000Y-7440000D02*
X14332000Y-7460000D01*
X14406500Y-7795000D02*
X14426500Y-7815000D01*
X14426500Y-7795000D02*
X14406500Y-7815000D01*
X14406500Y-7895000D02*
X14426500Y-7915000D01*
X14426500Y-7895000D02*
X14406500Y-7915000D01*
X14406500Y-7995000D02*
X14426500Y-8015000D01*
X14426500Y-7995000D02*
X14406500Y-8015000D01*
X14410000Y-7450000D02*
X14430000Y-7470000D01*
X14430000Y-7450000D02*
X14410000Y-7470000D01*
X14473000Y-6639000D02*
X14493000Y-6659000D01*
X14493000Y-6639000D02*
X14473000Y-6659000D01*
X14506500Y-7795000D02*
X14526500Y-7815000D01*
X14526500Y-7795000D02*
X14506500Y-7815000D01*
X14506500Y-7895000D02*
X14526500Y-7915000D01*
X14526500Y-7895000D02*
X14506500Y-7915000D01*
X14506500Y-7995000D02*
X14526500Y-8015000D01*
X14526500Y-7995000D02*
X14506500Y-8015000D01*
X14559000Y-6680000D02*
X14579000Y-6700000D01*
X14579000Y-6680000D02*
X14559000Y-6700000D01*
X14567000Y-7440000D02*
X14587000Y-7460000D01*
X14587000Y-7440000D02*
X14567000Y-7460000D01*
X14597000Y-6775000D02*
X14617000Y-6795000D01*
X14617000Y-6775000D02*
X14597000Y-6795000D01*
X14606500Y-7795000D02*
X14626500Y-7815000D01*
X14626500Y-7795000D02*
X14606500Y-7815000D01*
X14606500Y-7895000D02*
X14626500Y-7915000D01*
X14626500Y-7895000D02*
X14606500Y-7915000D01*
X14606500Y-7995000D02*
X14626500Y-8015000D01*
X14626500Y-7995000D02*
X14606500Y-8015000D01*
X14683000Y-7477000D02*
X14703000Y-7497000D01*
X14703000Y-7477000D02*
X14683000Y-7497000D01*
X14781000Y-8176000D02*
X14801000Y-8196000D01*
X14801000Y-8176000D02*
X14781000Y-8196000D01*
X14934500Y-8448500D02*
X14954500Y-8468500D01*
X14954500Y-8448500D02*
X14934500Y-8468500D01*
X15007000Y-7926000D02*
X15027000Y-7946000D01*
X15027000Y-7926000D02*
X15007000Y-7946000D01*
X15047500Y-7718000D02*
X15067500Y-7738000D01*
X15067500Y-7718000D02*
X15047500Y-7738000D01*
X15047500Y-7813000D02*
X15067500Y-7833000D01*
X15067500Y-7813000D02*
X15047500Y-7833000D01*
X15193000Y-8377000D02*
X15213000Y-8397000D01*
X15213000Y-8377000D02*
X15193000Y-8397000D01*
D13*
X11415000Y-7100000D02*
G75*
G03*
X11415000Y-7100000I-15000J0D01*
G01*
X11415000Y-7200000D02*
G75*
G03*
X11415000Y-7200000I-15000J0D01*
G01*
X11415000Y-7300000D02*
G75*
G03*
X11415000Y-7300000I-15000J0D01*
G01*
X11415000Y-7400000D02*
G75*
G03*
X11415000Y-7400000I-15000J0D01*
G01*
X11415000Y-7500000D02*
G75*
G03*
X11415000Y-7500000I-15000J0D01*
G01*
X11415000Y-7600000D02*
G75*
G03*
X11415000Y-7600000I-15000J0D01*
G01*
X11415000Y-7700000D02*
G75*
G03*
X11415000Y-7700000I-15000J0D01*
G01*
X11415000Y-7800000D02*
G75*
G03*
X11415000Y-7800000I-15000J0D01*
G01*
X11415000Y-7900000D02*
G75*
G03*
X11415000Y-7900000I-15000J0D01*
G01*
X11415000Y-8000000D02*
G75*
G03*
X11415000Y-8000000I-15000J0D01*
G01*
X11415000Y-8100000D02*
G75*
G03*
X11415000Y-8100000I-15000J0D01*
G01*
X11415000Y-8200000D02*
G75*
G03*
X11415000Y-8200000I-15000J0D01*
G01*
X11415000Y-8300000D02*
G75*
G03*
X11415000Y-8300000I-15000J0D01*
G01*
X11415000Y-8400000D02*
G75*
G03*
X11415000Y-8400000I-15000J0D01*
G01*
X11415000Y-8500000D02*
G75*
G03*
X11415000Y-8500000I-15000J0D01*
G01*
X11415000Y-8600000D02*
G75*
G03*
X11415000Y-8600000I-15000J0D01*
G01*
X11415000Y-8700000D02*
G75*
G03*
X11415000Y-8700000I-15000J0D01*
G01*
X11415000Y-8800000D02*
G75*
G03*
X11415000Y-8800000I-15000J0D01*
G01*
X11415000Y-8900000D02*
G75*
G03*
X11415000Y-8900000I-15000J0D01*
G01*
X11449000Y-9300000D02*
G75*
G03*
X11449000Y-9300000I-15000J0D01*
G01*
X11549000Y-9300000D02*
G75*
G03*
X11549000Y-9300000I-15000J0D01*
G01*
X11557000Y-6899000D02*
G75*
G03*
X11557000Y-6899000I-15000J0D01*
G01*
X11557000Y-7000000D02*
G75*
G03*
X11557000Y-7000000I-15000J0D01*
G01*
X11649000Y-9300000D02*
G75*
G03*
X11649000Y-9300000I-15000J0D01*
G01*
X11698000Y-8085000D02*
G75*
G03*
X11698000Y-8085000I-15000J0D01*
G01*
X11700000Y-7961000D02*
G75*
G03*
X11700000Y-7961000I-15000J0D01*
G01*
X11749000Y-9300000D02*
G75*
G03*
X11749000Y-9300000I-15000J0D01*
G01*
X11761000Y-7785000D02*
G75*
G03*
X11761000Y-7785000I-15000J0D01*
G01*
X11796000Y-8312000D02*
G75*
G03*
X11796000Y-8312000I-15000J0D01*
G01*
X11796000Y-8375000D02*
G75*
G03*
X11796000Y-8375000I-15000J0D01*
G01*
X11796000Y-8438000D02*
G75*
G03*
X11796000Y-8438000I-15000J0D01*
G01*
X11796000Y-8501000D02*
G75*
G03*
X11796000Y-8501000I-15000J0D01*
G01*
X11849000Y-9300000D02*
G75*
G03*
X11849000Y-9300000I-15000J0D01*
G01*
X11915000Y-6350000D02*
G75*
G03*
X11915000Y-6350000I-15000J0D01*
G01*
X11945000Y-7722500D02*
G75*
G03*
X11945000Y-7722500I-15000J0D01*
G01*
X11949000Y-9300000D02*
G75*
G03*
X11949000Y-9300000I-15000J0D01*
G01*
X12015000Y-6350000D02*
G75*
G03*
X12015000Y-6350000I-15000J0D01*
G01*
X12049000Y-9300000D02*
G75*
G03*
X12049000Y-9300000I-15000J0D01*
G01*
X12104000Y-8055000D02*
G75*
G03*
X12104000Y-8055000I-15000J0D01*
G01*
X12115000Y-6350000D02*
G75*
G03*
X12115000Y-6350000I-15000J0D01*
G01*
X12144000Y-7810000D02*
G75*
G03*
X12144000Y-7810000I-15000J0D01*
G01*
X12149000Y-9300000D02*
G75*
G03*
X12149000Y-9300000I-15000J0D01*
G01*
X12215000Y-6350000D02*
G75*
G03*
X12215000Y-6350000I-15000J0D01*
G01*
X12249000Y-9300000D02*
G75*
G03*
X12249000Y-9300000I-15000J0D01*
G01*
X12312500Y-8062500D02*
G75*
G03*
X12312500Y-8062500I-15000J0D01*
G01*
X12313000Y-8213000D02*
G75*
G03*
X12313000Y-8213000I-15000J0D01*
G01*
X12315000Y-6350000D02*
G75*
G03*
X12315000Y-6350000I-15000J0D01*
G01*
X12349000Y-9300000D02*
G75*
G03*
X12349000Y-9300000I-15000J0D01*
G01*
X12378500Y-8213000D02*
G75*
G03*
X12378500Y-8213000I-15000J0D01*
G01*
X12415000Y-6350000D02*
G75*
G03*
X12415000Y-6350000I-15000J0D01*
G01*
X12444000Y-8213000D02*
G75*
G03*
X12444000Y-8213000I-15000J0D01*
G01*
X12444000Y-8279000D02*
G75*
G03*
X12444000Y-8279000I-15000J0D01*
G01*
X12449000Y-9300000D02*
G75*
G03*
X12449000Y-9300000I-15000J0D01*
G01*
X12507000Y-8279000D02*
G75*
G03*
X12507000Y-8279000I-15000J0D01*
G01*
X12515000Y-6350000D02*
G75*
G03*
X12515000Y-6350000I-15000J0D01*
G01*
X12549000Y-9300000D02*
G75*
G03*
X12549000Y-9300000I-15000J0D01*
G01*
X12615000Y-6350000D02*
G75*
G03*
X12615000Y-6350000I-15000J0D01*
G01*
X12640000Y-6671000D02*
G75*
G03*
X12640000Y-6671000I-15000J0D01*
G01*
X12640000Y-6765500D02*
G75*
G03*
X12640000Y-6765500I-15000J0D01*
G01*
X12640000Y-6860000D02*
G75*
G03*
X12640000Y-6860000I-15000J0D01*
G01*
X12640000Y-6954500D02*
G75*
G03*
X12640000Y-6954500I-15000J0D01*
G01*
X12640000Y-7049000D02*
G75*
G03*
X12640000Y-7049000I-15000J0D01*
G01*
X12649000Y-9300000D02*
G75*
G03*
X12649000Y-9300000I-15000J0D01*
G01*
X12715000Y-6350000D02*
G75*
G03*
X12715000Y-6350000I-15000J0D01*
G01*
X12749000Y-9300000D02*
G75*
G03*
X12749000Y-9300000I-15000J0D01*
G01*
X12815000Y-6350000D02*
G75*
G03*
X12815000Y-6350000I-15000J0D01*
G01*
X12849000Y-9300000D02*
G75*
G03*
X12849000Y-9300000I-15000J0D01*
G01*
X12949000Y-9300000D02*
G75*
G03*
X12949000Y-9300000I-15000J0D01*
G01*
X13049000Y-9300000D02*
G75*
G03*
X13049000Y-9300000I-15000J0D01*
G01*
X13115000Y-6350000D02*
G75*
G03*
X13115000Y-6350000I-15000J0D01*
G01*
X13149000Y-9300000D02*
G75*
G03*
X13149000Y-9300000I-15000J0D01*
G01*
X13215000Y-6350000D02*
G75*
G03*
X13215000Y-6350000I-15000J0D01*
G01*
X13249000Y-9300000D02*
G75*
G03*
X13249000Y-9300000I-15000J0D01*
G01*
X13315000Y-6350000D02*
G75*
G03*
X13315000Y-6350000I-15000J0D01*
G01*
X13349000Y-9300000D02*
G75*
G03*
X13349000Y-9300000I-15000J0D01*
G01*
X13415000Y-6350000D02*
G75*
G03*
X13415000Y-6350000I-15000J0D01*
G01*
X13449000Y-9300000D02*
G75*
G03*
X13449000Y-9300000I-15000J0D01*
G01*
X13515000Y-6350000D02*
G75*
G03*
X13515000Y-6350000I-15000J0D01*
G01*
X13549000Y-9300000D02*
G75*
G03*
X13549000Y-9300000I-15000J0D01*
G01*
X13615000Y-6350000D02*
G75*
G03*
X13615000Y-6350000I-15000J0D01*
G01*
X13649000Y-9300000D02*
G75*
G03*
X13649000Y-9300000I-15000J0D01*
G01*
X13749000Y-9300000D02*
G75*
G03*
X13749000Y-9300000I-15000J0D01*
G01*
X13849000Y-9300000D02*
G75*
G03*
X13849000Y-9300000I-15000J0D01*
G01*
X13915000Y-6350000D02*
G75*
G03*
X13915000Y-6350000I-15000J0D01*
G01*
X13949000Y-9300000D02*
G75*
G03*
X13949000Y-9300000I-15000J0D01*
G01*
X14015000Y-6350000D02*
G75*
G03*
X14015000Y-6350000I-15000J0D01*
G01*
X14049000Y-9300000D02*
G75*
G03*
X14049000Y-9300000I-15000J0D01*
G01*
X14115000Y-6350000D02*
G75*
G03*
X14115000Y-6350000I-15000J0D01*
G01*
X14145000Y-7716000D02*
G75*
G03*
X14145000Y-7716000I-15000J0D01*
G01*
X14145500Y-7925000D02*
G75*
G03*
X14145500Y-7925000I-15000J0D01*
G01*
X14149000Y-9300000D02*
G75*
G03*
X14149000Y-9300000I-15000J0D01*
G01*
X14171000Y-8546000D02*
G75*
G03*
X14171000Y-8546000I-15000J0D01*
G01*
X14171000Y-8638000D02*
G75*
G03*
X14171000Y-8638000I-15000J0D01*
G01*
X14175000Y-7607000D02*
G75*
G03*
X14175000Y-7607000I-15000J0D01*
G01*
X14178000Y-6493000D02*
G75*
G03*
X14178000Y-6493000I-15000J0D01*
G01*
X14181000Y-8168000D02*
G75*
G03*
X14181000Y-8168000I-15000J0D01*
G01*
X14215000Y-6350000D02*
G75*
G03*
X14215000Y-6350000I-15000J0D01*
G01*
X14249000Y-9300000D02*
G75*
G03*
X14249000Y-9300000I-15000J0D01*
G01*
X14315000Y-6350000D02*
G75*
G03*
X14315000Y-6350000I-15000J0D01*
G01*
X14349000Y-9300000D02*
G75*
G03*
X14349000Y-9300000I-15000J0D01*
G01*
X14415000Y-6350000D02*
G75*
G03*
X14415000Y-6350000I-15000J0D01*
G01*
X14425000Y-8282000D02*
G75*
G03*
X14425000Y-8282000I-15000J0D01*
G01*
X14449000Y-9300000D02*
G75*
G03*
X14449000Y-9300000I-15000J0D01*
G01*
X14475000Y-6779000D02*
G75*
G03*
X14475000Y-6779000I-15000J0D01*
G01*
X14490000Y-7240000D02*
G75*
G03*
X14490000Y-7240000I-15000J0D01*
G01*
X14501000Y-7517000D02*
G75*
G03*
X14501000Y-7517000I-15000J0D01*
G01*
X14515000Y-6350000D02*
G75*
G03*
X14515000Y-6350000I-15000J0D01*
G01*
X14549000Y-9300000D02*
G75*
G03*
X14549000Y-9300000I-15000J0D01*
G01*
X14551000Y-8284000D02*
G75*
G03*
X14551000Y-8284000I-15000J0D01*
G01*
X14552000Y-8546000D02*
G75*
G03*
X14552000Y-8546000I-15000J0D01*
G01*
X14552000Y-8638000D02*
G75*
G03*
X14552000Y-8638000I-15000J0D01*
G01*
X14615000Y-6350000D02*
G75*
G03*
X14615000Y-6350000I-15000J0D01*
G01*
X14643000Y-7508000D02*
G75*
G03*
X14643000Y-7508000I-15000J0D01*
G01*
X14649000Y-9300000D02*
G75*
G03*
X14649000Y-9300000I-15000J0D01*
G01*
X14673000Y-6592000D02*
G75*
G03*
X14673000Y-6592000I-15000J0D01*
G01*
X14715000Y-6350000D02*
G75*
G03*
X14715000Y-6350000I-15000J0D01*
G01*
X14749000Y-9300000D02*
G75*
G03*
X14749000Y-9300000I-15000J0D01*
G01*
X14815000Y-6350000D02*
G75*
G03*
X14815000Y-6350000I-15000J0D01*
G01*
X14816000Y-6955000D02*
G75*
G03*
X14816000Y-6955000I-15000J0D01*
G01*
X14816000Y-7006000D02*
G75*
G03*
X14816000Y-7006000I-15000J0D01*
G01*
X14849000Y-9300000D02*
G75*
G03*
X14849000Y-9300000I-15000J0D01*
G01*
X14933500Y-8705000D02*
G75*
G03*
X14933500Y-8705000I-15000J0D01*
G01*
X14949000Y-9300000D02*
G75*
G03*
X14949000Y-9300000I-15000J0D01*
G01*
X14964000Y-8155000D02*
G75*
G03*
X14964000Y-8155000I-15000J0D01*
G01*
X15006000Y-6921000D02*
G75*
G03*
X15006000Y-6921000I-15000J0D01*
G01*
X15040000Y-8240000D02*
G75*
G03*
X15040000Y-8240000I-15000J0D01*
G01*
X15040500Y-8705000D02*
G75*
G03*
X15040500Y-8705000I-15000J0D01*
G01*
X15049000Y-9300000D02*
G75*
G03*
X15049000Y-9300000I-15000J0D01*
G01*
X15074500Y-6921000D02*
G75*
G03*
X15074500Y-6921000I-15000J0D01*
G01*
X15140500Y-8705000D02*
G75*
G03*
X15140500Y-8705000I-15000J0D01*
G01*
X15143000Y-6921000D02*
G75*
G03*
X15143000Y-6921000I-15000J0D01*
G01*
X15149000Y-9300000D02*
G75*
G03*
X15149000Y-9300000I-15000J0D01*
G01*
X15193500Y-7357000D02*
G75*
G03*
X15193500Y-7357000I-15000J0D01*
G01*
X15193500Y-7420000D02*
G75*
G03*
X15193500Y-7420000I-15000J0D01*
G01*
X15193500Y-7483000D02*
G75*
G03*
X15193500Y-7483000I-15000J0D01*
G01*
X15193500Y-7546000D02*
G75*
G03*
X15193500Y-7546000I-15000J0D01*
G01*
X15239000Y-8706000D02*
G75*
G03*
X15239000Y-8706000I-15000J0D01*
G01*
X15249000Y-9300000D02*
G75*
G03*
X15249000Y-9300000I-15000J0D01*
G01*
X15310000Y-7727000D02*
G75*
G03*
X15310000Y-7727000I-15000J0D01*
G01*
X15310000Y-7822000D02*
G75*
G03*
X15310000Y-7822000I-15000J0D01*
G01*
X15310000Y-7922000D02*
G75*
G03*
X15310000Y-7922000I-15000J0D01*
G01*
X15312000Y-8224000D02*
G75*
G03*
X15312000Y-8224000I-15000J0D01*
G01*
X15313000Y-8021000D02*
G75*
G03*
X15313000Y-8021000I-15000J0D01*
G01*
X15313000Y-8124000D02*
G75*
G03*
X15313000Y-8124000I-15000J0D01*
G01*
D14*
X11495000Y-6595000D02*
X11495000Y-6635000D01*
X11475000Y-6615000D02*
X11515000Y-6615000D01*
X11543327Y-6478327D02*
X11543327Y-6518327D01*
X11523327Y-6498327D02*
X11563327Y-6498327D01*
X11543327Y-6711673D02*
X11543327Y-6751673D01*
X11523327Y-6731673D02*
X11563327Y-6731673D01*
X11660000Y-6430000D02*
X11660000Y-6470000D01*
X11640000Y-6450000D02*
X11680000Y-6450000D01*
X11660000Y-6760000D02*
X11660000Y-6800000D01*
X11640000Y-6780000D02*
X11680000Y-6780000D01*
X11776673Y-6478327D02*
X11776673Y-6518327D01*
X11756673Y-6498327D02*
X11796673Y-6498327D01*
X11776673Y-6711673D02*
X11776673Y-6751673D01*
X11756673Y-6731673D02*
X11796673Y-6731673D01*
X11825000Y-6595000D02*
X11825000Y-6635000D01*
X11805000Y-6615000D02*
X11845000Y-6615000D01*
X13053500Y-6919500D02*
X13053500Y-6959500D01*
X13033500Y-6939500D02*
X13073500Y-6939500D01*
X13065000Y-8313000D02*
X13065000Y-8353000D01*
X13045000Y-8333000D02*
X13085000Y-8333000D01*
X13093500Y-6849500D02*
X13093500Y-6889500D01*
X13073500Y-6869500D02*
X13113500Y-6869500D01*
X13113327Y-8196327D02*
X13113327Y-8236327D01*
X13093327Y-8216327D02*
X13133327Y-8216327D01*
X13113327Y-8429673D02*
X13113327Y-8469673D01*
X13093327Y-8449673D02*
X13133327Y-8449673D01*
X13173500Y-6849500D02*
X13173500Y-6889500D01*
X13153500Y-6869500D02*
X13193500Y-6869500D01*
X13213500Y-6919500D02*
X13213500Y-6959500D01*
X13193500Y-6939500D02*
X13233500Y-6939500D01*
X13230000Y-8148000D02*
X13230000Y-8188000D01*
X13210000Y-8168000D02*
X13250000Y-8168000D01*
X13230000Y-8478000D02*
X13230000Y-8518000D01*
X13210000Y-8498000D02*
X13250000Y-8498000D01*
X13253500Y-6849500D02*
X13253500Y-6889500D01*
X13233500Y-6869500D02*
X13273500Y-6869500D01*
X13293500Y-6919500D02*
X13293500Y-6959500D01*
X13273500Y-6939500D02*
X13313500Y-6939500D01*
X13346673Y-8196327D02*
X13346673Y-8236327D01*
X13326673Y-8216327D02*
X13366673Y-8216327D01*
X13346673Y-8429673D02*
X13346673Y-8469673D01*
X13326673Y-8449673D02*
X13366673Y-8449673D01*
X13373500Y-6919500D02*
X13373500Y-6959500D01*
X13353500Y-6939500D02*
X13393500Y-6939500D01*
X13395000Y-8313000D02*
X13395000Y-8353000D01*
X13375000Y-8333000D02*
X13415000Y-8333000D01*
X13413500Y-6849500D02*
X13413500Y-6889500D01*
X13393500Y-6869500D02*
X13433500Y-6869500D01*
X13453500Y-6919500D02*
X13453500Y-6959500D01*
X13433500Y-6939500D02*
X13473500Y-6939500D01*
X13493500Y-6849500D02*
X13493500Y-6889500D01*
X13473500Y-6869500D02*
X13513500Y-6869500D01*
X13573500Y-6849500D02*
X13573500Y-6889500D01*
X13553500Y-6869500D02*
X13593500Y-6869500D01*
X13613500Y-6919500D02*
X13613500Y-6959500D01*
X13593500Y-6939500D02*
X13633500Y-6939500D01*
X14835000Y-6595000D02*
X14835000Y-6635000D01*
X14815000Y-6615000D02*
X14855000Y-6615000D01*
X14883327Y-6478327D02*
X14883327Y-6518327D01*
X14863327Y-6498327D02*
X14903327Y-6498327D01*
X14883327Y-6711673D02*
X14883327Y-6751673D01*
X14863327Y-6731673D02*
X14903327Y-6731673D01*
X15000000Y-6430000D02*
X15000000Y-6470000D01*
X14980000Y-6450000D02*
X15020000Y-6450000D01*
X15000000Y-6760000D02*
X15000000Y-6800000D01*
X14980000Y-6780000D02*
X15020000Y-6780000D01*
X15116673Y-6478327D02*
X15116673Y-6518327D01*
X15096673Y-6498327D02*
X15136673Y-6498327D01*
X15116673Y-6711673D02*
X15116673Y-6751673D01*
X15096673Y-6731673D02*
X15136673Y-6731673D01*
X15165000Y-6595000D02*
X15165000Y-6635000D01*
X15145000Y-6615000D02*
X15185000Y-6615000D01*
D15*
X12902178Y-6458178D02*
X12902178Y-6422822D01*
X12866822Y-6422822D01*
X12866822Y-6458178D01*
X12902178Y-6458178D01*
D11*
X12899500Y-6470500D02*
X12899500Y-6410500D01*
X12869500Y-6470500D02*
X12869500Y-6410500D01*
X12899500Y-6410500D02*
G75*
G03*
X12869500Y-6410500I-15000J0D01*
G01*
X12869500Y-6470500D02*
G75*
G03*
X12899500Y-6470500I15000J0D01*
G01*
D15*
X12938178Y-6897178D02*
X12938178Y-6861822D01*
X12902822Y-6861822D01*
X12902822Y-6897178D01*
X12938178Y-6897178D01*
D11*
X12935500Y-6909500D02*
X12935500Y-6849500D01*
X12905500Y-6909500D02*
X12905500Y-6849500D01*
X12935500Y-6849500D02*
G75*
G03*
X12905500Y-6849500I-15000J0D01*
G01*
X12905500Y-6909500D02*
G75*
G03*
X12935500Y-6909500I15000J0D01*
G01*
D15*
X13764178Y-6897178D02*
X13764178Y-6861822D01*
X13728822Y-6861822D01*
X13728822Y-6897178D01*
X13764178Y-6897178D01*
D11*
X13761500Y-6909500D02*
X13761500Y-6849500D01*
X13731500Y-6909500D02*
X13731500Y-6849500D01*
X13761500Y-6849500D02*
G75*
G03*
X13731500Y-6849500I-15000J0D01*
G01*
X13731500Y-6909500D02*
G75*
G03*
X13761500Y-6909500I15000J0D01*
G01*
D15*
X13800178Y-6458178D02*
X13800178Y-6422822D01*
X13764822Y-6422822D01*
X13764822Y-6458178D01*
X13800178Y-6458178D01*
D11*
X13797500Y-6470500D02*
X13797500Y-6410500D01*
X13767500Y-6470500D02*
X13767500Y-6410500D01*
X13797500Y-6410500D02*
G75*
G03*
X13767500Y-6410500I-15000J0D01*
G01*
X13767500Y-6470500D02*
G75*
G03*
X13797500Y-6470500I15000J0D01*
G01*
D16*
X11459420Y-9135140D02*
X11509420Y-9085140D01*
X11459420Y-9035140D01*
X11409420Y-9085140D01*
X11459420Y-9135140D01*
D11*
X11419420Y-9031140D02*
X11419420Y-9139140D01*
X11499420Y-9031140D02*
X11499420Y-9139140D01*
X11419420Y-9139140D02*
G75*
G03*
X11499420Y-9139140I40000J0D01*
G01*
X11499420Y-9031140D02*
G75*
G03*
X11419420Y-9031140I-40000J0D01*
G01*
D16*
X15201420Y-9135140D02*
X15251420Y-9085140D01*
X15201420Y-9035140D01*
X15151420Y-9085140D01*
X15201420Y-9135140D01*
D11*
X15161420Y-9031140D02*
X15161420Y-9139140D01*
X15241420Y-9031140D02*
X15241420Y-9139140D01*
X15161420Y-9139140D02*
G75*
G03*
X15241420Y-9139140I40000J0D01*
G01*
X15241420Y-9031140D02*
G75*
G03*
X15161420Y-9031140I-40000J0D01*
G01*
D17*
X11550000Y-6505000D02*
X11770000Y-6725000D01*
X11770000Y-6505000D02*
X11550000Y-6725000D01*
X11770000Y-6615000D02*
G75*
G03*
X11770000Y-6615000I-110000J0D01*
G01*
X13120000Y-8223000D02*
X13340000Y-8443000D01*
X13340000Y-8223000D02*
X13120000Y-8443000D01*
X13340000Y-8333000D02*
G75*
G03*
X13340000Y-8333000I-110000J0D01*
G01*
X14890000Y-6505000D02*
X15110000Y-6725000D01*
X15110000Y-6505000D02*
X14890000Y-6725000D01*
X15110000Y-6615000D02*
G75*
G03*
X15110000Y-6615000I-110000J0D01*
G01*
D11*
X11562561Y-9685476D02*
X11562561Y-9485476D01*
X11610180Y-9485476D01*
X11638751Y-9495000D01*
X11657799Y-9514048D01*
X11667322Y-9533095D01*
X11676846Y-9571190D01*
X11676846Y-9599762D01*
X11667322Y-9637857D01*
X11657799Y-9656905D01*
X11638751Y-9675952D01*
X11610180Y-9685476D01*
X11562561Y-9685476D01*
X11762561Y-9685476D02*
X11762561Y-9552143D01*
X11762561Y-9590238D02*
X11772084Y-9571190D01*
X11781608Y-9561667D01*
X11800656Y-9552143D01*
X11819703Y-9552143D01*
X11886370Y-9685476D02*
X11886370Y-9552143D01*
X11886370Y-9485476D02*
X11876846Y-9495000D01*
X11886370Y-9504524D01*
X11895894Y-9495000D01*
X11886370Y-9485476D01*
X11886370Y-9504524D01*
X12010180Y-9685476D02*
X11991132Y-9675952D01*
X11981608Y-9656905D01*
X11981608Y-9485476D01*
X12114942Y-9685476D02*
X12095894Y-9675952D01*
X12086370Y-9656905D01*
X12086370Y-9485476D01*
X12343513Y-9685476D02*
X12343513Y-9485476D01*
X12410180Y-9628333D01*
X12476846Y-9485476D01*
X12476846Y-9685476D01*
X12657799Y-9685476D02*
X12657799Y-9580714D01*
X12648275Y-9561667D01*
X12629227Y-9552143D01*
X12591132Y-9552143D01*
X12572084Y-9561667D01*
X12657799Y-9675952D02*
X12638751Y-9685476D01*
X12591132Y-9685476D01*
X12572084Y-9675952D01*
X12562561Y-9656905D01*
X12562561Y-9637857D01*
X12572084Y-9618810D01*
X12591132Y-9609286D01*
X12638751Y-9609286D01*
X12657799Y-9599762D01*
X12753037Y-9552143D02*
X12753037Y-9752143D01*
X12753037Y-9561667D02*
X12772084Y-9552143D01*
X12810180Y-9552143D01*
X12829227Y-9561667D01*
X12838751Y-9571190D01*
X12848275Y-9590238D01*
X12848275Y-9647381D01*
X12838751Y-9666429D01*
X12829227Y-9675952D01*
X12810180Y-9685476D01*
X12772084Y-9685476D01*
X12753037Y-9675952D01*
X12933989Y-9666429D02*
X12943513Y-9675952D01*
X12933989Y-9685476D01*
X12924465Y-9675952D01*
X12933989Y-9666429D01*
X12933989Y-9685476D01*
X12933989Y-9561667D02*
X12943513Y-9571190D01*
X12933989Y-9580714D01*
X12924465Y-9571190D01*
X12933989Y-9561667D01*
X12933989Y-9580714D01*
D12*
X11284942Y-10005000D02*
X11304942Y-10025000D01*
X11304942Y-10005000D02*
X11284942Y-10025000D01*
D11*
X11600656Y-9905476D02*
X11619703Y-9905476D01*
X11638751Y-9915000D01*
X11648275Y-9924524D01*
X11657799Y-9943571D01*
X11667322Y-9981667D01*
X11667322Y-10029286D01*
X11657799Y-10067381D01*
X11648275Y-10086429D01*
X11638751Y-10095952D01*
X11619703Y-10105476D01*
X11600656Y-10105476D01*
X11581608Y-10095952D01*
X11572084Y-10086429D01*
X11562561Y-10067381D01*
X11553037Y-10029286D01*
X11553037Y-9981667D01*
X11562561Y-9943571D01*
X11572084Y-9924524D01*
X11581608Y-9915000D01*
X11600656Y-9905476D01*
X11753037Y-10086429D02*
X11762561Y-10095952D01*
X11753037Y-10105476D01*
X11743513Y-10095952D01*
X11753037Y-10086429D01*
X11753037Y-10105476D01*
X11838751Y-9924524D02*
X11848275Y-9915000D01*
X11867322Y-9905476D01*
X11914942Y-9905476D01*
X11933989Y-9915000D01*
X11943513Y-9924524D01*
X11953037Y-9943571D01*
X11953037Y-9962619D01*
X11943513Y-9991190D01*
X11829227Y-10105476D01*
X11953037Y-10105476D01*
X12076846Y-9905476D02*
X12095894Y-9905476D01*
X12114942Y-9915000D01*
X12124465Y-9924524D01*
X12133989Y-9943571D01*
X12143513Y-9981667D01*
X12143513Y-10029286D01*
X12133989Y-10067381D01*
X12124465Y-10086429D01*
X12114942Y-10095952D01*
X12095894Y-10105476D01*
X12076846Y-10105476D01*
X12057799Y-10095952D01*
X12048275Y-10086429D01*
X12038751Y-10067381D01*
X12029227Y-10029286D01*
X12029227Y-9981667D01*
X12038751Y-9943571D01*
X12048275Y-9924524D01*
X12057799Y-9915000D01*
X12076846Y-9905476D01*
X12267322Y-9905476D02*
X12286370Y-9905476D01*
X12305418Y-9915000D01*
X12314942Y-9924524D01*
X12324465Y-9943571D01*
X12333989Y-9981667D01*
X12333989Y-10029286D01*
X12324465Y-10067381D01*
X12314942Y-10086429D01*
X12305418Y-10095952D01*
X12286370Y-10105476D01*
X12267322Y-10105476D01*
X12248275Y-10095952D01*
X12238751Y-10086429D01*
X12229227Y-10067381D01*
X12219703Y-10029286D01*
X12219703Y-9981667D01*
X12229227Y-9943571D01*
X12238751Y-9924524D01*
X12248275Y-9915000D01*
X12267322Y-9905476D01*
X12419703Y-10105476D02*
X12419703Y-9972143D01*
X12419703Y-9991190D02*
X12429227Y-9981667D01*
X12448275Y-9972143D01*
X12476846Y-9972143D01*
X12495894Y-9981667D01*
X12505418Y-10000714D01*
X12505418Y-10105476D01*
X12505418Y-10000714D02*
X12514942Y-9981667D01*
X12533989Y-9972143D01*
X12562561Y-9972143D01*
X12581608Y-9981667D01*
X12591132Y-10000714D01*
X12591132Y-10105476D01*
X12686370Y-10105476D02*
X12686370Y-9972143D01*
X12686370Y-9991190D02*
X12695894Y-9981667D01*
X12714942Y-9972143D01*
X12743513Y-9972143D01*
X12762561Y-9981667D01*
X12772084Y-10000714D01*
X12772084Y-10105476D01*
X12772084Y-10000714D02*
X12781608Y-9981667D01*
X12800656Y-9972143D01*
X12829227Y-9972143D01*
X12848275Y-9981667D01*
X12857799Y-10000714D01*
X12857799Y-10105476D01*
X13248275Y-9895952D02*
X13076846Y-10153095D01*
X13505418Y-9905476D02*
X13524465Y-9905476D01*
X13543513Y-9915000D01*
X13553037Y-9924524D01*
X13562561Y-9943571D01*
X13572084Y-9981667D01*
X13572084Y-10029286D01*
X13562561Y-10067381D01*
X13553037Y-10086429D01*
X13543513Y-10095952D01*
X13524465Y-10105476D01*
X13505418Y-10105476D01*
X13486370Y-10095952D01*
X13476846Y-10086429D01*
X13467322Y-10067381D01*
X13457799Y-10029286D01*
X13457799Y-9981667D01*
X13467322Y-9943571D01*
X13476846Y-9924524D01*
X13486370Y-9915000D01*
X13505418Y-9905476D01*
X13657799Y-10086429D02*
X13667322Y-10095952D01*
X13657799Y-10105476D01*
X13648275Y-10095952D01*
X13657799Y-10086429D01*
X13657799Y-10105476D01*
X13791132Y-9905476D02*
X13810180Y-9905476D01*
X13829227Y-9915000D01*
X13838751Y-9924524D01*
X13848275Y-9943571D01*
X13857799Y-9981667D01*
X13857799Y-10029286D01*
X13848275Y-10067381D01*
X13838751Y-10086429D01*
X13829227Y-10095952D01*
X13810180Y-10105476D01*
X13791132Y-10105476D01*
X13772084Y-10095952D01*
X13762561Y-10086429D01*
X13753037Y-10067381D01*
X13743513Y-10029286D01*
X13743513Y-9981667D01*
X13753037Y-9943571D01*
X13762561Y-9924524D01*
X13772084Y-9915000D01*
X13791132Y-9905476D01*
X13981608Y-9905476D02*
X14000656Y-9905476D01*
X14019703Y-9915000D01*
X14029227Y-9924524D01*
X14038751Y-9943571D01*
X14048275Y-9981667D01*
X14048275Y-10029286D01*
X14038751Y-10067381D01*
X14029227Y-10086429D01*
X14019703Y-10095952D01*
X14000656Y-10105476D01*
X13981608Y-10105476D01*
X13962561Y-10095952D01*
X13953037Y-10086429D01*
X13943513Y-10067381D01*
X13933989Y-10029286D01*
X13933989Y-9981667D01*
X13943513Y-9943571D01*
X13953037Y-9924524D01*
X13962561Y-9915000D01*
X13981608Y-9905476D01*
X14114942Y-9905476D02*
X14248275Y-9905476D01*
X14162561Y-10105476D01*
X14333989Y-10105476D02*
X14372084Y-10105476D01*
X14391132Y-10095952D01*
X14400656Y-10086429D01*
X14419703Y-10057857D01*
X14429227Y-10019762D01*
X14429227Y-9943571D01*
X14419703Y-9924524D01*
X14410180Y-9915000D01*
X14391132Y-9905476D01*
X14353037Y-9905476D01*
X14333989Y-9915000D01*
X14324465Y-9924524D01*
X14314942Y-9943571D01*
X14314942Y-9991190D01*
X14324465Y-10010238D01*
X14333989Y-10019762D01*
X14353037Y-10029286D01*
X14391132Y-10029286D01*
X14410180Y-10019762D01*
X14419703Y-10010238D01*
X14429227Y-9991190D01*
X14505418Y-9905476D02*
X14505418Y-9943571D01*
X14581608Y-9905476D02*
X14581608Y-9943571D01*
X14876846Y-10181667D02*
X14867322Y-10172143D01*
X14848275Y-10143571D01*
X14838751Y-10124524D01*
X14829227Y-10095952D01*
X14819703Y-10048333D01*
X14819703Y-10010238D01*
X14829227Y-9962619D01*
X14838751Y-9934048D01*
X14848275Y-9915000D01*
X14867322Y-9886429D01*
X14876846Y-9876905D01*
X14933989Y-9905476D02*
X15057799Y-9905476D01*
X14991132Y-9981667D01*
X15019703Y-9981667D01*
X15038751Y-9991190D01*
X15048275Y-10000714D01*
X15057799Y-10019762D01*
X15057799Y-10067381D01*
X15048275Y-10086429D01*
X15038751Y-10095952D01*
X15019703Y-10105476D01*
X14962561Y-10105476D01*
X14943513Y-10095952D01*
X14933989Y-10086429D01*
X15124465Y-9905476D02*
X15257799Y-9905476D01*
X15172084Y-10105476D01*
X15486370Y-10105476D02*
X15486370Y-9905476D01*
X15572084Y-10105476D02*
X15572084Y-10000714D01*
X15562561Y-9981667D01*
X15543513Y-9972143D01*
X15514941Y-9972143D01*
X15495894Y-9981667D01*
X15486370Y-9991190D01*
X15695894Y-10105476D02*
X15676846Y-10095952D01*
X15667322Y-10086429D01*
X15657799Y-10067381D01*
X15657799Y-10010238D01*
X15667322Y-9991190D01*
X15676846Y-9981667D01*
X15695894Y-9972143D01*
X15724465Y-9972143D01*
X15743513Y-9981667D01*
X15753037Y-9991190D01*
X15762561Y-10010238D01*
X15762561Y-10067381D01*
X15753037Y-10086429D01*
X15743513Y-10095952D01*
X15724465Y-10105476D01*
X15695894Y-10105476D01*
X15876846Y-10105476D02*
X15857799Y-10095952D01*
X15848275Y-10076905D01*
X15848275Y-9905476D01*
X16029227Y-10095952D02*
X16010180Y-10105476D01*
X15972084Y-10105476D01*
X15953037Y-10095952D01*
X15943513Y-10076905D01*
X15943513Y-10000714D01*
X15953037Y-9981667D01*
X15972084Y-9972143D01*
X16010180Y-9972143D01*
X16029227Y-9981667D01*
X16038751Y-10000714D01*
X16038751Y-10019762D01*
X15943513Y-10038810D01*
X16114941Y-10095952D02*
X16133989Y-10105476D01*
X16172084Y-10105476D01*
X16191132Y-10095952D01*
X16200656Y-10076905D01*
X16200656Y-10067381D01*
X16191132Y-10048333D01*
X16172084Y-10038810D01*
X16143513Y-10038810D01*
X16124465Y-10029286D01*
X16114941Y-10010238D01*
X16114941Y-10000714D01*
X16124465Y-9981667D01*
X16143513Y-9972143D01*
X16172084Y-9972143D01*
X16191132Y-9981667D01*
X16267322Y-10181667D02*
X16276846Y-10172143D01*
X16295894Y-10143571D01*
X16305418Y-10124524D01*
X16314941Y-10095952D01*
X16324465Y-10048333D01*
X16324465Y-10010238D01*
X16314941Y-9962619D01*
X16305418Y-9934048D01*
X16295894Y-9915000D01*
X16276846Y-9886429D01*
X16267322Y-9876905D01*
D13*
X11304942Y-10279000D02*
G75*
G03*
X11304942Y-10279000I-15000J0D01*
G01*
D11*
X11600656Y-10169476D02*
X11619703Y-10169476D01*
X11638751Y-10179000D01*
X11648275Y-10188524D01*
X11657799Y-10207571D01*
X11667322Y-10245667D01*
X11667322Y-10293286D01*
X11657799Y-10331381D01*
X11648275Y-10350429D01*
X11638751Y-10359952D01*
X11619703Y-10369476D01*
X11600656Y-10369476D01*
X11581608Y-10359952D01*
X11572084Y-10350429D01*
X11562561Y-10331381D01*
X11553037Y-10293286D01*
X11553037Y-10245667D01*
X11562561Y-10207571D01*
X11572084Y-10188524D01*
X11581608Y-10179000D01*
X11600656Y-10169476D01*
X11753037Y-10350429D02*
X11762561Y-10359952D01*
X11753037Y-10369476D01*
X11743513Y-10359952D01*
X11753037Y-10350429D01*
X11753037Y-10369476D01*
X11829227Y-10169476D02*
X11953037Y-10169476D01*
X11886370Y-10245667D01*
X11914942Y-10245667D01*
X11933989Y-10255190D01*
X11943513Y-10264714D01*
X11953037Y-10283762D01*
X11953037Y-10331381D01*
X11943513Y-10350429D01*
X11933989Y-10359952D01*
X11914942Y-10369476D01*
X11857799Y-10369476D01*
X11838751Y-10359952D01*
X11829227Y-10350429D01*
X12076846Y-10169476D02*
X12095894Y-10169476D01*
X12114942Y-10179000D01*
X12124465Y-10188524D01*
X12133989Y-10207571D01*
X12143513Y-10245667D01*
X12143513Y-10293286D01*
X12133989Y-10331381D01*
X12124465Y-10350429D01*
X12114942Y-10359952D01*
X12095894Y-10369476D01*
X12076846Y-10369476D01*
X12057799Y-10359952D01*
X12048275Y-10350429D01*
X12038751Y-10331381D01*
X12029227Y-10293286D01*
X12029227Y-10245667D01*
X12038751Y-10207571D01*
X12048275Y-10188524D01*
X12057799Y-10179000D01*
X12076846Y-10169476D01*
X12267322Y-10169476D02*
X12286370Y-10169476D01*
X12305418Y-10179000D01*
X12314942Y-10188524D01*
X12324465Y-10207571D01*
X12333989Y-10245667D01*
X12333989Y-10293286D01*
X12324465Y-10331381D01*
X12314942Y-10350429D01*
X12305418Y-10359952D01*
X12286370Y-10369476D01*
X12267322Y-10369476D01*
X12248275Y-10359952D01*
X12238751Y-10350429D01*
X12229227Y-10331381D01*
X12219703Y-10293286D01*
X12219703Y-10245667D01*
X12229227Y-10207571D01*
X12238751Y-10188524D01*
X12248275Y-10179000D01*
X12267322Y-10169476D01*
X12419703Y-10369476D02*
X12419703Y-10236143D01*
X12419703Y-10255190D02*
X12429227Y-10245667D01*
X12448275Y-10236143D01*
X12476846Y-10236143D01*
X12495894Y-10245667D01*
X12505418Y-10264714D01*
X12505418Y-10369476D01*
X12505418Y-10264714D02*
X12514942Y-10245667D01*
X12533989Y-10236143D01*
X12562561Y-10236143D01*
X12581608Y-10245667D01*
X12591132Y-10264714D01*
X12591132Y-10369476D01*
X12686370Y-10369476D02*
X12686370Y-10236143D01*
X12686370Y-10255190D02*
X12695894Y-10245667D01*
X12714942Y-10236143D01*
X12743513Y-10236143D01*
X12762561Y-10245667D01*
X12772084Y-10264714D01*
X12772084Y-10369476D01*
X12772084Y-10264714D02*
X12781608Y-10245667D01*
X12800656Y-10236143D01*
X12829227Y-10236143D01*
X12848275Y-10245667D01*
X12857799Y-10264714D01*
X12857799Y-10369476D01*
X13248275Y-10159952D02*
X13076846Y-10417095D01*
X13505418Y-10169476D02*
X13524465Y-10169476D01*
X13543513Y-10179000D01*
X13553037Y-10188524D01*
X13562561Y-10207571D01*
X13572084Y-10245667D01*
X13572084Y-10293286D01*
X13562561Y-10331381D01*
X13553037Y-10350429D01*
X13543513Y-10359952D01*
X13524465Y-10369476D01*
X13505418Y-10369476D01*
X13486370Y-10359952D01*
X13476846Y-10350429D01*
X13467322Y-10331381D01*
X13457799Y-10293286D01*
X13457799Y-10245667D01*
X13467322Y-10207571D01*
X13476846Y-10188524D01*
X13486370Y-10179000D01*
X13505418Y-10169476D01*
X13657799Y-10350429D02*
X13667322Y-10359952D01*
X13657799Y-10369476D01*
X13648275Y-10359952D01*
X13657799Y-10350429D01*
X13657799Y-10369476D01*
X13791132Y-10169476D02*
X13810180Y-10169476D01*
X13829227Y-10179000D01*
X13838751Y-10188524D01*
X13848275Y-10207571D01*
X13857799Y-10245667D01*
X13857799Y-10293286D01*
X13848275Y-10331381D01*
X13838751Y-10350429D01*
X13829227Y-10359952D01*
X13810180Y-10369476D01*
X13791132Y-10369476D01*
X13772084Y-10359952D01*
X13762561Y-10350429D01*
X13753037Y-10331381D01*
X13743513Y-10293286D01*
X13743513Y-10245667D01*
X13753037Y-10207571D01*
X13762561Y-10188524D01*
X13772084Y-10179000D01*
X13791132Y-10169476D01*
X14048275Y-10369476D02*
X13933989Y-10369476D01*
X13991132Y-10369476D02*
X13991132Y-10169476D01*
X13972084Y-10198048D01*
X13953037Y-10217095D01*
X13933989Y-10226619D01*
X14238751Y-10369476D02*
X14124465Y-10369476D01*
X14181608Y-10369476D02*
X14181608Y-10169476D01*
X14162561Y-10198048D01*
X14143513Y-10217095D01*
X14124465Y-10226619D01*
X14353037Y-10255190D02*
X14333989Y-10245667D01*
X14324465Y-10236143D01*
X14314942Y-10217095D01*
X14314942Y-10207571D01*
X14324465Y-10188524D01*
X14333989Y-10179000D01*
X14353037Y-10169476D01*
X14391132Y-10169476D01*
X14410180Y-10179000D01*
X14419703Y-10188524D01*
X14429227Y-10207571D01*
X14429227Y-10217095D01*
X14419703Y-10236143D01*
X14410180Y-10245667D01*
X14391132Y-10255190D01*
X14353037Y-10255190D01*
X14333989Y-10264714D01*
X14324465Y-10274238D01*
X14314942Y-10293286D01*
X14314942Y-10331381D01*
X14324465Y-10350429D01*
X14333989Y-10359952D01*
X14353037Y-10369476D01*
X14391132Y-10369476D01*
X14410180Y-10359952D01*
X14419703Y-10350429D01*
X14429227Y-10331381D01*
X14429227Y-10293286D01*
X14419703Y-10274238D01*
X14410180Y-10264714D01*
X14391132Y-10255190D01*
X14505418Y-10169476D02*
X14505418Y-10207571D01*
X14581608Y-10169476D02*
X14581608Y-10207571D01*
X14876846Y-10445667D02*
X14867322Y-10436143D01*
X14848275Y-10407571D01*
X14838751Y-10388524D01*
X14829227Y-10359952D01*
X14819703Y-10312333D01*
X14819703Y-10274238D01*
X14829227Y-10226619D01*
X14838751Y-10198048D01*
X14848275Y-10179000D01*
X14867322Y-10150429D01*
X14876846Y-10140905D01*
X15057799Y-10369476D02*
X14943513Y-10369476D01*
X15000656Y-10369476D02*
X15000656Y-10169476D01*
X14981608Y-10198048D01*
X14962561Y-10217095D01*
X14943513Y-10226619D01*
X15229227Y-10236143D02*
X15229227Y-10369476D01*
X15181608Y-10159952D02*
X15133989Y-10302810D01*
X15257799Y-10302810D01*
X15419703Y-10236143D02*
X15419703Y-10369476D01*
X15372084Y-10159952D02*
X15324465Y-10302810D01*
X15448275Y-10302810D01*
X15676846Y-10369476D02*
X15676846Y-10169476D01*
X15762561Y-10369476D02*
X15762561Y-10264714D01*
X15753037Y-10245667D01*
X15733989Y-10236143D01*
X15705418Y-10236143D01*
X15686370Y-10245667D01*
X15676846Y-10255190D01*
X15886370Y-10369476D02*
X15867322Y-10359952D01*
X15857799Y-10350429D01*
X15848275Y-10331381D01*
X15848275Y-10274238D01*
X15857799Y-10255190D01*
X15867322Y-10245667D01*
X15886370Y-10236143D01*
X15914941Y-10236143D01*
X15933989Y-10245667D01*
X15943513Y-10255190D01*
X15953037Y-10274238D01*
X15953037Y-10331381D01*
X15943513Y-10350429D01*
X15933989Y-10359952D01*
X15914941Y-10369476D01*
X15886370Y-10369476D01*
X16067322Y-10369476D02*
X16048275Y-10359952D01*
X16038751Y-10340905D01*
X16038751Y-10169476D01*
X16219703Y-10359952D02*
X16200656Y-10369476D01*
X16162561Y-10369476D01*
X16143513Y-10359952D01*
X16133989Y-10340905D01*
X16133989Y-10264714D01*
X16143513Y-10245667D01*
X16162561Y-10236143D01*
X16200656Y-10236143D01*
X16219703Y-10245667D01*
X16229227Y-10264714D01*
X16229227Y-10283762D01*
X16133989Y-10302810D01*
X16305418Y-10359952D02*
X16324465Y-10369476D01*
X16362561Y-10369476D01*
X16381608Y-10359952D01*
X16391132Y-10340905D01*
X16391132Y-10331381D01*
X16381608Y-10312333D01*
X16362561Y-10302810D01*
X16333989Y-10302810D01*
X16314941Y-10293286D01*
X16305418Y-10274238D01*
X16305418Y-10264714D01*
X16314941Y-10245667D01*
X16333989Y-10236143D01*
X16362561Y-10236143D01*
X16381608Y-10245667D01*
X16457799Y-10445667D02*
X16467322Y-10436143D01*
X16486370Y-10407571D01*
X16495894Y-10388524D01*
X16505418Y-10359952D01*
X16514941Y-10312333D01*
X16514941Y-10274238D01*
X16505418Y-10226619D01*
X16495894Y-10198048D01*
X16486370Y-10179000D01*
X16467322Y-10150429D01*
X16457799Y-10140905D01*
D14*
X11284942Y-10523000D02*
X11284942Y-10563000D01*
X11264942Y-10543000D02*
X11304942Y-10543000D01*
D11*
X11600656Y-10433476D02*
X11619703Y-10433476D01*
X11638751Y-10443000D01*
X11648275Y-10452524D01*
X11657799Y-10471571D01*
X11667322Y-10509667D01*
X11667322Y-10557286D01*
X11657799Y-10595381D01*
X11648275Y-10614429D01*
X11638751Y-10623952D01*
X11619703Y-10633476D01*
X11600656Y-10633476D01*
X11581608Y-10623952D01*
X11572084Y-10614429D01*
X11562561Y-10595381D01*
X11553037Y-10557286D01*
X11553037Y-10509667D01*
X11562561Y-10471571D01*
X11572084Y-10452524D01*
X11581608Y-10443000D01*
X11600656Y-10433476D01*
X11753037Y-10614429D02*
X11762561Y-10623952D01*
X11753037Y-10633476D01*
X11743513Y-10623952D01*
X11753037Y-10614429D01*
X11753037Y-10633476D01*
X11933989Y-10500143D02*
X11933989Y-10633476D01*
X11886370Y-10423952D02*
X11838751Y-10566810D01*
X11962561Y-10566810D01*
X12076846Y-10433476D02*
X12095894Y-10433476D01*
X12114942Y-10443000D01*
X12124465Y-10452524D01*
X12133989Y-10471571D01*
X12143513Y-10509667D01*
X12143513Y-10557286D01*
X12133989Y-10595381D01*
X12124465Y-10614429D01*
X12114942Y-10623952D01*
X12095894Y-10633476D01*
X12076846Y-10633476D01*
X12057799Y-10623952D01*
X12048275Y-10614429D01*
X12038751Y-10595381D01*
X12029227Y-10557286D01*
X12029227Y-10509667D01*
X12038751Y-10471571D01*
X12048275Y-10452524D01*
X12057799Y-10443000D01*
X12076846Y-10433476D01*
X12267322Y-10433476D02*
X12286370Y-10433476D01*
X12305418Y-10443000D01*
X12314942Y-10452524D01*
X12324465Y-10471571D01*
X12333989Y-10509667D01*
X12333989Y-10557286D01*
X12324465Y-10595381D01*
X12314942Y-10614429D01*
X12305418Y-10623952D01*
X12286370Y-10633476D01*
X12267322Y-10633476D01*
X12248275Y-10623952D01*
X12238751Y-10614429D01*
X12229227Y-10595381D01*
X12219703Y-10557286D01*
X12219703Y-10509667D01*
X12229227Y-10471571D01*
X12238751Y-10452524D01*
X12248275Y-10443000D01*
X12267322Y-10433476D01*
X12419703Y-10633476D02*
X12419703Y-10500143D01*
X12419703Y-10519190D02*
X12429227Y-10509667D01*
X12448275Y-10500143D01*
X12476846Y-10500143D01*
X12495894Y-10509667D01*
X12505418Y-10528714D01*
X12505418Y-10633476D01*
X12505418Y-10528714D02*
X12514942Y-10509667D01*
X12533989Y-10500143D01*
X12562561Y-10500143D01*
X12581608Y-10509667D01*
X12591132Y-10528714D01*
X12591132Y-10633476D01*
X12686370Y-10633476D02*
X12686370Y-10500143D01*
X12686370Y-10519190D02*
X12695894Y-10509667D01*
X12714942Y-10500143D01*
X12743513Y-10500143D01*
X12762561Y-10509667D01*
X12772084Y-10528714D01*
X12772084Y-10633476D01*
X12772084Y-10528714D02*
X12781608Y-10509667D01*
X12800656Y-10500143D01*
X12829227Y-10500143D01*
X12848275Y-10509667D01*
X12857799Y-10528714D01*
X12857799Y-10633476D01*
X13248275Y-10423952D02*
X13076846Y-10681095D01*
X13505418Y-10433476D02*
X13524465Y-10433476D01*
X13543513Y-10443000D01*
X13553037Y-10452524D01*
X13562561Y-10471571D01*
X13572084Y-10509667D01*
X13572084Y-10557286D01*
X13562561Y-10595381D01*
X13553037Y-10614429D01*
X13543513Y-10623952D01*
X13524465Y-10633476D01*
X13505418Y-10633476D01*
X13486370Y-10623952D01*
X13476846Y-10614429D01*
X13467322Y-10595381D01*
X13457799Y-10557286D01*
X13457799Y-10509667D01*
X13467322Y-10471571D01*
X13476846Y-10452524D01*
X13486370Y-10443000D01*
X13505418Y-10433476D01*
X13657799Y-10614429D02*
X13667322Y-10623952D01*
X13657799Y-10633476D01*
X13648275Y-10623952D01*
X13657799Y-10614429D01*
X13657799Y-10633476D01*
X13791132Y-10433476D02*
X13810180Y-10433476D01*
X13829227Y-10443000D01*
X13838751Y-10452524D01*
X13848275Y-10471571D01*
X13857799Y-10509667D01*
X13857799Y-10557286D01*
X13848275Y-10595381D01*
X13838751Y-10614429D01*
X13829227Y-10623952D01*
X13810180Y-10633476D01*
X13791132Y-10633476D01*
X13772084Y-10623952D01*
X13762561Y-10614429D01*
X13753037Y-10595381D01*
X13743513Y-10557286D01*
X13743513Y-10509667D01*
X13753037Y-10471571D01*
X13762561Y-10452524D01*
X13772084Y-10443000D01*
X13791132Y-10433476D01*
X14048275Y-10633476D02*
X13933989Y-10633476D01*
X13991132Y-10633476D02*
X13991132Y-10433476D01*
X13972084Y-10462048D01*
X13953037Y-10481095D01*
X13933989Y-10490619D01*
X14229227Y-10433476D02*
X14133989Y-10433476D01*
X14124465Y-10528714D01*
X14133989Y-10519190D01*
X14153037Y-10509667D01*
X14200656Y-10509667D01*
X14219703Y-10519190D01*
X14229227Y-10528714D01*
X14238751Y-10547762D01*
X14238751Y-10595381D01*
X14229227Y-10614429D01*
X14219703Y-10623952D01*
X14200656Y-10633476D01*
X14153037Y-10633476D01*
X14133989Y-10623952D01*
X14124465Y-10614429D01*
X14305418Y-10433476D02*
X14438751Y-10433476D01*
X14353037Y-10633476D01*
X14505418Y-10433476D02*
X14505418Y-10471571D01*
X14581608Y-10433476D02*
X14581608Y-10471571D01*
X14876846Y-10709667D02*
X14867322Y-10700143D01*
X14848275Y-10671571D01*
X14838751Y-10652524D01*
X14829227Y-10623952D01*
X14819703Y-10576333D01*
X14819703Y-10538238D01*
X14829227Y-10490619D01*
X14838751Y-10462048D01*
X14848275Y-10443000D01*
X14867322Y-10414429D01*
X14876846Y-10404905D01*
X14933989Y-10433476D02*
X15057799Y-10433476D01*
X14991132Y-10509667D01*
X15019703Y-10509667D01*
X15038751Y-10519190D01*
X15048275Y-10528714D01*
X15057799Y-10547762D01*
X15057799Y-10595381D01*
X15048275Y-10614429D01*
X15038751Y-10623952D01*
X15019703Y-10633476D01*
X14962561Y-10633476D01*
X14943513Y-10623952D01*
X14933989Y-10614429D01*
X15229227Y-10433476D02*
X15191132Y-10433476D01*
X15172084Y-10443000D01*
X15162561Y-10452524D01*
X15143513Y-10481095D01*
X15133989Y-10519190D01*
X15133989Y-10595381D01*
X15143513Y-10614429D01*
X15153037Y-10623952D01*
X15172084Y-10633476D01*
X15210180Y-10633476D01*
X15229227Y-10623952D01*
X15238751Y-10614429D01*
X15248275Y-10595381D01*
X15248275Y-10547762D01*
X15238751Y-10528714D01*
X15229227Y-10519190D01*
X15210180Y-10509667D01*
X15172084Y-10509667D01*
X15153037Y-10519190D01*
X15143513Y-10528714D01*
X15133989Y-10547762D01*
X15486370Y-10633476D02*
X15486370Y-10433476D01*
X15572084Y-10633476D02*
X15572084Y-10528714D01*
X15562561Y-10509667D01*
X15543513Y-10500143D01*
X15514941Y-10500143D01*
X15495894Y-10509667D01*
X15486370Y-10519190D01*
X15695894Y-10633476D02*
X15676846Y-10623952D01*
X15667322Y-10614429D01*
X15657799Y-10595381D01*
X15657799Y-10538238D01*
X15667322Y-10519190D01*
X15676846Y-10509667D01*
X15695894Y-10500143D01*
X15724465Y-10500143D01*
X15743513Y-10509667D01*
X15753037Y-10519190D01*
X15762561Y-10538238D01*
X15762561Y-10595381D01*
X15753037Y-10614429D01*
X15743513Y-10623952D01*
X15724465Y-10633476D01*
X15695894Y-10633476D01*
X15876846Y-10633476D02*
X15857799Y-10623952D01*
X15848275Y-10604905D01*
X15848275Y-10433476D01*
X16029227Y-10623952D02*
X16010180Y-10633476D01*
X15972084Y-10633476D01*
X15953037Y-10623952D01*
X15943513Y-10604905D01*
X15943513Y-10528714D01*
X15953037Y-10509667D01*
X15972084Y-10500143D01*
X16010180Y-10500143D01*
X16029227Y-10509667D01*
X16038751Y-10528714D01*
X16038751Y-10547762D01*
X15943513Y-10566810D01*
X16114941Y-10623952D02*
X16133989Y-10633476D01*
X16172084Y-10633476D01*
X16191132Y-10623952D01*
X16200656Y-10604905D01*
X16200656Y-10595381D01*
X16191132Y-10576333D01*
X16172084Y-10566810D01*
X16143513Y-10566810D01*
X16124465Y-10557286D01*
X16114941Y-10538238D01*
X16114941Y-10528714D01*
X16124465Y-10509667D01*
X16143513Y-10500143D01*
X16172084Y-10500143D01*
X16191132Y-10509667D01*
X16267322Y-10709667D02*
X16276846Y-10700143D01*
X16295894Y-10671571D01*
X16305418Y-10652524D01*
X16314941Y-10623952D01*
X16324465Y-10576333D01*
X16324465Y-10538238D01*
X16314941Y-10490619D01*
X16305418Y-10462048D01*
X16295894Y-10443000D01*
X16276846Y-10414429D01*
X16267322Y-10404905D01*
D15*
X11297619Y-10824678D02*
X11297619Y-10789322D01*
X11262264Y-10789322D01*
X11262264Y-10824678D01*
X11297619Y-10824678D01*
D11*
X11600656Y-10697476D02*
X11619703Y-10697476D01*
X11638751Y-10707000D01*
X11648275Y-10716524D01*
X11657799Y-10735571D01*
X11667322Y-10773667D01*
X11667322Y-10821286D01*
X11657799Y-10859381D01*
X11648275Y-10878429D01*
X11638751Y-10887952D01*
X11619703Y-10897476D01*
X11600656Y-10897476D01*
X11581608Y-10887952D01*
X11572084Y-10878429D01*
X11562561Y-10859381D01*
X11553037Y-10821286D01*
X11553037Y-10773667D01*
X11562561Y-10735571D01*
X11572084Y-10716524D01*
X11581608Y-10707000D01*
X11600656Y-10697476D01*
X11753037Y-10878429D02*
X11762561Y-10887952D01*
X11753037Y-10897476D01*
X11743513Y-10887952D01*
X11753037Y-10878429D01*
X11753037Y-10897476D01*
X11943513Y-10697476D02*
X11848275Y-10697476D01*
X11838751Y-10792714D01*
X11848275Y-10783190D01*
X11867322Y-10773667D01*
X11914942Y-10773667D01*
X11933989Y-10783190D01*
X11943513Y-10792714D01*
X11953037Y-10811762D01*
X11953037Y-10859381D01*
X11943513Y-10878429D01*
X11933989Y-10887952D01*
X11914942Y-10897476D01*
X11867322Y-10897476D01*
X11848275Y-10887952D01*
X11838751Y-10878429D01*
X12076846Y-10697476D02*
X12095894Y-10697476D01*
X12114942Y-10707000D01*
X12124465Y-10716524D01*
X12133989Y-10735571D01*
X12143513Y-10773667D01*
X12143513Y-10821286D01*
X12133989Y-10859381D01*
X12124465Y-10878429D01*
X12114942Y-10887952D01*
X12095894Y-10897476D01*
X12076846Y-10897476D01*
X12057799Y-10887952D01*
X12048275Y-10878429D01*
X12038751Y-10859381D01*
X12029227Y-10821286D01*
X12029227Y-10773667D01*
X12038751Y-10735571D01*
X12048275Y-10716524D01*
X12057799Y-10707000D01*
X12076846Y-10697476D01*
X12267322Y-10697476D02*
X12286370Y-10697476D01*
X12305418Y-10707000D01*
X12314942Y-10716524D01*
X12324465Y-10735571D01*
X12333989Y-10773667D01*
X12333989Y-10821286D01*
X12324465Y-10859381D01*
X12314942Y-10878429D01*
X12305418Y-10887952D01*
X12286370Y-10897476D01*
X12267322Y-10897476D01*
X12248275Y-10887952D01*
X12238751Y-10878429D01*
X12229227Y-10859381D01*
X12219703Y-10821286D01*
X12219703Y-10773667D01*
X12229227Y-10735571D01*
X12238751Y-10716524D01*
X12248275Y-10707000D01*
X12267322Y-10697476D01*
X12419703Y-10897476D02*
X12419703Y-10764143D01*
X12419703Y-10783190D02*
X12429227Y-10773667D01*
X12448275Y-10764143D01*
X12476846Y-10764143D01*
X12495894Y-10773667D01*
X12505418Y-10792714D01*
X12505418Y-10897476D01*
X12505418Y-10792714D02*
X12514942Y-10773667D01*
X12533989Y-10764143D01*
X12562561Y-10764143D01*
X12581608Y-10773667D01*
X12591132Y-10792714D01*
X12591132Y-10897476D01*
X12686370Y-10897476D02*
X12686370Y-10764143D01*
X12686370Y-10783190D02*
X12695894Y-10773667D01*
X12714942Y-10764143D01*
X12743513Y-10764143D01*
X12762561Y-10773667D01*
X12772084Y-10792714D01*
X12772084Y-10897476D01*
X12772084Y-10792714D02*
X12781608Y-10773667D01*
X12800656Y-10764143D01*
X12829227Y-10764143D01*
X12848275Y-10773667D01*
X12857799Y-10792714D01*
X12857799Y-10897476D01*
X13248275Y-10687952D02*
X13076846Y-10945095D01*
X13505418Y-10697476D02*
X13524465Y-10697476D01*
X13543513Y-10707000D01*
X13553037Y-10716524D01*
X13562561Y-10735571D01*
X13572084Y-10773667D01*
X13572084Y-10821286D01*
X13562561Y-10859381D01*
X13553037Y-10878429D01*
X13543513Y-10887952D01*
X13524465Y-10897476D01*
X13505418Y-10897476D01*
X13486370Y-10887952D01*
X13476846Y-10878429D01*
X13467322Y-10859381D01*
X13457799Y-10821286D01*
X13457799Y-10773667D01*
X13467322Y-10735571D01*
X13476846Y-10716524D01*
X13486370Y-10707000D01*
X13505418Y-10697476D01*
X13657799Y-10878429D02*
X13667322Y-10887952D01*
X13657799Y-10897476D01*
X13648275Y-10887952D01*
X13657799Y-10878429D01*
X13657799Y-10897476D01*
X13791132Y-10697476D02*
X13810180Y-10697476D01*
X13829227Y-10707000D01*
X13838751Y-10716524D01*
X13848275Y-10735571D01*
X13857799Y-10773667D01*
X13857799Y-10821286D01*
X13848275Y-10859381D01*
X13838751Y-10878429D01*
X13829227Y-10887952D01*
X13810180Y-10897476D01*
X13791132Y-10897476D01*
X13772084Y-10887952D01*
X13762561Y-10878429D01*
X13753037Y-10859381D01*
X13743513Y-10821286D01*
X13743513Y-10773667D01*
X13753037Y-10735571D01*
X13762561Y-10716524D01*
X13772084Y-10707000D01*
X13791132Y-10697476D01*
X14048275Y-10897476D02*
X13933989Y-10897476D01*
X13991132Y-10897476D02*
X13991132Y-10697476D01*
X13972084Y-10726048D01*
X13953037Y-10745095D01*
X13933989Y-10754619D01*
X14143513Y-10897476D02*
X14181608Y-10897476D01*
X14200656Y-10887952D01*
X14210180Y-10878429D01*
X14229227Y-10849857D01*
X14238751Y-10811762D01*
X14238751Y-10735571D01*
X14229227Y-10716524D01*
X14219703Y-10707000D01*
X14200656Y-10697476D01*
X14162561Y-10697476D01*
X14143513Y-10707000D01*
X14133989Y-10716524D01*
X14124465Y-10735571D01*
X14124465Y-10783190D01*
X14133989Y-10802238D01*
X14143513Y-10811762D01*
X14162561Y-10821286D01*
X14200656Y-10821286D01*
X14219703Y-10811762D01*
X14229227Y-10802238D01*
X14238751Y-10783190D01*
X14305418Y-10697476D02*
X14438751Y-10697476D01*
X14353037Y-10897476D01*
X14505418Y-10697476D02*
X14505418Y-10735571D01*
X14581608Y-10697476D02*
X14581608Y-10735571D01*
X14876846Y-10973667D02*
X14867322Y-10964143D01*
X14848275Y-10935571D01*
X14838751Y-10916524D01*
X14829227Y-10887952D01*
X14819703Y-10840333D01*
X14819703Y-10802238D01*
X14829227Y-10754619D01*
X14838751Y-10726048D01*
X14848275Y-10707000D01*
X14867322Y-10678429D01*
X14876846Y-10668905D01*
X14991132Y-10697476D02*
X15010180Y-10697476D01*
X15029227Y-10707000D01*
X15038751Y-10716524D01*
X15048275Y-10735571D01*
X15057799Y-10773667D01*
X15057799Y-10821286D01*
X15048275Y-10859381D01*
X15038751Y-10878429D01*
X15029227Y-10887952D01*
X15010180Y-10897476D01*
X14991132Y-10897476D01*
X14972084Y-10887952D01*
X14962561Y-10878429D01*
X14953037Y-10859381D01*
X14943513Y-10821286D01*
X14943513Y-10773667D01*
X14953037Y-10735571D01*
X14962561Y-10716524D01*
X14972084Y-10707000D01*
X14991132Y-10697476D01*
X15295894Y-10897476D02*
X15295894Y-10697476D01*
X15381608Y-10897476D02*
X15381608Y-10792714D01*
X15372084Y-10773667D01*
X15353037Y-10764143D01*
X15324465Y-10764143D01*
X15305418Y-10773667D01*
X15295894Y-10783190D01*
X15505418Y-10897476D02*
X15486370Y-10887952D01*
X15476846Y-10878429D01*
X15467322Y-10859381D01*
X15467322Y-10802238D01*
X15476846Y-10783190D01*
X15486370Y-10773667D01*
X15505418Y-10764143D01*
X15533989Y-10764143D01*
X15553037Y-10773667D01*
X15562561Y-10783190D01*
X15572084Y-10802238D01*
X15572084Y-10859381D01*
X15562561Y-10878429D01*
X15553037Y-10887952D01*
X15533989Y-10897476D01*
X15505418Y-10897476D01*
X15686370Y-10897476D02*
X15667322Y-10887952D01*
X15657799Y-10868905D01*
X15657799Y-10697476D01*
X15838751Y-10887952D02*
X15819703Y-10897476D01*
X15781608Y-10897476D01*
X15762561Y-10887952D01*
X15753037Y-10868905D01*
X15753037Y-10792714D01*
X15762561Y-10773667D01*
X15781608Y-10764143D01*
X15819703Y-10764143D01*
X15838751Y-10773667D01*
X15848275Y-10792714D01*
X15848275Y-10811762D01*
X15753037Y-10830810D01*
X15924465Y-10887952D02*
X15943513Y-10897476D01*
X15981608Y-10897476D01*
X16000656Y-10887952D01*
X16010180Y-10868905D01*
X16010180Y-10859381D01*
X16000656Y-10840333D01*
X15981608Y-10830810D01*
X15953037Y-10830810D01*
X15933989Y-10821286D01*
X15924465Y-10802238D01*
X15924465Y-10792714D01*
X15933989Y-10773667D01*
X15953037Y-10764143D01*
X15981608Y-10764143D01*
X16000656Y-10773667D01*
X16248275Y-10821286D02*
X16400656Y-10821286D01*
X16324465Y-10897476D02*
X16324465Y-10745095D01*
X16733989Y-10764143D02*
X16733989Y-10897476D01*
X16686370Y-10687952D02*
X16638751Y-10830810D01*
X16762561Y-10830810D01*
X16981608Y-10887952D02*
X17000656Y-10897476D01*
X17038751Y-10897476D01*
X17057799Y-10887952D01*
X17067323Y-10868905D01*
X17067323Y-10859381D01*
X17057799Y-10840333D01*
X17038751Y-10830810D01*
X17010180Y-10830810D01*
X16991132Y-10821286D01*
X16981608Y-10802238D01*
X16981608Y-10792714D01*
X16991132Y-10773667D01*
X17010180Y-10764143D01*
X17038751Y-10764143D01*
X17057799Y-10773667D01*
X17181608Y-10897476D02*
X17162561Y-10887952D01*
X17153037Y-10868905D01*
X17153037Y-10697476D01*
X17286370Y-10897476D02*
X17267323Y-10887952D01*
X17257799Y-10878429D01*
X17248275Y-10859381D01*
X17248275Y-10802238D01*
X17257799Y-10783190D01*
X17267323Y-10773667D01*
X17286370Y-10764143D01*
X17314942Y-10764143D01*
X17333989Y-10773667D01*
X17343513Y-10783190D01*
X17353037Y-10802238D01*
X17353037Y-10859381D01*
X17343513Y-10878429D01*
X17333989Y-10887952D01*
X17314942Y-10897476D01*
X17286370Y-10897476D01*
X17410180Y-10764143D02*
X17486370Y-10764143D01*
X17438751Y-10697476D02*
X17438751Y-10868905D01*
X17448275Y-10887952D01*
X17467323Y-10897476D01*
X17486370Y-10897476D01*
X17543513Y-10887952D02*
X17562561Y-10897476D01*
X17600656Y-10897476D01*
X17619704Y-10887952D01*
X17629227Y-10868905D01*
X17629227Y-10859381D01*
X17619704Y-10840333D01*
X17600656Y-10830810D01*
X17572084Y-10830810D01*
X17553037Y-10821286D01*
X17543513Y-10802238D01*
X17543513Y-10792714D01*
X17553037Y-10773667D01*
X17572084Y-10764143D01*
X17600656Y-10764143D01*
X17619704Y-10773667D01*
X17695894Y-10973667D02*
X17705418Y-10964143D01*
X17724465Y-10935571D01*
X17733989Y-10916524D01*
X17743513Y-10887952D01*
X17753037Y-10840333D01*
X17753037Y-10802238D01*
X17743513Y-10754619D01*
X17733989Y-10726048D01*
X17724465Y-10707000D01*
X17705418Y-10678429D01*
X17695894Y-10668905D01*
D16*
X11254942Y-11121000D02*
X11304942Y-11071000D01*
X11254942Y-11021000D01*
X11204942Y-11071000D01*
X11254942Y-11121000D01*
D11*
X11667322Y-11161476D02*
X11553037Y-11161476D01*
X11610180Y-11161476D02*
X11610180Y-10961476D01*
X11591132Y-10990048D01*
X11572084Y-11009095D01*
X11553037Y-11018619D01*
X11753037Y-11142429D02*
X11762561Y-11151952D01*
X11753037Y-11161476D01*
X11743513Y-11151952D01*
X11753037Y-11142429D01*
X11753037Y-11161476D01*
X11886370Y-10961476D02*
X11905418Y-10961476D01*
X11924465Y-10971000D01*
X11933989Y-10980524D01*
X11943513Y-10999571D01*
X11953037Y-11037667D01*
X11953037Y-11085286D01*
X11943513Y-11123381D01*
X11933989Y-11142429D01*
X11924465Y-11151952D01*
X11905418Y-11161476D01*
X11886370Y-11161476D01*
X11867322Y-11151952D01*
X11857799Y-11142429D01*
X11848275Y-11123381D01*
X11838751Y-11085286D01*
X11838751Y-11037667D01*
X11848275Y-10999571D01*
X11857799Y-10980524D01*
X11867322Y-10971000D01*
X11886370Y-10961476D01*
X12076846Y-10961476D02*
X12095894Y-10961476D01*
X12114942Y-10971000D01*
X12124465Y-10980524D01*
X12133989Y-10999571D01*
X12143513Y-11037667D01*
X12143513Y-11085286D01*
X12133989Y-11123381D01*
X12124465Y-11142429D01*
X12114942Y-11151952D01*
X12095894Y-11161476D01*
X12076846Y-11161476D01*
X12057799Y-11151952D01*
X12048275Y-11142429D01*
X12038751Y-11123381D01*
X12029227Y-11085286D01*
X12029227Y-11037667D01*
X12038751Y-10999571D01*
X12048275Y-10980524D01*
X12057799Y-10971000D01*
X12076846Y-10961476D01*
X12267322Y-10961476D02*
X12286370Y-10961476D01*
X12305418Y-10971000D01*
X12314942Y-10980524D01*
X12324465Y-10999571D01*
X12333989Y-11037667D01*
X12333989Y-11085286D01*
X12324465Y-11123381D01*
X12314942Y-11142429D01*
X12305418Y-11151952D01*
X12286370Y-11161476D01*
X12267322Y-11161476D01*
X12248275Y-11151952D01*
X12238751Y-11142429D01*
X12229227Y-11123381D01*
X12219703Y-11085286D01*
X12219703Y-11037667D01*
X12229227Y-10999571D01*
X12238751Y-10980524D01*
X12248275Y-10971000D01*
X12267322Y-10961476D01*
X12419703Y-11161476D02*
X12419703Y-11028143D01*
X12419703Y-11047190D02*
X12429227Y-11037667D01*
X12448275Y-11028143D01*
X12476846Y-11028143D01*
X12495894Y-11037667D01*
X12505418Y-11056714D01*
X12505418Y-11161476D01*
X12505418Y-11056714D02*
X12514942Y-11037667D01*
X12533989Y-11028143D01*
X12562561Y-11028143D01*
X12581608Y-11037667D01*
X12591132Y-11056714D01*
X12591132Y-11161476D01*
X12686370Y-11161476D02*
X12686370Y-11028143D01*
X12686370Y-11047190D02*
X12695894Y-11037667D01*
X12714942Y-11028143D01*
X12743513Y-11028143D01*
X12762561Y-11037667D01*
X12772084Y-11056714D01*
X12772084Y-11161476D01*
X12772084Y-11056714D02*
X12781608Y-11037667D01*
X12800656Y-11028143D01*
X12829227Y-11028143D01*
X12848275Y-11037667D01*
X12857799Y-11056714D01*
X12857799Y-11161476D01*
X13248275Y-10951952D02*
X13076846Y-11209095D01*
X13505418Y-10961476D02*
X13524465Y-10961476D01*
X13543513Y-10971000D01*
X13553037Y-10980524D01*
X13562561Y-10999571D01*
X13572084Y-11037667D01*
X13572084Y-11085286D01*
X13562561Y-11123381D01*
X13553037Y-11142429D01*
X13543513Y-11151952D01*
X13524465Y-11161476D01*
X13505418Y-11161476D01*
X13486370Y-11151952D01*
X13476846Y-11142429D01*
X13467322Y-11123381D01*
X13457799Y-11085286D01*
X13457799Y-11037667D01*
X13467322Y-10999571D01*
X13476846Y-10980524D01*
X13486370Y-10971000D01*
X13505418Y-10961476D01*
X13657799Y-11142429D02*
X13667322Y-11151952D01*
X13657799Y-11161476D01*
X13648275Y-11151952D01*
X13657799Y-11142429D01*
X13657799Y-11161476D01*
X13791132Y-10961476D02*
X13810180Y-10961476D01*
X13829227Y-10971000D01*
X13838751Y-10980524D01*
X13848275Y-10999571D01*
X13857799Y-11037667D01*
X13857799Y-11085286D01*
X13848275Y-11123381D01*
X13838751Y-11142429D01*
X13829227Y-11151952D01*
X13810180Y-11161476D01*
X13791132Y-11161476D01*
X13772084Y-11151952D01*
X13762561Y-11142429D01*
X13753037Y-11123381D01*
X13743513Y-11085286D01*
X13743513Y-11037667D01*
X13753037Y-10999571D01*
X13762561Y-10980524D01*
X13772084Y-10971000D01*
X13791132Y-10961476D01*
X13924465Y-10961476D02*
X14048275Y-10961476D01*
X13981608Y-11037667D01*
X14010180Y-11037667D01*
X14029227Y-11047190D01*
X14038751Y-11056714D01*
X14048275Y-11075762D01*
X14048275Y-11123381D01*
X14038751Y-11142429D01*
X14029227Y-11151952D01*
X14010180Y-11161476D01*
X13953037Y-11161476D01*
X13933989Y-11151952D01*
X13924465Y-11142429D01*
X14143513Y-11161476D02*
X14181608Y-11161476D01*
X14200656Y-11151952D01*
X14210180Y-11142429D01*
X14229227Y-11113857D01*
X14238751Y-11075762D01*
X14238751Y-10999571D01*
X14229227Y-10980524D01*
X14219703Y-10971000D01*
X14200656Y-10961476D01*
X14162561Y-10961476D01*
X14143513Y-10971000D01*
X14133989Y-10980524D01*
X14124465Y-10999571D01*
X14124465Y-11047190D01*
X14133989Y-11066238D01*
X14143513Y-11075762D01*
X14162561Y-11085286D01*
X14200656Y-11085286D01*
X14219703Y-11075762D01*
X14229227Y-11066238D01*
X14238751Y-11047190D01*
X14410180Y-11028143D02*
X14410180Y-11161476D01*
X14362561Y-10951952D02*
X14314942Y-11094810D01*
X14438751Y-11094810D01*
X14505418Y-10961476D02*
X14505418Y-10999571D01*
X14581608Y-10961476D02*
X14581608Y-10999571D01*
X14876846Y-11237667D02*
X14867322Y-11228143D01*
X14848275Y-11199571D01*
X14838751Y-11180524D01*
X14829227Y-11151952D01*
X14819703Y-11104333D01*
X14819703Y-11066238D01*
X14829227Y-11018619D01*
X14838751Y-10990048D01*
X14848275Y-10971000D01*
X14867322Y-10942429D01*
X14876846Y-10932905D01*
X14991132Y-10961476D02*
X15010180Y-10961476D01*
X15029227Y-10971000D01*
X15038751Y-10980524D01*
X15048275Y-10999571D01*
X15057799Y-11037667D01*
X15057799Y-11085286D01*
X15048275Y-11123381D01*
X15038751Y-11142429D01*
X15029227Y-11151952D01*
X15010180Y-11161476D01*
X14991132Y-11161476D01*
X14972084Y-11151952D01*
X14962561Y-11142429D01*
X14953037Y-11123381D01*
X14943513Y-11085286D01*
X14943513Y-11037667D01*
X14953037Y-10999571D01*
X14962561Y-10980524D01*
X14972084Y-10971000D01*
X14991132Y-10961476D01*
X15295894Y-11161476D02*
X15295894Y-10961476D01*
X15381608Y-11161476D02*
X15381608Y-11056714D01*
X15372084Y-11037667D01*
X15353037Y-11028143D01*
X15324465Y-11028143D01*
X15305418Y-11037667D01*
X15295894Y-11047190D01*
X15505418Y-11161476D02*
X15486370Y-11151952D01*
X15476846Y-11142429D01*
X15467322Y-11123381D01*
X15467322Y-11066238D01*
X15476846Y-11047190D01*
X15486370Y-11037667D01*
X15505418Y-11028143D01*
X15533989Y-11028143D01*
X15553037Y-11037667D01*
X15562561Y-11047190D01*
X15572084Y-11066238D01*
X15572084Y-11123381D01*
X15562561Y-11142429D01*
X15553037Y-11151952D01*
X15533989Y-11161476D01*
X15505418Y-11161476D01*
X15686370Y-11161476D02*
X15667322Y-11151952D01*
X15657799Y-11132905D01*
X15657799Y-10961476D01*
X15838751Y-11151952D02*
X15819703Y-11161476D01*
X15781608Y-11161476D01*
X15762561Y-11151952D01*
X15753037Y-11132905D01*
X15753037Y-11056714D01*
X15762561Y-11037667D01*
X15781608Y-11028143D01*
X15819703Y-11028143D01*
X15838751Y-11037667D01*
X15848275Y-11056714D01*
X15848275Y-11075762D01*
X15753037Y-11094810D01*
X15924465Y-11151952D02*
X15943513Y-11161476D01*
X15981608Y-11161476D01*
X16000656Y-11151952D01*
X16010180Y-11132905D01*
X16010180Y-11123381D01*
X16000656Y-11104333D01*
X15981608Y-11094810D01*
X15953037Y-11094810D01*
X15933989Y-11085286D01*
X15924465Y-11066238D01*
X15924465Y-11056714D01*
X15933989Y-11037667D01*
X15953037Y-11028143D01*
X15981608Y-11028143D01*
X16000656Y-11037667D01*
X16248275Y-11085286D02*
X16400656Y-11085286D01*
X16324465Y-11161476D02*
X16324465Y-11009095D01*
X16638751Y-10980524D02*
X16648275Y-10971000D01*
X16667322Y-10961476D01*
X16714941Y-10961476D01*
X16733989Y-10971000D01*
X16743513Y-10980524D01*
X16753037Y-10999571D01*
X16753037Y-11018619D01*
X16743513Y-11047190D01*
X16629227Y-11161476D01*
X16753037Y-11161476D01*
X16981608Y-11151952D02*
X17000656Y-11161476D01*
X17038751Y-11161476D01*
X17057799Y-11151952D01*
X17067323Y-11132905D01*
X17067323Y-11123381D01*
X17057799Y-11104333D01*
X17038751Y-11094810D01*
X17010180Y-11094810D01*
X16991132Y-11085286D01*
X16981608Y-11066238D01*
X16981608Y-11056714D01*
X16991132Y-11037667D01*
X17010180Y-11028143D01*
X17038751Y-11028143D01*
X17057799Y-11037667D01*
X17181608Y-11161476D02*
X17162561Y-11151952D01*
X17153037Y-11132905D01*
X17153037Y-10961476D01*
X17286370Y-11161476D02*
X17267323Y-11151952D01*
X17257799Y-11142429D01*
X17248275Y-11123381D01*
X17248275Y-11066238D01*
X17257799Y-11047190D01*
X17267323Y-11037667D01*
X17286370Y-11028143D01*
X17314942Y-11028143D01*
X17333989Y-11037667D01*
X17343513Y-11047190D01*
X17353037Y-11066238D01*
X17353037Y-11123381D01*
X17343513Y-11142429D01*
X17333989Y-11151952D01*
X17314942Y-11161476D01*
X17286370Y-11161476D01*
X17410180Y-11028143D02*
X17486370Y-11028143D01*
X17438751Y-10961476D02*
X17438751Y-11132905D01*
X17448275Y-11151952D01*
X17467323Y-11161476D01*
X17486370Y-11161476D01*
X17543513Y-11151952D02*
X17562561Y-11161476D01*
X17600656Y-11161476D01*
X17619704Y-11151952D01*
X17629227Y-11132905D01*
X17629227Y-11123381D01*
X17619704Y-11104333D01*
X17600656Y-11094810D01*
X17572084Y-11094810D01*
X17553037Y-11085286D01*
X17543513Y-11066238D01*
X17543513Y-11056714D01*
X17553037Y-11037667D01*
X17572084Y-11028143D01*
X17600656Y-11028143D01*
X17619704Y-11037667D01*
X17695894Y-11237667D02*
X17705418Y-11228143D01*
X17724465Y-11199571D01*
X17733989Y-11180524D01*
X17743513Y-11151952D01*
X17753037Y-11104333D01*
X17753037Y-11066238D01*
X17743513Y-11018619D01*
X17733989Y-10990048D01*
X17724465Y-10971000D01*
X17705418Y-10942429D01*
X17695894Y-10932905D01*
X11104942Y-11235000D02*
X11304942Y-11435000D01*
X11304942Y-11235000D02*
X11104942Y-11435000D01*
X11304942Y-11335000D02*
G75*
G03*
X11304942Y-11335000I-100000J0D01*
G01*
X11553037Y-11244524D02*
X11562561Y-11235000D01*
X11581608Y-11225476D01*
X11629227Y-11225476D01*
X11648275Y-11235000D01*
X11657799Y-11244524D01*
X11667322Y-11263571D01*
X11667322Y-11282619D01*
X11657799Y-11311190D01*
X11543513Y-11425476D01*
X11667322Y-11425476D01*
X11753037Y-11406428D02*
X11762561Y-11415952D01*
X11753037Y-11425476D01*
X11743513Y-11415952D01*
X11753037Y-11406428D01*
X11753037Y-11425476D01*
X11838751Y-11244524D02*
X11848275Y-11235000D01*
X11867322Y-11225476D01*
X11914942Y-11225476D01*
X11933989Y-11235000D01*
X11943513Y-11244524D01*
X11953037Y-11263571D01*
X11953037Y-11282619D01*
X11943513Y-11311190D01*
X11829227Y-11425476D01*
X11953037Y-11425476D01*
X12076846Y-11225476D02*
X12095894Y-11225476D01*
X12114942Y-11235000D01*
X12124465Y-11244524D01*
X12133989Y-11263571D01*
X12143513Y-11301667D01*
X12143513Y-11349286D01*
X12133989Y-11387381D01*
X12124465Y-11406428D01*
X12114942Y-11415952D01*
X12095894Y-11425476D01*
X12076846Y-11425476D01*
X12057799Y-11415952D01*
X12048275Y-11406428D01*
X12038751Y-11387381D01*
X12029227Y-11349286D01*
X12029227Y-11301667D01*
X12038751Y-11263571D01*
X12048275Y-11244524D01*
X12057799Y-11235000D01*
X12076846Y-11225476D01*
X12267322Y-11225476D02*
X12286370Y-11225476D01*
X12305418Y-11235000D01*
X12314942Y-11244524D01*
X12324465Y-11263571D01*
X12333989Y-11301667D01*
X12333989Y-11349286D01*
X12324465Y-11387381D01*
X12314942Y-11406428D01*
X12305418Y-11415952D01*
X12286370Y-11425476D01*
X12267322Y-11425476D01*
X12248275Y-11415952D01*
X12238751Y-11406428D01*
X12229227Y-11387381D01*
X12219703Y-11349286D01*
X12219703Y-11301667D01*
X12229227Y-11263571D01*
X12238751Y-11244524D01*
X12248275Y-11235000D01*
X12267322Y-11225476D01*
X12419703Y-11425476D02*
X12419703Y-11292143D01*
X12419703Y-11311190D02*
X12429227Y-11301667D01*
X12448275Y-11292143D01*
X12476846Y-11292143D01*
X12495894Y-11301667D01*
X12505418Y-11320714D01*
X12505418Y-11425476D01*
X12505418Y-11320714D02*
X12514942Y-11301667D01*
X12533989Y-11292143D01*
X12562561Y-11292143D01*
X12581608Y-11301667D01*
X12591132Y-11320714D01*
X12591132Y-11425476D01*
X12686370Y-11425476D02*
X12686370Y-11292143D01*
X12686370Y-11311190D02*
X12695894Y-11301667D01*
X12714942Y-11292143D01*
X12743513Y-11292143D01*
X12762561Y-11301667D01*
X12772084Y-11320714D01*
X12772084Y-11425476D01*
X12772084Y-11320714D02*
X12781608Y-11301667D01*
X12800656Y-11292143D01*
X12829227Y-11292143D01*
X12848275Y-11301667D01*
X12857799Y-11320714D01*
X12857799Y-11425476D01*
X13248275Y-11215952D02*
X13076846Y-11473095D01*
X13505418Y-11225476D02*
X13524465Y-11225476D01*
X13543513Y-11235000D01*
X13553037Y-11244524D01*
X13562561Y-11263571D01*
X13572084Y-11301667D01*
X13572084Y-11349286D01*
X13562561Y-11387381D01*
X13553037Y-11406428D01*
X13543513Y-11415952D01*
X13524465Y-11425476D01*
X13505418Y-11425476D01*
X13486370Y-11415952D01*
X13476846Y-11406428D01*
X13467322Y-11387381D01*
X13457799Y-11349286D01*
X13457799Y-11301667D01*
X13467322Y-11263571D01*
X13476846Y-11244524D01*
X13486370Y-11235000D01*
X13505418Y-11225476D01*
X13657799Y-11406428D02*
X13667322Y-11415952D01*
X13657799Y-11425476D01*
X13648275Y-11415952D01*
X13657799Y-11406428D01*
X13657799Y-11425476D01*
X13791132Y-11225476D02*
X13810180Y-11225476D01*
X13829227Y-11235000D01*
X13838751Y-11244524D01*
X13848275Y-11263571D01*
X13857799Y-11301667D01*
X13857799Y-11349286D01*
X13848275Y-11387381D01*
X13838751Y-11406428D01*
X13829227Y-11415952D01*
X13810180Y-11425476D01*
X13791132Y-11425476D01*
X13772084Y-11415952D01*
X13762561Y-11406428D01*
X13753037Y-11387381D01*
X13743513Y-11349286D01*
X13743513Y-11301667D01*
X13753037Y-11263571D01*
X13762561Y-11244524D01*
X13772084Y-11235000D01*
X13791132Y-11225476D01*
X13972084Y-11311190D02*
X13953037Y-11301667D01*
X13943513Y-11292143D01*
X13933989Y-11273095D01*
X13933989Y-11263571D01*
X13943513Y-11244524D01*
X13953037Y-11235000D01*
X13972084Y-11225476D01*
X14010180Y-11225476D01*
X14029227Y-11235000D01*
X14038751Y-11244524D01*
X14048275Y-11263571D01*
X14048275Y-11273095D01*
X14038751Y-11292143D01*
X14029227Y-11301667D01*
X14010180Y-11311190D01*
X13972084Y-11311190D01*
X13953037Y-11320714D01*
X13943513Y-11330238D01*
X13933989Y-11349286D01*
X13933989Y-11387381D01*
X13943513Y-11406428D01*
X13953037Y-11415952D01*
X13972084Y-11425476D01*
X14010180Y-11425476D01*
X14029227Y-11415952D01*
X14038751Y-11406428D01*
X14048275Y-11387381D01*
X14048275Y-11349286D01*
X14038751Y-11330238D01*
X14029227Y-11320714D01*
X14010180Y-11311190D01*
X14219703Y-11225476D02*
X14181608Y-11225476D01*
X14162561Y-11235000D01*
X14153037Y-11244524D01*
X14133989Y-11273095D01*
X14124465Y-11311190D01*
X14124465Y-11387381D01*
X14133989Y-11406428D01*
X14143513Y-11415952D01*
X14162561Y-11425476D01*
X14200656Y-11425476D01*
X14219703Y-11415952D01*
X14229227Y-11406428D01*
X14238751Y-11387381D01*
X14238751Y-11339762D01*
X14229227Y-11320714D01*
X14219703Y-11311190D01*
X14200656Y-11301667D01*
X14162561Y-11301667D01*
X14143513Y-11311190D01*
X14133989Y-11320714D01*
X14124465Y-11339762D01*
X14410180Y-11225476D02*
X14372084Y-11225476D01*
X14353037Y-11235000D01*
X14343513Y-11244524D01*
X14324465Y-11273095D01*
X14314942Y-11311190D01*
X14314942Y-11387381D01*
X14324465Y-11406428D01*
X14333989Y-11415952D01*
X14353037Y-11425476D01*
X14391132Y-11425476D01*
X14410180Y-11415952D01*
X14419703Y-11406428D01*
X14429227Y-11387381D01*
X14429227Y-11339762D01*
X14419703Y-11320714D01*
X14410180Y-11311190D01*
X14391132Y-11301667D01*
X14353037Y-11301667D01*
X14333989Y-11311190D01*
X14324465Y-11320714D01*
X14314942Y-11339762D01*
X14505418Y-11225476D02*
X14505418Y-11263571D01*
X14581608Y-11225476D02*
X14581608Y-11263571D01*
X14876846Y-11501667D02*
X14867322Y-11492143D01*
X14848275Y-11463571D01*
X14838751Y-11444524D01*
X14829227Y-11415952D01*
X14819703Y-11368333D01*
X14819703Y-11330238D01*
X14829227Y-11282619D01*
X14838751Y-11254048D01*
X14848275Y-11235000D01*
X14867322Y-11206428D01*
X14876846Y-11196905D01*
X14933989Y-11225476D02*
X15057799Y-11225476D01*
X14991132Y-11301667D01*
X15019703Y-11301667D01*
X15038751Y-11311190D01*
X15048275Y-11320714D01*
X15057799Y-11339762D01*
X15057799Y-11387381D01*
X15048275Y-11406428D01*
X15038751Y-11415952D01*
X15019703Y-11425476D01*
X14962561Y-11425476D01*
X14943513Y-11415952D01*
X14933989Y-11406428D01*
X15295894Y-11425476D02*
X15295894Y-11225476D01*
X15381608Y-11425476D02*
X15381608Y-11320714D01*
X15372084Y-11301667D01*
X15353037Y-11292143D01*
X15324465Y-11292143D01*
X15305418Y-11301667D01*
X15295894Y-11311190D01*
X15505418Y-11425476D02*
X15486370Y-11415952D01*
X15476846Y-11406428D01*
X15467322Y-11387381D01*
X15467322Y-11330238D01*
X15476846Y-11311190D01*
X15486370Y-11301667D01*
X15505418Y-11292143D01*
X15533989Y-11292143D01*
X15553037Y-11301667D01*
X15562561Y-11311190D01*
X15572084Y-11330238D01*
X15572084Y-11387381D01*
X15562561Y-11406428D01*
X15553037Y-11415952D01*
X15533989Y-11425476D01*
X15505418Y-11425476D01*
X15686370Y-11425476D02*
X15667322Y-11415952D01*
X15657799Y-11396905D01*
X15657799Y-11225476D01*
X15838751Y-11415952D02*
X15819703Y-11425476D01*
X15781608Y-11425476D01*
X15762561Y-11415952D01*
X15753037Y-11396905D01*
X15753037Y-11320714D01*
X15762561Y-11301667D01*
X15781608Y-11292143D01*
X15819703Y-11292143D01*
X15838751Y-11301667D01*
X15848275Y-11320714D01*
X15848275Y-11339762D01*
X15753037Y-11358809D01*
X15924465Y-11415952D02*
X15943513Y-11425476D01*
X15981608Y-11425476D01*
X16000656Y-11415952D01*
X16010180Y-11396905D01*
X16010180Y-11387381D01*
X16000656Y-11368333D01*
X15981608Y-11358809D01*
X15953037Y-11358809D01*
X15933989Y-11349286D01*
X15924465Y-11330238D01*
X15924465Y-11320714D01*
X15933989Y-11301667D01*
X15953037Y-11292143D01*
X15981608Y-11292143D01*
X16000656Y-11301667D01*
X16076846Y-11501667D02*
X16086370Y-11492143D01*
X16105418Y-11463571D01*
X16114941Y-11444524D01*
X16124465Y-11415952D01*
X16133989Y-11368333D01*
X16133989Y-11330238D01*
X16124465Y-11282619D01*
X16114941Y-11254048D01*
X16105418Y-11235000D01*
X16086370Y-11206428D01*
X16076846Y-11196905D01*
M02*
