%TF.GenerationSoftware,KiCad,Pcbnew,(6.0.0)*%
%TF.CreationDate,2022-03-03T17:00:33+08:00*%
%TF.ProjectId,USB3G2_SATA3_Bridge(JMS580),55534233-4732-45f5-9341-5441335f4272,rev?*%
%TF.SameCoordinates,Original*%
%TF.FileFunction,Copper,L3,Inr*%
%TF.FilePolarity,Positive*%
%FSLAX46Y46*%
G04 Gerber Fmt 4.6, Leading zero omitted, Abs format (unit mm)*
G04 Created by KiCad (PCBNEW (6.0.0)) date 2022-03-03 17:00:33*
%MOMM*%
%LPD*%
G01*
G04 APERTURE LIST*
%TA.AperFunction,ComponentPad*%
%ADD10C,0.650000*%
%TD*%
%TA.AperFunction,ComponentPad*%
%ADD11O,0.800000X1.400000*%
%TD*%
%TA.AperFunction,ComponentPad*%
%ADD12C,0.700000*%
%TD*%
%TA.AperFunction,ComponentPad*%
%ADD13C,4.400000*%
%TD*%
%TA.AperFunction,ComponentPad*%
%ADD14O,1.400000X2.400000*%
%TD*%
%TA.AperFunction,ViaPad*%
%ADD15C,0.450000*%
%TD*%
%TA.AperFunction,Conductor*%
%ADD16C,0.300000*%
%TD*%
%TA.AperFunction,Conductor*%
%ADD17C,2.000000*%
%TD*%
%TA.AperFunction,Conductor*%
%ADD18C,0.500000*%
%TD*%
%TA.AperFunction,Conductor*%
%ADD19C,0.700000*%
%TD*%
%TA.AperFunction,Conductor*%
%ADD20C,0.800000*%
%TD*%
%TA.AperFunction,Conductor*%
%ADD21C,1.000000*%
%TD*%
%TA.AperFunction,Conductor*%
%ADD22C,0.400000*%
%TD*%
G04 APERTURE END LIST*
D10*
%TO.N,GND*%
%TO.C,J2*%
X130534999Y-69395000D03*
%TO.N,/SS_TX2X+*%
X130934999Y-68695000D03*
%TO.N,/SS_TX2X-*%
X131734999Y-68695000D03*
%TO.N,VBUS*%
X132134999Y-69395000D03*
%TO.N,CC2*%
X132534999Y-68695000D03*
%TO.N,D+*%
X132934999Y-69395000D03*
%TO.N,D-*%
X133734999Y-69395000D03*
%TO.N,unconnected-(J2-PadB8)*%
X134134999Y-68695000D03*
%TO.N,VBUS*%
X134534999Y-69395000D03*
%TO.N,SS_RX1-*%
X134934999Y-68695000D03*
%TO.N,SS_RX1+*%
X135734999Y-68695000D03*
%TO.N,GND*%
X136134999Y-69395000D03*
D11*
X128844999Y-64405000D03*
X129204999Y-68795000D03*
X137824999Y-64405000D03*
X137464999Y-68795000D03*
%TD*%
D12*
%TO.N,N/C*%
%TO.C,H2*%
X116600000Y-64500000D03*
X116600000Y-67800000D03*
X118250000Y-66150000D03*
X115433274Y-64983274D03*
X117766726Y-67316726D03*
X117766726Y-64983274D03*
X115433274Y-67316726D03*
X114950000Y-66150000D03*
D13*
X116600000Y-66150000D03*
%TD*%
D12*
%TO.N,N/C*%
%TO.C,H3*%
X131133274Y-82163274D03*
X133950000Y-83330000D03*
X133466726Y-84496726D03*
X132300000Y-81680000D03*
X130650000Y-83330000D03*
X131133274Y-84496726D03*
X132300000Y-84980000D03*
X133466726Y-82163274D03*
D13*
X132300000Y-83330000D03*
%TD*%
D12*
%TO.N,N/C*%
%TO.C,H1*%
X150000000Y-67800000D03*
X148833274Y-67316726D03*
X148350000Y-66150000D03*
X148833274Y-64983274D03*
X151650000Y-66150000D03*
X151166726Y-67316726D03*
X151166726Y-64983274D03*
D13*
X150000000Y-66150000D03*
D12*
X150000000Y-64500000D03*
%TD*%
D14*
%TO.N,GND*%
%TO.C,J1*%
X152014200Y-90851400D03*
X114594200Y-90851400D03*
%TD*%
D15*
%TO.N,GND*%
X139700000Y-75850000D03*
X114000000Y-85000000D03*
X135000000Y-63500000D03*
X145000000Y-63500000D03*
X123000000Y-63500000D03*
X146164999Y-78050000D03*
X114000000Y-88000000D03*
X148340000Y-93000000D03*
X114000000Y-80000000D03*
X150500001Y-70000000D03*
X136340000Y-93000000D03*
X150254998Y-87050000D03*
X137340000Y-93000000D03*
X133000000Y-63500000D03*
X143340000Y-93000000D03*
X143999999Y-63500000D03*
X139340000Y-93000000D03*
X135340000Y-93000000D03*
X145164999Y-80050000D03*
X152950000Y-77270000D03*
X146000000Y-63500000D03*
X146340000Y-93000000D03*
X145370000Y-86380000D03*
X152340000Y-93000000D03*
X151340000Y-93000000D03*
X143000000Y-63500000D03*
X144340000Y-93000000D03*
X120890000Y-80550000D03*
X144164999Y-79050000D03*
X149500000Y-70000000D03*
X146164999Y-79050000D03*
X129340000Y-93000000D03*
X132340000Y-93000000D03*
X150340000Y-93000000D03*
X119000000Y-63500000D03*
X114000000Y-77000000D03*
X145370000Y-85460000D03*
X149184999Y-87050000D03*
X131340000Y-93000000D03*
X115340000Y-93000000D03*
X152980000Y-80210000D03*
X114340000Y-93000000D03*
X125340000Y-93000000D03*
X121000000Y-63500000D03*
X121290000Y-78100000D03*
X148000001Y-63500000D03*
X128340000Y-93000000D03*
X127000000Y-63500000D03*
X147000000Y-63500000D03*
X123340000Y-93000000D03*
X119340000Y-93000000D03*
X114000000Y-87000000D03*
X142000000Y-63500000D03*
X126000000Y-63500000D03*
X114000000Y-78000000D03*
X130340000Y-93000000D03*
X125000000Y-63500000D03*
X141560000Y-85460000D03*
X114000000Y-74000000D03*
X146164999Y-80050000D03*
X133340000Y-93000000D03*
X122000000Y-63500000D03*
X114000000Y-82000000D03*
X118340000Y-93000000D03*
X138340000Y-93000000D03*
X144164999Y-80050000D03*
X114000000Y-89000000D03*
X122340000Y-93000000D03*
X141340000Y-93000000D03*
X115420000Y-68990000D03*
X131000000Y-63500000D03*
X114000000Y-73000000D03*
X127340000Y-93000000D03*
X114000000Y-84000000D03*
X145164999Y-78050000D03*
X135999999Y-63500000D03*
X136930000Y-81930000D03*
X139000000Y-63500000D03*
X116850000Y-79610000D03*
X147340000Y-93000000D03*
X151010001Y-69070000D03*
X134000000Y-63500000D03*
X132000001Y-63500000D03*
X115420000Y-70000000D03*
X152950000Y-78220000D03*
X144164999Y-78050000D03*
X149340000Y-93000000D03*
X151500000Y-70000000D03*
X139700000Y-73290000D03*
X114000000Y-71000000D03*
X134340000Y-93000000D03*
X126340000Y-93000000D03*
X152970000Y-82240000D03*
X151254998Y-87050000D03*
X141000000Y-63500000D03*
X152980000Y-81240000D03*
X114000000Y-72000000D03*
X114000000Y-83000000D03*
X117340000Y-93000000D03*
X138740000Y-81930000D03*
X119999999Y-63500000D03*
X145340000Y-93000000D03*
X114000000Y-75000000D03*
X121340000Y-93000000D03*
X124340000Y-93000000D03*
X145164999Y-79050000D03*
X114000000Y-79000000D03*
X142340000Y-93000000D03*
X137940000Y-74570000D03*
X114000000Y-86000000D03*
X140340000Y-93000000D03*
X114000000Y-81000000D03*
X140000001Y-63500000D03*
X116340000Y-93000000D03*
X114000000Y-76000000D03*
X141560000Y-86380000D03*
X124000001Y-63500000D03*
X127999999Y-63500000D03*
X120340000Y-93000000D03*
X116830000Y-80850000D03*
%TO.N,VBUS*%
X126250000Y-69545000D03*
X123635000Y-82130000D03*
X148010000Y-70060000D03*
X124290000Y-82790000D03*
X126250000Y-67655000D03*
X122980000Y-82130000D03*
X146640000Y-65914952D03*
X126250000Y-70490000D03*
X124920000Y-82790000D03*
X141630000Y-64930000D03*
X148010000Y-69500000D03*
X126250000Y-66710000D03*
X126250000Y-68600000D03*
X117460000Y-77850000D03*
X124290000Y-82130000D03*
X146640000Y-66430000D03*
%TO.N,3V3*%
X141600000Y-76070000D03*
X152240000Y-87060000D03*
X119300000Y-77225000D03*
X144600000Y-67790000D03*
X144750000Y-72400000D03*
X152950000Y-79220000D03*
X149490000Y-81550000D03*
X144860000Y-75170000D03*
%TO.N,1V0*%
X151784999Y-75460000D03*
X141660000Y-81680000D03*
X151784999Y-73570000D03*
X151784999Y-74200000D03*
X144100000Y-82820000D03*
X141300000Y-77160000D03*
X117809999Y-83120000D03*
X117809999Y-85010000D03*
X151784999Y-74830000D03*
X122975000Y-80625000D03*
X150250000Y-82400000D03*
X146280000Y-75080000D03*
X117809999Y-83750000D03*
X141304999Y-79250000D03*
X117809999Y-84380000D03*
X145360000Y-82840000D03*
%TO.N,CC1*%
X134350000Y-72050000D03*
X150574999Y-77280000D03*
%TO.N,CC2*%
X150574999Y-78230000D03*
%TO.N,Net-(C30-Pad2)*%
X143370000Y-66480000D03*
X143420000Y-74500000D03*
%TO.N,D+*%
X141003210Y-74902698D03*
%TO.N,D-*%
X141003210Y-74302698D03*
%TO.N,SS_RX1-*%
X136557867Y-78902133D03*
%TO.N,SS_RX1+*%
X136982133Y-78477867D03*
%TO.N,GPIO11*%
X121292500Y-76200000D03*
X150170000Y-79360000D03*
%TO.N,GPIO7*%
X147910000Y-81860000D03*
X130400000Y-79080000D03*
%TO.N,GPIO4*%
X144830000Y-66490000D03*
X144200000Y-74600000D03*
%TO.N,GPIO2*%
X145770000Y-74500000D03*
X146070000Y-67850000D03*
%TO.N,GPIO1*%
X145690000Y-66900000D03*
X146930000Y-74870000D03*
%TO.N,GPIO8*%
X149445000Y-84585000D03*
%TO.N,GPIO9*%
X152030000Y-83870000D03*
%TO.N,/SS_TX2X-*%
X133444999Y-72830570D03*
%TO.N,/SS_TX2X+*%
X132844999Y-72830570D03*
%TD*%
D16*
%TO.N,VBUS*%
X117964213Y-78354213D02*
X117460000Y-77850000D01*
X125790000Y-79660000D02*
X125068119Y-78938119D01*
D17*
X126250000Y-81120000D02*
X125000000Y-82370000D01*
X125000000Y-82370000D02*
X123330000Y-82370000D01*
D16*
X125770000Y-78220000D02*
X125048119Y-78941881D01*
X125068119Y-78938119D02*
X119247463Y-78938119D01*
D17*
X126250000Y-66710000D02*
X126250000Y-81120000D01*
D16*
X117964213Y-78354213D02*
G75*
G03*
X119247463Y-78938119I1425170J1430043D01*
G01*
D18*
%TO.N,3V3*%
X144920000Y-75170000D02*
X146944214Y-77194214D01*
X144803553Y-72453553D02*
X144750000Y-72400000D01*
X144860000Y-75170000D02*
X144920000Y-75170000D01*
X144950000Y-75080000D02*
X144950000Y-72807107D01*
X145810000Y-76060000D02*
X145800000Y-76070000D01*
X144860000Y-75170000D02*
X144950000Y-75080000D01*
X141600000Y-76070000D02*
X143545786Y-76070000D01*
X145329289Y-75720001D02*
X144470711Y-75720001D01*
X147530000Y-78608427D02*
X147530000Y-79825786D01*
X144252893Y-75777107D02*
X144860000Y-75170000D01*
X149254214Y-81550000D02*
X149490000Y-81550000D01*
X147822893Y-80532893D02*
X148547107Y-81257107D01*
X144600000Y-67790000D02*
X144600000Y-72042893D01*
X144746447Y-72396447D02*
X144750000Y-72400000D01*
X145800000Y-76070000D02*
X143490711Y-76070000D01*
X147822893Y-80532893D02*
G75*
G02*
X147530000Y-79825786I707106J707106D01*
G01*
X144803553Y-72453553D02*
G75*
G02*
X144950000Y-72807107I-353550J-353553D01*
G01*
X146420000Y-76660000D02*
G75*
G03*
X145005787Y-76074214I-1414215J-1414218D01*
G01*
X144950000Y-74420000D02*
G75*
G03*
X145535786Y-75834213I2000011J5D01*
G01*
X147529999Y-78608427D02*
G75*
G03*
X146944213Y-77194215I-1999999J0D01*
G01*
X148547107Y-81257107D02*
G75*
G03*
X149254214Y-81550000I707106J707106D01*
G01*
X144252893Y-75777107D02*
G75*
G02*
X143545786Y-76070000I-707106J707106D01*
G01*
X144746447Y-72396447D02*
G75*
G02*
X144600000Y-72042893I353550J353553D01*
G01*
X144360000Y-75690000D02*
G75*
G03*
X144945786Y-74275787I-1414223J1414217D01*
G01*
D19*
%TO.N,1V0*%
X141304999Y-79250000D02*
X141304999Y-77164999D01*
X140426319Y-82383681D02*
X139281320Y-83528680D01*
D20*
X150640000Y-81300000D02*
X150640000Y-81605786D01*
X149405786Y-82840000D02*
X145360000Y-82840000D01*
D19*
X144080894Y-82839106D02*
X143155583Y-82839106D01*
D20*
X149292893Y-79952893D02*
X150640000Y-81300000D01*
D16*
X120045787Y-82534213D02*
X121369214Y-81210786D01*
D21*
X119117107Y-86537107D02*
X118102892Y-85522892D01*
D20*
X151431447Y-75828553D02*
X151638553Y-75621447D01*
D19*
X141304999Y-80075001D02*
X141304999Y-80910785D01*
X142527107Y-82547107D02*
X141660000Y-81680000D01*
X144100000Y-82820000D02*
X144120000Y-82840000D01*
D22*
X149000000Y-77800000D02*
X149000000Y-77804214D01*
X146280000Y-75080000D02*
X149000000Y-77800000D01*
D18*
X141304999Y-77164999D02*
X141300000Y-77160000D01*
D22*
X146640000Y-75440000D02*
X147942893Y-76742893D01*
D20*
X150347107Y-82312893D02*
X150112893Y-82547107D01*
D21*
X117809999Y-84815785D02*
X117809999Y-83120000D01*
D19*
X141114999Y-82035001D02*
X141114999Y-82412360D01*
D21*
X139281320Y-83718680D02*
X137048679Y-85951321D01*
D18*
X141597892Y-81617892D02*
X141660000Y-81680000D01*
D16*
X117809999Y-83120000D02*
X118631573Y-83120000D01*
D20*
X150622107Y-75975000D02*
X151077893Y-75975000D01*
D19*
X141304999Y-79885001D02*
X141304999Y-80262360D01*
X141304999Y-79250000D02*
X141304999Y-80075001D01*
D20*
X151784999Y-75267894D02*
X151784999Y-73570000D01*
D21*
X134927359Y-86830000D02*
X119824214Y-86830000D01*
X145360000Y-82840000D02*
X141402641Y-82840000D01*
D19*
X144120000Y-82840000D02*
X145360000Y-82840000D01*
D16*
X122783427Y-80625000D02*
X122975000Y-80625000D01*
D22*
X149294261Y-76803586D02*
X149727847Y-76370000D01*
D20*
X149000000Y-77804214D02*
X149000000Y-79245786D01*
D19*
X144100000Y-82820000D02*
X144080894Y-82839106D01*
D20*
X149292893Y-77097107D02*
X150268554Y-76121446D01*
X149000001Y-79245786D02*
G75*
G03*
X149292894Y-79952892I999993J-3D01*
G01*
D22*
X148799999Y-78004214D02*
G75*
G03*
X148507106Y-77297108I-999993J3D01*
G01*
X149294261Y-76803586D02*
G75*
G02*
X147942894Y-76742892I-642370J772099D01*
G01*
D20*
X151638553Y-75621447D02*
G75*
G03*
X151784999Y-75267894I-353556J353553D01*
G01*
D21*
X134927359Y-86830000D02*
G75*
G03*
X137048679Y-85951321I1J2999998D01*
G01*
D20*
X150347107Y-82312893D02*
G75*
G03*
X150640000Y-81605786I-707101J707104D01*
G01*
D21*
X118102892Y-85522892D02*
G75*
G02*
X117809999Y-84815785I707106J707106D01*
G01*
X119117107Y-86537107D02*
G75*
G03*
X119824214Y-86830000I707106J707106D01*
G01*
X141700021Y-81951858D02*
G75*
G03*
X143821342Y-82830538I2121318J2121314D01*
G01*
D20*
X150268554Y-76121446D02*
G75*
G02*
X150622107Y-75975000I353553J-353556D01*
G01*
D21*
X141402641Y-82840001D02*
G75*
G03*
X139281321Y-83718681I-3J-2999993D01*
G01*
D20*
X149292893Y-77097107D02*
G75*
G03*
X149000000Y-77804214I707106J-707106D01*
G01*
D19*
X141305000Y-80910785D02*
G75*
G03*
X141597893Y-81617891I999993J-3D01*
G01*
D16*
X121369214Y-81210786D02*
G75*
G02*
X122783427Y-80625000I1414213J-1414214D01*
G01*
D19*
X142527107Y-82547107D02*
G75*
G03*
X143155583Y-82839106I717598J722161D01*
G01*
D16*
X118631573Y-83119999D02*
G75*
G03*
X120045786Y-82534212I0J1999999D01*
G01*
D19*
X140426319Y-82383681D02*
G75*
G03*
X141304999Y-80262360I-2121325J2121323D01*
G01*
D20*
X149405786Y-82839999D02*
G75*
G03*
X150112892Y-82547106I3J999993D01*
G01*
X151431447Y-75828553D02*
G75*
G02*
X151077893Y-75975000I-353553J353550D01*
G01*
%TD*%
%TA.AperFunction,Conductor*%
%TO.N,GND*%
G36*
X150389966Y-62951101D02*
G01*
X150407684Y-62954225D01*
X150416281Y-62952709D01*
X150439034Y-62951360D01*
X150715285Y-62966900D01*
X150726329Y-62968147D01*
X151024567Y-63018905D01*
X151035402Y-63021382D01*
X151189319Y-63065803D01*
X151326059Y-63105267D01*
X151336553Y-63108946D01*
X151615961Y-63224894D01*
X151625970Y-63229722D01*
X151890632Y-63376287D01*
X151900028Y-63382202D01*
X152146584Y-63557524D01*
X152155258Y-63564458D01*
X152380584Y-63766313D01*
X152388434Y-63774183D01*
X152589713Y-64000051D01*
X152596620Y-64008740D01*
X152744382Y-64217691D01*
X152771286Y-64255736D01*
X152777187Y-64265162D01*
X152923056Y-64530201D01*
X152927862Y-64540229D01*
X153043080Y-64819938D01*
X153046731Y-64830441D01*
X153129853Y-65121307D01*
X153132304Y-65132155D01*
X153182283Y-65430523D01*
X153183501Y-65441576D01*
X153189065Y-65545310D01*
X153198059Y-65713007D01*
X153198319Y-65717862D01*
X153196911Y-65740612D01*
X153195373Y-65749204D01*
X153198541Y-65767448D01*
X153200000Y-65784385D01*
X153200000Y-67487712D01*
X153197801Y-67508463D01*
X153195577Y-67518838D01*
X153196686Y-67526832D01*
X153194374Y-67544334D01*
X153189382Y-67566032D01*
X153174323Y-67600152D01*
X153157677Y-67624218D01*
X153131061Y-67650347D01*
X153106689Y-67666548D01*
X153072303Y-67680973D01*
X153050518Y-67685565D01*
X153032976Y-67687556D01*
X153025000Y-67686299D01*
X153016500Y-67687958D01*
X153016499Y-67687958D01*
X153015070Y-67688237D01*
X153010939Y-67689043D01*
X152991977Y-67690876D01*
X152510785Y-67690876D01*
X152493594Y-67689372D01*
X152484407Y-67687752D01*
X152475877Y-67686248D01*
X152467348Y-67687752D01*
X152467068Y-67687752D01*
X152460828Y-67688608D01*
X152328792Y-67701612D01*
X152328791Y-67701612D01*
X152323950Y-67702089D01*
X152319296Y-67703501D01*
X152319295Y-67703501D01*
X152203466Y-67738637D01*
X152177861Y-67746404D01*
X152173569Y-67748698D01*
X152173562Y-67748701D01*
X152162558Y-67754583D01*
X152102325Y-67765339D01*
X152047274Y-67738637D01*
X152018432Y-67684676D01*
X152026815Y-67624068D01*
X152032302Y-67614226D01*
X152193870Y-67359636D01*
X152193879Y-67359619D01*
X152195537Y-67357007D01*
X152196854Y-67354207D01*
X152196859Y-67354199D01*
X152328176Y-67075135D01*
X152329503Y-67072315D01*
X152355332Y-66992821D01*
X152425773Y-66776029D01*
X152425775Y-66776021D01*
X152426731Y-66773079D01*
X152466008Y-66567183D01*
X152485104Y-66467078D01*
X152485105Y-66467073D01*
X152485688Y-66464015D01*
X152486689Y-66448117D01*
X152505249Y-66153099D01*
X152505444Y-66150000D01*
X152497956Y-66030976D01*
X152485884Y-65839094D01*
X152485883Y-65839088D01*
X152485688Y-65835985D01*
X152426731Y-65526921D01*
X152425775Y-65523979D01*
X152425773Y-65523971D01*
X152330465Y-65230646D01*
X152329503Y-65227685D01*
X152279543Y-65121515D01*
X152196859Y-64945801D01*
X152196854Y-64945793D01*
X152195537Y-64942993D01*
X152026947Y-64677337D01*
X152012468Y-64659834D01*
X151828371Y-64437301D01*
X151826390Y-64434906D01*
X151597030Y-64219522D01*
X151342484Y-64034584D01*
X151258691Y-63988518D01*
X151069488Y-63884502D01*
X151069482Y-63884499D01*
X151066766Y-63883006D01*
X150791352Y-63773962D01*
X150777115Y-63768325D01*
X150777112Y-63768324D01*
X150774225Y-63767181D01*
X150771222Y-63766410D01*
X150771216Y-63766408D01*
X150472480Y-63689706D01*
X150472479Y-63689706D01*
X150469473Y-63688934D01*
X150466392Y-63688545D01*
X150466388Y-63688544D01*
X150361279Y-63675266D01*
X150157318Y-63649500D01*
X149842682Y-63649500D01*
X149638721Y-63675266D01*
X149533612Y-63688544D01*
X149533608Y-63688545D01*
X149530527Y-63688934D01*
X149527521Y-63689706D01*
X149527520Y-63689706D01*
X149228784Y-63766408D01*
X149228778Y-63766410D01*
X149225775Y-63767181D01*
X149222888Y-63768324D01*
X149222885Y-63768325D01*
X149208648Y-63773962D01*
X148933234Y-63883006D01*
X148930518Y-63884499D01*
X148930512Y-63884502D01*
X148741309Y-63988518D01*
X148657516Y-64034584D01*
X148402970Y-64219522D01*
X148173610Y-64434906D01*
X148171629Y-64437301D01*
X147987533Y-64659834D01*
X147973053Y-64677337D01*
X147804463Y-64942993D01*
X147803146Y-64945793D01*
X147803141Y-64945801D01*
X147720457Y-65121515D01*
X147670497Y-65227685D01*
X147669535Y-65230646D01*
X147574227Y-65523971D01*
X147574225Y-65523979D01*
X147573269Y-65526921D01*
X147514312Y-65835985D01*
X147514117Y-65839088D01*
X147514116Y-65839094D01*
X147502044Y-66030976D01*
X147494556Y-66150000D01*
X147494751Y-66153099D01*
X147513312Y-66448117D01*
X147514312Y-66464015D01*
X147514895Y-66467073D01*
X147514896Y-66467078D01*
X147533992Y-66567183D01*
X147573269Y-66773079D01*
X147574225Y-66776021D01*
X147574227Y-66776029D01*
X147644668Y-66992821D01*
X147670497Y-67072315D01*
X147671824Y-67075135D01*
X147803141Y-67354199D01*
X147803146Y-67354207D01*
X147804463Y-67357007D01*
X147973053Y-67622663D01*
X147975029Y-67625052D01*
X147975033Y-67625057D01*
X148060091Y-67727874D01*
X148173610Y-67865094D01*
X148402970Y-68080478D01*
X148657516Y-68265416D01*
X148731327Y-68305994D01*
X148930512Y-68415498D01*
X148930518Y-68415501D01*
X148933234Y-68416994D01*
X148936122Y-68418137D01*
X148936121Y-68418137D01*
X149222885Y-68531675D01*
X149222888Y-68531676D01*
X149225775Y-68532819D01*
X149228778Y-68533590D01*
X149228784Y-68533592D01*
X149527520Y-68610294D01*
X149530527Y-68611066D01*
X149533608Y-68611455D01*
X149533612Y-68611456D01*
X149638721Y-68624734D01*
X149842682Y-68650500D01*
X150157318Y-68650500D01*
X150361279Y-68624734D01*
X150466388Y-68611456D01*
X150466392Y-68611455D01*
X150469473Y-68611066D01*
X150472480Y-68610294D01*
X150771216Y-68533592D01*
X150771222Y-68533590D01*
X150774225Y-68532819D01*
X150777112Y-68531676D01*
X150777115Y-68531675D01*
X151063879Y-68418137D01*
X151063878Y-68418137D01*
X151066766Y-68416994D01*
X151069482Y-68415501D01*
X151069488Y-68415498D01*
X151268673Y-68305994D01*
X151342484Y-68265416D01*
X151596953Y-68080534D01*
X151655144Y-68061627D01*
X151713335Y-68080534D01*
X151749299Y-68130034D01*
X151749881Y-68189365D01*
X151714782Y-68305073D01*
X151712089Y-68313950D01*
X151711612Y-68318793D01*
X151703972Y-68396363D01*
X151702813Y-68403166D01*
X151701541Y-68406346D01*
X151700920Y-68412619D01*
X151700918Y-68415035D01*
X151700918Y-68415036D01*
X151700912Y-68422658D01*
X151700435Y-68432284D01*
X151698608Y-68450832D01*
X151697752Y-68457073D01*
X151697752Y-68457348D01*
X151696248Y-68465877D01*
X151699344Y-68483433D01*
X151700847Y-68500699D01*
X151700502Y-68913720D01*
X151700029Y-69480008D01*
X151698525Y-69497115D01*
X151696882Y-69506433D01*
X151695372Y-69514999D01*
X151696876Y-69523528D01*
X151696876Y-69523808D01*
X151697732Y-69530048D01*
X151710396Y-69658628D01*
X151711213Y-69666926D01*
X151712625Y-69671580D01*
X151712625Y-69671581D01*
X151749690Y-69793768D01*
X151755528Y-69813015D01*
X151757822Y-69817307D01*
X151757823Y-69817309D01*
X151808688Y-69912468D01*
X151827493Y-69947650D01*
X151830578Y-69951410D01*
X151830580Y-69951412D01*
X151886264Y-70019264D01*
X151924340Y-70065660D01*
X151928110Y-70068754D01*
X152018649Y-70143056D01*
X152042350Y-70162507D01*
X152046638Y-70164799D01*
X152148498Y-70219245D01*
X152176985Y-70234472D01*
X152323074Y-70278787D01*
X152327917Y-70279264D01*
X152405587Y-70286914D01*
X152412450Y-70288081D01*
X152415720Y-70289385D01*
X152421993Y-70290000D01*
X152432066Y-70290000D01*
X152441768Y-70290477D01*
X152447780Y-70291069D01*
X152459953Y-70292268D01*
X152466192Y-70293124D01*
X152466472Y-70293124D01*
X152475001Y-70294628D01*
X152492719Y-70291504D01*
X152509909Y-70290000D01*
X152981483Y-70290000D01*
X152995991Y-70291069D01*
X153019238Y-70294513D01*
X153026634Y-70292998D01*
X153044396Y-70294288D01*
X153068208Y-70298433D01*
X153104808Y-70312718D01*
X153129857Y-70328840D01*
X153158020Y-70356241D01*
X153174823Y-70380837D01*
X153190108Y-70417033D01*
X153194906Y-70440726D01*
X153196682Y-70458445D01*
X153195372Y-70465876D01*
X153196876Y-70474406D01*
X153198496Y-70483593D01*
X153200000Y-70500784D01*
X153200000Y-78610113D01*
X153181093Y-78668304D01*
X153131593Y-78704268D01*
X153087526Y-78705418D01*
X153087183Y-78708026D01*
X152956433Y-78690812D01*
X152950000Y-78689965D01*
X152943567Y-78690812D01*
X152819248Y-78707179D01*
X152819246Y-78707180D01*
X152812817Y-78708026D01*
X152773592Y-78724273D01*
X152690981Y-78758491D01*
X152690977Y-78758493D01*
X152684983Y-78760976D01*
X152575209Y-78845209D01*
X152490976Y-78954983D01*
X152488493Y-78960977D01*
X152488491Y-78960981D01*
X152454842Y-79042218D01*
X152438026Y-79082817D01*
X152437180Y-79089246D01*
X152437179Y-79089248D01*
X152423233Y-79195178D01*
X152419965Y-79220000D01*
X152420812Y-79226433D01*
X152435635Y-79339019D01*
X152438026Y-79357183D01*
X152448869Y-79383361D01*
X152488491Y-79479019D01*
X152488493Y-79479023D01*
X152490976Y-79485017D01*
X152575209Y-79594791D01*
X152684982Y-79679024D01*
X152812817Y-79731974D01*
X152819246Y-79732820D01*
X152819248Y-79732821D01*
X152943567Y-79749188D01*
X152950000Y-79750035D01*
X152956433Y-79749188D01*
X153087183Y-79731974D01*
X153087569Y-79734903D01*
X153136461Y-79737456D01*
X153184018Y-79775952D01*
X153200000Y-79829887D01*
X153200000Y-93301000D01*
X153181093Y-93359191D01*
X153131593Y-93395155D01*
X153101000Y-93400000D01*
X113499000Y-93400000D01*
X113440809Y-93381093D01*
X113404845Y-93331593D01*
X113400000Y-93301000D01*
X113400000Y-91557396D01*
X115605014Y-91557396D01*
X115614723Y-91767167D01*
X115615828Y-91771751D01*
X115640284Y-91873226D01*
X115663924Y-91971318D01*
X115750840Y-92162481D01*
X115872337Y-92333760D01*
X115950327Y-92408419D01*
X116020627Y-92475717D01*
X116020631Y-92475720D01*
X116024031Y-92478975D01*
X116200446Y-92592885D01*
X116204823Y-92594649D01*
X116312011Y-92637847D01*
X116395219Y-92671381D01*
X116399843Y-92672284D01*
X116597827Y-92710948D01*
X116597834Y-92710949D01*
X116601322Y-92711630D01*
X116606843Y-92711900D01*
X116761669Y-92711900D01*
X116857740Y-92702734D01*
X116913553Y-92697409D01*
X116913555Y-92697409D01*
X116918246Y-92696961D01*
X117119749Y-92637847D01*
X117306439Y-92541695D01*
X117471579Y-92411976D01*
X117609210Y-92253371D01*
X117714366Y-92071601D01*
X117749190Y-91971318D01*
X117781709Y-91877673D01*
X117781710Y-91877671D01*
X117783253Y-91873226D01*
X117813386Y-91665404D01*
X117808387Y-91557396D01*
X148795014Y-91557396D01*
X148804723Y-91767167D01*
X148805828Y-91771751D01*
X148830284Y-91873226D01*
X148853924Y-91971318D01*
X148940840Y-92162481D01*
X149062337Y-92333760D01*
X149140327Y-92408419D01*
X149210627Y-92475717D01*
X149210631Y-92475720D01*
X149214031Y-92478975D01*
X149390446Y-92592885D01*
X149394823Y-92594649D01*
X149502011Y-92637847D01*
X149585219Y-92671381D01*
X149589843Y-92672284D01*
X149787827Y-92710948D01*
X149787834Y-92710949D01*
X149791322Y-92711630D01*
X149796843Y-92711900D01*
X149951669Y-92711900D01*
X150047740Y-92702734D01*
X150103553Y-92697409D01*
X150103555Y-92697409D01*
X150108246Y-92696961D01*
X150309749Y-92637847D01*
X150496439Y-92541695D01*
X150661579Y-92411976D01*
X150799210Y-92253371D01*
X150904366Y-92071601D01*
X150939190Y-91971318D01*
X150971709Y-91877673D01*
X150971710Y-91877671D01*
X150973253Y-91873226D01*
X151003386Y-91665404D01*
X150993677Y-91455633D01*
X150969240Y-91354236D01*
X150945581Y-91256065D01*
X150945579Y-91256060D01*
X150944476Y-91251482D01*
X150857560Y-91060319D01*
X150736063Y-90889040D01*
X150651315Y-90807912D01*
X150587773Y-90747083D01*
X150587769Y-90747080D01*
X150584369Y-90743825D01*
X150407954Y-90629915D01*
X150301739Y-90587109D01*
X150217556Y-90553182D01*
X150217554Y-90553181D01*
X150213181Y-90551419D01*
X150207887Y-90550385D01*
X150010573Y-90511852D01*
X150010566Y-90511851D01*
X150007078Y-90511170D01*
X150001557Y-90510900D01*
X149846731Y-90510900D01*
X149750660Y-90520066D01*
X149694847Y-90525391D01*
X149694845Y-90525391D01*
X149690154Y-90525839D01*
X149488651Y-90584953D01*
X149301961Y-90681105D01*
X149136821Y-90810824D01*
X148999190Y-90969429D01*
X148894034Y-91151199D01*
X148892490Y-91155644D01*
X148892490Y-91155645D01*
X148857619Y-91256065D01*
X148825147Y-91349574D01*
X148795014Y-91557396D01*
X117808387Y-91557396D01*
X117803677Y-91455633D01*
X117779240Y-91354236D01*
X117755581Y-91256065D01*
X117755579Y-91256060D01*
X117754476Y-91251482D01*
X117667560Y-91060319D01*
X117546063Y-90889040D01*
X117461315Y-90807912D01*
X117397773Y-90747083D01*
X117397769Y-90747080D01*
X117394369Y-90743825D01*
X117217954Y-90629915D01*
X117111739Y-90587109D01*
X117027556Y-90553182D01*
X117027554Y-90553181D01*
X117023181Y-90551419D01*
X117017887Y-90550385D01*
X116820573Y-90511852D01*
X116820566Y-90511851D01*
X116817078Y-90511170D01*
X116811557Y-90510900D01*
X116656731Y-90510900D01*
X116560660Y-90520066D01*
X116504847Y-90525391D01*
X116504845Y-90525391D01*
X116500154Y-90525839D01*
X116298651Y-90584953D01*
X116111961Y-90681105D01*
X115946821Y-90810824D01*
X115809190Y-90969429D01*
X115704034Y-91151199D01*
X115702490Y-91155644D01*
X115702490Y-91155645D01*
X115667619Y-91256065D01*
X115635147Y-91349574D01*
X115605014Y-91557396D01*
X113400000Y-91557396D01*
X113400000Y-77850000D01*
X116929965Y-77850000D01*
X116930812Y-77856433D01*
X116945477Y-77967819D01*
X116948026Y-77987183D01*
X116959321Y-78014451D01*
X116998491Y-78109019D01*
X116998493Y-78109023D01*
X117000976Y-78115017D01*
X117085209Y-78224791D01*
X117194982Y-78309024D01*
X117286944Y-78347115D01*
X117322817Y-78361974D01*
X117322040Y-78363849D01*
X117356842Y-78383945D01*
X117613387Y-78640490D01*
X117623928Y-78652931D01*
X117635155Y-78668643D01*
X117642935Y-78676589D01*
X117646003Y-78678880D01*
X117652119Y-78683448D01*
X117659100Y-78689176D01*
X117829315Y-78842345D01*
X117831188Y-78844030D01*
X117833217Y-78845512D01*
X117833222Y-78845516D01*
X118032531Y-78991090D01*
X118032536Y-78991093D01*
X118034577Y-78992584D01*
X118036762Y-78993861D01*
X118036768Y-78993865D01*
X118103529Y-79032885D01*
X118252024Y-79119677D01*
X118481272Y-79223989D01*
X118719942Y-79304440D01*
X118722384Y-79304994D01*
X118722390Y-79304996D01*
X118861087Y-79336479D01*
X118965559Y-79360193D01*
X118968069Y-79360499D01*
X118968075Y-79360500D01*
X119155608Y-79383361D01*
X119165251Y-79385454D01*
X119165277Y-79385319D01*
X119170813Y-79386398D01*
X119176193Y-79388099D01*
X119182800Y-79388619D01*
X119184753Y-79388619D01*
X119185948Y-79388666D01*
X119197822Y-79389852D01*
X119200669Y-79390311D01*
X119204387Y-79391209D01*
X119215470Y-79392126D01*
X119219289Y-79391851D01*
X119219292Y-79391851D01*
X119260614Y-79388875D01*
X119267725Y-79388619D01*
X124840508Y-79388619D01*
X124898699Y-79407526D01*
X124910512Y-79417615D01*
X124920504Y-79427607D01*
X124948281Y-79482124D01*
X124949500Y-79497611D01*
X124949500Y-80540307D01*
X124930593Y-80598498D01*
X124920504Y-80610311D01*
X124490311Y-81040504D01*
X124435794Y-81068281D01*
X124420307Y-81069500D01*
X123497054Y-81069500D01*
X123438863Y-81050593D01*
X123402899Y-81001093D01*
X123402899Y-80939907D01*
X123418513Y-80910231D01*
X123430073Y-80895166D01*
X123434024Y-80890017D01*
X123436507Y-80884023D01*
X123436509Y-80884019D01*
X123482028Y-80774123D01*
X123486974Y-80762183D01*
X123494114Y-80707955D01*
X123504188Y-80631433D01*
X123505035Y-80625000D01*
X123486974Y-80487817D01*
X123467707Y-80441301D01*
X123436509Y-80365981D01*
X123436507Y-80365977D01*
X123434024Y-80359983D01*
X123349791Y-80250209D01*
X123240018Y-80165976D01*
X123112183Y-80113026D01*
X123105754Y-80112180D01*
X123105752Y-80112179D01*
X122981433Y-80095812D01*
X122975000Y-80094965D01*
X122968567Y-80095812D01*
X122844248Y-80112179D01*
X122844246Y-80112180D01*
X122837817Y-80113026D01*
X122709983Y-80165976D01*
X122709785Y-80165499D01*
X122671465Y-80176926D01*
X122615299Y-80180080D01*
X122508626Y-80186071D01*
X122505880Y-80186538D01*
X122505876Y-80186538D01*
X122240015Y-80231710D01*
X122240007Y-80231712D01*
X122237281Y-80232175D01*
X122234621Y-80232941D01*
X122234618Y-80232942D01*
X121975478Y-80307598D01*
X121975472Y-80307600D01*
X121972803Y-80308369D01*
X121970231Y-80309434D01*
X121970232Y-80309434D01*
X121721090Y-80412632D01*
X121721083Y-80412635D01*
X121718520Y-80413697D01*
X121477629Y-80546833D01*
X121475370Y-80548436D01*
X121475365Y-80548439D01*
X121255426Y-80704494D01*
X121255421Y-80704498D01*
X121253159Y-80706103D01*
X121251092Y-80707951D01*
X121251086Y-80707955D01*
X121179760Y-80771696D01*
X121070599Y-80869249D01*
X121068722Y-80870926D01*
X121060169Y-80877758D01*
X121055346Y-80881191D01*
X121052611Y-80883859D01*
X121052607Y-80883863D01*
X121050152Y-80886259D01*
X121047386Y-80888958D01*
X121035724Y-80904519D01*
X121032017Y-80909465D01*
X121022800Y-80920097D01*
X119757470Y-82185427D01*
X119745867Y-82195363D01*
X119727915Y-82208478D01*
X119718288Y-82221001D01*
X119705078Y-82235092D01*
X119579730Y-82345019D01*
X119569457Y-82352902D01*
X119435170Y-82442630D01*
X119412376Y-82457861D01*
X119411717Y-82458301D01*
X119400501Y-82464776D01*
X119230362Y-82548679D01*
X119218400Y-82553635D01*
X119038755Y-82614616D01*
X119026255Y-82617966D01*
X118840178Y-82654979D01*
X118827352Y-82656667D01*
X118721036Y-82663635D01*
X118667174Y-82667165D01*
X118645472Y-82666199D01*
X118644104Y-82665986D01*
X118644102Y-82665986D01*
X118637133Y-82664901D01*
X118614352Y-82667880D01*
X118608356Y-82668664D01*
X118595520Y-82669500D01*
X118527357Y-82669500D01*
X118469166Y-82650593D01*
X118448277Y-82628191D01*
X118447688Y-82628658D01*
X118444246Y-82624315D01*
X118441315Y-82619625D01*
X118314769Y-82492193D01*
X118309854Y-82489074D01*
X118167809Y-82398929D01*
X118167808Y-82398928D01*
X118163135Y-82395963D01*
X117993950Y-82335719D01*
X117988463Y-82335065D01*
X117988460Y-82335064D01*
X117821119Y-82315110D01*
X117821116Y-82315110D01*
X117815623Y-82314455D01*
X117637016Y-82333227D01*
X117631776Y-82335011D01*
X117631775Y-82335011D01*
X117472248Y-82389318D01*
X117472244Y-82389320D01*
X117467006Y-82391103D01*
X117462296Y-82394001D01*
X117462291Y-82394003D01*
X117357777Y-82458301D01*
X117314044Y-82485206D01*
X117185731Y-82610859D01*
X117088445Y-82761817D01*
X117027021Y-82930578D01*
X117009499Y-83069283D01*
X117009499Y-84752560D01*
X117008536Y-84766338D01*
X117007153Y-84776182D01*
X117004748Y-84793291D01*
X117004705Y-84796401D01*
X117004704Y-84796409D01*
X117004584Y-84805057D01*
X117004434Y-84815784D01*
X117004781Y-84818876D01*
X117004781Y-84818879D01*
X117007071Y-84839293D01*
X117007476Y-84843854D01*
X117009021Y-84867420D01*
X117021072Y-85051301D01*
X117021701Y-85054463D01*
X117021702Y-85054471D01*
X117049121Y-85192313D01*
X117067118Y-85282788D01*
X117142985Y-85506285D01*
X117247374Y-85717966D01*
X117378501Y-85914212D01*
X117496042Y-86048242D01*
X117500664Y-86053925D01*
X117515710Y-86073893D01*
X117515719Y-86073904D01*
X117517589Y-86076385D01*
X117533272Y-86092512D01*
X117535701Y-86094451D01*
X117535702Y-86094452D01*
X117564446Y-86117398D01*
X117572686Y-86124764D01*
X118506369Y-87058447D01*
X118515429Y-87068870D01*
X118531804Y-87090600D01*
X118547487Y-87106727D01*
X118565974Y-87121485D01*
X118569459Y-87124402D01*
X118725787Y-87261498D01*
X118922033Y-87392625D01*
X119133714Y-87497014D01*
X119136783Y-87498056D01*
X119136786Y-87498057D01*
X119186914Y-87515073D01*
X119357211Y-87572881D01*
X119439191Y-87589188D01*
X119585528Y-87618297D01*
X119585536Y-87618298D01*
X119588698Y-87618927D01*
X119591919Y-87619138D01*
X119591926Y-87619139D01*
X119766563Y-87630584D01*
X119773867Y-87631336D01*
X119801722Y-87635251D01*
X119812733Y-87635405D01*
X119821099Y-87635522D01*
X119821107Y-87635522D01*
X119824215Y-87635565D01*
X119830884Y-87634817D01*
X119847286Y-87632977D01*
X119863870Y-87631117D01*
X119874905Y-87630500D01*
X134864135Y-87630500D01*
X134877913Y-87631463D01*
X134901784Y-87634818D01*
X134901786Y-87634818D01*
X134904866Y-87635251D01*
X134907976Y-87635294D01*
X134907984Y-87635295D01*
X134915995Y-87635406D01*
X134927359Y-87635565D01*
X134945095Y-87633576D01*
X134951791Y-87633055D01*
X135258910Y-87619645D01*
X135369548Y-87605079D01*
X135585799Y-87576610D01*
X135585811Y-87576608D01*
X135587937Y-87576328D01*
X135864242Y-87515073D01*
X135909823Y-87504968D01*
X135909826Y-87504967D01*
X135911938Y-87504499D01*
X136228445Y-87404705D01*
X136535050Y-87277705D01*
X136829419Y-87124466D01*
X136831884Y-87122896D01*
X136930611Y-87060000D01*
X151709965Y-87060000D01*
X151710812Y-87066433D01*
X151718301Y-87123313D01*
X151728026Y-87197183D01*
X151730509Y-87203177D01*
X151778491Y-87319019D01*
X151778493Y-87319023D01*
X151780976Y-87325017D01*
X151865209Y-87434791D01*
X151974982Y-87519024D01*
X152102817Y-87571974D01*
X152109246Y-87572820D01*
X152109248Y-87572821D01*
X152233567Y-87589188D01*
X152240000Y-87590035D01*
X152246433Y-87589188D01*
X152370752Y-87572821D01*
X152370754Y-87572820D01*
X152377183Y-87571974D01*
X152505018Y-87519024D01*
X152614791Y-87434791D01*
X152699024Y-87325017D01*
X152701507Y-87319023D01*
X152701509Y-87319019D01*
X152749491Y-87203177D01*
X152751974Y-87197183D01*
X152761700Y-87123313D01*
X152769188Y-87066433D01*
X152770035Y-87060000D01*
X152755199Y-86947309D01*
X152752821Y-86929248D01*
X152752820Y-86929246D01*
X152751974Y-86922817D01*
X152735727Y-86883592D01*
X152701509Y-86800981D01*
X152701507Y-86800977D01*
X152699024Y-86794983D01*
X152614791Y-86685209D01*
X152505018Y-86600976D01*
X152377183Y-86548026D01*
X152370754Y-86547180D01*
X152370752Y-86547179D01*
X152246433Y-86530812D01*
X152240000Y-86529965D01*
X152233567Y-86530812D01*
X152109248Y-86547179D01*
X152109246Y-86547180D01*
X152102817Y-86548026D01*
X152090601Y-86553086D01*
X151980981Y-86598491D01*
X151980977Y-86598493D01*
X151974983Y-86600976D01*
X151865209Y-86685209D01*
X151780976Y-86794983D01*
X151778493Y-86800977D01*
X151778491Y-86800981D01*
X151744273Y-86883592D01*
X151728026Y-86922817D01*
X151727180Y-86929246D01*
X151727179Y-86929248D01*
X151724801Y-86947309D01*
X151709965Y-87060000D01*
X136930611Y-87060000D01*
X137107500Y-86947309D01*
X137109313Y-86946154D01*
X137372600Y-86744126D01*
X137581091Y-86553080D01*
X137588369Y-86547026D01*
X137602172Y-86536624D01*
X137618299Y-86520941D01*
X137643185Y-86489767D01*
X137650551Y-86481527D01*
X139547078Y-84585000D01*
X148914965Y-84585000D01*
X148933026Y-84722183D01*
X148935509Y-84728177D01*
X148983491Y-84844019D01*
X148983493Y-84844023D01*
X148985976Y-84850017D01*
X149070209Y-84959791D01*
X149179982Y-85044024D01*
X149307817Y-85096974D01*
X149314246Y-85097820D01*
X149314248Y-85097821D01*
X149438567Y-85114188D01*
X149445000Y-85115035D01*
X149451433Y-85114188D01*
X149575752Y-85097821D01*
X149575754Y-85097820D01*
X149582183Y-85096974D01*
X149710018Y-85044024D01*
X149819791Y-84959791D01*
X149904024Y-84850017D01*
X149906507Y-84844023D01*
X149906509Y-84844019D01*
X149954491Y-84728177D01*
X149956974Y-84722183D01*
X149975035Y-84585000D01*
X149956974Y-84447817D01*
X149907769Y-84329024D01*
X149906509Y-84325981D01*
X149906507Y-84325977D01*
X149904024Y-84319983D01*
X149819791Y-84210209D01*
X149710018Y-84125976D01*
X149582183Y-84073026D01*
X149575754Y-84072180D01*
X149575752Y-84072179D01*
X149451433Y-84055812D01*
X149445000Y-84054965D01*
X149438567Y-84055812D01*
X149314248Y-84072179D01*
X149314246Y-84072180D01*
X149307817Y-84073026D01*
X149268592Y-84089273D01*
X149185981Y-84123491D01*
X149185977Y-84123493D01*
X149179983Y-84125976D01*
X149070209Y-84210209D01*
X148985976Y-84319983D01*
X148983493Y-84325977D01*
X148983491Y-84325981D01*
X148982231Y-84329024D01*
X148933026Y-84447817D01*
X148914965Y-84585000D01*
X139547078Y-84585000D01*
X139807098Y-84324980D01*
X139816424Y-84316759D01*
X139838555Y-84299592D01*
X139842932Y-84296197D01*
X139846446Y-84291919D01*
X139846451Y-84291914D01*
X139861318Y-84273814D01*
X139871851Y-84262832D01*
X139897801Y-84239642D01*
X140027132Y-84124064D01*
X140035810Y-84117144D01*
X140227912Y-83980841D01*
X140237297Y-83974944D01*
X140427179Y-83870000D01*
X151499965Y-83870000D01*
X151500812Y-83876433D01*
X151514559Y-83980846D01*
X151518026Y-84007183D01*
X151520509Y-84013177D01*
X151568491Y-84129019D01*
X151568493Y-84129023D01*
X151570976Y-84135017D01*
X151655209Y-84244791D01*
X151764982Y-84329024D01*
X151892817Y-84381974D01*
X151899246Y-84382820D01*
X151899248Y-84382821D01*
X152023567Y-84399188D01*
X152030000Y-84400035D01*
X152036433Y-84399188D01*
X152160752Y-84382821D01*
X152160754Y-84382820D01*
X152167183Y-84381974D01*
X152295018Y-84329024D01*
X152404791Y-84244791D01*
X152489024Y-84135017D01*
X152491507Y-84129023D01*
X152491509Y-84129019D01*
X152539491Y-84013177D01*
X152541974Y-84007183D01*
X152545442Y-83980846D01*
X152559188Y-83876433D01*
X152560035Y-83870000D01*
X152546070Y-83763929D01*
X152542821Y-83739248D01*
X152542820Y-83739246D01*
X152541974Y-83732817D01*
X152516162Y-83670500D01*
X152491509Y-83610981D01*
X152491507Y-83610977D01*
X152489024Y-83604983D01*
X152431319Y-83529781D01*
X152408742Y-83500358D01*
X152404791Y-83495209D01*
X152295018Y-83410976D01*
X152167183Y-83358026D01*
X152160754Y-83357180D01*
X152160752Y-83357179D01*
X152036433Y-83340812D01*
X152030000Y-83339965D01*
X152023567Y-83340812D01*
X151899248Y-83357179D01*
X151899246Y-83357180D01*
X151892817Y-83358026D01*
X151857811Y-83372526D01*
X151770981Y-83408491D01*
X151770977Y-83408493D01*
X151764983Y-83410976D01*
X151655209Y-83495209D01*
X151651258Y-83500358D01*
X151628681Y-83529781D01*
X151570976Y-83604983D01*
X151568493Y-83610977D01*
X151568491Y-83610981D01*
X151543838Y-83670500D01*
X151518026Y-83732817D01*
X151517180Y-83739246D01*
X151517179Y-83739248D01*
X151513930Y-83763929D01*
X151499965Y-83870000D01*
X140427179Y-83870000D01*
X140443452Y-83861006D01*
X140453442Y-83856195D01*
X140671063Y-83766054D01*
X140681528Y-83762392D01*
X140804991Y-83726823D01*
X140907869Y-83697185D01*
X140918692Y-83694715D01*
X141061210Y-83670500D01*
X141150898Y-83655261D01*
X141161921Y-83654020D01*
X141326227Y-83644792D01*
X141358528Y-83642978D01*
X141376487Y-83643603D01*
X141381056Y-83644180D01*
X141391393Y-83645486D01*
X141437430Y-83640972D01*
X141447091Y-83640500D01*
X145405155Y-83640500D01*
X145407909Y-83640191D01*
X145407911Y-83640191D01*
X145435291Y-83637120D01*
X145538472Y-83625546D01*
X145612307Y-83599834D01*
X145702847Y-83568305D01*
X145702848Y-83568305D01*
X145708073Y-83566485D01*
X145725584Y-83555543D01*
X145778046Y-83540500D01*
X149348938Y-83540500D01*
X149362887Y-83541488D01*
X149387800Y-83545034D01*
X149387804Y-83545034D01*
X149391006Y-83545490D01*
X149394238Y-83545524D01*
X149394239Y-83545524D01*
X149398168Y-83545565D01*
X149405784Y-83545645D01*
X149430071Y-83542706D01*
X149435490Y-83542201D01*
X149624993Y-83529781D01*
X149624999Y-83529780D01*
X149628221Y-83529569D01*
X149846851Y-83486081D01*
X150057935Y-83414428D01*
X150086661Y-83400262D01*
X150254954Y-83317270D01*
X150254959Y-83317267D01*
X150257861Y-83315836D01*
X150443207Y-83191991D01*
X150528827Y-83116904D01*
X150574164Y-83077145D01*
X150579996Y-83072409D01*
X150598713Y-83058356D01*
X150598721Y-83058349D01*
X150601301Y-83056412D01*
X150611860Y-83046072D01*
X150617488Y-83038895D01*
X150634601Y-83017069D01*
X150642496Y-83008160D01*
X150802254Y-82848403D01*
X150812791Y-82839260D01*
X150835513Y-82822200D01*
X150846072Y-82811860D01*
X150861154Y-82792626D01*
X150864627Y-82788440D01*
X150989851Y-82645649D01*
X150989855Y-82645644D01*
X150991992Y-82643207D01*
X151115837Y-82457861D01*
X151214429Y-82257936D01*
X151286082Y-82046852D01*
X151329570Y-81828221D01*
X151330380Y-81815873D01*
X151340963Y-81654402D01*
X151341738Y-81646930D01*
X151345034Y-81623767D01*
X151345034Y-81623766D01*
X151345490Y-81620562D01*
X151345645Y-81605784D01*
X151341217Y-81569194D01*
X151340500Y-81557301D01*
X151340500Y-81327729D01*
X151340729Y-81320995D01*
X151343071Y-81286638D01*
X151344678Y-81263070D01*
X151343653Y-81257199D01*
X151343653Y-81257194D01*
X151333702Y-81200180D01*
X151332945Y-81195053D01*
X151325993Y-81137604D01*
X151325993Y-81137603D01*
X151325276Y-81131680D01*
X151322022Y-81123068D01*
X151317108Y-81105104D01*
X151315527Y-81096046D01*
X151289870Y-81037596D01*
X151287912Y-81032798D01*
X151267455Y-80978661D01*
X151265345Y-80973077D01*
X151261967Y-80968162D01*
X151261963Y-80968154D01*
X151260135Y-80965495D01*
X151251077Y-80949222D01*
X151249777Y-80946261D01*
X151247379Y-80940798D01*
X151243748Y-80936066D01*
X151243745Y-80936061D01*
X151208513Y-80890146D01*
X151205467Y-80885954D01*
X151172693Y-80838268D01*
X151172692Y-80838267D01*
X151169312Y-80833349D01*
X151164859Y-80829382D01*
X151164856Y-80829378D01*
X151122774Y-80791885D01*
X151118628Y-80787972D01*
X150338021Y-80007365D01*
X150310244Y-79952848D01*
X150319815Y-79892416D01*
X150363080Y-79849151D01*
X150370140Y-79845897D01*
X150429020Y-79821509D01*
X150429024Y-79821507D01*
X150435018Y-79819024D01*
X150544791Y-79734791D01*
X150629024Y-79625017D01*
X150631507Y-79619023D01*
X150631509Y-79619019D01*
X150679491Y-79503177D01*
X150681974Y-79497183D01*
X150684366Y-79479019D01*
X150699188Y-79366433D01*
X150700035Y-79360000D01*
X150688420Y-79271775D01*
X150682821Y-79229248D01*
X150682820Y-79229246D01*
X150681974Y-79222817D01*
X150656432Y-79161152D01*
X150631509Y-79100981D01*
X150631507Y-79100977D01*
X150629024Y-79094983D01*
X150544791Y-78985209D01*
X150539642Y-78981258D01*
X150539637Y-78981253D01*
X150477430Y-78933519D01*
X150442775Y-78883095D01*
X150444377Y-78821930D01*
X150481625Y-78773389D01*
X150540291Y-78756012D01*
X150550610Y-78756824D01*
X150574999Y-78760035D01*
X150581432Y-78759188D01*
X150583195Y-78758956D01*
X150605556Y-78756012D01*
X150705751Y-78742821D01*
X150705753Y-78742820D01*
X150712182Y-78741974D01*
X150840017Y-78689024D01*
X150949790Y-78604791D01*
X151034023Y-78495017D01*
X151036506Y-78489023D01*
X151036508Y-78489019D01*
X151071973Y-78403397D01*
X151086973Y-78367183D01*
X151092868Y-78322412D01*
X151104187Y-78236433D01*
X151105034Y-78230000D01*
X151086973Y-78092817D01*
X151057969Y-78022794D01*
X151036508Y-77970981D01*
X151036506Y-77970977D01*
X151034023Y-77964983D01*
X150949790Y-77855209D01*
X150944641Y-77851258D01*
X150944638Y-77851255D01*
X150921554Y-77833542D01*
X150886898Y-77783118D01*
X150888499Y-77721953D01*
X150921554Y-77676458D01*
X150944638Y-77658745D01*
X150944641Y-77658742D01*
X150949790Y-77654791D01*
X151034023Y-77545017D01*
X151036506Y-77539023D01*
X151036508Y-77539019D01*
X151084490Y-77423177D01*
X151086973Y-77417183D01*
X151090424Y-77390976D01*
X151104187Y-77286433D01*
X151105034Y-77280000D01*
X151086973Y-77142817D01*
X151059626Y-77076794D01*
X151036508Y-77020981D01*
X151036506Y-77020977D01*
X151034023Y-77014983D01*
X150949790Y-76905209D01*
X150944641Y-76901258D01*
X150944637Y-76901254D01*
X150881806Y-76853041D01*
X150847151Y-76802617D01*
X150848753Y-76741452D01*
X150886001Y-76692911D01*
X150942074Y-76675500D01*
X151021045Y-76675500D01*
X151034994Y-76676488D01*
X151059907Y-76680034D01*
X151059913Y-76680034D01*
X151063114Y-76680490D01*
X151066346Y-76680524D01*
X151066347Y-76680524D01*
X151070276Y-76680565D01*
X151077892Y-76680645D01*
X151109698Y-76676797D01*
X151113812Y-76676385D01*
X151143654Y-76674037D01*
X151262403Y-76664691D01*
X151262408Y-76664690D01*
X151266273Y-76664386D01*
X151270045Y-76663481D01*
X151270048Y-76663480D01*
X151446239Y-76621181D01*
X151446242Y-76621180D01*
X151450016Y-76620274D01*
X151453606Y-76618787D01*
X151621004Y-76549448D01*
X151621010Y-76549445D01*
X151624595Y-76547960D01*
X151627906Y-76545931D01*
X151627910Y-76545929D01*
X151726172Y-76485713D01*
X151785713Y-76449226D01*
X151788673Y-76446698D01*
X151886496Y-76363149D01*
X151891349Y-76359261D01*
X151917258Y-76339808D01*
X151917261Y-76339805D01*
X151919856Y-76337857D01*
X151925375Y-76332453D01*
X151928095Y-76329789D01*
X151928096Y-76329788D01*
X151930415Y-76327517D01*
X151953157Y-76298513D01*
X151961060Y-76289596D01*
X152093685Y-76156972D01*
X152104245Y-76147808D01*
X152124366Y-76132700D01*
X152126962Y-76130751D01*
X152129278Y-76128483D01*
X152129285Y-76128477D01*
X152135205Y-76122679D01*
X152137521Y-76120411D01*
X152157299Y-76095188D01*
X152159925Y-76091981D01*
X152245981Y-75991221D01*
X152259229Y-75975710D01*
X152264077Y-75967800D01*
X152348300Y-75830358D01*
X152357961Y-75814593D01*
X152430273Y-75640015D01*
X152474385Y-75456274D01*
X152475010Y-75448343D01*
X152484785Y-75324135D01*
X152485468Y-75317955D01*
X152490032Y-75285881D01*
X152490489Y-75282672D01*
X152490644Y-75267894D01*
X152486216Y-75231303D01*
X152485499Y-75219409D01*
X152485499Y-73527484D01*
X152470275Y-73401680D01*
X152410344Y-73243077D01*
X152384423Y-73205361D01*
X152317691Y-73108267D01*
X152314311Y-73103349D01*
X152187720Y-72990560D01*
X152037880Y-72911224D01*
X151955660Y-72890572D01*
X151879230Y-72871373D01*
X151879227Y-72871373D01*
X151873440Y-72869919D01*
X151787840Y-72869471D01*
X151709860Y-72869062D01*
X151709858Y-72869062D01*
X151703894Y-72869031D01*
X151698098Y-72870423D01*
X151698094Y-72870423D01*
X151590702Y-72896207D01*
X151539031Y-72908612D01*
X151463699Y-72947494D01*
X151393674Y-72983636D01*
X151393672Y-72983638D01*
X151388368Y-72986375D01*
X151260603Y-73097831D01*
X151257172Y-73102713D01*
X151257171Y-73102714D01*
X151185030Y-73205361D01*
X151163112Y-73236547D01*
X151143970Y-73285643D01*
X151115074Y-73359758D01*
X151101523Y-73394513D01*
X151084499Y-73523826D01*
X151084499Y-75143838D01*
X151065592Y-75202029D01*
X151055501Y-75213843D01*
X151023838Y-75245505D01*
X150969321Y-75273281D01*
X150953836Y-75274500D01*
X150678954Y-75274500D01*
X150665005Y-75273512D01*
X150640092Y-75269966D01*
X150640086Y-75269966D01*
X150636885Y-75269510D01*
X150633653Y-75269476D01*
X150633652Y-75269476D01*
X150629927Y-75269437D01*
X150622107Y-75269355D01*
X150618904Y-75269743D01*
X150618898Y-75269743D01*
X150597443Y-75272340D01*
X150590293Y-75273205D01*
X150586173Y-75273617D01*
X150560090Y-75275669D01*
X150437597Y-75285309D01*
X150437592Y-75285310D01*
X150433727Y-75285614D01*
X150249986Y-75329726D01*
X150235390Y-75335772D01*
X150079007Y-75400547D01*
X150079004Y-75400548D01*
X150075408Y-75402038D01*
X150065307Y-75408228D01*
X149917603Y-75498740D01*
X149917599Y-75498743D01*
X149914291Y-75500770D01*
X149874454Y-75534794D01*
X149813514Y-75586841D01*
X149808662Y-75590729D01*
X149782737Y-75610194D01*
X149782729Y-75610201D01*
X149780149Y-75612138D01*
X149769590Y-75622478D01*
X149767593Y-75625025D01*
X149746850Y-75651479D01*
X149738948Y-75660396D01*
X149441480Y-75957864D01*
X149429876Y-75967800D01*
X149404597Y-75986267D01*
X149404593Y-75986271D01*
X149401511Y-75988522D01*
X148990679Y-76399354D01*
X148983058Y-76406222D01*
X148981686Y-76407335D01*
X148975637Y-76410957D01*
X148970849Y-76416130D01*
X148970847Y-76416131D01*
X148968388Y-76418788D01*
X148949228Y-76434841D01*
X148903299Y-76464332D01*
X148880307Y-76479095D01*
X148858385Y-76489621D01*
X148764295Y-76521274D01*
X148740472Y-76526139D01*
X148641499Y-76533900D01*
X148617203Y-76532809D01*
X148519329Y-76516207D01*
X148496034Y-76509226D01*
X148405155Y-76469263D01*
X148384268Y-76456816D01*
X148324402Y-76410300D01*
X148313776Y-76399373D01*
X148313284Y-76399855D01*
X148308353Y-76394818D01*
X148304181Y-76389128D01*
X148278427Y-76369400D01*
X148268626Y-76360812D01*
X147298103Y-75390289D01*
X147270326Y-75335772D01*
X147279897Y-75275340D01*
X147298103Y-75250281D01*
X147299642Y-75248742D01*
X147304791Y-75244791D01*
X147389024Y-75135017D01*
X147391507Y-75129023D01*
X147391509Y-75129019D01*
X147439491Y-75013177D01*
X147441974Y-75007183D01*
X147445719Y-74978742D01*
X147459188Y-74876433D01*
X147460035Y-74870000D01*
X147446279Y-74765515D01*
X147442821Y-74739248D01*
X147442820Y-74739246D01*
X147441974Y-74732817D01*
X147425727Y-74693592D01*
X147391509Y-74610981D01*
X147391507Y-74610977D01*
X147389024Y-74604983D01*
X147304791Y-74495209D01*
X147195018Y-74410976D01*
X147067183Y-74358026D01*
X147060754Y-74357180D01*
X147060752Y-74357179D01*
X146936433Y-74340812D01*
X146930000Y-74339965D01*
X146923567Y-74340812D01*
X146799248Y-74357179D01*
X146799246Y-74357180D01*
X146792817Y-74358026D01*
X146753592Y-74374273D01*
X146670981Y-74408491D01*
X146670977Y-74408493D01*
X146664983Y-74410976D01*
X146555209Y-74495209D01*
X146551258Y-74500358D01*
X146525035Y-74534532D01*
X146474610Y-74569187D01*
X146421658Y-74569880D01*
X146417183Y-74568026D01*
X146410756Y-74567180D01*
X146410753Y-74567179D01*
X146382397Y-74563446D01*
X146327172Y-74537104D01*
X146297167Y-74478216D01*
X146291273Y-74433450D01*
X146281974Y-74362817D01*
X146254408Y-74296265D01*
X146231509Y-74240981D01*
X146231507Y-74240977D01*
X146229024Y-74234983D01*
X146144791Y-74125209D01*
X146035018Y-74040976D01*
X145907183Y-73988026D01*
X145900754Y-73987180D01*
X145900752Y-73987179D01*
X145776433Y-73970812D01*
X145770000Y-73969965D01*
X145763567Y-73970812D01*
X145639248Y-73987179D01*
X145639246Y-73987180D01*
X145632817Y-73988026D01*
X145626824Y-73990509D01*
X145625124Y-73990964D01*
X145564022Y-73987763D01*
X145516472Y-73949258D01*
X145500500Y-73895338D01*
X145500500Y-72849676D01*
X145501347Y-72836754D01*
X145504403Y-72813542D01*
X145504403Y-72813541D01*
X145505250Y-72807108D01*
X145504046Y-72797959D01*
X145501855Y-72781318D01*
X145501313Y-72776164D01*
X145491080Y-72646135D01*
X145491079Y-72646130D01*
X145490775Y-72642265D01*
X145470902Y-72559487D01*
X145453081Y-72485257D01*
X145453080Y-72485254D01*
X145452174Y-72481480D01*
X145426560Y-72419642D01*
X145390384Y-72332305D01*
X145390381Y-72332299D01*
X145388896Y-72328714D01*
X145384218Y-72321079D01*
X145304530Y-72191042D01*
X145304529Y-72191041D01*
X145302499Y-72187728D01*
X145299975Y-72184772D01*
X145299970Y-72184766D01*
X145261826Y-72140106D01*
X145255424Y-72130842D01*
X145255120Y-72131053D01*
X145252158Y-72126791D01*
X145249659Y-72122245D01*
X145242655Y-72114131D01*
X145224742Y-72096218D01*
X145219475Y-72090519D01*
X145215273Y-72085599D01*
X145212024Y-72081588D01*
X145200121Y-72066076D01*
X145200120Y-72066075D01*
X145196172Y-72060930D01*
X145189234Y-72055607D01*
X145188319Y-72054275D01*
X145186437Y-72052393D01*
X145186786Y-72052044D01*
X145154578Y-72005186D01*
X145150500Y-71977064D01*
X145150500Y-70060000D01*
X147479965Y-70060000D01*
X147480812Y-70066433D01*
X147493461Y-70162507D01*
X147498026Y-70197183D01*
X147500509Y-70203177D01*
X147548491Y-70319019D01*
X147548493Y-70319023D01*
X147550976Y-70325017D01*
X147635209Y-70434791D01*
X147744982Y-70519024D01*
X147872817Y-70571974D01*
X147879246Y-70572820D01*
X147879248Y-70572821D01*
X148003567Y-70589188D01*
X148010000Y-70590035D01*
X148016433Y-70589188D01*
X148140752Y-70572821D01*
X148140754Y-70572820D01*
X148147183Y-70571974D01*
X148275018Y-70519024D01*
X148384791Y-70434791D01*
X148469024Y-70325017D01*
X148471507Y-70319023D01*
X148471509Y-70319019D01*
X148519491Y-70203177D01*
X148521974Y-70197183D01*
X148526540Y-70162507D01*
X148539188Y-70066433D01*
X148540035Y-70060000D01*
X148525739Y-69951412D01*
X148522821Y-69929248D01*
X148522820Y-69929246D01*
X148521974Y-69922817D01*
X148478510Y-69817884D01*
X148473709Y-69756889D01*
X148478510Y-69742115D01*
X148494547Y-69703399D01*
X148521974Y-69637183D01*
X148529273Y-69581747D01*
X148537855Y-69516557D01*
X148540035Y-69500000D01*
X148529437Y-69419500D01*
X148522821Y-69369248D01*
X148522820Y-69369246D01*
X148521974Y-69362817D01*
X148489708Y-69284918D01*
X148471509Y-69240981D01*
X148471507Y-69240977D01*
X148469024Y-69234983D01*
X148384791Y-69125209D01*
X148275018Y-69040976D01*
X148147183Y-68988026D01*
X148140754Y-68987180D01*
X148140752Y-68987179D01*
X148016433Y-68970812D01*
X148010000Y-68969965D01*
X148003567Y-68970812D01*
X147879248Y-68987179D01*
X147879246Y-68987180D01*
X147872817Y-68988026D01*
X147860787Y-68993009D01*
X147750981Y-69038491D01*
X147750977Y-69038493D01*
X147744983Y-69040976D01*
X147635209Y-69125209D01*
X147550976Y-69234983D01*
X147548493Y-69240977D01*
X147548491Y-69240981D01*
X147530292Y-69284918D01*
X147498026Y-69362817D01*
X147497180Y-69369246D01*
X147497179Y-69369248D01*
X147490563Y-69419500D01*
X147479965Y-69500000D01*
X147482145Y-69516557D01*
X147490728Y-69581747D01*
X147498026Y-69637183D01*
X147525453Y-69703399D01*
X147541490Y-69742115D01*
X147546291Y-69803111D01*
X147541491Y-69817883D01*
X147498026Y-69922817D01*
X147497180Y-69929246D01*
X147497179Y-69929248D01*
X147494261Y-69951412D01*
X147479965Y-70060000D01*
X145150500Y-70060000D01*
X145150500Y-67752215D01*
X145143827Y-67703501D01*
X145136122Y-67647251D01*
X145136121Y-67647247D01*
X145135206Y-67640568D01*
X145132529Y-67634382D01*
X145132528Y-67634378D01*
X145077986Y-67508339D01*
X145077984Y-67508335D01*
X145075305Y-67502145D01*
X144980386Y-67384930D01*
X144938373Y-67355073D01*
X144862940Y-67301465D01*
X144862939Y-67301464D01*
X144857442Y-67297558D01*
X144851097Y-67295274D01*
X144851094Y-67295272D01*
X144721880Y-67248752D01*
X144721877Y-67248751D01*
X144715532Y-67246467D01*
X144671586Y-67243240D01*
X144571842Y-67235914D01*
X144571839Y-67235914D01*
X144565109Y-67235420D01*
X144558494Y-67236754D01*
X144558492Y-67236754D01*
X144512773Y-67245973D01*
X144417257Y-67265233D01*
X144411248Y-67268295D01*
X144411247Y-67268295D01*
X144398498Y-67274791D01*
X144282868Y-67333707D01*
X144277905Y-67338270D01*
X144277903Y-67338272D01*
X144216292Y-67394927D01*
X144171844Y-67435799D01*
X144168284Y-67441541D01*
X144104550Y-67544334D01*
X144092365Y-67563986D01*
X144050285Y-67708825D01*
X144049905Y-67713995D01*
X144049905Y-67713997D01*
X144049756Y-67716035D01*
X144049500Y-67719515D01*
X144049500Y-72000324D01*
X144048653Y-72013246D01*
X144044750Y-72042892D01*
X144045597Y-72049326D01*
X144045597Y-72049327D01*
X144048145Y-72068682D01*
X144048687Y-72073836D01*
X144057608Y-72187183D01*
X144059225Y-72207735D01*
X144060131Y-72211508D01*
X144089132Y-72332305D01*
X144097826Y-72368520D01*
X144099313Y-72372110D01*
X144159616Y-72517695D01*
X144159619Y-72517701D01*
X144161104Y-72521286D01*
X144247501Y-72662272D01*
X144288177Y-72709898D01*
X144294578Y-72719161D01*
X144294881Y-72718950D01*
X144297840Y-72723208D01*
X144300340Y-72727755D01*
X144307344Y-72735869D01*
X144325264Y-72753789D01*
X144330531Y-72759488D01*
X144334727Y-72764401D01*
X144337972Y-72768407D01*
X144353828Y-72789070D01*
X144358977Y-72793021D01*
X144360764Y-72794392D01*
X144361679Y-72795723D01*
X144363565Y-72797609D01*
X144363215Y-72797959D01*
X144395422Y-72844815D01*
X144399500Y-72872937D01*
X144399500Y-73983342D01*
X144380593Y-74041533D01*
X144331093Y-74077497D01*
X144287578Y-74081495D01*
X144206434Y-74070812D01*
X144206433Y-74070812D01*
X144200000Y-74069965D01*
X144193567Y-74070812D01*
X144069248Y-74087179D01*
X144069246Y-74087180D01*
X144062817Y-74088026D01*
X143934983Y-74140976D01*
X143929834Y-74144927D01*
X143924215Y-74148171D01*
X143923030Y-74146118D01*
X143875110Y-74163089D01*
X143816443Y-74145713D01*
X143802511Y-74134127D01*
X143798742Y-74130358D01*
X143794791Y-74125209D01*
X143685018Y-74040976D01*
X143557183Y-73988026D01*
X143550754Y-73987180D01*
X143550752Y-73987179D01*
X143426433Y-73970812D01*
X143420000Y-73969965D01*
X143413567Y-73970812D01*
X143289248Y-73987179D01*
X143289246Y-73987180D01*
X143282817Y-73988026D01*
X143243592Y-74004273D01*
X143160981Y-74038491D01*
X143160977Y-74038493D01*
X143154983Y-74040976D01*
X143045209Y-74125209D01*
X142960976Y-74234983D01*
X142958493Y-74240977D01*
X142958491Y-74240981D01*
X142935592Y-74296265D01*
X142908026Y-74362817D01*
X142907180Y-74369246D01*
X142907179Y-74369248D01*
X142901165Y-74414927D01*
X142889965Y-74500000D01*
X142890812Y-74506433D01*
X142906529Y-74625809D01*
X142908026Y-74637183D01*
X142910509Y-74643177D01*
X142958491Y-74759019D01*
X142958493Y-74759023D01*
X142960976Y-74765017D01*
X143045209Y-74874791D01*
X143154982Y-74959024D01*
X143282817Y-75011974D01*
X143289246Y-75012820D01*
X143289248Y-75012821D01*
X143413567Y-75029188D01*
X143420000Y-75030035D01*
X143426433Y-75029188D01*
X143550752Y-75012821D01*
X143550754Y-75012820D01*
X143557183Y-75011974D01*
X143685018Y-74959024D01*
X143690167Y-74955073D01*
X143695788Y-74951828D01*
X143696973Y-74953881D01*
X143744898Y-74936912D01*
X143803563Y-74954291D01*
X143817490Y-74965874D01*
X143821258Y-74969642D01*
X143825209Y-74974791D01*
X143934982Y-75059024D01*
X143973656Y-75075043D01*
X143980155Y-75077735D01*
X144026681Y-75117471D01*
X144040965Y-75176966D01*
X144017551Y-75233494D01*
X144012293Y-75239182D01*
X143893724Y-75357752D01*
X143883996Y-75366282D01*
X143860272Y-75384486D01*
X143855820Y-75390289D01*
X143854536Y-75391962D01*
X143838794Y-75408228D01*
X143803049Y-75437562D01*
X143786914Y-75448343D01*
X143726403Y-75480687D01*
X143708475Y-75488114D01*
X143642806Y-75508034D01*
X143623779Y-75511818D01*
X143577758Y-75516351D01*
X143555139Y-75515981D01*
X143545787Y-75514750D01*
X143539354Y-75515597D01*
X143539353Y-75515597D01*
X143516141Y-75518653D01*
X143503219Y-75519500D01*
X141562215Y-75519500D01*
X141558872Y-75519958D01*
X141558871Y-75519958D01*
X141457251Y-75533878D01*
X141457247Y-75533879D01*
X141450568Y-75534794D01*
X141444382Y-75537471D01*
X141444378Y-75537472D01*
X141318339Y-75592014D01*
X141318335Y-75592016D01*
X141312145Y-75594695D01*
X141194930Y-75689614D01*
X141107558Y-75812558D01*
X141105274Y-75818903D01*
X141105272Y-75818906D01*
X141058752Y-75948120D01*
X141056467Y-75954468D01*
X141055973Y-75961197D01*
X141046133Y-76095188D01*
X141045420Y-76104891D01*
X141075233Y-76252743D01*
X141143707Y-76387132D01*
X141148273Y-76392098D01*
X141151487Y-76396722D01*
X141169170Y-76455296D01*
X141149048Y-76513077D01*
X141100785Y-76547375D01*
X141031757Y-76569804D01*
X141031753Y-76569806D01*
X141025828Y-76571731D01*
X140887059Y-76659797D01*
X140882799Y-76664333D01*
X140882797Y-76664335D01*
X140789684Y-76763491D01*
X140774551Y-76779606D01*
X140695372Y-76923631D01*
X140654499Y-77082822D01*
X140654499Y-80212991D01*
X140653652Y-80225912D01*
X140649757Y-80255498D01*
X140650412Y-80261431D01*
X140650412Y-80261434D01*
X140652252Y-80278094D01*
X140652694Y-80294509D01*
X140642175Y-80481823D01*
X140640038Y-80519869D01*
X140638796Y-80530896D01*
X140623900Y-80618567D01*
X140596524Y-80779687D01*
X140594054Y-80790511D01*
X140531911Y-81006215D01*
X140524191Y-81033010D01*
X140520524Y-81043488D01*
X140423952Y-81276635D01*
X140419138Y-81286632D01*
X140311572Y-81481258D01*
X140297067Y-81507503D01*
X140291160Y-81516903D01*
X140149310Y-81716823D01*
X140145129Y-81722715D01*
X140138207Y-81731394D01*
X139992591Y-81894338D01*
X139979041Y-81906911D01*
X139972580Y-81911869D01*
X139972577Y-81911872D01*
X139967845Y-81915503D01*
X139944230Y-81944979D01*
X139936981Y-81953073D01*
X138991126Y-82898928D01*
X138981390Y-82907466D01*
X138957399Y-82925875D01*
X138748913Y-83116917D01*
X138741625Y-83122978D01*
X138730312Y-83131503D01*
X138730307Y-83131508D01*
X138727826Y-83133377D01*
X138711699Y-83149060D01*
X138709761Y-83151488D01*
X138686807Y-83180242D01*
X138679440Y-83188482D01*
X136522901Y-85345021D01*
X136513575Y-85353242D01*
X136487067Y-85373804D01*
X136468679Y-85396190D01*
X136458146Y-85407171D01*
X136343977Y-85509199D01*
X136302869Y-85545935D01*
X136294192Y-85552855D01*
X136102087Y-85689160D01*
X136092702Y-85695056D01*
X135886548Y-85808994D01*
X135876558Y-85813805D01*
X135658942Y-85903945D01*
X135648466Y-85907611D01*
X135422131Y-85972816D01*
X135411308Y-85975286D01*
X135363794Y-85983359D01*
X135179101Y-86014740D01*
X135168079Y-86015981D01*
X134971479Y-86027022D01*
X134953522Y-86026398D01*
X134951677Y-86026165D01*
X134938606Y-86024514D01*
X134933108Y-86025053D01*
X134933105Y-86025053D01*
X134892569Y-86029028D01*
X134882908Y-86029500D01*
X119881154Y-86029500D01*
X119868749Y-86028719D01*
X119835460Y-86024514D01*
X119824091Y-86025629D01*
X119818617Y-86026165D01*
X119796036Y-86025790D01*
X119785500Y-86024403D01*
X119760539Y-86017714D01*
X119736505Y-86007759D01*
X119714133Y-85994845D01*
X119713152Y-85994092D01*
X119702363Y-85983359D01*
X119701873Y-85983835D01*
X119698021Y-85979874D01*
X119694624Y-85975495D01*
X119658889Y-85946142D01*
X119651723Y-85939645D01*
X118709192Y-84997114D01*
X118700971Y-84987788D01*
X118683804Y-84965657D01*
X118680409Y-84961280D01*
X118676130Y-84957765D01*
X118676128Y-84957763D01*
X118667336Y-84950541D01*
X118651633Y-84934308D01*
X118645160Y-84925872D01*
X118632239Y-84903492D01*
X118622285Y-84879461D01*
X118615595Y-84854490D01*
X118615435Y-84853274D01*
X118615393Y-84838065D01*
X118614715Y-84838056D01*
X118614792Y-84832517D01*
X118615485Y-84827033D01*
X118614686Y-84818879D01*
X118610971Y-84780996D01*
X118610499Y-84771335D01*
X118610499Y-83669139D01*
X118629406Y-83610948D01*
X118678906Y-83574984D01*
X118703947Y-83570295D01*
X118906374Y-83558927D01*
X118909120Y-83558460D01*
X118909124Y-83558460D01*
X119174978Y-83513290D01*
X119174980Y-83513290D01*
X119177720Y-83512824D01*
X119268349Y-83486714D01*
X119439525Y-83437399D01*
X119439528Y-83437398D01*
X119442197Y-83436629D01*
X119493280Y-83415470D01*
X119693910Y-83332367D01*
X119693917Y-83332364D01*
X119696480Y-83331302D01*
X119734806Y-83310120D01*
X119934936Y-83199513D01*
X119934945Y-83199507D01*
X119937372Y-83198166D01*
X120107934Y-83077145D01*
X120159582Y-83040499D01*
X120159587Y-83040495D01*
X120161842Y-83038895D01*
X120175960Y-83026279D01*
X120346278Y-82874073D01*
X120354811Y-82867256D01*
X120359656Y-82863807D01*
X120363373Y-82860180D01*
X120364873Y-82858717D01*
X120364876Y-82858714D01*
X120367615Y-82856041D01*
X120382984Y-82835534D01*
X120392201Y-82824902D01*
X121657531Y-81559572D01*
X121669134Y-81549636D01*
X121675982Y-81544633D01*
X121687086Y-81536521D01*
X121693785Y-81527807D01*
X121696710Y-81524001D01*
X121709920Y-81509909D01*
X121835280Y-81399972D01*
X121845546Y-81392095D01*
X122003279Y-81286700D01*
X122014495Y-81280224D01*
X122176810Y-81200180D01*
X122184642Y-81196318D01*
X122196604Y-81191363D01*
X122197411Y-81191089D01*
X122376245Y-81130383D01*
X122388745Y-81127033D01*
X122545388Y-81095875D01*
X122554206Y-81094121D01*
X122614967Y-81101313D01*
X122659897Y-81142846D01*
X122671834Y-81202855D01*
X122646218Y-81258420D01*
X122630305Y-81272314D01*
X122490861Y-81369953D01*
X122329953Y-81530861D01*
X122327476Y-81534399D01*
X122327474Y-81534401D01*
X122214603Y-81695599D01*
X122199432Y-81717266D01*
X122103261Y-81923504D01*
X122102143Y-81927677D01*
X122045769Y-82138070D01*
X122044365Y-82143308D01*
X122024532Y-82370000D01*
X122044365Y-82596692D01*
X122045484Y-82600867D01*
X122045484Y-82600869D01*
X122060435Y-82656668D01*
X122103261Y-82816496D01*
X122199432Y-83022734D01*
X122201913Y-83026277D01*
X122201914Y-83026279D01*
X122322270Y-83198166D01*
X122329953Y-83209139D01*
X122490861Y-83370047D01*
X122494399Y-83372524D01*
X122494401Y-83372526D01*
X122627500Y-83465722D01*
X122677266Y-83500568D01*
X122883504Y-83596739D01*
X122934391Y-83610374D01*
X123099131Y-83654516D01*
X123099133Y-83654516D01*
X123103308Y-83655635D01*
X123147795Y-83659527D01*
X123271050Y-83670311D01*
X123271061Y-83670311D01*
X123273216Y-83670500D01*
X124886217Y-83670500D01*
X124886221Y-83670501D01*
X125113779Y-83670501D01*
X125118032Y-83669751D01*
X125118033Y-83669751D01*
X125165666Y-83661352D01*
X125174228Y-83660225D01*
X125208142Y-83657258D01*
X125226692Y-83655635D01*
X125230867Y-83654516D01*
X125230869Y-83654516D01*
X125270059Y-83644015D01*
X125277578Y-83642000D01*
X125286002Y-83640133D01*
X125337880Y-83630985D01*
X125387377Y-83612970D01*
X125395610Y-83610374D01*
X125415730Y-83604983D01*
X125446496Y-83596739D01*
X125450411Y-83594914D01*
X125450415Y-83594912D01*
X125494237Y-83574478D01*
X125502214Y-83571174D01*
X125547646Y-83554638D01*
X125547656Y-83554633D01*
X125551715Y-83553156D01*
X125597357Y-83526805D01*
X125604992Y-83522831D01*
X125648810Y-83502398D01*
X125648821Y-83502393D01*
X125648824Y-83502392D01*
X125652734Y-83500568D01*
X125695873Y-83470362D01*
X125703157Y-83465722D01*
X125745037Y-83441543D01*
X125745049Y-83441534D01*
X125748786Y-83439377D01*
X125780226Y-83412996D01*
X125789135Y-83405520D01*
X125795987Y-83400262D01*
X125835599Y-83372526D01*
X125835601Y-83372524D01*
X125839139Y-83370047D01*
X125879186Y-83330000D01*
X129794556Y-83330000D01*
X129794751Y-83333099D01*
X129814091Y-83640500D01*
X129814312Y-83644015D01*
X129873269Y-83953079D01*
X129874225Y-83956021D01*
X129874227Y-83956029D01*
X129932384Y-84135017D01*
X129970497Y-84252315D01*
X129971824Y-84255135D01*
X130103141Y-84534199D01*
X130103146Y-84534207D01*
X130104463Y-84537007D01*
X130273053Y-84802663D01*
X130275029Y-84805052D01*
X130275033Y-84805057D01*
X130314922Y-84853274D01*
X130473610Y-85045094D01*
X130702970Y-85260478D01*
X130705489Y-85262308D01*
X130705490Y-85262309D01*
X130733677Y-85282788D01*
X130957516Y-85445416D01*
X130960243Y-85446915D01*
X131230512Y-85595498D01*
X131230518Y-85595501D01*
X131233234Y-85596994D01*
X131236122Y-85598137D01*
X131236121Y-85598137D01*
X131522885Y-85711675D01*
X131522888Y-85711676D01*
X131525775Y-85712819D01*
X131528778Y-85713590D01*
X131528784Y-85713592D01*
X131827520Y-85790294D01*
X131830527Y-85791066D01*
X131833608Y-85791455D01*
X131833612Y-85791456D01*
X131938721Y-85804734D01*
X132142682Y-85830500D01*
X132457318Y-85830500D01*
X132661279Y-85804734D01*
X132766388Y-85791456D01*
X132766392Y-85791455D01*
X132769473Y-85791066D01*
X132772480Y-85790294D01*
X133071216Y-85713592D01*
X133071222Y-85713590D01*
X133074225Y-85712819D01*
X133077112Y-85711676D01*
X133077115Y-85711675D01*
X133363879Y-85598137D01*
X133363878Y-85598137D01*
X133366766Y-85596994D01*
X133369482Y-85595501D01*
X133369488Y-85595498D01*
X133639757Y-85446915D01*
X133642484Y-85445416D01*
X133866323Y-85282788D01*
X133894510Y-85262309D01*
X133894511Y-85262308D01*
X133897030Y-85260478D01*
X134126390Y-85045094D01*
X134285078Y-84853274D01*
X134324967Y-84805057D01*
X134324971Y-84805052D01*
X134326947Y-84802663D01*
X134495537Y-84537007D01*
X134496854Y-84534207D01*
X134496859Y-84534199D01*
X134628176Y-84255135D01*
X134629503Y-84252315D01*
X134667616Y-84135017D01*
X134725773Y-83956029D01*
X134725775Y-83956021D01*
X134726731Y-83953079D01*
X134785688Y-83644015D01*
X134785910Y-83640500D01*
X134805249Y-83333099D01*
X134805444Y-83330000D01*
X134797840Y-83209136D01*
X134785884Y-83019094D01*
X134785883Y-83019088D01*
X134785688Y-83015985D01*
X134726731Y-82706921D01*
X134725775Y-82703979D01*
X134725773Y-82703971D01*
X134630465Y-82410646D01*
X134629503Y-82407685D01*
X134594194Y-82332649D01*
X134496859Y-82125801D01*
X134496854Y-82125793D01*
X134495537Y-82122993D01*
X134326947Y-81857337D01*
X134323829Y-81853567D01*
X134155957Y-81650646D01*
X134126390Y-81614906D01*
X134111562Y-81600981D01*
X134020651Y-81515610D01*
X133897030Y-81399522D01*
X133642484Y-81214584D01*
X133501313Y-81136974D01*
X133369488Y-81064502D01*
X133369482Y-81064499D01*
X133366766Y-81063006D01*
X133309932Y-81040504D01*
X133077115Y-80948325D01*
X133077112Y-80948324D01*
X133074225Y-80947181D01*
X133071222Y-80946410D01*
X133071216Y-80946408D01*
X132772480Y-80869706D01*
X132772479Y-80869706D01*
X132769473Y-80868934D01*
X132766392Y-80868545D01*
X132766388Y-80868544D01*
X132657772Y-80854823D01*
X132457318Y-80829500D01*
X132142682Y-80829500D01*
X131942228Y-80854823D01*
X131833612Y-80868544D01*
X131833608Y-80868545D01*
X131830527Y-80868934D01*
X131827521Y-80869706D01*
X131827520Y-80869706D01*
X131528784Y-80946408D01*
X131528778Y-80946410D01*
X131525775Y-80947181D01*
X131522888Y-80948324D01*
X131522885Y-80948325D01*
X131290068Y-81040504D01*
X131233234Y-81063006D01*
X131230518Y-81064499D01*
X131230512Y-81064502D01*
X131098687Y-81136974D01*
X130957516Y-81214584D01*
X130702970Y-81399522D01*
X130579349Y-81515610D01*
X130488439Y-81600981D01*
X130473610Y-81614906D01*
X130444043Y-81650646D01*
X130276172Y-81853567D01*
X130273053Y-81857337D01*
X130104463Y-82122993D01*
X130103146Y-82125793D01*
X130103141Y-82125801D01*
X130005806Y-82332649D01*
X129970497Y-82407685D01*
X129969535Y-82410646D01*
X129874227Y-82703971D01*
X129874225Y-82703979D01*
X129873269Y-82706921D01*
X129814312Y-83015985D01*
X129814117Y-83019088D01*
X129814116Y-83019094D01*
X129802160Y-83209136D01*
X129794556Y-83330000D01*
X125879186Y-83330000D01*
X126000047Y-83209139D01*
X126000049Y-83209136D01*
X127089136Y-82120049D01*
X127089139Y-82120047D01*
X127250047Y-81959139D01*
X127254295Y-81953073D01*
X127280262Y-81915987D01*
X127285520Y-81909135D01*
X127316598Y-81872098D01*
X127316599Y-81872097D01*
X127319377Y-81868786D01*
X127321534Y-81865049D01*
X127321543Y-81865037D01*
X127345722Y-81823157D01*
X127350362Y-81815873D01*
X127378091Y-81776271D01*
X127380568Y-81772734D01*
X127402831Y-81724992D01*
X127406805Y-81717357D01*
X127433156Y-81671715D01*
X127434633Y-81667656D01*
X127434638Y-81667646D01*
X127451174Y-81622214D01*
X127454478Y-81614237D01*
X127474912Y-81570415D01*
X127474914Y-81570411D01*
X127476739Y-81566496D01*
X127490375Y-81515608D01*
X127492971Y-81507374D01*
X127509505Y-81461946D01*
X127510985Y-81457880D01*
X127520133Y-81406002D01*
X127522001Y-81397575D01*
X127534516Y-81350869D01*
X127534516Y-81350867D01*
X127535635Y-81346692D01*
X127540225Y-81294228D01*
X127541352Y-81285666D01*
X127549751Y-81238033D01*
X127549751Y-81238032D01*
X127550501Y-81233779D01*
X127550501Y-81006221D01*
X127550500Y-81006215D01*
X127550500Y-79080000D01*
X129869965Y-79080000D01*
X129888026Y-79217183D01*
X129893752Y-79231006D01*
X129938491Y-79339019D01*
X129938493Y-79339023D01*
X129940976Y-79345017D01*
X130025209Y-79454791D01*
X130134982Y-79539024D01*
X130262817Y-79591974D01*
X130269246Y-79592820D01*
X130269248Y-79592821D01*
X130393567Y-79609188D01*
X130400000Y-79610035D01*
X130406433Y-79609188D01*
X130530752Y-79592821D01*
X130530754Y-79592820D01*
X130537183Y-79591974D01*
X130665018Y-79539024D01*
X130774791Y-79454791D01*
X130859024Y-79345017D01*
X130861507Y-79339023D01*
X130861509Y-79339019D01*
X130906248Y-79231006D01*
X130911974Y-79217183D01*
X130930035Y-79080000D01*
X130923832Y-79032885D01*
X130912821Y-78949248D01*
X130912820Y-78949246D01*
X130911974Y-78942817D01*
X130895123Y-78902133D01*
X136027832Y-78902133D01*
X136028679Y-78908566D01*
X136040150Y-78995692D01*
X136045893Y-79039316D01*
X136048376Y-79045310D01*
X136096358Y-79161152D01*
X136096360Y-79161156D01*
X136098843Y-79167150D01*
X136183076Y-79276924D01*
X136292849Y-79361157D01*
X136420684Y-79414107D01*
X136427113Y-79414953D01*
X136427115Y-79414954D01*
X136551434Y-79431321D01*
X136557867Y-79432168D01*
X136564300Y-79431321D01*
X136688619Y-79414954D01*
X136688621Y-79414953D01*
X136695050Y-79414107D01*
X136822885Y-79361157D01*
X136932658Y-79276924D01*
X137016891Y-79167150D01*
X137019374Y-79161156D01*
X137019376Y-79161152D01*
X137068639Y-79042218D01*
X137108375Y-78995692D01*
X137122218Y-78988639D01*
X137140050Y-78981253D01*
X137247151Y-78936891D01*
X137356924Y-78852658D01*
X137441157Y-78742884D01*
X137443640Y-78736890D01*
X137443642Y-78736886D01*
X137482483Y-78643114D01*
X137494107Y-78615050D01*
X137496256Y-78598731D01*
X137511006Y-78486691D01*
X137512168Y-78477867D01*
X137502364Y-78403397D01*
X137494954Y-78347115D01*
X137494953Y-78347113D01*
X137494107Y-78340684D01*
X137476439Y-78298029D01*
X137443642Y-78218848D01*
X137443640Y-78218844D01*
X137441157Y-78212850D01*
X137356924Y-78103076D01*
X137247151Y-78018843D01*
X137119316Y-77965893D01*
X137112887Y-77965047D01*
X137112885Y-77965046D01*
X136988566Y-77948679D01*
X136982133Y-77947832D01*
X136975700Y-77948679D01*
X136851381Y-77965046D01*
X136851379Y-77965047D01*
X136844950Y-77965893D01*
X136810088Y-77980333D01*
X136723114Y-78016358D01*
X136723110Y-78016360D01*
X136717116Y-78018843D01*
X136607342Y-78103076D01*
X136523109Y-78212850D01*
X136520626Y-78218844D01*
X136520624Y-78218848D01*
X136471361Y-78337782D01*
X136431625Y-78384308D01*
X136417782Y-78391361D01*
X136298848Y-78440624D01*
X136298844Y-78440626D01*
X136292850Y-78443109D01*
X136183076Y-78527342D01*
X136098843Y-78637116D01*
X136096360Y-78643110D01*
X136096358Y-78643114D01*
X136068443Y-78710509D01*
X136045893Y-78764950D01*
X136045047Y-78771379D01*
X136045046Y-78771381D01*
X136033757Y-78857129D01*
X136027832Y-78902133D01*
X130895123Y-78902133D01*
X130887237Y-78883095D01*
X130861509Y-78820981D01*
X130861507Y-78820977D01*
X130859024Y-78814983D01*
X130774791Y-78705209D01*
X130665018Y-78620976D01*
X130537183Y-78568026D01*
X130530754Y-78567180D01*
X130530752Y-78567179D01*
X130406433Y-78550812D01*
X130400000Y-78549965D01*
X130393567Y-78550812D01*
X130269248Y-78567179D01*
X130269246Y-78567180D01*
X130262817Y-78568026D01*
X130223592Y-78584273D01*
X130140981Y-78618491D01*
X130140977Y-78618493D01*
X130134983Y-78620976D01*
X130129834Y-78624927D01*
X130046104Y-78689176D01*
X130025209Y-78705209D01*
X129940976Y-78814983D01*
X129938493Y-78820977D01*
X129938491Y-78820981D01*
X129912763Y-78883095D01*
X129888026Y-78942817D01*
X129887180Y-78949246D01*
X129887179Y-78949248D01*
X129876168Y-79032885D01*
X129869965Y-79080000D01*
X127550500Y-79080000D01*
X127550500Y-74902698D01*
X140473175Y-74902698D01*
X140474022Y-74909131D01*
X140489940Y-75030035D01*
X140491236Y-75039881D01*
X140493719Y-75045875D01*
X140541701Y-75161717D01*
X140541703Y-75161721D01*
X140544186Y-75167715D01*
X140628419Y-75277489D01*
X140738192Y-75361722D01*
X140866027Y-75414672D01*
X140872456Y-75415518D01*
X140872458Y-75415519D01*
X140996777Y-75431886D01*
X141003210Y-75432733D01*
X141009643Y-75431886D01*
X141133962Y-75415519D01*
X141133964Y-75415518D01*
X141140393Y-75414672D01*
X141268228Y-75361722D01*
X141378001Y-75277489D01*
X141462234Y-75167715D01*
X141464717Y-75161721D01*
X141464719Y-75161717D01*
X141512701Y-75045875D01*
X141515184Y-75039881D01*
X141516481Y-75030035D01*
X141532398Y-74909131D01*
X141533245Y-74902698D01*
X141515184Y-74765515D01*
X141463436Y-74640583D01*
X141458635Y-74579587D01*
X141463436Y-74564813D01*
X141475979Y-74534532D01*
X141515184Y-74439881D01*
X141518470Y-74414927D01*
X141532398Y-74309131D01*
X141533245Y-74302698D01*
X141515184Y-74165515D01*
X141484116Y-74090509D01*
X141464719Y-74043679D01*
X141464717Y-74043675D01*
X141462234Y-74037681D01*
X141378001Y-73927907D01*
X141268228Y-73843674D01*
X141140393Y-73790724D01*
X141133964Y-73789878D01*
X141133962Y-73789877D01*
X141009643Y-73773510D01*
X141003210Y-73772663D01*
X140996777Y-73773510D01*
X140872458Y-73789877D01*
X140872456Y-73789878D01*
X140866027Y-73790724D01*
X140826802Y-73806971D01*
X140744191Y-73841189D01*
X140744187Y-73841191D01*
X140738193Y-73843674D01*
X140628419Y-73927907D01*
X140544186Y-74037681D01*
X140541703Y-74043675D01*
X140541701Y-74043679D01*
X140522304Y-74090509D01*
X140491236Y-74165515D01*
X140473175Y-74302698D01*
X140474022Y-74309131D01*
X140487951Y-74414927D01*
X140491236Y-74439881D01*
X140530441Y-74534532D01*
X140542984Y-74564813D01*
X140547785Y-74625809D01*
X140542984Y-74640583D01*
X140491236Y-74765515D01*
X140473175Y-74902698D01*
X127550500Y-74902698D01*
X127550500Y-72830570D01*
X132314964Y-72830570D01*
X132315811Y-72837003D01*
X132325583Y-72911224D01*
X132333025Y-72967753D01*
X132349272Y-73006978D01*
X132383490Y-73089589D01*
X132383492Y-73089593D01*
X132385975Y-73095587D01*
X132470208Y-73205361D01*
X132579981Y-73289594D01*
X132707816Y-73342544D01*
X132714245Y-73343390D01*
X132714247Y-73343391D01*
X132838566Y-73359758D01*
X132844999Y-73360605D01*
X132851432Y-73359758D01*
X132975751Y-73343391D01*
X132975753Y-73343390D01*
X132982182Y-73342544D01*
X133107115Y-73290796D01*
X133168110Y-73285995D01*
X133182879Y-73290794D01*
X133307816Y-73342544D01*
X133314245Y-73343390D01*
X133314247Y-73343391D01*
X133438566Y-73359758D01*
X133444999Y-73360605D01*
X133451432Y-73359758D01*
X133575751Y-73343391D01*
X133575753Y-73343390D01*
X133582182Y-73342544D01*
X133710017Y-73289594D01*
X133819790Y-73205361D01*
X133904023Y-73095587D01*
X133906506Y-73089593D01*
X133906508Y-73089589D01*
X133940726Y-73006978D01*
X133956973Y-72967753D01*
X133964416Y-72911224D01*
X133974187Y-72837003D01*
X133975034Y-72830570D01*
X133970741Y-72797959D01*
X133957820Y-72699818D01*
X133957819Y-72699816D01*
X133956973Y-72693387D01*
X133926775Y-72620481D01*
X133921974Y-72559487D01*
X133953943Y-72507318D01*
X134010471Y-72483903D01*
X134069966Y-72498187D01*
X134078503Y-72504053D01*
X134079831Y-72505072D01*
X134079833Y-72505073D01*
X134084982Y-72509024D01*
X134212817Y-72561974D01*
X134219246Y-72562820D01*
X134219248Y-72562821D01*
X134343567Y-72579188D01*
X134350000Y-72580035D01*
X134356433Y-72579188D01*
X134480752Y-72562821D01*
X134480754Y-72562820D01*
X134487183Y-72561974D01*
X134615018Y-72509024D01*
X134724791Y-72424791D01*
X134809024Y-72315017D01*
X134811507Y-72309023D01*
X134811509Y-72309019D01*
X134859491Y-72193177D01*
X134859492Y-72193174D01*
X134861974Y-72187183D01*
X134870524Y-72122245D01*
X134879188Y-72056433D01*
X134880035Y-72050000D01*
X134861974Y-71912817D01*
X134845727Y-71873592D01*
X134811509Y-71790981D01*
X134811507Y-71790977D01*
X134809024Y-71784983D01*
X134724791Y-71675209D01*
X134615018Y-71590976D01*
X134487183Y-71538026D01*
X134480754Y-71537180D01*
X134480752Y-71537179D01*
X134356433Y-71520812D01*
X134350000Y-71519965D01*
X134343567Y-71520812D01*
X134219248Y-71537179D01*
X134219246Y-71537180D01*
X134212817Y-71538026D01*
X134173592Y-71554273D01*
X134090981Y-71588491D01*
X134090977Y-71588493D01*
X134084983Y-71590976D01*
X133975209Y-71675209D01*
X133890976Y-71784983D01*
X133888493Y-71790977D01*
X133888491Y-71790981D01*
X133854273Y-71873592D01*
X133838026Y-71912817D01*
X133819965Y-72050000D01*
X133820812Y-72056433D01*
X133829477Y-72122245D01*
X133838026Y-72187183D01*
X133868224Y-72260089D01*
X133873025Y-72321083D01*
X133841056Y-72373252D01*
X133784528Y-72396667D01*
X133725033Y-72382383D01*
X133716496Y-72376517D01*
X133715168Y-72375498D01*
X133715165Y-72375496D01*
X133710017Y-72371546D01*
X133582182Y-72318596D01*
X133575753Y-72317750D01*
X133575751Y-72317749D01*
X133451432Y-72301382D01*
X133444999Y-72300535D01*
X133438566Y-72301382D01*
X133314247Y-72317749D01*
X133314245Y-72317750D01*
X133307816Y-72318596D01*
X133185981Y-72369061D01*
X133182884Y-72370344D01*
X133121888Y-72375145D01*
X133107119Y-72370346D01*
X132982182Y-72318596D01*
X132975753Y-72317750D01*
X132975751Y-72317749D01*
X132851432Y-72301382D01*
X132844999Y-72300535D01*
X132838566Y-72301382D01*
X132714247Y-72317749D01*
X132714245Y-72317750D01*
X132707816Y-72318596D01*
X132701812Y-72321083D01*
X132585980Y-72369061D01*
X132585976Y-72369063D01*
X132579982Y-72371546D01*
X132470208Y-72455779D01*
X132385975Y-72565553D01*
X132383492Y-72571547D01*
X132383490Y-72571551D01*
X132380327Y-72579188D01*
X132333025Y-72693387D01*
X132332179Y-72699816D01*
X132332178Y-72699818D01*
X132319257Y-72797959D01*
X132314964Y-72830570D01*
X127550500Y-72830570D01*
X127550500Y-70005412D01*
X128955772Y-70005412D01*
X128965695Y-70163138D01*
X128984404Y-70220719D01*
X129009656Y-70298433D01*
X129014532Y-70313441D01*
X129017870Y-70318701D01*
X129017871Y-70318703D01*
X129065725Y-70394108D01*
X129099213Y-70446877D01*
X129214417Y-70555062D01*
X129219880Y-70558065D01*
X129219881Y-70558066D01*
X129347449Y-70628197D01*
X129347453Y-70628198D01*
X129352907Y-70631197D01*
X129358933Y-70632744D01*
X129358935Y-70632745D01*
X129499945Y-70668951D01*
X129499949Y-70668952D01*
X129505980Y-70670500D01*
X129924349Y-70670500D01*
X130041791Y-70655664D01*
X130188731Y-70597486D01*
X130302163Y-70515073D01*
X130311550Y-70508253D01*
X130311551Y-70508252D01*
X130316586Y-70504594D01*
X130320552Y-70499800D01*
X130320555Y-70499797D01*
X130413353Y-70387622D01*
X130417323Y-70382823D01*
X130484613Y-70239826D01*
X130488983Y-70216921D01*
X130513059Y-70090704D01*
X130514226Y-70084588D01*
X130504303Y-69926862D01*
X130468493Y-69816650D01*
X130457392Y-69782486D01*
X130457391Y-69782485D01*
X130455466Y-69776559D01*
X130448142Y-69765017D01*
X130374122Y-69648381D01*
X130374121Y-69648380D01*
X130370785Y-69643123D01*
X130255581Y-69534938D01*
X130241751Y-69527335D01*
X130122549Y-69461803D01*
X130122545Y-69461802D01*
X130117091Y-69458803D01*
X130111065Y-69457256D01*
X130111063Y-69457255D01*
X129970053Y-69421049D01*
X129970049Y-69421048D01*
X129964018Y-69419500D01*
X129545649Y-69419500D01*
X129428207Y-69434336D01*
X129281267Y-69492514D01*
X129153412Y-69585406D01*
X129149446Y-69590200D01*
X129149443Y-69590203D01*
X129059812Y-69698550D01*
X129052675Y-69707177D01*
X128985385Y-69850174D01*
X128984219Y-69856288D01*
X128984218Y-69856290D01*
X128971887Y-69920935D01*
X128955772Y-70005412D01*
X127550500Y-70005412D01*
X127550500Y-68688402D01*
X130304940Y-68688402D01*
X130305595Y-68694335D01*
X130305595Y-68694339D01*
X130317687Y-68803867D01*
X130321553Y-68838883D01*
X130323605Y-68844490D01*
X130371529Y-68975451D01*
X130371531Y-68975455D01*
X130373581Y-68981057D01*
X130458021Y-69106716D01*
X130462433Y-69110731D01*
X130462436Y-69110734D01*
X130564938Y-69204004D01*
X130569997Y-69208607D01*
X130609092Y-69229834D01*
X130697800Y-69277999D01*
X130697802Y-69278000D01*
X130703046Y-69280847D01*
X130779481Y-69300899D01*
X130843716Y-69317751D01*
X130843720Y-69317751D01*
X130849485Y-69319264D01*
X130855446Y-69319358D01*
X130855449Y-69319358D01*
X130925174Y-69320453D01*
X131000862Y-69321642D01*
X131006678Y-69320310D01*
X131142613Y-69289177D01*
X131142616Y-69289176D01*
X131148436Y-69287843D01*
X131283688Y-69219819D01*
X131283692Y-69219827D01*
X131340360Y-69204004D01*
X131383455Y-69215914D01*
X131390647Y-69219819D01*
X131458234Y-69256516D01*
X131500351Y-69300899D01*
X131509148Y-69356441D01*
X131504940Y-69388402D01*
X131505595Y-69394335D01*
X131505595Y-69394339D01*
X131518916Y-69514999D01*
X131521553Y-69538883D01*
X131526415Y-69552168D01*
X131571529Y-69675451D01*
X131571530Y-69675453D01*
X131573581Y-69681057D01*
X131658021Y-69806716D01*
X131662433Y-69810731D01*
X131662436Y-69810734D01*
X131764938Y-69904004D01*
X131769997Y-69908607D01*
X131804705Y-69927452D01*
X131897800Y-69977999D01*
X131897802Y-69978000D01*
X131903046Y-69980847D01*
X131979797Y-70000982D01*
X132043716Y-70017751D01*
X132043720Y-70017751D01*
X132049485Y-70019264D01*
X132055446Y-70019358D01*
X132055449Y-70019358D01*
X132125173Y-70020453D01*
X132200862Y-70021642D01*
X132206678Y-70020310D01*
X132342613Y-69989177D01*
X132342616Y-69989176D01*
X132348436Y-69987843D01*
X132483688Y-69919819D01*
X132483692Y-69919827D01*
X132540360Y-69904004D01*
X132583455Y-69915914D01*
X132603618Y-69926862D01*
X132697800Y-69977999D01*
X132697802Y-69978000D01*
X132703046Y-69980847D01*
X132779797Y-70000982D01*
X132843716Y-70017751D01*
X132843720Y-70017751D01*
X132849485Y-70019264D01*
X132855446Y-70019358D01*
X132855449Y-70019358D01*
X132925173Y-70020453D01*
X133000862Y-70021642D01*
X133006678Y-70020310D01*
X133142613Y-69989177D01*
X133142616Y-69989176D01*
X133148436Y-69987843D01*
X133283688Y-69919819D01*
X133283692Y-69919827D01*
X133340360Y-69904004D01*
X133383455Y-69915914D01*
X133403618Y-69926862D01*
X133497800Y-69977999D01*
X133497802Y-69978000D01*
X133503046Y-69980847D01*
X133579797Y-70000982D01*
X133643716Y-70017751D01*
X133643720Y-70017751D01*
X133649485Y-70019264D01*
X133655446Y-70019358D01*
X133655449Y-70019358D01*
X133725173Y-70020453D01*
X133800862Y-70021642D01*
X133806678Y-70020310D01*
X133942613Y-69989177D01*
X133942616Y-69989176D01*
X133948436Y-69987843D01*
X134083688Y-69919819D01*
X134083692Y-69919827D01*
X134140360Y-69904004D01*
X134183455Y-69915914D01*
X134203618Y-69926862D01*
X134297800Y-69977999D01*
X134297802Y-69978000D01*
X134303046Y-69980847D01*
X134379797Y-70000982D01*
X134443716Y-70017751D01*
X134443720Y-70017751D01*
X134449485Y-70019264D01*
X134455446Y-70019358D01*
X134455449Y-70019358D01*
X134525173Y-70020453D01*
X134600862Y-70021642D01*
X134606678Y-70020310D01*
X134671727Y-70005412D01*
X136305772Y-70005412D01*
X136315695Y-70163138D01*
X136334404Y-70220719D01*
X136359656Y-70298433D01*
X136364532Y-70313441D01*
X136367870Y-70318701D01*
X136367871Y-70318703D01*
X136415725Y-70394108D01*
X136449213Y-70446877D01*
X136564417Y-70555062D01*
X136569880Y-70558065D01*
X136569881Y-70558066D01*
X136697449Y-70628197D01*
X136697453Y-70628198D01*
X136702907Y-70631197D01*
X136708933Y-70632744D01*
X136708935Y-70632745D01*
X136849945Y-70668951D01*
X136849949Y-70668952D01*
X136855980Y-70670500D01*
X136974349Y-70670500D01*
X137091791Y-70655664D01*
X137238731Y-70597486D01*
X137352163Y-70515073D01*
X137361550Y-70508253D01*
X137361551Y-70508252D01*
X137366586Y-70504594D01*
X137370552Y-70499800D01*
X137370555Y-70499797D01*
X137463353Y-70387622D01*
X137467323Y-70382823D01*
X137534613Y-70239826D01*
X137538983Y-70216921D01*
X137563059Y-70090704D01*
X137564226Y-70084588D01*
X137554303Y-69926862D01*
X137518493Y-69816650D01*
X137507392Y-69782486D01*
X137507391Y-69782485D01*
X137505466Y-69776559D01*
X137498142Y-69765017D01*
X137424122Y-69648381D01*
X137424121Y-69648380D01*
X137420785Y-69643123D01*
X137305581Y-69534938D01*
X137291751Y-69527335D01*
X137172549Y-69461803D01*
X137172545Y-69461802D01*
X137167091Y-69458803D01*
X137161065Y-69457256D01*
X137161063Y-69457255D01*
X137020053Y-69421049D01*
X137020049Y-69421048D01*
X137014018Y-69419500D01*
X136895649Y-69419500D01*
X136778207Y-69434336D01*
X136631267Y-69492514D01*
X136503412Y-69585406D01*
X136499446Y-69590200D01*
X136499443Y-69590203D01*
X136409812Y-69698550D01*
X136402675Y-69707177D01*
X136335385Y-69850174D01*
X136334219Y-69856288D01*
X136334218Y-69856290D01*
X136321887Y-69920935D01*
X136305772Y-70005412D01*
X134671727Y-70005412D01*
X134742613Y-69989177D01*
X134742616Y-69989176D01*
X134748436Y-69987843D01*
X134759336Y-69982361D01*
X134878354Y-69922502D01*
X134878356Y-69922501D01*
X134883688Y-69919819D01*
X134998809Y-69821495D01*
X135061439Y-69734337D01*
X135083671Y-69703399D01*
X135083672Y-69703397D01*
X135087155Y-69698550D01*
X135143623Y-69558080D01*
X135159281Y-69448066D01*
X135164499Y-69411401D01*
X135164499Y-69411399D01*
X135164955Y-69408196D01*
X135165093Y-69395000D01*
X135161977Y-69369248D01*
X135160273Y-69355168D01*
X135172053Y-69295127D01*
X135214074Y-69254831D01*
X135216348Y-69253687D01*
X135283688Y-69219819D01*
X135283692Y-69219827D01*
X135340360Y-69204004D01*
X135383455Y-69215914D01*
X135390647Y-69219819D01*
X135497800Y-69277999D01*
X135497802Y-69278000D01*
X135503046Y-69280847D01*
X135579481Y-69300899D01*
X135643716Y-69317751D01*
X135643720Y-69317751D01*
X135649485Y-69319264D01*
X135655446Y-69319358D01*
X135655449Y-69319358D01*
X135725174Y-69320453D01*
X135800862Y-69321642D01*
X135806678Y-69320310D01*
X135942613Y-69289177D01*
X135942616Y-69289176D01*
X135948436Y-69287843D01*
X135959336Y-69282361D01*
X136078354Y-69222502D01*
X136078356Y-69222501D01*
X136083688Y-69219819D01*
X136198809Y-69121495D01*
X136253829Y-69044927D01*
X136283671Y-69003399D01*
X136283672Y-69003397D01*
X136287155Y-68998550D01*
X136343623Y-68858080D01*
X136364955Y-68708196D01*
X136365093Y-68695000D01*
X136346905Y-68544701D01*
X136316565Y-68464407D01*
X136295501Y-68408664D01*
X136293391Y-68403080D01*
X136207639Y-68278311D01*
X136141790Y-68219642D01*
X136099056Y-68181567D01*
X136099054Y-68181566D01*
X136094602Y-68177599D01*
X136083127Y-68171523D01*
X136047051Y-68152422D01*
X135960804Y-68106757D01*
X135955016Y-68105303D01*
X135955013Y-68105302D01*
X135819759Y-68071328D01*
X135819760Y-68071328D01*
X135813971Y-68069874D01*
X135738274Y-68069478D01*
X135668544Y-68069113D01*
X135668542Y-68069113D01*
X135662578Y-68069082D01*
X135515366Y-68104424D01*
X135380834Y-68173861D01*
X135379627Y-68171523D01*
X135331197Y-68185572D01*
X135288022Y-68174115D01*
X135268395Y-68163723D01*
X135160804Y-68106757D01*
X135155016Y-68105303D01*
X135155013Y-68105302D01*
X135019759Y-68071328D01*
X135019760Y-68071328D01*
X135013971Y-68069874D01*
X134938274Y-68069478D01*
X134868544Y-68069113D01*
X134868542Y-68069113D01*
X134862578Y-68069082D01*
X134715366Y-68104424D01*
X134580834Y-68173861D01*
X134579627Y-68171523D01*
X134531197Y-68185572D01*
X134488022Y-68174115D01*
X134468395Y-68163723D01*
X134360804Y-68106757D01*
X134355016Y-68105303D01*
X134355013Y-68105302D01*
X134219759Y-68071328D01*
X134219760Y-68071328D01*
X134213971Y-68069874D01*
X134138274Y-68069478D01*
X134068544Y-68069113D01*
X134068542Y-68069113D01*
X134062578Y-68069082D01*
X133915366Y-68104424D01*
X133862977Y-68131464D01*
X133786140Y-68171122D01*
X133786138Y-68171124D01*
X133780834Y-68173861D01*
X133666748Y-68273385D01*
X133663317Y-68278267D01*
X133663316Y-68278268D01*
X133641511Y-68309294D01*
X133579695Y-68397249D01*
X133577528Y-68402807D01*
X133577527Y-68402809D01*
X133527285Y-68531675D01*
X133524701Y-68538302D01*
X133523922Y-68544217D01*
X133523922Y-68544218D01*
X133523079Y-68550623D01*
X133504940Y-68688402D01*
X133505595Y-68694335D01*
X133505595Y-68694339D01*
X133510154Y-68735631D01*
X133497746Y-68795545D01*
X133457159Y-68834467D01*
X133380835Y-68873861D01*
X133379628Y-68871523D01*
X133331197Y-68885572D01*
X133288023Y-68874115D01*
X133213111Y-68834452D01*
X133170531Y-68790514D01*
X133161423Y-68733010D01*
X133164955Y-68708196D01*
X133165093Y-68695000D01*
X133146905Y-68544701D01*
X133116565Y-68464407D01*
X133095501Y-68408664D01*
X133093391Y-68403080D01*
X133007639Y-68278311D01*
X132941790Y-68219642D01*
X132899056Y-68181567D01*
X132899054Y-68181566D01*
X132894602Y-68177599D01*
X132883127Y-68171523D01*
X132847051Y-68152422D01*
X132760804Y-68106757D01*
X132755016Y-68105303D01*
X132755013Y-68105302D01*
X132619759Y-68071328D01*
X132619760Y-68071328D01*
X132613971Y-68069874D01*
X132538274Y-68069478D01*
X132468544Y-68069113D01*
X132468542Y-68069113D01*
X132462578Y-68069082D01*
X132315366Y-68104424D01*
X132180834Y-68173861D01*
X132179627Y-68171523D01*
X132131197Y-68185572D01*
X132088022Y-68174115D01*
X132068395Y-68163723D01*
X131960804Y-68106757D01*
X131955016Y-68105303D01*
X131955013Y-68105302D01*
X131819759Y-68071328D01*
X131819760Y-68071328D01*
X131813971Y-68069874D01*
X131738274Y-68069478D01*
X131668544Y-68069113D01*
X131668542Y-68069113D01*
X131662578Y-68069082D01*
X131515366Y-68104424D01*
X131380834Y-68173861D01*
X131379627Y-68171523D01*
X131331197Y-68185572D01*
X131288022Y-68174115D01*
X131268395Y-68163723D01*
X131160804Y-68106757D01*
X131155016Y-68105303D01*
X131155013Y-68105302D01*
X131019759Y-68071328D01*
X131019760Y-68071328D01*
X131013971Y-68069874D01*
X130938274Y-68069478D01*
X130868544Y-68069113D01*
X130868542Y-68069113D01*
X130862578Y-68069082D01*
X130715366Y-68104424D01*
X130662977Y-68131464D01*
X130586140Y-68171122D01*
X130586138Y-68171124D01*
X130580834Y-68173861D01*
X130466748Y-68273385D01*
X130463317Y-68278267D01*
X130463316Y-68278268D01*
X130441511Y-68309294D01*
X130379695Y-68397249D01*
X130377528Y-68402807D01*
X130377527Y-68402809D01*
X130327285Y-68531675D01*
X130324701Y-68538302D01*
X130323922Y-68544217D01*
X130323922Y-68544218D01*
X130323079Y-68550623D01*
X130304940Y-68688402D01*
X127550500Y-68688402D01*
X127550500Y-66653216D01*
X127550311Y-66651061D01*
X127550311Y-66651050D01*
X127536783Y-66496433D01*
X127535635Y-66483308D01*
X127534749Y-66480000D01*
X142839965Y-66480000D01*
X142840812Y-66486433D01*
X142850597Y-66560752D01*
X142858026Y-66617183D01*
X142860509Y-66623177D01*
X142908491Y-66739019D01*
X142908493Y-66739023D01*
X142910976Y-66745017D01*
X142995209Y-66854791D01*
X143104982Y-66939024D01*
X143232817Y-66991974D01*
X143239246Y-66992820D01*
X143239248Y-66992821D01*
X143363567Y-67009188D01*
X143370000Y-67010035D01*
X143376433Y-67009188D01*
X143500752Y-66992821D01*
X143500754Y-66992820D01*
X143507183Y-66991974D01*
X143635018Y-66939024D01*
X143744791Y-66854791D01*
X143829024Y-66745017D01*
X143831507Y-66739023D01*
X143831509Y-66739019D01*
X143879491Y-66623177D01*
X143881974Y-66617183D01*
X143889404Y-66560752D01*
X143898718Y-66490000D01*
X144299965Y-66490000D01*
X144300812Y-66496433D01*
X144315863Y-66610752D01*
X144318026Y-66627183D01*
X144320509Y-66633177D01*
X144368491Y-66749019D01*
X144368493Y-66749023D01*
X144370976Y-66755017D01*
X144455209Y-66864791D01*
X144564982Y-66949024D01*
X144692817Y-67001974D01*
X144699246Y-67002820D01*
X144699248Y-67002821D01*
X144823567Y-67019188D01*
X144830000Y-67020035D01*
X144836433Y-67019188D01*
X144960752Y-67002821D01*
X144960754Y-67002820D01*
X144967183Y-67001974D01*
X145044965Y-66969756D01*
X145105963Y-66964956D01*
X145158132Y-66996925D01*
X145177596Y-67033920D01*
X145178026Y-67037183D01*
X145180509Y-67043177D01*
X145180510Y-67043179D01*
X145228491Y-67159019D01*
X145228493Y-67159023D01*
X145230976Y-67165017D01*
X145315209Y-67274791D01*
X145424982Y-67359024D01*
X145552817Y-67411974D01*
X145559249Y-67412821D01*
X145565519Y-67414501D01*
X145564958Y-67416596D01*
X145611426Y-67438755D01*
X145640626Y-67492523D01*
X145632645Y-67553186D01*
X145621828Y-67570838D01*
X145614931Y-67579826D01*
X145614925Y-67579837D01*
X145610976Y-67584983D01*
X145608493Y-67590977D01*
X145608491Y-67590981D01*
X145583714Y-67650799D01*
X145558026Y-67712817D01*
X145557180Y-67719246D01*
X145557179Y-67719248D01*
X145551111Y-67765339D01*
X145539965Y-67850000D01*
X145558026Y-67987183D01*
X145560509Y-67993177D01*
X145608491Y-68109019D01*
X145608493Y-68109023D01*
X145610976Y-68115017D01*
X145695209Y-68224791D01*
X145804982Y-68309024D01*
X145932817Y-68361974D01*
X145939246Y-68362820D01*
X145939248Y-68362821D01*
X146063567Y-68379188D01*
X146070000Y-68380035D01*
X146076433Y-68379188D01*
X146200752Y-68362821D01*
X146200754Y-68362820D01*
X146207183Y-68361974D01*
X146335018Y-68309024D01*
X146444791Y-68224791D01*
X146529024Y-68115017D01*
X146531507Y-68109023D01*
X146531509Y-68109019D01*
X146579491Y-67993177D01*
X146581974Y-67987183D01*
X146600035Y-67850000D01*
X146588889Y-67765339D01*
X146582821Y-67719248D01*
X146582820Y-67719246D01*
X146581974Y-67712817D01*
X146556286Y-67650799D01*
X146531509Y-67590981D01*
X146531507Y-67590977D01*
X146529024Y-67584983D01*
X146444791Y-67475209D01*
X146335018Y-67390976D01*
X146207183Y-67338026D01*
X146200751Y-67337179D01*
X146194481Y-67335499D01*
X146195042Y-67333404D01*
X146148574Y-67311245D01*
X146119374Y-67257477D01*
X146127355Y-67196814D01*
X146138172Y-67179162D01*
X146145069Y-67170174D01*
X146145075Y-67170163D01*
X146149024Y-67165017D01*
X146151507Y-67159023D01*
X146151509Y-67159019D01*
X146199491Y-67043177D01*
X146201974Y-67037183D01*
X146206610Y-67001974D01*
X146212131Y-66960035D01*
X146213182Y-66952051D01*
X146239523Y-66896826D01*
X146293294Y-66867631D01*
X146353956Y-66875617D01*
X146364180Y-66881883D01*
X146364212Y-66881828D01*
X146369833Y-66885073D01*
X146374982Y-66889024D01*
X146502817Y-66941974D01*
X146509246Y-66942820D01*
X146509248Y-66942821D01*
X146633567Y-66959188D01*
X146640000Y-66960035D01*
X146646433Y-66959188D01*
X146770752Y-66942821D01*
X146770754Y-66942820D01*
X146777183Y-66941974D01*
X146905018Y-66889024D01*
X147014791Y-66804791D01*
X147099024Y-66695017D01*
X147101507Y-66689023D01*
X147101509Y-66689019D01*
X147149491Y-66573177D01*
X147151974Y-66567183D01*
X147170035Y-66430000D01*
X147160720Y-66359248D01*
X147152821Y-66299248D01*
X147152820Y-66299246D01*
X147151974Y-66292817D01*
X147117820Y-66210360D01*
X147113019Y-66149365D01*
X147117820Y-66134591D01*
X147151974Y-66052135D01*
X147156077Y-66020976D01*
X147169188Y-65921385D01*
X147170035Y-65914952D01*
X147151974Y-65777769D01*
X147122857Y-65707474D01*
X147101509Y-65655933D01*
X147101507Y-65655929D01*
X147099024Y-65649935D01*
X147014791Y-65540161D01*
X146905018Y-65455928D01*
X146777183Y-65402978D01*
X146770754Y-65402132D01*
X146770752Y-65402131D01*
X146646433Y-65385764D01*
X146640000Y-65384917D01*
X146633567Y-65385764D01*
X146509248Y-65402131D01*
X146509246Y-65402132D01*
X146502817Y-65402978D01*
X146463592Y-65419225D01*
X146380981Y-65453443D01*
X146380977Y-65453445D01*
X146374983Y-65455928D01*
X146265209Y-65540161D01*
X146180976Y-65649935D01*
X146178493Y-65655929D01*
X146178491Y-65655933D01*
X146157143Y-65707474D01*
X146128026Y-65777769D01*
X146109965Y-65914952D01*
X146110812Y-65921385D01*
X146123924Y-66020976D01*
X146128026Y-66052135D01*
X146162180Y-66134591D01*
X146166981Y-66195587D01*
X146162181Y-66210359D01*
X146128026Y-66292817D01*
X146127180Y-66299246D01*
X146127179Y-66299248D01*
X146120286Y-66351609D01*
X146117758Y-66370812D01*
X146116818Y-66377949D01*
X146090477Y-66433174D01*
X146036706Y-66462369D01*
X145976044Y-66454383D01*
X145965820Y-66448117D01*
X145965788Y-66448172D01*
X145960167Y-66444927D01*
X145955018Y-66440976D01*
X145827183Y-66388026D01*
X145820754Y-66387180D01*
X145820752Y-66387179D01*
X145696433Y-66370812D01*
X145690000Y-66369965D01*
X145683567Y-66370812D01*
X145559248Y-66387179D01*
X145559246Y-66387180D01*
X145552817Y-66388026D01*
X145475032Y-66420245D01*
X145414038Y-66425046D01*
X145361869Y-66393077D01*
X145342403Y-66356078D01*
X145341974Y-66352817D01*
X145304980Y-66263504D01*
X145291509Y-66230981D01*
X145291507Y-66230977D01*
X145289024Y-66224983D01*
X145204791Y-66115209D01*
X145095018Y-66030976D01*
X144967183Y-65978026D01*
X144960754Y-65977180D01*
X144960752Y-65977179D01*
X144836433Y-65960812D01*
X144830000Y-65959965D01*
X144823567Y-65960812D01*
X144699248Y-65977179D01*
X144699246Y-65977180D01*
X144692817Y-65978026D01*
X144653592Y-65994273D01*
X144570981Y-66028491D01*
X144570977Y-66028493D01*
X144564983Y-66030976D01*
X144455209Y-66115209D01*
X144370976Y-66224983D01*
X144368493Y-66230977D01*
X144368491Y-66230981D01*
X144340215Y-66299248D01*
X144318026Y-66352817D01*
X144317180Y-66359246D01*
X144317179Y-66359248D01*
X144307864Y-66430000D01*
X144299965Y-66490000D01*
X143898718Y-66490000D01*
X143899188Y-66486433D01*
X143900035Y-66480000D01*
X143887815Y-66387179D01*
X143882821Y-66349248D01*
X143882820Y-66349246D01*
X143881974Y-66342817D01*
X143858781Y-66286823D01*
X143831509Y-66220981D01*
X143831507Y-66220977D01*
X143829024Y-66214983D01*
X143744791Y-66105209D01*
X143635018Y-66020976D01*
X143507183Y-65968026D01*
X143500754Y-65967180D01*
X143500752Y-65967179D01*
X143376433Y-65950812D01*
X143370000Y-65949965D01*
X143363567Y-65950812D01*
X143239248Y-65967179D01*
X143239246Y-65967180D01*
X143232817Y-65968026D01*
X143208675Y-65978026D01*
X143110981Y-66018491D01*
X143110977Y-66018493D01*
X143104983Y-66020976D01*
X142995209Y-66105209D01*
X142910976Y-66214983D01*
X142908493Y-66220977D01*
X142908491Y-66220981D01*
X142881219Y-66286823D01*
X142858026Y-66342817D01*
X142857180Y-66349246D01*
X142857179Y-66349248D01*
X142852185Y-66387179D01*
X142839965Y-66480000D01*
X127534749Y-66480000D01*
X127530466Y-66464015D01*
X127496385Y-66336823D01*
X127476739Y-66263504D01*
X127380568Y-66057266D01*
X127362160Y-66030976D01*
X127252526Y-65874401D01*
X127252524Y-65874399D01*
X127250047Y-65870861D01*
X127089139Y-65709953D01*
X126902734Y-65579432D01*
X126696496Y-65483261D01*
X126540925Y-65441576D01*
X126480869Y-65425484D01*
X126480867Y-65425484D01*
X126476692Y-65424365D01*
X126250000Y-65404532D01*
X126023308Y-65424365D01*
X126019133Y-65425484D01*
X126019131Y-65425484D01*
X125959075Y-65441576D01*
X125803504Y-65483261D01*
X125597266Y-65579432D01*
X125410861Y-65709953D01*
X125249953Y-65870861D01*
X125247476Y-65874399D01*
X125247474Y-65874401D01*
X125137840Y-66030976D01*
X125119432Y-66057266D01*
X125023261Y-66263504D01*
X125003615Y-66336823D01*
X124969535Y-66464015D01*
X124964365Y-66483308D01*
X124963217Y-66496433D01*
X124949689Y-66651050D01*
X124949689Y-66651061D01*
X124949500Y-66653216D01*
X124949500Y-78362389D01*
X124930593Y-78420580D01*
X124920504Y-78432393D01*
X124894274Y-78458623D01*
X124839757Y-78486400D01*
X124824270Y-78487619D01*
X119309654Y-78487619D01*
X119298928Y-78486408D01*
X119298905Y-78486691D01*
X119291875Y-78486109D01*
X119285000Y-78484537D01*
X119270110Y-78485427D01*
X119250234Y-78484611D01*
X119114092Y-78465192D01*
X119064799Y-78458160D01*
X119051007Y-78455177D01*
X118849982Y-78396423D01*
X118836753Y-78391508D01*
X118646138Y-78304774D01*
X118633742Y-78298029D01*
X118457385Y-78185067D01*
X118446075Y-78176628D01*
X118356477Y-78099248D01*
X118308966Y-78058216D01*
X118293834Y-78041826D01*
X118293574Y-78041471D01*
X118293573Y-78041470D01*
X118289405Y-78035785D01*
X118266742Y-78018425D01*
X118256940Y-78009837D01*
X117993945Y-77746842D01*
X117973849Y-77712040D01*
X117971974Y-77712817D01*
X117921509Y-77590981D01*
X117921507Y-77590977D01*
X117919024Y-77584983D01*
X117834791Y-77475209D01*
X117725018Y-77390976D01*
X117597183Y-77338026D01*
X117590754Y-77337180D01*
X117590752Y-77337179D01*
X117466433Y-77320812D01*
X117460000Y-77319965D01*
X117453567Y-77320812D01*
X117329248Y-77337179D01*
X117329246Y-77337180D01*
X117322817Y-77338026D01*
X117283592Y-77354273D01*
X117200981Y-77388491D01*
X117200977Y-77388493D01*
X117194983Y-77390976D01*
X117085209Y-77475209D01*
X117000976Y-77584983D01*
X116998493Y-77590977D01*
X116998491Y-77590981D01*
X116972196Y-77654464D01*
X116948026Y-77712817D01*
X116947180Y-77719246D01*
X116947179Y-77719248D01*
X116944497Y-77739618D01*
X116929965Y-77850000D01*
X113400000Y-77850000D01*
X113400000Y-77225000D01*
X118769965Y-77225000D01*
X118770812Y-77231433D01*
X118784846Y-77338026D01*
X118788026Y-77362183D01*
X118799952Y-77390976D01*
X118838491Y-77484019D01*
X118838493Y-77484023D01*
X118840976Y-77490017D01*
X118925209Y-77599791D01*
X119034982Y-77684024D01*
X119162817Y-77736974D01*
X119169246Y-77737820D01*
X119169248Y-77737821D01*
X119293567Y-77754188D01*
X119300000Y-77755035D01*
X119306433Y-77754188D01*
X119430752Y-77737821D01*
X119430754Y-77737820D01*
X119437183Y-77736974D01*
X119565018Y-77684024D01*
X119674791Y-77599791D01*
X119759024Y-77490017D01*
X119761507Y-77484023D01*
X119761509Y-77484019D01*
X119800048Y-77390976D01*
X119811974Y-77362183D01*
X119815155Y-77338026D01*
X119829188Y-77231433D01*
X119830035Y-77225000D01*
X119817156Y-77127179D01*
X119812821Y-77094248D01*
X119812820Y-77094246D01*
X119811974Y-77087817D01*
X119784290Y-77020981D01*
X119761509Y-76965981D01*
X119761507Y-76965977D01*
X119759024Y-76959983D01*
X119674791Y-76850209D01*
X119565018Y-76765976D01*
X119437183Y-76713026D01*
X119430754Y-76712180D01*
X119430752Y-76712179D01*
X119306433Y-76695812D01*
X119300000Y-76694965D01*
X119293567Y-76695812D01*
X119169248Y-76712179D01*
X119169246Y-76712180D01*
X119162817Y-76713026D01*
X119123798Y-76729188D01*
X119040981Y-76763491D01*
X119040977Y-76763493D01*
X119034983Y-76765976D01*
X118925209Y-76850209D01*
X118840976Y-76959983D01*
X118838493Y-76965977D01*
X118838491Y-76965981D01*
X118815710Y-77020981D01*
X118788026Y-77087817D01*
X118787180Y-77094246D01*
X118787179Y-77094248D01*
X118782844Y-77127179D01*
X118769965Y-77225000D01*
X113400000Y-77225000D01*
X113400000Y-76200000D01*
X120762465Y-76200000D01*
X120763312Y-76206433D01*
X120779553Y-76329789D01*
X120780526Y-76337183D01*
X120783009Y-76343177D01*
X120830991Y-76459019D01*
X120830993Y-76459023D01*
X120833476Y-76465017D01*
X120917709Y-76574791D01*
X121027482Y-76659024D01*
X121155317Y-76711974D01*
X121161746Y-76712820D01*
X121161748Y-76712821D01*
X121286067Y-76729188D01*
X121292500Y-76730035D01*
X121298933Y-76729188D01*
X121423252Y-76712821D01*
X121423254Y-76712820D01*
X121429683Y-76711974D01*
X121557518Y-76659024D01*
X121667291Y-76574791D01*
X121751524Y-76465017D01*
X121754007Y-76459023D01*
X121754009Y-76459019D01*
X121801991Y-76343177D01*
X121804474Y-76337183D01*
X121805448Y-76329789D01*
X121821688Y-76206433D01*
X121822535Y-76200000D01*
X121816870Y-76156972D01*
X121805321Y-76069248D01*
X121805320Y-76069246D01*
X121804474Y-76062817D01*
X121788227Y-76023592D01*
X121754009Y-75940981D01*
X121754007Y-75940977D01*
X121751524Y-75934983D01*
X121667291Y-75825209D01*
X121557518Y-75740976D01*
X121429683Y-75688026D01*
X121423254Y-75687180D01*
X121423252Y-75687179D01*
X121298933Y-75670812D01*
X121292500Y-75669965D01*
X121286067Y-75670812D01*
X121161748Y-75687179D01*
X121161746Y-75687180D01*
X121155317Y-75688026D01*
X121116092Y-75704273D01*
X121033481Y-75738491D01*
X121033477Y-75738493D01*
X121027483Y-75740976D01*
X120917709Y-75825209D01*
X120833476Y-75934983D01*
X120830993Y-75940977D01*
X120830991Y-75940981D01*
X120796773Y-76023592D01*
X120780526Y-76062817D01*
X120779680Y-76069246D01*
X120779679Y-76069248D01*
X120768130Y-76156972D01*
X120762465Y-76200000D01*
X113400000Y-76200000D01*
X113400000Y-70504978D01*
X113400773Y-70492632D01*
X113403175Y-70473524D01*
X113403175Y-70473522D01*
X113404255Y-70464929D01*
X113402639Y-70457836D01*
X113403590Y-70439938D01*
X113407589Y-70414456D01*
X113421827Y-70376721D01*
X113434837Y-70356241D01*
X113438302Y-70350787D01*
X113466405Y-70321867D01*
X113491859Y-70304653D01*
X113529174Y-70289340D01*
X113554537Y-70284613D01*
X113572392Y-70283150D01*
X113579527Y-70284562D01*
X113588087Y-70283236D01*
X113588089Y-70283236D01*
X113601444Y-70281167D01*
X113616599Y-70280000D01*
X114103858Y-70280000D01*
X114118792Y-70281133D01*
X114141166Y-70284547D01*
X114149661Y-70282846D01*
X114150041Y-70282837D01*
X114155952Y-70281891D01*
X114290682Y-70265666D01*
X114433966Y-70219245D01*
X114565653Y-70146142D01*
X114638699Y-70084588D01*
X114677165Y-70052174D01*
X114677167Y-70052172D01*
X114680829Y-70049086D01*
X114775197Y-69931698D01*
X114839201Y-69809845D01*
X114843008Y-69802598D01*
X114843009Y-69802597D01*
X114845236Y-69798356D01*
X114888333Y-69654037D01*
X114894527Y-69590203D01*
X114896201Y-69572952D01*
X114897307Y-69566416D01*
X114898509Y-69563404D01*
X114899124Y-69557131D01*
X114899124Y-69547615D01*
X114899587Y-69538054D01*
X114901438Y-69518977D01*
X114902249Y-69513036D01*
X114902249Y-69512650D01*
X114903752Y-69504124D01*
X114900628Y-69486406D01*
X114899124Y-69469216D01*
X114899124Y-68490784D01*
X114900628Y-68473593D01*
X114902248Y-68464407D01*
X114902248Y-68464406D01*
X114903752Y-68455876D01*
X114902299Y-68447637D01*
X114902247Y-68447119D01*
X114902247Y-68446257D01*
X114901931Y-68443969D01*
X114887610Y-68301070D01*
X114885875Y-68295453D01*
X114864041Y-68224791D01*
X114854108Y-68192642D01*
X114854994Y-68131464D01*
X114891671Y-68082490D01*
X114950130Y-68064427D01*
X115006887Y-68083324D01*
X115257516Y-68265416D01*
X115331327Y-68305994D01*
X115530512Y-68415498D01*
X115530518Y-68415501D01*
X115533234Y-68416994D01*
X115536122Y-68418137D01*
X115536121Y-68418137D01*
X115822885Y-68531675D01*
X115822888Y-68531676D01*
X115825775Y-68532819D01*
X115828778Y-68533590D01*
X115828784Y-68533592D01*
X116127520Y-68610294D01*
X116130527Y-68611066D01*
X116133608Y-68611455D01*
X116133612Y-68611456D01*
X116238721Y-68624734D01*
X116442682Y-68650500D01*
X116757318Y-68650500D01*
X116961279Y-68624734D01*
X117066388Y-68611456D01*
X117066392Y-68611455D01*
X117069473Y-68611066D01*
X117072480Y-68610294D01*
X117371216Y-68533592D01*
X117371222Y-68533590D01*
X117374225Y-68532819D01*
X117377112Y-68531676D01*
X117377115Y-68531675D01*
X117663879Y-68418137D01*
X117663878Y-68418137D01*
X117666766Y-68416994D01*
X117669482Y-68415501D01*
X117669488Y-68415498D01*
X117868673Y-68305994D01*
X117942484Y-68265416D01*
X118197030Y-68080478D01*
X118426390Y-67865094D01*
X118539909Y-67727874D01*
X118624967Y-67625057D01*
X118624971Y-67625052D01*
X118626947Y-67622663D01*
X118795537Y-67357007D01*
X118796854Y-67354207D01*
X118796859Y-67354199D01*
X118928176Y-67075135D01*
X118929503Y-67072315D01*
X118955332Y-66992821D01*
X119025773Y-66776029D01*
X119025775Y-66776021D01*
X119026731Y-66773079D01*
X119066008Y-66567183D01*
X119085104Y-66467078D01*
X119085105Y-66467073D01*
X119085688Y-66464015D01*
X119086689Y-66448117D01*
X119105249Y-66153099D01*
X119105444Y-66150000D01*
X119097956Y-66030976D01*
X119085884Y-65839094D01*
X119085883Y-65839088D01*
X119085688Y-65835985D01*
X119026731Y-65526921D01*
X119025775Y-65523979D01*
X119025773Y-65523971D01*
X118930465Y-65230646D01*
X118929503Y-65227685D01*
X118879543Y-65121515D01*
X118796859Y-64945801D01*
X118796854Y-64945793D01*
X118795537Y-64942993D01*
X118787291Y-64930000D01*
X141099965Y-64930000D01*
X141100812Y-64936433D01*
X141114717Y-65042046D01*
X141118026Y-65067183D01*
X141120509Y-65073177D01*
X141168491Y-65189019D01*
X141168493Y-65189023D01*
X141170976Y-65195017D01*
X141255209Y-65304791D01*
X141364982Y-65389024D01*
X141492817Y-65441974D01*
X141499246Y-65442820D01*
X141499248Y-65442821D01*
X141623567Y-65459188D01*
X141630000Y-65460035D01*
X141636433Y-65459188D01*
X141760752Y-65442821D01*
X141760754Y-65442820D01*
X141767183Y-65441974D01*
X141895018Y-65389024D01*
X142004791Y-65304791D01*
X142089024Y-65195017D01*
X142091507Y-65189023D01*
X142091509Y-65189019D01*
X142139491Y-65073177D01*
X142141974Y-65067183D01*
X142145284Y-65042046D01*
X142159188Y-64936433D01*
X142160035Y-64930000D01*
X142156767Y-64905178D01*
X142142821Y-64799248D01*
X142142820Y-64799246D01*
X142141974Y-64792817D01*
X142103094Y-64698951D01*
X142091509Y-64670981D01*
X142091507Y-64670977D01*
X142089024Y-64664983D01*
X142004791Y-64555209D01*
X141895018Y-64470976D01*
X141767183Y-64418026D01*
X141760754Y-64417180D01*
X141760752Y-64417179D01*
X141636433Y-64400812D01*
X141630000Y-64399965D01*
X141623567Y-64400812D01*
X141499248Y-64417179D01*
X141499246Y-64417180D01*
X141492817Y-64418026D01*
X141457205Y-64432777D01*
X141370981Y-64468491D01*
X141370977Y-64468493D01*
X141364983Y-64470976D01*
X141255209Y-64555209D01*
X141170976Y-64664983D01*
X141168493Y-64670977D01*
X141168491Y-64670981D01*
X141156906Y-64698951D01*
X141118026Y-64792817D01*
X141117180Y-64799246D01*
X141117179Y-64799248D01*
X141103233Y-64905178D01*
X141099965Y-64930000D01*
X118787291Y-64930000D01*
X118626947Y-64677337D01*
X118612468Y-64659834D01*
X118428371Y-64437301D01*
X118426390Y-64434906D01*
X118197030Y-64219522D01*
X117942484Y-64034584D01*
X117858691Y-63988518D01*
X117669488Y-63884502D01*
X117669482Y-63884499D01*
X117666766Y-63883006D01*
X117391352Y-63773962D01*
X117377115Y-63768325D01*
X117377112Y-63768324D01*
X117374225Y-63767181D01*
X117371222Y-63766410D01*
X117371216Y-63766408D01*
X117072480Y-63689706D01*
X117072479Y-63689706D01*
X117069473Y-63688934D01*
X117066392Y-63688545D01*
X117066388Y-63688544D01*
X116961279Y-63675266D01*
X116757318Y-63649500D01*
X116442682Y-63649500D01*
X116238721Y-63675266D01*
X116133612Y-63688544D01*
X116133608Y-63688545D01*
X116130527Y-63688934D01*
X116127521Y-63689706D01*
X116127520Y-63689706D01*
X115828784Y-63766408D01*
X115828778Y-63766410D01*
X115825775Y-63767181D01*
X115822888Y-63768324D01*
X115822885Y-63768325D01*
X115808648Y-63773962D01*
X115533234Y-63883006D01*
X115530518Y-63884499D01*
X115530512Y-63884502D01*
X115341309Y-63988518D01*
X115257516Y-64034584D01*
X115002970Y-64219522D01*
X114773610Y-64434906D01*
X114771629Y-64437301D01*
X114587533Y-64659834D01*
X114573053Y-64677337D01*
X114404463Y-64942993D01*
X114403146Y-64945793D01*
X114403141Y-64945801D01*
X114320457Y-65121515D01*
X114270497Y-65227685D01*
X114269535Y-65230646D01*
X114174227Y-65523971D01*
X114174225Y-65523979D01*
X114173269Y-65526921D01*
X114114312Y-65835985D01*
X114114117Y-65839088D01*
X114114116Y-65839094D01*
X114102044Y-66030976D01*
X114094556Y-66150000D01*
X114094751Y-66153099D01*
X114113312Y-66448117D01*
X114114312Y-66464015D01*
X114114895Y-66467073D01*
X114114896Y-66467078D01*
X114133992Y-66567183D01*
X114173269Y-66773079D01*
X114174225Y-66776021D01*
X114174227Y-66776029D01*
X114244668Y-66992821D01*
X114270497Y-67072315D01*
X114271824Y-67075135D01*
X114403141Y-67354199D01*
X114403146Y-67354207D01*
X114404463Y-67357007D01*
X114406121Y-67359619D01*
X114406130Y-67359636D01*
X114558596Y-67599883D01*
X114573813Y-67659146D01*
X114551289Y-67716035D01*
X114499628Y-67748820D01*
X114438564Y-67744978D01*
X114429997Y-67741106D01*
X114425160Y-67738637D01*
X114406682Y-67729204D01*
X114256829Y-67687373D01*
X114173967Y-67681360D01*
X114169325Y-67680633D01*
X114169280Y-67680615D01*
X114167126Y-67680404D01*
X114165408Y-67680235D01*
X114165400Y-67680235D01*
X114163007Y-67680000D01*
X114158800Y-67680000D01*
X114151636Y-67679740D01*
X114138211Y-67678766D01*
X114113584Y-67676979D01*
X114111302Y-67676728D01*
X114110447Y-67676751D01*
X114109904Y-67676712D01*
X114101638Y-67675487D01*
X114089420Y-67677989D01*
X114069569Y-67680000D01*
X113591114Y-67680000D01*
X113581478Y-67678766D01*
X113581441Y-67679230D01*
X113572807Y-67678535D01*
X113564429Y-67676353D01*
X113556530Y-67677100D01*
X113539117Y-67673996D01*
X113516770Y-67667752D01*
X113482956Y-67650799D01*
X113459331Y-67632579D01*
X113434345Y-67604186D01*
X113419276Y-67578434D01*
X113406762Y-67542743D01*
X113403409Y-67519785D01*
X113402544Y-67502116D01*
X113404289Y-67494375D01*
X113400801Y-67467128D01*
X113400000Y-67454557D01*
X113400000Y-65784908D01*
X113401504Y-65767717D01*
X113403124Y-65758530D01*
X113404628Y-65750000D01*
X113403109Y-65741384D01*
X113401761Y-65718644D01*
X113412356Y-65529974D01*
X113417297Y-65442000D01*
X113418539Y-65430973D01*
X113418616Y-65430523D01*
X113469280Y-65132338D01*
X113471750Y-65121515D01*
X113555610Y-64830428D01*
X113559277Y-64819948D01*
X113609396Y-64698951D01*
X113675203Y-64540079D01*
X113680017Y-64530083D01*
X113710501Y-64474927D01*
X113826548Y-64264957D01*
X113832450Y-64255563D01*
X113858023Y-64219522D01*
X114007743Y-64008511D01*
X114014664Y-63999832D01*
X114216514Y-63773962D01*
X114224365Y-63766111D01*
X114450235Y-63564261D01*
X114458914Y-63557340D01*
X114705966Y-63382047D01*
X114715360Y-63376145D01*
X114980492Y-63229611D01*
X114990482Y-63224800D01*
X115270355Y-63108873D01*
X115280831Y-63105207D01*
X115571918Y-63021347D01*
X115582741Y-63018877D01*
X115718590Y-62995795D01*
X115881381Y-62968135D01*
X115892403Y-62966894D01*
X116144989Y-62952709D01*
X116169047Y-62951358D01*
X116191787Y-62952706D01*
X116200403Y-62954225D01*
X116218121Y-62951101D01*
X116235311Y-62949597D01*
X150372776Y-62949597D01*
X150389966Y-62951101D01*
G37*
%TD.AperFunction*%
%TA.AperFunction,Conductor*%
G36*
X143516139Y-76621347D02*
G01*
X143539351Y-76624403D01*
X143539352Y-76624403D01*
X143545785Y-76625250D01*
X143552218Y-76624403D01*
X143564097Y-76622839D01*
X143570545Y-76622204D01*
X143593308Y-76620712D01*
X143599783Y-76620500D01*
X144931210Y-76620500D01*
X144944132Y-76621347D01*
X144999352Y-76628617D01*
X144999353Y-76628617D01*
X145005786Y-76629464D01*
X145012220Y-76628617D01*
X145012223Y-76628617D01*
X145020207Y-76627566D01*
X145039601Y-76626931D01*
X145112438Y-76631705D01*
X145188512Y-76636691D01*
X145201339Y-76638379D01*
X145374587Y-76672840D01*
X145387087Y-76676190D01*
X145554341Y-76732965D01*
X145566304Y-76737920D01*
X145724719Y-76816041D01*
X145735935Y-76822517D01*
X145882792Y-76920645D01*
X145893065Y-76928528D01*
X145947012Y-76975838D01*
X145951741Y-76980266D01*
X146524855Y-77553379D01*
X146533393Y-77563116D01*
X146551593Y-77586835D01*
X146556738Y-77590783D01*
X146556741Y-77590786D01*
X146563128Y-77595687D01*
X146577290Y-77608951D01*
X146675687Y-77721150D01*
X146683571Y-77731425D01*
X146781700Y-77878286D01*
X146788174Y-77889500D01*
X146863119Y-78041471D01*
X146866292Y-78047906D01*
X146871248Y-78059869D01*
X146925484Y-78219642D01*
X146928023Y-78227123D01*
X146931374Y-78239627D01*
X146962168Y-78394440D01*
X146965833Y-78412867D01*
X146967522Y-78425699D01*
X146971520Y-78486691D01*
X146977283Y-78574613D01*
X146976648Y-78594012D01*
X146974750Y-78608427D01*
X146975597Y-78614859D01*
X146975597Y-78614861D01*
X146978653Y-78638073D01*
X146979500Y-78650995D01*
X146979500Y-79783217D01*
X146978653Y-79796139D01*
X146974750Y-79825785D01*
X146975597Y-79832217D01*
X146975597Y-79832218D01*
X146977161Y-79844097D01*
X146977796Y-79850545D01*
X146979201Y-79871974D01*
X146989466Y-80028601D01*
X147029118Y-80227946D01*
X147094451Y-80420410D01*
X147184346Y-80602700D01*
X147297266Y-80771696D01*
X147370175Y-80854835D01*
X147375097Y-80861129D01*
X147376786Y-80864201D01*
X147383790Y-80872315D01*
X147395452Y-80883977D01*
X147399881Y-80888707D01*
X147414918Y-80905854D01*
X147419025Y-80910858D01*
X147426321Y-80920366D01*
X147426324Y-80920369D01*
X147430272Y-80925514D01*
X147453992Y-80943715D01*
X147463728Y-80952253D01*
X147649080Y-81137604D01*
X147729344Y-81217868D01*
X147757122Y-81272385D01*
X147747551Y-81332817D01*
X147704286Y-81376082D01*
X147697227Y-81379336D01*
X147644983Y-81400976D01*
X147535209Y-81485209D01*
X147450976Y-81594983D01*
X147448493Y-81600977D01*
X147448491Y-81600981D01*
X147439053Y-81623767D01*
X147398026Y-81722817D01*
X147397180Y-81729246D01*
X147397179Y-81729248D01*
X147385975Y-81814348D01*
X147379965Y-81860000D01*
X147380812Y-81866433D01*
X147394889Y-81973354D01*
X147398026Y-81997183D01*
X147400508Y-82003176D01*
X147402188Y-82009444D01*
X147400842Y-82009805D01*
X147405077Y-82063611D01*
X147373107Y-82115780D01*
X147316579Y-82139195D01*
X147308812Y-82139500D01*
X145779990Y-82139500D01*
X145726359Y-82123715D01*
X145722832Y-82121442D01*
X145722831Y-82121442D01*
X145718183Y-82118446D01*
X145710859Y-82115780D01*
X145641495Y-82090534D01*
X145549422Y-82057022D01*
X145410717Y-82039500D01*
X143953185Y-82039500D01*
X143940777Y-82038719D01*
X143920368Y-82036141D01*
X143832588Y-82025052D01*
X143803746Y-82027880D01*
X143788543Y-82028196D01*
X143689921Y-82022658D01*
X143580621Y-82016519D01*
X143569599Y-82015278D01*
X143394629Y-81985549D01*
X143337392Y-81975824D01*
X143326569Y-81973354D01*
X143113147Y-81911869D01*
X143100228Y-81908147D01*
X143089765Y-81904486D01*
X142872148Y-81814347D01*
X142862149Y-81809531D01*
X142656006Y-81695599D01*
X142646606Y-81689693D01*
X142457295Y-81555370D01*
X142444579Y-81544633D01*
X142092769Y-81192823D01*
X142084232Y-81183087D01*
X142069702Y-81164151D01*
X142069700Y-81164149D01*
X142066069Y-81159417D01*
X142057106Y-81152236D01*
X142040470Y-81135246D01*
X142010258Y-81095875D01*
X141997334Y-81073491D01*
X141982467Y-81037596D01*
X141972397Y-81013284D01*
X141965708Y-80988322D01*
X141960024Y-80945145D01*
X141960022Y-80929544D01*
X141959399Y-80929537D01*
X141959462Y-80923568D01*
X141960241Y-80917649D01*
X141959492Y-80910858D01*
X141956097Y-80880113D01*
X141955499Y-80869249D01*
X141955499Y-80344181D01*
X141955593Y-80339863D01*
X141957390Y-80298706D01*
X141958284Y-80289075D01*
X141959677Y-80279289D01*
X141959677Y-80279285D01*
X141960133Y-80276083D01*
X141960277Y-80262360D01*
X141958730Y-80249577D01*
X141956216Y-80228798D01*
X141955499Y-80216905D01*
X141955499Y-77124074D01*
X141940070Y-77001941D01*
X141879567Y-76849128D01*
X141827665Y-76777690D01*
X141808758Y-76719500D01*
X141827665Y-76661309D01*
X141877165Y-76625345D01*
X141907758Y-76620500D01*
X143503217Y-76620500D01*
X143516139Y-76621347D01*
G37*
%TD.AperFunction*%
%TD*%
M02*
