M48
; DRILL file {KiCad (6.0.0)} date Fri Mar 25 21:28:24 2022
; FORMAT={-:-/ absolute / metric / decimal}
; #@! TF.CreationDate,2022-03-25T21:28:24+08:00
; #@! TF.GenerationSoftware,Kicad,Pcbnew,(6.0.0)
; #@! TF.FileFunction,Plated,1,4,PTH
FMAT,2
METRIC
; #@! TA.AperFunction,Plated,PTH,ViaDrill
T1C0.200
; #@! TA.AperFunction,Plated,PTH,ViaDrill
T2C0.300
; #@! TA.AperFunction,Plated,PTH,ComponentDrill
T3C0.400
; #@! TA.AperFunction,Plated,PTH,ComponentDrill
T4C0.500
; #@! TA.AperFunction,Plated,PTH,ComponentDrill
T5C1.000
; #@! TA.AperFunction,Plated,PTH,ComponentDrill
T6C2.200
%
G90
G05
T1
X121.292Y-76.2
X130.4Y-79.08
X132.845Y-72.831
X133.445Y-72.831
X134.35Y-72.05
X136.558Y-78.902
X136.93Y-81.93
X136.982Y-78.478
X137.94Y-74.57
X138.74Y-81.93
X139.7Y-73.29
X139.7Y-75.85
X141.003Y-74.303
X141.003Y-74.903
X143.37Y-66.48
X143.42Y-74.5
X144.165Y-78.05
X144.165Y-79.05
X144.165Y-80.05
X144.2Y-74.6
X144.83Y-66.49
X145.165Y-78.05
X145.165Y-79.05
X145.165Y-80.05
X145.69Y-66.9
X145.77Y-74.5
X146.07Y-67.85
X146.165Y-78.05
X146.165Y-79.05
X146.165Y-80.05
X146.93Y-74.87
X147.91Y-81.86
X149.445Y-84.585
X150.17Y-79.36
X150.575Y-77.28
X150.575Y-78.23
X152.03Y-83.87
T2
X114.0Y-71.0
X114.0Y-72.0
X114.0Y-73.0
X114.0Y-74.0
X114.0Y-75.0
X114.0Y-76.0
X114.0Y-77.0
X114.0Y-78.0
X114.0Y-79.0
X114.0Y-80.0
X114.0Y-81.0
X114.0Y-82.0
X114.0Y-83.0
X114.0Y-84.0
X114.0Y-85.0
X114.0Y-86.0
X114.0Y-87.0
X114.0Y-88.0
X114.0Y-89.0
X114.34Y-93.0
X115.34Y-93.0
X115.42Y-68.99
X115.42Y-70.0
X116.34Y-93.0
X116.83Y-80.85
X116.85Y-79.61
X117.34Y-93.0
X117.46Y-77.85
X117.81Y-83.12
X117.81Y-83.75
X117.81Y-84.38
X117.81Y-85.01
X118.34Y-93.0
X119.0Y-63.5
X119.3Y-77.225
X119.34Y-93.0
X120.0Y-63.5
X120.34Y-93.0
X120.89Y-80.55
X121.0Y-63.5
X121.29Y-78.1
X121.34Y-93.0
X122.0Y-63.5
X122.34Y-93.0
X122.975Y-80.625
X122.98Y-82.13
X123.0Y-63.5
X123.34Y-93.0
X123.635Y-82.13
X124.0Y-63.5
X124.29Y-82.13
X124.29Y-82.79
X124.34Y-93.0
X124.92Y-82.79
X125.0Y-63.5
X125.34Y-93.0
X126.0Y-63.5
X126.25Y-66.71
X126.25Y-67.655
X126.25Y-68.6
X126.25Y-69.545
X126.25Y-70.49
X126.34Y-93.0
X127.0Y-63.5
X127.34Y-93.0
X128.0Y-63.5
X128.34Y-93.0
X129.34Y-93.0
X130.34Y-93.0
X131.0Y-63.5
X131.34Y-93.0
X132.0Y-63.5
X132.34Y-93.0
X133.0Y-63.5
X133.34Y-93.0
X134.0Y-63.5
X134.34Y-93.0
X135.0Y-63.5
X135.34Y-93.0
X136.0Y-63.5
X136.34Y-93.0
X137.34Y-93.0
X138.34Y-93.0
X139.0Y-63.5
X139.34Y-93.0
X140.0Y-63.5
X140.34Y-93.0
X141.0Y-63.5
X141.3Y-77.16
X141.305Y-79.25
X141.34Y-93.0
X141.56Y-85.46
X141.56Y-86.38
X141.6Y-76.07
X141.63Y-64.93
X141.66Y-81.68
X142.0Y-63.5
X142.34Y-93.0
X143.0Y-63.5
X143.34Y-93.0
X144.0Y-63.5
X144.1Y-82.82
X144.34Y-93.0
X144.6Y-67.79
X144.75Y-72.4
X144.86Y-75.17
X145.0Y-63.5
X145.34Y-93.0
X145.36Y-82.84
X145.37Y-85.46
X145.37Y-86.38
X146.0Y-63.5
X146.28Y-75.08
X146.34Y-93.0
X146.58Y-65.92
X147.0Y-63.5
X147.34Y-93.0
X148.0Y-63.5
X148.01Y-69.55
X148.01Y-70.06
X148.34Y-93.0
X149.185Y-87.05
X149.34Y-93.0
X149.49Y-81.55
X149.91Y-69.21
X150.25Y-82.4
X150.255Y-87.05
X150.34Y-93.0
X150.595Y-69.21
X151.255Y-87.05
X151.28Y-69.21
X151.34Y-93.0
X151.785Y-73.57
X151.785Y-74.2
X151.785Y-74.83
X151.785Y-75.46
X152.24Y-87.06
X152.34Y-93.0
X152.95Y-77.27
X152.95Y-78.22
X152.95Y-79.22
X152.97Y-82.24
X152.98Y-80.21
X152.98Y-81.24
T3
X114.95Y-66.15
X115.433Y-64.983
X115.433Y-67.317
X116.6Y-64.5
X116.6Y-67.8
X117.767Y-64.983
X117.767Y-67.317
X118.25Y-66.15
X130.535Y-69.395
X130.65Y-83.33
X130.935Y-68.695
X131.133Y-82.163
X131.133Y-84.497
X131.735Y-68.695
X132.135Y-69.395
X132.3Y-81.68
X132.3Y-84.98
X132.535Y-68.695
X132.935Y-69.395
X133.467Y-82.163
X133.467Y-84.497
X133.735Y-69.395
X133.95Y-83.33
X134.135Y-68.695
X134.535Y-69.395
X134.935Y-68.695
X135.735Y-68.695
X136.135Y-69.395
X148.35Y-66.15
X148.833Y-64.983
X148.833Y-67.317
X150.0Y-64.5
X150.0Y-67.8
X151.167Y-64.983
X151.167Y-67.317
X151.65Y-66.15
T6
X116.6Y-66.15
X132.3Y-83.33
X150.0Y-66.15
T4
G00X128.845Y-64.705
M15
G01X128.845Y-64.105
M16
G05
G00X129.205Y-69.095
M15
G01X129.205Y-68.495
M16
G05
G00X137.465Y-69.095
M15
G01X137.465Y-68.495
M16
G05
G00X137.825Y-64.705
M15
G01X137.825Y-64.105
M16
G05
T5
G00X114.594Y-90.311
M15
G01X114.594Y-91.391
M16
G05
G00X152.014Y-90.311
M15
G01X152.014Y-91.391
M16
G05
T0
M30
