G04 #@! TF.GenerationSoftware,KiCad,Pcbnew,(5.1.5)-3*
G04 #@! TF.CreationDate,2020-04-20T22:46:26+08:00*
G04 #@! TF.ProjectId,ptboard,7074626f-6172-4642-9e6b-696361645f70,rev?*
G04 #@! TF.SameCoordinates,PX2349340PY4b0dde0*
G04 #@! TF.FileFunction,Paste,Top*
G04 #@! TF.FilePolarity,Positive*
%FSLAX46Y46*%
G04 Gerber Fmt 4.6, Leading zero omitted, Abs format (unit mm)*
G04 Created by KiCad (PCBNEW (5.1.5)-3) date 2020-04-20 22:46:26*
%MOMM*%
%LPD*%
G04 APERTURE LIST*
%ADD10R,0.300000X1.800000*%
%ADD11R,5.900000X1.600000*%
%ADD12C,0.100000*%
%ADD13R,0.490000X1.340000*%
G04 APERTURE END LIST*
D10*
G04 #@! TO.C,J1*
X44450000Y30080000D03*
X43950000Y30080000D03*
X43450000Y30080000D03*
X42950000Y30080000D03*
X42450000Y30080000D03*
X41950000Y30080000D03*
X41450000Y30080000D03*
X38950000Y30080000D03*
X39950000Y30080000D03*
X40450000Y30080000D03*
X40950000Y30080000D03*
X39450000Y30080000D03*
G04 #@! TD*
D11*
G04 #@! TO.C,L5*
X42025000Y9550000D03*
X42025000Y14250000D03*
G04 #@! TD*
G04 #@! TO.C,L3*
X20945000Y9550000D03*
X20945000Y14250000D03*
G04 #@! TD*
D12*
G04 #@! TO.C,C30*
G36*
X39449505Y7968796D02*
G01*
X39473773Y7965196D01*
X39497572Y7959235D01*
X39520671Y7950970D01*
X39542850Y7940480D01*
X39563893Y7927868D01*
X39583599Y7913253D01*
X39601777Y7896777D01*
X39618253Y7878599D01*
X39632868Y7858893D01*
X39645480Y7837850D01*
X39655970Y7815671D01*
X39664235Y7792572D01*
X39670196Y7768773D01*
X39673796Y7744505D01*
X39675000Y7720001D01*
X39675000Y6819999D01*
X39673796Y6795495D01*
X39670196Y6771227D01*
X39664235Y6747428D01*
X39655970Y6724329D01*
X39645480Y6702150D01*
X39632868Y6681107D01*
X39618253Y6661401D01*
X39601777Y6643223D01*
X39583599Y6626747D01*
X39563893Y6612132D01*
X39542850Y6599520D01*
X39520671Y6589030D01*
X39497572Y6580765D01*
X39473773Y6574804D01*
X39449505Y6571204D01*
X39425001Y6570000D01*
X38774999Y6570000D01*
X38750495Y6571204D01*
X38726227Y6574804D01*
X38702428Y6580765D01*
X38679329Y6589030D01*
X38657150Y6599520D01*
X38636107Y6612132D01*
X38616401Y6626747D01*
X38598223Y6643223D01*
X38581747Y6661401D01*
X38567132Y6681107D01*
X38554520Y6702150D01*
X38544030Y6724329D01*
X38535765Y6747428D01*
X38529804Y6771227D01*
X38526204Y6795495D01*
X38525000Y6819999D01*
X38525000Y7720001D01*
X38526204Y7744505D01*
X38529804Y7768773D01*
X38535765Y7792572D01*
X38544030Y7815671D01*
X38554520Y7837850D01*
X38567132Y7858893D01*
X38581747Y7878599D01*
X38598223Y7896777D01*
X38616401Y7913253D01*
X38636107Y7927868D01*
X38657150Y7940480D01*
X38679329Y7950970D01*
X38702428Y7959235D01*
X38726227Y7965196D01*
X38750495Y7968796D01*
X38774999Y7970000D01*
X39425001Y7970000D01*
X39449505Y7968796D01*
G37*
G36*
X41499505Y7968796D02*
G01*
X41523773Y7965196D01*
X41547572Y7959235D01*
X41570671Y7950970D01*
X41592850Y7940480D01*
X41613893Y7927868D01*
X41633599Y7913253D01*
X41651777Y7896777D01*
X41668253Y7878599D01*
X41682868Y7858893D01*
X41695480Y7837850D01*
X41705970Y7815671D01*
X41714235Y7792572D01*
X41720196Y7768773D01*
X41723796Y7744505D01*
X41725000Y7720001D01*
X41725000Y6819999D01*
X41723796Y6795495D01*
X41720196Y6771227D01*
X41714235Y6747428D01*
X41705970Y6724329D01*
X41695480Y6702150D01*
X41682868Y6681107D01*
X41668253Y6661401D01*
X41651777Y6643223D01*
X41633599Y6626747D01*
X41613893Y6612132D01*
X41592850Y6599520D01*
X41570671Y6589030D01*
X41547572Y6580765D01*
X41523773Y6574804D01*
X41499505Y6571204D01*
X41475001Y6570000D01*
X40824999Y6570000D01*
X40800495Y6571204D01*
X40776227Y6574804D01*
X40752428Y6580765D01*
X40729329Y6589030D01*
X40707150Y6599520D01*
X40686107Y6612132D01*
X40666401Y6626747D01*
X40648223Y6643223D01*
X40631747Y6661401D01*
X40617132Y6681107D01*
X40604520Y6702150D01*
X40594030Y6724329D01*
X40585765Y6747428D01*
X40579804Y6771227D01*
X40576204Y6795495D01*
X40575000Y6819999D01*
X40575000Y7720001D01*
X40576204Y7744505D01*
X40579804Y7768773D01*
X40585765Y7792572D01*
X40594030Y7815671D01*
X40604520Y7837850D01*
X40617132Y7858893D01*
X40631747Y7878599D01*
X40648223Y7896777D01*
X40666401Y7913253D01*
X40686107Y7927868D01*
X40707150Y7940480D01*
X40729329Y7950970D01*
X40752428Y7959235D01*
X40776227Y7965196D01*
X40800495Y7968796D01*
X40824999Y7970000D01*
X41475001Y7970000D01*
X41499505Y7968796D01*
G37*
G04 #@! TD*
G04 #@! TO.C,C29*
G36*
X45274505Y7968796D02*
G01*
X45298773Y7965196D01*
X45322572Y7959235D01*
X45345671Y7950970D01*
X45367850Y7940480D01*
X45388893Y7927868D01*
X45408599Y7913253D01*
X45426777Y7896777D01*
X45443253Y7878599D01*
X45457868Y7858893D01*
X45470480Y7837850D01*
X45480970Y7815671D01*
X45489235Y7792572D01*
X45495196Y7768773D01*
X45498796Y7744505D01*
X45500000Y7720001D01*
X45500000Y6819999D01*
X45498796Y6795495D01*
X45495196Y6771227D01*
X45489235Y6747428D01*
X45480970Y6724329D01*
X45470480Y6702150D01*
X45457868Y6681107D01*
X45443253Y6661401D01*
X45426777Y6643223D01*
X45408599Y6626747D01*
X45388893Y6612132D01*
X45367850Y6599520D01*
X45345671Y6589030D01*
X45322572Y6580765D01*
X45298773Y6574804D01*
X45274505Y6571204D01*
X45250001Y6570000D01*
X44599999Y6570000D01*
X44575495Y6571204D01*
X44551227Y6574804D01*
X44527428Y6580765D01*
X44504329Y6589030D01*
X44482150Y6599520D01*
X44461107Y6612132D01*
X44441401Y6626747D01*
X44423223Y6643223D01*
X44406747Y6661401D01*
X44392132Y6681107D01*
X44379520Y6702150D01*
X44369030Y6724329D01*
X44360765Y6747428D01*
X44354804Y6771227D01*
X44351204Y6795495D01*
X44350000Y6819999D01*
X44350000Y7720001D01*
X44351204Y7744505D01*
X44354804Y7768773D01*
X44360765Y7792572D01*
X44369030Y7815671D01*
X44379520Y7837850D01*
X44392132Y7858893D01*
X44406747Y7878599D01*
X44423223Y7896777D01*
X44441401Y7913253D01*
X44461107Y7927868D01*
X44482150Y7940480D01*
X44504329Y7950970D01*
X44527428Y7959235D01*
X44551227Y7965196D01*
X44575495Y7968796D01*
X44599999Y7970000D01*
X45250001Y7970000D01*
X45274505Y7968796D01*
G37*
G36*
X43224505Y7968796D02*
G01*
X43248773Y7965196D01*
X43272572Y7959235D01*
X43295671Y7950970D01*
X43317850Y7940480D01*
X43338893Y7927868D01*
X43358599Y7913253D01*
X43376777Y7896777D01*
X43393253Y7878599D01*
X43407868Y7858893D01*
X43420480Y7837850D01*
X43430970Y7815671D01*
X43439235Y7792572D01*
X43445196Y7768773D01*
X43448796Y7744505D01*
X43450000Y7720001D01*
X43450000Y6819999D01*
X43448796Y6795495D01*
X43445196Y6771227D01*
X43439235Y6747428D01*
X43430970Y6724329D01*
X43420480Y6702150D01*
X43407868Y6681107D01*
X43393253Y6661401D01*
X43376777Y6643223D01*
X43358599Y6626747D01*
X43338893Y6612132D01*
X43317850Y6599520D01*
X43295671Y6589030D01*
X43272572Y6580765D01*
X43248773Y6574804D01*
X43224505Y6571204D01*
X43200001Y6570000D01*
X42549999Y6570000D01*
X42525495Y6571204D01*
X42501227Y6574804D01*
X42477428Y6580765D01*
X42454329Y6589030D01*
X42432150Y6599520D01*
X42411107Y6612132D01*
X42391401Y6626747D01*
X42373223Y6643223D01*
X42356747Y6661401D01*
X42342132Y6681107D01*
X42329520Y6702150D01*
X42319030Y6724329D01*
X42310765Y6747428D01*
X42304804Y6771227D01*
X42301204Y6795495D01*
X42300000Y6819999D01*
X42300000Y7720001D01*
X42301204Y7744505D01*
X42304804Y7768773D01*
X42310765Y7792572D01*
X42319030Y7815671D01*
X42329520Y7837850D01*
X42342132Y7858893D01*
X42356747Y7878599D01*
X42373223Y7896777D01*
X42391401Y7913253D01*
X42411107Y7927868D01*
X42432150Y7940480D01*
X42454329Y7950970D01*
X42477428Y7959235D01*
X42501227Y7965196D01*
X42525495Y7968796D01*
X42549999Y7970000D01*
X43200001Y7970000D01*
X43224505Y7968796D01*
G37*
G04 #@! TD*
G04 #@! TO.C,C25*
G36*
X38174505Y13003796D02*
G01*
X38198773Y13000196D01*
X38222572Y12994235D01*
X38245671Y12985970D01*
X38267850Y12975480D01*
X38288893Y12962868D01*
X38308599Y12948253D01*
X38326777Y12931777D01*
X38343253Y12913599D01*
X38357868Y12893893D01*
X38370480Y12872850D01*
X38380970Y12850671D01*
X38389235Y12827572D01*
X38395196Y12803773D01*
X38398796Y12779505D01*
X38400000Y12755001D01*
X38400000Y12104999D01*
X38398796Y12080495D01*
X38395196Y12056227D01*
X38389235Y12032428D01*
X38380970Y12009329D01*
X38370480Y11987150D01*
X38357868Y11966107D01*
X38343253Y11946401D01*
X38326777Y11928223D01*
X38308599Y11911747D01*
X38288893Y11897132D01*
X38267850Y11884520D01*
X38245671Y11874030D01*
X38222572Y11865765D01*
X38198773Y11859804D01*
X38174505Y11856204D01*
X38150001Y11855000D01*
X37249999Y11855000D01*
X37225495Y11856204D01*
X37201227Y11859804D01*
X37177428Y11865765D01*
X37154329Y11874030D01*
X37132150Y11884520D01*
X37111107Y11897132D01*
X37091401Y11911747D01*
X37073223Y11928223D01*
X37056747Y11946401D01*
X37042132Y11966107D01*
X37029520Y11987150D01*
X37019030Y12009329D01*
X37010765Y12032428D01*
X37004804Y12056227D01*
X37001204Y12080495D01*
X37000000Y12104999D01*
X37000000Y12755001D01*
X37001204Y12779505D01*
X37004804Y12803773D01*
X37010765Y12827572D01*
X37019030Y12850671D01*
X37029520Y12872850D01*
X37042132Y12893893D01*
X37056747Y12913599D01*
X37073223Y12931777D01*
X37091401Y12948253D01*
X37111107Y12962868D01*
X37132150Y12975480D01*
X37154329Y12985970D01*
X37177428Y12994235D01*
X37201227Y13000196D01*
X37225495Y13003796D01*
X37249999Y13005000D01*
X38150001Y13005000D01*
X38174505Y13003796D01*
G37*
G36*
X38174505Y15053796D02*
G01*
X38198773Y15050196D01*
X38222572Y15044235D01*
X38245671Y15035970D01*
X38267850Y15025480D01*
X38288893Y15012868D01*
X38308599Y14998253D01*
X38326777Y14981777D01*
X38343253Y14963599D01*
X38357868Y14943893D01*
X38370480Y14922850D01*
X38380970Y14900671D01*
X38389235Y14877572D01*
X38395196Y14853773D01*
X38398796Y14829505D01*
X38400000Y14805001D01*
X38400000Y14154999D01*
X38398796Y14130495D01*
X38395196Y14106227D01*
X38389235Y14082428D01*
X38380970Y14059329D01*
X38370480Y14037150D01*
X38357868Y14016107D01*
X38343253Y13996401D01*
X38326777Y13978223D01*
X38308599Y13961747D01*
X38288893Y13947132D01*
X38267850Y13934520D01*
X38245671Y13924030D01*
X38222572Y13915765D01*
X38198773Y13909804D01*
X38174505Y13906204D01*
X38150001Y13905000D01*
X37249999Y13905000D01*
X37225495Y13906204D01*
X37201227Y13909804D01*
X37177428Y13915765D01*
X37154329Y13924030D01*
X37132150Y13934520D01*
X37111107Y13947132D01*
X37091401Y13961747D01*
X37073223Y13978223D01*
X37056747Y13996401D01*
X37042132Y14016107D01*
X37029520Y14037150D01*
X37019030Y14059329D01*
X37010765Y14082428D01*
X37004804Y14106227D01*
X37001204Y14130495D01*
X37000000Y14154999D01*
X37000000Y14805001D01*
X37001204Y14829505D01*
X37004804Y14853773D01*
X37010765Y14877572D01*
X37019030Y14900671D01*
X37029520Y14922850D01*
X37042132Y14943893D01*
X37056747Y14963599D01*
X37073223Y14981777D01*
X37091401Y14998253D01*
X37111107Y15012868D01*
X37132150Y15025480D01*
X37154329Y15035970D01*
X37177428Y15044235D01*
X37201227Y15050196D01*
X37225495Y15053796D01*
X37249999Y15055000D01*
X38150001Y15055000D01*
X38174505Y15053796D01*
G37*
G04 #@! TD*
G04 #@! TO.C,C14*
G36*
X18369505Y7968796D02*
G01*
X18393773Y7965196D01*
X18417572Y7959235D01*
X18440671Y7950970D01*
X18462850Y7940480D01*
X18483893Y7927868D01*
X18503599Y7913253D01*
X18521777Y7896777D01*
X18538253Y7878599D01*
X18552868Y7858893D01*
X18565480Y7837850D01*
X18575970Y7815671D01*
X18584235Y7792572D01*
X18590196Y7768773D01*
X18593796Y7744505D01*
X18595000Y7720001D01*
X18595000Y6819999D01*
X18593796Y6795495D01*
X18590196Y6771227D01*
X18584235Y6747428D01*
X18575970Y6724329D01*
X18565480Y6702150D01*
X18552868Y6681107D01*
X18538253Y6661401D01*
X18521777Y6643223D01*
X18503599Y6626747D01*
X18483893Y6612132D01*
X18462850Y6599520D01*
X18440671Y6589030D01*
X18417572Y6580765D01*
X18393773Y6574804D01*
X18369505Y6571204D01*
X18345001Y6570000D01*
X17694999Y6570000D01*
X17670495Y6571204D01*
X17646227Y6574804D01*
X17622428Y6580765D01*
X17599329Y6589030D01*
X17577150Y6599520D01*
X17556107Y6612132D01*
X17536401Y6626747D01*
X17518223Y6643223D01*
X17501747Y6661401D01*
X17487132Y6681107D01*
X17474520Y6702150D01*
X17464030Y6724329D01*
X17455765Y6747428D01*
X17449804Y6771227D01*
X17446204Y6795495D01*
X17445000Y6819999D01*
X17445000Y7720001D01*
X17446204Y7744505D01*
X17449804Y7768773D01*
X17455765Y7792572D01*
X17464030Y7815671D01*
X17474520Y7837850D01*
X17487132Y7858893D01*
X17501747Y7878599D01*
X17518223Y7896777D01*
X17536401Y7913253D01*
X17556107Y7927868D01*
X17577150Y7940480D01*
X17599329Y7950970D01*
X17622428Y7959235D01*
X17646227Y7965196D01*
X17670495Y7968796D01*
X17694999Y7970000D01*
X18345001Y7970000D01*
X18369505Y7968796D01*
G37*
G36*
X20419505Y7968796D02*
G01*
X20443773Y7965196D01*
X20467572Y7959235D01*
X20490671Y7950970D01*
X20512850Y7940480D01*
X20533893Y7927868D01*
X20553599Y7913253D01*
X20571777Y7896777D01*
X20588253Y7878599D01*
X20602868Y7858893D01*
X20615480Y7837850D01*
X20625970Y7815671D01*
X20634235Y7792572D01*
X20640196Y7768773D01*
X20643796Y7744505D01*
X20645000Y7720001D01*
X20645000Y6819999D01*
X20643796Y6795495D01*
X20640196Y6771227D01*
X20634235Y6747428D01*
X20625970Y6724329D01*
X20615480Y6702150D01*
X20602868Y6681107D01*
X20588253Y6661401D01*
X20571777Y6643223D01*
X20553599Y6626747D01*
X20533893Y6612132D01*
X20512850Y6599520D01*
X20490671Y6589030D01*
X20467572Y6580765D01*
X20443773Y6574804D01*
X20419505Y6571204D01*
X20395001Y6570000D01*
X19744999Y6570000D01*
X19720495Y6571204D01*
X19696227Y6574804D01*
X19672428Y6580765D01*
X19649329Y6589030D01*
X19627150Y6599520D01*
X19606107Y6612132D01*
X19586401Y6626747D01*
X19568223Y6643223D01*
X19551747Y6661401D01*
X19537132Y6681107D01*
X19524520Y6702150D01*
X19514030Y6724329D01*
X19505765Y6747428D01*
X19499804Y6771227D01*
X19496204Y6795495D01*
X19495000Y6819999D01*
X19495000Y7720001D01*
X19496204Y7744505D01*
X19499804Y7768773D01*
X19505765Y7792572D01*
X19514030Y7815671D01*
X19524520Y7837850D01*
X19537132Y7858893D01*
X19551747Y7878599D01*
X19568223Y7896777D01*
X19586401Y7913253D01*
X19606107Y7927868D01*
X19627150Y7940480D01*
X19649329Y7950970D01*
X19672428Y7959235D01*
X19696227Y7965196D01*
X19720495Y7968796D01*
X19744999Y7970000D01*
X20395001Y7970000D01*
X20419505Y7968796D01*
G37*
G04 #@! TD*
G04 #@! TO.C,C13*
G36*
X24194505Y7968796D02*
G01*
X24218773Y7965196D01*
X24242572Y7959235D01*
X24265671Y7950970D01*
X24287850Y7940480D01*
X24308893Y7927868D01*
X24328599Y7913253D01*
X24346777Y7896777D01*
X24363253Y7878599D01*
X24377868Y7858893D01*
X24390480Y7837850D01*
X24400970Y7815671D01*
X24409235Y7792572D01*
X24415196Y7768773D01*
X24418796Y7744505D01*
X24420000Y7720001D01*
X24420000Y6819999D01*
X24418796Y6795495D01*
X24415196Y6771227D01*
X24409235Y6747428D01*
X24400970Y6724329D01*
X24390480Y6702150D01*
X24377868Y6681107D01*
X24363253Y6661401D01*
X24346777Y6643223D01*
X24328599Y6626747D01*
X24308893Y6612132D01*
X24287850Y6599520D01*
X24265671Y6589030D01*
X24242572Y6580765D01*
X24218773Y6574804D01*
X24194505Y6571204D01*
X24170001Y6570000D01*
X23519999Y6570000D01*
X23495495Y6571204D01*
X23471227Y6574804D01*
X23447428Y6580765D01*
X23424329Y6589030D01*
X23402150Y6599520D01*
X23381107Y6612132D01*
X23361401Y6626747D01*
X23343223Y6643223D01*
X23326747Y6661401D01*
X23312132Y6681107D01*
X23299520Y6702150D01*
X23289030Y6724329D01*
X23280765Y6747428D01*
X23274804Y6771227D01*
X23271204Y6795495D01*
X23270000Y6819999D01*
X23270000Y7720001D01*
X23271204Y7744505D01*
X23274804Y7768773D01*
X23280765Y7792572D01*
X23289030Y7815671D01*
X23299520Y7837850D01*
X23312132Y7858893D01*
X23326747Y7878599D01*
X23343223Y7896777D01*
X23361401Y7913253D01*
X23381107Y7927868D01*
X23402150Y7940480D01*
X23424329Y7950970D01*
X23447428Y7959235D01*
X23471227Y7965196D01*
X23495495Y7968796D01*
X23519999Y7970000D01*
X24170001Y7970000D01*
X24194505Y7968796D01*
G37*
G36*
X22144505Y7968796D02*
G01*
X22168773Y7965196D01*
X22192572Y7959235D01*
X22215671Y7950970D01*
X22237850Y7940480D01*
X22258893Y7927868D01*
X22278599Y7913253D01*
X22296777Y7896777D01*
X22313253Y7878599D01*
X22327868Y7858893D01*
X22340480Y7837850D01*
X22350970Y7815671D01*
X22359235Y7792572D01*
X22365196Y7768773D01*
X22368796Y7744505D01*
X22370000Y7720001D01*
X22370000Y6819999D01*
X22368796Y6795495D01*
X22365196Y6771227D01*
X22359235Y6747428D01*
X22350970Y6724329D01*
X22340480Y6702150D01*
X22327868Y6681107D01*
X22313253Y6661401D01*
X22296777Y6643223D01*
X22278599Y6626747D01*
X22258893Y6612132D01*
X22237850Y6599520D01*
X22215671Y6589030D01*
X22192572Y6580765D01*
X22168773Y6574804D01*
X22144505Y6571204D01*
X22120001Y6570000D01*
X21469999Y6570000D01*
X21445495Y6571204D01*
X21421227Y6574804D01*
X21397428Y6580765D01*
X21374329Y6589030D01*
X21352150Y6599520D01*
X21331107Y6612132D01*
X21311401Y6626747D01*
X21293223Y6643223D01*
X21276747Y6661401D01*
X21262132Y6681107D01*
X21249520Y6702150D01*
X21239030Y6724329D01*
X21230765Y6747428D01*
X21224804Y6771227D01*
X21221204Y6795495D01*
X21220000Y6819999D01*
X21220000Y7720001D01*
X21221204Y7744505D01*
X21224804Y7768773D01*
X21230765Y7792572D01*
X21239030Y7815671D01*
X21249520Y7837850D01*
X21262132Y7858893D01*
X21276747Y7878599D01*
X21293223Y7896777D01*
X21311401Y7913253D01*
X21331107Y7927868D01*
X21352150Y7940480D01*
X21374329Y7950970D01*
X21397428Y7959235D01*
X21421227Y7965196D01*
X21445495Y7968796D01*
X21469999Y7970000D01*
X22120001Y7970000D01*
X22144505Y7968796D01*
G37*
G04 #@! TD*
G04 #@! TO.C,C9*
G36*
X16824505Y12798796D02*
G01*
X16848773Y12795196D01*
X16872572Y12789235D01*
X16895671Y12780970D01*
X16917850Y12770480D01*
X16938893Y12757868D01*
X16958599Y12743253D01*
X16976777Y12726777D01*
X16993253Y12708599D01*
X17007868Y12688893D01*
X17020480Y12667850D01*
X17030970Y12645671D01*
X17039235Y12622572D01*
X17045196Y12598773D01*
X17048796Y12574505D01*
X17050000Y12550001D01*
X17050000Y11899999D01*
X17048796Y11875495D01*
X17045196Y11851227D01*
X17039235Y11827428D01*
X17030970Y11804329D01*
X17020480Y11782150D01*
X17007868Y11761107D01*
X16993253Y11741401D01*
X16976777Y11723223D01*
X16958599Y11706747D01*
X16938893Y11692132D01*
X16917850Y11679520D01*
X16895671Y11669030D01*
X16872572Y11660765D01*
X16848773Y11654804D01*
X16824505Y11651204D01*
X16800001Y11650000D01*
X15899999Y11650000D01*
X15875495Y11651204D01*
X15851227Y11654804D01*
X15827428Y11660765D01*
X15804329Y11669030D01*
X15782150Y11679520D01*
X15761107Y11692132D01*
X15741401Y11706747D01*
X15723223Y11723223D01*
X15706747Y11741401D01*
X15692132Y11761107D01*
X15679520Y11782150D01*
X15669030Y11804329D01*
X15660765Y11827428D01*
X15654804Y11851227D01*
X15651204Y11875495D01*
X15650000Y11899999D01*
X15650000Y12550001D01*
X15651204Y12574505D01*
X15654804Y12598773D01*
X15660765Y12622572D01*
X15669030Y12645671D01*
X15679520Y12667850D01*
X15692132Y12688893D01*
X15706747Y12708599D01*
X15723223Y12726777D01*
X15741401Y12743253D01*
X15761107Y12757868D01*
X15782150Y12770480D01*
X15804329Y12780970D01*
X15827428Y12789235D01*
X15851227Y12795196D01*
X15875495Y12798796D01*
X15899999Y12800000D01*
X16800001Y12800000D01*
X16824505Y12798796D01*
G37*
G36*
X16824505Y14848796D02*
G01*
X16848773Y14845196D01*
X16872572Y14839235D01*
X16895671Y14830970D01*
X16917850Y14820480D01*
X16938893Y14807868D01*
X16958599Y14793253D01*
X16976777Y14776777D01*
X16993253Y14758599D01*
X17007868Y14738893D01*
X17020480Y14717850D01*
X17030970Y14695671D01*
X17039235Y14672572D01*
X17045196Y14648773D01*
X17048796Y14624505D01*
X17050000Y14600001D01*
X17050000Y13949999D01*
X17048796Y13925495D01*
X17045196Y13901227D01*
X17039235Y13877428D01*
X17030970Y13854329D01*
X17020480Y13832150D01*
X17007868Y13811107D01*
X16993253Y13791401D01*
X16976777Y13773223D01*
X16958599Y13756747D01*
X16938893Y13742132D01*
X16917850Y13729520D01*
X16895671Y13719030D01*
X16872572Y13710765D01*
X16848773Y13704804D01*
X16824505Y13701204D01*
X16800001Y13700000D01*
X15899999Y13700000D01*
X15875495Y13701204D01*
X15851227Y13704804D01*
X15827428Y13710765D01*
X15804329Y13719030D01*
X15782150Y13729520D01*
X15761107Y13742132D01*
X15741401Y13756747D01*
X15723223Y13773223D01*
X15706747Y13791401D01*
X15692132Y13811107D01*
X15679520Y13832150D01*
X15669030Y13854329D01*
X15660765Y13877428D01*
X15654804Y13901227D01*
X15651204Y13925495D01*
X15650000Y13949999D01*
X15650000Y14600001D01*
X15651204Y14624505D01*
X15654804Y14648773D01*
X15660765Y14672572D01*
X15669030Y14695671D01*
X15679520Y14717850D01*
X15692132Y14738893D01*
X15706747Y14758599D01*
X15723223Y14776777D01*
X15741401Y14793253D01*
X15761107Y14807868D01*
X15782150Y14820480D01*
X15804329Y14830970D01*
X15827428Y14839235D01*
X15851227Y14845196D01*
X15875495Y14848796D01*
X15899999Y14850000D01*
X16800001Y14850000D01*
X16824505Y14848796D01*
G37*
G04 #@! TD*
G04 #@! TO.C,R5*
G36*
X25160779Y20148856D02*
G01*
X25183834Y20145437D01*
X25206443Y20139773D01*
X25228387Y20131921D01*
X25249457Y20121956D01*
X25269448Y20109974D01*
X25288168Y20096090D01*
X25305438Y20080438D01*
X25321090Y20063168D01*
X25334974Y20044448D01*
X25346956Y20024457D01*
X25356921Y20003387D01*
X25364773Y19981443D01*
X25370437Y19958834D01*
X25373856Y19935779D01*
X25375000Y19912500D01*
X25375000Y19337500D01*
X25373856Y19314221D01*
X25370437Y19291166D01*
X25364773Y19268557D01*
X25356921Y19246613D01*
X25346956Y19225543D01*
X25334974Y19205552D01*
X25321090Y19186832D01*
X25305438Y19169562D01*
X25288168Y19153910D01*
X25269448Y19140026D01*
X25249457Y19128044D01*
X25228387Y19118079D01*
X25206443Y19110227D01*
X25183834Y19104563D01*
X25160779Y19101144D01*
X25137500Y19100000D01*
X24662500Y19100000D01*
X24639221Y19101144D01*
X24616166Y19104563D01*
X24593557Y19110227D01*
X24571613Y19118079D01*
X24550543Y19128044D01*
X24530552Y19140026D01*
X24511832Y19153910D01*
X24494562Y19169562D01*
X24478910Y19186832D01*
X24465026Y19205552D01*
X24453044Y19225543D01*
X24443079Y19246613D01*
X24435227Y19268557D01*
X24429563Y19291166D01*
X24426144Y19314221D01*
X24425000Y19337500D01*
X24425000Y19912500D01*
X24426144Y19935779D01*
X24429563Y19958834D01*
X24435227Y19981443D01*
X24443079Y20003387D01*
X24453044Y20024457D01*
X24465026Y20044448D01*
X24478910Y20063168D01*
X24494562Y20080438D01*
X24511832Y20096090D01*
X24530552Y20109974D01*
X24550543Y20121956D01*
X24571613Y20131921D01*
X24593557Y20139773D01*
X24616166Y20145437D01*
X24639221Y20148856D01*
X24662500Y20150000D01*
X25137500Y20150000D01*
X25160779Y20148856D01*
G37*
G36*
X25160779Y18398856D02*
G01*
X25183834Y18395437D01*
X25206443Y18389773D01*
X25228387Y18381921D01*
X25249457Y18371956D01*
X25269448Y18359974D01*
X25288168Y18346090D01*
X25305438Y18330438D01*
X25321090Y18313168D01*
X25334974Y18294448D01*
X25346956Y18274457D01*
X25356921Y18253387D01*
X25364773Y18231443D01*
X25370437Y18208834D01*
X25373856Y18185779D01*
X25375000Y18162500D01*
X25375000Y17587500D01*
X25373856Y17564221D01*
X25370437Y17541166D01*
X25364773Y17518557D01*
X25356921Y17496613D01*
X25346956Y17475543D01*
X25334974Y17455552D01*
X25321090Y17436832D01*
X25305438Y17419562D01*
X25288168Y17403910D01*
X25269448Y17390026D01*
X25249457Y17378044D01*
X25228387Y17368079D01*
X25206443Y17360227D01*
X25183834Y17354563D01*
X25160779Y17351144D01*
X25137500Y17350000D01*
X24662500Y17350000D01*
X24639221Y17351144D01*
X24616166Y17354563D01*
X24593557Y17360227D01*
X24571613Y17368079D01*
X24550543Y17378044D01*
X24530552Y17390026D01*
X24511832Y17403910D01*
X24494562Y17419562D01*
X24478910Y17436832D01*
X24465026Y17455552D01*
X24453044Y17475543D01*
X24443079Y17496613D01*
X24435227Y17518557D01*
X24429563Y17541166D01*
X24426144Y17564221D01*
X24425000Y17587500D01*
X24425000Y18162500D01*
X24426144Y18185779D01*
X24429563Y18208834D01*
X24435227Y18231443D01*
X24443079Y18253387D01*
X24453044Y18274457D01*
X24465026Y18294448D01*
X24478910Y18313168D01*
X24494562Y18330438D01*
X24511832Y18346090D01*
X24530552Y18359974D01*
X24550543Y18371956D01*
X24571613Y18381921D01*
X24593557Y18389773D01*
X24616166Y18395437D01*
X24639221Y18398856D01*
X24662500Y18400000D01*
X25137500Y18400000D01*
X25160779Y18398856D01*
G37*
G04 #@! TD*
G04 #@! TO.C,R1*
G36*
X8035779Y34323856D02*
G01*
X8058834Y34320437D01*
X8081443Y34314773D01*
X8103387Y34306921D01*
X8124457Y34296956D01*
X8144448Y34284974D01*
X8163168Y34271090D01*
X8180438Y34255438D01*
X8196090Y34238168D01*
X8209974Y34219448D01*
X8221956Y34199457D01*
X8231921Y34178387D01*
X8239773Y34156443D01*
X8245437Y34133834D01*
X8248856Y34110779D01*
X8250000Y34087500D01*
X8250000Y33612500D01*
X8248856Y33589221D01*
X8245437Y33566166D01*
X8239773Y33543557D01*
X8231921Y33521613D01*
X8221956Y33500543D01*
X8209974Y33480552D01*
X8196090Y33461832D01*
X8180438Y33444562D01*
X8163168Y33428910D01*
X8144448Y33415026D01*
X8124457Y33403044D01*
X8103387Y33393079D01*
X8081443Y33385227D01*
X8058834Y33379563D01*
X8035779Y33376144D01*
X8012500Y33375000D01*
X7437500Y33375000D01*
X7414221Y33376144D01*
X7391166Y33379563D01*
X7368557Y33385227D01*
X7346613Y33393079D01*
X7325543Y33403044D01*
X7305552Y33415026D01*
X7286832Y33428910D01*
X7269562Y33444562D01*
X7253910Y33461832D01*
X7240026Y33480552D01*
X7228044Y33500543D01*
X7218079Y33521613D01*
X7210227Y33543557D01*
X7204563Y33566166D01*
X7201144Y33589221D01*
X7200000Y33612500D01*
X7200000Y34087500D01*
X7201144Y34110779D01*
X7204563Y34133834D01*
X7210227Y34156443D01*
X7218079Y34178387D01*
X7228044Y34199457D01*
X7240026Y34219448D01*
X7253910Y34238168D01*
X7269562Y34255438D01*
X7286832Y34271090D01*
X7305552Y34284974D01*
X7325543Y34296956D01*
X7346613Y34306921D01*
X7368557Y34314773D01*
X7391166Y34320437D01*
X7414221Y34323856D01*
X7437500Y34325000D01*
X8012500Y34325000D01*
X8035779Y34323856D01*
G37*
G36*
X9785779Y34323856D02*
G01*
X9808834Y34320437D01*
X9831443Y34314773D01*
X9853387Y34306921D01*
X9874457Y34296956D01*
X9894448Y34284974D01*
X9913168Y34271090D01*
X9930438Y34255438D01*
X9946090Y34238168D01*
X9959974Y34219448D01*
X9971956Y34199457D01*
X9981921Y34178387D01*
X9989773Y34156443D01*
X9995437Y34133834D01*
X9998856Y34110779D01*
X10000000Y34087500D01*
X10000000Y33612500D01*
X9998856Y33589221D01*
X9995437Y33566166D01*
X9989773Y33543557D01*
X9981921Y33521613D01*
X9971956Y33500543D01*
X9959974Y33480552D01*
X9946090Y33461832D01*
X9930438Y33444562D01*
X9913168Y33428910D01*
X9894448Y33415026D01*
X9874457Y33403044D01*
X9853387Y33393079D01*
X9831443Y33385227D01*
X9808834Y33379563D01*
X9785779Y33376144D01*
X9762500Y33375000D01*
X9187500Y33375000D01*
X9164221Y33376144D01*
X9141166Y33379563D01*
X9118557Y33385227D01*
X9096613Y33393079D01*
X9075543Y33403044D01*
X9055552Y33415026D01*
X9036832Y33428910D01*
X9019562Y33444562D01*
X9003910Y33461832D01*
X8990026Y33480552D01*
X8978044Y33500543D01*
X8968079Y33521613D01*
X8960227Y33543557D01*
X8954563Y33566166D01*
X8951144Y33589221D01*
X8950000Y33612500D01*
X8950000Y34087500D01*
X8951144Y34110779D01*
X8954563Y34133834D01*
X8960227Y34156443D01*
X8968079Y34178387D01*
X8978044Y34199457D01*
X8990026Y34219448D01*
X9003910Y34238168D01*
X9019562Y34255438D01*
X9036832Y34271090D01*
X9055552Y34284974D01*
X9075543Y34296956D01*
X9096613Y34306921D01*
X9118557Y34314773D01*
X9141166Y34320437D01*
X9164221Y34323856D01*
X9187500Y34325000D01*
X9762500Y34325000D01*
X9785779Y34323856D01*
G37*
G04 #@! TD*
G04 #@! TO.C,R2*
G36*
X8035779Y36523856D02*
G01*
X8058834Y36520437D01*
X8081443Y36514773D01*
X8103387Y36506921D01*
X8124457Y36496956D01*
X8144448Y36484974D01*
X8163168Y36471090D01*
X8180438Y36455438D01*
X8196090Y36438168D01*
X8209974Y36419448D01*
X8221956Y36399457D01*
X8231921Y36378387D01*
X8239773Y36356443D01*
X8245437Y36333834D01*
X8248856Y36310779D01*
X8250000Y36287500D01*
X8250000Y35812500D01*
X8248856Y35789221D01*
X8245437Y35766166D01*
X8239773Y35743557D01*
X8231921Y35721613D01*
X8221956Y35700543D01*
X8209974Y35680552D01*
X8196090Y35661832D01*
X8180438Y35644562D01*
X8163168Y35628910D01*
X8144448Y35615026D01*
X8124457Y35603044D01*
X8103387Y35593079D01*
X8081443Y35585227D01*
X8058834Y35579563D01*
X8035779Y35576144D01*
X8012500Y35575000D01*
X7437500Y35575000D01*
X7414221Y35576144D01*
X7391166Y35579563D01*
X7368557Y35585227D01*
X7346613Y35593079D01*
X7325543Y35603044D01*
X7305552Y35615026D01*
X7286832Y35628910D01*
X7269562Y35644562D01*
X7253910Y35661832D01*
X7240026Y35680552D01*
X7228044Y35700543D01*
X7218079Y35721613D01*
X7210227Y35743557D01*
X7204563Y35766166D01*
X7201144Y35789221D01*
X7200000Y35812500D01*
X7200000Y36287500D01*
X7201144Y36310779D01*
X7204563Y36333834D01*
X7210227Y36356443D01*
X7218079Y36378387D01*
X7228044Y36399457D01*
X7240026Y36419448D01*
X7253910Y36438168D01*
X7269562Y36455438D01*
X7286832Y36471090D01*
X7305552Y36484974D01*
X7325543Y36496956D01*
X7346613Y36506921D01*
X7368557Y36514773D01*
X7391166Y36520437D01*
X7414221Y36523856D01*
X7437500Y36525000D01*
X8012500Y36525000D01*
X8035779Y36523856D01*
G37*
G36*
X9785779Y36523856D02*
G01*
X9808834Y36520437D01*
X9831443Y36514773D01*
X9853387Y36506921D01*
X9874457Y36496956D01*
X9894448Y36484974D01*
X9913168Y36471090D01*
X9930438Y36455438D01*
X9946090Y36438168D01*
X9959974Y36419448D01*
X9971956Y36399457D01*
X9981921Y36378387D01*
X9989773Y36356443D01*
X9995437Y36333834D01*
X9998856Y36310779D01*
X10000000Y36287500D01*
X10000000Y35812500D01*
X9998856Y35789221D01*
X9995437Y35766166D01*
X9989773Y35743557D01*
X9981921Y35721613D01*
X9971956Y35700543D01*
X9959974Y35680552D01*
X9946090Y35661832D01*
X9930438Y35644562D01*
X9913168Y35628910D01*
X9894448Y35615026D01*
X9874457Y35603044D01*
X9853387Y35593079D01*
X9831443Y35585227D01*
X9808834Y35579563D01*
X9785779Y35576144D01*
X9762500Y35575000D01*
X9187500Y35575000D01*
X9164221Y35576144D01*
X9141166Y35579563D01*
X9118557Y35585227D01*
X9096613Y35593079D01*
X9075543Y35603044D01*
X9055552Y35615026D01*
X9036832Y35628910D01*
X9019562Y35644562D01*
X9003910Y35661832D01*
X8990026Y35680552D01*
X8978044Y35700543D01*
X8968079Y35721613D01*
X8960227Y35743557D01*
X8954563Y35766166D01*
X8951144Y35789221D01*
X8950000Y35812500D01*
X8950000Y36287500D01*
X8951144Y36310779D01*
X8954563Y36333834D01*
X8960227Y36356443D01*
X8968079Y36378387D01*
X8978044Y36399457D01*
X8990026Y36419448D01*
X9003910Y36438168D01*
X9019562Y36455438D01*
X9036832Y36471090D01*
X9055552Y36484974D01*
X9075543Y36496956D01*
X9096613Y36506921D01*
X9118557Y36514773D01*
X9141166Y36520437D01*
X9164221Y36523856D01*
X9187500Y36525000D01*
X9762500Y36525000D01*
X9785779Y36523856D01*
G37*
G04 #@! TD*
G04 #@! TO.C,R3*
G36*
X22365779Y21913856D02*
G01*
X22388834Y21910437D01*
X22411443Y21904773D01*
X22433387Y21896921D01*
X22454457Y21886956D01*
X22474448Y21874974D01*
X22493168Y21861090D01*
X22510438Y21845438D01*
X22526090Y21828168D01*
X22539974Y21809448D01*
X22551956Y21789457D01*
X22561921Y21768387D01*
X22569773Y21746443D01*
X22575437Y21723834D01*
X22578856Y21700779D01*
X22580000Y21677500D01*
X22580000Y21202500D01*
X22578856Y21179221D01*
X22575437Y21156166D01*
X22569773Y21133557D01*
X22561921Y21111613D01*
X22551956Y21090543D01*
X22539974Y21070552D01*
X22526090Y21051832D01*
X22510438Y21034562D01*
X22493168Y21018910D01*
X22474448Y21005026D01*
X22454457Y20993044D01*
X22433387Y20983079D01*
X22411443Y20975227D01*
X22388834Y20969563D01*
X22365779Y20966144D01*
X22342500Y20965000D01*
X21767500Y20965000D01*
X21744221Y20966144D01*
X21721166Y20969563D01*
X21698557Y20975227D01*
X21676613Y20983079D01*
X21655543Y20993044D01*
X21635552Y21005026D01*
X21616832Y21018910D01*
X21599562Y21034562D01*
X21583910Y21051832D01*
X21570026Y21070552D01*
X21558044Y21090543D01*
X21548079Y21111613D01*
X21540227Y21133557D01*
X21534563Y21156166D01*
X21531144Y21179221D01*
X21530000Y21202500D01*
X21530000Y21677500D01*
X21531144Y21700779D01*
X21534563Y21723834D01*
X21540227Y21746443D01*
X21548079Y21768387D01*
X21558044Y21789457D01*
X21570026Y21809448D01*
X21583910Y21828168D01*
X21599562Y21845438D01*
X21616832Y21861090D01*
X21635552Y21874974D01*
X21655543Y21886956D01*
X21676613Y21896921D01*
X21698557Y21904773D01*
X21721166Y21910437D01*
X21744221Y21913856D01*
X21767500Y21915000D01*
X22342500Y21915000D01*
X22365779Y21913856D01*
G37*
G36*
X24115779Y21913856D02*
G01*
X24138834Y21910437D01*
X24161443Y21904773D01*
X24183387Y21896921D01*
X24204457Y21886956D01*
X24224448Y21874974D01*
X24243168Y21861090D01*
X24260438Y21845438D01*
X24276090Y21828168D01*
X24289974Y21809448D01*
X24301956Y21789457D01*
X24311921Y21768387D01*
X24319773Y21746443D01*
X24325437Y21723834D01*
X24328856Y21700779D01*
X24330000Y21677500D01*
X24330000Y21202500D01*
X24328856Y21179221D01*
X24325437Y21156166D01*
X24319773Y21133557D01*
X24311921Y21111613D01*
X24301956Y21090543D01*
X24289974Y21070552D01*
X24276090Y21051832D01*
X24260438Y21034562D01*
X24243168Y21018910D01*
X24224448Y21005026D01*
X24204457Y20993044D01*
X24183387Y20983079D01*
X24161443Y20975227D01*
X24138834Y20969563D01*
X24115779Y20966144D01*
X24092500Y20965000D01*
X23517500Y20965000D01*
X23494221Y20966144D01*
X23471166Y20969563D01*
X23448557Y20975227D01*
X23426613Y20983079D01*
X23405543Y20993044D01*
X23385552Y21005026D01*
X23366832Y21018910D01*
X23349562Y21034562D01*
X23333910Y21051832D01*
X23320026Y21070552D01*
X23308044Y21090543D01*
X23298079Y21111613D01*
X23290227Y21133557D01*
X23284563Y21156166D01*
X23281144Y21179221D01*
X23280000Y21202500D01*
X23280000Y21677500D01*
X23281144Y21700779D01*
X23284563Y21723834D01*
X23290227Y21746443D01*
X23298079Y21768387D01*
X23308044Y21789457D01*
X23320026Y21809448D01*
X23333910Y21828168D01*
X23349562Y21845438D01*
X23366832Y21861090D01*
X23385552Y21874974D01*
X23405543Y21886956D01*
X23426613Y21896921D01*
X23448557Y21904773D01*
X23471166Y21910437D01*
X23494221Y21913856D01*
X23517500Y21915000D01*
X24092500Y21915000D01*
X24115779Y21913856D01*
G37*
G04 #@! TD*
G04 #@! TO.C,R7*
G36*
X8285779Y12173856D02*
G01*
X8308834Y12170437D01*
X8331443Y12164773D01*
X8353387Y12156921D01*
X8374457Y12146956D01*
X8394448Y12134974D01*
X8413168Y12121090D01*
X8430438Y12105438D01*
X8446090Y12088168D01*
X8459974Y12069448D01*
X8471956Y12049457D01*
X8481921Y12028387D01*
X8489773Y12006443D01*
X8495437Y11983834D01*
X8498856Y11960779D01*
X8500000Y11937500D01*
X8500000Y11462500D01*
X8498856Y11439221D01*
X8495437Y11416166D01*
X8489773Y11393557D01*
X8481921Y11371613D01*
X8471956Y11350543D01*
X8459974Y11330552D01*
X8446090Y11311832D01*
X8430438Y11294562D01*
X8413168Y11278910D01*
X8394448Y11265026D01*
X8374457Y11253044D01*
X8353387Y11243079D01*
X8331443Y11235227D01*
X8308834Y11229563D01*
X8285779Y11226144D01*
X8262500Y11225000D01*
X7687500Y11225000D01*
X7664221Y11226144D01*
X7641166Y11229563D01*
X7618557Y11235227D01*
X7596613Y11243079D01*
X7575543Y11253044D01*
X7555552Y11265026D01*
X7536832Y11278910D01*
X7519562Y11294562D01*
X7503910Y11311832D01*
X7490026Y11330552D01*
X7478044Y11350543D01*
X7468079Y11371613D01*
X7460227Y11393557D01*
X7454563Y11416166D01*
X7451144Y11439221D01*
X7450000Y11462500D01*
X7450000Y11937500D01*
X7451144Y11960779D01*
X7454563Y11983834D01*
X7460227Y12006443D01*
X7468079Y12028387D01*
X7478044Y12049457D01*
X7490026Y12069448D01*
X7503910Y12088168D01*
X7519562Y12105438D01*
X7536832Y12121090D01*
X7555552Y12134974D01*
X7575543Y12146956D01*
X7596613Y12156921D01*
X7618557Y12164773D01*
X7641166Y12170437D01*
X7664221Y12173856D01*
X7687500Y12175000D01*
X8262500Y12175000D01*
X8285779Y12173856D01*
G37*
G36*
X6535779Y12173856D02*
G01*
X6558834Y12170437D01*
X6581443Y12164773D01*
X6603387Y12156921D01*
X6624457Y12146956D01*
X6644448Y12134974D01*
X6663168Y12121090D01*
X6680438Y12105438D01*
X6696090Y12088168D01*
X6709974Y12069448D01*
X6721956Y12049457D01*
X6731921Y12028387D01*
X6739773Y12006443D01*
X6745437Y11983834D01*
X6748856Y11960779D01*
X6750000Y11937500D01*
X6750000Y11462500D01*
X6748856Y11439221D01*
X6745437Y11416166D01*
X6739773Y11393557D01*
X6731921Y11371613D01*
X6721956Y11350543D01*
X6709974Y11330552D01*
X6696090Y11311832D01*
X6680438Y11294562D01*
X6663168Y11278910D01*
X6644448Y11265026D01*
X6624457Y11253044D01*
X6603387Y11243079D01*
X6581443Y11235227D01*
X6558834Y11229563D01*
X6535779Y11226144D01*
X6512500Y11225000D01*
X5937500Y11225000D01*
X5914221Y11226144D01*
X5891166Y11229563D01*
X5868557Y11235227D01*
X5846613Y11243079D01*
X5825543Y11253044D01*
X5805552Y11265026D01*
X5786832Y11278910D01*
X5769562Y11294562D01*
X5753910Y11311832D01*
X5740026Y11330552D01*
X5728044Y11350543D01*
X5718079Y11371613D01*
X5710227Y11393557D01*
X5704563Y11416166D01*
X5701144Y11439221D01*
X5700000Y11462500D01*
X5700000Y11937500D01*
X5701144Y11960779D01*
X5704563Y11983834D01*
X5710227Y12006443D01*
X5718079Y12028387D01*
X5728044Y12049457D01*
X5740026Y12069448D01*
X5753910Y12088168D01*
X5769562Y12105438D01*
X5786832Y12121090D01*
X5805552Y12134974D01*
X5825543Y12146956D01*
X5846613Y12156921D01*
X5868557Y12164773D01*
X5891166Y12170437D01*
X5914221Y12173856D01*
X5937500Y12175000D01*
X6512500Y12175000D01*
X6535779Y12173856D01*
G37*
G04 #@! TD*
G04 #@! TO.C,R8*
G36*
X8285779Y9973856D02*
G01*
X8308834Y9970437D01*
X8331443Y9964773D01*
X8353387Y9956921D01*
X8374457Y9946956D01*
X8394448Y9934974D01*
X8413168Y9921090D01*
X8430438Y9905438D01*
X8446090Y9888168D01*
X8459974Y9869448D01*
X8471956Y9849457D01*
X8481921Y9828387D01*
X8489773Y9806443D01*
X8495437Y9783834D01*
X8498856Y9760779D01*
X8500000Y9737500D01*
X8500000Y9262500D01*
X8498856Y9239221D01*
X8495437Y9216166D01*
X8489773Y9193557D01*
X8481921Y9171613D01*
X8471956Y9150543D01*
X8459974Y9130552D01*
X8446090Y9111832D01*
X8430438Y9094562D01*
X8413168Y9078910D01*
X8394448Y9065026D01*
X8374457Y9053044D01*
X8353387Y9043079D01*
X8331443Y9035227D01*
X8308834Y9029563D01*
X8285779Y9026144D01*
X8262500Y9025000D01*
X7687500Y9025000D01*
X7664221Y9026144D01*
X7641166Y9029563D01*
X7618557Y9035227D01*
X7596613Y9043079D01*
X7575543Y9053044D01*
X7555552Y9065026D01*
X7536832Y9078910D01*
X7519562Y9094562D01*
X7503910Y9111832D01*
X7490026Y9130552D01*
X7478044Y9150543D01*
X7468079Y9171613D01*
X7460227Y9193557D01*
X7454563Y9216166D01*
X7451144Y9239221D01*
X7450000Y9262500D01*
X7450000Y9737500D01*
X7451144Y9760779D01*
X7454563Y9783834D01*
X7460227Y9806443D01*
X7468079Y9828387D01*
X7478044Y9849457D01*
X7490026Y9869448D01*
X7503910Y9888168D01*
X7519562Y9905438D01*
X7536832Y9921090D01*
X7555552Y9934974D01*
X7575543Y9946956D01*
X7596613Y9956921D01*
X7618557Y9964773D01*
X7641166Y9970437D01*
X7664221Y9973856D01*
X7687500Y9975000D01*
X8262500Y9975000D01*
X8285779Y9973856D01*
G37*
G36*
X6535779Y9973856D02*
G01*
X6558834Y9970437D01*
X6581443Y9964773D01*
X6603387Y9956921D01*
X6624457Y9946956D01*
X6644448Y9934974D01*
X6663168Y9921090D01*
X6680438Y9905438D01*
X6696090Y9888168D01*
X6709974Y9869448D01*
X6721956Y9849457D01*
X6731921Y9828387D01*
X6739773Y9806443D01*
X6745437Y9783834D01*
X6748856Y9760779D01*
X6750000Y9737500D01*
X6750000Y9262500D01*
X6748856Y9239221D01*
X6745437Y9216166D01*
X6739773Y9193557D01*
X6731921Y9171613D01*
X6721956Y9150543D01*
X6709974Y9130552D01*
X6696090Y9111832D01*
X6680438Y9094562D01*
X6663168Y9078910D01*
X6644448Y9065026D01*
X6624457Y9053044D01*
X6603387Y9043079D01*
X6581443Y9035227D01*
X6558834Y9029563D01*
X6535779Y9026144D01*
X6512500Y9025000D01*
X5937500Y9025000D01*
X5914221Y9026144D01*
X5891166Y9029563D01*
X5868557Y9035227D01*
X5846613Y9043079D01*
X5825543Y9053044D01*
X5805552Y9065026D01*
X5786832Y9078910D01*
X5769562Y9094562D01*
X5753910Y9111832D01*
X5740026Y9130552D01*
X5728044Y9150543D01*
X5718079Y9171613D01*
X5710227Y9193557D01*
X5704563Y9216166D01*
X5701144Y9239221D01*
X5700000Y9262500D01*
X5700000Y9737500D01*
X5701144Y9760779D01*
X5704563Y9783834D01*
X5710227Y9806443D01*
X5718079Y9828387D01*
X5728044Y9849457D01*
X5740026Y9869448D01*
X5753910Y9888168D01*
X5769562Y9905438D01*
X5786832Y9921090D01*
X5805552Y9934974D01*
X5825543Y9946956D01*
X5846613Y9956921D01*
X5868557Y9964773D01*
X5891166Y9970437D01*
X5914221Y9973856D01*
X5937500Y9975000D01*
X6512500Y9975000D01*
X6535779Y9973856D01*
G37*
G04 #@! TD*
G04 #@! TO.C,R9*
G36*
X18720779Y20088856D02*
G01*
X18743834Y20085437D01*
X18766443Y20079773D01*
X18788387Y20071921D01*
X18809457Y20061956D01*
X18829448Y20049974D01*
X18848168Y20036090D01*
X18865438Y20020438D01*
X18881090Y20003168D01*
X18894974Y19984448D01*
X18906956Y19964457D01*
X18916921Y19943387D01*
X18924773Y19921443D01*
X18930437Y19898834D01*
X18933856Y19875779D01*
X18935000Y19852500D01*
X18935000Y19377500D01*
X18933856Y19354221D01*
X18930437Y19331166D01*
X18924773Y19308557D01*
X18916921Y19286613D01*
X18906956Y19265543D01*
X18894974Y19245552D01*
X18881090Y19226832D01*
X18865438Y19209562D01*
X18848168Y19193910D01*
X18829448Y19180026D01*
X18809457Y19168044D01*
X18788387Y19158079D01*
X18766443Y19150227D01*
X18743834Y19144563D01*
X18720779Y19141144D01*
X18697500Y19140000D01*
X18122500Y19140000D01*
X18099221Y19141144D01*
X18076166Y19144563D01*
X18053557Y19150227D01*
X18031613Y19158079D01*
X18010543Y19168044D01*
X17990552Y19180026D01*
X17971832Y19193910D01*
X17954562Y19209562D01*
X17938910Y19226832D01*
X17925026Y19245552D01*
X17913044Y19265543D01*
X17903079Y19286613D01*
X17895227Y19308557D01*
X17889563Y19331166D01*
X17886144Y19354221D01*
X17885000Y19377500D01*
X17885000Y19852500D01*
X17886144Y19875779D01*
X17889563Y19898834D01*
X17895227Y19921443D01*
X17903079Y19943387D01*
X17913044Y19964457D01*
X17925026Y19984448D01*
X17938910Y20003168D01*
X17954562Y20020438D01*
X17971832Y20036090D01*
X17990552Y20049974D01*
X18010543Y20061956D01*
X18031613Y20071921D01*
X18053557Y20079773D01*
X18076166Y20085437D01*
X18099221Y20088856D01*
X18122500Y20090000D01*
X18697500Y20090000D01*
X18720779Y20088856D01*
G37*
G36*
X20470779Y20088856D02*
G01*
X20493834Y20085437D01*
X20516443Y20079773D01*
X20538387Y20071921D01*
X20559457Y20061956D01*
X20579448Y20049974D01*
X20598168Y20036090D01*
X20615438Y20020438D01*
X20631090Y20003168D01*
X20644974Y19984448D01*
X20656956Y19964457D01*
X20666921Y19943387D01*
X20674773Y19921443D01*
X20680437Y19898834D01*
X20683856Y19875779D01*
X20685000Y19852500D01*
X20685000Y19377500D01*
X20683856Y19354221D01*
X20680437Y19331166D01*
X20674773Y19308557D01*
X20666921Y19286613D01*
X20656956Y19265543D01*
X20644974Y19245552D01*
X20631090Y19226832D01*
X20615438Y19209562D01*
X20598168Y19193910D01*
X20579448Y19180026D01*
X20559457Y19168044D01*
X20538387Y19158079D01*
X20516443Y19150227D01*
X20493834Y19144563D01*
X20470779Y19141144D01*
X20447500Y19140000D01*
X19872500Y19140000D01*
X19849221Y19141144D01*
X19826166Y19144563D01*
X19803557Y19150227D01*
X19781613Y19158079D01*
X19760543Y19168044D01*
X19740552Y19180026D01*
X19721832Y19193910D01*
X19704562Y19209562D01*
X19688910Y19226832D01*
X19675026Y19245552D01*
X19663044Y19265543D01*
X19653079Y19286613D01*
X19645227Y19308557D01*
X19639563Y19331166D01*
X19636144Y19354221D01*
X19635000Y19377500D01*
X19635000Y19852500D01*
X19636144Y19875779D01*
X19639563Y19898834D01*
X19645227Y19921443D01*
X19653079Y19943387D01*
X19663044Y19964457D01*
X19675026Y19984448D01*
X19688910Y20003168D01*
X19704562Y20020438D01*
X19721832Y20036090D01*
X19740552Y20049974D01*
X19760543Y20061956D01*
X19781613Y20071921D01*
X19803557Y20079773D01*
X19826166Y20085437D01*
X19849221Y20088856D01*
X19872500Y20090000D01*
X20447500Y20090000D01*
X20470779Y20088856D01*
G37*
G04 #@! TD*
G04 #@! TO.C,R11*
G36*
X20470779Y17793856D02*
G01*
X20493834Y17790437D01*
X20516443Y17784773D01*
X20538387Y17776921D01*
X20559457Y17766956D01*
X20579448Y17754974D01*
X20598168Y17741090D01*
X20615438Y17725438D01*
X20631090Y17708168D01*
X20644974Y17689448D01*
X20656956Y17669457D01*
X20666921Y17648387D01*
X20674773Y17626443D01*
X20680437Y17603834D01*
X20683856Y17580779D01*
X20685000Y17557500D01*
X20685000Y17082500D01*
X20683856Y17059221D01*
X20680437Y17036166D01*
X20674773Y17013557D01*
X20666921Y16991613D01*
X20656956Y16970543D01*
X20644974Y16950552D01*
X20631090Y16931832D01*
X20615438Y16914562D01*
X20598168Y16898910D01*
X20579448Y16885026D01*
X20559457Y16873044D01*
X20538387Y16863079D01*
X20516443Y16855227D01*
X20493834Y16849563D01*
X20470779Y16846144D01*
X20447500Y16845000D01*
X19872500Y16845000D01*
X19849221Y16846144D01*
X19826166Y16849563D01*
X19803557Y16855227D01*
X19781613Y16863079D01*
X19760543Y16873044D01*
X19740552Y16885026D01*
X19721832Y16898910D01*
X19704562Y16914562D01*
X19688910Y16931832D01*
X19675026Y16950552D01*
X19663044Y16970543D01*
X19653079Y16991613D01*
X19645227Y17013557D01*
X19639563Y17036166D01*
X19636144Y17059221D01*
X19635000Y17082500D01*
X19635000Y17557500D01*
X19636144Y17580779D01*
X19639563Y17603834D01*
X19645227Y17626443D01*
X19653079Y17648387D01*
X19663044Y17669457D01*
X19675026Y17689448D01*
X19688910Y17708168D01*
X19704562Y17725438D01*
X19721832Y17741090D01*
X19740552Y17754974D01*
X19760543Y17766956D01*
X19781613Y17776921D01*
X19803557Y17784773D01*
X19826166Y17790437D01*
X19849221Y17793856D01*
X19872500Y17795000D01*
X20447500Y17795000D01*
X20470779Y17793856D01*
G37*
G36*
X18720779Y17793856D02*
G01*
X18743834Y17790437D01*
X18766443Y17784773D01*
X18788387Y17776921D01*
X18809457Y17766956D01*
X18829448Y17754974D01*
X18848168Y17741090D01*
X18865438Y17725438D01*
X18881090Y17708168D01*
X18894974Y17689448D01*
X18906956Y17669457D01*
X18916921Y17648387D01*
X18924773Y17626443D01*
X18930437Y17603834D01*
X18933856Y17580779D01*
X18935000Y17557500D01*
X18935000Y17082500D01*
X18933856Y17059221D01*
X18930437Y17036166D01*
X18924773Y17013557D01*
X18916921Y16991613D01*
X18906956Y16970543D01*
X18894974Y16950552D01*
X18881090Y16931832D01*
X18865438Y16914562D01*
X18848168Y16898910D01*
X18829448Y16885026D01*
X18809457Y16873044D01*
X18788387Y16863079D01*
X18766443Y16855227D01*
X18743834Y16849563D01*
X18720779Y16846144D01*
X18697500Y16845000D01*
X18122500Y16845000D01*
X18099221Y16846144D01*
X18076166Y16849563D01*
X18053557Y16855227D01*
X18031613Y16863079D01*
X18010543Y16873044D01*
X17990552Y16885026D01*
X17971832Y16898910D01*
X17954562Y16914562D01*
X17938910Y16931832D01*
X17925026Y16950552D01*
X17913044Y16970543D01*
X17903079Y16991613D01*
X17895227Y17013557D01*
X17889563Y17036166D01*
X17886144Y17059221D01*
X17885000Y17082500D01*
X17885000Y17557500D01*
X17886144Y17580779D01*
X17889563Y17603834D01*
X17895227Y17626443D01*
X17903079Y17648387D01*
X17913044Y17669457D01*
X17925026Y17689448D01*
X17938910Y17708168D01*
X17954562Y17725438D01*
X17971832Y17741090D01*
X17990552Y17754974D01*
X18010543Y17766956D01*
X18031613Y17776921D01*
X18053557Y17784773D01*
X18076166Y17790437D01*
X18099221Y17793856D01*
X18122500Y17795000D01*
X18697500Y17795000D01*
X18720779Y17793856D01*
G37*
G04 #@! TD*
G04 #@! TO.C,R13*
G36*
X20465779Y21243856D02*
G01*
X20488834Y21240437D01*
X20511443Y21234773D01*
X20533387Y21226921D01*
X20554457Y21216956D01*
X20574448Y21204974D01*
X20593168Y21191090D01*
X20610438Y21175438D01*
X20626090Y21158168D01*
X20639974Y21139448D01*
X20651956Y21119457D01*
X20661921Y21098387D01*
X20669773Y21076443D01*
X20675437Y21053834D01*
X20678856Y21030779D01*
X20680000Y21007500D01*
X20680000Y20532500D01*
X20678856Y20509221D01*
X20675437Y20486166D01*
X20669773Y20463557D01*
X20661921Y20441613D01*
X20651956Y20420543D01*
X20639974Y20400552D01*
X20626090Y20381832D01*
X20610438Y20364562D01*
X20593168Y20348910D01*
X20574448Y20335026D01*
X20554457Y20323044D01*
X20533387Y20313079D01*
X20511443Y20305227D01*
X20488834Y20299563D01*
X20465779Y20296144D01*
X20442500Y20295000D01*
X19867500Y20295000D01*
X19844221Y20296144D01*
X19821166Y20299563D01*
X19798557Y20305227D01*
X19776613Y20313079D01*
X19755543Y20323044D01*
X19735552Y20335026D01*
X19716832Y20348910D01*
X19699562Y20364562D01*
X19683910Y20381832D01*
X19670026Y20400552D01*
X19658044Y20420543D01*
X19648079Y20441613D01*
X19640227Y20463557D01*
X19634563Y20486166D01*
X19631144Y20509221D01*
X19630000Y20532500D01*
X19630000Y21007500D01*
X19631144Y21030779D01*
X19634563Y21053834D01*
X19640227Y21076443D01*
X19648079Y21098387D01*
X19658044Y21119457D01*
X19670026Y21139448D01*
X19683910Y21158168D01*
X19699562Y21175438D01*
X19716832Y21191090D01*
X19735552Y21204974D01*
X19755543Y21216956D01*
X19776613Y21226921D01*
X19798557Y21234773D01*
X19821166Y21240437D01*
X19844221Y21243856D01*
X19867500Y21245000D01*
X20442500Y21245000D01*
X20465779Y21243856D01*
G37*
G36*
X18715779Y21243856D02*
G01*
X18738834Y21240437D01*
X18761443Y21234773D01*
X18783387Y21226921D01*
X18804457Y21216956D01*
X18824448Y21204974D01*
X18843168Y21191090D01*
X18860438Y21175438D01*
X18876090Y21158168D01*
X18889974Y21139448D01*
X18901956Y21119457D01*
X18911921Y21098387D01*
X18919773Y21076443D01*
X18925437Y21053834D01*
X18928856Y21030779D01*
X18930000Y21007500D01*
X18930000Y20532500D01*
X18928856Y20509221D01*
X18925437Y20486166D01*
X18919773Y20463557D01*
X18911921Y20441613D01*
X18901956Y20420543D01*
X18889974Y20400552D01*
X18876090Y20381832D01*
X18860438Y20364562D01*
X18843168Y20348910D01*
X18824448Y20335026D01*
X18804457Y20323044D01*
X18783387Y20313079D01*
X18761443Y20305227D01*
X18738834Y20299563D01*
X18715779Y20296144D01*
X18692500Y20295000D01*
X18117500Y20295000D01*
X18094221Y20296144D01*
X18071166Y20299563D01*
X18048557Y20305227D01*
X18026613Y20313079D01*
X18005543Y20323044D01*
X17985552Y20335026D01*
X17966832Y20348910D01*
X17949562Y20364562D01*
X17933910Y20381832D01*
X17920026Y20400552D01*
X17908044Y20420543D01*
X17898079Y20441613D01*
X17890227Y20463557D01*
X17884563Y20486166D01*
X17881144Y20509221D01*
X17880000Y20532500D01*
X17880000Y21007500D01*
X17881144Y21030779D01*
X17884563Y21053834D01*
X17890227Y21076443D01*
X17898079Y21098387D01*
X17908044Y21119457D01*
X17920026Y21139448D01*
X17933910Y21158168D01*
X17949562Y21175438D01*
X17966832Y21191090D01*
X17985552Y21204974D01*
X18005543Y21216956D01*
X18026613Y21226921D01*
X18048557Y21234773D01*
X18071166Y21240437D01*
X18094221Y21243856D01*
X18117500Y21245000D01*
X18692500Y21245000D01*
X18715779Y21243856D01*
G37*
G04 #@! TD*
G04 #@! TO.C,R14*
G36*
X17450779Y22403856D02*
G01*
X17473834Y22400437D01*
X17496443Y22394773D01*
X17518387Y22386921D01*
X17539457Y22376956D01*
X17559448Y22364974D01*
X17578168Y22351090D01*
X17595438Y22335438D01*
X17611090Y22318168D01*
X17624974Y22299448D01*
X17636956Y22279457D01*
X17646921Y22258387D01*
X17654773Y22236443D01*
X17660437Y22213834D01*
X17663856Y22190779D01*
X17665000Y22167500D01*
X17665000Y21692500D01*
X17663856Y21669221D01*
X17660437Y21646166D01*
X17654773Y21623557D01*
X17646921Y21601613D01*
X17636956Y21580543D01*
X17624974Y21560552D01*
X17611090Y21541832D01*
X17595438Y21524562D01*
X17578168Y21508910D01*
X17559448Y21495026D01*
X17539457Y21483044D01*
X17518387Y21473079D01*
X17496443Y21465227D01*
X17473834Y21459563D01*
X17450779Y21456144D01*
X17427500Y21455000D01*
X16852500Y21455000D01*
X16829221Y21456144D01*
X16806166Y21459563D01*
X16783557Y21465227D01*
X16761613Y21473079D01*
X16740543Y21483044D01*
X16720552Y21495026D01*
X16701832Y21508910D01*
X16684562Y21524562D01*
X16668910Y21541832D01*
X16655026Y21560552D01*
X16643044Y21580543D01*
X16633079Y21601613D01*
X16625227Y21623557D01*
X16619563Y21646166D01*
X16616144Y21669221D01*
X16615000Y21692500D01*
X16615000Y22167500D01*
X16616144Y22190779D01*
X16619563Y22213834D01*
X16625227Y22236443D01*
X16633079Y22258387D01*
X16643044Y22279457D01*
X16655026Y22299448D01*
X16668910Y22318168D01*
X16684562Y22335438D01*
X16701832Y22351090D01*
X16720552Y22364974D01*
X16740543Y22376956D01*
X16761613Y22386921D01*
X16783557Y22394773D01*
X16806166Y22400437D01*
X16829221Y22403856D01*
X16852500Y22405000D01*
X17427500Y22405000D01*
X17450779Y22403856D01*
G37*
G36*
X15700779Y22403856D02*
G01*
X15723834Y22400437D01*
X15746443Y22394773D01*
X15768387Y22386921D01*
X15789457Y22376956D01*
X15809448Y22364974D01*
X15828168Y22351090D01*
X15845438Y22335438D01*
X15861090Y22318168D01*
X15874974Y22299448D01*
X15886956Y22279457D01*
X15896921Y22258387D01*
X15904773Y22236443D01*
X15910437Y22213834D01*
X15913856Y22190779D01*
X15915000Y22167500D01*
X15915000Y21692500D01*
X15913856Y21669221D01*
X15910437Y21646166D01*
X15904773Y21623557D01*
X15896921Y21601613D01*
X15886956Y21580543D01*
X15874974Y21560552D01*
X15861090Y21541832D01*
X15845438Y21524562D01*
X15828168Y21508910D01*
X15809448Y21495026D01*
X15789457Y21483044D01*
X15768387Y21473079D01*
X15746443Y21465227D01*
X15723834Y21459563D01*
X15700779Y21456144D01*
X15677500Y21455000D01*
X15102500Y21455000D01*
X15079221Y21456144D01*
X15056166Y21459563D01*
X15033557Y21465227D01*
X15011613Y21473079D01*
X14990543Y21483044D01*
X14970552Y21495026D01*
X14951832Y21508910D01*
X14934562Y21524562D01*
X14918910Y21541832D01*
X14905026Y21560552D01*
X14893044Y21580543D01*
X14883079Y21601613D01*
X14875227Y21623557D01*
X14869563Y21646166D01*
X14866144Y21669221D01*
X14865000Y21692500D01*
X14865000Y22167500D01*
X14866144Y22190779D01*
X14869563Y22213834D01*
X14875227Y22236443D01*
X14883079Y22258387D01*
X14893044Y22279457D01*
X14905026Y22299448D01*
X14918910Y22318168D01*
X14934562Y22335438D01*
X14951832Y22351090D01*
X14970552Y22364974D01*
X14990543Y22376956D01*
X15011613Y22386921D01*
X15033557Y22394773D01*
X15056166Y22400437D01*
X15079221Y22403856D01*
X15102500Y22405000D01*
X15677500Y22405000D01*
X15700779Y22403856D01*
G37*
G04 #@! TD*
G04 #@! TO.C,R17*
G36*
X18705779Y22393856D02*
G01*
X18728834Y22390437D01*
X18751443Y22384773D01*
X18773387Y22376921D01*
X18794457Y22366956D01*
X18814448Y22354974D01*
X18833168Y22341090D01*
X18850438Y22325438D01*
X18866090Y22308168D01*
X18879974Y22289448D01*
X18891956Y22269457D01*
X18901921Y22248387D01*
X18909773Y22226443D01*
X18915437Y22203834D01*
X18918856Y22180779D01*
X18920000Y22157500D01*
X18920000Y21682500D01*
X18918856Y21659221D01*
X18915437Y21636166D01*
X18909773Y21613557D01*
X18901921Y21591613D01*
X18891956Y21570543D01*
X18879974Y21550552D01*
X18866090Y21531832D01*
X18850438Y21514562D01*
X18833168Y21498910D01*
X18814448Y21485026D01*
X18794457Y21473044D01*
X18773387Y21463079D01*
X18751443Y21455227D01*
X18728834Y21449563D01*
X18705779Y21446144D01*
X18682500Y21445000D01*
X18107500Y21445000D01*
X18084221Y21446144D01*
X18061166Y21449563D01*
X18038557Y21455227D01*
X18016613Y21463079D01*
X17995543Y21473044D01*
X17975552Y21485026D01*
X17956832Y21498910D01*
X17939562Y21514562D01*
X17923910Y21531832D01*
X17910026Y21550552D01*
X17898044Y21570543D01*
X17888079Y21591613D01*
X17880227Y21613557D01*
X17874563Y21636166D01*
X17871144Y21659221D01*
X17870000Y21682500D01*
X17870000Y22157500D01*
X17871144Y22180779D01*
X17874563Y22203834D01*
X17880227Y22226443D01*
X17888079Y22248387D01*
X17898044Y22269457D01*
X17910026Y22289448D01*
X17923910Y22308168D01*
X17939562Y22325438D01*
X17956832Y22341090D01*
X17975552Y22354974D01*
X17995543Y22366956D01*
X18016613Y22376921D01*
X18038557Y22384773D01*
X18061166Y22390437D01*
X18084221Y22393856D01*
X18107500Y22395000D01*
X18682500Y22395000D01*
X18705779Y22393856D01*
G37*
G36*
X20455779Y22393856D02*
G01*
X20478834Y22390437D01*
X20501443Y22384773D01*
X20523387Y22376921D01*
X20544457Y22366956D01*
X20564448Y22354974D01*
X20583168Y22341090D01*
X20600438Y22325438D01*
X20616090Y22308168D01*
X20629974Y22289448D01*
X20641956Y22269457D01*
X20651921Y22248387D01*
X20659773Y22226443D01*
X20665437Y22203834D01*
X20668856Y22180779D01*
X20670000Y22157500D01*
X20670000Y21682500D01*
X20668856Y21659221D01*
X20665437Y21636166D01*
X20659773Y21613557D01*
X20651921Y21591613D01*
X20641956Y21570543D01*
X20629974Y21550552D01*
X20616090Y21531832D01*
X20600438Y21514562D01*
X20583168Y21498910D01*
X20564448Y21485026D01*
X20544457Y21473044D01*
X20523387Y21463079D01*
X20501443Y21455227D01*
X20478834Y21449563D01*
X20455779Y21446144D01*
X20432500Y21445000D01*
X19857500Y21445000D01*
X19834221Y21446144D01*
X19811166Y21449563D01*
X19788557Y21455227D01*
X19766613Y21463079D01*
X19745543Y21473044D01*
X19725552Y21485026D01*
X19706832Y21498910D01*
X19689562Y21514562D01*
X19673910Y21531832D01*
X19660026Y21550552D01*
X19648044Y21570543D01*
X19638079Y21591613D01*
X19630227Y21613557D01*
X19624563Y21636166D01*
X19621144Y21659221D01*
X19620000Y21682500D01*
X19620000Y22157500D01*
X19621144Y22180779D01*
X19624563Y22203834D01*
X19630227Y22226443D01*
X19638079Y22248387D01*
X19648044Y22269457D01*
X19660026Y22289448D01*
X19673910Y22308168D01*
X19689562Y22325438D01*
X19706832Y22341090D01*
X19725552Y22354974D01*
X19745543Y22366956D01*
X19766613Y22376921D01*
X19788557Y22384773D01*
X19811166Y22390437D01*
X19834221Y22393856D01*
X19857500Y22395000D01*
X20432500Y22395000D01*
X20455779Y22393856D01*
G37*
G04 #@! TD*
G04 #@! TO.C,R19*
G36*
X45275779Y22008856D02*
G01*
X45298834Y22005437D01*
X45321443Y21999773D01*
X45343387Y21991921D01*
X45364457Y21981956D01*
X45384448Y21969974D01*
X45403168Y21956090D01*
X45420438Y21940438D01*
X45436090Y21923168D01*
X45449974Y21904448D01*
X45461956Y21884457D01*
X45471921Y21863387D01*
X45479773Y21841443D01*
X45485437Y21818834D01*
X45488856Y21795779D01*
X45490000Y21772500D01*
X45490000Y21297500D01*
X45488856Y21274221D01*
X45485437Y21251166D01*
X45479773Y21228557D01*
X45471921Y21206613D01*
X45461956Y21185543D01*
X45449974Y21165552D01*
X45436090Y21146832D01*
X45420438Y21129562D01*
X45403168Y21113910D01*
X45384448Y21100026D01*
X45364457Y21088044D01*
X45343387Y21078079D01*
X45321443Y21070227D01*
X45298834Y21064563D01*
X45275779Y21061144D01*
X45252500Y21060000D01*
X44677500Y21060000D01*
X44654221Y21061144D01*
X44631166Y21064563D01*
X44608557Y21070227D01*
X44586613Y21078079D01*
X44565543Y21088044D01*
X44545552Y21100026D01*
X44526832Y21113910D01*
X44509562Y21129562D01*
X44493910Y21146832D01*
X44480026Y21165552D01*
X44468044Y21185543D01*
X44458079Y21206613D01*
X44450227Y21228557D01*
X44444563Y21251166D01*
X44441144Y21274221D01*
X44440000Y21297500D01*
X44440000Y21772500D01*
X44441144Y21795779D01*
X44444563Y21818834D01*
X44450227Y21841443D01*
X44458079Y21863387D01*
X44468044Y21884457D01*
X44480026Y21904448D01*
X44493910Y21923168D01*
X44509562Y21940438D01*
X44526832Y21956090D01*
X44545552Y21969974D01*
X44565543Y21981956D01*
X44586613Y21991921D01*
X44608557Y21999773D01*
X44631166Y22005437D01*
X44654221Y22008856D01*
X44677500Y22010000D01*
X45252500Y22010000D01*
X45275779Y22008856D01*
G37*
G36*
X43525779Y22008856D02*
G01*
X43548834Y22005437D01*
X43571443Y21999773D01*
X43593387Y21991921D01*
X43614457Y21981956D01*
X43634448Y21969974D01*
X43653168Y21956090D01*
X43670438Y21940438D01*
X43686090Y21923168D01*
X43699974Y21904448D01*
X43711956Y21884457D01*
X43721921Y21863387D01*
X43729773Y21841443D01*
X43735437Y21818834D01*
X43738856Y21795779D01*
X43740000Y21772500D01*
X43740000Y21297500D01*
X43738856Y21274221D01*
X43735437Y21251166D01*
X43729773Y21228557D01*
X43721921Y21206613D01*
X43711956Y21185543D01*
X43699974Y21165552D01*
X43686090Y21146832D01*
X43670438Y21129562D01*
X43653168Y21113910D01*
X43634448Y21100026D01*
X43614457Y21088044D01*
X43593387Y21078079D01*
X43571443Y21070227D01*
X43548834Y21064563D01*
X43525779Y21061144D01*
X43502500Y21060000D01*
X42927500Y21060000D01*
X42904221Y21061144D01*
X42881166Y21064563D01*
X42858557Y21070227D01*
X42836613Y21078079D01*
X42815543Y21088044D01*
X42795552Y21100026D01*
X42776832Y21113910D01*
X42759562Y21129562D01*
X42743910Y21146832D01*
X42730026Y21165552D01*
X42718044Y21185543D01*
X42708079Y21206613D01*
X42700227Y21228557D01*
X42694563Y21251166D01*
X42691144Y21274221D01*
X42690000Y21297500D01*
X42690000Y21772500D01*
X42691144Y21795779D01*
X42694563Y21818834D01*
X42700227Y21841443D01*
X42708079Y21863387D01*
X42718044Y21884457D01*
X42730026Y21904448D01*
X42743910Y21923168D01*
X42759562Y21940438D01*
X42776832Y21956090D01*
X42795552Y21969974D01*
X42815543Y21981956D01*
X42836613Y21991921D01*
X42858557Y21999773D01*
X42881166Y22005437D01*
X42904221Y22008856D01*
X42927500Y22010000D01*
X43502500Y22010000D01*
X43525779Y22008856D01*
G37*
G04 #@! TD*
G04 #@! TO.C,R21*
G36*
X46410779Y18398856D02*
G01*
X46433834Y18395437D01*
X46456443Y18389773D01*
X46478387Y18381921D01*
X46499457Y18371956D01*
X46519448Y18359974D01*
X46538168Y18346090D01*
X46555438Y18330438D01*
X46571090Y18313168D01*
X46584974Y18294448D01*
X46596956Y18274457D01*
X46606921Y18253387D01*
X46614773Y18231443D01*
X46620437Y18208834D01*
X46623856Y18185779D01*
X46625000Y18162500D01*
X46625000Y17587500D01*
X46623856Y17564221D01*
X46620437Y17541166D01*
X46614773Y17518557D01*
X46606921Y17496613D01*
X46596956Y17475543D01*
X46584974Y17455552D01*
X46571090Y17436832D01*
X46555438Y17419562D01*
X46538168Y17403910D01*
X46519448Y17390026D01*
X46499457Y17378044D01*
X46478387Y17368079D01*
X46456443Y17360227D01*
X46433834Y17354563D01*
X46410779Y17351144D01*
X46387500Y17350000D01*
X45912500Y17350000D01*
X45889221Y17351144D01*
X45866166Y17354563D01*
X45843557Y17360227D01*
X45821613Y17368079D01*
X45800543Y17378044D01*
X45780552Y17390026D01*
X45761832Y17403910D01*
X45744562Y17419562D01*
X45728910Y17436832D01*
X45715026Y17455552D01*
X45703044Y17475543D01*
X45693079Y17496613D01*
X45685227Y17518557D01*
X45679563Y17541166D01*
X45676144Y17564221D01*
X45675000Y17587500D01*
X45675000Y18162500D01*
X45676144Y18185779D01*
X45679563Y18208834D01*
X45685227Y18231443D01*
X45693079Y18253387D01*
X45703044Y18274457D01*
X45715026Y18294448D01*
X45728910Y18313168D01*
X45744562Y18330438D01*
X45761832Y18346090D01*
X45780552Y18359974D01*
X45800543Y18371956D01*
X45821613Y18381921D01*
X45843557Y18389773D01*
X45866166Y18395437D01*
X45889221Y18398856D01*
X45912500Y18400000D01*
X46387500Y18400000D01*
X46410779Y18398856D01*
G37*
G36*
X46410779Y20148856D02*
G01*
X46433834Y20145437D01*
X46456443Y20139773D01*
X46478387Y20131921D01*
X46499457Y20121956D01*
X46519448Y20109974D01*
X46538168Y20096090D01*
X46555438Y20080438D01*
X46571090Y20063168D01*
X46584974Y20044448D01*
X46596956Y20024457D01*
X46606921Y20003387D01*
X46614773Y19981443D01*
X46620437Y19958834D01*
X46623856Y19935779D01*
X46625000Y19912500D01*
X46625000Y19337500D01*
X46623856Y19314221D01*
X46620437Y19291166D01*
X46614773Y19268557D01*
X46606921Y19246613D01*
X46596956Y19225543D01*
X46584974Y19205552D01*
X46571090Y19186832D01*
X46555438Y19169562D01*
X46538168Y19153910D01*
X46519448Y19140026D01*
X46499457Y19128044D01*
X46478387Y19118079D01*
X46456443Y19110227D01*
X46433834Y19104563D01*
X46410779Y19101144D01*
X46387500Y19100000D01*
X45912500Y19100000D01*
X45889221Y19101144D01*
X45866166Y19104563D01*
X45843557Y19110227D01*
X45821613Y19118079D01*
X45800543Y19128044D01*
X45780552Y19140026D01*
X45761832Y19153910D01*
X45744562Y19169562D01*
X45728910Y19186832D01*
X45715026Y19205552D01*
X45703044Y19225543D01*
X45693079Y19246613D01*
X45685227Y19268557D01*
X45679563Y19291166D01*
X45676144Y19314221D01*
X45675000Y19337500D01*
X45675000Y19912500D01*
X45676144Y19935779D01*
X45679563Y19958834D01*
X45685227Y19981443D01*
X45693079Y20003387D01*
X45703044Y20024457D01*
X45715026Y20044448D01*
X45728910Y20063168D01*
X45744562Y20080438D01*
X45761832Y20096090D01*
X45780552Y20109974D01*
X45800543Y20121956D01*
X45821613Y20131921D01*
X45843557Y20139773D01*
X45866166Y20145437D01*
X45889221Y20148856D01*
X45912500Y20150000D01*
X46387500Y20150000D01*
X46410779Y20148856D01*
G37*
G04 #@! TD*
G04 #@! TO.C,R23*
G36*
X41750779Y19968856D02*
G01*
X41773834Y19965437D01*
X41796443Y19959773D01*
X41818387Y19951921D01*
X41839457Y19941956D01*
X41859448Y19929974D01*
X41878168Y19916090D01*
X41895438Y19900438D01*
X41911090Y19883168D01*
X41924974Y19864448D01*
X41936956Y19844457D01*
X41946921Y19823387D01*
X41954773Y19801443D01*
X41960437Y19778834D01*
X41963856Y19755779D01*
X41965000Y19732500D01*
X41965000Y19257500D01*
X41963856Y19234221D01*
X41960437Y19211166D01*
X41954773Y19188557D01*
X41946921Y19166613D01*
X41936956Y19145543D01*
X41924974Y19125552D01*
X41911090Y19106832D01*
X41895438Y19089562D01*
X41878168Y19073910D01*
X41859448Y19060026D01*
X41839457Y19048044D01*
X41818387Y19038079D01*
X41796443Y19030227D01*
X41773834Y19024563D01*
X41750779Y19021144D01*
X41727500Y19020000D01*
X41152500Y19020000D01*
X41129221Y19021144D01*
X41106166Y19024563D01*
X41083557Y19030227D01*
X41061613Y19038079D01*
X41040543Y19048044D01*
X41020552Y19060026D01*
X41001832Y19073910D01*
X40984562Y19089562D01*
X40968910Y19106832D01*
X40955026Y19125552D01*
X40943044Y19145543D01*
X40933079Y19166613D01*
X40925227Y19188557D01*
X40919563Y19211166D01*
X40916144Y19234221D01*
X40915000Y19257500D01*
X40915000Y19732500D01*
X40916144Y19755779D01*
X40919563Y19778834D01*
X40925227Y19801443D01*
X40933079Y19823387D01*
X40943044Y19844457D01*
X40955026Y19864448D01*
X40968910Y19883168D01*
X40984562Y19900438D01*
X41001832Y19916090D01*
X41020552Y19929974D01*
X41040543Y19941956D01*
X41061613Y19951921D01*
X41083557Y19959773D01*
X41106166Y19965437D01*
X41129221Y19968856D01*
X41152500Y19970000D01*
X41727500Y19970000D01*
X41750779Y19968856D01*
G37*
G36*
X40000779Y19968856D02*
G01*
X40023834Y19965437D01*
X40046443Y19959773D01*
X40068387Y19951921D01*
X40089457Y19941956D01*
X40109448Y19929974D01*
X40128168Y19916090D01*
X40145438Y19900438D01*
X40161090Y19883168D01*
X40174974Y19864448D01*
X40186956Y19844457D01*
X40196921Y19823387D01*
X40204773Y19801443D01*
X40210437Y19778834D01*
X40213856Y19755779D01*
X40215000Y19732500D01*
X40215000Y19257500D01*
X40213856Y19234221D01*
X40210437Y19211166D01*
X40204773Y19188557D01*
X40196921Y19166613D01*
X40186956Y19145543D01*
X40174974Y19125552D01*
X40161090Y19106832D01*
X40145438Y19089562D01*
X40128168Y19073910D01*
X40109448Y19060026D01*
X40089457Y19048044D01*
X40068387Y19038079D01*
X40046443Y19030227D01*
X40023834Y19024563D01*
X40000779Y19021144D01*
X39977500Y19020000D01*
X39402500Y19020000D01*
X39379221Y19021144D01*
X39356166Y19024563D01*
X39333557Y19030227D01*
X39311613Y19038079D01*
X39290543Y19048044D01*
X39270552Y19060026D01*
X39251832Y19073910D01*
X39234562Y19089562D01*
X39218910Y19106832D01*
X39205026Y19125552D01*
X39193044Y19145543D01*
X39183079Y19166613D01*
X39175227Y19188557D01*
X39169563Y19211166D01*
X39166144Y19234221D01*
X39165000Y19257500D01*
X39165000Y19732500D01*
X39166144Y19755779D01*
X39169563Y19778834D01*
X39175227Y19801443D01*
X39183079Y19823387D01*
X39193044Y19844457D01*
X39205026Y19864448D01*
X39218910Y19883168D01*
X39234562Y19900438D01*
X39251832Y19916090D01*
X39270552Y19929974D01*
X39290543Y19941956D01*
X39311613Y19951921D01*
X39333557Y19959773D01*
X39356166Y19965437D01*
X39379221Y19968856D01*
X39402500Y19970000D01*
X39977500Y19970000D01*
X40000779Y19968856D01*
G37*
G04 #@! TD*
G04 #@! TO.C,R25*
G36*
X40000779Y18818856D02*
G01*
X40023834Y18815437D01*
X40046443Y18809773D01*
X40068387Y18801921D01*
X40089457Y18791956D01*
X40109448Y18779974D01*
X40128168Y18766090D01*
X40145438Y18750438D01*
X40161090Y18733168D01*
X40174974Y18714448D01*
X40186956Y18694457D01*
X40196921Y18673387D01*
X40204773Y18651443D01*
X40210437Y18628834D01*
X40213856Y18605779D01*
X40215000Y18582500D01*
X40215000Y18107500D01*
X40213856Y18084221D01*
X40210437Y18061166D01*
X40204773Y18038557D01*
X40196921Y18016613D01*
X40186956Y17995543D01*
X40174974Y17975552D01*
X40161090Y17956832D01*
X40145438Y17939562D01*
X40128168Y17923910D01*
X40109448Y17910026D01*
X40089457Y17898044D01*
X40068387Y17888079D01*
X40046443Y17880227D01*
X40023834Y17874563D01*
X40000779Y17871144D01*
X39977500Y17870000D01*
X39402500Y17870000D01*
X39379221Y17871144D01*
X39356166Y17874563D01*
X39333557Y17880227D01*
X39311613Y17888079D01*
X39290543Y17898044D01*
X39270552Y17910026D01*
X39251832Y17923910D01*
X39234562Y17939562D01*
X39218910Y17956832D01*
X39205026Y17975552D01*
X39193044Y17995543D01*
X39183079Y18016613D01*
X39175227Y18038557D01*
X39169563Y18061166D01*
X39166144Y18084221D01*
X39165000Y18107500D01*
X39165000Y18582500D01*
X39166144Y18605779D01*
X39169563Y18628834D01*
X39175227Y18651443D01*
X39183079Y18673387D01*
X39193044Y18694457D01*
X39205026Y18714448D01*
X39218910Y18733168D01*
X39234562Y18750438D01*
X39251832Y18766090D01*
X39270552Y18779974D01*
X39290543Y18791956D01*
X39311613Y18801921D01*
X39333557Y18809773D01*
X39356166Y18815437D01*
X39379221Y18818856D01*
X39402500Y18820000D01*
X39977500Y18820000D01*
X40000779Y18818856D01*
G37*
G36*
X41750779Y18818856D02*
G01*
X41773834Y18815437D01*
X41796443Y18809773D01*
X41818387Y18801921D01*
X41839457Y18791956D01*
X41859448Y18779974D01*
X41878168Y18766090D01*
X41895438Y18750438D01*
X41911090Y18733168D01*
X41924974Y18714448D01*
X41936956Y18694457D01*
X41946921Y18673387D01*
X41954773Y18651443D01*
X41960437Y18628834D01*
X41963856Y18605779D01*
X41965000Y18582500D01*
X41965000Y18107500D01*
X41963856Y18084221D01*
X41960437Y18061166D01*
X41954773Y18038557D01*
X41946921Y18016613D01*
X41936956Y17995543D01*
X41924974Y17975552D01*
X41911090Y17956832D01*
X41895438Y17939562D01*
X41878168Y17923910D01*
X41859448Y17910026D01*
X41839457Y17898044D01*
X41818387Y17888079D01*
X41796443Y17880227D01*
X41773834Y17874563D01*
X41750779Y17871144D01*
X41727500Y17870000D01*
X41152500Y17870000D01*
X41129221Y17871144D01*
X41106166Y17874563D01*
X41083557Y17880227D01*
X41061613Y17888079D01*
X41040543Y17898044D01*
X41020552Y17910026D01*
X41001832Y17923910D01*
X40984562Y17939562D01*
X40968910Y17956832D01*
X40955026Y17975552D01*
X40943044Y17995543D01*
X40933079Y18016613D01*
X40925227Y18038557D01*
X40919563Y18061166D01*
X40916144Y18084221D01*
X40915000Y18107500D01*
X40915000Y18582500D01*
X40916144Y18605779D01*
X40919563Y18628834D01*
X40925227Y18651443D01*
X40933079Y18673387D01*
X40943044Y18694457D01*
X40955026Y18714448D01*
X40968910Y18733168D01*
X40984562Y18750438D01*
X41001832Y18766090D01*
X41020552Y18779974D01*
X41040543Y18791956D01*
X41061613Y18801921D01*
X41083557Y18809773D01*
X41106166Y18815437D01*
X41129221Y18818856D01*
X41152500Y18820000D01*
X41727500Y18820000D01*
X41750779Y18818856D01*
G37*
G04 #@! TD*
G04 #@! TO.C,R27*
G36*
X40000779Y21138856D02*
G01*
X40023834Y21135437D01*
X40046443Y21129773D01*
X40068387Y21121921D01*
X40089457Y21111956D01*
X40109448Y21099974D01*
X40128168Y21086090D01*
X40145438Y21070438D01*
X40161090Y21053168D01*
X40174974Y21034448D01*
X40186956Y21014457D01*
X40196921Y20993387D01*
X40204773Y20971443D01*
X40210437Y20948834D01*
X40213856Y20925779D01*
X40215000Y20902500D01*
X40215000Y20427500D01*
X40213856Y20404221D01*
X40210437Y20381166D01*
X40204773Y20358557D01*
X40196921Y20336613D01*
X40186956Y20315543D01*
X40174974Y20295552D01*
X40161090Y20276832D01*
X40145438Y20259562D01*
X40128168Y20243910D01*
X40109448Y20230026D01*
X40089457Y20218044D01*
X40068387Y20208079D01*
X40046443Y20200227D01*
X40023834Y20194563D01*
X40000779Y20191144D01*
X39977500Y20190000D01*
X39402500Y20190000D01*
X39379221Y20191144D01*
X39356166Y20194563D01*
X39333557Y20200227D01*
X39311613Y20208079D01*
X39290543Y20218044D01*
X39270552Y20230026D01*
X39251832Y20243910D01*
X39234562Y20259562D01*
X39218910Y20276832D01*
X39205026Y20295552D01*
X39193044Y20315543D01*
X39183079Y20336613D01*
X39175227Y20358557D01*
X39169563Y20381166D01*
X39166144Y20404221D01*
X39165000Y20427500D01*
X39165000Y20902500D01*
X39166144Y20925779D01*
X39169563Y20948834D01*
X39175227Y20971443D01*
X39183079Y20993387D01*
X39193044Y21014457D01*
X39205026Y21034448D01*
X39218910Y21053168D01*
X39234562Y21070438D01*
X39251832Y21086090D01*
X39270552Y21099974D01*
X39290543Y21111956D01*
X39311613Y21121921D01*
X39333557Y21129773D01*
X39356166Y21135437D01*
X39379221Y21138856D01*
X39402500Y21140000D01*
X39977500Y21140000D01*
X40000779Y21138856D01*
G37*
G36*
X41750779Y21138856D02*
G01*
X41773834Y21135437D01*
X41796443Y21129773D01*
X41818387Y21121921D01*
X41839457Y21111956D01*
X41859448Y21099974D01*
X41878168Y21086090D01*
X41895438Y21070438D01*
X41911090Y21053168D01*
X41924974Y21034448D01*
X41936956Y21014457D01*
X41946921Y20993387D01*
X41954773Y20971443D01*
X41960437Y20948834D01*
X41963856Y20925779D01*
X41965000Y20902500D01*
X41965000Y20427500D01*
X41963856Y20404221D01*
X41960437Y20381166D01*
X41954773Y20358557D01*
X41946921Y20336613D01*
X41936956Y20315543D01*
X41924974Y20295552D01*
X41911090Y20276832D01*
X41895438Y20259562D01*
X41878168Y20243910D01*
X41859448Y20230026D01*
X41839457Y20218044D01*
X41818387Y20208079D01*
X41796443Y20200227D01*
X41773834Y20194563D01*
X41750779Y20191144D01*
X41727500Y20190000D01*
X41152500Y20190000D01*
X41129221Y20191144D01*
X41106166Y20194563D01*
X41083557Y20200227D01*
X41061613Y20208079D01*
X41040543Y20218044D01*
X41020552Y20230026D01*
X41001832Y20243910D01*
X40984562Y20259562D01*
X40968910Y20276832D01*
X40955026Y20295552D01*
X40943044Y20315543D01*
X40933079Y20336613D01*
X40925227Y20358557D01*
X40919563Y20381166D01*
X40916144Y20404221D01*
X40915000Y20427500D01*
X40915000Y20902500D01*
X40916144Y20925779D01*
X40919563Y20948834D01*
X40925227Y20971443D01*
X40933079Y20993387D01*
X40943044Y21014457D01*
X40955026Y21034448D01*
X40968910Y21053168D01*
X40984562Y21070438D01*
X41001832Y21086090D01*
X41020552Y21099974D01*
X41040543Y21111956D01*
X41061613Y21121921D01*
X41083557Y21129773D01*
X41106166Y21135437D01*
X41129221Y21138856D01*
X41152500Y21140000D01*
X41727500Y21140000D01*
X41750779Y21138856D01*
G37*
G04 #@! TD*
G04 #@! TO.C,R28*
G36*
X36480779Y22278856D02*
G01*
X36503834Y22275437D01*
X36526443Y22269773D01*
X36548387Y22261921D01*
X36569457Y22251956D01*
X36589448Y22239974D01*
X36608168Y22226090D01*
X36625438Y22210438D01*
X36641090Y22193168D01*
X36654974Y22174448D01*
X36666956Y22154457D01*
X36676921Y22133387D01*
X36684773Y22111443D01*
X36690437Y22088834D01*
X36693856Y22065779D01*
X36695000Y22042500D01*
X36695000Y21567500D01*
X36693856Y21544221D01*
X36690437Y21521166D01*
X36684773Y21498557D01*
X36676921Y21476613D01*
X36666956Y21455543D01*
X36654974Y21435552D01*
X36641090Y21416832D01*
X36625438Y21399562D01*
X36608168Y21383910D01*
X36589448Y21370026D01*
X36569457Y21358044D01*
X36548387Y21348079D01*
X36526443Y21340227D01*
X36503834Y21334563D01*
X36480779Y21331144D01*
X36457500Y21330000D01*
X35882500Y21330000D01*
X35859221Y21331144D01*
X35836166Y21334563D01*
X35813557Y21340227D01*
X35791613Y21348079D01*
X35770543Y21358044D01*
X35750552Y21370026D01*
X35731832Y21383910D01*
X35714562Y21399562D01*
X35698910Y21416832D01*
X35685026Y21435552D01*
X35673044Y21455543D01*
X35663079Y21476613D01*
X35655227Y21498557D01*
X35649563Y21521166D01*
X35646144Y21544221D01*
X35645000Y21567500D01*
X35645000Y22042500D01*
X35646144Y22065779D01*
X35649563Y22088834D01*
X35655227Y22111443D01*
X35663079Y22133387D01*
X35673044Y22154457D01*
X35685026Y22174448D01*
X35698910Y22193168D01*
X35714562Y22210438D01*
X35731832Y22226090D01*
X35750552Y22239974D01*
X35770543Y22251956D01*
X35791613Y22261921D01*
X35813557Y22269773D01*
X35836166Y22275437D01*
X35859221Y22278856D01*
X35882500Y22280000D01*
X36457500Y22280000D01*
X36480779Y22278856D01*
G37*
G36*
X38230779Y22278856D02*
G01*
X38253834Y22275437D01*
X38276443Y22269773D01*
X38298387Y22261921D01*
X38319457Y22251956D01*
X38339448Y22239974D01*
X38358168Y22226090D01*
X38375438Y22210438D01*
X38391090Y22193168D01*
X38404974Y22174448D01*
X38416956Y22154457D01*
X38426921Y22133387D01*
X38434773Y22111443D01*
X38440437Y22088834D01*
X38443856Y22065779D01*
X38445000Y22042500D01*
X38445000Y21567500D01*
X38443856Y21544221D01*
X38440437Y21521166D01*
X38434773Y21498557D01*
X38426921Y21476613D01*
X38416956Y21455543D01*
X38404974Y21435552D01*
X38391090Y21416832D01*
X38375438Y21399562D01*
X38358168Y21383910D01*
X38339448Y21370026D01*
X38319457Y21358044D01*
X38298387Y21348079D01*
X38276443Y21340227D01*
X38253834Y21334563D01*
X38230779Y21331144D01*
X38207500Y21330000D01*
X37632500Y21330000D01*
X37609221Y21331144D01*
X37586166Y21334563D01*
X37563557Y21340227D01*
X37541613Y21348079D01*
X37520543Y21358044D01*
X37500552Y21370026D01*
X37481832Y21383910D01*
X37464562Y21399562D01*
X37448910Y21416832D01*
X37435026Y21435552D01*
X37423044Y21455543D01*
X37413079Y21476613D01*
X37405227Y21498557D01*
X37399563Y21521166D01*
X37396144Y21544221D01*
X37395000Y21567500D01*
X37395000Y22042500D01*
X37396144Y22065779D01*
X37399563Y22088834D01*
X37405227Y22111443D01*
X37413079Y22133387D01*
X37423044Y22154457D01*
X37435026Y22174448D01*
X37448910Y22193168D01*
X37464562Y22210438D01*
X37481832Y22226090D01*
X37500552Y22239974D01*
X37520543Y22251956D01*
X37541613Y22261921D01*
X37563557Y22269773D01*
X37586166Y22275437D01*
X37609221Y22278856D01*
X37632500Y22280000D01*
X38207500Y22280000D01*
X38230779Y22278856D01*
G37*
G04 #@! TD*
G04 #@! TO.C,R32*
G36*
X40000779Y22288856D02*
G01*
X40023834Y22285437D01*
X40046443Y22279773D01*
X40068387Y22271921D01*
X40089457Y22261956D01*
X40109448Y22249974D01*
X40128168Y22236090D01*
X40145438Y22220438D01*
X40161090Y22203168D01*
X40174974Y22184448D01*
X40186956Y22164457D01*
X40196921Y22143387D01*
X40204773Y22121443D01*
X40210437Y22098834D01*
X40213856Y22075779D01*
X40215000Y22052500D01*
X40215000Y21577500D01*
X40213856Y21554221D01*
X40210437Y21531166D01*
X40204773Y21508557D01*
X40196921Y21486613D01*
X40186956Y21465543D01*
X40174974Y21445552D01*
X40161090Y21426832D01*
X40145438Y21409562D01*
X40128168Y21393910D01*
X40109448Y21380026D01*
X40089457Y21368044D01*
X40068387Y21358079D01*
X40046443Y21350227D01*
X40023834Y21344563D01*
X40000779Y21341144D01*
X39977500Y21340000D01*
X39402500Y21340000D01*
X39379221Y21341144D01*
X39356166Y21344563D01*
X39333557Y21350227D01*
X39311613Y21358079D01*
X39290543Y21368044D01*
X39270552Y21380026D01*
X39251832Y21393910D01*
X39234562Y21409562D01*
X39218910Y21426832D01*
X39205026Y21445552D01*
X39193044Y21465543D01*
X39183079Y21486613D01*
X39175227Y21508557D01*
X39169563Y21531166D01*
X39166144Y21554221D01*
X39165000Y21577500D01*
X39165000Y22052500D01*
X39166144Y22075779D01*
X39169563Y22098834D01*
X39175227Y22121443D01*
X39183079Y22143387D01*
X39193044Y22164457D01*
X39205026Y22184448D01*
X39218910Y22203168D01*
X39234562Y22220438D01*
X39251832Y22236090D01*
X39270552Y22249974D01*
X39290543Y22261956D01*
X39311613Y22271921D01*
X39333557Y22279773D01*
X39356166Y22285437D01*
X39379221Y22288856D01*
X39402500Y22290000D01*
X39977500Y22290000D01*
X40000779Y22288856D01*
G37*
G36*
X41750779Y22288856D02*
G01*
X41773834Y22285437D01*
X41796443Y22279773D01*
X41818387Y22271921D01*
X41839457Y22261956D01*
X41859448Y22249974D01*
X41878168Y22236090D01*
X41895438Y22220438D01*
X41911090Y22203168D01*
X41924974Y22184448D01*
X41936956Y22164457D01*
X41946921Y22143387D01*
X41954773Y22121443D01*
X41960437Y22098834D01*
X41963856Y22075779D01*
X41965000Y22052500D01*
X41965000Y21577500D01*
X41963856Y21554221D01*
X41960437Y21531166D01*
X41954773Y21508557D01*
X41946921Y21486613D01*
X41936956Y21465543D01*
X41924974Y21445552D01*
X41911090Y21426832D01*
X41895438Y21409562D01*
X41878168Y21393910D01*
X41859448Y21380026D01*
X41839457Y21368044D01*
X41818387Y21358079D01*
X41796443Y21350227D01*
X41773834Y21344563D01*
X41750779Y21341144D01*
X41727500Y21340000D01*
X41152500Y21340000D01*
X41129221Y21341144D01*
X41106166Y21344563D01*
X41083557Y21350227D01*
X41061613Y21358079D01*
X41040543Y21368044D01*
X41020552Y21380026D01*
X41001832Y21393910D01*
X40984562Y21409562D01*
X40968910Y21426832D01*
X40955026Y21445552D01*
X40943044Y21465543D01*
X40933079Y21486613D01*
X40925227Y21508557D01*
X40919563Y21531166D01*
X40916144Y21554221D01*
X40915000Y21577500D01*
X40915000Y22052500D01*
X40916144Y22075779D01*
X40919563Y22098834D01*
X40925227Y22121443D01*
X40933079Y22143387D01*
X40943044Y22164457D01*
X40955026Y22184448D01*
X40968910Y22203168D01*
X40984562Y22220438D01*
X41001832Y22236090D01*
X41020552Y22249974D01*
X41040543Y22261956D01*
X41061613Y22271921D01*
X41083557Y22279773D01*
X41106166Y22285437D01*
X41129221Y22288856D01*
X41152500Y22290000D01*
X41727500Y22290000D01*
X41750779Y22288856D01*
G37*
G04 #@! TD*
G04 #@! TO.C,R33*
G36*
X38235779Y23438856D02*
G01*
X38258834Y23435437D01*
X38281443Y23429773D01*
X38303387Y23421921D01*
X38324457Y23411956D01*
X38344448Y23399974D01*
X38363168Y23386090D01*
X38380438Y23370438D01*
X38396090Y23353168D01*
X38409974Y23334448D01*
X38421956Y23314457D01*
X38431921Y23293387D01*
X38439773Y23271443D01*
X38445437Y23248834D01*
X38448856Y23225779D01*
X38450000Y23202500D01*
X38450000Y22727500D01*
X38448856Y22704221D01*
X38445437Y22681166D01*
X38439773Y22658557D01*
X38431921Y22636613D01*
X38421956Y22615543D01*
X38409974Y22595552D01*
X38396090Y22576832D01*
X38380438Y22559562D01*
X38363168Y22543910D01*
X38344448Y22530026D01*
X38324457Y22518044D01*
X38303387Y22508079D01*
X38281443Y22500227D01*
X38258834Y22494563D01*
X38235779Y22491144D01*
X38212500Y22490000D01*
X37637500Y22490000D01*
X37614221Y22491144D01*
X37591166Y22494563D01*
X37568557Y22500227D01*
X37546613Y22508079D01*
X37525543Y22518044D01*
X37505552Y22530026D01*
X37486832Y22543910D01*
X37469562Y22559562D01*
X37453910Y22576832D01*
X37440026Y22595552D01*
X37428044Y22615543D01*
X37418079Y22636613D01*
X37410227Y22658557D01*
X37404563Y22681166D01*
X37401144Y22704221D01*
X37400000Y22727500D01*
X37400000Y23202500D01*
X37401144Y23225779D01*
X37404563Y23248834D01*
X37410227Y23271443D01*
X37418079Y23293387D01*
X37428044Y23314457D01*
X37440026Y23334448D01*
X37453910Y23353168D01*
X37469562Y23370438D01*
X37486832Y23386090D01*
X37505552Y23399974D01*
X37525543Y23411956D01*
X37546613Y23421921D01*
X37568557Y23429773D01*
X37591166Y23435437D01*
X37614221Y23438856D01*
X37637500Y23440000D01*
X38212500Y23440000D01*
X38235779Y23438856D01*
G37*
G36*
X39985779Y23438856D02*
G01*
X40008834Y23435437D01*
X40031443Y23429773D01*
X40053387Y23421921D01*
X40074457Y23411956D01*
X40094448Y23399974D01*
X40113168Y23386090D01*
X40130438Y23370438D01*
X40146090Y23353168D01*
X40159974Y23334448D01*
X40171956Y23314457D01*
X40181921Y23293387D01*
X40189773Y23271443D01*
X40195437Y23248834D01*
X40198856Y23225779D01*
X40200000Y23202500D01*
X40200000Y22727500D01*
X40198856Y22704221D01*
X40195437Y22681166D01*
X40189773Y22658557D01*
X40181921Y22636613D01*
X40171956Y22615543D01*
X40159974Y22595552D01*
X40146090Y22576832D01*
X40130438Y22559562D01*
X40113168Y22543910D01*
X40094448Y22530026D01*
X40074457Y22518044D01*
X40053387Y22508079D01*
X40031443Y22500227D01*
X40008834Y22494563D01*
X39985779Y22491144D01*
X39962500Y22490000D01*
X39387500Y22490000D01*
X39364221Y22491144D01*
X39341166Y22494563D01*
X39318557Y22500227D01*
X39296613Y22508079D01*
X39275543Y22518044D01*
X39255552Y22530026D01*
X39236832Y22543910D01*
X39219562Y22559562D01*
X39203910Y22576832D01*
X39190026Y22595552D01*
X39178044Y22615543D01*
X39168079Y22636613D01*
X39160227Y22658557D01*
X39154563Y22681166D01*
X39151144Y22704221D01*
X39150000Y22727500D01*
X39150000Y23202500D01*
X39151144Y23225779D01*
X39154563Y23248834D01*
X39160227Y23271443D01*
X39168079Y23293387D01*
X39178044Y23314457D01*
X39190026Y23334448D01*
X39203910Y23353168D01*
X39219562Y23370438D01*
X39236832Y23386090D01*
X39255552Y23399974D01*
X39275543Y23411956D01*
X39296613Y23421921D01*
X39318557Y23429773D01*
X39341166Y23435437D01*
X39364221Y23438856D01*
X39387500Y23440000D01*
X39962500Y23440000D01*
X39985779Y23438856D01*
G37*
G04 #@! TD*
G04 #@! TO.C,C7*
G36*
X25160779Y16798856D02*
G01*
X25183834Y16795437D01*
X25206443Y16789773D01*
X25228387Y16781921D01*
X25249457Y16771956D01*
X25269448Y16759974D01*
X25288168Y16746090D01*
X25305438Y16730438D01*
X25321090Y16713168D01*
X25334974Y16694448D01*
X25346956Y16674457D01*
X25356921Y16653387D01*
X25364773Y16631443D01*
X25370437Y16608834D01*
X25373856Y16585779D01*
X25375000Y16562500D01*
X25375000Y15987500D01*
X25373856Y15964221D01*
X25370437Y15941166D01*
X25364773Y15918557D01*
X25356921Y15896613D01*
X25346956Y15875543D01*
X25334974Y15855552D01*
X25321090Y15836832D01*
X25305438Y15819562D01*
X25288168Y15803910D01*
X25269448Y15790026D01*
X25249457Y15778044D01*
X25228387Y15768079D01*
X25206443Y15760227D01*
X25183834Y15754563D01*
X25160779Y15751144D01*
X25137500Y15750000D01*
X24662500Y15750000D01*
X24639221Y15751144D01*
X24616166Y15754563D01*
X24593557Y15760227D01*
X24571613Y15768079D01*
X24550543Y15778044D01*
X24530552Y15790026D01*
X24511832Y15803910D01*
X24494562Y15819562D01*
X24478910Y15836832D01*
X24465026Y15855552D01*
X24453044Y15875543D01*
X24443079Y15896613D01*
X24435227Y15918557D01*
X24429563Y15941166D01*
X24426144Y15964221D01*
X24425000Y15987500D01*
X24425000Y16562500D01*
X24426144Y16585779D01*
X24429563Y16608834D01*
X24435227Y16631443D01*
X24443079Y16653387D01*
X24453044Y16674457D01*
X24465026Y16694448D01*
X24478910Y16713168D01*
X24494562Y16730438D01*
X24511832Y16746090D01*
X24530552Y16759974D01*
X24550543Y16771956D01*
X24571613Y16781921D01*
X24593557Y16789773D01*
X24616166Y16795437D01*
X24639221Y16798856D01*
X24662500Y16800000D01*
X25137500Y16800000D01*
X25160779Y16798856D01*
G37*
G36*
X25160779Y15048856D02*
G01*
X25183834Y15045437D01*
X25206443Y15039773D01*
X25228387Y15031921D01*
X25249457Y15021956D01*
X25269448Y15009974D01*
X25288168Y14996090D01*
X25305438Y14980438D01*
X25321090Y14963168D01*
X25334974Y14944448D01*
X25346956Y14924457D01*
X25356921Y14903387D01*
X25364773Y14881443D01*
X25370437Y14858834D01*
X25373856Y14835779D01*
X25375000Y14812500D01*
X25375000Y14237500D01*
X25373856Y14214221D01*
X25370437Y14191166D01*
X25364773Y14168557D01*
X25356921Y14146613D01*
X25346956Y14125543D01*
X25334974Y14105552D01*
X25321090Y14086832D01*
X25305438Y14069562D01*
X25288168Y14053910D01*
X25269448Y14040026D01*
X25249457Y14028044D01*
X25228387Y14018079D01*
X25206443Y14010227D01*
X25183834Y14004563D01*
X25160779Y14001144D01*
X25137500Y14000000D01*
X24662500Y14000000D01*
X24639221Y14001144D01*
X24616166Y14004563D01*
X24593557Y14010227D01*
X24571613Y14018079D01*
X24550543Y14028044D01*
X24530552Y14040026D01*
X24511832Y14053910D01*
X24494562Y14069562D01*
X24478910Y14086832D01*
X24465026Y14105552D01*
X24453044Y14125543D01*
X24443079Y14146613D01*
X24435227Y14168557D01*
X24429563Y14191166D01*
X24426144Y14214221D01*
X24425000Y14237500D01*
X24425000Y14812500D01*
X24426144Y14835779D01*
X24429563Y14858834D01*
X24435227Y14881443D01*
X24443079Y14903387D01*
X24453044Y14924457D01*
X24465026Y14944448D01*
X24478910Y14963168D01*
X24494562Y14980438D01*
X24511832Y14996090D01*
X24530552Y15009974D01*
X24550543Y15021956D01*
X24571613Y15031921D01*
X24593557Y15039773D01*
X24616166Y15045437D01*
X24639221Y15048856D01*
X24662500Y15050000D01*
X25137500Y15050000D01*
X25160779Y15048856D01*
G37*
G04 #@! TD*
G04 #@! TO.C,C10*
G36*
X15700779Y18943856D02*
G01*
X15723834Y18940437D01*
X15746443Y18934773D01*
X15768387Y18926921D01*
X15789457Y18916956D01*
X15809448Y18904974D01*
X15828168Y18891090D01*
X15845438Y18875438D01*
X15861090Y18858168D01*
X15874974Y18839448D01*
X15886956Y18819457D01*
X15896921Y18798387D01*
X15904773Y18776443D01*
X15910437Y18753834D01*
X15913856Y18730779D01*
X15915000Y18707500D01*
X15915000Y18232500D01*
X15913856Y18209221D01*
X15910437Y18186166D01*
X15904773Y18163557D01*
X15896921Y18141613D01*
X15886956Y18120543D01*
X15874974Y18100552D01*
X15861090Y18081832D01*
X15845438Y18064562D01*
X15828168Y18048910D01*
X15809448Y18035026D01*
X15789457Y18023044D01*
X15768387Y18013079D01*
X15746443Y18005227D01*
X15723834Y17999563D01*
X15700779Y17996144D01*
X15677500Y17995000D01*
X15102500Y17995000D01*
X15079221Y17996144D01*
X15056166Y17999563D01*
X15033557Y18005227D01*
X15011613Y18013079D01*
X14990543Y18023044D01*
X14970552Y18035026D01*
X14951832Y18048910D01*
X14934562Y18064562D01*
X14918910Y18081832D01*
X14905026Y18100552D01*
X14893044Y18120543D01*
X14883079Y18141613D01*
X14875227Y18163557D01*
X14869563Y18186166D01*
X14866144Y18209221D01*
X14865000Y18232500D01*
X14865000Y18707500D01*
X14866144Y18730779D01*
X14869563Y18753834D01*
X14875227Y18776443D01*
X14883079Y18798387D01*
X14893044Y18819457D01*
X14905026Y18839448D01*
X14918910Y18858168D01*
X14934562Y18875438D01*
X14951832Y18891090D01*
X14970552Y18904974D01*
X14990543Y18916956D01*
X15011613Y18926921D01*
X15033557Y18934773D01*
X15056166Y18940437D01*
X15079221Y18943856D01*
X15102500Y18945000D01*
X15677500Y18945000D01*
X15700779Y18943856D01*
G37*
G36*
X17450779Y18943856D02*
G01*
X17473834Y18940437D01*
X17496443Y18934773D01*
X17518387Y18926921D01*
X17539457Y18916956D01*
X17559448Y18904974D01*
X17578168Y18891090D01*
X17595438Y18875438D01*
X17611090Y18858168D01*
X17624974Y18839448D01*
X17636956Y18819457D01*
X17646921Y18798387D01*
X17654773Y18776443D01*
X17660437Y18753834D01*
X17663856Y18730779D01*
X17665000Y18707500D01*
X17665000Y18232500D01*
X17663856Y18209221D01*
X17660437Y18186166D01*
X17654773Y18163557D01*
X17646921Y18141613D01*
X17636956Y18120543D01*
X17624974Y18100552D01*
X17611090Y18081832D01*
X17595438Y18064562D01*
X17578168Y18048910D01*
X17559448Y18035026D01*
X17539457Y18023044D01*
X17518387Y18013079D01*
X17496443Y18005227D01*
X17473834Y17999563D01*
X17450779Y17996144D01*
X17427500Y17995000D01*
X16852500Y17995000D01*
X16829221Y17996144D01*
X16806166Y17999563D01*
X16783557Y18005227D01*
X16761613Y18013079D01*
X16740543Y18023044D01*
X16720552Y18035026D01*
X16701832Y18048910D01*
X16684562Y18064562D01*
X16668910Y18081832D01*
X16655026Y18100552D01*
X16643044Y18120543D01*
X16633079Y18141613D01*
X16625227Y18163557D01*
X16619563Y18186166D01*
X16616144Y18209221D01*
X16615000Y18232500D01*
X16615000Y18707500D01*
X16616144Y18730779D01*
X16619563Y18753834D01*
X16625227Y18776443D01*
X16633079Y18798387D01*
X16643044Y18819457D01*
X16655026Y18839448D01*
X16668910Y18858168D01*
X16684562Y18875438D01*
X16701832Y18891090D01*
X16720552Y18904974D01*
X16740543Y18916956D01*
X16761613Y18926921D01*
X16783557Y18934773D01*
X16806166Y18940437D01*
X16829221Y18943856D01*
X16852500Y18945000D01*
X17427500Y18945000D01*
X17450779Y18943856D01*
G37*
G04 #@! TD*
G04 #@! TO.C,C21*
G36*
X20470779Y18938856D02*
G01*
X20493834Y18935437D01*
X20516443Y18929773D01*
X20538387Y18921921D01*
X20559457Y18911956D01*
X20579448Y18899974D01*
X20598168Y18886090D01*
X20615438Y18870438D01*
X20631090Y18853168D01*
X20644974Y18834448D01*
X20656956Y18814457D01*
X20666921Y18793387D01*
X20674773Y18771443D01*
X20680437Y18748834D01*
X20683856Y18725779D01*
X20685000Y18702500D01*
X20685000Y18227500D01*
X20683856Y18204221D01*
X20680437Y18181166D01*
X20674773Y18158557D01*
X20666921Y18136613D01*
X20656956Y18115543D01*
X20644974Y18095552D01*
X20631090Y18076832D01*
X20615438Y18059562D01*
X20598168Y18043910D01*
X20579448Y18030026D01*
X20559457Y18018044D01*
X20538387Y18008079D01*
X20516443Y18000227D01*
X20493834Y17994563D01*
X20470779Y17991144D01*
X20447500Y17990000D01*
X19872500Y17990000D01*
X19849221Y17991144D01*
X19826166Y17994563D01*
X19803557Y18000227D01*
X19781613Y18008079D01*
X19760543Y18018044D01*
X19740552Y18030026D01*
X19721832Y18043910D01*
X19704562Y18059562D01*
X19688910Y18076832D01*
X19675026Y18095552D01*
X19663044Y18115543D01*
X19653079Y18136613D01*
X19645227Y18158557D01*
X19639563Y18181166D01*
X19636144Y18204221D01*
X19635000Y18227500D01*
X19635000Y18702500D01*
X19636144Y18725779D01*
X19639563Y18748834D01*
X19645227Y18771443D01*
X19653079Y18793387D01*
X19663044Y18814457D01*
X19675026Y18834448D01*
X19688910Y18853168D01*
X19704562Y18870438D01*
X19721832Y18886090D01*
X19740552Y18899974D01*
X19760543Y18911956D01*
X19781613Y18921921D01*
X19803557Y18929773D01*
X19826166Y18935437D01*
X19849221Y18938856D01*
X19872500Y18940000D01*
X20447500Y18940000D01*
X20470779Y18938856D01*
G37*
G36*
X18720779Y18938856D02*
G01*
X18743834Y18935437D01*
X18766443Y18929773D01*
X18788387Y18921921D01*
X18809457Y18911956D01*
X18829448Y18899974D01*
X18848168Y18886090D01*
X18865438Y18870438D01*
X18881090Y18853168D01*
X18894974Y18834448D01*
X18906956Y18814457D01*
X18916921Y18793387D01*
X18924773Y18771443D01*
X18930437Y18748834D01*
X18933856Y18725779D01*
X18935000Y18702500D01*
X18935000Y18227500D01*
X18933856Y18204221D01*
X18930437Y18181166D01*
X18924773Y18158557D01*
X18916921Y18136613D01*
X18906956Y18115543D01*
X18894974Y18095552D01*
X18881090Y18076832D01*
X18865438Y18059562D01*
X18848168Y18043910D01*
X18829448Y18030026D01*
X18809457Y18018044D01*
X18788387Y18008079D01*
X18766443Y18000227D01*
X18743834Y17994563D01*
X18720779Y17991144D01*
X18697500Y17990000D01*
X18122500Y17990000D01*
X18099221Y17991144D01*
X18076166Y17994563D01*
X18053557Y18000227D01*
X18031613Y18008079D01*
X18010543Y18018044D01*
X17990552Y18030026D01*
X17971832Y18043910D01*
X17954562Y18059562D01*
X17938910Y18076832D01*
X17925026Y18095552D01*
X17913044Y18115543D01*
X17903079Y18136613D01*
X17895227Y18158557D01*
X17889563Y18181166D01*
X17886144Y18204221D01*
X17885000Y18227500D01*
X17885000Y18702500D01*
X17886144Y18725779D01*
X17889563Y18748834D01*
X17895227Y18771443D01*
X17903079Y18793387D01*
X17913044Y18814457D01*
X17925026Y18834448D01*
X17938910Y18853168D01*
X17954562Y18870438D01*
X17971832Y18886090D01*
X17990552Y18899974D01*
X18010543Y18911956D01*
X18031613Y18921921D01*
X18053557Y18929773D01*
X18076166Y18935437D01*
X18099221Y18938856D01*
X18122500Y18940000D01*
X18697500Y18940000D01*
X18720779Y18938856D01*
G37*
G04 #@! TD*
G04 #@! TO.C,C23*
G36*
X46410779Y14998856D02*
G01*
X46433834Y14995437D01*
X46456443Y14989773D01*
X46478387Y14981921D01*
X46499457Y14971956D01*
X46519448Y14959974D01*
X46538168Y14946090D01*
X46555438Y14930438D01*
X46571090Y14913168D01*
X46584974Y14894448D01*
X46596956Y14874457D01*
X46606921Y14853387D01*
X46614773Y14831443D01*
X46620437Y14808834D01*
X46623856Y14785779D01*
X46625000Y14762500D01*
X46625000Y14187500D01*
X46623856Y14164221D01*
X46620437Y14141166D01*
X46614773Y14118557D01*
X46606921Y14096613D01*
X46596956Y14075543D01*
X46584974Y14055552D01*
X46571090Y14036832D01*
X46555438Y14019562D01*
X46538168Y14003910D01*
X46519448Y13990026D01*
X46499457Y13978044D01*
X46478387Y13968079D01*
X46456443Y13960227D01*
X46433834Y13954563D01*
X46410779Y13951144D01*
X46387500Y13950000D01*
X45912500Y13950000D01*
X45889221Y13951144D01*
X45866166Y13954563D01*
X45843557Y13960227D01*
X45821613Y13968079D01*
X45800543Y13978044D01*
X45780552Y13990026D01*
X45761832Y14003910D01*
X45744562Y14019562D01*
X45728910Y14036832D01*
X45715026Y14055552D01*
X45703044Y14075543D01*
X45693079Y14096613D01*
X45685227Y14118557D01*
X45679563Y14141166D01*
X45676144Y14164221D01*
X45675000Y14187500D01*
X45675000Y14762500D01*
X45676144Y14785779D01*
X45679563Y14808834D01*
X45685227Y14831443D01*
X45693079Y14853387D01*
X45703044Y14874457D01*
X45715026Y14894448D01*
X45728910Y14913168D01*
X45744562Y14930438D01*
X45761832Y14946090D01*
X45780552Y14959974D01*
X45800543Y14971956D01*
X45821613Y14981921D01*
X45843557Y14989773D01*
X45866166Y14995437D01*
X45889221Y14998856D01*
X45912500Y15000000D01*
X46387500Y15000000D01*
X46410779Y14998856D01*
G37*
G36*
X46410779Y16748856D02*
G01*
X46433834Y16745437D01*
X46456443Y16739773D01*
X46478387Y16731921D01*
X46499457Y16721956D01*
X46519448Y16709974D01*
X46538168Y16696090D01*
X46555438Y16680438D01*
X46571090Y16663168D01*
X46584974Y16644448D01*
X46596956Y16624457D01*
X46606921Y16603387D01*
X46614773Y16581443D01*
X46620437Y16558834D01*
X46623856Y16535779D01*
X46625000Y16512500D01*
X46625000Y15937500D01*
X46623856Y15914221D01*
X46620437Y15891166D01*
X46614773Y15868557D01*
X46606921Y15846613D01*
X46596956Y15825543D01*
X46584974Y15805552D01*
X46571090Y15786832D01*
X46555438Y15769562D01*
X46538168Y15753910D01*
X46519448Y15740026D01*
X46499457Y15728044D01*
X46478387Y15718079D01*
X46456443Y15710227D01*
X46433834Y15704563D01*
X46410779Y15701144D01*
X46387500Y15700000D01*
X45912500Y15700000D01*
X45889221Y15701144D01*
X45866166Y15704563D01*
X45843557Y15710227D01*
X45821613Y15718079D01*
X45800543Y15728044D01*
X45780552Y15740026D01*
X45761832Y15753910D01*
X45744562Y15769562D01*
X45728910Y15786832D01*
X45715026Y15805552D01*
X45703044Y15825543D01*
X45693079Y15846613D01*
X45685227Y15868557D01*
X45679563Y15891166D01*
X45676144Y15914221D01*
X45675000Y15937500D01*
X45675000Y16512500D01*
X45676144Y16535779D01*
X45679563Y16558834D01*
X45685227Y16581443D01*
X45693079Y16603387D01*
X45703044Y16624457D01*
X45715026Y16644448D01*
X45728910Y16663168D01*
X45744562Y16680438D01*
X45761832Y16696090D01*
X45780552Y16709974D01*
X45800543Y16721956D01*
X45821613Y16731921D01*
X45843557Y16739773D01*
X45866166Y16745437D01*
X45889221Y16748856D01*
X45912500Y16750000D01*
X46387500Y16750000D01*
X46410779Y16748856D01*
G37*
G04 #@! TD*
G04 #@! TO.C,C26*
G36*
X38745779Y18813856D02*
G01*
X38768834Y18810437D01*
X38791443Y18804773D01*
X38813387Y18796921D01*
X38834457Y18786956D01*
X38854448Y18774974D01*
X38873168Y18761090D01*
X38890438Y18745438D01*
X38906090Y18728168D01*
X38919974Y18709448D01*
X38931956Y18689457D01*
X38941921Y18668387D01*
X38949773Y18646443D01*
X38955437Y18623834D01*
X38958856Y18600779D01*
X38960000Y18577500D01*
X38960000Y18102500D01*
X38958856Y18079221D01*
X38955437Y18056166D01*
X38949773Y18033557D01*
X38941921Y18011613D01*
X38931956Y17990543D01*
X38919974Y17970552D01*
X38906090Y17951832D01*
X38890438Y17934562D01*
X38873168Y17918910D01*
X38854448Y17905026D01*
X38834457Y17893044D01*
X38813387Y17883079D01*
X38791443Y17875227D01*
X38768834Y17869563D01*
X38745779Y17866144D01*
X38722500Y17865000D01*
X38147500Y17865000D01*
X38124221Y17866144D01*
X38101166Y17869563D01*
X38078557Y17875227D01*
X38056613Y17883079D01*
X38035543Y17893044D01*
X38015552Y17905026D01*
X37996832Y17918910D01*
X37979562Y17934562D01*
X37963910Y17951832D01*
X37950026Y17970552D01*
X37938044Y17990543D01*
X37928079Y18011613D01*
X37920227Y18033557D01*
X37914563Y18056166D01*
X37911144Y18079221D01*
X37910000Y18102500D01*
X37910000Y18577500D01*
X37911144Y18600779D01*
X37914563Y18623834D01*
X37920227Y18646443D01*
X37928079Y18668387D01*
X37938044Y18689457D01*
X37950026Y18709448D01*
X37963910Y18728168D01*
X37979562Y18745438D01*
X37996832Y18761090D01*
X38015552Y18774974D01*
X38035543Y18786956D01*
X38056613Y18796921D01*
X38078557Y18804773D01*
X38101166Y18810437D01*
X38124221Y18813856D01*
X38147500Y18815000D01*
X38722500Y18815000D01*
X38745779Y18813856D01*
G37*
G36*
X36995779Y18813856D02*
G01*
X37018834Y18810437D01*
X37041443Y18804773D01*
X37063387Y18796921D01*
X37084457Y18786956D01*
X37104448Y18774974D01*
X37123168Y18761090D01*
X37140438Y18745438D01*
X37156090Y18728168D01*
X37169974Y18709448D01*
X37181956Y18689457D01*
X37191921Y18668387D01*
X37199773Y18646443D01*
X37205437Y18623834D01*
X37208856Y18600779D01*
X37210000Y18577500D01*
X37210000Y18102500D01*
X37208856Y18079221D01*
X37205437Y18056166D01*
X37199773Y18033557D01*
X37191921Y18011613D01*
X37181956Y17990543D01*
X37169974Y17970552D01*
X37156090Y17951832D01*
X37140438Y17934562D01*
X37123168Y17918910D01*
X37104448Y17905026D01*
X37084457Y17893044D01*
X37063387Y17883079D01*
X37041443Y17875227D01*
X37018834Y17869563D01*
X36995779Y17866144D01*
X36972500Y17865000D01*
X36397500Y17865000D01*
X36374221Y17866144D01*
X36351166Y17869563D01*
X36328557Y17875227D01*
X36306613Y17883079D01*
X36285543Y17893044D01*
X36265552Y17905026D01*
X36246832Y17918910D01*
X36229562Y17934562D01*
X36213910Y17951832D01*
X36200026Y17970552D01*
X36188044Y17990543D01*
X36178079Y18011613D01*
X36170227Y18033557D01*
X36164563Y18056166D01*
X36161144Y18079221D01*
X36160000Y18102500D01*
X36160000Y18577500D01*
X36161144Y18600779D01*
X36164563Y18623834D01*
X36170227Y18646443D01*
X36178079Y18668387D01*
X36188044Y18689457D01*
X36200026Y18709448D01*
X36213910Y18728168D01*
X36229562Y18745438D01*
X36246832Y18761090D01*
X36265552Y18774974D01*
X36285543Y18786956D01*
X36306613Y18796921D01*
X36328557Y18804773D01*
X36351166Y18810437D01*
X36374221Y18813856D01*
X36397500Y18815000D01*
X36972500Y18815000D01*
X36995779Y18813856D01*
G37*
G04 #@! TD*
G04 #@! TO.C,C35*
G36*
X36480779Y21128856D02*
G01*
X36503834Y21125437D01*
X36526443Y21119773D01*
X36548387Y21111921D01*
X36569457Y21101956D01*
X36589448Y21089974D01*
X36608168Y21076090D01*
X36625438Y21060438D01*
X36641090Y21043168D01*
X36654974Y21024448D01*
X36666956Y21004457D01*
X36676921Y20983387D01*
X36684773Y20961443D01*
X36690437Y20938834D01*
X36693856Y20915779D01*
X36695000Y20892500D01*
X36695000Y20417500D01*
X36693856Y20394221D01*
X36690437Y20371166D01*
X36684773Y20348557D01*
X36676921Y20326613D01*
X36666956Y20305543D01*
X36654974Y20285552D01*
X36641090Y20266832D01*
X36625438Y20249562D01*
X36608168Y20233910D01*
X36589448Y20220026D01*
X36569457Y20208044D01*
X36548387Y20198079D01*
X36526443Y20190227D01*
X36503834Y20184563D01*
X36480779Y20181144D01*
X36457500Y20180000D01*
X35882500Y20180000D01*
X35859221Y20181144D01*
X35836166Y20184563D01*
X35813557Y20190227D01*
X35791613Y20198079D01*
X35770543Y20208044D01*
X35750552Y20220026D01*
X35731832Y20233910D01*
X35714562Y20249562D01*
X35698910Y20266832D01*
X35685026Y20285552D01*
X35673044Y20305543D01*
X35663079Y20326613D01*
X35655227Y20348557D01*
X35649563Y20371166D01*
X35646144Y20394221D01*
X35645000Y20417500D01*
X35645000Y20892500D01*
X35646144Y20915779D01*
X35649563Y20938834D01*
X35655227Y20961443D01*
X35663079Y20983387D01*
X35673044Y21004457D01*
X35685026Y21024448D01*
X35698910Y21043168D01*
X35714562Y21060438D01*
X35731832Y21076090D01*
X35750552Y21089974D01*
X35770543Y21101956D01*
X35791613Y21111921D01*
X35813557Y21119773D01*
X35836166Y21125437D01*
X35859221Y21128856D01*
X35882500Y21130000D01*
X36457500Y21130000D01*
X36480779Y21128856D01*
G37*
G36*
X38230779Y21128856D02*
G01*
X38253834Y21125437D01*
X38276443Y21119773D01*
X38298387Y21111921D01*
X38319457Y21101956D01*
X38339448Y21089974D01*
X38358168Y21076090D01*
X38375438Y21060438D01*
X38391090Y21043168D01*
X38404974Y21024448D01*
X38416956Y21004457D01*
X38426921Y20983387D01*
X38434773Y20961443D01*
X38440437Y20938834D01*
X38443856Y20915779D01*
X38445000Y20892500D01*
X38445000Y20417500D01*
X38443856Y20394221D01*
X38440437Y20371166D01*
X38434773Y20348557D01*
X38426921Y20326613D01*
X38416956Y20305543D01*
X38404974Y20285552D01*
X38391090Y20266832D01*
X38375438Y20249562D01*
X38358168Y20233910D01*
X38339448Y20220026D01*
X38319457Y20208044D01*
X38298387Y20198079D01*
X38276443Y20190227D01*
X38253834Y20184563D01*
X38230779Y20181144D01*
X38207500Y20180000D01*
X37632500Y20180000D01*
X37609221Y20181144D01*
X37586166Y20184563D01*
X37563557Y20190227D01*
X37541613Y20198079D01*
X37520543Y20208044D01*
X37500552Y20220026D01*
X37481832Y20233910D01*
X37464562Y20249562D01*
X37448910Y20266832D01*
X37435026Y20285552D01*
X37423044Y20305543D01*
X37413079Y20326613D01*
X37405227Y20348557D01*
X37399563Y20371166D01*
X37396144Y20394221D01*
X37395000Y20417500D01*
X37395000Y20892500D01*
X37396144Y20915779D01*
X37399563Y20938834D01*
X37405227Y20961443D01*
X37413079Y20983387D01*
X37423044Y21004457D01*
X37435026Y21024448D01*
X37448910Y21043168D01*
X37464562Y21060438D01*
X37481832Y21076090D01*
X37500552Y21089974D01*
X37520543Y21101956D01*
X37541613Y21111921D01*
X37563557Y21119773D01*
X37586166Y21125437D01*
X37609221Y21128856D01*
X37632500Y21130000D01*
X38207500Y21130000D01*
X38230779Y21128856D01*
G37*
G04 #@! TD*
G04 #@! TO.C,C37*
G36*
X40000779Y17668856D02*
G01*
X40023834Y17665437D01*
X40046443Y17659773D01*
X40068387Y17651921D01*
X40089457Y17641956D01*
X40109448Y17629974D01*
X40128168Y17616090D01*
X40145438Y17600438D01*
X40161090Y17583168D01*
X40174974Y17564448D01*
X40186956Y17544457D01*
X40196921Y17523387D01*
X40204773Y17501443D01*
X40210437Y17478834D01*
X40213856Y17455779D01*
X40215000Y17432500D01*
X40215000Y16957500D01*
X40213856Y16934221D01*
X40210437Y16911166D01*
X40204773Y16888557D01*
X40196921Y16866613D01*
X40186956Y16845543D01*
X40174974Y16825552D01*
X40161090Y16806832D01*
X40145438Y16789562D01*
X40128168Y16773910D01*
X40109448Y16760026D01*
X40089457Y16748044D01*
X40068387Y16738079D01*
X40046443Y16730227D01*
X40023834Y16724563D01*
X40000779Y16721144D01*
X39977500Y16720000D01*
X39402500Y16720000D01*
X39379221Y16721144D01*
X39356166Y16724563D01*
X39333557Y16730227D01*
X39311613Y16738079D01*
X39290543Y16748044D01*
X39270552Y16760026D01*
X39251832Y16773910D01*
X39234562Y16789562D01*
X39218910Y16806832D01*
X39205026Y16825552D01*
X39193044Y16845543D01*
X39183079Y16866613D01*
X39175227Y16888557D01*
X39169563Y16911166D01*
X39166144Y16934221D01*
X39165000Y16957500D01*
X39165000Y17432500D01*
X39166144Y17455779D01*
X39169563Y17478834D01*
X39175227Y17501443D01*
X39183079Y17523387D01*
X39193044Y17544457D01*
X39205026Y17564448D01*
X39218910Y17583168D01*
X39234562Y17600438D01*
X39251832Y17616090D01*
X39270552Y17629974D01*
X39290543Y17641956D01*
X39311613Y17651921D01*
X39333557Y17659773D01*
X39356166Y17665437D01*
X39379221Y17668856D01*
X39402500Y17670000D01*
X39977500Y17670000D01*
X40000779Y17668856D01*
G37*
G36*
X41750779Y17668856D02*
G01*
X41773834Y17665437D01*
X41796443Y17659773D01*
X41818387Y17651921D01*
X41839457Y17641956D01*
X41859448Y17629974D01*
X41878168Y17616090D01*
X41895438Y17600438D01*
X41911090Y17583168D01*
X41924974Y17564448D01*
X41936956Y17544457D01*
X41946921Y17523387D01*
X41954773Y17501443D01*
X41960437Y17478834D01*
X41963856Y17455779D01*
X41965000Y17432500D01*
X41965000Y16957500D01*
X41963856Y16934221D01*
X41960437Y16911166D01*
X41954773Y16888557D01*
X41946921Y16866613D01*
X41936956Y16845543D01*
X41924974Y16825552D01*
X41911090Y16806832D01*
X41895438Y16789562D01*
X41878168Y16773910D01*
X41859448Y16760026D01*
X41839457Y16748044D01*
X41818387Y16738079D01*
X41796443Y16730227D01*
X41773834Y16724563D01*
X41750779Y16721144D01*
X41727500Y16720000D01*
X41152500Y16720000D01*
X41129221Y16721144D01*
X41106166Y16724563D01*
X41083557Y16730227D01*
X41061613Y16738079D01*
X41040543Y16748044D01*
X41020552Y16760026D01*
X41001832Y16773910D01*
X40984562Y16789562D01*
X40968910Y16806832D01*
X40955026Y16825552D01*
X40943044Y16845543D01*
X40933079Y16866613D01*
X40925227Y16888557D01*
X40919563Y16911166D01*
X40916144Y16934221D01*
X40915000Y16957500D01*
X40915000Y17432500D01*
X40916144Y17455779D01*
X40919563Y17478834D01*
X40925227Y17501443D01*
X40933079Y17523387D01*
X40943044Y17544457D01*
X40955026Y17564448D01*
X40968910Y17583168D01*
X40984562Y17600438D01*
X41001832Y17616090D01*
X41020552Y17629974D01*
X41040543Y17641956D01*
X41061613Y17651921D01*
X41083557Y17659773D01*
X41106166Y17665437D01*
X41129221Y17668856D01*
X41152500Y17670000D01*
X41727500Y17670000D01*
X41750779Y17668856D01*
G37*
G04 #@! TD*
G04 #@! TO.C,L-2V1*
G36*
X4985779Y9973856D02*
G01*
X5008834Y9970437D01*
X5031443Y9964773D01*
X5053387Y9956921D01*
X5074457Y9946956D01*
X5094448Y9934974D01*
X5113168Y9921090D01*
X5130438Y9905438D01*
X5146090Y9888168D01*
X5159974Y9869448D01*
X5171956Y9849457D01*
X5181921Y9828387D01*
X5189773Y9806443D01*
X5195437Y9783834D01*
X5198856Y9760779D01*
X5200000Y9737500D01*
X5200000Y9262500D01*
X5198856Y9239221D01*
X5195437Y9216166D01*
X5189773Y9193557D01*
X5181921Y9171613D01*
X5171956Y9150543D01*
X5159974Y9130552D01*
X5146090Y9111832D01*
X5130438Y9094562D01*
X5113168Y9078910D01*
X5094448Y9065026D01*
X5074457Y9053044D01*
X5053387Y9043079D01*
X5031443Y9035227D01*
X5008834Y9029563D01*
X4985779Y9026144D01*
X4962500Y9025000D01*
X4387500Y9025000D01*
X4364221Y9026144D01*
X4341166Y9029563D01*
X4318557Y9035227D01*
X4296613Y9043079D01*
X4275543Y9053044D01*
X4255552Y9065026D01*
X4236832Y9078910D01*
X4219562Y9094562D01*
X4203910Y9111832D01*
X4190026Y9130552D01*
X4178044Y9150543D01*
X4168079Y9171613D01*
X4160227Y9193557D01*
X4154563Y9216166D01*
X4151144Y9239221D01*
X4150000Y9262500D01*
X4150000Y9737500D01*
X4151144Y9760779D01*
X4154563Y9783834D01*
X4160227Y9806443D01*
X4168079Y9828387D01*
X4178044Y9849457D01*
X4190026Y9869448D01*
X4203910Y9888168D01*
X4219562Y9905438D01*
X4236832Y9921090D01*
X4255552Y9934974D01*
X4275543Y9946956D01*
X4296613Y9956921D01*
X4318557Y9964773D01*
X4341166Y9970437D01*
X4364221Y9973856D01*
X4387500Y9975000D01*
X4962500Y9975000D01*
X4985779Y9973856D01*
G37*
G36*
X3235779Y9973856D02*
G01*
X3258834Y9970437D01*
X3281443Y9964773D01*
X3303387Y9956921D01*
X3324457Y9946956D01*
X3344448Y9934974D01*
X3363168Y9921090D01*
X3380438Y9905438D01*
X3396090Y9888168D01*
X3409974Y9869448D01*
X3421956Y9849457D01*
X3431921Y9828387D01*
X3439773Y9806443D01*
X3445437Y9783834D01*
X3448856Y9760779D01*
X3450000Y9737500D01*
X3450000Y9262500D01*
X3448856Y9239221D01*
X3445437Y9216166D01*
X3439773Y9193557D01*
X3431921Y9171613D01*
X3421956Y9150543D01*
X3409974Y9130552D01*
X3396090Y9111832D01*
X3380438Y9094562D01*
X3363168Y9078910D01*
X3344448Y9065026D01*
X3324457Y9053044D01*
X3303387Y9043079D01*
X3281443Y9035227D01*
X3258834Y9029563D01*
X3235779Y9026144D01*
X3212500Y9025000D01*
X2637500Y9025000D01*
X2614221Y9026144D01*
X2591166Y9029563D01*
X2568557Y9035227D01*
X2546613Y9043079D01*
X2525543Y9053044D01*
X2505552Y9065026D01*
X2486832Y9078910D01*
X2469562Y9094562D01*
X2453910Y9111832D01*
X2440026Y9130552D01*
X2428044Y9150543D01*
X2418079Y9171613D01*
X2410227Y9193557D01*
X2404563Y9216166D01*
X2401144Y9239221D01*
X2400000Y9262500D01*
X2400000Y9737500D01*
X2401144Y9760779D01*
X2404563Y9783834D01*
X2410227Y9806443D01*
X2418079Y9828387D01*
X2428044Y9849457D01*
X2440026Y9869448D01*
X2453910Y9888168D01*
X2469562Y9905438D01*
X2486832Y9921090D01*
X2505552Y9934974D01*
X2525543Y9946956D01*
X2546613Y9956921D01*
X2568557Y9964773D01*
X2591166Y9970437D01*
X2614221Y9973856D01*
X2637500Y9975000D01*
X3212500Y9975000D01*
X3235779Y9973856D01*
G37*
G04 #@! TD*
G04 #@! TO.C,L-3V1*
G36*
X4985779Y12173856D02*
G01*
X5008834Y12170437D01*
X5031443Y12164773D01*
X5053387Y12156921D01*
X5074457Y12146956D01*
X5094448Y12134974D01*
X5113168Y12121090D01*
X5130438Y12105438D01*
X5146090Y12088168D01*
X5159974Y12069448D01*
X5171956Y12049457D01*
X5181921Y12028387D01*
X5189773Y12006443D01*
X5195437Y11983834D01*
X5198856Y11960779D01*
X5200000Y11937500D01*
X5200000Y11462500D01*
X5198856Y11439221D01*
X5195437Y11416166D01*
X5189773Y11393557D01*
X5181921Y11371613D01*
X5171956Y11350543D01*
X5159974Y11330552D01*
X5146090Y11311832D01*
X5130438Y11294562D01*
X5113168Y11278910D01*
X5094448Y11265026D01*
X5074457Y11253044D01*
X5053387Y11243079D01*
X5031443Y11235227D01*
X5008834Y11229563D01*
X4985779Y11226144D01*
X4962500Y11225000D01*
X4387500Y11225000D01*
X4364221Y11226144D01*
X4341166Y11229563D01*
X4318557Y11235227D01*
X4296613Y11243079D01*
X4275543Y11253044D01*
X4255552Y11265026D01*
X4236832Y11278910D01*
X4219562Y11294562D01*
X4203910Y11311832D01*
X4190026Y11330552D01*
X4178044Y11350543D01*
X4168079Y11371613D01*
X4160227Y11393557D01*
X4154563Y11416166D01*
X4151144Y11439221D01*
X4150000Y11462500D01*
X4150000Y11937500D01*
X4151144Y11960779D01*
X4154563Y11983834D01*
X4160227Y12006443D01*
X4168079Y12028387D01*
X4178044Y12049457D01*
X4190026Y12069448D01*
X4203910Y12088168D01*
X4219562Y12105438D01*
X4236832Y12121090D01*
X4255552Y12134974D01*
X4275543Y12146956D01*
X4296613Y12156921D01*
X4318557Y12164773D01*
X4341166Y12170437D01*
X4364221Y12173856D01*
X4387500Y12175000D01*
X4962500Y12175000D01*
X4985779Y12173856D01*
G37*
G36*
X3235779Y12173856D02*
G01*
X3258834Y12170437D01*
X3281443Y12164773D01*
X3303387Y12156921D01*
X3324457Y12146956D01*
X3344448Y12134974D01*
X3363168Y12121090D01*
X3380438Y12105438D01*
X3396090Y12088168D01*
X3409974Y12069448D01*
X3421956Y12049457D01*
X3431921Y12028387D01*
X3439773Y12006443D01*
X3445437Y11983834D01*
X3448856Y11960779D01*
X3450000Y11937500D01*
X3450000Y11462500D01*
X3448856Y11439221D01*
X3445437Y11416166D01*
X3439773Y11393557D01*
X3431921Y11371613D01*
X3421956Y11350543D01*
X3409974Y11330552D01*
X3396090Y11311832D01*
X3380438Y11294562D01*
X3363168Y11278910D01*
X3344448Y11265026D01*
X3324457Y11253044D01*
X3303387Y11243079D01*
X3281443Y11235227D01*
X3258834Y11229563D01*
X3235779Y11226144D01*
X3212500Y11225000D01*
X2637500Y11225000D01*
X2614221Y11226144D01*
X2591166Y11229563D01*
X2568557Y11235227D01*
X2546613Y11243079D01*
X2525543Y11253044D01*
X2505552Y11265026D01*
X2486832Y11278910D01*
X2469562Y11294562D01*
X2453910Y11311832D01*
X2440026Y11330552D01*
X2428044Y11350543D01*
X2418079Y11371613D01*
X2410227Y11393557D01*
X2404563Y11416166D01*
X2401144Y11439221D01*
X2400000Y11462500D01*
X2400000Y11937500D01*
X2401144Y11960779D01*
X2404563Y11983834D01*
X2410227Y12006443D01*
X2418079Y12028387D01*
X2428044Y12049457D01*
X2440026Y12069448D01*
X2453910Y12088168D01*
X2469562Y12105438D01*
X2486832Y12121090D01*
X2505552Y12134974D01*
X2525543Y12146956D01*
X2546613Y12156921D01*
X2568557Y12164773D01*
X2591166Y12170437D01*
X2614221Y12173856D01*
X2637500Y12175000D01*
X3212500Y12175000D01*
X3235779Y12173856D01*
G37*
G04 #@! TD*
D13*
G04 #@! TO.C,U5*
X42555000Y19795000D03*
X43205000Y19795000D03*
X43855000Y19795000D03*
X44505000Y19795000D03*
X44505000Y17415000D03*
X43855000Y17415000D03*
X43205000Y17415000D03*
X42555000Y17415000D03*
G04 #@! TD*
G04 #@! TO.C,U3*
X21405000Y17300000D03*
X22055000Y17300000D03*
X22705000Y17300000D03*
X23355000Y17300000D03*
X23355000Y19680000D03*
X22705000Y19680000D03*
X22055000Y19680000D03*
X21405000Y19680000D03*
G04 #@! TD*
D12*
G04 #@! TO.C,C33*
G36*
X38745779Y17658856D02*
G01*
X38768834Y17655437D01*
X38791443Y17649773D01*
X38813387Y17641921D01*
X38834457Y17631956D01*
X38854448Y17619974D01*
X38873168Y17606090D01*
X38890438Y17590438D01*
X38906090Y17573168D01*
X38919974Y17554448D01*
X38931956Y17534457D01*
X38941921Y17513387D01*
X38949773Y17491443D01*
X38955437Y17468834D01*
X38958856Y17445779D01*
X38960000Y17422500D01*
X38960000Y16947500D01*
X38958856Y16924221D01*
X38955437Y16901166D01*
X38949773Y16878557D01*
X38941921Y16856613D01*
X38931956Y16835543D01*
X38919974Y16815552D01*
X38906090Y16796832D01*
X38890438Y16779562D01*
X38873168Y16763910D01*
X38854448Y16750026D01*
X38834457Y16738044D01*
X38813387Y16728079D01*
X38791443Y16720227D01*
X38768834Y16714563D01*
X38745779Y16711144D01*
X38722500Y16710000D01*
X38147500Y16710000D01*
X38124221Y16711144D01*
X38101166Y16714563D01*
X38078557Y16720227D01*
X38056613Y16728079D01*
X38035543Y16738044D01*
X38015552Y16750026D01*
X37996832Y16763910D01*
X37979562Y16779562D01*
X37963910Y16796832D01*
X37950026Y16815552D01*
X37938044Y16835543D01*
X37928079Y16856613D01*
X37920227Y16878557D01*
X37914563Y16901166D01*
X37911144Y16924221D01*
X37910000Y16947500D01*
X37910000Y17422500D01*
X37911144Y17445779D01*
X37914563Y17468834D01*
X37920227Y17491443D01*
X37928079Y17513387D01*
X37938044Y17534457D01*
X37950026Y17554448D01*
X37963910Y17573168D01*
X37979562Y17590438D01*
X37996832Y17606090D01*
X38015552Y17619974D01*
X38035543Y17631956D01*
X38056613Y17641921D01*
X38078557Y17649773D01*
X38101166Y17655437D01*
X38124221Y17658856D01*
X38147500Y17660000D01*
X38722500Y17660000D01*
X38745779Y17658856D01*
G37*
G36*
X36995779Y17658856D02*
G01*
X37018834Y17655437D01*
X37041443Y17649773D01*
X37063387Y17641921D01*
X37084457Y17631956D01*
X37104448Y17619974D01*
X37123168Y17606090D01*
X37140438Y17590438D01*
X37156090Y17573168D01*
X37169974Y17554448D01*
X37181956Y17534457D01*
X37191921Y17513387D01*
X37199773Y17491443D01*
X37205437Y17468834D01*
X37208856Y17445779D01*
X37210000Y17422500D01*
X37210000Y16947500D01*
X37208856Y16924221D01*
X37205437Y16901166D01*
X37199773Y16878557D01*
X37191921Y16856613D01*
X37181956Y16835543D01*
X37169974Y16815552D01*
X37156090Y16796832D01*
X37140438Y16779562D01*
X37123168Y16763910D01*
X37104448Y16750026D01*
X37084457Y16738044D01*
X37063387Y16728079D01*
X37041443Y16720227D01*
X37018834Y16714563D01*
X36995779Y16711144D01*
X36972500Y16710000D01*
X36397500Y16710000D01*
X36374221Y16711144D01*
X36351166Y16714563D01*
X36328557Y16720227D01*
X36306613Y16728079D01*
X36285543Y16738044D01*
X36265552Y16750026D01*
X36246832Y16763910D01*
X36229562Y16779562D01*
X36213910Y16796832D01*
X36200026Y16815552D01*
X36188044Y16835543D01*
X36178079Y16856613D01*
X36170227Y16878557D01*
X36164563Y16901166D01*
X36161144Y16924221D01*
X36160000Y16947500D01*
X36160000Y17422500D01*
X36161144Y17445779D01*
X36164563Y17468834D01*
X36170227Y17491443D01*
X36178079Y17513387D01*
X36188044Y17534457D01*
X36200026Y17554448D01*
X36213910Y17573168D01*
X36229562Y17590438D01*
X36246832Y17606090D01*
X36265552Y17619974D01*
X36285543Y17631956D01*
X36306613Y17641921D01*
X36328557Y17649773D01*
X36351166Y17655437D01*
X36374221Y17658856D01*
X36397500Y17660000D01*
X36972500Y17660000D01*
X36995779Y17658856D01*
G37*
G04 #@! TD*
G04 #@! TO.C,C19*
G36*
X17450779Y21228856D02*
G01*
X17473834Y21225437D01*
X17496443Y21219773D01*
X17518387Y21211921D01*
X17539457Y21201956D01*
X17559448Y21189974D01*
X17578168Y21176090D01*
X17595438Y21160438D01*
X17611090Y21143168D01*
X17624974Y21124448D01*
X17636956Y21104457D01*
X17646921Y21083387D01*
X17654773Y21061443D01*
X17660437Y21038834D01*
X17663856Y21015779D01*
X17665000Y20992500D01*
X17665000Y20517500D01*
X17663856Y20494221D01*
X17660437Y20471166D01*
X17654773Y20448557D01*
X17646921Y20426613D01*
X17636956Y20405543D01*
X17624974Y20385552D01*
X17611090Y20366832D01*
X17595438Y20349562D01*
X17578168Y20333910D01*
X17559448Y20320026D01*
X17539457Y20308044D01*
X17518387Y20298079D01*
X17496443Y20290227D01*
X17473834Y20284563D01*
X17450779Y20281144D01*
X17427500Y20280000D01*
X16852500Y20280000D01*
X16829221Y20281144D01*
X16806166Y20284563D01*
X16783557Y20290227D01*
X16761613Y20298079D01*
X16740543Y20308044D01*
X16720552Y20320026D01*
X16701832Y20333910D01*
X16684562Y20349562D01*
X16668910Y20366832D01*
X16655026Y20385552D01*
X16643044Y20405543D01*
X16633079Y20426613D01*
X16625227Y20448557D01*
X16619563Y20471166D01*
X16616144Y20494221D01*
X16615000Y20517500D01*
X16615000Y20992500D01*
X16616144Y21015779D01*
X16619563Y21038834D01*
X16625227Y21061443D01*
X16633079Y21083387D01*
X16643044Y21104457D01*
X16655026Y21124448D01*
X16668910Y21143168D01*
X16684562Y21160438D01*
X16701832Y21176090D01*
X16720552Y21189974D01*
X16740543Y21201956D01*
X16761613Y21211921D01*
X16783557Y21219773D01*
X16806166Y21225437D01*
X16829221Y21228856D01*
X16852500Y21230000D01*
X17427500Y21230000D01*
X17450779Y21228856D01*
G37*
G36*
X15700779Y21228856D02*
G01*
X15723834Y21225437D01*
X15746443Y21219773D01*
X15768387Y21211921D01*
X15789457Y21201956D01*
X15809448Y21189974D01*
X15828168Y21176090D01*
X15845438Y21160438D01*
X15861090Y21143168D01*
X15874974Y21124448D01*
X15886956Y21104457D01*
X15896921Y21083387D01*
X15904773Y21061443D01*
X15910437Y21038834D01*
X15913856Y21015779D01*
X15915000Y20992500D01*
X15915000Y20517500D01*
X15913856Y20494221D01*
X15910437Y20471166D01*
X15904773Y20448557D01*
X15896921Y20426613D01*
X15886956Y20405543D01*
X15874974Y20385552D01*
X15861090Y20366832D01*
X15845438Y20349562D01*
X15828168Y20333910D01*
X15809448Y20320026D01*
X15789457Y20308044D01*
X15768387Y20298079D01*
X15746443Y20290227D01*
X15723834Y20284563D01*
X15700779Y20281144D01*
X15677500Y20280000D01*
X15102500Y20280000D01*
X15079221Y20281144D01*
X15056166Y20284563D01*
X15033557Y20290227D01*
X15011613Y20298079D01*
X14990543Y20308044D01*
X14970552Y20320026D01*
X14951832Y20333910D01*
X14934562Y20349562D01*
X14918910Y20366832D01*
X14905026Y20385552D01*
X14893044Y20405543D01*
X14883079Y20426613D01*
X14875227Y20448557D01*
X14869563Y20471166D01*
X14866144Y20494221D01*
X14865000Y20517500D01*
X14865000Y20992500D01*
X14866144Y21015779D01*
X14869563Y21038834D01*
X14875227Y21061443D01*
X14883079Y21083387D01*
X14893044Y21104457D01*
X14905026Y21124448D01*
X14918910Y21143168D01*
X14934562Y21160438D01*
X14951832Y21176090D01*
X14970552Y21189974D01*
X14990543Y21201956D01*
X15011613Y21211921D01*
X15033557Y21219773D01*
X15056166Y21225437D01*
X15079221Y21228856D01*
X15102500Y21230000D01*
X15677500Y21230000D01*
X15700779Y21228856D01*
G37*
G04 #@! TD*
G04 #@! TO.C,C17*
G36*
X15700779Y17793856D02*
G01*
X15723834Y17790437D01*
X15746443Y17784773D01*
X15768387Y17776921D01*
X15789457Y17766956D01*
X15809448Y17754974D01*
X15828168Y17741090D01*
X15845438Y17725438D01*
X15861090Y17708168D01*
X15874974Y17689448D01*
X15886956Y17669457D01*
X15896921Y17648387D01*
X15904773Y17626443D01*
X15910437Y17603834D01*
X15913856Y17580779D01*
X15915000Y17557500D01*
X15915000Y17082500D01*
X15913856Y17059221D01*
X15910437Y17036166D01*
X15904773Y17013557D01*
X15896921Y16991613D01*
X15886956Y16970543D01*
X15874974Y16950552D01*
X15861090Y16931832D01*
X15845438Y16914562D01*
X15828168Y16898910D01*
X15809448Y16885026D01*
X15789457Y16873044D01*
X15768387Y16863079D01*
X15746443Y16855227D01*
X15723834Y16849563D01*
X15700779Y16846144D01*
X15677500Y16845000D01*
X15102500Y16845000D01*
X15079221Y16846144D01*
X15056166Y16849563D01*
X15033557Y16855227D01*
X15011613Y16863079D01*
X14990543Y16873044D01*
X14970552Y16885026D01*
X14951832Y16898910D01*
X14934562Y16914562D01*
X14918910Y16931832D01*
X14905026Y16950552D01*
X14893044Y16970543D01*
X14883079Y16991613D01*
X14875227Y17013557D01*
X14869563Y17036166D01*
X14866144Y17059221D01*
X14865000Y17082500D01*
X14865000Y17557500D01*
X14866144Y17580779D01*
X14869563Y17603834D01*
X14875227Y17626443D01*
X14883079Y17648387D01*
X14893044Y17669457D01*
X14905026Y17689448D01*
X14918910Y17708168D01*
X14934562Y17725438D01*
X14951832Y17741090D01*
X14970552Y17754974D01*
X14990543Y17766956D01*
X15011613Y17776921D01*
X15033557Y17784773D01*
X15056166Y17790437D01*
X15079221Y17793856D01*
X15102500Y17795000D01*
X15677500Y17795000D01*
X15700779Y17793856D01*
G37*
G36*
X17450779Y17793856D02*
G01*
X17473834Y17790437D01*
X17496443Y17784773D01*
X17518387Y17776921D01*
X17539457Y17766956D01*
X17559448Y17754974D01*
X17578168Y17741090D01*
X17595438Y17725438D01*
X17611090Y17708168D01*
X17624974Y17689448D01*
X17636956Y17669457D01*
X17646921Y17648387D01*
X17654773Y17626443D01*
X17660437Y17603834D01*
X17663856Y17580779D01*
X17665000Y17557500D01*
X17665000Y17082500D01*
X17663856Y17059221D01*
X17660437Y17036166D01*
X17654773Y17013557D01*
X17646921Y16991613D01*
X17636956Y16970543D01*
X17624974Y16950552D01*
X17611090Y16931832D01*
X17595438Y16914562D01*
X17578168Y16898910D01*
X17559448Y16885026D01*
X17539457Y16873044D01*
X17518387Y16863079D01*
X17496443Y16855227D01*
X17473834Y16849563D01*
X17450779Y16846144D01*
X17427500Y16845000D01*
X16852500Y16845000D01*
X16829221Y16846144D01*
X16806166Y16849563D01*
X16783557Y16855227D01*
X16761613Y16863079D01*
X16740543Y16873044D01*
X16720552Y16885026D01*
X16701832Y16898910D01*
X16684562Y16914562D01*
X16668910Y16931832D01*
X16655026Y16950552D01*
X16643044Y16970543D01*
X16633079Y16991613D01*
X16625227Y17013557D01*
X16619563Y17036166D01*
X16616144Y17059221D01*
X16615000Y17082500D01*
X16615000Y17557500D01*
X16616144Y17580779D01*
X16619563Y17603834D01*
X16625227Y17626443D01*
X16633079Y17648387D01*
X16643044Y17669457D01*
X16655026Y17689448D01*
X16668910Y17708168D01*
X16684562Y17725438D01*
X16701832Y17741090D01*
X16720552Y17754974D01*
X16740543Y17766956D01*
X16761613Y17776921D01*
X16783557Y17784773D01*
X16806166Y17790437D01*
X16829221Y17793856D01*
X16852500Y17795000D01*
X17427500Y17795000D01*
X17450779Y17793856D01*
G37*
G04 #@! TD*
M02*
