%FSLAX45Y45*%
G04 Gerber Fmt 4.5, Leading zero omitted, Abs format (unit mm)*
G04 Created by KiCad (PCBNEW (5.1.5)-3) date 2020-04-20 22:46:28*
%MOMM*%
%LPD*%
G04 APERTURE LIST*
%TA.AperFunction,Profile*%
%ADD10C,0.050000*%
%TD*%
%ADD11C,0.200000*%
%ADD12C,0.300000*%
G04 APERTURE END LIST*
D10*
X4990000Y200000D02*
G75*
G02X4790000Y0I-200000J0D01*
G01*
X200000Y0D02*
G75*
G02X0Y200000I0J200000D01*
G01*
X0Y3735000D02*
G75*
G02X200000Y3935000I200000J0D01*
G01*
X4790000Y3935000D02*
G75*
G02X4990000Y3735000I0J-200000D01*
G01*
X4790000Y0D02*
X200000Y0D01*
X4990000Y3735000D02*
X4990000Y200000D01*
X4790000Y3935000D02*
X200000Y3935000D01*
X0Y3735000D02*
X0Y200000D01*
D11*
X3777500Y3166500D02*
X3842500Y3101500D01*
X3842500Y3166500D02*
X3777500Y3101500D01*
X3825000Y3156500D02*
X3795000Y3156500D01*
X3825000Y3111500D02*
X3795000Y3111500D01*
X3795000Y3156500D02*
G75*
G03X3795000Y3111500I0J-22500D01*
G01*
X3825000Y3111500D02*
G75*
G03X3825000Y3156500I0J22500D01*
G01*
X4497500Y3166500D02*
X4562500Y3101500D01*
X4562500Y3166500D02*
X4497500Y3101500D01*
D12*
X283928Y-468214D02*
X283928Y-168214D01*
X355357Y-168214D01*
X398214Y-182500D01*
X426786Y-211071D01*
X441071Y-239643D01*
X455357Y-296786D01*
X455357Y-339643D01*
X441071Y-396786D01*
X426786Y-425357D01*
X398214Y-453929D01*
X355357Y-468214D01*
X283928Y-468214D01*
X583928Y-468214D02*
X583928Y-268214D01*
X583928Y-325357D02*
X598214Y-296786D01*
X612500Y-282500D01*
X641071Y-268214D01*
X669643Y-268214D01*
X769643Y-468214D02*
X769643Y-268214D01*
X769643Y-168214D02*
X755357Y-182500D01*
X769643Y-196786D01*
X783928Y-182500D01*
X769643Y-168214D01*
X769643Y-196786D01*
X955357Y-468214D02*
X926786Y-453929D01*
X912500Y-425357D01*
X912500Y-168214D01*
X1112500Y-468214D02*
X1083928Y-453929D01*
X1069643Y-425357D01*
X1069643Y-168214D01*
X1455357Y-468214D02*
X1455357Y-168214D01*
X1555357Y-382500D01*
X1655357Y-168214D01*
X1655357Y-468214D01*
X1926786Y-468214D02*
X1926786Y-311072D01*
X1912500Y-282500D01*
X1883928Y-268214D01*
X1826786Y-268214D01*
X1798214Y-282500D01*
X1926786Y-453929D02*
X1898214Y-468214D01*
X1826786Y-468214D01*
X1798214Y-453929D01*
X1783928Y-425357D01*
X1783928Y-396786D01*
X1798214Y-368214D01*
X1826786Y-353929D01*
X1898214Y-353929D01*
X1926786Y-339643D01*
X2069643Y-268214D02*
X2069643Y-568214D01*
X2069643Y-282500D02*
X2098214Y-268214D01*
X2155357Y-268214D01*
X2183928Y-282500D01*
X2198214Y-296786D01*
X2212500Y-325357D01*
X2212500Y-411071D01*
X2198214Y-439643D01*
X2183928Y-453929D01*
X2155357Y-468214D01*
X2098214Y-468214D01*
X2069643Y-453929D01*
X2341071Y-439643D02*
X2355357Y-453929D01*
X2341071Y-468214D01*
X2326786Y-453929D01*
X2341071Y-439643D01*
X2341071Y-468214D01*
X2341071Y-282500D02*
X2355357Y-296786D01*
X2341071Y-311072D01*
X2326786Y-296786D01*
X2341071Y-282500D01*
X2341071Y-311072D01*
X-67500Y-930000D02*
X-2500Y-995000D01*
X-2500Y-930000D02*
X-67500Y-995000D01*
X341071Y-798214D02*
X369643Y-798214D01*
X398214Y-812500D01*
X412500Y-826786D01*
X426786Y-855357D01*
X441071Y-912500D01*
X441071Y-983929D01*
X426786Y-1041071D01*
X412500Y-1069643D01*
X398214Y-1083929D01*
X369643Y-1098214D01*
X341071Y-1098214D01*
X312500Y-1083929D01*
X298214Y-1069643D01*
X283928Y-1041071D01*
X269643Y-983929D01*
X269643Y-912500D01*
X283928Y-855357D01*
X298214Y-826786D01*
X312500Y-812500D01*
X341071Y-798214D01*
X569643Y-1069643D02*
X583928Y-1083929D01*
X569643Y-1098214D01*
X555357Y-1083929D01*
X569643Y-1069643D01*
X569643Y-1098214D01*
X841071Y-798214D02*
X783928Y-798214D01*
X755357Y-812500D01*
X741071Y-826786D01*
X712500Y-869643D01*
X698214Y-926786D01*
X698214Y-1041071D01*
X712500Y-1069643D01*
X726786Y-1083929D01*
X755357Y-1098214D01*
X812500Y-1098214D01*
X841071Y-1083929D01*
X855357Y-1069643D01*
X869643Y-1041071D01*
X869643Y-969643D01*
X855357Y-941071D01*
X841071Y-926786D01*
X812500Y-912500D01*
X755357Y-912500D01*
X726786Y-926786D01*
X712500Y-941071D01*
X698214Y-969643D01*
X1141071Y-798214D02*
X998214Y-798214D01*
X983928Y-941071D01*
X998214Y-926786D01*
X1026786Y-912500D01*
X1098214Y-912500D01*
X1126786Y-926786D01*
X1141071Y-941071D01*
X1155357Y-969643D01*
X1155357Y-1041071D01*
X1141071Y-1069643D01*
X1126786Y-1083929D01*
X1098214Y-1098214D01*
X1026786Y-1098214D01*
X998214Y-1083929D01*
X983928Y-1069643D01*
X1283928Y-1098214D02*
X1283928Y-898214D01*
X1283928Y-926786D02*
X1298214Y-912500D01*
X1326786Y-898214D01*
X1369643Y-898214D01*
X1398214Y-912500D01*
X1412500Y-941071D01*
X1412500Y-1098214D01*
X1412500Y-941071D02*
X1426786Y-912500D01*
X1455357Y-898214D01*
X1498214Y-898214D01*
X1526786Y-912500D01*
X1541071Y-941071D01*
X1541071Y-1098214D01*
X1683928Y-1098214D02*
X1683928Y-898214D01*
X1683928Y-926786D02*
X1698214Y-912500D01*
X1726786Y-898214D01*
X1769643Y-898214D01*
X1798214Y-912500D01*
X1812500Y-941071D01*
X1812500Y-1098214D01*
X1812500Y-941071D02*
X1826786Y-912500D01*
X1855357Y-898214D01*
X1898214Y-898214D01*
X1926786Y-912500D01*
X1941071Y-941071D01*
X1941071Y-1098214D01*
X2526786Y-783929D02*
X2269643Y-1169643D01*
X2912500Y-798214D02*
X2941071Y-798214D01*
X2969643Y-812500D01*
X2983928Y-826786D01*
X2998214Y-855357D01*
X3012500Y-912500D01*
X3012500Y-983929D01*
X2998214Y-1041071D01*
X2983928Y-1069643D01*
X2969643Y-1083929D01*
X2941071Y-1098214D01*
X2912500Y-1098214D01*
X2883928Y-1083929D01*
X2869643Y-1069643D01*
X2855357Y-1041071D01*
X2841071Y-983929D01*
X2841071Y-912500D01*
X2855357Y-855357D01*
X2869643Y-826786D01*
X2883928Y-812500D01*
X2912500Y-798214D01*
X3141071Y-1069643D02*
X3155357Y-1083929D01*
X3141071Y-1098214D01*
X3126786Y-1083929D01*
X3141071Y-1069643D01*
X3141071Y-1098214D01*
X3341071Y-798214D02*
X3369643Y-798214D01*
X3398214Y-812500D01*
X3412500Y-826786D01*
X3426786Y-855357D01*
X3441071Y-912500D01*
X3441071Y-983929D01*
X3426786Y-1041071D01*
X3412500Y-1069643D01*
X3398214Y-1083929D01*
X3369643Y-1098214D01*
X3341071Y-1098214D01*
X3312500Y-1083929D01*
X3298214Y-1069643D01*
X3283928Y-1041071D01*
X3269643Y-983929D01*
X3269643Y-912500D01*
X3283928Y-855357D01*
X3298214Y-826786D01*
X3312500Y-812500D01*
X3341071Y-798214D01*
X3555357Y-826786D02*
X3569643Y-812500D01*
X3598214Y-798214D01*
X3669643Y-798214D01*
X3698214Y-812500D01*
X3712500Y-826786D01*
X3726786Y-855357D01*
X3726786Y-883929D01*
X3712500Y-926786D01*
X3541071Y-1098214D01*
X3726786Y-1098214D01*
X3983928Y-798214D02*
X3926786Y-798214D01*
X3898214Y-812500D01*
X3883928Y-826786D01*
X3855357Y-869643D01*
X3841071Y-926786D01*
X3841071Y-1041071D01*
X3855357Y-1069643D01*
X3869643Y-1083929D01*
X3898214Y-1098214D01*
X3955357Y-1098214D01*
X3983928Y-1083929D01*
X3998214Y-1069643D01*
X4012500Y-1041071D01*
X4012500Y-969643D01*
X3998214Y-941071D01*
X3983928Y-926786D01*
X3955357Y-912500D01*
X3898214Y-912500D01*
X3869643Y-926786D01*
X3855357Y-941071D01*
X3841071Y-969643D01*
X4126786Y-798214D02*
X4126786Y-855357D01*
X4241071Y-798214D02*
X4241071Y-855357D01*
X4683928Y-1212500D02*
X4669643Y-1198214D01*
X4641071Y-1155357D01*
X4626786Y-1126786D01*
X4612500Y-1083929D01*
X4598214Y-1012500D01*
X4598214Y-955357D01*
X4612500Y-883929D01*
X4626786Y-841071D01*
X4641071Y-812500D01*
X4669643Y-769643D01*
X4683928Y-755357D01*
X4955357Y-1098214D02*
X4783928Y-1098214D01*
X4869643Y-1098214D02*
X4869643Y-798214D01*
X4841071Y-841071D01*
X4812500Y-869643D01*
X4783928Y-883929D01*
X5312500Y-1098214D02*
X5312500Y-798214D01*
X5441071Y-1098214D02*
X5441071Y-941071D01*
X5426786Y-912500D01*
X5398214Y-898214D01*
X5355357Y-898214D01*
X5326786Y-912500D01*
X5312500Y-926786D01*
X5626786Y-1098214D02*
X5598214Y-1083929D01*
X5583928Y-1069643D01*
X5569643Y-1041071D01*
X5569643Y-955357D01*
X5583928Y-926786D01*
X5598214Y-912500D01*
X5626786Y-898214D01*
X5669643Y-898214D01*
X5698214Y-912500D01*
X5712500Y-926786D01*
X5726786Y-955357D01*
X5726786Y-1041071D01*
X5712500Y-1069643D01*
X5698214Y-1083929D01*
X5669643Y-1098214D01*
X5626786Y-1098214D01*
X5898214Y-1098214D02*
X5869643Y-1083929D01*
X5855357Y-1055357D01*
X5855357Y-798214D01*
X6126786Y-1083929D02*
X6098214Y-1098214D01*
X6041071Y-1098214D01*
X6012500Y-1083929D01*
X5998214Y-1055357D01*
X5998214Y-941071D01*
X6012500Y-912500D01*
X6041071Y-898214D01*
X6098214Y-898214D01*
X6126786Y-912500D01*
X6141071Y-941071D01*
X6141071Y-969643D01*
X5998214Y-998214D01*
X6255357Y-1083929D02*
X6283928Y-1098214D01*
X6341071Y-1098214D01*
X6369643Y-1083929D01*
X6383928Y-1055357D01*
X6383928Y-1041071D01*
X6369643Y-1012500D01*
X6341071Y-998214D01*
X6298214Y-998214D01*
X6269643Y-983929D01*
X6255357Y-955357D01*
X6255357Y-941071D01*
X6269643Y-912500D01*
X6298214Y-898214D01*
X6341071Y-898214D01*
X6369643Y-912500D01*
X6741071Y-983929D02*
X6969643Y-983929D01*
X6855357Y-1098214D02*
X6855357Y-869643D01*
X7498214Y-1098214D02*
X7326786Y-1098214D01*
X7412500Y-1098214D02*
X7412500Y-798214D01*
X7383928Y-841071D01*
X7355357Y-869643D01*
X7326786Y-883929D01*
X7841071Y-1083929D02*
X7869643Y-1098214D01*
X7926786Y-1098214D01*
X7955357Y-1083929D01*
X7969643Y-1055357D01*
X7969643Y-1041071D01*
X7955357Y-1012500D01*
X7926786Y-998214D01*
X7883928Y-998214D01*
X7855357Y-983929D01*
X7841071Y-955357D01*
X7841071Y-941071D01*
X7855357Y-912500D01*
X7883928Y-898214D01*
X7926786Y-898214D01*
X7955357Y-912500D01*
X8141071Y-1098214D02*
X8112500Y-1083929D01*
X8098214Y-1055357D01*
X8098214Y-798214D01*
X8298214Y-1098214D02*
X8269643Y-1083929D01*
X8255357Y-1069643D01*
X8241071Y-1041071D01*
X8241071Y-955357D01*
X8255357Y-926786D01*
X8269643Y-912500D01*
X8298214Y-898214D01*
X8341071Y-898214D01*
X8369643Y-912500D01*
X8383928Y-926786D01*
X8398214Y-955357D01*
X8398214Y-1041071D01*
X8383928Y-1069643D01*
X8369643Y-1083929D01*
X8341071Y-1098214D01*
X8298214Y-1098214D01*
X8483928Y-898214D02*
X8598214Y-898214D01*
X8526786Y-798214D02*
X8526786Y-1055357D01*
X8541071Y-1083929D01*
X8569643Y-1098214D01*
X8598214Y-1098214D01*
X8669643Y-1212500D02*
X8683928Y-1198214D01*
X8712500Y-1155357D01*
X8726786Y-1126786D01*
X8741071Y-1083929D01*
X8755357Y-1012500D01*
X8755357Y-955357D01*
X8741071Y-883929D01*
X8726786Y-841071D01*
X8712500Y-812500D01*
X8683928Y-769643D01*
X8669643Y-755357D01*
X9212500Y-1212500D02*
X9198214Y-1198214D01*
X9169643Y-1155357D01*
X9155357Y-1126786D01*
X9141071Y-1083929D01*
X9126786Y-1012500D01*
X9126786Y-955357D01*
X9141071Y-883929D01*
X9155357Y-841071D01*
X9169643Y-812500D01*
X9198214Y-769643D01*
X9212500Y-755357D01*
X9326786Y-898214D02*
X9326786Y-1098214D01*
X9326786Y-926786D02*
X9341071Y-912500D01*
X9369643Y-898214D01*
X9412500Y-898214D01*
X9441071Y-912500D01*
X9455357Y-941071D01*
X9455357Y-1098214D01*
X9641071Y-1098214D02*
X9612500Y-1083929D01*
X9598214Y-1069643D01*
X9583928Y-1041071D01*
X9583928Y-955357D01*
X9598214Y-926786D01*
X9612500Y-912500D01*
X9641071Y-898214D01*
X9683928Y-898214D01*
X9712500Y-912500D01*
X9726786Y-926786D01*
X9741071Y-955357D01*
X9741071Y-1041071D01*
X9726786Y-1069643D01*
X9712500Y-1083929D01*
X9683928Y-1098214D01*
X9641071Y-1098214D01*
X9826786Y-898214D02*
X9941071Y-898214D01*
X9869643Y-798214D02*
X9869643Y-1055357D01*
X9883928Y-1083929D01*
X9912500Y-1098214D01*
X9941071Y-1098214D01*
X10269643Y-898214D02*
X10269643Y-1198214D01*
X10269643Y-912500D02*
X10298214Y-898214D01*
X10355357Y-898214D01*
X10383928Y-912500D01*
X10398214Y-926786D01*
X10412500Y-955357D01*
X10412500Y-1041071D01*
X10398214Y-1069643D01*
X10383928Y-1083929D01*
X10355357Y-1098214D01*
X10298214Y-1098214D01*
X10269643Y-1083929D01*
X10583928Y-1098214D02*
X10555357Y-1083929D01*
X10541071Y-1055357D01*
X10541071Y-798214D01*
X10826786Y-1098214D02*
X10826786Y-941071D01*
X10812500Y-912500D01*
X10783928Y-898214D01*
X10726786Y-898214D01*
X10698214Y-912500D01*
X10826786Y-1083929D02*
X10798214Y-1098214D01*
X10726786Y-1098214D01*
X10698214Y-1083929D01*
X10683928Y-1055357D01*
X10683928Y-1026786D01*
X10698214Y-998214D01*
X10726786Y-983929D01*
X10798214Y-983929D01*
X10826786Y-969643D01*
X10926786Y-898214D02*
X11041071Y-898214D01*
X10969643Y-798214D02*
X10969643Y-1055357D01*
X10983928Y-1083929D01*
X11012500Y-1098214D01*
X11041071Y-1098214D01*
X11255357Y-1083929D02*
X11226786Y-1098214D01*
X11169643Y-1098214D01*
X11141071Y-1083929D01*
X11126786Y-1055357D01*
X11126786Y-941071D01*
X11141071Y-912500D01*
X11169643Y-898214D01*
X11226786Y-898214D01*
X11255357Y-912500D01*
X11269643Y-941071D01*
X11269643Y-969643D01*
X11126786Y-998214D01*
X11526786Y-1098214D02*
X11526786Y-798214D01*
X11526786Y-1083929D02*
X11498214Y-1098214D01*
X11441071Y-1098214D01*
X11412500Y-1083929D01*
X11398214Y-1069643D01*
X11383928Y-1041071D01*
X11383928Y-955357D01*
X11398214Y-926786D01*
X11412500Y-912500D01*
X11441071Y-898214D01*
X11498214Y-898214D01*
X11526786Y-912500D01*
X11641071Y-1212500D02*
X11655357Y-1198214D01*
X11683928Y-1155357D01*
X11698214Y-1126786D01*
X11712500Y-1083929D01*
X11726786Y-1012500D01*
X11726786Y-955357D01*
X11712500Y-883929D01*
X11698214Y-841071D01*
X11683928Y-812500D01*
X11655357Y-769643D01*
X11641071Y-755357D01*
M02*
