%TF.GenerationSoftware,KiCad,Pcbnew,(5.1.8)-1*%
%TF.CreationDate,2021-10-07T20:49:06+08:00*%
%TF.ProjectId,Amplifier,416d706c-6966-4696-9572-2e6b69636164,rev?*%
%TF.SameCoordinates,Original*%
%TF.FileFunction,Paste,Bot*%
%TF.FilePolarity,Positive*%
%FSLAX46Y46*%
G04 Gerber Fmt 4.6, Leading zero omitted, Abs format (unit mm)*
G04 Created by KiCad (PCBNEW (5.1.8)-1) date 2021-10-07 20:49:06*
%MOMM*%
%LPD*%
G01*
G04 APERTURE LIST*
%ADD10C,0.010000*%
%ADD11C,1.000000*%
G04 APERTURE END LIST*
D10*
%TO.C,U2*%
G36*
X135534000Y-103640000D02*
G01*
X136246000Y-103640000D01*
X136246000Y-102760000D01*
X135534000Y-102760000D01*
X135534000Y-103640000D01*
G37*
X135534000Y-103640000D02*
X136246000Y-103640000D01*
X136246000Y-102760000D01*
X135534000Y-102760000D01*
X135534000Y-103640000D01*
%TO.C,U1*%
G36*
X135534000Y-96140000D02*
G01*
X136246000Y-96140000D01*
X136246000Y-95260000D01*
X135534000Y-95260000D01*
X135534000Y-96140000D01*
G37*
X135534000Y-96140000D02*
X136246000Y-96140000D01*
X136246000Y-95260000D01*
X135534000Y-95260000D01*
X135534000Y-96140000D01*
%TD*%
D11*
%TO.C,J5*%
X80100000Y-101400000D03*
%TD*%
%TO.C,J2*%
X80100000Y-97600000D03*
%TD*%
%TO.C,C6*%
G36*
G01*
X130590000Y-102470000D02*
X130590000Y-102130000D01*
G75*
G02*
X130730000Y-101990000I140000J0D01*
G01*
X131010000Y-101990000D01*
G75*
G02*
X131150000Y-102130000I0J-140000D01*
G01*
X131150000Y-102470000D01*
G75*
G02*
X131010000Y-102610000I-140000J0D01*
G01*
X130730000Y-102610000D01*
G75*
G02*
X130590000Y-102470000I0J140000D01*
G01*
G37*
G36*
G01*
X129630000Y-102470000D02*
X129630000Y-102130000D01*
G75*
G02*
X129770000Y-101990000I140000J0D01*
G01*
X130050000Y-101990000D01*
G75*
G02*
X130190000Y-102130000I0J-140000D01*
G01*
X130190000Y-102470000D01*
G75*
G02*
X130050000Y-102610000I-140000J0D01*
G01*
X129770000Y-102610000D01*
G75*
G02*
X129630000Y-102470000I0J140000D01*
G01*
G37*
%TD*%
%TO.C,C5*%
G36*
G01*
X130590000Y-95069999D02*
X130590000Y-94729999D01*
G75*
G02*
X130730000Y-94589999I140000J0D01*
G01*
X131010000Y-94589999D01*
G75*
G02*
X131150000Y-94729999I0J-140000D01*
G01*
X131150000Y-95069999D01*
G75*
G02*
X131010000Y-95209999I-140000J0D01*
G01*
X130730000Y-95209999D01*
G75*
G02*
X130590000Y-95069999I0J140000D01*
G01*
G37*
G36*
G01*
X129630000Y-95069999D02*
X129630000Y-94729999D01*
G75*
G02*
X129770000Y-94589999I140000J0D01*
G01*
X130050000Y-94589999D01*
G75*
G02*
X130190000Y-94729999I0J-140000D01*
G01*
X130190000Y-95069999D01*
G75*
G02*
X130050000Y-95209999I-140000J0D01*
G01*
X129770000Y-95209999D01*
G75*
G02*
X129630000Y-95069999I0J140000D01*
G01*
G37*
%TD*%
%TO.C,C4*%
G36*
G01*
X140260000Y-102200000D02*
X139920000Y-102200000D01*
G75*
G02*
X139780000Y-102060000I0J140000D01*
G01*
X139780000Y-101780000D01*
G75*
G02*
X139920000Y-101640000I140000J0D01*
G01*
X140260000Y-101640000D01*
G75*
G02*
X140400000Y-101780000I0J-140000D01*
G01*
X140400000Y-102060000D01*
G75*
G02*
X140260000Y-102200000I-140000J0D01*
G01*
G37*
G36*
G01*
X140260000Y-103160000D02*
X139920000Y-103160000D01*
G75*
G02*
X139780000Y-103020000I0J140000D01*
G01*
X139780000Y-102740000D01*
G75*
G02*
X139920000Y-102600000I140000J0D01*
G01*
X140260000Y-102600000D01*
G75*
G02*
X140400000Y-102740000I0J-140000D01*
G01*
X140400000Y-103020000D01*
G75*
G02*
X140260000Y-103160000I-140000J0D01*
G01*
G37*
%TD*%
%TO.C,C3*%
G36*
G01*
X140260000Y-94700000D02*
X139920000Y-94700000D01*
G75*
G02*
X139780000Y-94560000I0J140000D01*
G01*
X139780000Y-94280000D01*
G75*
G02*
X139920000Y-94140000I140000J0D01*
G01*
X140260000Y-94140000D01*
G75*
G02*
X140400000Y-94280000I0J-140000D01*
G01*
X140400000Y-94560000D01*
G75*
G02*
X140260000Y-94700000I-140000J0D01*
G01*
G37*
G36*
G01*
X140260000Y-95660000D02*
X139920000Y-95660000D01*
G75*
G02*
X139780000Y-95520000I0J140000D01*
G01*
X139780000Y-95240000D01*
G75*
G02*
X139920000Y-95100000I140000J0D01*
G01*
X140260000Y-95100000D01*
G75*
G02*
X140400000Y-95240000I0J-140000D01*
G01*
X140400000Y-95520000D01*
G75*
G02*
X140260000Y-95660000I-140000J0D01*
G01*
G37*
%TD*%
%TO.C,R4*%
G36*
G01*
X132275001Y-102760000D02*
X131905001Y-102760000D01*
G75*
G02*
X131770001Y-102625000I0J135000D01*
G01*
X131770001Y-102355000D01*
G75*
G02*
X131905001Y-102220000I135000J0D01*
G01*
X132275001Y-102220000D01*
G75*
G02*
X132410001Y-102355000I0J-135000D01*
G01*
X132410001Y-102625000D01*
G75*
G02*
X132275001Y-102760000I-135000J0D01*
G01*
G37*
G36*
G01*
X132275001Y-103780000D02*
X131905001Y-103780000D01*
G75*
G02*
X131770001Y-103645000I0J135000D01*
G01*
X131770001Y-103375000D01*
G75*
G02*
X131905001Y-103240000I135000J0D01*
G01*
X132275001Y-103240000D01*
G75*
G02*
X132410001Y-103375000I0J-135000D01*
G01*
X132410001Y-103645000D01*
G75*
G02*
X132275001Y-103780000I-135000J0D01*
G01*
G37*
%TD*%
%TO.C,R3*%
G36*
G01*
X130630000Y-103684999D02*
X130630000Y-103314999D01*
G75*
G02*
X130765000Y-103179999I135000J0D01*
G01*
X131035000Y-103179999D01*
G75*
G02*
X131170000Y-103314999I0J-135000D01*
G01*
X131170000Y-103684999D01*
G75*
G02*
X131035000Y-103819999I-135000J0D01*
G01*
X130765000Y-103819999D01*
G75*
G02*
X130630000Y-103684999I0J135000D01*
G01*
G37*
G36*
G01*
X129610000Y-103684999D02*
X129610000Y-103314999D01*
G75*
G02*
X129745000Y-103179999I135000J0D01*
G01*
X130015000Y-103179999D01*
G75*
G02*
X130150000Y-103314999I0J-135000D01*
G01*
X130150000Y-103684999D01*
G75*
G02*
X130015000Y-103819999I-135000J0D01*
G01*
X129745000Y-103819999D01*
G75*
G02*
X129610000Y-103684999I0J135000D01*
G01*
G37*
%TD*%
%TO.C,R2*%
G36*
G01*
X132275000Y-95260001D02*
X131905000Y-95260001D01*
G75*
G02*
X131770000Y-95125001I0J135000D01*
G01*
X131770000Y-94855001D01*
G75*
G02*
X131905000Y-94720001I135000J0D01*
G01*
X132275000Y-94720001D01*
G75*
G02*
X132410000Y-94855001I0J-135000D01*
G01*
X132410000Y-95125001D01*
G75*
G02*
X132275000Y-95260001I-135000J0D01*
G01*
G37*
G36*
G01*
X132275000Y-96280001D02*
X131905000Y-96280001D01*
G75*
G02*
X131770000Y-96145001I0J135000D01*
G01*
X131770000Y-95875001D01*
G75*
G02*
X131905000Y-95740001I135000J0D01*
G01*
X132275000Y-95740001D01*
G75*
G02*
X132410000Y-95875001I0J-135000D01*
G01*
X132410000Y-96145001D01*
G75*
G02*
X132275000Y-96280001I-135000J0D01*
G01*
G37*
%TD*%
%TO.C,R1*%
G36*
G01*
X130629999Y-96185000D02*
X130629999Y-95815000D01*
G75*
G02*
X130764999Y-95680000I135000J0D01*
G01*
X131034999Y-95680000D01*
G75*
G02*
X131169999Y-95815000I0J-135000D01*
G01*
X131169999Y-96185000D01*
G75*
G02*
X131034999Y-96320000I-135000J0D01*
G01*
X130764999Y-96320000D01*
G75*
G02*
X130629999Y-96185000I0J135000D01*
G01*
G37*
G36*
G01*
X129609999Y-96185000D02*
X129609999Y-95815000D01*
G75*
G02*
X129744999Y-95680000I135000J0D01*
G01*
X130014999Y-95680000D01*
G75*
G02*
X130149999Y-95815000I0J-135000D01*
G01*
X130149999Y-96185000D01*
G75*
G02*
X130014999Y-96320000I-135000J0D01*
G01*
X129744999Y-96320000D01*
G75*
G02*
X129609999Y-96185000I0J135000D01*
G01*
G37*
%TD*%
%TO.C,C8*%
G36*
G01*
X134914999Y-105649999D02*
X134914999Y-105149999D01*
G75*
G02*
X135139999Y-104924999I225000J0D01*
G01*
X135589999Y-104924999D01*
G75*
G02*
X135814999Y-105149999I0J-225000D01*
G01*
X135814999Y-105649999D01*
G75*
G02*
X135589999Y-105874999I-225000J0D01*
G01*
X135139999Y-105874999D01*
G75*
G02*
X134914999Y-105649999I0J225000D01*
G01*
G37*
G36*
G01*
X133364999Y-105649999D02*
X133364999Y-105149999D01*
G75*
G02*
X133589999Y-104924999I225000J0D01*
G01*
X134039999Y-104924999D01*
G75*
G02*
X134264999Y-105149999I0J-225000D01*
G01*
X134264999Y-105649999D01*
G75*
G02*
X134039999Y-105874999I-225000J0D01*
G01*
X133589999Y-105874999D01*
G75*
G02*
X133364999Y-105649999I0J225000D01*
G01*
G37*
%TD*%
%TO.C,C7*%
G36*
G01*
X134915000Y-98150000D02*
X134915000Y-97650000D01*
G75*
G02*
X135140000Y-97425000I225000J0D01*
G01*
X135590000Y-97425000D01*
G75*
G02*
X135815000Y-97650000I0J-225000D01*
G01*
X135815000Y-98150000D01*
G75*
G02*
X135590000Y-98375000I-225000J0D01*
G01*
X135140000Y-98375000D01*
G75*
G02*
X134915000Y-98150000I0J225000D01*
G01*
G37*
G36*
G01*
X133365000Y-98150000D02*
X133365000Y-97650000D01*
G75*
G02*
X133590000Y-97425000I225000J0D01*
G01*
X134040000Y-97425000D01*
G75*
G02*
X134265000Y-97650000I0J-225000D01*
G01*
X134265000Y-98150000D01*
G75*
G02*
X134040000Y-98375000I-225000J0D01*
G01*
X133590000Y-98375000D01*
G75*
G02*
X133365000Y-98150000I0J225000D01*
G01*
G37*
%TD*%
%TO.C,C2*%
G36*
G01*
X136865000Y-105150000D02*
X136865000Y-105650000D01*
G75*
G02*
X136640000Y-105875000I-225000J0D01*
G01*
X136190000Y-105875000D01*
G75*
G02*
X135965000Y-105650000I0J225000D01*
G01*
X135965000Y-105150000D01*
G75*
G02*
X136190000Y-104925000I225000J0D01*
G01*
X136640000Y-104925000D01*
G75*
G02*
X136865000Y-105150000I0J-225000D01*
G01*
G37*
G36*
G01*
X138415000Y-105150000D02*
X138415000Y-105650000D01*
G75*
G02*
X138190000Y-105875000I-225000J0D01*
G01*
X137740000Y-105875000D01*
G75*
G02*
X137515000Y-105650000I0J225000D01*
G01*
X137515000Y-105150000D01*
G75*
G02*
X137740000Y-104925000I225000J0D01*
G01*
X138190000Y-104925000D01*
G75*
G02*
X138415000Y-105150000I0J-225000D01*
G01*
G37*
%TD*%
%TO.C,C1*%
G36*
G01*
X136865000Y-97650000D02*
X136865000Y-98150000D01*
G75*
G02*
X136640000Y-98375000I-225000J0D01*
G01*
X136190000Y-98375000D01*
G75*
G02*
X135965000Y-98150000I0J225000D01*
G01*
X135965000Y-97650000D01*
G75*
G02*
X136190000Y-97425000I225000J0D01*
G01*
X136640000Y-97425000D01*
G75*
G02*
X136865000Y-97650000I0J-225000D01*
G01*
G37*
G36*
G01*
X138415000Y-97650000D02*
X138415000Y-98150000D01*
G75*
G02*
X138190000Y-98375000I-225000J0D01*
G01*
X137740000Y-98375000D01*
G75*
G02*
X137515000Y-98150000I0J225000D01*
G01*
X137515000Y-97650000D01*
G75*
G02*
X137740000Y-97425000I225000J0D01*
G01*
X138190000Y-97425000D01*
G75*
G02*
X138415000Y-97650000I0J-225000D01*
G01*
G37*
%TD*%
%TO.C,U2*%
G36*
G01*
X137305000Y-104386200D02*
X137305000Y-103963800D01*
G75*
G02*
X137333800Y-103935000I28800J0D01*
G01*
X138746200Y-103935000D01*
G75*
G02*
X138775000Y-103963800I0J-28800D01*
G01*
X138775000Y-104386200D01*
G75*
G02*
X138746200Y-104415000I-28800J0D01*
G01*
X137333800Y-104415000D01*
G75*
G02*
X137305000Y-104386200I0J28800D01*
G01*
G37*
G36*
G01*
X137305000Y-103736200D02*
X137305000Y-103313800D01*
G75*
G02*
X137333800Y-103285000I28800J0D01*
G01*
X138746200Y-103285000D01*
G75*
G02*
X138775000Y-103313800I0J-28800D01*
G01*
X138775000Y-103736200D01*
G75*
G02*
X138746200Y-103765000I-28800J0D01*
G01*
X137333800Y-103765000D01*
G75*
G02*
X137305000Y-103736200I0J28800D01*
G01*
G37*
G36*
G01*
X137305000Y-103086200D02*
X137305000Y-102663800D01*
G75*
G02*
X137333800Y-102635000I28800J0D01*
G01*
X138746200Y-102635000D01*
G75*
G02*
X138775000Y-102663800I0J-28800D01*
G01*
X138775000Y-103086200D01*
G75*
G02*
X138746200Y-103115000I-28800J0D01*
G01*
X137333800Y-103115000D01*
G75*
G02*
X137305000Y-103086200I0J28800D01*
G01*
G37*
G36*
G01*
X137305000Y-102436200D02*
X137305000Y-102013800D01*
G75*
G02*
X137333800Y-101985000I28800J0D01*
G01*
X138746200Y-101985000D01*
G75*
G02*
X138775000Y-102013800I0J-28800D01*
G01*
X138775000Y-102436200D01*
G75*
G02*
X138746200Y-102465000I-28800J0D01*
G01*
X137333800Y-102465000D01*
G75*
G02*
X137305000Y-102436200I0J28800D01*
G01*
G37*
G36*
G01*
X133005000Y-102436200D02*
X133005000Y-102013800D01*
G75*
G02*
X133033800Y-101985000I28800J0D01*
G01*
X134446200Y-101985000D01*
G75*
G02*
X134475000Y-102013800I0J-28800D01*
G01*
X134475000Y-102436200D01*
G75*
G02*
X134446200Y-102465000I-28800J0D01*
G01*
X133033800Y-102465000D01*
G75*
G02*
X133005000Y-102436200I0J28800D01*
G01*
G37*
G36*
G01*
X133005000Y-103086200D02*
X133005000Y-102663800D01*
G75*
G02*
X133033800Y-102635000I28800J0D01*
G01*
X134446200Y-102635000D01*
G75*
G02*
X134475000Y-102663800I0J-28800D01*
G01*
X134475000Y-103086200D01*
G75*
G02*
X134446200Y-103115000I-28800J0D01*
G01*
X133033800Y-103115000D01*
G75*
G02*
X133005000Y-103086200I0J28800D01*
G01*
G37*
G36*
G01*
X133005000Y-103736200D02*
X133005000Y-103313800D01*
G75*
G02*
X133033800Y-103285000I28800J0D01*
G01*
X134446200Y-103285000D01*
G75*
G02*
X134475000Y-103313800I0J-28800D01*
G01*
X134475000Y-103736200D01*
G75*
G02*
X134446200Y-103765000I-28800J0D01*
G01*
X133033800Y-103765000D01*
G75*
G02*
X133005000Y-103736200I0J28800D01*
G01*
G37*
G36*
G01*
X133005000Y-104386200D02*
X133005000Y-103963800D01*
G75*
G02*
X133033800Y-103935000I28800J0D01*
G01*
X134446200Y-103935000D01*
G75*
G02*
X134475000Y-103963800I0J-28800D01*
G01*
X134475000Y-104386200D01*
G75*
G02*
X134446200Y-104415000I-28800J0D01*
G01*
X133033800Y-104415000D01*
G75*
G02*
X133005000Y-104386200I0J28800D01*
G01*
G37*
%TD*%
%TO.C,U1*%
G36*
G01*
X137305000Y-96886200D02*
X137305000Y-96463800D01*
G75*
G02*
X137333800Y-96435000I28800J0D01*
G01*
X138746200Y-96435000D01*
G75*
G02*
X138775000Y-96463800I0J-28800D01*
G01*
X138775000Y-96886200D01*
G75*
G02*
X138746200Y-96915000I-28800J0D01*
G01*
X137333800Y-96915000D01*
G75*
G02*
X137305000Y-96886200I0J28800D01*
G01*
G37*
G36*
G01*
X137305000Y-96236200D02*
X137305000Y-95813800D01*
G75*
G02*
X137333800Y-95785000I28800J0D01*
G01*
X138746200Y-95785000D01*
G75*
G02*
X138775000Y-95813800I0J-28800D01*
G01*
X138775000Y-96236200D01*
G75*
G02*
X138746200Y-96265000I-28800J0D01*
G01*
X137333800Y-96265000D01*
G75*
G02*
X137305000Y-96236200I0J28800D01*
G01*
G37*
G36*
G01*
X137305000Y-95586200D02*
X137305000Y-95163800D01*
G75*
G02*
X137333800Y-95135000I28800J0D01*
G01*
X138746200Y-95135000D01*
G75*
G02*
X138775000Y-95163800I0J-28800D01*
G01*
X138775000Y-95586200D01*
G75*
G02*
X138746200Y-95615000I-28800J0D01*
G01*
X137333800Y-95615000D01*
G75*
G02*
X137305000Y-95586200I0J28800D01*
G01*
G37*
G36*
G01*
X137305000Y-94936200D02*
X137305000Y-94513800D01*
G75*
G02*
X137333800Y-94485000I28800J0D01*
G01*
X138746200Y-94485000D01*
G75*
G02*
X138775000Y-94513800I0J-28800D01*
G01*
X138775000Y-94936200D01*
G75*
G02*
X138746200Y-94965000I-28800J0D01*
G01*
X137333800Y-94965000D01*
G75*
G02*
X137305000Y-94936200I0J28800D01*
G01*
G37*
G36*
G01*
X133005000Y-94936200D02*
X133005000Y-94513800D01*
G75*
G02*
X133033800Y-94485000I28800J0D01*
G01*
X134446200Y-94485000D01*
G75*
G02*
X134475000Y-94513800I0J-28800D01*
G01*
X134475000Y-94936200D01*
G75*
G02*
X134446200Y-94965000I-28800J0D01*
G01*
X133033800Y-94965000D01*
G75*
G02*
X133005000Y-94936200I0J28800D01*
G01*
G37*
G36*
G01*
X133005000Y-95586200D02*
X133005000Y-95163800D01*
G75*
G02*
X133033800Y-95135000I28800J0D01*
G01*
X134446200Y-95135000D01*
G75*
G02*
X134475000Y-95163800I0J-28800D01*
G01*
X134475000Y-95586200D01*
G75*
G02*
X134446200Y-95615000I-28800J0D01*
G01*
X133033800Y-95615000D01*
G75*
G02*
X133005000Y-95586200I0J28800D01*
G01*
G37*
G36*
G01*
X133005000Y-96236200D02*
X133005000Y-95813800D01*
G75*
G02*
X133033800Y-95785000I28800J0D01*
G01*
X134446200Y-95785000D01*
G75*
G02*
X134475000Y-95813800I0J-28800D01*
G01*
X134475000Y-96236200D01*
G75*
G02*
X134446200Y-96265000I-28800J0D01*
G01*
X133033800Y-96265000D01*
G75*
G02*
X133005000Y-96236200I0J28800D01*
G01*
G37*
G36*
G01*
X133005000Y-96886200D02*
X133005000Y-96463800D01*
G75*
G02*
X133033800Y-96435000I28800J0D01*
G01*
X134446200Y-96435000D01*
G75*
G02*
X134475000Y-96463800I0J-28800D01*
G01*
X134475000Y-96886200D01*
G75*
G02*
X134446200Y-96915000I-28800J0D01*
G01*
X133033800Y-96915000D01*
G75*
G02*
X133005000Y-96886200I0J28800D01*
G01*
G37*
%TD*%
M02*
