%TF.GenerationSoftware,KiCad,Pcbnew,(6.0.0)*%
%TF.CreationDate,2022-01-13T21:59:04+08:00*%
%TF.ProjectId,WirelessPowerP40_Receiver,57697265-6c65-4737-9350-6f7765725034,rev?*%
%TF.SameCoordinates,Original*%
%TF.FileFunction,Copper,L3,Inr*%
%TF.FilePolarity,Positive*%
%FSLAX46Y46*%
G04 Gerber Fmt 4.6, Leading zero omitted, Abs format (unit mm)*
G04 Created by KiCad (PCBNEW (6.0.0)) date 2022-01-13 21:59:04*
%MOMM*%
%LPD*%
G01*
G04 APERTURE LIST*
G04 Aperture macros list*
%AMRoundRect*
0 Rectangle with rounded corners*
0 $1 Rounding radius*
0 $2 $3 $4 $5 $6 $7 $8 $9 X,Y pos of 4 corners*
0 Add a 4 corners polygon primitive as box body*
4,1,4,$2,$3,$4,$5,$6,$7,$8,$9,$2,$3,0*
0 Add four circle primitives for the rounded corners*
1,1,$1+$1,$2,$3*
1,1,$1+$1,$4,$5*
1,1,$1+$1,$6,$7*
1,1,$1+$1,$8,$9*
0 Add four rect primitives between the rounded corners*
20,1,$1+$1,$2,$3,$4,$5,0*
20,1,$1+$1,$4,$5,$6,$7,0*
20,1,$1+$1,$6,$7,$8,$9,0*
20,1,$1+$1,$8,$9,$2,$3,0*%
G04 Aperture macros list end*
%TA.AperFunction,ComponentPad*%
%ADD10R,1.350000X1.350000*%
%TD*%
%TA.AperFunction,ComponentPad*%
%ADD11O,1.350000X1.350000*%
%TD*%
%TA.AperFunction,ComponentPad*%
%ADD12C,0.700000*%
%TD*%
%TA.AperFunction,ComponentPad*%
%ADD13C,4.400000*%
%TD*%
%TA.AperFunction,ComponentPad*%
%ADD14C,3.200000*%
%TD*%
%TA.AperFunction,ComponentPad*%
%ADD15RoundRect,0.352940X-1.447060X1.447060X-1.447060X-1.447060X1.447060X-1.447060X1.447060X1.447060X0*%
%TD*%
%TA.AperFunction,ComponentPad*%
%ADD16C,3.600000*%
%TD*%
%TA.AperFunction,ViaPad*%
%ADD17C,0.450000*%
%TD*%
%TA.AperFunction,Conductor*%
%ADD18C,0.250000*%
%TD*%
%TA.AperFunction,Conductor*%
%ADD19C,0.500000*%
%TD*%
%TA.AperFunction,Conductor*%
%ADD20C,0.400000*%
%TD*%
%TA.AperFunction,Conductor*%
%ADD21C,0.300000*%
%TD*%
G04 APERTURE END LIST*
D10*
%TO.N,+3V3*%
%TO.C,J3*%
X139700000Y-71175000D03*
D11*
%TO.N,Net-(J3-Pad2)*%
X141700000Y-71175000D03*
%TO.N,Net-(J3-Pad3)*%
X143700000Y-71175000D03*
%TO.N,GND*%
X145700000Y-71175000D03*
%TD*%
D12*
%TO.N,N/C*%
%TO.C,H3*%
X111800000Y-116850000D03*
X111800000Y-120150000D03*
X112966726Y-119666726D03*
X110633274Y-117333274D03*
D13*
X111800000Y-118500000D03*
D12*
X110633274Y-119666726D03*
X112966726Y-117333274D03*
X110150000Y-118500000D03*
X113450000Y-118500000D03*
%TD*%
D10*
%TO.N,Net-(J6-Pad1)*%
%TO.C,J6*%
X114200000Y-76800000D03*
D11*
%TO.N,+5V*%
X112200000Y-76800000D03*
%TD*%
D12*
%TO.N,N/C*%
%TO.C,H1*%
X157633274Y-72666726D03*
X158800000Y-69850000D03*
X157633274Y-70333274D03*
D13*
X158800000Y-71500000D03*
D12*
X159966726Y-70333274D03*
X157150000Y-71500000D03*
X158800000Y-73150000D03*
X159966726Y-72666726D03*
X160450000Y-71500000D03*
%TD*%
%TO.N,N/C*%
%TO.C,H2*%
X157533274Y-119666726D03*
X158700000Y-120150000D03*
X160350000Y-118500000D03*
X159866726Y-117333274D03*
X157050000Y-118500000D03*
D13*
X158700000Y-118500000D03*
D12*
X157533274Y-117333274D03*
X159866726Y-119666726D03*
X158700000Y-116850000D03*
%TD*%
D14*
%TO.N,COIL-*%
%TO.C,J5*%
X132800000Y-117300000D03*
%TO.N,VAC1*%
X137800000Y-117300000D03*
%TD*%
D10*
%TO.N,Net-(J6-Pad1)*%
%TO.C,J7*%
X114200000Y-81456977D03*
D11*
%TO.N,+5V*%
X112200000Y-81456977D03*
%TD*%
D15*
%TO.N,GND*%
%TO.C,J4*%
X156120000Y-98630000D03*
D16*
X156120000Y-103430000D03*
%TO.N,VDC*%
X156120000Y-108230000D03*
X156120000Y-113030000D03*
%TD*%
D10*
%TO.N,+3V3*%
%TO.C,J2*%
X148725000Y-71175000D03*
D11*
%TO.N,Net-(J2-Pad2)*%
X150725000Y-71175000D03*
%TO.N,Net-(J2-Pad3)*%
X152725000Y-71175000D03*
%TO.N,GND*%
X154725000Y-71175000D03*
%TD*%
D10*
%TO.N,GND*%
%TO.C,J1*%
X159130000Y-86900000D03*
D11*
%TO.N,TEMP*%
X159130000Y-84900000D03*
%TD*%
D12*
%TO.N,N/C*%
%TO.C,H4*%
X110633274Y-72666726D03*
D13*
X111800000Y-71500000D03*
D12*
X110633274Y-70333274D03*
X110150000Y-71500000D03*
X113450000Y-71500000D03*
X112966726Y-72666726D03*
X111800000Y-69850000D03*
X111800000Y-73150000D03*
X112966726Y-70333274D03*
%TD*%
D17*
%TO.N,GND*%
X109510000Y-113740000D03*
X148975000Y-79125000D03*
X136660000Y-69190000D03*
X109510000Y-90740000D03*
X138000000Y-84000000D03*
X109510000Y-86740000D03*
X132500000Y-91600000D03*
X109510000Y-108740000D03*
X109510000Y-109740000D03*
X116660000Y-69190000D03*
X147660000Y-69190000D03*
X161110000Y-79740000D03*
X123100000Y-110610000D03*
X126160000Y-111130000D03*
X143325000Y-118850000D03*
X116225000Y-118850000D03*
X161110000Y-105740000D03*
X134000000Y-74000000D03*
X161110000Y-111740000D03*
X148175000Y-77525000D03*
X151105000Y-86735000D03*
X122660000Y-69190000D03*
X127877500Y-82447500D03*
X161110000Y-115740000D03*
X129820000Y-111060000D03*
X161110000Y-85740000D03*
X132220000Y-111060000D03*
X125660000Y-69190000D03*
X161110000Y-77740000D03*
X153660000Y-69190000D03*
X128660000Y-69190000D03*
X161110000Y-94740000D03*
X145775000Y-95059998D03*
X151660000Y-69190000D03*
X161110000Y-96740000D03*
X130277500Y-82447500D03*
X127877500Y-81647500D03*
X143265000Y-89439998D03*
X128677500Y-81647501D03*
X109510000Y-112740000D03*
X122700000Y-72700000D03*
X161110000Y-78740000D03*
X109510000Y-107740000D03*
X119300000Y-76900000D03*
X109510000Y-98740000D03*
X138000000Y-85000000D03*
X133000000Y-73000000D03*
X147895000Y-86735000D03*
X109510000Y-83740000D03*
X118225000Y-118850000D03*
X147895000Y-85155000D03*
X137660000Y-69190000D03*
X109510000Y-81740000D03*
X161110000Y-102740000D03*
X137000000Y-73000000D03*
X161110000Y-76740000D03*
X109510000Y-104740000D03*
X133660000Y-69190000D03*
X136000000Y-73000000D03*
X138660000Y-69190000D03*
X109510000Y-79740000D03*
X119800000Y-77420000D03*
X115000000Y-89330000D03*
X122500000Y-92100000D03*
X131620000Y-111060000D03*
X139000000Y-84000000D03*
X109510000Y-73740000D03*
X109510000Y-99740000D03*
X126640000Y-111540000D03*
X130277500Y-80847500D03*
X147375000Y-79125000D03*
X154660000Y-69190000D03*
X122170000Y-110610000D03*
X122650000Y-110200000D03*
X130420000Y-111060000D03*
X148975000Y-78325000D03*
X136000000Y-74000000D03*
X124800000Y-81770000D03*
X147375000Y-78325000D03*
X161110000Y-82740000D03*
X122170000Y-109790000D03*
X129477500Y-80047500D03*
X129477500Y-82447501D03*
X139570000Y-119840000D03*
X113660000Y-69190000D03*
X124225000Y-118850000D03*
X131070000Y-119840000D03*
X152325000Y-118850000D03*
X123660000Y-69190000D03*
X149775000Y-77525000D03*
X109510000Y-94740000D03*
X119570000Y-85930000D03*
X140660000Y-69190000D03*
X128677500Y-80847500D03*
X117512436Y-94770742D03*
X116532436Y-94770742D03*
X156660000Y-69190000D03*
X138095000Y-95530000D03*
X129740000Y-84770000D03*
X127877500Y-80047500D03*
X119800000Y-76370000D03*
X123100000Y-109790000D03*
X147375000Y-79925000D03*
X161110000Y-114740000D03*
X131020000Y-111060000D03*
X109510000Y-110740000D03*
X135000000Y-73000000D03*
X118800000Y-77420000D03*
X117025000Y-94275000D03*
X142825000Y-97075000D03*
X109510000Y-75740000D03*
X148975000Y-77525000D03*
X109510000Y-101740000D03*
X161110000Y-101740000D03*
X155325000Y-118850000D03*
X155080000Y-82370000D03*
X150660000Y-69190000D03*
X109510000Y-80740000D03*
X161110000Y-116740000D03*
X161110000Y-113740000D03*
X139660000Y-69190000D03*
X121200000Y-100900000D03*
X109510000Y-84740000D03*
X161110000Y-74740000D03*
X143725000Y-97050000D03*
X120660000Y-69190000D03*
X116532436Y-93800742D03*
X134170000Y-119840000D03*
X141660000Y-69190000D03*
X146325000Y-118850000D03*
X123225000Y-118850000D03*
X161110000Y-99740000D03*
X161110000Y-112740000D03*
X109510000Y-76740000D03*
X143660000Y-69190000D03*
X109510000Y-102740000D03*
X153325000Y-118850000D03*
X109510000Y-93740000D03*
X117225000Y-118850000D03*
X127090000Y-111130000D03*
X109510000Y-87740000D03*
X109510000Y-92740000D03*
X146660000Y-69190000D03*
X161110000Y-90740000D03*
X161110000Y-88740000D03*
X161110000Y-87740000D03*
X134660000Y-69190000D03*
X149775000Y-78325000D03*
X109510000Y-88740000D03*
X120225000Y-118850000D03*
X141325000Y-118850000D03*
X149775000Y-79925000D03*
X130277500Y-80047500D03*
X109510000Y-85740000D03*
X161110000Y-106740000D03*
X127225000Y-118850000D03*
X142325000Y-118850000D03*
X150325000Y-118850000D03*
X161110000Y-73740000D03*
X151105000Y-85145000D03*
X132170000Y-119840000D03*
X109510000Y-114740000D03*
X118800000Y-76370000D03*
X161110000Y-97740000D03*
X130660000Y-69190000D03*
X149660000Y-69190000D03*
X109510000Y-74740000D03*
X161110000Y-92740000D03*
X138570000Y-119840000D03*
X148660000Y-69190000D03*
X124660000Y-69190000D03*
X161110000Y-100740000D03*
X129225000Y-118850000D03*
X161110000Y-84740000D03*
X145275000Y-95579998D03*
X126225000Y-118850000D03*
X119500000Y-100900000D03*
X109510000Y-97740000D03*
X128677500Y-80047500D03*
X161110000Y-98740000D03*
X136370000Y-119840000D03*
X145325000Y-118850000D03*
X129477500Y-80847500D03*
X161110000Y-86740000D03*
X144660000Y-69190000D03*
X145660000Y-69190000D03*
X109510000Y-106740000D03*
X147325000Y-118850000D03*
X161110000Y-108740000D03*
X145275000Y-94529998D03*
X148175000Y-78325000D03*
X114660000Y-69190000D03*
X122500000Y-92900000D03*
X109510000Y-103740000D03*
X149775000Y-79125000D03*
X148175000Y-79125000D03*
X161110000Y-109740000D03*
X130700000Y-91600000D03*
X109510000Y-82740000D03*
X134000000Y-73000000D03*
X161110000Y-110740000D03*
X161110000Y-89740000D03*
X133000000Y-74000000D03*
X127090000Y-111950000D03*
X139000000Y-85000000D03*
X109510000Y-89740000D03*
X127877500Y-80847500D03*
X131660000Y-69190000D03*
X130277500Y-81647501D03*
X161110000Y-107740000D03*
X146275000Y-94529998D03*
X151325000Y-118850000D03*
X128677500Y-82447500D03*
X147375000Y-77525000D03*
X154325000Y-118850000D03*
X122225000Y-118850000D03*
X161110000Y-104740000D03*
X129477500Y-81647500D03*
X109510000Y-77740000D03*
X126660000Y-69190000D03*
X138095000Y-94823750D03*
X144325000Y-118850000D03*
X132660000Y-69190000D03*
X118660000Y-69190000D03*
X117660000Y-69190000D03*
X135660000Y-69190000D03*
X146845000Y-85155000D03*
X109510000Y-105740000D03*
X148175000Y-79925000D03*
X137000000Y-74000000D03*
X109510000Y-95740000D03*
X140270000Y-119140000D03*
X155660000Y-69190000D03*
X152660000Y-69190000D03*
X129660000Y-69190000D03*
X109510000Y-115740000D03*
X148975000Y-79925000D03*
X117522436Y-93800741D03*
X115660000Y-69190000D03*
X135270000Y-119840000D03*
X127660000Y-69190000D03*
X147540000Y-92320000D03*
X119840000Y-91790000D03*
X109510000Y-116740000D03*
X161110000Y-83740000D03*
X119500000Y-98100000D03*
X109510000Y-100740000D03*
X161110000Y-75740000D03*
X146275000Y-95579998D03*
X145860000Y-76330000D03*
X130370000Y-119140000D03*
X142660000Y-69190000D03*
X109510000Y-91740000D03*
X161110000Y-103740000D03*
X161110000Y-81740000D03*
X126160000Y-111950000D03*
X145815000Y-85155000D03*
X138095000Y-96236250D03*
X161110000Y-93740000D03*
X161110000Y-95740000D03*
X161110000Y-80740000D03*
X125225000Y-118850000D03*
X137470000Y-119840000D03*
X119830000Y-72040000D03*
X109510000Y-96740000D03*
X121225000Y-118850000D03*
X115225000Y-118850000D03*
X133170000Y-119840000D03*
X121660000Y-69190000D03*
X119225000Y-118850000D03*
X119660000Y-69190000D03*
X161110000Y-91740000D03*
X109510000Y-111740000D03*
X129247499Y-87730000D03*
X149325000Y-118850000D03*
X109510000Y-78740000D03*
X148770000Y-89410000D03*
X128225000Y-118850000D03*
X148325000Y-118850000D03*
X135000000Y-74000000D03*
X115180000Y-99770000D03*
%TO.N,COIL-*%
X152140000Y-88620000D03*
%TO.N,VDDA*%
X156800000Y-80670000D03*
X123270000Y-75060000D03*
X152720000Y-79590000D03*
%TO.N,VCC*%
X114690000Y-94270000D03*
X119525000Y-94025000D03*
%TO.N,+5V*%
X129260000Y-85540000D03*
X116700000Y-72190000D03*
X120300000Y-79300000D03*
X117475000Y-85950000D03*
X147540000Y-98340000D03*
X130430000Y-77260000D03*
X118800000Y-79350000D03*
X117009258Y-99190742D03*
X146850000Y-98340000D03*
X144975000Y-92269997D03*
%TO.N,HT*%
X123121425Y-94115000D03*
X110462436Y-94460742D03*
X147765000Y-89439998D03*
X111022436Y-94460742D03*
X144465001Y-93539998D03*
X123121425Y-94640000D03*
X135290000Y-93380000D03*
%TO.N,VAC1*%
X126600000Y-106500000D03*
X127200000Y-106800000D03*
X126600000Y-107200000D03*
X126610000Y-90670000D03*
X127200000Y-107500000D03*
X127800000Y-107200000D03*
X126600000Y-105800000D03*
X127200000Y-106100000D03*
X127800000Y-105800000D03*
X127800000Y-107900000D03*
X127200000Y-105400000D03*
X111520000Y-115080000D03*
X127200000Y-108200000D03*
X126600000Y-107900000D03*
X127800000Y-106500000D03*
X126625000Y-103675000D03*
%TO.N,+3V3*%
X154475000Y-75285000D03*
X152220000Y-79140000D03*
X127280000Y-75020000D03*
X122710000Y-88060000D03*
%TO.N,ISENSE*%
X121520000Y-83560000D03*
X126000000Y-79100000D03*
X116650000Y-102740000D03*
%TO.N,Net-(C37-Pad2)*%
X133075000Y-87600000D03*
X124100000Y-103675000D03*
%TO.N,VACC_MID*%
X123170000Y-83570000D03*
X120350000Y-102730000D03*
%TO.N,Net-(R26-Pad2)*%
X128690000Y-90640000D03*
X127900000Y-110960000D03*
%TO.N,PWM1_L*%
X133330000Y-82640000D03*
X149380000Y-74430000D03*
%TO.N,PWM1_H*%
X133300000Y-80610000D03*
X150470000Y-73780000D03*
%TO.N,PWM2_L*%
X133290000Y-79720000D03*
X145040000Y-73570000D03*
%TO.N,PWM2_H*%
X144840000Y-75760000D03*
X133310000Y-81610000D03*
X128920000Y-77710000D03*
%TO.N,AC_I_2*%
X133310000Y-78540000D03*
X147100000Y-82480000D03*
%TO.N,VDC*%
X149860000Y-89430000D03*
X146780000Y-89430000D03*
X149050000Y-104170000D03*
%TO.N,Net-(R24-Pad2)*%
X127910000Y-102370000D03*
X127900000Y-90660000D03*
%TO.N,Net-(D3-Pad3)*%
X135710000Y-104030000D03*
X142360002Y-95839998D03*
X149150000Y-93339999D03*
X151425000Y-95739998D03*
%TO.N,Net-(J2-Pad2)*%
X152410000Y-76260000D03*
%TO.N,Net-(J3-Pad2)*%
X145190000Y-81120000D03*
%TO.N,Net-(J3-Pad3)*%
X146117500Y-81190000D03*
%TO.N,Net-(NCP15XW153J03RC1-Pad1)*%
X135090000Y-98930000D03*
X118300000Y-72400000D03*
%TO.N,EN_MOD*%
X112670000Y-105420000D03*
X148690000Y-74490000D03*
%TO.N,MIN_LD*%
X144490000Y-80440000D03*
X142680000Y-84150000D03*
%TO.N,Net-(Q5-Pad4)*%
X140305000Y-94549998D03*
X133570000Y-102510000D03*
%TO.N,Net-(Q6-Pad4)*%
X140280000Y-97649999D03*
X133555000Y-111050000D03*
%TO.N,Net-(R10-Pad2)*%
X130980000Y-89980000D03*
X125360000Y-102380000D03*
%TO.N,Net-(R12-Pad2)*%
X130060000Y-89320000D03*
X125350000Y-110970000D03*
%TO.N,AC_I_1*%
X128200000Y-77820000D03*
X149425000Y-82165000D03*
X132390000Y-75387500D03*
%TO.N,EN_GAIN*%
X142180000Y-79990000D03*
X125640000Y-81010000D03*
%TO.N,Net-(R49-Pad1)*%
X135420000Y-80050000D03*
X150430000Y-75280000D03*
%TO.N,Net-(R51-Pad1)*%
X147560000Y-75270000D03*
X135450000Y-82130000D03*
%TO.N,EN_LOAD*%
X148030000Y-74730000D03*
X148410000Y-95200000D03*
%TO.N,EN_DRV*%
X152610000Y-77030000D03*
X125610000Y-83520000D03*
%TD*%
D18*
%TO.N,COIL-*%
X152130000Y-96270000D02*
X151290000Y-97110000D01*
X151290000Y-97110000D02*
X145290000Y-97110000D01*
X152130000Y-88630000D02*
X152130000Y-96270000D01*
X134640000Y-107760000D02*
X134640000Y-115460000D01*
X152140000Y-88620000D02*
X152130000Y-88630000D01*
X134640000Y-115460000D02*
X132800000Y-117300000D01*
X145290000Y-97110000D02*
X134640000Y-107760000D01*
%TO.N,VDDA*%
X155720000Y-79590000D02*
X156800000Y-80670000D01*
X152720000Y-79590000D02*
X155720000Y-79590000D01*
D19*
%TO.N,+5V*%
X117475000Y-85950000D02*
X118600000Y-87075000D01*
D20*
X112200000Y-78360000D02*
X113210000Y-79370000D01*
D19*
X118600000Y-87075000D02*
X118600000Y-97600000D01*
D20*
X113210000Y-79370000D02*
X120230000Y-79370000D01*
X120230000Y-79370000D02*
X120300000Y-79300000D01*
X115400000Y-72190000D02*
X116700000Y-72190000D01*
X112200000Y-76800000D02*
X112200000Y-78360000D01*
X112200000Y-76800000D02*
X112200000Y-75390000D01*
X112200000Y-75390000D02*
X115400000Y-72190000D01*
D19*
X118600000Y-97600000D02*
X117009258Y-99190742D01*
D18*
%TO.N,VAC1*%
X126625000Y-90685000D02*
X126610000Y-90670000D01*
X126625000Y-103675000D02*
X126625000Y-90685000D01*
%TO.N,+3V3*%
X126670000Y-75630000D02*
X127280000Y-75020000D01*
X126670000Y-84100000D02*
X126670000Y-75630000D01*
D19*
X154475000Y-76885000D02*
X152220000Y-79140000D01*
X127290000Y-75020000D02*
X131135000Y-71175000D01*
X131135000Y-71175000D02*
X139700000Y-71175000D01*
X154475000Y-75285000D02*
X154475000Y-76885000D01*
D18*
X122710000Y-88060000D02*
X126670000Y-84100000D01*
%TO.N,ISENSE*%
X116650000Y-102740000D02*
X116650000Y-102670000D01*
X125980000Y-79100000D02*
X121520000Y-83560000D01*
X120740000Y-84340000D02*
X121520000Y-83560000D01*
X120740000Y-98580000D02*
X120740000Y-84340000D01*
X126000000Y-79100000D02*
X125980000Y-79100000D01*
X116650000Y-102670000D02*
X120740000Y-98580000D01*
%TO.N,Net-(C37-Pad2)*%
X124100000Y-103675000D02*
X124100000Y-90170000D01*
X125540000Y-88730000D02*
X131945000Y-88730000D01*
X131945000Y-88730000D02*
X133075000Y-87600000D01*
X124100000Y-90170000D02*
X125540000Y-88730000D01*
%TO.N,VACC_MID*%
X121440000Y-85300000D02*
X123170000Y-83570000D01*
X121440000Y-98930000D02*
X121440000Y-85300000D01*
X120350000Y-100020000D02*
X121440000Y-98930000D01*
X120350000Y-102730000D02*
X120350000Y-100020000D01*
D21*
%TO.N,Net-(R26-Pad2)*%
X128675000Y-110185000D02*
X127900000Y-110960000D01*
X128675000Y-90655000D02*
X128675000Y-110185000D01*
D18*
X128690000Y-90640000D02*
X128675000Y-90655000D01*
%TO.N,PWM2_H*%
X133270000Y-81610000D02*
X133310000Y-81610000D01*
X128920000Y-77710000D02*
X129370000Y-77710000D01*
X129370000Y-77710000D02*
X133270000Y-81610000D01*
%TO.N,AC_I_2*%
X147090000Y-82490000D02*
X139670000Y-82490000D01*
X135720000Y-78540000D02*
X133310000Y-78540000D01*
X139670000Y-82490000D02*
X135720000Y-78540000D01*
X147100000Y-82480000D02*
X147090000Y-82490000D01*
%TO.N,Net-(R24-Pad2)*%
X127910000Y-90670000D02*
X127910000Y-102370000D01*
X127900000Y-90660000D02*
X127910000Y-90670000D01*
%TO.N,Net-(D3-Pad3)*%
X150864998Y-96300000D02*
X151425000Y-95739998D01*
X150514999Y-93339999D02*
X151425000Y-94250000D01*
X141540000Y-96660000D02*
X142360002Y-95839998D01*
X135710000Y-104030000D02*
X141540000Y-98200000D01*
X144250000Y-96300000D02*
X150864998Y-96300000D01*
X142360002Y-95839998D02*
X143789998Y-95839998D01*
X149150000Y-93339999D02*
X150514999Y-93339999D01*
X141540000Y-98200000D02*
X141540000Y-96660000D01*
X151425000Y-94250000D02*
X151425000Y-95739998D01*
X143789998Y-95839998D02*
X144250000Y-96300000D01*
%TO.N,Net-(J3-Pad2)*%
X142431756Y-71906756D02*
X141700000Y-71175000D01*
X145190000Y-81120000D02*
X145190000Y-80100000D01*
X145190000Y-80100000D02*
X142431756Y-77341756D01*
X142431756Y-77341756D02*
X142431756Y-71906756D01*
%TO.N,Net-(J3-Pad3)*%
X142980000Y-71895000D02*
X143700000Y-71175000D01*
X146117500Y-81190000D02*
X146117500Y-80197500D01*
X146117500Y-80197500D02*
X142980000Y-77060000D01*
X142980000Y-77060000D02*
X142980000Y-71895000D01*
D21*
%TO.N,EN_MOD*%
X148690000Y-74490000D02*
X147280000Y-73080000D01*
X147280000Y-73080000D02*
X147280000Y-70640000D01*
D19*
X124730000Y-76030000D02*
X124730000Y-76700000D01*
D21*
X147280000Y-70640000D02*
X146570000Y-69930000D01*
X146570000Y-69930000D02*
X131840000Y-69930000D01*
D19*
X112670000Y-88760000D02*
X112670000Y-105420000D01*
X124730000Y-76700000D02*
X112670000Y-88760000D01*
X131840000Y-69930000D02*
X130830000Y-69930000D01*
X130830000Y-69930000D02*
X124730000Y-76030000D01*
D18*
%TO.N,Net-(Q5-Pad4)*%
X133570000Y-102510000D02*
X140305000Y-95775000D01*
X140305000Y-95775000D02*
X140305000Y-94549998D01*
%TO.N,Net-(Q6-Pad4)*%
X140270000Y-97649999D02*
X133570000Y-104349999D01*
D20*
X133565000Y-111040000D02*
X133555000Y-111050000D01*
D18*
X133570000Y-111035000D02*
X133565000Y-111040000D01*
X133570000Y-104349999D02*
X133570000Y-111035000D01*
%TO.N,Net-(R10-Pad2)*%
X125360000Y-90640000D02*
X125360000Y-102380000D01*
X126020000Y-89980000D02*
X125360000Y-90640000D01*
X130980000Y-89980000D02*
X126020000Y-89980000D01*
%TO.N,Net-(R12-Pad2)*%
X124725000Y-90435000D02*
X124725000Y-110345000D01*
X124725000Y-110345000D02*
X125350000Y-110970000D01*
X130030000Y-89350000D02*
X125810000Y-89350000D01*
X125810000Y-89350000D02*
X124725000Y-90435000D01*
X130060000Y-89320000D02*
X130030000Y-89350000D01*
%TO.N,AC_I_1*%
X147090000Y-81600000D02*
X146820000Y-81870000D01*
X148860000Y-81600000D02*
X147090000Y-81600000D01*
X128200000Y-77820000D02*
X128200000Y-77360000D01*
X149425000Y-82165000D02*
X148860000Y-81600000D01*
X133427500Y-75387500D02*
X132390000Y-75387500D01*
X130172500Y-75387500D02*
X132390000Y-75387500D01*
X146820000Y-81870000D02*
X139910000Y-81870000D01*
X128200000Y-77360000D02*
X130172500Y-75387500D01*
X139910000Y-81870000D02*
X133427500Y-75387500D01*
D21*
%TO.N,EN_LOAD*%
X150290000Y-80910000D02*
X150290000Y-87280000D01*
X150800000Y-77500000D02*
X150800000Y-80400000D01*
X150290000Y-87280000D02*
X150690000Y-87680000D01*
X150690000Y-87680000D02*
X150690000Y-90320000D01*
X150690000Y-90320000D02*
X148410000Y-92600000D01*
X148410000Y-92600000D02*
X148410000Y-95200000D01*
X148030000Y-74730000D02*
X150800000Y-77500000D01*
X150800000Y-80400000D02*
X150290000Y-80910000D01*
%TD*%
%TA.AperFunction,Conductor*%
%TO.N,GND*%
G36*
X157783687Y-68800000D02*
G01*
X157870030Y-68819707D01*
X157939271Y-68874926D01*
X157977698Y-68954718D01*
X157977698Y-69043282D01*
X157939271Y-69123074D01*
X157870030Y-69178293D01*
X157856943Y-69184026D01*
X157739052Y-69230702D01*
X157739045Y-69230705D01*
X157733234Y-69233006D01*
X157457516Y-69384584D01*
X157452460Y-69388257D01*
X157452459Y-69388258D01*
X157208029Y-69565846D01*
X157208025Y-69565850D01*
X157202970Y-69569522D01*
X157198413Y-69573802D01*
X157198411Y-69573803D01*
X157129313Y-69638691D01*
X156973610Y-69784906D01*
X156969636Y-69789709D01*
X156969631Y-69789715D01*
X156921632Y-69847736D01*
X156773053Y-70027337D01*
X156604463Y-70292993D01*
X156601803Y-70298645D01*
X156601799Y-70298653D01*
X156482205Y-70552804D01*
X156470497Y-70577685D01*
X156468563Y-70583636D01*
X156468563Y-70583637D01*
X156384192Y-70843305D01*
X156373269Y-70876921D01*
X156372098Y-70883062D01*
X156372097Y-70883064D01*
X156317463Y-71169469D01*
X156314312Y-71185985D01*
X156294556Y-71500000D01*
X156294949Y-71506247D01*
X156312957Y-71792470D01*
X156314312Y-71814015D01*
X156315483Y-71820155D01*
X156315484Y-71820161D01*
X156369831Y-72105057D01*
X156373269Y-72123079D01*
X156375200Y-72129022D01*
X156375201Y-72129026D01*
X156463246Y-72400000D01*
X156470497Y-72422315D01*
X156473158Y-72427970D01*
X156473160Y-72427975D01*
X156601799Y-72701347D01*
X156601803Y-72701355D01*
X156604463Y-72707007D01*
X156773053Y-72972663D01*
X156777036Y-72977477D01*
X156777037Y-72977479D01*
X156969631Y-73210285D01*
X156969636Y-73210291D01*
X156973610Y-73215094D01*
X156978158Y-73219365D01*
X156978160Y-73219367D01*
X157192629Y-73420767D01*
X157202970Y-73430478D01*
X157208025Y-73434150D01*
X157208029Y-73434154D01*
X157452459Y-73611742D01*
X157457516Y-73615416D01*
X157733234Y-73766994D01*
X158025775Y-73882819D01*
X158092554Y-73899965D01*
X158324465Y-73959510D01*
X158324472Y-73959511D01*
X158330527Y-73961066D01*
X158642682Y-74000500D01*
X158957318Y-74000500D01*
X159269473Y-73961066D01*
X159275528Y-73959511D01*
X159275535Y-73959510D01*
X159507446Y-73899965D01*
X159574225Y-73882819D01*
X159866766Y-73766994D01*
X160142484Y-73615416D01*
X160147541Y-73611742D01*
X160391971Y-73434154D01*
X160391975Y-73434150D01*
X160397030Y-73430478D01*
X160407371Y-73420767D01*
X160621840Y-73219367D01*
X160621842Y-73219365D01*
X160626390Y-73215094D01*
X160630364Y-73210291D01*
X160630369Y-73210285D01*
X160822963Y-72977479D01*
X160822964Y-72977477D01*
X160826947Y-72972663D01*
X160995537Y-72707007D01*
X160998197Y-72701355D01*
X160998201Y-72701347D01*
X161109246Y-72465364D01*
X161120939Y-72440513D01*
X161175534Y-72370780D01*
X161254979Y-72331639D01*
X161343538Y-72330844D01*
X161423673Y-72368552D01*
X161479511Y-72437295D01*
X161500000Y-72525244D01*
X161500000Y-117769289D01*
X161480293Y-117855632D01*
X161425074Y-117924873D01*
X161345282Y-117963300D01*
X161256718Y-117963300D01*
X161176926Y-117924873D01*
X161121707Y-117855632D01*
X161111740Y-117830783D01*
X161031439Y-117583641D01*
X161031435Y-117583630D01*
X161029503Y-117577685D01*
X161000480Y-117516007D01*
X160898201Y-117298653D01*
X160898197Y-117298645D01*
X160895537Y-117292993D01*
X160726947Y-117027337D01*
X160722963Y-117022521D01*
X160530369Y-116789715D01*
X160530364Y-116789709D01*
X160526390Y-116784906D01*
X160508838Y-116768423D01*
X160301589Y-116573803D01*
X160301587Y-116573802D01*
X160297030Y-116569522D01*
X160291975Y-116565850D01*
X160291971Y-116565846D01*
X160047541Y-116388258D01*
X160047540Y-116388257D01*
X160042484Y-116384584D01*
X159766766Y-116233006D01*
X159474225Y-116117181D01*
X159387784Y-116094987D01*
X159175535Y-116040490D01*
X159175528Y-116040489D01*
X159169473Y-116038934D01*
X158857318Y-115999500D01*
X158542682Y-115999500D01*
X158230527Y-116038934D01*
X158224472Y-116040489D01*
X158224465Y-116040490D01*
X158012216Y-116094987D01*
X157925775Y-116117181D01*
X157633234Y-116233006D01*
X157357516Y-116384584D01*
X157352460Y-116388257D01*
X157352459Y-116388258D01*
X157108029Y-116565846D01*
X157108025Y-116565850D01*
X157102970Y-116569522D01*
X157098413Y-116573802D01*
X157098411Y-116573803D01*
X156891163Y-116768423D01*
X156873610Y-116784906D01*
X156869636Y-116789709D01*
X156869631Y-116789715D01*
X156677037Y-117022521D01*
X156673053Y-117027337D01*
X156504463Y-117292993D01*
X156501803Y-117298645D01*
X156501799Y-117298653D01*
X156399520Y-117516007D01*
X156370497Y-117577685D01*
X156368563Y-117583636D01*
X156368563Y-117583637D01*
X156309013Y-117766914D01*
X156273269Y-117876921D01*
X156272098Y-117883062D01*
X156272097Y-117883064D01*
X156245505Y-118022467D01*
X156214312Y-118185985D01*
X156194556Y-118500000D01*
X156214312Y-118814015D01*
X156215483Y-118820155D01*
X156215484Y-118820161D01*
X156269020Y-119100806D01*
X156273269Y-119123079D01*
X156275200Y-119129021D01*
X156275201Y-119129026D01*
X156291039Y-119177769D01*
X156298978Y-119265976D01*
X156267859Y-119348892D01*
X156203846Y-119410095D01*
X156119618Y-119437463D01*
X156054732Y-119432623D01*
X156047333Y-119430823D01*
X156034280Y-119425615D01*
X156028007Y-119425000D01*
X156015151Y-119425000D01*
X156012154Y-119424888D01*
X155997760Y-119421223D01*
X155971952Y-119423806D01*
X155969904Y-119424011D01*
X155950086Y-119425000D01*
X140725185Y-119425000D01*
X140725185Y-119421881D01*
X140719547Y-119422100D01*
X140719584Y-119423077D01*
X140672094Y-119424860D01*
X140664628Y-119425000D01*
X140647095Y-119425000D01*
X140647095Y-119424617D01*
X140641645Y-119423891D01*
X140641724Y-119426000D01*
X140607904Y-119427270D01*
X140591025Y-119434522D01*
X140587021Y-119435424D01*
X140583193Y-119436901D01*
X140565130Y-119440265D01*
X140548767Y-119450352D01*
X140522893Y-119463792D01*
X140518134Y-119465837D01*
X140505220Y-119471385D01*
X140500350Y-119475386D01*
X140496904Y-119478832D01*
X140495733Y-119479894D01*
X140490987Y-119484414D01*
X140485634Y-119489267D01*
X140469993Y-119498909D01*
X140458871Y-119513535D01*
X140456459Y-119516707D01*
X140438769Y-119536967D01*
X139734022Y-120241714D01*
X139659034Y-120288833D01*
X139593308Y-120300000D01*
X131006692Y-120300000D01*
X130920349Y-120280293D01*
X130865978Y-120241714D01*
X130172617Y-119548353D01*
X130174823Y-119546147D01*
X130170682Y-119542316D01*
X130170016Y-119543034D01*
X130135152Y-119510692D01*
X130129801Y-119505537D01*
X130117400Y-119493136D01*
X130117673Y-119492863D01*
X130114333Y-119488496D01*
X130112895Y-119490046D01*
X130101557Y-119479528D01*
X130101556Y-119479527D01*
X130088083Y-119467029D01*
X130071016Y-119460220D01*
X130067545Y-119458026D01*
X130063798Y-119456366D01*
X130048648Y-119445972D01*
X130029942Y-119441533D01*
X130002139Y-119432741D01*
X129984280Y-119425615D01*
X129978007Y-119425000D01*
X129973141Y-119425000D01*
X129971576Y-119424923D01*
X129964993Y-119424762D01*
X129957782Y-119424409D01*
X129939909Y-119420168D01*
X129917754Y-119423183D01*
X129890920Y-119425000D01*
X114485150Y-119425000D01*
X114477069Y-119424836D01*
X114471680Y-119424617D01*
X114434328Y-119423099D01*
X114423317Y-119426607D01*
X114339664Y-119419018D01*
X114263670Y-119373539D01*
X114214934Y-119299591D01*
X114203109Y-119211820D01*
X114212034Y-119168313D01*
X114226731Y-119123079D01*
X114230980Y-119100806D01*
X114284516Y-118820161D01*
X114284517Y-118820155D01*
X114285688Y-118814015D01*
X114305444Y-118500000D01*
X114285688Y-118185985D01*
X114254496Y-118022467D01*
X114227903Y-117883064D01*
X114227902Y-117883062D01*
X114226731Y-117876921D01*
X114190988Y-117766914D01*
X114131437Y-117583637D01*
X114131437Y-117583636D01*
X114129503Y-117577685D01*
X114100480Y-117516007D01*
X113998201Y-117298653D01*
X113998197Y-117298645D01*
X113995537Y-117292993D01*
X113826947Y-117027337D01*
X113822963Y-117022521D01*
X113630369Y-116789715D01*
X113630364Y-116789709D01*
X113626390Y-116784906D01*
X113608838Y-116768423D01*
X113401589Y-116573803D01*
X113401587Y-116573802D01*
X113397030Y-116569522D01*
X113391975Y-116565850D01*
X113391971Y-116565846D01*
X113147541Y-116388258D01*
X113147540Y-116388257D01*
X113142484Y-116384584D01*
X112866766Y-116233006D01*
X112574225Y-116117181D01*
X112487784Y-116094987D01*
X112275535Y-116040490D01*
X112275528Y-116040489D01*
X112269473Y-116038934D01*
X111957318Y-115999500D01*
X111642682Y-115999500D01*
X111330527Y-116038934D01*
X111324472Y-116040489D01*
X111324465Y-116040490D01*
X111112216Y-116094987D01*
X111025775Y-116117181D01*
X110733234Y-116233006D01*
X110457516Y-116384584D01*
X110452460Y-116388257D01*
X110452459Y-116388258D01*
X110208029Y-116565846D01*
X110208025Y-116565850D01*
X110202970Y-116569522D01*
X110198413Y-116573802D01*
X110198411Y-116573803D01*
X109991163Y-116768423D01*
X109973610Y-116784906D01*
X109969636Y-116789709D01*
X109969631Y-116789715D01*
X109777037Y-117022521D01*
X109773053Y-117027337D01*
X109604463Y-117292993D01*
X109601803Y-117298645D01*
X109601799Y-117298653D01*
X109479059Y-117559490D01*
X109424464Y-117629225D01*
X109345019Y-117668365D01*
X109256460Y-117669160D01*
X109176325Y-117631452D01*
X109120487Y-117562709D01*
X109099998Y-117474760D01*
X109099998Y-115080000D01*
X110989965Y-115080000D01*
X111008026Y-115217183D01*
X111060976Y-115345017D01*
X111145209Y-115454791D01*
X111254982Y-115539024D01*
X111267030Y-115544014D01*
X111267031Y-115544015D01*
X111268789Y-115544743D01*
X111382817Y-115591974D01*
X111520000Y-115610035D01*
X111657183Y-115591974D01*
X111771211Y-115544743D01*
X111772969Y-115544015D01*
X111772970Y-115544014D01*
X111785018Y-115539024D01*
X111894791Y-115454791D01*
X111979024Y-115345017D01*
X112031974Y-115217183D01*
X112050035Y-115080000D01*
X112031974Y-114942817D01*
X112020800Y-114915839D01*
X111984016Y-114827035D01*
X111979024Y-114814983D01*
X111894791Y-114705209D01*
X111785018Y-114620976D01*
X111772970Y-114615986D01*
X111772969Y-114615985D01*
X111721395Y-114594623D01*
X111657183Y-114568026D01*
X111520000Y-114549965D01*
X111382817Y-114568026D01*
X111370768Y-114573017D01*
X111370767Y-114573017D01*
X111318605Y-114594623D01*
X111254983Y-114620976D01*
X111145209Y-114705209D01*
X111060976Y-114814983D01*
X111055984Y-114827035D01*
X111019201Y-114915839D01*
X111008026Y-114942817D01*
X110989965Y-115080000D01*
X109099998Y-115080000D01*
X109099999Y-106700192D01*
X109099999Y-94460742D01*
X109932401Y-94460742D01*
X109950462Y-94597925D01*
X109955453Y-94609974D01*
X109955453Y-94609975D01*
X109987433Y-94687181D01*
X110003412Y-94725759D01*
X110087645Y-94835533D01*
X110197418Y-94919766D01*
X110209466Y-94924756D01*
X110209467Y-94924757D01*
X110222775Y-94930269D01*
X110325253Y-94972716D01*
X110462436Y-94990777D01*
X110599619Y-94972716D01*
X110611661Y-94967728D01*
X110611669Y-94967726D01*
X110666282Y-94945104D01*
X110753594Y-94930269D01*
X110818590Y-94945104D01*
X110873203Y-94967726D01*
X110873211Y-94967728D01*
X110885253Y-94972716D01*
X111022436Y-94990777D01*
X111159619Y-94972716D01*
X111262097Y-94930269D01*
X111275405Y-94924757D01*
X111275406Y-94924756D01*
X111287454Y-94919766D01*
X111397227Y-94835533D01*
X111481460Y-94725759D01*
X111497439Y-94687181D01*
X111529419Y-94609975D01*
X111529419Y-94609974D01*
X111534410Y-94597925D01*
X111552471Y-94460742D01*
X111534410Y-94323559D01*
X111481460Y-94195725D01*
X111397227Y-94085951D01*
X111317795Y-94025000D01*
X111297803Y-94009659D01*
X111297802Y-94009658D01*
X111287454Y-94001718D01*
X111275406Y-93996728D01*
X111275405Y-93996727D01*
X111216897Y-93972493D01*
X111159619Y-93948768D01*
X111022436Y-93930707D01*
X110885253Y-93948768D01*
X110818589Y-93976381D01*
X110731277Y-93991215D01*
X110666284Y-93976381D01*
X110656897Y-93972493D01*
X110599619Y-93948768D01*
X110462436Y-93930707D01*
X110325253Y-93948768D01*
X110313204Y-93953759D01*
X110313203Y-93953759D01*
X110255122Y-93977817D01*
X110197419Y-94001718D01*
X110087645Y-94085951D01*
X110003412Y-94195725D01*
X109950462Y-94323559D01*
X109932401Y-94460742D01*
X109099999Y-94460742D01*
X109099999Y-83767271D01*
X109099999Y-81443291D01*
X111219876Y-81443291D01*
X111235884Y-81633925D01*
X111238567Y-81643283D01*
X111238568Y-81643287D01*
X111268385Y-81747271D01*
X111288614Y-81817820D01*
X111293062Y-81826474D01*
X111293062Y-81826475D01*
X111369662Y-81975520D01*
X111376060Y-81987970D01*
X111382105Y-81995597D01*
X111382107Y-81995600D01*
X111488840Y-82130264D01*
X111488844Y-82130268D01*
X111494889Y-82137895D01*
X111570359Y-82202125D01*
X111633159Y-82255573D01*
X111633162Y-82255575D01*
X111640575Y-82261884D01*
X111649068Y-82266631D01*
X111649073Y-82266634D01*
X111799075Y-82350467D01*
X111799081Y-82350469D01*
X111807570Y-82355214D01*
X111816825Y-82358221D01*
X111816827Y-82358222D01*
X111980253Y-82411323D01*
X111980257Y-82411324D01*
X111989512Y-82414331D01*
X111999176Y-82415483D01*
X111999179Y-82415484D01*
X112169809Y-82435830D01*
X112169811Y-82435830D01*
X112179472Y-82436982D01*
X112370213Y-82422305D01*
X112554472Y-82370859D01*
X112563151Y-82366475D01*
X112563156Y-82366473D01*
X112716547Y-82288989D01*
X112716546Y-82288989D01*
X112725228Y-82284604D01*
X112875979Y-82166825D01*
X112893254Y-82146811D01*
X112964588Y-82094329D01*
X113051632Y-82077995D01*
X113137143Y-82101044D01*
X113204185Y-82158913D01*
X113225845Y-82203610D01*
X113227618Y-82202823D01*
X113263944Y-82284604D01*
X113273061Y-82305130D01*
X113286064Y-82318110D01*
X113338959Y-82370913D01*
X113352287Y-82384218D01*
X113420400Y-82414331D01*
X113440681Y-82423297D01*
X113454673Y-82429483D01*
X113469533Y-82431215D01*
X113469535Y-82431216D01*
X113474612Y-82431808D01*
X113474619Y-82431808D01*
X113480354Y-82432477D01*
X114919646Y-82432477D01*
X114925484Y-82431782D01*
X114925488Y-82431782D01*
X114931019Y-82431124D01*
X114931022Y-82431123D01*
X114945846Y-82429359D01*
X114959494Y-82423297D01*
X115031361Y-82391375D01*
X115031362Y-82391374D01*
X115048153Y-82383916D01*
X115089180Y-82342817D01*
X115114260Y-82317694D01*
X115114261Y-82317693D01*
X115127241Y-82304690D01*
X115172506Y-82202304D01*
X115175500Y-82176623D01*
X115175500Y-80737331D01*
X115172382Y-80711131D01*
X115159858Y-80682935D01*
X115134398Y-80625616D01*
X115134397Y-80625615D01*
X115126939Y-80608824D01*
X115066142Y-80548133D01*
X115060717Y-80542717D01*
X115060716Y-80542716D01*
X115047713Y-80529736D01*
X114975987Y-80498026D01*
X114959012Y-80490521D01*
X114959011Y-80490521D01*
X114945327Y-80484471D01*
X114930467Y-80482739D01*
X114930465Y-80482738D01*
X114925388Y-80482146D01*
X114925381Y-80482146D01*
X114919646Y-80481477D01*
X113480354Y-80481477D01*
X113474516Y-80482172D01*
X113474512Y-80482172D01*
X113468981Y-80482830D01*
X113468978Y-80482831D01*
X113454154Y-80484595D01*
X113440507Y-80490657D01*
X113440506Y-80490657D01*
X113368639Y-80522579D01*
X113368638Y-80522580D01*
X113351847Y-80530038D01*
X113328578Y-80553348D01*
X113286156Y-80595844D01*
X113272759Y-80609264D01*
X113227494Y-80711650D01*
X113224257Y-80710219D01*
X113194683Y-80765591D01*
X113123197Y-80817872D01*
X113036107Y-80833959D01*
X112950662Y-80810665D01*
X112903208Y-80775355D01*
X112901688Y-80773825D01*
X112895535Y-80766280D01*
X112829767Y-80711872D01*
X112755628Y-80650539D01*
X112755627Y-80650538D01*
X112748132Y-80644338D01*
X112579851Y-80553348D01*
X112397101Y-80496778D01*
X112237137Y-80479965D01*
X112216520Y-80477798D01*
X112216519Y-80477798D01*
X112206843Y-80476781D01*
X112016325Y-80494119D01*
X112006986Y-80496868D01*
X112006984Y-80496868D01*
X111842149Y-80545382D01*
X111842146Y-80545383D01*
X111832803Y-80548133D01*
X111824175Y-80552643D01*
X111824169Y-80552646D01*
X111708374Y-80613183D01*
X111663268Y-80636764D01*
X111514176Y-80756637D01*
X111391207Y-80903185D01*
X111299045Y-81070827D01*
X111296103Y-81080102D01*
X111296102Y-81080104D01*
X111252946Y-81216151D01*
X111241200Y-81253178D01*
X111219876Y-81443291D01*
X109099999Y-81443291D01*
X109100000Y-72525244D01*
X109119707Y-72438901D01*
X109174926Y-72369660D01*
X109254718Y-72331233D01*
X109343282Y-72331233D01*
X109423074Y-72369660D01*
X109479061Y-72440513D01*
X109490754Y-72465364D01*
X109601799Y-72701347D01*
X109601803Y-72701355D01*
X109604463Y-72707007D01*
X109773053Y-72972663D01*
X109777036Y-72977477D01*
X109777037Y-72977479D01*
X109969631Y-73210285D01*
X109969636Y-73210291D01*
X109973610Y-73215094D01*
X109978158Y-73219365D01*
X109978160Y-73219367D01*
X110192629Y-73420767D01*
X110202970Y-73430478D01*
X110208025Y-73434150D01*
X110208029Y-73434154D01*
X110452459Y-73611742D01*
X110457516Y-73615416D01*
X110733234Y-73766994D01*
X111025775Y-73882819D01*
X111092554Y-73899965D01*
X111324465Y-73959510D01*
X111324472Y-73959511D01*
X111330527Y-73961066D01*
X111642682Y-74000500D01*
X111957318Y-74000500D01*
X112269473Y-73961066D01*
X112275528Y-73959511D01*
X112275535Y-73959510D01*
X112417668Y-73923016D01*
X112441667Y-73916854D01*
X112530198Y-73914469D01*
X112610996Y-73950733D01*
X112668059Y-74018463D01*
X112690084Y-74104244D01*
X112672709Y-74191086D01*
X112631870Y-74250316D01*
X111893626Y-74988560D01*
X111883684Y-74997735D01*
X111872280Y-75004930D01*
X111855810Y-75023579D01*
X111838740Y-75042907D01*
X111830296Y-75051890D01*
X111820680Y-75061506D01*
X111816435Y-75067170D01*
X111816313Y-75067333D01*
X111806238Y-75079709D01*
X111777377Y-75112388D01*
X111771352Y-75125220D01*
X111767953Y-75130395D01*
X111764978Y-75135829D01*
X111756474Y-75147176D01*
X111741166Y-75188009D01*
X111734983Y-75202682D01*
X111716447Y-75242163D01*
X111714265Y-75256176D01*
X111712454Y-75262101D01*
X111711125Y-75268144D01*
X111706148Y-75281420D01*
X111705097Y-75295557D01*
X111705097Y-75295559D01*
X111702917Y-75324895D01*
X111701096Y-75340754D01*
X111699500Y-75351009D01*
X111699500Y-75363499D01*
X111698953Y-75378246D01*
X111695524Y-75424392D01*
X111698484Y-75438258D01*
X111699039Y-75446400D01*
X111699500Y-75459937D01*
X111699500Y-75855311D01*
X111679793Y-75941654D01*
X111625194Y-76010399D01*
X111622003Y-76012965D01*
X111514176Y-76099660D01*
X111449295Y-76176982D01*
X111420681Y-76211083D01*
X111391207Y-76246208D01*
X111299045Y-76413850D01*
X111296103Y-76423125D01*
X111296102Y-76423127D01*
X111245973Y-76581156D01*
X111241200Y-76596201D01*
X111227846Y-76715261D01*
X111222062Y-76766828D01*
X111219876Y-76786314D01*
X111224817Y-76845159D01*
X111234581Y-76961426D01*
X111235884Y-76976948D01*
X111238567Y-76986306D01*
X111238568Y-76986310D01*
X111260709Y-77063524D01*
X111288614Y-77160843D01*
X111293062Y-77169497D01*
X111293062Y-77169498D01*
X111363930Y-77307390D01*
X111376060Y-77330993D01*
X111382105Y-77338620D01*
X111382107Y-77338623D01*
X111488840Y-77473287D01*
X111488844Y-77473291D01*
X111494889Y-77480918D01*
X111581915Y-77554983D01*
X111629476Y-77595461D01*
X111682457Y-77666430D01*
X111699500Y-77747007D01*
X111699500Y-78292780D01*
X111698957Y-78306294D01*
X111695981Y-78319447D01*
X111696859Y-78333598D01*
X111699118Y-78370007D01*
X111699500Y-78382330D01*
X111699500Y-78395940D01*
X111700534Y-78403158D01*
X111702160Y-78419034D01*
X111704859Y-78462538D01*
X111709672Y-78475871D01*
X111710928Y-78481934D01*
X111712667Y-78487880D01*
X111714677Y-78501918D01*
X111732725Y-78541612D01*
X111738740Y-78556390D01*
X111743641Y-78569965D01*
X111753540Y-78597387D01*
X111761904Y-78608835D01*
X111764816Y-78614313D01*
X111768149Y-78619524D01*
X111774016Y-78632428D01*
X111783269Y-78643166D01*
X111802470Y-78665450D01*
X111812402Y-78677959D01*
X111818522Y-78686336D01*
X111827351Y-78695165D01*
X111837392Y-78705980D01*
X111858341Y-78730293D01*
X111858346Y-78730298D01*
X111867600Y-78741037D01*
X111879499Y-78748750D01*
X111885651Y-78754116D01*
X111895549Y-78763363D01*
X112808560Y-79676374D01*
X112817735Y-79686316D01*
X112824930Y-79697720D01*
X112835554Y-79707102D01*
X112835555Y-79707104D01*
X112862906Y-79731259D01*
X112871889Y-79739703D01*
X112881507Y-79749321D01*
X112887175Y-79753569D01*
X112887176Y-79753570D01*
X112887339Y-79753692D01*
X112899721Y-79763773D01*
X112932388Y-79792623D01*
X112945217Y-79798647D01*
X112950401Y-79802052D01*
X112955831Y-79805025D01*
X112967176Y-79813527D01*
X113008000Y-79828831D01*
X113022714Y-79835031D01*
X113062163Y-79853553D01*
X113076173Y-79855734D01*
X113082099Y-79857546D01*
X113088144Y-79858875D01*
X113101420Y-79863852D01*
X113115557Y-79864903D01*
X113115559Y-79864903D01*
X113144895Y-79867083D01*
X113160754Y-79868904D01*
X113163414Y-79869318D01*
X113163418Y-79869318D01*
X113171009Y-79870500D01*
X113183499Y-79870500D01*
X113198246Y-79871047D01*
X113244392Y-79874476D01*
X113258258Y-79871516D01*
X113266400Y-79870961D01*
X113279937Y-79870500D01*
X118714536Y-79870500D01*
X118740512Y-79872203D01*
X118757777Y-79874476D01*
X118800000Y-79880035D01*
X118812935Y-79878332D01*
X118859488Y-79872203D01*
X118885464Y-79870500D01*
X120162780Y-79870500D01*
X120176294Y-79871043D01*
X120189447Y-79874019D01*
X120203598Y-79873141D01*
X120240007Y-79870882D01*
X120252330Y-79870500D01*
X120265940Y-79870500D01*
X120273158Y-79869466D01*
X120289006Y-79867842D01*
X120290229Y-79867766D01*
X120291387Y-79867694D01*
X120378786Y-79882004D01*
X120451321Y-79932818D01*
X120494625Y-80010072D01*
X120500122Y-80098465D01*
X120466722Y-80180489D01*
X120444451Y-80207024D01*
X112292434Y-88359042D01*
X112286442Y-88364789D01*
X112241844Y-88405799D01*
X112234695Y-88417330D01*
X112234692Y-88417333D01*
X112220728Y-88439855D01*
X112210108Y-88455307D01*
X112194092Y-88476407D01*
X112194089Y-88476413D01*
X112185888Y-88487217D01*
X112180893Y-88499832D01*
X112176216Y-88508134D01*
X112173382Y-88513767D01*
X112169511Y-88522461D01*
X112162365Y-88533986D01*
X112158582Y-88547006D01*
X112158581Y-88547009D01*
X112151185Y-88572468D01*
X112145111Y-88590207D01*
X112130364Y-88627453D01*
X112128946Y-88640944D01*
X112126677Y-88650181D01*
X112125035Y-88658548D01*
X112125041Y-88658549D01*
X112123195Y-88668808D01*
X112120285Y-88678825D01*
X112119500Y-88689515D01*
X112119500Y-88720393D01*
X112118410Y-88741193D01*
X112118089Y-88744252D01*
X112114599Y-88777454D01*
X112116862Y-88790835D01*
X112116907Y-88792260D01*
X112119500Y-88823139D01*
X112119500Y-105457785D01*
X112134794Y-105569432D01*
X112194695Y-105707855D01*
X112203229Y-105718393D01*
X112203231Y-105718397D01*
X112239083Y-105762670D01*
X112289614Y-105825070D01*
X112300674Y-105832930D01*
X112300675Y-105832931D01*
X112370358Y-105882452D01*
X112412558Y-105912442D01*
X112554468Y-105963533D01*
X112567994Y-105964526D01*
X112567997Y-105964527D01*
X112691366Y-105973587D01*
X112691368Y-105973587D01*
X112704891Y-105974580D01*
X112759677Y-105963533D01*
X112839445Y-105947449D01*
X112839449Y-105947448D01*
X112852743Y-105944767D01*
X112987132Y-105876293D01*
X113042837Y-105825070D01*
X113070100Y-105800000D01*
X113098156Y-105774201D01*
X113147012Y-105695404D01*
X113170488Y-105657542D01*
X113170490Y-105657538D01*
X113177635Y-105646014D01*
X113181418Y-105632992D01*
X113181420Y-105632988D01*
X113216806Y-105511188D01*
X113216806Y-105511187D01*
X113219715Y-105501175D01*
X113220500Y-105490485D01*
X113220500Y-94270000D01*
X114159965Y-94270000D01*
X114178026Y-94407183D01*
X114230976Y-94535017D01*
X114315209Y-94644791D01*
X114325554Y-94652729D01*
X114386156Y-94699231D01*
X114424982Y-94729024D01*
X114437030Y-94734014D01*
X114437031Y-94734015D01*
X114471200Y-94748168D01*
X114552817Y-94781974D01*
X114690000Y-94800035D01*
X114827183Y-94781974D01*
X114908800Y-94748168D01*
X114942969Y-94734015D01*
X114942970Y-94734014D01*
X114955018Y-94729024D01*
X114993845Y-94699231D01*
X115054446Y-94652729D01*
X115064791Y-94644791D01*
X115149024Y-94535017D01*
X115201974Y-94407183D01*
X115220035Y-94270000D01*
X115201974Y-94132817D01*
X115187932Y-94098915D01*
X115154016Y-94017035D01*
X115149024Y-94004983D01*
X115064791Y-93895209D01*
X114955018Y-93810976D01*
X114942970Y-93805986D01*
X114942969Y-93805985D01*
X114908800Y-93791832D01*
X114827183Y-93758026D01*
X114690000Y-93739965D01*
X114552817Y-93758026D01*
X114540768Y-93763017D01*
X114540767Y-93763017D01*
X114499194Y-93780237D01*
X114424983Y-93810976D01*
X114315209Y-93895209D01*
X114230976Y-94004983D01*
X114225984Y-94017035D01*
X114192069Y-94098915D01*
X114178026Y-94132817D01*
X114159965Y-94270000D01*
X113220500Y-94270000D01*
X113220500Y-89070453D01*
X113240207Y-88984110D01*
X113278786Y-88929739D01*
X116616902Y-85591623D01*
X116691890Y-85544504D01*
X116779897Y-85534588D01*
X116863490Y-85563839D01*
X116926114Y-85626463D01*
X116955365Y-85710056D01*
X116946876Y-85793830D01*
X116928106Y-85851598D01*
X116921790Y-86002294D01*
X116924888Y-86015501D01*
X116924888Y-86015504D01*
X116933842Y-86053676D01*
X116956232Y-86149136D01*
X117028893Y-86281308D01*
X117035897Y-86289422D01*
X117533621Y-86787145D01*
X117991214Y-87244738D01*
X118038333Y-87319726D01*
X118049500Y-87385452D01*
X118049500Y-97289547D01*
X118029793Y-97375890D01*
X117991214Y-97430261D01*
X117286826Y-98134650D01*
X116593278Y-98828198D01*
X116589188Y-98833587D01*
X116589184Y-98833591D01*
X116575231Y-98851974D01*
X116525146Y-98917959D01*
X116469622Y-99058195D01*
X116453857Y-99208196D01*
X116479010Y-99356912D01*
X116543229Y-99493384D01*
X116641782Y-99607561D01*
X116767411Y-99691027D01*
X116780311Y-99695219D01*
X116780314Y-99695220D01*
X116897953Y-99733444D01*
X116897957Y-99733445D01*
X116910856Y-99737636D01*
X116980437Y-99740552D01*
X117047994Y-99743384D01*
X117047996Y-99743384D01*
X117061552Y-99743952D01*
X117074759Y-99740854D01*
X117074762Y-99740854D01*
X117130888Y-99727689D01*
X117208394Y-99709510D01*
X117340566Y-99636849D01*
X117348680Y-99629845D01*
X118977566Y-98000958D01*
X118983558Y-97995211D01*
X119028156Y-97954201D01*
X119035305Y-97942670D01*
X119035308Y-97942667D01*
X119049272Y-97920145D01*
X119059892Y-97904693D01*
X119075908Y-97883593D01*
X119075911Y-97883587D01*
X119084112Y-97872783D01*
X119089107Y-97860168D01*
X119093784Y-97851866D01*
X119096618Y-97846233D01*
X119100489Y-97837539D01*
X119107635Y-97826014D01*
X119111418Y-97812994D01*
X119111419Y-97812991D01*
X119118815Y-97787532D01*
X119124889Y-97769793D01*
X119134642Y-97745160D01*
X119139636Y-97732547D01*
X119141054Y-97719056D01*
X119143323Y-97709819D01*
X119144965Y-97701452D01*
X119144959Y-97701451D01*
X119146805Y-97691192D01*
X119149715Y-97681175D01*
X119150500Y-97670485D01*
X119150500Y-97639607D01*
X119151590Y-97618807D01*
X119153983Y-97596040D01*
X119153983Y-97596038D01*
X119155401Y-97582546D01*
X119153138Y-97569165D01*
X119153093Y-97567740D01*
X119150500Y-97536861D01*
X119150500Y-94730964D01*
X119170207Y-94644621D01*
X119225426Y-94575380D01*
X119305218Y-94536953D01*
X119387617Y-94538495D01*
X119387817Y-94536974D01*
X119525000Y-94555035D01*
X119662183Y-94536974D01*
X119773729Y-94490771D01*
X119777969Y-94489015D01*
X119777970Y-94489014D01*
X119790018Y-94484024D01*
X119803503Y-94473677D01*
X119889446Y-94407729D01*
X119899791Y-94399791D01*
X119957624Y-94324423D01*
X120025820Y-94267920D01*
X120111779Y-94246602D01*
X120198475Y-94264691D01*
X120268737Y-94318605D01*
X120308649Y-94397665D01*
X120314500Y-94445567D01*
X120314500Y-98321324D01*
X120294793Y-98407667D01*
X120256214Y-98462038D01*
X116502242Y-102216010D01*
X116437681Y-102259148D01*
X116384983Y-102280976D01*
X116275209Y-102365209D01*
X116190976Y-102474983D01*
X116138026Y-102602817D01*
X116119965Y-102740000D01*
X116138026Y-102877183D01*
X116143017Y-102889232D01*
X116143017Y-102889233D01*
X116151856Y-102910572D01*
X116190976Y-103005017D01*
X116275209Y-103114791D01*
X116384982Y-103199024D01*
X116397030Y-103204014D01*
X116397031Y-103204015D01*
X116418772Y-103213020D01*
X116512817Y-103251974D01*
X116650000Y-103270035D01*
X116787183Y-103251974D01*
X116881228Y-103213020D01*
X116902969Y-103204015D01*
X116902970Y-103204014D01*
X116915018Y-103199024D01*
X117024791Y-103114791D01*
X117109024Y-103005017D01*
X117148144Y-102910572D01*
X117156983Y-102889233D01*
X117156983Y-102889232D01*
X117161974Y-102877183D01*
X117170958Y-102808945D01*
X117201767Y-102725913D01*
X117227541Y-102694207D01*
X119584786Y-100336962D01*
X119659774Y-100289843D01*
X119747781Y-100279927D01*
X119831374Y-100309178D01*
X119893998Y-100371802D01*
X119923249Y-100455395D01*
X119924500Y-100477676D01*
X119924500Y-102357001D01*
X119904793Y-102443344D01*
X119898623Y-102455017D01*
X119890976Y-102464983D01*
X119885985Y-102477032D01*
X119885984Y-102477034D01*
X119856952Y-102547125D01*
X119838026Y-102592817D01*
X119819965Y-102730000D01*
X119838026Y-102867183D01*
X119843017Y-102879232D01*
X119843017Y-102879233D01*
X119855070Y-102908332D01*
X119890976Y-102995017D01*
X119975209Y-103104791D01*
X120084982Y-103189024D01*
X120097030Y-103194014D01*
X120097031Y-103194015D01*
X120121174Y-103204015D01*
X120212817Y-103241974D01*
X120350000Y-103260035D01*
X120487183Y-103241974D01*
X120578826Y-103204015D01*
X120602969Y-103194015D01*
X120602970Y-103194014D01*
X120615018Y-103189024D01*
X120724791Y-103104791D01*
X120809024Y-102995017D01*
X120844930Y-102908332D01*
X120856983Y-102879233D01*
X120856983Y-102879232D01*
X120861974Y-102867183D01*
X120880035Y-102730000D01*
X120861974Y-102592817D01*
X120843048Y-102547125D01*
X120814016Y-102477034D01*
X120814015Y-102477032D01*
X120809024Y-102464983D01*
X120801922Y-102455728D01*
X120776056Y-102371870D01*
X120775500Y-102357001D01*
X120775500Y-100278676D01*
X120795207Y-100192333D01*
X120833786Y-100137962D01*
X121788528Y-99183220D01*
X121795639Y-99169264D01*
X121795641Y-99169261D01*
X121796811Y-99166965D01*
X121813125Y-99140342D01*
X121814645Y-99138250D01*
X121823850Y-99125581D01*
X121829488Y-99108230D01*
X121841437Y-99079380D01*
X121842611Y-99077076D01*
X121849719Y-99063126D01*
X121852573Y-99045107D01*
X121859863Y-99014743D01*
X121860661Y-99012287D01*
X121860661Y-99012286D01*
X121865500Y-98997393D01*
X121865500Y-94640000D01*
X122591390Y-94640000D01*
X122609451Y-94777183D01*
X122614442Y-94789232D01*
X122614442Y-94789233D01*
X122629335Y-94825188D01*
X122662401Y-94905017D01*
X122746634Y-95014791D01*
X122756979Y-95022729D01*
X122844887Y-95090184D01*
X122856407Y-95099024D01*
X122868455Y-95104014D01*
X122868456Y-95104015D01*
X122902625Y-95118168D01*
X122984242Y-95151974D01*
X123121425Y-95170035D01*
X123258608Y-95151974D01*
X123340225Y-95118168D01*
X123374394Y-95104015D01*
X123374395Y-95104014D01*
X123386443Y-95099024D01*
X123386752Y-95099771D01*
X123460630Y-95076983D01*
X123548204Y-95090184D01*
X123621378Y-95140074D01*
X123665659Y-95216772D01*
X123674500Y-95275427D01*
X123674500Y-103302001D01*
X123654793Y-103388344D01*
X123648623Y-103400017D01*
X123640976Y-103409983D01*
X123635985Y-103422032D01*
X123635984Y-103422034D01*
X123594156Y-103523018D01*
X123588026Y-103537817D01*
X123569965Y-103675000D01*
X123588026Y-103812183D01*
X123640976Y-103940017D01*
X123725209Y-104049791D01*
X123834982Y-104134024D01*
X123847030Y-104139014D01*
X123847031Y-104139015D01*
X123881200Y-104153168D01*
X123962817Y-104186974D01*
X124087065Y-104203332D01*
X124100000Y-104205035D01*
X124105049Y-104204370D01*
X124186843Y-104223039D01*
X124256084Y-104278258D01*
X124294511Y-104358050D01*
X124299500Y-104402332D01*
X124299500Y-110412393D01*
X124304341Y-110427292D01*
X124305137Y-110429743D01*
X124312425Y-110460099D01*
X124312830Y-110462656D01*
X124312832Y-110462661D01*
X124315281Y-110478126D01*
X124322390Y-110492077D01*
X124322390Y-110492079D01*
X124323565Y-110494385D01*
X124335512Y-110523228D01*
X124336309Y-110525681D01*
X124336311Y-110525684D01*
X124341151Y-110540581D01*
X124350358Y-110553253D01*
X124351870Y-110555334D01*
X124368187Y-110581961D01*
X124376472Y-110598220D01*
X124785377Y-111007125D01*
X124832496Y-111082113D01*
X124836386Y-111094724D01*
X124838026Y-111107183D01*
X124843018Y-111119236D01*
X124843019Y-111119238D01*
X124871163Y-111187183D01*
X124890976Y-111235017D01*
X124975209Y-111344791D01*
X125084982Y-111429024D01*
X125097030Y-111434014D01*
X125097031Y-111434015D01*
X125131200Y-111448168D01*
X125212817Y-111481974D01*
X125350000Y-111500035D01*
X125487183Y-111481974D01*
X125568800Y-111448168D01*
X125602969Y-111434015D01*
X125602970Y-111434014D01*
X125615018Y-111429024D01*
X125724791Y-111344791D01*
X125809024Y-111235017D01*
X125838365Y-111164180D01*
X125856983Y-111119233D01*
X125856983Y-111119232D01*
X125861974Y-111107183D01*
X125880035Y-110970000D01*
X125861974Y-110832817D01*
X125809024Y-110704983D01*
X125724791Y-110595209D01*
X125670114Y-110553253D01*
X125625367Y-110518917D01*
X125625366Y-110518916D01*
X125615018Y-110510976D01*
X125602970Y-110505986D01*
X125602969Y-110505985D01*
X125499230Y-110463016D01*
X125487183Y-110458026D01*
X125475620Y-110456504D01*
X125398035Y-110415501D01*
X125387124Y-110405376D01*
X125208786Y-110227038D01*
X125161667Y-110152050D01*
X125150500Y-110086324D01*
X125150500Y-103107332D01*
X125170207Y-103020989D01*
X125225426Y-102951748D01*
X125305218Y-102913321D01*
X125348188Y-102908480D01*
X125360000Y-102910035D01*
X125497183Y-102891974D01*
X125588254Y-102854252D01*
X125612969Y-102844015D01*
X125612970Y-102844014D01*
X125625018Y-102839024D01*
X125734791Y-102754791D01*
X125819024Y-102645017D01*
X125824016Y-102632965D01*
X125828160Y-102625787D01*
X125888397Y-102560865D01*
X125970838Y-102528508D01*
X126059154Y-102535125D01*
X126135852Y-102579406D01*
X126185743Y-102652580D01*
X126199500Y-102725285D01*
X126199500Y-103302001D01*
X126179793Y-103388344D01*
X126173623Y-103400017D01*
X126165976Y-103409983D01*
X126160985Y-103422032D01*
X126160984Y-103422034D01*
X126119156Y-103523018D01*
X126113026Y-103537817D01*
X126094965Y-103675000D01*
X126113026Y-103812183D01*
X126165976Y-103940017D01*
X126250209Y-104049791D01*
X126359982Y-104134024D01*
X126372030Y-104139014D01*
X126372031Y-104139015D01*
X126406200Y-104153168D01*
X126487817Y-104186974D01*
X126625000Y-104205035D01*
X126762183Y-104186974D01*
X126843800Y-104153168D01*
X126877969Y-104139015D01*
X126877970Y-104139014D01*
X126890018Y-104134024D01*
X126999791Y-104049791D01*
X127084024Y-103940017D01*
X127136974Y-103812183D01*
X127155035Y-103675000D01*
X127136974Y-103537817D01*
X127130844Y-103523018D01*
X127089016Y-103422034D01*
X127089015Y-103422032D01*
X127084024Y-103409983D01*
X127076922Y-103400728D01*
X127051056Y-103316870D01*
X127050500Y-103302001D01*
X127050500Y-102668621D01*
X127070207Y-102582278D01*
X127125426Y-102513037D01*
X127205218Y-102474610D01*
X127293782Y-102474610D01*
X127373574Y-102513037D01*
X127428793Y-102582278D01*
X127433337Y-102592433D01*
X127450976Y-102635017D01*
X127535209Y-102744791D01*
X127574600Y-102775017D01*
X127595501Y-102791055D01*
X127644982Y-102829024D01*
X127657030Y-102834014D01*
X127657031Y-102834015D01*
X127681174Y-102844015D01*
X127772817Y-102881974D01*
X127910000Y-102900035D01*
X127999527Y-102888248D01*
X128087700Y-102896516D01*
X128163557Y-102942223D01*
X128212070Y-103016317D01*
X128224500Y-103085545D01*
X128224500Y-105109211D01*
X128204793Y-105195554D01*
X128149574Y-105264795D01*
X128069782Y-105303222D01*
X127981218Y-105303222D01*
X127949352Y-105293066D01*
X127949232Y-105293016D01*
X127949227Y-105293015D01*
X127937183Y-105288026D01*
X127823932Y-105273116D01*
X127740906Y-105242309D01*
X127679465Y-105178525D01*
X127666063Y-105151977D01*
X127659024Y-105134983D01*
X127574791Y-105025209D01*
X127465018Y-104940976D01*
X127452970Y-104935986D01*
X127452969Y-104935985D01*
X127418800Y-104921832D01*
X127337183Y-104888026D01*
X127200000Y-104869965D01*
X127062817Y-104888026D01*
X127050768Y-104893017D01*
X127050767Y-104893017D01*
X126965518Y-104928328D01*
X126934983Y-104940976D01*
X126825209Y-105025209D01*
X126740976Y-105134983D01*
X126733939Y-105151972D01*
X126729615Y-105158066D01*
X126729464Y-105158328D01*
X126729439Y-105158314D01*
X126682694Y-105224200D01*
X126605182Y-105267041D01*
X126576080Y-105273114D01*
X126462817Y-105288026D01*
X126450768Y-105293017D01*
X126450767Y-105293017D01*
X126450649Y-105293066D01*
X126334983Y-105340976D01*
X126225209Y-105425209D01*
X126140976Y-105534983D01*
X126088026Y-105662817D01*
X126069965Y-105800000D01*
X126088026Y-105937183D01*
X126093017Y-105949232D01*
X126093017Y-105949233D01*
X126140976Y-106065017D01*
X126139258Y-106065728D01*
X126160666Y-106135129D01*
X126147466Y-106222703D01*
X126142523Y-106232967D01*
X126140976Y-106234983D01*
X126088026Y-106362817D01*
X126069965Y-106500000D01*
X126088026Y-106637183D01*
X126093017Y-106649232D01*
X126093017Y-106649233D01*
X126140976Y-106765017D01*
X126139258Y-106765728D01*
X126160666Y-106835129D01*
X126147466Y-106922703D01*
X126142523Y-106932967D01*
X126140976Y-106934983D01*
X126088026Y-107062817D01*
X126069965Y-107200000D01*
X126088026Y-107337183D01*
X126093017Y-107349232D01*
X126093017Y-107349233D01*
X126140976Y-107465017D01*
X126139258Y-107465728D01*
X126160666Y-107535129D01*
X126147466Y-107622703D01*
X126142523Y-107632967D01*
X126140976Y-107634983D01*
X126137435Y-107643533D01*
X126137434Y-107643534D01*
X126117108Y-107692607D01*
X126088026Y-107762817D01*
X126069965Y-107900000D01*
X126088026Y-108037183D01*
X126140976Y-108165017D01*
X126225209Y-108274791D01*
X126334982Y-108359024D01*
X126347030Y-108364014D01*
X126347031Y-108364015D01*
X126381200Y-108378168D01*
X126462817Y-108411974D01*
X126587065Y-108428332D01*
X126600000Y-108430035D01*
X126612935Y-108428332D01*
X126614691Y-108428332D01*
X126701034Y-108448039D01*
X126772567Y-108506188D01*
X126825209Y-108574791D01*
X126934982Y-108659024D01*
X126947030Y-108664014D01*
X126947031Y-108664015D01*
X126981200Y-108678168D01*
X127062817Y-108711974D01*
X127200000Y-108730035D01*
X127337183Y-108711974D01*
X127418800Y-108678168D01*
X127452969Y-108664015D01*
X127452970Y-108664014D01*
X127465018Y-108659024D01*
X127574791Y-108574791D01*
X127627433Y-108506188D01*
X127695629Y-108449685D01*
X127785309Y-108428332D01*
X127787065Y-108428332D01*
X127800000Y-108430035D01*
X127937183Y-108411974D01*
X127949227Y-108406985D01*
X127949232Y-108406984D01*
X127949352Y-108406934D01*
X127949531Y-108406904D01*
X127961835Y-108403607D01*
X127962144Y-108404761D01*
X128036665Y-108392102D01*
X128121766Y-108416623D01*
X128187801Y-108475639D01*
X128221689Y-108557462D01*
X128224500Y-108590789D01*
X128224500Y-109915968D01*
X128204793Y-110002311D01*
X128166214Y-110056682D01*
X127811383Y-110411513D01*
X127746824Y-110454651D01*
X127634983Y-110500976D01*
X127525209Y-110585209D01*
X127440976Y-110694983D01*
X127388026Y-110822817D01*
X127369965Y-110960000D01*
X127388026Y-111097183D01*
X127440976Y-111225017D01*
X127525209Y-111334791D01*
X127634982Y-111419024D01*
X127647030Y-111424014D01*
X127647031Y-111424015D01*
X127668069Y-111432729D01*
X127762817Y-111471974D01*
X127900000Y-111490035D01*
X128037183Y-111471974D01*
X128131931Y-111432729D01*
X128152969Y-111424015D01*
X128152970Y-111424014D01*
X128165018Y-111419024D01*
X128274791Y-111334791D01*
X128359024Y-111225017D01*
X128405349Y-111113176D01*
X128448487Y-111048617D01*
X128966313Y-110530791D01*
X128983827Y-110515227D01*
X128995426Y-110506083D01*
X129007110Y-110496872D01*
X129039790Y-110449587D01*
X129043423Y-110444503D01*
X129068796Y-110410150D01*
X129077635Y-110398183D01*
X129080029Y-110391366D01*
X129084131Y-110385431D01*
X129101468Y-110330613D01*
X129103446Y-110324684D01*
X129117592Y-110284403D01*
X129117592Y-110284401D01*
X129122520Y-110270369D01*
X129122804Y-110263152D01*
X129124980Y-110256270D01*
X129125500Y-110249663D01*
X129125500Y-110198451D01*
X129125653Y-110190637D01*
X129127255Y-110149867D01*
X129127839Y-110135006D01*
X129125720Y-110127014D01*
X129125500Y-110123020D01*
X129125500Y-98930000D01*
X134559965Y-98930000D01*
X134578026Y-99067183D01*
X134583017Y-99079232D01*
X134583017Y-99079233D01*
X134595030Y-99108234D01*
X134630976Y-99195017D01*
X134715209Y-99304791D01*
X134725554Y-99312729D01*
X134765697Y-99343532D01*
X134824982Y-99389024D01*
X134837030Y-99394014D01*
X134837031Y-99394015D01*
X134871200Y-99408168D01*
X134952817Y-99441974D01*
X135090000Y-99460035D01*
X135227183Y-99441974D01*
X135308800Y-99408168D01*
X135342969Y-99394015D01*
X135342970Y-99394014D01*
X135355018Y-99389024D01*
X135414304Y-99343532D01*
X135454446Y-99312729D01*
X135464791Y-99304791D01*
X135549024Y-99195017D01*
X135584970Y-99108234D01*
X135596983Y-99079233D01*
X135596983Y-99079232D01*
X135601974Y-99067183D01*
X135620035Y-98930000D01*
X135601974Y-98792817D01*
X135549024Y-98664983D01*
X135464791Y-98555209D01*
X135355018Y-98470976D01*
X135342970Y-98465986D01*
X135342969Y-98465985D01*
X135308800Y-98451832D01*
X135227183Y-98418026D01*
X135090000Y-98399965D01*
X134952817Y-98418026D01*
X134940768Y-98423017D01*
X134940767Y-98423017D01*
X134867850Y-98453220D01*
X134824983Y-98470976D01*
X134715209Y-98555209D01*
X134630976Y-98664983D01*
X134578026Y-98792817D01*
X134559965Y-98930000D01*
X129125500Y-98930000D01*
X129125500Y-93380000D01*
X134759965Y-93380000D01*
X134778026Y-93517183D01*
X134783017Y-93529232D01*
X134783017Y-93529233D01*
X134801526Y-93573917D01*
X134830976Y-93645017D01*
X134915209Y-93754791D01*
X134925554Y-93762729D01*
X134994146Y-93815362D01*
X135024982Y-93839024D01*
X135037030Y-93844014D01*
X135037031Y-93844015D01*
X135044197Y-93846983D01*
X135152817Y-93891974D01*
X135290000Y-93910035D01*
X135427183Y-93891974D01*
X135535803Y-93846983D01*
X135542969Y-93844015D01*
X135542970Y-93844014D01*
X135555018Y-93839024D01*
X135585855Y-93815362D01*
X135654446Y-93762729D01*
X135664791Y-93754791D01*
X135749024Y-93645017D01*
X135778474Y-93573917D01*
X135792524Y-93539998D01*
X143934966Y-93539998D01*
X143953027Y-93677181D01*
X144005977Y-93805015D01*
X144090210Y-93914789D01*
X144113174Y-93932410D01*
X144172349Y-93977817D01*
X144199983Y-93999022D01*
X144212031Y-94004012D01*
X144212032Y-94004013D01*
X144243471Y-94017035D01*
X144327818Y-94051972D01*
X144465001Y-94070033D01*
X144602184Y-94051972D01*
X144686531Y-94017035D01*
X144717970Y-94004013D01*
X144717971Y-94004012D01*
X144730019Y-93999022D01*
X144757654Y-93977817D01*
X144816828Y-93932410D01*
X144839792Y-93914789D01*
X144924025Y-93805015D01*
X144976975Y-93677181D01*
X144995036Y-93539998D01*
X144976975Y-93402815D01*
X144924025Y-93274981D01*
X144839792Y-93165207D01*
X144826525Y-93155027D01*
X144823241Y-93151063D01*
X144820223Y-93148045D01*
X144820506Y-93147762D01*
X144770024Y-93086832D01*
X144748705Y-93000873D01*
X144766794Y-92914177D01*
X144820707Y-92843915D01*
X144899767Y-92804003D01*
X144949025Y-92801229D01*
X144949025Y-92798329D01*
X144962065Y-92798329D01*
X144975000Y-92800032D01*
X145112183Y-92781971D01*
X145193800Y-92748165D01*
X145227969Y-92734012D01*
X145227970Y-92734011D01*
X145240018Y-92729021D01*
X145349791Y-92644788D01*
X145434024Y-92535014D01*
X145486974Y-92407180D01*
X145505035Y-92269997D01*
X145486974Y-92132814D01*
X145434024Y-92004980D01*
X145349791Y-91895206D01*
X145240018Y-91810973D01*
X145227970Y-91805983D01*
X145227969Y-91805982D01*
X145193800Y-91791829D01*
X145112183Y-91758023D01*
X144975000Y-91739962D01*
X144837817Y-91758023D01*
X144825768Y-91763014D01*
X144825767Y-91763014D01*
X144740518Y-91798325D01*
X144709983Y-91810973D01*
X144600209Y-91895206D01*
X144515976Y-92004980D01*
X144463026Y-92132814D01*
X144444965Y-92269997D01*
X144463026Y-92407180D01*
X144515976Y-92535014D01*
X144600209Y-92644788D01*
X144613476Y-92654968D01*
X144616760Y-92658932D01*
X144619778Y-92661950D01*
X144619495Y-92662233D01*
X144669977Y-92723163D01*
X144691296Y-92809122D01*
X144673207Y-92895818D01*
X144619294Y-92966080D01*
X144540234Y-93005992D01*
X144490976Y-93008766D01*
X144490976Y-93011666D01*
X144477936Y-93011666D01*
X144465001Y-93009963D01*
X144327818Y-93028024D01*
X144315769Y-93033015D01*
X144315768Y-93033015D01*
X144230519Y-93068326D01*
X144199984Y-93080974D01*
X144090210Y-93165207D01*
X144005977Y-93274981D01*
X143953027Y-93402815D01*
X143934966Y-93539998D01*
X135792524Y-93539998D01*
X135796983Y-93529233D01*
X135796983Y-93529232D01*
X135801974Y-93517183D01*
X135820035Y-93380000D01*
X135801974Y-93242817D01*
X135749024Y-93114983D01*
X135664791Y-93005209D01*
X135555018Y-92920976D01*
X135542970Y-92915986D01*
X135542969Y-92915985D01*
X135491803Y-92894792D01*
X135427183Y-92868026D01*
X135290000Y-92849965D01*
X135152817Y-92868026D01*
X135140768Y-92873017D01*
X135140767Y-92873017D01*
X135133604Y-92875984D01*
X135024983Y-92920976D01*
X134915209Y-93005209D01*
X134830976Y-93114983D01*
X134778026Y-93242817D01*
X134759965Y-93380000D01*
X129125500Y-93380000D01*
X129125500Y-90995678D01*
X129144994Y-90910269D01*
X129149024Y-90905017D01*
X129157033Y-90885683D01*
X129196983Y-90789233D01*
X129196983Y-90789232D01*
X129201974Y-90777183D01*
X129220035Y-90640000D01*
X129218332Y-90627065D01*
X129218332Y-90614025D01*
X129220323Y-90614025D01*
X129227049Y-90542298D01*
X129272757Y-90466442D01*
X129346852Y-90417929D01*
X129416078Y-90405500D01*
X130607000Y-90405500D01*
X130693343Y-90425207D01*
X130705015Y-90431376D01*
X130714982Y-90439024D01*
X130727030Y-90444014D01*
X130727031Y-90444015D01*
X130761200Y-90458168D01*
X130842817Y-90491974D01*
X130980000Y-90510035D01*
X131117183Y-90491974D01*
X131198800Y-90458168D01*
X131232969Y-90444015D01*
X131232970Y-90444014D01*
X131245018Y-90439024D01*
X131263025Y-90425207D01*
X131344446Y-90362729D01*
X131354791Y-90354791D01*
X131439024Y-90245017D01*
X131491974Y-90117183D01*
X131510035Y-89980000D01*
X131491974Y-89842817D01*
X131482355Y-89819593D01*
X131444016Y-89727035D01*
X131439024Y-89714983D01*
X131354791Y-89605209D01*
X131245018Y-89520976D01*
X131245197Y-89520743D01*
X131186844Y-89466598D01*
X131172481Y-89430000D01*
X146249965Y-89430000D01*
X146268026Y-89567183D01*
X146320976Y-89695017D01*
X146405209Y-89804791D01*
X146514982Y-89889024D01*
X146527030Y-89894014D01*
X146527031Y-89894015D01*
X146551169Y-89904013D01*
X146642817Y-89941974D01*
X146780000Y-89960035D01*
X146917183Y-89941974D01*
X147008831Y-89904013D01*
X147032969Y-89894015D01*
X147032970Y-89894014D01*
X147045018Y-89889024D01*
X147135501Y-89819593D01*
X147145247Y-89812115D01*
X147225744Y-89775187D01*
X147314292Y-89776843D01*
X147389999Y-89815062D01*
X147390209Y-89814789D01*
X147396466Y-89819590D01*
X147396469Y-89819593D01*
X147489633Y-89891081D01*
X147499982Y-89899022D01*
X147512030Y-89904012D01*
X147512031Y-89904013D01*
X147516116Y-89905705D01*
X147627817Y-89951972D01*
X147765000Y-89970033D01*
X147902183Y-89951972D01*
X148013884Y-89905705D01*
X148017969Y-89904013D01*
X148017970Y-89904012D01*
X148030018Y-89899022D01*
X148043048Y-89889024D01*
X148129446Y-89822727D01*
X148139791Y-89814789D01*
X148224024Y-89705015D01*
X148276974Y-89577181D01*
X148295035Y-89439998D01*
X148276974Y-89302815D01*
X148224024Y-89174981D01*
X148139791Y-89065207D01*
X148030018Y-88980974D01*
X148017970Y-88975984D01*
X148017969Y-88975983D01*
X147981334Y-88960809D01*
X147902183Y-88928024D01*
X147765000Y-88909963D01*
X147627817Y-88928024D01*
X147615768Y-88933015D01*
X147615767Y-88933015D01*
X147594708Y-88941738D01*
X147499983Y-88980974D01*
X147489638Y-88988912D01*
X147489631Y-88988916D01*
X147399752Y-89057883D01*
X147319255Y-89094811D01*
X147230707Y-89093155D01*
X147155001Y-89054936D01*
X147154791Y-89055209D01*
X147153348Y-89054102D01*
X147148534Y-89050408D01*
X147148531Y-89050405D01*
X147055367Y-88978917D01*
X147055366Y-88978916D01*
X147045018Y-88970976D01*
X147032970Y-88965986D01*
X147032969Y-88965985D01*
X146998800Y-88951832D01*
X146917183Y-88918026D01*
X146780000Y-88899965D01*
X146642817Y-88918026D01*
X146630768Y-88923017D01*
X146630767Y-88923017D01*
X146545518Y-88958328D01*
X146514983Y-88970976D01*
X146405209Y-89055209D01*
X146320976Y-89164983D01*
X146268026Y-89292817D01*
X146249965Y-89430000D01*
X131172481Y-89430000D01*
X131154490Y-89384156D01*
X131161110Y-89295840D01*
X131205393Y-89219143D01*
X131278569Y-89169255D01*
X131351268Y-89155500D01*
X132012393Y-89155500D01*
X132027539Y-89150579D01*
X132029743Y-89149863D01*
X132060099Y-89142575D01*
X132062656Y-89142170D01*
X132062661Y-89142168D01*
X132078126Y-89139719D01*
X132092077Y-89132610D01*
X132092079Y-89132610D01*
X132094385Y-89131435D01*
X132123228Y-89119488D01*
X132125681Y-89118691D01*
X132125684Y-89118689D01*
X132140581Y-89113849D01*
X132155338Y-89103127D01*
X132181961Y-89086813D01*
X132198220Y-89078528D01*
X133112124Y-88164624D01*
X133187112Y-88117505D01*
X133199729Y-88113614D01*
X133212183Y-88111974D01*
X133261207Y-88091668D01*
X133327969Y-88064015D01*
X133327970Y-88064014D01*
X133340018Y-88059024D01*
X133449791Y-87974791D01*
X133534024Y-87865017D01*
X133586974Y-87737183D01*
X133605035Y-87600000D01*
X133586974Y-87462817D01*
X133572462Y-87427780D01*
X133539016Y-87347035D01*
X133534024Y-87334983D01*
X133449791Y-87225209D01*
X133405425Y-87191166D01*
X133350367Y-87148917D01*
X133350366Y-87148916D01*
X133340018Y-87140976D01*
X133327970Y-87135986D01*
X133327969Y-87135985D01*
X133293800Y-87121832D01*
X133212183Y-87088026D01*
X133075000Y-87069965D01*
X132937817Y-87088026D01*
X132925768Y-87093017D01*
X132925767Y-87093017D01*
X132924850Y-87093397D01*
X132809983Y-87140976D01*
X132700209Y-87225209D01*
X132615976Y-87334983D01*
X132610984Y-87347035D01*
X132573582Y-87437333D01*
X132563026Y-87462817D01*
X132561503Y-87474382D01*
X132520501Y-87551965D01*
X132510377Y-87562875D01*
X131827038Y-88246214D01*
X131752050Y-88293333D01*
X131686324Y-88304500D01*
X125472607Y-88304500D01*
X125457714Y-88309339D01*
X125457713Y-88309339D01*
X125455257Y-88310137D01*
X125424893Y-88317427D01*
X125406874Y-88320281D01*
X125390626Y-88328560D01*
X125361773Y-88340512D01*
X125344420Y-88346150D01*
X125331747Y-88355357D01*
X125331748Y-88355357D01*
X125329661Y-88356873D01*
X125303033Y-88373191D01*
X125286780Y-88381472D01*
X123751472Y-89916780D01*
X123744363Y-89930732D01*
X123743190Y-89933035D01*
X123726873Y-89959662D01*
X123716151Y-89974419D01*
X123711311Y-89989316D01*
X123711309Y-89989319D01*
X123710512Y-89991772D01*
X123698565Y-90020615D01*
X123690281Y-90036874D01*
X123687832Y-90052339D01*
X123687830Y-90052344D01*
X123687425Y-90054901D01*
X123680137Y-90085257D01*
X123674500Y-90102607D01*
X123674500Y-93479573D01*
X123654793Y-93565916D01*
X123599574Y-93635157D01*
X123519782Y-93673584D01*
X123431218Y-93673584D01*
X123386537Y-93656048D01*
X123386443Y-93655976D01*
X123374395Y-93650986D01*
X123374394Y-93650985D01*
X123340225Y-93636832D01*
X123258608Y-93603026D01*
X123121425Y-93584965D01*
X122984242Y-93603026D01*
X122972193Y-93608017D01*
X122972192Y-93608017D01*
X122911962Y-93632965D01*
X122856408Y-93655976D01*
X122746634Y-93740209D01*
X122662401Y-93849983D01*
X122609451Y-93977817D01*
X122591390Y-94115000D01*
X122609451Y-94252183D01*
X122622189Y-94282935D01*
X122629815Y-94301347D01*
X122644649Y-94388659D01*
X122629815Y-94453653D01*
X122609451Y-94502817D01*
X122591390Y-94640000D01*
X121865500Y-94640000D01*
X121865500Y-88394835D01*
X121885207Y-88308492D01*
X121940426Y-88239251D01*
X122020218Y-88200824D01*
X122108782Y-88200824D01*
X122188574Y-88239251D01*
X122238704Y-88302111D01*
X122239464Y-88301672D01*
X122242375Y-88306713D01*
X122243793Y-88308492D01*
X122245141Y-88311505D01*
X122245984Y-88312965D01*
X122250976Y-88325017D01*
X122335209Y-88434791D01*
X122361946Y-88455307D01*
X122414649Y-88495748D01*
X122444982Y-88519024D01*
X122457030Y-88524014D01*
X122457031Y-88524015D01*
X122481104Y-88533986D01*
X122572817Y-88571974D01*
X122710000Y-88590035D01*
X122847183Y-88571974D01*
X122938896Y-88533986D01*
X122962969Y-88524015D01*
X122962970Y-88524014D01*
X122975018Y-88519024D01*
X123005352Y-88495748D01*
X123058054Y-88455307D01*
X123084791Y-88434791D01*
X123169024Y-88325017D01*
X123221974Y-88197183D01*
X123223497Y-88185618D01*
X123264499Y-88108035D01*
X123274623Y-88097125D01*
X125831748Y-85540000D01*
X128729965Y-85540000D01*
X128748026Y-85677183D01*
X128753017Y-85689232D01*
X128753017Y-85689233D01*
X128760854Y-85708153D01*
X128800976Y-85805017D01*
X128885209Y-85914791D01*
X128895554Y-85922729D01*
X128981575Y-85988736D01*
X128994982Y-85999024D01*
X129007030Y-86004014D01*
X129007031Y-86004015D01*
X129034769Y-86015504D01*
X129122817Y-86051974D01*
X129260000Y-86070035D01*
X129397183Y-86051974D01*
X129485231Y-86015504D01*
X129512969Y-86004015D01*
X129512970Y-86004014D01*
X129525018Y-85999024D01*
X129538426Y-85988736D01*
X129624446Y-85922729D01*
X129634791Y-85914791D01*
X129719024Y-85805017D01*
X129759146Y-85708153D01*
X129766983Y-85689233D01*
X129766983Y-85689232D01*
X129771974Y-85677183D01*
X129790035Y-85540000D01*
X129771974Y-85402817D01*
X129719024Y-85274983D01*
X129634791Y-85165209D01*
X129525018Y-85080976D01*
X129512970Y-85075986D01*
X129512969Y-85075985D01*
X129478800Y-85061832D01*
X129397183Y-85028026D01*
X129260000Y-85009965D01*
X129122817Y-85028026D01*
X129110768Y-85033017D01*
X129110767Y-85033017D01*
X129028135Y-85067244D01*
X128994983Y-85080976D01*
X128885209Y-85165209D01*
X128800976Y-85274983D01*
X128748026Y-85402817D01*
X128729965Y-85540000D01*
X125831748Y-85540000D01*
X127018528Y-84353220D01*
X127025639Y-84339264D01*
X127025641Y-84339261D01*
X127026811Y-84336965D01*
X127043125Y-84310342D01*
X127044645Y-84308250D01*
X127053850Y-84295581D01*
X127059488Y-84278230D01*
X127071437Y-84249380D01*
X127072611Y-84247076D01*
X127079719Y-84233126D01*
X127082573Y-84215107D01*
X127089863Y-84184743D01*
X127090661Y-84182287D01*
X127090661Y-84182286D01*
X127095500Y-84167393D01*
X127095500Y-84150000D01*
X142149965Y-84150000D01*
X142168026Y-84287183D01*
X142173017Y-84299232D01*
X142173017Y-84299233D01*
X142195379Y-84353220D01*
X142220976Y-84415017D01*
X142305209Y-84524791D01*
X142414982Y-84609024D01*
X142427030Y-84614014D01*
X142427031Y-84614015D01*
X142461200Y-84628168D01*
X142542817Y-84661974D01*
X142680000Y-84680035D01*
X142817183Y-84661974D01*
X142898800Y-84628168D01*
X142932969Y-84614015D01*
X142932970Y-84614014D01*
X142945018Y-84609024D01*
X143054791Y-84524791D01*
X143139024Y-84415017D01*
X143164621Y-84353220D01*
X143186983Y-84299233D01*
X143186983Y-84299232D01*
X143191974Y-84287183D01*
X143210035Y-84150000D01*
X143191974Y-84012817D01*
X143181863Y-83988405D01*
X143144016Y-83897035D01*
X143139024Y-83884983D01*
X143054791Y-83775209D01*
X142945018Y-83690976D01*
X142932970Y-83685986D01*
X142932969Y-83685985D01*
X142892525Y-83669233D01*
X142817183Y-83638026D01*
X142680000Y-83619965D01*
X142542817Y-83638026D01*
X142530768Y-83643017D01*
X142530767Y-83643017D01*
X142496567Y-83657183D01*
X142414983Y-83690976D01*
X142305209Y-83775209D01*
X142220976Y-83884983D01*
X142215984Y-83897035D01*
X142178138Y-83988405D01*
X142168026Y-84012817D01*
X142149965Y-84150000D01*
X127095500Y-84150000D01*
X127095500Y-75888676D01*
X127115207Y-75802333D01*
X127153786Y-75747962D01*
X127284239Y-75617509D01*
X127359227Y-75570390D01*
X127379510Y-75564481D01*
X127475932Y-75541865D01*
X127489136Y-75538768D01*
X127621308Y-75466107D01*
X127629422Y-75459103D01*
X131304738Y-71783786D01*
X131379726Y-71736667D01*
X131445452Y-71725500D01*
X138527648Y-71725500D01*
X138613991Y-71745207D01*
X138683232Y-71800426D01*
X138721659Y-71880218D01*
X138725253Y-71900982D01*
X138725852Y-71906013D01*
X138725853Y-71906018D01*
X138727618Y-71920846D01*
X138733680Y-71934493D01*
X138733680Y-71934494D01*
X138763944Y-72002627D01*
X138773061Y-72023153D01*
X138786064Y-72036133D01*
X138838959Y-72088936D01*
X138852287Y-72102241D01*
X138920400Y-72132354D01*
X138940681Y-72141320D01*
X138954673Y-72147506D01*
X138969533Y-72149238D01*
X138969535Y-72149239D01*
X138974612Y-72149831D01*
X138974619Y-72149831D01*
X138980354Y-72150500D01*
X140419646Y-72150500D01*
X140425484Y-72149805D01*
X140425488Y-72149805D01*
X140431019Y-72149147D01*
X140431022Y-72149146D01*
X140445846Y-72147382D01*
X140459494Y-72141320D01*
X140531361Y-72109398D01*
X140531362Y-72109397D01*
X140548153Y-72101939D01*
X140587763Y-72062260D01*
X140614260Y-72035717D01*
X140614261Y-72035716D01*
X140627241Y-72022713D01*
X140672506Y-71920327D01*
X140675730Y-71921752D01*
X140705347Y-71866312D01*
X140776838Y-71814040D01*
X140863930Y-71797962D01*
X140949373Y-71821265D01*
X140994331Y-71855214D01*
X140994889Y-71855918D01*
X141002301Y-71862226D01*
X141133159Y-71973596D01*
X141133162Y-71973598D01*
X141140575Y-71979907D01*
X141149068Y-71984654D01*
X141149073Y-71984657D01*
X141299075Y-72068490D01*
X141299081Y-72068492D01*
X141307570Y-72073237D01*
X141316825Y-72076244D01*
X141316827Y-72076245D01*
X141480253Y-72129346D01*
X141480257Y-72129347D01*
X141489512Y-72132354D01*
X141499176Y-72133506D01*
X141499179Y-72133507D01*
X141669809Y-72153853D01*
X141669811Y-72153853D01*
X141679472Y-72155005D01*
X141791989Y-72146347D01*
X141879589Y-72159371D01*
X141952863Y-72209115D01*
X141997297Y-72285724D01*
X142006256Y-72344760D01*
X142006256Y-77409149D01*
X142011097Y-77424048D01*
X142011893Y-77426499D01*
X142019181Y-77456855D01*
X142019586Y-77459412D01*
X142019588Y-77459417D01*
X142022037Y-77474882D01*
X142029146Y-77488833D01*
X142029146Y-77488835D01*
X142030321Y-77491141D01*
X142042268Y-77519984D01*
X142043065Y-77522437D01*
X142043067Y-77522440D01*
X142047907Y-77537337D01*
X142057114Y-77550009D01*
X142058626Y-77552090D01*
X142074943Y-77578717D01*
X142083228Y-77594976D01*
X142107202Y-77618950D01*
X143251616Y-78763363D01*
X144202730Y-79714477D01*
X144249849Y-79789465D01*
X144259765Y-79877472D01*
X144230514Y-79961065D01*
X144183160Y-80013068D01*
X144115209Y-80065209D01*
X144030976Y-80174983D01*
X143978026Y-80302817D01*
X143959965Y-80440000D01*
X143978026Y-80577183D01*
X143983017Y-80589232D01*
X143983017Y-80589233D01*
X143995081Y-80618359D01*
X144030976Y-80705017D01*
X144115209Y-80814791D01*
X144155017Y-80845337D01*
X144207182Y-80885365D01*
X144224982Y-80899024D01*
X144237030Y-80904014D01*
X144237031Y-80904015D01*
X144237934Y-80904389D01*
X144352817Y-80951974D01*
X144490000Y-80970035D01*
X144489502Y-80973815D01*
X144551823Y-80988039D01*
X144621064Y-81043258D01*
X144659491Y-81123050D01*
X144662773Y-81141332D01*
X144673069Y-81219529D01*
X144664800Y-81307702D01*
X144619092Y-81383558D01*
X144544997Y-81432071D01*
X144475771Y-81444500D01*
X140168676Y-81444500D01*
X140082333Y-81424793D01*
X140027962Y-81386214D01*
X138631748Y-79990000D01*
X141649965Y-79990000D01*
X141668026Y-80127183D01*
X141673017Y-80139232D01*
X141673017Y-80139233D01*
X141701097Y-80207024D01*
X141720976Y-80255017D01*
X141805209Y-80364791D01*
X141914982Y-80449024D01*
X141927030Y-80454014D01*
X141927031Y-80454015D01*
X141961200Y-80468168D01*
X142042817Y-80501974D01*
X142180000Y-80520035D01*
X142317183Y-80501974D01*
X142398800Y-80468168D01*
X142432969Y-80454015D01*
X142432970Y-80454014D01*
X142445018Y-80449024D01*
X142554791Y-80364791D01*
X142639024Y-80255017D01*
X142658903Y-80207024D01*
X142686983Y-80139233D01*
X142686983Y-80139232D01*
X142691974Y-80127183D01*
X142710035Y-79990000D01*
X142691974Y-79852817D01*
X142670632Y-79801291D01*
X142644016Y-79737035D01*
X142639024Y-79724983D01*
X142554791Y-79615209D01*
X142492646Y-79567523D01*
X142455367Y-79538917D01*
X142455366Y-79538916D01*
X142445018Y-79530976D01*
X142432970Y-79525986D01*
X142432969Y-79525985D01*
X142398800Y-79511832D01*
X142317183Y-79478026D01*
X142180000Y-79459965D01*
X142042817Y-79478026D01*
X142030768Y-79483017D01*
X142030767Y-79483017D01*
X141956568Y-79513751D01*
X141914983Y-79530976D01*
X141805209Y-79615209D01*
X141720976Y-79724983D01*
X141715984Y-79737035D01*
X141689369Y-79801291D01*
X141668026Y-79852817D01*
X141649965Y-79990000D01*
X138631748Y-79990000D01*
X133680720Y-75038972D01*
X133664461Y-75030687D01*
X133637838Y-75014373D01*
X133623081Y-75003651D01*
X133608184Y-74998811D01*
X133608181Y-74998809D01*
X133605728Y-74998012D01*
X133576885Y-74986065D01*
X133574579Y-74984890D01*
X133574577Y-74984890D01*
X133560626Y-74977781D01*
X133545161Y-74975332D01*
X133545156Y-74975330D01*
X133542599Y-74974925D01*
X133512243Y-74967637D01*
X133509792Y-74966841D01*
X133494893Y-74962000D01*
X132763000Y-74962000D01*
X132676657Y-74942293D01*
X132664985Y-74936124D01*
X132655018Y-74928476D01*
X132642970Y-74923486D01*
X132642969Y-74923485D01*
X132579681Y-74897271D01*
X132527183Y-74875526D01*
X132390000Y-74857465D01*
X132252817Y-74875526D01*
X132240768Y-74880517D01*
X132240767Y-74880517D01*
X132137034Y-74923484D01*
X132137032Y-74923485D01*
X132124983Y-74928476D01*
X132115728Y-74935578D01*
X132031870Y-74961444D01*
X132017001Y-74962000D01*
X130105107Y-74962000D01*
X130090208Y-74966841D01*
X130087757Y-74967637D01*
X130057401Y-74974925D01*
X130054844Y-74975330D01*
X130054839Y-74975332D01*
X130039374Y-74977781D01*
X130025423Y-74984890D01*
X130025421Y-74984890D01*
X130023115Y-74986065D01*
X129994272Y-74998012D01*
X129991819Y-74998809D01*
X129991816Y-74998811D01*
X129976919Y-75003651D01*
X129962162Y-75014373D01*
X129935539Y-75030687D01*
X129919280Y-75038972D01*
X127851472Y-77106780D01*
X127844363Y-77120732D01*
X127843190Y-77123035D01*
X127826873Y-77149662D01*
X127816151Y-77164419D01*
X127811311Y-77179316D01*
X127811309Y-77179319D01*
X127810512Y-77181772D01*
X127798565Y-77210615D01*
X127790281Y-77226874D01*
X127787832Y-77242339D01*
X127787830Y-77242344D01*
X127787425Y-77244901D01*
X127780137Y-77275257D01*
X127774500Y-77292607D01*
X127774500Y-77447001D01*
X127754793Y-77533344D01*
X127748623Y-77545017D01*
X127740976Y-77554983D01*
X127735985Y-77567032D01*
X127735984Y-77567034D01*
X127693017Y-77670767D01*
X127688026Y-77682817D01*
X127669965Y-77820000D01*
X127688026Y-77957183D01*
X127740976Y-78085017D01*
X127825209Y-78194791D01*
X127835554Y-78202729D01*
X127898030Y-78250669D01*
X127934982Y-78279024D01*
X127947030Y-78284014D01*
X127947031Y-78284015D01*
X127981200Y-78298168D01*
X128062817Y-78331974D01*
X128200000Y-78350035D01*
X128337183Y-78331974D01*
X128418800Y-78298168D01*
X128452969Y-78284015D01*
X128452970Y-78284014D01*
X128465018Y-78279024D01*
X128533560Y-78226429D01*
X128614057Y-78189501D01*
X128702605Y-78191156D01*
X128730859Y-78200453D01*
X128770767Y-78216984D01*
X128770775Y-78216986D01*
X128782817Y-78221974D01*
X128920000Y-78240035D01*
X129057183Y-78221974D01*
X129069227Y-78216985D01*
X129069232Y-78216984D01*
X129092053Y-78207531D01*
X129179365Y-78192696D01*
X129264467Y-78217214D01*
X129308921Y-78250669D01*
X132764797Y-81706545D01*
X132807935Y-81771106D01*
X132850976Y-81875017D01*
X132935209Y-81984791D01*
X132945554Y-81992729D01*
X132947111Y-81994286D01*
X132994230Y-82069274D01*
X133004146Y-82157281D01*
X132974895Y-82240874D01*
X132955929Y-82264657D01*
X132955209Y-82265209D01*
X132870976Y-82374983D01*
X132818026Y-82502817D01*
X132799965Y-82640000D01*
X132818026Y-82777183D01*
X132870976Y-82905017D01*
X132955209Y-83014791D01*
X133064982Y-83099024D01*
X133077030Y-83104014D01*
X133077031Y-83104015D01*
X133093837Y-83110976D01*
X133192817Y-83151974D01*
X133330000Y-83170035D01*
X133467183Y-83151974D01*
X133566163Y-83110976D01*
X133582969Y-83104015D01*
X133582970Y-83104014D01*
X133595018Y-83099024D01*
X133704791Y-83014791D01*
X133789024Y-82905017D01*
X133841974Y-82777183D01*
X133860035Y-82640000D01*
X133841974Y-82502817D01*
X133789024Y-82374983D01*
X133704791Y-82265209D01*
X133694446Y-82257271D01*
X133692889Y-82255714D01*
X133645770Y-82180726D01*
X133640055Y-82130000D01*
X134919965Y-82130000D01*
X134938026Y-82267183D01*
X134943017Y-82279232D01*
X134943017Y-82279233D01*
X134958948Y-82317694D01*
X134990976Y-82395017D01*
X135075209Y-82504791D01*
X135184982Y-82589024D01*
X135197030Y-82594014D01*
X135197031Y-82594015D01*
X135221746Y-82604252D01*
X135312817Y-82641974D01*
X135450000Y-82660035D01*
X135587183Y-82641974D01*
X135678254Y-82604252D01*
X135702969Y-82594015D01*
X135702970Y-82594014D01*
X135715018Y-82589024D01*
X135824791Y-82504791D01*
X135909024Y-82395017D01*
X135941052Y-82317694D01*
X135956983Y-82279233D01*
X135956983Y-82279232D01*
X135961974Y-82267183D01*
X135980035Y-82130000D01*
X135961974Y-81992817D01*
X135954810Y-81975520D01*
X135914016Y-81877035D01*
X135909024Y-81864983D01*
X135824791Y-81755209D01*
X135715018Y-81670976D01*
X135702970Y-81665986D01*
X135702969Y-81665985D01*
X135654328Y-81645838D01*
X135587183Y-81618026D01*
X135450000Y-81599965D01*
X135312817Y-81618026D01*
X135300768Y-81623017D01*
X135300767Y-81623017D01*
X135274433Y-81633925D01*
X135184983Y-81670976D01*
X135075209Y-81755209D01*
X134990976Y-81864983D01*
X134985984Y-81877035D01*
X134945191Y-81975520D01*
X134938026Y-81992817D01*
X134919965Y-82130000D01*
X133640055Y-82130000D01*
X133635854Y-82092719D01*
X133665105Y-82009126D01*
X133684071Y-81985343D01*
X133684791Y-81984791D01*
X133769024Y-81875017D01*
X133821974Y-81747183D01*
X133840035Y-81610000D01*
X133821974Y-81472817D01*
X133814257Y-81454185D01*
X133774016Y-81357035D01*
X133769024Y-81344983D01*
X133684791Y-81235209D01*
X133685770Y-81234458D01*
X133645647Y-81170603D01*
X133635731Y-81082596D01*
X133664982Y-80999003D01*
X133675603Y-80983733D01*
X133751084Y-80885365D01*
X133751085Y-80885363D01*
X133759024Y-80875017D01*
X133785708Y-80810595D01*
X133806983Y-80759233D01*
X133806983Y-80759232D01*
X133811974Y-80747183D01*
X133830035Y-80610000D01*
X133811974Y-80472817D01*
X133798830Y-80441083D01*
X133764016Y-80357035D01*
X133759024Y-80344983D01*
X133708875Y-80279628D01*
X133671947Y-80199131D01*
X133673603Y-80110583D01*
X133708875Y-80037340D01*
X133741084Y-79995365D01*
X133741085Y-79995363D01*
X133749024Y-79985017D01*
X133778930Y-79912817D01*
X133796983Y-79869233D01*
X133796983Y-79869232D01*
X133801974Y-79857183D01*
X133820035Y-79720000D01*
X133801974Y-79582817D01*
X133791206Y-79556819D01*
X133754016Y-79467035D01*
X133749024Y-79454983D01*
X133664791Y-79345209D01*
X133635035Y-79322376D01*
X133578532Y-79254179D01*
X133557215Y-79168219D01*
X133575305Y-79081523D01*
X133629219Y-79011262D01*
X133708280Y-78971351D01*
X133756180Y-78965500D01*
X135461324Y-78965500D01*
X135547667Y-78985207D01*
X135602038Y-79023786D01*
X135804199Y-79225947D01*
X135851318Y-79300935D01*
X135861234Y-79388942D01*
X135831983Y-79472535D01*
X135769359Y-79535159D01*
X135685766Y-79564410D01*
X135597759Y-79554494D01*
X135587332Y-79550513D01*
X135569236Y-79543017D01*
X135569226Y-79543014D01*
X135557183Y-79538026D01*
X135420000Y-79519965D01*
X135282817Y-79538026D01*
X135270768Y-79543017D01*
X135270767Y-79543017D01*
X135217654Y-79565017D01*
X135154983Y-79590976D01*
X135045209Y-79675209D01*
X134960976Y-79784983D01*
X134955984Y-79797035D01*
X134921605Y-79880035D01*
X134908026Y-79912817D01*
X134889965Y-80050000D01*
X134908026Y-80187183D01*
X134913017Y-80199232D01*
X134913017Y-80199233D01*
X134927919Y-80235209D01*
X134960976Y-80315017D01*
X135045209Y-80424791D01*
X135066441Y-80441083D01*
X135142774Y-80499656D01*
X135154982Y-80509024D01*
X135167030Y-80514014D01*
X135167031Y-80514015D01*
X135187048Y-80522306D01*
X135282817Y-80561974D01*
X135420000Y-80580035D01*
X135557183Y-80561974D01*
X135652952Y-80522306D01*
X135672969Y-80514015D01*
X135672970Y-80514014D01*
X135685018Y-80509024D01*
X135697227Y-80499656D01*
X135773559Y-80441083D01*
X135794791Y-80424791D01*
X135879024Y-80315017D01*
X135912081Y-80235209D01*
X135926983Y-80199233D01*
X135926983Y-80199232D01*
X135931974Y-80187183D01*
X135950035Y-80050000D01*
X135931974Y-79912817D01*
X135919485Y-79882665D01*
X135904650Y-79795355D01*
X135929167Y-79710253D01*
X135988181Y-79644217D01*
X136070003Y-79610325D01*
X136158427Y-79615290D01*
X136235940Y-79658130D01*
X136244051Y-79665799D01*
X139416780Y-82838528D01*
X139433031Y-82846808D01*
X139459661Y-82863127D01*
X139474420Y-82873850D01*
X139491773Y-82879488D01*
X139520625Y-82891440D01*
X139536874Y-82899719D01*
X139552342Y-82902169D01*
X139554893Y-82902573D01*
X139585257Y-82909863D01*
X139587713Y-82910661D01*
X139587714Y-82910661D01*
X139602607Y-82915500D01*
X146744320Y-82915500D01*
X146829730Y-82934994D01*
X146834982Y-82939024D01*
X146847030Y-82944014D01*
X146847031Y-82944015D01*
X146881200Y-82958168D01*
X146962817Y-82991974D01*
X147100000Y-83010035D01*
X147237183Y-82991974D01*
X147318800Y-82958168D01*
X147352969Y-82944015D01*
X147352970Y-82944014D01*
X147365018Y-82939024D01*
X147474791Y-82854791D01*
X147559024Y-82745017D01*
X147597165Y-82652935D01*
X147606983Y-82629233D01*
X147606983Y-82629232D01*
X147611974Y-82617183D01*
X147630035Y-82480000D01*
X147611974Y-82342817D01*
X147594509Y-82300651D01*
X147579674Y-82213342D01*
X147604191Y-82128240D01*
X147663205Y-82062204D01*
X147745027Y-82028312D01*
X147778361Y-82025500D01*
X148601324Y-82025500D01*
X148687667Y-82045207D01*
X148742038Y-82083786D01*
X148860377Y-82202125D01*
X148907496Y-82277113D01*
X148911386Y-82289724D01*
X148913026Y-82302183D01*
X148918018Y-82314236D01*
X148918019Y-82314238D01*
X148947006Y-82384218D01*
X148965976Y-82430017D01*
X149050209Y-82539791D01*
X149159982Y-82624024D01*
X149172030Y-82629014D01*
X149172031Y-82629015D01*
X149191271Y-82636984D01*
X149287817Y-82676974D01*
X149425000Y-82695035D01*
X149562183Y-82676974D01*
X149574230Y-82671984D01*
X149586835Y-82668607D01*
X149587770Y-82672096D01*
X149651686Y-82661246D01*
X149736785Y-82685775D01*
X149802813Y-82744798D01*
X149836693Y-82826625D01*
X149839500Y-82859931D01*
X149839500Y-87241475D01*
X149838121Y-87264864D01*
X149834636Y-87294310D01*
X149837309Y-87308946D01*
X149844970Y-87350895D01*
X149845996Y-87357059D01*
X149854551Y-87413962D01*
X149857679Y-87420475D01*
X149858975Y-87427573D01*
X149865830Y-87440770D01*
X149865832Y-87440775D01*
X149885487Y-87478613D01*
X149888253Y-87484147D01*
X149913191Y-87536079D01*
X149918094Y-87541383D01*
X149921421Y-87547788D01*
X149925725Y-87552828D01*
X149961943Y-87589046D01*
X149967360Y-87594679D01*
X149995050Y-87624635D01*
X149995053Y-87624637D01*
X150005146Y-87635556D01*
X150012295Y-87639708D01*
X150015274Y-87642377D01*
X150181214Y-87808317D01*
X150228333Y-87883305D01*
X150239500Y-87949031D01*
X150239500Y-88725375D01*
X150219793Y-88811718D01*
X150164574Y-88880959D01*
X150084782Y-88919386D01*
X149997219Y-88917750D01*
X149997183Y-88918026D01*
X149994730Y-88917703D01*
X149860000Y-88899965D01*
X149722817Y-88918026D01*
X149710768Y-88923017D01*
X149710767Y-88923017D01*
X149625518Y-88958328D01*
X149594983Y-88970976D01*
X149485209Y-89055209D01*
X149400976Y-89164983D01*
X149348026Y-89292817D01*
X149329965Y-89430000D01*
X149348026Y-89567183D01*
X149400976Y-89695017D01*
X149485209Y-89804791D01*
X149594982Y-89889024D01*
X149607030Y-89894014D01*
X149607031Y-89894015D01*
X149631169Y-89904013D01*
X149722817Y-89941974D01*
X149860000Y-89960035D01*
X149915468Y-89952732D01*
X150003641Y-89961001D01*
X150079497Y-90006709D01*
X150128010Y-90080804D01*
X150139570Y-90168609D01*
X150111887Y-90252735D01*
X150082153Y-90290744D01*
X148118691Y-92254206D01*
X148101178Y-92269769D01*
X148089573Y-92278917D01*
X148089570Y-92278920D01*
X148077890Y-92288128D01*
X148069432Y-92300366D01*
X148069431Y-92300367D01*
X148045189Y-92335443D01*
X148041556Y-92340527D01*
X148007366Y-92386816D01*
X148004973Y-92393632D01*
X148000869Y-92399569D01*
X147996381Y-92413760D01*
X147983524Y-92454412D01*
X147981546Y-92460340D01*
X147962481Y-92514631D01*
X147962198Y-92521845D01*
X147960020Y-92528730D01*
X147959500Y-92535337D01*
X147959500Y-92586575D01*
X147959347Y-92594386D01*
X147957162Y-92649994D01*
X147959280Y-92657984D01*
X147959500Y-92661973D01*
X147959500Y-94874822D01*
X147944352Y-94950975D01*
X147898026Y-95062817D01*
X147879965Y-95200000D01*
X147898026Y-95337183D01*
X147903017Y-95349232D01*
X147903017Y-95349233D01*
X147919007Y-95387836D01*
X147950976Y-95465017D01*
X148019529Y-95554356D01*
X148056457Y-95634853D01*
X148054801Y-95723401D01*
X148014890Y-95802461D01*
X147944628Y-95856376D01*
X147861652Y-95874500D01*
X144508675Y-95874500D01*
X144422332Y-95854793D01*
X144367961Y-95816214D01*
X144243711Y-95691963D01*
X144043218Y-95491470D01*
X144026959Y-95483185D01*
X144000336Y-95466871D01*
X143985579Y-95456149D01*
X143970682Y-95451309D01*
X143970679Y-95451307D01*
X143968226Y-95450510D01*
X143939383Y-95438563D01*
X143937077Y-95437388D01*
X143937075Y-95437388D01*
X143923124Y-95430279D01*
X143907659Y-95427830D01*
X143907654Y-95427828D01*
X143905097Y-95427423D01*
X143874741Y-95420135D01*
X143872290Y-95419339D01*
X143857391Y-95414498D01*
X142733002Y-95414498D01*
X142646659Y-95394791D01*
X142634987Y-95388622D01*
X142625020Y-95380974D01*
X142612972Y-95375984D01*
X142612971Y-95375983D01*
X142548389Y-95349233D01*
X142497185Y-95328024D01*
X142360002Y-95309963D01*
X142222819Y-95328024D01*
X142210770Y-95333015D01*
X142210769Y-95333015D01*
X142200707Y-95337183D01*
X142094985Y-95380974D01*
X141985211Y-95465207D01*
X141900978Y-95574981D01*
X141895986Y-95587033D01*
X141866167Y-95659024D01*
X141848028Y-95702815D01*
X141846505Y-95714380D01*
X141805503Y-95791963D01*
X141795379Y-95802873D01*
X141191472Y-96406780D01*
X141184363Y-96420732D01*
X141183190Y-96423035D01*
X141166873Y-96449662D01*
X141156151Y-96464419D01*
X141151311Y-96479316D01*
X141151309Y-96479319D01*
X141150512Y-96481772D01*
X141138565Y-96510615D01*
X141130281Y-96526874D01*
X141127832Y-96542339D01*
X141127830Y-96542344D01*
X141127425Y-96544901D01*
X141120137Y-96575257D01*
X141114500Y-96592607D01*
X141114500Y-97296053D01*
X141094793Y-97382396D01*
X141039574Y-97451637D01*
X140959782Y-97490064D01*
X140871218Y-97490064D01*
X140791426Y-97451637D01*
X140743627Y-97396095D01*
X140739024Y-97384982D01*
X140654791Y-97275208D01*
X140545018Y-97190975D01*
X140532970Y-97185985D01*
X140532969Y-97185984D01*
X140492240Y-97169114D01*
X140417183Y-97138025D01*
X140280000Y-97119964D01*
X140142817Y-97138025D01*
X140044383Y-97178797D01*
X139957072Y-97193632D01*
X139871971Y-97169114D01*
X139805934Y-97110100D01*
X139772043Y-97028278D01*
X139777009Y-96939854D01*
X139819849Y-96862342D01*
X139827517Y-96854231D01*
X140653528Y-96028220D01*
X140661813Y-96011961D01*
X140678130Y-95985334D01*
X140679642Y-95983253D01*
X140688849Y-95970581D01*
X140693689Y-95955684D01*
X140693691Y-95955681D01*
X140694488Y-95953228D01*
X140706435Y-95924385D01*
X140707610Y-95922079D01*
X140707610Y-95922077D01*
X140714719Y-95908126D01*
X140717168Y-95892661D01*
X140717170Y-95892656D01*
X140717575Y-95890099D01*
X140724863Y-95859743D01*
X140725659Y-95857292D01*
X140730500Y-95842393D01*
X140730500Y-94922997D01*
X140750207Y-94836654D01*
X140756377Y-94824981D01*
X140764024Y-94815015D01*
X140770935Y-94798332D01*
X140811983Y-94699231D01*
X140811983Y-94699230D01*
X140816974Y-94687181D01*
X140835035Y-94549998D01*
X140816974Y-94412815D01*
X140811580Y-94399791D01*
X140769016Y-94297033D01*
X140764024Y-94284981D01*
X140679791Y-94175207D01*
X140618186Y-94127935D01*
X140580367Y-94098915D01*
X140580366Y-94098914D01*
X140570018Y-94090974D01*
X140557970Y-94085984D01*
X140557969Y-94085983D01*
X140519461Y-94070033D01*
X140442183Y-94038024D01*
X140305000Y-94019963D01*
X140167817Y-94038024D01*
X140155768Y-94043015D01*
X140155767Y-94043015D01*
X140071274Y-94078013D01*
X140039983Y-94090974D01*
X139930209Y-94175207D01*
X139845976Y-94284981D01*
X139840984Y-94297033D01*
X139798421Y-94399791D01*
X139793026Y-94412815D01*
X139774965Y-94549998D01*
X139793026Y-94687181D01*
X139798017Y-94699230D01*
X139798017Y-94699231D01*
X139839066Y-94798332D01*
X139845976Y-94815015D01*
X139853078Y-94824270D01*
X139878944Y-94908128D01*
X139879500Y-94922997D01*
X139879500Y-95516324D01*
X139859793Y-95602667D01*
X139821214Y-95657038D01*
X133532875Y-101945377D01*
X133457887Y-101992496D01*
X133445276Y-101996386D01*
X133432817Y-101998026D01*
X133420764Y-102003018D01*
X133420762Y-102003019D01*
X133411149Y-102007001D01*
X133304983Y-102050976D01*
X133195209Y-102135209D01*
X133110976Y-102244983D01*
X133058026Y-102372817D01*
X133039965Y-102510000D01*
X133058026Y-102647183D01*
X133110976Y-102775017D01*
X133195209Y-102884791D01*
X133304982Y-102969024D01*
X133317030Y-102974014D01*
X133317031Y-102974015D01*
X133338639Y-102982965D01*
X133432817Y-103021974D01*
X133570000Y-103040035D01*
X133707183Y-103021974D01*
X133719226Y-103016986D01*
X133719236Y-103016983D01*
X133788543Y-102988275D01*
X133875855Y-102973440D01*
X133960957Y-102997958D01*
X134026993Y-103056972D01*
X134060884Y-103138794D01*
X134055918Y-103227218D01*
X134013078Y-103304731D01*
X134005410Y-103312841D01*
X133221472Y-104096779D01*
X133214363Y-104110731D01*
X133213190Y-104113034D01*
X133196873Y-104139661D01*
X133186151Y-104154418D01*
X133181311Y-104169315D01*
X133181309Y-104169318D01*
X133180512Y-104171771D01*
X133168565Y-104200614D01*
X133160281Y-104216873D01*
X133157832Y-104232338D01*
X133157830Y-104232343D01*
X133157425Y-104234900D01*
X133150137Y-104265256D01*
X133144500Y-104282606D01*
X133144500Y-110654194D01*
X133124793Y-110740537D01*
X133105539Y-110771823D01*
X133103913Y-110774639D01*
X133095976Y-110784983D01*
X133043026Y-110912817D01*
X133024965Y-111050000D01*
X133043026Y-111187183D01*
X133095976Y-111315017D01*
X133180209Y-111424791D01*
X133289982Y-111509024D01*
X133302030Y-111514014D01*
X133302031Y-111514015D01*
X133333093Y-111526881D01*
X133417817Y-111561974D01*
X133555000Y-111580035D01*
X133692183Y-111561974D01*
X133776907Y-111526881D01*
X133807969Y-111514015D01*
X133807970Y-111514014D01*
X133820018Y-111509024D01*
X133894356Y-111451981D01*
X133974852Y-111415054D01*
X134063400Y-111416709D01*
X134142460Y-111456619D01*
X134196375Y-111526881D01*
X134214500Y-111609858D01*
X134214500Y-115201324D01*
X134194793Y-115287667D01*
X134156214Y-115342038D01*
X133917139Y-115581113D01*
X133842151Y-115628232D01*
X133754144Y-115638148D01*
X133679191Y-115614026D01*
X133611261Y-115575983D01*
X133604698Y-115573444D01*
X133604696Y-115573443D01*
X133366819Y-115481416D01*
X133366820Y-115481416D01*
X133360251Y-115478875D01*
X133098063Y-115418103D01*
X133091060Y-115417496D01*
X133091057Y-115417496D01*
X132994188Y-115409106D01*
X132829928Y-115394880D01*
X132822895Y-115395267D01*
X132822893Y-115395267D01*
X132568228Y-115409282D01*
X132561196Y-115409669D01*
X132297228Y-115462176D01*
X132242441Y-115481416D01*
X132062112Y-115544743D01*
X132043292Y-115551352D01*
X131804455Y-115675418D01*
X131585481Y-115831899D01*
X131580397Y-115836749D01*
X131580392Y-115836753D01*
X131477081Y-115935307D01*
X131390740Y-116017672D01*
X131386384Y-116023197D01*
X131386379Y-116023203D01*
X131260149Y-116183327D01*
X131224118Y-116229032D01*
X131220585Y-116235115D01*
X131220582Y-116235119D01*
X131163617Y-116333192D01*
X131088939Y-116461760D01*
X130987900Y-116711213D01*
X130923017Y-116972414D01*
X130895585Y-117240151D01*
X130895861Y-117247177D01*
X130895861Y-117247179D01*
X130897661Y-117292993D01*
X130906152Y-117509083D01*
X130907415Y-117516000D01*
X130907416Y-117516007D01*
X130953239Y-117766914D01*
X130953241Y-117766922D01*
X130954505Y-117773843D01*
X131039682Y-118029148D01*
X131042828Y-118035444D01*
X131156836Y-118263612D01*
X131156840Y-118263618D01*
X131159981Y-118269905D01*
X131313003Y-118491309D01*
X131317781Y-118496478D01*
X131317782Y-118496479D01*
X131339015Y-118519449D01*
X131495695Y-118688944D01*
X131704411Y-118858866D01*
X131710435Y-118862492D01*
X131710441Y-118862497D01*
X131915079Y-118985699D01*
X131934987Y-118997684D01*
X131941472Y-119000430D01*
X132176331Y-119099880D01*
X132176338Y-119099882D01*
X132182822Y-119102628D01*
X132236785Y-119116936D01*
X132436171Y-119169803D01*
X132436175Y-119169804D01*
X132442972Y-119171606D01*
X132634295Y-119194251D01*
X132703265Y-119202414D01*
X132703267Y-119202414D01*
X132710245Y-119203240D01*
X132844778Y-119200069D01*
X132972282Y-119197065D01*
X132972287Y-119197065D01*
X132979310Y-119196899D01*
X133021848Y-119189819D01*
X133237846Y-119153867D01*
X133237849Y-119153866D01*
X133244796Y-119152710D01*
X133251509Y-119150587D01*
X133251513Y-119150586D01*
X133494695Y-119073677D01*
X133494694Y-119073677D01*
X133501408Y-119071554D01*
X133540538Y-119052764D01*
X133737685Y-118958096D01*
X133737691Y-118958092D01*
X133744025Y-118955051D01*
X133967806Y-118805526D01*
X134168286Y-118625961D01*
X134172809Y-118620580D01*
X134172815Y-118620574D01*
X134336942Y-118425321D01*
X134336943Y-118425319D01*
X134341465Y-118419940D01*
X134345181Y-118413981D01*
X134345185Y-118413976D01*
X134480167Y-118197537D01*
X134480167Y-118197536D01*
X134483887Y-118191572D01*
X134552911Y-118035444D01*
X134589869Y-117951848D01*
X134589872Y-117951841D01*
X134592712Y-117945416D01*
X134594619Y-117938656D01*
X134594621Y-117938649D01*
X134663858Y-117693150D01*
X134665767Y-117686382D01*
X134701595Y-117419638D01*
X134705355Y-117300000D01*
X134701118Y-117240151D01*
X135895585Y-117240151D01*
X135895861Y-117247177D01*
X135895861Y-117247179D01*
X135897661Y-117292993D01*
X135906152Y-117509083D01*
X135907415Y-117516000D01*
X135907416Y-117516007D01*
X135953239Y-117766914D01*
X135953241Y-117766922D01*
X135954505Y-117773843D01*
X136039682Y-118029148D01*
X136042828Y-118035444D01*
X136156836Y-118263612D01*
X136156840Y-118263618D01*
X136159981Y-118269905D01*
X136313003Y-118491309D01*
X136317781Y-118496478D01*
X136317782Y-118496479D01*
X136339015Y-118519449D01*
X136495695Y-118688944D01*
X136704411Y-118858866D01*
X136710435Y-118862492D01*
X136710441Y-118862497D01*
X136915079Y-118985699D01*
X136934987Y-118997684D01*
X136941472Y-119000430D01*
X137176331Y-119099880D01*
X137176338Y-119099882D01*
X137182822Y-119102628D01*
X137236785Y-119116936D01*
X137436171Y-119169803D01*
X137436175Y-119169804D01*
X137442972Y-119171606D01*
X137634295Y-119194251D01*
X137703265Y-119202414D01*
X137703267Y-119202414D01*
X137710245Y-119203240D01*
X137844778Y-119200069D01*
X137972282Y-119197065D01*
X137972287Y-119197065D01*
X137979310Y-119196899D01*
X138021848Y-119189819D01*
X138237846Y-119153867D01*
X138237849Y-119153866D01*
X138244796Y-119152710D01*
X138251509Y-119150587D01*
X138251513Y-119150586D01*
X138494695Y-119073677D01*
X138494694Y-119073677D01*
X138501408Y-119071554D01*
X138540538Y-119052764D01*
X138737685Y-118958096D01*
X138737691Y-118958092D01*
X138744025Y-118955051D01*
X138967806Y-118805526D01*
X139168286Y-118625961D01*
X139172809Y-118620580D01*
X139172815Y-118620574D01*
X139336942Y-118425321D01*
X139336943Y-118425319D01*
X139341465Y-118419940D01*
X139345181Y-118413981D01*
X139345185Y-118413976D01*
X139480167Y-118197537D01*
X139480167Y-118197536D01*
X139483887Y-118191572D01*
X139552911Y-118035444D01*
X139589869Y-117951848D01*
X139589872Y-117951841D01*
X139592712Y-117945416D01*
X139594619Y-117938656D01*
X139594621Y-117938649D01*
X139663858Y-117693150D01*
X139665767Y-117686382D01*
X139701595Y-117419638D01*
X139705355Y-117300000D01*
X139686347Y-117031533D01*
X139629700Y-116768423D01*
X139536547Y-116515919D01*
X139484003Y-116418538D01*
X139412087Y-116285255D01*
X139412085Y-116285251D01*
X139408744Y-116279060D01*
X139248843Y-116062571D01*
X139060034Y-115870772D01*
X138846083Y-115707490D01*
X138831402Y-115699268D01*
X138617397Y-115579419D01*
X138617393Y-115579417D01*
X138611261Y-115575983D01*
X138360251Y-115478875D01*
X138098063Y-115418103D01*
X138091060Y-115417496D01*
X138091057Y-115417496D01*
X137994188Y-115409106D01*
X137829928Y-115394880D01*
X137822895Y-115395267D01*
X137822893Y-115395267D01*
X137568228Y-115409282D01*
X137561196Y-115409669D01*
X137297228Y-115462176D01*
X137242441Y-115481416D01*
X137062112Y-115544743D01*
X137043292Y-115551352D01*
X136804455Y-115675418D01*
X136585481Y-115831899D01*
X136580397Y-115836749D01*
X136580392Y-115836753D01*
X136477081Y-115935307D01*
X136390740Y-116017672D01*
X136386384Y-116023197D01*
X136386379Y-116023203D01*
X136260149Y-116183327D01*
X136224118Y-116229032D01*
X136220585Y-116235115D01*
X136220582Y-116235119D01*
X136163617Y-116333192D01*
X136088939Y-116461760D01*
X135987900Y-116711213D01*
X135923017Y-116972414D01*
X135895585Y-117240151D01*
X134701118Y-117240151D01*
X134686347Y-117031533D01*
X134629700Y-116768423D01*
X134536547Y-116515919D01*
X134484001Y-116418535D01*
X134460346Y-116333192D01*
X134476061Y-116246034D01*
X134518421Y-116183327D01*
X134988528Y-115713220D01*
X134996813Y-115696961D01*
X135013130Y-115670334D01*
X135014642Y-115668253D01*
X135023849Y-115655581D01*
X135028689Y-115640684D01*
X135028691Y-115640681D01*
X135029488Y-115638228D01*
X135041435Y-115609385D01*
X135042610Y-115607079D01*
X135042610Y-115607077D01*
X135049719Y-115593126D01*
X135052168Y-115577661D01*
X135052170Y-115577656D01*
X135052575Y-115575099D01*
X135059863Y-115544743D01*
X135060659Y-115542292D01*
X135065500Y-115527393D01*
X135065500Y-113007953D01*
X154014707Y-113007953D01*
X154031194Y-113293878D01*
X154086332Y-113574920D01*
X154088526Y-113581328D01*
X154088527Y-113581332D01*
X154110281Y-113644869D01*
X154179102Y-113845878D01*
X154307787Y-114101740D01*
X154470006Y-114337770D01*
X154474563Y-114342778D01*
X154658193Y-114544586D01*
X154658198Y-114544591D01*
X154662756Y-114549600D01*
X154667954Y-114553946D01*
X154667958Y-114553950D01*
X154848862Y-114705209D01*
X154882472Y-114733311D01*
X154888213Y-114736912D01*
X155119345Y-114881901D01*
X155119351Y-114881904D01*
X155125088Y-114885503D01*
X155131260Y-114888290D01*
X155131266Y-114888293D01*
X155225336Y-114930767D01*
X155386114Y-115003361D01*
X155660719Y-115084703D01*
X155819654Y-115109023D01*
X155937124Y-115126999D01*
X155937127Y-115126999D01*
X155943824Y-115128024D01*
X156230189Y-115132523D01*
X156236913Y-115131709D01*
X156236919Y-115131709D01*
X156414767Y-115110186D01*
X156514514Y-115098115D01*
X156791539Y-115025439D01*
X156840191Y-115005287D01*
X157049871Y-114918435D01*
X157049873Y-114918434D01*
X157056138Y-114915839D01*
X157061989Y-114912420D01*
X157061993Y-114912418D01*
X157297571Y-114774757D01*
X157303415Y-114771342D01*
X157528793Y-114594623D01*
X157728102Y-114388952D01*
X157897655Y-114158134D01*
X158034313Y-113906441D01*
X158054910Y-113851934D01*
X158133153Y-113644869D01*
X158133154Y-113644865D01*
X158135548Y-113638530D01*
X158199487Y-113359358D01*
X158224946Y-113074092D01*
X158225408Y-113030000D01*
X158205928Y-112744263D01*
X158147850Y-112463814D01*
X158140342Y-112442610D01*
X158054508Y-112200223D01*
X158054506Y-112200218D01*
X158052248Y-112193842D01*
X157920891Y-111939342D01*
X157911890Y-111926534D01*
X157760103Y-111710565D01*
X157756209Y-111705024D01*
X157751603Y-111700067D01*
X157751597Y-111700060D01*
X157565868Y-111500192D01*
X157565864Y-111500189D01*
X157561251Y-111495224D01*
X157554912Y-111490035D01*
X157458451Y-111411083D01*
X157339623Y-111313823D01*
X157095427Y-111164180D01*
X156833182Y-111049062D01*
X156557739Y-110970600D01*
X156274196Y-110930246D01*
X156133935Y-110929512D01*
X155994582Y-110928782D01*
X155994575Y-110928782D01*
X155987800Y-110928747D01*
X155703851Y-110966129D01*
X155697318Y-110967916D01*
X155697314Y-110967917D01*
X155434133Y-111039915D01*
X155434129Y-111039917D01*
X155427602Y-111041702D01*
X155421372Y-111044359D01*
X155421370Y-111044360D01*
X155403965Y-111051784D01*
X155164165Y-111154068D01*
X155158347Y-111157550D01*
X155158345Y-111157551D01*
X155028909Y-111235017D01*
X154918415Y-111301146D01*
X154694900Y-111480215D01*
X154497755Y-111687962D01*
X154330629Y-111920543D01*
X154196614Y-112173653D01*
X154098190Y-112442610D01*
X154037178Y-112722436D01*
X154036647Y-112729188D01*
X154036646Y-112729192D01*
X154015238Y-113001205D01*
X154014707Y-113007953D01*
X135065500Y-113007953D01*
X135065500Y-108207953D01*
X154014707Y-108207953D01*
X154031194Y-108493878D01*
X154086332Y-108774920D01*
X154088526Y-108781328D01*
X154088527Y-108781332D01*
X154110281Y-108844869D01*
X154179102Y-109045878D01*
X154307787Y-109301740D01*
X154470006Y-109537770D01*
X154474563Y-109542778D01*
X154658193Y-109744586D01*
X154658198Y-109744591D01*
X154662756Y-109749600D01*
X154667954Y-109753946D01*
X154667958Y-109753950D01*
X154861730Y-109915968D01*
X154882472Y-109933311D01*
X154888213Y-109936912D01*
X155119345Y-110081901D01*
X155119351Y-110081904D01*
X155125088Y-110085503D01*
X155131260Y-110088290D01*
X155131266Y-110088293D01*
X155256544Y-110144858D01*
X155386114Y-110203361D01*
X155660719Y-110284703D01*
X155819654Y-110309023D01*
X155937124Y-110326999D01*
X155937127Y-110326999D01*
X155943824Y-110328024D01*
X156230189Y-110332523D01*
X156236913Y-110331709D01*
X156236919Y-110331709D01*
X156414767Y-110310186D01*
X156514514Y-110298115D01*
X156791539Y-110225439D01*
X156840191Y-110205287D01*
X157049871Y-110118435D01*
X157049873Y-110118434D01*
X157056138Y-110115839D01*
X157061989Y-110112420D01*
X157061993Y-110112418D01*
X157297571Y-109974757D01*
X157303415Y-109971342D01*
X157528793Y-109794623D01*
X157728102Y-109588952D01*
X157897655Y-109358134D01*
X158034313Y-109106441D01*
X158054910Y-109051934D01*
X158133153Y-108844869D01*
X158133154Y-108844865D01*
X158135548Y-108838530D01*
X158199487Y-108559358D01*
X158224946Y-108274092D01*
X158225408Y-108230000D01*
X158205928Y-107944263D01*
X158147850Y-107663814D01*
X158140669Y-107643534D01*
X158054508Y-107400223D01*
X158054506Y-107400218D01*
X158052248Y-107393842D01*
X157920891Y-107139342D01*
X157911890Y-107126534D01*
X157783274Y-106943534D01*
X157756209Y-106905024D01*
X157751603Y-106900067D01*
X157751597Y-106900060D01*
X157565868Y-106700192D01*
X157565864Y-106700189D01*
X157561251Y-106695224D01*
X157339623Y-106513823D01*
X157095427Y-106364180D01*
X156833182Y-106249062D01*
X156557739Y-106170600D01*
X156274196Y-106130246D01*
X156133935Y-106129512D01*
X155994582Y-106128782D01*
X155994575Y-106128782D01*
X155987800Y-106128747D01*
X155703851Y-106166129D01*
X155697318Y-106167916D01*
X155697314Y-106167917D01*
X155434133Y-106239915D01*
X155434129Y-106239917D01*
X155427602Y-106241702D01*
X155421372Y-106244359D01*
X155421370Y-106244360D01*
X155403965Y-106251784D01*
X155164165Y-106354068D01*
X155158347Y-106357550D01*
X155158345Y-106357551D01*
X154941943Y-106487065D01*
X154918415Y-106501146D01*
X154694900Y-106680215D01*
X154652154Y-106725260D01*
X154533780Y-106850000D01*
X154497755Y-106887962D01*
X154330629Y-107120543D01*
X154196614Y-107373653D01*
X154098190Y-107642610D01*
X154037178Y-107922436D01*
X154036647Y-107929188D01*
X154036646Y-107929192D01*
X154029165Y-108024252D01*
X154014707Y-108207953D01*
X135065500Y-108207953D01*
X135065500Y-108018676D01*
X135085207Y-107932333D01*
X135123786Y-107877962D01*
X138831748Y-104170000D01*
X148519965Y-104170000D01*
X148538026Y-104307183D01*
X148543017Y-104319232D01*
X148543017Y-104319233D01*
X148574171Y-104394446D01*
X148590976Y-104435017D01*
X148675209Y-104544791D01*
X148784982Y-104629024D01*
X148797030Y-104634014D01*
X148797031Y-104634015D01*
X148831200Y-104648168D01*
X148912817Y-104681974D01*
X149050000Y-104700035D01*
X149187183Y-104681974D01*
X149268800Y-104648168D01*
X149302969Y-104634015D01*
X149302970Y-104634014D01*
X149315018Y-104629024D01*
X149424791Y-104544791D01*
X149509024Y-104435017D01*
X149525829Y-104394446D01*
X149556983Y-104319233D01*
X149556983Y-104319232D01*
X149561974Y-104307183D01*
X149580035Y-104170000D01*
X149561974Y-104032817D01*
X149555450Y-104017065D01*
X149514016Y-103917035D01*
X149509024Y-103904983D01*
X149424791Y-103795209D01*
X149315018Y-103710976D01*
X149302970Y-103705986D01*
X149302969Y-103705985D01*
X149259391Y-103687935D01*
X149187183Y-103658026D01*
X149050000Y-103639965D01*
X148912817Y-103658026D01*
X148900768Y-103663017D01*
X148900767Y-103663017D01*
X148815518Y-103698328D01*
X148784983Y-103710976D01*
X148675209Y-103795209D01*
X148590976Y-103904983D01*
X148585984Y-103917035D01*
X148544551Y-104017065D01*
X148538026Y-104032817D01*
X148519965Y-104170000D01*
X138831748Y-104170000D01*
X145407962Y-97593786D01*
X145482950Y-97546667D01*
X145548676Y-97535500D01*
X146448981Y-97535500D01*
X146535324Y-97555207D01*
X146604565Y-97610426D01*
X146642992Y-97690218D01*
X146642992Y-97778782D01*
X146604565Y-97858574D01*
X146570126Y-97892376D01*
X146475209Y-97965209D01*
X146390976Y-98074983D01*
X146385984Y-98087035D01*
X146351137Y-98171165D01*
X146338026Y-98202817D01*
X146319965Y-98340000D01*
X146338026Y-98477183D01*
X146390976Y-98605017D01*
X146475209Y-98714791D01*
X146584982Y-98799024D01*
X146597030Y-98804014D01*
X146597031Y-98804015D01*
X146601215Y-98805748D01*
X146712817Y-98851974D01*
X146850000Y-98870035D01*
X146987183Y-98851974D01*
X147115018Y-98799024D01*
X147116224Y-98801936D01*
X147180116Y-98782223D01*
X147267691Y-98795417D01*
X147274647Y-98798767D01*
X147274982Y-98799024D01*
X147402817Y-98851974D01*
X147540000Y-98870035D01*
X147677183Y-98851974D01*
X147788785Y-98805748D01*
X147792969Y-98804015D01*
X147792970Y-98804014D01*
X147805018Y-98799024D01*
X147914791Y-98714791D01*
X147999024Y-98605017D01*
X148051974Y-98477183D01*
X148070035Y-98340000D01*
X148051974Y-98202817D01*
X148038864Y-98171165D01*
X148004016Y-98087035D01*
X147999024Y-98074983D01*
X147914791Y-97965209D01*
X147885000Y-97942349D01*
X147819875Y-97892376D01*
X147763372Y-97824179D01*
X147742055Y-97738219D01*
X147760145Y-97651523D01*
X147814059Y-97581262D01*
X147893120Y-97541351D01*
X147941020Y-97535500D01*
X151357393Y-97535500D01*
X151372539Y-97530579D01*
X151374743Y-97529863D01*
X151405099Y-97522575D01*
X151407656Y-97522170D01*
X151407661Y-97522168D01*
X151423126Y-97519719D01*
X151437077Y-97512610D01*
X151437079Y-97512610D01*
X151439385Y-97511435D01*
X151468228Y-97499488D01*
X151470681Y-97498691D01*
X151470684Y-97498689D01*
X151485581Y-97493849D01*
X151500338Y-97483127D01*
X151526961Y-97466813D01*
X151543220Y-97458528D01*
X152478528Y-96523220D01*
X152486813Y-96506961D01*
X152503130Y-96480334D01*
X152503868Y-96479319D01*
X152513849Y-96465581D01*
X152518689Y-96450684D01*
X152518691Y-96450681D01*
X152519488Y-96448228D01*
X152531435Y-96419385D01*
X152532610Y-96417079D01*
X152532610Y-96417077D01*
X152539719Y-96403126D01*
X152542168Y-96387661D01*
X152542170Y-96387656D01*
X152542575Y-96385099D01*
X152549863Y-96354743D01*
X152550659Y-96352292D01*
X152555500Y-96337393D01*
X152555500Y-89009290D01*
X152575207Y-88922947D01*
X152585053Y-88906947D01*
X152584561Y-88906663D01*
X152591084Y-88895364D01*
X152599024Y-88885017D01*
X152611672Y-88854482D01*
X152646983Y-88769233D01*
X152646983Y-88769232D01*
X152651974Y-88757183D01*
X152670035Y-88620000D01*
X152651974Y-88482817D01*
X152599024Y-88354983D01*
X152514791Y-88245209D01*
X152405018Y-88160976D01*
X152392970Y-88155986D01*
X152392969Y-88155985D01*
X152358800Y-88141832D01*
X152277183Y-88108026D01*
X152140000Y-88089965D01*
X152002817Y-88108026D01*
X151990768Y-88113017D01*
X151990767Y-88113017D01*
X151979932Y-88117505D01*
X151874983Y-88160976D01*
X151765209Y-88245209D01*
X151680976Y-88354983D01*
X151628026Y-88482817D01*
X151609965Y-88620000D01*
X151628026Y-88757183D01*
X151633017Y-88769232D01*
X151633017Y-88769233D01*
X151655346Y-88823139D01*
X151679368Y-88881135D01*
X151679369Y-88881138D01*
X151680976Y-88885017D01*
X151680612Y-88885168D01*
X151703944Y-88960809D01*
X151704500Y-88975678D01*
X151704500Y-93447324D01*
X151684793Y-93533667D01*
X151629574Y-93602908D01*
X151549782Y-93641335D01*
X151461218Y-93641335D01*
X151381426Y-93602908D01*
X151364786Y-93588038D01*
X150768219Y-92991471D01*
X150751960Y-92983186D01*
X150725337Y-92966872D01*
X150710580Y-92956150D01*
X150695683Y-92951310D01*
X150695680Y-92951308D01*
X150693227Y-92950511D01*
X150664384Y-92938564D01*
X150662078Y-92937389D01*
X150662076Y-92937389D01*
X150648125Y-92930280D01*
X150632660Y-92927831D01*
X150632655Y-92927829D01*
X150630098Y-92927424D01*
X150599742Y-92920136D01*
X150597291Y-92919340D01*
X150582392Y-92914499D01*
X149523000Y-92914499D01*
X149436657Y-92894792D01*
X149424985Y-92888623D01*
X149415018Y-92880975D01*
X149402970Y-92875985D01*
X149402969Y-92875984D01*
X149344263Y-92851668D01*
X149287183Y-92828025D01*
X149273617Y-92826239D01*
X149272778Y-92825928D01*
X149261657Y-92822948D01*
X149261936Y-92821905D01*
X149190587Y-92795434D01*
X149129144Y-92731652D01*
X149101459Y-92647527D01*
X149113016Y-92559721D01*
X149158875Y-92488228D01*
X150981309Y-90665794D01*
X150998822Y-90650231D01*
X151010428Y-90641082D01*
X151010430Y-90641080D01*
X151022110Y-90631872D01*
X151030566Y-90619637D01*
X151030570Y-90619633D01*
X151054826Y-90584537D01*
X151058425Y-90579500D01*
X151092634Y-90533183D01*
X151095027Y-90526369D01*
X151099131Y-90520431D01*
X151116487Y-90465551D01*
X151118449Y-90459671D01*
X151132588Y-90419410D01*
X151137519Y-90405369D01*
X151137802Y-90398155D01*
X151139980Y-90391270D01*
X151140500Y-90384663D01*
X151140500Y-90333425D01*
X151140653Y-90325611D01*
X151142254Y-90284865D01*
X151142838Y-90270006D01*
X151140720Y-90262016D01*
X151140500Y-90258027D01*
X151140500Y-87718524D01*
X151141879Y-87695135D01*
X151143616Y-87680461D01*
X151143616Y-87680459D01*
X151145364Y-87665689D01*
X151135032Y-87609120D01*
X151134005Y-87602950D01*
X151127661Y-87560750D01*
X151127661Y-87560749D01*
X151125449Y-87546038D01*
X151122321Y-87539525D01*
X151121025Y-87532427D01*
X151094506Y-87481375D01*
X151091728Y-87475814D01*
X151073250Y-87437333D01*
X151073248Y-87437330D01*
X151066809Y-87423921D01*
X151061907Y-87418618D01*
X151058579Y-87412211D01*
X151054275Y-87407172D01*
X151018057Y-87370954D01*
X151012640Y-87365321D01*
X150984950Y-87335365D01*
X150984947Y-87335363D01*
X150974854Y-87324444D01*
X150967705Y-87320292D01*
X150964726Y-87317623D01*
X150798786Y-87151683D01*
X150751667Y-87076695D01*
X150740500Y-87010969D01*
X150740500Y-84886314D01*
X158149876Y-84886314D01*
X158165884Y-85076948D01*
X158168567Y-85086306D01*
X158168568Y-85086310D01*
X158169316Y-85088917D01*
X158218614Y-85260843D01*
X158223062Y-85269497D01*
X158223062Y-85269498D01*
X158300283Y-85419752D01*
X158306060Y-85430993D01*
X158312105Y-85438620D01*
X158312107Y-85438623D01*
X158418840Y-85573287D01*
X158418844Y-85573291D01*
X158424889Y-85580918D01*
X158478404Y-85626463D01*
X158563159Y-85698596D01*
X158563162Y-85698598D01*
X158570575Y-85704907D01*
X158579068Y-85709654D01*
X158579073Y-85709657D01*
X158729075Y-85793490D01*
X158729081Y-85793492D01*
X158737570Y-85798237D01*
X158746825Y-85801244D01*
X158746827Y-85801245D01*
X158910253Y-85854346D01*
X158910257Y-85854347D01*
X158919512Y-85857354D01*
X158929176Y-85858506D01*
X158929179Y-85858507D01*
X159099809Y-85878853D01*
X159099811Y-85878853D01*
X159109472Y-85880005D01*
X159300213Y-85865328D01*
X159484472Y-85813882D01*
X159493151Y-85809498D01*
X159493156Y-85809496D01*
X159646547Y-85732012D01*
X159646546Y-85732012D01*
X159655228Y-85727627D01*
X159805979Y-85609848D01*
X159821711Y-85591623D01*
X159871432Y-85534020D01*
X159930982Y-85465030D01*
X159945984Y-85438623D01*
X159970187Y-85396017D01*
X160025476Y-85298691D01*
X160029354Y-85287035D01*
X160082789Y-85126401D01*
X160082789Y-85126400D01*
X160085861Y-85117166D01*
X160109838Y-84927369D01*
X160110220Y-84900000D01*
X160107930Y-84876639D01*
X160092502Y-84719299D01*
X160091552Y-84709608D01*
X160036259Y-84526467D01*
X159982501Y-84425364D01*
X159951014Y-84366145D01*
X159951011Y-84366141D01*
X159946446Y-84357555D01*
X159939887Y-84349512D01*
X159831687Y-84216846D01*
X159831686Y-84216845D01*
X159825535Y-84209303D01*
X159753850Y-84150000D01*
X159685628Y-84093562D01*
X159685627Y-84093561D01*
X159678132Y-84087361D01*
X159509851Y-83996371D01*
X159327101Y-83939801D01*
X159174406Y-83923752D01*
X159146520Y-83920821D01*
X159146519Y-83920821D01*
X159136843Y-83919804D01*
X158946325Y-83937142D01*
X158936986Y-83939891D01*
X158936984Y-83939891D01*
X158772149Y-83988405D01*
X158772146Y-83988406D01*
X158762803Y-83991156D01*
X158754175Y-83995666D01*
X158754169Y-83995669D01*
X158635377Y-84057773D01*
X158593268Y-84079787D01*
X158444176Y-84199660D01*
X158321207Y-84346208D01*
X158229045Y-84513850D01*
X158226103Y-84523125D01*
X158226102Y-84523127D01*
X158181518Y-84663676D01*
X158171200Y-84696201D01*
X158149876Y-84886314D01*
X150740500Y-84886314D01*
X150740500Y-81179031D01*
X150760207Y-81092688D01*
X150798786Y-81038317D01*
X151091309Y-80745794D01*
X151108822Y-80730231D01*
X151120428Y-80721082D01*
X151120430Y-80721080D01*
X151132110Y-80711872D01*
X151140566Y-80699637D01*
X151140570Y-80699633D01*
X151164826Y-80664537D01*
X151168425Y-80659500D01*
X151202634Y-80613183D01*
X151205027Y-80606369D01*
X151209131Y-80600431D01*
X151226487Y-80545551D01*
X151228449Y-80539671D01*
X151234452Y-80522579D01*
X151247519Y-80485369D01*
X151247802Y-80478155D01*
X151249980Y-80471270D01*
X151250500Y-80464663D01*
X151250500Y-80413425D01*
X151250653Y-80405611D01*
X151252254Y-80364865D01*
X151252838Y-80350006D01*
X151250720Y-80342016D01*
X151250500Y-80338027D01*
X151250500Y-79157454D01*
X151664599Y-79157454D01*
X151689752Y-79306170D01*
X151695528Y-79318444D01*
X151695528Y-79318445D01*
X151704387Y-79337271D01*
X151753971Y-79442642D01*
X151852524Y-79556819D01*
X151978153Y-79640285D01*
X152113421Y-79684237D01*
X152114935Y-79684729D01*
X152190962Y-79730154D01*
X152237290Y-79797834D01*
X152260976Y-79855017D01*
X152345209Y-79964791D01*
X152361205Y-79977065D01*
X152436976Y-80035207D01*
X152454982Y-80049024D01*
X152467030Y-80054014D01*
X152467031Y-80054015D01*
X152474892Y-80057271D01*
X152582817Y-80101974D01*
X152720000Y-80120035D01*
X152857183Y-80101974D01*
X152965108Y-80057271D01*
X152972969Y-80054015D01*
X152972970Y-80054014D01*
X152985018Y-80049024D01*
X152994272Y-80041923D01*
X153078126Y-80016057D01*
X153093000Y-80015500D01*
X155461324Y-80015500D01*
X155547667Y-80035207D01*
X155602038Y-80073786D01*
X156235377Y-80707125D01*
X156282496Y-80782113D01*
X156286386Y-80794724D01*
X156288026Y-80807183D01*
X156293018Y-80819236D01*
X156293019Y-80819238D01*
X156307825Y-80854983D01*
X156340976Y-80935017D01*
X156425209Y-81044791D01*
X156534982Y-81129024D01*
X156547030Y-81134014D01*
X156547031Y-81134015D01*
X156581200Y-81148168D01*
X156662817Y-81181974D01*
X156800000Y-81200035D01*
X156937183Y-81181974D01*
X157018800Y-81148168D01*
X157052969Y-81134015D01*
X157052970Y-81134014D01*
X157065018Y-81129024D01*
X157174791Y-81044791D01*
X157259024Y-80935017D01*
X157292175Y-80854983D01*
X157306983Y-80819233D01*
X157306983Y-80819232D01*
X157311974Y-80807183D01*
X157330035Y-80670000D01*
X157311974Y-80532817D01*
X157298830Y-80501083D01*
X157264016Y-80417035D01*
X157259024Y-80404983D01*
X157174791Y-80295209D01*
X157096599Y-80235209D01*
X157075367Y-80218917D01*
X157075366Y-80218916D01*
X157065018Y-80210976D01*
X157052970Y-80205986D01*
X157052969Y-80205985D01*
X156971107Y-80172078D01*
X156937183Y-80158026D01*
X156925620Y-80156504D01*
X156848035Y-80115501D01*
X156837124Y-80105376D01*
X155973220Y-79241472D01*
X155956961Y-79233187D01*
X155930338Y-79216873D01*
X155915581Y-79206151D01*
X155900684Y-79201311D01*
X155900681Y-79201309D01*
X155898228Y-79200512D01*
X155869385Y-79188565D01*
X155867079Y-79187390D01*
X155867077Y-79187390D01*
X155853126Y-79180281D01*
X155837661Y-79177832D01*
X155837656Y-79177830D01*
X155835099Y-79177425D01*
X155804743Y-79170137D01*
X155802292Y-79169341D01*
X155787393Y-79164500D01*
X153454453Y-79164500D01*
X153368110Y-79144793D01*
X153298869Y-79089574D01*
X153260442Y-79009782D01*
X153260442Y-78921218D01*
X153298869Y-78841426D01*
X153313739Y-78824786D01*
X154852579Y-77285946D01*
X154858595Y-77280177D01*
X154863945Y-77275257D01*
X154903156Y-77239201D01*
X154924275Y-77205140D01*
X154934882Y-77189706D01*
X154959112Y-77157783D01*
X154964107Y-77145167D01*
X154968786Y-77136863D01*
X154971618Y-77131233D01*
X154975489Y-77122539D01*
X154982635Y-77111014D01*
X154986418Y-77097994D01*
X154986419Y-77097991D01*
X154993815Y-77072532D01*
X154999889Y-77054793D01*
X155009643Y-77030159D01*
X155009644Y-77030155D01*
X155014636Y-77017547D01*
X155016054Y-77004060D01*
X155018323Y-76994821D01*
X155019965Y-76986451D01*
X155019959Y-76986450D01*
X155021805Y-76976190D01*
X155024715Y-76966175D01*
X155025500Y-76955485D01*
X155025500Y-76924614D01*
X155026590Y-76903812D01*
X155028984Y-76881037D01*
X155028984Y-76881036D01*
X155030402Y-76867545D01*
X155028139Y-76854168D01*
X155028095Y-76852753D01*
X155025500Y-76821854D01*
X155025500Y-75247215D01*
X155010206Y-75135568D01*
X154950305Y-74997145D01*
X154941771Y-74986607D01*
X154941769Y-74986603D01*
X154863925Y-74890475D01*
X154855386Y-74879930D01*
X154834084Y-74864791D01*
X154743502Y-74800418D01*
X154732442Y-74792558D01*
X154590532Y-74741467D01*
X154577006Y-74740474D01*
X154577003Y-74740473D01*
X154453634Y-74731413D01*
X154453632Y-74731413D01*
X154440109Y-74730420D01*
X154397479Y-74739016D01*
X154305555Y-74757551D01*
X154305551Y-74757552D01*
X154292257Y-74760233D01*
X154157868Y-74828707D01*
X154147882Y-74837890D01*
X154147880Y-74837891D01*
X154101526Y-74880516D01*
X154046844Y-74930799D01*
X154027499Y-74962000D01*
X153974512Y-75047458D01*
X153974510Y-75047462D01*
X153967365Y-75058986D01*
X153963582Y-75072008D01*
X153963580Y-75072012D01*
X153929886Y-75187988D01*
X153925285Y-75203825D01*
X153924500Y-75214515D01*
X153924500Y-76574547D01*
X153904793Y-76660890D01*
X153866214Y-76715261D01*
X153473240Y-77108235D01*
X153398252Y-77155354D01*
X153310245Y-77165270D01*
X153226652Y-77136019D01*
X153164028Y-77073395D01*
X153135229Y-76993496D01*
X153134955Y-76991412D01*
X153121974Y-76892817D01*
X153092581Y-76821854D01*
X153074016Y-76777035D01*
X153069024Y-76764983D01*
X152984791Y-76655209D01*
X152974446Y-76647271D01*
X152965222Y-76638047D01*
X152966628Y-76636641D01*
X152920660Y-76581156D01*
X152899345Y-76495196D01*
X152914457Y-76415330D01*
X152921974Y-76397183D01*
X152940035Y-76260000D01*
X152921974Y-76122817D01*
X152916377Y-76109303D01*
X152874016Y-76007035D01*
X152869024Y-75994983D01*
X152784791Y-75885209D01*
X152709738Y-75827618D01*
X152685367Y-75808917D01*
X152685366Y-75808916D01*
X152675018Y-75800976D01*
X152662970Y-75795986D01*
X152662969Y-75795985D01*
X152628358Y-75781649D01*
X152547183Y-75748026D01*
X152410000Y-75729965D01*
X152272817Y-75748026D01*
X152260768Y-75753017D01*
X152260767Y-75753017D01*
X152209016Y-75774453D01*
X152144983Y-75800976D01*
X152035209Y-75885209D01*
X151950976Y-75994983D01*
X151945984Y-76007035D01*
X151903624Y-76109303D01*
X151898026Y-76122817D01*
X151879965Y-76260000D01*
X151898026Y-76397183D01*
X151903017Y-76409232D01*
X151903017Y-76409233D01*
X151930627Y-76475890D01*
X151950976Y-76525017D01*
X152035209Y-76634791D01*
X152045554Y-76642729D01*
X152054778Y-76651953D01*
X152053372Y-76653359D01*
X152099340Y-76708844D01*
X152120655Y-76794804D01*
X152105543Y-76874670D01*
X152098026Y-76892817D01*
X152079965Y-77030000D01*
X152098026Y-77167183D01*
X152103017Y-77179232D01*
X152103017Y-77179233D01*
X152129158Y-77242344D01*
X152150976Y-77295017D01*
X152235209Y-77404791D01*
X152344982Y-77489024D01*
X152357030Y-77494014D01*
X152357031Y-77494015D01*
X152376155Y-77501936D01*
X152472817Y-77541974D01*
X152573496Y-77555229D01*
X152656528Y-77586037D01*
X152717970Y-77649821D01*
X152745652Y-77733947D01*
X152734092Y-77821753D01*
X152688235Y-77893240D01*
X152247878Y-78333598D01*
X151804020Y-78777456D01*
X151799930Y-78782845D01*
X151799926Y-78782849D01*
X151783100Y-78805017D01*
X151735888Y-78867217D01*
X151730894Y-78879829D01*
X151730894Y-78879830D01*
X151694658Y-78971351D01*
X151680364Y-79007453D01*
X151664599Y-79157454D01*
X151250500Y-79157454D01*
X151250500Y-77538525D01*
X151251879Y-77515136D01*
X151253616Y-77500463D01*
X151253616Y-77500460D01*
X151255364Y-77485690D01*
X151245026Y-77429082D01*
X151244005Y-77422944D01*
X151237661Y-77380750D01*
X151235449Y-77366038D01*
X151232323Y-77359528D01*
X151231026Y-77352427D01*
X151204511Y-77301381D01*
X151201721Y-77295797D01*
X151183251Y-77257336D01*
X151176809Y-77243921D01*
X151171908Y-77238620D01*
X151168580Y-77232212D01*
X151164276Y-77227172D01*
X151128045Y-77190941D01*
X151122628Y-77185308D01*
X151094952Y-77155368D01*
X151084854Y-77144444D01*
X151077707Y-77140293D01*
X151074733Y-77137629D01*
X150037873Y-76100769D01*
X149990754Y-76025781D01*
X149980838Y-75937774D01*
X150010089Y-75854181D01*
X150072713Y-75791557D01*
X150156306Y-75762306D01*
X150244313Y-75772222D01*
X150254741Y-75776203D01*
X150280768Y-75786984D01*
X150280773Y-75786985D01*
X150292817Y-75791974D01*
X150430000Y-75810035D01*
X150567183Y-75791974D01*
X150661238Y-75753016D01*
X150682969Y-75744015D01*
X150682970Y-75744014D01*
X150695018Y-75739024D01*
X150804791Y-75654791D01*
X150889024Y-75545017D01*
X150903080Y-75511083D01*
X150936983Y-75429233D01*
X150936984Y-75429229D01*
X150941974Y-75417183D01*
X150960035Y-75280000D01*
X150941974Y-75142817D01*
X150889024Y-75014983D01*
X150804791Y-74905209D01*
X150695018Y-74820976D01*
X150682970Y-74815986D01*
X150682969Y-74815985D01*
X150632264Y-74794983D01*
X150567183Y-74768026D01*
X150430000Y-74749965D01*
X150292817Y-74768026D01*
X150280768Y-74773017D01*
X150280767Y-74773017D01*
X150177034Y-74815984D01*
X150177032Y-74815985D01*
X150164983Y-74820976D01*
X150164753Y-74820421D01*
X150089993Y-74843482D01*
X150002419Y-74830283D01*
X149929244Y-74780394D01*
X149884962Y-74703696D01*
X149878343Y-74615381D01*
X149884798Y-74592151D01*
X149883607Y-74591832D01*
X149886983Y-74579233D01*
X149891974Y-74567183D01*
X149910035Y-74430000D01*
X149908332Y-74417065D01*
X149908332Y-74410465D01*
X149928039Y-74324122D01*
X149983258Y-74254881D01*
X150063050Y-74216454D01*
X150151614Y-74216454D01*
X150200650Y-74235700D01*
X150204982Y-74239024D01*
X150217031Y-74244015D01*
X150217033Y-74244016D01*
X150264727Y-74263771D01*
X150332817Y-74291974D01*
X150470000Y-74310035D01*
X150607183Y-74291974D01*
X150706590Y-74250799D01*
X150722969Y-74244015D01*
X150722970Y-74244014D01*
X150735018Y-74239024D01*
X150764432Y-74216454D01*
X150834446Y-74162729D01*
X150844791Y-74154791D01*
X150929024Y-74045017D01*
X150956772Y-73978026D01*
X150976983Y-73929233D01*
X150976983Y-73929232D01*
X150981974Y-73917183D01*
X151000035Y-73780000D01*
X150981974Y-73642817D01*
X150969103Y-73611742D01*
X150934016Y-73527035D01*
X150929024Y-73514983D01*
X150844791Y-73405209D01*
X150761613Y-73341383D01*
X150745367Y-73328917D01*
X150745366Y-73328916D01*
X150735018Y-73320976D01*
X150722970Y-73315986D01*
X150722969Y-73315985D01*
X150671426Y-73294636D01*
X150607183Y-73268026D01*
X150470000Y-73249965D01*
X150332817Y-73268026D01*
X150320768Y-73273017D01*
X150320767Y-73273017D01*
X150307257Y-73278613D01*
X150204983Y-73320976D01*
X150095209Y-73405209D01*
X150010976Y-73514983D01*
X150005984Y-73527035D01*
X149970898Y-73611742D01*
X149958026Y-73642817D01*
X149939965Y-73780000D01*
X149941668Y-73792935D01*
X149941668Y-73799535D01*
X149921961Y-73885878D01*
X149866742Y-73955119D01*
X149786950Y-73993546D01*
X149698386Y-73993546D01*
X149649350Y-73974300D01*
X149645018Y-73970976D01*
X149632969Y-73965985D01*
X149632967Y-73965984D01*
X149556825Y-73934446D01*
X149517183Y-73918026D01*
X149380000Y-73899965D01*
X149242817Y-73918026D01*
X149230768Y-73923017D01*
X149230767Y-73923017D01*
X149178200Y-73944791D01*
X149114983Y-73970976D01*
X149099320Y-73982995D01*
X149099274Y-73983030D01*
X149018777Y-74019958D01*
X148930229Y-74018302D01*
X148901978Y-74009006D01*
X148843176Y-73984650D01*
X148778614Y-73941511D01*
X147788786Y-72951683D01*
X147741667Y-72876695D01*
X147730500Y-72810969D01*
X147730500Y-72337771D01*
X147750207Y-72251428D01*
X147805426Y-72182187D01*
X147885218Y-72143760D01*
X147975463Y-72145645D01*
X147979673Y-72147506D01*
X147994536Y-72149239D01*
X147994537Y-72149239D01*
X147999612Y-72149831D01*
X147999619Y-72149831D01*
X148005354Y-72150500D01*
X149444646Y-72150500D01*
X149450484Y-72149805D01*
X149450488Y-72149805D01*
X149456019Y-72149147D01*
X149456022Y-72149146D01*
X149470846Y-72147382D01*
X149484494Y-72141320D01*
X149556361Y-72109398D01*
X149556362Y-72109397D01*
X149573153Y-72101939D01*
X149612763Y-72062260D01*
X149639260Y-72035717D01*
X149639261Y-72035716D01*
X149652241Y-72022713D01*
X149697506Y-71920327D01*
X149700730Y-71921752D01*
X149730347Y-71866312D01*
X149801838Y-71814040D01*
X149888930Y-71797962D01*
X149974373Y-71821265D01*
X150019331Y-71855214D01*
X150019889Y-71855918D01*
X150027301Y-71862226D01*
X150158159Y-71973596D01*
X150158162Y-71973598D01*
X150165575Y-71979907D01*
X150174068Y-71984654D01*
X150174073Y-71984657D01*
X150324075Y-72068490D01*
X150324081Y-72068492D01*
X150332570Y-72073237D01*
X150341825Y-72076244D01*
X150341827Y-72076245D01*
X150505253Y-72129346D01*
X150505257Y-72129347D01*
X150514512Y-72132354D01*
X150524176Y-72133506D01*
X150524179Y-72133507D01*
X150694809Y-72153853D01*
X150694811Y-72153853D01*
X150704472Y-72155005D01*
X150895213Y-72140328D01*
X151079472Y-72088882D01*
X151088151Y-72084498D01*
X151088156Y-72084496D01*
X151241547Y-72007012D01*
X151241546Y-72007012D01*
X151250228Y-72002627D01*
X151400979Y-71884848D01*
X151432488Y-71848345D01*
X151466861Y-71808523D01*
X151525982Y-71740030D01*
X151550300Y-71697223D01*
X151610083Y-71631884D01*
X151692297Y-71598954D01*
X151780657Y-71604957D01*
X151857662Y-71648702D01*
X151889474Y-71690354D01*
X151891337Y-71689153D01*
X151896612Y-71697338D01*
X151901060Y-71705993D01*
X151907105Y-71713620D01*
X151907107Y-71713623D01*
X152013840Y-71848287D01*
X152013844Y-71848291D01*
X152019889Y-71855918D01*
X152063479Y-71893016D01*
X152158159Y-71973596D01*
X152158162Y-71973598D01*
X152165575Y-71979907D01*
X152174068Y-71984654D01*
X152174073Y-71984657D01*
X152324075Y-72068490D01*
X152324081Y-72068492D01*
X152332570Y-72073237D01*
X152341825Y-72076244D01*
X152341827Y-72076245D01*
X152505253Y-72129346D01*
X152505257Y-72129347D01*
X152514512Y-72132354D01*
X152524176Y-72133506D01*
X152524179Y-72133507D01*
X152694809Y-72153853D01*
X152694811Y-72153853D01*
X152704472Y-72155005D01*
X152895213Y-72140328D01*
X153079472Y-72088882D01*
X153088151Y-72084498D01*
X153088156Y-72084496D01*
X153241547Y-72007012D01*
X153241546Y-72007012D01*
X153250228Y-72002627D01*
X153400979Y-71884848D01*
X153432488Y-71848345D01*
X153466861Y-71808523D01*
X153525982Y-71740030D01*
X153531126Y-71730976D01*
X153571465Y-71659965D01*
X153620476Y-71573691D01*
X153633067Y-71535843D01*
X153677789Y-71401401D01*
X153677789Y-71401400D01*
X153680861Y-71392166D01*
X153704838Y-71202369D01*
X153705220Y-71175000D01*
X153686552Y-70984608D01*
X153631259Y-70801467D01*
X153579228Y-70703612D01*
X153546014Y-70641145D01*
X153546011Y-70641141D01*
X153541446Y-70632555D01*
X153532667Y-70621790D01*
X153426687Y-70491846D01*
X153426686Y-70491845D01*
X153420535Y-70484303D01*
X153299194Y-70383921D01*
X153280628Y-70368562D01*
X153280627Y-70368561D01*
X153273132Y-70362361D01*
X153104851Y-70271371D01*
X152922101Y-70214801D01*
X152774208Y-70199257D01*
X152741520Y-70195821D01*
X152741519Y-70195821D01*
X152731843Y-70194804D01*
X152541325Y-70212142D01*
X152531986Y-70214891D01*
X152531984Y-70214891D01*
X152367149Y-70263405D01*
X152367146Y-70263406D01*
X152357803Y-70266156D01*
X152349175Y-70270666D01*
X152349169Y-70270669D01*
X152239189Y-70328166D01*
X152188268Y-70354787D01*
X152039176Y-70474660D01*
X151973605Y-70552804D01*
X151927083Y-70608247D01*
X151916207Y-70621208D01*
X151900252Y-70650231D01*
X151899940Y-70650798D01*
X151841075Y-70716968D01*
X151759330Y-70751044D01*
X151670895Y-70746277D01*
X151593286Y-70703612D01*
X151549847Y-70648355D01*
X151546014Y-70641145D01*
X151546011Y-70641141D01*
X151541446Y-70632555D01*
X151532667Y-70621790D01*
X151426687Y-70491846D01*
X151426686Y-70491845D01*
X151420535Y-70484303D01*
X151299194Y-70383921D01*
X151280628Y-70368562D01*
X151280627Y-70368561D01*
X151273132Y-70362361D01*
X151104851Y-70271371D01*
X150922101Y-70214801D01*
X150774208Y-70199257D01*
X150741520Y-70195821D01*
X150741519Y-70195821D01*
X150731843Y-70194804D01*
X150541325Y-70212142D01*
X150531986Y-70214891D01*
X150531984Y-70214891D01*
X150367149Y-70263405D01*
X150367146Y-70263406D01*
X150357803Y-70266156D01*
X150349175Y-70270666D01*
X150349169Y-70270669D01*
X150239189Y-70328166D01*
X150188268Y-70354787D01*
X150039176Y-70474660D01*
X150032920Y-70482115D01*
X150025964Y-70488927D01*
X150025028Y-70487971D01*
X149962608Y-70535254D01*
X149875801Y-70552804D01*
X149789975Y-70530952D01*
X149722131Y-70474026D01*
X149699527Y-70428201D01*
X149697382Y-70429154D01*
X149659398Y-70343639D01*
X149659397Y-70343638D01*
X149651939Y-70326847D01*
X149591142Y-70266156D01*
X149585717Y-70260740D01*
X149585716Y-70260739D01*
X149572713Y-70247759D01*
X149490155Y-70211260D01*
X149484012Y-70208544D01*
X149484011Y-70208544D01*
X149470327Y-70202494D01*
X149455467Y-70200762D01*
X149455465Y-70200761D01*
X149450388Y-70200169D01*
X149450381Y-70200169D01*
X149444646Y-70199500D01*
X148005354Y-70199500D01*
X147999516Y-70200195D01*
X147999512Y-70200195D01*
X147993981Y-70200853D01*
X147993978Y-70200854D01*
X147979154Y-70202618D01*
X147965507Y-70208680D01*
X147965506Y-70208680D01*
X147893639Y-70240602D01*
X147893638Y-70240603D01*
X147876847Y-70248061D01*
X147863866Y-70261065D01*
X147863864Y-70261066D01*
X147842490Y-70282477D01*
X147767542Y-70329661D01*
X147679545Y-70339654D01*
X147595926Y-70310476D01*
X147577244Y-70297203D01*
X147574949Y-70295365D01*
X147564854Y-70284444D01*
X147557708Y-70280293D01*
X147554733Y-70277629D01*
X146915794Y-69638691D01*
X146900230Y-69621177D01*
X146891082Y-69609573D01*
X146881872Y-69597890D01*
X146834553Y-69565186D01*
X146829469Y-69561553D01*
X146795152Y-69536206D01*
X146783184Y-69527366D01*
X146776368Y-69524973D01*
X146770431Y-69520869D01*
X146715588Y-69503524D01*
X146709660Y-69501546D01*
X146669405Y-69487410D01*
X146655369Y-69482481D01*
X146648155Y-69482198D01*
X146641270Y-69480020D01*
X146634663Y-69479500D01*
X146583425Y-69479500D01*
X146575614Y-69479347D01*
X146520006Y-69477162D01*
X146512016Y-69479280D01*
X146508027Y-69479500D01*
X132214851Y-69479500D01*
X132128508Y-69459793D01*
X132109988Y-69449629D01*
X132077546Y-69429514D01*
X132077540Y-69429511D01*
X132066014Y-69422365D01*
X132052992Y-69418582D01*
X132052988Y-69418580D01*
X131931188Y-69383194D01*
X131931187Y-69383194D01*
X131921175Y-69380285D01*
X131910485Y-69379500D01*
X130846523Y-69379500D01*
X130838190Y-69379325D01*
X130791263Y-69377358D01*
X130791262Y-69377358D01*
X130777706Y-69376790D01*
X130764494Y-69379889D01*
X130764493Y-69379889D01*
X130738696Y-69385939D01*
X130720265Y-69389356D01*
X130713537Y-69390278D01*
X130680568Y-69394794D01*
X130668120Y-69400181D01*
X130658951Y-69402741D01*
X130652986Y-69404713D01*
X130644076Y-69408133D01*
X130630864Y-69411232D01*
X130610613Y-69422365D01*
X130595750Y-69430536D01*
X130578918Y-69438782D01*
X130542145Y-69454695D01*
X130531606Y-69463229D01*
X130523467Y-69468158D01*
X130516391Y-69472913D01*
X130516394Y-69472918D01*
X130507838Y-69478865D01*
X130498692Y-69483893D01*
X130490578Y-69490897D01*
X130468746Y-69512729D01*
X130453267Y-69526667D01*
X130424930Y-69549614D01*
X130417069Y-69560676D01*
X130416092Y-69561716D01*
X130396090Y-69585385D01*
X124352434Y-75629042D01*
X124346442Y-75634789D01*
X124301844Y-75675799D01*
X124294695Y-75687330D01*
X124294692Y-75687333D01*
X124280728Y-75709855D01*
X124270108Y-75725307D01*
X124254092Y-75746407D01*
X124254089Y-75746413D01*
X124245888Y-75757217D01*
X124240893Y-75769832D01*
X124236216Y-75778134D01*
X124233382Y-75783767D01*
X124229511Y-75792461D01*
X124222365Y-75803986D01*
X124218582Y-75817006D01*
X124218581Y-75817009D01*
X124211185Y-75842468D01*
X124205111Y-75860207D01*
X124190364Y-75897453D01*
X124188946Y-75910944D01*
X124186677Y-75920181D01*
X124185035Y-75928548D01*
X124185041Y-75928549D01*
X124183195Y-75938808D01*
X124180285Y-75948825D01*
X124179500Y-75959515D01*
X124179500Y-75990393D01*
X124178410Y-76011193D01*
X124174599Y-76047454D01*
X124176862Y-76060835D01*
X124176907Y-76062260D01*
X124179500Y-76093139D01*
X124179500Y-76389547D01*
X124159793Y-76475890D01*
X124121214Y-76530261D01*
X121165508Y-79485967D01*
X121090520Y-79533086D01*
X121002513Y-79543002D01*
X120918920Y-79513751D01*
X120856296Y-79451127D01*
X120827045Y-79367534D01*
X120827496Y-79319286D01*
X120830035Y-79300000D01*
X120811974Y-79162817D01*
X120759024Y-79034983D01*
X120674791Y-78925209D01*
X120601466Y-78868944D01*
X120575367Y-78848917D01*
X120575366Y-78848916D01*
X120565018Y-78840976D01*
X120552970Y-78835986D01*
X120552969Y-78835985D01*
X120503184Y-78815364D01*
X120437183Y-78788026D01*
X120300000Y-78769965D01*
X120162817Y-78788026D01*
X120150768Y-78793017D01*
X120150767Y-78793017D01*
X120047036Y-78835983D01*
X120047033Y-78835985D01*
X120034983Y-78840976D01*
X120030803Y-78844184D01*
X119950533Y-78868944D01*
X119935662Y-78869500D01*
X119052751Y-78869500D01*
X118976598Y-78854352D01*
X118949233Y-78843017D01*
X118949232Y-78843017D01*
X118937183Y-78838026D01*
X118800000Y-78819965D01*
X118662817Y-78838026D01*
X118650768Y-78843017D01*
X118650767Y-78843017D01*
X118623402Y-78854352D01*
X118547249Y-78869500D01*
X113499742Y-78869500D01*
X113413399Y-78849793D01*
X113359028Y-78811214D01*
X112758786Y-78210972D01*
X112711667Y-78135984D01*
X112700500Y-78070258D01*
X112700500Y-77744005D01*
X112720207Y-77657662D01*
X112776984Y-77587191D01*
X112817894Y-77555229D01*
X112875979Y-77509848D01*
X112893254Y-77489834D01*
X112964588Y-77437352D01*
X113051632Y-77421018D01*
X113137143Y-77444067D01*
X113204185Y-77501936D01*
X113225845Y-77546633D01*
X113227618Y-77545846D01*
X113263944Y-77627627D01*
X113273061Y-77648153D01*
X113311578Y-77686603D01*
X113338959Y-77713936D01*
X113352287Y-77727241D01*
X113420559Y-77757424D01*
X113440681Y-77766320D01*
X113454673Y-77772506D01*
X113469533Y-77774238D01*
X113469535Y-77774239D01*
X113474612Y-77774831D01*
X113474619Y-77774831D01*
X113480354Y-77775500D01*
X114919646Y-77775500D01*
X114925484Y-77774805D01*
X114925488Y-77774805D01*
X114931019Y-77774147D01*
X114931022Y-77774146D01*
X114945846Y-77772382D01*
X114959494Y-77766320D01*
X115031361Y-77734398D01*
X115031362Y-77734397D01*
X115048153Y-77726939D01*
X115108557Y-77666430D01*
X115114260Y-77660717D01*
X115114261Y-77660716D01*
X115127241Y-77647713D01*
X115172506Y-77545327D01*
X115174239Y-77530465D01*
X115174831Y-77525388D01*
X115174831Y-77525381D01*
X115175500Y-77519646D01*
X115175500Y-76080354D01*
X115172382Y-76054154D01*
X115154087Y-76012965D01*
X115134398Y-75968639D01*
X115134397Y-75968638D01*
X115126939Y-75951847D01*
X115063658Y-75888676D01*
X115060717Y-75885740D01*
X115060716Y-75885739D01*
X115047713Y-75872759D01*
X114972850Y-75839662D01*
X114959012Y-75833544D01*
X114959011Y-75833544D01*
X114945327Y-75827494D01*
X114930467Y-75825762D01*
X114930465Y-75825761D01*
X114925388Y-75825169D01*
X114925381Y-75825169D01*
X114919646Y-75824500D01*
X113480354Y-75824500D01*
X113474516Y-75825195D01*
X113474512Y-75825195D01*
X113468981Y-75825853D01*
X113468978Y-75825854D01*
X113454154Y-75827618D01*
X113440507Y-75833680D01*
X113440506Y-75833680D01*
X113368639Y-75865602D01*
X113368638Y-75865603D01*
X113351847Y-75873061D01*
X113325480Y-75899474D01*
X113286156Y-75938867D01*
X113272759Y-75952287D01*
X113227494Y-76054673D01*
X113224257Y-76053242D01*
X113194683Y-76108614D01*
X113123197Y-76160895D01*
X113036107Y-76176982D01*
X112950662Y-76153688D01*
X112903208Y-76118378D01*
X112901688Y-76116848D01*
X112895535Y-76109303D01*
X112860542Y-76080354D01*
X112772653Y-76007646D01*
X112718686Y-75937424D01*
X112700500Y-75854314D01*
X112700500Y-75679742D01*
X112720207Y-75593399D01*
X112758786Y-75539028D01*
X113237814Y-75060000D01*
X122739965Y-75060000D01*
X122758026Y-75197183D01*
X122763017Y-75209232D01*
X122763017Y-75209233D01*
X122781153Y-75253017D01*
X122810976Y-75325017D01*
X122895209Y-75434791D01*
X122926893Y-75459103D01*
X122973652Y-75494983D01*
X123004982Y-75519024D01*
X123017030Y-75524014D01*
X123017031Y-75524015D01*
X123032355Y-75530362D01*
X123132817Y-75571974D01*
X123270000Y-75590035D01*
X123407183Y-75571974D01*
X123507645Y-75530362D01*
X123522969Y-75524015D01*
X123522970Y-75524014D01*
X123535018Y-75519024D01*
X123566349Y-75494983D01*
X123613107Y-75459103D01*
X123644791Y-75434791D01*
X123729024Y-75325017D01*
X123758847Y-75253017D01*
X123776983Y-75209233D01*
X123776983Y-75209232D01*
X123781974Y-75197183D01*
X123800035Y-75060000D01*
X123781974Y-74922817D01*
X123729024Y-74794983D01*
X123644791Y-74685209D01*
X123535018Y-74600976D01*
X123522970Y-74595986D01*
X123522969Y-74595985D01*
X123486228Y-74580767D01*
X123407183Y-74548026D01*
X123270000Y-74529965D01*
X123132817Y-74548026D01*
X123120768Y-74553017D01*
X123120767Y-74553017D01*
X123086567Y-74567183D01*
X123004983Y-74600976D01*
X122895209Y-74685209D01*
X122810976Y-74794983D01*
X122758026Y-74922817D01*
X122739965Y-75060000D01*
X113237814Y-75060000D01*
X115549028Y-72748786D01*
X115624016Y-72701667D01*
X115689742Y-72690500D01*
X116500376Y-72690500D01*
X116551303Y-72697205D01*
X116562817Y-72701974D01*
X116575748Y-72703676D01*
X116575750Y-72703677D01*
X116687065Y-72718332D01*
X116700000Y-72720035D01*
X116837183Y-72701974D01*
X116926407Y-72665017D01*
X116952969Y-72654015D01*
X116952970Y-72654014D01*
X116965018Y-72649024D01*
X117074791Y-72564791D01*
X117159024Y-72455017D01*
X117181812Y-72400000D01*
X117769965Y-72400000D01*
X117788026Y-72537183D01*
X117840976Y-72665017D01*
X117925209Y-72774791D01*
X118034982Y-72859024D01*
X118047030Y-72864014D01*
X118047031Y-72864015D01*
X118077644Y-72876695D01*
X118162817Y-72911974D01*
X118300000Y-72930035D01*
X118437183Y-72911974D01*
X118522356Y-72876695D01*
X118552969Y-72864015D01*
X118552970Y-72864014D01*
X118565018Y-72859024D01*
X118674791Y-72774791D01*
X118759024Y-72665017D01*
X118811974Y-72537183D01*
X118830035Y-72400000D01*
X118811974Y-72262817D01*
X118759024Y-72134983D01*
X118674791Y-72025209D01*
X118565018Y-71940976D01*
X118552970Y-71935986D01*
X118552969Y-71935985D01*
X118480608Y-71906013D01*
X118437183Y-71888026D01*
X118300000Y-71869965D01*
X118162817Y-71888026D01*
X118150768Y-71893017D01*
X118150767Y-71893017D01*
X118131538Y-71900982D01*
X118034983Y-71940976D01*
X117925209Y-72025209D01*
X117840976Y-72134983D01*
X117788026Y-72262817D01*
X117769965Y-72400000D01*
X117181812Y-72400000D01*
X117203983Y-72346475D01*
X117206983Y-72339233D01*
X117206983Y-72339232D01*
X117211974Y-72327183D01*
X117230035Y-72190000D01*
X117211974Y-72052817D01*
X117205064Y-72036133D01*
X117164016Y-71937035D01*
X117159024Y-71924983D01*
X117074791Y-71815209D01*
X116983564Y-71745207D01*
X116975367Y-71738917D01*
X116975366Y-71738916D01*
X116965018Y-71730976D01*
X116952970Y-71725986D01*
X116952969Y-71725985D01*
X116915692Y-71710545D01*
X116837183Y-71678026D01*
X116700000Y-71659965D01*
X116687065Y-71661668D01*
X116575750Y-71676323D01*
X116575748Y-71676324D01*
X116562817Y-71678026D01*
X116551303Y-71682795D01*
X116500376Y-71689500D01*
X115467208Y-71689500D01*
X115453702Y-71688958D01*
X115440552Y-71685982D01*
X115394177Y-71688859D01*
X115390002Y-71689118D01*
X115377680Y-71689500D01*
X115364060Y-71689500D01*
X115356848Y-71690533D01*
X115340969Y-71692160D01*
X115328123Y-71692957D01*
X115311608Y-71693981D01*
X115311606Y-71693981D01*
X115297461Y-71694859D01*
X115284129Y-71699672D01*
X115278063Y-71700928D01*
X115272116Y-71702667D01*
X115258082Y-71704677D01*
X115238407Y-71713623D01*
X115218399Y-71722720D01*
X115203608Y-71728741D01*
X115162613Y-71743540D01*
X115151162Y-71751905D01*
X115145690Y-71754815D01*
X115140480Y-71758147D01*
X115127572Y-71764016D01*
X115094533Y-71792484D01*
X115082038Y-71802405D01*
X115073664Y-71808523D01*
X115064836Y-71817351D01*
X115054021Y-71827392D01*
X115018963Y-71857600D01*
X115011253Y-71869495D01*
X115005867Y-71875669D01*
X114996624Y-71885563D01*
X114556612Y-72325575D01*
X114481624Y-72372694D01*
X114393617Y-72382610D01*
X114310024Y-72353359D01*
X114247400Y-72290735D01*
X114218149Y-72207142D01*
X114225366Y-72135630D01*
X114223243Y-72135085D01*
X114224799Y-72129026D01*
X114226731Y-72123079D01*
X114230169Y-72105057D01*
X114284516Y-71820161D01*
X114284517Y-71820155D01*
X114285688Y-71814015D01*
X114287044Y-71792470D01*
X114305051Y-71506247D01*
X114305444Y-71500000D01*
X114285688Y-71185985D01*
X114282538Y-71169469D01*
X114227903Y-70883064D01*
X114227902Y-70883062D01*
X114226731Y-70876921D01*
X114215809Y-70843305D01*
X114131437Y-70583637D01*
X114131437Y-70583636D01*
X114129503Y-70577685D01*
X114117795Y-70552804D01*
X113998201Y-70298653D01*
X113998197Y-70298645D01*
X113995537Y-70292993D01*
X113826947Y-70027337D01*
X113678368Y-69847736D01*
X113630369Y-69789715D01*
X113630364Y-69789709D01*
X113626390Y-69784906D01*
X113470688Y-69638691D01*
X113401589Y-69573803D01*
X113401587Y-69573802D01*
X113397030Y-69569522D01*
X113391975Y-69565850D01*
X113391971Y-69565846D01*
X113147541Y-69388258D01*
X113147540Y-69388257D01*
X113142484Y-69384584D01*
X112866766Y-69233006D01*
X112764206Y-69192400D01*
X112743054Y-69184025D01*
X112670029Y-69133916D01*
X112625977Y-69057086D01*
X112619623Y-68968751D01*
X112652226Y-68886407D01*
X112717327Y-68826363D01*
X112802033Y-68800512D01*
X112816310Y-68799999D01*
X135299976Y-68799999D01*
X157783687Y-68800000D01*
G37*
%TD.AperFunction*%
%TA.AperFunction,Conductor*%
G36*
X143617665Y-96285205D02*
G01*
X143672033Y-96323781D01*
X143901471Y-96553218D01*
X143901472Y-96553220D01*
X143996780Y-96648528D01*
X144010734Y-96655638D01*
X144013038Y-96656812D01*
X144039662Y-96673128D01*
X144054419Y-96683849D01*
X144069316Y-96688689D01*
X144069319Y-96688691D01*
X144071772Y-96689488D01*
X144100615Y-96701435D01*
X144102921Y-96702610D01*
X144102923Y-96702610D01*
X144116874Y-96709719D01*
X144132339Y-96712168D01*
X144132344Y-96712170D01*
X144134901Y-96712575D01*
X144165257Y-96719863D01*
X144167461Y-96720579D01*
X144182607Y-96725500D01*
X144592324Y-96725500D01*
X144678667Y-96745207D01*
X144747908Y-96800426D01*
X144786335Y-96880218D01*
X144786335Y-96968782D01*
X144747908Y-97048574D01*
X144733038Y-97065214D01*
X134335214Y-107463038D01*
X134260226Y-107510157D01*
X134172219Y-107520073D01*
X134088626Y-107490822D01*
X134026002Y-107428198D01*
X133996751Y-107344605D01*
X133995500Y-107322324D01*
X133995500Y-104608675D01*
X134015207Y-104522332D01*
X134053786Y-104467961D01*
X134893020Y-103628727D01*
X134968008Y-103581608D01*
X135056015Y-103571692D01*
X135139608Y-103600943D01*
X135202232Y-103663567D01*
X135231483Y-103747160D01*
X135221567Y-103835167D01*
X135217596Y-103845569D01*
X135198026Y-103892817D01*
X135179965Y-104030000D01*
X135198026Y-104167183D01*
X135203017Y-104179232D01*
X135203017Y-104179233D01*
X135218608Y-104216873D01*
X135250976Y-104295017D01*
X135335209Y-104404791D01*
X135374600Y-104435017D01*
X135417533Y-104467961D01*
X135444982Y-104489024D01*
X135457030Y-104494014D01*
X135457031Y-104494015D01*
X135491200Y-104508168D01*
X135572817Y-104541974D01*
X135710000Y-104560035D01*
X135847183Y-104541974D01*
X135928800Y-104508168D01*
X135962969Y-104494015D01*
X135962970Y-104494014D01*
X135975018Y-104489024D01*
X136002468Y-104467961D01*
X136045400Y-104435017D01*
X136084791Y-104404791D01*
X136169024Y-104295017D01*
X136201392Y-104216873D01*
X136216981Y-104179238D01*
X136216982Y-104179236D01*
X136221974Y-104167183D01*
X136223497Y-104155618D01*
X136264499Y-104078035D01*
X136274623Y-104067125D01*
X141793216Y-98548531D01*
X141793219Y-98548529D01*
X141888528Y-98453220D01*
X141896812Y-98436962D01*
X141913128Y-98410337D01*
X141914642Y-98408253D01*
X141923849Y-98395581D01*
X141928689Y-98380684D01*
X141928691Y-98380681D01*
X141929488Y-98378228D01*
X141941435Y-98349385D01*
X141942610Y-98347079D01*
X141942610Y-98347077D01*
X141949719Y-98333126D01*
X141952168Y-98317661D01*
X141952170Y-98317656D01*
X141952575Y-98315099D01*
X141959863Y-98284743D01*
X141960659Y-98282292D01*
X141965500Y-98267393D01*
X141965500Y-96918676D01*
X141985207Y-96832333D01*
X142023786Y-96777962D01*
X142397126Y-96404622D01*
X142472114Y-96357503D01*
X142484731Y-96353612D01*
X142497185Y-96351972D01*
X142570197Y-96321730D01*
X142612971Y-96304013D01*
X142612972Y-96304012D01*
X142625020Y-96299022D01*
X142634274Y-96291921D01*
X142718128Y-96266055D01*
X142733002Y-96265498D01*
X143531322Y-96265498D01*
X143617665Y-96285205D01*
G37*
%TD.AperFunction*%
%TA.AperFunction,Conductor*%
G36*
X126151374Y-75605955D02*
G01*
X126213998Y-75668579D01*
X126243249Y-75752172D01*
X126244500Y-75774453D01*
X126244500Y-78375239D01*
X126224793Y-78461582D01*
X126169574Y-78530823D01*
X126089782Y-78569250D01*
X126019526Y-78572536D01*
X126000000Y-78569965D01*
X125862817Y-78588026D01*
X125850768Y-78593017D01*
X125850767Y-78593017D01*
X125840217Y-78597387D01*
X125734983Y-78640976D01*
X125625209Y-78725209D01*
X125540976Y-78834983D01*
X125488026Y-78962817D01*
X125485951Y-78961958D01*
X125452820Y-79024646D01*
X125442697Y-79035555D01*
X121482875Y-82995377D01*
X121407887Y-83042496D01*
X121395276Y-83046386D01*
X121382817Y-83048026D01*
X121370764Y-83053018D01*
X121370762Y-83053019D01*
X121332381Y-83068917D01*
X121254983Y-83100976D01*
X121145209Y-83185209D01*
X121060976Y-83294983D01*
X121055984Y-83307035D01*
X121029586Y-83370767D01*
X121008026Y-83422817D01*
X121006503Y-83434382D01*
X120965501Y-83511965D01*
X120955377Y-83522875D01*
X120391472Y-84086780D01*
X120384363Y-84100732D01*
X120383190Y-84103035D01*
X120366873Y-84129662D01*
X120356151Y-84144419D01*
X120351311Y-84159316D01*
X120351309Y-84159319D01*
X120350512Y-84161772D01*
X120338565Y-84190615D01*
X120330281Y-84206874D01*
X120327832Y-84222339D01*
X120327830Y-84222344D01*
X120327425Y-84224901D01*
X120320137Y-84255257D01*
X120314500Y-84272607D01*
X120314500Y-93604433D01*
X120294793Y-93690776D01*
X120239574Y-93760017D01*
X120159782Y-93798444D01*
X120071218Y-93798444D01*
X119991426Y-93760017D01*
X119957623Y-93725577D01*
X119907729Y-93660554D01*
X119899791Y-93650209D01*
X119836084Y-93601324D01*
X119800367Y-93573917D01*
X119800366Y-93573916D01*
X119790018Y-93565976D01*
X119777970Y-93560986D01*
X119777969Y-93560985D01*
X119727300Y-93539998D01*
X119662183Y-93513026D01*
X119525000Y-93494965D01*
X119387817Y-93513026D01*
X119387650Y-93511755D01*
X119312503Y-93514567D01*
X119231329Y-93479151D01*
X119173561Y-93412022D01*
X119150500Y-93319036D01*
X119150500Y-87091523D01*
X119150675Y-87083190D01*
X119152642Y-87036263D01*
X119152642Y-87036262D01*
X119153210Y-87022706D01*
X119150111Y-87009493D01*
X119144061Y-86983696D01*
X119140644Y-86965265D01*
X119137046Y-86939003D01*
X119135206Y-86925568D01*
X119129819Y-86913120D01*
X119127259Y-86903951D01*
X119125283Y-86897975D01*
X119121866Y-86889073D01*
X119118768Y-86875864D01*
X119099464Y-86840750D01*
X119091219Y-86823921D01*
X119080691Y-86799592D01*
X119075305Y-86787145D01*
X119066770Y-86776605D01*
X119061847Y-86768476D01*
X119057083Y-86761387D01*
X119057079Y-86761390D01*
X119051130Y-86752830D01*
X119046106Y-86743692D01*
X119039103Y-86735578D01*
X119017271Y-86713746D01*
X119003333Y-86698267D01*
X118988925Y-86680475D01*
X118980386Y-86669930D01*
X118969324Y-86662069D01*
X118968284Y-86661092D01*
X118944615Y-86641090D01*
X117842335Y-85538811D01*
X117837544Y-85534020D01*
X117832155Y-85529930D01*
X117832151Y-85529926D01*
X117788807Y-85497027D01*
X117747783Y-85465888D01*
X117678921Y-85438623D01*
X117620163Y-85415359D01*
X117620162Y-85415359D01*
X117607547Y-85410364D01*
X117520233Y-85401187D01*
X117471040Y-85396017D01*
X117471038Y-85396017D01*
X117457546Y-85394599D01*
X117405164Y-85403459D01*
X117322208Y-85417489D01*
X117322206Y-85417490D01*
X117320898Y-85417711D01*
X117320896Y-85417711D01*
X117308830Y-85419752D01*
X117308649Y-85418684D01*
X117233420Y-85424659D01*
X117150835Y-85392670D01*
X117090308Y-85328018D01*
X117063827Y-85243506D01*
X117076636Y-85155874D01*
X117121488Y-85087037D01*
X125107579Y-77100946D01*
X125113595Y-77095177D01*
X125114423Y-77094415D01*
X125158156Y-77054201D01*
X125179275Y-77020140D01*
X125189882Y-77004706D01*
X125214112Y-76972783D01*
X125219107Y-76960167D01*
X125223786Y-76951863D01*
X125226618Y-76946233D01*
X125230489Y-76937539D01*
X125237635Y-76926014D01*
X125241418Y-76912994D01*
X125241419Y-76912991D01*
X125248815Y-76887532D01*
X125254889Y-76869793D01*
X125264643Y-76845159D01*
X125264644Y-76845155D01*
X125269636Y-76832547D01*
X125271054Y-76819060D01*
X125273323Y-76809821D01*
X125274965Y-76801451D01*
X125274959Y-76801450D01*
X125276805Y-76791190D01*
X125279715Y-76781175D01*
X125280500Y-76770485D01*
X125280500Y-76739614D01*
X125281590Y-76718812D01*
X125283984Y-76696037D01*
X125283984Y-76696036D01*
X125285402Y-76682545D01*
X125283139Y-76669168D01*
X125283095Y-76667753D01*
X125280500Y-76636854D01*
X125280500Y-76340453D01*
X125300207Y-76254110D01*
X125338786Y-76199739D01*
X125904786Y-75633739D01*
X125979774Y-75586620D01*
X126067781Y-75576704D01*
X126151374Y-75605955D01*
G37*
%TD.AperFunction*%
%TA.AperFunction,Conductor*%
G36*
X125020233Y-80880319D02*
G01*
X125082857Y-80942943D01*
X125111656Y-81022841D01*
X125128026Y-81147183D01*
X125133017Y-81159232D01*
X125133017Y-81159233D01*
X125155370Y-81213197D01*
X125180976Y-81275017D01*
X125265209Y-81384791D01*
X125275554Y-81392729D01*
X125354092Y-81452994D01*
X125374982Y-81469024D01*
X125387030Y-81474014D01*
X125387031Y-81474015D01*
X125411973Y-81484346D01*
X125502817Y-81521974D01*
X125640000Y-81540035D01*
X125777183Y-81521974D01*
X125868027Y-81484346D01*
X125892969Y-81474015D01*
X125892970Y-81474014D01*
X125905018Y-81469024D01*
X125924358Y-81454184D01*
X126004853Y-81417258D01*
X126093400Y-81418913D01*
X126172461Y-81458824D01*
X126226375Y-81529086D01*
X126244500Y-81612062D01*
X126244500Y-82940958D01*
X126224793Y-83027301D01*
X126169574Y-83096542D01*
X126089782Y-83134969D01*
X126001218Y-83134969D01*
X125924356Y-83098835D01*
X125921368Y-83096542D01*
X125875018Y-83060976D01*
X125862970Y-83055986D01*
X125862969Y-83055985D01*
X125824292Y-83039965D01*
X125747183Y-83008026D01*
X125610000Y-82989965D01*
X125472817Y-83008026D01*
X125460768Y-83013017D01*
X125460767Y-83013017D01*
X125393601Y-83040838D01*
X125344983Y-83060976D01*
X125235209Y-83145209D01*
X125150976Y-83254983D01*
X125145984Y-83267035D01*
X125130266Y-83304983D01*
X125098026Y-83382817D01*
X125079965Y-83520000D01*
X125098026Y-83657183D01*
X125103017Y-83669232D01*
X125103017Y-83669233D01*
X125118736Y-83707183D01*
X125150976Y-83785017D01*
X125235209Y-83894791D01*
X125344982Y-83979024D01*
X125357030Y-83984014D01*
X125357031Y-83984015D01*
X125367630Y-83988405D01*
X125472817Y-84031974D01*
X125597065Y-84048332D01*
X125610000Y-84050035D01*
X125622935Y-84048332D01*
X125635975Y-84048332D01*
X125635975Y-84051556D01*
X125702236Y-84057773D01*
X125778090Y-84103485D01*
X125826599Y-84177581D01*
X125838155Y-84265388D01*
X125810469Y-84349512D01*
X125780739Y-84387513D01*
X122672875Y-87495377D01*
X122597887Y-87542496D01*
X122585276Y-87546386D01*
X122572817Y-87548026D01*
X122560764Y-87553018D01*
X122560762Y-87553019D01*
X122478567Y-87587065D01*
X122444983Y-87600976D01*
X122335209Y-87685209D01*
X122250976Y-87794983D01*
X122245984Y-87807035D01*
X122239464Y-87818328D01*
X122237207Y-87817025D01*
X122197104Y-87873547D01*
X122119591Y-87916387D01*
X122031167Y-87921354D01*
X121949345Y-87887462D01*
X121890331Y-87821426D01*
X121865813Y-87736324D01*
X121865500Y-87725165D01*
X121865500Y-85558676D01*
X121885207Y-85472333D01*
X121923786Y-85417962D01*
X123207124Y-84134624D01*
X123282112Y-84087505D01*
X123294729Y-84083614D01*
X123307183Y-84081974D01*
X123341107Y-84067922D01*
X123422969Y-84034015D01*
X123422970Y-84034014D01*
X123435018Y-84029024D01*
X123478487Y-83995669D01*
X123534446Y-83952729D01*
X123544791Y-83944791D01*
X123629024Y-83835017D01*
X123649512Y-83785554D01*
X123676983Y-83719233D01*
X123676983Y-83719232D01*
X123681974Y-83707183D01*
X123700035Y-83570000D01*
X123681974Y-83432817D01*
X123629024Y-83304983D01*
X123544791Y-83195209D01*
X123435018Y-83110976D01*
X123422970Y-83105986D01*
X123422969Y-83105985D01*
X123386991Y-83091083D01*
X123307183Y-83058026D01*
X123170000Y-83039965D01*
X123142917Y-83043531D01*
X123054743Y-83035264D01*
X122978886Y-82989557D01*
X122930372Y-82915463D01*
X122918811Y-82827658D01*
X122946492Y-82743532D01*
X122976228Y-82705520D01*
X124773645Y-80908103D01*
X124848633Y-80860984D01*
X124936640Y-80851068D01*
X125020233Y-80880319D01*
G37*
%TD.AperFunction*%
%TA.AperFunction,Conductor*%
G36*
X146387312Y-70400207D02*
G01*
X146441683Y-70438786D01*
X146771214Y-70768317D01*
X146818333Y-70843305D01*
X146829500Y-70909031D01*
X146829500Y-73041475D01*
X146828121Y-73064864D01*
X146824636Y-73094310D01*
X146827309Y-73108946D01*
X146834970Y-73150895D01*
X146835996Y-73157059D01*
X146844551Y-73213962D01*
X146847679Y-73220475D01*
X146848975Y-73227573D01*
X146855830Y-73240770D01*
X146855832Y-73240775D01*
X146875487Y-73278613D01*
X146878253Y-73284147D01*
X146903191Y-73336079D01*
X146908094Y-73341383D01*
X146911421Y-73347788D01*
X146915725Y-73352828D01*
X146951943Y-73389046D01*
X146957360Y-73394679D01*
X146985050Y-73424635D01*
X146985053Y-73424637D01*
X146995146Y-73435556D01*
X147002295Y-73439708D01*
X147005274Y-73442377D01*
X147647147Y-74084250D01*
X147694266Y-74159238D01*
X147704182Y-74247245D01*
X147674931Y-74330838D01*
X147655947Y-74354643D01*
X147655209Y-74355209D01*
X147570976Y-74464983D01*
X147565984Y-74477035D01*
X147534512Y-74553017D01*
X147518026Y-74592817D01*
X147515509Y-74611936D01*
X147484700Y-74694967D01*
X147420915Y-74756408D01*
X147394365Y-74769811D01*
X147386625Y-74773017D01*
X147294983Y-74810976D01*
X147185209Y-74895209D01*
X147100976Y-75004983D01*
X147048026Y-75132817D01*
X147029965Y-75270000D01*
X147048026Y-75407183D01*
X147053017Y-75419232D01*
X147053017Y-75419233D01*
X147069877Y-75459937D01*
X147100976Y-75535017D01*
X147185209Y-75644791D01*
X147294982Y-75729024D01*
X147307030Y-75734014D01*
X147307031Y-75734015D01*
X147331174Y-75744015D01*
X147422817Y-75781974D01*
X147560000Y-75800035D01*
X147697183Y-75781974D01*
X147788826Y-75744015D01*
X147812969Y-75734015D01*
X147812970Y-75734014D01*
X147825018Y-75729024D01*
X147934791Y-75644791D01*
X147958556Y-75613820D01*
X148026753Y-75557317D01*
X148112712Y-75535999D01*
X148199409Y-75554088D01*
X148257147Y-75594250D01*
X150291214Y-77628317D01*
X150338333Y-77703305D01*
X150349500Y-77769031D01*
X150349500Y-80130969D01*
X150329793Y-80217312D01*
X150291214Y-80271683D01*
X149998691Y-80564206D01*
X149981178Y-80579769D01*
X149969573Y-80588917D01*
X149969570Y-80588920D01*
X149957890Y-80598128D01*
X149925175Y-80645462D01*
X149921563Y-80650517D01*
X149896208Y-80684844D01*
X149896206Y-80684847D01*
X149887366Y-80696816D01*
X149884973Y-80703632D01*
X149880869Y-80709569D01*
X149873063Y-80734252D01*
X149863524Y-80764412D01*
X149861546Y-80770340D01*
X149842481Y-80824631D01*
X149842198Y-80831845D01*
X149840020Y-80838730D01*
X149839500Y-80845337D01*
X149839500Y-80896575D01*
X149839347Y-80904386D01*
X149837162Y-80959994D01*
X149839280Y-80967984D01*
X149839500Y-80971973D01*
X149839500Y-81470069D01*
X149819793Y-81556412D01*
X149764574Y-81625653D01*
X149684782Y-81664080D01*
X149596218Y-81664080D01*
X149586909Y-81661114D01*
X149586834Y-81661393D01*
X149574230Y-81658016D01*
X149562183Y-81653026D01*
X149550620Y-81651504D01*
X149473035Y-81610501D01*
X149462124Y-81600376D01*
X149113220Y-81251472D01*
X149096961Y-81243187D01*
X149070338Y-81226873D01*
X149055581Y-81216151D01*
X149040684Y-81211311D01*
X149040681Y-81211309D01*
X149038228Y-81210512D01*
X149009385Y-81198565D01*
X149007079Y-81197390D01*
X149007076Y-81197389D01*
X148993126Y-81190281D01*
X148977661Y-81187832D01*
X148977656Y-81187830D01*
X148975099Y-81187425D01*
X148944743Y-81180137D01*
X148942292Y-81179341D01*
X148927393Y-81174500D01*
X147022607Y-81174500D01*
X147007714Y-81179339D01*
X147007713Y-81179339D01*
X147005257Y-81180137D01*
X146974893Y-81187427D01*
X146972340Y-81187831D01*
X146972338Y-81187832D01*
X146956874Y-81190281D01*
X146940617Y-81198564D01*
X146911770Y-81210512D01*
X146894419Y-81216150D01*
X146894416Y-81216151D01*
X146893456Y-81213197D01*
X146831619Y-81228775D01*
X146744856Y-81211006D01*
X146674396Y-81157351D01*
X146634193Y-81078439D01*
X146633237Y-81073440D01*
X146631177Y-81065751D01*
X146629474Y-81052817D01*
X146607184Y-80999003D01*
X146581516Y-80937034D01*
X146581515Y-80937032D01*
X146576524Y-80924983D01*
X146569422Y-80915728D01*
X146543556Y-80831870D01*
X146543000Y-80817001D01*
X146543000Y-80130107D01*
X146538079Y-80114961D01*
X146537363Y-80112757D01*
X146530075Y-80082401D01*
X146529670Y-80079844D01*
X146529668Y-80079839D01*
X146527219Y-80064374D01*
X146518935Y-80048115D01*
X146506988Y-80019272D01*
X146506191Y-80016819D01*
X146506189Y-80016816D01*
X146501349Y-80001919D01*
X146490628Y-79987162D01*
X146474312Y-79960538D01*
X146473138Y-79958234D01*
X146466028Y-79944280D01*
X146370720Y-79848972D01*
X146370718Y-79848971D01*
X144917687Y-78395940D01*
X143463786Y-76942038D01*
X143416667Y-76867050D01*
X143405500Y-76801324D01*
X143405500Y-75760000D01*
X144309965Y-75760000D01*
X144328026Y-75897183D01*
X144333017Y-75909232D01*
X144333017Y-75909233D01*
X144353368Y-75958365D01*
X144380976Y-76025017D01*
X144465209Y-76134791D01*
X144475554Y-76142729D01*
X144549850Y-76199739D01*
X144574982Y-76219024D01*
X144587030Y-76224014D01*
X144587031Y-76224015D01*
X144621200Y-76238168D01*
X144702817Y-76271974D01*
X144840000Y-76290035D01*
X144977183Y-76271974D01*
X145058800Y-76238168D01*
X145092969Y-76224015D01*
X145092970Y-76224014D01*
X145105018Y-76219024D01*
X145130151Y-76199739D01*
X145204446Y-76142729D01*
X145214791Y-76134791D01*
X145299024Y-76025017D01*
X145326632Y-75958365D01*
X145346983Y-75909233D01*
X145346983Y-75909232D01*
X145351974Y-75897183D01*
X145370035Y-75760000D01*
X145351974Y-75622817D01*
X145341411Y-75597314D01*
X145304016Y-75507035D01*
X145299024Y-75494983D01*
X145214791Y-75385209D01*
X145170221Y-75351009D01*
X145115367Y-75308917D01*
X145115366Y-75308916D01*
X145105018Y-75300976D01*
X145092970Y-75295986D01*
X145092969Y-75295985D01*
X145057805Y-75281420D01*
X144977183Y-75248026D01*
X144840000Y-75229965D01*
X144702817Y-75248026D01*
X144690768Y-75253017D01*
X144690767Y-75253017D01*
X144668310Y-75262319D01*
X144574983Y-75300976D01*
X144465209Y-75385209D01*
X144380976Y-75494983D01*
X144375984Y-75507035D01*
X144338590Y-75597314D01*
X144328026Y-75622817D01*
X144309965Y-75760000D01*
X143405500Y-75760000D01*
X143405500Y-73570000D01*
X144509965Y-73570000D01*
X144528026Y-73707183D01*
X144580976Y-73835017D01*
X144665209Y-73944791D01*
X144700501Y-73971872D01*
X144717154Y-73984650D01*
X144774982Y-74029024D01*
X144787030Y-74034014D01*
X144787031Y-74034015D01*
X144813593Y-74045017D01*
X144902817Y-74081974D01*
X145040000Y-74100035D01*
X145177183Y-74081974D01*
X145266407Y-74045017D01*
X145292969Y-74034015D01*
X145292970Y-74034014D01*
X145305018Y-74029024D01*
X145362847Y-73984650D01*
X145379499Y-73971872D01*
X145414791Y-73944791D01*
X145499024Y-73835017D01*
X145551974Y-73707183D01*
X145570035Y-73570000D01*
X145551974Y-73432817D01*
X145534994Y-73391822D01*
X145504016Y-73317035D01*
X145499024Y-73304983D01*
X145414791Y-73195209D01*
X145305018Y-73110976D01*
X145292970Y-73105986D01*
X145292969Y-73105985D01*
X145229116Y-73079537D01*
X145177183Y-73058026D01*
X145040000Y-73039965D01*
X144902817Y-73058026D01*
X144890768Y-73063017D01*
X144890767Y-73063017D01*
X144886308Y-73064864D01*
X144774983Y-73110976D01*
X144665209Y-73195209D01*
X144580976Y-73304983D01*
X144575984Y-73317035D01*
X144545007Y-73391822D01*
X144528026Y-73432817D01*
X144509965Y-73570000D01*
X143405500Y-73570000D01*
X143405500Y-72346475D01*
X143425207Y-72260132D01*
X143480426Y-72190891D01*
X143560218Y-72152464D01*
X143628061Y-72148875D01*
X143669808Y-72153853D01*
X143669811Y-72153853D01*
X143679472Y-72155005D01*
X143870213Y-72140328D01*
X144054472Y-72088882D01*
X144063151Y-72084498D01*
X144063156Y-72084496D01*
X144216547Y-72007012D01*
X144216546Y-72007012D01*
X144225228Y-72002627D01*
X144375979Y-71884848D01*
X144407488Y-71848345D01*
X144441861Y-71808523D01*
X144500982Y-71740030D01*
X144506126Y-71730976D01*
X144546465Y-71659965D01*
X144595476Y-71573691D01*
X144608067Y-71535843D01*
X144652789Y-71401401D01*
X144652789Y-71401400D01*
X144655861Y-71392166D01*
X144679838Y-71202369D01*
X144680220Y-71175000D01*
X144661552Y-70984608D01*
X144606259Y-70801467D01*
X144601687Y-70792868D01*
X144537912Y-70672925D01*
X144514776Y-70587437D01*
X144531024Y-70500377D01*
X144583437Y-70428988D01*
X144661633Y-70387410D01*
X144713618Y-70380500D01*
X146300969Y-70380500D01*
X146387312Y-70400207D01*
G37*
%TD.AperFunction*%
%TD*%
M02*
