%TF.GenerationSoftware,KiCad,Pcbnew,(6.0.0)*%
%TF.CreationDate,2022-03-28T10:21:43+08:00*%
%TF.ProjectId,USB2_Jtag_Bridge,55534232-5f4a-4746-9167-5f4272696467,rev?*%
%TF.SameCoordinates,Original*%
%TF.FileFunction,Legend,Top*%
%TF.FilePolarity,Positive*%
%FSLAX46Y46*%
G04 Gerber Fmt 4.6, Leading zero omitted, Abs format (unit mm)*
G04 Created by KiCad (PCBNEW (6.0.0)) date 2022-03-28 10:21:43*
%MOMM*%
%LPD*%
G01*
G04 APERTURE LIST*
%ADD10C,0.100000*%
%ADD11C,0.120000*%
G04 APERTURE END LIST*
D10*
X139958285Y-84451428D02*
X140301142Y-84451428D01*
X140129714Y-85051428D02*
X140129714Y-84451428D01*
X140501142Y-85051428D02*
X140501142Y-84451428D01*
X140644000Y-84451428D01*
X140729714Y-84480000D01*
X140786857Y-84537142D01*
X140815428Y-84594285D01*
X140844000Y-84708571D01*
X140844000Y-84794285D01*
X140815428Y-84908571D01*
X140786857Y-84965714D01*
X140729714Y-85022857D01*
X140644000Y-85051428D01*
X140501142Y-85051428D01*
X141215428Y-84451428D02*
X141329714Y-84451428D01*
X141386857Y-84480000D01*
X141444000Y-84537142D01*
X141472571Y-84651428D01*
X141472571Y-84851428D01*
X141444000Y-84965714D01*
X141386857Y-85022857D01*
X141329714Y-85051428D01*
X141215428Y-85051428D01*
X141158285Y-85022857D01*
X141101142Y-84965714D01*
X141072571Y-84851428D01*
X141072571Y-84651428D01*
X141101142Y-84537142D01*
X141158285Y-84480000D01*
X141215428Y-84451428D01*
X137547714Y-84451428D02*
X137890571Y-84451428D01*
X137719142Y-85051428D02*
X137719142Y-84451428D01*
X138090571Y-85051428D02*
X138090571Y-84451428D01*
X138233428Y-84451428D01*
X138319142Y-84480000D01*
X138376285Y-84537142D01*
X138404857Y-84594285D01*
X138433428Y-84708571D01*
X138433428Y-84794285D01*
X138404857Y-84908571D01*
X138376285Y-84965714D01*
X138319142Y-85022857D01*
X138233428Y-85051428D01*
X138090571Y-85051428D01*
X138690571Y-85051428D02*
X138690571Y-84451428D01*
X145450857Y-84480000D02*
X145393714Y-84451428D01*
X145308000Y-84451428D01*
X145222285Y-84480000D01*
X145165142Y-84537142D01*
X145136571Y-84594285D01*
X145108000Y-84708571D01*
X145108000Y-84794285D01*
X145136571Y-84908571D01*
X145165142Y-84965714D01*
X145222285Y-85022857D01*
X145308000Y-85051428D01*
X145365142Y-85051428D01*
X145450857Y-85022857D01*
X145479428Y-84994285D01*
X145479428Y-84794285D01*
X145365142Y-84794285D01*
X145736571Y-85051428D02*
X145736571Y-84451428D01*
X146079428Y-85051428D01*
X146079428Y-84451428D01*
X146365142Y-85051428D02*
X146365142Y-84451428D01*
X146508000Y-84451428D01*
X146593714Y-84480000D01*
X146650857Y-84537142D01*
X146679428Y-84594285D01*
X146708000Y-84708571D01*
X146708000Y-84794285D01*
X146679428Y-84908571D01*
X146650857Y-84965714D01*
X146593714Y-85022857D01*
X146508000Y-85051428D01*
X146365142Y-85051428D01*
X142526000Y-84451428D02*
X142868857Y-84451428D01*
X142697428Y-85051428D02*
X142697428Y-84451428D01*
X143068857Y-85051428D02*
X143068857Y-84451428D01*
X143268857Y-84880000D01*
X143468857Y-84451428D01*
X143468857Y-85051428D01*
X143726000Y-85022857D02*
X143811714Y-85051428D01*
X143954571Y-85051428D01*
X144011714Y-85022857D01*
X144040285Y-84994285D01*
X144068857Y-84937142D01*
X144068857Y-84880000D01*
X144040285Y-84822857D01*
X144011714Y-84794285D01*
X143954571Y-84765714D01*
X143840285Y-84737142D01*
X143783142Y-84708571D01*
X143754571Y-84680000D01*
X143726000Y-84622857D01*
X143726000Y-84565714D01*
X143754571Y-84508571D01*
X143783142Y-84480000D01*
X143840285Y-84451428D01*
X143983142Y-84451428D01*
X144068857Y-84480000D01*
X134808571Y-84451428D02*
X135151428Y-84451428D01*
X134980000Y-85051428D02*
X134980000Y-84451428D01*
X135694285Y-84994285D02*
X135665714Y-85022857D01*
X135580000Y-85051428D01*
X135522857Y-85051428D01*
X135437142Y-85022857D01*
X135380000Y-84965714D01*
X135351428Y-84908571D01*
X135322857Y-84794285D01*
X135322857Y-84708571D01*
X135351428Y-84594285D01*
X135380000Y-84537142D01*
X135437142Y-84480000D01*
X135522857Y-84451428D01*
X135580000Y-84451428D01*
X135665714Y-84480000D01*
X135694285Y-84508571D01*
X135951428Y-85051428D02*
X135951428Y-84451428D01*
X136294285Y-85051428D02*
X136037142Y-84708571D01*
X136294285Y-84451428D02*
X135951428Y-84794285D01*
X147375714Y-84451428D02*
X147575714Y-85051428D01*
X147775714Y-84451428D01*
X148318571Y-85051428D02*
X148118571Y-84765714D01*
X147975714Y-85051428D02*
X147975714Y-84451428D01*
X148204285Y-84451428D01*
X148261428Y-84480000D01*
X148290000Y-84508571D01*
X148318571Y-84565714D01*
X148318571Y-84651428D01*
X148290000Y-84708571D01*
X148261428Y-84737142D01*
X148204285Y-84765714D01*
X147975714Y-84765714D01*
X148575714Y-84737142D02*
X148775714Y-84737142D01*
X148861428Y-85051428D02*
X148575714Y-85051428D01*
X148575714Y-84451428D01*
X148861428Y-84451428D01*
X149118571Y-85051428D02*
X149118571Y-84451428D01*
X149318571Y-84880000D01*
X149518571Y-84451428D01*
X149518571Y-85051428D01*
%TO.C,C1*%
X149800000Y-83074285D02*
X149771428Y-83102857D01*
X149685714Y-83131428D01*
X149628571Y-83131428D01*
X149542857Y-83102857D01*
X149485714Y-83045714D01*
X149457142Y-82988571D01*
X149428571Y-82874285D01*
X149428571Y-82788571D01*
X149457142Y-82674285D01*
X149485714Y-82617142D01*
X149542857Y-82560000D01*
X149628571Y-82531428D01*
X149685714Y-82531428D01*
X149771428Y-82560000D01*
X149800000Y-82588571D01*
X150371428Y-83131428D02*
X150028571Y-83131428D01*
X150200000Y-83131428D02*
X150200000Y-82531428D01*
X150142857Y-82617142D01*
X150085714Y-82674285D01*
X150028571Y-82702857D01*
%TO.C,R5*%
X149800000Y-78141428D02*
X149600000Y-77855714D01*
X149457142Y-78141428D02*
X149457142Y-77541428D01*
X149685714Y-77541428D01*
X149742857Y-77570000D01*
X149771428Y-77598571D01*
X149800000Y-77655714D01*
X149800000Y-77741428D01*
X149771428Y-77798571D01*
X149742857Y-77827142D01*
X149685714Y-77855714D01*
X149457142Y-77855714D01*
X150342857Y-77541428D02*
X150057142Y-77541428D01*
X150028571Y-77827142D01*
X150057142Y-77798571D01*
X150114285Y-77770000D01*
X150257142Y-77770000D01*
X150314285Y-77798571D01*
X150342857Y-77827142D01*
X150371428Y-77884285D01*
X150371428Y-78027142D01*
X150342857Y-78084285D01*
X150314285Y-78112857D01*
X150257142Y-78141428D01*
X150114285Y-78141428D01*
X150057142Y-78112857D01*
X150028571Y-78084285D01*
%TO.C,C3*%
X149800000Y-76994285D02*
X149771428Y-77022857D01*
X149685714Y-77051428D01*
X149628571Y-77051428D01*
X149542857Y-77022857D01*
X149485714Y-76965714D01*
X149457142Y-76908571D01*
X149428571Y-76794285D01*
X149428571Y-76708571D01*
X149457142Y-76594285D01*
X149485714Y-76537142D01*
X149542857Y-76480000D01*
X149628571Y-76451428D01*
X149685714Y-76451428D01*
X149771428Y-76480000D01*
X149800000Y-76508571D01*
X150000000Y-76451428D02*
X150371428Y-76451428D01*
X150171428Y-76680000D01*
X150257142Y-76680000D01*
X150314285Y-76708571D01*
X150342857Y-76737142D01*
X150371428Y-76794285D01*
X150371428Y-76937142D01*
X150342857Y-76994285D01*
X150314285Y-77022857D01*
X150257142Y-77051428D01*
X150085714Y-77051428D01*
X150028571Y-77022857D01*
X150000000Y-76994285D01*
%TO.C,L1*%
X134940000Y-74431428D02*
X134654285Y-74431428D01*
X134654285Y-73831428D01*
X135454285Y-74431428D02*
X135111428Y-74431428D01*
X135282857Y-74431428D02*
X135282857Y-73831428D01*
X135225714Y-73917142D01*
X135168571Y-73974285D01*
X135111428Y-74002857D01*
%TO.C,C16*%
X133614285Y-77864285D02*
X133585714Y-77892857D01*
X133500000Y-77921428D01*
X133442857Y-77921428D01*
X133357142Y-77892857D01*
X133300000Y-77835714D01*
X133271428Y-77778571D01*
X133242857Y-77664285D01*
X133242857Y-77578571D01*
X133271428Y-77464285D01*
X133300000Y-77407142D01*
X133357142Y-77350000D01*
X133442857Y-77321428D01*
X133500000Y-77321428D01*
X133585714Y-77350000D01*
X133614285Y-77378571D01*
X134185714Y-77921428D02*
X133842857Y-77921428D01*
X134014285Y-77921428D02*
X134014285Y-77321428D01*
X133957142Y-77407142D01*
X133900000Y-77464285D01*
X133842857Y-77492857D01*
X134700000Y-77321428D02*
X134585714Y-77321428D01*
X134528571Y-77350000D01*
X134500000Y-77378571D01*
X134442857Y-77464285D01*
X134414285Y-77578571D01*
X134414285Y-77807142D01*
X134442857Y-77864285D01*
X134471428Y-77892857D01*
X134528571Y-77921428D01*
X134642857Y-77921428D01*
X134700000Y-77892857D01*
X134728571Y-77864285D01*
X134757142Y-77807142D01*
X134757142Y-77664285D01*
X134728571Y-77607142D01*
X134700000Y-77578571D01*
X134642857Y-77550000D01*
X134528571Y-77550000D01*
X134471428Y-77578571D01*
X134442857Y-77607142D01*
X134414285Y-77664285D01*
%TO.C,R12*%
X133604285Y-81071428D02*
X133404285Y-80785714D01*
X133261428Y-81071428D02*
X133261428Y-80471428D01*
X133490000Y-80471428D01*
X133547142Y-80500000D01*
X133575714Y-80528571D01*
X133604285Y-80585714D01*
X133604285Y-80671428D01*
X133575714Y-80728571D01*
X133547142Y-80757142D01*
X133490000Y-80785714D01*
X133261428Y-80785714D01*
X134175714Y-81071428D02*
X133832857Y-81071428D01*
X134004285Y-81071428D02*
X134004285Y-80471428D01*
X133947142Y-80557142D01*
X133890000Y-80614285D01*
X133832857Y-80642857D01*
X134404285Y-80528571D02*
X134432857Y-80500000D01*
X134490000Y-80471428D01*
X134632857Y-80471428D01*
X134690000Y-80500000D01*
X134718571Y-80528571D01*
X134747142Y-80585714D01*
X134747142Y-80642857D01*
X134718571Y-80728571D01*
X134375714Y-81071428D01*
X134747142Y-81071428D01*
%TO.C,Y1*%
X149883000Y-74885714D02*
X150168714Y-74885714D01*
X149568714Y-75085714D02*
X149883000Y-74885714D01*
X149568714Y-74685714D01*
X150168714Y-74171428D02*
X150168714Y-74514285D01*
X150168714Y-74342857D02*
X149568714Y-74342857D01*
X149654428Y-74400000D01*
X149711571Y-74457142D01*
X149740143Y-74514285D01*
%TO.C,C2*%
X149800000Y-83984285D02*
X149771428Y-84012857D01*
X149685714Y-84041428D01*
X149628571Y-84041428D01*
X149542857Y-84012857D01*
X149485714Y-83955714D01*
X149457142Y-83898571D01*
X149428571Y-83784285D01*
X149428571Y-83698571D01*
X149457142Y-83584285D01*
X149485714Y-83527142D01*
X149542857Y-83470000D01*
X149628571Y-83441428D01*
X149685714Y-83441428D01*
X149771428Y-83470000D01*
X149800000Y-83498571D01*
X150028571Y-83498571D02*
X150057142Y-83470000D01*
X150114285Y-83441428D01*
X150257142Y-83441428D01*
X150314285Y-83470000D01*
X150342857Y-83498571D01*
X150371428Y-83555714D01*
X150371428Y-83612857D01*
X150342857Y-83698571D01*
X150000000Y-84041428D01*
X150371428Y-84041428D01*
%TO.C,D1*%
X133499642Y-82281428D02*
X133499642Y-81681428D01*
X133642500Y-81681428D01*
X133728214Y-81710000D01*
X133785357Y-81767142D01*
X133813928Y-81824285D01*
X133842500Y-81938571D01*
X133842500Y-82024285D01*
X133813928Y-82138571D01*
X133785357Y-82195714D01*
X133728214Y-82252857D01*
X133642500Y-82281428D01*
X133499642Y-82281428D01*
X134413928Y-82281428D02*
X134071071Y-82281428D01*
X134242500Y-82281428D02*
X134242500Y-81681428D01*
X134185357Y-81767142D01*
X134128214Y-81824285D01*
X134071071Y-81852857D01*
%TO.C,R8*%
X149800000Y-80011428D02*
X149600000Y-79725714D01*
X149457142Y-80011428D02*
X149457142Y-79411428D01*
X149685714Y-79411428D01*
X149742857Y-79440000D01*
X149771428Y-79468571D01*
X149800000Y-79525714D01*
X149800000Y-79611428D01*
X149771428Y-79668571D01*
X149742857Y-79697142D01*
X149685714Y-79725714D01*
X149457142Y-79725714D01*
X150142857Y-79668571D02*
X150085714Y-79640000D01*
X150057142Y-79611428D01*
X150028571Y-79554285D01*
X150028571Y-79525714D01*
X150057142Y-79468571D01*
X150085714Y-79440000D01*
X150142857Y-79411428D01*
X150257142Y-79411428D01*
X150314285Y-79440000D01*
X150342857Y-79468571D01*
X150371428Y-79525714D01*
X150371428Y-79554285D01*
X150342857Y-79611428D01*
X150314285Y-79640000D01*
X150257142Y-79668571D01*
X150142857Y-79668571D01*
X150085714Y-79697142D01*
X150057142Y-79725714D01*
X150028571Y-79782857D01*
X150028571Y-79897142D01*
X150057142Y-79954285D01*
X150085714Y-79982857D01*
X150142857Y-80011428D01*
X150257142Y-80011428D01*
X150314285Y-79982857D01*
X150342857Y-79954285D01*
X150371428Y-79897142D01*
X150371428Y-79782857D01*
X150342857Y-79725714D01*
X150314285Y-79697142D01*
X150257142Y-79668571D01*
%TO.C,R14*%
X133604285Y-79181428D02*
X133404285Y-78895714D01*
X133261428Y-79181428D02*
X133261428Y-78581428D01*
X133490000Y-78581428D01*
X133547142Y-78610000D01*
X133575714Y-78638571D01*
X133604285Y-78695714D01*
X133604285Y-78781428D01*
X133575714Y-78838571D01*
X133547142Y-78867142D01*
X133490000Y-78895714D01*
X133261428Y-78895714D01*
X134175714Y-79181428D02*
X133832857Y-79181428D01*
X134004285Y-79181428D02*
X134004285Y-78581428D01*
X133947142Y-78667142D01*
X133890000Y-78724285D01*
X133832857Y-78752857D01*
X134690000Y-78781428D02*
X134690000Y-79181428D01*
X134547142Y-78552857D02*
X134404285Y-78981428D01*
X134775714Y-78981428D01*
%TO.C,C4*%
X149800000Y-72674285D02*
X149771428Y-72702857D01*
X149685714Y-72731428D01*
X149628571Y-72731428D01*
X149542857Y-72702857D01*
X149485714Y-72645714D01*
X149457142Y-72588571D01*
X149428571Y-72474285D01*
X149428571Y-72388571D01*
X149457142Y-72274285D01*
X149485714Y-72217142D01*
X149542857Y-72160000D01*
X149628571Y-72131428D01*
X149685714Y-72131428D01*
X149771428Y-72160000D01*
X149800000Y-72188571D01*
X150314285Y-72331428D02*
X150314285Y-72731428D01*
X150171428Y-72102857D02*
X150028571Y-72531428D01*
X150400000Y-72531428D01*
%TO.C,C7*%
X149800000Y-82054285D02*
X149771428Y-82082857D01*
X149685714Y-82111428D01*
X149628571Y-82111428D01*
X149542857Y-82082857D01*
X149485714Y-82025714D01*
X149457142Y-81968571D01*
X149428571Y-81854285D01*
X149428571Y-81768571D01*
X149457142Y-81654285D01*
X149485714Y-81597142D01*
X149542857Y-81540000D01*
X149628571Y-81511428D01*
X149685714Y-81511428D01*
X149771428Y-81540000D01*
X149800000Y-81568571D01*
X150000000Y-81511428D02*
X150400000Y-81511428D01*
X150142857Y-82111428D01*
%TO.C,R13*%
X133604285Y-80121428D02*
X133404285Y-79835714D01*
X133261428Y-80121428D02*
X133261428Y-79521428D01*
X133490000Y-79521428D01*
X133547142Y-79550000D01*
X133575714Y-79578571D01*
X133604285Y-79635714D01*
X133604285Y-79721428D01*
X133575714Y-79778571D01*
X133547142Y-79807142D01*
X133490000Y-79835714D01*
X133261428Y-79835714D01*
X134175714Y-80121428D02*
X133832857Y-80121428D01*
X134004285Y-80121428D02*
X134004285Y-79521428D01*
X133947142Y-79607142D01*
X133890000Y-79664285D01*
X133832857Y-79692857D01*
X134375714Y-79521428D02*
X134747142Y-79521428D01*
X134547142Y-79750000D01*
X134632857Y-79750000D01*
X134690000Y-79778571D01*
X134718571Y-79807142D01*
X134747142Y-79864285D01*
X134747142Y-80007142D01*
X134718571Y-80064285D01*
X134690000Y-80092857D01*
X134632857Y-80121428D01*
X134461428Y-80121428D01*
X134404285Y-80092857D01*
X134375714Y-80064285D01*
%TO.C,R7*%
X149800000Y-79081428D02*
X149600000Y-78795714D01*
X149457142Y-79081428D02*
X149457142Y-78481428D01*
X149685714Y-78481428D01*
X149742857Y-78510000D01*
X149771428Y-78538571D01*
X149800000Y-78595714D01*
X149800000Y-78681428D01*
X149771428Y-78738571D01*
X149742857Y-78767142D01*
X149685714Y-78795714D01*
X149457142Y-78795714D01*
X150000000Y-78481428D02*
X150400000Y-78481428D01*
X150142857Y-79081428D01*
%TO.C,R6*%
X149800000Y-81071428D02*
X149600000Y-80785714D01*
X149457142Y-81071428D02*
X149457142Y-80471428D01*
X149685714Y-80471428D01*
X149742857Y-80500000D01*
X149771428Y-80528571D01*
X149800000Y-80585714D01*
X149800000Y-80671428D01*
X149771428Y-80728571D01*
X149742857Y-80757142D01*
X149685714Y-80785714D01*
X149457142Y-80785714D01*
X150314285Y-80471428D02*
X150200000Y-80471428D01*
X150142857Y-80500000D01*
X150114285Y-80528571D01*
X150057142Y-80614285D01*
X150028571Y-80728571D01*
X150028571Y-80957142D01*
X150057142Y-81014285D01*
X150085714Y-81042857D01*
X150142857Y-81071428D01*
X150257142Y-81071428D01*
X150314285Y-81042857D01*
X150342857Y-81014285D01*
X150371428Y-80957142D01*
X150371428Y-80814285D01*
X150342857Y-80757142D01*
X150314285Y-80728571D01*
X150257142Y-80700000D01*
X150142857Y-80700000D01*
X150085714Y-80728571D01*
X150057142Y-80757142D01*
X150028571Y-80814285D01*
%TO.C,R9*%
X133810000Y-83381428D02*
X133610000Y-83095714D01*
X133467142Y-83381428D02*
X133467142Y-82781428D01*
X133695714Y-82781428D01*
X133752857Y-82810000D01*
X133781428Y-82838571D01*
X133810000Y-82895714D01*
X133810000Y-82981428D01*
X133781428Y-83038571D01*
X133752857Y-83067142D01*
X133695714Y-83095714D01*
X133467142Y-83095714D01*
X134095714Y-83381428D02*
X134210000Y-83381428D01*
X134267142Y-83352857D01*
X134295714Y-83324285D01*
X134352857Y-83238571D01*
X134381428Y-83124285D01*
X134381428Y-82895714D01*
X134352857Y-82838571D01*
X134324285Y-82810000D01*
X134267142Y-82781428D01*
X134152857Y-82781428D01*
X134095714Y-82810000D01*
X134067142Y-82838571D01*
X134038571Y-82895714D01*
X134038571Y-83038571D01*
X134067142Y-83095714D01*
X134095714Y-83124285D01*
X134152857Y-83152857D01*
X134267142Y-83152857D01*
X134324285Y-83124285D01*
X134352857Y-83095714D01*
X134381428Y-83038571D01*
%TO.C,C17*%
X133614285Y-76934285D02*
X133585714Y-76962857D01*
X133500000Y-76991428D01*
X133442857Y-76991428D01*
X133357142Y-76962857D01*
X133300000Y-76905714D01*
X133271428Y-76848571D01*
X133242857Y-76734285D01*
X133242857Y-76648571D01*
X133271428Y-76534285D01*
X133300000Y-76477142D01*
X133357142Y-76420000D01*
X133442857Y-76391428D01*
X133500000Y-76391428D01*
X133585714Y-76420000D01*
X133614285Y-76448571D01*
X134185714Y-76991428D02*
X133842857Y-76991428D01*
X134014285Y-76991428D02*
X134014285Y-76391428D01*
X133957142Y-76477142D01*
X133900000Y-76534285D01*
X133842857Y-76562857D01*
X134385714Y-76391428D02*
X134785714Y-76391428D01*
X134528571Y-76991428D01*
%TO.C,C1*%
X148122164Y-82490000D02*
X148337836Y-82490000D01*
X148122164Y-83210000D02*
X148337836Y-83210000D01*
%TO.C,R5*%
X148383641Y-77490000D02*
X148076359Y-77490000D01*
X148383641Y-78250000D02*
X148076359Y-78250000D01*
%TO.C,J1*%
X146550000Y-70895001D02*
X146550000Y-68975001D01*
X146550000Y-65260001D02*
X146550000Y-66965001D01*
X137390000Y-68975001D02*
X137390000Y-70895001D01*
X137390000Y-65260001D02*
X146550000Y-65260001D01*
X137390000Y-66965001D02*
X137390000Y-65260001D01*
%TO.C,C3*%
X148122164Y-76420000D02*
X148337836Y-76420000D01*
X148122164Y-77140000D02*
X148337836Y-77140000D01*
D11*
%TO.C,L1*%
X136580000Y-72630000D02*
X136580000Y-75630000D01*
X133380000Y-72630000D02*
X133380000Y-75630000D01*
D10*
%TO.C,C16*%
X135977836Y-77290000D02*
X135762164Y-77290000D01*
X135977836Y-78010000D02*
X135762164Y-78010000D01*
%TO.C,R12*%
X136053641Y-80420000D02*
X135746359Y-80420000D01*
X136053641Y-81180000D02*
X135746359Y-81180000D01*
%TO.C,Y1*%
X149030000Y-76270000D02*
X149030000Y-73420000D01*
X147430000Y-76270000D02*
X149030000Y-76270000D01*
X147430000Y-73420000D02*
X147430000Y-76270000D01*
%TO.C,C2*%
X148122164Y-83410000D02*
X148337836Y-83410000D01*
X148122164Y-84130000D02*
X148337836Y-84130000D01*
%TO.C,D1*%
X137042500Y-82010000D02*
G75*
G03*
X137042500Y-82010000I-50000J0D01*
G01*
%TO.C,R8*%
X148383641Y-80120000D02*
X148076359Y-80120000D01*
X148383641Y-79360000D02*
X148076359Y-79360000D01*
%TO.C,R14*%
X135746359Y-79300000D02*
X136053641Y-79300000D01*
X135746359Y-78540000D02*
X136053641Y-78540000D01*
%TO.C,C4*%
X148122164Y-72100000D02*
X148337836Y-72100000D01*
X148122164Y-72820000D02*
X148337836Y-72820000D01*
%TO.C,U2*%
X150580000Y-69830000D02*
X150580000Y-70630000D01*
X147460000Y-69830000D02*
X147460000Y-70630000D01*
X147460000Y-69830000D02*
X147460000Y-69030000D01*
X150580000Y-69830000D02*
X150580000Y-68030000D01*
%TO.C,C7*%
X148122164Y-81460000D02*
X148337836Y-81460000D01*
X148122164Y-82180000D02*
X148337836Y-82180000D01*
%TO.C,R13*%
X135746359Y-79470000D02*
X136053641Y-79470000D01*
X135746359Y-80230000D02*
X136053641Y-80230000D01*
%TO.C,J2*%
X135620000Y-87850000D02*
X134290000Y-87850000D01*
X136890000Y-85190000D02*
X149650000Y-85190000D01*
X136890000Y-87850000D02*
X149650000Y-87850000D01*
X136890000Y-87850000D02*
X136890000Y-85190000D01*
X134290000Y-87850000D02*
X134290000Y-86520000D01*
X149650000Y-87850000D02*
X149650000Y-85190000D01*
%TO.C,U3*%
X136510000Y-69830000D02*
X136510000Y-70630000D01*
X136510000Y-69830000D02*
X136510000Y-69030000D01*
X133390000Y-69830000D02*
X133390000Y-71630000D01*
X133390000Y-69830000D02*
X133390000Y-69030000D01*
%TO.C,R7*%
X148383641Y-78430000D02*
X148076359Y-78430000D01*
X148383641Y-79190000D02*
X148076359Y-79190000D01*
%TO.C,U1*%
X137860000Y-75445000D02*
X138835000Y-75445000D01*
X137860000Y-82690000D02*
X137860000Y-83665000D01*
X137860000Y-83665000D02*
X138835000Y-83665000D01*
X146080000Y-83665000D02*
X145105000Y-83665000D01*
X146080000Y-82690000D02*
X146080000Y-83665000D01*
X146080000Y-76420000D02*
X146080000Y-75445000D01*
X137860000Y-76420000D02*
X137860000Y-75445000D01*
%TO.C,R6*%
X148076359Y-81180000D02*
X148383641Y-81180000D01*
X148076359Y-80420000D02*
X148383641Y-80420000D01*
%TO.C,R9*%
X135746359Y-82730000D02*
X136053641Y-82730000D01*
X135746359Y-83490000D02*
X136053641Y-83490000D01*
%TO.C,C17*%
X135977836Y-77080000D02*
X135762164Y-77080000D01*
X135977836Y-76360000D02*
X135762164Y-76360000D01*
%TD*%
M02*
