%TF.GenerationSoftware,KiCad,Pcbnew,(6.0.0)*%
%TF.CreationDate,2022-03-28T10:21:43+08:00*%
%TF.ProjectId,USB2_Jtag_Bridge,55534232-5f4a-4746-9167-5f4272696467,rev?*%
%TF.SameCoordinates,Original*%
%TF.FileFunction,Soldermask,Bot*%
%TF.FilePolarity,Negative*%
%FSLAX46Y46*%
G04 Gerber Fmt 4.6, Leading zero omitted, Abs format (unit mm)*
G04 Created by KiCad (PCBNEW (6.0.0)) date 2022-03-28 10:21:43*
%MOMM*%
%LPD*%
G01*
G04 APERTURE LIST*
G04 Aperture macros list*
%AMRoundRect*
0 Rectangle with rounded corners*
0 $1 Rounding radius*
0 $2 $3 $4 $5 $6 $7 $8 $9 X,Y pos of 4 corners*
0 Add a 4 corners polygon primitive as box body*
4,1,4,$2,$3,$4,$5,$6,$7,$8,$9,$2,$3,0*
0 Add four circle primitives for the rounded corners*
1,1,$1+$1,$2,$3*
1,1,$1+$1,$4,$5*
1,1,$1+$1,$6,$7*
1,1,$1+$1,$8,$9*
0 Add four rect primitives between the rounded corners*
20,1,$1+$1,$2,$3,$4,$5,0*
20,1,$1+$1,$4,$5,$6,$7,0*
20,1,$1+$1,$6,$7,$8,$9,0*
20,1,$1+$1,$8,$9,$2,$3,0*%
G04 Aperture macros list end*
%ADD10C,0.650000*%
%ADD11O,1.000000X2.100000*%
%ADD12O,1.000000X1.600000*%
%ADD13R,1.700000X1.700000*%
%ADD14O,1.700000X1.700000*%
%ADD15RoundRect,0.140000X-0.170000X0.140000X-0.170000X-0.140000X0.170000X-0.140000X0.170000X0.140000X0*%
%ADD16RoundRect,0.140000X0.170000X-0.140000X0.170000X0.140000X-0.170000X0.140000X-0.170000X-0.140000X0*%
%ADD17RoundRect,0.135000X0.185000X-0.135000X0.185000X0.135000X-0.185000X0.135000X-0.185000X-0.135000X0*%
%ADD18RoundRect,0.135000X-0.185000X0.135000X-0.185000X-0.135000X0.185000X-0.135000X0.185000X0.135000X0*%
%ADD19RoundRect,0.140000X0.140000X0.170000X-0.140000X0.170000X-0.140000X-0.170000X0.140000X-0.170000X0*%
G04 APERTURE END LIST*
D10*
%TO.C,J1*%
X144860000Y-71650001D03*
X139080000Y-71650001D03*
D11*
X137650000Y-72150001D03*
D12*
X137650000Y-67970001D03*
X146290000Y-67970001D03*
D11*
X146290000Y-72150001D03*
%TD*%
D13*
%TO.C,J2*%
X135620000Y-86520000D03*
D14*
X138160000Y-86520000D03*
X140700000Y-86520000D03*
X143240000Y-86520000D03*
X145780000Y-86520000D03*
X148320000Y-86520000D03*
%TD*%
D15*
%TO.C,C14*%
X134490000Y-68620000D03*
X134490000Y-69580000D03*
%TD*%
D16*
%TO.C,C5*%
X143720000Y-83460000D03*
X143720000Y-82500000D03*
%TD*%
D15*
%TO.C,C9*%
X140960000Y-75580000D03*
X140960000Y-76540000D03*
%TD*%
D17*
%TO.C,R4*%
X144820000Y-83490000D03*
X144820000Y-82470000D03*
%TD*%
D15*
%TO.C,C13*%
X138245319Y-73978115D03*
X138245319Y-74938115D03*
%TD*%
%TO.C,C11*%
X136225319Y-73988115D03*
X136225319Y-74948115D03*
%TD*%
D17*
%TO.C,R11*%
X136460000Y-69620000D03*
X136460000Y-68600000D03*
%TD*%
D18*
%TO.C,R3*%
X143010000Y-75580000D03*
X143010000Y-76600000D03*
%TD*%
D19*
%TO.C,C6*%
X145780000Y-81300000D03*
X144820000Y-81300000D03*
%TD*%
D18*
%TO.C,R10*%
X135450000Y-68590000D03*
X135450000Y-69610000D03*
%TD*%
D15*
%TO.C,C8*%
X139220000Y-75580000D03*
X139220000Y-76540000D03*
%TD*%
%TO.C,C12*%
X137240000Y-73980000D03*
X137240000Y-74940000D03*
%TD*%
%TO.C,C15*%
X136460000Y-70420000D03*
X136460000Y-71380000D03*
%TD*%
D19*
%TO.C,C10*%
X145780000Y-77400000D03*
X144820000Y-77400000D03*
%TD*%
M02*
