%TF.GenerationSoftware,KiCad,Pcbnew,(6.0.0)*%
%TF.CreationDate,2022-03-28T10:21:43+08:00*%
%TF.ProjectId,USB2_Jtag_Bridge,55534232-5f4a-4746-9167-5f4272696467,rev?*%
%TF.SameCoordinates,Original*%
%TF.FileFunction,Copper,L3,Inr*%
%TF.FilePolarity,Positive*%
%FSLAX46Y46*%
G04 Gerber Fmt 4.6, Leading zero omitted, Abs format (unit mm)*
G04 Created by KiCad (PCBNEW (6.0.0)) date 2022-03-28 10:21:43*
%MOMM*%
%LPD*%
G01*
G04 APERTURE LIST*
%TA.AperFunction,ComponentPad*%
%ADD10O,1.000000X2.100000*%
%TD*%
%TA.AperFunction,ComponentPad*%
%ADD11O,1.000000X1.600000*%
%TD*%
%TA.AperFunction,ComponentPad*%
%ADD12R,1.700000X1.700000*%
%TD*%
%TA.AperFunction,ComponentPad*%
%ADD13O,1.700000X1.700000*%
%TD*%
%TA.AperFunction,ViaPad*%
%ADD14C,0.450000*%
%TD*%
%TA.AperFunction,Conductor*%
%ADD15C,0.300000*%
%TD*%
%TA.AperFunction,Conductor*%
%ADD16C,0.500000*%
%TD*%
%TA.AperFunction,Conductor*%
%ADD17C,0.250000*%
%TD*%
%TA.AperFunction,Conductor*%
%ADD18C,0.200000*%
%TD*%
G04 APERTURE END LIST*
D10*
%TO.N,VSS*%
%TO.C,J1*%
X137650000Y-72150001D03*
D11*
X137650000Y-67970001D03*
X146290000Y-67970001D03*
D10*
X146290000Y-72150001D03*
%TD*%
D12*
%TO.N,TCK*%
%TO.C,J2*%
X135620000Y-86520000D03*
D13*
%TO.N,TDI*%
X138160000Y-86520000D03*
%TO.N,TDO*%
X140700000Y-86520000D03*
%TO.N,TMS*%
X143240000Y-86520000D03*
%TO.N,VSS*%
X145780000Y-86520000D03*
%TO.N,3.3V*%
X148320000Y-86520000D03*
%TD*%
D14*
%TO.N,VSS*%
X143070000Y-78540000D03*
X141070000Y-80540000D03*
X141070000Y-79540000D03*
X149270000Y-83320000D03*
X142925000Y-70030000D03*
X149250000Y-82330000D03*
X141925000Y-69030000D03*
X149020000Y-67640000D03*
X143070000Y-80540000D03*
X140925000Y-68030000D03*
X141070000Y-78540000D03*
X142070000Y-78540000D03*
X141925000Y-70030000D03*
X142070000Y-80540000D03*
X142070000Y-79540000D03*
X142925000Y-68030000D03*
X141925000Y-68030000D03*
X143070000Y-79540000D03*
X142925000Y-69030000D03*
X140925000Y-70030000D03*
X140925000Y-69030000D03*
%TO.N,RESET*%
X143720000Y-84180000D03*
%TO.N,+3V3*%
X146730000Y-77400000D03*
X143730000Y-74830000D03*
X146740000Y-81300000D03*
X149970000Y-72000000D03*
X140960000Y-74820000D03*
X139220000Y-74900000D03*
X138350000Y-82820000D03*
%TO.N,VBUS*%
X136410000Y-83820000D03*
X139570000Y-73700000D03*
X134625000Y-72000000D03*
X146870000Y-80450000D03*
X144380000Y-73690000D03*
%TO.N,Net-(C14-Pad1)*%
X134625000Y-67660000D03*
%TO.N,Net-(C15-Pad2)*%
X135690000Y-73000000D03*
%TO.N,3.3V*%
X134980000Y-75230000D03*
%TO.N,Net-(D1-Pad2)*%
X133750000Y-72000000D03*
X134840000Y-82010000D03*
%TO.N,TDI*%
X137130000Y-77130000D03*
%TO.N,TDO*%
X137140000Y-77800000D03*
%TO.N,TCK*%
X137130000Y-76480000D03*
%TO.N,TMS*%
X137169500Y-78470000D03*
%TO.N,EEP_CS*%
X147000000Y-78100000D03*
X149030000Y-70000000D03*
%TO.N,Net-(R6-Pad2)*%
X149300000Y-79740000D03*
X149970000Y-67660000D03*
%TO.N,EEP_CLK*%
X148070000Y-70010000D03*
X147000000Y-78810000D03*
%TO.N,EEP_D*%
X147000000Y-79500000D03*
X148070000Y-67650000D03*
%TO.N,Net-(R10-Pad1)*%
X135275000Y-67660000D03*
%TO.N,Net-(R11-Pad2)*%
X135925000Y-67670000D03*
%TO.N,Net-(R12-Pad2)*%
X134790000Y-80800000D03*
X133975000Y-67660000D03*
%TO.N,Net-(R3-Pad1)*%
X143000000Y-74350000D03*
%TD*%
D15*
%TO.N,+3V3*%
X139300000Y-74820000D02*
X140960000Y-74820000D01*
X140960000Y-74820000D02*
X141380000Y-75240000D01*
X146730000Y-77400000D02*
X146250000Y-77880000D01*
X149970000Y-72000000D02*
X149970000Y-80310000D01*
X146250000Y-77880000D02*
X146250000Y-80810000D01*
X146250000Y-80810000D02*
X146740000Y-81300000D01*
X139220000Y-74900000D02*
X139300000Y-74820000D01*
X143320000Y-75240000D02*
X143730000Y-74830000D01*
X149970000Y-80310000D02*
X148980000Y-81300000D01*
X143730000Y-74830000D02*
X144160000Y-74830000D01*
X141380000Y-75240000D02*
X143320000Y-75240000D01*
X148980000Y-81300000D02*
X146740000Y-81300000D01*
X144160000Y-74830000D02*
X146730000Y-77400000D01*
D16*
%TO.N,3.3V*%
X143058427Y-83040000D02*
X144011573Y-83040000D01*
X139165787Y-79975787D02*
X141644214Y-82454214D01*
X134980000Y-75230000D02*
X136521573Y-75230000D01*
X138580000Y-77288427D02*
X138580000Y-78561573D01*
X137935787Y-75815787D02*
X137994214Y-75874214D01*
X145425787Y-83625787D02*
X148320000Y-86520000D01*
X141644214Y-82454214D02*
G75*
G03*
X143058427Y-83040000I1414213J1414214D01*
G01*
X137935787Y-75815787D02*
G75*
G03*
X136521573Y-75230000I-1414214J-1414213D01*
G01*
X137994214Y-75874214D02*
G75*
G02*
X138580000Y-77288427I-1414214J-1414213D01*
G01*
X139165787Y-79975787D02*
G75*
G02*
X138580000Y-78561573I1414213J1414214D01*
G01*
X145425787Y-83625787D02*
G75*
G03*
X144011573Y-83040000I-1414214J-1414213D01*
G01*
D17*
%TO.N,Net-(D1-Pad2)*%
X133750000Y-72000000D02*
X133750000Y-80505786D01*
X134042893Y-81212893D02*
X134840000Y-82010000D01*
X134042893Y-81212893D02*
G75*
G02*
X133750000Y-80505786I707106J707106D01*
G01*
%TO.N,TDI*%
X137130000Y-77130000D02*
X137014214Y-77130000D01*
D18*
X137130000Y-77130000D02*
X136954264Y-77130000D01*
X136742132Y-77217868D02*
X136235736Y-77724264D01*
X136060000Y-78148528D02*
X136060000Y-82141472D01*
X138160000Y-84738528D02*
X138160000Y-86520000D01*
X136235736Y-82565736D02*
X137984264Y-84314264D01*
X136954264Y-77130001D02*
G75*
G03*
X136742133Y-77217869I-1J-299997D01*
G01*
X136235736Y-82565736D02*
G75*
G02*
X136060000Y-82141472I424260J424263D01*
G01*
X136235736Y-77724264D02*
G75*
G03*
X136060000Y-78148528I424260J-424263D01*
G01*
X138160000Y-84738528D02*
G75*
G03*
X137984264Y-84314264I-599996J1D01*
G01*
%TO.N,TDO*%
X136695736Y-82205736D02*
X140700000Y-86210000D01*
X136722132Y-77887868D02*
X136695736Y-77914264D01*
X137140000Y-77800000D02*
X136934264Y-77800000D01*
X140700000Y-86210000D02*
X140700000Y-86520000D01*
X136520000Y-78338528D02*
X136520000Y-81781472D01*
X136695736Y-82205736D02*
G75*
G02*
X136520000Y-81781472I424260J424263D01*
G01*
X136695736Y-77914264D02*
G75*
G03*
X136520000Y-78338528I424260J-424263D01*
G01*
X136722132Y-77887868D02*
G75*
G02*
X136934264Y-77800000I212131J-212130D01*
G01*
%TO.N,TCK*%
X137130000Y-76480000D02*
X136964264Y-76480000D01*
X135600000Y-86500000D02*
X135620000Y-86520000D01*
X136752132Y-76567868D02*
X135775736Y-77544264D01*
X135600000Y-77968528D02*
X135600000Y-86500000D01*
X135775736Y-77544264D02*
G75*
G03*
X135600000Y-77968528I424260J-424263D01*
G01*
X136964264Y-76480001D02*
G75*
G03*
X136752133Y-76567869I-1J-299997D01*
G01*
%TO.N,TMS*%
X137169500Y-78470000D02*
X137169500Y-80200972D01*
X137345236Y-80625236D02*
X143240000Y-86520000D01*
X137345236Y-80625236D02*
G75*
G02*
X137169500Y-80200972I424260J424263D01*
G01*
%TO.N,EEP_CS*%
X148047107Y-69400000D02*
X148297893Y-69400000D01*
X148651447Y-69546447D02*
X149105000Y-70000000D01*
X147596447Y-69643553D02*
X147693554Y-69546446D01*
X146975000Y-78100000D02*
X147080000Y-78100000D01*
X147450000Y-77730000D02*
X147450000Y-69997107D01*
X147080000Y-78100000D02*
X147450000Y-77730000D01*
X147596447Y-69643553D02*
G75*
G03*
X147450000Y-69997107I353550J-353553D01*
G01*
X148047107Y-69400001D02*
G75*
G03*
X147693554Y-69546446I0J-500001D01*
G01*
X148297893Y-69400000D02*
G75*
G02*
X148651447Y-69546447I1J-499997D01*
G01*
%TO.N,Net-(R6-Pad2)*%
X149295000Y-72014214D02*
X149295000Y-79560000D01*
X150170000Y-67785000D02*
X150170000Y-70310786D01*
X149877107Y-71017893D02*
X149587893Y-71307107D01*
X150045000Y-67660000D02*
X150170000Y-67785000D01*
X150169999Y-70310786D02*
G75*
G02*
X149877106Y-71017892I-999993J-3D01*
G01*
X149295001Y-72014214D02*
G75*
G02*
X149587894Y-71307108I999993J3D01*
G01*
%TO.N,EEP_CLK*%
X147250000Y-78810000D02*
X148070000Y-77990000D01*
X148070000Y-77990000D02*
X148070000Y-70010000D01*
X147000000Y-78810000D02*
X147250000Y-78810000D01*
%TO.N,EEP_D*%
X149630000Y-69624214D02*
X149630000Y-70000786D01*
X147380000Y-79500000D02*
X146975000Y-79500000D01*
X148650000Y-78230000D02*
X147380000Y-79500000D01*
X149337107Y-70707893D02*
X148942893Y-71102107D01*
X148070000Y-67650000D02*
X149337107Y-68917107D01*
X148650000Y-71809214D02*
X148650000Y-78230000D01*
X149629999Y-69624214D02*
G75*
G03*
X149337106Y-68917108I-999993J3D01*
G01*
X149629999Y-70000786D02*
G75*
G02*
X149337106Y-70707892I-999993J-3D01*
G01*
X148650001Y-71809214D02*
G75*
G02*
X148942894Y-71102108I999993J3D01*
G01*
D17*
%TO.N,Net-(R12-Pad2)*%
X135047107Y-72642893D02*
X134592893Y-73097107D01*
X134267893Y-69377893D02*
X135047107Y-70157107D01*
X135340000Y-70864214D02*
X135340000Y-71935786D01*
X134300000Y-73804214D02*
X134300000Y-79895786D01*
X134592893Y-80602893D02*
X134790000Y-80800000D01*
X133975000Y-67660000D02*
X133975000Y-68670786D01*
X134592893Y-73097107D02*
G75*
G03*
X134300000Y-73804214I707106J-707106D01*
G01*
X133975001Y-68670786D02*
G75*
G03*
X134267894Y-69377892I999993J-3D01*
G01*
X135047107Y-72642893D02*
G75*
G03*
X135340000Y-71935786I-707106J707106D01*
G01*
X135047107Y-70157107D02*
G75*
G02*
X135340000Y-70864214I-707106J-707106D01*
G01*
X134300001Y-79895786D02*
G75*
G03*
X134592894Y-80602892I999993J-3D01*
G01*
%TD*%
%TA.AperFunction,Conductor*%
%TO.N,VSS*%
G36*
X150014938Y-66261902D02*
G01*
X150020437Y-66262996D01*
X150020438Y-66262996D01*
X150030000Y-66264898D01*
X150039564Y-66262995D01*
X150049313Y-66262995D01*
X150049313Y-66263988D01*
X150061019Y-66263495D01*
X150141299Y-66272541D01*
X150162911Y-66277473D01*
X150178693Y-66282995D01*
X150258113Y-66310785D01*
X150278080Y-66320401D01*
X150363169Y-66373867D01*
X150363472Y-66374057D01*
X150380804Y-66387878D01*
X150452122Y-66459196D01*
X150465943Y-66476528D01*
X150519599Y-66561920D01*
X150529215Y-66581887D01*
X150544991Y-66626973D01*
X150562527Y-66677089D01*
X150567459Y-66698701D01*
X150576505Y-66778981D01*
X150576012Y-66790687D01*
X150577005Y-66790687D01*
X150577005Y-66800436D01*
X150575102Y-66810000D01*
X150577004Y-66819562D01*
X150577004Y-66819563D01*
X150578098Y-66825062D01*
X150580000Y-66844376D01*
X150580000Y-67395773D01*
X150561093Y-67453964D01*
X150511593Y-67489928D01*
X150450407Y-67489928D01*
X150400907Y-67453964D01*
X150390878Y-67436748D01*
X150377627Y-67407604D01*
X150377626Y-67407603D01*
X150374706Y-67401180D01*
X150285796Y-67297996D01*
X150171501Y-67223913D01*
X150041006Y-67184887D01*
X149960455Y-67184395D01*
X149911855Y-67184098D01*
X149911854Y-67184098D01*
X149904804Y-67184055D01*
X149898027Y-67185992D01*
X149898026Y-67185992D01*
X149780622Y-67219546D01*
X149780620Y-67219547D01*
X149773842Y-67221484D01*
X149658650Y-67294165D01*
X149568487Y-67396255D01*
X149510601Y-67519548D01*
X149489646Y-67654131D01*
X149490561Y-67661129D01*
X149504029Y-67764125D01*
X149507306Y-67789186D01*
X149510146Y-67795640D01*
X149510147Y-67795644D01*
X149521928Y-67822418D01*
X149562162Y-67913856D01*
X149577654Y-67932286D01*
X149645265Y-68012720D01*
X149645268Y-68012722D01*
X149649804Y-68018119D01*
X149655675Y-68022027D01*
X149655676Y-68022028D01*
X149687639Y-68043304D01*
X149763187Y-68093593D01*
X149764878Y-68094121D01*
X149807502Y-68134569D01*
X149819500Y-68181809D01*
X149819500Y-68669300D01*
X149800593Y-68727491D01*
X149751093Y-68763455D01*
X149689907Y-68763455D01*
X149646069Y-68734576D01*
X149631560Y-68718032D01*
X149628247Y-68713642D01*
X149627833Y-68712781D01*
X149624515Y-68708833D01*
X149618488Y-68702806D01*
X149614075Y-68698095D01*
X149600458Y-68682567D01*
X149594809Y-68675496D01*
X149592617Y-68672480D01*
X149588037Y-68666176D01*
X149581736Y-68661598D01*
X149581734Y-68661596D01*
X149571750Y-68654343D01*
X149559936Y-68644254D01*
X148571154Y-67655472D01*
X148543158Y-67599502D01*
X148533945Y-67535171D01*
X148531081Y-67515171D01*
X148474706Y-67391180D01*
X148385796Y-67287996D01*
X148271501Y-67213913D01*
X148141006Y-67174887D01*
X148060455Y-67174395D01*
X148011855Y-67174098D01*
X148011854Y-67174098D01*
X148004804Y-67174055D01*
X147998027Y-67175992D01*
X147998026Y-67175992D01*
X147880622Y-67209546D01*
X147880620Y-67209547D01*
X147873842Y-67211484D01*
X147758650Y-67284165D01*
X147668487Y-67386255D01*
X147610601Y-67509548D01*
X147589646Y-67644131D01*
X147607306Y-67779186D01*
X147610146Y-67785640D01*
X147610147Y-67785644D01*
X147626328Y-67822418D01*
X147662162Y-67903856D01*
X147695788Y-67943859D01*
X147745265Y-68002720D01*
X147745268Y-68002722D01*
X147749804Y-68008119D01*
X147755675Y-68012027D01*
X147755676Y-68012028D01*
X147782092Y-68029612D01*
X147863187Y-68083593D01*
X147869914Y-68085695D01*
X147869917Y-68085696D01*
X147986463Y-68122107D01*
X147986464Y-68122107D01*
X147993195Y-68124210D01*
X148008944Y-68124499D01*
X148009618Y-68124511D01*
X148067453Y-68144481D01*
X148077808Y-68153490D01*
X149064252Y-69139933D01*
X149074341Y-69151747D01*
X149081597Y-69161735D01*
X149081599Y-69161737D01*
X149086177Y-69168038D01*
X149092478Y-69172616D01*
X149097991Y-69178129D01*
X149097859Y-69178261D01*
X149108166Y-69187980D01*
X149163854Y-69255836D01*
X149174635Y-69271971D01*
X149199297Y-69318108D01*
X149206783Y-69332114D01*
X149217539Y-69392347D01*
X149190838Y-69447398D01*
X149136877Y-69476241D01*
X149076269Y-69467858D01*
X149049469Y-69448787D01*
X148924297Y-69323615D01*
X148914208Y-69311801D01*
X148906957Y-69301821D01*
X148902378Y-69295518D01*
X148893116Y-69288789D01*
X148887645Y-69284813D01*
X148881542Y-69280002D01*
X148802306Y-69212327D01*
X148802302Y-69212324D01*
X148799352Y-69209804D01*
X148685207Y-69139856D01*
X148561525Y-69088625D01*
X148557751Y-69087719D01*
X148557748Y-69087718D01*
X148435126Y-69058279D01*
X148435125Y-69058279D01*
X148431352Y-69057373D01*
X148427487Y-69057069D01*
X148427482Y-69057068D01*
X148381719Y-69053467D01*
X148372421Y-69052735D01*
X148363009Y-69051357D01*
X148358987Y-69049945D01*
X148353849Y-69049500D01*
X148335207Y-69049500D01*
X148327448Y-69049195D01*
X148323594Y-69048892D01*
X148315876Y-69047979D01*
X148297892Y-69045131D01*
X148290196Y-69046350D01*
X148278004Y-69048281D01*
X148262517Y-69049500D01*
X148082482Y-69049500D01*
X148066995Y-69048281D01*
X148054803Y-69046350D01*
X148047107Y-69045131D01*
X148029104Y-69047982D01*
X148021410Y-69048893D01*
X147972593Y-69052735D01*
X147917520Y-69057069D01*
X147917516Y-69057070D01*
X147913649Y-69057374D01*
X147909876Y-69058280D01*
X147909875Y-69058280D01*
X147787253Y-69087719D01*
X147787250Y-69087720D01*
X147783476Y-69088626D01*
X147659796Y-69139856D01*
X147656480Y-69141888D01*
X147640392Y-69151747D01*
X147545652Y-69209803D01*
X147542702Y-69212323D01*
X147542700Y-69212324D01*
X147500712Y-69248185D01*
X147493073Y-69253873D01*
X147489228Y-69255720D01*
X147485280Y-69259038D01*
X147472081Y-69272237D01*
X147466361Y-69277523D01*
X147463447Y-69280011D01*
X147457355Y-69284812D01*
X147448936Y-69290929D01*
X147448933Y-69290932D01*
X147442625Y-69295515D01*
X147430789Y-69311806D01*
X147420705Y-69323613D01*
X147373615Y-69370703D01*
X147361801Y-69380792D01*
X147345518Y-69392622D01*
X147340938Y-69398926D01*
X147334813Y-69407355D01*
X147330002Y-69413458D01*
X147259804Y-69495648D01*
X147189856Y-69609793D01*
X147138625Y-69733475D01*
X147107373Y-69863648D01*
X147107069Y-69867513D01*
X147107068Y-69867518D01*
X147102735Y-69922578D01*
X147101357Y-69931991D01*
X147099945Y-69936013D01*
X147099500Y-69941151D01*
X147099500Y-69959790D01*
X147099196Y-69967543D01*
X147098893Y-69971400D01*
X147097979Y-69979124D01*
X147095131Y-69997108D01*
X147096350Y-70004804D01*
X147098281Y-70016996D01*
X147099500Y-70032483D01*
X147099500Y-76890659D01*
X147080593Y-76948850D01*
X147031093Y-76984814D01*
X146969907Y-76984814D01*
X146946653Y-76973734D01*
X146937422Y-76967751D01*
X146937423Y-76967751D01*
X146931501Y-76963913D01*
X146853888Y-76940702D01*
X146812250Y-76915857D01*
X144420909Y-74524516D01*
X144420905Y-74524513D01*
X144398342Y-74501950D01*
X144376846Y-74490998D01*
X144363605Y-74482883D01*
X144350395Y-74473285D01*
X144344090Y-74468704D01*
X144336679Y-74466296D01*
X144321143Y-74461248D01*
X144306797Y-74455305D01*
X144285304Y-74444354D01*
X144277611Y-74443136D01*
X144277609Y-74443135D01*
X144261481Y-74440581D01*
X144246380Y-74436956D01*
X144223433Y-74429500D01*
X144015683Y-74429500D01*
X143961837Y-74413576D01*
X143931501Y-74393913D01*
X143801006Y-74354887D01*
X143720455Y-74354395D01*
X143671855Y-74354098D01*
X143671854Y-74354098D01*
X143664804Y-74354055D01*
X143658027Y-74355992D01*
X143658026Y-74355992D01*
X143597316Y-74373343D01*
X143536170Y-74371154D01*
X143487988Y-74333442D01*
X143472111Y-74292189D01*
X143462081Y-74222155D01*
X143461081Y-74215171D01*
X143404706Y-74091180D01*
X143315796Y-73987996D01*
X143201501Y-73913913D01*
X143071006Y-73874887D01*
X142990455Y-73874395D01*
X142941855Y-73874098D01*
X142941854Y-73874098D01*
X142934804Y-73874055D01*
X142928027Y-73875992D01*
X142928026Y-73875992D01*
X142810622Y-73909546D01*
X142810620Y-73909547D01*
X142803842Y-73911484D01*
X142688650Y-73984165D01*
X142598487Y-74086255D01*
X142540601Y-74209548D01*
X142519646Y-74344131D01*
X142520561Y-74351129D01*
X142532258Y-74440581D01*
X142537306Y-74479186D01*
X142540146Y-74485640D01*
X142540147Y-74485644D01*
X142571033Y-74555837D01*
X142592162Y-74603856D01*
X142652541Y-74675686D01*
X142653476Y-74676798D01*
X142676446Y-74733508D01*
X142661695Y-74792889D01*
X142614859Y-74832259D01*
X142577693Y-74839500D01*
X141586901Y-74839500D01*
X141528710Y-74820593D01*
X141516897Y-74810504D01*
X141449335Y-74742942D01*
X141426901Y-74698091D01*
X141424060Y-74698922D01*
X141422081Y-74692155D01*
X141421081Y-74685171D01*
X141364706Y-74561180D01*
X141275796Y-74457996D01*
X141161501Y-74383913D01*
X141031006Y-74344887D01*
X140950455Y-74344395D01*
X140901855Y-74344098D01*
X140901854Y-74344098D01*
X140894804Y-74344055D01*
X140888027Y-74345992D01*
X140888026Y-74345992D01*
X140770622Y-74379546D01*
X140770620Y-74379547D01*
X140763842Y-74381484D01*
X140757878Y-74385247D01*
X140727797Y-74404227D01*
X140674969Y-74419500D01*
X139236567Y-74419500D01*
X139229159Y-74421907D01*
X139221461Y-74423126D01*
X139221273Y-74421939D01*
X139205308Y-74424363D01*
X139161856Y-74424098D01*
X139154804Y-74424055D01*
X139148028Y-74425992D01*
X139148025Y-74425992D01*
X139030622Y-74459546D01*
X139030620Y-74459547D01*
X139023842Y-74461484D01*
X138908650Y-74534165D01*
X138818487Y-74636255D01*
X138760601Y-74759548D01*
X138739646Y-74894131D01*
X138757306Y-75029186D01*
X138760146Y-75035640D01*
X138760147Y-75035644D01*
X138792021Y-75108083D01*
X138812162Y-75153856D01*
X138855983Y-75205988D01*
X138895265Y-75252720D01*
X138895268Y-75252722D01*
X138899804Y-75258119D01*
X138905675Y-75262027D01*
X138905676Y-75262028D01*
X138920582Y-75271950D01*
X139013187Y-75333593D01*
X139019914Y-75335695D01*
X139019917Y-75335696D01*
X139136463Y-75372107D01*
X139136464Y-75372107D01*
X139143195Y-75374210D01*
X139213288Y-75375495D01*
X139272324Y-75376577D01*
X139272326Y-75376577D01*
X139279377Y-75376706D01*
X139286180Y-75374851D01*
X139286182Y-75374851D01*
X139358410Y-75355159D01*
X139410786Y-75340880D01*
X139526858Y-75269612D01*
X139537261Y-75258119D01*
X139541838Y-75253063D01*
X139594907Y-75222610D01*
X139615235Y-75220500D01*
X140673535Y-75220500D01*
X140728392Y-75237088D01*
X140753187Y-75253593D01*
X140759915Y-75255695D01*
X140759917Y-75255696D01*
X140803007Y-75269158D01*
X140837575Y-75279958D01*
X140878056Y-75304449D01*
X141119091Y-75545484D01*
X141119095Y-75545487D01*
X141141658Y-75568050D01*
X141148595Y-75571584D01*
X141148597Y-75571586D01*
X141163151Y-75579001D01*
X141176390Y-75587113D01*
X141195911Y-75601296D01*
X141203316Y-75603702D01*
X141203320Y-75603704D01*
X141218855Y-75608751D01*
X141233201Y-75614694D01*
X141254696Y-75625646D01*
X141262389Y-75626864D01*
X141262391Y-75626865D01*
X141278519Y-75629419D01*
X141293620Y-75633044D01*
X141316567Y-75640500D01*
X143383433Y-75640500D01*
X143406380Y-75633044D01*
X143421481Y-75629419D01*
X143437609Y-75626865D01*
X143437611Y-75626864D01*
X143445304Y-75625646D01*
X143466797Y-75614695D01*
X143481143Y-75608752D01*
X143496679Y-75603704D01*
X143504090Y-75601296D01*
X143523607Y-75587116D01*
X143536846Y-75579002D01*
X143558342Y-75568050D01*
X143580905Y-75545487D01*
X143580909Y-75545484D01*
X143812455Y-75313938D01*
X143856420Y-75288428D01*
X143913983Y-75272735D01*
X143913985Y-75272734D01*
X143920786Y-75270880D01*
X143926794Y-75267191D01*
X143933269Y-75264389D01*
X143934068Y-75266235D01*
X143984136Y-75254163D01*
X144040686Y-75277523D01*
X144046468Y-75282861D01*
X146093603Y-77329996D01*
X146121380Y-77384513D01*
X146111809Y-77444945D01*
X146093603Y-77470004D01*
X145944516Y-77619091D01*
X145944513Y-77619095D01*
X145921950Y-77641658D01*
X145910998Y-77663154D01*
X145902884Y-77676393D01*
X145888704Y-77695910D01*
X145886296Y-77703321D01*
X145881248Y-77718857D01*
X145875305Y-77733203D01*
X145864354Y-77754696D01*
X145863136Y-77762389D01*
X145863135Y-77762391D01*
X145860581Y-77778519D01*
X145856956Y-77793620D01*
X145849500Y-77816567D01*
X145849500Y-80873433D01*
X145856955Y-80896375D01*
X145860581Y-80911481D01*
X145864354Y-80935304D01*
X145875305Y-80956797D01*
X145881248Y-80971143D01*
X145888704Y-80994090D01*
X145893285Y-81000395D01*
X145902883Y-81013605D01*
X145910998Y-81026846D01*
X145921950Y-81048342D01*
X145944513Y-81070905D01*
X145944516Y-81070909D01*
X146250510Y-81376903D01*
X146275860Y-81420287D01*
X146276391Y-81422189D01*
X146277306Y-81429186D01*
X146280147Y-81435642D01*
X146324137Y-81535617D01*
X146332162Y-81553856D01*
X146347323Y-81571892D01*
X146415265Y-81652720D01*
X146415268Y-81652722D01*
X146419804Y-81658119D01*
X146425675Y-81662027D01*
X146425676Y-81662028D01*
X146439392Y-81671158D01*
X146533187Y-81733593D01*
X146539914Y-81735695D01*
X146539917Y-81735696D01*
X146656463Y-81772107D01*
X146656464Y-81772107D01*
X146663195Y-81774210D01*
X146733288Y-81775495D01*
X146792324Y-81776577D01*
X146792326Y-81776577D01*
X146799377Y-81776706D01*
X146806180Y-81774851D01*
X146806182Y-81774851D01*
X146911646Y-81746098D01*
X146930786Y-81740880D01*
X146972718Y-81715134D01*
X147024519Y-81700500D01*
X149043433Y-81700500D01*
X149066380Y-81693044D01*
X149081481Y-81689419D01*
X149097609Y-81686865D01*
X149097611Y-81686864D01*
X149105304Y-81685646D01*
X149126797Y-81674695D01*
X149141143Y-81668752D01*
X149156679Y-81663704D01*
X149164090Y-81661296D01*
X149183607Y-81647116D01*
X149196846Y-81639002D01*
X149218342Y-81628050D01*
X149240905Y-81605487D01*
X149240909Y-81605484D01*
X150275483Y-80570909D01*
X150298050Y-80548342D01*
X150309004Y-80526844D01*
X150317111Y-80513614D01*
X150331296Y-80494090D01*
X150338751Y-80471144D01*
X150344696Y-80456794D01*
X150346208Y-80453827D01*
X150355646Y-80435304D01*
X150359420Y-80411475D01*
X150363046Y-80396373D01*
X150368092Y-80380843D01*
X150368093Y-80380840D01*
X150370499Y-80373433D01*
X150370499Y-80341525D01*
X150370500Y-80341519D01*
X150370500Y-72286730D01*
X150380406Y-72243564D01*
X150391906Y-72219828D01*
X150434294Y-72175704D01*
X150494521Y-72164922D01*
X150549585Y-72191600D01*
X150578451Y-72245548D01*
X150580000Y-72262994D01*
X150580000Y-87981000D01*
X150561093Y-88039191D01*
X150511593Y-88075155D01*
X150481000Y-88080000D01*
X133309000Y-88080000D01*
X133250809Y-88061093D01*
X133214845Y-88011593D01*
X133210000Y-87981000D01*
X133210000Y-80819428D01*
X133228907Y-80761237D01*
X133278407Y-80725273D01*
X133339593Y-80725273D01*
X133389093Y-80761237D01*
X133406098Y-80800114D01*
X133418518Y-80862555D01*
X133476477Y-81033296D01*
X133477910Y-81036201D01*
X133477910Y-81036202D01*
X133495026Y-81070909D01*
X133556226Y-81195012D01*
X133558029Y-81197710D01*
X133654599Y-81342238D01*
X133654604Y-81342244D01*
X133656401Y-81344934D01*
X133658540Y-81347373D01*
X133658543Y-81347377D01*
X133726968Y-81425401D01*
X133730795Y-81430469D01*
X133731430Y-81431793D01*
X133734987Y-81436024D01*
X133743257Y-81444294D01*
X133747672Y-81449008D01*
X133759984Y-81463047D01*
X133765634Y-81470120D01*
X133769480Y-81475414D01*
X133769484Y-81475418D01*
X133774064Y-81481722D01*
X133780368Y-81486302D01*
X133780369Y-81486303D01*
X133791972Y-81494733D01*
X133803785Y-81504822D01*
X134344357Y-82045394D01*
X134372517Y-82102562D01*
X134377306Y-82139186D01*
X134380146Y-82145640D01*
X134380147Y-82145644D01*
X134428456Y-82255434D01*
X134432162Y-82263856D01*
X134444582Y-82278631D01*
X134515265Y-82362720D01*
X134515268Y-82362722D01*
X134519804Y-82368119D01*
X134525675Y-82372027D01*
X134525676Y-82372028D01*
X134539882Y-82381484D01*
X134633187Y-82443593D01*
X134639914Y-82445695D01*
X134639917Y-82445696D01*
X134756463Y-82482107D01*
X134756464Y-82482107D01*
X134763195Y-82484210D01*
X134833288Y-82485495D01*
X134892324Y-82486577D01*
X134892326Y-82486577D01*
X134899377Y-82486706D01*
X134906180Y-82484851D01*
X134906182Y-82484851D01*
X134999351Y-82459450D01*
X135030786Y-82450880D01*
X135098700Y-82409181D01*
X135158182Y-82394847D01*
X135214730Y-82418212D01*
X135246745Y-82470354D01*
X135249500Y-82493548D01*
X135249500Y-85320500D01*
X135230593Y-85378691D01*
X135181093Y-85414655D01*
X135150500Y-85419500D01*
X134745326Y-85419500D01*
X134672260Y-85434034D01*
X134632952Y-85460298D01*
X134609122Y-85476221D01*
X134589399Y-85489399D01*
X134534034Y-85572260D01*
X134519500Y-85645326D01*
X134519500Y-87394674D01*
X134534034Y-87467740D01*
X134539451Y-87475847D01*
X134575410Y-87529664D01*
X134589399Y-87550601D01*
X134597509Y-87556020D01*
X134630381Y-87577984D01*
X134672260Y-87605966D01*
X134745326Y-87620500D01*
X136494674Y-87620500D01*
X136567740Y-87605966D01*
X136609619Y-87577984D01*
X136642491Y-87556020D01*
X136650601Y-87550601D01*
X136664591Y-87529664D01*
X136700549Y-87475847D01*
X136705966Y-87467740D01*
X136720500Y-87394674D01*
X136720500Y-85645326D01*
X136705966Y-85572260D01*
X136650601Y-85489399D01*
X136630879Y-85476221D01*
X136607048Y-85460298D01*
X136567740Y-85434034D01*
X136494674Y-85419500D01*
X136049500Y-85419500D01*
X135991309Y-85400593D01*
X135955345Y-85351093D01*
X135950500Y-85320500D01*
X135950500Y-84270218D01*
X135969407Y-84212027D01*
X136018907Y-84176063D01*
X136080093Y-84176063D01*
X136104358Y-84187807D01*
X136203187Y-84253593D01*
X136209914Y-84255695D01*
X136209917Y-84255696D01*
X136326463Y-84292107D01*
X136326464Y-84292107D01*
X136333195Y-84294210D01*
X136403288Y-84295495D01*
X136462324Y-84296577D01*
X136462326Y-84296577D01*
X136469377Y-84296706D01*
X136476180Y-84294851D01*
X136476182Y-84294851D01*
X136566534Y-84270218D01*
X136600786Y-84260880D01*
X136716858Y-84189612D01*
X136724537Y-84181129D01*
X136803529Y-84093859D01*
X136803529Y-84093858D01*
X136808261Y-84088631D01*
X136861406Y-83978939D01*
X136864573Y-83972403D01*
X136867649Y-83966054D01*
X136875068Y-83921960D01*
X136903366Y-83867713D01*
X136958147Y-83840460D01*
X137018484Y-83850610D01*
X137042699Y-83868381D01*
X137711415Y-84537097D01*
X137721499Y-84548904D01*
X137733335Y-84565195D01*
X137739642Y-84569777D01*
X137745150Y-84575285D01*
X137744525Y-84575910D01*
X137754410Y-84585546D01*
X137768138Y-84603436D01*
X137781061Y-84625820D01*
X137796011Y-84661913D01*
X137802700Y-84686876D01*
X137805643Y-84709231D01*
X137805465Y-84723039D01*
X137806350Y-84723039D01*
X137806350Y-84730831D01*
X137805131Y-84738527D01*
X137806350Y-84746223D01*
X137808281Y-84758415D01*
X137809500Y-84773902D01*
X137809500Y-85407222D01*
X137790593Y-85465413D01*
X137744765Y-85500103D01*
X137688456Y-85520876D01*
X137688453Y-85520877D01*
X137684193Y-85522449D01*
X137680290Y-85524771D01*
X137680288Y-85524772D01*
X137665510Y-85533564D01*
X137510371Y-85625862D01*
X137506956Y-85628857D01*
X137506953Y-85628859D01*
X137487119Y-85646253D01*
X137358305Y-85759220D01*
X137355497Y-85762782D01*
X137235903Y-85914488D01*
X137233089Y-85918057D01*
X137138914Y-86097053D01*
X137078937Y-86290213D01*
X137055164Y-86491069D01*
X137068392Y-86692894D01*
X137118178Y-86888928D01*
X137202856Y-87072607D01*
X137319588Y-87237780D01*
X137464466Y-87378913D01*
X137632637Y-87491282D01*
X137818470Y-87571122D01*
X138015740Y-87615760D01*
X138217842Y-87623700D01*
X138227651Y-87622278D01*
X138413519Y-87595329D01*
X138413522Y-87595328D01*
X138418007Y-87594678D01*
X138547853Y-87550601D01*
X138605234Y-87531123D01*
X138605237Y-87531121D01*
X138609531Y-87529664D01*
X138786001Y-87430837D01*
X138941505Y-87301505D01*
X139070837Y-87146001D01*
X139169664Y-86969531D01*
X139234678Y-86778007D01*
X139263700Y-86577842D01*
X139265215Y-86520000D01*
X139246708Y-86318591D01*
X139191807Y-86123926D01*
X139180694Y-86101390D01*
X139104359Y-85946599D01*
X139102351Y-85942527D01*
X138981335Y-85780467D01*
X138832812Y-85643174D01*
X138810125Y-85628859D01*
X138665594Y-85537667D01*
X138661757Y-85535246D01*
X138572815Y-85499762D01*
X138525773Y-85460638D01*
X138510500Y-85407810D01*
X138510500Y-84773904D01*
X138511719Y-84758415D01*
X138514278Y-84742260D01*
X138542057Y-84687744D01*
X138596574Y-84659968D01*
X138657006Y-84669540D01*
X138682063Y-84687745D01*
X139772282Y-85777964D01*
X139800059Y-85832481D01*
X139790488Y-85892913D01*
X139780027Y-85909255D01*
X139775902Y-85914488D01*
X139775899Y-85914492D01*
X139773089Y-85918057D01*
X139678914Y-86097053D01*
X139618937Y-86290213D01*
X139595164Y-86491069D01*
X139608392Y-86692894D01*
X139658178Y-86888928D01*
X139742856Y-87072607D01*
X139859588Y-87237780D01*
X140004466Y-87378913D01*
X140172637Y-87491282D01*
X140358470Y-87571122D01*
X140555740Y-87615760D01*
X140757842Y-87623700D01*
X140767651Y-87622278D01*
X140953519Y-87595329D01*
X140953522Y-87595328D01*
X140958007Y-87594678D01*
X141087853Y-87550601D01*
X141145234Y-87531123D01*
X141145237Y-87531121D01*
X141149531Y-87529664D01*
X141326001Y-87430837D01*
X141481505Y-87301505D01*
X141610837Y-87146001D01*
X141709664Y-86969531D01*
X141774678Y-86778007D01*
X141803700Y-86577842D01*
X141805215Y-86520000D01*
X141786708Y-86318591D01*
X141731807Y-86123926D01*
X141720694Y-86101390D01*
X141644359Y-85946599D01*
X141642351Y-85942527D01*
X141521335Y-85780467D01*
X141372812Y-85643174D01*
X141350125Y-85628859D01*
X141205594Y-85537667D01*
X141201757Y-85535246D01*
X141013898Y-85460298D01*
X140815526Y-85420839D01*
X140715930Y-85419535D01*
X140617826Y-85418251D01*
X140617821Y-85418251D01*
X140613286Y-85418192D01*
X140608811Y-85418961D01*
X140608810Y-85418961D01*
X140597881Y-85420839D01*
X140485102Y-85440218D01*
X140424550Y-85431438D01*
X140398333Y-85412652D01*
X138430234Y-83444552D01*
X138402457Y-83390035D01*
X138412028Y-83329603D01*
X138455293Y-83286338D01*
X138474198Y-83279034D01*
X138522189Y-83265950D01*
X138540786Y-83260880D01*
X138656858Y-83189612D01*
X138683146Y-83160570D01*
X138743529Y-83093859D01*
X138743529Y-83093858D01*
X138748261Y-83088631D01*
X138807649Y-82966054D01*
X138809173Y-82956999D01*
X138829612Y-82835512D01*
X138829612Y-82835510D01*
X138830247Y-82831737D01*
X138831031Y-82831869D01*
X138853673Y-82778837D01*
X138906184Y-82747434D01*
X138967126Y-82752894D01*
X138998257Y-82773939D01*
X142202672Y-85978354D01*
X142230449Y-86032871D01*
X142221310Y-86088243D01*
X142222764Y-86088845D01*
X142221029Y-86093033D01*
X142218914Y-86097053D01*
X142217568Y-86101387D01*
X142217567Y-86101390D01*
X142210570Y-86123926D01*
X142158937Y-86290213D01*
X142135164Y-86491069D01*
X142148392Y-86692894D01*
X142198178Y-86888928D01*
X142282856Y-87072607D01*
X142399588Y-87237780D01*
X142544466Y-87378913D01*
X142712637Y-87491282D01*
X142898470Y-87571122D01*
X143095740Y-87615760D01*
X143297842Y-87623700D01*
X143307651Y-87622278D01*
X143493519Y-87595329D01*
X143493522Y-87595328D01*
X143498007Y-87594678D01*
X143627853Y-87550601D01*
X143685234Y-87531123D01*
X143685237Y-87531121D01*
X143689531Y-87529664D01*
X143866001Y-87430837D01*
X144021505Y-87301505D01*
X144150837Y-87146001D01*
X144249664Y-86969531D01*
X144314678Y-86778007D01*
X144343700Y-86577842D01*
X144345215Y-86520000D01*
X144326708Y-86318591D01*
X144271807Y-86123926D01*
X144260694Y-86101390D01*
X144184359Y-85946599D01*
X144182351Y-85942527D01*
X144061335Y-85780467D01*
X143912812Y-85643174D01*
X143890125Y-85628859D01*
X143745594Y-85537667D01*
X143741757Y-85535246D01*
X143553898Y-85460298D01*
X143355526Y-85420839D01*
X143255930Y-85419535D01*
X143157826Y-85418251D01*
X143157821Y-85418251D01*
X143153286Y-85418192D01*
X143148813Y-85418961D01*
X143148808Y-85418961D01*
X143072159Y-85432132D01*
X142953949Y-85452444D01*
X142949692Y-85454014D01*
X142949690Y-85454015D01*
X142804611Y-85507537D01*
X142743473Y-85509939D01*
X142700342Y-85484660D01*
X137618085Y-80402403D01*
X137608001Y-80390596D01*
X137596165Y-80374305D01*
X137589858Y-80369723D01*
X137584350Y-80364215D01*
X137584975Y-80363590D01*
X137575090Y-80353954D01*
X137561362Y-80336064D01*
X137548439Y-80313680D01*
X137533489Y-80277587D01*
X137526800Y-80252624D01*
X137523857Y-80230269D01*
X137524035Y-80216461D01*
X137523150Y-80216461D01*
X137523150Y-80208669D01*
X137524369Y-80200973D01*
X137521219Y-80181085D01*
X137520000Y-80165598D01*
X137520000Y-78829548D01*
X137538907Y-78771357D01*
X137545602Y-78763112D01*
X137550866Y-78757297D01*
X137567761Y-78738631D01*
X137627149Y-78616054D01*
X137633602Y-78577703D01*
X137649113Y-78485506D01*
X137649113Y-78485505D01*
X137649747Y-78481737D01*
X137649890Y-78470000D01*
X137630581Y-78335171D01*
X137574206Y-78211180D01*
X137548799Y-78181694D01*
X137525138Y-78125268D01*
X137539733Y-78069344D01*
X137538261Y-78068631D01*
X137594573Y-77952403D01*
X137597649Y-77946054D01*
X137600152Y-77931181D01*
X137619613Y-77815506D01*
X137619613Y-77815505D01*
X137620247Y-77811737D01*
X137620390Y-77800000D01*
X137601081Y-77665171D01*
X137544706Y-77541180D01*
X137540104Y-77535839D01*
X137540100Y-77535833D01*
X137530237Y-77524387D01*
X137506576Y-77467962D01*
X137523162Y-77404404D01*
X137523531Y-77403856D01*
X137528261Y-77398631D01*
X137587649Y-77276054D01*
X137610247Y-77141737D01*
X137610390Y-77130000D01*
X137591081Y-76995171D01*
X137563058Y-76933537D01*
X137537625Y-76877599D01*
X137537623Y-76877596D01*
X137534706Y-76871180D01*
X137530103Y-76865838D01*
X137526302Y-76859895D01*
X137528671Y-76858380D01*
X137509751Y-76813236D01*
X137525947Y-76751188D01*
X137528261Y-76748631D01*
X137587649Y-76626054D01*
X137610247Y-76491737D01*
X137610390Y-76480000D01*
X137609846Y-76476200D01*
X137609690Y-76475107D01*
X137609752Y-76474750D01*
X137609599Y-76472402D01*
X137610166Y-76472365D01*
X137620162Y-76414825D01*
X137664067Y-76372210D01*
X137724636Y-76363542D01*
X137778732Y-76392130D01*
X137790006Y-76406080D01*
X137875001Y-76533284D01*
X137881471Y-76544488D01*
X137962490Y-76708780D01*
X137967442Y-76720734D01*
X138020691Y-76877599D01*
X138026320Y-76894182D01*
X138029671Y-76906686D01*
X138050382Y-77010804D01*
X138065407Y-77086341D01*
X138067096Y-77099173D01*
X138069636Y-77137917D01*
X138076987Y-77250081D01*
X138076020Y-77271787D01*
X138074391Y-77282250D01*
X138075306Y-77289247D01*
X138075306Y-77289248D01*
X138078664Y-77314927D01*
X138079500Y-77327763D01*
X138079500Y-78514924D01*
X138078321Y-78530154D01*
X138074391Y-78555396D01*
X138075306Y-78562392D01*
X138075358Y-78562788D01*
X138076037Y-78570071D01*
X138078976Y-78622403D01*
X138091307Y-78841981D01*
X138091774Y-78844727D01*
X138091774Y-78844731D01*
X138109605Y-78949672D01*
X138138352Y-79118864D01*
X138142499Y-79133258D01*
X138195354Y-79316721D01*
X138216101Y-79388737D01*
X138252352Y-79476255D01*
X138315344Y-79628330D01*
X138323578Y-79648209D01*
X138324925Y-79650646D01*
X138458083Y-79891580D01*
X138458089Y-79891589D01*
X138459430Y-79894016D01*
X138621950Y-80123066D01*
X138749279Y-80265547D01*
X138786779Y-80307509D01*
X138793605Y-80316054D01*
X138799612Y-80324491D01*
X138808241Y-80333334D01*
X138811293Y-80335621D01*
X138811304Y-80335631D01*
X138831649Y-80350878D01*
X138842281Y-80360095D01*
X141254729Y-82772543D01*
X141265373Y-82785128D01*
X141278039Y-82802918D01*
X141286668Y-82811761D01*
X141289831Y-82814131D01*
X141294465Y-82817604D01*
X141301052Y-82822998D01*
X141496935Y-82998051D01*
X141499203Y-82999660D01*
X141723721Y-83158964D01*
X141723726Y-83158967D01*
X141725985Y-83160570D01*
X141971792Y-83296423D01*
X141974355Y-83297485D01*
X141974362Y-83297488D01*
X142105257Y-83351706D01*
X142231263Y-83403899D01*
X142233932Y-83404668D01*
X142233935Y-83404669D01*
X142397682Y-83451844D01*
X142501137Y-83481649D01*
X142503877Y-83482115D01*
X142503879Y-83482115D01*
X142775269Y-83528226D01*
X142775273Y-83528226D01*
X142778019Y-83528693D01*
X142963856Y-83539129D01*
X143024993Y-83542563D01*
X143035854Y-83543777D01*
X143046073Y-83545496D01*
X143049891Y-83545543D01*
X143049895Y-83545543D01*
X143052469Y-83545574D01*
X143058427Y-83545647D01*
X143087385Y-83541500D01*
X143101419Y-83540500D01*
X143520412Y-83540500D01*
X143578603Y-83559407D01*
X143614567Y-83608907D01*
X143614567Y-83670093D01*
X143578603Y-83719593D01*
X143547617Y-83734689D01*
X143530622Y-83739546D01*
X143530620Y-83739547D01*
X143523842Y-83741484D01*
X143408650Y-83814165D01*
X143318487Y-83916255D01*
X143260601Y-84039548D01*
X143239646Y-84174131D01*
X143240561Y-84181129D01*
X143255657Y-84296577D01*
X143257306Y-84309186D01*
X143260146Y-84315640D01*
X143260147Y-84315644D01*
X143309321Y-84427400D01*
X143312162Y-84433856D01*
X143352192Y-84481478D01*
X143395265Y-84532720D01*
X143395268Y-84532722D01*
X143399804Y-84538119D01*
X143405675Y-84542027D01*
X143405676Y-84542028D01*
X143422616Y-84553304D01*
X143513187Y-84613593D01*
X143519914Y-84615695D01*
X143519917Y-84615696D01*
X143636463Y-84652107D01*
X143636464Y-84652107D01*
X143643195Y-84654210D01*
X143713288Y-84655495D01*
X143772324Y-84656577D01*
X143772326Y-84656577D01*
X143779377Y-84656706D01*
X143786180Y-84654851D01*
X143786182Y-84654851D01*
X143892666Y-84625820D01*
X143910786Y-84620880D01*
X144026858Y-84549612D01*
X144118261Y-84448631D01*
X144177649Y-84326054D01*
X144179401Y-84315644D01*
X144199613Y-84195506D01*
X144199613Y-84195505D01*
X144200247Y-84191737D01*
X144200390Y-84180000D01*
X144199550Y-84174131D01*
X144182081Y-84052155D01*
X144181081Y-84045171D01*
X144124706Y-83921180D01*
X144035796Y-83817996D01*
X143921501Y-83743913D01*
X143889521Y-83734349D01*
X143839188Y-83699562D01*
X143818914Y-83641833D01*
X143836446Y-83583212D01*
X143885084Y-83546092D01*
X143917887Y-83540500D01*
X143964924Y-83540500D01*
X143980154Y-83541679D01*
X143987804Y-83542870D01*
X144005396Y-83545609D01*
X144012393Y-83544694D01*
X144012397Y-83544694D01*
X144023860Y-83543195D01*
X144043169Y-83542571D01*
X144090104Y-83545647D01*
X144200825Y-83552904D01*
X144213652Y-83554592D01*
X144393314Y-83590329D01*
X144405814Y-83593679D01*
X144579265Y-83652558D01*
X144591228Y-83657514D01*
X144657666Y-83690277D01*
X144755507Y-83738527D01*
X144766712Y-83744996D01*
X144919025Y-83846768D01*
X144929278Y-83854636D01*
X145042993Y-83954361D01*
X145057652Y-83970387D01*
X145063900Y-83978939D01*
X145090024Y-83999021D01*
X145099692Y-84007506D01*
X147230658Y-86138472D01*
X147258435Y-86192989D01*
X147255201Y-86237833D01*
X147238937Y-86290213D01*
X147215164Y-86491069D01*
X147228392Y-86692894D01*
X147278178Y-86888928D01*
X147362856Y-87072607D01*
X147479588Y-87237780D01*
X147624466Y-87378913D01*
X147792637Y-87491282D01*
X147978470Y-87571122D01*
X148175740Y-87615760D01*
X148377842Y-87623700D01*
X148387651Y-87622278D01*
X148573519Y-87595329D01*
X148573522Y-87595328D01*
X148578007Y-87594678D01*
X148707853Y-87550601D01*
X148765234Y-87531123D01*
X148765237Y-87531121D01*
X148769531Y-87529664D01*
X148946001Y-87430837D01*
X149101505Y-87301505D01*
X149230837Y-87146001D01*
X149329664Y-86969531D01*
X149394678Y-86778007D01*
X149423700Y-86577842D01*
X149425215Y-86520000D01*
X149406708Y-86318591D01*
X149351807Y-86123926D01*
X149340694Y-86101390D01*
X149264359Y-85946599D01*
X149262351Y-85942527D01*
X149141335Y-85780467D01*
X148992812Y-85643174D01*
X148970125Y-85628859D01*
X148825594Y-85537667D01*
X148821757Y-85535246D01*
X148633898Y-85460298D01*
X148435526Y-85420839D01*
X148335930Y-85419535D01*
X148237826Y-85418251D01*
X148237821Y-85418251D01*
X148233286Y-85418192D01*
X148228813Y-85418961D01*
X148228808Y-85418961D01*
X148141090Y-85434034D01*
X148033949Y-85452444D01*
X148030973Y-85453542D01*
X147970272Y-85450357D01*
X147935753Y-85427939D01*
X145815272Y-83307458D01*
X145804628Y-83294873D01*
X145794177Y-83280194D01*
X145791962Y-83277083D01*
X145783334Y-83268241D01*
X145775539Y-83262399D01*
X145768948Y-83257001D01*
X145575131Y-83083795D01*
X145575127Y-83083792D01*
X145573066Y-83081950D01*
X145570811Y-83080350D01*
X145570806Y-83080346D01*
X145396964Y-82956999D01*
X145344016Y-82919430D01*
X145341589Y-82918089D01*
X145341580Y-82918083D01*
X145127573Y-82799807D01*
X145098209Y-82783578D01*
X145095646Y-82782516D01*
X145095639Y-82782513D01*
X144968473Y-82729840D01*
X144838737Y-82676101D01*
X144836068Y-82675332D01*
X144836065Y-82675331D01*
X144571533Y-82599121D01*
X144571534Y-82599121D01*
X144568864Y-82598352D01*
X144566124Y-82597886D01*
X144566122Y-82597886D01*
X144294731Y-82551774D01*
X144294727Y-82551774D01*
X144291981Y-82551307D01*
X144106144Y-82540871D01*
X144045007Y-82537437D01*
X144034146Y-82536223D01*
X144023927Y-82534504D01*
X144020109Y-82534457D01*
X144020105Y-82534457D01*
X144017531Y-82534426D01*
X144011573Y-82534353D01*
X143985660Y-82538064D01*
X143982616Y-82538500D01*
X143968581Y-82539500D01*
X143105076Y-82539500D01*
X143089846Y-82538321D01*
X143071579Y-82535477D01*
X143064604Y-82534391D01*
X143057607Y-82535306D01*
X143057603Y-82535306D01*
X143046140Y-82536805D01*
X143026831Y-82537429D01*
X142971338Y-82533792D01*
X142869175Y-82527096D01*
X142856348Y-82525408D01*
X142676686Y-82489671D01*
X142664186Y-82486321D01*
X142490734Y-82427442D01*
X142478780Y-82422490D01*
X142314488Y-82341471D01*
X142303289Y-82335005D01*
X142150978Y-82233234D01*
X142140721Y-82225364D01*
X142027008Y-82125640D01*
X142012349Y-82109614D01*
X142010262Y-82106757D01*
X142010261Y-82106756D01*
X142006101Y-82101062D01*
X141979968Y-82080974D01*
X141970310Y-82072496D01*
X139552680Y-79654866D01*
X139542744Y-79643263D01*
X139527674Y-79622635D01*
X139512912Y-79611288D01*
X139498821Y-79598078D01*
X139394642Y-79479286D01*
X139386768Y-79469025D01*
X139284996Y-79316712D01*
X139278527Y-79305507D01*
X139197514Y-79141229D01*
X139192558Y-79129265D01*
X139133680Y-78955818D01*
X139130328Y-78943309D01*
X139094592Y-78763652D01*
X139092903Y-78750820D01*
X139092105Y-78738631D01*
X139083238Y-78603353D01*
X139084399Y-78580451D01*
X139084861Y-78577703D01*
X139084861Y-78577699D01*
X139085496Y-78573927D01*
X139085647Y-78561573D01*
X139081500Y-78532615D01*
X139080500Y-78518581D01*
X139080500Y-77338746D01*
X139081872Y-77322321D01*
X139084862Y-77304551D01*
X139084862Y-77304547D01*
X139085496Y-77300781D01*
X139085647Y-77288427D01*
X139084266Y-77278783D01*
X139083421Y-77270296D01*
X139082899Y-77260987D01*
X139068693Y-77008019D01*
X139064751Y-76984814D01*
X139022115Y-76733879D01*
X139022115Y-76733877D01*
X139021649Y-76731137D01*
X138953764Y-76495506D01*
X138944669Y-76463935D01*
X138944668Y-76463932D01*
X138943899Y-76461263D01*
X138893478Y-76339536D01*
X138837488Y-76204362D01*
X138837485Y-76204355D01*
X138836423Y-76201792D01*
X138700570Y-75955985D01*
X138674772Y-75919625D01*
X138586947Y-75795848D01*
X138538051Y-75726935D01*
X138373220Y-75542489D01*
X138366396Y-75533947D01*
X138360389Y-75525510D01*
X138351761Y-75516668D01*
X138348701Y-75514375D01*
X138348698Y-75514372D01*
X138333016Y-75502619D01*
X138311740Y-75480816D01*
X138304182Y-75470200D01*
X138304177Y-75470194D01*
X138301962Y-75467083D01*
X138293334Y-75458241D01*
X138285539Y-75452399D01*
X138278948Y-75447001D01*
X138085131Y-75273795D01*
X138085127Y-75273792D01*
X138083066Y-75271950D01*
X138080811Y-75270350D01*
X138080806Y-75270346D01*
X137954930Y-75181033D01*
X137854016Y-75109430D01*
X137851589Y-75108089D01*
X137851580Y-75108083D01*
X137610646Y-74974925D01*
X137608209Y-74973578D01*
X137605646Y-74972516D01*
X137605639Y-74972513D01*
X137416407Y-74894131D01*
X137348737Y-74866101D01*
X137346068Y-74865332D01*
X137346065Y-74865331D01*
X137081533Y-74789121D01*
X137081534Y-74789121D01*
X137078864Y-74788352D01*
X137076124Y-74787886D01*
X137076122Y-74787886D01*
X136804731Y-74741774D01*
X136804727Y-74741774D01*
X136801981Y-74741307D01*
X136600643Y-74730000D01*
X136555007Y-74727437D01*
X136544146Y-74726223D01*
X136533927Y-74724504D01*
X136530109Y-74724457D01*
X136530105Y-74724457D01*
X136527531Y-74724426D01*
X136521573Y-74724353D01*
X136492616Y-74728500D01*
X136478581Y-74729500D01*
X134944060Y-74729500D01*
X134940570Y-74730000D01*
X134940567Y-74730000D01*
X134885959Y-74737821D01*
X134838082Y-74744677D01*
X134831659Y-74747598D01*
X134831657Y-74747598D01*
X134815475Y-74754955D01*
X134754677Y-74761828D01*
X134701450Y-74731652D01*
X134676127Y-74675953D01*
X134675500Y-74664833D01*
X134675500Y-73841559D01*
X134676719Y-73826072D01*
X134678962Y-73811910D01*
X134680181Y-73804214D01*
X134678962Y-73796517D01*
X134678962Y-73788728D01*
X134678993Y-73788728D01*
X134678540Y-73773349D01*
X134686341Y-73694131D01*
X139089646Y-73694131D01*
X139107306Y-73829186D01*
X139110146Y-73835640D01*
X139110147Y-73835644D01*
X139146275Y-73917751D01*
X139162162Y-73953856D01*
X139190860Y-73987996D01*
X139245265Y-74052720D01*
X139245268Y-74052722D01*
X139249804Y-74058119D01*
X139255675Y-74062027D01*
X139255676Y-74062028D01*
X139272616Y-74073304D01*
X139363187Y-74133593D01*
X139369914Y-74135695D01*
X139369917Y-74135696D01*
X139486463Y-74172107D01*
X139486464Y-74172107D01*
X139493195Y-74174210D01*
X139563288Y-74175495D01*
X139622324Y-74176577D01*
X139622326Y-74176577D01*
X139629377Y-74176706D01*
X139636180Y-74174851D01*
X139636182Y-74174851D01*
X139708410Y-74155159D01*
X139760786Y-74140880D01*
X139876858Y-74069612D01*
X139890645Y-74054381D01*
X139963529Y-73973859D01*
X139963529Y-73973858D01*
X139968261Y-73968631D01*
X140027649Y-73846054D01*
X140029332Y-73836054D01*
X140049613Y-73715506D01*
X140049613Y-73715505D01*
X140050247Y-73711737D01*
X140050390Y-73700000D01*
X140049550Y-73694131D01*
X140048118Y-73684131D01*
X143899646Y-73684131D01*
X143917306Y-73819186D01*
X143920146Y-73825640D01*
X143920147Y-73825644D01*
X143969321Y-73937400D01*
X143972162Y-73943856D01*
X144010488Y-73989450D01*
X144055265Y-74042720D01*
X144055268Y-74042722D01*
X144059804Y-74048119D01*
X144065675Y-74052027D01*
X144065676Y-74052028D01*
X144080699Y-74062028D01*
X144173187Y-74123593D01*
X144179914Y-74125695D01*
X144179917Y-74125696D01*
X144296463Y-74162107D01*
X144296464Y-74162107D01*
X144303195Y-74164210D01*
X144373288Y-74165495D01*
X144432324Y-74166577D01*
X144432326Y-74166577D01*
X144439377Y-74166706D01*
X144446180Y-74164851D01*
X144446182Y-74164851D01*
X144553121Y-74135696D01*
X144570786Y-74130880D01*
X144686858Y-74059612D01*
X144769210Y-73968631D01*
X144773529Y-73963859D01*
X144773529Y-73963858D01*
X144778261Y-73958631D01*
X144837649Y-73836054D01*
X144839329Y-73826072D01*
X144859613Y-73705506D01*
X144859613Y-73705505D01*
X144860247Y-73701737D01*
X144860390Y-73690000D01*
X144859550Y-73684131D01*
X144842081Y-73562155D01*
X144841081Y-73555171D01*
X144784706Y-73431180D01*
X144695796Y-73327996D01*
X144581501Y-73253913D01*
X144451006Y-73214887D01*
X144370455Y-73214395D01*
X144321855Y-73214098D01*
X144321854Y-73214098D01*
X144314804Y-73214055D01*
X144308027Y-73215992D01*
X144308026Y-73215992D01*
X144190622Y-73249546D01*
X144190620Y-73249547D01*
X144183842Y-73251484D01*
X144068650Y-73324165D01*
X143978487Y-73426255D01*
X143920601Y-73549548D01*
X143899646Y-73684131D01*
X140048118Y-73684131D01*
X140032081Y-73572155D01*
X140031081Y-73565171D01*
X139974706Y-73441180D01*
X139885796Y-73337996D01*
X139771501Y-73263913D01*
X139641006Y-73224887D01*
X139560455Y-73224395D01*
X139511855Y-73224098D01*
X139511854Y-73224098D01*
X139504804Y-73224055D01*
X139498027Y-73225992D01*
X139498026Y-73225992D01*
X139380622Y-73259546D01*
X139380620Y-73259547D01*
X139373842Y-73261484D01*
X139258650Y-73334165D01*
X139168487Y-73436255D01*
X139110601Y-73559548D01*
X139089646Y-73694131D01*
X134686341Y-73694131D01*
X134686543Y-73692083D01*
X134690328Y-73673054D01*
X134720207Y-73574557D01*
X134727634Y-73556628D01*
X134776150Y-73465861D01*
X134786932Y-73449724D01*
X134838736Y-73386601D01*
X134849932Y-73376046D01*
X134849910Y-73376024D01*
X134855419Y-73370515D01*
X134861722Y-73365936D01*
X134866300Y-73359635D01*
X134866303Y-73359632D01*
X134874735Y-73348026D01*
X134884818Y-73336219D01*
X135083585Y-73137452D01*
X135138099Y-73109677D01*
X135198531Y-73119248D01*
X135244202Y-73167586D01*
X135270305Y-73226909D01*
X135282162Y-73253856D01*
X135325983Y-73305987D01*
X135365265Y-73352720D01*
X135365268Y-73352722D01*
X135369804Y-73358119D01*
X135375675Y-73362027D01*
X135375676Y-73362028D01*
X135407252Y-73383047D01*
X135483187Y-73433593D01*
X135489914Y-73435695D01*
X135489917Y-73435696D01*
X135606463Y-73472107D01*
X135606464Y-73472107D01*
X135613195Y-73474210D01*
X135683288Y-73475495D01*
X135742324Y-73476577D01*
X135742326Y-73476577D01*
X135749377Y-73476706D01*
X135756180Y-73474851D01*
X135756182Y-73474851D01*
X135856130Y-73447602D01*
X135880786Y-73440880D01*
X135996858Y-73369612D01*
X136005892Y-73359632D01*
X136083529Y-73273859D01*
X136083529Y-73273858D01*
X136088261Y-73268631D01*
X136147649Y-73146054D01*
X136153770Y-73109677D01*
X136169613Y-73015506D01*
X136169613Y-73015505D01*
X136170247Y-73011737D01*
X136170390Y-73000000D01*
X136151081Y-72865171D01*
X136094706Y-72741180D01*
X136005796Y-72637996D01*
X135891501Y-72563913D01*
X135761006Y-72524887D01*
X135730228Y-72524699D01*
X135672154Y-72505437D01*
X135636493Y-72455718D01*
X135637087Y-72393878D01*
X135647899Y-72362028D01*
X135671482Y-72292555D01*
X135691563Y-72191600D01*
X135706027Y-72118883D01*
X135706027Y-72118881D01*
X135706658Y-72115710D01*
X135706870Y-72112481D01*
X135713659Y-72008914D01*
X135714538Y-72002620D01*
X135715023Y-72001238D01*
X135715500Y-71995731D01*
X135715500Y-71984055D01*
X135715712Y-71977579D01*
X135716933Y-71958952D01*
X135717939Y-71949944D01*
X135718963Y-71943479D01*
X135718963Y-71943477D01*
X135720181Y-71935786D01*
X135716719Y-71913927D01*
X135715500Y-71898441D01*
X135715500Y-71650001D01*
X138499534Y-71650001D01*
X138519313Y-71800237D01*
X138521797Y-71806234D01*
X138574819Y-71934241D01*
X138574821Y-71934245D01*
X138577302Y-71940234D01*
X138581248Y-71945376D01*
X138581250Y-71945380D01*
X138623162Y-72000000D01*
X138669549Y-72060452D01*
X138674698Y-72064403D01*
X138784621Y-72148751D01*
X138784625Y-72148753D01*
X138789767Y-72152699D01*
X138795756Y-72155180D01*
X138795760Y-72155182D01*
X138923767Y-72208204D01*
X138929764Y-72210688D01*
X139042280Y-72225501D01*
X139117720Y-72225501D01*
X139230236Y-72210688D01*
X139236233Y-72208204D01*
X139364240Y-72155182D01*
X139364244Y-72155180D01*
X139370233Y-72152699D01*
X139375375Y-72148753D01*
X139375379Y-72148751D01*
X139485302Y-72064403D01*
X139490451Y-72060452D01*
X139536838Y-72000000D01*
X139578750Y-71945380D01*
X139578752Y-71945376D01*
X139582698Y-71940234D01*
X139585179Y-71934245D01*
X139585181Y-71934241D01*
X139638203Y-71806234D01*
X139640687Y-71800237D01*
X139660466Y-71650001D01*
X144279534Y-71650001D01*
X144299313Y-71800237D01*
X144301797Y-71806234D01*
X144354819Y-71934241D01*
X144354821Y-71934245D01*
X144357302Y-71940234D01*
X144361248Y-71945376D01*
X144361250Y-71945380D01*
X144403162Y-72000000D01*
X144449549Y-72060452D01*
X144454698Y-72064403D01*
X144564621Y-72148751D01*
X144564625Y-72148753D01*
X144569767Y-72152699D01*
X144575756Y-72155180D01*
X144575760Y-72155182D01*
X144703767Y-72208204D01*
X144709764Y-72210688D01*
X144822280Y-72225501D01*
X144897720Y-72225501D01*
X145010236Y-72210688D01*
X145016233Y-72208204D01*
X145144240Y-72155182D01*
X145144244Y-72155180D01*
X145150233Y-72152699D01*
X145155375Y-72148753D01*
X145155379Y-72148751D01*
X145265302Y-72064403D01*
X145270451Y-72060452D01*
X145316838Y-72000000D01*
X145358750Y-71945380D01*
X145358752Y-71945376D01*
X145362698Y-71940234D01*
X145365179Y-71934245D01*
X145365181Y-71934241D01*
X145418203Y-71806234D01*
X145420687Y-71800237D01*
X145440466Y-71650001D01*
X145420687Y-71499765D01*
X145395754Y-71439572D01*
X145365181Y-71365761D01*
X145365179Y-71365757D01*
X145362698Y-71359768D01*
X145358752Y-71354626D01*
X145358750Y-71354622D01*
X145274402Y-71244699D01*
X145270451Y-71239550D01*
X145265302Y-71235599D01*
X145155379Y-71151251D01*
X145155375Y-71151249D01*
X145150233Y-71147303D01*
X145144244Y-71144822D01*
X145144240Y-71144820D01*
X145016233Y-71091798D01*
X145010236Y-71089314D01*
X144897720Y-71074501D01*
X144822280Y-71074501D01*
X144709764Y-71089314D01*
X144703767Y-71091798D01*
X144575760Y-71144820D01*
X144575756Y-71144822D01*
X144569767Y-71147303D01*
X144564625Y-71151249D01*
X144564621Y-71151251D01*
X144454698Y-71235599D01*
X144449549Y-71239550D01*
X144445598Y-71244699D01*
X144361250Y-71354622D01*
X144361248Y-71354626D01*
X144357302Y-71359768D01*
X144354821Y-71365757D01*
X144354819Y-71365761D01*
X144324246Y-71439572D01*
X144299313Y-71499765D01*
X144279534Y-71650001D01*
X139660466Y-71650001D01*
X139640687Y-71499765D01*
X139615754Y-71439572D01*
X139585181Y-71365761D01*
X139585179Y-71365757D01*
X139582698Y-71359768D01*
X139578752Y-71354626D01*
X139578750Y-71354622D01*
X139494402Y-71244699D01*
X139490451Y-71239550D01*
X139485302Y-71235599D01*
X139375379Y-71151251D01*
X139375375Y-71151249D01*
X139370233Y-71147303D01*
X139364244Y-71144822D01*
X139364240Y-71144820D01*
X139236233Y-71091798D01*
X139230236Y-71089314D01*
X139117720Y-71074501D01*
X139042280Y-71074501D01*
X138929764Y-71089314D01*
X138923767Y-71091798D01*
X138795760Y-71144820D01*
X138795756Y-71144822D01*
X138789767Y-71147303D01*
X138784625Y-71151249D01*
X138784621Y-71151251D01*
X138674698Y-71235599D01*
X138669549Y-71239550D01*
X138665598Y-71244699D01*
X138581250Y-71354622D01*
X138581248Y-71354626D01*
X138577302Y-71359768D01*
X138574821Y-71365757D01*
X138574819Y-71365761D01*
X138544246Y-71439572D01*
X138519313Y-71499765D01*
X138499534Y-71650001D01*
X135715500Y-71650001D01*
X135715500Y-70901559D01*
X135716719Y-70886072D01*
X135718962Y-70871909D01*
X135720181Y-70864214D01*
X135717939Y-70850056D01*
X135716933Y-70841047D01*
X135706870Y-70687519D01*
X135706869Y-70687514D01*
X135706658Y-70684290D01*
X135671482Y-70507445D01*
X135613523Y-70336704D01*
X135600741Y-70310785D01*
X135535208Y-70177895D01*
X135535205Y-70177890D01*
X135533774Y-70174988D01*
X135438555Y-70032483D01*
X135435401Y-70027762D01*
X135435396Y-70027756D01*
X135433599Y-70025066D01*
X135426522Y-70016996D01*
X135363032Y-69944599D01*
X135359205Y-69939531D01*
X135358570Y-69938207D01*
X135355013Y-69933976D01*
X135346743Y-69925706D01*
X135342328Y-69920992D01*
X135330016Y-69906953D01*
X135324366Y-69899880D01*
X135320520Y-69894586D01*
X135320516Y-69894582D01*
X135315936Y-69888278D01*
X135298028Y-69875267D01*
X135286215Y-69865178D01*
X134559815Y-69138778D01*
X134549727Y-69126965D01*
X134541301Y-69115368D01*
X134536721Y-69109064D01*
X134530418Y-69104484D01*
X134524909Y-69098975D01*
X134524931Y-69098953D01*
X134513741Y-69088403D01*
X134461933Y-69025276D01*
X134451150Y-69009138D01*
X134402635Y-68918372D01*
X134395208Y-68900443D01*
X134379142Y-68847481D01*
X134365329Y-68801946D01*
X134361544Y-68782915D01*
X134353541Y-68701651D01*
X134353993Y-68686276D01*
X134353962Y-68686276D01*
X134353962Y-68678482D01*
X134355181Y-68670787D01*
X134351719Y-68648927D01*
X134350500Y-68633442D01*
X134350500Y-68207095D01*
X134369407Y-68148904D01*
X134418907Y-68112940D01*
X134479022Y-68112599D01*
X134541463Y-68132107D01*
X134541464Y-68132107D01*
X134548195Y-68134210D01*
X134618288Y-68135495D01*
X134677324Y-68136577D01*
X134677326Y-68136577D01*
X134684377Y-68136706D01*
X134691180Y-68134851D01*
X134691182Y-68134851D01*
X134798121Y-68105696D01*
X134815786Y-68100880D01*
X134887824Y-68056649D01*
X134898821Y-68049897D01*
X134958304Y-68035561D01*
X135005479Y-68051851D01*
X135068187Y-68093593D01*
X135074914Y-68095695D01*
X135074917Y-68095696D01*
X135191463Y-68132107D01*
X135191464Y-68132107D01*
X135198195Y-68134210D01*
X135268288Y-68135495D01*
X135327324Y-68136577D01*
X135327326Y-68136577D01*
X135334377Y-68136706D01*
X135341180Y-68134851D01*
X135341182Y-68134851D01*
X135448121Y-68105696D01*
X135465786Y-68100880D01*
X135541006Y-68054695D01*
X135600489Y-68040359D01*
X135647664Y-68056649D01*
X135718187Y-68103593D01*
X135724914Y-68105695D01*
X135724917Y-68105696D01*
X135841463Y-68142107D01*
X135841464Y-68142107D01*
X135848195Y-68144210D01*
X135918288Y-68145495D01*
X135977324Y-68146577D01*
X135977326Y-68146577D01*
X135984377Y-68146706D01*
X135991180Y-68144851D01*
X135991182Y-68144851D01*
X136066892Y-68124210D01*
X136115786Y-68110880D01*
X136231858Y-68039612D01*
X136251313Y-68018119D01*
X136318529Y-67943859D01*
X136318529Y-67943858D01*
X136323261Y-67938631D01*
X136382649Y-67816054D01*
X136385058Y-67801740D01*
X136404613Y-67685506D01*
X136404613Y-67685505D01*
X136405247Y-67681737D01*
X136405390Y-67670000D01*
X136386081Y-67535171D01*
X136329706Y-67411180D01*
X136240796Y-67307996D01*
X136126501Y-67233913D01*
X135996006Y-67194887D01*
X135915455Y-67194395D01*
X135866855Y-67194098D01*
X135866854Y-67194098D01*
X135859804Y-67194055D01*
X135853027Y-67195992D01*
X135853026Y-67195992D01*
X135735622Y-67229546D01*
X135735620Y-67229547D01*
X135728842Y-67231484D01*
X135668469Y-67269577D01*
X135660438Y-67274644D01*
X135601135Y-67289705D01*
X135553763Y-67273992D01*
X135488811Y-67231892D01*
X135476501Y-67223913D01*
X135346006Y-67184887D01*
X135265455Y-67184395D01*
X135216855Y-67184098D01*
X135216854Y-67184098D01*
X135209804Y-67184055D01*
X135203027Y-67185992D01*
X135203026Y-67185992D01*
X135085622Y-67219546D01*
X135085620Y-67219547D01*
X135078842Y-67221484D01*
X135002619Y-67269577D01*
X134943318Y-67284638D01*
X134895945Y-67268925D01*
X134832421Y-67227750D01*
X134832420Y-67227750D01*
X134826501Y-67223913D01*
X134696006Y-67184887D01*
X134615455Y-67184395D01*
X134566855Y-67184098D01*
X134566854Y-67184098D01*
X134559804Y-67184055D01*
X134553027Y-67185992D01*
X134553026Y-67185992D01*
X134435622Y-67219546D01*
X134435620Y-67219547D01*
X134428842Y-67221484D01*
X134352619Y-67269577D01*
X134293318Y-67284638D01*
X134245945Y-67268925D01*
X134182421Y-67227750D01*
X134182420Y-67227750D01*
X134176501Y-67223913D01*
X134046006Y-67184887D01*
X133965455Y-67184395D01*
X133916855Y-67184098D01*
X133916854Y-67184098D01*
X133909804Y-67184055D01*
X133903027Y-67185992D01*
X133903026Y-67185992D01*
X133785622Y-67219546D01*
X133785620Y-67219547D01*
X133778842Y-67221484D01*
X133663650Y-67294165D01*
X133573487Y-67396255D01*
X133515601Y-67519548D01*
X133494646Y-67654131D01*
X133495561Y-67661129D01*
X133509029Y-67764125D01*
X133512306Y-67789186D01*
X133515146Y-67795640D01*
X133515147Y-67795644D01*
X133526928Y-67822418D01*
X133567162Y-67913856D01*
X133571699Y-67919254D01*
X133571700Y-67919255D01*
X133576284Y-67924708D01*
X133599253Y-67981418D01*
X133599500Y-67988409D01*
X133599500Y-68633440D01*
X133598281Y-68648926D01*
X133594819Y-68670785D01*
X133597063Y-68684954D01*
X133598069Y-68693954D01*
X133599647Y-68718032D01*
X133602624Y-68763455D01*
X133608342Y-68850709D01*
X133608971Y-68853871D01*
X133608972Y-68853879D01*
X133620090Y-68909772D01*
X133643519Y-69027555D01*
X133701478Y-69198296D01*
X133729796Y-69255720D01*
X133767470Y-69332114D01*
X133781227Y-69360011D01*
X133783029Y-69362707D01*
X133783029Y-69362708D01*
X133869883Y-69492694D01*
X133881402Y-69509934D01*
X133883530Y-69512361D01*
X133883535Y-69512367D01*
X133951966Y-69590396D01*
X133955793Y-69595466D01*
X133956430Y-69596793D01*
X133959987Y-69601024D01*
X133968264Y-69609301D01*
X133972680Y-69614016D01*
X133984986Y-69628049D01*
X133990636Y-69635121D01*
X133994484Y-69640418D01*
X133994487Y-69640421D01*
X133999065Y-69646722D01*
X134005366Y-69651300D01*
X134005368Y-69651302D01*
X134016965Y-69659727D01*
X134028779Y-69669816D01*
X134755178Y-70396215D01*
X134765267Y-70408028D01*
X134778278Y-70425936D01*
X134784581Y-70430515D01*
X134790090Y-70436024D01*
X134790068Y-70436046D01*
X134801264Y-70446601D01*
X134853068Y-70509724D01*
X134863850Y-70525861D01*
X134912366Y-70616628D01*
X134919793Y-70634557D01*
X134949672Y-70733054D01*
X134953457Y-70752085D01*
X134961460Y-70833349D01*
X134961007Y-70848728D01*
X134961038Y-70848728D01*
X134961038Y-70856517D01*
X134959819Y-70864214D01*
X134961038Y-70871909D01*
X134961038Y-70871910D01*
X134963281Y-70886072D01*
X134964500Y-70901559D01*
X134964500Y-71473977D01*
X134945593Y-71532168D01*
X134896093Y-71568132D01*
X134834907Y-71568132D01*
X134830108Y-71566251D01*
X134826501Y-71563913D01*
X134696006Y-71524887D01*
X134615455Y-71524395D01*
X134566855Y-71524098D01*
X134566854Y-71524098D01*
X134559804Y-71524055D01*
X134553027Y-71525992D01*
X134553026Y-71525992D01*
X134435622Y-71559546D01*
X134435620Y-71559547D01*
X134428842Y-71561484D01*
X134313650Y-71634165D01*
X134293982Y-71656435D01*
X134261648Y-71693046D01*
X134208956Y-71724146D01*
X134148047Y-71718334D01*
X134112445Y-71692134D01*
X134070403Y-71643341D01*
X134070397Y-71643336D01*
X134065796Y-71637996D01*
X133951501Y-71563913D01*
X133821006Y-71524887D01*
X133740455Y-71524395D01*
X133691855Y-71524098D01*
X133691854Y-71524098D01*
X133684804Y-71524055D01*
X133678027Y-71525992D01*
X133678026Y-71525992D01*
X133560622Y-71559546D01*
X133560620Y-71559547D01*
X133553842Y-71561484D01*
X133438650Y-71634165D01*
X133433982Y-71639450D01*
X133433979Y-71639453D01*
X133383204Y-71696945D01*
X133330512Y-71728046D01*
X133269603Y-71722234D01*
X133223743Y-71681732D01*
X133210000Y-71631411D01*
X133210000Y-66844376D01*
X133211902Y-66825062D01*
X133212996Y-66819563D01*
X133212996Y-66819562D01*
X133214898Y-66810000D01*
X133212995Y-66800436D01*
X133212995Y-66790687D01*
X133213988Y-66790687D01*
X133213495Y-66778981D01*
X133222541Y-66698701D01*
X133227473Y-66677089D01*
X133245009Y-66626973D01*
X133260785Y-66581887D01*
X133270401Y-66561920D01*
X133324057Y-66476528D01*
X133337878Y-66459196D01*
X133409196Y-66387878D01*
X133426528Y-66374057D01*
X133426831Y-66373867D01*
X133511920Y-66320401D01*
X133531887Y-66310785D01*
X133611307Y-66282995D01*
X133627089Y-66277473D01*
X133648701Y-66272541D01*
X133728981Y-66263495D01*
X133740687Y-66263988D01*
X133740687Y-66262995D01*
X133750436Y-66262995D01*
X133760000Y-66264898D01*
X133769562Y-66262996D01*
X133769563Y-66262996D01*
X133775062Y-66261902D01*
X133794376Y-66260000D01*
X149995624Y-66260000D01*
X150014938Y-66261902D01*
G37*
%TD.AperFunction*%
%TD*%
M02*
