G04 #@! TF.GenerationSoftware,KiCad,Pcbnew,(6.0.4)*
G04 #@! TF.CreationDate,2022-07-06T17:35:23+08:00*
G04 #@! TF.ProjectId,MP2145S_EVB,4d503231-3435-4535-9f45-56422e6b6963,rev?*
G04 #@! TF.SameCoordinates,PX5e56640PY77750e0*
G04 #@! TF.FileFunction,Copper,L1,Top*
G04 #@! TF.FilePolarity,Positive*
%FSLAX46Y46*%
G04 Gerber Fmt 4.6, Leading zero omitted, Abs format (unit mm)*
G04 Created by KiCad (PCBNEW (6.0.4)) date 2022-07-06 17:35:23*
%MOMM*%
%LPD*%
G01*
G04 APERTURE LIST*
G04 #@! TA.AperFunction,ConnectorPad*
%ADD10R,0.700000X4.300000*%
G04 #@! TD*
G04 #@! TA.AperFunction,ConnectorPad*
%ADD11R,0.700000X3.200000*%
G04 #@! TD*
G04 #@! TA.AperFunction,ViaPad*
%ADD12C,0.500000*%
G04 #@! TD*
G04 #@! TA.AperFunction,Conductor*
%ADD13C,0.500000*%
G04 #@! TD*
G04 #@! TA.AperFunction,Conductor*
%ADD14C,0.700000*%
G04 #@! TD*
G04 APERTURE END LIST*
D10*
G04 #@! TO.P,PCI1,B1*
G04 #@! TO.N,5V*
X13050000Y5050000D03*
G04 #@! TO.P,PCI1,B2*
X14050000Y5050000D03*
G04 #@! TO.P,PCI1,B3*
X15050000Y5050000D03*
G04 #@! TO.P,PCI1,B4*
X16050000Y5050000D03*
G04 #@! TO.P,PCI1,B5*
X17050000Y5050000D03*
G04 #@! TO.P,PCI1,B6*
G04 #@! TO.N,GND*
X18050000Y5050000D03*
G04 #@! TO.P,PCI1,B7*
X19050000Y5050000D03*
G04 #@! TO.P,PCI1,B8*
X20050000Y5050000D03*
G04 #@! TO.P,PCI1,B9*
X21050000Y5050000D03*
G04 #@! TO.P,PCI1,B10*
X22050000Y5050000D03*
G04 #@! TO.P,PCI1,B11*
X23050000Y5050000D03*
G04 #@! TO.P,PCI1,B12*
G04 #@! TO.N,REG_EN2*
X26050000Y5050000D03*
G04 #@! TO.P,PCI1,B13*
G04 #@! TO.N,REG_EN1*
X27050000Y5050000D03*
G04 #@! TO.P,PCI1,B14*
G04 #@! TO.N,REG_CHG*
X28050000Y5050000D03*
G04 #@! TO.P,PCI1,B15*
G04 #@! TO.N,REG_POWER*
X29050000Y5050000D03*
G04 #@! TO.P,PCI1,B16*
G04 #@! TO.N,BAT_ISET*
X30050000Y5050000D03*
D11*
G04 #@! TO.P,PCI1,B17*
G04 #@! TO.N,BAT_PG*
X31050000Y5600000D03*
D10*
G04 #@! TO.P,PCI1,B18*
G04 #@! TO.N,BAT_CHG*
X32050000Y5050000D03*
G04 #@! TD*
D12*
G04 #@! TO.N,GND*
X11690000Y29590000D03*
X10690000Y29590000D03*
X65390000Y29490000D03*
X64390000Y29490000D03*
X57429999Y14305001D03*
X57970000Y15005000D03*
X56870000Y15005001D03*
X56880000Y14305001D03*
X57980000Y14305000D03*
X57419999Y15005001D03*
X57970000Y13605000D03*
X57419999Y13605001D03*
X56880000Y12905001D03*
X57980000Y12905000D03*
X56870000Y13605001D03*
X57429999Y12905001D03*
X58680000Y12905001D03*
X59219999Y13605001D03*
X59770000Y13605000D03*
X59780000Y12905000D03*
X58670000Y13605001D03*
X59229999Y12905001D03*
X59219999Y15005001D03*
X59780000Y14305000D03*
X59229999Y14305001D03*
X58670000Y15005001D03*
X59770000Y15005000D03*
X58680000Y14305001D03*
X57075000Y26693334D03*
X57750000Y26693334D03*
X56400000Y26703334D03*
X57065000Y25916668D03*
X56390001Y25926668D03*
X57740000Y25916668D03*
X56390000Y25150000D03*
X57065000Y25140000D03*
X57740000Y25140000D03*
X13160000Y33320000D03*
X14160000Y33320000D03*
X15160000Y33320000D03*
X16160000Y33320000D03*
X17160000Y33320000D03*
X18160000Y33320000D03*
X19160000Y33320000D03*
X20160000Y33320000D03*
X21160000Y33320000D03*
X22160000Y33320000D03*
X23160000Y33320000D03*
X24160000Y33320000D03*
X25160000Y33320000D03*
X26160000Y33320000D03*
X27160000Y33320000D03*
X28160000Y33320000D03*
X29160000Y33320000D03*
X30160000Y33320000D03*
X31160000Y33320000D03*
X32160000Y33320000D03*
X33160000Y33320000D03*
X34160000Y33320000D03*
X35160000Y33320000D03*
X36160000Y33320000D03*
X37160000Y33320000D03*
X38160000Y33320000D03*
X39160000Y33320000D03*
X40160000Y33320000D03*
X41160000Y33320000D03*
X42160000Y33320000D03*
X43160000Y33320000D03*
X44160000Y33320000D03*
X45160000Y33320000D03*
X46160000Y33320000D03*
X47160000Y33320000D03*
X48160000Y33320000D03*
X49160000Y33320000D03*
X50160000Y33320000D03*
X51160000Y33320000D03*
X52160000Y33320000D03*
X53160000Y33320000D03*
X54160000Y33320000D03*
X55160000Y33320000D03*
X56160000Y33320000D03*
X57160000Y33320000D03*
X58160000Y33320000D03*
X59160000Y33320000D03*
X60160000Y33320000D03*
X61160000Y33320000D03*
X12290000Y32130000D03*
X13160000Y32320000D03*
X14160000Y32320000D03*
X15160000Y32320000D03*
X16160000Y32320000D03*
X17160000Y32320000D03*
X18160000Y32320000D03*
X19160000Y32320000D03*
X20160000Y32320000D03*
X21160000Y32320000D03*
X22160000Y32320000D03*
X23160000Y32320000D03*
X24160000Y32320000D03*
X25160000Y32320000D03*
X26160000Y32320000D03*
X27160000Y32320000D03*
X28160000Y32320000D03*
X29160000Y32320000D03*
X30160000Y32320000D03*
X31160000Y32320000D03*
X32160000Y32320000D03*
X33160000Y32320000D03*
X34160000Y32320000D03*
X35160000Y32320000D03*
X36160000Y32320000D03*
X37160000Y32320000D03*
X38160000Y32320000D03*
X39160000Y32320000D03*
X40160000Y32320000D03*
X41160000Y32320000D03*
X42160000Y32320000D03*
X43160000Y32320000D03*
X44160000Y32320000D03*
X45160000Y32320000D03*
X46160000Y32320000D03*
X47160000Y32320000D03*
X48160000Y32320000D03*
X49160000Y32320000D03*
X50160000Y32320000D03*
X51160000Y32320000D03*
X52160000Y32320000D03*
X53160000Y32320000D03*
X54160000Y32320000D03*
X55160000Y32320000D03*
X56160000Y32320000D03*
X57160000Y32320000D03*
X58160000Y32320000D03*
X59160000Y32320000D03*
X60160000Y32320000D03*
X61160000Y32320000D03*
X62160000Y32320000D03*
X62160000Y33320000D03*
X63160000Y32320000D03*
X63160000Y33320000D03*
X63860000Y32050000D03*
X64160000Y33320000D03*
X11300000Y33020000D03*
X10670000Y31600000D03*
X11780000Y31470000D03*
X10690000Y30590000D03*
X11690000Y30590000D03*
X10690000Y28590000D03*
X11690000Y28590000D03*
X10690000Y27590000D03*
X11690000Y27590000D03*
X10690000Y26590000D03*
X11690000Y26590000D03*
X10690000Y25590000D03*
X11690000Y25590000D03*
X10690000Y24590000D03*
X11690000Y24590000D03*
X10690000Y23590000D03*
X11690000Y23590000D03*
X10690000Y22590000D03*
X11690000Y22590000D03*
X10690000Y21590000D03*
X11690000Y21590000D03*
X10690000Y20590000D03*
X11690000Y20590000D03*
X10690000Y19590000D03*
X11690000Y19590000D03*
X10690000Y18590000D03*
X11690000Y18590000D03*
X10690000Y17590000D03*
X11690000Y17590000D03*
X10690000Y16590000D03*
X11690000Y16590000D03*
X10690000Y15590000D03*
X11690000Y15590000D03*
X10690000Y14590000D03*
X11690000Y14590000D03*
X10690000Y13590000D03*
X11690000Y13590000D03*
X10690000Y12590000D03*
X11690000Y12590000D03*
X11690000Y11590000D03*
X41690000Y11590000D03*
X42690000Y11590000D03*
X43690000Y11590000D03*
X44690000Y11590000D03*
X45690000Y11590000D03*
X46690000Y11590000D03*
X47690000Y11590000D03*
X48690000Y11590000D03*
X49690000Y11590000D03*
X50690000Y11590000D03*
X51690000Y11590000D03*
X52690000Y11590000D03*
X53690000Y11590000D03*
X54690000Y11590000D03*
X55690000Y11590000D03*
X56690000Y11590000D03*
X57690000Y11590000D03*
X58690000Y11590000D03*
X59690000Y11590000D03*
X60690000Y11590000D03*
X61690000Y11590000D03*
X62690000Y11590000D03*
X63600000Y11860000D03*
X33690000Y10590000D03*
X34690000Y10590000D03*
X35690000Y10590000D03*
X36690000Y10590000D03*
X37690000Y10590000D03*
X38690000Y10590000D03*
X39690000Y10590000D03*
X40690000Y10590000D03*
X41690000Y10590000D03*
X42690000Y10590000D03*
X43690000Y10590000D03*
X44690000Y10590000D03*
X45690000Y10590000D03*
X46690000Y10590000D03*
X47690000Y10590000D03*
X48690000Y10590000D03*
X49690000Y10590000D03*
X50690000Y10590000D03*
X51690000Y10590000D03*
X52690000Y10590000D03*
X53690000Y10590000D03*
X54690000Y10590000D03*
X55690000Y10590000D03*
X56690000Y10590000D03*
X57690000Y10590000D03*
X58690000Y10590000D03*
X59690000Y10590000D03*
X60690000Y10590000D03*
X61690000Y10590000D03*
X62690000Y10590000D03*
X63690000Y10590000D03*
X64870000Y32980000D03*
X64290000Y31450000D03*
X65380000Y31520000D03*
X64390000Y30490000D03*
X65380000Y30500000D03*
X64390000Y28490000D03*
X65390000Y28490000D03*
X64390000Y27490000D03*
X65390000Y27490000D03*
X64390000Y26490000D03*
X65390000Y26490000D03*
X64390000Y25490000D03*
X65390000Y25490000D03*
X64390000Y24490000D03*
X65390000Y24490000D03*
X64390000Y23490000D03*
X65390000Y23490000D03*
X64390000Y22490000D03*
X65390000Y22490000D03*
X64390000Y21490000D03*
X65390000Y21490000D03*
X64390000Y20490000D03*
X65390000Y20490000D03*
X64390000Y19490000D03*
X65390000Y19490000D03*
X64390000Y18490000D03*
X65390000Y18490000D03*
X64390000Y17490000D03*
X65390000Y17490000D03*
X64390000Y16490000D03*
X65390000Y16490000D03*
X64390000Y15490000D03*
X65390000Y15490000D03*
X64390000Y14490000D03*
X65390000Y14490000D03*
X64390000Y13490000D03*
X65390000Y13490000D03*
X64210000Y12480000D03*
X65390000Y12550000D03*
X65320000Y11760000D03*
X64440000Y10700000D03*
X21660000Y32820000D03*
X36660000Y32820000D03*
X52660000Y32820000D03*
X53660000Y32820000D03*
X54660000Y32820000D03*
X59660000Y32820000D03*
X43660000Y32820000D03*
X44660000Y32820000D03*
X48660000Y32820000D03*
X19660000Y32820000D03*
X51660000Y32820000D03*
X28660000Y32820000D03*
X56660000Y32820000D03*
X22660000Y32820000D03*
X37660000Y32820000D03*
X27660000Y32820000D03*
X55660000Y32820000D03*
X39660000Y32820000D03*
X46660000Y32820000D03*
X50660000Y32820000D03*
X31660000Y32820000D03*
X20660000Y32820000D03*
X23660000Y32820000D03*
X34660000Y32820000D03*
X32660000Y32820000D03*
X29660000Y32820000D03*
X57660000Y32820000D03*
X61660000Y32820000D03*
X45660000Y32820000D03*
X49660000Y32820000D03*
X41660000Y32820000D03*
X18660000Y32820000D03*
X60660000Y32820000D03*
X30660000Y32820000D03*
X42660000Y32820000D03*
X24660000Y32820000D03*
X58660000Y32820000D03*
X40660000Y32820000D03*
X33660000Y32820000D03*
X25660000Y32820000D03*
X35660000Y32820000D03*
X26660000Y32820000D03*
X38660000Y32820000D03*
X47660000Y32820000D03*
X62660000Y32820000D03*
X63660000Y32820000D03*
X64370000Y32530000D03*
X12590000Y32770000D03*
X13660000Y32820000D03*
X14660000Y32820000D03*
X15660000Y32820000D03*
X16660000Y32820000D03*
X17660000Y32820000D03*
X64770000Y31920000D03*
X64890000Y31060000D03*
X64900000Y29990000D03*
X64890000Y17980000D03*
X64890000Y13980000D03*
X64100000Y11360000D03*
X64890000Y27980000D03*
X64890000Y21980000D03*
X64890000Y25980000D03*
X64890000Y20980000D03*
X64890000Y15980000D03*
X64820000Y12910000D03*
X64890000Y14980000D03*
X64890000Y24980000D03*
X64890000Y23980000D03*
X64890000Y19980000D03*
X64890000Y16980000D03*
X64890000Y22980000D03*
X64890000Y18980000D03*
X64890000Y26980000D03*
X64890000Y28980000D03*
X10850000Y32400000D03*
X11190000Y27110000D03*
X11190000Y20110000D03*
X11190000Y29110000D03*
X11190000Y19110000D03*
X11190000Y31110000D03*
X11190000Y28110000D03*
X11190000Y26110000D03*
X11190000Y24110000D03*
X11190000Y23110000D03*
X11190000Y22110000D03*
X11190000Y21110000D03*
X11190000Y25110000D03*
X11190000Y15110000D03*
X11190000Y13110000D03*
X11190000Y14110000D03*
X11190000Y17110000D03*
X11190000Y18110000D03*
X11190000Y16110000D03*
X11190000Y30110000D03*
X11190000Y12090000D03*
X47210000Y11080000D03*
X54210000Y11080000D03*
X41210000Y11080000D03*
X43210000Y11080000D03*
X62210000Y11080000D03*
X55210000Y11080000D03*
X48210000Y11080000D03*
X61210000Y11080000D03*
X49210000Y11080000D03*
X51210000Y11080000D03*
X58210000Y11080000D03*
X57210000Y11080000D03*
X56210000Y11080000D03*
X50210000Y11080000D03*
X42210000Y11080000D03*
X44210000Y11080000D03*
X45210000Y11080000D03*
X46210000Y11080000D03*
X60210000Y11080000D03*
X53210000Y11080000D03*
X59210000Y11080000D03*
X63210000Y11080000D03*
X52210000Y11080000D03*
X11800000Y32570000D03*
X11360000Y31990000D03*
X65310000Y32360000D03*
X64650000Y11940000D03*
X64980000Y11120000D03*
X57019999Y18505001D03*
X57570000Y18505000D03*
X56470000Y18505001D03*
X57029999Y17805001D03*
X56480000Y17805001D03*
X57580000Y17805000D03*
X57019999Y19895001D03*
X56480000Y19195001D03*
X56470000Y19895001D03*
X57570000Y19895000D03*
X57580000Y19195000D03*
X57029999Y19195001D03*
X55279999Y19895001D03*
X54740000Y19195001D03*
X55840000Y19195000D03*
X55830000Y19895000D03*
X54730000Y19895001D03*
X55289999Y19195001D03*
X53590000Y19195001D03*
X54139999Y19195001D03*
X53580000Y19895001D03*
X54129999Y19895001D03*
X36430000Y24410000D03*
X26480000Y24410000D03*
X46450000Y24380000D03*
X16520000Y24390000D03*
X43650000Y29550000D03*
X43120000Y29550000D03*
X20490000Y30430000D03*
X21090000Y30430000D03*
X19890000Y30430000D03*
X31110000Y30430000D03*
X29910000Y30430000D03*
X30510000Y30430000D03*
X40440000Y30430000D03*
X41040000Y30430000D03*
X39840000Y30430000D03*
X51050000Y30430000D03*
X50450000Y30430000D03*
X49850000Y30430000D03*
X44180000Y29550000D03*
X33630000Y29550000D03*
X33100000Y29550000D03*
X34160000Y29550000D03*
X23610000Y29550000D03*
X23080000Y29550000D03*
X24140000Y29550000D03*
X51440000Y23790000D03*
X17140000Y23810000D03*
X16520000Y23810000D03*
X17750000Y23810000D03*
X18380000Y23810000D03*
X26480000Y23800000D03*
X27710000Y23800000D03*
X27100000Y23800000D03*
X28340000Y23800000D03*
X36430000Y23810000D03*
X37660000Y23810000D03*
X38290000Y23810000D03*
X37050000Y23810000D03*
X46450000Y23820000D03*
X48310000Y23820000D03*
X47680000Y23820000D03*
X47070000Y23820000D03*
X50620000Y24510000D03*
X51010000Y24130000D03*
X56390001Y27480000D03*
X57075000Y29075000D03*
X57740000Y27470000D03*
X57065000Y27470000D03*
X12160000Y33320000D03*
G04 #@! TO.N,5V*
X53845000Y25250000D03*
X54500000Y25250000D03*
X53550000Y24700000D03*
X20470000Y25720000D03*
X52625000Y26800000D03*
X53175000Y25866668D03*
X53175000Y25250000D03*
X54150000Y24700000D03*
X21070000Y25720000D03*
X21670000Y25720000D03*
X22270000Y25720000D03*
X20470000Y25120000D03*
X21070000Y25120000D03*
X21670000Y25120000D03*
X22270000Y25120000D03*
X30390000Y25700000D03*
X30390000Y25100000D03*
X30990000Y25700000D03*
X31590000Y25700000D03*
X32190000Y25100000D03*
X32190000Y25700000D03*
X31590000Y25100000D03*
X30990000Y25100000D03*
X40460000Y25100000D03*
X42260000Y25700000D03*
X41060000Y25100000D03*
X41660000Y25700000D03*
X41060000Y25700000D03*
X41660000Y25100000D03*
X42260000Y25100000D03*
X40460000Y25700000D03*
X39870000Y25700000D03*
X29780000Y25700000D03*
X19850000Y25730000D03*
X20190000Y26630000D03*
X30070000Y26610000D03*
X40180000Y26650000D03*
X53175000Y27100000D03*
X52325000Y27350000D03*
X53175000Y26483334D03*
X52000000Y26800000D03*
X28260000Y30360000D03*
X27340000Y30360000D03*
X38250000Y30350000D03*
X37330000Y30350000D03*
X47320000Y30380000D03*
X48240000Y30380000D03*
X18280000Y30320000D03*
X17360000Y30320000D03*
G04 #@! TO.N,1.2V*
X14160000Y29190000D03*
X16340000Y30380000D03*
G04 #@! TO.N,1.5V*
X26350000Y30380000D03*
X25385000Y23775000D03*
G04 #@! TO.N,2.5V*
X36320000Y30380000D03*
X35335000Y23755000D03*
G04 #@! TO.N,3.3V*
X46290000Y30380000D03*
X45380000Y23780000D03*
G04 #@! TO.N,Net-(C3-Pad1)*
X56600000Y31300000D03*
X54700000Y27700000D03*
G04 #@! TO.N,Net-(R34-Pad2)*
X57560000Y31300000D03*
X54700000Y26940000D03*
G04 #@! TO.N,REG_EN2*
X52925000Y15350000D03*
X26050000Y8690000D03*
G04 #@! TO.N,REG_EN1*
X53420000Y17785000D03*
X27050000Y9630000D03*
G04 #@! TO.N,REG_CHG*
X28043332Y10610000D03*
X53920000Y15345000D03*
G04 #@! TO.N,REG_POWER*
X29044998Y11945000D03*
X54420000Y17785000D03*
G04 #@! TO.N,BAT_ISET*
X30046664Y11945000D03*
X54920000Y15345000D03*
G04 #@! TO.N,BAT_PG*
X31048330Y11945000D03*
X55420000Y17785000D03*
G04 #@! TO.N,BAT_CHG*
X55920000Y15345000D03*
X32060000Y11945000D03*
G04 #@! TD*
D13*
G04 #@! TO.N,5V*
X40460000Y25100000D02*
X42260000Y25100000D01*
X30390000Y25100000D02*
X32190000Y25100000D01*
X20470000Y25120000D02*
X22270000Y25120000D01*
D14*
G04 #@! TO.N,REG_EN2*
X26050000Y5050000D02*
X26050000Y8690000D01*
G04 #@! TO.N,REG_EN1*
X27050000Y5050000D02*
X27050000Y7561666D01*
X27050000Y7561666D02*
X27050000Y9630000D01*
G04 #@! TO.N,REG_CHG*
X28050000Y10603332D02*
X28043332Y10610000D01*
X28050000Y5050000D02*
X28050000Y10603332D01*
G04 #@! TO.N,REG_POWER*
X29050000Y7564998D02*
X29050000Y11939998D01*
X29050000Y5050000D02*
X29050000Y7564998D01*
X29050000Y11939998D02*
X29044998Y11945000D01*
G04 #@! TO.N,BAT_ISET*
X30050000Y7566664D02*
X30050000Y11941664D01*
X30050000Y5050000D02*
X30050000Y7566664D01*
X30050000Y11941664D02*
X30046664Y11945000D01*
G04 #@! TO.N,BAT_PG*
X31050000Y11943330D02*
X31048330Y11945000D01*
X31050000Y5600000D02*
X31050000Y7568330D01*
X31050000Y7568330D02*
X31050000Y11943330D01*
G04 #@! TO.N,BAT_CHG*
X32050000Y5050000D02*
X32050000Y11935000D01*
X32050000Y11935000D02*
X32060000Y11945000D01*
G04 #@! TD*
G04 #@! TA.AperFunction,Conductor*
G04 #@! TO.N,GND*
G36*
X63984563Y33638210D02*
G01*
X63989145Y33637402D01*
X64000000Y33635488D01*
X64010855Y33637402D01*
X64021878Y33637402D01*
X64021878Y33637037D01*
X64034237Y33637675D01*
X64232962Y33623462D01*
X64250756Y33620904D01*
X64470179Y33573172D01*
X64487418Y33568110D01*
X64697823Y33489633D01*
X64714167Y33482168D01*
X64911251Y33374552D01*
X64926370Y33364835D01*
X65106133Y33230266D01*
X65119719Y33218493D01*
X65278493Y33059719D01*
X65290266Y33046133D01*
X65424835Y32866370D01*
X65434554Y32851247D01*
X65542166Y32654171D01*
X65549633Y32637823D01*
X65604134Y32491702D01*
X65628108Y32427424D01*
X65633173Y32410174D01*
X65680904Y32190756D01*
X65683462Y32172962D01*
X65697675Y31974237D01*
X65697038Y31961881D01*
X65697402Y31961881D01*
X65697402Y31950857D01*
X65695488Y31940000D01*
X65698210Y31924566D01*
X65700124Y31902690D01*
X65699852Y23243670D01*
X65699501Y12037321D01*
X65697587Y12015447D01*
X65696778Y12010859D01*
X65696778Y12010854D01*
X65694864Y12000000D01*
X65696778Y11989145D01*
X65696778Y11978122D01*
X65696413Y11978122D01*
X65697051Y11965764D01*
X65694093Y11924405D01*
X65683489Y11776130D01*
X65682838Y11767034D01*
X65680280Y11749248D01*
X65641218Y11569680D01*
X65632550Y11529835D01*
X65627486Y11512586D01*
X65591371Y11415757D01*
X65549011Y11302187D01*
X65541544Y11285839D01*
X65437819Y11095882D01*
X65433930Y11088759D01*
X65424213Y11073640D01*
X65290883Y10895532D01*
X65289646Y10893880D01*
X65277873Y10880293D01*
X65119092Y10721515D01*
X65105505Y10709742D01*
X64925748Y10575179D01*
X64910625Y10565460D01*
X64713541Y10457846D01*
X64697188Y10450378D01*
X64486799Y10371909D01*
X64469557Y10366847D01*
X64250135Y10319117D01*
X64232341Y10316559D01*
X64199608Y10314218D01*
X64033520Y10302342D01*
X64021259Y10302974D01*
X64021259Y10302598D01*
X64010235Y10302598D01*
X63999380Y10304512D01*
X63983943Y10301790D01*
X63962071Y10299877D01*
X32826496Y10300498D01*
X32758377Y10320501D01*
X32711885Y10374158D01*
X32700500Y10426498D01*
X32700500Y11820754D01*
X32702051Y11840465D01*
X32714106Y11916576D01*
X32715346Y11924405D01*
X32714600Y11932297D01*
X32700625Y12080141D01*
X32700624Y12080144D01*
X32699879Y12088029D01*
X32664193Y12187153D01*
X32646892Y12235208D01*
X32646891Y12235210D01*
X32644206Y12242668D01*
X32551825Y12378602D01*
X32536439Y12392167D01*
X32434487Y12482049D01*
X32428541Y12487291D01*
X32331787Y12536590D01*
X32289164Y12558308D01*
X32289162Y12558309D01*
X32282100Y12561907D01*
X32121703Y12597760D01*
X31957431Y12592597D01*
X31933433Y12585625D01*
X31807217Y12548957D01*
X31807214Y12548956D01*
X31799601Y12546744D01*
X31762410Y12524749D01*
X31664962Y12467119D01*
X31664959Y12467117D01*
X31658135Y12463081D01*
X31647302Y12452248D01*
X31638687Y12444408D01*
X31632060Y12440202D01*
X31630513Y12438555D01*
X31567596Y12411539D01*
X31497571Y12423243D01*
X31475290Y12437072D01*
X31451064Y12455864D01*
X31447985Y12458331D01*
X31407432Y12491879D01*
X31407431Y12491880D01*
X31401326Y12496930D01*
X31395007Y12499904D01*
X31389013Y12504117D01*
X31388353Y12504508D01*
X31382094Y12509362D01*
X31374825Y12512507D01*
X31374821Y12512510D01*
X31294508Y12547264D01*
X31290900Y12548893D01*
X31259785Y12563534D01*
X31259786Y12563534D01*
X31252613Y12566909D01*
X31247395Y12567904D01*
X31242786Y12569646D01*
X31238536Y12571485D01*
X31238533Y12571486D01*
X31231256Y12574635D01*
X31170982Y12584182D01*
X31120384Y12592196D01*
X31116484Y12592877D01*
X31098955Y12596221D01*
X31098953Y12596221D01*
X31091170Y12597706D01*
X31087379Y12597467D01*
X31086494Y12597565D01*
X31076758Y12599107D01*
X31076752Y12599107D01*
X31068925Y12600347D01*
X31061034Y12599601D01*
X30943110Y12588453D01*
X30939161Y12588143D01*
X30927142Y12587387D01*
X30927026Y12589223D01*
X30924967Y12589424D01*
X30925219Y12586762D01*
X30913190Y12585625D01*
X30913189Y12585625D01*
X30905301Y12584879D01*
X30776427Y12538482D01*
X30772677Y12537199D01*
X30770801Y12536590D01*
X30770106Y12538731D01*
X30769506Y12538638D01*
X30770350Y12536294D01*
X30758124Y12531893D01*
X30758120Y12531891D01*
X30750662Y12529206D01*
X30702212Y12496279D01*
X30615403Y12437284D01*
X30547818Y12415538D01*
X30479206Y12433782D01*
X30467357Y12441934D01*
X30443824Y12460187D01*
X30440731Y12462665D01*
X30407433Y12490212D01*
X30407432Y12490213D01*
X30401326Y12495264D01*
X30395785Y12497871D01*
X30390011Y12501928D01*
X30380428Y12509362D01*
X30269509Y12557361D01*
X30265932Y12558976D01*
X30252613Y12565243D01*
X30252612Y12565243D01*
X30253351Y12566814D01*
X30251336Y12568192D01*
X30250254Y12565693D01*
X30236865Y12571487D01*
X30236864Y12571487D01*
X30229590Y12574635D01*
X30221767Y12575874D01*
X30221764Y12575875D01*
X30085517Y12597455D01*
X30067259Y12600347D01*
X30059368Y12599601D01*
X29911523Y12585625D01*
X29911521Y12585624D01*
X29903635Y12584879D01*
X29896181Y12582195D01*
X29896179Y12582195D01*
X29756456Y12531892D01*
X29756454Y12531891D01*
X29748996Y12529206D01*
X29700546Y12496279D01*
X29613737Y12437284D01*
X29546152Y12415538D01*
X29477540Y12433782D01*
X29465690Y12441935D01*
X29436598Y12464500D01*
X29433506Y12466977D01*
X29407439Y12488542D01*
X29407433Y12488546D01*
X29401326Y12493598D01*
X29396562Y12495840D01*
X29392655Y12498585D01*
X29378762Y12509362D01*
X29371490Y12512509D01*
X29371488Y12512510D01*
X29235199Y12571487D01*
X29235198Y12571487D01*
X29227924Y12574635D01*
X29220101Y12575874D01*
X29220098Y12575875D01*
X29083851Y12597455D01*
X29065593Y12600347D01*
X29057702Y12599601D01*
X28909857Y12585625D01*
X28909855Y12585624D01*
X28901969Y12584879D01*
X28894515Y12582195D01*
X28894513Y12582195D01*
X28754790Y12531892D01*
X28754788Y12531891D01*
X28747330Y12529206D01*
X28611396Y12436825D01*
X28606158Y12430884D01*
X28606156Y12430882D01*
X28507944Y12319483D01*
X28507942Y12319480D01*
X28502706Y12313541D01*
X28428090Y12167100D01*
X28392238Y12006704D01*
X28397401Y11842431D01*
X28398464Y11838772D01*
X28399500Y11825613D01*
X28399500Y11356085D01*
X28379498Y11287964D01*
X28325842Y11241471D01*
X28255568Y11231367D01*
X28238344Y11235089D01*
X28233532Y11236487D01*
X28226258Y11239635D01*
X28218435Y11240874D01*
X28218432Y11240875D01*
X28076377Y11263375D01*
X28063927Y11265347D01*
X28056036Y11264601D01*
X27908191Y11250625D01*
X27908189Y11250624D01*
X27900303Y11249879D01*
X27892849Y11247195D01*
X27892847Y11247195D01*
X27753124Y11196892D01*
X27753122Y11196891D01*
X27745664Y11194206D01*
X27609730Y11101825D01*
X27604492Y11095884D01*
X27604490Y11095882D01*
X27506278Y10984483D01*
X27506276Y10984480D01*
X27501040Y10978541D01*
X27426424Y10832100D01*
X27390572Y10671704D01*
X27395735Y10507431D01*
X27397947Y10499817D01*
X27397949Y10499805D01*
X27399500Y10480094D01*
X27399500Y10408257D01*
X27379498Y10340136D01*
X27325842Y10293643D01*
X27273370Y10282257D01*
X27110195Y10282425D01*
X27102418Y10282673D01*
X27098956Y10282891D01*
X27091170Y10284376D01*
X27064968Y10282728D01*
X27056955Y10282479D01*
X24757727Y10284848D01*
X24737124Y10286566D01*
X24687339Y10294873D01*
X24658756Y10299643D01*
X24658754Y10299643D01*
X24653619Y10300500D01*
X24446381Y10300500D01*
X24441246Y10299643D01*
X24441244Y10299643D01*
X24247107Y10267248D01*
X24247102Y10267247D01*
X24241968Y10266390D01*
X24045958Y10199100D01*
X23863697Y10100465D01*
X23700157Y9973176D01*
X23657971Y9927350D01*
X23563326Y9824539D01*
X23563323Y9824535D01*
X23559798Y9820706D01*
X23556947Y9816342D01*
X23469972Y9683216D01*
X23446449Y9647212D01*
X23363202Y9457428D01*
X23361924Y9452380D01*
X23361922Y9452375D01*
X23313609Y9261590D01*
X23312328Y9256531D01*
X23311898Y9251340D01*
X23311897Y9251335D01*
X23300293Y9111287D01*
X23299968Y9109393D01*
X23300117Y9109378D01*
X23299500Y9103085D01*
X23298895Y9103144D01*
X23298663Y9101795D01*
X23299500Y9101726D01*
X23295524Y9053745D01*
X23294864Y9050000D01*
X23296777Y9039151D01*
X23296777Y9039149D01*
X23297586Y9034563D01*
X23299500Y9012683D01*
X23299500Y3070240D01*
X23279498Y3002119D01*
X23225842Y2955626D01*
X23174519Y2944244D01*
X20884801Y2925739D01*
X17827518Y2901031D01*
X17759238Y2920482D01*
X17712313Y2973760D01*
X17700500Y3027027D01*
X17700500Y7244646D01*
X17700167Y7247445D01*
X17700000Y7253078D01*
X17700000Y9725000D01*
X16236171Y11213226D01*
X16202662Y11275817D01*
X16200000Y11301582D01*
X16200000Y15350000D01*
X52369750Y15350000D01*
X52388670Y15206291D01*
X52444139Y15072375D01*
X52532379Y14957379D01*
X52647375Y14869139D01*
X52781291Y14813670D01*
X52925000Y14794750D01*
X53068709Y14813670D01*
X53202625Y14869139D01*
X53317621Y14957379D01*
X53322647Y14963929D01*
X53328488Y14969770D01*
X53330069Y14968189D01*
X53377963Y15003156D01*
X53448834Y15007375D01*
X53510735Y14972608D01*
X53520545Y14961285D01*
X53527379Y14952379D01*
X53642375Y14864139D01*
X53776291Y14808670D01*
X53920000Y14789750D01*
X54063709Y14808670D01*
X54197625Y14864139D01*
X54312621Y14952379D01*
X54320038Y14962045D01*
X54322725Y14964007D01*
X54323488Y14964770D01*
X54323607Y14964651D01*
X54377376Y15003912D01*
X54448247Y15008134D01*
X54510149Y14973370D01*
X54519962Y14962045D01*
X54527379Y14952379D01*
X54642375Y14864139D01*
X54776291Y14808670D01*
X54920000Y14789750D01*
X55063709Y14808670D01*
X55197625Y14864139D01*
X55312621Y14952379D01*
X55320038Y14962045D01*
X55322725Y14964007D01*
X55323488Y14964770D01*
X55323607Y14964651D01*
X55377376Y15003912D01*
X55448247Y15008134D01*
X55510149Y14973370D01*
X55519962Y14962045D01*
X55527379Y14952379D01*
X55642375Y14864139D01*
X55776291Y14808670D01*
X55920000Y14789750D01*
X56063709Y14808670D01*
X56197625Y14864139D01*
X56312621Y14952379D01*
X56400861Y15067375D01*
X56456330Y15201291D01*
X56475250Y15345000D01*
X56456330Y15488709D01*
X56400861Y15622625D01*
X56312621Y15737621D01*
X56197625Y15825861D01*
X56063709Y15881330D01*
X55920000Y15900250D01*
X55776291Y15881330D01*
X55642375Y15825861D01*
X55527379Y15737621D01*
X55522353Y15731071D01*
X55519962Y15727955D01*
X55517275Y15725993D01*
X55516512Y15725230D01*
X55516393Y15725349D01*
X55462624Y15686088D01*
X55391753Y15681866D01*
X55329851Y15716630D01*
X55320038Y15727955D01*
X55317647Y15731071D01*
X55312621Y15737621D01*
X55197625Y15825861D01*
X55063709Y15881330D01*
X54920000Y15900250D01*
X54776291Y15881330D01*
X54642375Y15825861D01*
X54527379Y15737621D01*
X54522353Y15731071D01*
X54519962Y15727955D01*
X54517275Y15725993D01*
X54516512Y15725230D01*
X54516393Y15725349D01*
X54462624Y15686088D01*
X54391753Y15681866D01*
X54329851Y15716630D01*
X54320038Y15727955D01*
X54317647Y15731071D01*
X54312621Y15737621D01*
X54197625Y15825861D01*
X54063709Y15881330D01*
X53920000Y15900250D01*
X53776291Y15881330D01*
X53642375Y15825861D01*
X53527379Y15737621D01*
X53522353Y15731071D01*
X53516512Y15725230D01*
X53514931Y15726811D01*
X53467037Y15691844D01*
X53396166Y15687625D01*
X53334265Y15722392D01*
X53324454Y15733716D01*
X53322647Y15736071D01*
X53317621Y15742621D01*
X53202625Y15830861D01*
X53068709Y15886330D01*
X52925000Y15905250D01*
X52781291Y15886330D01*
X52647375Y15830861D01*
X52532379Y15742621D01*
X52444139Y15627625D01*
X52388670Y15493709D01*
X52369750Y15350000D01*
X16200000Y15350000D01*
X16200000Y17785000D01*
X52864750Y17785000D01*
X52883670Y17641291D01*
X52939139Y17507375D01*
X53027379Y17392379D01*
X53142375Y17304139D01*
X53276291Y17248670D01*
X53420000Y17229750D01*
X53563709Y17248670D01*
X53697625Y17304139D01*
X53812621Y17392379D01*
X53820038Y17402045D01*
X53822725Y17404007D01*
X53823488Y17404770D01*
X53823607Y17404651D01*
X53877376Y17443912D01*
X53948247Y17448134D01*
X54010149Y17413370D01*
X54019962Y17402045D01*
X54027379Y17392379D01*
X54142375Y17304139D01*
X54276291Y17248670D01*
X54420000Y17229750D01*
X54563709Y17248670D01*
X54697625Y17304139D01*
X54812621Y17392379D01*
X54820038Y17402045D01*
X54822725Y17404007D01*
X54823488Y17404770D01*
X54823607Y17404651D01*
X54877376Y17443912D01*
X54948247Y17448134D01*
X55010149Y17413370D01*
X55019962Y17402045D01*
X55027379Y17392379D01*
X55142375Y17304139D01*
X55276291Y17248670D01*
X55420000Y17229750D01*
X55563709Y17248670D01*
X55697625Y17304139D01*
X55812621Y17392379D01*
X55900861Y17507375D01*
X55956330Y17641291D01*
X55975250Y17785000D01*
X55956330Y17928709D01*
X55900861Y18062625D01*
X55812621Y18177621D01*
X55697625Y18265861D01*
X55563709Y18321330D01*
X55420000Y18340250D01*
X55276291Y18321330D01*
X55142375Y18265861D01*
X55027379Y18177621D01*
X55022353Y18171071D01*
X55019962Y18167955D01*
X55017275Y18165993D01*
X55016512Y18165230D01*
X55016393Y18165349D01*
X54962624Y18126088D01*
X54891753Y18121866D01*
X54829851Y18156630D01*
X54820038Y18167955D01*
X54817647Y18171071D01*
X54812621Y18177621D01*
X54697625Y18265861D01*
X54563709Y18321330D01*
X54420000Y18340250D01*
X54276291Y18321330D01*
X54142375Y18265861D01*
X54027379Y18177621D01*
X54022353Y18171071D01*
X54019962Y18167955D01*
X54017275Y18165993D01*
X54016512Y18165230D01*
X54016393Y18165349D01*
X53962624Y18126088D01*
X53891753Y18121866D01*
X53829851Y18156630D01*
X53820038Y18167955D01*
X53817647Y18171071D01*
X53812621Y18177621D01*
X53697625Y18265861D01*
X53563709Y18321330D01*
X53420000Y18340250D01*
X53276291Y18321330D01*
X53142375Y18265861D01*
X53027379Y18177621D01*
X52939139Y18062625D01*
X52883670Y17928709D01*
X52864750Y17785000D01*
X16200000Y17785000D01*
X16200000Y23775000D01*
X24829750Y23775000D01*
X24848670Y23631291D01*
X24904139Y23497375D01*
X24992379Y23382379D01*
X25107375Y23294139D01*
X25241291Y23238670D01*
X25385000Y23219750D01*
X25528709Y23238670D01*
X25662625Y23294139D01*
X25777621Y23382379D01*
X25865861Y23497375D01*
X25921330Y23631291D01*
X25937617Y23755000D01*
X34779750Y23755000D01*
X34798670Y23611291D01*
X34854139Y23477375D01*
X34942379Y23362379D01*
X35057375Y23274139D01*
X35191291Y23218670D01*
X35335000Y23199750D01*
X35478709Y23218670D01*
X35612625Y23274139D01*
X35727621Y23362379D01*
X35815861Y23477375D01*
X35871330Y23611291D01*
X35890250Y23755000D01*
X35886959Y23780000D01*
X44824750Y23780000D01*
X44843670Y23636291D01*
X44899139Y23502375D01*
X44987379Y23387379D01*
X45102375Y23299139D01*
X45236291Y23243670D01*
X45380000Y23224750D01*
X45523709Y23243670D01*
X45657625Y23299139D01*
X45772621Y23387379D01*
X45860861Y23502375D01*
X45916330Y23636291D01*
X45935250Y23780000D01*
X45916330Y23923709D01*
X45860861Y24057625D01*
X45772621Y24172621D01*
X45657625Y24260861D01*
X45523709Y24316330D01*
X45380000Y24335250D01*
X45236291Y24316330D01*
X45102375Y24260861D01*
X44987379Y24172621D01*
X44899139Y24057625D01*
X44843670Y23923709D01*
X44824750Y23780000D01*
X35886959Y23780000D01*
X35871330Y23898709D01*
X35815861Y24032625D01*
X35727621Y24147621D01*
X35612625Y24235861D01*
X35478709Y24291330D01*
X35335000Y24310250D01*
X35191291Y24291330D01*
X35057375Y24235861D01*
X34942379Y24147621D01*
X34854139Y24032625D01*
X34798670Y23898709D01*
X34779750Y23755000D01*
X25937617Y23755000D01*
X25940250Y23775000D01*
X25921330Y23918709D01*
X25865861Y24052625D01*
X25777621Y24167621D01*
X25662625Y24255861D01*
X25528709Y24311330D01*
X25385000Y24330250D01*
X25241291Y24311330D01*
X25107375Y24255861D01*
X24992379Y24167621D01*
X24904139Y24052625D01*
X24848670Y23918709D01*
X24829750Y23775000D01*
X16200000Y23775000D01*
X16200000Y24322810D01*
X16220002Y24390931D01*
X16236905Y24411905D01*
X16463095Y24638095D01*
X16525407Y24672121D01*
X16552190Y24675000D01*
X20102869Y24675000D01*
X20170990Y24654998D01*
X20179575Y24648961D01*
X20182234Y24646921D01*
X20192375Y24639139D01*
X20200003Y24635980D01*
X20200004Y24635979D01*
X20208293Y24632546D01*
X20226476Y24623222D01*
X20243986Y24612365D01*
X20252240Y24609967D01*
X20280954Y24601625D01*
X20294022Y24597036D01*
X20318661Y24586830D01*
X20318664Y24586829D01*
X20326291Y24583670D01*
X20334472Y24582593D01*
X20334475Y24582592D01*
X20346902Y24580956D01*
X20365596Y24577033D01*
X20388825Y24570285D01*
X20396308Y24569735D01*
X20397208Y24569669D01*
X20397219Y24569669D01*
X20399515Y24569500D01*
X20425662Y24569500D01*
X20442109Y24568422D01*
X20470000Y24564750D01*
X20478188Y24565828D01*
X20497891Y24568422D01*
X20514338Y24569500D01*
X21025662Y24569500D01*
X21042109Y24568422D01*
X21070000Y24564750D01*
X21078188Y24565828D01*
X21097891Y24568422D01*
X21114338Y24569500D01*
X21625662Y24569500D01*
X21642109Y24568422D01*
X21670000Y24564750D01*
X21678188Y24565828D01*
X21697891Y24568422D01*
X21714338Y24569500D01*
X22225662Y24569500D01*
X22242109Y24568422D01*
X22270000Y24564750D01*
X22304945Y24569351D01*
X22306443Y24569500D01*
X22307785Y24569500D01*
X22311366Y24569991D01*
X22311380Y24569992D01*
X22349611Y24575230D01*
X22350267Y24575318D01*
X22393093Y24580956D01*
X22413709Y24583670D01*
X22414936Y24584178D01*
X22419432Y24584794D01*
X22485826Y24613525D01*
X22487586Y24614270D01*
X22540001Y24635981D01*
X22547625Y24639139D01*
X22551000Y24641728D01*
X22557855Y24644695D01*
X22564527Y24650098D01*
X22571873Y24654547D01*
X22573288Y24652210D01*
X22626134Y24674246D01*
X22639898Y24675000D01*
X29994817Y24675000D01*
X30061212Y24656087D01*
X30071565Y24649668D01*
X30081875Y24642543D01*
X30098095Y24630097D01*
X30112375Y24619139D01*
X30120003Y24615980D01*
X30120004Y24615979D01*
X30128293Y24612546D01*
X30146476Y24603222D01*
X30163986Y24592365D01*
X30172240Y24589967D01*
X30200954Y24581625D01*
X30214022Y24577036D01*
X30238661Y24566830D01*
X30238664Y24566829D01*
X30246291Y24563670D01*
X30254472Y24562593D01*
X30254475Y24562592D01*
X30266902Y24560956D01*
X30285596Y24557033D01*
X30308825Y24550285D01*
X30316308Y24549735D01*
X30317208Y24549669D01*
X30317219Y24549669D01*
X30319515Y24549500D01*
X30345662Y24549500D01*
X30362109Y24548422D01*
X30390000Y24544750D01*
X30398188Y24545828D01*
X30417891Y24548422D01*
X30434338Y24549500D01*
X30945662Y24549500D01*
X30962109Y24548422D01*
X30990000Y24544750D01*
X30998188Y24545828D01*
X31017891Y24548422D01*
X31034338Y24549500D01*
X31545662Y24549500D01*
X31562109Y24548422D01*
X31590000Y24544750D01*
X31598188Y24545828D01*
X31617891Y24548422D01*
X31634338Y24549500D01*
X32145662Y24549500D01*
X32162109Y24548422D01*
X32190000Y24544750D01*
X32224945Y24549351D01*
X32226443Y24549500D01*
X32227785Y24549500D01*
X32231366Y24549991D01*
X32231380Y24549992D01*
X32269611Y24555230D01*
X32270267Y24555318D01*
X32325520Y24562592D01*
X32333709Y24563670D01*
X32334936Y24564178D01*
X32339432Y24564794D01*
X32405826Y24593525D01*
X32407586Y24594270D01*
X32460001Y24615981D01*
X32467625Y24619139D01*
X32471000Y24621728D01*
X32477855Y24624695D01*
X32505302Y24646921D01*
X32570829Y24674246D01*
X32584596Y24675000D01*
X40064817Y24675000D01*
X40131212Y24656087D01*
X40141565Y24649668D01*
X40151875Y24642543D01*
X40168095Y24630097D01*
X40182375Y24619139D01*
X40190003Y24615980D01*
X40190004Y24615979D01*
X40198293Y24612546D01*
X40216476Y24603222D01*
X40233986Y24592365D01*
X40242240Y24589967D01*
X40270954Y24581625D01*
X40284022Y24577036D01*
X40308661Y24566830D01*
X40308664Y24566829D01*
X40316291Y24563670D01*
X40324472Y24562593D01*
X40324475Y24562592D01*
X40336902Y24560956D01*
X40355596Y24557033D01*
X40378825Y24550285D01*
X40386308Y24549735D01*
X40387208Y24549669D01*
X40387219Y24549669D01*
X40389515Y24549500D01*
X40415662Y24549500D01*
X40432109Y24548422D01*
X40460000Y24544750D01*
X40468188Y24545828D01*
X40487891Y24548422D01*
X40504338Y24549500D01*
X41015662Y24549500D01*
X41032109Y24548422D01*
X41060000Y24544750D01*
X41068188Y24545828D01*
X41087891Y24548422D01*
X41104338Y24549500D01*
X41615662Y24549500D01*
X41632109Y24548422D01*
X41660000Y24544750D01*
X41668188Y24545828D01*
X41687891Y24548422D01*
X41704338Y24549500D01*
X42215662Y24549500D01*
X42232109Y24548422D01*
X42260000Y24544750D01*
X42294945Y24549351D01*
X42296443Y24549500D01*
X42297785Y24549500D01*
X42301366Y24549991D01*
X42301380Y24549992D01*
X42339611Y24555230D01*
X42340267Y24555318D01*
X42395520Y24562592D01*
X42403709Y24563670D01*
X42404936Y24564178D01*
X42409432Y24564794D01*
X42475826Y24593525D01*
X42477586Y24594270D01*
X42530001Y24615981D01*
X42537625Y24619139D01*
X42541000Y24621728D01*
X42547855Y24624695D01*
X42575302Y24646921D01*
X42640829Y24674246D01*
X42654596Y24675000D01*
X52050031Y24675000D01*
X52118152Y24654998D01*
X52136387Y24640753D01*
X52748998Y24064178D01*
X53375000Y23475000D01*
X54550000Y23475000D01*
X55375000Y24325000D01*
X55375000Y25750000D01*
X54890515Y26234485D01*
X54856489Y26296797D01*
X54861554Y26367612D01*
X54904101Y26424448D01*
X54931393Y26439989D01*
X54969993Y26455977D01*
X54969998Y26455980D01*
X54977625Y26459139D01*
X55092621Y26547379D01*
X55180861Y26662375D01*
X55236330Y26796291D01*
X55255250Y26940000D01*
X55236330Y27083709D01*
X55180861Y27217625D01*
X55161161Y27243298D01*
X55135562Y27309517D01*
X55149827Y27379065D01*
X55161158Y27396698D01*
X55180861Y27422375D01*
X55236330Y27556291D01*
X55255250Y27700000D01*
X55236330Y27843709D01*
X55180861Y27977625D01*
X55092621Y28092621D01*
X54977625Y28180861D01*
X54843709Y28236330D01*
X54700000Y28255250D01*
X54556291Y28236330D01*
X54422375Y28180861D01*
X54307379Y28092621D01*
X54219139Y27977625D01*
X54163670Y27843709D01*
X54159353Y27810921D01*
X54149626Y27737039D01*
X54120903Y27672112D01*
X54061638Y27633021D01*
X53990646Y27632176D01*
X53935609Y27664391D01*
X52825000Y28775000D01*
X14772531Y28775000D01*
X14704410Y28795002D01*
X14657917Y28848658D01*
X14647813Y28918932D01*
X14656122Y28949217D01*
X14693168Y29038657D01*
X14693169Y29038660D01*
X14696330Y29046291D01*
X14715250Y29190000D01*
X14696330Y29333709D01*
X14640861Y29467625D01*
X14552621Y29582621D01*
X14437625Y29670861D01*
X14303709Y29726330D01*
X14160000Y29745250D01*
X14016291Y29726330D01*
X13882375Y29670861D01*
X13767379Y29582621D01*
X13679139Y29467625D01*
X13623670Y29333709D01*
X13604750Y29190000D01*
X13623670Y29046291D01*
X13679139Y28912375D01*
X13727930Y28848790D01*
X13746538Y28824539D01*
X13772139Y28758319D01*
X13757874Y28688770D01*
X13736419Y28659494D01*
X13321368Y28237408D01*
X12387701Y27287917D01*
X12387700Y27287915D01*
X12375000Y27275000D01*
X12375000Y11246786D01*
X12354998Y11178665D01*
X12301342Y11132172D01*
X12231068Y11122068D01*
X12173490Y11145918D01*
X12012988Y11266073D01*
X11824528Y11368984D01*
X11744370Y11398883D01*
X11627559Y11442455D01*
X11627555Y11442456D01*
X11623341Y11444028D01*
X11413522Y11489677D01*
X11206985Y11504454D01*
X11199343Y11505802D01*
X11199334Y11505800D01*
X11199325Y11505802D01*
X11187088Y11503644D01*
X11175236Y11503905D01*
X11165676Y11504479D01*
X11036061Y11517242D01*
X11011834Y11522061D01*
X10866721Y11566078D01*
X10843905Y11575528D01*
X10710161Y11647013D01*
X10689623Y11660736D01*
X10572396Y11756942D01*
X10554943Y11774395D01*
X10458732Y11891629D01*
X10445013Y11912162D01*
X10392259Y12010859D01*
X10373530Y12045899D01*
X10364078Y12068718D01*
X10358221Y12088029D01*
X10320061Y12213833D01*
X10315242Y12238058D01*
X10314143Y12249226D01*
X10302495Y12367518D01*
X10301889Y12379868D01*
X10301889Y12390466D01*
X10303804Y12401324D01*
X10301082Y12416763D01*
X10299169Y12438637D01*
X10299170Y12441934D01*
X10299574Y23611291D01*
X10299820Y30380000D01*
X15784750Y30380000D01*
X15803670Y30236291D01*
X15859139Y30102375D01*
X15947379Y29987379D01*
X16062375Y29899139D01*
X16196291Y29843670D01*
X16340000Y29824750D01*
X16483709Y29843670D01*
X16617625Y29899139D01*
X16732621Y29987379D01*
X16737347Y29993538D01*
X16799459Y30027455D01*
X16870274Y30022390D01*
X16926204Y29981039D01*
X16967379Y29927379D01*
X17082375Y29839139D01*
X17216291Y29783670D01*
X17360000Y29764750D01*
X17503709Y29783670D01*
X17637625Y29839139D01*
X17647650Y29846831D01*
X17715818Y29899139D01*
X17743297Y29920224D01*
X17809516Y29945825D01*
X17879065Y29931561D01*
X17896701Y29920226D01*
X17924182Y29899139D01*
X17992351Y29846831D01*
X18002375Y29839139D01*
X18136291Y29783670D01*
X18280000Y29764750D01*
X18423709Y29783670D01*
X18557625Y29839139D01*
X18672621Y29927379D01*
X18760861Y30042375D01*
X18816330Y30176291D01*
X18835250Y30320000D01*
X18827351Y30380000D01*
X25794750Y30380000D01*
X25813670Y30236291D01*
X25869139Y30102375D01*
X25957379Y29987379D01*
X26072375Y29899139D01*
X26206291Y29843670D01*
X26350000Y29824750D01*
X26493709Y29843670D01*
X26627625Y29899139D01*
X26742621Y29987379D01*
X26747583Y29993845D01*
X26809852Y30027848D01*
X26880667Y30022783D01*
X26936597Y29981431D01*
X26947379Y29967379D01*
X27062375Y29879139D01*
X27196291Y29823670D01*
X27340000Y29804750D01*
X27483709Y29823670D01*
X27617625Y29879139D01*
X27643690Y29899139D01*
X27710264Y29950224D01*
X27723297Y29960224D01*
X27789516Y29985825D01*
X27859065Y29971561D01*
X27876701Y29960226D01*
X27889736Y29950224D01*
X27956311Y29899139D01*
X27982375Y29879139D01*
X28116291Y29823670D01*
X28260000Y29804750D01*
X28403709Y29823670D01*
X28537625Y29879139D01*
X28652621Y29967379D01*
X28740861Y30082375D01*
X28796330Y30216291D01*
X28815250Y30360000D01*
X28812617Y30380000D01*
X35764750Y30380000D01*
X35783670Y30236291D01*
X35839139Y30102375D01*
X35927379Y29987379D01*
X36042375Y29899139D01*
X36176291Y29843670D01*
X36320000Y29824750D01*
X36463709Y29843670D01*
X36597625Y29899139D01*
X36712621Y29987379D01*
X36717647Y29993929D01*
X36723488Y29999770D01*
X36725763Y29997495D01*
X36770867Y30030429D01*
X36841738Y30034650D01*
X36903640Y29999885D01*
X36913452Y29988561D01*
X36918216Y29982353D01*
X36937379Y29957379D01*
X37052375Y29869139D01*
X37186291Y29813670D01*
X37330000Y29794750D01*
X37473709Y29813670D01*
X37607625Y29869139D01*
X37620658Y29879139D01*
X37683524Y29927379D01*
X37713297Y29950224D01*
X37779516Y29975825D01*
X37849065Y29961561D01*
X37866701Y29950226D01*
X37896476Y29927379D01*
X37959343Y29879139D01*
X37972375Y29869139D01*
X38106291Y29813670D01*
X38250000Y29794750D01*
X38393709Y29813670D01*
X38527625Y29869139D01*
X38642621Y29957379D01*
X38730861Y30072375D01*
X38786330Y30206291D01*
X38805250Y30350000D01*
X38801300Y30380000D01*
X45734750Y30380000D01*
X45753670Y30236291D01*
X45809139Y30102375D01*
X45897379Y29987379D01*
X46012375Y29899139D01*
X46146291Y29843670D01*
X46290000Y29824750D01*
X46433709Y29843670D01*
X46567625Y29899139D01*
X46682621Y29987379D01*
X46705039Y30016595D01*
X46762376Y30058461D01*
X46833247Y30062682D01*
X46895150Y30027917D01*
X46904957Y30016600D01*
X46927379Y29987379D01*
X47042375Y29899139D01*
X47176291Y29843670D01*
X47320000Y29824750D01*
X47463709Y29843670D01*
X47597625Y29899139D01*
X47625104Y29920224D01*
X47677232Y29960224D01*
X47703297Y29980224D01*
X47769516Y30005825D01*
X47839065Y29991561D01*
X47856701Y29980226D01*
X47882768Y29960224D01*
X47934897Y29920224D01*
X47962375Y29899139D01*
X48096291Y29843670D01*
X48240000Y29824750D01*
X48383709Y29843670D01*
X48517625Y29899139D01*
X48632621Y29987379D01*
X48720861Y30102375D01*
X48776330Y30236291D01*
X48795250Y30380000D01*
X48776330Y30523709D01*
X48720861Y30657625D01*
X48632621Y30772621D01*
X48517625Y30860861D01*
X48383709Y30916330D01*
X48240000Y30935250D01*
X48096291Y30916330D01*
X47962375Y30860861D01*
X47955824Y30855834D01*
X47955822Y30855833D01*
X47914556Y30824168D01*
X47877630Y30795833D01*
X47856704Y30779776D01*
X47790484Y30754175D01*
X47720935Y30768439D01*
X47703296Y30779776D01*
X47682371Y30795833D01*
X47645444Y30824168D01*
X47604178Y30855833D01*
X47604176Y30855834D01*
X47597625Y30860861D01*
X47463709Y30916330D01*
X47320000Y30935250D01*
X47176291Y30916330D01*
X47042375Y30860861D01*
X46927379Y30772621D01*
X46904961Y30743405D01*
X46847624Y30701539D01*
X46776753Y30697318D01*
X46714850Y30732083D01*
X46705043Y30743400D01*
X46682621Y30772621D01*
X46567625Y30860861D01*
X46433709Y30916330D01*
X46290000Y30935250D01*
X46146291Y30916330D01*
X46012375Y30860861D01*
X45897379Y30772621D01*
X45809139Y30657625D01*
X45753670Y30523709D01*
X45734750Y30380000D01*
X38801300Y30380000D01*
X38786330Y30493709D01*
X38730861Y30627625D01*
X38642621Y30742621D01*
X38527625Y30830861D01*
X38393709Y30886330D01*
X38250000Y30905250D01*
X38106291Y30886330D01*
X37972375Y30830861D01*
X37965824Y30825834D01*
X37965822Y30825833D01*
X37919288Y30790125D01*
X37870412Y30752621D01*
X37866704Y30749776D01*
X37800484Y30724175D01*
X37730935Y30738439D01*
X37713296Y30749776D01*
X37709589Y30752621D01*
X37660712Y30790125D01*
X37614178Y30825833D01*
X37614176Y30825834D01*
X37607625Y30830861D01*
X37473709Y30886330D01*
X37330000Y30905250D01*
X37186291Y30886330D01*
X37052375Y30830861D01*
X36937379Y30742621D01*
X36932353Y30736071D01*
X36926512Y30730230D01*
X36924237Y30732505D01*
X36879133Y30699571D01*
X36808262Y30695350D01*
X36746360Y30730115D01*
X36736548Y30741439D01*
X36717647Y30766071D01*
X36712621Y30772621D01*
X36597625Y30860861D01*
X36463709Y30916330D01*
X36320000Y30935250D01*
X36176291Y30916330D01*
X36042375Y30860861D01*
X35927379Y30772621D01*
X35839139Y30657625D01*
X35783670Y30523709D01*
X35764750Y30380000D01*
X28812617Y30380000D01*
X28796330Y30503709D01*
X28740861Y30637625D01*
X28652621Y30752621D01*
X28537625Y30840861D01*
X28403709Y30896330D01*
X28260000Y30915250D01*
X28116291Y30896330D01*
X27982375Y30840861D01*
X27975824Y30835834D01*
X27975822Y30835833D01*
X27962790Y30825833D01*
X27880374Y30762592D01*
X27876704Y30759776D01*
X27810484Y30734175D01*
X27740935Y30748439D01*
X27723296Y30759776D01*
X27719627Y30762592D01*
X27637210Y30825833D01*
X27624178Y30835833D01*
X27624176Y30835834D01*
X27617625Y30840861D01*
X27483709Y30896330D01*
X27340000Y30915250D01*
X27196291Y30896330D01*
X27062375Y30840861D01*
X26947379Y30752621D01*
X26942417Y30746155D01*
X26880148Y30712152D01*
X26809333Y30717217D01*
X26753403Y30758569D01*
X26742621Y30772621D01*
X26627625Y30860861D01*
X26493709Y30916330D01*
X26350000Y30935250D01*
X26206291Y30916330D01*
X26072375Y30860861D01*
X25957379Y30772621D01*
X25869139Y30657625D01*
X25813670Y30523709D01*
X25794750Y30380000D01*
X18827351Y30380000D01*
X18816330Y30463709D01*
X18760861Y30597625D01*
X18672621Y30712621D01*
X18557625Y30800861D01*
X18423709Y30856330D01*
X18280000Y30875250D01*
X18136291Y30856330D01*
X18002375Y30800861D01*
X17995824Y30795834D01*
X17995822Y30795833D01*
X17972122Y30777647D01*
X17902437Y30724175D01*
X17896704Y30719776D01*
X17830484Y30694175D01*
X17760935Y30708439D01*
X17743296Y30719776D01*
X17737564Y30724175D01*
X17667878Y30777647D01*
X17644178Y30795833D01*
X17644176Y30795834D01*
X17637625Y30800861D01*
X17503709Y30856330D01*
X17360000Y30875250D01*
X17216291Y30856330D01*
X17082375Y30800861D01*
X16967379Y30712621D01*
X16962653Y30706462D01*
X16900541Y30672545D01*
X16829726Y30677610D01*
X16773796Y30718961D01*
X16755641Y30742621D01*
X16732621Y30772621D01*
X16617625Y30860861D01*
X16483709Y30916330D01*
X16340000Y30935250D01*
X16196291Y30916330D01*
X16062375Y30860861D01*
X15947379Y30772621D01*
X15859139Y30657625D01*
X15803670Y30523709D01*
X15784750Y30380000D01*
X10299820Y30380000D01*
X10299853Y31300000D01*
X56044750Y31300000D01*
X56063670Y31156291D01*
X56119139Y31022375D01*
X56207379Y30907379D01*
X56322375Y30819139D01*
X56456291Y30763670D01*
X56600000Y30744750D01*
X56743709Y30763670D01*
X56877625Y30819139D01*
X56992621Y30907379D01*
X56993605Y30908661D01*
X57053217Y30941213D01*
X57124032Y30936148D01*
X57166000Y30909176D01*
X57167379Y30907379D01*
X57282375Y30819139D01*
X57416291Y30763670D01*
X57560000Y30744750D01*
X57703709Y30763670D01*
X57837625Y30819139D01*
X57952621Y30907379D01*
X58040861Y31022375D01*
X58096330Y31156291D01*
X58115250Y31300000D01*
X58096330Y31443709D01*
X58040861Y31577625D01*
X57952621Y31692621D01*
X57837625Y31780861D01*
X57703709Y31836330D01*
X57560000Y31855250D01*
X57416291Y31836330D01*
X57282375Y31780861D01*
X57167379Y31692621D01*
X57166395Y31691339D01*
X57106783Y31658787D01*
X57035968Y31663852D01*
X56994000Y31690824D01*
X56992621Y31692621D01*
X56877625Y31780861D01*
X56743709Y31836330D01*
X56600000Y31855250D01*
X56456291Y31836330D01*
X56322375Y31780861D01*
X56207379Y31692621D01*
X56119139Y31577625D01*
X56063670Y31443709D01*
X56044750Y31300000D01*
X10299853Y31300000D01*
X10299875Y31902681D01*
X10301789Y31924553D01*
X10302598Y31929142D01*
X10302598Y31929146D01*
X10304512Y31940000D01*
X10302598Y31950855D01*
X10302598Y31961878D01*
X10302963Y31961878D01*
X10302325Y31974237D01*
X10316538Y32172962D01*
X10319096Y32190756D01*
X10366827Y32410174D01*
X10371892Y32427424D01*
X10395867Y32491702D01*
X10450367Y32637823D01*
X10457834Y32654171D01*
X10565446Y32851247D01*
X10575165Y32866370D01*
X10709734Y33046133D01*
X10721507Y33059719D01*
X10880281Y33218493D01*
X10893867Y33230266D01*
X11073630Y33364835D01*
X11088749Y33374552D01*
X11285833Y33482168D01*
X11302177Y33489633D01*
X11512582Y33568110D01*
X11529821Y33573172D01*
X11749244Y33620904D01*
X11767038Y33623462D01*
X11965763Y33637675D01*
X11978122Y33637037D01*
X11978122Y33637402D01*
X11989145Y33637402D01*
X12000000Y33635488D01*
X12015437Y33638210D01*
X12037317Y33640124D01*
X63962683Y33640124D01*
X63984563Y33638210D01*
G37*
G04 #@! TD.AperFunction*
G04 #@! TD*
G04 #@! TA.AperFunction,Conductor*
G04 #@! TO.N,5V*
G36*
X52665931Y28454998D02*
G01*
X52686905Y28438095D01*
X53938095Y27186905D01*
X53972121Y27124593D01*
X53975000Y27097810D01*
X53975000Y26700000D01*
X55038095Y25636905D01*
X55072121Y25574593D01*
X55075000Y25547810D01*
X55075000Y24552190D01*
X55054998Y24484069D01*
X55038095Y24463095D01*
X54386905Y23811905D01*
X54324593Y23777879D01*
X54297810Y23775000D01*
X53552190Y23775000D01*
X53484069Y23795002D01*
X53463095Y23811905D01*
X52300000Y24975000D01*
X50956703Y24975000D01*
X50897687Y24990814D01*
X50897625Y24990861D01*
X50763709Y25046330D01*
X50620000Y25065250D01*
X50476291Y25046330D01*
X50342375Y24990861D01*
X50342313Y24990814D01*
X50283297Y24975000D01*
X16225000Y24975000D01*
X15900000Y24650000D01*
X15900000Y11050000D01*
X17363095Y9586905D01*
X17397121Y9524593D01*
X17400000Y9497810D01*
X17400000Y7253249D01*
X17399833Y7247506D01*
X17399500Y7244646D01*
X17399500Y3026000D01*
X17379498Y2957879D01*
X17325842Y2911386D01*
X17273500Y2900000D01*
X12826500Y2900000D01*
X12758379Y2920002D01*
X12711886Y2973658D01*
X12700500Y3026000D01*
X12700500Y9962683D01*
X12702414Y9984563D01*
X12703222Y9989144D01*
X12703222Y9989145D01*
X12705136Y10000000D01*
X12703731Y10007967D01*
X12700321Y10055647D01*
X12700000Y10064635D01*
X12700000Y27047810D01*
X12720002Y27115931D01*
X12736905Y27136905D01*
X14038095Y28438095D01*
X14100407Y28472121D01*
X14127190Y28475000D01*
X52597810Y28475000D01*
X52665931Y28454998D01*
G37*
G04 #@! TD.AperFunction*
G04 #@! TD*
M02*
