G04 #@! TF.GenerationSoftware,KiCad,Pcbnew,(6.0.0)*
G04 #@! TF.CreationDate,2022-01-13T15:14:47+08:00*
G04 #@! TF.ProjectId,PowerSupply,506f7765-7253-4757-9070-6c792e6b6963,rev?*
G04 #@! TF.SameCoordinates,PX5e56640PY77750e0*
G04 #@! TF.FileFunction,Copper,L2,Inr*
G04 #@! TF.FilePolarity,Positive*
%FSLAX46Y46*%
G04 Gerber Fmt 4.6, Leading zero omitted, Abs format (unit mm)*
G04 Created by KiCad (PCBNEW (6.0.0)) date 2022-01-13 15:14:47*
%MOMM*%
%LPD*%
G01*
G04 APERTURE LIST*
G04 #@! TA.AperFunction,ViaPad*
%ADD10C,0.500000*%
G04 #@! TD*
G04 #@! TA.AperFunction,Conductor*
%ADD11C,0.500000*%
G04 #@! TD*
G04 APERTURE END LIST*
D10*
G04 #@! TO.N,GND*
X48330000Y24310001D03*
X49430000Y24310000D03*
X48879999Y24310001D03*
X38849999Y24320000D03*
X39400000Y24320000D03*
X29680000Y24300000D03*
X29130000Y24300000D03*
X28580001Y24300000D03*
X11690000Y29590000D03*
X10690000Y29590000D03*
X65390000Y29490000D03*
X64390000Y29490000D03*
X18070000Y24320000D03*
X18619999Y24320000D03*
X19170000Y24320000D03*
X57429999Y14305001D03*
X57970000Y15005000D03*
X56870000Y15005001D03*
X56880000Y14305001D03*
X57980000Y14305000D03*
X57419999Y15005001D03*
X57970000Y13605000D03*
X57419999Y13605001D03*
X56880000Y12905001D03*
X57980000Y12905000D03*
X56870000Y13605001D03*
X57429999Y12905001D03*
X58680000Y12905001D03*
X59219999Y13605001D03*
X59770000Y13605000D03*
X59780000Y12905000D03*
X58670000Y13605001D03*
X59229999Y12905001D03*
X59219999Y15005001D03*
X59780000Y14305000D03*
X59229999Y14305001D03*
X58670000Y15005001D03*
X59770000Y15005000D03*
X58680000Y14305001D03*
X57075000Y26693334D03*
X57750000Y26693334D03*
X56400000Y26703334D03*
X57065000Y25916668D03*
X56390001Y25926668D03*
X57740000Y25916668D03*
X56390000Y25150000D03*
X57065000Y25140000D03*
X57740000Y25140000D03*
X13160000Y33320000D03*
X14160000Y33320000D03*
X15160000Y33320000D03*
X16160000Y33320000D03*
X17160000Y33320000D03*
X18160000Y33320000D03*
X19160000Y33320000D03*
X20160000Y33320000D03*
X21160000Y33320000D03*
X22160000Y33320000D03*
X23160000Y33320000D03*
X24160000Y33320000D03*
X25160000Y33320000D03*
X26160000Y33320000D03*
X27160000Y33320000D03*
X28160000Y33320000D03*
X29160000Y33320000D03*
X30160000Y33320000D03*
X31160000Y33320000D03*
X32160000Y33320000D03*
X33160000Y33320000D03*
X34160000Y33320000D03*
X35160000Y33320000D03*
X36160000Y33320000D03*
X37160000Y33320000D03*
X38160000Y33320000D03*
X39160000Y33320000D03*
X40160000Y33320000D03*
X41160000Y33320000D03*
X42160000Y33320000D03*
X43160000Y33320000D03*
X44160000Y33320000D03*
X45160000Y33320000D03*
X46160000Y33320000D03*
X47160000Y33320000D03*
X48160000Y33320000D03*
X49160000Y33320000D03*
X50160000Y33320000D03*
X51160000Y33320000D03*
X52160000Y33320000D03*
X53160000Y33320000D03*
X54160000Y33320000D03*
X55160000Y33320000D03*
X56160000Y33320000D03*
X57160000Y33320000D03*
X58160000Y33320000D03*
X59160000Y33320000D03*
X60160000Y33320000D03*
X61160000Y33320000D03*
X12290000Y32130000D03*
X13160000Y32320000D03*
X14160000Y32320000D03*
X15160000Y32320000D03*
X16160000Y32320000D03*
X17160000Y32320000D03*
X18160000Y32320000D03*
X19160000Y32320000D03*
X20160000Y32320000D03*
X21160000Y32320000D03*
X22160000Y32320000D03*
X23160000Y32320000D03*
X24160000Y32320000D03*
X25160000Y32320000D03*
X26160000Y32320000D03*
X27160000Y32320000D03*
X28160000Y32320000D03*
X29160000Y32320000D03*
X30160000Y32320000D03*
X31160000Y32320000D03*
X32160000Y32320000D03*
X33160000Y32320000D03*
X34160000Y32320000D03*
X35160000Y32320000D03*
X36160000Y32320000D03*
X37160000Y32320000D03*
X38160000Y32320000D03*
X39160000Y32320000D03*
X40160000Y32320000D03*
X41160000Y32320000D03*
X42160000Y32320000D03*
X43160000Y32320000D03*
X44160000Y32320000D03*
X45160000Y32320000D03*
X46160000Y32320000D03*
X47160000Y32320000D03*
X48160000Y32320000D03*
X49160000Y32320000D03*
X50160000Y32320000D03*
X51160000Y32320000D03*
X52160000Y32320000D03*
X53160000Y32320000D03*
X54160000Y32320000D03*
X55160000Y32320000D03*
X56160000Y32320000D03*
X57160000Y32320000D03*
X58160000Y32320000D03*
X59160000Y32320000D03*
X60160000Y32320000D03*
X61160000Y32320000D03*
X62160000Y32320000D03*
X62160000Y33320000D03*
X63160000Y32320000D03*
X63160000Y33320000D03*
X63860000Y32050000D03*
X64160000Y33320000D03*
X11300000Y33020000D03*
X10670000Y31600000D03*
X11780000Y31470000D03*
X10690000Y30590000D03*
X11690000Y30590000D03*
X10690000Y28590000D03*
X11690000Y28590000D03*
X10690000Y27590000D03*
X11690000Y27590000D03*
X10690000Y26590000D03*
X11690000Y26590000D03*
X10690000Y25590000D03*
X11690000Y25590000D03*
X10690000Y24590000D03*
X11690000Y24590000D03*
X10690000Y23590000D03*
X11690000Y23590000D03*
X10690000Y22590000D03*
X11690000Y22590000D03*
X10690000Y21590000D03*
X11690000Y21590000D03*
X10690000Y20590000D03*
X11690000Y20590000D03*
X10690000Y19590000D03*
X11690000Y19590000D03*
X10690000Y18590000D03*
X11690000Y18590000D03*
X10690000Y17590000D03*
X11690000Y17590000D03*
X10690000Y16590000D03*
X11690000Y16590000D03*
X10690000Y15590000D03*
X11690000Y15590000D03*
X10690000Y14590000D03*
X11690000Y14590000D03*
X10690000Y13590000D03*
X11690000Y13590000D03*
X10690000Y12590000D03*
X11690000Y12590000D03*
X11690000Y11590000D03*
X41690000Y11590000D03*
X42690000Y11590000D03*
X43690000Y11590000D03*
X44690000Y11590000D03*
X45690000Y11590000D03*
X46690000Y11590000D03*
X47690000Y11590000D03*
X48690000Y11590000D03*
X49690000Y11590000D03*
X50690000Y11590000D03*
X51690000Y11590000D03*
X52690000Y11590000D03*
X53690000Y11590000D03*
X54690000Y11590000D03*
X55690000Y11590000D03*
X56690000Y11590000D03*
X57690000Y11590000D03*
X58690000Y11590000D03*
X59690000Y11590000D03*
X60690000Y11590000D03*
X61690000Y11590000D03*
X62690000Y11590000D03*
X63600000Y11860000D03*
X33690000Y10590000D03*
X34690000Y10590000D03*
X35690000Y10590000D03*
X36690000Y10590000D03*
X37690000Y10590000D03*
X38690000Y10590000D03*
X39690000Y10590000D03*
X40690000Y10590000D03*
X41690000Y10590000D03*
X42690000Y10590000D03*
X43690000Y10590000D03*
X44690000Y10590000D03*
X45690000Y10590000D03*
X46690000Y10590000D03*
X47690000Y10590000D03*
X48690000Y10590000D03*
X49690000Y10590000D03*
X50690000Y10590000D03*
X51690000Y10590000D03*
X52690000Y10590000D03*
X53690000Y10590000D03*
X54690000Y10590000D03*
X55690000Y10590000D03*
X56690000Y10590000D03*
X57690000Y10590000D03*
X58690000Y10590000D03*
X59690000Y10590000D03*
X60690000Y10590000D03*
X61690000Y10590000D03*
X62690000Y10590000D03*
X63690000Y10590000D03*
X64870000Y32980000D03*
X64290000Y31450000D03*
X65380000Y31520000D03*
X64390000Y30490000D03*
X65380000Y30500000D03*
X64390000Y28490000D03*
X65390000Y28490000D03*
X64390000Y27490000D03*
X65390000Y27490000D03*
X64390000Y26490000D03*
X65390000Y26490000D03*
X64390000Y25490000D03*
X65390000Y25490000D03*
X64390000Y24490000D03*
X65390000Y24490000D03*
X64390000Y23490000D03*
X65390000Y23490000D03*
X64390000Y22490000D03*
X65390000Y22490000D03*
X64390000Y21490000D03*
X65390000Y21490000D03*
X64390000Y20490000D03*
X65390000Y20490000D03*
X64390000Y19490000D03*
X65390000Y19490000D03*
X64390000Y18490000D03*
X65390000Y18490000D03*
X64390000Y17490000D03*
X65390000Y17490000D03*
X64390000Y16490000D03*
X65390000Y16490000D03*
X64390000Y15490000D03*
X65390000Y15490000D03*
X64390000Y14490000D03*
X65390000Y14490000D03*
X64390000Y13490000D03*
X65390000Y13490000D03*
X64210000Y12480000D03*
X65390000Y12550000D03*
X65320000Y11760000D03*
X64440000Y10700000D03*
X21660000Y32820000D03*
X36660000Y32820000D03*
X52660000Y32820000D03*
X53660000Y32820000D03*
X54660000Y32820000D03*
X59660000Y32820000D03*
X43660000Y32820000D03*
X44660000Y32820000D03*
X48660000Y32820000D03*
X19660000Y32820000D03*
X51660000Y32820000D03*
X28660000Y32820000D03*
X56660000Y32820000D03*
X22660000Y32820000D03*
X37660000Y32820000D03*
X27660000Y32820000D03*
X55660000Y32820000D03*
X39660000Y32820000D03*
X46660000Y32820000D03*
X50660000Y32820000D03*
X31660000Y32820000D03*
X20660000Y32820000D03*
X23660000Y32820000D03*
X34660000Y32820000D03*
X32660000Y32820000D03*
X29660000Y32820000D03*
X57660000Y32820000D03*
X61660000Y32820000D03*
X45660000Y32820000D03*
X49660000Y32820000D03*
X41660000Y32820000D03*
X18660000Y32820000D03*
X60660000Y32820000D03*
X30660000Y32820000D03*
X42660000Y32820000D03*
X24660000Y32820000D03*
X58660000Y32820000D03*
X40660000Y32820000D03*
X33660000Y32820000D03*
X25660000Y32820000D03*
X35660000Y32820000D03*
X26660000Y32820000D03*
X38660000Y32820000D03*
X47660000Y32820000D03*
X62660000Y32820000D03*
X63660000Y32820000D03*
X64370000Y32530000D03*
X12590000Y32770000D03*
X13660000Y32820000D03*
X14660000Y32820000D03*
X15660000Y32820000D03*
X16660000Y32820000D03*
X17660000Y32820000D03*
X64770000Y31920000D03*
X64890000Y31060000D03*
X64900000Y29990000D03*
X64890000Y17980000D03*
X64890000Y13980000D03*
X64100000Y11360000D03*
X64890000Y27980000D03*
X64890000Y21980000D03*
X64890000Y25980000D03*
X64890000Y20980000D03*
X64890000Y15980000D03*
X64820000Y12910000D03*
X64890000Y14980000D03*
X64890000Y24980000D03*
X64890000Y23980000D03*
X64890000Y19980000D03*
X64890000Y16980000D03*
X64890000Y22980000D03*
X64890000Y18980000D03*
X64890000Y26980000D03*
X64890000Y28980000D03*
X10850000Y32400000D03*
X11190000Y27110000D03*
X11190000Y20110000D03*
X11190000Y29110000D03*
X11190000Y19110000D03*
X11190000Y31110000D03*
X11190000Y28110000D03*
X11190000Y26110000D03*
X11190000Y24110000D03*
X11190000Y23110000D03*
X11190000Y22110000D03*
X11190000Y21110000D03*
X11190000Y25110000D03*
X11190000Y15110000D03*
X11190000Y13110000D03*
X11190000Y14110000D03*
X11190000Y17110000D03*
X11190000Y18110000D03*
X11190000Y16110000D03*
X11190000Y30110000D03*
X11190000Y12090000D03*
X47210000Y11080000D03*
X54210000Y11080000D03*
X41210000Y11080000D03*
X43210000Y11080000D03*
X62210000Y11080000D03*
X55210000Y11080000D03*
X48210000Y11080000D03*
X61210000Y11080000D03*
X49210000Y11080000D03*
X51210000Y11080000D03*
X58210000Y11080000D03*
X57210000Y11080000D03*
X56210000Y11080000D03*
X50210000Y11080000D03*
X42210000Y11080000D03*
X44210000Y11080000D03*
X45210000Y11080000D03*
X46210000Y11080000D03*
X60210000Y11080000D03*
X53210000Y11080000D03*
X59210000Y11080000D03*
X63210000Y11080000D03*
X52210000Y11080000D03*
X11800000Y32570000D03*
X11360000Y31990000D03*
X65310000Y32360000D03*
X64650000Y11940000D03*
X64980000Y11120000D03*
X57019999Y18505001D03*
X57570000Y18505000D03*
X56470000Y18505001D03*
X57029999Y17805001D03*
X56480000Y17805001D03*
X57580000Y17805000D03*
X23920000Y22730000D03*
X23920000Y22130000D03*
X23920000Y21530000D03*
X24520000Y22730000D03*
X25130000Y22730000D03*
X35410000Y22640000D03*
X34200000Y22640000D03*
X34200000Y21440000D03*
X34800000Y22640000D03*
X34200000Y22040000D03*
X44190000Y22070000D03*
X45400000Y22670000D03*
X44190000Y21470000D03*
X44190000Y22670000D03*
X44790000Y22670000D03*
X57019999Y19895001D03*
X56480000Y19195001D03*
X56470000Y19895001D03*
X57570000Y19895000D03*
X57580000Y19195000D03*
X57029999Y19195001D03*
X55279999Y19895001D03*
X54740000Y19195001D03*
X55840000Y19195000D03*
X55830000Y19895000D03*
X54730000Y19895001D03*
X55289999Y19195001D03*
X53590000Y19195001D03*
X54139999Y19195001D03*
X53580000Y19895001D03*
X54129999Y19895001D03*
X56390001Y27480000D03*
X57740000Y27470000D03*
X38300000Y24320000D03*
X12160000Y33320000D03*
X57060000Y29060000D03*
X57065000Y27470000D03*
G04 #@! TO.N,+3V3*
X48980000Y27800000D03*
X48310000Y20530000D03*
G04 #@! TO.N,+5V*
X50860000Y26380000D03*
X51500000Y26380000D03*
X31040000Y26370000D03*
X31690000Y26370000D03*
X40880000Y26380000D03*
X41570000Y26380000D03*
X54200000Y25220000D03*
X54770000Y25460000D03*
X53910000Y24690000D03*
X53600000Y24150000D03*
X54200000Y24150000D03*
X20580000Y26340000D03*
X21260000Y26340000D03*
X20970000Y26860000D03*
X21640000Y26860000D03*
X31410000Y26860000D03*
X32060000Y26860000D03*
X24050000Y25630000D03*
X41280000Y26910000D03*
X41970000Y26910000D03*
X33930000Y25640000D03*
X51260000Y26900000D03*
X51900000Y26900000D03*
X43950000Y25640000D03*
X13720000Y25640000D03*
X53580000Y25220000D03*
G04 #@! TO.N,+1V2*
X18870000Y27840000D03*
X18060000Y20470000D03*
G04 #@! TO.N,+1V5*
X29180000Y27790000D03*
X28510000Y20410000D03*
G04 #@! TO.N,+2V5*
X39030000Y27800000D03*
X38310000Y20470000D03*
G04 #@! TO.N,Net-(1V2-Pad1)*
X14180002Y28840000D03*
X20160000Y27660000D03*
G04 #@! TO.N,Net-(1V5-Pad1)*
X23540000Y28810000D03*
X30530000Y27720000D03*
G04 #@! TO.N,Net-(2V5-Pad1)*
X40470000Y27730000D03*
X34380000Y28870000D03*
G04 #@! TO.N,Net-(3V3-Pad1)*
X50320000Y27780000D03*
X44410000Y28830000D03*
G04 #@! TO.N,Net-(C3-Pad1)*
X56600000Y31300000D03*
X54750000Y27700000D03*
G04 #@! TO.N,Net-(R34-Pad2)*
X57560000Y31300000D03*
X54740000Y26940000D03*
G04 #@! TO.N,REG_EN2*
X52925000Y15350000D03*
X26050000Y8690000D03*
G04 #@! TO.N,REG_EN1*
X53420000Y17785000D03*
X27050000Y9630000D03*
G04 #@! TO.N,REG_CHG*
X53920000Y15345000D03*
X28043332Y10610000D03*
G04 #@! TO.N,REG_POWER*
X54420000Y17785000D03*
X29044998Y11945000D03*
G04 #@! TO.N,BAT_ISET*
X54920000Y15345000D03*
X30046664Y11945000D03*
G04 #@! TO.N,BAT_PG*
X55420000Y17785000D03*
X31048330Y11945000D03*
G04 #@! TO.N,BAT_CHG*
X32060000Y11945000D03*
X55920000Y15345000D03*
G04 #@! TD*
D11*
G04 #@! TO.N,REG_EN1*
X50365000Y17785000D02*
X47420000Y14840000D01*
X27050000Y12825000D02*
X27050000Y9630000D01*
X47420000Y14840000D02*
X29065000Y14840000D01*
X29065000Y14840000D02*
X27050000Y12825000D01*
X53420000Y17785000D02*
X50365000Y17785000D01*
G04 #@! TO.N,REG_POWER*
X47910000Y13890000D02*
X30440000Y13890000D01*
X54025000Y17000000D02*
X51020000Y17000000D01*
X30440000Y13890000D02*
X29044998Y12494998D01*
X54420000Y17785000D02*
X54420000Y17395000D01*
X51020000Y17000000D02*
X47910000Y13890000D01*
X29044998Y12494998D02*
X29044998Y11945000D01*
X54420000Y17395000D02*
X54025000Y17000000D01*
G04 #@! TO.N,BAT_PG*
X31048330Y11945000D02*
X31048330Y12148330D01*
X55420000Y16945000D02*
X55420000Y17785000D01*
X51580000Y16150000D02*
X54625000Y16150000D01*
X48300000Y12870000D02*
X51580000Y16150000D01*
X31770000Y12870000D02*
X48300000Y12870000D01*
X31048330Y12148330D02*
X31770000Y12870000D01*
X54625000Y16150000D02*
X55420000Y16945000D01*
G04 #@! TD*
G04 #@! TA.AperFunction,Conductor*
G04 #@! TO.N,GND*
G36*
X63984608Y33638710D02*
G01*
X63989145Y33637910D01*
X64000000Y33635996D01*
X64010857Y33637910D01*
X64021876Y33637910D01*
X64021876Y33637541D01*
X64034201Y33638177D01*
X64233032Y33623957D01*
X64250827Y33621399D01*
X64470320Y33573652D01*
X64487559Y33568590D01*
X64608744Y33523390D01*
X64698024Y33490090D01*
X64714376Y33482622D01*
X64911519Y33374974D01*
X64926643Y33365254D01*
X65106461Y33230644D01*
X65120047Y33218871D01*
X65278871Y33060047D01*
X65290644Y33046461D01*
X65425254Y32866643D01*
X65434974Y32851519D01*
X65542622Y32654376D01*
X65550090Y32638024D01*
X65604711Y32491582D01*
X65628588Y32427565D01*
X65633653Y32410315D01*
X65681399Y32190827D01*
X65683957Y32173032D01*
X65698177Y31974201D01*
X65697542Y31961879D01*
X65697910Y31961879D01*
X65697910Y31950859D01*
X65695996Y31940000D01*
X65698710Y31924612D01*
X65700624Y31902735D01*
X65700368Y23752353D01*
X65700001Y12037276D01*
X65698087Y12015402D01*
X65697286Y12010859D01*
X65697286Y12010854D01*
X65695372Y12000000D01*
X65697286Y11989143D01*
X65697286Y11978124D01*
X65696917Y11978124D01*
X65697553Y11965799D01*
X65683333Y11766968D01*
X65680775Y11749173D01*
X65635258Y11539930D01*
X65633029Y11529685D01*
X65627966Y11512441D01*
X65603462Y11446744D01*
X65549466Y11301976D01*
X65541998Y11285624D01*
X65434350Y11088481D01*
X65424630Y11073357D01*
X65290020Y10893539D01*
X65278247Y10879953D01*
X65119423Y10721129D01*
X65105837Y10709356D01*
X64926019Y10574746D01*
X64910895Y10565026D01*
X64713752Y10457378D01*
X64697400Y10449910D01*
X64627574Y10423866D01*
X64486935Y10371410D01*
X64469696Y10366348D01*
X64313522Y10332375D01*
X64250203Y10318601D01*
X64232408Y10316043D01*
X64033577Y10301823D01*
X64021252Y10302459D01*
X64021252Y10302090D01*
X64010233Y10302090D01*
X63999376Y10304004D01*
X63983985Y10301290D01*
X63962112Y10299377D01*
X47254515Y10299711D01*
X32752267Y10300000D01*
X32740754Y10300563D01*
X32729782Y10303740D01*
X32694817Y10300712D01*
X32692034Y10300471D01*
X32681163Y10300001D01*
X32672101Y10300001D01*
X32665537Y10298779D01*
X32653355Y10297121D01*
X32630030Y10295101D01*
X32630029Y10295101D01*
X32618440Y10294097D01*
X32607989Y10288988D01*
X32604732Y10288085D01*
X32601576Y10286867D01*
X32590136Y10284737D01*
X32560295Y10266343D01*
X32549528Y10260411D01*
X32533955Y10252799D01*
X32478624Y10240000D01*
X28674502Y10240000D01*
X28606381Y10260002D01*
X28559888Y10313658D01*
X28549784Y10383932D01*
X28558093Y10414217D01*
X28576500Y10458657D01*
X28579662Y10466291D01*
X28598582Y10610000D01*
X28579662Y10753709D01*
X28524193Y10887625D01*
X28435953Y11002621D01*
X28320957Y11090861D01*
X28187041Y11146330D01*
X28043332Y11165250D01*
X27899623Y11146330D01*
X27774717Y11094593D01*
X27704128Y11087004D01*
X27640641Y11118783D01*
X27604414Y11179842D01*
X27600500Y11211002D01*
X27600500Y12544785D01*
X27620502Y12612906D01*
X27637405Y12633880D01*
X29256119Y14252595D01*
X29318431Y14286620D01*
X29345214Y14289500D01*
X29756785Y14289500D01*
X29824906Y14269498D01*
X29871399Y14215842D01*
X29881503Y14145568D01*
X29852009Y14080988D01*
X29845880Y14074405D01*
X28666356Y12894880D01*
X28662547Y12891227D01*
X28616842Y12849199D01*
X28593899Y12812196D01*
X28587198Y12802446D01*
X28560886Y12767781D01*
X28555352Y12753803D01*
X28545291Y12733799D01*
X28537363Y12721012D01*
X28534966Y12712761D01*
X28534965Y12712759D01*
X28525223Y12679226D01*
X28521378Y12667996D01*
X28505362Y12627545D01*
X28504464Y12619004D01*
X28504464Y12619003D01*
X28503790Y12612590D01*
X28499478Y12590615D01*
X28495283Y12576173D01*
X28494498Y12565483D01*
X28494498Y12530781D01*
X28493808Y12517611D01*
X28489597Y12477544D01*
X28491029Y12469079D01*
X28491029Y12469070D01*
X28492733Y12458998D01*
X28494498Y12437985D01*
X28494498Y11989338D01*
X28493420Y11972891D01*
X28489748Y11945000D01*
X28494349Y11910055D01*
X28494498Y11908557D01*
X28494498Y11907215D01*
X28494989Y11903634D01*
X28494990Y11903620D01*
X28500228Y11865389D01*
X28500316Y11864733D01*
X28508668Y11801291D01*
X28509176Y11800064D01*
X28509792Y11795568D01*
X28538523Y11729174D01*
X28539268Y11727414D01*
X28541703Y11721535D01*
X28564137Y11667375D01*
X28566726Y11664000D01*
X28569693Y11657145D01*
X28611921Y11604998D01*
X28612408Y11604396D01*
X28614449Y11601807D01*
X28647352Y11558928D01*
X28652377Y11552379D01*
X28656870Y11548931D01*
X28657638Y11548079D01*
X28659205Y11546608D01*
X28664612Y11539930D01*
X28716043Y11503380D01*
X28716744Y11502882D01*
X28720440Y11500152D01*
X28767373Y11464139D01*
X28774609Y11461141D01*
X28778798Y11458452D01*
X28780553Y11457535D01*
X28787556Y11452558D01*
X28795639Y11449648D01*
X28795641Y11449647D01*
X28844208Y11432162D01*
X28849745Y11430020D01*
X28863960Y11424132D01*
X28901289Y11408670D01*
X28909480Y11407591D01*
X28916016Y11405840D01*
X28919211Y11404838D01*
X28921387Y11404376D01*
X28929466Y11401467D01*
X28959344Y11399273D01*
X28985863Y11397325D01*
X28993080Y11396585D01*
X29027011Y11392118D01*
X29044998Y11389750D01*
X29053186Y11390828D01*
X29061446Y11390828D01*
X29061446Y11390529D01*
X29064417Y11390614D01*
X29071326Y11391049D01*
X29079889Y11390420D01*
X29091451Y11392751D01*
X29131743Y11400875D01*
X29140199Y11402283D01*
X29180522Y11407592D01*
X29180524Y11407593D01*
X29188707Y11408670D01*
X29196333Y11411829D01*
X29201020Y11413085D01*
X29218080Y11418285D01*
X29227741Y11420233D01*
X29271643Y11442602D01*
X29280628Y11446744D01*
X29314989Y11460977D01*
X29322623Y11464139D01*
X29330655Y11470302D01*
X29350152Y11482604D01*
X29362130Y11488707D01*
X29368453Y11494521D01*
X29368457Y11494524D01*
X29395757Y11519627D01*
X29404337Y11526839D01*
X29431063Y11547347D01*
X29431069Y11547353D01*
X29437619Y11552379D01*
X29445872Y11563134D01*
X29503206Y11604998D01*
X29574077Y11609220D01*
X29635980Y11574456D01*
X29645788Y11563137D01*
X29654043Y11552379D01*
X29769039Y11464139D01*
X29902955Y11408670D01*
X30046664Y11389750D01*
X30190373Y11408670D01*
X30324289Y11464139D01*
X30439285Y11552379D01*
X30447537Y11563133D01*
X30504876Y11604998D01*
X30575747Y11609218D01*
X30637649Y11574452D01*
X30647461Y11563128D01*
X30650684Y11558928D01*
X30655709Y11552379D01*
X30660202Y11548931D01*
X30660970Y11548079D01*
X30662537Y11546608D01*
X30667944Y11539930D01*
X30719375Y11503380D01*
X30720076Y11502882D01*
X30723772Y11500152D01*
X30770705Y11464139D01*
X30777941Y11461141D01*
X30782130Y11458452D01*
X30783885Y11457535D01*
X30790888Y11452558D01*
X30798971Y11449648D01*
X30798973Y11449647D01*
X30847540Y11432162D01*
X30853077Y11430020D01*
X30867292Y11424132D01*
X30904621Y11408670D01*
X30912812Y11407591D01*
X30919348Y11405840D01*
X30922543Y11404838D01*
X30924719Y11404376D01*
X30932798Y11401467D01*
X30962676Y11399273D01*
X30989195Y11397325D01*
X30996412Y11396585D01*
X31030343Y11392118D01*
X31048330Y11389750D01*
X31056518Y11390828D01*
X31064778Y11390828D01*
X31064778Y11390529D01*
X31067749Y11390614D01*
X31074658Y11391049D01*
X31083221Y11390420D01*
X31094783Y11392751D01*
X31135075Y11400875D01*
X31143531Y11402283D01*
X31183854Y11407592D01*
X31183856Y11407593D01*
X31192039Y11408670D01*
X31199665Y11411829D01*
X31204352Y11413085D01*
X31221412Y11418285D01*
X31231073Y11420233D01*
X31274975Y11442602D01*
X31283960Y11446744D01*
X31318321Y11460977D01*
X31325955Y11464139D01*
X31333987Y11470302D01*
X31353484Y11482604D01*
X31365462Y11488707D01*
X31371785Y11494521D01*
X31371789Y11494524D01*
X31399089Y11519627D01*
X31407669Y11526839D01*
X31434395Y11547347D01*
X31434401Y11547353D01*
X31440951Y11552379D01*
X31449285Y11563239D01*
X31463945Y11579267D01*
X31469725Y11584582D01*
X31533404Y11615971D01*
X31603946Y11607949D01*
X31654977Y11568542D01*
X31667379Y11552379D01*
X31782375Y11464139D01*
X31916291Y11408670D01*
X32060000Y11389750D01*
X32203709Y11408670D01*
X32337625Y11464139D01*
X32452621Y11552379D01*
X32540861Y11667375D01*
X32596330Y11801291D01*
X32615250Y11945000D01*
X32596330Y12088709D01*
X32572897Y12145282D01*
X32565308Y12215872D01*
X32597088Y12279359D01*
X32658146Y12315586D01*
X32689306Y12319500D01*
X48285007Y12319500D01*
X48290284Y12319389D01*
X48352294Y12316790D01*
X48363848Y12319500D01*
X48394662Y12326727D01*
X48406333Y12328890D01*
X48421229Y12330931D01*
X48449432Y12334794D01*
X48463230Y12340765D01*
X48484499Y12347799D01*
X48490775Y12349271D01*
X48499136Y12351232D01*
X48506661Y12355369D01*
X48506664Y12355370D01*
X48537268Y12372195D01*
X48547913Y12377411D01*
X48587855Y12394695D01*
X48599541Y12404158D01*
X48618126Y12416646D01*
X48625518Y12420710D01*
X48631308Y12423893D01*
X48639422Y12430897D01*
X48663958Y12455433D01*
X48673759Y12464258D01*
X48698392Y12484206D01*
X48698393Y12484207D01*
X48705070Y12489614D01*
X48710043Y12496612D01*
X48710048Y12496617D01*
X48715968Y12504948D01*
X48729579Y12521054D01*
X51771120Y15562595D01*
X51833432Y15596621D01*
X51860215Y15599500D01*
X52258922Y15599500D01*
X52327043Y15579498D01*
X52373536Y15525842D01*
X52383844Y15457053D01*
X52375097Y15390611D01*
X52369750Y15350000D01*
X52388670Y15206291D01*
X52444139Y15072375D01*
X52532379Y14957379D01*
X52647375Y14869139D01*
X52781291Y14813670D01*
X52925000Y14794750D01*
X53068709Y14813670D01*
X53202625Y14869139D01*
X53317621Y14957379D01*
X53322647Y14963929D01*
X53328488Y14969770D01*
X53330069Y14968189D01*
X53377963Y15003156D01*
X53448834Y15007375D01*
X53510735Y14972608D01*
X53520545Y14961285D01*
X53527379Y14952379D01*
X53642375Y14864139D01*
X53776291Y14808670D01*
X53920000Y14789750D01*
X54063709Y14808670D01*
X54197625Y14864139D01*
X54312621Y14952379D01*
X54320038Y14962045D01*
X54322725Y14964007D01*
X54323488Y14964770D01*
X54323607Y14964651D01*
X54377376Y15003912D01*
X54448247Y15008134D01*
X54510149Y14973370D01*
X54519962Y14962045D01*
X54527379Y14952379D01*
X54642375Y14864139D01*
X54776291Y14808670D01*
X54920000Y14789750D01*
X55063709Y14808670D01*
X55197625Y14864139D01*
X55312621Y14952379D01*
X55320038Y14962045D01*
X55322725Y14964007D01*
X55323488Y14964770D01*
X55323607Y14964651D01*
X55377376Y15003912D01*
X55448247Y15008134D01*
X55510149Y14973370D01*
X55519962Y14962045D01*
X55527379Y14952379D01*
X55642375Y14864139D01*
X55776291Y14808670D01*
X55920000Y14789750D01*
X56063709Y14808670D01*
X56197625Y14864139D01*
X56312621Y14952379D01*
X56400861Y15067375D01*
X56456330Y15201291D01*
X56475250Y15345000D01*
X56456330Y15488709D01*
X56400861Y15622625D01*
X56312621Y15737621D01*
X56197625Y15825861D01*
X56063709Y15881330D01*
X55920000Y15900250D01*
X55776291Y15881330D01*
X55642375Y15825861D01*
X55527379Y15737621D01*
X55522353Y15731071D01*
X55519962Y15727955D01*
X55517275Y15725993D01*
X55516512Y15725230D01*
X55516393Y15725349D01*
X55462624Y15686088D01*
X55391753Y15681866D01*
X55329851Y15716630D01*
X55320038Y15727955D01*
X55317647Y15731071D01*
X55312621Y15737621D01*
X55244704Y15789735D01*
X55202840Y15847070D01*
X55198618Y15917941D01*
X55232315Y15978790D01*
X55798654Y16545130D01*
X55802464Y16548783D01*
X55841833Y16584985D01*
X55848156Y16590799D01*
X55871099Y16627802D01*
X55877800Y16637552D01*
X55904112Y16672217D01*
X55909646Y16686196D01*
X55919707Y16706199D01*
X55927635Y16718986D01*
X55939775Y16760772D01*
X55943621Y16772005D01*
X55956473Y16804465D01*
X55959636Y16812453D01*
X55961208Y16827408D01*
X55965520Y16849383D01*
X55969715Y16863825D01*
X55970500Y16874515D01*
X55970500Y16909217D01*
X55971190Y16922387D01*
X55974503Y16953912D01*
X55975401Y16962454D01*
X55973969Y16970919D01*
X55973969Y16970928D01*
X55972265Y16981000D01*
X55970500Y17002013D01*
X55970500Y17740662D01*
X55971578Y17757109D01*
X55974172Y17776812D01*
X55975250Y17785000D01*
X55970649Y17819945D01*
X55970500Y17821443D01*
X55970500Y17822785D01*
X55970009Y17826366D01*
X55970008Y17826380D01*
X55964770Y17864611D01*
X55964682Y17865267D01*
X55956986Y17923725D01*
X55956330Y17928709D01*
X55955822Y17929936D01*
X55955206Y17934432D01*
X55926475Y18000826D01*
X55925730Y18002586D01*
X55904019Y18055001D01*
X55900861Y18062625D01*
X55898272Y18066000D01*
X55895305Y18072855D01*
X55852578Y18125619D01*
X55850549Y18128193D01*
X55817646Y18171073D01*
X55817644Y18171075D01*
X55812621Y18177621D01*
X55808128Y18181069D01*
X55807360Y18181921D01*
X55805793Y18183392D01*
X55800386Y18190070D01*
X55748245Y18227124D01*
X55744558Y18229848D01*
X55697625Y18265861D01*
X55690389Y18268859D01*
X55686200Y18271548D01*
X55684445Y18272465D01*
X55677442Y18277442D01*
X55669359Y18280352D01*
X55669357Y18280353D01*
X55620790Y18297838D01*
X55615253Y18299980D01*
X55574660Y18316794D01*
X55563709Y18321330D01*
X55555518Y18322409D01*
X55548982Y18324160D01*
X55545787Y18325162D01*
X55543611Y18325624D01*
X55535532Y18328533D01*
X55505654Y18330727D01*
X55479135Y18332675D01*
X55471918Y18333415D01*
X55428188Y18339172D01*
X55420000Y18340250D01*
X55411812Y18339172D01*
X55403552Y18339172D01*
X55403552Y18339471D01*
X55400581Y18339386D01*
X55393672Y18338951D01*
X55385109Y18339580D01*
X55376688Y18337882D01*
X55333255Y18329125D01*
X55324799Y18327717D01*
X55284476Y18322408D01*
X55284474Y18322407D01*
X55276291Y18321330D01*
X55268665Y18318171D01*
X55263978Y18316915D01*
X55246918Y18311715D01*
X55237257Y18309767D01*
X55193355Y18287398D01*
X55184370Y18283256D01*
X55158292Y18272454D01*
X55142375Y18265861D01*
X55135820Y18260831D01*
X55134343Y18259698D01*
X55114846Y18247396D01*
X55102868Y18241293D01*
X55096545Y18235479D01*
X55096541Y18235476D01*
X55069241Y18210373D01*
X55060661Y18203161D01*
X55033935Y18182653D01*
X55033929Y18182647D01*
X55027379Y18177621D01*
X55022350Y18171067D01*
X55019957Y18167949D01*
X55017271Y18165988D01*
X55016515Y18165232D01*
X55016397Y18165350D01*
X54962617Y18126086D01*
X54891745Y18121869D01*
X54829845Y18156637D01*
X54820038Y18167956D01*
X54817649Y18171070D01*
X54817644Y18171075D01*
X54812621Y18177621D01*
X54808128Y18181069D01*
X54807360Y18181921D01*
X54805793Y18183392D01*
X54800386Y18190070D01*
X54748245Y18227124D01*
X54744558Y18229848D01*
X54697625Y18265861D01*
X54690389Y18268859D01*
X54686200Y18271548D01*
X54684445Y18272465D01*
X54677442Y18277442D01*
X54669359Y18280352D01*
X54669357Y18280353D01*
X54620790Y18297838D01*
X54615253Y18299980D01*
X54574660Y18316794D01*
X54563709Y18321330D01*
X54555518Y18322409D01*
X54548982Y18324160D01*
X54545787Y18325162D01*
X54543611Y18325624D01*
X54535532Y18328533D01*
X54505654Y18330727D01*
X54479135Y18332675D01*
X54471918Y18333415D01*
X54428188Y18339172D01*
X54420000Y18340250D01*
X54411812Y18339172D01*
X54403552Y18339172D01*
X54403552Y18339471D01*
X54400581Y18339386D01*
X54393672Y18338951D01*
X54385109Y18339580D01*
X54376688Y18337882D01*
X54333255Y18329125D01*
X54324799Y18327717D01*
X54284476Y18322408D01*
X54284474Y18322407D01*
X54276291Y18321330D01*
X54268665Y18318171D01*
X54263978Y18316915D01*
X54246918Y18311715D01*
X54237257Y18309767D01*
X54193355Y18287398D01*
X54184370Y18283256D01*
X54158292Y18272454D01*
X54142375Y18265861D01*
X54135820Y18260831D01*
X54134343Y18259698D01*
X54114846Y18247396D01*
X54102868Y18241293D01*
X54096545Y18235479D01*
X54096541Y18235476D01*
X54069241Y18210373D01*
X54060661Y18203161D01*
X54033935Y18182653D01*
X54033929Y18182647D01*
X54027379Y18177621D01*
X54022350Y18171067D01*
X54019957Y18167949D01*
X54017271Y18165988D01*
X54016515Y18165232D01*
X54016397Y18165350D01*
X53962617Y18126086D01*
X53891745Y18121869D01*
X53829845Y18156637D01*
X53820038Y18167956D01*
X53817651Y18171067D01*
X53817647Y18171071D01*
X53812621Y18177621D01*
X53801761Y18185955D01*
X53785731Y18200617D01*
X53774201Y18213156D01*
X53766895Y18217686D01*
X53738435Y18235332D01*
X53728125Y18242457D01*
X53704175Y18260835D01*
X53697625Y18265861D01*
X53683895Y18271548D01*
X53681707Y18272454D01*
X53663524Y18281778D01*
X53654460Y18287398D01*
X53646014Y18292635D01*
X53609046Y18303375D01*
X53595978Y18307964D01*
X53571339Y18318170D01*
X53571336Y18318171D01*
X53563709Y18321330D01*
X53555528Y18322407D01*
X53555525Y18322408D01*
X53543098Y18324044D01*
X53524404Y18327967D01*
X53501175Y18334715D01*
X53493692Y18335264D01*
X53492792Y18335331D01*
X53492781Y18335331D01*
X53490485Y18335500D01*
X53464338Y18335500D01*
X53447891Y18336578D01*
X53428188Y18339172D01*
X53420000Y18340250D01*
X53411812Y18339172D01*
X53392109Y18336578D01*
X53375662Y18335500D01*
X50379993Y18335500D01*
X50374717Y18335611D01*
X50370310Y18335796D01*
X50312706Y18338210D01*
X50304341Y18336248D01*
X50270338Y18328273D01*
X50258667Y18326110D01*
X50251747Y18325162D01*
X50215568Y18320206D01*
X50207684Y18316794D01*
X50207683Y18316794D01*
X50201770Y18314235D01*
X50180501Y18307201D01*
X50165864Y18303768D01*
X50158339Y18299631D01*
X50158336Y18299630D01*
X50127732Y18282805D01*
X50117087Y18277589D01*
X50077145Y18260305D01*
X50065459Y18250842D01*
X50046875Y18238355D01*
X50033692Y18231107D01*
X50025578Y18224103D01*
X50001042Y18199567D01*
X49991241Y18190742D01*
X49966953Y18171073D01*
X49959930Y18165386D01*
X49954957Y18158388D01*
X49954952Y18158383D01*
X49949032Y18150052D01*
X49935421Y18133946D01*
X48567952Y16766476D01*
X47228881Y15427405D01*
X47166569Y15393379D01*
X47139786Y15390500D01*
X29079993Y15390500D01*
X29074717Y15390611D01*
X29070310Y15390796D01*
X29012706Y15393210D01*
X29004341Y15391248D01*
X28970338Y15383273D01*
X28958667Y15381110D01*
X28943771Y15379069D01*
X28915568Y15375206D01*
X28907684Y15371794D01*
X28907683Y15371794D01*
X28901770Y15369235D01*
X28880501Y15362201D01*
X28874228Y15360730D01*
X28874226Y15360729D01*
X28865864Y15358768D01*
X28858336Y15354629D01*
X28858335Y15354629D01*
X28827735Y15337806D01*
X28817073Y15332583D01*
X28785027Y15318716D01*
X28785026Y15318715D01*
X28777145Y15315305D01*
X28770472Y15309901D01*
X28765459Y15305842D01*
X28746871Y15293351D01*
X28733692Y15286106D01*
X28725578Y15279102D01*
X28701043Y15254567D01*
X28691242Y15245742D01*
X28659930Y15220386D01*
X28654954Y15213384D01*
X28654952Y15213382D01*
X28649032Y15205051D01*
X28635421Y15188945D01*
X26671358Y13224882D01*
X26667549Y13221229D01*
X26621844Y13179201D01*
X26598901Y13142198D01*
X26592200Y13132448D01*
X26565888Y13097783D01*
X26560354Y13083805D01*
X26550293Y13063801D01*
X26542365Y13051014D01*
X26539968Y13042763D01*
X26539967Y13042761D01*
X26530225Y13009228D01*
X26526380Y12997998D01*
X26510364Y12957547D01*
X26509466Y12949006D01*
X26509466Y12949005D01*
X26508792Y12942592D01*
X26504480Y12920617D01*
X26500285Y12906175D01*
X26499500Y12895485D01*
X26499500Y12860783D01*
X26498810Y12847613D01*
X26494599Y12807546D01*
X26496031Y12799081D01*
X26496031Y12799072D01*
X26497735Y12789000D01*
X26499500Y12767987D01*
X26499500Y10366000D01*
X26479498Y10297879D01*
X26425842Y10251386D01*
X26373500Y10240000D01*
X24954388Y10240000D01*
X24913476Y10246827D01*
X24866036Y10263113D01*
X24857909Y10265903D01*
X24852775Y10266760D01*
X24852770Y10266761D01*
X24658715Y10299143D01*
X24658712Y10299143D01*
X24653578Y10300000D01*
X24446422Y10300000D01*
X24441288Y10299143D01*
X24441285Y10299143D01*
X24247230Y10266761D01*
X24247225Y10266760D01*
X24242091Y10265903D01*
X24233964Y10263113D01*
X24186524Y10246827D01*
X24145612Y10240000D01*
X12784424Y10240000D01*
X12716303Y10260002D01*
X12669810Y10313658D01*
X12661307Y10339206D01*
X12642890Y10423866D01*
X12625081Y10471615D01*
X12569445Y10620779D01*
X12567874Y10624991D01*
X12464999Y10813394D01*
X12336358Y10985237D01*
X12184571Y11137024D01*
X12012728Y11265665D01*
X11824325Y11368540D01*
X11765663Y11390420D01*
X11627408Y11441987D01*
X11627402Y11441989D01*
X11623200Y11443556D01*
X11618814Y11444510D01*
X11618811Y11444511D01*
X11467856Y11477349D01*
X11413447Y11489185D01*
X11206924Y11503956D01*
X11199334Y11505294D01*
X11188480Y11503380D01*
X11177972Y11503380D01*
X11165619Y11503987D01*
X11152348Y11505294D01*
X11035974Y11516756D01*
X11011754Y11521572D01*
X10866534Y11565624D01*
X10843720Y11575075D01*
X10709896Y11646606D01*
X10689359Y11660328D01*
X10572060Y11756593D01*
X10554595Y11774058D01*
X10458330Y11891357D01*
X10444607Y11911895D01*
X10373077Y12045718D01*
X10363625Y12068535D01*
X10359990Y12080520D01*
X10319574Y12213752D01*
X10314757Y12237975D01*
X10312458Y12261324D01*
X10301989Y12367617D01*
X10301382Y12379967D01*
X10301382Y12390476D01*
X10303296Y12401332D01*
X10300584Y12416714D01*
X10298669Y12438600D01*
X10298670Y12448567D01*
X10298960Y20470000D01*
X17504750Y20470000D01*
X17523670Y20326291D01*
X17579139Y20192375D01*
X17667379Y20077379D01*
X17782375Y19989139D01*
X17916291Y19933670D01*
X18060000Y19914750D01*
X18203709Y19933670D01*
X18337625Y19989139D01*
X18452621Y20077379D01*
X18540861Y20192375D01*
X18596330Y20326291D01*
X18607351Y20410000D01*
X27954750Y20410000D01*
X27973670Y20266291D01*
X28029139Y20132375D01*
X28117379Y20017379D01*
X28232375Y19929139D01*
X28366291Y19873670D01*
X28510000Y19854750D01*
X28653709Y19873670D01*
X28787625Y19929139D01*
X28902621Y20017379D01*
X28990861Y20132375D01*
X29046330Y20266291D01*
X29065250Y20410000D01*
X29057351Y20470000D01*
X37754750Y20470000D01*
X37773670Y20326291D01*
X37829139Y20192375D01*
X37917379Y20077379D01*
X38032375Y19989139D01*
X38166291Y19933670D01*
X38310000Y19914750D01*
X38453709Y19933670D01*
X38587625Y19989139D01*
X38702621Y20077379D01*
X38790861Y20192375D01*
X38846330Y20326291D01*
X38865250Y20470000D01*
X38857351Y20530000D01*
X47754750Y20530000D01*
X47773670Y20386291D01*
X47829139Y20252375D01*
X47917379Y20137379D01*
X48032375Y20049139D01*
X48166291Y19993670D01*
X48310000Y19974750D01*
X48453709Y19993670D01*
X48587625Y20049139D01*
X48702621Y20137379D01*
X48790861Y20252375D01*
X48846330Y20386291D01*
X48865250Y20530000D01*
X48846330Y20673709D01*
X48790861Y20807625D01*
X48702621Y20922621D01*
X48587625Y21010861D01*
X48453709Y21066330D01*
X48310000Y21085250D01*
X48166291Y21066330D01*
X48032375Y21010861D01*
X47917379Y20922621D01*
X47829139Y20807625D01*
X47773670Y20673709D01*
X47754750Y20530000D01*
X38857351Y20530000D01*
X38846330Y20613709D01*
X38790861Y20747625D01*
X38702621Y20862621D01*
X38587625Y20950861D01*
X38453709Y21006330D01*
X38310000Y21025250D01*
X38166291Y21006330D01*
X38032375Y20950861D01*
X37917379Y20862621D01*
X37829139Y20747625D01*
X37773670Y20613709D01*
X37754750Y20470000D01*
X29057351Y20470000D01*
X29046330Y20553709D01*
X28990861Y20687625D01*
X28902621Y20802621D01*
X28787625Y20890861D01*
X28653709Y20946330D01*
X28510000Y20965250D01*
X28366291Y20946330D01*
X28232375Y20890861D01*
X28117379Y20802621D01*
X28029139Y20687625D01*
X27973670Y20553709D01*
X27954750Y20410000D01*
X18607351Y20410000D01*
X18615250Y20470000D01*
X18596330Y20613709D01*
X18540861Y20747625D01*
X18452621Y20862621D01*
X18337625Y20950861D01*
X18203709Y21006330D01*
X18060000Y21025250D01*
X17916291Y21006330D01*
X17782375Y20950861D01*
X17667379Y20862621D01*
X17579139Y20747625D01*
X17523670Y20613709D01*
X17504750Y20470000D01*
X10298960Y20470000D01*
X10299076Y23669139D01*
X10299148Y25640000D01*
X13164750Y25640000D01*
X13183670Y25496291D01*
X13239139Y25362375D01*
X13327379Y25247379D01*
X13442375Y25159139D01*
X13576291Y25103670D01*
X13720000Y25084750D01*
X13863709Y25103670D01*
X13997625Y25159139D01*
X14112621Y25247379D01*
X14200861Y25362375D01*
X14256330Y25496291D01*
X14273933Y25630000D01*
X23494750Y25630000D01*
X23513670Y25486291D01*
X23569139Y25352375D01*
X23657379Y25237379D01*
X23772375Y25149139D01*
X23906291Y25093670D01*
X24050000Y25074750D01*
X24193709Y25093670D01*
X24327625Y25149139D01*
X24442621Y25237379D01*
X24530861Y25352375D01*
X24586330Y25486291D01*
X24605250Y25630000D01*
X24603933Y25640000D01*
X33374750Y25640000D01*
X33393670Y25496291D01*
X33449139Y25362375D01*
X33537379Y25247379D01*
X33652375Y25159139D01*
X33786291Y25103670D01*
X33930000Y25084750D01*
X34073709Y25103670D01*
X34207625Y25159139D01*
X34322621Y25247379D01*
X34410861Y25362375D01*
X34466330Y25496291D01*
X34485250Y25640000D01*
X43394750Y25640000D01*
X43413670Y25496291D01*
X43469139Y25362375D01*
X43557379Y25247379D01*
X43672375Y25159139D01*
X43806291Y25103670D01*
X43950000Y25084750D01*
X44093709Y25103670D01*
X44227625Y25159139D01*
X44306940Y25220000D01*
X53024750Y25220000D01*
X53043670Y25076291D01*
X53099139Y24942375D01*
X53187379Y24827379D01*
X53252661Y24777286D01*
X53294525Y24719952D01*
X53298747Y24649081D01*
X53263983Y24587178D01*
X53252658Y24577365D01*
X53207379Y24542621D01*
X53119139Y24427625D01*
X53063670Y24293709D01*
X53044750Y24150000D01*
X53063670Y24006291D01*
X53119139Y23872375D01*
X53207379Y23757379D01*
X53322375Y23669139D01*
X53456291Y23613670D01*
X53600000Y23594750D01*
X53743709Y23613670D01*
X53851783Y23658435D01*
X53922372Y23666024D01*
X53948215Y23658436D01*
X54056291Y23613670D01*
X54200000Y23594750D01*
X54343709Y23613670D01*
X54477625Y23669139D01*
X54592621Y23757379D01*
X54680861Y23872375D01*
X54736330Y24006291D01*
X54755250Y24150000D01*
X54736330Y24293709D01*
X54680861Y24427625D01*
X54592621Y24542621D01*
X54537340Y24585040D01*
X54495475Y24642375D01*
X54491253Y24713246D01*
X54526017Y24775149D01*
X54537329Y24784952D01*
X54592621Y24827379D01*
X54618533Y24861148D01*
X54675871Y24903015D01*
X54734941Y24909366D01*
X54770000Y24904750D01*
X54913709Y24923670D01*
X55047625Y24979139D01*
X55162621Y25067379D01*
X55250861Y25182375D01*
X55306330Y25316291D01*
X55325250Y25460000D01*
X55306330Y25603709D01*
X55250861Y25737625D01*
X55162621Y25852621D01*
X55047625Y25940861D01*
X54913709Y25996330D01*
X54770000Y26015250D01*
X54626291Y25996330D01*
X54492375Y25940861D01*
X54377379Y25852621D01*
X54372353Y25846071D01*
X54351467Y25818852D01*
X54294129Y25776985D01*
X54235059Y25770634D01*
X54200000Y25775250D01*
X54056291Y25756330D01*
X53938217Y25707423D01*
X53867628Y25699834D01*
X53841784Y25707422D01*
X53723709Y25756330D01*
X53580000Y25775250D01*
X53436291Y25756330D01*
X53302375Y25700861D01*
X53187379Y25612621D01*
X53099139Y25497625D01*
X53043670Y25363709D01*
X53024750Y25220000D01*
X44306940Y25220000D01*
X44342621Y25247379D01*
X44430861Y25362375D01*
X44486330Y25496291D01*
X44505250Y25640000D01*
X44486330Y25783709D01*
X44430861Y25917625D01*
X44342621Y26032621D01*
X44227625Y26120861D01*
X44093709Y26176330D01*
X43950000Y26195250D01*
X43806291Y26176330D01*
X43672375Y26120861D01*
X43557379Y26032621D01*
X43469139Y25917625D01*
X43413670Y25783709D01*
X43394750Y25640000D01*
X34485250Y25640000D01*
X34466330Y25783709D01*
X34410861Y25917625D01*
X34322621Y26032621D01*
X34207625Y26120861D01*
X34073709Y26176330D01*
X33930000Y26195250D01*
X33786291Y26176330D01*
X33652375Y26120861D01*
X33537379Y26032621D01*
X33449139Y25917625D01*
X33393670Y25783709D01*
X33374750Y25640000D01*
X24603933Y25640000D01*
X24586330Y25773709D01*
X24530861Y25907625D01*
X24442621Y26022621D01*
X24327625Y26110861D01*
X24193709Y26166330D01*
X24050000Y26185250D01*
X23906291Y26166330D01*
X23772375Y26110861D01*
X23657379Y26022621D01*
X23569139Y25907625D01*
X23513670Y25773709D01*
X23494750Y25630000D01*
X14273933Y25630000D01*
X14275250Y25640000D01*
X14256330Y25783709D01*
X14200861Y25917625D01*
X14112621Y26032621D01*
X13997625Y26120861D01*
X13863709Y26176330D01*
X13720000Y26195250D01*
X13576291Y26176330D01*
X13442375Y26120861D01*
X13327379Y26032621D01*
X13239139Y25917625D01*
X13183670Y25783709D01*
X13164750Y25640000D01*
X10299148Y25640000D01*
X10299228Y27840000D01*
X18314750Y27840000D01*
X18333670Y27696291D01*
X18389139Y27562375D01*
X18477379Y27447379D01*
X18592375Y27359139D01*
X18726291Y27303670D01*
X18870000Y27284750D01*
X19013709Y27303670D01*
X19147625Y27359139D01*
X19262621Y27447379D01*
X19350861Y27562375D01*
X19373317Y27616589D01*
X19417865Y27671870D01*
X19485228Y27694291D01*
X19554020Y27676733D01*
X19602398Y27624771D01*
X19614648Y27584818D01*
X19623670Y27516291D01*
X19679139Y27382375D01*
X19767379Y27267379D01*
X19882375Y27179139D01*
X20016291Y27123670D01*
X20160000Y27104750D01*
X20168188Y27105828D01*
X20289232Y27121764D01*
X20359381Y27110825D01*
X20412480Y27063697D01*
X20431670Y26995343D01*
X20430602Y26980404D01*
X20425277Y26939958D01*
X20396554Y26875031D01*
X20348573Y26839997D01*
X20333168Y26833616D01*
X20302375Y26820861D01*
X20187379Y26732621D01*
X20099139Y26617625D01*
X20043670Y26483709D01*
X20024750Y26340000D01*
X20043670Y26196291D01*
X20099139Y26062375D01*
X20187379Y25947379D01*
X20302375Y25859139D01*
X20436291Y25803670D01*
X20580000Y25784750D01*
X20723709Y25803670D01*
X20857625Y25859139D01*
X20859599Y25860654D01*
X20925999Y25876760D01*
X20980121Y25860868D01*
X20982375Y25859139D01*
X21116291Y25803670D01*
X21260000Y25784750D01*
X21403709Y25803670D01*
X21537625Y25859139D01*
X21652621Y25947379D01*
X21740861Y26062375D01*
X21763003Y26115832D01*
X21793170Y26188661D01*
X21793171Y26188664D01*
X21796330Y26196291D01*
X21800280Y26226291D01*
X21805300Y26264422D01*
X21834023Y26329349D01*
X21882003Y26364383D01*
X21909991Y26375976D01*
X21909997Y26375979D01*
X21917625Y26379139D01*
X22032621Y26467379D01*
X22120861Y26582375D01*
X22176330Y26716291D01*
X22195250Y26860000D01*
X22176330Y27003709D01*
X22120861Y27137625D01*
X22032621Y27252621D01*
X21917625Y27340861D01*
X21783709Y27396330D01*
X21640000Y27415250D01*
X21496291Y27396330D01*
X21362375Y27340861D01*
X21362135Y27341441D01*
X21299007Y27326126D01*
X21247755Y27341175D01*
X21247625Y27340861D01*
X21113709Y27396330D01*
X20970000Y27415250D01*
X20961812Y27414172D01*
X20851729Y27399679D01*
X20840768Y27398236D01*
X20770619Y27409175D01*
X20717520Y27456303D01*
X20698330Y27524657D01*
X20699399Y27539605D01*
X20700238Y27545972D01*
X20715250Y27660000D01*
X20698135Y27790000D01*
X28624750Y27790000D01*
X28643670Y27646291D01*
X28699139Y27512375D01*
X28787379Y27397379D01*
X28902375Y27309139D01*
X29036291Y27253670D01*
X29180000Y27234750D01*
X29323709Y27253670D01*
X29457625Y27309139D01*
X29572621Y27397379D01*
X29660861Y27512375D01*
X29716330Y27646291D01*
X29725470Y27715715D01*
X29738038Y27744125D01*
X29962340Y27744125D01*
X29975314Y27715715D01*
X29981571Y27668188D01*
X29993670Y27576291D01*
X30049139Y27442375D01*
X30137379Y27327379D01*
X30252375Y27239139D01*
X30386291Y27183670D01*
X30530000Y27164750D01*
X30673709Y27183670D01*
X30681343Y27186832D01*
X30724028Y27204512D01*
X30794618Y27212101D01*
X30858104Y27180321D01*
X30894331Y27119263D01*
X30891797Y27048311D01*
X30888654Y27039887D01*
X30876833Y27011346D01*
X30873670Y27003709D01*
X30870601Y26980394D01*
X30868301Y26962927D01*
X30839579Y26898000D01*
X30791599Y26862966D01*
X30762375Y26850861D01*
X30755824Y26845834D01*
X30755822Y26845833D01*
X30666961Y26777647D01*
X30647379Y26762621D01*
X30559139Y26647625D01*
X30503670Y26513709D01*
X30484750Y26370000D01*
X30503670Y26226291D01*
X30559139Y26092375D01*
X30647379Y25977379D01*
X30762375Y25889139D01*
X30896291Y25833670D01*
X31040000Y25814750D01*
X31183709Y25833670D01*
X31316783Y25888790D01*
X31387372Y25896379D01*
X31413217Y25888790D01*
X31546291Y25833670D01*
X31690000Y25814750D01*
X31833709Y25833670D01*
X31967625Y25889139D01*
X32082621Y25977379D01*
X32170861Y26092375D01*
X32226330Y26226291D01*
X32231699Y26267074D01*
X32260421Y26332000D01*
X32308401Y26367034D01*
X32337625Y26379139D01*
X32344938Y26384750D01*
X32446071Y26462353D01*
X32452621Y26467379D01*
X32540861Y26582375D01*
X32596330Y26716291D01*
X32615250Y26860000D01*
X32596330Y27003709D01*
X32540861Y27137625D01*
X32452621Y27252621D01*
X32337625Y27340861D01*
X32203709Y27396330D01*
X32060000Y27415250D01*
X31916291Y27396330D01*
X31783218Y27341210D01*
X31712628Y27333621D01*
X31686782Y27341210D01*
X31553709Y27396330D01*
X31410000Y27415250D01*
X31266291Y27396330D01*
X31258657Y27393168D01*
X31215972Y27375488D01*
X31145382Y27367899D01*
X31081896Y27399679D01*
X31045669Y27460737D01*
X31048203Y27531689D01*
X31051346Y27540113D01*
X31063167Y27568654D01*
X31063169Y27568660D01*
X31066330Y27576291D01*
X31085250Y27720000D01*
X31074718Y27800000D01*
X38474750Y27800000D01*
X38493670Y27656291D01*
X38549139Y27522375D01*
X38637379Y27407379D01*
X38752375Y27319139D01*
X38886291Y27263670D01*
X39030000Y27244750D01*
X39173709Y27263670D01*
X39307625Y27319139D01*
X39422621Y27407379D01*
X39510861Y27522375D01*
X39566330Y27656291D01*
X39576034Y27730000D01*
X39914750Y27730000D01*
X39933670Y27586291D01*
X39989139Y27452375D01*
X40077379Y27337379D01*
X40192375Y27249139D01*
X40326291Y27193670D01*
X40470000Y27174750D01*
X40601912Y27192117D01*
X40672060Y27181178D01*
X40725159Y27134050D01*
X40744349Y27065696D01*
X40743280Y27050748D01*
X40734461Y26983762D01*
X40705738Y26918835D01*
X40657757Y26883800D01*
X40602375Y26860861D01*
X40595824Y26855834D01*
X40595822Y26855833D01*
X40554364Y26824021D01*
X40487379Y26772621D01*
X40399139Y26657625D01*
X40343670Y26523709D01*
X40324750Y26380000D01*
X40343670Y26236291D01*
X40399139Y26102375D01*
X40487379Y25987379D01*
X40602375Y25899139D01*
X40736291Y25843670D01*
X40880000Y25824750D01*
X41023709Y25843670D01*
X41157625Y25899139D01*
X41162786Y25903100D01*
X41230992Y25919648D01*
X41287129Y25903165D01*
X41292375Y25899139D01*
X41426291Y25843670D01*
X41570000Y25824750D01*
X41713709Y25843670D01*
X41847625Y25899139D01*
X41962621Y25987379D01*
X42050861Y26102375D01*
X42059827Y26124021D01*
X42103170Y26228661D01*
X42103171Y26228664D01*
X42106330Y26236291D01*
X42115539Y26306238D01*
X42144262Y26371165D01*
X42192244Y26406200D01*
X42193768Y26406831D01*
X42215853Y26415979D01*
X42239994Y26425978D01*
X42239995Y26425979D01*
X42247625Y26429139D01*
X42282604Y26455979D01*
X42356071Y26512353D01*
X42362621Y26517379D01*
X42450861Y26632375D01*
X42506330Y26766291D01*
X42525250Y26910000D01*
X42506330Y27053709D01*
X42450861Y27187625D01*
X42362621Y27302621D01*
X42247625Y27390861D01*
X42113709Y27446330D01*
X41970000Y27465250D01*
X41826291Y27446330D01*
X41692375Y27390861D01*
X41687214Y27386900D01*
X41619008Y27370352D01*
X41562871Y27386835D01*
X41557625Y27390861D01*
X41423709Y27446330D01*
X41280000Y27465250D01*
X41148088Y27447883D01*
X41077940Y27458822D01*
X41024841Y27505950D01*
X41005651Y27574304D01*
X41006720Y27589251D01*
X41024172Y27721811D01*
X41024172Y27721812D01*
X41025250Y27730000D01*
X41016034Y27800000D01*
X48424750Y27800000D01*
X48443670Y27656291D01*
X48499139Y27522375D01*
X48587379Y27407379D01*
X48702375Y27319139D01*
X48836291Y27263670D01*
X48980000Y27244750D01*
X49123709Y27263670D01*
X49257625Y27319139D01*
X49372621Y27407379D01*
X49460861Y27522375D01*
X49516330Y27656291D01*
X49523761Y27712737D01*
X49552483Y27777663D01*
X49570221Y27789363D01*
X49727848Y27789363D01*
X49742918Y27779930D01*
X49773605Y27712737D01*
X49778986Y27671870D01*
X49783670Y27636291D01*
X49839139Y27502375D01*
X49927379Y27387379D01*
X50042375Y27299139D01*
X50176291Y27243670D01*
X50320000Y27224750D01*
X50463709Y27243670D01*
X50596454Y27298654D01*
X50667043Y27306243D01*
X50730530Y27274464D01*
X50766757Y27213405D01*
X50764223Y27142454D01*
X50761080Y27134028D01*
X50743399Y27091340D01*
X50723670Y27043709D01*
X50715854Y26984341D01*
X50687132Y26919414D01*
X50639150Y26884378D01*
X50637755Y26883800D01*
X50582375Y26860861D01*
X50467379Y26772621D01*
X50379139Y26657625D01*
X50323670Y26523709D01*
X50304750Y26380000D01*
X50323670Y26236291D01*
X50379139Y26102375D01*
X50467379Y25987379D01*
X50582375Y25899139D01*
X50716291Y25843670D01*
X50860000Y25824750D01*
X51003709Y25843670D01*
X51131783Y25896719D01*
X51202372Y25904308D01*
X51228216Y25896720D01*
X51356291Y25843670D01*
X51500000Y25824750D01*
X51643709Y25843670D01*
X51777625Y25899139D01*
X51892621Y25987379D01*
X51980861Y26102375D01*
X52036330Y26236291D01*
X52044146Y26295660D01*
X52072868Y26360586D01*
X52120850Y26395622D01*
X52146387Y26406200D01*
X52177625Y26419139D01*
X52292621Y26507379D01*
X52380861Y26622375D01*
X52436330Y26756291D01*
X52455250Y26900000D01*
X52449984Y26940000D01*
X54184750Y26940000D01*
X54203670Y26796291D01*
X54259139Y26662375D01*
X54347379Y26547379D01*
X54462375Y26459139D01*
X54596291Y26403670D01*
X54740000Y26384750D01*
X54883709Y26403670D01*
X55017625Y26459139D01*
X55132621Y26547379D01*
X55220861Y26662375D01*
X55276330Y26796291D01*
X55295250Y26940000D01*
X55276330Y27083709D01*
X55220861Y27217625D01*
X55206163Y27236780D01*
X55180562Y27302997D01*
X55194826Y27372546D01*
X55206163Y27390187D01*
X55225832Y27415821D01*
X55225832Y27415822D01*
X55230861Y27422375D01*
X55286330Y27556291D01*
X55305250Y27700000D01*
X55286330Y27843709D01*
X55230861Y27977625D01*
X55142621Y28092621D01*
X55027625Y28180861D01*
X54893709Y28236330D01*
X54750000Y28255250D01*
X54606291Y28236330D01*
X54472375Y28180861D01*
X54357379Y28092621D01*
X54269139Y27977625D01*
X54213670Y27843709D01*
X54194750Y27700000D01*
X54213670Y27556291D01*
X54269139Y27422375D01*
X54283837Y27403220D01*
X54309438Y27337003D01*
X54295174Y27267454D01*
X54283837Y27249813D01*
X54265433Y27225828D01*
X54259139Y27217625D01*
X54203670Y27083709D01*
X54184750Y26940000D01*
X52449984Y26940000D01*
X52436330Y27043709D01*
X52380861Y27177625D01*
X52292621Y27292621D01*
X52177625Y27380861D01*
X52043709Y27436330D01*
X51900000Y27455250D01*
X51756291Y27436330D01*
X51628217Y27383281D01*
X51557628Y27375692D01*
X51531784Y27383280D01*
X51403709Y27436330D01*
X51260000Y27455250D01*
X51116291Y27436330D01*
X50983546Y27381346D01*
X50912957Y27373757D01*
X50849470Y27405536D01*
X50813243Y27466595D01*
X50815777Y27537546D01*
X50818920Y27545972D01*
X50853168Y27628657D01*
X50853169Y27628660D01*
X50856330Y27636291D01*
X50875250Y27780000D01*
X50856330Y27923709D01*
X50800861Y28057625D01*
X50712621Y28172621D01*
X50597625Y28260861D01*
X50463709Y28316330D01*
X50320000Y28335250D01*
X50176291Y28316330D01*
X50042375Y28260861D01*
X49927379Y28172621D01*
X49839139Y28057625D01*
X49783670Y27923709D01*
X49776776Y27871340D01*
X49776239Y27867264D01*
X49747517Y27802337D01*
X49727848Y27789363D01*
X49570221Y27789363D01*
X49572152Y27790637D01*
X49557082Y27800070D01*
X49526395Y27867263D01*
X49518725Y27925520D01*
X49516330Y27943709D01*
X49460861Y28077625D01*
X49372621Y28192621D01*
X49257625Y28280861D01*
X49123709Y28336330D01*
X48980000Y28355250D01*
X48836291Y28336330D01*
X48702375Y28280861D01*
X48587379Y28192621D01*
X48499139Y28077625D01*
X48443670Y27943709D01*
X48424750Y27800000D01*
X41016034Y27800000D01*
X41006330Y27873709D01*
X40950861Y28007625D01*
X40862621Y28122621D01*
X40747625Y28210861D01*
X40613709Y28266330D01*
X40470000Y28285250D01*
X40326291Y28266330D01*
X40192375Y28210861D01*
X40077379Y28122621D01*
X39989139Y28007625D01*
X39933670Y27873709D01*
X39914750Y27730000D01*
X39576034Y27730000D01*
X39585250Y27800000D01*
X39566330Y27943709D01*
X39510861Y28077625D01*
X39422621Y28192621D01*
X39307625Y28280861D01*
X39173709Y28336330D01*
X39030000Y28355250D01*
X38886291Y28336330D01*
X38752375Y28280861D01*
X38637379Y28192621D01*
X38549139Y28077625D01*
X38493670Y27943709D01*
X38474750Y27800000D01*
X31074718Y27800000D01*
X31066330Y27863709D01*
X31010861Y27997625D01*
X30922621Y28112621D01*
X30807625Y28200861D01*
X30673709Y28256330D01*
X30530000Y28275250D01*
X30386291Y28256330D01*
X30252375Y28200861D01*
X30137379Y28112621D01*
X30049139Y27997625D01*
X29993670Y27863709D01*
X29992592Y27855520D01*
X29984530Y27794285D01*
X29962340Y27744125D01*
X29738038Y27744125D01*
X29747660Y27765875D01*
X29734686Y27794285D01*
X29718725Y27915520D01*
X29716330Y27933709D01*
X29660861Y28067625D01*
X29572621Y28182621D01*
X29457625Y28270861D01*
X29323709Y28326330D01*
X29180000Y28345250D01*
X29036291Y28326330D01*
X28902375Y28270861D01*
X28787379Y28182621D01*
X28699139Y28067625D01*
X28643670Y27933709D01*
X28624750Y27790000D01*
X20698135Y27790000D01*
X20696330Y27803709D01*
X20640861Y27937625D01*
X20552621Y28052621D01*
X20437625Y28140861D01*
X20303709Y28196330D01*
X20160000Y28215250D01*
X20016291Y28196330D01*
X19882375Y28140861D01*
X19767379Y28052621D01*
X19679139Y27937625D01*
X19675979Y27929995D01*
X19656683Y27883411D01*
X19612135Y27828130D01*
X19544772Y27805709D01*
X19475980Y27823267D01*
X19427602Y27875229D01*
X19415352Y27915182D01*
X19411534Y27944178D01*
X19406330Y27983709D01*
X19350861Y28117625D01*
X19262621Y28232621D01*
X19147625Y28320861D01*
X19013709Y28376330D01*
X18870000Y28395250D01*
X18726291Y28376330D01*
X18592375Y28320861D01*
X18477379Y28232621D01*
X18389139Y28117625D01*
X18333670Y27983709D01*
X18314750Y27840000D01*
X10299228Y27840000D01*
X10299264Y28840000D01*
X13624752Y28840000D01*
X13643672Y28696291D01*
X13699141Y28562375D01*
X13787381Y28447379D01*
X13902377Y28359139D01*
X14036293Y28303670D01*
X14180002Y28284750D01*
X14323711Y28303670D01*
X14457627Y28359139D01*
X14572623Y28447379D01*
X14660863Y28562375D01*
X14716332Y28696291D01*
X14731302Y28810000D01*
X22984750Y28810000D01*
X23003670Y28666291D01*
X23059139Y28532375D01*
X23147379Y28417379D01*
X23262375Y28329139D01*
X23396291Y28273670D01*
X23540000Y28254750D01*
X23683709Y28273670D01*
X23817625Y28329139D01*
X23932621Y28417379D01*
X24020861Y28532375D01*
X24076330Y28666291D01*
X24095250Y28810000D01*
X24087351Y28870000D01*
X33824750Y28870000D01*
X33843670Y28726291D01*
X33899139Y28592375D01*
X33987379Y28477379D01*
X34102375Y28389139D01*
X34236291Y28333670D01*
X34380000Y28314750D01*
X34523709Y28333670D01*
X34657625Y28389139D01*
X34772621Y28477379D01*
X34860861Y28592375D01*
X34916330Y28726291D01*
X34929984Y28830000D01*
X43854750Y28830000D01*
X43873670Y28686291D01*
X43929139Y28552375D01*
X44017379Y28437379D01*
X44132375Y28349139D01*
X44266291Y28293670D01*
X44410000Y28274750D01*
X44553709Y28293670D01*
X44687625Y28349139D01*
X44802621Y28437379D01*
X44890861Y28552375D01*
X44946330Y28686291D01*
X44965250Y28830000D01*
X44946330Y28973709D01*
X44890861Y29107625D01*
X44802621Y29222621D01*
X44687625Y29310861D01*
X44553709Y29366330D01*
X44410000Y29385250D01*
X44266291Y29366330D01*
X44132375Y29310861D01*
X44017379Y29222621D01*
X43929139Y29107625D01*
X43873670Y28973709D01*
X43854750Y28830000D01*
X34929984Y28830000D01*
X34935250Y28870000D01*
X34916330Y29013709D01*
X34860861Y29147625D01*
X34772621Y29262621D01*
X34657625Y29350861D01*
X34523709Y29406330D01*
X34380000Y29425250D01*
X34236291Y29406330D01*
X34102375Y29350861D01*
X33987379Y29262621D01*
X33899139Y29147625D01*
X33843670Y29013709D01*
X33824750Y28870000D01*
X24087351Y28870000D01*
X24076330Y28953709D01*
X24020861Y29087625D01*
X23932621Y29202621D01*
X23817625Y29290861D01*
X23683709Y29346330D01*
X23540000Y29365250D01*
X23396291Y29346330D01*
X23262375Y29290861D01*
X23147379Y29202621D01*
X23059139Y29087625D01*
X23003670Y28953709D01*
X22984750Y28810000D01*
X14731302Y28810000D01*
X14735252Y28840000D01*
X14716332Y28983709D01*
X14660863Y29117625D01*
X14572623Y29232621D01*
X14457627Y29320861D01*
X14323711Y29376330D01*
X14180002Y29395250D01*
X14036293Y29376330D01*
X13902377Y29320861D01*
X13787381Y29232621D01*
X13699141Y29117625D01*
X13643672Y28983709D01*
X13624752Y28840000D01*
X10299264Y28840000D01*
X10299353Y31300000D01*
X56044750Y31300000D01*
X56063670Y31156291D01*
X56119139Y31022375D01*
X56207379Y30907379D01*
X56322375Y30819139D01*
X56456291Y30763670D01*
X56600000Y30744750D01*
X56743709Y30763670D01*
X56877625Y30819139D01*
X56992621Y30907379D01*
X56993605Y30908661D01*
X57053217Y30941213D01*
X57124032Y30936148D01*
X57166000Y30909176D01*
X57167379Y30907379D01*
X57282375Y30819139D01*
X57416291Y30763670D01*
X57560000Y30744750D01*
X57703709Y30763670D01*
X57837625Y30819139D01*
X57952621Y30907379D01*
X58040861Y31022375D01*
X58096330Y31156291D01*
X58115250Y31300000D01*
X58096330Y31443709D01*
X58040861Y31577625D01*
X57952621Y31692621D01*
X57837625Y31780861D01*
X57703709Y31836330D01*
X57560000Y31855250D01*
X57416291Y31836330D01*
X57282375Y31780861D01*
X57167379Y31692621D01*
X57166395Y31691339D01*
X57106783Y31658787D01*
X57035968Y31663852D01*
X56994000Y31690824D01*
X56992621Y31692621D01*
X56877625Y31780861D01*
X56743709Y31836330D01*
X56600000Y31855250D01*
X56456291Y31836330D01*
X56322375Y31780861D01*
X56207379Y31692621D01*
X56119139Y31577625D01*
X56063670Y31443709D01*
X56044750Y31300000D01*
X10299353Y31300000D01*
X10299375Y31902726D01*
X10301289Y31924597D01*
X10302090Y31929140D01*
X10302090Y31929145D01*
X10304004Y31940000D01*
X10302090Y31950857D01*
X10302090Y31961876D01*
X10302459Y31961876D01*
X10301823Y31974201D01*
X10316043Y32173032D01*
X10318601Y32190827D01*
X10366347Y32410315D01*
X10371412Y32427565D01*
X10395290Y32491582D01*
X10449910Y32638024D01*
X10457378Y32654376D01*
X10565026Y32851519D01*
X10574746Y32866643D01*
X10709356Y33046461D01*
X10721129Y33060047D01*
X10879953Y33218871D01*
X10893539Y33230644D01*
X11073357Y33365254D01*
X11088481Y33374974D01*
X11285624Y33482622D01*
X11301976Y33490090D01*
X11391256Y33523390D01*
X11512441Y33568590D01*
X11529680Y33573652D01*
X11749173Y33621399D01*
X11766968Y33623957D01*
X11965799Y33638177D01*
X11978124Y33637541D01*
X11978124Y33637910D01*
X11989143Y33637910D01*
X12000000Y33635996D01*
X12015392Y33638710D01*
X12037271Y33640624D01*
X63962729Y33640624D01*
X63984608Y33638710D01*
G37*
G04 #@! TD.AperFunction*
G04 #@! TD*
M02*
