G04 #@! TF.GenerationSoftware,KiCad,Pcbnew,(6.0.0)*
G04 #@! TF.CreationDate,2022-03-25T21:10:54+08:00*
G04 #@! TF.ProjectId,PowerSupply,506f7765-7253-4757-9070-6c792e6b6963,rev?*
G04 #@! TF.SameCoordinates,PX5e56640PY77750e0*
G04 #@! TF.FileFunction,Copper,L3,Inr*
G04 #@! TF.FilePolarity,Positive*
%FSLAX46Y46*%
G04 Gerber Fmt 4.6, Leading zero omitted, Abs format (unit mm)*
G04 Created by KiCad (PCBNEW (6.0.0)) date 2022-03-25 21:10:54*
%MOMM*%
%LPD*%
G01*
G04 APERTURE LIST*
G04 #@! TA.AperFunction,ViaPad*
%ADD10C,0.500000*%
G04 #@! TD*
G04 #@! TA.AperFunction,Conductor*
%ADD11C,0.500000*%
G04 #@! TD*
G04 APERTURE END LIST*
D10*
G04 #@! TO.N,GND*
X48330000Y24310001D03*
X49430000Y24310000D03*
X48879999Y24310001D03*
X38849999Y24320000D03*
X39400000Y24320000D03*
X29680000Y24300000D03*
X29130000Y24300000D03*
X28580001Y24300000D03*
X11690000Y29590000D03*
X10690000Y29590000D03*
X65390000Y29490000D03*
X64390000Y29490000D03*
X18070000Y24320000D03*
X18619999Y24320000D03*
X19170000Y24320000D03*
X57429999Y14305001D03*
X57970000Y15005000D03*
X56870000Y15005001D03*
X56880000Y14305001D03*
X57980000Y14305000D03*
X57419999Y15005001D03*
X57970000Y13605000D03*
X57419999Y13605001D03*
X56880000Y12905001D03*
X57980000Y12905000D03*
X56870000Y13605001D03*
X57429999Y12905001D03*
X58680000Y12905001D03*
X59219999Y13605001D03*
X59770000Y13605000D03*
X59780000Y12905000D03*
X58670000Y13605001D03*
X59229999Y12905001D03*
X59219999Y15005001D03*
X59780000Y14305000D03*
X59229999Y14305001D03*
X58670000Y15005001D03*
X59770000Y15005000D03*
X58680000Y14305001D03*
X57075000Y26693334D03*
X57750000Y26693334D03*
X56400000Y26703334D03*
X57065000Y25916668D03*
X56390001Y25926668D03*
X57740000Y25916668D03*
X56390000Y25150000D03*
X57065000Y25140000D03*
X57740000Y25140000D03*
X13160000Y33320000D03*
X14160000Y33320000D03*
X15160000Y33320000D03*
X16160000Y33320000D03*
X17160000Y33320000D03*
X18160000Y33320000D03*
X19160000Y33320000D03*
X20160000Y33320000D03*
X21160000Y33320000D03*
X22160000Y33320000D03*
X23160000Y33320000D03*
X24160000Y33320000D03*
X25160000Y33320000D03*
X26160000Y33320000D03*
X27160000Y33320000D03*
X28160000Y33320000D03*
X29160000Y33320000D03*
X30160000Y33320000D03*
X31160000Y33320000D03*
X32160000Y33320000D03*
X33160000Y33320000D03*
X34160000Y33320000D03*
X35160000Y33320000D03*
X36160000Y33320000D03*
X37160000Y33320000D03*
X38160000Y33320000D03*
X39160000Y33320000D03*
X40160000Y33320000D03*
X41160000Y33320000D03*
X42160000Y33320000D03*
X43160000Y33320000D03*
X44160000Y33320000D03*
X45160000Y33320000D03*
X46160000Y33320000D03*
X47160000Y33320000D03*
X48160000Y33320000D03*
X49160000Y33320000D03*
X50160000Y33320000D03*
X51160000Y33320000D03*
X52160000Y33320000D03*
X53160000Y33320000D03*
X54160000Y33320000D03*
X55160000Y33320000D03*
X56160000Y33320000D03*
X57160000Y33320000D03*
X58160000Y33320000D03*
X59160000Y33320000D03*
X60160000Y33320000D03*
X61160000Y33320000D03*
X12290000Y32130000D03*
X13160000Y32320000D03*
X14160000Y32320000D03*
X15160000Y32320000D03*
X16160000Y32320000D03*
X17160000Y32320000D03*
X18160000Y32320000D03*
X19160000Y32320000D03*
X20160000Y32320000D03*
X21160000Y32320000D03*
X22160000Y32320000D03*
X23160000Y32320000D03*
X24160000Y32320000D03*
X25160000Y32320000D03*
X26160000Y32320000D03*
X27160000Y32320000D03*
X28160000Y32320000D03*
X29160000Y32320000D03*
X30160000Y32320000D03*
X31160000Y32320000D03*
X32160000Y32320000D03*
X33160000Y32320000D03*
X34160000Y32320000D03*
X35160000Y32320000D03*
X36160000Y32320000D03*
X37160000Y32320000D03*
X38160000Y32320000D03*
X39160000Y32320000D03*
X40160000Y32320000D03*
X41160000Y32320000D03*
X42160000Y32320000D03*
X43160000Y32320000D03*
X44160000Y32320000D03*
X45160000Y32320000D03*
X46160000Y32320000D03*
X47160000Y32320000D03*
X48160000Y32320000D03*
X49160000Y32320000D03*
X50160000Y32320000D03*
X51160000Y32320000D03*
X52160000Y32320000D03*
X53160000Y32320000D03*
X54160000Y32320000D03*
X55160000Y32320000D03*
X56160000Y32320000D03*
X57160000Y32320000D03*
X58160000Y32320000D03*
X59160000Y32320000D03*
X60160000Y32320000D03*
X61160000Y32320000D03*
X62160000Y32320000D03*
X62160000Y33320000D03*
X63160000Y32320000D03*
X63160000Y33320000D03*
X63860000Y32050000D03*
X64160000Y33320000D03*
X11300000Y33020000D03*
X10670000Y31600000D03*
X11780000Y31470000D03*
X10690000Y30590000D03*
X11690000Y30590000D03*
X10690000Y28590000D03*
X11690000Y28590000D03*
X10690000Y27590000D03*
X11690000Y27590000D03*
X10690000Y26590000D03*
X11690000Y26590000D03*
X10690000Y25590000D03*
X11690000Y25590000D03*
X10690000Y24590000D03*
X11690000Y24590000D03*
X10690000Y23590000D03*
X11690000Y23590000D03*
X10690000Y22590000D03*
X11690000Y22590000D03*
X10690000Y21590000D03*
X11690000Y21590000D03*
X10690000Y20590000D03*
X11690000Y20590000D03*
X10690000Y19590000D03*
X11690000Y19590000D03*
X10690000Y18590000D03*
X11690000Y18590000D03*
X10690000Y17590000D03*
X11690000Y17590000D03*
X10690000Y16590000D03*
X11690000Y16590000D03*
X10690000Y15590000D03*
X11690000Y15590000D03*
X10690000Y14590000D03*
X11690000Y14590000D03*
X10690000Y13590000D03*
X11690000Y13590000D03*
X10690000Y12590000D03*
X11690000Y12590000D03*
X11690000Y11590000D03*
X41690000Y11590000D03*
X42690000Y11590000D03*
X43690000Y11590000D03*
X44690000Y11590000D03*
X45690000Y11590000D03*
X46690000Y11590000D03*
X47690000Y11590000D03*
X48690000Y11590000D03*
X49690000Y11590000D03*
X50690000Y11590000D03*
X51690000Y11590000D03*
X52690000Y11590000D03*
X53690000Y11590000D03*
X54690000Y11590000D03*
X55690000Y11590000D03*
X56690000Y11590000D03*
X57690000Y11590000D03*
X58690000Y11590000D03*
X59690000Y11590000D03*
X60690000Y11590000D03*
X61690000Y11590000D03*
X62690000Y11590000D03*
X63600000Y11860000D03*
X33690000Y10590000D03*
X34690000Y10590000D03*
X35690000Y10590000D03*
X36690000Y10590000D03*
X37690000Y10590000D03*
X38690000Y10590000D03*
X39690000Y10590000D03*
X40690000Y10590000D03*
X41690000Y10590000D03*
X42690000Y10590000D03*
X43690000Y10590000D03*
X44690000Y10590000D03*
X45690000Y10590000D03*
X46690000Y10590000D03*
X47690000Y10590000D03*
X48690000Y10590000D03*
X49690000Y10590000D03*
X50690000Y10590000D03*
X51690000Y10590000D03*
X52690000Y10590000D03*
X53690000Y10590000D03*
X54690000Y10590000D03*
X55690000Y10590000D03*
X56690000Y10590000D03*
X57690000Y10590000D03*
X58690000Y10590000D03*
X59690000Y10590000D03*
X60690000Y10590000D03*
X61690000Y10590000D03*
X62690000Y10590000D03*
X63690000Y10590000D03*
X64870000Y32980000D03*
X64290000Y31450000D03*
X65380000Y31520000D03*
X64390000Y30490000D03*
X65380000Y30500000D03*
X64390000Y28490000D03*
X65390000Y28490000D03*
X64390000Y27490000D03*
X65390000Y27490000D03*
X64390000Y26490000D03*
X65390000Y26490000D03*
X64390000Y25490000D03*
X65390000Y25490000D03*
X64390000Y24490000D03*
X65390000Y24490000D03*
X64390000Y23490000D03*
X65390000Y23490000D03*
X64390000Y22490000D03*
X65390000Y22490000D03*
X64390000Y21490000D03*
X65390000Y21490000D03*
X64390000Y20490000D03*
X65390000Y20490000D03*
X64390000Y19490000D03*
X65390000Y19490000D03*
X64390000Y18490000D03*
X65390000Y18490000D03*
X64390000Y17490000D03*
X65390000Y17490000D03*
X64390000Y16490000D03*
X65390000Y16490000D03*
X64390000Y15490000D03*
X65390000Y15490000D03*
X64390000Y14490000D03*
X65390000Y14490000D03*
X64390000Y13490000D03*
X65390000Y13490000D03*
X64210000Y12480000D03*
X65390000Y12550000D03*
X65320000Y11760000D03*
X64440000Y10700000D03*
X21660000Y32820000D03*
X36660000Y32820000D03*
X52660000Y32820000D03*
X53660000Y32820000D03*
X54660000Y32820000D03*
X59660000Y32820000D03*
X43660000Y32820000D03*
X44660000Y32820000D03*
X48660000Y32820000D03*
X19660000Y32820000D03*
X51660000Y32820000D03*
X28660000Y32820000D03*
X56660000Y32820000D03*
X22660000Y32820000D03*
X37660000Y32820000D03*
X27660000Y32820000D03*
X55660000Y32820000D03*
X39660000Y32820000D03*
X46660000Y32820000D03*
X50660000Y32820000D03*
X31660000Y32820000D03*
X20660000Y32820000D03*
X23660000Y32820000D03*
X34660000Y32820000D03*
X32660000Y32820000D03*
X29660000Y32820000D03*
X57660000Y32820000D03*
X61660000Y32820000D03*
X45660000Y32820000D03*
X49660000Y32820000D03*
X41660000Y32820000D03*
X18660000Y32820000D03*
X60660000Y32820000D03*
X30660000Y32820000D03*
X42660000Y32820000D03*
X24660000Y32820000D03*
X58660000Y32820000D03*
X40660000Y32820000D03*
X33660000Y32820000D03*
X25660000Y32820000D03*
X35660000Y32820000D03*
X26660000Y32820000D03*
X38660000Y32820000D03*
X47660000Y32820000D03*
X62660000Y32820000D03*
X63660000Y32820000D03*
X64370000Y32530000D03*
X12590000Y32770000D03*
X13660000Y32820000D03*
X14660000Y32820000D03*
X15660000Y32820000D03*
X16660000Y32820000D03*
X17660000Y32820000D03*
X64770000Y31920000D03*
X64890000Y31060000D03*
X64900000Y29990000D03*
X64890000Y17980000D03*
X64890000Y13980000D03*
X64100000Y11360000D03*
X64890000Y27980000D03*
X64890000Y21980000D03*
X64890000Y25980000D03*
X64890000Y20980000D03*
X64890000Y15980000D03*
X64820000Y12910000D03*
X64890000Y14980000D03*
X64890000Y24980000D03*
X64890000Y23980000D03*
X64890000Y19980000D03*
X64890000Y16980000D03*
X64890000Y22980000D03*
X64890000Y18980000D03*
X64890000Y26980000D03*
X64890000Y28980000D03*
X10850000Y32400000D03*
X11190000Y27110000D03*
X11190000Y20110000D03*
X11190000Y29110000D03*
X11190000Y19110000D03*
X11190000Y31110000D03*
X11190000Y28110000D03*
X11190000Y26110000D03*
X11190000Y24110000D03*
X11190000Y23110000D03*
X11190000Y22110000D03*
X11190000Y21110000D03*
X11190000Y25110000D03*
X11190000Y15110000D03*
X11190000Y13110000D03*
X11190000Y14110000D03*
X11190000Y17110000D03*
X11190000Y18110000D03*
X11190000Y16110000D03*
X11190000Y30110000D03*
X11190000Y12090000D03*
X47210000Y11080000D03*
X54210000Y11080000D03*
X41210000Y11080000D03*
X43210000Y11080000D03*
X62210000Y11080000D03*
X55210000Y11080000D03*
X48210000Y11080000D03*
X61210000Y11080000D03*
X49210000Y11080000D03*
X51210000Y11080000D03*
X58210000Y11080000D03*
X57210000Y11080000D03*
X56210000Y11080000D03*
X50210000Y11080000D03*
X42210000Y11080000D03*
X44210000Y11080000D03*
X45210000Y11080000D03*
X46210000Y11080000D03*
X60210000Y11080000D03*
X53210000Y11080000D03*
X59210000Y11080000D03*
X63210000Y11080000D03*
X52210000Y11080000D03*
X11800000Y32570000D03*
X11360000Y31990000D03*
X65310000Y32360000D03*
X64650000Y11940000D03*
X64980000Y11120000D03*
X57019999Y18505001D03*
X57570000Y18505000D03*
X56470000Y18505001D03*
X57029999Y17805001D03*
X56480000Y17805001D03*
X57580000Y17805000D03*
X23920000Y22730000D03*
X23920000Y22130000D03*
X23920000Y21530000D03*
X24520000Y22730000D03*
X25130000Y22730000D03*
X35410000Y22640000D03*
X34200000Y22640000D03*
X34200000Y21440000D03*
X34800000Y22640000D03*
X34200000Y22040000D03*
X44190000Y22070000D03*
X45400000Y22670000D03*
X44190000Y21470000D03*
X44190000Y22670000D03*
X44790000Y22670000D03*
X57019999Y19895001D03*
X56480000Y19195001D03*
X56470000Y19895001D03*
X57570000Y19895000D03*
X57580000Y19195000D03*
X57029999Y19195001D03*
X55279999Y19895001D03*
X54740000Y19195001D03*
X55840000Y19195000D03*
X55830000Y19895000D03*
X54730000Y19895001D03*
X55289999Y19195001D03*
X53590000Y19195001D03*
X54139999Y19195001D03*
X53580000Y19895001D03*
X54129999Y19895001D03*
X56390001Y27480000D03*
X57740000Y27470000D03*
X38300000Y24320000D03*
X12160000Y33320000D03*
X57060000Y29060000D03*
X57065000Y27470000D03*
G04 #@! TO.N,5V*
X50860000Y26380000D03*
X51500000Y26380000D03*
X31040000Y26370000D03*
X31690000Y26370000D03*
X40880000Y26380000D03*
X41570000Y26380000D03*
X54200000Y25220000D03*
X54770000Y25460000D03*
X53910000Y24690000D03*
X53600000Y24150000D03*
X54200000Y24150000D03*
X20580000Y26340000D03*
X21260000Y26340000D03*
X20970000Y26860000D03*
X21640000Y26860000D03*
X31410000Y26860000D03*
X32060000Y26860000D03*
X24050000Y25630000D03*
X41280000Y26910000D03*
X41970000Y26910000D03*
X33930000Y25640000D03*
X51260000Y26900000D03*
X51900000Y26900000D03*
X43950000Y25640000D03*
X13720000Y25640000D03*
X53580000Y25220000D03*
G04 #@! TO.N,3.3V*
X48980000Y27800000D03*
X48310000Y20530000D03*
G04 #@! TO.N,2.5V*
X39030000Y27800000D03*
X38310000Y20470000D03*
G04 #@! TO.N,1.5V*
X29180000Y27790000D03*
X28510000Y20410000D03*
G04 #@! TO.N,1.2V*
X18870000Y27840000D03*
X18060000Y20470000D03*
G04 #@! TO.N,Net-(1V2-Pad1)*
X14180002Y28840000D03*
X20160000Y27660000D03*
G04 #@! TO.N,Net-(1V5-Pad1)*
X23540000Y28810000D03*
X30530000Y27720000D03*
G04 #@! TO.N,Net-(2V5-Pad1)*
X40470000Y27730000D03*
X34380000Y28870000D03*
G04 #@! TO.N,Net-(3V3-Pad1)*
X50320000Y27780000D03*
X44410000Y28830000D03*
G04 #@! TO.N,Net-(C3-Pad1)*
X56600000Y31300000D03*
X54750000Y27700000D03*
G04 #@! TO.N,Net-(R34-Pad2)*
X57560000Y31300000D03*
X54740000Y26940000D03*
G04 #@! TO.N,REG_EN2*
X52925000Y15350000D03*
X26050000Y8690000D03*
G04 #@! TO.N,REG_EN1*
X53420000Y17785000D03*
X27050000Y9630000D03*
G04 #@! TO.N,REG_CHG*
X53920000Y15345000D03*
X28043332Y10610000D03*
G04 #@! TO.N,REG_POWER*
X54420000Y17785000D03*
X29044998Y11945000D03*
G04 #@! TO.N,BAT_ISET*
X54920000Y15345000D03*
X30046664Y11945000D03*
G04 #@! TO.N,BAT_PG*
X55420000Y17785000D03*
X31048330Y11945000D03*
G04 #@! TO.N,BAT_CHG*
X32060000Y11945000D03*
X55920000Y15345000D03*
G04 #@! TD*
D11*
G04 #@! TO.N,3.3V*
X50540000Y24780000D02*
X50540000Y22760000D01*
X50540000Y22760000D02*
X48310000Y20530000D01*
X48980000Y26340000D02*
X50540000Y24780000D01*
X48980000Y27800000D02*
X48980000Y26340000D01*
G04 #@! TO.N,2.5V*
X39030000Y27800000D02*
X39030000Y26270000D01*
X39030000Y26270000D02*
X40410000Y24890000D01*
X40410000Y24890000D02*
X40410000Y22570000D01*
X40410000Y22570000D02*
X38310000Y20470000D01*
G04 #@! TO.N,1.5V*
X30590000Y22490000D02*
X28510000Y20410000D01*
X29180000Y27790000D02*
X29180000Y26240000D01*
X29180000Y26240000D02*
X30590000Y24830000D01*
X30590000Y24830000D02*
X30590000Y22490000D01*
G04 #@! TO.N,1.2V*
X20210000Y22620000D02*
X18060000Y20470000D01*
X18870000Y27840000D02*
X18870000Y25970000D01*
X20210000Y24630000D02*
X20210000Y22620000D01*
X18870000Y25970000D02*
X20210000Y24630000D01*
G04 #@! TO.N,Net-(1V2-Pad1)*
X19500000Y28840000D02*
X14180002Y28840000D01*
X20160000Y27660000D02*
X20160000Y28180000D01*
X20160000Y28180000D02*
X19500000Y28840000D01*
G04 #@! TO.N,Net-(1V5-Pad1)*
X30530000Y27720000D02*
X30530000Y28080000D01*
X30530000Y28080000D02*
X29800000Y28810000D01*
X29800000Y28810000D02*
X23540000Y28810000D01*
G04 #@! TO.N,Net-(2V5-Pad1)*
X39670000Y28870000D02*
X34380000Y28870000D01*
X40470000Y28070000D02*
X39670000Y28870000D01*
X40470000Y27730000D02*
X40470000Y28070000D01*
G04 #@! TO.N,Net-(3V3-Pad1)*
X50320000Y28200000D02*
X49690000Y28830000D01*
X49690000Y28830000D02*
X44410000Y28830000D01*
X50320000Y27780000D02*
X50320000Y28200000D01*
G04 #@! TO.N,Net-(C3-Pad1)*
X54760000Y27710000D02*
X54750000Y27700000D01*
X56600000Y31300000D02*
X54760000Y29460000D01*
X54760000Y29460000D02*
X54760000Y27710000D01*
G04 #@! TO.N,Net-(R34-Pad2)*
X55110000Y26940000D02*
X55580000Y27410000D01*
X55580000Y28940000D02*
X57560000Y30920000D01*
X54740000Y26940000D02*
X55110000Y26940000D01*
X57560000Y30920000D02*
X57560000Y31300000D01*
X55580000Y27410000D02*
X55580000Y28940000D01*
G04 #@! TO.N,REG_EN2*
X52925000Y15350000D02*
X28425000Y15350000D01*
X28425000Y15350000D02*
X26050000Y12975000D01*
X26050000Y12975000D02*
X26050000Y8690000D01*
G04 #@! TO.N,REG_CHG*
X29800000Y14450000D02*
X28043332Y12693332D01*
X28043332Y12693332D02*
X28043332Y10610000D01*
X53425000Y14450000D02*
X29800000Y14450000D01*
X53920000Y15345000D02*
X53920000Y14945000D01*
X53920000Y14945000D02*
X53425000Y14450000D01*
G04 #@! TO.N,BAT_ISET*
X54275000Y13525000D02*
X31215000Y13525000D01*
X54920000Y15345000D02*
X54920000Y14170000D01*
X31215000Y13525000D02*
X30046664Y12356664D01*
X30046664Y12356664D02*
X30046664Y11945000D01*
X54920000Y14170000D02*
X54275000Y13525000D01*
G04 #@! TO.N,BAT_CHG*
X55920000Y13845000D02*
X54700000Y12625000D01*
X32725000Y12625000D02*
X32050000Y11950000D01*
X54700000Y12625000D02*
X32725000Y12625000D01*
X55920000Y15345000D02*
X55920000Y13845000D01*
G04 #@! TD*
G04 #@! TA.AperFunction,Conductor*
G04 #@! TO.N,GND*
G36*
X63984608Y33638710D02*
G01*
X63989145Y33637910D01*
X64000000Y33635996D01*
X64010857Y33637910D01*
X64021876Y33637910D01*
X64021876Y33637541D01*
X64034201Y33638177D01*
X64233032Y33623957D01*
X64250827Y33621399D01*
X64470320Y33573652D01*
X64487559Y33568590D01*
X64608744Y33523390D01*
X64698024Y33490090D01*
X64714376Y33482622D01*
X64911519Y33374974D01*
X64926643Y33365254D01*
X65106461Y33230644D01*
X65120047Y33218871D01*
X65278871Y33060047D01*
X65290644Y33046461D01*
X65425254Y32866643D01*
X65434974Y32851519D01*
X65542622Y32654376D01*
X65550090Y32638024D01*
X65604711Y32491582D01*
X65628588Y32427565D01*
X65633653Y32410315D01*
X65681399Y32190827D01*
X65683957Y32173032D01*
X65698177Y31974201D01*
X65697542Y31961879D01*
X65697910Y31961879D01*
X65697910Y31950859D01*
X65695996Y31940000D01*
X65698710Y31924612D01*
X65700624Y31902735D01*
X65700320Y22223771D01*
X65700001Y12037276D01*
X65698087Y12015402D01*
X65697286Y12010859D01*
X65697286Y12010854D01*
X65695372Y12000000D01*
X65697286Y11989143D01*
X65697286Y11978124D01*
X65696917Y11978124D01*
X65697553Y11965799D01*
X65683333Y11766968D01*
X65680775Y11749173D01*
X65635258Y11539930D01*
X65633029Y11529685D01*
X65627966Y11512441D01*
X65598023Y11432162D01*
X65549466Y11301976D01*
X65541998Y11285624D01*
X65434350Y11088481D01*
X65424630Y11073357D01*
X65290020Y10893539D01*
X65278247Y10879953D01*
X65119423Y10721129D01*
X65105837Y10709356D01*
X64926019Y10574746D01*
X64910895Y10565026D01*
X64713752Y10457378D01*
X64697400Y10449910D01*
X64627574Y10423866D01*
X64486935Y10371410D01*
X64469696Y10366348D01*
X64313522Y10332375D01*
X64250203Y10318601D01*
X64232408Y10316043D01*
X64033577Y10301823D01*
X64021252Y10302459D01*
X64021252Y10302090D01*
X64010233Y10302090D01*
X63999376Y10304004D01*
X63983985Y10301290D01*
X63962112Y10299377D01*
X47254515Y10299711D01*
X32752267Y10300000D01*
X32740754Y10300563D01*
X32729782Y10303740D01*
X32694817Y10300712D01*
X32692034Y10300471D01*
X32681163Y10300001D01*
X32672101Y10300001D01*
X32665537Y10298779D01*
X32653355Y10297121D01*
X32630030Y10295101D01*
X32630029Y10295101D01*
X32618440Y10294097D01*
X32607989Y10288988D01*
X32604732Y10288085D01*
X32601576Y10286867D01*
X32590136Y10284737D01*
X32560295Y10266343D01*
X32549528Y10260411D01*
X32533955Y10252799D01*
X32478624Y10240000D01*
X28676951Y10240000D01*
X28608830Y10260002D01*
X28562337Y10313658D01*
X28552233Y10383932D01*
X28555951Y10401140D01*
X28561712Y10420970D01*
X28566296Y10434022D01*
X28576502Y10458661D01*
X28576503Y10458664D01*
X28579662Y10466291D01*
X28582376Y10486902D01*
X28586300Y10505602D01*
X28593047Y10528825D01*
X28593832Y10539515D01*
X28593832Y10565662D01*
X28594910Y10582109D01*
X28597504Y10601812D01*
X28597504Y10601814D01*
X28598582Y10610000D01*
X28594910Y10637891D01*
X28593832Y10654338D01*
X28593832Y11347450D01*
X28613834Y11415571D01*
X28667490Y11462064D01*
X28737764Y11472168D01*
X28768047Y11463860D01*
X28901289Y11408670D01*
X29044998Y11389750D01*
X29188707Y11408670D01*
X29322623Y11464139D01*
X29437619Y11552379D01*
X29445871Y11563133D01*
X29503210Y11604998D01*
X29574081Y11609218D01*
X29635983Y11574452D01*
X29645795Y11563128D01*
X29649017Y11558929D01*
X29654043Y11552379D01*
X29658536Y11548931D01*
X29659304Y11548079D01*
X29660871Y11546608D01*
X29666278Y11539930D01*
X29717709Y11503380D01*
X29718410Y11502882D01*
X29722106Y11500152D01*
X29769039Y11464139D01*
X29776275Y11461141D01*
X29780464Y11458452D01*
X29782219Y11457535D01*
X29789222Y11452558D01*
X29797305Y11449648D01*
X29797307Y11449647D01*
X29845874Y11432162D01*
X29851411Y11430020D01*
X29865626Y11424132D01*
X29902955Y11408670D01*
X29911146Y11407591D01*
X29917682Y11405840D01*
X29920877Y11404838D01*
X29923053Y11404376D01*
X29931132Y11401467D01*
X29961010Y11399273D01*
X29987529Y11397325D01*
X29994746Y11396585D01*
X30028677Y11392118D01*
X30046664Y11389750D01*
X30054852Y11390828D01*
X30063112Y11390828D01*
X30063112Y11390529D01*
X30066083Y11390614D01*
X30072992Y11391049D01*
X30081555Y11390420D01*
X30093117Y11392751D01*
X30133409Y11400875D01*
X30141865Y11402283D01*
X30182188Y11407592D01*
X30182190Y11407593D01*
X30190373Y11408670D01*
X30197999Y11411829D01*
X30202686Y11413085D01*
X30219746Y11418285D01*
X30229407Y11420233D01*
X30273309Y11442602D01*
X30282294Y11446744D01*
X30316655Y11460977D01*
X30324289Y11464139D01*
X30332321Y11470302D01*
X30351818Y11482604D01*
X30363796Y11488707D01*
X30370119Y11494521D01*
X30370123Y11494524D01*
X30397423Y11519627D01*
X30406003Y11526839D01*
X30432729Y11547347D01*
X30432735Y11547353D01*
X30439285Y11552379D01*
X30447538Y11563134D01*
X30504872Y11604998D01*
X30575743Y11609220D01*
X30637646Y11574456D01*
X30647454Y11563137D01*
X30655709Y11552379D01*
X30770705Y11464139D01*
X30904621Y11408670D01*
X31048330Y11389750D01*
X31192039Y11408670D01*
X31325955Y11464139D01*
X31440951Y11552379D01*
X31452624Y11567592D01*
X31509961Y11609458D01*
X31580832Y11613679D01*
X31642735Y11578914D01*
X31647959Y11573225D01*
X31682524Y11533181D01*
X31702925Y11519627D01*
X31752554Y11486654D01*
X31759516Y11481679D01*
X31782375Y11464139D01*
X31790007Y11460978D01*
X31795693Y11457695D01*
X31800538Y11454691D01*
X31800999Y11454468D01*
X31808153Y11449715D01*
X31845418Y11437606D01*
X31854693Y11434184D01*
X31888375Y11420233D01*
X31916291Y11408670D01*
X31924476Y11407592D01*
X31924477Y11407592D01*
X31946860Y11404645D01*
X31946738Y11403721D01*
X31949246Y11403870D01*
X31951598Y11403106D01*
X31960174Y11402746D01*
X31962082Y11402403D01*
X31967360Y11401946D01*
X32051812Y11390828D01*
X32060000Y11389750D01*
X32203709Y11408670D01*
X32337625Y11464139D01*
X32452621Y11552379D01*
X32496420Y11609458D01*
X32519214Y11639164D01*
X32530080Y11651555D01*
X32916119Y12037595D01*
X32978432Y12071620D01*
X33005215Y12074500D01*
X54685007Y12074500D01*
X54690284Y12074389D01*
X54752294Y12071790D01*
X54763848Y12074500D01*
X54794662Y12081727D01*
X54806333Y12083890D01*
X54821229Y12085931D01*
X54849432Y12089794D01*
X54863230Y12095765D01*
X54884499Y12102799D01*
X54890775Y12104271D01*
X54899136Y12106232D01*
X54906661Y12110369D01*
X54906664Y12110370D01*
X54937268Y12127195D01*
X54947913Y12132411D01*
X54987855Y12149695D01*
X54999541Y12159158D01*
X55018126Y12171646D01*
X55025518Y12175710D01*
X55031308Y12178893D01*
X55039422Y12185897D01*
X55063958Y12210433D01*
X55073759Y12219258D01*
X55098392Y12239206D01*
X55098393Y12239207D01*
X55105070Y12244614D01*
X55110043Y12251612D01*
X55110048Y12251617D01*
X55115968Y12259948D01*
X55129579Y12276054D01*
X56298655Y13445130D01*
X56302464Y13448783D01*
X56341833Y13484985D01*
X56348156Y13490799D01*
X56371087Y13527783D01*
X56377810Y13537565D01*
X56398918Y13565374D01*
X56404112Y13572217D01*
X56409646Y13586196D01*
X56419707Y13606199D01*
X56427635Y13618986D01*
X56439775Y13660772D01*
X56443621Y13672005D01*
X56456474Y13704467D01*
X56459636Y13712453D01*
X56460534Y13720995D01*
X56460535Y13721000D01*
X56461209Y13727409D01*
X56465520Y13749385D01*
X56467874Y13757488D01*
X56467874Y13757489D01*
X56469715Y13763825D01*
X56470500Y13774515D01*
X56470500Y13809210D01*
X56471190Y13822381D01*
X56474504Y13853911D01*
X56475402Y13862455D01*
X56472265Y13881002D01*
X56470500Y13902015D01*
X56470500Y15300662D01*
X56471578Y15317109D01*
X56474172Y15336812D01*
X56475250Y15345000D01*
X56470649Y15379945D01*
X56470500Y15381443D01*
X56470500Y15382785D01*
X56470009Y15386366D01*
X56470008Y15386380D01*
X56464770Y15424611D01*
X56464682Y15425267D01*
X56456986Y15483725D01*
X56456330Y15488709D01*
X56455822Y15489936D01*
X56455206Y15494432D01*
X56426475Y15560826D01*
X56425730Y15562586D01*
X56404019Y15615001D01*
X56400861Y15622625D01*
X56398272Y15626000D01*
X56395305Y15632855D01*
X56352578Y15685619D01*
X56350549Y15688193D01*
X56317646Y15731073D01*
X56317644Y15731075D01*
X56312621Y15737621D01*
X56308128Y15741069D01*
X56307360Y15741921D01*
X56305793Y15743392D01*
X56300386Y15750070D01*
X56248245Y15787124D01*
X56244558Y15789848D01*
X56197625Y15825861D01*
X56190389Y15828859D01*
X56186200Y15831548D01*
X56184445Y15832465D01*
X56177442Y15837442D01*
X56169359Y15840352D01*
X56169357Y15840353D01*
X56120790Y15857838D01*
X56115253Y15859980D01*
X56081079Y15874135D01*
X56063709Y15881330D01*
X56055518Y15882409D01*
X56048982Y15884160D01*
X56045787Y15885162D01*
X56043611Y15885624D01*
X56035532Y15888533D01*
X56000443Y15891110D01*
X55979135Y15892675D01*
X55971918Y15893415D01*
X55928188Y15899172D01*
X55920000Y15900250D01*
X55911812Y15899172D01*
X55903552Y15899172D01*
X55903552Y15899471D01*
X55900581Y15899386D01*
X55893672Y15898951D01*
X55885109Y15899580D01*
X55876688Y15897882D01*
X55833255Y15889125D01*
X55824799Y15887717D01*
X55784476Y15882408D01*
X55784474Y15882407D01*
X55776291Y15881330D01*
X55768665Y15878171D01*
X55763978Y15876915D01*
X55746918Y15871715D01*
X55737257Y15869767D01*
X55704560Y15853107D01*
X55693355Y15847398D01*
X55684370Y15843256D01*
X55677362Y15840353D01*
X55642375Y15825861D01*
X55635820Y15820831D01*
X55634343Y15819698D01*
X55614846Y15807396D01*
X55602868Y15801293D01*
X55596545Y15795479D01*
X55596541Y15795476D01*
X55569241Y15770373D01*
X55560661Y15763161D01*
X55533935Y15742653D01*
X55533929Y15742647D01*
X55527379Y15737621D01*
X55522350Y15731067D01*
X55519957Y15727949D01*
X55517271Y15725988D01*
X55516515Y15725232D01*
X55516397Y15725350D01*
X55462617Y15686086D01*
X55391745Y15681869D01*
X55329845Y15716637D01*
X55320038Y15727956D01*
X55317649Y15731070D01*
X55317644Y15731075D01*
X55312621Y15737621D01*
X55308128Y15741069D01*
X55307360Y15741921D01*
X55305793Y15743392D01*
X55300386Y15750070D01*
X55248245Y15787124D01*
X55244558Y15789848D01*
X55197625Y15825861D01*
X55190389Y15828859D01*
X55186200Y15831548D01*
X55184445Y15832465D01*
X55177442Y15837442D01*
X55169359Y15840352D01*
X55169357Y15840353D01*
X55120790Y15857838D01*
X55115253Y15859980D01*
X55081079Y15874135D01*
X55063709Y15881330D01*
X55055518Y15882409D01*
X55048982Y15884160D01*
X55045787Y15885162D01*
X55043611Y15885624D01*
X55035532Y15888533D01*
X55000443Y15891110D01*
X54979135Y15892675D01*
X54971918Y15893415D01*
X54928188Y15899172D01*
X54920000Y15900250D01*
X54911812Y15899172D01*
X54903552Y15899172D01*
X54903552Y15899471D01*
X54900581Y15899386D01*
X54893672Y15898951D01*
X54885109Y15899580D01*
X54876688Y15897882D01*
X54833255Y15889125D01*
X54824799Y15887717D01*
X54784476Y15882408D01*
X54784474Y15882407D01*
X54776291Y15881330D01*
X54768665Y15878171D01*
X54763978Y15876915D01*
X54746918Y15871715D01*
X54737257Y15869767D01*
X54704560Y15853107D01*
X54693355Y15847398D01*
X54684370Y15843256D01*
X54677362Y15840353D01*
X54642375Y15825861D01*
X54635820Y15820831D01*
X54634343Y15819698D01*
X54614846Y15807396D01*
X54602868Y15801293D01*
X54596545Y15795479D01*
X54596541Y15795476D01*
X54569241Y15770373D01*
X54560661Y15763161D01*
X54533935Y15742653D01*
X54533929Y15742647D01*
X54527379Y15737621D01*
X54522350Y15731067D01*
X54519957Y15727949D01*
X54517271Y15725988D01*
X54516515Y15725232D01*
X54516397Y15725350D01*
X54462617Y15686086D01*
X54391745Y15681869D01*
X54329845Y15716637D01*
X54320038Y15727956D01*
X54317649Y15731070D01*
X54317644Y15731075D01*
X54312621Y15737621D01*
X54308128Y15741069D01*
X54307360Y15741921D01*
X54305793Y15743392D01*
X54300386Y15750070D01*
X54248245Y15787124D01*
X54244558Y15789848D01*
X54197625Y15825861D01*
X54190389Y15828859D01*
X54186200Y15831548D01*
X54184445Y15832465D01*
X54177442Y15837442D01*
X54169359Y15840352D01*
X54169357Y15840353D01*
X54120790Y15857838D01*
X54115253Y15859980D01*
X54081079Y15874135D01*
X54063709Y15881330D01*
X54055518Y15882409D01*
X54048982Y15884160D01*
X54045787Y15885162D01*
X54043611Y15885624D01*
X54035532Y15888533D01*
X54000443Y15891110D01*
X53979135Y15892675D01*
X53971918Y15893415D01*
X53928188Y15899172D01*
X53920000Y15900250D01*
X53911812Y15899172D01*
X53903552Y15899172D01*
X53903552Y15899471D01*
X53900581Y15899386D01*
X53893672Y15898951D01*
X53885109Y15899580D01*
X53876688Y15897882D01*
X53833255Y15889125D01*
X53824799Y15887717D01*
X53784476Y15882408D01*
X53784474Y15882407D01*
X53776291Y15881330D01*
X53768665Y15878171D01*
X53763978Y15876915D01*
X53746918Y15871715D01*
X53737257Y15869767D01*
X53704560Y15853107D01*
X53693355Y15847398D01*
X53684370Y15843256D01*
X53677362Y15840353D01*
X53642375Y15825861D01*
X53635820Y15820831D01*
X53634343Y15819698D01*
X53614846Y15807396D01*
X53602868Y15801293D01*
X53596545Y15795479D01*
X53596541Y15795476D01*
X53569241Y15770373D01*
X53560661Y15763161D01*
X53533935Y15742653D01*
X53533929Y15742647D01*
X53527379Y15737621D01*
X53522350Y15731068D01*
X53516515Y15725232D01*
X53514933Y15726814D01*
X53467038Y15691845D01*
X53396167Y15687626D01*
X53334266Y15722393D01*
X53324460Y15733709D01*
X53322650Y15736068D01*
X53322647Y15736071D01*
X53317621Y15742621D01*
X53306761Y15750955D01*
X53290731Y15765617D01*
X53279201Y15778156D01*
X53264195Y15787460D01*
X53243435Y15800332D01*
X53233125Y15807457D01*
X53209175Y15825835D01*
X53202625Y15830861D01*
X53186707Y15837454D01*
X53168524Y15846778D01*
X53166866Y15847806D01*
X53151014Y15857635D01*
X53114046Y15868375D01*
X53100978Y15872964D01*
X53076339Y15883170D01*
X53076336Y15883171D01*
X53068709Y15886330D01*
X53060528Y15887407D01*
X53060525Y15887408D01*
X53048098Y15889044D01*
X53029404Y15892967D01*
X53006175Y15899715D01*
X52998692Y15900264D01*
X52997792Y15900331D01*
X52997781Y15900331D01*
X52995485Y15900500D01*
X52969338Y15900500D01*
X52952891Y15901578D01*
X52933188Y15904172D01*
X52925000Y15905250D01*
X52916812Y15904172D01*
X52897109Y15901578D01*
X52880662Y15900500D01*
X28439993Y15900500D01*
X28434717Y15900611D01*
X28430310Y15900796D01*
X28372706Y15903210D01*
X28364341Y15901248D01*
X28330338Y15893273D01*
X28318667Y15891110D01*
X28304447Y15889162D01*
X28275568Y15885206D01*
X28267684Y15881794D01*
X28267683Y15881794D01*
X28261770Y15879235D01*
X28240501Y15872201D01*
X28234228Y15870730D01*
X28234226Y15870729D01*
X28225864Y15868768D01*
X28218336Y15864629D01*
X28218335Y15864629D01*
X28187735Y15847806D01*
X28177073Y15842583D01*
X28145027Y15828716D01*
X28145026Y15828715D01*
X28137145Y15825305D01*
X28130472Y15819901D01*
X28125459Y15815842D01*
X28106871Y15803351D01*
X28093692Y15796106D01*
X28085578Y15789103D01*
X28061042Y15764567D01*
X28051241Y15755742D01*
X28026608Y15735794D01*
X28019930Y15730386D01*
X28014957Y15723388D01*
X28014952Y15723383D01*
X28009032Y15715052D01*
X27995421Y15698946D01*
X25671358Y13374882D01*
X25667549Y13371229D01*
X25621844Y13329201D01*
X25598901Y13292198D01*
X25592200Y13282448D01*
X25565888Y13247783D01*
X25560354Y13233805D01*
X25550293Y13213801D01*
X25542365Y13201014D01*
X25539968Y13192763D01*
X25539967Y13192761D01*
X25530225Y13159228D01*
X25526380Y13147998D01*
X25510364Y13107547D01*
X25509466Y13099006D01*
X25509466Y13099005D01*
X25508792Y13092592D01*
X25504480Y13070617D01*
X25500285Y13056175D01*
X25499500Y13045485D01*
X25499500Y13010783D01*
X25498810Y12997613D01*
X25494599Y12957546D01*
X25496031Y12949081D01*
X25496031Y12949072D01*
X25497735Y12939000D01*
X25499500Y12917987D01*
X25499500Y10366000D01*
X25479498Y10297879D01*
X25425842Y10251386D01*
X25373500Y10240000D01*
X24954388Y10240000D01*
X24913476Y10246827D01*
X24866036Y10263113D01*
X24857909Y10265903D01*
X24852775Y10266760D01*
X24852770Y10266761D01*
X24658715Y10299143D01*
X24658712Y10299143D01*
X24653578Y10300000D01*
X24446422Y10300000D01*
X24441288Y10299143D01*
X24441285Y10299143D01*
X24247230Y10266761D01*
X24247225Y10266760D01*
X24242091Y10265903D01*
X24233964Y10263113D01*
X24186524Y10246827D01*
X24145612Y10240000D01*
X12784424Y10240000D01*
X12716303Y10260002D01*
X12669810Y10313658D01*
X12661307Y10339206D01*
X12642890Y10423866D01*
X12625081Y10471615D01*
X12569445Y10620779D01*
X12567874Y10624991D01*
X12464999Y10813394D01*
X12336358Y10985237D01*
X12184571Y11137024D01*
X12012728Y11265665D01*
X11824325Y11368540D01*
X11765663Y11390420D01*
X11627408Y11441987D01*
X11627402Y11441989D01*
X11623200Y11443556D01*
X11618814Y11444510D01*
X11618811Y11444511D01*
X11448002Y11481668D01*
X11413447Y11489185D01*
X11206924Y11503956D01*
X11199334Y11505294D01*
X11188480Y11503380D01*
X11177972Y11503380D01*
X11165619Y11503987D01*
X11152348Y11505294D01*
X11035974Y11516756D01*
X11011754Y11521572D01*
X10866534Y11565624D01*
X10843720Y11575075D01*
X10709896Y11646606D01*
X10689359Y11660328D01*
X10572060Y11756593D01*
X10554595Y11774058D01*
X10458330Y11891357D01*
X10444607Y11911895D01*
X10373077Y12045718D01*
X10363625Y12068535D01*
X10362690Y12071620D01*
X10319574Y12213752D01*
X10314757Y12237975D01*
X10313414Y12251617D01*
X10301989Y12367617D01*
X10301382Y12379967D01*
X10301382Y12390476D01*
X10303296Y12401332D01*
X10300584Y12416714D01*
X10298669Y12438600D01*
X10298671Y12478169D01*
X10298863Y17785000D01*
X52864750Y17785000D01*
X52883670Y17641291D01*
X52939139Y17507375D01*
X53027379Y17392379D01*
X53142375Y17304139D01*
X53276291Y17248670D01*
X53420000Y17229750D01*
X53563709Y17248670D01*
X53697625Y17304139D01*
X53812621Y17392379D01*
X53820038Y17402045D01*
X53822725Y17404007D01*
X53823488Y17404770D01*
X53823607Y17404651D01*
X53877376Y17443912D01*
X53948247Y17448134D01*
X54010149Y17413370D01*
X54019962Y17402045D01*
X54027379Y17392379D01*
X54142375Y17304139D01*
X54276291Y17248670D01*
X54420000Y17229750D01*
X54563709Y17248670D01*
X54697625Y17304139D01*
X54812621Y17392379D01*
X54820038Y17402045D01*
X54822725Y17404007D01*
X54823488Y17404770D01*
X54823607Y17404651D01*
X54877376Y17443912D01*
X54948247Y17448134D01*
X55010149Y17413370D01*
X55019962Y17402045D01*
X55027379Y17392379D01*
X55142375Y17304139D01*
X55276291Y17248670D01*
X55420000Y17229750D01*
X55563709Y17248670D01*
X55697625Y17304139D01*
X55812621Y17392379D01*
X55900861Y17507375D01*
X55956330Y17641291D01*
X55975250Y17785000D01*
X55956330Y17928709D01*
X55900861Y18062625D01*
X55812621Y18177621D01*
X55697625Y18265861D01*
X55563709Y18321330D01*
X55420000Y18340250D01*
X55276291Y18321330D01*
X55142375Y18265861D01*
X55027379Y18177621D01*
X55022353Y18171071D01*
X55019962Y18167955D01*
X55017275Y18165993D01*
X55016512Y18165230D01*
X55016393Y18165349D01*
X54962624Y18126088D01*
X54891753Y18121866D01*
X54829851Y18156630D01*
X54820038Y18167955D01*
X54817647Y18171071D01*
X54812621Y18177621D01*
X54697625Y18265861D01*
X54563709Y18321330D01*
X54420000Y18340250D01*
X54276291Y18321330D01*
X54142375Y18265861D01*
X54027379Y18177621D01*
X54022353Y18171071D01*
X54019962Y18167955D01*
X54017275Y18165993D01*
X54016512Y18165230D01*
X54016393Y18165349D01*
X53962624Y18126088D01*
X53891753Y18121866D01*
X53829851Y18156630D01*
X53820038Y18167955D01*
X53817647Y18171071D01*
X53812621Y18177621D01*
X53697625Y18265861D01*
X53563709Y18321330D01*
X53420000Y18340250D01*
X53276291Y18321330D01*
X53142375Y18265861D01*
X53027379Y18177621D01*
X52939139Y18062625D01*
X52883670Y17928709D01*
X52864750Y17785000D01*
X10298863Y17785000D01*
X10299039Y22645928D01*
X10299148Y25640000D01*
X13164750Y25640000D01*
X13183670Y25496291D01*
X13239139Y25362375D01*
X13327379Y25247379D01*
X13442375Y25159139D01*
X13576291Y25103670D01*
X13720000Y25084750D01*
X13863709Y25103670D01*
X13997625Y25159139D01*
X14112621Y25247379D01*
X14200861Y25362375D01*
X14256330Y25496291D01*
X14275250Y25640000D01*
X14256330Y25783709D01*
X14200861Y25917625D01*
X14112621Y26032621D01*
X13997625Y26120861D01*
X13863709Y26176330D01*
X13720000Y26195250D01*
X13576291Y26176330D01*
X13442375Y26120861D01*
X13327379Y26032621D01*
X13239139Y25917625D01*
X13183670Y25783709D01*
X13164750Y25640000D01*
X10299148Y25640000D01*
X10299264Y28840000D01*
X13624752Y28840000D01*
X13625830Y28831812D01*
X13625830Y28823552D01*
X13625531Y28823552D01*
X13625616Y28820581D01*
X13626051Y28813672D01*
X13625422Y28805109D01*
X13627120Y28796688D01*
X13635877Y28753255D01*
X13637285Y28744799D01*
X13638043Y28739047D01*
X13643672Y28696291D01*
X13646831Y28688665D01*
X13648087Y28683978D01*
X13653287Y28666918D01*
X13655235Y28657257D01*
X13669339Y28629577D01*
X13677604Y28613355D01*
X13681746Y28604370D01*
X13690042Y28584343D01*
X13699141Y28562375D01*
X13704171Y28555820D01*
X13705304Y28554343D01*
X13717606Y28534846D01*
X13723709Y28522868D01*
X13729523Y28516545D01*
X13729526Y28516541D01*
X13754629Y28489241D01*
X13761841Y28480661D01*
X13782349Y28453935D01*
X13782355Y28453929D01*
X13787381Y28447379D01*
X13798241Y28439045D01*
X13814271Y28424383D01*
X13825801Y28411844D01*
X13833106Y28407315D01*
X13833107Y28407314D01*
X13861564Y28389670D01*
X13871873Y28382545D01*
X13888830Y28369534D01*
X13902377Y28359139D01*
X13910005Y28355980D01*
X13910006Y28355979D01*
X13918295Y28352546D01*
X13936478Y28343222D01*
X13953988Y28332365D01*
X13962242Y28329967D01*
X13990956Y28321625D01*
X14004024Y28317036D01*
X14028663Y28306830D01*
X14028666Y28306829D01*
X14036293Y28303670D01*
X14044474Y28302593D01*
X14044477Y28302592D01*
X14056904Y28300956D01*
X14075598Y28297033D01*
X14098827Y28290285D01*
X14106310Y28289736D01*
X14107210Y28289669D01*
X14107221Y28289669D01*
X14109517Y28289500D01*
X14135664Y28289500D01*
X14152111Y28288422D01*
X14180002Y28284750D01*
X14188190Y28285828D01*
X14207893Y28288422D01*
X14224340Y28289500D01*
X18271760Y28289500D01*
X18339881Y28269498D01*
X18386374Y28215842D01*
X18396478Y28145568D01*
X18388169Y28115283D01*
X18382545Y28101705D01*
X18373222Y28083524D01*
X18362365Y28066014D01*
X18359967Y28057760D01*
X18351625Y28029046D01*
X18347036Y28015978D01*
X18343570Y28007609D01*
X18333670Y27983709D01*
X18332593Y27975528D01*
X18332592Y27975525D01*
X18330956Y27963098D01*
X18327033Y27944404D01*
X18320285Y27921175D01*
X18319500Y27910485D01*
X18319500Y27884338D01*
X18318422Y27867891D01*
X18314750Y27840000D01*
X18315828Y27831812D01*
X18318422Y27812109D01*
X18319500Y27795662D01*
X18319500Y25984993D01*
X18319389Y25979717D01*
X18316790Y25917706D01*
X18318752Y25909341D01*
X18326727Y25875338D01*
X18328890Y25863667D01*
X18334794Y25820568D01*
X18338206Y25812684D01*
X18338206Y25812683D01*
X18340765Y25806770D01*
X18347799Y25785501D01*
X18351232Y25770864D01*
X18355369Y25763339D01*
X18355370Y25763336D01*
X18372195Y25732732D01*
X18377411Y25722087D01*
X18394695Y25682145D01*
X18404158Y25670459D01*
X18416645Y25651875D01*
X18423893Y25638692D01*
X18430897Y25630578D01*
X18455433Y25606042D01*
X18464258Y25596241D01*
X18484206Y25571608D01*
X18489614Y25564930D01*
X18496612Y25559957D01*
X18496617Y25559952D01*
X18504948Y25554032D01*
X18521054Y25540421D01*
X19085497Y24975979D01*
X19622595Y24438881D01*
X19656620Y24376569D01*
X19659500Y24349786D01*
X19659500Y22900215D01*
X19639498Y22832094D01*
X19622595Y22811120D01*
X17702094Y20890618D01*
X17689703Y20879751D01*
X17667379Y20862621D01*
X17645915Y20834648D01*
X17644968Y20833492D01*
X17644020Y20832544D01*
X17641829Y20829657D01*
X17641818Y20829644D01*
X17618493Y20798914D01*
X17618163Y20798482D01*
X17579139Y20747625D01*
X17578629Y20746395D01*
X17575888Y20742783D01*
X17572729Y20734805D01*
X17572726Y20734799D01*
X17549267Y20675546D01*
X17548555Y20673787D01*
X17523670Y20613709D01*
X17523115Y20609496D01*
X17520364Y20602547D01*
X17519466Y20594007D01*
X17519466Y20594005D01*
X17513268Y20535028D01*
X17512880Y20531755D01*
X17504750Y20470000D01*
X17505489Y20464384D01*
X17505429Y20463233D01*
X17505496Y20461086D01*
X17504599Y20452546D01*
X17506031Y20444080D01*
X17506031Y20444077D01*
X17515266Y20389473D01*
X17515952Y20384910D01*
X17522592Y20334478D01*
X17523670Y20326291D01*
X17526666Y20319059D01*
X17527729Y20314182D01*
X17528321Y20312294D01*
X17529752Y20303830D01*
X17533405Y20296066D01*
X17533407Y20296061D01*
X17555390Y20249344D01*
X17557789Y20243916D01*
X17575978Y20200005D01*
X17575980Y20200002D01*
X17579139Y20192375D01*
X17584165Y20185825D01*
X17587553Y20179957D01*
X17589099Y20177001D01*
X17590313Y20175131D01*
X17593971Y20167358D01*
X17630923Y20124548D01*
X17635487Y20118941D01*
X17667379Y20077379D01*
X17673929Y20072353D01*
X17679771Y20066511D01*
X17679558Y20066299D01*
X17681684Y20064292D01*
X17686912Y20059683D01*
X17692524Y20053181D01*
X17699677Y20048429D01*
X17699681Y20048425D01*
X17736582Y20023908D01*
X17743556Y20018925D01*
X17751333Y20012958D01*
X17782375Y19989139D01*
X17790008Y19985977D01*
X17794190Y19983563D01*
X17809945Y19975168D01*
X17810996Y19974470D01*
X17818153Y19969715D01*
X17862303Y19955370D01*
X17865014Y19954489D01*
X17874297Y19951065D01*
X17916291Y19933670D01*
X17924479Y19932592D01*
X17924483Y19932591D01*
X17926328Y19932348D01*
X17948808Y19927261D01*
X17953424Y19925761D01*
X17953431Y19925760D01*
X17961598Y19923106D01*
X17970182Y19922746D01*
X17970183Y19922746D01*
X18007236Y19921193D01*
X18018405Y19920226D01*
X18051812Y19915828D01*
X18060000Y19914750D01*
X18073567Y19916536D01*
X18095286Y19917503D01*
X18112294Y19916790D01*
X18120658Y19918752D01*
X18120660Y19918752D01*
X18153274Y19926402D01*
X18165600Y19928653D01*
X18182197Y19930838D01*
X18195522Y19932592D01*
X18195524Y19932592D01*
X18203709Y19933670D01*
X18219633Y19940266D01*
X18239080Y19946528D01*
X18250775Y19949271D01*
X18259136Y19951232D01*
X18266659Y19955368D01*
X18266665Y19955370D01*
X18292874Y19969778D01*
X18305352Y19975770D01*
X18329994Y19985978D01*
X18337625Y19989139D01*
X18354116Y20001792D01*
X18370113Y20012241D01*
X18370317Y20012353D01*
X18391308Y20023893D01*
X18399422Y20030897D01*
X18417911Y20049386D01*
X18430302Y20060253D01*
X18446071Y20072353D01*
X18452621Y20077379D01*
X18469747Y20099698D01*
X18480614Y20112089D01*
X20588642Y22220118D01*
X20592451Y22223771D01*
X20628248Y22256688D01*
X20638156Y22265799D01*
X20661087Y22302783D01*
X20667801Y22312553D01*
X20694112Y22347216D01*
X20699646Y22361193D01*
X20709709Y22381202D01*
X20713111Y22386688D01*
X20713113Y22386692D01*
X20717635Y22393986D01*
X20720029Y22402228D01*
X20720031Y22402231D01*
X20729779Y22435784D01*
X20733618Y22446997D01*
X20749635Y22487453D01*
X20751206Y22502402D01*
X20755519Y22524385D01*
X20755989Y22526000D01*
X20759715Y22538825D01*
X20760199Y22545411D01*
X20760331Y22547208D01*
X20760331Y22547219D01*
X20760500Y22549515D01*
X20760500Y22584219D01*
X20761190Y22597390D01*
X20763511Y22619469D01*
X20765401Y22637454D01*
X20763969Y22645919D01*
X20763969Y22645928D01*
X20762265Y22656000D01*
X20760500Y22677013D01*
X20760500Y24615007D01*
X20760611Y24620283D01*
X20761054Y24630861D01*
X20763210Y24682294D01*
X20755298Y24716026D01*
X20753273Y24724662D01*
X20751110Y24736333D01*
X20746372Y24770919D01*
X20745206Y24779432D01*
X20739235Y24793230D01*
X20732201Y24814499D01*
X20730730Y24820772D01*
X20730729Y24820774D01*
X20728768Y24829136D01*
X20707805Y24867266D01*
X20702583Y24877927D01*
X20688716Y24909973D01*
X20688715Y24909974D01*
X20685305Y24917855D01*
X20675842Y24929541D01*
X20663351Y24948129D01*
X20656106Y24961308D01*
X20649103Y24969422D01*
X20624567Y24993958D01*
X20615742Y25003759D01*
X20595794Y25028392D01*
X20595793Y25028393D01*
X20590386Y25035070D01*
X20583388Y25040043D01*
X20583383Y25040048D01*
X20575052Y25045968D01*
X20558946Y25059579D01*
X20012454Y25606071D01*
X19988525Y25630000D01*
X23494750Y25630000D01*
X23513670Y25486291D01*
X23569139Y25352375D01*
X23657379Y25237379D01*
X23772375Y25149139D01*
X23906291Y25093670D01*
X24050000Y25074750D01*
X24193709Y25093670D01*
X24327625Y25149139D01*
X24442621Y25237379D01*
X24530861Y25352375D01*
X24586330Y25486291D01*
X24605250Y25630000D01*
X24586330Y25773709D01*
X24530861Y25907625D01*
X24442621Y26022621D01*
X24327625Y26110861D01*
X24193709Y26166330D01*
X24050000Y26185250D01*
X23906291Y26166330D01*
X23772375Y26110861D01*
X23657379Y26022621D01*
X23569139Y25907625D01*
X23513670Y25773709D01*
X23494750Y25630000D01*
X19988525Y25630000D01*
X19457405Y26161119D01*
X19423380Y26223431D01*
X19420500Y26250214D01*
X19420500Y27373340D01*
X19440502Y27441461D01*
X19494158Y27487954D01*
X19564432Y27498058D01*
X19629012Y27468564D01*
X19662909Y27421558D01*
X19679139Y27382375D01*
X19681728Y27379000D01*
X19684695Y27372145D01*
X19724908Y27322486D01*
X19727410Y27319396D01*
X19729439Y27316822D01*
X19739598Y27303583D01*
X19760346Y27276545D01*
X19767379Y27267379D01*
X19771872Y27263931D01*
X19772640Y27263079D01*
X19774207Y27261608D01*
X19779614Y27254930D01*
X19822892Y27224174D01*
X19831746Y27217882D01*
X19835442Y27215152D01*
X19882375Y27179139D01*
X19889611Y27176141D01*
X19893800Y27173452D01*
X19895555Y27172535D01*
X19902558Y27167558D01*
X19910641Y27164648D01*
X19910643Y27164647D01*
X19959210Y27147162D01*
X19964747Y27145020D01*
X19983588Y27137216D01*
X20016291Y27123670D01*
X20024482Y27122591D01*
X20031018Y27120840D01*
X20034213Y27119838D01*
X20036389Y27119376D01*
X20044468Y27116467D01*
X20074346Y27114273D01*
X20100865Y27112325D01*
X20108082Y27111585D01*
X20142013Y27107118D01*
X20160000Y27104750D01*
X20168188Y27105828D01*
X20176448Y27105828D01*
X20176448Y27105529D01*
X20179419Y27105614D01*
X20186328Y27106049D01*
X20194891Y27105420D01*
X20206453Y27107751D01*
X20246745Y27115875D01*
X20255199Y27117283D01*
X20257300Y27117560D01*
X20289230Y27121764D01*
X20359377Y27110826D01*
X20412477Y27063700D01*
X20431669Y26995346D01*
X20430600Y26980397D01*
X20425277Y26939961D01*
X20396556Y26875034D01*
X20348573Y26839997D01*
X20333168Y26833616D01*
X20302375Y26820861D01*
X20187379Y26732621D01*
X20099139Y26617625D01*
X20043670Y26483709D01*
X20024750Y26340000D01*
X20043670Y26196291D01*
X20099139Y26062375D01*
X20187379Y25947379D01*
X20302375Y25859139D01*
X20436291Y25803670D01*
X20580000Y25784750D01*
X20723709Y25803670D01*
X20857625Y25859139D01*
X20859599Y25860654D01*
X20925999Y25876760D01*
X20980121Y25860868D01*
X20982375Y25859139D01*
X21116291Y25803670D01*
X21260000Y25784750D01*
X21403709Y25803670D01*
X21537625Y25859139D01*
X21652621Y25947379D01*
X21740861Y26062375D01*
X21764965Y26120568D01*
X21793170Y26188661D01*
X21793171Y26188664D01*
X21796330Y26196291D01*
X21800280Y26226291D01*
X21805300Y26264422D01*
X21834023Y26329349D01*
X21882003Y26364383D01*
X21909991Y26375976D01*
X21909997Y26375979D01*
X21917625Y26379139D01*
X22032621Y26467379D01*
X22120861Y26582375D01*
X22176330Y26716291D01*
X22195250Y26860000D01*
X22176330Y27003709D01*
X22120861Y27137625D01*
X22032621Y27252621D01*
X21917625Y27340861D01*
X21783709Y27396330D01*
X21640000Y27415250D01*
X21496291Y27396330D01*
X21362375Y27340861D01*
X21362135Y27341441D01*
X21299007Y27326126D01*
X21247755Y27341175D01*
X21247625Y27340861D01*
X21113709Y27396330D01*
X20970000Y27415250D01*
X20841216Y27398295D01*
X20771067Y27409234D01*
X20717968Y27456362D01*
X20698778Y27524716D01*
X20703772Y27558368D01*
X20707872Y27572482D01*
X20709715Y27578825D01*
X20710500Y27589515D01*
X20710500Y27615662D01*
X20711578Y27632109D01*
X20714172Y27651812D01*
X20715250Y27660000D01*
X20711578Y27687891D01*
X20710500Y27704338D01*
X20710500Y28165007D01*
X20710611Y28170283D01*
X20712850Y28223709D01*
X20713210Y28232294D01*
X20710032Y28245842D01*
X20703273Y28274662D01*
X20701110Y28286333D01*
X20697529Y28312474D01*
X20695206Y28329432D01*
X20689235Y28343230D01*
X20682201Y28364499D01*
X20680729Y28370775D01*
X20678768Y28379136D01*
X20674631Y28386661D01*
X20674630Y28386664D01*
X20657805Y28417268D01*
X20652589Y28427913D01*
X20635305Y28467855D01*
X20625842Y28479541D01*
X20613354Y28498126D01*
X20612037Y28500522D01*
X20606107Y28511308D01*
X20599103Y28519422D01*
X20574567Y28543958D01*
X20565742Y28553759D01*
X20545794Y28578392D01*
X20545793Y28578393D01*
X20540386Y28585070D01*
X20525055Y28595966D01*
X20508949Y28609576D01*
X20308525Y28810000D01*
X22984750Y28810000D01*
X22985828Y28801812D01*
X22985828Y28793552D01*
X22985529Y28793552D01*
X22985614Y28790581D01*
X22986049Y28783672D01*
X22985420Y28775109D01*
X22987118Y28766688D01*
X22995875Y28723255D01*
X22997283Y28714799D01*
X23001037Y28686291D01*
X23003670Y28666291D01*
X23006829Y28658665D01*
X23008085Y28653978D01*
X23013285Y28636918D01*
X23015233Y28627257D01*
X23031990Y28594370D01*
X23037602Y28583355D01*
X23041744Y28574370D01*
X23050651Y28552868D01*
X23059139Y28532375D01*
X23064920Y28524841D01*
X23065302Y28524343D01*
X23077604Y28504846D01*
X23083707Y28492868D01*
X23089521Y28486545D01*
X23089524Y28486541D01*
X23114627Y28459241D01*
X23121839Y28450661D01*
X23142347Y28423935D01*
X23142353Y28423929D01*
X23147379Y28417379D01*
X23158239Y28409045D01*
X23174269Y28394383D01*
X23185799Y28381844D01*
X23193104Y28377315D01*
X23193105Y28377314D01*
X23221565Y28359668D01*
X23231871Y28352546D01*
X23262375Y28329139D01*
X23270003Y28325980D01*
X23270004Y28325979D01*
X23278293Y28322546D01*
X23296476Y28313222D01*
X23313986Y28302365D01*
X23322240Y28299967D01*
X23350954Y28291625D01*
X23364022Y28287036D01*
X23388661Y28276830D01*
X23388664Y28276829D01*
X23396291Y28273670D01*
X23404472Y28272593D01*
X23404475Y28272592D01*
X23416902Y28270956D01*
X23435596Y28267033D01*
X23458825Y28260285D01*
X23466308Y28259735D01*
X23467208Y28259669D01*
X23467219Y28259669D01*
X23469515Y28259500D01*
X23495662Y28259500D01*
X23512109Y28258422D01*
X23540000Y28254750D01*
X23548188Y28255828D01*
X23567891Y28258422D01*
X23584338Y28259500D01*
X28592925Y28259500D01*
X28661046Y28239498D01*
X28707539Y28185842D01*
X28717643Y28115568D01*
X28702618Y28072159D01*
X28699139Y28067625D01*
X28695979Y28059996D01*
X28695978Y28059994D01*
X28692546Y28051707D01*
X28683222Y28033524D01*
X28672365Y28016014D01*
X28669967Y28007760D01*
X28661625Y27979046D01*
X28657036Y27965978D01*
X28648098Y27944398D01*
X28643670Y27933709D01*
X28642593Y27925528D01*
X28642592Y27925525D01*
X28640956Y27913098D01*
X28637033Y27894404D01*
X28630285Y27871175D01*
X28629500Y27860485D01*
X28629500Y27834338D01*
X28628422Y27817891D01*
X28624750Y27790000D01*
X28625828Y27781812D01*
X28628422Y27762109D01*
X28629500Y27745662D01*
X28629500Y26254993D01*
X28629389Y26249717D01*
X28626790Y26187706D01*
X28628752Y26179341D01*
X28636727Y26145338D01*
X28638890Y26133667D01*
X28644794Y26090568D01*
X28648206Y26082684D01*
X28648206Y26082683D01*
X28650765Y26076770D01*
X28657799Y26055501D01*
X28661232Y26040864D01*
X28665369Y26033339D01*
X28665370Y26033336D01*
X28682195Y26002732D01*
X28687411Y25992087D01*
X28704695Y25952145D01*
X28714158Y25940459D01*
X28726645Y25921875D01*
X28733893Y25908692D01*
X28740897Y25900578D01*
X28765433Y25876042D01*
X28774258Y25866241D01*
X28790592Y25846071D01*
X28799614Y25834930D01*
X28806612Y25829957D01*
X28806617Y25829952D01*
X28814948Y25824032D01*
X28831054Y25810421D01*
X29429664Y25211812D01*
X30002595Y24638881D01*
X30036620Y24576569D01*
X30039500Y24549786D01*
X30039500Y22770215D01*
X30019498Y22702094D01*
X30002595Y22681120D01*
X28152094Y20830618D01*
X28139703Y20819751D01*
X28117379Y20802621D01*
X28095915Y20774648D01*
X28094968Y20773492D01*
X28094020Y20772544D01*
X28091829Y20769657D01*
X28091818Y20769644D01*
X28068493Y20738914D01*
X28068163Y20738482D01*
X28029139Y20687625D01*
X28028629Y20686395D01*
X28025888Y20682783D01*
X28022729Y20674805D01*
X28022726Y20674799D01*
X27999267Y20615546D01*
X27998555Y20613787D01*
X27973670Y20553709D01*
X27973115Y20549496D01*
X27970364Y20542547D01*
X27969466Y20534007D01*
X27969466Y20534005D01*
X27963268Y20475028D01*
X27962880Y20471755D01*
X27954750Y20410000D01*
X27955489Y20404384D01*
X27955429Y20403233D01*
X27955496Y20401086D01*
X27954599Y20392546D01*
X27956031Y20384080D01*
X27956031Y20384077D01*
X27965266Y20329473D01*
X27965952Y20324910D01*
X27972592Y20274478D01*
X27973670Y20266291D01*
X27976666Y20259059D01*
X27977729Y20254182D01*
X27978321Y20252294D01*
X27979752Y20243830D01*
X27983405Y20236066D01*
X27983407Y20236061D01*
X28005390Y20189344D01*
X28007789Y20183916D01*
X28025978Y20140005D01*
X28025980Y20140002D01*
X28029139Y20132375D01*
X28034165Y20125825D01*
X28037553Y20119957D01*
X28039099Y20117001D01*
X28040313Y20115131D01*
X28043971Y20107358D01*
X28080923Y20064548D01*
X28085487Y20058941D01*
X28117379Y20017379D01*
X28123929Y20012353D01*
X28129771Y20006511D01*
X28129558Y20006299D01*
X28131684Y20004292D01*
X28136912Y19999683D01*
X28142524Y19993181D01*
X28149677Y19988429D01*
X28149681Y19988425D01*
X28186582Y19963908D01*
X28193556Y19958925D01*
X28201333Y19952958D01*
X28232375Y19929139D01*
X28240008Y19925977D01*
X28244190Y19923563D01*
X28259945Y19915168D01*
X28260996Y19914470D01*
X28268153Y19909715D01*
X28312303Y19895370D01*
X28315014Y19894489D01*
X28324297Y19891065D01*
X28366291Y19873670D01*
X28374479Y19872592D01*
X28374483Y19872591D01*
X28376328Y19872348D01*
X28398808Y19867261D01*
X28403424Y19865761D01*
X28403431Y19865760D01*
X28411598Y19863106D01*
X28420182Y19862746D01*
X28420183Y19862746D01*
X28457236Y19861193D01*
X28468405Y19860226D01*
X28501812Y19855828D01*
X28510000Y19854750D01*
X28523567Y19856536D01*
X28545286Y19857503D01*
X28562294Y19856790D01*
X28570658Y19858752D01*
X28570660Y19858752D01*
X28603274Y19866402D01*
X28615600Y19868653D01*
X28632197Y19870838D01*
X28645522Y19872592D01*
X28645524Y19872592D01*
X28653709Y19873670D01*
X28669633Y19880266D01*
X28689080Y19886528D01*
X28700775Y19889271D01*
X28709136Y19891232D01*
X28716659Y19895368D01*
X28716665Y19895370D01*
X28742874Y19909778D01*
X28755352Y19915770D01*
X28779994Y19925978D01*
X28787625Y19929139D01*
X28804116Y19941792D01*
X28820113Y19952241D01*
X28841308Y19963893D01*
X28849422Y19970897D01*
X28867911Y19989386D01*
X28880302Y20000253D01*
X28896071Y20012353D01*
X28902621Y20017379D01*
X28919747Y20039698D01*
X28930614Y20052089D01*
X30968642Y22090118D01*
X30972451Y22093771D01*
X31011833Y22129985D01*
X31018156Y22135799D01*
X31040602Y22172000D01*
X31041087Y22172783D01*
X31047801Y22182553D01*
X31074112Y22217216D01*
X31079646Y22231193D01*
X31089709Y22251202D01*
X31093111Y22256688D01*
X31093113Y22256692D01*
X31097635Y22263986D01*
X31100029Y22272228D01*
X31100031Y22272231D01*
X31109779Y22305784D01*
X31113618Y22316997D01*
X31129635Y22357453D01*
X31131206Y22372402D01*
X31135519Y22394385D01*
X31136280Y22397001D01*
X31139715Y22408825D01*
X31140500Y22419515D01*
X31140500Y22454219D01*
X31141190Y22467390D01*
X31144503Y22498912D01*
X31145401Y22507454D01*
X31143969Y22515919D01*
X31143969Y22515928D01*
X31142265Y22526000D01*
X31140500Y22547013D01*
X31140500Y24815007D01*
X31140611Y24820283D01*
X31142850Y24873709D01*
X31143210Y24882294D01*
X31136718Y24909973D01*
X31133273Y24924662D01*
X31131110Y24936333D01*
X31127689Y24961308D01*
X31125206Y24979432D01*
X31119235Y24993230D01*
X31112201Y25014499D01*
X31110729Y25020775D01*
X31108768Y25029136D01*
X31104631Y25036661D01*
X31104630Y25036664D01*
X31087805Y25067268D01*
X31082589Y25077913D01*
X31065305Y25117855D01*
X31055842Y25129541D01*
X31043354Y25148126D01*
X31039290Y25155518D01*
X31036107Y25161308D01*
X31029103Y25169422D01*
X31004567Y25193958D01*
X30995742Y25203759D01*
X30975794Y25228392D01*
X30975793Y25228393D01*
X30970386Y25235070D01*
X30963388Y25240043D01*
X30963383Y25240048D01*
X30955052Y25245968D01*
X30938946Y25259579D01*
X30558525Y25640000D01*
X33374750Y25640000D01*
X33393670Y25496291D01*
X33449139Y25362375D01*
X33537379Y25247379D01*
X33652375Y25159139D01*
X33786291Y25103670D01*
X33930000Y25084750D01*
X34073709Y25103670D01*
X34207625Y25159139D01*
X34322621Y25247379D01*
X34410861Y25362375D01*
X34466330Y25496291D01*
X34485250Y25640000D01*
X34466330Y25783709D01*
X34410861Y25917625D01*
X34322621Y26032621D01*
X34207625Y26120861D01*
X34073709Y26176330D01*
X33930000Y26195250D01*
X33786291Y26176330D01*
X33652375Y26120861D01*
X33537379Y26032621D01*
X33449139Y25917625D01*
X33393670Y25783709D01*
X33374750Y25640000D01*
X30558525Y25640000D01*
X30354855Y25843670D01*
X29767405Y26431119D01*
X29733380Y26493431D01*
X29730500Y26520214D01*
X29730500Y27651726D01*
X29750502Y27719847D01*
X29804158Y27766340D01*
X29874432Y27776444D01*
X29939012Y27746950D01*
X29977396Y27687224D01*
X29981334Y27668828D01*
X29985230Y27640389D01*
X29985318Y27639733D01*
X29993670Y27576291D01*
X29994178Y27575064D01*
X29994794Y27570568D01*
X30023525Y27504174D01*
X30024270Y27502414D01*
X30044977Y27452424D01*
X30049139Y27442375D01*
X30051728Y27439000D01*
X30054695Y27432145D01*
X30096224Y27380861D01*
X30097410Y27379396D01*
X30099439Y27376822D01*
X30100891Y27374930D01*
X30131216Y27335411D01*
X30137379Y27327379D01*
X30141872Y27323931D01*
X30142640Y27323079D01*
X30144207Y27321608D01*
X30149614Y27314930D01*
X30198975Y27279851D01*
X30201746Y27277882D01*
X30205442Y27275152D01*
X30252375Y27239139D01*
X30259611Y27236141D01*
X30263800Y27233452D01*
X30265555Y27232535D01*
X30272558Y27227558D01*
X30280641Y27224648D01*
X30280643Y27224647D01*
X30329210Y27207162D01*
X30334747Y27205020D01*
X30358375Y27195233D01*
X30386291Y27183670D01*
X30394482Y27182591D01*
X30401018Y27180840D01*
X30404213Y27179838D01*
X30406389Y27179376D01*
X30414468Y27176467D01*
X30444346Y27174273D01*
X30470865Y27172325D01*
X30478082Y27171585D01*
X30508671Y27167558D01*
X30530000Y27164750D01*
X30538188Y27165828D01*
X30546448Y27165828D01*
X30546448Y27165529D01*
X30549419Y27165614D01*
X30556328Y27166049D01*
X30564891Y27165420D01*
X30587586Y27169996D01*
X30616745Y27175875D01*
X30625201Y27177283D01*
X30665524Y27182592D01*
X30665526Y27182593D01*
X30673709Y27183670D01*
X30681335Y27186829D01*
X30686022Y27188085D01*
X30703082Y27193285D01*
X30712743Y27195233D01*
X30720394Y27199131D01*
X30728508Y27201957D01*
X30729702Y27198528D01*
X30783005Y27208421D01*
X30848732Y27181581D01*
X30889515Y27123467D01*
X30892405Y27052529D01*
X30886572Y27034858D01*
X30873670Y27003709D01*
X30872592Y26995520D01*
X30872592Y26995519D01*
X30868301Y26962927D01*
X30839579Y26898000D01*
X30791599Y26862966D01*
X30762375Y26850861D01*
X30755824Y26845834D01*
X30755822Y26845833D01*
X30701925Y26804476D01*
X30647379Y26762621D01*
X30559139Y26647625D01*
X30503670Y26513709D01*
X30484750Y26370000D01*
X30503670Y26226291D01*
X30559139Y26092375D01*
X30647379Y25977379D01*
X30762375Y25889139D01*
X30896291Y25833670D01*
X31040000Y25814750D01*
X31183709Y25833670D01*
X31316783Y25888790D01*
X31387372Y25896379D01*
X31413217Y25888790D01*
X31546291Y25833670D01*
X31690000Y25814750D01*
X31833709Y25833670D01*
X31967625Y25889139D01*
X32082621Y25977379D01*
X32170861Y26092375D01*
X32226330Y26226291D01*
X32231699Y26267074D01*
X32260421Y26332000D01*
X32308401Y26367034D01*
X32337625Y26379139D01*
X32344938Y26384750D01*
X32446071Y26462353D01*
X32452621Y26467379D01*
X32540861Y26582375D01*
X32596330Y26716291D01*
X32615250Y26860000D01*
X32596330Y27003709D01*
X32540861Y27137625D01*
X32452621Y27252621D01*
X32337625Y27340861D01*
X32203709Y27396330D01*
X32060000Y27415250D01*
X31916291Y27396330D01*
X31783218Y27341210D01*
X31712628Y27333621D01*
X31686782Y27341210D01*
X31553709Y27396330D01*
X31410000Y27415250D01*
X31266291Y27396330D01*
X31258657Y27393168D01*
X31216520Y27375715D01*
X31145930Y27368126D01*
X31082444Y27399906D01*
X31046217Y27460964D01*
X31047307Y27527278D01*
X31048380Y27530972D01*
X31052964Y27544022D01*
X31063170Y27568661D01*
X31063171Y27568664D01*
X31066330Y27576291D01*
X31067486Y27585064D01*
X31069044Y27596902D01*
X31072968Y27615602D01*
X31079715Y27638825D01*
X31080500Y27649515D01*
X31080500Y27675662D01*
X31081578Y27692109D01*
X31084172Y27711812D01*
X31085250Y27720000D01*
X31081578Y27747891D01*
X31080500Y27764338D01*
X31080500Y28065007D01*
X31080611Y28070283D01*
X31082197Y28108125D01*
X31083210Y28132294D01*
X31080097Y28145568D01*
X31073273Y28174662D01*
X31071110Y28186333D01*
X31066372Y28220919D01*
X31065206Y28229432D01*
X31059235Y28243230D01*
X31052201Y28264499D01*
X31050729Y28270775D01*
X31048768Y28279136D01*
X31044631Y28286661D01*
X31044630Y28286664D01*
X31027805Y28317268D01*
X31022589Y28327913D01*
X31005305Y28367855D01*
X30995842Y28379541D01*
X30983354Y28398126D01*
X30979290Y28405518D01*
X30976107Y28411308D01*
X30969103Y28419422D01*
X30944567Y28443958D01*
X30935742Y28453759D01*
X30915794Y28478392D01*
X30915793Y28478393D01*
X30910386Y28485070D01*
X30900503Y28492094D01*
X30895054Y28495966D01*
X30878949Y28509576D01*
X30518524Y28870000D01*
X33824750Y28870000D01*
X33825828Y28861812D01*
X33825828Y28853552D01*
X33825529Y28853552D01*
X33825614Y28850581D01*
X33826049Y28843672D01*
X33825420Y28835109D01*
X33827118Y28826688D01*
X33835875Y28783255D01*
X33837283Y28774799D01*
X33842550Y28734799D01*
X33843670Y28726291D01*
X33846829Y28718665D01*
X33848085Y28713978D01*
X33853285Y28696918D01*
X33855233Y28687257D01*
X33875614Y28647257D01*
X33877602Y28643355D01*
X33881744Y28634370D01*
X33886829Y28622094D01*
X33899139Y28592375D01*
X33904169Y28585820D01*
X33905302Y28584343D01*
X33917604Y28564846D01*
X33923707Y28552868D01*
X33929521Y28546545D01*
X33929524Y28546541D01*
X33954627Y28519241D01*
X33961839Y28510661D01*
X33982347Y28483935D01*
X33982353Y28483929D01*
X33987379Y28477379D01*
X33998239Y28469045D01*
X34014269Y28454383D01*
X34025799Y28441844D01*
X34033104Y28437315D01*
X34033105Y28437314D01*
X34061565Y28419668D01*
X34071875Y28412543D01*
X34095548Y28394378D01*
X34102375Y28389139D01*
X34110003Y28385980D01*
X34110004Y28385979D01*
X34118293Y28382546D01*
X34136476Y28373222D01*
X34153986Y28362365D01*
X34162240Y28359967D01*
X34190954Y28351625D01*
X34204022Y28347036D01*
X34228661Y28336830D01*
X34228664Y28336829D01*
X34236291Y28333670D01*
X34244472Y28332593D01*
X34244475Y28332592D01*
X34256902Y28330956D01*
X34275596Y28327033D01*
X34298825Y28320285D01*
X34306308Y28319736D01*
X34307208Y28319669D01*
X34307219Y28319669D01*
X34309515Y28319500D01*
X34335662Y28319500D01*
X34352109Y28318422D01*
X34380000Y28314750D01*
X34388188Y28315828D01*
X34407891Y28318422D01*
X34424338Y28319500D01*
X38477956Y28319500D01*
X38546077Y28299498D01*
X38592570Y28245842D01*
X38602674Y28175568D01*
X38585046Y28127109D01*
X38579671Y28118439D01*
X38572544Y28108126D01*
X38549139Y28077625D01*
X38545980Y28069997D01*
X38545979Y28069996D01*
X38542546Y28061707D01*
X38533222Y28043524D01*
X38522365Y28026014D01*
X38519967Y28017760D01*
X38511625Y27989046D01*
X38507036Y27975978D01*
X38497769Y27953604D01*
X38493670Y27943709D01*
X38492593Y27935528D01*
X38492592Y27935525D01*
X38490956Y27923098D01*
X38487033Y27904404D01*
X38480285Y27881175D01*
X38479500Y27870485D01*
X38479500Y27844338D01*
X38478422Y27827891D01*
X38474750Y27800000D01*
X38475828Y27791812D01*
X38478422Y27772109D01*
X38479500Y27755662D01*
X38479500Y26284993D01*
X38479389Y26279717D01*
X38476790Y26217706D01*
X38478752Y26209341D01*
X38486727Y26175338D01*
X38488890Y26163667D01*
X38494794Y26120568D01*
X38498206Y26112684D01*
X38498206Y26112683D01*
X38500765Y26106770D01*
X38507799Y26085501D01*
X38511232Y26070864D01*
X38515369Y26063339D01*
X38515370Y26063336D01*
X38532195Y26032732D01*
X38537411Y26022087D01*
X38554695Y25982145D01*
X38564158Y25970459D01*
X38576645Y25951875D01*
X38583893Y25938692D01*
X38590897Y25930578D01*
X38615433Y25906042D01*
X38624258Y25896241D01*
X38644206Y25871608D01*
X38649614Y25864930D01*
X38656612Y25859957D01*
X38656617Y25859952D01*
X38664948Y25854032D01*
X38681054Y25840421D01*
X39822595Y24698880D01*
X39856621Y24636568D01*
X39859500Y24609785D01*
X39859500Y22850214D01*
X39839498Y22782093D01*
X39822595Y22761119D01*
X37952094Y20890618D01*
X37939703Y20879751D01*
X37917379Y20862621D01*
X37895915Y20834648D01*
X37894968Y20833492D01*
X37894020Y20832544D01*
X37891829Y20829657D01*
X37891818Y20829644D01*
X37868493Y20798914D01*
X37868163Y20798482D01*
X37829139Y20747625D01*
X37828629Y20746395D01*
X37825888Y20742783D01*
X37822729Y20734805D01*
X37822726Y20734799D01*
X37799267Y20675546D01*
X37798555Y20673787D01*
X37773670Y20613709D01*
X37773115Y20609496D01*
X37770364Y20602547D01*
X37769466Y20594007D01*
X37769466Y20594005D01*
X37763268Y20535028D01*
X37762880Y20531755D01*
X37754750Y20470000D01*
X37755489Y20464384D01*
X37755429Y20463233D01*
X37755496Y20461086D01*
X37754599Y20452546D01*
X37756031Y20444080D01*
X37756031Y20444077D01*
X37765266Y20389473D01*
X37765952Y20384910D01*
X37772592Y20334478D01*
X37773670Y20326291D01*
X37776666Y20319059D01*
X37777729Y20314182D01*
X37778321Y20312294D01*
X37779752Y20303830D01*
X37783405Y20296066D01*
X37783407Y20296061D01*
X37805390Y20249344D01*
X37807789Y20243916D01*
X37825978Y20200005D01*
X37825980Y20200002D01*
X37829139Y20192375D01*
X37834165Y20185825D01*
X37837553Y20179957D01*
X37839099Y20177001D01*
X37840313Y20175131D01*
X37843971Y20167358D01*
X37880923Y20124548D01*
X37885487Y20118941D01*
X37917379Y20077379D01*
X37923929Y20072353D01*
X37929771Y20066511D01*
X37929558Y20066299D01*
X37931684Y20064292D01*
X37936912Y20059683D01*
X37942524Y20053181D01*
X37949677Y20048429D01*
X37949681Y20048425D01*
X37986582Y20023908D01*
X37993556Y20018925D01*
X38001333Y20012958D01*
X38032375Y19989139D01*
X38040008Y19985977D01*
X38044190Y19983563D01*
X38059945Y19975168D01*
X38060996Y19974470D01*
X38068153Y19969715D01*
X38112303Y19955370D01*
X38115014Y19954489D01*
X38124297Y19951065D01*
X38166291Y19933670D01*
X38174479Y19932592D01*
X38174483Y19932591D01*
X38176328Y19932348D01*
X38198808Y19927261D01*
X38203424Y19925761D01*
X38203431Y19925760D01*
X38211598Y19923106D01*
X38220182Y19922746D01*
X38220183Y19922746D01*
X38257236Y19921193D01*
X38268405Y19920226D01*
X38301812Y19915828D01*
X38310000Y19914750D01*
X38323567Y19916536D01*
X38345286Y19917503D01*
X38362294Y19916790D01*
X38370658Y19918752D01*
X38370660Y19918752D01*
X38403274Y19926402D01*
X38415600Y19928653D01*
X38432197Y19930838D01*
X38445522Y19932592D01*
X38445524Y19932592D01*
X38453709Y19933670D01*
X38469633Y19940266D01*
X38489080Y19946528D01*
X38500775Y19949271D01*
X38509136Y19951232D01*
X38516659Y19955368D01*
X38516665Y19955370D01*
X38542874Y19969778D01*
X38555352Y19975770D01*
X38579994Y19985978D01*
X38587625Y19989139D01*
X38604116Y20001792D01*
X38620113Y20012241D01*
X38620317Y20012353D01*
X38641308Y20023893D01*
X38649422Y20030897D01*
X38667911Y20049386D01*
X38680302Y20060253D01*
X38696071Y20072353D01*
X38702621Y20077379D01*
X38719747Y20099698D01*
X38730614Y20112089D01*
X40788655Y22170130D01*
X40792464Y22173783D01*
X40831833Y22209985D01*
X40838156Y22215799D01*
X40861095Y22252797D01*
X40867797Y22262548D01*
X40894112Y22297216D01*
X40899649Y22311201D01*
X40909713Y22331209D01*
X40913108Y22336685D01*
X40917635Y22343986D01*
X40929775Y22385772D01*
X40933620Y22397001D01*
X40946473Y22429465D01*
X40946473Y22429467D01*
X40949635Y22437452D01*
X40951207Y22452407D01*
X40955518Y22474376D01*
X40957873Y22482482D01*
X40957874Y22482488D01*
X40959715Y22488825D01*
X40960500Y22499515D01*
X40960500Y22534219D01*
X40961190Y22547390D01*
X40964503Y22578912D01*
X40965401Y22587454D01*
X40963969Y22595919D01*
X40963969Y22595928D01*
X40962265Y22606000D01*
X40960500Y22627013D01*
X40960500Y24875007D01*
X40960611Y24880283D01*
X40962850Y24933709D01*
X40963210Y24942294D01*
X40956847Y24969422D01*
X40953273Y24984662D01*
X40951110Y24996333D01*
X40948621Y25014499D01*
X40945206Y25039432D01*
X40939235Y25053230D01*
X40932201Y25074499D01*
X40930729Y25080775D01*
X40928768Y25089136D01*
X40924631Y25096661D01*
X40924630Y25096664D01*
X40907805Y25127268D01*
X40902589Y25137913D01*
X40885305Y25177855D01*
X40875842Y25189541D01*
X40863354Y25208126D01*
X40862555Y25209579D01*
X40856107Y25221308D01*
X40849103Y25229422D01*
X40824567Y25253958D01*
X40815742Y25263759D01*
X40795794Y25288392D01*
X40795793Y25288393D01*
X40790386Y25295070D01*
X40783388Y25300043D01*
X40783383Y25300048D01*
X40775052Y25305968D01*
X40758946Y25319579D01*
X40438525Y25640000D01*
X43394750Y25640000D01*
X43413670Y25496291D01*
X43469139Y25362375D01*
X43557379Y25247379D01*
X43672375Y25159139D01*
X43806291Y25103670D01*
X43950000Y25084750D01*
X44093709Y25103670D01*
X44227625Y25159139D01*
X44342621Y25247379D01*
X44430861Y25362375D01*
X44486330Y25496291D01*
X44505250Y25640000D01*
X44486330Y25783709D01*
X44430861Y25917625D01*
X44342621Y26032621D01*
X44227625Y26120861D01*
X44093709Y26176330D01*
X43950000Y26195250D01*
X43806291Y26176330D01*
X43672375Y26120861D01*
X43557379Y26032621D01*
X43469139Y25917625D01*
X43413670Y25783709D01*
X43394750Y25640000D01*
X40438525Y25640000D01*
X40189386Y25889139D01*
X39617405Y26461119D01*
X39583380Y26523431D01*
X39580500Y26550214D01*
X39580500Y27755662D01*
X39581578Y27772109D01*
X39584172Y27791812D01*
X39585250Y27800000D01*
X39580649Y27834945D01*
X39580500Y27836442D01*
X39580500Y27837785D01*
X39576839Y27864511D01*
X39587410Y27934716D01*
X39634260Y27988061D01*
X39702512Y28007609D01*
X39770498Y27987154D01*
X39790768Y27970707D01*
X39882595Y27878880D01*
X39916621Y27816568D01*
X39919500Y27789785D01*
X39919500Y27774338D01*
X39918422Y27757891D01*
X39914750Y27730000D01*
X39919351Y27695055D01*
X39919500Y27693557D01*
X39919500Y27692215D01*
X39919991Y27688634D01*
X39919992Y27688620D01*
X39925230Y27650389D01*
X39925318Y27649733D01*
X39926548Y27640389D01*
X39933670Y27586291D01*
X39934178Y27585064D01*
X39934794Y27580568D01*
X39963525Y27514174D01*
X39964270Y27512414D01*
X39985581Y27460964D01*
X39989139Y27452375D01*
X39991728Y27449000D01*
X39994695Y27442145D01*
X40037360Y27389458D01*
X40037410Y27389396D01*
X40039439Y27386822D01*
X40052077Y27370352D01*
X40070082Y27346889D01*
X40077379Y27337379D01*
X40081872Y27333931D01*
X40082640Y27333079D01*
X40084207Y27331608D01*
X40089614Y27324930D01*
X40141746Y27287882D01*
X40145442Y27285152D01*
X40192375Y27249139D01*
X40199611Y27246141D01*
X40203800Y27243452D01*
X40205555Y27242535D01*
X40212558Y27237558D01*
X40220641Y27234648D01*
X40220643Y27234647D01*
X40269210Y27217162D01*
X40274747Y27215020D01*
X40278644Y27213406D01*
X40326291Y27193670D01*
X40334482Y27192591D01*
X40341018Y27190840D01*
X40344213Y27189838D01*
X40346389Y27189376D01*
X40354468Y27186467D01*
X40384346Y27184273D01*
X40410865Y27182325D01*
X40418082Y27181585D01*
X40436662Y27179139D01*
X40470000Y27174750D01*
X40478188Y27175828D01*
X40486448Y27175828D01*
X40486448Y27175529D01*
X40489419Y27175614D01*
X40496328Y27176049D01*
X40504891Y27175420D01*
X40516453Y27177751D01*
X40556745Y27185875D01*
X40565199Y27187283D01*
X40567796Y27187625D01*
X40601911Y27192117D01*
X40672057Y27181179D01*
X40725157Y27134053D01*
X40744349Y27065700D01*
X40743280Y27050748D01*
X40734461Y26983762D01*
X40705738Y26918835D01*
X40657757Y26883800D01*
X40602375Y26860861D01*
X40595824Y26855834D01*
X40595822Y26855833D01*
X40554364Y26824021D01*
X40487379Y26772621D01*
X40399139Y26657625D01*
X40343670Y26523709D01*
X40324750Y26380000D01*
X40343670Y26236291D01*
X40399139Y26102375D01*
X40487379Y25987379D01*
X40602375Y25899139D01*
X40736291Y25843670D01*
X40880000Y25824750D01*
X41023709Y25843670D01*
X41157625Y25899139D01*
X41162786Y25903100D01*
X41230992Y25919648D01*
X41287129Y25903165D01*
X41292375Y25899139D01*
X41426291Y25843670D01*
X41570000Y25824750D01*
X41713709Y25843670D01*
X41847625Y25899139D01*
X41962621Y25987379D01*
X42050861Y26102375D01*
X42066263Y26139559D01*
X42103170Y26228661D01*
X42103171Y26228664D01*
X42106330Y26236291D01*
X42115539Y26306238D01*
X42144262Y26371165D01*
X42192244Y26406200D01*
X42239994Y26425978D01*
X42239995Y26425979D01*
X42247625Y26429139D01*
X42257731Y26436893D01*
X42356071Y26512353D01*
X42362621Y26517379D01*
X42450861Y26632375D01*
X42506330Y26766291D01*
X42525250Y26910000D01*
X42506330Y27053709D01*
X42450861Y27187625D01*
X42362621Y27302621D01*
X42247625Y27390861D01*
X42113709Y27446330D01*
X41970000Y27465250D01*
X41826291Y27446330D01*
X41692375Y27390861D01*
X41687214Y27386900D01*
X41619008Y27370352D01*
X41562871Y27386835D01*
X41557625Y27390861D01*
X41423709Y27446330D01*
X41280000Y27465250D01*
X41148088Y27447883D01*
X41077940Y27458822D01*
X41024841Y27505950D01*
X41005651Y27574304D01*
X41006721Y27589256D01*
X41009045Y27606903D01*
X41012968Y27625602D01*
X41014411Y27630568D01*
X41019715Y27648825D01*
X41020500Y27659515D01*
X41020500Y27685662D01*
X41021578Y27702109D01*
X41024172Y27721812D01*
X41024172Y27721814D01*
X41025250Y27730000D01*
X41021578Y27757891D01*
X41020500Y27774338D01*
X41020500Y28055007D01*
X41020611Y28060283D01*
X41021612Y28084175D01*
X41023210Y28122294D01*
X41020960Y28131885D01*
X41013273Y28164662D01*
X41011110Y28176333D01*
X41006372Y28210919D01*
X41005206Y28219432D01*
X40999499Y28232621D01*
X40999235Y28233230D01*
X40992201Y28254499D01*
X40990729Y28260775D01*
X40988768Y28269136D01*
X40984631Y28276661D01*
X40984630Y28276664D01*
X40967805Y28307268D01*
X40962589Y28317913D01*
X40945305Y28357855D01*
X40935842Y28369541D01*
X40923354Y28388126D01*
X40919290Y28395518D01*
X40916107Y28401308D01*
X40909103Y28409422D01*
X40884567Y28433958D01*
X40875742Y28443759D01*
X40855794Y28468392D01*
X40855793Y28468393D01*
X40850386Y28475070D01*
X40835055Y28485966D01*
X40818949Y28499576D01*
X40488525Y28830000D01*
X43854750Y28830000D01*
X43855828Y28821812D01*
X43855828Y28813552D01*
X43855529Y28813552D01*
X43855614Y28810581D01*
X43856049Y28803672D01*
X43855420Y28795109D01*
X43857118Y28786688D01*
X43865875Y28743255D01*
X43867283Y28734799D01*
X43872272Y28696912D01*
X43873670Y28686291D01*
X43876829Y28678665D01*
X43878085Y28673978D01*
X43883285Y28656918D01*
X43885233Y28647257D01*
X43902507Y28613355D01*
X43907602Y28603355D01*
X43911744Y28594370D01*
X43921835Y28570009D01*
X43929139Y28552375D01*
X43934169Y28545820D01*
X43935302Y28544343D01*
X43947604Y28524846D01*
X43953707Y28512868D01*
X43959521Y28506545D01*
X43959524Y28506541D01*
X43984627Y28479241D01*
X43991839Y28470661D01*
X44012347Y28443935D01*
X44012353Y28443929D01*
X44017379Y28437379D01*
X44028239Y28429045D01*
X44044269Y28414383D01*
X44055799Y28401844D01*
X44063104Y28397315D01*
X44063105Y28397314D01*
X44091565Y28379668D01*
X44101874Y28372544D01*
X44132375Y28349139D01*
X44140003Y28345980D01*
X44140004Y28345979D01*
X44148293Y28342546D01*
X44166476Y28333222D01*
X44183986Y28322365D01*
X44192240Y28319967D01*
X44220954Y28311625D01*
X44234022Y28307036D01*
X44258661Y28296830D01*
X44258664Y28296829D01*
X44266291Y28293670D01*
X44274472Y28292593D01*
X44274475Y28292592D01*
X44286902Y28290956D01*
X44305596Y28287033D01*
X44328825Y28280285D01*
X44336308Y28279735D01*
X44337208Y28279669D01*
X44337219Y28279669D01*
X44339515Y28279500D01*
X44365662Y28279500D01*
X44382109Y28278422D01*
X44410000Y28274750D01*
X44418188Y28275828D01*
X44437891Y28278422D01*
X44454338Y28279500D01*
X48398698Y28279500D01*
X48466819Y28259498D01*
X48513312Y28205842D01*
X48523416Y28135568D01*
X48507818Y28090502D01*
X48504165Y28084175D01*
X48499139Y28077625D01*
X48495980Y28069997D01*
X48495979Y28069996D01*
X48492546Y28061707D01*
X48483222Y28043524D01*
X48472365Y28026014D01*
X48469967Y28017760D01*
X48461625Y27989046D01*
X48457036Y27975978D01*
X48447769Y27953604D01*
X48443670Y27943709D01*
X48442593Y27935528D01*
X48442592Y27935525D01*
X48440956Y27923098D01*
X48437033Y27904404D01*
X48430285Y27881175D01*
X48429500Y27870485D01*
X48429500Y27844338D01*
X48428422Y27827891D01*
X48424750Y27800000D01*
X48425828Y27791812D01*
X48428422Y27772109D01*
X48429500Y27755662D01*
X48429500Y26354993D01*
X48429389Y26349717D01*
X48426790Y26287706D01*
X48428752Y26279341D01*
X48436727Y26245338D01*
X48438890Y26233667D01*
X48440292Y26223431D01*
X48444794Y26190568D01*
X48448206Y26182684D01*
X48448206Y26182683D01*
X48450765Y26176770D01*
X48457799Y26155501D01*
X48461232Y26140864D01*
X48465369Y26133339D01*
X48465370Y26133336D01*
X48482195Y26102732D01*
X48487411Y26092087D01*
X48504695Y26052145D01*
X48514158Y26040459D01*
X48526645Y26021875D01*
X48533893Y26008692D01*
X48540897Y26000578D01*
X48565433Y25976042D01*
X48574258Y25966241D01*
X48589533Y25947379D01*
X48599614Y25934930D01*
X48606612Y25929957D01*
X48606617Y25929952D01*
X48614948Y25924032D01*
X48631054Y25910421D01*
X49306406Y25235070D01*
X49952595Y24588881D01*
X49986620Y24526569D01*
X49989500Y24499786D01*
X49989500Y23040215D01*
X49969498Y22972094D01*
X49952595Y22951120D01*
X47952094Y20950618D01*
X47939703Y20939751D01*
X47917379Y20922621D01*
X47895915Y20894648D01*
X47894968Y20893492D01*
X47894020Y20892544D01*
X47891829Y20889657D01*
X47891818Y20889644D01*
X47868493Y20858914D01*
X47868163Y20858482D01*
X47829139Y20807625D01*
X47828629Y20806395D01*
X47825888Y20802783D01*
X47822729Y20794805D01*
X47822726Y20794799D01*
X47799267Y20735546D01*
X47798555Y20733787D01*
X47773670Y20673709D01*
X47773115Y20669496D01*
X47770364Y20662547D01*
X47769466Y20654007D01*
X47769466Y20654005D01*
X47763268Y20595028D01*
X47762880Y20591755D01*
X47754750Y20530000D01*
X47755489Y20524384D01*
X47755429Y20523233D01*
X47755496Y20521086D01*
X47754599Y20512546D01*
X47756031Y20504080D01*
X47756031Y20504077D01*
X47765266Y20449473D01*
X47765952Y20444910D01*
X47772592Y20394478D01*
X47773670Y20386291D01*
X47776666Y20379059D01*
X47777729Y20374182D01*
X47778321Y20372294D01*
X47779752Y20363830D01*
X47783405Y20356066D01*
X47783407Y20356061D01*
X47805390Y20309344D01*
X47807789Y20303916D01*
X47825978Y20260005D01*
X47825980Y20260002D01*
X47829139Y20252375D01*
X47834165Y20245825D01*
X47837553Y20239957D01*
X47839099Y20237001D01*
X47840313Y20235131D01*
X47843971Y20227358D01*
X47880923Y20184548D01*
X47885487Y20178941D01*
X47917379Y20137379D01*
X47923929Y20132353D01*
X47929771Y20126511D01*
X47929558Y20126299D01*
X47931684Y20124292D01*
X47936912Y20119683D01*
X47942524Y20113181D01*
X47949677Y20108429D01*
X47949681Y20108425D01*
X47986582Y20083908D01*
X47993556Y20078925D01*
X48032375Y20049139D01*
X48040008Y20045977D01*
X48044190Y20043563D01*
X48059945Y20035168D01*
X48068153Y20029715D01*
X48112303Y20015370D01*
X48115014Y20014489D01*
X48124297Y20011065D01*
X48166291Y19993670D01*
X48174479Y19992592D01*
X48174483Y19992591D01*
X48176328Y19992348D01*
X48198808Y19987261D01*
X48203424Y19985761D01*
X48203431Y19985760D01*
X48211598Y19983106D01*
X48220182Y19982746D01*
X48220183Y19982746D01*
X48257236Y19981193D01*
X48268405Y19980226D01*
X48301812Y19975828D01*
X48310000Y19974750D01*
X48323567Y19976536D01*
X48345286Y19977503D01*
X48362294Y19976790D01*
X48370658Y19978752D01*
X48370660Y19978752D01*
X48403274Y19986402D01*
X48415600Y19988653D01*
X48432197Y19990838D01*
X48445522Y19992592D01*
X48445524Y19992592D01*
X48453709Y19993670D01*
X48469633Y20000266D01*
X48489080Y20006528D01*
X48493757Y20007625D01*
X48509136Y20011232D01*
X48516659Y20015368D01*
X48516665Y20015370D01*
X48542874Y20029778D01*
X48555352Y20035770D01*
X48579994Y20045978D01*
X48587625Y20049139D01*
X48604116Y20061792D01*
X48620113Y20072241D01*
X48620317Y20072353D01*
X48641308Y20083893D01*
X48649422Y20090897D01*
X48667911Y20109386D01*
X48680302Y20120253D01*
X48696071Y20132353D01*
X48702621Y20137379D01*
X48719747Y20159698D01*
X48730614Y20172089D01*
X50918642Y22360118D01*
X50922451Y22363771D01*
X50961833Y22399985D01*
X50968156Y22405799D01*
X50982830Y22429465D01*
X50991087Y22442783D01*
X50997801Y22452553D01*
X51024112Y22487216D01*
X51029646Y22501193D01*
X51039709Y22521202D01*
X51043111Y22526688D01*
X51043113Y22526692D01*
X51047635Y22533986D01*
X51050029Y22542228D01*
X51050031Y22542231D01*
X51059779Y22575784D01*
X51063618Y22586997D01*
X51079635Y22627453D01*
X51081206Y22642402D01*
X51085519Y22664385D01*
X51087873Y22672486D01*
X51089715Y22678825D01*
X51090500Y22689515D01*
X51090500Y22724219D01*
X51091190Y22737390D01*
X51094503Y22768912D01*
X51095401Y22777454D01*
X51093969Y22785919D01*
X51093969Y22785928D01*
X51092265Y22796000D01*
X51090500Y22817013D01*
X51090500Y24765007D01*
X51090611Y24770283D01*
X51092485Y24815007D01*
X51093210Y24832294D01*
X51091248Y24840659D01*
X51083273Y24874662D01*
X51081110Y24886333D01*
X51076372Y24920919D01*
X51075206Y24929432D01*
X51069235Y24943230D01*
X51062201Y24964499D01*
X51060730Y24970772D01*
X51060729Y24970774D01*
X51058768Y24979136D01*
X51054271Y24987317D01*
X51037806Y25017265D01*
X51032583Y25027927D01*
X51018716Y25059973D01*
X51018715Y25059974D01*
X51015305Y25067855D01*
X51005842Y25079541D01*
X50993351Y25098129D01*
X50986106Y25111308D01*
X50979103Y25119422D01*
X50954567Y25143958D01*
X50945742Y25153759D01*
X50925794Y25178392D01*
X50925793Y25178393D01*
X50920386Y25185070D01*
X50913388Y25190043D01*
X50913383Y25190048D01*
X50905052Y25195968D01*
X50888946Y25209579D01*
X50878525Y25220000D01*
X53024750Y25220000D01*
X53043670Y25076291D01*
X53099139Y24942375D01*
X53187379Y24827379D01*
X53252661Y24777286D01*
X53294525Y24719952D01*
X53298747Y24649081D01*
X53263983Y24587178D01*
X53252658Y24577365D01*
X53207379Y24542621D01*
X53119139Y24427625D01*
X53063670Y24293709D01*
X53044750Y24150000D01*
X53063670Y24006291D01*
X53119139Y23872375D01*
X53207379Y23757379D01*
X53322375Y23669139D01*
X53456291Y23613670D01*
X53600000Y23594750D01*
X53743709Y23613670D01*
X53851783Y23658435D01*
X53922372Y23666024D01*
X53948215Y23658436D01*
X54056291Y23613670D01*
X54200000Y23594750D01*
X54343709Y23613670D01*
X54477625Y23669139D01*
X54592621Y23757379D01*
X54680861Y23872375D01*
X54736330Y24006291D01*
X54755250Y24150000D01*
X54736330Y24293709D01*
X54680861Y24427625D01*
X54592621Y24542621D01*
X54537340Y24585040D01*
X54495475Y24642375D01*
X54491253Y24713246D01*
X54526017Y24775149D01*
X54537329Y24784952D01*
X54592621Y24827379D01*
X54618533Y24861148D01*
X54675871Y24903015D01*
X54734941Y24909366D01*
X54770000Y24904750D01*
X54913709Y24923670D01*
X55047625Y24979139D01*
X55162621Y25067379D01*
X55250861Y25182375D01*
X55306330Y25316291D01*
X55325250Y25460000D01*
X55306330Y25603709D01*
X55250861Y25737625D01*
X55162621Y25852621D01*
X55047625Y25940861D01*
X54913709Y25996330D01*
X54770000Y26015250D01*
X54626291Y25996330D01*
X54492375Y25940861D01*
X54377379Y25852621D01*
X54372353Y25846071D01*
X54351467Y25818852D01*
X54294129Y25776985D01*
X54235059Y25770634D01*
X54200000Y25775250D01*
X54056291Y25756330D01*
X53938217Y25707423D01*
X53867628Y25699834D01*
X53841784Y25707422D01*
X53723709Y25756330D01*
X53580000Y25775250D01*
X53436291Y25756330D01*
X53302375Y25700861D01*
X53187379Y25612621D01*
X53099139Y25497625D01*
X53043670Y25363709D01*
X53024750Y25220000D01*
X50878525Y25220000D01*
X50228966Y25869559D01*
X49567405Y26531119D01*
X49533380Y26593431D01*
X49530500Y26620214D01*
X49530500Y27636921D01*
X49550502Y27705042D01*
X49604158Y27751535D01*
X49674432Y27761639D01*
X49739012Y27732145D01*
X49777396Y27672419D01*
X49781422Y27653367D01*
X49783670Y27636291D01*
X49784178Y27635064D01*
X49784794Y27630568D01*
X49813525Y27564174D01*
X49814270Y27562414D01*
X49834981Y27512414D01*
X49839139Y27502375D01*
X49841728Y27499000D01*
X49844695Y27492145D01*
X49884998Y27442375D01*
X49887410Y27439396D01*
X49889439Y27436822D01*
X49892243Y27433168D01*
X49919722Y27397358D01*
X49927379Y27387379D01*
X49931872Y27383931D01*
X49932640Y27383079D01*
X49934207Y27381608D01*
X49939614Y27374930D01*
X49983240Y27343927D01*
X49991746Y27337882D01*
X49995442Y27335152D01*
X50042375Y27299139D01*
X50049611Y27296141D01*
X50053800Y27293452D01*
X50055555Y27292535D01*
X50062558Y27287558D01*
X50070641Y27284648D01*
X50070643Y27284647D01*
X50119210Y27267162D01*
X50124747Y27265020D01*
X50144201Y27256962D01*
X50176291Y27243670D01*
X50184482Y27242591D01*
X50191018Y27240840D01*
X50194213Y27239838D01*
X50196389Y27239376D01*
X50204468Y27236467D01*
X50229250Y27234647D01*
X50260865Y27232325D01*
X50268082Y27231585D01*
X50298671Y27227558D01*
X50320000Y27224750D01*
X50328188Y27225828D01*
X50336448Y27225828D01*
X50336448Y27225529D01*
X50339419Y27225614D01*
X50346328Y27226049D01*
X50354891Y27225420D01*
X50366453Y27227751D01*
X50406745Y27235875D01*
X50415201Y27237283D01*
X50455524Y27242592D01*
X50455526Y27242593D01*
X50463709Y27243670D01*
X50471335Y27246829D01*
X50476022Y27248085D01*
X50493082Y27253285D01*
X50502743Y27255233D01*
X50546645Y27277602D01*
X50555629Y27281744D01*
X50596454Y27298654D01*
X50667042Y27306243D01*
X50730529Y27274464D01*
X50766757Y27213406D01*
X50764223Y27142455D01*
X50761080Y27134028D01*
X50743399Y27091340D01*
X50723670Y27043709D01*
X50715854Y26984341D01*
X50687132Y26919414D01*
X50639150Y26884378D01*
X50637755Y26883800D01*
X50582375Y26860861D01*
X50467379Y26772621D01*
X50379139Y26657625D01*
X50323670Y26523709D01*
X50304750Y26380000D01*
X50323670Y26236291D01*
X50379139Y26102375D01*
X50467379Y25987379D01*
X50582375Y25899139D01*
X50716291Y25843670D01*
X50860000Y25824750D01*
X51003709Y25843670D01*
X51131783Y25896719D01*
X51202372Y25904308D01*
X51228216Y25896720D01*
X51356291Y25843670D01*
X51500000Y25824750D01*
X51643709Y25843670D01*
X51777625Y25899139D01*
X51892621Y25987379D01*
X51980861Y26102375D01*
X52036330Y26236291D01*
X52044146Y26295660D01*
X52072868Y26360586D01*
X52120850Y26395622D01*
X52157408Y26410765D01*
X52177625Y26419139D01*
X52292621Y26507379D01*
X52380861Y26622375D01*
X52436330Y26756291D01*
X52455250Y26900000D01*
X52449984Y26940000D01*
X54184750Y26940000D01*
X54185828Y26931812D01*
X54185828Y26923552D01*
X54185529Y26923552D01*
X54185614Y26920581D01*
X54186049Y26913672D01*
X54185420Y26905109D01*
X54187118Y26896688D01*
X54195875Y26853255D01*
X54197283Y26844799D01*
X54197916Y26839997D01*
X54203670Y26796291D01*
X54206829Y26788665D01*
X54208085Y26783978D01*
X54213285Y26766918D01*
X54215233Y26757257D01*
X54225225Y26737647D01*
X54237602Y26713355D01*
X54241744Y26704370D01*
X54259139Y26662375D01*
X54264169Y26655820D01*
X54265302Y26654343D01*
X54277604Y26634846D01*
X54283707Y26622868D01*
X54289521Y26616545D01*
X54289524Y26616541D01*
X54314627Y26589241D01*
X54321839Y26580661D01*
X54342347Y26553935D01*
X54342353Y26553929D01*
X54347379Y26547379D01*
X54358239Y26539045D01*
X54374269Y26524383D01*
X54385799Y26511844D01*
X54393104Y26507315D01*
X54393105Y26507314D01*
X54421565Y26489668D01*
X54431874Y26482544D01*
X54462375Y26459139D01*
X54470003Y26455980D01*
X54470004Y26455979D01*
X54478293Y26452546D01*
X54496476Y26443222D01*
X54513986Y26432365D01*
X54522240Y26429967D01*
X54550954Y26421625D01*
X54564022Y26417036D01*
X54588661Y26406830D01*
X54588664Y26406829D01*
X54596291Y26403670D01*
X54604472Y26402593D01*
X54604475Y26402592D01*
X54616902Y26400956D01*
X54635596Y26397033D01*
X54658825Y26390285D01*
X54666308Y26389736D01*
X54667208Y26389669D01*
X54667219Y26389669D01*
X54669515Y26389500D01*
X54695662Y26389500D01*
X54712109Y26388422D01*
X54740000Y26384750D01*
X54748188Y26385828D01*
X54767891Y26388422D01*
X54784338Y26389500D01*
X55095007Y26389500D01*
X55100284Y26389389D01*
X55162294Y26386790D01*
X55173848Y26389500D01*
X55204662Y26396727D01*
X55216333Y26398890D01*
X55243357Y26402592D01*
X55259432Y26404794D01*
X55273230Y26410765D01*
X55294499Y26417799D01*
X55300775Y26419271D01*
X55309136Y26421232D01*
X55316661Y26425369D01*
X55316664Y26425370D01*
X55347268Y26442195D01*
X55357913Y26447411D01*
X55397855Y26464695D01*
X55409541Y26474158D01*
X55428126Y26486646D01*
X55435518Y26490710D01*
X55441308Y26493893D01*
X55449422Y26500897D01*
X55473958Y26525433D01*
X55483759Y26534258D01*
X55508392Y26554206D01*
X55508393Y26554207D01*
X55515070Y26559614D01*
X55520043Y26566612D01*
X55520048Y26566617D01*
X55525968Y26574948D01*
X55539579Y26591054D01*
X55958655Y27010130D01*
X55962464Y27013783D01*
X55985383Y27034858D01*
X56008156Y27055799D01*
X56031095Y27092797D01*
X56037797Y27102548D01*
X56064112Y27137216D01*
X56069646Y27151193D01*
X56079709Y27171202D01*
X56083111Y27176688D01*
X56083113Y27176692D01*
X56087635Y27183986D01*
X56090029Y27192228D01*
X56090031Y27192231D01*
X56099779Y27225784D01*
X56103618Y27236997D01*
X56119635Y27277453D01*
X56120591Y27286545D01*
X56121206Y27292402D01*
X56125519Y27314385D01*
X56125678Y27314930D01*
X56129715Y27328825D01*
X56130500Y27339515D01*
X56130500Y27374219D01*
X56131190Y27387390D01*
X56132336Y27398295D01*
X56135401Y27427454D01*
X56133969Y27435919D01*
X56133969Y27435928D01*
X56132265Y27446000D01*
X56130500Y27467013D01*
X56130500Y28659785D01*
X56150502Y28727906D01*
X56167405Y28748880D01*
X57938642Y30520118D01*
X57942451Y30523771D01*
X57981833Y30559985D01*
X57988156Y30565799D01*
X58011099Y30602802D01*
X58017800Y30612552D01*
X58044112Y30647217D01*
X58049646Y30661196D01*
X58059707Y30681199D01*
X58067635Y30693986D01*
X58079775Y30735772D01*
X58083621Y30747005D01*
X58096473Y30779465D01*
X58099636Y30787453D01*
X58101208Y30802408D01*
X58105520Y30824383D01*
X58109715Y30838825D01*
X58110500Y30849515D01*
X58110500Y30884217D01*
X58111190Y30897387D01*
X58114503Y30928912D01*
X58115401Y30937454D01*
X58113969Y30945919D01*
X58113969Y30945928D01*
X58112265Y30956000D01*
X58110500Y30977013D01*
X58110500Y31255662D01*
X58111578Y31272109D01*
X58114172Y31291812D01*
X58115250Y31300000D01*
X58110649Y31334945D01*
X58110500Y31336443D01*
X58110500Y31337785D01*
X58110009Y31341366D01*
X58110008Y31341380D01*
X58104770Y31379611D01*
X58104682Y31380267D01*
X58096986Y31438725D01*
X58096330Y31443709D01*
X58095822Y31444936D01*
X58095206Y31449432D01*
X58066475Y31515826D01*
X58065730Y31517586D01*
X58044019Y31570001D01*
X58040861Y31577625D01*
X58038272Y31581000D01*
X58035305Y31587855D01*
X57992578Y31640619D01*
X57990549Y31643193D01*
X57957646Y31686073D01*
X57957644Y31686075D01*
X57952621Y31692621D01*
X57948128Y31696069D01*
X57947360Y31696921D01*
X57945793Y31698392D01*
X57940386Y31705070D01*
X57888245Y31742124D01*
X57884558Y31744848D01*
X57837625Y31780861D01*
X57830389Y31783859D01*
X57826200Y31786548D01*
X57824445Y31787465D01*
X57817442Y31792442D01*
X57809359Y31795352D01*
X57809357Y31795353D01*
X57760790Y31812838D01*
X57755253Y31814980D01*
X57719633Y31829734D01*
X57703709Y31836330D01*
X57695518Y31837409D01*
X57688982Y31839160D01*
X57685787Y31840162D01*
X57683611Y31840624D01*
X57675532Y31843533D01*
X57645654Y31845727D01*
X57619135Y31847675D01*
X57611918Y31848415D01*
X57568188Y31854172D01*
X57560000Y31855250D01*
X57551812Y31854172D01*
X57543552Y31854172D01*
X57543552Y31854471D01*
X57540581Y31854386D01*
X57533672Y31853951D01*
X57525109Y31854580D01*
X57516688Y31852882D01*
X57473255Y31844125D01*
X57464799Y31842717D01*
X57424476Y31837408D01*
X57424474Y31837407D01*
X57416291Y31836330D01*
X57408665Y31833171D01*
X57403978Y31831915D01*
X57386918Y31826715D01*
X57377257Y31824767D01*
X57334419Y31802940D01*
X57333355Y31802398D01*
X57324370Y31798256D01*
X57296105Y31786548D01*
X57282375Y31780861D01*
X57275820Y31775831D01*
X57274343Y31774698D01*
X57254846Y31762396D01*
X57242868Y31756293D01*
X57236545Y31750479D01*
X57236541Y31750476D01*
X57209241Y31725373D01*
X57200661Y31718161D01*
X57173930Y31697649D01*
X57173925Y31697644D01*
X57167379Y31692621D01*
X57166396Y31691340D01*
X57106783Y31658788D01*
X57035968Y31663853D01*
X56993998Y31690826D01*
X56992621Y31692621D01*
X56986075Y31697644D01*
X56980231Y31703488D01*
X56980443Y31703700D01*
X56978330Y31705695D01*
X56973092Y31710312D01*
X56967476Y31716819D01*
X56923414Y31746093D01*
X56916441Y31751077D01*
X56884179Y31775832D01*
X56884178Y31775833D01*
X56877625Y31780861D01*
X56869995Y31784021D01*
X56865804Y31786441D01*
X56850053Y31794834D01*
X56849006Y31795530D01*
X56849002Y31795532D01*
X56841848Y31800285D01*
X56794984Y31815512D01*
X56785702Y31818936D01*
X56751339Y31833170D01*
X56751336Y31833171D01*
X56743709Y31836330D01*
X56735521Y31837408D01*
X56735517Y31837409D01*
X56733672Y31837652D01*
X56711192Y31842739D01*
X56706576Y31844239D01*
X56706569Y31844240D01*
X56698402Y31846894D01*
X56689818Y31847254D01*
X56689817Y31847254D01*
X56652764Y31848807D01*
X56641595Y31849774D01*
X56608188Y31854172D01*
X56600000Y31855250D01*
X56586433Y31853464D01*
X56564714Y31852497D01*
X56547706Y31853210D01*
X56539342Y31851248D01*
X56539340Y31851248D01*
X56506726Y31843598D01*
X56494400Y31841347D01*
X56478573Y31839263D01*
X56464478Y31837408D01*
X56464476Y31837408D01*
X56456291Y31836330D01*
X56440847Y31829933D01*
X56440367Y31829734D01*
X56420920Y31823472D01*
X56400864Y31818768D01*
X56393341Y31814632D01*
X56393335Y31814630D01*
X56367126Y31800222D01*
X56354648Y31794230D01*
X56330006Y31784022D01*
X56322375Y31780861D01*
X56315824Y31775835D01*
X56315825Y31775835D01*
X56305885Y31768208D01*
X56289889Y31757760D01*
X56268692Y31746107D01*
X56260578Y31739103D01*
X56242089Y31720614D01*
X56229698Y31709747D01*
X56207379Y31692621D01*
X56190246Y31670293D01*
X56179383Y31657907D01*
X54381358Y29859882D01*
X54377549Y29856229D01*
X54331844Y29814201D01*
X54308901Y29777198D01*
X54302200Y29767448D01*
X54275888Y29732783D01*
X54270354Y29718805D01*
X54260293Y29698801D01*
X54252365Y29686014D01*
X54249968Y29677763D01*
X54249967Y29677761D01*
X54240225Y29644228D01*
X54236380Y29632998D01*
X54220364Y29592547D01*
X54219466Y29584006D01*
X54219466Y29584005D01*
X54218792Y29577592D01*
X54214480Y29555617D01*
X54210285Y29541175D01*
X54209500Y29530485D01*
X54209500Y29495783D01*
X54208810Y29482613D01*
X54204599Y29442546D01*
X54206031Y29434081D01*
X54206031Y29434072D01*
X54207735Y29424000D01*
X54209500Y29402987D01*
X54209500Y27830931D01*
X54208810Y27817761D01*
X54203268Y27765028D01*
X54202880Y27761755D01*
X54194750Y27700000D01*
X54195489Y27694384D01*
X54195429Y27693233D01*
X54195496Y27691086D01*
X54194599Y27682546D01*
X54196031Y27674080D01*
X54196031Y27674077D01*
X54205266Y27619473D01*
X54205952Y27614910D01*
X54210703Y27578825D01*
X54213670Y27556291D01*
X54216666Y27549059D01*
X54217729Y27544182D01*
X54218321Y27542294D01*
X54219752Y27533830D01*
X54223405Y27526066D01*
X54223407Y27526061D01*
X54245390Y27479344D01*
X54247789Y27473916D01*
X54265978Y27430005D01*
X54265980Y27430002D01*
X54269139Y27422375D01*
X54274165Y27415825D01*
X54277553Y27409957D01*
X54279099Y27407001D01*
X54280313Y27405131D01*
X54283971Y27397358D01*
X54288326Y27392313D01*
X54308387Y27325178D01*
X54288710Y27256962D01*
X54282362Y27247889D01*
X54259139Y27217625D01*
X54256141Y27210389D01*
X54253452Y27206200D01*
X54252535Y27204445D01*
X54247558Y27197442D01*
X54244648Y27189359D01*
X54244647Y27189357D01*
X54227162Y27140790D01*
X54225020Y27135253D01*
X54223000Y27130376D01*
X54203670Y27083709D01*
X54202591Y27075518D01*
X54200840Y27068982D01*
X54199838Y27065787D01*
X54199376Y27063611D01*
X54196467Y27055532D01*
X54195838Y27046966D01*
X54192325Y26999135D01*
X54191585Y26991918D01*
X54190511Y26983762D01*
X54184750Y26940000D01*
X52449984Y26940000D01*
X52436330Y27043709D01*
X52380861Y27177625D01*
X52292621Y27292621D01*
X52177625Y27380861D01*
X52043709Y27436330D01*
X51900000Y27455250D01*
X51756291Y27436330D01*
X51628217Y27383281D01*
X51557628Y27375692D01*
X51531784Y27383280D01*
X51403709Y27436330D01*
X51260000Y27455250D01*
X51116291Y27436330D01*
X51108657Y27433168D01*
X50988351Y27383337D01*
X50917761Y27375748D01*
X50854275Y27407528D01*
X50818048Y27468586D01*
X50820582Y27539538D01*
X50823768Y27547749D01*
X50827635Y27553986D01*
X50838375Y27590954D01*
X50842964Y27604022D01*
X50853170Y27628661D01*
X50853171Y27628664D01*
X50856330Y27636291D01*
X50857531Y27645408D01*
X50859044Y27656902D01*
X50862968Y27675602D01*
X50869715Y27698825D01*
X50870500Y27709515D01*
X50870500Y27735662D01*
X50871578Y27752109D01*
X50874172Y27771812D01*
X50875250Y27780000D01*
X50871578Y27807891D01*
X50870500Y27824338D01*
X50870500Y28185007D01*
X50870611Y28190283D01*
X50871895Y28220919D01*
X50873210Y28252294D01*
X50866645Y28280285D01*
X50863274Y28294659D01*
X50861111Y28306328D01*
X50856372Y28340923D01*
X50856371Y28340925D01*
X50855206Y28349432D01*
X50850121Y28361183D01*
X50849237Y28363226D01*
X50842205Y28384490D01*
X50840733Y28390767D01*
X50840730Y28390774D01*
X50838769Y28399136D01*
X50817802Y28437274D01*
X50812580Y28447934D01*
X50809983Y28453935D01*
X50795305Y28487855D01*
X50785843Y28499540D01*
X50773355Y28518124D01*
X50766107Y28531307D01*
X50759103Y28539422D01*
X50734567Y28563958D01*
X50725742Y28573759D01*
X50705794Y28598392D01*
X50705793Y28598393D01*
X50700386Y28605070D01*
X50685055Y28615966D01*
X50668949Y28629577D01*
X50089870Y29208656D01*
X50086218Y29212464D01*
X50056308Y29244989D01*
X50044201Y29258156D01*
X50007198Y29281099D01*
X49997448Y29287800D01*
X49962783Y29314112D01*
X49948804Y29319646D01*
X49928801Y29329707D01*
X49916014Y29337635D01*
X49907763Y29340032D01*
X49907761Y29340033D01*
X49874228Y29349775D01*
X49862995Y29353621D01*
X49861755Y29354112D01*
X49822547Y29369636D01*
X49814006Y29370534D01*
X49814005Y29370534D01*
X49807592Y29371208D01*
X49785617Y29375520D01*
X49771175Y29379715D01*
X49763692Y29380265D01*
X49762792Y29380331D01*
X49762781Y29380331D01*
X49760485Y29380500D01*
X49725783Y29380500D01*
X49712613Y29381190D01*
X49702384Y29382265D01*
X49672546Y29385401D01*
X49664081Y29383969D01*
X49664072Y29383969D01*
X49654000Y29382265D01*
X49632987Y29380500D01*
X44454338Y29380500D01*
X44437891Y29381578D01*
X44418188Y29384172D01*
X44410000Y29385250D01*
X44375055Y29380649D01*
X44373557Y29380500D01*
X44372215Y29380500D01*
X44368634Y29380009D01*
X44368620Y29380008D01*
X44330389Y29374770D01*
X44329733Y29374682D01*
X44317777Y29373108D01*
X44266291Y29366330D01*
X44265064Y29365822D01*
X44260568Y29365206D01*
X44194174Y29336475D01*
X44192414Y29335730D01*
X44145018Y29316098D01*
X44132375Y29310861D01*
X44129000Y29308272D01*
X44122145Y29305305D01*
X44075640Y29267646D01*
X44069396Y29262590D01*
X44066807Y29260549D01*
X44023927Y29227646D01*
X44023925Y29227644D01*
X44017379Y29222621D01*
X44013931Y29218128D01*
X44013079Y29217360D01*
X44011608Y29215793D01*
X44004930Y29210386D01*
X43973652Y29166373D01*
X43967882Y29158254D01*
X43965152Y29154558D01*
X43929139Y29107625D01*
X43926141Y29100389D01*
X43923452Y29096200D01*
X43922535Y29094445D01*
X43917558Y29087442D01*
X43914648Y29079359D01*
X43914647Y29079357D01*
X43897162Y29030790D01*
X43895020Y29025253D01*
X43889029Y29010790D01*
X43873670Y28973709D01*
X43872591Y28965518D01*
X43870840Y28958982D01*
X43869838Y28955787D01*
X43869376Y28953611D01*
X43866467Y28945532D01*
X43864998Y28925532D01*
X43862325Y28889135D01*
X43861585Y28881918D01*
X43854750Y28830000D01*
X40488525Y28830000D01*
X40069870Y29248654D01*
X40066217Y29252464D01*
X40039897Y29281087D01*
X40024201Y29298156D01*
X39987198Y29321099D01*
X39977448Y29327800D01*
X39942783Y29354112D01*
X39928804Y29359646D01*
X39908801Y29369707D01*
X39896014Y29377635D01*
X39887763Y29380032D01*
X39887761Y29380033D01*
X39854228Y29389775D01*
X39842995Y29393621D01*
X39842116Y29393969D01*
X39802547Y29409636D01*
X39794006Y29410534D01*
X39794005Y29410534D01*
X39787592Y29411208D01*
X39765617Y29415520D01*
X39751175Y29419715D01*
X39743692Y29420264D01*
X39742792Y29420331D01*
X39742781Y29420331D01*
X39740485Y29420500D01*
X39705783Y29420500D01*
X39692613Y29421190D01*
X39682384Y29422265D01*
X39652546Y29425401D01*
X39644081Y29423969D01*
X39644072Y29423969D01*
X39634000Y29422265D01*
X39612987Y29420500D01*
X34424338Y29420500D01*
X34407891Y29421578D01*
X34388188Y29424172D01*
X34380000Y29425250D01*
X34345055Y29420649D01*
X34343557Y29420500D01*
X34342215Y29420500D01*
X34338634Y29420009D01*
X34338620Y29420008D01*
X34300389Y29414770D01*
X34299733Y29414682D01*
X34291279Y29413569D01*
X34236291Y29406330D01*
X34235064Y29405822D01*
X34230568Y29405206D01*
X34164174Y29376475D01*
X34162414Y29375730D01*
X34117857Y29357274D01*
X34102375Y29350861D01*
X34099000Y29348272D01*
X34092145Y29345305D01*
X34040872Y29303785D01*
X34039396Y29302590D01*
X34036822Y29300561D01*
X34021652Y29288920D01*
X33993927Y29267646D01*
X33993925Y29267644D01*
X33987379Y29262621D01*
X33983931Y29258128D01*
X33983079Y29257360D01*
X33981608Y29255793D01*
X33974930Y29250386D01*
X33941528Y29203385D01*
X33937882Y29198254D01*
X33935152Y29194558D01*
X33899139Y29147625D01*
X33896141Y29140389D01*
X33893452Y29136200D01*
X33892535Y29134445D01*
X33887558Y29127442D01*
X33884648Y29119359D01*
X33884647Y29119357D01*
X33867162Y29070790D01*
X33865020Y29065253D01*
X33843670Y29013709D01*
X33842591Y29005518D01*
X33840840Y28998982D01*
X33839838Y28995786D01*
X33839376Y28993612D01*
X33836467Y28985532D01*
X33835838Y28976967D01*
X33832326Y28929144D01*
X33831586Y28921926D01*
X33824750Y28870000D01*
X30518524Y28870000D01*
X30199870Y29188654D01*
X30196217Y29192464D01*
X30170541Y29220386D01*
X30154201Y29238156D01*
X30117198Y29261099D01*
X30107448Y29267800D01*
X30072783Y29294112D01*
X30058804Y29299646D01*
X30038801Y29309707D01*
X30026014Y29317635D01*
X30017763Y29320032D01*
X30017761Y29320033D01*
X29984228Y29329775D01*
X29972995Y29333621D01*
X29972581Y29333785D01*
X29932547Y29349636D01*
X29924006Y29350534D01*
X29924005Y29350534D01*
X29917592Y29351208D01*
X29895617Y29355520D01*
X29881175Y29359715D01*
X29873692Y29360264D01*
X29872792Y29360331D01*
X29872781Y29360331D01*
X29870485Y29360500D01*
X29835783Y29360500D01*
X29822613Y29361190D01*
X29812384Y29362265D01*
X29782546Y29365401D01*
X29774081Y29363969D01*
X29774072Y29363969D01*
X29764000Y29362265D01*
X29742987Y29360500D01*
X23584338Y29360500D01*
X23567891Y29361578D01*
X23552373Y29363621D01*
X23540000Y29365250D01*
X23505055Y29360649D01*
X23503557Y29360500D01*
X23502215Y29360500D01*
X23498634Y29360009D01*
X23498620Y29360008D01*
X23460389Y29354770D01*
X23459733Y29354682D01*
X23454697Y29354019D01*
X23396291Y29346330D01*
X23395064Y29345822D01*
X23390568Y29345206D01*
X23324174Y29316475D01*
X23322414Y29315730D01*
X23270224Y29294112D01*
X23262375Y29290861D01*
X23259000Y29288272D01*
X23252145Y29285305D01*
X23200378Y29243385D01*
X23199396Y29242590D01*
X23196822Y29240561D01*
X23186475Y29232621D01*
X23153927Y29207646D01*
X23153925Y29207644D01*
X23147379Y29202621D01*
X23143931Y29198128D01*
X23143079Y29197360D01*
X23141608Y29195793D01*
X23134930Y29190386D01*
X23097882Y29138254D01*
X23095152Y29134558D01*
X23059139Y29087625D01*
X23056141Y29080389D01*
X23053452Y29076200D01*
X23052535Y29074445D01*
X23047558Y29067442D01*
X23044648Y29059359D01*
X23044647Y29059357D01*
X23027162Y29010790D01*
X23025020Y29005253D01*
X23016096Y28983709D01*
X23003670Y28953709D01*
X23002591Y28945518D01*
X23000840Y28938982D01*
X22999838Y28935787D01*
X22999376Y28933611D01*
X22996467Y28925532D01*
X22995838Y28916966D01*
X22992325Y28869135D01*
X22991585Y28861918D01*
X22988700Y28840000D01*
X22984750Y28810000D01*
X20308525Y28810000D01*
X19899870Y29218654D01*
X19896217Y29222464D01*
X19870541Y29250386D01*
X19854201Y29268156D01*
X19817198Y29291099D01*
X19807448Y29297800D01*
X19772783Y29324112D01*
X19758804Y29329646D01*
X19738801Y29339707D01*
X19726014Y29347635D01*
X19717763Y29350032D01*
X19717761Y29350033D01*
X19684228Y29359775D01*
X19672995Y29363621D01*
X19672116Y29363969D01*
X19632547Y29379636D01*
X19624006Y29380534D01*
X19624005Y29380534D01*
X19617592Y29381208D01*
X19595617Y29385520D01*
X19581175Y29389715D01*
X19573692Y29390265D01*
X19572792Y29390331D01*
X19572781Y29390331D01*
X19570485Y29390500D01*
X19535783Y29390500D01*
X19522613Y29391190D01*
X19512384Y29392265D01*
X19482546Y29395401D01*
X19474081Y29393969D01*
X19474072Y29393969D01*
X19464000Y29392265D01*
X19442987Y29390500D01*
X14224340Y29390500D01*
X14207893Y29391578D01*
X14188190Y29394172D01*
X14180002Y29395250D01*
X14145057Y29390649D01*
X14143559Y29390500D01*
X14142217Y29390500D01*
X14138636Y29390009D01*
X14138622Y29390008D01*
X14100391Y29384770D01*
X14099735Y29384682D01*
X14082272Y29382383D01*
X14036293Y29376330D01*
X14035066Y29375822D01*
X14030570Y29375206D01*
X13964176Y29346475D01*
X13962416Y29345730D01*
X13910226Y29324112D01*
X13902377Y29320861D01*
X13899002Y29318272D01*
X13892147Y29315305D01*
X13865976Y29294112D01*
X13839398Y29272590D01*
X13836824Y29270561D01*
X13826267Y29262460D01*
X13793929Y29237646D01*
X13793927Y29237644D01*
X13787381Y29232621D01*
X13783933Y29228128D01*
X13783081Y29227360D01*
X13781610Y29225793D01*
X13774932Y29220386D01*
X13748637Y29183385D01*
X13737884Y29168254D01*
X13735154Y29164558D01*
X13699141Y29117625D01*
X13696143Y29110389D01*
X13693454Y29106200D01*
X13692537Y29104445D01*
X13687560Y29097442D01*
X13684650Y29089359D01*
X13684649Y29089357D01*
X13667164Y29040790D01*
X13665022Y29035253D01*
X13662016Y29027995D01*
X13643672Y28983709D01*
X13642593Y28975518D01*
X13640842Y28968982D01*
X13639840Y28965787D01*
X13639378Y28963611D01*
X13636469Y28955532D01*
X13635019Y28935787D01*
X13632327Y28899135D01*
X13631587Y28891918D01*
X13628702Y28870000D01*
X13624752Y28840000D01*
X10299264Y28840000D01*
X10299375Y31902726D01*
X10301289Y31924597D01*
X10302090Y31929140D01*
X10302090Y31929145D01*
X10304004Y31940000D01*
X10302090Y31950857D01*
X10302090Y31961876D01*
X10302459Y31961876D01*
X10301823Y31974201D01*
X10316043Y32173032D01*
X10318601Y32190827D01*
X10366347Y32410315D01*
X10371412Y32427565D01*
X10395290Y32491582D01*
X10449910Y32638024D01*
X10457378Y32654376D01*
X10565026Y32851519D01*
X10574746Y32866643D01*
X10709356Y33046461D01*
X10721129Y33060047D01*
X10879953Y33218871D01*
X10893539Y33230644D01*
X11073357Y33365254D01*
X11088481Y33374974D01*
X11285624Y33482622D01*
X11301976Y33490090D01*
X11391256Y33523390D01*
X11512441Y33568590D01*
X11529680Y33573652D01*
X11749173Y33621399D01*
X11766968Y33623957D01*
X11965799Y33638177D01*
X11978124Y33637541D01*
X11978124Y33637910D01*
X11989143Y33637910D01*
X12000000Y33635996D01*
X12015392Y33638710D01*
X12037271Y33640624D01*
X63962729Y33640624D01*
X63984608Y33638710D01*
G37*
G04 #@! TD.AperFunction*
G04 #@! TD*
M02*
