G04 #@! TF.GenerationSoftware,KiCad,Pcbnew,(6.0.0)*
G04 #@! TF.CreationDate,2022-03-25T21:10:54+08:00*
G04 #@! TF.ProjectId,PowerSupply,506f7765-7253-4757-9070-6c792e6b6963,rev?*
G04 #@! TF.SameCoordinates,PX5e56640PY77750e0*
G04 #@! TF.FileFunction,Soldermask,Bot*
G04 #@! TF.FilePolarity,Negative*
%FSLAX46Y46*%
G04 Gerber Fmt 4.6, Leading zero omitted, Abs format (unit mm)*
G04 Created by KiCad (PCBNEW (6.0.0)) date 2022-03-25 21:10:54*
%MOMM*%
%LPD*%
G01*
G04 APERTURE LIST*
G04 Aperture macros list*
%AMRoundRect*
0 Rectangle with rounded corners*
0 $1 Rounding radius*
0 $2 $3 $4 $5 $6 $7 $8 $9 X,Y pos of 4 corners*
0 Add a 4 corners polygon primitive as box body*
4,1,4,$2,$3,$4,$5,$6,$7,$8,$9,$2,$3,0*
0 Add four circle primitives for the rounded corners*
1,1,$1+$1,$2,$3*
1,1,$1+$1,$4,$5*
1,1,$1+$1,$6,$7*
1,1,$1+$1,$8,$9*
0 Add four rect primitives between the rounded corners*
20,1,$1+$1,$2,$3,$4,$5,0*
20,1,$1+$1,$4,$5,$6,$7,0*
20,1,$1+$1,$6,$7,$8,$9,0*
20,1,$1+$1,$8,$9,$2,$3,0*%
G04 Aperture macros list end*
%ADD10C,0.010000*%
%ADD11R,0.700000X3.200000*%
%ADD12R,0.700000X4.300000*%
%ADD13RoundRect,0.140000X-0.140000X-0.170000X0.140000X-0.170000X0.140000X0.170000X-0.140000X0.170000X0*%
%ADD14RoundRect,0.140000X0.170000X-0.140000X0.170000X0.140000X-0.170000X0.140000X-0.170000X-0.140000X0*%
%ADD15RoundRect,0.225000X0.250000X-0.225000X0.250000X0.225000X-0.250000X0.225000X-0.250000X-0.225000X0*%
%ADD16RoundRect,0.140000X0.140000X0.170000X-0.140000X0.170000X-0.140000X-0.170000X0.140000X-0.170000X0*%
%ADD17RoundRect,0.140000X-0.170000X0.140000X-0.170000X-0.140000X0.170000X-0.140000X0.170000X0.140000X0*%
%ADD18R,1.900000X2.500000*%
%ADD19RoundRect,0.135000X-0.135000X-0.185000X0.135000X-0.185000X0.135000X0.185000X-0.135000X0.185000X0*%
%ADD20RoundRect,0.135000X0.135000X0.185000X-0.135000X0.185000X-0.135000X-0.185000X0.135000X-0.185000X0*%
%ADD21RoundRect,0.135000X0.185000X-0.135000X0.185000X0.135000X-0.185000X0.135000X-0.185000X-0.135000X0*%
%ADD22RoundRect,0.135000X-0.185000X0.135000X-0.185000X-0.135000X0.185000X-0.135000X0.185000X0.135000X0*%
%ADD23R,1.340000X0.490000*%
%ADD24RoundRect,0.225000X0.225000X0.250000X-0.225000X0.250000X-0.225000X-0.250000X0.225000X-0.250000X0*%
%ADD25RoundRect,0.225000X-0.225000X-0.250000X0.225000X-0.250000X0.225000X0.250000X-0.225000X0.250000X0*%
%ADD26R,2.500000X1.900000*%
%ADD27R,0.240000X0.600000*%
%ADD28R,0.600000X0.240000*%
%ADD29R,0.240000X0.990000*%
%ADD30R,2.050000X3.050000*%
%ADD31R,0.517500X0.427500*%
%ADD32R,1.800000X2.200000*%
%ADD33R,0.300000X1.300000*%
%ADD34RoundRect,0.275000X-3.225000X-0.275000X3.225000X-0.275000X3.225000X0.275000X-3.225000X0.275000X0*%
%ADD35RoundRect,0.275000X0.275000X-3.225000X0.275000X3.225000X-0.275000X3.225000X-0.275000X-3.225000X0*%
G04 APERTURE END LIST*
D10*
G04 #@! TO.C,U1*
X57547000Y27947000D02*
X57547000Y28720000D01*
X57547000Y28720000D02*
X57546792Y28727955D01*
X57546792Y28727955D02*
X57546167Y28735888D01*
X57546167Y28735888D02*
X57545129Y28743778D01*
X57545129Y28743778D02*
X57543678Y28751603D01*
X57543678Y28751603D02*
X57541821Y28759340D01*
X57541821Y28759340D02*
X57539561Y28766971D01*
X57539561Y28766971D02*
X57536904Y28774472D01*
X57536904Y28774472D02*
X57533859Y28781824D01*
X57533859Y28781824D02*
X57530433Y28789007D01*
X57530433Y28789007D02*
X57526636Y28796000D01*
X57526636Y28796000D02*
X57522478Y28802785D01*
X57522478Y28802785D02*
X57517971Y28809343D01*
X57517971Y28809343D02*
X57513126Y28815657D01*
X57513126Y28815657D02*
X57507958Y28821708D01*
X57507958Y28821708D02*
X57502480Y28827480D01*
X57502480Y28827480D02*
X57496708Y28832958D01*
X57496708Y28832958D02*
X57490657Y28838126D01*
X57490657Y28838126D02*
X57484343Y28842971D01*
X57484343Y28842971D02*
X57477785Y28847478D01*
X57477785Y28847478D02*
X57471000Y28851636D01*
X57471000Y28851636D02*
X57464007Y28855433D01*
X57464007Y28855433D02*
X57456824Y28858859D01*
X57456824Y28858859D02*
X57449472Y28861904D01*
X57449472Y28861904D02*
X57441971Y28864561D01*
X57441971Y28864561D02*
X57434340Y28866821D01*
X57434340Y28866821D02*
X57426603Y28868678D01*
X57426603Y28868678D02*
X57418778Y28870129D01*
X57418778Y28870129D02*
X57410888Y28871167D01*
X57410888Y28871167D02*
X57402955Y28871792D01*
X57402955Y28871792D02*
X57395000Y28872000D01*
X57395000Y28872000D02*
X57295000Y28872000D01*
X57295000Y28872000D02*
X57287045Y28871792D01*
X57287045Y28871792D02*
X57279112Y28871167D01*
X57279112Y28871167D02*
X57271222Y28870129D01*
X57271222Y28870129D02*
X57263397Y28868678D01*
X57263397Y28868678D02*
X57255660Y28866821D01*
X57255660Y28866821D02*
X57248029Y28864561D01*
X57248029Y28864561D02*
X57240528Y28861904D01*
X57240528Y28861904D02*
X57233176Y28858859D01*
X57233176Y28858859D02*
X57225993Y28855433D01*
X57225993Y28855433D02*
X57219000Y28851636D01*
X57219000Y28851636D02*
X57212215Y28847478D01*
X57212215Y28847478D02*
X57205657Y28842971D01*
X57205657Y28842971D02*
X57199343Y28838126D01*
X57199343Y28838126D02*
X57193292Y28832958D01*
X57193292Y28832958D02*
X57187520Y28827480D01*
X57187520Y28827480D02*
X57182042Y28821708D01*
X57182042Y28821708D02*
X57176874Y28815657D01*
X57176874Y28815657D02*
X57172029Y28809343D01*
X57172029Y28809343D02*
X57167522Y28802785D01*
X57167522Y28802785D02*
X57163364Y28796000D01*
X57163364Y28796000D02*
X57159567Y28789007D01*
X57159567Y28789007D02*
X57156141Y28781824D01*
X57156141Y28781824D02*
X57153096Y28774472D01*
X57153096Y28774472D02*
X57150439Y28766971D01*
X57150439Y28766971D02*
X57148179Y28759340D01*
X57148179Y28759340D02*
X57146322Y28751603D01*
X57146322Y28751603D02*
X57144871Y28743778D01*
X57144871Y28743778D02*
X57143833Y28735888D01*
X57143833Y28735888D02*
X57143208Y28727955D01*
X57143208Y28727955D02*
X57143000Y28720000D01*
X57143000Y28720000D02*
X57143000Y28347000D01*
X57143000Y28347000D02*
X56998000Y28347000D01*
X56998000Y28347000D02*
X56997000Y28347000D01*
X56997000Y28347000D02*
X56997000Y28722000D01*
X56997000Y28722000D02*
X56996794Y28729850D01*
X56996794Y28729850D02*
X56996178Y28737679D01*
X56996178Y28737679D02*
X56995153Y28745465D01*
X56995153Y28745465D02*
X56993722Y28753187D01*
X56993722Y28753187D02*
X56991889Y28760823D01*
X56991889Y28760823D02*
X56989658Y28768353D01*
X56989658Y28768353D02*
X56987037Y28775755D01*
X56987037Y28775755D02*
X56984032Y28783010D01*
X56984032Y28783010D02*
X56980651Y28790099D01*
X56980651Y28790099D02*
X56976904Y28797000D01*
X56976904Y28797000D02*
X56972801Y28803696D01*
X56972801Y28803696D02*
X56968353Y28810168D01*
X56968353Y28810168D02*
X56963572Y28816398D01*
X56963572Y28816398D02*
X56958472Y28822370D01*
X56958472Y28822370D02*
X56953066Y28828066D01*
X56953066Y28828066D02*
X56947370Y28833472D01*
X56947370Y28833472D02*
X56941398Y28838572D01*
X56941398Y28838572D02*
X56935168Y28843353D01*
X56935168Y28843353D02*
X56928696Y28847801D01*
X56928696Y28847801D02*
X56922000Y28851904D01*
X56922000Y28851904D02*
X56915099Y28855651D01*
X56915099Y28855651D02*
X56908010Y28859032D01*
X56908010Y28859032D02*
X56900755Y28862037D01*
X56900755Y28862037D02*
X56893353Y28864658D01*
X56893353Y28864658D02*
X56885823Y28866889D01*
X56885823Y28866889D02*
X56878187Y28868722D01*
X56878187Y28868722D02*
X56870465Y28870153D01*
X56870465Y28870153D02*
X56862679Y28871178D01*
X56862679Y28871178D02*
X56854850Y28871794D01*
X56854850Y28871794D02*
X56847000Y28872000D01*
X56847000Y28872000D02*
X56744000Y28872000D01*
X56744000Y28872000D02*
X56736097Y28871793D01*
X56736097Y28871793D02*
X56728216Y28871173D01*
X56728216Y28871173D02*
X56720378Y28870141D01*
X56720378Y28870141D02*
X56712605Y28868700D01*
X56712605Y28868700D02*
X56704918Y28866855D01*
X56704918Y28866855D02*
X56697338Y28864610D01*
X56697338Y28864610D02*
X56689886Y28861971D01*
X56689886Y28861971D02*
X56682583Y28858945D01*
X56682583Y28858945D02*
X56675447Y28855542D01*
X56675447Y28855542D02*
X56668500Y28851770D01*
X56668500Y28851770D02*
X56661760Y28847639D01*
X56661760Y28847639D02*
X56655244Y28843162D01*
X56655244Y28843162D02*
X56648973Y28838349D01*
X56648973Y28838349D02*
X56642961Y28833215D01*
X56642961Y28833215D02*
X56637227Y28827773D01*
X56637227Y28827773D02*
X56631785Y28822039D01*
X56631785Y28822039D02*
X56626651Y28816027D01*
X56626651Y28816027D02*
X56621838Y28809756D01*
X56621838Y28809756D02*
X56617361Y28803240D01*
X56617361Y28803240D02*
X56613230Y28796500D01*
X56613230Y28796500D02*
X56609458Y28789553D01*
X56609458Y28789553D02*
X56606055Y28782417D01*
X56606055Y28782417D02*
X56603029Y28775114D01*
X56603029Y28775114D02*
X56600390Y28767662D01*
X56600390Y28767662D02*
X56598145Y28760082D01*
X56598145Y28760082D02*
X56596300Y28752395D01*
X56596300Y28752395D02*
X56594859Y28744622D01*
X56594859Y28744622D02*
X56593827Y28736784D01*
X56593827Y28736784D02*
X56593207Y28728903D01*
X56593207Y28728903D02*
X56593000Y28721000D01*
X56593000Y28721000D02*
X56593000Y27947000D01*
X56593000Y27947000D02*
X56095000Y27947000D01*
X56095000Y27947000D02*
X56087045Y27946792D01*
X56087045Y27946792D02*
X56079112Y27946167D01*
X56079112Y27946167D02*
X56071222Y27945129D01*
X56071222Y27945129D02*
X56063397Y27943678D01*
X56063397Y27943678D02*
X56055660Y27941821D01*
X56055660Y27941821D02*
X56048029Y27939561D01*
X56048029Y27939561D02*
X56040528Y27936904D01*
X56040528Y27936904D02*
X56033176Y27933859D01*
X56033176Y27933859D02*
X56025993Y27930433D01*
X56025993Y27930433D02*
X56019000Y27926636D01*
X56019000Y27926636D02*
X56012215Y27922478D01*
X56012215Y27922478D02*
X56005657Y27917971D01*
X56005657Y27917971D02*
X55999343Y27913126D01*
X55999343Y27913126D02*
X55993292Y27907958D01*
X55993292Y27907958D02*
X55987520Y27902480D01*
X55987520Y27902480D02*
X55982042Y27896708D01*
X55982042Y27896708D02*
X55976874Y27890657D01*
X55976874Y27890657D02*
X55972029Y27884343D01*
X55972029Y27884343D02*
X55967522Y27877785D01*
X55967522Y27877785D02*
X55963364Y27871000D01*
X55963364Y27871000D02*
X55959567Y27864007D01*
X55959567Y27864007D02*
X55956141Y27856824D01*
X55956141Y27856824D02*
X55953096Y27849472D01*
X55953096Y27849472D02*
X55950439Y27841971D01*
X55950439Y27841971D02*
X55948179Y27834340D01*
X55948179Y27834340D02*
X55946322Y27826603D01*
X55946322Y27826603D02*
X55944871Y27818778D01*
X55944871Y27818778D02*
X55943833Y27810888D01*
X55943833Y27810888D02*
X55943208Y27802955D01*
X55943208Y27802955D02*
X55943000Y27795000D01*
X55943000Y27795000D02*
X55943000Y24844000D01*
X55943000Y24844000D02*
X55943206Y24836150D01*
X55943206Y24836150D02*
X55943822Y24828321D01*
X55943822Y24828321D02*
X55944847Y24820535D01*
X55944847Y24820535D02*
X55946278Y24812813D01*
X55946278Y24812813D02*
X55948111Y24805177D01*
X55948111Y24805177D02*
X55950342Y24797647D01*
X55950342Y24797647D02*
X55952963Y24790245D01*
X55952963Y24790245D02*
X55955968Y24782990D01*
X55955968Y24782990D02*
X55959349Y24775901D01*
X55959349Y24775901D02*
X55963096Y24769000D01*
X55963096Y24769000D02*
X55967199Y24762304D01*
X55967199Y24762304D02*
X55971647Y24755832D01*
X55971647Y24755832D02*
X55976428Y24749602D01*
X55976428Y24749602D02*
X55981528Y24743630D01*
X55981528Y24743630D02*
X55986934Y24737934D01*
X55986934Y24737934D02*
X55992630Y24732528D01*
X55992630Y24732528D02*
X55998602Y24727428D01*
X55998602Y24727428D02*
X56004832Y24722647D01*
X56004832Y24722647D02*
X56011304Y24718199D01*
X56011304Y24718199D02*
X56018000Y24714096D01*
X56018000Y24714096D02*
X56024901Y24710349D01*
X56024901Y24710349D02*
X56031990Y24706968D01*
X56031990Y24706968D02*
X56039245Y24703963D01*
X56039245Y24703963D02*
X56046647Y24701342D01*
X56046647Y24701342D02*
X56054177Y24699111D01*
X56054177Y24699111D02*
X56061813Y24697278D01*
X56061813Y24697278D02*
X56069535Y24695847D01*
X56069535Y24695847D02*
X56077321Y24694822D01*
X56077321Y24694822D02*
X56085150Y24694206D01*
X56085150Y24694206D02*
X56093000Y24694000D01*
X56093000Y24694000D02*
X56592000Y24694000D01*
X56592000Y24694000D02*
X56592052Y24693999D01*
X56592052Y24693999D02*
X56592105Y24693995D01*
X56592105Y24693995D02*
X56592156Y24693988D01*
X56592156Y24693988D02*
X56592208Y24693978D01*
X56592208Y24693978D02*
X56592259Y24693966D01*
X56592259Y24693966D02*
X56592309Y24693951D01*
X56592309Y24693951D02*
X56592358Y24693934D01*
X56592358Y24693934D02*
X56592407Y24693914D01*
X56592407Y24693914D02*
X56592454Y24693891D01*
X56592454Y24693891D02*
X56592500Y24693866D01*
X56592500Y24693866D02*
X56592545Y24693839D01*
X56592545Y24693839D02*
X56592588Y24693809D01*
X56592588Y24693809D02*
X56592629Y24693777D01*
X56592629Y24693777D02*
X56592669Y24693743D01*
X56592669Y24693743D02*
X56592707Y24693707D01*
X56592707Y24693707D02*
X56592743Y24693669D01*
X56592743Y24693669D02*
X56592777Y24693629D01*
X56592777Y24693629D02*
X56592809Y24693588D01*
X56592809Y24693588D02*
X56592839Y24693545D01*
X56592839Y24693545D02*
X56592866Y24693500D01*
X56592866Y24693500D02*
X56592891Y24693454D01*
X56592891Y24693454D02*
X56592914Y24693407D01*
X56592914Y24693407D02*
X56592934Y24693358D01*
X56592934Y24693358D02*
X56592951Y24693309D01*
X56592951Y24693309D02*
X56592966Y24693259D01*
X56592966Y24693259D02*
X56592978Y24693208D01*
X56592978Y24693208D02*
X56592988Y24693156D01*
X56592988Y24693156D02*
X56592995Y24693105D01*
X56592995Y24693105D02*
X56592999Y24693052D01*
X56592999Y24693052D02*
X56593000Y24693000D01*
X56593000Y24693000D02*
X56593000Y23919000D01*
X56593000Y23919000D02*
X56593206Y23911150D01*
X56593206Y23911150D02*
X56593822Y23903321D01*
X56593822Y23903321D02*
X56594847Y23895535D01*
X56594847Y23895535D02*
X56596278Y23887813D01*
X56596278Y23887813D02*
X56598111Y23880177D01*
X56598111Y23880177D02*
X56600342Y23872647D01*
X56600342Y23872647D02*
X56602963Y23865245D01*
X56602963Y23865245D02*
X56605968Y23857990D01*
X56605968Y23857990D02*
X56609349Y23850901D01*
X56609349Y23850901D02*
X56613096Y23844000D01*
X56613096Y23844000D02*
X56617199Y23837304D01*
X56617199Y23837304D02*
X56621647Y23830832D01*
X56621647Y23830832D02*
X56626428Y23824602D01*
X56626428Y23824602D02*
X56631528Y23818630D01*
X56631528Y23818630D02*
X56636934Y23812934D01*
X56636934Y23812934D02*
X56642630Y23807528D01*
X56642630Y23807528D02*
X56648602Y23802428D01*
X56648602Y23802428D02*
X56654832Y23797647D01*
X56654832Y23797647D02*
X56661304Y23793199D01*
X56661304Y23793199D02*
X56668000Y23789096D01*
X56668000Y23789096D02*
X56674901Y23785349D01*
X56674901Y23785349D02*
X56681990Y23781968D01*
X56681990Y23781968D02*
X56689245Y23778963D01*
X56689245Y23778963D02*
X56696647Y23776342D01*
X56696647Y23776342D02*
X56704177Y23774111D01*
X56704177Y23774111D02*
X56711813Y23772278D01*
X56711813Y23772278D02*
X56719535Y23770847D01*
X56719535Y23770847D02*
X56727321Y23769822D01*
X56727321Y23769822D02*
X56735150Y23769206D01*
X56735150Y23769206D02*
X56743000Y23769000D01*
X56743000Y23769000D02*
X56848000Y23769000D01*
X56848000Y23769000D02*
X56855798Y23769204D01*
X56855798Y23769204D02*
X56863575Y23769816D01*
X56863575Y23769816D02*
X56871309Y23770834D01*
X56871309Y23770834D02*
X56878979Y23772256D01*
X56878979Y23772256D02*
X56886564Y23774077D01*
X56886564Y23774077D02*
X56894044Y23776293D01*
X56894044Y23776293D02*
X56901397Y23778897D01*
X56901397Y23778897D02*
X56908604Y23781882D01*
X56908604Y23781882D02*
X56915645Y23785240D01*
X56915645Y23785240D02*
X56922500Y23788962D01*
X56922500Y23788962D02*
X56929151Y23793038D01*
X56929151Y23793038D02*
X56935580Y23797456D01*
X56935580Y23797456D02*
X56941769Y23802205D01*
X56941769Y23802205D02*
X56947700Y23807271D01*
X56947700Y23807271D02*
X56953359Y23812641D01*
X56953359Y23812641D02*
X56958729Y23818300D01*
X56958729Y23818300D02*
X56963795Y23824231D01*
X56963795Y23824231D02*
X56968544Y23830420D01*
X56968544Y23830420D02*
X56972962Y23836849D01*
X56972962Y23836849D02*
X56977038Y23843500D01*
X56977038Y23843500D02*
X56980760Y23850355D01*
X56980760Y23850355D02*
X56984118Y23857396D01*
X56984118Y23857396D02*
X56987103Y23864603D01*
X56987103Y23864603D02*
X56989707Y23871956D01*
X56989707Y23871956D02*
X56991923Y23879436D01*
X56991923Y23879436D02*
X56993744Y23887021D01*
X56993744Y23887021D02*
X56995166Y23894691D01*
X56995166Y23894691D02*
X56996184Y23902425D01*
X56996184Y23902425D02*
X56996796Y23910202D01*
X56996796Y23910202D02*
X56997000Y23918000D01*
X56997000Y23918000D02*
X56997000Y24293000D01*
X56997000Y24293000D02*
X57142000Y24293000D01*
X57142000Y24293000D02*
X57142052Y24292999D01*
X57142052Y24292999D02*
X57142105Y24292995D01*
X57142105Y24292995D02*
X57142156Y24292988D01*
X57142156Y24292988D02*
X57142208Y24292978D01*
X57142208Y24292978D02*
X57142259Y24292966D01*
X57142259Y24292966D02*
X57142309Y24292951D01*
X57142309Y24292951D02*
X57142358Y24292934D01*
X57142358Y24292934D02*
X57142407Y24292914D01*
X57142407Y24292914D02*
X57142454Y24292891D01*
X57142454Y24292891D02*
X57142500Y24292866D01*
X57142500Y24292866D02*
X57142545Y24292839D01*
X57142545Y24292839D02*
X57142588Y24292809D01*
X57142588Y24292809D02*
X57142629Y24292777D01*
X57142629Y24292777D02*
X57142669Y24292743D01*
X57142669Y24292743D02*
X57142707Y24292707D01*
X57142707Y24292707D02*
X57142743Y24292669D01*
X57142743Y24292669D02*
X57142777Y24292629D01*
X57142777Y24292629D02*
X57142809Y24292588D01*
X57142809Y24292588D02*
X57142839Y24292545D01*
X57142839Y24292545D02*
X57142866Y24292500D01*
X57142866Y24292500D02*
X57142891Y24292454D01*
X57142891Y24292454D02*
X57142914Y24292407D01*
X57142914Y24292407D02*
X57142934Y24292358D01*
X57142934Y24292358D02*
X57142951Y24292309D01*
X57142951Y24292309D02*
X57142966Y24292259D01*
X57142966Y24292259D02*
X57142978Y24292208D01*
X57142978Y24292208D02*
X57142988Y24292156D01*
X57142988Y24292156D02*
X57142995Y24292105D01*
X57142995Y24292105D02*
X57142999Y24292052D01*
X57142999Y24292052D02*
X57143000Y24292000D01*
X57143000Y24292000D02*
X57143000Y23919000D01*
X57143000Y23919000D02*
X57143206Y23911150D01*
X57143206Y23911150D02*
X57143822Y23903321D01*
X57143822Y23903321D02*
X57144847Y23895535D01*
X57144847Y23895535D02*
X57146278Y23887813D01*
X57146278Y23887813D02*
X57148111Y23880177D01*
X57148111Y23880177D02*
X57150342Y23872647D01*
X57150342Y23872647D02*
X57152963Y23865245D01*
X57152963Y23865245D02*
X57155968Y23857990D01*
X57155968Y23857990D02*
X57159349Y23850901D01*
X57159349Y23850901D02*
X57163096Y23844000D01*
X57163096Y23844000D02*
X57167199Y23837304D01*
X57167199Y23837304D02*
X57171647Y23830832D01*
X57171647Y23830832D02*
X57176428Y23824602D01*
X57176428Y23824602D02*
X57181528Y23818630D01*
X57181528Y23818630D02*
X57186934Y23812934D01*
X57186934Y23812934D02*
X57192630Y23807528D01*
X57192630Y23807528D02*
X57198602Y23802428D01*
X57198602Y23802428D02*
X57204832Y23797647D01*
X57204832Y23797647D02*
X57211304Y23793199D01*
X57211304Y23793199D02*
X57218000Y23789096D01*
X57218000Y23789096D02*
X57224901Y23785349D01*
X57224901Y23785349D02*
X57231990Y23781968D01*
X57231990Y23781968D02*
X57239245Y23778963D01*
X57239245Y23778963D02*
X57246647Y23776342D01*
X57246647Y23776342D02*
X57254177Y23774111D01*
X57254177Y23774111D02*
X57261813Y23772278D01*
X57261813Y23772278D02*
X57269535Y23770847D01*
X57269535Y23770847D02*
X57277321Y23769822D01*
X57277321Y23769822D02*
X57285150Y23769206D01*
X57285150Y23769206D02*
X57293000Y23769000D01*
X57293000Y23769000D02*
X57399000Y23769000D01*
X57399000Y23769000D02*
X57406746Y23769203D01*
X57406746Y23769203D02*
X57414470Y23769811D01*
X57414470Y23769811D02*
X57422152Y23770822D01*
X57422152Y23770822D02*
X57429771Y23772234D01*
X57429771Y23772234D02*
X57437305Y23774043D01*
X57437305Y23774043D02*
X57444735Y23776244D01*
X57444735Y23776244D02*
X57452038Y23778830D01*
X57452038Y23778830D02*
X57459197Y23781795D01*
X57459197Y23781795D02*
X57466191Y23785131D01*
X57466191Y23785131D02*
X57473000Y23788828D01*
X57473000Y23788828D02*
X57479607Y23792877D01*
X57479607Y23792877D02*
X57485992Y23797265D01*
X57485992Y23797265D02*
X57492139Y23801982D01*
X57492139Y23801982D02*
X57498031Y23807015D01*
X57498031Y23807015D02*
X57503652Y23812348D01*
X57503652Y23812348D02*
X57508985Y23817969D01*
X57508985Y23817969D02*
X57514018Y23823861D01*
X57514018Y23823861D02*
X57518735Y23830008D01*
X57518735Y23830008D02*
X57523123Y23836393D01*
X57523123Y23836393D02*
X57527172Y23843000D01*
X57527172Y23843000D02*
X57530869Y23849809D01*
X57530869Y23849809D02*
X57534205Y23856803D01*
X57534205Y23856803D02*
X57537170Y23863962D01*
X57537170Y23863962D02*
X57539756Y23871265D01*
X57539756Y23871265D02*
X57541957Y23878695D01*
X57541957Y23878695D02*
X57543766Y23886229D01*
X57543766Y23886229D02*
X57545178Y23893848D01*
X57545178Y23893848D02*
X57546189Y23901530D01*
X57546189Y23901530D02*
X57546797Y23909254D01*
X57546797Y23909254D02*
X57547000Y23917000D01*
X57547000Y23917000D02*
X57547000Y24693000D01*
X57547000Y24693000D02*
X58045000Y24693000D01*
X58045000Y24693000D02*
X58052955Y24693208D01*
X58052955Y24693208D02*
X58060888Y24693833D01*
X58060888Y24693833D02*
X58068778Y24694871D01*
X58068778Y24694871D02*
X58076603Y24696322D01*
X58076603Y24696322D02*
X58084340Y24698179D01*
X58084340Y24698179D02*
X58091971Y24700439D01*
X58091971Y24700439D02*
X58099472Y24703096D01*
X58099472Y24703096D02*
X58106824Y24706141D01*
X58106824Y24706141D02*
X58114007Y24709567D01*
X58114007Y24709567D02*
X58121000Y24713364D01*
X58121000Y24713364D02*
X58127785Y24717522D01*
X58127785Y24717522D02*
X58134343Y24722029D01*
X58134343Y24722029D02*
X58140657Y24726874D01*
X58140657Y24726874D02*
X58146708Y24732042D01*
X58146708Y24732042D02*
X58152480Y24737520D01*
X58152480Y24737520D02*
X58157958Y24743292D01*
X58157958Y24743292D02*
X58163126Y24749343D01*
X58163126Y24749343D02*
X58167971Y24755657D01*
X58167971Y24755657D02*
X58172478Y24762215D01*
X58172478Y24762215D02*
X58176636Y24769000D01*
X58176636Y24769000D02*
X58180433Y24775993D01*
X58180433Y24775993D02*
X58183859Y24783176D01*
X58183859Y24783176D02*
X58186904Y24790528D01*
X58186904Y24790528D02*
X58189561Y24798029D01*
X58189561Y24798029D02*
X58191821Y24805660D01*
X58191821Y24805660D02*
X58193678Y24813397D01*
X58193678Y24813397D02*
X58195129Y24821222D01*
X58195129Y24821222D02*
X58196167Y24829112D01*
X58196167Y24829112D02*
X58196792Y24837045D01*
X58196792Y24837045D02*
X58197000Y24845000D01*
X58197000Y24845000D02*
X58197000Y27794000D01*
X58197000Y27794000D02*
X58196792Y27801955D01*
X58196792Y27801955D02*
X58196167Y27809888D01*
X58196167Y27809888D02*
X58195129Y27817778D01*
X58195129Y27817778D02*
X58193678Y27825603D01*
X58193678Y27825603D02*
X58191821Y27833340D01*
X58191821Y27833340D02*
X58189561Y27840971D01*
X58189561Y27840971D02*
X58186904Y27848472D01*
X58186904Y27848472D02*
X58183859Y27855824D01*
X58183859Y27855824D02*
X58180433Y27863007D01*
X58180433Y27863007D02*
X58176636Y27870000D01*
X58176636Y27870000D02*
X58172478Y27876785D01*
X58172478Y27876785D02*
X58167971Y27883343D01*
X58167971Y27883343D02*
X58163126Y27889657D01*
X58163126Y27889657D02*
X58157958Y27895708D01*
X58157958Y27895708D02*
X58152480Y27901480D01*
X58152480Y27901480D02*
X58146708Y27906958D01*
X58146708Y27906958D02*
X58140657Y27912126D01*
X58140657Y27912126D02*
X58134343Y27916971D01*
X58134343Y27916971D02*
X58127785Y27921478D01*
X58127785Y27921478D02*
X58121000Y27925636D01*
X58121000Y27925636D02*
X58114007Y27929433D01*
X58114007Y27929433D02*
X58106824Y27932859D01*
X58106824Y27932859D02*
X58099472Y27935904D01*
X58099472Y27935904D02*
X58091971Y27938561D01*
X58091971Y27938561D02*
X58084340Y27940821D01*
X58084340Y27940821D02*
X58076603Y27942678D01*
X58076603Y27942678D02*
X58068778Y27944129D01*
X58068778Y27944129D02*
X58060888Y27945167D01*
X58060888Y27945167D02*
X58052955Y27945792D01*
X58052955Y27945792D02*
X58045000Y27946000D01*
X58045000Y27946000D02*
X57548000Y27946000D01*
X57548000Y27946000D02*
X57547948Y27946001D01*
X57547948Y27946001D02*
X57547895Y27946005D01*
X57547895Y27946005D02*
X57547844Y27946012D01*
X57547844Y27946012D02*
X57547792Y27946022D01*
X57547792Y27946022D02*
X57547741Y27946034D01*
X57547741Y27946034D02*
X57547691Y27946049D01*
X57547691Y27946049D02*
X57547642Y27946066D01*
X57547642Y27946066D02*
X57547593Y27946086D01*
X57547593Y27946086D02*
X57547546Y27946109D01*
X57547546Y27946109D02*
X57547500Y27946134D01*
X57547500Y27946134D02*
X57547455Y27946161D01*
X57547455Y27946161D02*
X57547412Y27946191D01*
X57547412Y27946191D02*
X57547371Y27946223D01*
X57547371Y27946223D02*
X57547331Y27946257D01*
X57547331Y27946257D02*
X57547293Y27946293D01*
X57547293Y27946293D02*
X57547257Y27946331D01*
X57547257Y27946331D02*
X57547223Y27946371D01*
X57547223Y27946371D02*
X57547191Y27946412D01*
X57547191Y27946412D02*
X57547161Y27946455D01*
X57547161Y27946455D02*
X57547134Y27946500D01*
X57547134Y27946500D02*
X57547109Y27946546D01*
X57547109Y27946546D02*
X57547086Y27946593D01*
X57547086Y27946593D02*
X57547066Y27946642D01*
X57547066Y27946642D02*
X57547049Y27946691D01*
X57547049Y27946691D02*
X57547034Y27946741D01*
X57547034Y27946741D02*
X57547022Y27946792D01*
X57547022Y27946792D02*
X57547012Y27946844D01*
X57547012Y27946844D02*
X57547005Y27946895D01*
X57547005Y27946895D02*
X57547001Y27946948D01*
X57547001Y27946948D02*
X57547000Y27947000D01*
X57547000Y27947000D02*
X57547000Y27947000D01*
G36*
X56854850Y28871794D02*
G01*
X56862679Y28871178D01*
X56870465Y28870153D01*
X56878187Y28868722D01*
X56885823Y28866889D01*
X56893353Y28864658D01*
X56900755Y28862037D01*
X56908010Y28859032D01*
X56915099Y28855651D01*
X56922000Y28851904D01*
X56928696Y28847801D01*
X56935168Y28843353D01*
X56941398Y28838572D01*
X56947370Y28833472D01*
X56953066Y28828066D01*
X56958472Y28822370D01*
X56963572Y28816398D01*
X56968353Y28810168D01*
X56972801Y28803696D01*
X56976904Y28797000D01*
X56980651Y28790099D01*
X56984032Y28783010D01*
X56987037Y28775755D01*
X56989658Y28768353D01*
X56991889Y28760823D01*
X56993722Y28753187D01*
X56995153Y28745465D01*
X56996178Y28737679D01*
X56996794Y28729850D01*
X56997000Y28722000D01*
X56997000Y28347000D01*
X57143000Y28347000D01*
X57143000Y28720000D01*
X57143208Y28727955D01*
X57143833Y28735888D01*
X57144871Y28743778D01*
X57146322Y28751603D01*
X57148179Y28759340D01*
X57150439Y28766971D01*
X57153096Y28774472D01*
X57156141Y28781824D01*
X57159567Y28789007D01*
X57163364Y28796000D01*
X57167522Y28802785D01*
X57172029Y28809343D01*
X57176874Y28815657D01*
X57182042Y28821708D01*
X57187520Y28827480D01*
X57193292Y28832958D01*
X57199343Y28838126D01*
X57205657Y28842971D01*
X57212215Y28847478D01*
X57219000Y28851636D01*
X57225993Y28855433D01*
X57233176Y28858859D01*
X57240528Y28861904D01*
X57248029Y28864561D01*
X57255660Y28866821D01*
X57263397Y28868678D01*
X57271222Y28870129D01*
X57279112Y28871167D01*
X57287045Y28871792D01*
X57295000Y28872000D01*
X57395000Y28872000D01*
X57402955Y28871792D01*
X57410888Y28871167D01*
X57418778Y28870129D01*
X57426603Y28868678D01*
X57434340Y28866821D01*
X57441971Y28864561D01*
X57449472Y28861904D01*
X57456824Y28858859D01*
X57464007Y28855433D01*
X57471000Y28851636D01*
X57477785Y28847478D01*
X57484343Y28842971D01*
X57490657Y28838126D01*
X57496708Y28832958D01*
X57502480Y28827480D01*
X57507958Y28821708D01*
X57513126Y28815657D01*
X57517971Y28809343D01*
X57522478Y28802785D01*
X57526636Y28796000D01*
X57530433Y28789007D01*
X57533859Y28781824D01*
X57536904Y28774472D01*
X57539561Y28766971D01*
X57541821Y28759340D01*
X57543678Y28751603D01*
X57545129Y28743778D01*
X57546167Y28735888D01*
X57546792Y28727955D01*
X57547000Y28720000D01*
X57547000Y27947000D01*
X57547001Y27946948D01*
X57547005Y27946895D01*
X57547012Y27946844D01*
X57547022Y27946792D01*
X57547034Y27946741D01*
X57547049Y27946691D01*
X57547066Y27946642D01*
X57547086Y27946593D01*
X57547109Y27946546D01*
X57547134Y27946500D01*
X57547161Y27946455D01*
X57547191Y27946412D01*
X57547223Y27946371D01*
X57547257Y27946331D01*
X57547293Y27946293D01*
X57547331Y27946257D01*
X57547371Y27946223D01*
X57547412Y27946191D01*
X57547455Y27946161D01*
X57547500Y27946134D01*
X57547546Y27946109D01*
X57547593Y27946086D01*
X57547642Y27946066D01*
X57547691Y27946049D01*
X57547741Y27946034D01*
X57547792Y27946022D01*
X57547844Y27946012D01*
X57547895Y27946005D01*
X57547948Y27946001D01*
X57548000Y27946000D01*
X58045000Y27946000D01*
X58052955Y27945792D01*
X58060888Y27945167D01*
X58068778Y27944129D01*
X58076603Y27942678D01*
X58084340Y27940821D01*
X58091971Y27938561D01*
X58099472Y27935904D01*
X58106824Y27932859D01*
X58114007Y27929433D01*
X58121000Y27925636D01*
X58127785Y27921478D01*
X58134343Y27916971D01*
X58140657Y27912126D01*
X58146708Y27906958D01*
X58152480Y27901480D01*
X58157958Y27895708D01*
X58163126Y27889657D01*
X58167971Y27883343D01*
X58172478Y27876785D01*
X58176636Y27870000D01*
X58180433Y27863007D01*
X58183859Y27855824D01*
X58186904Y27848472D01*
X58189561Y27840971D01*
X58191821Y27833340D01*
X58193678Y27825603D01*
X58195129Y27817778D01*
X58196167Y27809888D01*
X58196792Y27801955D01*
X58197000Y27794000D01*
X58197000Y24845000D01*
X58196792Y24837045D01*
X58196167Y24829112D01*
X58195129Y24821222D01*
X58193678Y24813397D01*
X58191821Y24805660D01*
X58189561Y24798029D01*
X58186904Y24790528D01*
X58183859Y24783176D01*
X58180433Y24775993D01*
X58176636Y24769000D01*
X58172478Y24762215D01*
X58167971Y24755657D01*
X58163126Y24749343D01*
X58157958Y24743292D01*
X58152480Y24737520D01*
X58146708Y24732042D01*
X58140657Y24726874D01*
X58134343Y24722029D01*
X58127785Y24717522D01*
X58121000Y24713364D01*
X58114007Y24709567D01*
X58106824Y24706141D01*
X58099472Y24703096D01*
X58091971Y24700439D01*
X58084340Y24698179D01*
X58076603Y24696322D01*
X58068778Y24694871D01*
X58060888Y24693833D01*
X58052955Y24693208D01*
X58045000Y24693000D01*
X57547000Y24693000D01*
X57547000Y23917000D01*
X57546797Y23909254D01*
X57546189Y23901530D01*
X57545178Y23893848D01*
X57543766Y23886229D01*
X57541957Y23878695D01*
X57539756Y23871265D01*
X57537170Y23863962D01*
X57534205Y23856803D01*
X57530869Y23849809D01*
X57527172Y23843000D01*
X57523123Y23836393D01*
X57518735Y23830008D01*
X57514018Y23823861D01*
X57508985Y23817969D01*
X57503652Y23812348D01*
X57498031Y23807015D01*
X57492139Y23801982D01*
X57485992Y23797265D01*
X57479607Y23792877D01*
X57473000Y23788828D01*
X57466191Y23785131D01*
X57459197Y23781795D01*
X57452038Y23778830D01*
X57444735Y23776244D01*
X57437305Y23774043D01*
X57429771Y23772234D01*
X57422152Y23770822D01*
X57414470Y23769811D01*
X57406746Y23769203D01*
X57399000Y23769000D01*
X57293000Y23769000D01*
X57285150Y23769206D01*
X57277321Y23769822D01*
X57269535Y23770847D01*
X57261813Y23772278D01*
X57254177Y23774111D01*
X57246647Y23776342D01*
X57239245Y23778963D01*
X57231990Y23781968D01*
X57224901Y23785349D01*
X57218000Y23789096D01*
X57211304Y23793199D01*
X57204832Y23797647D01*
X57198602Y23802428D01*
X57192630Y23807528D01*
X57186934Y23812934D01*
X57181528Y23818630D01*
X57176428Y23824602D01*
X57171647Y23830832D01*
X57167199Y23837304D01*
X57163096Y23844000D01*
X57159349Y23850901D01*
X57155968Y23857990D01*
X57152963Y23865245D01*
X57150342Y23872647D01*
X57148111Y23880177D01*
X57146278Y23887813D01*
X57144847Y23895535D01*
X57143822Y23903321D01*
X57143206Y23911150D01*
X57143000Y23919000D01*
X57143000Y24292000D01*
X57142999Y24292052D01*
X57142995Y24292105D01*
X57142988Y24292156D01*
X57142978Y24292208D01*
X57142966Y24292259D01*
X57142951Y24292309D01*
X57142934Y24292358D01*
X57142914Y24292407D01*
X57142891Y24292454D01*
X57142866Y24292500D01*
X57142839Y24292545D01*
X57142809Y24292588D01*
X57142777Y24292629D01*
X57142743Y24292669D01*
X57142707Y24292707D01*
X57142669Y24292743D01*
X57142629Y24292777D01*
X57142588Y24292809D01*
X57142545Y24292839D01*
X57142500Y24292866D01*
X57142454Y24292891D01*
X57142407Y24292914D01*
X57142358Y24292934D01*
X57142309Y24292951D01*
X57142259Y24292966D01*
X57142208Y24292978D01*
X57142156Y24292988D01*
X57142105Y24292995D01*
X57142052Y24292999D01*
X57142000Y24293000D01*
X56997000Y24293000D01*
X56997000Y23918000D01*
X56996796Y23910202D01*
X56996184Y23902425D01*
X56995166Y23894691D01*
X56993744Y23887021D01*
X56991923Y23879436D01*
X56989707Y23871956D01*
X56987103Y23864603D01*
X56984118Y23857396D01*
X56980760Y23850355D01*
X56977038Y23843500D01*
X56972962Y23836849D01*
X56968544Y23830420D01*
X56963795Y23824231D01*
X56958729Y23818300D01*
X56953359Y23812641D01*
X56947700Y23807271D01*
X56941769Y23802205D01*
X56935580Y23797456D01*
X56929151Y23793038D01*
X56922500Y23788962D01*
X56915645Y23785240D01*
X56908604Y23781882D01*
X56901397Y23778897D01*
X56894044Y23776293D01*
X56886564Y23774077D01*
X56878979Y23772256D01*
X56871309Y23770834D01*
X56863575Y23769816D01*
X56855798Y23769204D01*
X56848000Y23769000D01*
X56743000Y23769000D01*
X56735150Y23769206D01*
X56727321Y23769822D01*
X56719535Y23770847D01*
X56711813Y23772278D01*
X56704177Y23774111D01*
X56696647Y23776342D01*
X56689245Y23778963D01*
X56681990Y23781968D01*
X56674901Y23785349D01*
X56668000Y23789096D01*
X56661304Y23793199D01*
X56654832Y23797647D01*
X56648602Y23802428D01*
X56642630Y23807528D01*
X56636934Y23812934D01*
X56631528Y23818630D01*
X56626428Y23824602D01*
X56621647Y23830832D01*
X56617199Y23837304D01*
X56613096Y23844000D01*
X56609349Y23850901D01*
X56605968Y23857990D01*
X56602963Y23865245D01*
X56600342Y23872647D01*
X56598111Y23880177D01*
X56596278Y23887813D01*
X56594847Y23895535D01*
X56593822Y23903321D01*
X56593206Y23911150D01*
X56593000Y23919000D01*
X56593000Y24693000D01*
X56592999Y24693052D01*
X56592995Y24693105D01*
X56592988Y24693156D01*
X56592978Y24693208D01*
X56592966Y24693259D01*
X56592951Y24693309D01*
X56592934Y24693358D01*
X56592914Y24693407D01*
X56592891Y24693454D01*
X56592866Y24693500D01*
X56592839Y24693545D01*
X56592809Y24693588D01*
X56592777Y24693629D01*
X56592743Y24693669D01*
X56592707Y24693707D01*
X56592669Y24693743D01*
X56592629Y24693777D01*
X56592588Y24693809D01*
X56592545Y24693839D01*
X56592500Y24693866D01*
X56592454Y24693891D01*
X56592407Y24693914D01*
X56592358Y24693934D01*
X56592309Y24693951D01*
X56592259Y24693966D01*
X56592208Y24693978D01*
X56592156Y24693988D01*
X56592105Y24693995D01*
X56592052Y24693999D01*
X56592000Y24694000D01*
X56093000Y24694000D01*
X56085150Y24694206D01*
X56077321Y24694822D01*
X56069535Y24695847D01*
X56061813Y24697278D01*
X56054177Y24699111D01*
X56046647Y24701342D01*
X56039245Y24703963D01*
X56031990Y24706968D01*
X56024901Y24710349D01*
X56018000Y24714096D01*
X56011304Y24718199D01*
X56004832Y24722647D01*
X55998602Y24727428D01*
X55992630Y24732528D01*
X55986934Y24737934D01*
X55981528Y24743630D01*
X55976428Y24749602D01*
X55971647Y24755832D01*
X55967199Y24762304D01*
X55963096Y24769000D01*
X55959349Y24775901D01*
X55955968Y24782990D01*
X55952963Y24790245D01*
X55950342Y24797647D01*
X55948111Y24805177D01*
X55946278Y24812813D01*
X55944847Y24820535D01*
X55943822Y24828321D01*
X55943206Y24836150D01*
X55943000Y24844000D01*
X55943000Y27795000D01*
X55943208Y27802955D01*
X55943833Y27810888D01*
X55944871Y27818778D01*
X55946322Y27826603D01*
X55948179Y27834340D01*
X55950439Y27841971D01*
X55953096Y27849472D01*
X55956141Y27856824D01*
X55959567Y27864007D01*
X55963364Y27871000D01*
X55967522Y27877785D01*
X55972029Y27884343D01*
X55976874Y27890657D01*
X55982042Y27896708D01*
X55987520Y27902480D01*
X55993292Y27907958D01*
X55999343Y27913126D01*
X56005657Y27917971D01*
X56012215Y27922478D01*
X56019000Y27926636D01*
X56025993Y27930433D01*
X56033176Y27933859D01*
X56040528Y27936904D01*
X56048029Y27939561D01*
X56055660Y27941821D01*
X56063397Y27943678D01*
X56071222Y27945129D01*
X56079112Y27946167D01*
X56087045Y27946792D01*
X56095000Y27947000D01*
X56593000Y27947000D01*
X56593000Y28721000D01*
X56593207Y28728903D01*
X56593827Y28736784D01*
X56594859Y28744622D01*
X56596300Y28752395D01*
X56598145Y28760082D01*
X56600390Y28767662D01*
X56603029Y28775114D01*
X56606055Y28782417D01*
X56609458Y28789553D01*
X56613230Y28796500D01*
X56617361Y28803240D01*
X56621838Y28809756D01*
X56626651Y28816027D01*
X56631785Y28822039D01*
X56637227Y28827773D01*
X56642961Y28833215D01*
X56648973Y28838349D01*
X56655244Y28843162D01*
X56661760Y28847639D01*
X56668500Y28851770D01*
X56675447Y28855542D01*
X56682583Y28858945D01*
X56689886Y28861971D01*
X56697338Y28864610D01*
X56704918Y28866855D01*
X56712605Y28868700D01*
X56720378Y28870141D01*
X56728216Y28871173D01*
X56736097Y28871793D01*
X56744000Y28872000D01*
X56847000Y28872000D01*
X56854850Y28871794D01*
G37*
X56854850Y28871794D02*
X56862679Y28871178D01*
X56870465Y28870153D01*
X56878187Y28868722D01*
X56885823Y28866889D01*
X56893353Y28864658D01*
X56900755Y28862037D01*
X56908010Y28859032D01*
X56915099Y28855651D01*
X56922000Y28851904D01*
X56928696Y28847801D01*
X56935168Y28843353D01*
X56941398Y28838572D01*
X56947370Y28833472D01*
X56953066Y28828066D01*
X56958472Y28822370D01*
X56963572Y28816398D01*
X56968353Y28810168D01*
X56972801Y28803696D01*
X56976904Y28797000D01*
X56980651Y28790099D01*
X56984032Y28783010D01*
X56987037Y28775755D01*
X56989658Y28768353D01*
X56991889Y28760823D01*
X56993722Y28753187D01*
X56995153Y28745465D01*
X56996178Y28737679D01*
X56996794Y28729850D01*
X56997000Y28722000D01*
X56997000Y28347000D01*
X57143000Y28347000D01*
X57143000Y28720000D01*
X57143208Y28727955D01*
X57143833Y28735888D01*
X57144871Y28743778D01*
X57146322Y28751603D01*
X57148179Y28759340D01*
X57150439Y28766971D01*
X57153096Y28774472D01*
X57156141Y28781824D01*
X57159567Y28789007D01*
X57163364Y28796000D01*
X57167522Y28802785D01*
X57172029Y28809343D01*
X57176874Y28815657D01*
X57182042Y28821708D01*
X57187520Y28827480D01*
X57193292Y28832958D01*
X57199343Y28838126D01*
X57205657Y28842971D01*
X57212215Y28847478D01*
X57219000Y28851636D01*
X57225993Y28855433D01*
X57233176Y28858859D01*
X57240528Y28861904D01*
X57248029Y28864561D01*
X57255660Y28866821D01*
X57263397Y28868678D01*
X57271222Y28870129D01*
X57279112Y28871167D01*
X57287045Y28871792D01*
X57295000Y28872000D01*
X57395000Y28872000D01*
X57402955Y28871792D01*
X57410888Y28871167D01*
X57418778Y28870129D01*
X57426603Y28868678D01*
X57434340Y28866821D01*
X57441971Y28864561D01*
X57449472Y28861904D01*
X57456824Y28858859D01*
X57464007Y28855433D01*
X57471000Y28851636D01*
X57477785Y28847478D01*
X57484343Y28842971D01*
X57490657Y28838126D01*
X57496708Y28832958D01*
X57502480Y28827480D01*
X57507958Y28821708D01*
X57513126Y28815657D01*
X57517971Y28809343D01*
X57522478Y28802785D01*
X57526636Y28796000D01*
X57530433Y28789007D01*
X57533859Y28781824D01*
X57536904Y28774472D01*
X57539561Y28766971D01*
X57541821Y28759340D01*
X57543678Y28751603D01*
X57545129Y28743778D01*
X57546167Y28735888D01*
X57546792Y28727955D01*
X57547000Y28720000D01*
X57547000Y27947000D01*
X57547001Y27946948D01*
X57547005Y27946895D01*
X57547012Y27946844D01*
X57547022Y27946792D01*
X57547034Y27946741D01*
X57547049Y27946691D01*
X57547066Y27946642D01*
X57547086Y27946593D01*
X57547109Y27946546D01*
X57547134Y27946500D01*
X57547161Y27946455D01*
X57547191Y27946412D01*
X57547223Y27946371D01*
X57547257Y27946331D01*
X57547293Y27946293D01*
X57547331Y27946257D01*
X57547371Y27946223D01*
X57547412Y27946191D01*
X57547455Y27946161D01*
X57547500Y27946134D01*
X57547546Y27946109D01*
X57547593Y27946086D01*
X57547642Y27946066D01*
X57547691Y27946049D01*
X57547741Y27946034D01*
X57547792Y27946022D01*
X57547844Y27946012D01*
X57547895Y27946005D01*
X57547948Y27946001D01*
X57548000Y27946000D01*
X58045000Y27946000D01*
X58052955Y27945792D01*
X58060888Y27945167D01*
X58068778Y27944129D01*
X58076603Y27942678D01*
X58084340Y27940821D01*
X58091971Y27938561D01*
X58099472Y27935904D01*
X58106824Y27932859D01*
X58114007Y27929433D01*
X58121000Y27925636D01*
X58127785Y27921478D01*
X58134343Y27916971D01*
X58140657Y27912126D01*
X58146708Y27906958D01*
X58152480Y27901480D01*
X58157958Y27895708D01*
X58163126Y27889657D01*
X58167971Y27883343D01*
X58172478Y27876785D01*
X58176636Y27870000D01*
X58180433Y27863007D01*
X58183859Y27855824D01*
X58186904Y27848472D01*
X58189561Y27840971D01*
X58191821Y27833340D01*
X58193678Y27825603D01*
X58195129Y27817778D01*
X58196167Y27809888D01*
X58196792Y27801955D01*
X58197000Y27794000D01*
X58197000Y24845000D01*
X58196792Y24837045D01*
X58196167Y24829112D01*
X58195129Y24821222D01*
X58193678Y24813397D01*
X58191821Y24805660D01*
X58189561Y24798029D01*
X58186904Y24790528D01*
X58183859Y24783176D01*
X58180433Y24775993D01*
X58176636Y24769000D01*
X58172478Y24762215D01*
X58167971Y24755657D01*
X58163126Y24749343D01*
X58157958Y24743292D01*
X58152480Y24737520D01*
X58146708Y24732042D01*
X58140657Y24726874D01*
X58134343Y24722029D01*
X58127785Y24717522D01*
X58121000Y24713364D01*
X58114007Y24709567D01*
X58106824Y24706141D01*
X58099472Y24703096D01*
X58091971Y24700439D01*
X58084340Y24698179D01*
X58076603Y24696322D01*
X58068778Y24694871D01*
X58060888Y24693833D01*
X58052955Y24693208D01*
X58045000Y24693000D01*
X57547000Y24693000D01*
X57547000Y23917000D01*
X57546797Y23909254D01*
X57546189Y23901530D01*
X57545178Y23893848D01*
X57543766Y23886229D01*
X57541957Y23878695D01*
X57539756Y23871265D01*
X57537170Y23863962D01*
X57534205Y23856803D01*
X57530869Y23849809D01*
X57527172Y23843000D01*
X57523123Y23836393D01*
X57518735Y23830008D01*
X57514018Y23823861D01*
X57508985Y23817969D01*
X57503652Y23812348D01*
X57498031Y23807015D01*
X57492139Y23801982D01*
X57485992Y23797265D01*
X57479607Y23792877D01*
X57473000Y23788828D01*
X57466191Y23785131D01*
X57459197Y23781795D01*
X57452038Y23778830D01*
X57444735Y23776244D01*
X57437305Y23774043D01*
X57429771Y23772234D01*
X57422152Y23770822D01*
X57414470Y23769811D01*
X57406746Y23769203D01*
X57399000Y23769000D01*
X57293000Y23769000D01*
X57285150Y23769206D01*
X57277321Y23769822D01*
X57269535Y23770847D01*
X57261813Y23772278D01*
X57254177Y23774111D01*
X57246647Y23776342D01*
X57239245Y23778963D01*
X57231990Y23781968D01*
X57224901Y23785349D01*
X57218000Y23789096D01*
X57211304Y23793199D01*
X57204832Y23797647D01*
X57198602Y23802428D01*
X57192630Y23807528D01*
X57186934Y23812934D01*
X57181528Y23818630D01*
X57176428Y23824602D01*
X57171647Y23830832D01*
X57167199Y23837304D01*
X57163096Y23844000D01*
X57159349Y23850901D01*
X57155968Y23857990D01*
X57152963Y23865245D01*
X57150342Y23872647D01*
X57148111Y23880177D01*
X57146278Y23887813D01*
X57144847Y23895535D01*
X57143822Y23903321D01*
X57143206Y23911150D01*
X57143000Y23919000D01*
X57143000Y24292000D01*
X57142999Y24292052D01*
X57142995Y24292105D01*
X57142988Y24292156D01*
X57142978Y24292208D01*
X57142966Y24292259D01*
X57142951Y24292309D01*
X57142934Y24292358D01*
X57142914Y24292407D01*
X57142891Y24292454D01*
X57142866Y24292500D01*
X57142839Y24292545D01*
X57142809Y24292588D01*
X57142777Y24292629D01*
X57142743Y24292669D01*
X57142707Y24292707D01*
X57142669Y24292743D01*
X57142629Y24292777D01*
X57142588Y24292809D01*
X57142545Y24292839D01*
X57142500Y24292866D01*
X57142454Y24292891D01*
X57142407Y24292914D01*
X57142358Y24292934D01*
X57142309Y24292951D01*
X57142259Y24292966D01*
X57142208Y24292978D01*
X57142156Y24292988D01*
X57142105Y24292995D01*
X57142052Y24292999D01*
X57142000Y24293000D01*
X56997000Y24293000D01*
X56997000Y23918000D01*
X56996796Y23910202D01*
X56996184Y23902425D01*
X56995166Y23894691D01*
X56993744Y23887021D01*
X56991923Y23879436D01*
X56989707Y23871956D01*
X56987103Y23864603D01*
X56984118Y23857396D01*
X56980760Y23850355D01*
X56977038Y23843500D01*
X56972962Y23836849D01*
X56968544Y23830420D01*
X56963795Y23824231D01*
X56958729Y23818300D01*
X56953359Y23812641D01*
X56947700Y23807271D01*
X56941769Y23802205D01*
X56935580Y23797456D01*
X56929151Y23793038D01*
X56922500Y23788962D01*
X56915645Y23785240D01*
X56908604Y23781882D01*
X56901397Y23778897D01*
X56894044Y23776293D01*
X56886564Y23774077D01*
X56878979Y23772256D01*
X56871309Y23770834D01*
X56863575Y23769816D01*
X56855798Y23769204D01*
X56848000Y23769000D01*
X56743000Y23769000D01*
X56735150Y23769206D01*
X56727321Y23769822D01*
X56719535Y23770847D01*
X56711813Y23772278D01*
X56704177Y23774111D01*
X56696647Y23776342D01*
X56689245Y23778963D01*
X56681990Y23781968D01*
X56674901Y23785349D01*
X56668000Y23789096D01*
X56661304Y23793199D01*
X56654832Y23797647D01*
X56648602Y23802428D01*
X56642630Y23807528D01*
X56636934Y23812934D01*
X56631528Y23818630D01*
X56626428Y23824602D01*
X56621647Y23830832D01*
X56617199Y23837304D01*
X56613096Y23844000D01*
X56609349Y23850901D01*
X56605968Y23857990D01*
X56602963Y23865245D01*
X56600342Y23872647D01*
X56598111Y23880177D01*
X56596278Y23887813D01*
X56594847Y23895535D01*
X56593822Y23903321D01*
X56593206Y23911150D01*
X56593000Y23919000D01*
X56593000Y24693000D01*
X56592999Y24693052D01*
X56592995Y24693105D01*
X56592988Y24693156D01*
X56592978Y24693208D01*
X56592966Y24693259D01*
X56592951Y24693309D01*
X56592934Y24693358D01*
X56592914Y24693407D01*
X56592891Y24693454D01*
X56592866Y24693500D01*
X56592839Y24693545D01*
X56592809Y24693588D01*
X56592777Y24693629D01*
X56592743Y24693669D01*
X56592707Y24693707D01*
X56592669Y24693743D01*
X56592629Y24693777D01*
X56592588Y24693809D01*
X56592545Y24693839D01*
X56592500Y24693866D01*
X56592454Y24693891D01*
X56592407Y24693914D01*
X56592358Y24693934D01*
X56592309Y24693951D01*
X56592259Y24693966D01*
X56592208Y24693978D01*
X56592156Y24693988D01*
X56592105Y24693995D01*
X56592052Y24693999D01*
X56592000Y24694000D01*
X56093000Y24694000D01*
X56085150Y24694206D01*
X56077321Y24694822D01*
X56069535Y24695847D01*
X56061813Y24697278D01*
X56054177Y24699111D01*
X56046647Y24701342D01*
X56039245Y24703963D01*
X56031990Y24706968D01*
X56024901Y24710349D01*
X56018000Y24714096D01*
X56011304Y24718199D01*
X56004832Y24722647D01*
X55998602Y24727428D01*
X55992630Y24732528D01*
X55986934Y24737934D01*
X55981528Y24743630D01*
X55976428Y24749602D01*
X55971647Y24755832D01*
X55967199Y24762304D01*
X55963096Y24769000D01*
X55959349Y24775901D01*
X55955968Y24782990D01*
X55952963Y24790245D01*
X55950342Y24797647D01*
X55948111Y24805177D01*
X55946278Y24812813D01*
X55944847Y24820535D01*
X55943822Y24828321D01*
X55943206Y24836150D01*
X55943000Y24844000D01*
X55943000Y27795000D01*
X55943208Y27802955D01*
X55943833Y27810888D01*
X55944871Y27818778D01*
X55946322Y27826603D01*
X55948179Y27834340D01*
X55950439Y27841971D01*
X55953096Y27849472D01*
X55956141Y27856824D01*
X55959567Y27864007D01*
X55963364Y27871000D01*
X55967522Y27877785D01*
X55972029Y27884343D01*
X55976874Y27890657D01*
X55982042Y27896708D01*
X55987520Y27902480D01*
X55993292Y27907958D01*
X55999343Y27913126D01*
X56005657Y27917971D01*
X56012215Y27922478D01*
X56019000Y27926636D01*
X56025993Y27930433D01*
X56033176Y27933859D01*
X56040528Y27936904D01*
X56048029Y27939561D01*
X56055660Y27941821D01*
X56063397Y27943678D01*
X56071222Y27945129D01*
X56079112Y27946167D01*
X56087045Y27946792D01*
X56095000Y27947000D01*
X56593000Y27947000D01*
X56593000Y28721000D01*
X56593207Y28728903D01*
X56593827Y28736784D01*
X56594859Y28744622D01*
X56596300Y28752395D01*
X56598145Y28760082D01*
X56600390Y28767662D01*
X56603029Y28775114D01*
X56606055Y28782417D01*
X56609458Y28789553D01*
X56613230Y28796500D01*
X56617361Y28803240D01*
X56621838Y28809756D01*
X56626651Y28816027D01*
X56631785Y28822039D01*
X56637227Y28827773D01*
X56642961Y28833215D01*
X56648973Y28838349D01*
X56655244Y28843162D01*
X56661760Y28847639D01*
X56668500Y28851770D01*
X56675447Y28855542D01*
X56682583Y28858945D01*
X56689886Y28861971D01*
X56697338Y28864610D01*
X56704918Y28866855D01*
X56712605Y28868700D01*
X56720378Y28870141D01*
X56728216Y28871173D01*
X56736097Y28871793D01*
X56744000Y28872000D01*
X56847000Y28872000D01*
X56854850Y28871794D01*
G04 #@! TD*
D11*
G04 #@! TO.C,PCI1*
X13050000Y5600000D03*
D12*
X14050000Y5050000D03*
X15050000Y5050000D03*
X16050000Y5050000D03*
X17050000Y5050000D03*
X18050000Y5050000D03*
X19050000Y5050000D03*
X20050000Y5050000D03*
X21050000Y5050000D03*
X22050000Y5050000D03*
X23050000Y5050000D03*
X26050000Y5050000D03*
X27050000Y5050000D03*
X28050000Y5050000D03*
X29050000Y5050000D03*
X30050000Y5050000D03*
X31050000Y5050000D03*
X32050000Y5050000D03*
G04 #@! TD*
D13*
G04 #@! TO.C,C7*
X44440000Y23800000D03*
X45400000Y23800000D03*
G04 #@! TD*
G04 #@! TO.C,C8*
X34440000Y23810000D03*
X35400000Y23810000D03*
G04 #@! TD*
D14*
G04 #@! TO.C,C10*
X52040000Y28310000D03*
X52040000Y29270000D03*
G04 #@! TD*
G04 #@! TO.C,C12*
X42230000Y28310000D03*
X42230000Y29270000D03*
G04 #@! TD*
D15*
G04 #@! TO.C,C13*
X46105000Y20205000D03*
X46105000Y21755000D03*
G04 #@! TD*
G04 #@! TO.C,C14*
X45045000Y20205000D03*
X45045000Y21755000D03*
G04 #@! TD*
G04 #@! TO.C,C15*
X36200000Y20175000D03*
X36200000Y21725000D03*
G04 #@! TD*
G04 #@! TO.C,C16*
X35140000Y20175000D03*
X35140000Y21725000D03*
G04 #@! TD*
D16*
G04 #@! TO.C,C17*
X45400000Y26560000D03*
X44440000Y26560000D03*
G04 #@! TD*
G04 #@! TO.C,C18*
X35400000Y26550000D03*
X34440000Y26550000D03*
G04 #@! TD*
D17*
G04 #@! TO.C,C19*
X49360001Y29270000D03*
X49360001Y28310000D03*
G04 #@! TD*
G04 #@! TO.C,C20*
X39400001Y29270000D03*
X39400001Y28310000D03*
G04 #@! TD*
D14*
G04 #@! TO.C,C21*
X50219999Y28310000D03*
X50219999Y29270000D03*
G04 #@! TD*
G04 #@! TO.C,C22*
X40340000Y28310000D03*
X40340000Y29270000D03*
G04 #@! TD*
D13*
G04 #@! TO.C,C23*
X24570000Y23790000D03*
X25530000Y23790000D03*
G04 #@! TD*
G04 #@! TO.C,C24*
X14210000Y23790000D03*
X15170000Y23790000D03*
G04 #@! TD*
D14*
G04 #@! TO.C,C26*
X32370000Y28310000D03*
X32370000Y29270000D03*
G04 #@! TD*
G04 #@! TO.C,C28*
X22030000Y28310000D03*
X22030000Y29270000D03*
G04 #@! TD*
D15*
G04 #@! TO.C,C29*
X25204999Y20175000D03*
X25204999Y21725000D03*
G04 #@! TD*
G04 #@! TO.C,C30*
X26280000Y20175000D03*
X26280000Y21725000D03*
G04 #@! TD*
G04 #@! TO.C,C31*
X15805000Y20175000D03*
X15805000Y21725000D03*
G04 #@! TD*
G04 #@! TO.C,C32*
X14755001Y20175000D03*
X14755001Y21725000D03*
G04 #@! TD*
D16*
G04 #@! TO.C,C33*
X25530000Y27410000D03*
X24570000Y27410000D03*
G04 #@! TD*
G04 #@! TO.C,C34*
X15170000Y26580000D03*
X14210000Y26580000D03*
G04 #@! TD*
D17*
G04 #@! TO.C,C35*
X29540001Y29270000D03*
X29540001Y28310000D03*
G04 #@! TD*
G04 #@! TO.C,C36*
X19310001Y29270000D03*
X19310001Y28310000D03*
G04 #@! TD*
D14*
G04 #@! TO.C,C37*
X31450000Y28310000D03*
X31450000Y29270000D03*
G04 #@! TD*
G04 #@! TO.C,C38*
X20210000Y28300000D03*
X20210000Y29260000D03*
G04 #@! TD*
D18*
G04 #@! TO.C,L3*
X51980000Y20350000D03*
X47880000Y20350000D03*
G04 #@! TD*
G04 #@! TO.C,L4*
X42490000Y20460000D03*
X38390000Y20460000D03*
G04 #@! TD*
G04 #@! TO.C,L5*
X32620000Y20460000D03*
X28520000Y20460000D03*
G04 #@! TD*
G04 #@! TO.C,L6*
X22180000Y20460000D03*
X18080000Y20460000D03*
G04 #@! TD*
D19*
G04 #@! TO.C,R3*
X44410000Y25640000D03*
X45430000Y25640000D03*
G04 #@! TD*
G04 #@! TO.C,R4*
X34410000Y25640000D03*
X35430000Y25640000D03*
G04 #@! TD*
D20*
G04 #@! TO.C,R5*
X45430000Y24710000D03*
X44410000Y24710000D03*
G04 #@! TD*
G04 #@! TO.C,R6*
X35430000Y24690000D03*
X34410000Y24690000D03*
G04 #@! TD*
G04 #@! TO.C,R9*
X45430000Y27470000D03*
X44410000Y27470000D03*
G04 #@! TD*
G04 #@! TO.C,R10*
X35430000Y27480000D03*
X34410000Y27480000D03*
G04 #@! TD*
D21*
G04 #@! TO.C,R11*
X51115000Y28280000D03*
X51115000Y29300000D03*
G04 #@! TD*
G04 #@! TO.C,R12*
X41235000Y28280000D03*
X41235000Y29300000D03*
G04 #@! TD*
G04 #@! TO.C,R13*
X46685000Y28280000D03*
X46685000Y29300000D03*
G04 #@! TD*
D22*
G04 #@! TO.C,R14*
X48500000Y29300000D03*
X48500000Y28280000D03*
G04 #@! TD*
D21*
G04 #@! TO.C,R15*
X36725000Y28280000D03*
X36725000Y29300000D03*
G04 #@! TD*
D22*
G04 #@! TO.C,R16*
X38540000Y29300000D03*
X38540000Y28280000D03*
G04 #@! TD*
G04 #@! TO.C,R17*
X47540000Y29300000D03*
X47540000Y28280000D03*
G04 #@! TD*
G04 #@! TO.C,R18*
X37580000Y29300000D03*
X37580000Y28280000D03*
G04 #@! TD*
D19*
G04 #@! TO.C,R19*
X24540000Y25640000D03*
X25560000Y25640000D03*
G04 #@! TD*
G04 #@! TO.C,R20*
X14180000Y25640000D03*
X15200000Y25640000D03*
G04 #@! TD*
D20*
G04 #@! TO.C,R21*
X25560000Y24710000D03*
X24540000Y24710000D03*
G04 #@! TD*
G04 #@! TO.C,R22*
X15200000Y24710000D03*
X14180000Y24710000D03*
G04 #@! TD*
G04 #@! TO.C,R23*
X25560000Y26540000D03*
X24540000Y26540000D03*
G04 #@! TD*
G04 #@! TO.C,R24*
X15200000Y27500000D03*
X14180000Y27500000D03*
G04 #@! TD*
D21*
G04 #@! TO.C,R25*
X30520000Y28280000D03*
X30520000Y29300000D03*
G04 #@! TD*
G04 #@! TO.C,R26*
X21105000Y28270000D03*
X21105000Y29290000D03*
G04 #@! TD*
G04 #@! TO.C,R27*
X27780000Y28280000D03*
X27780000Y29300000D03*
G04 #@! TD*
D22*
G04 #@! TO.C,R28*
X28680000Y29300000D03*
X28680000Y28280000D03*
G04 #@! TD*
D21*
G04 #@! TO.C,R29*
X16530000Y28280000D03*
X16530000Y29300000D03*
G04 #@! TD*
D22*
G04 #@! TO.C,R30*
X18450000Y29300000D03*
X18450000Y28280000D03*
G04 #@! TD*
G04 #@! TO.C,R31*
X17500000Y29300000D03*
X17500000Y28280000D03*
G04 #@! TD*
D19*
G04 #@! TO.C,R32*
X24540000Y28300000D03*
X25560000Y28300000D03*
G04 #@! TD*
D21*
G04 #@! TO.C,R33*
X26860000Y28280000D03*
X26860000Y29300000D03*
G04 #@! TD*
D23*
G04 #@! TO.C,3V3*
X49150001Y26945000D03*
X49150001Y26295000D03*
X49150001Y25645000D03*
X49150001Y24995000D03*
X46770001Y24995000D03*
X46770001Y25645000D03*
X46770001Y26295000D03*
X46770001Y26945000D03*
G04 #@! TD*
G04 #@! TO.C,2V5*
X39140000Y26945000D03*
X39140000Y26295000D03*
X39140000Y25645000D03*
X39140000Y24995000D03*
X36760000Y24995000D03*
X36760000Y25645000D03*
X36760000Y26295000D03*
X36760000Y26945000D03*
G04 #@! TD*
G04 #@! TO.C,1V5*
X29260000Y26945000D03*
X29260000Y26295000D03*
X29260000Y25645000D03*
X29260000Y24995000D03*
X26880000Y24995000D03*
X26880000Y25645000D03*
X26880000Y26295000D03*
X26880000Y26945000D03*
G04 #@! TD*
G04 #@! TO.C,1V2*
X18910001Y26945000D03*
X18910001Y26295000D03*
X18910001Y25645000D03*
X18910001Y24995000D03*
X16530001Y24995000D03*
X16530001Y25645000D03*
X16530001Y26295000D03*
X16530001Y26945000D03*
G04 #@! TD*
D24*
G04 #@! TO.C,C1*
X58005000Y21240000D03*
X56455000Y21240000D03*
G04 #@! TD*
D16*
G04 #@! TO.C,C2*
X57520000Y22320000D03*
X56560000Y22320000D03*
G04 #@! TD*
D17*
G04 #@! TO.C,C3*
X56600000Y30610000D03*
X56600000Y29650000D03*
G04 #@! TD*
D14*
G04 #@! TO.C,C4*
X58680000Y29650000D03*
X58680000Y30610000D03*
G04 #@! TD*
G04 #@! TO.C,C5*
X54140000Y29650000D03*
X54140000Y30610000D03*
G04 #@! TD*
D16*
G04 #@! TO.C,C6*
X57520000Y23240000D03*
X56560000Y23240000D03*
G04 #@! TD*
D13*
G04 #@! TO.C,C39*
X59580000Y25060000D03*
X60540000Y25060000D03*
G04 #@! TD*
D25*
G04 #@! TO.C,C40*
X53894999Y23350000D03*
X55444999Y23350000D03*
G04 #@! TD*
G04 #@! TO.C,C41*
X53895000Y22289999D03*
X55445000Y22289999D03*
G04 #@! TD*
D26*
G04 #@! TO.C,L1*
X61350000Y19050000D03*
X61350000Y23150000D03*
G04 #@! TD*
D21*
G04 #@! TO.C,R1*
X54140000Y27710000D03*
X54140000Y28730000D03*
G04 #@! TD*
G04 #@! TO.C,R2*
X55420000Y29620000D03*
X55420000Y30640000D03*
G04 #@! TD*
D19*
G04 #@! TO.C,R7*
X59550000Y27570000D03*
X60570000Y27570000D03*
G04 #@! TD*
D22*
G04 #@! TO.C,R8*
X54140000Y26940000D03*
X54140000Y25920000D03*
G04 #@! TD*
D21*
G04 #@! TO.C,R34*
X57560000Y29620000D03*
X57560000Y30640000D03*
G04 #@! TD*
D27*
G04 #@! TO.C,U1*
X57820000Y28470000D03*
D28*
X58720000Y28070000D03*
X58720000Y27570000D03*
X58720000Y27070000D03*
X58720000Y26570000D03*
X58720000Y26070000D03*
X58720000Y25570000D03*
X58720000Y25070000D03*
X58720000Y24570000D03*
D27*
X57820000Y24170000D03*
X56320000Y24170000D03*
D28*
X55420000Y24570000D03*
X55420000Y25070000D03*
X55420000Y25570000D03*
X55420000Y26070000D03*
X55420000Y26570000D03*
X55420000Y27070000D03*
X55420000Y27570000D03*
X55420000Y28070000D03*
D27*
X56320000Y28470000D03*
D29*
X56790000Y24360000D03*
X56790000Y28275000D03*
D30*
X57070000Y26320000D03*
D29*
X57340000Y28275000D03*
D31*
X57070000Y24580000D03*
X57070000Y28040000D03*
D29*
X57340000Y24360000D03*
G04 #@! TD*
D32*
G04 #@! TO.C,J1*
X51020000Y13355000D03*
X61320000Y13355000D03*
D33*
X59420000Y16605000D03*
X58920000Y16605000D03*
X58420000Y16605000D03*
X57920000Y16605000D03*
X57420000Y16605000D03*
X56920000Y16605000D03*
X56420000Y16605000D03*
X55920000Y16605000D03*
X55420000Y16605000D03*
X54920000Y16605000D03*
X54420000Y16605000D03*
X53920000Y16605000D03*
X53420000Y16605000D03*
X52920000Y16605000D03*
G04 #@! TD*
D25*
G04 #@! TO.C,C42*
X53905000Y21240000D03*
X55455000Y21240000D03*
G04 #@! TD*
D34*
G04 #@! TO.C,J2*
X17450000Y32870000D03*
G04 #@! TD*
D35*
G04 #@! TO.C,J3*
X64900000Y17480000D03*
G04 #@! TD*
D34*
G04 #@! TO.C,J4*
X58580000Y32870000D03*
G04 #@! TD*
G04 #@! TO.C,J5*
X31160000Y32870000D03*
G04 #@! TD*
D35*
G04 #@! TO.C,J6*
X64890000Y26480000D03*
G04 #@! TD*
G04 #@! TO.C,J7*
X11180000Y17480000D03*
G04 #@! TD*
D34*
G04 #@! TO.C,J8*
X44870000Y11090000D03*
G04 #@! TD*
G04 #@! TO.C,J9*
X44870000Y32870000D03*
G04 #@! TD*
D35*
G04 #@! TO.C,J10*
X11180000Y26480000D03*
G04 #@! TD*
M02*
