M48
; DRILL file {KiCad (6.0.0)} date Thu Jan 13 15:14:49 2022
; FORMAT={-:-/ absolute / inch / decimal}
; #@! TF.CreationDate,2022-01-13T15:14:49+08:00
; #@! TF.GenerationSoftware,Kicad,Pcbnew,(6.0.0)
; #@! TF.FileFunction,Plated,1,4,PTH
FMAT,2
INCH
; #@! TA.AperFunction,Plated,PTH,ViaDrill
T1C0.0118
%
G90
G05
T1
X0.4201Y1.2441
X0.4209Y1.2043
X0.4209Y1.165
X0.4209Y1.1256
X0.4209Y1.0862
X0.4209Y1.0469
X0.4209Y1.0075
X0.4209Y0.9681
X0.4209Y0.9287
X0.4209Y0.8894
X0.4209Y0.85
X0.4209Y0.8106
X0.4209Y0.7713
X0.4209Y0.7319
X0.4209Y0.6925
X0.4209Y0.6531
X0.4209Y0.6138
X0.4209Y0.5744
X0.4209Y0.535
X0.4209Y0.4957
X0.4272Y1.2756
X0.4406Y1.2248
X0.4406Y1.1854
X0.4406Y1.1461
X0.4406Y1.1067
X0.4406Y1.0673
X0.4406Y1.028
X0.4406Y0.9886
X0.4406Y0.9492
X0.4406Y0.9098
X0.4406Y0.8705
X0.4406Y0.8311
X0.4406Y0.7917
X0.4406Y0.7524
X0.4406Y0.713
X0.4406Y0.6736
X0.4406Y0.6343
X0.4406Y0.5949
X0.4406Y0.5555
X0.4406Y0.5161
X0.4406Y0.476
X0.4449Y1.3
X0.4472Y1.2594
X0.4602Y1.2043
X0.4602Y1.165
X0.4602Y1.1256
X0.4602Y1.0862
X0.4602Y1.0469
X0.4602Y1.0075
X0.4602Y0.9681
X0.4602Y0.9287
X0.4602Y0.8894
X0.4602Y0.85
X0.4602Y0.8106
X0.4602Y0.7713
X0.4602Y0.7319
X0.4602Y0.6925
X0.4602Y0.6531
X0.4602Y0.6138
X0.4602Y0.5744
X0.4602Y0.535
X0.4602Y0.4957
X0.4602Y0.4563
X0.4638Y1.239
X0.4646Y1.2823
X0.4787Y1.3118
X0.4839Y1.265
X0.4957Y1.2902
X0.5181Y1.3118
X0.5181Y1.2724
X0.5378Y1.2921
X0.5402Y1.0094
X0.5575Y1.3118
X0.5575Y1.2724
X0.5583Y1.1354
X0.5772Y1.2921
X0.5969Y1.3118
X0.5969Y1.2724
X0.6165Y1.2921
X0.6362Y1.3118
X0.6362Y1.2724
X0.6559Y1.2921
X0.6756Y1.3118
X0.6756Y1.2724
X0.6953Y1.2921
X0.711Y0.8059
X0.7114Y0.9575
X0.715Y1.3118
X0.715Y1.2724
X0.7331Y0.9575
X0.7346Y1.2921
X0.7429Y1.0961
X0.7543Y1.3118
X0.7543Y1.2724
X0.7547Y0.9575
X0.774Y1.2921
X0.7937Y1.3118
X0.7937Y1.2724
X0.7937Y1.089
X0.8102Y1.037
X0.8134Y1.2921
X0.8256Y1.0575
X0.8331Y1.3118
X0.8331Y1.2724
X0.837Y1.037
X0.852Y1.0575
X0.8528Y1.2921
X0.8724Y1.3118
X0.8724Y1.2724
X0.8921Y1.2921
X0.9118Y1.3118
X0.9118Y1.2724
X0.9268Y1.1343
X0.9315Y1.2921
X0.9417Y0.8949
X0.9417Y0.8713
X0.9417Y0.8476
X0.9469Y1.0091
X0.9512Y1.3118
X0.9512Y1.2724
X0.9654Y0.8949
X0.9709Y1.2921
X0.9894Y0.8949
X0.9906Y1.3118
X0.9906Y1.2724
X1.0102Y1.2921
X1.0256Y0.3421
X1.0299Y1.3118
X1.0299Y1.2724
X1.0496Y1.2921
X1.065Y0.3791
X1.0693Y1.3118
X1.0693Y1.2724
X1.089Y1.2921
X1.1041Y0.4177
X1.1087Y1.3118
X1.1087Y1.2724
X1.1224Y0.8035
X1.1252Y0.9567
X1.1283Y1.2921
X1.1435Y0.4703
X1.1469Y0.9567
X1.148Y1.3118
X1.148Y1.2724
X1.1488Y1.0941
X1.1677Y1.2921
X1.1685Y0.9567
X1.1829Y0.4703
X1.1874Y1.3118
X1.1874Y1.2724
X1.202Y1.0913
X1.2071Y1.2921
X1.222Y1.0382
X1.2224Y0.4703
X1.2268Y1.3118
X1.2268Y1.2724
X1.2366Y1.0575
X1.2465Y1.2921
X1.2476Y1.0382
X1.2622Y1.0575
X1.2622Y0.4703
X1.2661Y1.3118
X1.2661Y1.2724
X1.2858Y1.2921
X1.3055Y1.3118
X1.3055Y1.2724
X1.3252Y1.2921
X1.3264Y0.4169
X1.3358Y1.0094
X1.3449Y1.3118
X1.3449Y1.2724
X1.3465Y0.8913
X1.3465Y0.8677
X1.3465Y0.8441
X1.3535Y1.1366
X1.3646Y1.2921
X1.3657Y0.4169
X1.3701Y0.8913
X1.3843Y1.3118
X1.3843Y1.2724
X1.3941Y0.8913
X1.4039Y1.2921
X1.4051Y0.4169
X1.4236Y1.3118
X1.4236Y1.2724
X1.4433Y1.2921
X1.4445Y0.4169
X1.463Y1.3118
X1.463Y1.2724
X1.4827Y1.2921
X1.4839Y0.4169
X1.5024Y1.3118
X1.5024Y1.2724
X1.5079Y0.9575
X1.5083Y0.8059
X1.522Y1.2921
X1.5232Y0.4169
X1.5295Y0.9575
X1.5366Y1.0945
X1.5417Y1.3118
X1.5417Y1.2724
X1.5512Y0.9575
X1.5614Y1.2921
X1.5626Y0.4169
X1.5811Y1.3118
X1.5811Y1.2724
X1.5933Y1.0917
X1.6008Y1.2921
X1.602Y0.4169
X1.6094Y1.0386
X1.6205Y1.3118
X1.6205Y1.2724
X1.6224Y0.4362
X1.6252Y1.0594
X1.6366Y1.0386
X1.6402Y1.2921
X1.6413Y0.4563
X1.6413Y0.4169
X1.6524Y1.0594
X1.6598Y1.3118
X1.6598Y1.2724
X1.6618Y0.4362
X1.6795Y1.2921
X1.6807Y0.4563
X1.6807Y0.4169
X1.6992Y1.3118
X1.6992Y1.2724
X1.7012Y0.4362
X1.7189Y1.2921
X1.7201Y0.4563
X1.7201Y0.4169
X1.7303Y1.0094
X1.7386Y1.3118
X1.7386Y1.2724
X1.7398Y0.8925
X1.7398Y0.8689
X1.7398Y0.8453
X1.7406Y0.4362
X1.7484Y1.135
X1.7583Y1.2921
X1.7594Y0.4563
X1.7594Y0.4169
X1.7634Y0.8925
X1.778Y1.3118
X1.778Y1.2724
X1.7799Y0.4362
X1.7874Y0.8925
X1.7976Y1.2921
X1.7988Y0.4563
X1.7988Y0.4169
X1.8173Y1.3118
X1.8173Y1.2724
X1.8193Y0.4362
X1.837Y1.2921
X1.8382Y0.4563
X1.8382Y0.4169
X1.8567Y1.3118
X1.8567Y1.2724
X1.8587Y0.4362
X1.8764Y1.2921
X1.8776Y0.4563
X1.8776Y0.4169
X1.8961Y1.3118
X1.8961Y1.2724
X1.898Y0.4362
X1.902Y0.8083
X1.9028Y0.9571
X1.9157Y1.2921
X1.9169Y0.4563
X1.9169Y0.4169
X1.9244Y0.9571
X1.9283Y1.0945
X1.9354Y1.3118
X1.9354Y1.2724
X1.9374Y0.4362
X1.9461Y0.9571
X1.9551Y1.2921
X1.9563Y0.4563
X1.9563Y0.4169
X1.9748Y1.3118
X1.9748Y1.2724
X1.9768Y0.4362
X1.9811Y1.0937
X1.9945Y1.2921
X1.9957Y0.4563
X1.9957Y0.4169
X2.0024Y1.0386
X2.0142Y1.3118
X2.0142Y1.2724
X2.0161Y0.4362
X2.0181Y1.0591
X2.0276Y1.0386
X2.0339Y1.2921
X2.035Y0.4563
X2.035Y0.4169
X2.0433Y1.0591
X2.0535Y1.3118
X2.0535Y1.2724
X2.0555Y0.4362
X2.0732Y1.2921
X2.0744Y0.4563
X2.0744Y0.4169
X2.0837Y0.6043
X2.0929Y1.3118
X2.0929Y1.2724
X2.0949Y0.4362
X2.1031Y0.7002
X2.1094Y0.9929
X2.1094Y0.7833
X2.1098Y0.7557
X2.1102Y0.9508
X2.1126Y1.2921
X2.1138Y0.4563
X2.1138Y0.4169
X2.1224Y0.972
X2.1228Y0.6041
X2.1311Y0.7833
X2.1315Y0.7557
X2.1323Y1.3118
X2.1323Y1.2724
X2.1339Y0.9929
X2.1339Y0.9508
X2.1343Y0.4362
X2.1425Y0.7002
X2.152Y1.2921
X2.1531Y0.4563
X2.1531Y0.4169
X2.1547Y0.7833
X2.1551Y1.0606
X2.1551Y0.7557
X2.1555Y1.0906
X2.1563Y1.0024
X2.1622Y0.6041
X2.1717Y1.3118
X2.1717Y1.2724
X2.1736Y0.4362
X2.1764Y0.7833
X2.1768Y0.7557
X2.1819Y0.7002
X2.1913Y1.2921
X2.1925Y0.4563
X2.1925Y0.4169
X2.198Y0.7833
X2.1984Y0.7557
X2.2016Y0.6041
X2.211Y1.3118
X2.211Y1.2724
X2.213Y0.4362
X2.2201Y0.9902
X2.2201Y1.0819
X2.2201Y1.0207
X2.2205Y1.0513
X2.2232Y0.7833
X2.2232Y0.7285
X2.2236Y0.7557
X2.2236Y0.701
X2.2283Y1.2323
X2.2307Y1.2921
X2.2319Y0.4563
X2.2319Y0.4169
X2.239Y0.5907
X2.239Y0.5356
X2.2394Y0.5632
X2.2394Y0.5081
X2.2449Y0.7833
X2.2449Y0.7285
X2.2453Y0.7557
X2.2453Y0.701
X2.2465Y1.1441
X2.2467Y1.0815
X2.2467Y1.0203
X2.2467Y0.9898
X2.247Y1.0509
X2.2504Y1.3118
X2.2504Y1.2724
X2.2524Y0.4362
X2.2606Y0.5907
X2.2606Y0.5356
X2.261Y0.5632
X2.261Y0.5081
X2.2661Y1.2323
X2.2665Y0.7833
X2.2665Y0.7285
X2.2669Y0.7557
X2.2669Y0.701
X2.2701Y1.2921
X2.2713Y0.4563
X2.2713Y0.4169
X2.2732Y1.0815
X2.2732Y1.0203
X2.2732Y0.9898
X2.2736Y1.0509
X2.2823Y0.5907
X2.2823Y0.5356
X2.2827Y0.5632
X2.2827Y0.5081
X2.2898Y1.3118
X2.2898Y1.2724
X2.2917Y0.4362
X2.3094Y1.2921
X2.3098Y0.5907
X2.3098Y0.5356
X2.3102Y0.5632
X2.3102Y0.5081
X2.3106Y0.4563
X2.3106Y0.4169
X2.3291Y1.3118
X2.3291Y1.2724
X2.3311Y0.4362
X2.3315Y0.5907
X2.3315Y0.5356
X2.3319Y0.5632
X2.3319Y0.5081
X2.3488Y1.2921
X2.35Y0.4563
X2.35Y0.4169
X2.3531Y0.5907
X2.3531Y0.5356
X2.3535Y0.5632
X2.3535Y0.5081
X2.3685Y1.3118
X2.3685Y1.2724
X2.3705Y0.4362
X2.3882Y1.2921
X2.3894Y0.4563
X2.3894Y0.4169
X2.4079Y1.3118
X2.4079Y1.2724
X2.4098Y0.4362
X2.4276Y1.2921
X2.4287Y0.4563
X2.4287Y0.4169
X2.4472Y1.3118
X2.4472Y1.2724
X2.4492Y0.4362
X2.4669Y1.2921
X2.4681Y0.4563
X2.4681Y0.4169
X2.4866Y1.3118
X2.4866Y1.2724
X2.4886Y0.4362
X2.5039Y0.4669
X2.5063Y1.2921
X2.5075Y0.4169
X2.5142Y1.2618
X2.5236Y0.4472
X2.526Y1.3118
X2.528Y0.4913
X2.5311Y1.2382
X2.5343Y1.2807
X2.535Y1.2004
X2.535Y1.161
X2.535Y1.1217
X2.535Y1.0823
X2.535Y1.0429
X2.535Y1.0035
X2.535Y0.9642
X2.535Y0.9248
X2.535Y0.8854
X2.535Y0.8461
X2.535Y0.8067
X2.535Y0.7673
X2.535Y0.728
X2.535Y0.6886
X2.535Y0.6492
X2.535Y0.6098
X2.535Y0.5705
X2.535Y0.5311
X2.537Y0.4213
X2.5453Y0.4701
X2.55Y1.2567
X2.552Y0.5083
X2.5539Y1.2984
X2.5547Y1.2228
X2.5547Y1.1409
X2.5547Y1.1016
X2.5547Y1.0622
X2.5547Y1.0228
X2.5547Y0.9835
X2.5547Y0.9441
X2.5547Y0.9047
X2.5547Y0.8654
X2.5547Y0.826
X2.5547Y0.7866
X2.5547Y0.7472
X2.5547Y0.7079
X2.5547Y0.6685
X2.5547Y0.6291
X2.5547Y0.5898
X2.5547Y0.5504
X2.5551Y1.1807
X2.5583Y0.4378
X2.5713Y1.274
X2.5717Y0.463
X2.574Y1.2409
X2.574Y1.2008
X2.5744Y1.161
X2.5744Y1.1217
X2.5744Y1.0823
X2.5744Y1.0429
X2.5744Y1.0035
X2.5744Y0.9642
X2.5744Y0.9248
X2.5744Y0.8854
X2.5744Y0.8461
X2.5744Y0.8067
X2.5744Y0.7673
X2.5744Y0.728
X2.5744Y0.6886
X2.5744Y0.6492
X2.5744Y0.6098
X2.5744Y0.5705
X2.5744Y0.5311
X2.5744Y0.4941
T0
M30
