%TF.GenerationSoftware,KiCad,Pcbnew,(5.1.8)-1*%
%TF.CreationDate,2021-10-07T20:49:06+08:00*%
%TF.ProjectId,Amplifier,416d706c-6966-4696-9572-2e6b69636164,rev?*%
%TF.SameCoordinates,Original*%
%TF.FileFunction,Copper,L1,Top*%
%TF.FilePolarity,Positive*%
%FSLAX46Y46*%
G04 Gerber Fmt 4.6, Leading zero omitted, Abs format (unit mm)*
G04 Created by KiCad (PCBNEW (5.1.8)-1) date 2021-10-07 20:49:06*
%MOMM*%
%LPD*%
G01*
G04 APERTURE LIST*
%TA.AperFunction,ComponentPad*%
%ADD10C,1.700000*%
%TD*%
%TA.AperFunction,ComponentPad*%
%ADD11R,1.700000X1.700000*%
%TD*%
%TA.AperFunction,SMDPad,CuDef*%
%ADD12R,2.290000X3.000000*%
%TD*%
%TA.AperFunction,ComponentPad*%
%ADD13C,2.250000*%
%TD*%
%TA.AperFunction,ComponentPad*%
%ADD14C,2.050000*%
%TD*%
%TA.AperFunction,ComponentPad*%
%ADD15O,1.700000X1.700000*%
%TD*%
%TA.AperFunction,ViaPad*%
%ADD16C,0.450000*%
%TD*%
%TA.AperFunction,Conductor*%
%ADD17C,0.250000*%
%TD*%
%TA.AperFunction,Conductor*%
%ADD18C,0.500000*%
%TD*%
%TA.AperFunction,Conductor*%
%ADD19C,0.800000*%
%TD*%
%TA.AperFunction,Conductor*%
%ADD20C,0.100000*%
%TD*%
G04 APERTURE END LIST*
D10*
%TO.P,J1,4*%
%TO.N,GND*%
X144290000Y-99520000D03*
%TO.P,J1,5*%
%TO.N,N/C*%
X146830000Y-102060000D03*
D11*
%TO.P,J1,1*%
X146830000Y-96980000D03*
D10*
%TO.P,J1,6*%
%TO.N,-18V*%
X144290000Y-102060000D03*
%TO.P,J1,3*%
%TO.N,N/C*%
X146830000Y-99520000D03*
%TO.P,J1,2*%
%TO.N,+18V*%
X144290000Y-96980000D03*
%TD*%
%TO.P,R22,2*%
%TO.N,Net-(D2-Pad2)*%
%TA.AperFunction,SMDPad,CuDef*%
G36*
G01*
X129905000Y-100540000D02*
X130275000Y-100540000D01*
G75*
G02*
X130410000Y-100675000I0J-135000D01*
G01*
X130410000Y-100945000D01*
G75*
G02*
X130275000Y-101080000I-135000J0D01*
G01*
X129905000Y-101080000D01*
G75*
G02*
X129770000Y-100945000I0J135000D01*
G01*
X129770000Y-100675000D01*
G75*
G02*
X129905000Y-100540000I135000J0D01*
G01*
G37*
%TD.AperFunction*%
%TO.P,R22,1*%
%TO.N,GND*%
%TA.AperFunction,SMDPad,CuDef*%
G36*
G01*
X129905000Y-99520000D02*
X130275000Y-99520000D01*
G75*
G02*
X130410000Y-99655000I0J-135000D01*
G01*
X130410000Y-99925000D01*
G75*
G02*
X130275000Y-100060000I-135000J0D01*
G01*
X129905000Y-100060000D01*
G75*
G02*
X129770000Y-99925000I0J135000D01*
G01*
X129770000Y-99655000D01*
G75*
G02*
X129905000Y-99520000I135000J0D01*
G01*
G37*
%TD.AperFunction*%
%TD*%
%TO.P,R21,2*%
%TO.N,GND*%
%TA.AperFunction,SMDPad,CuDef*%
G36*
G01*
X129905000Y-98545000D02*
X130275000Y-98545000D01*
G75*
G02*
X130410000Y-98680000I0J-135000D01*
G01*
X130410000Y-98950000D01*
G75*
G02*
X130275000Y-99085000I-135000J0D01*
G01*
X129905000Y-99085000D01*
G75*
G02*
X129770000Y-98950000I0J135000D01*
G01*
X129770000Y-98680000D01*
G75*
G02*
X129905000Y-98545000I135000J0D01*
G01*
G37*
%TD.AperFunction*%
%TO.P,R21,1*%
%TO.N,Net-(D1-Pad1)*%
%TA.AperFunction,SMDPad,CuDef*%
G36*
G01*
X129905000Y-97525000D02*
X130275000Y-97525000D01*
G75*
G02*
X130410000Y-97660000I0J-135000D01*
G01*
X130410000Y-97930000D01*
G75*
G02*
X130275000Y-98065000I-135000J0D01*
G01*
X129905000Y-98065000D01*
G75*
G02*
X129770000Y-97930000I0J135000D01*
G01*
X129770000Y-97660000D01*
G75*
G02*
X129905000Y-97525000I135000J0D01*
G01*
G37*
%TD.AperFunction*%
%TD*%
%TO.P,D2,2*%
%TO.N,Net-(D2-Pad2)*%
%TA.AperFunction,SMDPad,CuDef*%
G36*
G01*
X130262500Y-103010000D02*
X129917500Y-103010000D01*
G75*
G02*
X129770000Y-102862500I0J147500D01*
G01*
X129770000Y-102567500D01*
G75*
G02*
X129917500Y-102420000I147500J0D01*
G01*
X130262500Y-102420000D01*
G75*
G02*
X130410000Y-102567500I0J-147500D01*
G01*
X130410000Y-102862500D01*
G75*
G02*
X130262500Y-103010000I-147500J0D01*
G01*
G37*
%TD.AperFunction*%
%TO.P,D2,1*%
%TO.N,AVEE*%
%TA.AperFunction,SMDPad,CuDef*%
G36*
G01*
X130262500Y-103980000D02*
X129917500Y-103980000D01*
G75*
G02*
X129770000Y-103832500I0J147500D01*
G01*
X129770000Y-103537500D01*
G75*
G02*
X129917500Y-103390000I147500J0D01*
G01*
X130262500Y-103390000D01*
G75*
G02*
X130410000Y-103537500I0J-147500D01*
G01*
X130410000Y-103832500D01*
G75*
G02*
X130262500Y-103980000I-147500J0D01*
G01*
G37*
%TD.AperFunction*%
%TD*%
%TO.P,D1,2*%
%TO.N,AVCC*%
%TA.AperFunction,SMDPad,CuDef*%
G36*
G01*
X130262500Y-95210000D02*
X129917500Y-95210000D01*
G75*
G02*
X129770000Y-95062500I0J147500D01*
G01*
X129770000Y-94767500D01*
G75*
G02*
X129917500Y-94620000I147500J0D01*
G01*
X130262500Y-94620000D01*
G75*
G02*
X130410000Y-94767500I0J-147500D01*
G01*
X130410000Y-95062500D01*
G75*
G02*
X130262500Y-95210000I-147500J0D01*
G01*
G37*
%TD.AperFunction*%
%TO.P,D1,1*%
%TO.N,Net-(D1-Pad1)*%
%TA.AperFunction,SMDPad,CuDef*%
G36*
G01*
X130262500Y-96180000D02*
X129917500Y-96180000D01*
G75*
G02*
X129770000Y-96032500I0J147500D01*
G01*
X129770000Y-95737500D01*
G75*
G02*
X129917500Y-95590000I147500J0D01*
G01*
X130262500Y-95590000D01*
G75*
G02*
X130410000Y-95737500I0J-147500D01*
G01*
X130410000Y-96032500D01*
G75*
G02*
X130262500Y-96180000I-147500J0D01*
G01*
G37*
%TD.AperFunction*%
%TD*%
%TO.P,R20,2*%
%TO.N,GND*%
%TA.AperFunction,SMDPad,CuDef*%
G36*
G01*
X112735000Y-101910000D02*
X113105000Y-101910000D01*
G75*
G02*
X113240000Y-102045000I0J-135000D01*
G01*
X113240000Y-102315000D01*
G75*
G02*
X113105000Y-102450000I-135000J0D01*
G01*
X112735000Y-102450000D01*
G75*
G02*
X112600000Y-102315000I0J135000D01*
G01*
X112600000Y-102045000D01*
G75*
G02*
X112735000Y-101910000I135000J0D01*
G01*
G37*
%TD.AperFunction*%
%TO.P,R20,1*%
%TO.N,Net-(R19-Pad2)*%
%TA.AperFunction,SMDPad,CuDef*%
G36*
G01*
X112735000Y-100890000D02*
X113105000Y-100890000D01*
G75*
G02*
X113240000Y-101025000I0J-135000D01*
G01*
X113240000Y-101295000D01*
G75*
G02*
X113105000Y-101430000I-135000J0D01*
G01*
X112735000Y-101430000D01*
G75*
G02*
X112600000Y-101295000I0J135000D01*
G01*
X112600000Y-101025000D01*
G75*
G02*
X112735000Y-100890000I135000J0D01*
G01*
G37*
%TD.AperFunction*%
%TD*%
%TO.P,R19,2*%
%TO.N,Net-(R19-Pad2)*%
%TA.AperFunction,SMDPad,CuDef*%
G36*
G01*
X112715000Y-99740000D02*
X113085000Y-99740000D01*
G75*
G02*
X113220000Y-99875000I0J-135000D01*
G01*
X113220000Y-100145000D01*
G75*
G02*
X113085000Y-100280000I-135000J0D01*
G01*
X112715000Y-100280000D01*
G75*
G02*
X112580000Y-100145000I0J135000D01*
G01*
X112580000Y-99875000D01*
G75*
G02*
X112715000Y-99740000I135000J0D01*
G01*
G37*
%TD.AperFunction*%
%TO.P,R19,1*%
%TO.N,OutSignal*%
%TA.AperFunction,SMDPad,CuDef*%
G36*
G01*
X112715000Y-98720000D02*
X113085000Y-98720000D01*
G75*
G02*
X113220000Y-98855000I0J-135000D01*
G01*
X113220000Y-99125000D01*
G75*
G02*
X113085000Y-99260000I-135000J0D01*
G01*
X112715000Y-99260000D01*
G75*
G02*
X112580000Y-99125000I0J135000D01*
G01*
X112580000Y-98855000D01*
G75*
G02*
X112715000Y-98720000I135000J0D01*
G01*
G37*
%TD.AperFunction*%
%TD*%
%TO.P,R18,2*%
%TO.N,Net-(C20-Pad1)*%
%TA.AperFunction,SMDPad,CuDef*%
G36*
G01*
X110685000Y-102830000D02*
X110315000Y-102830000D01*
G75*
G02*
X110180000Y-102695000I0J135000D01*
G01*
X110180000Y-102425000D01*
G75*
G02*
X110315000Y-102290000I135000J0D01*
G01*
X110685000Y-102290000D01*
G75*
G02*
X110820000Y-102425000I0J-135000D01*
G01*
X110820000Y-102695000D01*
G75*
G02*
X110685000Y-102830000I-135000J0D01*
G01*
G37*
%TD.AperFunction*%
%TO.P,R18,1*%
%TO.N,Net-(C19-Pad1)*%
%TA.AperFunction,SMDPad,CuDef*%
G36*
G01*
X110685000Y-103850000D02*
X110315000Y-103850000D01*
G75*
G02*
X110180000Y-103715000I0J135000D01*
G01*
X110180000Y-103445000D01*
G75*
G02*
X110315000Y-103310000I135000J0D01*
G01*
X110685000Y-103310000D01*
G75*
G02*
X110820000Y-103445000I0J-135000D01*
G01*
X110820000Y-103715000D01*
G75*
G02*
X110685000Y-103850000I-135000J0D01*
G01*
G37*
%TD.AperFunction*%
%TD*%
%TO.P,R17,2*%
%TO.N,Net-(C19-Pad1)*%
%TA.AperFunction,SMDPad,CuDef*%
G36*
G01*
X107950000Y-96545000D02*
X107950000Y-96175000D01*
G75*
G02*
X108085000Y-96040000I135000J0D01*
G01*
X108355000Y-96040000D01*
G75*
G02*
X108490000Y-96175000I0J-135000D01*
G01*
X108490000Y-96545000D01*
G75*
G02*
X108355000Y-96680000I-135000J0D01*
G01*
X108085000Y-96680000D01*
G75*
G02*
X107950000Y-96545000I0J135000D01*
G01*
G37*
%TD.AperFunction*%
%TO.P,R17,1*%
%TO.N,Net-(C15-Pad2)*%
%TA.AperFunction,SMDPad,CuDef*%
G36*
G01*
X106930000Y-96545000D02*
X106930000Y-96175000D01*
G75*
G02*
X107065000Y-96040000I135000J0D01*
G01*
X107335000Y-96040000D01*
G75*
G02*
X107470000Y-96175000I0J-135000D01*
G01*
X107470000Y-96545000D01*
G75*
G02*
X107335000Y-96680000I-135000J0D01*
G01*
X107065000Y-96680000D01*
G75*
G02*
X106930000Y-96545000I0J135000D01*
G01*
G37*
%TD.AperFunction*%
%TD*%
%TO.P,R16,2*%
%TO.N,GND*%
%TA.AperFunction,SMDPad,CuDef*%
G36*
G01*
X103285000Y-98130000D02*
X102915000Y-98130000D01*
G75*
G02*
X102780000Y-97995000I0J135000D01*
G01*
X102780000Y-97725000D01*
G75*
G02*
X102915000Y-97590000I135000J0D01*
G01*
X103285000Y-97590000D01*
G75*
G02*
X103420000Y-97725000I0J-135000D01*
G01*
X103420000Y-97995000D01*
G75*
G02*
X103285000Y-98130000I-135000J0D01*
G01*
G37*
%TD.AperFunction*%
%TO.P,R16,1*%
%TO.N,Net-(R15-Pad2)*%
%TA.AperFunction,SMDPad,CuDef*%
G36*
G01*
X103285000Y-99150000D02*
X102915000Y-99150000D01*
G75*
G02*
X102780000Y-99015000I0J135000D01*
G01*
X102780000Y-98745000D01*
G75*
G02*
X102915000Y-98610000I135000J0D01*
G01*
X103285000Y-98610000D01*
G75*
G02*
X103420000Y-98745000I0J-135000D01*
G01*
X103420000Y-99015000D01*
G75*
G02*
X103285000Y-99150000I-135000J0D01*
G01*
G37*
%TD.AperFunction*%
%TD*%
%TO.P,R15,2*%
%TO.N,Net-(R15-Pad2)*%
%TA.AperFunction,SMDPad,CuDef*%
G36*
G01*
X104015000Y-98610000D02*
X104385000Y-98610000D01*
G75*
G02*
X104520000Y-98745000I0J-135000D01*
G01*
X104520000Y-99015000D01*
G75*
G02*
X104385000Y-99150000I-135000J0D01*
G01*
X104015000Y-99150000D01*
G75*
G02*
X103880000Y-99015000I0J135000D01*
G01*
X103880000Y-98745000D01*
G75*
G02*
X104015000Y-98610000I135000J0D01*
G01*
G37*
%TD.AperFunction*%
%TO.P,R15,1*%
%TO.N,Net-(C15-Pad2)*%
%TA.AperFunction,SMDPad,CuDef*%
G36*
G01*
X104015000Y-97590000D02*
X104385000Y-97590000D01*
G75*
G02*
X104520000Y-97725000I0J-135000D01*
G01*
X104520000Y-97995000D01*
G75*
G02*
X104385000Y-98130000I-135000J0D01*
G01*
X104015000Y-98130000D01*
G75*
G02*
X103880000Y-97995000I0J135000D01*
G01*
X103880000Y-97725000D01*
G75*
G02*
X104015000Y-97590000I135000J0D01*
G01*
G37*
%TD.AperFunction*%
%TD*%
%TO.P,R14,2*%
%TO.N,Net-(C16-Pad1)*%
%TA.AperFunction,SMDPad,CuDef*%
G36*
G01*
X103285000Y-100410000D02*
X102915000Y-100410000D01*
G75*
G02*
X102780000Y-100275000I0J135000D01*
G01*
X102780000Y-100005000D01*
G75*
G02*
X102915000Y-99870000I135000J0D01*
G01*
X103285000Y-99870000D01*
G75*
G02*
X103420000Y-100005000I0J-135000D01*
G01*
X103420000Y-100275000D01*
G75*
G02*
X103285000Y-100410000I-135000J0D01*
G01*
G37*
%TD.AperFunction*%
%TO.P,R14,1*%
%TO.N,Net-(C15-Pad1)*%
%TA.AperFunction,SMDPad,CuDef*%
G36*
G01*
X103285000Y-101430000D02*
X102915000Y-101430000D01*
G75*
G02*
X102780000Y-101295000I0J135000D01*
G01*
X102780000Y-101025000D01*
G75*
G02*
X102915000Y-100890000I135000J0D01*
G01*
X103285000Y-100890000D01*
G75*
G02*
X103420000Y-101025000I0J-135000D01*
G01*
X103420000Y-101295000D01*
G75*
G02*
X103285000Y-101430000I-135000J0D01*
G01*
G37*
%TD.AperFunction*%
%TD*%
%TO.P,R13,2*%
%TO.N,Net-(C15-Pad1)*%
%TA.AperFunction,SMDPad,CuDef*%
G36*
G01*
X101815000Y-100890000D02*
X102185000Y-100890000D01*
G75*
G02*
X102320000Y-101025000I0J-135000D01*
G01*
X102320000Y-101295000D01*
G75*
G02*
X102185000Y-101430000I-135000J0D01*
G01*
X101815000Y-101430000D01*
G75*
G02*
X101680000Y-101295000I0J135000D01*
G01*
X101680000Y-101025000D01*
G75*
G02*
X101815000Y-100890000I135000J0D01*
G01*
G37*
%TD.AperFunction*%
%TO.P,R13,1*%
%TO.N,Net-(C14-Pad2)*%
%TA.AperFunction,SMDPad,CuDef*%
G36*
G01*
X101815000Y-99870000D02*
X102185000Y-99870000D01*
G75*
G02*
X102320000Y-100005000I0J-135000D01*
G01*
X102320000Y-100275000D01*
G75*
G02*
X102185000Y-100410000I-135000J0D01*
G01*
X101815000Y-100410000D01*
G75*
G02*
X101680000Y-100275000I0J135000D01*
G01*
X101680000Y-100005000D01*
G75*
G02*
X101815000Y-99870000I135000J0D01*
G01*
G37*
%TD.AperFunction*%
%TD*%
%TO.P,R12,2*%
%TO.N,Net-(C12-Pad1)*%
%TA.AperFunction,SMDPad,CuDef*%
G36*
G01*
X99845000Y-102810000D02*
X99475000Y-102810000D01*
G75*
G02*
X99340000Y-102675000I0J135000D01*
G01*
X99340000Y-102405000D01*
G75*
G02*
X99475000Y-102270000I135000J0D01*
G01*
X99845000Y-102270000D01*
G75*
G02*
X99980000Y-102405000I0J-135000D01*
G01*
X99980000Y-102675000D01*
G75*
G02*
X99845000Y-102810000I-135000J0D01*
G01*
G37*
%TD.AperFunction*%
%TO.P,R12,1*%
%TO.N,Net-(C14-Pad1)*%
%TA.AperFunction,SMDPad,CuDef*%
G36*
G01*
X99845000Y-103830000D02*
X99475000Y-103830000D01*
G75*
G02*
X99340000Y-103695000I0J135000D01*
G01*
X99340000Y-103425000D01*
G75*
G02*
X99475000Y-103290000I135000J0D01*
G01*
X99845000Y-103290000D01*
G75*
G02*
X99980000Y-103425000I0J-135000D01*
G01*
X99980000Y-103695000D01*
G75*
G02*
X99845000Y-103830000I-135000J0D01*
G01*
G37*
%TD.AperFunction*%
%TD*%
%TO.P,R11,2*%
%TO.N,Net-(C14-Pad1)*%
%TA.AperFunction,SMDPad,CuDef*%
G36*
G01*
X96950000Y-96565000D02*
X96950000Y-96195000D01*
G75*
G02*
X97085000Y-96060000I135000J0D01*
G01*
X97355000Y-96060000D01*
G75*
G02*
X97490000Y-96195000I0J-135000D01*
G01*
X97490000Y-96565000D01*
G75*
G02*
X97355000Y-96700000I-135000J0D01*
G01*
X97085000Y-96700000D01*
G75*
G02*
X96950000Y-96565000I0J135000D01*
G01*
G37*
%TD.AperFunction*%
%TO.P,R11,1*%
%TO.N,Net-(R11-Pad1)*%
%TA.AperFunction,SMDPad,CuDef*%
G36*
G01*
X95930000Y-96565000D02*
X95930000Y-96195000D01*
G75*
G02*
X96065000Y-96060000I135000J0D01*
G01*
X96335000Y-96060000D01*
G75*
G02*
X96470000Y-96195000I0J-135000D01*
G01*
X96470000Y-96565000D01*
G75*
G02*
X96335000Y-96700000I-135000J0D01*
G01*
X96065000Y-96700000D01*
G75*
G02*
X95930000Y-96565000I0J135000D01*
G01*
G37*
%TD.AperFunction*%
%TD*%
%TO.P,R10,2*%
%TO.N,GND*%
%TA.AperFunction,SMDPad,CuDef*%
G36*
G01*
X92485000Y-98130000D02*
X92115000Y-98130000D01*
G75*
G02*
X91980000Y-97995000I0J135000D01*
G01*
X91980000Y-97725000D01*
G75*
G02*
X92115000Y-97590000I135000J0D01*
G01*
X92485000Y-97590000D01*
G75*
G02*
X92620000Y-97725000I0J-135000D01*
G01*
X92620000Y-97995000D01*
G75*
G02*
X92485000Y-98130000I-135000J0D01*
G01*
G37*
%TD.AperFunction*%
%TO.P,R10,1*%
%TO.N,Net-(R10-Pad1)*%
%TA.AperFunction,SMDPad,CuDef*%
G36*
G01*
X92485000Y-99150000D02*
X92115000Y-99150000D01*
G75*
G02*
X91980000Y-99015000I0J135000D01*
G01*
X91980000Y-98745000D01*
G75*
G02*
X92115000Y-98610000I135000J0D01*
G01*
X92485000Y-98610000D01*
G75*
G02*
X92620000Y-98745000I0J-135000D01*
G01*
X92620000Y-99015000D01*
G75*
G02*
X92485000Y-99150000I-135000J0D01*
G01*
G37*
%TD.AperFunction*%
%TD*%
%TO.P,R9,2*%
%TO.N,Net-(R10-Pad1)*%
%TA.AperFunction,SMDPad,CuDef*%
G36*
G01*
X93215000Y-98610000D02*
X93585000Y-98610000D01*
G75*
G02*
X93720000Y-98745000I0J-135000D01*
G01*
X93720000Y-99015000D01*
G75*
G02*
X93585000Y-99150000I-135000J0D01*
G01*
X93215000Y-99150000D01*
G75*
G02*
X93080000Y-99015000I0J135000D01*
G01*
X93080000Y-98745000D01*
G75*
G02*
X93215000Y-98610000I135000J0D01*
G01*
G37*
%TD.AperFunction*%
%TO.P,R9,1*%
%TO.N,Net-(R11-Pad1)*%
%TA.AperFunction,SMDPad,CuDef*%
G36*
G01*
X93215000Y-97590000D02*
X93585000Y-97590000D01*
G75*
G02*
X93720000Y-97725000I0J-135000D01*
G01*
X93720000Y-97995000D01*
G75*
G02*
X93585000Y-98130000I-135000J0D01*
G01*
X93215000Y-98130000D01*
G75*
G02*
X93080000Y-97995000I0J135000D01*
G01*
X93080000Y-97725000D01*
G75*
G02*
X93215000Y-97590000I135000J0D01*
G01*
G37*
%TD.AperFunction*%
%TD*%
%TO.P,R8,2*%
%TO.N,SubSignal*%
%TA.AperFunction,SMDPad,CuDef*%
G36*
G01*
X91460000Y-99965000D02*
X91460000Y-100335000D01*
G75*
G02*
X91325000Y-100470000I-135000J0D01*
G01*
X91055000Y-100470000D01*
G75*
G02*
X90920000Y-100335000I0J135000D01*
G01*
X90920000Y-99965000D01*
G75*
G02*
X91055000Y-99830000I135000J0D01*
G01*
X91325000Y-99830000D01*
G75*
G02*
X91460000Y-99965000I0J-135000D01*
G01*
G37*
%TD.AperFunction*%
%TO.P,R8,1*%
%TO.N,Net-(C11-Pad1)*%
%TA.AperFunction,SMDPad,CuDef*%
G36*
G01*
X92480000Y-99965000D02*
X92480000Y-100335000D01*
G75*
G02*
X92345000Y-100470000I-135000J0D01*
G01*
X92075000Y-100470000D01*
G75*
G02*
X91940000Y-100335000I0J135000D01*
G01*
X91940000Y-99965000D01*
G75*
G02*
X92075000Y-99830000I135000J0D01*
G01*
X92345000Y-99830000D01*
G75*
G02*
X92480000Y-99965000I0J-135000D01*
G01*
G37*
%TD.AperFunction*%
%TD*%
%TO.P,R7,2*%
%TO.N,GND*%
%TA.AperFunction,SMDPad,CuDef*%
G36*
G01*
X91285000Y-98130000D02*
X90915000Y-98130000D01*
G75*
G02*
X90780000Y-97995000I0J135000D01*
G01*
X90780000Y-97725000D01*
G75*
G02*
X90915000Y-97590000I135000J0D01*
G01*
X91285000Y-97590000D01*
G75*
G02*
X91420000Y-97725000I0J-135000D01*
G01*
X91420000Y-97995000D01*
G75*
G02*
X91285000Y-98130000I-135000J0D01*
G01*
G37*
%TD.AperFunction*%
%TO.P,R7,1*%
%TO.N,SubSignal*%
%TA.AperFunction,SMDPad,CuDef*%
G36*
G01*
X91285000Y-99150000D02*
X90915000Y-99150000D01*
G75*
G02*
X90780000Y-99015000I0J135000D01*
G01*
X90780000Y-98745000D01*
G75*
G02*
X90915000Y-98610000I135000J0D01*
G01*
X91285000Y-98610000D01*
G75*
G02*
X91420000Y-98745000I0J-135000D01*
G01*
X91420000Y-99015000D01*
G75*
G02*
X91285000Y-99150000I-135000J0D01*
G01*
G37*
%TD.AperFunction*%
%TD*%
%TO.P,R6,2*%
%TO.N,Signal-*%
%TA.AperFunction,SMDPad,CuDef*%
G36*
G01*
X81015000Y-97300000D02*
X81385000Y-97300000D01*
G75*
G02*
X81520000Y-97435000I0J-135000D01*
G01*
X81520000Y-97705000D01*
G75*
G02*
X81385000Y-97840000I-135000J0D01*
G01*
X81015000Y-97840000D01*
G75*
G02*
X80880000Y-97705000I0J135000D01*
G01*
X80880000Y-97435000D01*
G75*
G02*
X81015000Y-97300000I135000J0D01*
G01*
G37*
%TD.AperFunction*%
%TO.P,R6,1*%
%TO.N,GND*%
%TA.AperFunction,SMDPad,CuDef*%
G36*
G01*
X81015000Y-96280000D02*
X81385000Y-96280000D01*
G75*
G02*
X81520000Y-96415000I0J-135000D01*
G01*
X81520000Y-96685000D01*
G75*
G02*
X81385000Y-96820000I-135000J0D01*
G01*
X81015000Y-96820000D01*
G75*
G02*
X80880000Y-96685000I0J135000D01*
G01*
X80880000Y-96415000D01*
G75*
G02*
X81015000Y-96280000I135000J0D01*
G01*
G37*
%TD.AperFunction*%
%TD*%
%TO.P,R5,2*%
%TO.N,GND*%
%TA.AperFunction,SMDPad,CuDef*%
G36*
G01*
X81015000Y-102140000D02*
X81385000Y-102140000D01*
G75*
G02*
X81520000Y-102275000I0J-135000D01*
G01*
X81520000Y-102545000D01*
G75*
G02*
X81385000Y-102680000I-135000J0D01*
G01*
X81015000Y-102680000D01*
G75*
G02*
X80880000Y-102545000I0J135000D01*
G01*
X80880000Y-102275000D01*
G75*
G02*
X81015000Y-102140000I135000J0D01*
G01*
G37*
%TD.AperFunction*%
%TO.P,R5,1*%
%TO.N,Signal+*%
%TA.AperFunction,SMDPad,CuDef*%
G36*
G01*
X81015000Y-101120000D02*
X81385000Y-101120000D01*
G75*
G02*
X81520000Y-101255000I0J-135000D01*
G01*
X81520000Y-101525000D01*
G75*
G02*
X81385000Y-101660000I-135000J0D01*
G01*
X81015000Y-101660000D01*
G75*
G02*
X80880000Y-101525000I0J135000D01*
G01*
X80880000Y-101255000D01*
G75*
G02*
X81015000Y-101120000I135000J0D01*
G01*
G37*
%TD.AperFunction*%
%TD*%
%TO.P,C20,2*%
%TO.N,GND*%
%TA.AperFunction,SMDPad,CuDef*%
G36*
G01*
X111380000Y-103250000D02*
X111720000Y-103250000D01*
G75*
G02*
X111860000Y-103390000I0J-140000D01*
G01*
X111860000Y-103670000D01*
G75*
G02*
X111720000Y-103810000I-140000J0D01*
G01*
X111380000Y-103810000D01*
G75*
G02*
X111240000Y-103670000I0J140000D01*
G01*
X111240000Y-103390000D01*
G75*
G02*
X111380000Y-103250000I140000J0D01*
G01*
G37*
%TD.AperFunction*%
%TO.P,C20,1*%
%TO.N,Net-(C20-Pad1)*%
%TA.AperFunction,SMDPad,CuDef*%
G36*
G01*
X111380000Y-102290000D02*
X111720000Y-102290000D01*
G75*
G02*
X111860000Y-102430000I0J-140000D01*
G01*
X111860000Y-102710000D01*
G75*
G02*
X111720000Y-102850000I-140000J0D01*
G01*
X111380000Y-102850000D01*
G75*
G02*
X111240000Y-102710000I0J140000D01*
G01*
X111240000Y-102430000D01*
G75*
G02*
X111380000Y-102290000I140000J0D01*
G01*
G37*
%TD.AperFunction*%
%TD*%
%TO.P,C19,2*%
%TO.N,OutSignal*%
%TA.AperFunction,SMDPad,CuDef*%
G36*
G01*
X112730000Y-97600000D02*
X113070000Y-97600000D01*
G75*
G02*
X113210000Y-97740000I0J-140000D01*
G01*
X113210000Y-98020000D01*
G75*
G02*
X113070000Y-98160000I-140000J0D01*
G01*
X112730000Y-98160000D01*
G75*
G02*
X112590000Y-98020000I0J140000D01*
G01*
X112590000Y-97740000D01*
G75*
G02*
X112730000Y-97600000I140000J0D01*
G01*
G37*
%TD.AperFunction*%
%TO.P,C19,1*%
%TO.N,Net-(C19-Pad1)*%
%TA.AperFunction,SMDPad,CuDef*%
G36*
G01*
X112730000Y-96640000D02*
X113070000Y-96640000D01*
G75*
G02*
X113210000Y-96780000I0J-140000D01*
G01*
X113210000Y-97060000D01*
G75*
G02*
X113070000Y-97200000I-140000J0D01*
G01*
X112730000Y-97200000D01*
G75*
G02*
X112590000Y-97060000I0J140000D01*
G01*
X112590000Y-96780000D01*
G75*
G02*
X112730000Y-96640000I140000J0D01*
G01*
G37*
%TD.AperFunction*%
%TD*%
%TO.P,C16,2*%
%TO.N,GND*%
%TA.AperFunction,SMDPad,CuDef*%
G36*
G01*
X104030000Y-100850000D02*
X104370000Y-100850000D01*
G75*
G02*
X104510000Y-100990000I0J-140000D01*
G01*
X104510000Y-101270000D01*
G75*
G02*
X104370000Y-101410000I-140000J0D01*
G01*
X104030000Y-101410000D01*
G75*
G02*
X103890000Y-101270000I0J140000D01*
G01*
X103890000Y-100990000D01*
G75*
G02*
X104030000Y-100850000I140000J0D01*
G01*
G37*
%TD.AperFunction*%
%TO.P,C16,1*%
%TO.N,Net-(C16-Pad1)*%
%TA.AperFunction,SMDPad,CuDef*%
G36*
G01*
X104030000Y-99890000D02*
X104370000Y-99890000D01*
G75*
G02*
X104510000Y-100030000I0J-140000D01*
G01*
X104510000Y-100310000D01*
G75*
G02*
X104370000Y-100450000I-140000J0D01*
G01*
X104030000Y-100450000D01*
G75*
G02*
X103890000Y-100310000I0J140000D01*
G01*
X103890000Y-100030000D01*
G75*
G02*
X104030000Y-99890000I140000J0D01*
G01*
G37*
%TD.AperFunction*%
%TD*%
%TO.P,C15,2*%
%TO.N,Net-(C15-Pad2)*%
%TA.AperFunction,SMDPad,CuDef*%
G36*
G01*
X105990000Y-96530000D02*
X105990000Y-96190000D01*
G75*
G02*
X106130000Y-96050000I140000J0D01*
G01*
X106410000Y-96050000D01*
G75*
G02*
X106550000Y-96190000I0J-140000D01*
G01*
X106550000Y-96530000D01*
G75*
G02*
X106410000Y-96670000I-140000J0D01*
G01*
X106130000Y-96670000D01*
G75*
G02*
X105990000Y-96530000I0J140000D01*
G01*
G37*
%TD.AperFunction*%
%TO.P,C15,1*%
%TO.N,Net-(C15-Pad1)*%
%TA.AperFunction,SMDPad,CuDef*%
G36*
G01*
X105030000Y-96530000D02*
X105030000Y-96190000D01*
G75*
G02*
X105170000Y-96050000I140000J0D01*
G01*
X105450000Y-96050000D01*
G75*
G02*
X105590000Y-96190000I0J-140000D01*
G01*
X105590000Y-96530000D01*
G75*
G02*
X105450000Y-96670000I-140000J0D01*
G01*
X105170000Y-96670000D01*
G75*
G02*
X105030000Y-96530000I0J140000D01*
G01*
G37*
%TD.AperFunction*%
%TD*%
%TO.P,C14,2*%
%TO.N,Net-(C14-Pad2)*%
%TA.AperFunction,SMDPad,CuDef*%
G36*
G01*
X101880000Y-98570000D02*
X102220000Y-98570000D01*
G75*
G02*
X102360000Y-98710000I0J-140000D01*
G01*
X102360000Y-98990000D01*
G75*
G02*
X102220000Y-99130000I-140000J0D01*
G01*
X101880000Y-99130000D01*
G75*
G02*
X101740000Y-98990000I0J140000D01*
G01*
X101740000Y-98710000D01*
G75*
G02*
X101880000Y-98570000I140000J0D01*
G01*
G37*
%TD.AperFunction*%
%TO.P,C14,1*%
%TO.N,Net-(C14-Pad1)*%
%TA.AperFunction,SMDPad,CuDef*%
G36*
G01*
X101880000Y-97610000D02*
X102220000Y-97610000D01*
G75*
G02*
X102360000Y-97750000I0J-140000D01*
G01*
X102360000Y-98030000D01*
G75*
G02*
X102220000Y-98170000I-140000J0D01*
G01*
X101880000Y-98170000D01*
G75*
G02*
X101740000Y-98030000I0J140000D01*
G01*
X101740000Y-97750000D01*
G75*
G02*
X101880000Y-97610000I140000J0D01*
G01*
G37*
%TD.AperFunction*%
%TD*%
%TO.P,C13,2*%
%TO.N,GND*%
%TA.AperFunction,SMDPad,CuDef*%
G36*
G01*
X90210000Y-98170000D02*
X89870000Y-98170000D01*
G75*
G02*
X89730000Y-98030000I0J140000D01*
G01*
X89730000Y-97750000D01*
G75*
G02*
X89870000Y-97610000I140000J0D01*
G01*
X90210000Y-97610000D01*
G75*
G02*
X90350000Y-97750000I0J-140000D01*
G01*
X90350000Y-98030000D01*
G75*
G02*
X90210000Y-98170000I-140000J0D01*
G01*
G37*
%TD.AperFunction*%
%TO.P,C13,1*%
%TO.N,SubSignal*%
%TA.AperFunction,SMDPad,CuDef*%
G36*
G01*
X90210000Y-99130000D02*
X89870000Y-99130000D01*
G75*
G02*
X89730000Y-98990000I0J140000D01*
G01*
X89730000Y-98710000D01*
G75*
G02*
X89870000Y-98570000I140000J0D01*
G01*
X90210000Y-98570000D01*
G75*
G02*
X90350000Y-98710000I0J-140000D01*
G01*
X90350000Y-98990000D01*
G75*
G02*
X90210000Y-99130000I-140000J0D01*
G01*
G37*
%TD.AperFunction*%
%TD*%
%TO.P,C12,2*%
%TO.N,GND*%
%TA.AperFunction,SMDPad,CuDef*%
G36*
G01*
X100580000Y-103250000D02*
X100920000Y-103250000D01*
G75*
G02*
X101060000Y-103390000I0J-140000D01*
G01*
X101060000Y-103670000D01*
G75*
G02*
X100920000Y-103810000I-140000J0D01*
G01*
X100580000Y-103810000D01*
G75*
G02*
X100440000Y-103670000I0J140000D01*
G01*
X100440000Y-103390000D01*
G75*
G02*
X100580000Y-103250000I140000J0D01*
G01*
G37*
%TD.AperFunction*%
%TO.P,C12,1*%
%TO.N,Net-(C12-Pad1)*%
%TA.AperFunction,SMDPad,CuDef*%
G36*
G01*
X100580000Y-102290000D02*
X100920000Y-102290000D01*
G75*
G02*
X101060000Y-102430000I0J-140000D01*
G01*
X101060000Y-102710000D01*
G75*
G02*
X100920000Y-102850000I-140000J0D01*
G01*
X100580000Y-102850000D01*
G75*
G02*
X100440000Y-102710000I0J140000D01*
G01*
X100440000Y-102430000D01*
G75*
G02*
X100580000Y-102290000I140000J0D01*
G01*
G37*
%TD.AperFunction*%
%TD*%
%TO.P,C11,2*%
%TO.N,GND*%
%TA.AperFunction,SMDPad,CuDef*%
G36*
G01*
X93230000Y-100850000D02*
X93570000Y-100850000D01*
G75*
G02*
X93710000Y-100990000I0J-140000D01*
G01*
X93710000Y-101270000D01*
G75*
G02*
X93570000Y-101410000I-140000J0D01*
G01*
X93230000Y-101410000D01*
G75*
G02*
X93090000Y-101270000I0J140000D01*
G01*
X93090000Y-100990000D01*
G75*
G02*
X93230000Y-100850000I140000J0D01*
G01*
G37*
%TD.AperFunction*%
%TO.P,C11,1*%
%TO.N,Net-(C11-Pad1)*%
%TA.AperFunction,SMDPad,CuDef*%
G36*
G01*
X93230000Y-99890000D02*
X93570000Y-99890000D01*
G75*
G02*
X93710000Y-100030000I0J-140000D01*
G01*
X93710000Y-100310000D01*
G75*
G02*
X93570000Y-100450000I-140000J0D01*
G01*
X93230000Y-100450000D01*
G75*
G02*
X93090000Y-100310000I0J140000D01*
G01*
X93090000Y-100030000D01*
G75*
G02*
X93230000Y-99890000I140000J0D01*
G01*
G37*
%TD.AperFunction*%
%TD*%
%TO.P,C22,2*%
%TO.N,GND*%
%TA.AperFunction,SMDPad,CuDef*%
G36*
G01*
X94765000Y-104580000D02*
X95715000Y-104580000D01*
G75*
G02*
X95965000Y-104830000I0J-250000D01*
G01*
X95965000Y-105330000D01*
G75*
G02*
X95715000Y-105580000I-250000J0D01*
G01*
X94765000Y-105580000D01*
G75*
G02*
X94515000Y-105330000I0J250000D01*
G01*
X94515000Y-104830000D01*
G75*
G02*
X94765000Y-104580000I250000J0D01*
G01*
G37*
%TD.AperFunction*%
%TO.P,C22,1*%
%TO.N,AVEE*%
%TA.AperFunction,SMDPad,CuDef*%
G36*
G01*
X94765000Y-102680000D02*
X95715000Y-102680000D01*
G75*
G02*
X95965000Y-102930000I0J-250000D01*
G01*
X95965000Y-103430000D01*
G75*
G02*
X95715000Y-103680000I-250000J0D01*
G01*
X94765000Y-103680000D01*
G75*
G02*
X94515000Y-103430000I0J250000D01*
G01*
X94515000Y-102930000D01*
G75*
G02*
X94765000Y-102680000I250000J0D01*
G01*
G37*
%TD.AperFunction*%
%TD*%
%TO.P,C21,2*%
%TO.N,AVCC*%
%TA.AperFunction,SMDPad,CuDef*%
G36*
G01*
X99675000Y-95110000D02*
X100625000Y-95110000D01*
G75*
G02*
X100875000Y-95360000I0J-250000D01*
G01*
X100875000Y-95860000D01*
G75*
G02*
X100625000Y-96110000I-250000J0D01*
G01*
X99675000Y-96110000D01*
G75*
G02*
X99425000Y-95860000I0J250000D01*
G01*
X99425000Y-95360000D01*
G75*
G02*
X99675000Y-95110000I250000J0D01*
G01*
G37*
%TD.AperFunction*%
%TO.P,C21,1*%
%TO.N,GND*%
%TA.AperFunction,SMDPad,CuDef*%
G36*
G01*
X99675000Y-93210000D02*
X100625000Y-93210000D01*
G75*
G02*
X100875000Y-93460000I0J-250000D01*
G01*
X100875000Y-93960000D01*
G75*
G02*
X100625000Y-94210000I-250000J0D01*
G01*
X99675000Y-94210000D01*
G75*
G02*
X99425000Y-93960000I0J250000D01*
G01*
X99425000Y-93460000D01*
G75*
G02*
X99675000Y-93210000I250000J0D01*
G01*
G37*
%TD.AperFunction*%
%TD*%
%TO.P,C18,2*%
%TO.N,GND*%
%TA.AperFunction,SMDPad,CuDef*%
G36*
G01*
X105555000Y-104580000D02*
X106505000Y-104580000D01*
G75*
G02*
X106755000Y-104830000I0J-250000D01*
G01*
X106755000Y-105330000D01*
G75*
G02*
X106505000Y-105580000I-250000J0D01*
G01*
X105555000Y-105580000D01*
G75*
G02*
X105305000Y-105330000I0J250000D01*
G01*
X105305000Y-104830000D01*
G75*
G02*
X105555000Y-104580000I250000J0D01*
G01*
G37*
%TD.AperFunction*%
%TO.P,C18,1*%
%TO.N,AVEE*%
%TA.AperFunction,SMDPad,CuDef*%
G36*
G01*
X105555000Y-102680000D02*
X106505000Y-102680000D01*
G75*
G02*
X106755000Y-102930000I0J-250000D01*
G01*
X106755000Y-103430000D01*
G75*
G02*
X106505000Y-103680000I-250000J0D01*
G01*
X105555000Y-103680000D01*
G75*
G02*
X105305000Y-103430000I0J250000D01*
G01*
X105305000Y-102930000D01*
G75*
G02*
X105555000Y-102680000I250000J0D01*
G01*
G37*
%TD.AperFunction*%
%TD*%
%TO.P,C17,2*%
%TO.N,AVCC*%
%TA.AperFunction,SMDPad,CuDef*%
G36*
G01*
X110485000Y-95110000D02*
X111435000Y-95110000D01*
G75*
G02*
X111685000Y-95360000I0J-250000D01*
G01*
X111685000Y-95860000D01*
G75*
G02*
X111435000Y-96110000I-250000J0D01*
G01*
X110485000Y-96110000D01*
G75*
G02*
X110235000Y-95860000I0J250000D01*
G01*
X110235000Y-95360000D01*
G75*
G02*
X110485000Y-95110000I250000J0D01*
G01*
G37*
%TD.AperFunction*%
%TO.P,C17,1*%
%TO.N,GND*%
%TA.AperFunction,SMDPad,CuDef*%
G36*
G01*
X110485000Y-93210000D02*
X111435000Y-93210000D01*
G75*
G02*
X111685000Y-93460000I0J-250000D01*
G01*
X111685000Y-93960000D01*
G75*
G02*
X111435000Y-94210000I-250000J0D01*
G01*
X110485000Y-94210000D01*
G75*
G02*
X110235000Y-93960000I0J250000D01*
G01*
X110235000Y-93460000D01*
G75*
G02*
X110485000Y-93210000I250000J0D01*
G01*
G37*
%TD.AperFunction*%
%TD*%
%TO.P,C10,2*%
%TO.N,AVEE*%
%TA.AperFunction,SMDPad,CuDef*%
G36*
G01*
X88575000Y-103680000D02*
X87625000Y-103680000D01*
G75*
G02*
X87375000Y-103430000I0J250000D01*
G01*
X87375000Y-102930000D01*
G75*
G02*
X87625000Y-102680000I250000J0D01*
G01*
X88575000Y-102680000D01*
G75*
G02*
X88825000Y-102930000I0J-250000D01*
G01*
X88825000Y-103430000D01*
G75*
G02*
X88575000Y-103680000I-250000J0D01*
G01*
G37*
%TD.AperFunction*%
%TO.P,C10,1*%
%TO.N,GND*%
%TA.AperFunction,SMDPad,CuDef*%
G36*
G01*
X88575000Y-105580000D02*
X87625000Y-105580000D01*
G75*
G02*
X87375000Y-105330000I0J250000D01*
G01*
X87375000Y-104830000D01*
G75*
G02*
X87625000Y-104580000I250000J0D01*
G01*
X88575000Y-104580000D01*
G75*
G02*
X88825000Y-104830000I0J-250000D01*
G01*
X88825000Y-105330000D01*
G75*
G02*
X88575000Y-105580000I-250000J0D01*
G01*
G37*
%TD.AperFunction*%
%TD*%
%TO.P,C9,2*%
%TO.N,GND*%
%TA.AperFunction,SMDPad,CuDef*%
G36*
G01*
X88625000Y-94210000D02*
X87675000Y-94210000D01*
G75*
G02*
X87425000Y-93960000I0J250000D01*
G01*
X87425000Y-93460000D01*
G75*
G02*
X87675000Y-93210000I250000J0D01*
G01*
X88625000Y-93210000D01*
G75*
G02*
X88875000Y-93460000I0J-250000D01*
G01*
X88875000Y-93960000D01*
G75*
G02*
X88625000Y-94210000I-250000J0D01*
G01*
G37*
%TD.AperFunction*%
%TO.P,C9,1*%
%TO.N,AVCC*%
%TA.AperFunction,SMDPad,CuDef*%
G36*
G01*
X88625000Y-96110000D02*
X87675000Y-96110000D01*
G75*
G02*
X87425000Y-95860000I0J250000D01*
G01*
X87425000Y-95360000D01*
G75*
G02*
X87675000Y-95110000I250000J0D01*
G01*
X88625000Y-95110000D01*
G75*
G02*
X88875000Y-95360000I0J-250000D01*
G01*
X88875000Y-95860000D01*
G75*
G02*
X88625000Y-96110000I-250000J0D01*
G01*
G37*
%TD.AperFunction*%
%TD*%
D12*
%TO.P,U5,9*%
%TO.N,N/C*%
X108500000Y-99500000D03*
%TO.P,U5,8*%
%TO.N,AVCC*%
%TA.AperFunction,SMDPad,CuDef*%
G36*
G01*
X110000000Y-97745000D02*
X110000000Y-97445000D01*
G75*
G02*
X110150000Y-97295000I150000J0D01*
G01*
X111800000Y-97295000D01*
G75*
G02*
X111950000Y-97445000I0J-150000D01*
G01*
X111950000Y-97745000D01*
G75*
G02*
X111800000Y-97895000I-150000J0D01*
G01*
X110150000Y-97895000D01*
G75*
G02*
X110000000Y-97745000I0J150000D01*
G01*
G37*
%TD.AperFunction*%
%TO.P,U5,7*%
%TO.N,OutSignal*%
%TA.AperFunction,SMDPad,CuDef*%
G36*
G01*
X110000000Y-99015000D02*
X110000000Y-98715000D01*
G75*
G02*
X110150000Y-98565000I150000J0D01*
G01*
X111800000Y-98565000D01*
G75*
G02*
X111950000Y-98715000I0J-150000D01*
G01*
X111950000Y-99015000D01*
G75*
G02*
X111800000Y-99165000I-150000J0D01*
G01*
X110150000Y-99165000D01*
G75*
G02*
X110000000Y-99015000I0J150000D01*
G01*
G37*
%TD.AperFunction*%
%TO.P,U5,6*%
%TO.N,Net-(R19-Pad2)*%
%TA.AperFunction,SMDPad,CuDef*%
G36*
G01*
X110000000Y-100285000D02*
X110000000Y-99985000D01*
G75*
G02*
X110150000Y-99835000I150000J0D01*
G01*
X111800000Y-99835000D01*
G75*
G02*
X111950000Y-99985000I0J-150000D01*
G01*
X111950000Y-100285000D01*
G75*
G02*
X111800000Y-100435000I-150000J0D01*
G01*
X110150000Y-100435000D01*
G75*
G02*
X110000000Y-100285000I0J150000D01*
G01*
G37*
%TD.AperFunction*%
%TO.P,U5,5*%
%TO.N,Net-(C20-Pad1)*%
%TA.AperFunction,SMDPad,CuDef*%
G36*
G01*
X110000000Y-101555000D02*
X110000000Y-101255000D01*
G75*
G02*
X110150000Y-101105000I150000J0D01*
G01*
X111800000Y-101105000D01*
G75*
G02*
X111950000Y-101255000I0J-150000D01*
G01*
X111950000Y-101555000D01*
G75*
G02*
X111800000Y-101705000I-150000J0D01*
G01*
X110150000Y-101705000D01*
G75*
G02*
X110000000Y-101555000I0J150000D01*
G01*
G37*
%TD.AperFunction*%
%TO.P,U5,4*%
%TO.N,AVEE*%
%TA.AperFunction,SMDPad,CuDef*%
G36*
G01*
X105050000Y-101555000D02*
X105050000Y-101255000D01*
G75*
G02*
X105200000Y-101105000I150000J0D01*
G01*
X106850000Y-101105000D01*
G75*
G02*
X107000000Y-101255000I0J-150000D01*
G01*
X107000000Y-101555000D01*
G75*
G02*
X106850000Y-101705000I-150000J0D01*
G01*
X105200000Y-101705000D01*
G75*
G02*
X105050000Y-101555000I0J150000D01*
G01*
G37*
%TD.AperFunction*%
%TO.P,U5,3*%
%TO.N,Net-(C16-Pad1)*%
%TA.AperFunction,SMDPad,CuDef*%
G36*
G01*
X105050000Y-100285000D02*
X105050000Y-99985000D01*
G75*
G02*
X105200000Y-99835000I150000J0D01*
G01*
X106850000Y-99835000D01*
G75*
G02*
X107000000Y-99985000I0J-150000D01*
G01*
X107000000Y-100285000D01*
G75*
G02*
X106850000Y-100435000I-150000J0D01*
G01*
X105200000Y-100435000D01*
G75*
G02*
X105050000Y-100285000I0J150000D01*
G01*
G37*
%TD.AperFunction*%
%TO.P,U5,2*%
%TO.N,Net-(R15-Pad2)*%
%TA.AperFunction,SMDPad,CuDef*%
G36*
G01*
X105050000Y-99015000D02*
X105050000Y-98715000D01*
G75*
G02*
X105200000Y-98565000I150000J0D01*
G01*
X106850000Y-98565000D01*
G75*
G02*
X107000000Y-98715000I0J-150000D01*
G01*
X107000000Y-99015000D01*
G75*
G02*
X106850000Y-99165000I-150000J0D01*
G01*
X105200000Y-99165000D01*
G75*
G02*
X105050000Y-99015000I0J150000D01*
G01*
G37*
%TD.AperFunction*%
%TO.P,U5,1*%
%TO.N,Net-(C15-Pad2)*%
%TA.AperFunction,SMDPad,CuDef*%
G36*
G01*
X105050000Y-97745000D02*
X105050000Y-97445000D01*
G75*
G02*
X105200000Y-97295000I150000J0D01*
G01*
X106850000Y-97295000D01*
G75*
G02*
X107000000Y-97445000I0J-150000D01*
G01*
X107000000Y-97745000D01*
G75*
G02*
X106850000Y-97895000I-150000J0D01*
G01*
X105200000Y-97895000D01*
G75*
G02*
X105050000Y-97745000I0J150000D01*
G01*
G37*
%TD.AperFunction*%
%TD*%
%TO.P,U4,1*%
%TO.N,Net-(R11-Pad1)*%
%TA.AperFunction,SMDPad,CuDef*%
G36*
G01*
X94250000Y-97745000D02*
X94250000Y-97445000D01*
G75*
G02*
X94400000Y-97295000I150000J0D01*
G01*
X96050000Y-97295000D01*
G75*
G02*
X96200000Y-97445000I0J-150000D01*
G01*
X96200000Y-97745000D01*
G75*
G02*
X96050000Y-97895000I-150000J0D01*
G01*
X94400000Y-97895000D01*
G75*
G02*
X94250000Y-97745000I0J150000D01*
G01*
G37*
%TD.AperFunction*%
%TO.P,U4,2*%
%TO.N,Net-(R10-Pad1)*%
%TA.AperFunction,SMDPad,CuDef*%
G36*
G01*
X94250000Y-99015000D02*
X94250000Y-98715000D01*
G75*
G02*
X94400000Y-98565000I150000J0D01*
G01*
X96050000Y-98565000D01*
G75*
G02*
X96200000Y-98715000I0J-150000D01*
G01*
X96200000Y-99015000D01*
G75*
G02*
X96050000Y-99165000I-150000J0D01*
G01*
X94400000Y-99165000D01*
G75*
G02*
X94250000Y-99015000I0J150000D01*
G01*
G37*
%TD.AperFunction*%
%TO.P,U4,3*%
%TO.N,Net-(C11-Pad1)*%
%TA.AperFunction,SMDPad,CuDef*%
G36*
G01*
X94250000Y-100285000D02*
X94250000Y-99985000D01*
G75*
G02*
X94400000Y-99835000I150000J0D01*
G01*
X96050000Y-99835000D01*
G75*
G02*
X96200000Y-99985000I0J-150000D01*
G01*
X96200000Y-100285000D01*
G75*
G02*
X96050000Y-100435000I-150000J0D01*
G01*
X94400000Y-100435000D01*
G75*
G02*
X94250000Y-100285000I0J150000D01*
G01*
G37*
%TD.AperFunction*%
%TO.P,U4,4*%
%TO.N,AVEE*%
%TA.AperFunction,SMDPad,CuDef*%
G36*
G01*
X94250000Y-101555000D02*
X94250000Y-101255000D01*
G75*
G02*
X94400000Y-101105000I150000J0D01*
G01*
X96050000Y-101105000D01*
G75*
G02*
X96200000Y-101255000I0J-150000D01*
G01*
X96200000Y-101555000D01*
G75*
G02*
X96050000Y-101705000I-150000J0D01*
G01*
X94400000Y-101705000D01*
G75*
G02*
X94250000Y-101555000I0J150000D01*
G01*
G37*
%TD.AperFunction*%
%TO.P,U4,5*%
%TO.N,Net-(C12-Pad1)*%
%TA.AperFunction,SMDPad,CuDef*%
G36*
G01*
X99200000Y-101555000D02*
X99200000Y-101255000D01*
G75*
G02*
X99350000Y-101105000I150000J0D01*
G01*
X101000000Y-101105000D01*
G75*
G02*
X101150000Y-101255000I0J-150000D01*
G01*
X101150000Y-101555000D01*
G75*
G02*
X101000000Y-101705000I-150000J0D01*
G01*
X99350000Y-101705000D01*
G75*
G02*
X99200000Y-101555000I0J150000D01*
G01*
G37*
%TD.AperFunction*%
%TO.P,U4,6*%
%TO.N,Net-(C14-Pad2)*%
%TA.AperFunction,SMDPad,CuDef*%
G36*
G01*
X99200000Y-100285000D02*
X99200000Y-99985000D01*
G75*
G02*
X99350000Y-99835000I150000J0D01*
G01*
X101000000Y-99835000D01*
G75*
G02*
X101150000Y-99985000I0J-150000D01*
G01*
X101150000Y-100285000D01*
G75*
G02*
X101000000Y-100435000I-150000J0D01*
G01*
X99350000Y-100435000D01*
G75*
G02*
X99200000Y-100285000I0J150000D01*
G01*
G37*
%TD.AperFunction*%
%TO.P,U4,7*%
%TA.AperFunction,SMDPad,CuDef*%
G36*
G01*
X99200000Y-99015000D02*
X99200000Y-98715000D01*
G75*
G02*
X99350000Y-98565000I150000J0D01*
G01*
X101000000Y-98565000D01*
G75*
G02*
X101150000Y-98715000I0J-150000D01*
G01*
X101150000Y-99015000D01*
G75*
G02*
X101000000Y-99165000I-150000J0D01*
G01*
X99350000Y-99165000D01*
G75*
G02*
X99200000Y-99015000I0J150000D01*
G01*
G37*
%TD.AperFunction*%
%TO.P,U4,8*%
%TO.N,AVCC*%
%TA.AperFunction,SMDPad,CuDef*%
G36*
G01*
X99200000Y-97745000D02*
X99200000Y-97445000D01*
G75*
G02*
X99350000Y-97295000I150000J0D01*
G01*
X101000000Y-97295000D01*
G75*
G02*
X101150000Y-97445000I0J-150000D01*
G01*
X101150000Y-97745000D01*
G75*
G02*
X101000000Y-97895000I-150000J0D01*
G01*
X99350000Y-97895000D01*
G75*
G02*
X99200000Y-97745000I0J150000D01*
G01*
G37*
%TD.AperFunction*%
%TO.P,U4,9*%
%TO.N,N/C*%
X97700000Y-99500000D03*
%TD*%
D13*
%TO.P,J4,2*%
%TO.N,GND*%
X117460000Y-102040000D03*
X117460000Y-96960000D03*
X122540000Y-96960000D03*
X122540000Y-102040000D03*
D14*
%TO.P,J4,1*%
%TO.N,OutSignal*%
X120000000Y-99500000D03*
%TD*%
D15*
%TO.P,J3,3*%
%TO.N,Signal-*%
X73900000Y-96945000D03*
%TO.P,J3,2*%
%TO.N,GND*%
X73900000Y-99485000D03*
D11*
%TO.P,J3,1*%
%TO.N,Signal+*%
X73900000Y-102025000D03*
%TD*%
%TO.P,U3,8*%
%TO.N,AVCC*%
%TA.AperFunction,SMDPad,CuDef*%
G36*
G01*
X87150000Y-97745000D02*
X87150000Y-97445000D01*
G75*
G02*
X87300000Y-97295000I150000J0D01*
G01*
X88950000Y-97295000D01*
G75*
G02*
X89100000Y-97445000I0J-150000D01*
G01*
X89100000Y-97745000D01*
G75*
G02*
X88950000Y-97895000I-150000J0D01*
G01*
X87300000Y-97895000D01*
G75*
G02*
X87150000Y-97745000I0J150000D01*
G01*
G37*
%TD.AperFunction*%
%TO.P,U3,7*%
%TO.N,SubSignal*%
%TA.AperFunction,SMDPad,CuDef*%
G36*
G01*
X87150000Y-99015000D02*
X87150000Y-98715000D01*
G75*
G02*
X87300000Y-98565000I150000J0D01*
G01*
X88950000Y-98565000D01*
G75*
G02*
X89100000Y-98715000I0J-150000D01*
G01*
X89100000Y-99015000D01*
G75*
G02*
X88950000Y-99165000I-150000J0D01*
G01*
X87300000Y-99165000D01*
G75*
G02*
X87150000Y-99015000I0J150000D01*
G01*
G37*
%TD.AperFunction*%
%TO.P,U3,6*%
%TO.N,GND*%
%TA.AperFunction,SMDPad,CuDef*%
G36*
G01*
X87150000Y-100285000D02*
X87150000Y-99985000D01*
G75*
G02*
X87300000Y-99835000I150000J0D01*
G01*
X88950000Y-99835000D01*
G75*
G02*
X89100000Y-99985000I0J-150000D01*
G01*
X89100000Y-100285000D01*
G75*
G02*
X88950000Y-100435000I-150000J0D01*
G01*
X87300000Y-100435000D01*
G75*
G02*
X87150000Y-100285000I0J150000D01*
G01*
G37*
%TD.AperFunction*%
%TO.P,U3,5*%
%TO.N,AVEE*%
%TA.AperFunction,SMDPad,CuDef*%
G36*
G01*
X87150000Y-101555000D02*
X87150000Y-101255000D01*
G75*
G02*
X87300000Y-101105000I150000J0D01*
G01*
X88950000Y-101105000D01*
G75*
G02*
X89100000Y-101255000I0J-150000D01*
G01*
X89100000Y-101555000D01*
G75*
G02*
X88950000Y-101705000I-150000J0D01*
G01*
X87300000Y-101705000D01*
G75*
G02*
X87150000Y-101555000I0J150000D01*
G01*
G37*
%TD.AperFunction*%
%TO.P,U3,4*%
%TO.N,Signal+*%
%TA.AperFunction,SMDPad,CuDef*%
G36*
G01*
X82200000Y-101555000D02*
X82200000Y-101255000D01*
G75*
G02*
X82350000Y-101105000I150000J0D01*
G01*
X84000000Y-101105000D01*
G75*
G02*
X84150000Y-101255000I0J-150000D01*
G01*
X84150000Y-101555000D01*
G75*
G02*
X84000000Y-101705000I-150000J0D01*
G01*
X82350000Y-101705000D01*
G75*
G02*
X82200000Y-101555000I0J150000D01*
G01*
G37*
%TD.AperFunction*%
%TO.P,U3,3*%
%TO.N,Net-(J5-Pad1)*%
%TA.AperFunction,SMDPad,CuDef*%
G36*
G01*
X82200000Y-100285000D02*
X82200000Y-99985000D01*
G75*
G02*
X82350000Y-99835000I150000J0D01*
G01*
X84000000Y-99835000D01*
G75*
G02*
X84150000Y-99985000I0J-150000D01*
G01*
X84150000Y-100285000D01*
G75*
G02*
X84000000Y-100435000I-150000J0D01*
G01*
X82350000Y-100435000D01*
G75*
G02*
X82200000Y-100285000I0J150000D01*
G01*
G37*
%TD.AperFunction*%
%TO.P,U3,2*%
%TO.N,Net-(J2-Pad1)*%
%TA.AperFunction,SMDPad,CuDef*%
G36*
G01*
X82200000Y-99015000D02*
X82200000Y-98715000D01*
G75*
G02*
X82350000Y-98565000I150000J0D01*
G01*
X84000000Y-98565000D01*
G75*
G02*
X84150000Y-98715000I0J-150000D01*
G01*
X84150000Y-99015000D01*
G75*
G02*
X84000000Y-99165000I-150000J0D01*
G01*
X82350000Y-99165000D01*
G75*
G02*
X82200000Y-99015000I0J150000D01*
G01*
G37*
%TD.AperFunction*%
%TO.P,U3,1*%
%TO.N,Signal-*%
%TA.AperFunction,SMDPad,CuDef*%
G36*
G01*
X82200000Y-97745000D02*
X82200000Y-97445000D01*
G75*
G02*
X82350000Y-97295000I150000J0D01*
G01*
X84000000Y-97295000D01*
G75*
G02*
X84150000Y-97445000I0J-150000D01*
G01*
X84150000Y-97745000D01*
G75*
G02*
X84000000Y-97895000I-150000J0D01*
G01*
X82350000Y-97895000D01*
G75*
G02*
X82200000Y-97745000I0J150000D01*
G01*
G37*
%TD.AperFunction*%
%TD*%
D16*
%TO.N,GND*%
X136390001Y-96300000D03*
X136390001Y-95700000D03*
X136390000Y-95099999D03*
X135390001Y-96300000D03*
X135390001Y-95700000D03*
X135390000Y-95099999D03*
X136390001Y-103800000D03*
X136390001Y-102600000D03*
X135390000Y-103799999D03*
X135390001Y-102600000D03*
X136390001Y-103200000D03*
X135390001Y-103200000D03*
X72300000Y-106000000D03*
X73300000Y-106000000D03*
X74300000Y-106000000D03*
X75300000Y-106000000D03*
X76300000Y-106000000D03*
X77300000Y-106000000D03*
X78300000Y-106000000D03*
X79300000Y-106000000D03*
X80300000Y-106000000D03*
X81300000Y-106000000D03*
X82300000Y-106000000D03*
X83300000Y-106000000D03*
X84300000Y-106000000D03*
X85300000Y-106000000D03*
X86300000Y-106000000D03*
X87300000Y-106000000D03*
X88300000Y-106000000D03*
X89300000Y-106000000D03*
X90300000Y-106000000D03*
X91300000Y-106000000D03*
X92300000Y-106000000D03*
X93300000Y-106000000D03*
X94300000Y-106000000D03*
X95300000Y-106000000D03*
X96300000Y-106000000D03*
X97300000Y-106000000D03*
X98300000Y-106000000D03*
X99300000Y-106000000D03*
X100300000Y-106000000D03*
X101300000Y-106000000D03*
X102300000Y-106000000D03*
X103300000Y-106000000D03*
X104300000Y-106000000D03*
X105300000Y-106000000D03*
X106300000Y-106000000D03*
X107300000Y-106000000D03*
X108300000Y-106000000D03*
X109300000Y-106000000D03*
X110300000Y-106000000D03*
X111300000Y-106000000D03*
X112300000Y-106000000D03*
X113300000Y-106000000D03*
X114300000Y-106000000D03*
X115300000Y-106000000D03*
X116300000Y-106000000D03*
X117300000Y-106000000D03*
X118300000Y-106000000D03*
X119300000Y-106000000D03*
X120300000Y-106000000D03*
X121300000Y-106000000D03*
X122300000Y-106000000D03*
X125300000Y-106000000D03*
X124300000Y-106000000D03*
X123300000Y-106000000D03*
X124300000Y-93000000D03*
X123300000Y-93000000D03*
X121300000Y-93000000D03*
X122300000Y-93000000D03*
X93300000Y-93000000D03*
X79300000Y-93000000D03*
X102300000Y-93000000D03*
X86300000Y-93000000D03*
X92300000Y-93000000D03*
X105300000Y-93000000D03*
X108300000Y-93000000D03*
X74300000Y-93000000D03*
X90300000Y-93000000D03*
X110300000Y-93000000D03*
X112300000Y-93000000D03*
X113300000Y-93000000D03*
X87300000Y-93000000D03*
X80300000Y-93000000D03*
X114300000Y-93000000D03*
X91300000Y-93000000D03*
X116300000Y-93000000D03*
X85300000Y-93000000D03*
X99300000Y-93000000D03*
X88300000Y-93000000D03*
X76300000Y-93000000D03*
X100300000Y-93000000D03*
X73300000Y-93000000D03*
X72300000Y-93000000D03*
X101300000Y-93000000D03*
X84300000Y-93000000D03*
X104300000Y-93000000D03*
X77300000Y-93000000D03*
X83300000Y-93000000D03*
X96300000Y-93000000D03*
X95300000Y-93000000D03*
X109300000Y-93000000D03*
X111300000Y-93000000D03*
X115300000Y-93000000D03*
X78300000Y-93000000D03*
X117300000Y-93000000D03*
X107300000Y-93000000D03*
X118300000Y-93000000D03*
X75300000Y-93000000D03*
X81300000Y-93000000D03*
X82300000Y-93000000D03*
X89300000Y-93000000D03*
X94300000Y-93000000D03*
X97300000Y-93000000D03*
X98300000Y-93000000D03*
X103300000Y-93000000D03*
X106300000Y-93000000D03*
X120300000Y-93000000D03*
X119300000Y-93000000D03*
X72300000Y-94000000D03*
X125300000Y-93000000D03*
X72300000Y-97000000D03*
X72300000Y-95000000D03*
X72300000Y-96000000D03*
X72300000Y-99000000D03*
X72300000Y-98000000D03*
X72300000Y-103000000D03*
X72300000Y-101000000D03*
X72300000Y-100000000D03*
X72300000Y-102000000D03*
X72300000Y-104000000D03*
X72300000Y-105000000D03*
%TO.N,+18V*%
X139200000Y-94720000D03*
X139200000Y-96679999D03*
%TO.N,-18V*%
X139200000Y-102220000D03*
X139199999Y-104190000D03*
%TO.N,AVCC*%
X100780000Y-96570000D03*
X100160000Y-96570000D03*
X99540000Y-96570000D03*
X129200000Y-94900000D03*
X110350000Y-96570000D03*
X110970000Y-96570000D03*
X111590000Y-96570000D03*
X88145000Y-96570000D03*
X87525000Y-96570000D03*
X88765000Y-96570000D03*
%TO.N,AVEE*%
X129200000Y-103700000D03*
X87490000Y-102120000D03*
X88110000Y-102120000D03*
X88730000Y-102120000D03*
X95230000Y-102200000D03*
X94610000Y-102200000D03*
X95850000Y-102200000D03*
X106030000Y-102170000D03*
X105410000Y-102170000D03*
X106650000Y-102170000D03*
%TO.N,Net-(C14-Pad1)*%
X102050000Y-97370000D03*
X99030000Y-103560000D03*
X97840000Y-96379996D03*
%TO.N,Net-(C15-Pad1)*%
X104750000Y-96360000D03*
X102540000Y-101660000D03*
%TO.N,Net-(C19-Pad1)*%
X112900000Y-96360000D03*
X109880000Y-103570000D03*
X108880000Y-96360000D03*
%TO.N,Net-(J5-Pad1)*%
X81700000Y-100120000D03*
%TO.N,Net-(J2-Pad1)*%
X81700000Y-98880000D03*
%TD*%
D17*
%TO.N,+18V*%
X139200000Y-94720000D02*
X139200000Y-96679999D01*
%TO.N,-18V*%
X139200000Y-104189999D02*
X139199999Y-104190000D01*
X139200000Y-102220000D02*
X139200000Y-104189999D01*
D18*
%TO.N,AVCC*%
X110350000Y-96570000D02*
X111590000Y-96570000D01*
X110350000Y-97410000D02*
X110350000Y-96570000D01*
X111590000Y-97410000D02*
X111590000Y-96570000D01*
X111340000Y-96870000D02*
X110500000Y-96870000D01*
X111390000Y-97260000D02*
X110550000Y-97260000D01*
X110350000Y-96220000D02*
X110960000Y-95610000D01*
X110350000Y-96570000D02*
X110350000Y-96220000D01*
X111590000Y-96240000D02*
X110960000Y-95610000D01*
X111590000Y-96570000D02*
X111590000Y-96240000D01*
X110350000Y-96260000D02*
X111590000Y-96260000D01*
X100760000Y-97490000D02*
X100760000Y-96650000D01*
X100560000Y-97340000D02*
X99720000Y-97340000D01*
X100510000Y-96950000D02*
X99670000Y-96950000D01*
X99520000Y-97490000D02*
X99520000Y-96650000D01*
X99520000Y-96650000D02*
X100760000Y-96650000D01*
X99520000Y-96340000D02*
X100760000Y-96340000D01*
X99520000Y-96300000D02*
X100130000Y-95690000D01*
X99520000Y-96650000D02*
X99520000Y-96300000D01*
X100760000Y-96650000D02*
X100760000Y-96320000D01*
X100760000Y-96320000D02*
X100130000Y-95690000D01*
X87500000Y-96610000D02*
X88740000Y-96610000D01*
X87500000Y-97450000D02*
X87500000Y-96610000D01*
X87500000Y-96260000D02*
X88110000Y-95650000D01*
X87500000Y-96610000D02*
X87500000Y-96260000D01*
X88490000Y-96910000D02*
X87650000Y-96910000D01*
X87500000Y-96300000D02*
X88740000Y-96300000D01*
X88740000Y-96610000D02*
X88740000Y-96280000D01*
X88540000Y-97300000D02*
X87700000Y-97300000D01*
X88740000Y-97450000D02*
X88740000Y-96610000D01*
X88740000Y-96280000D02*
X88110000Y-95650000D01*
D17*
X130075000Y-94900000D02*
X130090000Y-94915000D01*
X129200000Y-94900000D02*
X130075000Y-94900000D01*
D18*
%TO.N,AVEE*%
X87700000Y-101590000D02*
X88540000Y-101590000D01*
X87500000Y-101440000D02*
X87500000Y-102280000D01*
X88739999Y-102590000D02*
X87500000Y-102590000D01*
X88739999Y-102280000D02*
X88740000Y-102630000D01*
X88740000Y-102630000D02*
X88130000Y-103240000D01*
X88739999Y-102280000D02*
X87500000Y-102280000D01*
X87750000Y-101980000D02*
X88590000Y-101980000D01*
X87500000Y-102280000D02*
X87500000Y-102610000D01*
X87500000Y-102610000D02*
X88130000Y-103240000D01*
X88740000Y-101440000D02*
X88739999Y-102280000D01*
X95849999Y-102570000D02*
X94610000Y-102570000D01*
X94860000Y-101960000D02*
X95700000Y-101960000D01*
X95849999Y-102260000D02*
X95850000Y-102610000D01*
X95850000Y-102610000D02*
X95240000Y-103220000D01*
X94610000Y-101420000D02*
X94610000Y-102260000D01*
X95849999Y-102260000D02*
X94610000Y-102260000D01*
X94610000Y-102260000D02*
X94610000Y-102590000D01*
X95850000Y-101420000D02*
X95849999Y-102260000D01*
X94810000Y-101570000D02*
X95650000Y-101570000D01*
X94610000Y-102590000D02*
X95240000Y-103220000D01*
X105620000Y-101590000D02*
X106460000Y-101590000D01*
X106660000Y-101440000D02*
X106659999Y-102280000D01*
X106660000Y-102630000D02*
X106050000Y-103240000D01*
X106659999Y-102280000D02*
X105420000Y-102280000D01*
X105420000Y-101440000D02*
X105420000Y-102280000D01*
X106659999Y-102590000D02*
X105420000Y-102590000D01*
X106659999Y-102280000D02*
X106660000Y-102630000D01*
X105420000Y-102610000D02*
X106050000Y-103240000D01*
X105420000Y-102280000D02*
X105420000Y-102610000D01*
X105670000Y-101980000D02*
X106510000Y-101980000D01*
D17*
X130075000Y-103700000D02*
X130090000Y-103685000D01*
X129200000Y-103700000D02*
X130075000Y-103700000D01*
%TO.N,Signal+*%
X81215000Y-101405000D02*
X81200000Y-101390000D01*
X83175000Y-101405000D02*
X81215000Y-101405000D01*
X74535000Y-101390000D02*
X73900000Y-102025000D01*
X81200000Y-101390000D02*
X74535000Y-101390000D01*
X74655000Y-102005000D02*
X75270000Y-101390000D01*
X74400000Y-102020001D02*
X75015000Y-101405001D01*
%TO.N,Signal-*%
X81225000Y-97595000D02*
X81200000Y-97570000D01*
X83175000Y-97595000D02*
X81225000Y-97595000D01*
X74525000Y-97570000D02*
X73900000Y-96945000D01*
X81200000Y-97570000D02*
X74525000Y-97570000D01*
X75600000Y-97570000D02*
X73650000Y-97570000D01*
X74195000Y-96945000D02*
X73900000Y-96945000D01*
X74810000Y-97560000D02*
X74195000Y-96945000D01*
X75100000Y-97540000D02*
X74485000Y-96925000D01*
X75290000Y-97530000D02*
X74675000Y-96915000D01*
D18*
%TO.N,SubSignal*%
X91085000Y-98865000D02*
X91100000Y-98880000D01*
X88125000Y-98865000D02*
X91085000Y-98865000D01*
X91100000Y-100060000D02*
X91190000Y-100150000D01*
X91100000Y-98880000D02*
X91100000Y-100060000D01*
%TO.N,OutSignal*%
X112775000Y-98865000D02*
X112900000Y-98990000D01*
X110975000Y-98865000D02*
X112775000Y-98865000D01*
X112900000Y-97880000D02*
X112900000Y-98990000D01*
X112100000Y-98850000D02*
X112884889Y-98065111D01*
D19*
X114310000Y-99500000D02*
X120000000Y-99500000D01*
X113790000Y-98980000D02*
X114310000Y-99500000D01*
D18*
X112910000Y-98980000D02*
X113790000Y-98980000D01*
X112900000Y-98990000D02*
X112910000Y-98980000D01*
X112940000Y-98820000D02*
X113820000Y-98820000D01*
X113652254Y-98612254D02*
X113030000Y-97990000D01*
X113920000Y-98890000D02*
X113297746Y-98267746D01*
X113540000Y-98870000D02*
X112917746Y-98247746D01*
%TO.N,Net-(C11-Pad1)*%
X95210000Y-100150000D02*
X95225000Y-100135000D01*
X92210000Y-100150000D02*
X95210000Y-100150000D01*
%TO.N,Net-(C12-Pad1)*%
X99690000Y-102590000D02*
X100750000Y-102590000D01*
X99680000Y-102500000D02*
X99680000Y-101440000D01*
X100730000Y-102550000D02*
X100730000Y-101490000D01*
X100430000Y-102500000D02*
X100430000Y-101440000D01*
X100080000Y-102500000D02*
X100080000Y-101440000D01*
%TO.N,Net-(C14-Pad2)*%
X102035000Y-98865000D02*
X102050000Y-98850000D01*
X100175000Y-98865000D02*
X102035000Y-98865000D01*
X101995000Y-100135000D02*
X102000000Y-100140000D01*
X100175000Y-100135000D02*
X101995000Y-100135000D01*
X99450000Y-98950000D02*
X99450000Y-100049999D01*
X102070000Y-98960000D02*
X102070000Y-100059999D01*
X99970000Y-99240000D02*
X101830000Y-99240000D01*
X99950000Y-99710000D02*
X101810000Y-99710000D01*
X99700000Y-98960000D02*
X99700000Y-100059999D01*
%TO.N,Net-(C14-Pad1)*%
X99660000Y-103560000D02*
X99030000Y-103560000D01*
X97220004Y-96379996D02*
X97220000Y-96380000D01*
X97840000Y-96379996D02*
X97220004Y-96379996D01*
X102050000Y-97370000D02*
X102050000Y-97890000D01*
%TO.N,Net-(C15-Pad2)*%
X104465000Y-97595000D02*
X104200000Y-97860000D01*
X106025000Y-97595000D02*
X104465000Y-97595000D01*
X106485000Y-97595000D02*
X106025000Y-97595000D01*
X107200000Y-96880000D02*
X106485000Y-97595000D01*
X107200000Y-96360000D02*
X107200000Y-96880000D01*
X106270000Y-96360000D02*
X107200000Y-96360000D01*
X106250000Y-97460000D02*
X106250000Y-96530000D01*
X106630000Y-97370000D02*
X106630000Y-96440000D01*
X107130000Y-96520000D02*
X106415000Y-97235000D01*
X106320000Y-96900000D02*
X105605000Y-97615000D01*
%TO.N,Net-(C15-Pad1)*%
X103100000Y-101160000D02*
X103100000Y-101160000D01*
X103100000Y-101160000D02*
X102000000Y-101160000D01*
X102500000Y-101660000D02*
X102000000Y-101160000D01*
X102540000Y-101660000D02*
X102500000Y-101660000D01*
X102600000Y-101660000D02*
X103100000Y-101160000D01*
X102540000Y-101660000D02*
X102600000Y-101660000D01*
X104750000Y-96360000D02*
X105310000Y-96360000D01*
%TO.N,Net-(C16-Pad1)*%
X103105000Y-100135000D02*
X103100000Y-100140000D01*
X106025000Y-100135000D02*
X103105000Y-100135000D01*
%TO.N,Net-(C19-Pad1)*%
X109890000Y-103580000D02*
X109880000Y-103570000D01*
X110500000Y-103580000D02*
X109890000Y-103580000D01*
X108880000Y-96360000D02*
X108220000Y-96360000D01*
X112900000Y-96360000D02*
X112900000Y-96920000D01*
%TO.N,Net-(C20-Pad1)*%
X110490000Y-102550000D02*
X111550000Y-102550000D01*
X110880000Y-102460000D02*
X110880000Y-101400000D01*
X111530000Y-102510000D02*
X111530000Y-101450000D01*
X111230000Y-102460000D02*
X111230000Y-101400000D01*
X110480000Y-102460000D02*
X110480000Y-101400000D01*
X110460000Y-102580000D02*
X110450000Y-102590000D01*
X111560000Y-102580000D02*
X110460000Y-102580000D01*
%TO.N,Net-(R10-Pad1)*%
X92315000Y-98865000D02*
X92300000Y-98880000D01*
X95225000Y-98865000D02*
X92315000Y-98865000D01*
%TO.N,Net-(R11-Pad1)*%
X93665000Y-97595000D02*
X93400000Y-97860000D01*
X95225000Y-97595000D02*
X93665000Y-97595000D01*
X95655000Y-97595000D02*
X95225000Y-97595000D01*
X96200000Y-97050000D02*
X95655000Y-97595000D01*
X96200000Y-96380000D02*
X96200000Y-97050000D01*
%TO.N,Net-(R15-Pad2)*%
X106010000Y-98880000D02*
X106025000Y-98865000D01*
X103100000Y-98880000D02*
X106010000Y-98880000D01*
%TO.N,Net-(R19-Pad2)*%
X112920000Y-100920000D02*
X112135111Y-100135111D01*
X112775000Y-100135000D02*
X112900000Y-100010000D01*
X110975000Y-100135000D02*
X112775000Y-100135000D01*
X112920000Y-100030000D02*
X112900000Y-100010000D01*
X112920000Y-101160000D02*
X112920000Y-100030000D01*
D17*
%TO.N,Net-(D1-Pad1)*%
X130100000Y-95885000D02*
X130100000Y-97795000D01*
%TO.N,Net-(D2-Pad2)*%
X130090000Y-102715000D02*
X130090000Y-100810000D01*
%TO.N,Net-(J5-Pad1)*%
X83160000Y-100120000D02*
X83175000Y-100135000D01*
X81715000Y-100135000D02*
X81700000Y-100120000D01*
X81700000Y-100120000D02*
X83160000Y-100120000D01*
%TO.N,Net-(J2-Pad1)*%
X81715000Y-98865000D02*
X81700000Y-98880000D01*
X83175000Y-98865000D02*
X81715000Y-98865000D01*
%TD*%
D18*
%TO.N,GND*%
X136650000Y-106150000D02*
X72150000Y-106150000D01*
X72150000Y-99229503D01*
X72312428Y-99229503D01*
X72481506Y-99481000D01*
X73896000Y-99481000D01*
X73896000Y-99461000D01*
X73904000Y-99461000D01*
X73904000Y-99481000D01*
X75318494Y-99481000D01*
X75487572Y-99229503D01*
X75464500Y-99113512D01*
X75361965Y-98815431D01*
X75203247Y-98543081D01*
X74994446Y-98306929D01*
X74847345Y-98195000D01*
X80612136Y-98195000D01*
X80660869Y-98234995D01*
X80771070Y-98293898D01*
X80890646Y-98330171D01*
X81015000Y-98342419D01*
X81212276Y-98342419D01*
X81136856Y-98417839D01*
X81057513Y-98536584D01*
X81002861Y-98668525D01*
X80975000Y-98808594D01*
X80975000Y-98951406D01*
X81002861Y-99091475D01*
X81057513Y-99223416D01*
X81136856Y-99342161D01*
X81237839Y-99443144D01*
X81322930Y-99500000D01*
X81237839Y-99556856D01*
X81136856Y-99657839D01*
X81057513Y-99776584D01*
X81002861Y-99908525D01*
X80975000Y-100048594D01*
X80975000Y-100191406D01*
X81002861Y-100331475D01*
X81057513Y-100463416D01*
X81136856Y-100582161D01*
X81172276Y-100617581D01*
X81015000Y-100617581D01*
X80890646Y-100629829D01*
X80771070Y-100666102D01*
X80660869Y-100725005D01*
X80612136Y-100765000D01*
X75300693Y-100765000D01*
X75269999Y-100761977D01*
X75239305Y-100765000D01*
X75038568Y-100765000D01*
X75029129Y-100757254D01*
X74942267Y-100710825D01*
X74934702Y-100708530D01*
X74994446Y-100663071D01*
X75203247Y-100426919D01*
X75361965Y-100154569D01*
X75464500Y-99856488D01*
X75487572Y-99740497D01*
X75318494Y-99489000D01*
X73904000Y-99489000D01*
X73904000Y-99509000D01*
X73896000Y-99509000D01*
X73896000Y-99489000D01*
X72481506Y-99489000D01*
X72312428Y-99740497D01*
X72335500Y-99856488D01*
X72438035Y-100154569D01*
X72596753Y-100426919D01*
X72805554Y-100663071D01*
X72865298Y-100708530D01*
X72857733Y-100710825D01*
X72770871Y-100757254D01*
X72694736Y-100819736D01*
X72632254Y-100895871D01*
X72585825Y-100982733D01*
X72557235Y-101076983D01*
X72547581Y-101175000D01*
X72547581Y-102875000D01*
X72557235Y-102973017D01*
X72585825Y-103067267D01*
X72632254Y-103154129D01*
X72694736Y-103230264D01*
X72770871Y-103292746D01*
X72857733Y-103339175D01*
X72951983Y-103367765D01*
X73050000Y-103377419D01*
X74750000Y-103377419D01*
X74848017Y-103367765D01*
X74942267Y-103339175D01*
X75029129Y-103292746D01*
X75105264Y-103230264D01*
X75167746Y-103154129D01*
X75214175Y-103067267D01*
X75242765Y-102973017D01*
X75252419Y-102875000D01*
X75252419Y-102291463D01*
X75528883Y-102015000D01*
X80612136Y-102015000D01*
X80660869Y-102054995D01*
X80771070Y-102113898D01*
X80890646Y-102150171D01*
X81015000Y-102162419D01*
X81385000Y-102162419D01*
X81509354Y-102150171D01*
X81628930Y-102113898D01*
X81739131Y-102054995D01*
X81769587Y-102030000D01*
X81905327Y-102030000D01*
X81987535Y-102097467D01*
X82100330Y-102157757D01*
X82222719Y-102194883D01*
X82350000Y-102207419D01*
X84000000Y-102207419D01*
X84127281Y-102194883D01*
X84249670Y-102157757D01*
X84362465Y-102097467D01*
X84461330Y-102016330D01*
X84542467Y-101917465D01*
X84602757Y-101804670D01*
X84639883Y-101682281D01*
X84652419Y-101555000D01*
X84652419Y-101255000D01*
X86647581Y-101255000D01*
X86647581Y-101555000D01*
X86660117Y-101682281D01*
X86697243Y-101804670D01*
X86750000Y-101903372D01*
X86750000Y-102243163D01*
X86746372Y-102280000D01*
X86750000Y-102316834D01*
X86750000Y-102553165D01*
X86746372Y-102590000D01*
X86747357Y-102600005D01*
X86746373Y-102610000D01*
X86750000Y-102646827D01*
X86750000Y-102646835D01*
X86760853Y-102757026D01*
X86803739Y-102898401D01*
X86872581Y-103027196D01*
X86872581Y-103430000D01*
X86887039Y-103576790D01*
X86929855Y-103717938D01*
X86999386Y-103848022D01*
X87092959Y-103962041D01*
X87206978Y-104055614D01*
X87337062Y-104125145D01*
X87478210Y-104167961D01*
X87625000Y-104182419D01*
X88575000Y-104182419D01*
X88721790Y-104167961D01*
X88862938Y-104125145D01*
X88993022Y-104055614D01*
X89107041Y-103962041D01*
X89200614Y-103848022D01*
X89270145Y-103717938D01*
X89312961Y-103576790D01*
X89327419Y-103430000D01*
X89327419Y-103096458D01*
X89366259Y-103049131D01*
X89366620Y-103048691D01*
X89436261Y-102918399D01*
X89449426Y-102875000D01*
X89479147Y-102777027D01*
X89489071Y-102676261D01*
X89490000Y-102666832D01*
X89490000Y-102666829D01*
X89493627Y-102630001D01*
X89491657Y-102610000D01*
X89493627Y-102590000D01*
X89489999Y-102553170D01*
X89489998Y-102316842D01*
X89493627Y-102280000D01*
X89489998Y-102243156D01*
X89489999Y-101920472D01*
X89492467Y-101917465D01*
X89552757Y-101804670D01*
X89589883Y-101682281D01*
X89602419Y-101555000D01*
X89602419Y-101255000D01*
X89589883Y-101127719D01*
X89552757Y-101005330D01*
X89492467Y-100892535D01*
X89411330Y-100793670D01*
X89312465Y-100712533D01*
X89199670Y-100652243D01*
X89077281Y-100615117D01*
X88950000Y-100602581D01*
X87300000Y-100602581D01*
X87172719Y-100615117D01*
X87050330Y-100652243D01*
X86937535Y-100712533D01*
X86838670Y-100793670D01*
X86757533Y-100892535D01*
X86697243Y-101005330D01*
X86660117Y-101127719D01*
X86647581Y-101255000D01*
X84652419Y-101255000D01*
X84639883Y-101127719D01*
X84602757Y-101005330D01*
X84542467Y-100892535D01*
X84461330Y-100793670D01*
X84432488Y-100770000D01*
X84461330Y-100746330D01*
X84542467Y-100647465D01*
X84602757Y-100534670D01*
X84639883Y-100412281D01*
X84652419Y-100285000D01*
X84652419Y-99985000D01*
X84639883Y-99857719D01*
X84602757Y-99735330D01*
X84542467Y-99622535D01*
X84461330Y-99523670D01*
X84432488Y-99500000D01*
X84461330Y-99476330D01*
X84542467Y-99377465D01*
X84602757Y-99264670D01*
X84639883Y-99142281D01*
X84652419Y-99015000D01*
X84652419Y-98715000D01*
X84639883Y-98587719D01*
X84602757Y-98465330D01*
X84542467Y-98352535D01*
X84461330Y-98253670D01*
X84432488Y-98230000D01*
X84461330Y-98206330D01*
X84542467Y-98107465D01*
X84602757Y-97994670D01*
X84639883Y-97872281D01*
X84652419Y-97745000D01*
X84652419Y-97445000D01*
X86647581Y-97445000D01*
X86647581Y-97745000D01*
X86660117Y-97872281D01*
X86697243Y-97994670D01*
X86757533Y-98107465D01*
X86838670Y-98206330D01*
X86867512Y-98230000D01*
X86838670Y-98253670D01*
X86757533Y-98352535D01*
X86697243Y-98465330D01*
X86660117Y-98587719D01*
X86647581Y-98715000D01*
X86647581Y-99015000D01*
X86660117Y-99142281D01*
X86697243Y-99264670D01*
X86757533Y-99377465D01*
X86838670Y-99476330D01*
X86937535Y-99557467D01*
X87050330Y-99617757D01*
X87172719Y-99654883D01*
X87300000Y-99667419D01*
X88950000Y-99667419D01*
X89077281Y-99654883D01*
X89199670Y-99617757D01*
X89204828Y-99615000D01*
X89727940Y-99615000D01*
X89744670Y-99620075D01*
X89870000Y-99632419D01*
X90210000Y-99632419D01*
X90335330Y-99620075D01*
X90350001Y-99615625D01*
X90350001Y-100023163D01*
X90346373Y-100060000D01*
X90360853Y-100207025D01*
X90403739Y-100348400D01*
X90403740Y-100348401D01*
X90422326Y-100383173D01*
X90429829Y-100459354D01*
X90466102Y-100578930D01*
X90525005Y-100689131D01*
X90604277Y-100785723D01*
X90700869Y-100864995D01*
X90811070Y-100923898D01*
X90930646Y-100960171D01*
X91055000Y-100972419D01*
X91325000Y-100972419D01*
X91449354Y-100960171D01*
X91568930Y-100923898D01*
X91679131Y-100864995D01*
X91700000Y-100847868D01*
X91720869Y-100864995D01*
X91831070Y-100923898D01*
X91950646Y-100960171D01*
X92075000Y-100972419D01*
X92345000Y-100972419D01*
X92469354Y-100960171D01*
X92588930Y-100923898D01*
X92633641Y-100900000D01*
X92977575Y-100900000D01*
X92984157Y-100903518D01*
X93104670Y-100940075D01*
X93230000Y-100952419D01*
X93570000Y-100952419D01*
X93695330Y-100940075D01*
X93815843Y-100903518D01*
X93822425Y-100900000D01*
X93853543Y-100900000D01*
X93797243Y-101005330D01*
X93760117Y-101127719D01*
X93747581Y-101255000D01*
X93747581Y-101555000D01*
X93760117Y-101682281D01*
X93797243Y-101804670D01*
X93857533Y-101917465D01*
X93860000Y-101920471D01*
X93860000Y-102223163D01*
X93856372Y-102260000D01*
X93860000Y-102296834D01*
X93860000Y-102533165D01*
X93856372Y-102570000D01*
X93857357Y-102580005D01*
X93856373Y-102590000D01*
X93860000Y-102626827D01*
X93860000Y-102626835D01*
X93870853Y-102737026D01*
X93913739Y-102878401D01*
X93983381Y-103008693D01*
X94012581Y-103044273D01*
X94012581Y-103430000D01*
X94027039Y-103576790D01*
X94069855Y-103717938D01*
X94139386Y-103848022D01*
X94232959Y-103962041D01*
X94346978Y-104055614D01*
X94477062Y-104125145D01*
X94618210Y-104167961D01*
X94765000Y-104182419D01*
X95715000Y-104182419D01*
X95861790Y-104167961D01*
X96002938Y-104125145D01*
X96133022Y-104055614D01*
X96247041Y-103962041D01*
X96340614Y-103848022D01*
X96410145Y-103717938D01*
X96452961Y-103576790D01*
X96467419Y-103430000D01*
X96467419Y-103039902D01*
X96473877Y-103032033D01*
X96476620Y-103028691D01*
X96546261Y-102898399D01*
X96559092Y-102856102D01*
X96589147Y-102757027D01*
X96595256Y-102695000D01*
X96600000Y-102646832D01*
X96600000Y-102646829D01*
X96603627Y-102610001D01*
X96601657Y-102590000D01*
X96603627Y-102570000D01*
X96599999Y-102533170D01*
X96599998Y-102296842D01*
X96603627Y-102260000D01*
X96599998Y-102223156D01*
X96599999Y-101903374D01*
X96652757Y-101804670D01*
X96689883Y-101682281D01*
X96702419Y-101555000D01*
X96702419Y-101502419D01*
X98697581Y-101502419D01*
X98697581Y-101555000D01*
X98710117Y-101682281D01*
X98747243Y-101804670D01*
X98807533Y-101917465D01*
X98888670Y-102016330D01*
X98930000Y-102050249D01*
X98930000Y-102078941D01*
X98886102Y-102161070D01*
X98849829Y-102280646D01*
X98837581Y-102405000D01*
X98837581Y-102675000D01*
X98849829Y-102799354D01*
X98858594Y-102828249D01*
X98741599Y-102863739D01*
X98611307Y-102933381D01*
X98497105Y-103027105D01*
X98403381Y-103141307D01*
X98333739Y-103271599D01*
X98290853Y-103412974D01*
X98276372Y-103560000D01*
X98290853Y-103707026D01*
X98333739Y-103848401D01*
X98403381Y-103978693D01*
X98497105Y-104092895D01*
X98611307Y-104186619D01*
X98741599Y-104256261D01*
X98882974Y-104299147D01*
X98993165Y-104310000D01*
X99317117Y-104310000D01*
X99350646Y-104320171D01*
X99475000Y-104332419D01*
X99845000Y-104332419D01*
X99969354Y-104320171D01*
X100088930Y-104283898D01*
X100199131Y-104224995D01*
X100295723Y-104145723D01*
X100374995Y-104049131D01*
X100433898Y-103938930D01*
X100470171Y-103819354D01*
X100482419Y-103695000D01*
X100482419Y-103425000D01*
X100474244Y-103342003D01*
X100580000Y-103352419D01*
X100920000Y-103352419D01*
X101045330Y-103340075D01*
X101165843Y-103303518D01*
X101276909Y-103244152D01*
X101374259Y-103164259D01*
X101454152Y-103066909D01*
X101513518Y-102955843D01*
X101550075Y-102835330D01*
X101562419Y-102710000D01*
X101562419Y-102430000D01*
X101550075Y-102304670D01*
X101513518Y-102184157D01*
X101480000Y-102121449D01*
X101480000Y-101993581D01*
X101542467Y-101917465D01*
X101562778Y-101879466D01*
X101571070Y-101883898D01*
X101690646Y-101920171D01*
X101700481Y-101921140D01*
X101943621Y-102164280D01*
X101967105Y-102192895D01*
X102081307Y-102286619D01*
X102211599Y-102356261D01*
X102352974Y-102399147D01*
X102463165Y-102410000D01*
X102463172Y-102410000D01*
X102500000Y-102413627D01*
X102536828Y-102410000D01*
X102563173Y-102410000D01*
X102600000Y-102413627D01*
X102636827Y-102410000D01*
X102636835Y-102410000D01*
X102747026Y-102399147D01*
X102888401Y-102356261D01*
X103018693Y-102286619D01*
X103132895Y-102192895D01*
X103156379Y-102164280D01*
X103399519Y-101921140D01*
X103409354Y-101920171D01*
X103528930Y-101883898D01*
X103639131Y-101824995D01*
X103735723Y-101745723D01*
X103814995Y-101649131D01*
X103873898Y-101538930D01*
X103910171Y-101419354D01*
X103922419Y-101295000D01*
X103922419Y-101025000D01*
X103914146Y-100941008D01*
X104030000Y-100952419D01*
X104370000Y-100952419D01*
X104495330Y-100940075D01*
X104615843Y-100903518D01*
X104650488Y-100885000D01*
X104663717Y-100885000D01*
X104657533Y-100892535D01*
X104597243Y-101005330D01*
X104560117Y-101127719D01*
X104547581Y-101255000D01*
X104547581Y-101555000D01*
X104560117Y-101682281D01*
X104597243Y-101804670D01*
X104657533Y-101917465D01*
X104670000Y-101932656D01*
X104670000Y-102243163D01*
X104666372Y-102280000D01*
X104670000Y-102316834D01*
X104670000Y-102553165D01*
X104666372Y-102590000D01*
X104667357Y-102600005D01*
X104666373Y-102610000D01*
X104670000Y-102646827D01*
X104670000Y-102646835D01*
X104680853Y-102757026D01*
X104723739Y-102898401D01*
X104793381Y-103028693D01*
X104802581Y-103039903D01*
X104802581Y-103430000D01*
X104817039Y-103576790D01*
X104859855Y-103717938D01*
X104929386Y-103848022D01*
X105022959Y-103962041D01*
X105136978Y-104055614D01*
X105267062Y-104125145D01*
X105408210Y-104167961D01*
X105555000Y-104182419D01*
X106505000Y-104182419D01*
X106651790Y-104167961D01*
X106792938Y-104125145D01*
X106923022Y-104055614D01*
X107037041Y-103962041D01*
X107130614Y-103848022D01*
X107200145Y-103717938D01*
X107242961Y-103576790D01*
X107257419Y-103430000D01*
X107257419Y-103084273D01*
X107286259Y-103049131D01*
X107286620Y-103048691D01*
X107356261Y-102918399D01*
X107369426Y-102875000D01*
X107399147Y-102777027D01*
X107409071Y-102676261D01*
X107410000Y-102666832D01*
X107410000Y-102666829D01*
X107413627Y-102630001D01*
X107411657Y-102610000D01*
X107413627Y-102590000D01*
X107409999Y-102553170D01*
X107409998Y-102316842D01*
X107413627Y-102280000D01*
X107409998Y-102243156D01*
X107409999Y-101884665D01*
X107452757Y-101804670D01*
X107489883Y-101682281D01*
X107502419Y-101555000D01*
X107502419Y-101502419D01*
X109497581Y-101502419D01*
X109497581Y-101555000D01*
X109510117Y-101682281D01*
X109547243Y-101804670D01*
X109607533Y-101917465D01*
X109688670Y-102016330D01*
X109730000Y-102050249D01*
X109730000Y-102173777D01*
X109726102Y-102181070D01*
X109689829Y-102300646D01*
X109677581Y-102425000D01*
X109677581Y-102695000D01*
X109689829Y-102819354D01*
X109696659Y-102841869D01*
X109591600Y-102873739D01*
X109461308Y-102943382D01*
X109347105Y-103037105D01*
X109253382Y-103151308D01*
X109183739Y-103281600D01*
X109140853Y-103422975D01*
X109126373Y-103570000D01*
X109140853Y-103717025D01*
X109183739Y-103858400D01*
X109253382Y-103988692D01*
X109323624Y-104074283D01*
X109333621Y-104084280D01*
X109357105Y-104112895D01*
X109471307Y-104206619D01*
X109601599Y-104276261D01*
X109742974Y-104319147D01*
X109853165Y-104330000D01*
X109853172Y-104330000D01*
X109889999Y-104333627D01*
X109926827Y-104330000D01*
X110157117Y-104330000D01*
X110190646Y-104340171D01*
X110315000Y-104352419D01*
X110685000Y-104352419D01*
X110809354Y-104340171D01*
X110928930Y-104303898D01*
X111039131Y-104244995D01*
X111135723Y-104165723D01*
X111214995Y-104069131D01*
X111273898Y-103958930D01*
X111310171Y-103839354D01*
X111322419Y-103715000D01*
X111322419Y-103445000D01*
X111312647Y-103345785D01*
X111380000Y-103352419D01*
X111720000Y-103352419D01*
X111845330Y-103340075D01*
X111965843Y-103303518D01*
X112072042Y-103246753D01*
X116258904Y-103246753D01*
X116351083Y-103573097D01*
X116671483Y-103759979D01*
X117022186Y-103880762D01*
X117389713Y-103930806D01*
X117759941Y-103908187D01*
X118118643Y-103813775D01*
X118452033Y-103651197D01*
X118568917Y-103573097D01*
X118661096Y-103246753D01*
X121338904Y-103246753D01*
X121431083Y-103573097D01*
X121751483Y-103759979D01*
X122102186Y-103880762D01*
X122469713Y-103930806D01*
X122839941Y-103908187D01*
X123198643Y-103813775D01*
X123532033Y-103651197D01*
X123565860Y-103628594D01*
X128475000Y-103628594D01*
X128475000Y-103771406D01*
X128502861Y-103911475D01*
X128557513Y-104043416D01*
X128636856Y-104162161D01*
X128737839Y-104263144D01*
X128856584Y-104342487D01*
X128988525Y-104397139D01*
X129128594Y-104425000D01*
X129271406Y-104425000D01*
X129411475Y-104397139D01*
X129527443Y-104349103D01*
X129556424Y-104372888D01*
X129668787Y-104432947D01*
X129790707Y-104469931D01*
X129917500Y-104482419D01*
X130262500Y-104482419D01*
X130389293Y-104469931D01*
X130511213Y-104432947D01*
X130623576Y-104372888D01*
X130722062Y-104292062D01*
X130802888Y-104193576D01*
X130862947Y-104081213D01*
X130899931Y-103959293D01*
X130912419Y-103832500D01*
X130912419Y-103537500D01*
X130899931Y-103410707D01*
X130862947Y-103288787D01*
X130815490Y-103200000D01*
X130862947Y-103111213D01*
X130899931Y-102989293D01*
X130912419Y-102862500D01*
X130912419Y-102567500D01*
X130899931Y-102440707D01*
X130862947Y-102318787D01*
X130802888Y-102206424D01*
X130722062Y-102107938D01*
X130715000Y-102102142D01*
X130715000Y-101404523D01*
X130725723Y-101395723D01*
X130804995Y-101299131D01*
X130863898Y-101188930D01*
X130900171Y-101069354D01*
X130912419Y-100945000D01*
X130912419Y-100675000D01*
X130900171Y-100550646D01*
X130863898Y-100431070D01*
X130804995Y-100320869D01*
X130725723Y-100224277D01*
X130629131Y-100145005D01*
X130518930Y-100086102D01*
X130399354Y-100049829D01*
X130275000Y-100037581D01*
X129905000Y-100037581D01*
X129780646Y-100049829D01*
X129661070Y-100086102D01*
X129550869Y-100145005D01*
X129454277Y-100224277D01*
X129375005Y-100320869D01*
X129316102Y-100431070D01*
X129279829Y-100550646D01*
X129267581Y-100675000D01*
X129267581Y-100945000D01*
X129279829Y-101069354D01*
X129316102Y-101188930D01*
X129375005Y-101299131D01*
X129454277Y-101395723D01*
X129465001Y-101404524D01*
X129465000Y-102102142D01*
X129457938Y-102107938D01*
X129377112Y-102206424D01*
X129317053Y-102318787D01*
X129280069Y-102440707D01*
X129267581Y-102567500D01*
X129267581Y-102862500D01*
X129278806Y-102976472D01*
X129271406Y-102975000D01*
X129128594Y-102975000D01*
X128988525Y-103002861D01*
X128856584Y-103057513D01*
X128737839Y-103136856D01*
X128636856Y-103237839D01*
X128557513Y-103356584D01*
X128502861Y-103488525D01*
X128475000Y-103628594D01*
X123565860Y-103628594D01*
X123648917Y-103573097D01*
X123741096Y-103246753D01*
X122540000Y-102045657D01*
X121338904Y-103246753D01*
X118661096Y-103246753D01*
X117460000Y-102045657D01*
X116258904Y-103246753D01*
X112072042Y-103246753D01*
X112076909Y-103244152D01*
X112174259Y-103164259D01*
X112254152Y-103066909D01*
X112313518Y-102955843D01*
X112350075Y-102835330D01*
X112362419Y-102710000D01*
X112362419Y-102430000D01*
X112350075Y-102304670D01*
X112313518Y-102184157D01*
X112280000Y-102121449D01*
X112280000Y-101993581D01*
X112299588Y-101969713D01*
X115569194Y-101969713D01*
X115591813Y-102339941D01*
X115686225Y-102698643D01*
X115848803Y-103032033D01*
X115926903Y-103148917D01*
X116253247Y-103241096D01*
X117454343Y-102040000D01*
X117465657Y-102040000D01*
X118666753Y-103241096D01*
X118993097Y-103148917D01*
X119179979Y-102828517D01*
X119300762Y-102477814D01*
X119350806Y-102110287D01*
X119342218Y-101969713D01*
X120649194Y-101969713D01*
X120671813Y-102339941D01*
X120766225Y-102698643D01*
X120928803Y-103032033D01*
X121006903Y-103148917D01*
X121333247Y-103241096D01*
X122534343Y-102040000D01*
X122545657Y-102040000D01*
X123746753Y-103241096D01*
X124073097Y-103148917D01*
X124259979Y-102828517D01*
X124380762Y-102477814D01*
X124430806Y-102110287D01*
X124408187Y-101740059D01*
X124313775Y-101381357D01*
X124151197Y-101047967D01*
X124073097Y-100931083D01*
X123746753Y-100838904D01*
X122545657Y-102040000D01*
X122534343Y-102040000D01*
X121333247Y-100838904D01*
X121006903Y-100931083D01*
X120820021Y-101251483D01*
X120699238Y-101602186D01*
X120649194Y-101969713D01*
X119342218Y-101969713D01*
X119328187Y-101740059D01*
X119233775Y-101381357D01*
X119071197Y-101047967D01*
X118993097Y-100931083D01*
X118666753Y-100838904D01*
X117465657Y-102040000D01*
X117454343Y-102040000D01*
X116253247Y-100838904D01*
X115926903Y-100931083D01*
X115740021Y-101251483D01*
X115619238Y-101602186D01*
X115569194Y-101969713D01*
X112299588Y-101969713D01*
X112342467Y-101917465D01*
X112389443Y-101829578D01*
X112491070Y-101883898D01*
X112610646Y-101920171D01*
X112735000Y-101932419D01*
X113105000Y-101932419D01*
X113229354Y-101920171D01*
X113348930Y-101883898D01*
X113459131Y-101824995D01*
X113555723Y-101745723D01*
X113634995Y-101649131D01*
X113693898Y-101538930D01*
X113730171Y-101419354D01*
X113742419Y-101295000D01*
X113742419Y-101025000D01*
X113730171Y-100900646D01*
X113693898Y-100781070D01*
X113670000Y-100736359D01*
X113670000Y-100396223D01*
X113673898Y-100388930D01*
X113710171Y-100269354D01*
X113719042Y-100179291D01*
X113807568Y-100251943D01*
X113963919Y-100335514D01*
X114133569Y-100386977D01*
X114309999Y-100404354D01*
X114354206Y-100400000D01*
X116527032Y-100400000D01*
X116467967Y-100428803D01*
X116351083Y-100506903D01*
X116258904Y-100833247D01*
X117460000Y-102034343D01*
X118661096Y-100833247D01*
X118568917Y-100506903D01*
X118385637Y-100400000D01*
X118767259Y-100400000D01*
X118815455Y-100472131D01*
X119027869Y-100684545D01*
X119277642Y-100851438D01*
X119555174Y-100966395D01*
X119849801Y-101025000D01*
X120150199Y-101025000D01*
X120444826Y-100966395D01*
X120722358Y-100851438D01*
X120749582Y-100833247D01*
X121338904Y-100833247D01*
X122540000Y-102034343D01*
X123741096Y-100833247D01*
X123648917Y-100506903D01*
X123328517Y-100320021D01*
X122977814Y-100199238D01*
X122610287Y-100149194D01*
X122240059Y-100171813D01*
X121881357Y-100266225D01*
X121547967Y-100428803D01*
X121431083Y-100506903D01*
X121338904Y-100833247D01*
X120749582Y-100833247D01*
X120972131Y-100684545D01*
X121184545Y-100472131D01*
X121351438Y-100222358D01*
X121466395Y-99944826D01*
X121525000Y-99650199D01*
X121525000Y-99349801D01*
X121483749Y-99142414D01*
X126000000Y-99142414D01*
X126000000Y-99457586D01*
X126061487Y-99766703D01*
X126182098Y-100057884D01*
X126357199Y-100319941D01*
X126580059Y-100542801D01*
X126842116Y-100717902D01*
X127133297Y-100838513D01*
X127442414Y-100900000D01*
X127757586Y-100900000D01*
X128066703Y-100838513D01*
X128357884Y-100717902D01*
X128619941Y-100542801D01*
X128842801Y-100319941D01*
X129017902Y-100057884D01*
X129138513Y-99766703D01*
X129200000Y-99457586D01*
X129200000Y-99142414D01*
X129138513Y-98833297D01*
X129017902Y-98542116D01*
X128842801Y-98280059D01*
X128619941Y-98057199D01*
X128357884Y-97882098D01*
X128066703Y-97761487D01*
X127757586Y-97700000D01*
X127442414Y-97700000D01*
X127133297Y-97761487D01*
X126842116Y-97882098D01*
X126580059Y-98057199D01*
X126357199Y-98280059D01*
X126182098Y-98542116D01*
X126061487Y-98833297D01*
X126000000Y-99142414D01*
X121483749Y-99142414D01*
X121466395Y-99055174D01*
X121351438Y-98777642D01*
X121184545Y-98527869D01*
X120972131Y-98315455D01*
X120749583Y-98166753D01*
X121338904Y-98166753D01*
X121431083Y-98493097D01*
X121751483Y-98679979D01*
X122102186Y-98800762D01*
X122469713Y-98850806D01*
X122839941Y-98828187D01*
X123198643Y-98733775D01*
X123532033Y-98571197D01*
X123648917Y-98493097D01*
X123741096Y-98166753D01*
X122540000Y-96965657D01*
X121338904Y-98166753D01*
X120749583Y-98166753D01*
X120722358Y-98148562D01*
X120444826Y-98033605D01*
X120150199Y-97975000D01*
X119849801Y-97975000D01*
X119555174Y-98033605D01*
X119277642Y-98148562D01*
X119027869Y-98315455D01*
X118815455Y-98527869D01*
X118767259Y-98600000D01*
X118392968Y-98600000D01*
X118452033Y-98571197D01*
X118568917Y-98493097D01*
X118661096Y-98166753D01*
X117460000Y-96965657D01*
X116258904Y-98166753D01*
X116351083Y-98493097D01*
X116534363Y-98600000D01*
X114682792Y-98600000D01*
X114512383Y-98429591D01*
X114476376Y-98385716D01*
X114254395Y-98163735D01*
X114208630Y-98107970D01*
X113693433Y-97592774D01*
X113663518Y-97494157D01*
X113613190Y-97400000D01*
X113663518Y-97305843D01*
X113700075Y-97185330D01*
X113712419Y-97060000D01*
X113712419Y-96889713D01*
X115569194Y-96889713D01*
X115591813Y-97259941D01*
X115686225Y-97618643D01*
X115848803Y-97952033D01*
X115926903Y-98068917D01*
X116253247Y-98161096D01*
X117454343Y-96960000D01*
X117465657Y-96960000D01*
X118666753Y-98161096D01*
X118993097Y-98068917D01*
X119179979Y-97748517D01*
X119300762Y-97397814D01*
X119350806Y-97030287D01*
X119342218Y-96889713D01*
X120649194Y-96889713D01*
X120671813Y-97259941D01*
X120766225Y-97618643D01*
X120928803Y-97952033D01*
X121006903Y-98068917D01*
X121333247Y-98161096D01*
X122534343Y-96960000D01*
X122545657Y-96960000D01*
X123746753Y-98161096D01*
X124073097Y-98068917D01*
X124259979Y-97748517D01*
X124380762Y-97397814D01*
X124430806Y-97030287D01*
X124408187Y-96660059D01*
X124313775Y-96301357D01*
X124151197Y-95967967D01*
X124073097Y-95851083D01*
X123746753Y-95758904D01*
X122545657Y-96960000D01*
X122534343Y-96960000D01*
X121333247Y-95758904D01*
X121006903Y-95851083D01*
X120820021Y-96171483D01*
X120699238Y-96522186D01*
X120649194Y-96889713D01*
X119342218Y-96889713D01*
X119328187Y-96660059D01*
X119233775Y-96301357D01*
X119071197Y-95967967D01*
X118993097Y-95851083D01*
X118666753Y-95758904D01*
X117465657Y-96960000D01*
X117454343Y-96960000D01*
X116253247Y-95758904D01*
X115926903Y-95851083D01*
X115740021Y-96171483D01*
X115619238Y-96522186D01*
X115569194Y-96889713D01*
X113712419Y-96889713D01*
X113712419Y-96780000D01*
X113700075Y-96654670D01*
X113663518Y-96534157D01*
X113650000Y-96508867D01*
X113650000Y-96323165D01*
X113639147Y-96212974D01*
X113596261Y-96071599D01*
X113526619Y-95941307D01*
X113432895Y-95827105D01*
X113342899Y-95753247D01*
X116258904Y-95753247D01*
X117460000Y-96954343D01*
X118661096Y-95753247D01*
X121338904Y-95753247D01*
X122540000Y-96954343D01*
X123741096Y-95753247D01*
X123648917Y-95426903D01*
X123328517Y-95240021D01*
X122977814Y-95119238D01*
X122610287Y-95069194D01*
X122240059Y-95091813D01*
X121881357Y-95186225D01*
X121547967Y-95348803D01*
X121431083Y-95426903D01*
X121338904Y-95753247D01*
X118661096Y-95753247D01*
X118568917Y-95426903D01*
X118248517Y-95240021D01*
X117897814Y-95119238D01*
X117530287Y-95069194D01*
X117160059Y-95091813D01*
X116801357Y-95186225D01*
X116467967Y-95348803D01*
X116351083Y-95426903D01*
X116258904Y-95753247D01*
X113342899Y-95753247D01*
X113318692Y-95733381D01*
X113188400Y-95663739D01*
X113047025Y-95620853D01*
X112900000Y-95606372D01*
X112752974Y-95620853D01*
X112611599Y-95663739D01*
X112481307Y-95733381D01*
X112367105Y-95827105D01*
X112277850Y-95935863D01*
X112216619Y-95821307D01*
X112187419Y-95785727D01*
X112187419Y-95360000D01*
X112172961Y-95213210D01*
X112130145Y-95072062D01*
X112060614Y-94941978D01*
X111967563Y-94828594D01*
X128475000Y-94828594D01*
X128475000Y-94971406D01*
X128502861Y-95111475D01*
X128557513Y-95243416D01*
X128636856Y-95362161D01*
X128737839Y-95463144D01*
X128856584Y-95542487D01*
X128988525Y-95597139D01*
X129128594Y-95625000D01*
X129271406Y-95625000D01*
X129278806Y-95623528D01*
X129267581Y-95737500D01*
X129267581Y-96032500D01*
X129280069Y-96159293D01*
X129317053Y-96281213D01*
X129377112Y-96393576D01*
X129457938Y-96492062D01*
X129475000Y-96506065D01*
X129475001Y-97192269D01*
X129454277Y-97209277D01*
X129375005Y-97305869D01*
X129316102Y-97416070D01*
X129279829Y-97535646D01*
X129267581Y-97660000D01*
X129267581Y-97930000D01*
X129279829Y-98054354D01*
X129316102Y-98173930D01*
X129375005Y-98284131D01*
X129454277Y-98380723D01*
X129550869Y-98459995D01*
X129661070Y-98518898D01*
X129780646Y-98555171D01*
X129905000Y-98567419D01*
X130275000Y-98567419D01*
X130399354Y-98555171D01*
X130518930Y-98518898D01*
X130629131Y-98459995D01*
X130725723Y-98380723D01*
X130804995Y-98284131D01*
X130863898Y-98173930D01*
X130900171Y-98054354D01*
X130912419Y-97930000D01*
X130912419Y-97660000D01*
X130900171Y-97535646D01*
X130863898Y-97416070D01*
X130804995Y-97305869D01*
X130725723Y-97209277D01*
X130725000Y-97208684D01*
X130725000Y-96488482D01*
X130802888Y-96393576D01*
X130862947Y-96281213D01*
X130899931Y-96159293D01*
X130912419Y-96032500D01*
X130912419Y-95737500D01*
X130899931Y-95610707D01*
X130862947Y-95488787D01*
X130815490Y-95400000D01*
X130862947Y-95311213D01*
X130899931Y-95189293D01*
X130912419Y-95062500D01*
X130912419Y-94767500D01*
X130899931Y-94640707D01*
X130862947Y-94518787D01*
X130802888Y-94406424D01*
X130722062Y-94307938D01*
X130623576Y-94227112D01*
X130511213Y-94167053D01*
X130389293Y-94130069D01*
X130262500Y-94117581D01*
X129917500Y-94117581D01*
X129790707Y-94130069D01*
X129668787Y-94167053D01*
X129556424Y-94227112D01*
X129527443Y-94250897D01*
X129411475Y-94202861D01*
X129271406Y-94175000D01*
X129128594Y-94175000D01*
X128988525Y-94202861D01*
X128856584Y-94257513D01*
X128737839Y-94336856D01*
X128636856Y-94437839D01*
X128557513Y-94556584D01*
X128502861Y-94688525D01*
X128475000Y-94828594D01*
X111967563Y-94828594D01*
X111967041Y-94827959D01*
X111853022Y-94734386D01*
X111722938Y-94664855D01*
X111581790Y-94622039D01*
X111435000Y-94607581D01*
X110485000Y-94607581D01*
X110338210Y-94622039D01*
X110197062Y-94664855D01*
X110066978Y-94734386D01*
X109952959Y-94827959D01*
X109859386Y-94941978D01*
X109789855Y-95072062D01*
X109747039Y-95213210D01*
X109732581Y-95360000D01*
X109732581Y-95790097D01*
X109723381Y-95801307D01*
X109653739Y-95931599D01*
X109610853Y-96072974D01*
X109602477Y-96158020D01*
X109576261Y-96071599D01*
X109506619Y-95941307D01*
X109412895Y-95827105D01*
X109298693Y-95733381D01*
X109168401Y-95663739D01*
X109027026Y-95620853D01*
X108916835Y-95610000D01*
X108643641Y-95610000D01*
X108598930Y-95586102D01*
X108479354Y-95549829D01*
X108355000Y-95537581D01*
X108085000Y-95537581D01*
X107960646Y-95549829D01*
X107841070Y-95586102D01*
X107730869Y-95645005D01*
X107710000Y-95662132D01*
X107689131Y-95645005D01*
X107578930Y-95586102D01*
X107459354Y-95549829D01*
X107335000Y-95537581D01*
X107065000Y-95537581D01*
X106940646Y-95549829D01*
X106821070Y-95586102D01*
X106776359Y-95610000D01*
X106681133Y-95610000D01*
X106655843Y-95596482D01*
X106535330Y-95559925D01*
X106410000Y-95547581D01*
X106130000Y-95547581D01*
X106004670Y-95559925D01*
X105884157Y-95596482D01*
X105790000Y-95646810D01*
X105695843Y-95596482D01*
X105575330Y-95559925D01*
X105450000Y-95547581D01*
X105170000Y-95547581D01*
X105044670Y-95559925D01*
X104924157Y-95596482D01*
X104898867Y-95610000D01*
X104713165Y-95610000D01*
X104602974Y-95620853D01*
X104461599Y-95663739D01*
X104331307Y-95733381D01*
X104217105Y-95827105D01*
X104123381Y-95941307D01*
X104053739Y-96071599D01*
X104010853Y-96212974D01*
X103996372Y-96360000D01*
X104010853Y-96507026D01*
X104053739Y-96648401D01*
X104123381Y-96778693D01*
X104212871Y-96887736D01*
X104176599Y-96898739D01*
X104046307Y-96968381D01*
X103932105Y-97062105D01*
X103908624Y-97090717D01*
X103900481Y-97098860D01*
X103890646Y-97099829D01*
X103771070Y-97136102D01*
X103660869Y-97195005D01*
X103564277Y-97274277D01*
X103485005Y-97370869D01*
X103426102Y-97481070D01*
X103389829Y-97600646D01*
X103377581Y-97725000D01*
X103377581Y-97995000D01*
X103389685Y-98117892D01*
X103285000Y-98107581D01*
X102915000Y-98107581D01*
X102854188Y-98113571D01*
X102862419Y-98030000D01*
X102862419Y-97750000D01*
X102850075Y-97624670D01*
X102813518Y-97504157D01*
X102800000Y-97478867D01*
X102800000Y-97333165D01*
X102789147Y-97222974D01*
X102746261Y-97081599D01*
X102676619Y-96951307D01*
X102582895Y-96837105D01*
X102468692Y-96743381D01*
X102338400Y-96673739D01*
X102197025Y-96630853D01*
X102050000Y-96616372D01*
X101902974Y-96630853D01*
X101761599Y-96673739D01*
X101631307Y-96743381D01*
X101517105Y-96837105D01*
X101510000Y-96845762D01*
X101510000Y-96686834D01*
X101513628Y-96650000D01*
X101510000Y-96613165D01*
X101510000Y-96376835D01*
X101513628Y-96340000D01*
X101512643Y-96329995D01*
X101513627Y-96320000D01*
X101510000Y-96283172D01*
X101510000Y-96283166D01*
X101500151Y-96183165D01*
X101499147Y-96172974D01*
X101456261Y-96031599D01*
X101386619Y-95901307D01*
X101374772Y-95886872D01*
X101377419Y-95860000D01*
X101377419Y-95360000D01*
X101362961Y-95213210D01*
X101320145Y-95072062D01*
X101250614Y-94941978D01*
X101157041Y-94827959D01*
X101043022Y-94734386D01*
X100912938Y-94664855D01*
X100771790Y-94622039D01*
X100625000Y-94607581D01*
X99675000Y-94607581D01*
X99528210Y-94622039D01*
X99387062Y-94664855D01*
X99256978Y-94734386D01*
X99142959Y-94827959D01*
X99049386Y-94941978D01*
X98979855Y-95072062D01*
X98937039Y-95213210D01*
X98922581Y-95360000D01*
X98922581Y-95845727D01*
X98893381Y-95881307D01*
X98823739Y-96011599D01*
X98780853Y-96152974D01*
X98770000Y-96263165D01*
X98770000Y-96263173D01*
X98766373Y-96300000D01*
X98768342Y-96319996D01*
X98766372Y-96340000D01*
X98770000Y-96376835D01*
X98770000Y-96613165D01*
X98766372Y-96650000D01*
X98770000Y-96686834D01*
X98770000Y-97152755D01*
X98747243Y-97195330D01*
X98710117Y-97317719D01*
X98697581Y-97445000D01*
X98697581Y-97497581D01*
X96802911Y-97497581D01*
X96826618Y-97468694D01*
X96826619Y-97468693D01*
X96896261Y-97338401D01*
X96939147Y-97197026D01*
X96940426Y-97184037D01*
X96960646Y-97190171D01*
X97085000Y-97202419D01*
X97355000Y-97202419D01*
X97479354Y-97190171D01*
X97598930Y-97153898D01*
X97643648Y-97129996D01*
X97876835Y-97129996D01*
X97987026Y-97119143D01*
X98128401Y-97076257D01*
X98258693Y-97006615D01*
X98372895Y-96912891D01*
X98466619Y-96798689D01*
X98536261Y-96668397D01*
X98579147Y-96527022D01*
X98593628Y-96379996D01*
X98579147Y-96232970D01*
X98536261Y-96091595D01*
X98466619Y-95961303D01*
X98372895Y-95847101D01*
X98258693Y-95753377D01*
X98128401Y-95683735D01*
X97987026Y-95640849D01*
X97876835Y-95629996D01*
X97643633Y-95629996D01*
X97598930Y-95606102D01*
X97479354Y-95569829D01*
X97355000Y-95557581D01*
X97085000Y-95557581D01*
X96960646Y-95569829D01*
X96841070Y-95606102D01*
X96730869Y-95665005D01*
X96710000Y-95682132D01*
X96689131Y-95665005D01*
X96578930Y-95606102D01*
X96459354Y-95569829D01*
X96335000Y-95557581D01*
X96065000Y-95557581D01*
X95940646Y-95569829D01*
X95821070Y-95606102D01*
X95710869Y-95665005D01*
X95614277Y-95744277D01*
X95535005Y-95840869D01*
X95476102Y-95951070D01*
X95439829Y-96070646D01*
X95427581Y-96195000D01*
X95427581Y-96565000D01*
X95439829Y-96689354D01*
X95450000Y-96722883D01*
X95450000Y-96739340D01*
X95396759Y-96792581D01*
X94400000Y-96792581D01*
X94272719Y-96805117D01*
X94150330Y-96842243D01*
X94145172Y-96845000D01*
X93701828Y-96845000D01*
X93665000Y-96841373D01*
X93628172Y-96845000D01*
X93628165Y-96845000D01*
X93517974Y-96855853D01*
X93376599Y-96898739D01*
X93246307Y-96968381D01*
X93132105Y-97062105D01*
X93108624Y-97090717D01*
X93100481Y-97098860D01*
X93090646Y-97099829D01*
X92971070Y-97136102D01*
X92860869Y-97195005D01*
X92764277Y-97274277D01*
X92685005Y-97370869D01*
X92626102Y-97481070D01*
X92589829Y-97600646D01*
X92577581Y-97725000D01*
X92577581Y-97995000D01*
X92589400Y-98115000D01*
X92560325Y-98115000D01*
X92485000Y-98107581D01*
X92115000Y-98107581D01*
X91990646Y-98119829D01*
X91871070Y-98156102D01*
X91760869Y-98215005D01*
X91700000Y-98264960D01*
X91639131Y-98215005D01*
X91528930Y-98156102D01*
X91409354Y-98119829D01*
X91285000Y-98107581D01*
X90915000Y-98107581D01*
X90839675Y-98115000D01*
X90450957Y-98115000D01*
X90335330Y-98079925D01*
X90210000Y-98067581D01*
X89870000Y-98067581D01*
X89744670Y-98079925D01*
X89629043Y-98115000D01*
X89486283Y-98115000D01*
X89492467Y-98107465D01*
X89552757Y-97994670D01*
X89589883Y-97872281D01*
X89602419Y-97745000D01*
X89602419Y-97445000D01*
X89589883Y-97317719D01*
X89552757Y-97195330D01*
X89492467Y-97082535D01*
X89490000Y-97079529D01*
X89490000Y-96646834D01*
X89493628Y-96610000D01*
X89490000Y-96573165D01*
X89490000Y-96336835D01*
X89493628Y-96300000D01*
X89492643Y-96289995D01*
X89493627Y-96280000D01*
X89490000Y-96243172D01*
X89490000Y-96243166D01*
X89479147Y-96132975D01*
X89478504Y-96130853D01*
X89436261Y-95991599D01*
X89375630Y-95878165D01*
X89377419Y-95860000D01*
X89377419Y-95360000D01*
X89362961Y-95213210D01*
X89320145Y-95072062D01*
X89250614Y-94941978D01*
X89157041Y-94827959D01*
X89043022Y-94734386D01*
X88912938Y-94664855D01*
X88771790Y-94622039D01*
X88625000Y-94607581D01*
X87675000Y-94607581D01*
X87528210Y-94622039D01*
X87387062Y-94664855D01*
X87256978Y-94734386D01*
X87142959Y-94827959D01*
X87049386Y-94941978D01*
X86979855Y-95072062D01*
X86937039Y-95213210D01*
X86922581Y-95360000D01*
X86922581Y-95781357D01*
X86873381Y-95841307D01*
X86803739Y-95971599D01*
X86760853Y-96112974D01*
X86750000Y-96223165D01*
X86750000Y-96223173D01*
X86746373Y-96260000D01*
X86748342Y-96279996D01*
X86746372Y-96300000D01*
X86750000Y-96336835D01*
X86750000Y-96573165D01*
X86746372Y-96610000D01*
X86750000Y-96646834D01*
X86750000Y-97096628D01*
X86697243Y-97195330D01*
X86660117Y-97317719D01*
X86647581Y-97445000D01*
X84652419Y-97445000D01*
X84639883Y-97317719D01*
X84602757Y-97195330D01*
X84542467Y-97082535D01*
X84461330Y-96983670D01*
X84362465Y-96902533D01*
X84249670Y-96842243D01*
X84127281Y-96805117D01*
X84000000Y-96792581D01*
X82350000Y-96792581D01*
X82222719Y-96805117D01*
X82100330Y-96842243D01*
X81987535Y-96902533D01*
X81905327Y-96970000D01*
X81818327Y-96970000D01*
X81739131Y-96905005D01*
X81628930Y-96846102D01*
X81509354Y-96809829D01*
X81385000Y-96797581D01*
X81015000Y-96797581D01*
X80890646Y-96809829D01*
X80771070Y-96846102D01*
X80660869Y-96905005D01*
X80612136Y-96945000D01*
X75588883Y-96945000D01*
X75198869Y-96554987D01*
X75198120Y-96551220D01*
X75096354Y-96305535D01*
X74948613Y-96084425D01*
X74760575Y-95896387D01*
X74539465Y-95748646D01*
X74293780Y-95646880D01*
X74032963Y-95595000D01*
X73767037Y-95595000D01*
X73506220Y-95646880D01*
X73260535Y-95748646D01*
X73039425Y-95896387D01*
X72851387Y-96084425D01*
X72703646Y-96305535D01*
X72601880Y-96551220D01*
X72550000Y-96812037D01*
X72550000Y-97077963D01*
X72601880Y-97338780D01*
X72703646Y-97584465D01*
X72851387Y-97805575D01*
X73039425Y-97993613D01*
X73152484Y-98069157D01*
X73056414Y-98116050D01*
X72805554Y-98306929D01*
X72596753Y-98543081D01*
X72438035Y-98815431D01*
X72335500Y-99113512D01*
X72312428Y-99229503D01*
X72150000Y-99229503D01*
X72150000Y-92850000D01*
X136650000Y-92850000D01*
X136650000Y-106150000D01*
%TA.AperFunction,Conductor*%
D20*
G36*
X136650000Y-106150000D02*
G01*
X72150000Y-106150000D01*
X72150000Y-99229503D01*
X72312428Y-99229503D01*
X72481506Y-99481000D01*
X73896000Y-99481000D01*
X73896000Y-99461000D01*
X73904000Y-99461000D01*
X73904000Y-99481000D01*
X75318494Y-99481000D01*
X75487572Y-99229503D01*
X75464500Y-99113512D01*
X75361965Y-98815431D01*
X75203247Y-98543081D01*
X74994446Y-98306929D01*
X74847345Y-98195000D01*
X80612136Y-98195000D01*
X80660869Y-98234995D01*
X80771070Y-98293898D01*
X80890646Y-98330171D01*
X81015000Y-98342419D01*
X81212276Y-98342419D01*
X81136856Y-98417839D01*
X81057513Y-98536584D01*
X81002861Y-98668525D01*
X80975000Y-98808594D01*
X80975000Y-98951406D01*
X81002861Y-99091475D01*
X81057513Y-99223416D01*
X81136856Y-99342161D01*
X81237839Y-99443144D01*
X81322930Y-99500000D01*
X81237839Y-99556856D01*
X81136856Y-99657839D01*
X81057513Y-99776584D01*
X81002861Y-99908525D01*
X80975000Y-100048594D01*
X80975000Y-100191406D01*
X81002861Y-100331475D01*
X81057513Y-100463416D01*
X81136856Y-100582161D01*
X81172276Y-100617581D01*
X81015000Y-100617581D01*
X80890646Y-100629829D01*
X80771070Y-100666102D01*
X80660869Y-100725005D01*
X80612136Y-100765000D01*
X75300693Y-100765000D01*
X75269999Y-100761977D01*
X75239305Y-100765000D01*
X75038568Y-100765000D01*
X75029129Y-100757254D01*
X74942267Y-100710825D01*
X74934702Y-100708530D01*
X74994446Y-100663071D01*
X75203247Y-100426919D01*
X75361965Y-100154569D01*
X75464500Y-99856488D01*
X75487572Y-99740497D01*
X75318494Y-99489000D01*
X73904000Y-99489000D01*
X73904000Y-99509000D01*
X73896000Y-99509000D01*
X73896000Y-99489000D01*
X72481506Y-99489000D01*
X72312428Y-99740497D01*
X72335500Y-99856488D01*
X72438035Y-100154569D01*
X72596753Y-100426919D01*
X72805554Y-100663071D01*
X72865298Y-100708530D01*
X72857733Y-100710825D01*
X72770871Y-100757254D01*
X72694736Y-100819736D01*
X72632254Y-100895871D01*
X72585825Y-100982733D01*
X72557235Y-101076983D01*
X72547581Y-101175000D01*
X72547581Y-102875000D01*
X72557235Y-102973017D01*
X72585825Y-103067267D01*
X72632254Y-103154129D01*
X72694736Y-103230264D01*
X72770871Y-103292746D01*
X72857733Y-103339175D01*
X72951983Y-103367765D01*
X73050000Y-103377419D01*
X74750000Y-103377419D01*
X74848017Y-103367765D01*
X74942267Y-103339175D01*
X75029129Y-103292746D01*
X75105264Y-103230264D01*
X75167746Y-103154129D01*
X75214175Y-103067267D01*
X75242765Y-102973017D01*
X75252419Y-102875000D01*
X75252419Y-102291463D01*
X75528883Y-102015000D01*
X80612136Y-102015000D01*
X80660869Y-102054995D01*
X80771070Y-102113898D01*
X80890646Y-102150171D01*
X81015000Y-102162419D01*
X81385000Y-102162419D01*
X81509354Y-102150171D01*
X81628930Y-102113898D01*
X81739131Y-102054995D01*
X81769587Y-102030000D01*
X81905327Y-102030000D01*
X81987535Y-102097467D01*
X82100330Y-102157757D01*
X82222719Y-102194883D01*
X82350000Y-102207419D01*
X84000000Y-102207419D01*
X84127281Y-102194883D01*
X84249670Y-102157757D01*
X84362465Y-102097467D01*
X84461330Y-102016330D01*
X84542467Y-101917465D01*
X84602757Y-101804670D01*
X84639883Y-101682281D01*
X84652419Y-101555000D01*
X84652419Y-101255000D01*
X86647581Y-101255000D01*
X86647581Y-101555000D01*
X86660117Y-101682281D01*
X86697243Y-101804670D01*
X86750000Y-101903372D01*
X86750000Y-102243163D01*
X86746372Y-102280000D01*
X86750000Y-102316834D01*
X86750000Y-102553165D01*
X86746372Y-102590000D01*
X86747357Y-102600005D01*
X86746373Y-102610000D01*
X86750000Y-102646827D01*
X86750000Y-102646835D01*
X86760853Y-102757026D01*
X86803739Y-102898401D01*
X86872581Y-103027196D01*
X86872581Y-103430000D01*
X86887039Y-103576790D01*
X86929855Y-103717938D01*
X86999386Y-103848022D01*
X87092959Y-103962041D01*
X87206978Y-104055614D01*
X87337062Y-104125145D01*
X87478210Y-104167961D01*
X87625000Y-104182419D01*
X88575000Y-104182419D01*
X88721790Y-104167961D01*
X88862938Y-104125145D01*
X88993022Y-104055614D01*
X89107041Y-103962041D01*
X89200614Y-103848022D01*
X89270145Y-103717938D01*
X89312961Y-103576790D01*
X89327419Y-103430000D01*
X89327419Y-103096458D01*
X89366259Y-103049131D01*
X89366620Y-103048691D01*
X89436261Y-102918399D01*
X89449426Y-102875000D01*
X89479147Y-102777027D01*
X89489071Y-102676261D01*
X89490000Y-102666832D01*
X89490000Y-102666829D01*
X89493627Y-102630001D01*
X89491657Y-102610000D01*
X89493627Y-102590000D01*
X89489999Y-102553170D01*
X89489998Y-102316842D01*
X89493627Y-102280000D01*
X89489998Y-102243156D01*
X89489999Y-101920472D01*
X89492467Y-101917465D01*
X89552757Y-101804670D01*
X89589883Y-101682281D01*
X89602419Y-101555000D01*
X89602419Y-101255000D01*
X89589883Y-101127719D01*
X89552757Y-101005330D01*
X89492467Y-100892535D01*
X89411330Y-100793670D01*
X89312465Y-100712533D01*
X89199670Y-100652243D01*
X89077281Y-100615117D01*
X88950000Y-100602581D01*
X87300000Y-100602581D01*
X87172719Y-100615117D01*
X87050330Y-100652243D01*
X86937535Y-100712533D01*
X86838670Y-100793670D01*
X86757533Y-100892535D01*
X86697243Y-101005330D01*
X86660117Y-101127719D01*
X86647581Y-101255000D01*
X84652419Y-101255000D01*
X84639883Y-101127719D01*
X84602757Y-101005330D01*
X84542467Y-100892535D01*
X84461330Y-100793670D01*
X84432488Y-100770000D01*
X84461330Y-100746330D01*
X84542467Y-100647465D01*
X84602757Y-100534670D01*
X84639883Y-100412281D01*
X84652419Y-100285000D01*
X84652419Y-99985000D01*
X84639883Y-99857719D01*
X84602757Y-99735330D01*
X84542467Y-99622535D01*
X84461330Y-99523670D01*
X84432488Y-99500000D01*
X84461330Y-99476330D01*
X84542467Y-99377465D01*
X84602757Y-99264670D01*
X84639883Y-99142281D01*
X84652419Y-99015000D01*
X84652419Y-98715000D01*
X84639883Y-98587719D01*
X84602757Y-98465330D01*
X84542467Y-98352535D01*
X84461330Y-98253670D01*
X84432488Y-98230000D01*
X84461330Y-98206330D01*
X84542467Y-98107465D01*
X84602757Y-97994670D01*
X84639883Y-97872281D01*
X84652419Y-97745000D01*
X84652419Y-97445000D01*
X86647581Y-97445000D01*
X86647581Y-97745000D01*
X86660117Y-97872281D01*
X86697243Y-97994670D01*
X86757533Y-98107465D01*
X86838670Y-98206330D01*
X86867512Y-98230000D01*
X86838670Y-98253670D01*
X86757533Y-98352535D01*
X86697243Y-98465330D01*
X86660117Y-98587719D01*
X86647581Y-98715000D01*
X86647581Y-99015000D01*
X86660117Y-99142281D01*
X86697243Y-99264670D01*
X86757533Y-99377465D01*
X86838670Y-99476330D01*
X86937535Y-99557467D01*
X87050330Y-99617757D01*
X87172719Y-99654883D01*
X87300000Y-99667419D01*
X88950000Y-99667419D01*
X89077281Y-99654883D01*
X89199670Y-99617757D01*
X89204828Y-99615000D01*
X89727940Y-99615000D01*
X89744670Y-99620075D01*
X89870000Y-99632419D01*
X90210000Y-99632419D01*
X90335330Y-99620075D01*
X90350001Y-99615625D01*
X90350001Y-100023163D01*
X90346373Y-100060000D01*
X90360853Y-100207025D01*
X90403739Y-100348400D01*
X90403740Y-100348401D01*
X90422326Y-100383173D01*
X90429829Y-100459354D01*
X90466102Y-100578930D01*
X90525005Y-100689131D01*
X90604277Y-100785723D01*
X90700869Y-100864995D01*
X90811070Y-100923898D01*
X90930646Y-100960171D01*
X91055000Y-100972419D01*
X91325000Y-100972419D01*
X91449354Y-100960171D01*
X91568930Y-100923898D01*
X91679131Y-100864995D01*
X91700000Y-100847868D01*
X91720869Y-100864995D01*
X91831070Y-100923898D01*
X91950646Y-100960171D01*
X92075000Y-100972419D01*
X92345000Y-100972419D01*
X92469354Y-100960171D01*
X92588930Y-100923898D01*
X92633641Y-100900000D01*
X92977575Y-100900000D01*
X92984157Y-100903518D01*
X93104670Y-100940075D01*
X93230000Y-100952419D01*
X93570000Y-100952419D01*
X93695330Y-100940075D01*
X93815843Y-100903518D01*
X93822425Y-100900000D01*
X93853543Y-100900000D01*
X93797243Y-101005330D01*
X93760117Y-101127719D01*
X93747581Y-101255000D01*
X93747581Y-101555000D01*
X93760117Y-101682281D01*
X93797243Y-101804670D01*
X93857533Y-101917465D01*
X93860000Y-101920471D01*
X93860000Y-102223163D01*
X93856372Y-102260000D01*
X93860000Y-102296834D01*
X93860000Y-102533165D01*
X93856372Y-102570000D01*
X93857357Y-102580005D01*
X93856373Y-102590000D01*
X93860000Y-102626827D01*
X93860000Y-102626835D01*
X93870853Y-102737026D01*
X93913739Y-102878401D01*
X93983381Y-103008693D01*
X94012581Y-103044273D01*
X94012581Y-103430000D01*
X94027039Y-103576790D01*
X94069855Y-103717938D01*
X94139386Y-103848022D01*
X94232959Y-103962041D01*
X94346978Y-104055614D01*
X94477062Y-104125145D01*
X94618210Y-104167961D01*
X94765000Y-104182419D01*
X95715000Y-104182419D01*
X95861790Y-104167961D01*
X96002938Y-104125145D01*
X96133022Y-104055614D01*
X96247041Y-103962041D01*
X96340614Y-103848022D01*
X96410145Y-103717938D01*
X96452961Y-103576790D01*
X96467419Y-103430000D01*
X96467419Y-103039902D01*
X96473877Y-103032033D01*
X96476620Y-103028691D01*
X96546261Y-102898399D01*
X96559092Y-102856102D01*
X96589147Y-102757027D01*
X96595256Y-102695000D01*
X96600000Y-102646832D01*
X96600000Y-102646829D01*
X96603627Y-102610001D01*
X96601657Y-102590000D01*
X96603627Y-102570000D01*
X96599999Y-102533170D01*
X96599998Y-102296842D01*
X96603627Y-102260000D01*
X96599998Y-102223156D01*
X96599999Y-101903374D01*
X96652757Y-101804670D01*
X96689883Y-101682281D01*
X96702419Y-101555000D01*
X96702419Y-101502419D01*
X98697581Y-101502419D01*
X98697581Y-101555000D01*
X98710117Y-101682281D01*
X98747243Y-101804670D01*
X98807533Y-101917465D01*
X98888670Y-102016330D01*
X98930000Y-102050249D01*
X98930000Y-102078941D01*
X98886102Y-102161070D01*
X98849829Y-102280646D01*
X98837581Y-102405000D01*
X98837581Y-102675000D01*
X98849829Y-102799354D01*
X98858594Y-102828249D01*
X98741599Y-102863739D01*
X98611307Y-102933381D01*
X98497105Y-103027105D01*
X98403381Y-103141307D01*
X98333739Y-103271599D01*
X98290853Y-103412974D01*
X98276372Y-103560000D01*
X98290853Y-103707026D01*
X98333739Y-103848401D01*
X98403381Y-103978693D01*
X98497105Y-104092895D01*
X98611307Y-104186619D01*
X98741599Y-104256261D01*
X98882974Y-104299147D01*
X98993165Y-104310000D01*
X99317117Y-104310000D01*
X99350646Y-104320171D01*
X99475000Y-104332419D01*
X99845000Y-104332419D01*
X99969354Y-104320171D01*
X100088930Y-104283898D01*
X100199131Y-104224995D01*
X100295723Y-104145723D01*
X100374995Y-104049131D01*
X100433898Y-103938930D01*
X100470171Y-103819354D01*
X100482419Y-103695000D01*
X100482419Y-103425000D01*
X100474244Y-103342003D01*
X100580000Y-103352419D01*
X100920000Y-103352419D01*
X101045330Y-103340075D01*
X101165843Y-103303518D01*
X101276909Y-103244152D01*
X101374259Y-103164259D01*
X101454152Y-103066909D01*
X101513518Y-102955843D01*
X101550075Y-102835330D01*
X101562419Y-102710000D01*
X101562419Y-102430000D01*
X101550075Y-102304670D01*
X101513518Y-102184157D01*
X101480000Y-102121449D01*
X101480000Y-101993581D01*
X101542467Y-101917465D01*
X101562778Y-101879466D01*
X101571070Y-101883898D01*
X101690646Y-101920171D01*
X101700481Y-101921140D01*
X101943621Y-102164280D01*
X101967105Y-102192895D01*
X102081307Y-102286619D01*
X102211599Y-102356261D01*
X102352974Y-102399147D01*
X102463165Y-102410000D01*
X102463172Y-102410000D01*
X102500000Y-102413627D01*
X102536828Y-102410000D01*
X102563173Y-102410000D01*
X102600000Y-102413627D01*
X102636827Y-102410000D01*
X102636835Y-102410000D01*
X102747026Y-102399147D01*
X102888401Y-102356261D01*
X103018693Y-102286619D01*
X103132895Y-102192895D01*
X103156379Y-102164280D01*
X103399519Y-101921140D01*
X103409354Y-101920171D01*
X103528930Y-101883898D01*
X103639131Y-101824995D01*
X103735723Y-101745723D01*
X103814995Y-101649131D01*
X103873898Y-101538930D01*
X103910171Y-101419354D01*
X103922419Y-101295000D01*
X103922419Y-101025000D01*
X103914146Y-100941008D01*
X104030000Y-100952419D01*
X104370000Y-100952419D01*
X104495330Y-100940075D01*
X104615843Y-100903518D01*
X104650488Y-100885000D01*
X104663717Y-100885000D01*
X104657533Y-100892535D01*
X104597243Y-101005330D01*
X104560117Y-101127719D01*
X104547581Y-101255000D01*
X104547581Y-101555000D01*
X104560117Y-101682281D01*
X104597243Y-101804670D01*
X104657533Y-101917465D01*
X104670000Y-101932656D01*
X104670000Y-102243163D01*
X104666372Y-102280000D01*
X104670000Y-102316834D01*
X104670000Y-102553165D01*
X104666372Y-102590000D01*
X104667357Y-102600005D01*
X104666373Y-102610000D01*
X104670000Y-102646827D01*
X104670000Y-102646835D01*
X104680853Y-102757026D01*
X104723739Y-102898401D01*
X104793381Y-103028693D01*
X104802581Y-103039903D01*
X104802581Y-103430000D01*
X104817039Y-103576790D01*
X104859855Y-103717938D01*
X104929386Y-103848022D01*
X105022959Y-103962041D01*
X105136978Y-104055614D01*
X105267062Y-104125145D01*
X105408210Y-104167961D01*
X105555000Y-104182419D01*
X106505000Y-104182419D01*
X106651790Y-104167961D01*
X106792938Y-104125145D01*
X106923022Y-104055614D01*
X107037041Y-103962041D01*
X107130614Y-103848022D01*
X107200145Y-103717938D01*
X107242961Y-103576790D01*
X107257419Y-103430000D01*
X107257419Y-103084273D01*
X107286259Y-103049131D01*
X107286620Y-103048691D01*
X107356261Y-102918399D01*
X107369426Y-102875000D01*
X107399147Y-102777027D01*
X107409071Y-102676261D01*
X107410000Y-102666832D01*
X107410000Y-102666829D01*
X107413627Y-102630001D01*
X107411657Y-102610000D01*
X107413627Y-102590000D01*
X107409999Y-102553170D01*
X107409998Y-102316842D01*
X107413627Y-102280000D01*
X107409998Y-102243156D01*
X107409999Y-101884665D01*
X107452757Y-101804670D01*
X107489883Y-101682281D01*
X107502419Y-101555000D01*
X107502419Y-101502419D01*
X109497581Y-101502419D01*
X109497581Y-101555000D01*
X109510117Y-101682281D01*
X109547243Y-101804670D01*
X109607533Y-101917465D01*
X109688670Y-102016330D01*
X109730000Y-102050249D01*
X109730000Y-102173777D01*
X109726102Y-102181070D01*
X109689829Y-102300646D01*
X109677581Y-102425000D01*
X109677581Y-102695000D01*
X109689829Y-102819354D01*
X109696659Y-102841869D01*
X109591600Y-102873739D01*
X109461308Y-102943382D01*
X109347105Y-103037105D01*
X109253382Y-103151308D01*
X109183739Y-103281600D01*
X109140853Y-103422975D01*
X109126373Y-103570000D01*
X109140853Y-103717025D01*
X109183739Y-103858400D01*
X109253382Y-103988692D01*
X109323624Y-104074283D01*
X109333621Y-104084280D01*
X109357105Y-104112895D01*
X109471307Y-104206619D01*
X109601599Y-104276261D01*
X109742974Y-104319147D01*
X109853165Y-104330000D01*
X109853172Y-104330000D01*
X109889999Y-104333627D01*
X109926827Y-104330000D01*
X110157117Y-104330000D01*
X110190646Y-104340171D01*
X110315000Y-104352419D01*
X110685000Y-104352419D01*
X110809354Y-104340171D01*
X110928930Y-104303898D01*
X111039131Y-104244995D01*
X111135723Y-104165723D01*
X111214995Y-104069131D01*
X111273898Y-103958930D01*
X111310171Y-103839354D01*
X111322419Y-103715000D01*
X111322419Y-103445000D01*
X111312647Y-103345785D01*
X111380000Y-103352419D01*
X111720000Y-103352419D01*
X111845330Y-103340075D01*
X111965843Y-103303518D01*
X112072042Y-103246753D01*
X116258904Y-103246753D01*
X116351083Y-103573097D01*
X116671483Y-103759979D01*
X117022186Y-103880762D01*
X117389713Y-103930806D01*
X117759941Y-103908187D01*
X118118643Y-103813775D01*
X118452033Y-103651197D01*
X118568917Y-103573097D01*
X118661096Y-103246753D01*
X121338904Y-103246753D01*
X121431083Y-103573097D01*
X121751483Y-103759979D01*
X122102186Y-103880762D01*
X122469713Y-103930806D01*
X122839941Y-103908187D01*
X123198643Y-103813775D01*
X123532033Y-103651197D01*
X123565860Y-103628594D01*
X128475000Y-103628594D01*
X128475000Y-103771406D01*
X128502861Y-103911475D01*
X128557513Y-104043416D01*
X128636856Y-104162161D01*
X128737839Y-104263144D01*
X128856584Y-104342487D01*
X128988525Y-104397139D01*
X129128594Y-104425000D01*
X129271406Y-104425000D01*
X129411475Y-104397139D01*
X129527443Y-104349103D01*
X129556424Y-104372888D01*
X129668787Y-104432947D01*
X129790707Y-104469931D01*
X129917500Y-104482419D01*
X130262500Y-104482419D01*
X130389293Y-104469931D01*
X130511213Y-104432947D01*
X130623576Y-104372888D01*
X130722062Y-104292062D01*
X130802888Y-104193576D01*
X130862947Y-104081213D01*
X130899931Y-103959293D01*
X130912419Y-103832500D01*
X130912419Y-103537500D01*
X130899931Y-103410707D01*
X130862947Y-103288787D01*
X130815490Y-103200000D01*
X130862947Y-103111213D01*
X130899931Y-102989293D01*
X130912419Y-102862500D01*
X130912419Y-102567500D01*
X130899931Y-102440707D01*
X130862947Y-102318787D01*
X130802888Y-102206424D01*
X130722062Y-102107938D01*
X130715000Y-102102142D01*
X130715000Y-101404523D01*
X130725723Y-101395723D01*
X130804995Y-101299131D01*
X130863898Y-101188930D01*
X130900171Y-101069354D01*
X130912419Y-100945000D01*
X130912419Y-100675000D01*
X130900171Y-100550646D01*
X130863898Y-100431070D01*
X130804995Y-100320869D01*
X130725723Y-100224277D01*
X130629131Y-100145005D01*
X130518930Y-100086102D01*
X130399354Y-100049829D01*
X130275000Y-100037581D01*
X129905000Y-100037581D01*
X129780646Y-100049829D01*
X129661070Y-100086102D01*
X129550869Y-100145005D01*
X129454277Y-100224277D01*
X129375005Y-100320869D01*
X129316102Y-100431070D01*
X129279829Y-100550646D01*
X129267581Y-100675000D01*
X129267581Y-100945000D01*
X129279829Y-101069354D01*
X129316102Y-101188930D01*
X129375005Y-101299131D01*
X129454277Y-101395723D01*
X129465001Y-101404524D01*
X129465000Y-102102142D01*
X129457938Y-102107938D01*
X129377112Y-102206424D01*
X129317053Y-102318787D01*
X129280069Y-102440707D01*
X129267581Y-102567500D01*
X129267581Y-102862500D01*
X129278806Y-102976472D01*
X129271406Y-102975000D01*
X129128594Y-102975000D01*
X128988525Y-103002861D01*
X128856584Y-103057513D01*
X128737839Y-103136856D01*
X128636856Y-103237839D01*
X128557513Y-103356584D01*
X128502861Y-103488525D01*
X128475000Y-103628594D01*
X123565860Y-103628594D01*
X123648917Y-103573097D01*
X123741096Y-103246753D01*
X122540000Y-102045657D01*
X121338904Y-103246753D01*
X118661096Y-103246753D01*
X117460000Y-102045657D01*
X116258904Y-103246753D01*
X112072042Y-103246753D01*
X112076909Y-103244152D01*
X112174259Y-103164259D01*
X112254152Y-103066909D01*
X112313518Y-102955843D01*
X112350075Y-102835330D01*
X112362419Y-102710000D01*
X112362419Y-102430000D01*
X112350075Y-102304670D01*
X112313518Y-102184157D01*
X112280000Y-102121449D01*
X112280000Y-101993581D01*
X112299588Y-101969713D01*
X115569194Y-101969713D01*
X115591813Y-102339941D01*
X115686225Y-102698643D01*
X115848803Y-103032033D01*
X115926903Y-103148917D01*
X116253247Y-103241096D01*
X117454343Y-102040000D01*
X117465657Y-102040000D01*
X118666753Y-103241096D01*
X118993097Y-103148917D01*
X119179979Y-102828517D01*
X119300762Y-102477814D01*
X119350806Y-102110287D01*
X119342218Y-101969713D01*
X120649194Y-101969713D01*
X120671813Y-102339941D01*
X120766225Y-102698643D01*
X120928803Y-103032033D01*
X121006903Y-103148917D01*
X121333247Y-103241096D01*
X122534343Y-102040000D01*
X122545657Y-102040000D01*
X123746753Y-103241096D01*
X124073097Y-103148917D01*
X124259979Y-102828517D01*
X124380762Y-102477814D01*
X124430806Y-102110287D01*
X124408187Y-101740059D01*
X124313775Y-101381357D01*
X124151197Y-101047967D01*
X124073097Y-100931083D01*
X123746753Y-100838904D01*
X122545657Y-102040000D01*
X122534343Y-102040000D01*
X121333247Y-100838904D01*
X121006903Y-100931083D01*
X120820021Y-101251483D01*
X120699238Y-101602186D01*
X120649194Y-101969713D01*
X119342218Y-101969713D01*
X119328187Y-101740059D01*
X119233775Y-101381357D01*
X119071197Y-101047967D01*
X118993097Y-100931083D01*
X118666753Y-100838904D01*
X117465657Y-102040000D01*
X117454343Y-102040000D01*
X116253247Y-100838904D01*
X115926903Y-100931083D01*
X115740021Y-101251483D01*
X115619238Y-101602186D01*
X115569194Y-101969713D01*
X112299588Y-101969713D01*
X112342467Y-101917465D01*
X112389443Y-101829578D01*
X112491070Y-101883898D01*
X112610646Y-101920171D01*
X112735000Y-101932419D01*
X113105000Y-101932419D01*
X113229354Y-101920171D01*
X113348930Y-101883898D01*
X113459131Y-101824995D01*
X113555723Y-101745723D01*
X113634995Y-101649131D01*
X113693898Y-101538930D01*
X113730171Y-101419354D01*
X113742419Y-101295000D01*
X113742419Y-101025000D01*
X113730171Y-100900646D01*
X113693898Y-100781070D01*
X113670000Y-100736359D01*
X113670000Y-100396223D01*
X113673898Y-100388930D01*
X113710171Y-100269354D01*
X113719042Y-100179291D01*
X113807568Y-100251943D01*
X113963919Y-100335514D01*
X114133569Y-100386977D01*
X114309999Y-100404354D01*
X114354206Y-100400000D01*
X116527032Y-100400000D01*
X116467967Y-100428803D01*
X116351083Y-100506903D01*
X116258904Y-100833247D01*
X117460000Y-102034343D01*
X118661096Y-100833247D01*
X118568917Y-100506903D01*
X118385637Y-100400000D01*
X118767259Y-100400000D01*
X118815455Y-100472131D01*
X119027869Y-100684545D01*
X119277642Y-100851438D01*
X119555174Y-100966395D01*
X119849801Y-101025000D01*
X120150199Y-101025000D01*
X120444826Y-100966395D01*
X120722358Y-100851438D01*
X120749582Y-100833247D01*
X121338904Y-100833247D01*
X122540000Y-102034343D01*
X123741096Y-100833247D01*
X123648917Y-100506903D01*
X123328517Y-100320021D01*
X122977814Y-100199238D01*
X122610287Y-100149194D01*
X122240059Y-100171813D01*
X121881357Y-100266225D01*
X121547967Y-100428803D01*
X121431083Y-100506903D01*
X121338904Y-100833247D01*
X120749582Y-100833247D01*
X120972131Y-100684545D01*
X121184545Y-100472131D01*
X121351438Y-100222358D01*
X121466395Y-99944826D01*
X121525000Y-99650199D01*
X121525000Y-99349801D01*
X121483749Y-99142414D01*
X126000000Y-99142414D01*
X126000000Y-99457586D01*
X126061487Y-99766703D01*
X126182098Y-100057884D01*
X126357199Y-100319941D01*
X126580059Y-100542801D01*
X126842116Y-100717902D01*
X127133297Y-100838513D01*
X127442414Y-100900000D01*
X127757586Y-100900000D01*
X128066703Y-100838513D01*
X128357884Y-100717902D01*
X128619941Y-100542801D01*
X128842801Y-100319941D01*
X129017902Y-100057884D01*
X129138513Y-99766703D01*
X129200000Y-99457586D01*
X129200000Y-99142414D01*
X129138513Y-98833297D01*
X129017902Y-98542116D01*
X128842801Y-98280059D01*
X128619941Y-98057199D01*
X128357884Y-97882098D01*
X128066703Y-97761487D01*
X127757586Y-97700000D01*
X127442414Y-97700000D01*
X127133297Y-97761487D01*
X126842116Y-97882098D01*
X126580059Y-98057199D01*
X126357199Y-98280059D01*
X126182098Y-98542116D01*
X126061487Y-98833297D01*
X126000000Y-99142414D01*
X121483749Y-99142414D01*
X121466395Y-99055174D01*
X121351438Y-98777642D01*
X121184545Y-98527869D01*
X120972131Y-98315455D01*
X120749583Y-98166753D01*
X121338904Y-98166753D01*
X121431083Y-98493097D01*
X121751483Y-98679979D01*
X122102186Y-98800762D01*
X122469713Y-98850806D01*
X122839941Y-98828187D01*
X123198643Y-98733775D01*
X123532033Y-98571197D01*
X123648917Y-98493097D01*
X123741096Y-98166753D01*
X122540000Y-96965657D01*
X121338904Y-98166753D01*
X120749583Y-98166753D01*
X120722358Y-98148562D01*
X120444826Y-98033605D01*
X120150199Y-97975000D01*
X119849801Y-97975000D01*
X119555174Y-98033605D01*
X119277642Y-98148562D01*
X119027869Y-98315455D01*
X118815455Y-98527869D01*
X118767259Y-98600000D01*
X118392968Y-98600000D01*
X118452033Y-98571197D01*
X118568917Y-98493097D01*
X118661096Y-98166753D01*
X117460000Y-96965657D01*
X116258904Y-98166753D01*
X116351083Y-98493097D01*
X116534363Y-98600000D01*
X114682792Y-98600000D01*
X114512383Y-98429591D01*
X114476376Y-98385716D01*
X114254395Y-98163735D01*
X114208630Y-98107970D01*
X113693433Y-97592774D01*
X113663518Y-97494157D01*
X113613190Y-97400000D01*
X113663518Y-97305843D01*
X113700075Y-97185330D01*
X113712419Y-97060000D01*
X113712419Y-96889713D01*
X115569194Y-96889713D01*
X115591813Y-97259941D01*
X115686225Y-97618643D01*
X115848803Y-97952033D01*
X115926903Y-98068917D01*
X116253247Y-98161096D01*
X117454343Y-96960000D01*
X117465657Y-96960000D01*
X118666753Y-98161096D01*
X118993097Y-98068917D01*
X119179979Y-97748517D01*
X119300762Y-97397814D01*
X119350806Y-97030287D01*
X119342218Y-96889713D01*
X120649194Y-96889713D01*
X120671813Y-97259941D01*
X120766225Y-97618643D01*
X120928803Y-97952033D01*
X121006903Y-98068917D01*
X121333247Y-98161096D01*
X122534343Y-96960000D01*
X122545657Y-96960000D01*
X123746753Y-98161096D01*
X124073097Y-98068917D01*
X124259979Y-97748517D01*
X124380762Y-97397814D01*
X124430806Y-97030287D01*
X124408187Y-96660059D01*
X124313775Y-96301357D01*
X124151197Y-95967967D01*
X124073097Y-95851083D01*
X123746753Y-95758904D01*
X122545657Y-96960000D01*
X122534343Y-96960000D01*
X121333247Y-95758904D01*
X121006903Y-95851083D01*
X120820021Y-96171483D01*
X120699238Y-96522186D01*
X120649194Y-96889713D01*
X119342218Y-96889713D01*
X119328187Y-96660059D01*
X119233775Y-96301357D01*
X119071197Y-95967967D01*
X118993097Y-95851083D01*
X118666753Y-95758904D01*
X117465657Y-96960000D01*
X117454343Y-96960000D01*
X116253247Y-95758904D01*
X115926903Y-95851083D01*
X115740021Y-96171483D01*
X115619238Y-96522186D01*
X115569194Y-96889713D01*
X113712419Y-96889713D01*
X113712419Y-96780000D01*
X113700075Y-96654670D01*
X113663518Y-96534157D01*
X113650000Y-96508867D01*
X113650000Y-96323165D01*
X113639147Y-96212974D01*
X113596261Y-96071599D01*
X113526619Y-95941307D01*
X113432895Y-95827105D01*
X113342899Y-95753247D01*
X116258904Y-95753247D01*
X117460000Y-96954343D01*
X118661096Y-95753247D01*
X121338904Y-95753247D01*
X122540000Y-96954343D01*
X123741096Y-95753247D01*
X123648917Y-95426903D01*
X123328517Y-95240021D01*
X122977814Y-95119238D01*
X122610287Y-95069194D01*
X122240059Y-95091813D01*
X121881357Y-95186225D01*
X121547967Y-95348803D01*
X121431083Y-95426903D01*
X121338904Y-95753247D01*
X118661096Y-95753247D01*
X118568917Y-95426903D01*
X118248517Y-95240021D01*
X117897814Y-95119238D01*
X117530287Y-95069194D01*
X117160059Y-95091813D01*
X116801357Y-95186225D01*
X116467967Y-95348803D01*
X116351083Y-95426903D01*
X116258904Y-95753247D01*
X113342899Y-95753247D01*
X113318692Y-95733381D01*
X113188400Y-95663739D01*
X113047025Y-95620853D01*
X112900000Y-95606372D01*
X112752974Y-95620853D01*
X112611599Y-95663739D01*
X112481307Y-95733381D01*
X112367105Y-95827105D01*
X112277850Y-95935863D01*
X112216619Y-95821307D01*
X112187419Y-95785727D01*
X112187419Y-95360000D01*
X112172961Y-95213210D01*
X112130145Y-95072062D01*
X112060614Y-94941978D01*
X111967563Y-94828594D01*
X128475000Y-94828594D01*
X128475000Y-94971406D01*
X128502861Y-95111475D01*
X128557513Y-95243416D01*
X128636856Y-95362161D01*
X128737839Y-95463144D01*
X128856584Y-95542487D01*
X128988525Y-95597139D01*
X129128594Y-95625000D01*
X129271406Y-95625000D01*
X129278806Y-95623528D01*
X129267581Y-95737500D01*
X129267581Y-96032500D01*
X129280069Y-96159293D01*
X129317053Y-96281213D01*
X129377112Y-96393576D01*
X129457938Y-96492062D01*
X129475000Y-96506065D01*
X129475001Y-97192269D01*
X129454277Y-97209277D01*
X129375005Y-97305869D01*
X129316102Y-97416070D01*
X129279829Y-97535646D01*
X129267581Y-97660000D01*
X129267581Y-97930000D01*
X129279829Y-98054354D01*
X129316102Y-98173930D01*
X129375005Y-98284131D01*
X129454277Y-98380723D01*
X129550869Y-98459995D01*
X129661070Y-98518898D01*
X129780646Y-98555171D01*
X129905000Y-98567419D01*
X130275000Y-98567419D01*
X130399354Y-98555171D01*
X130518930Y-98518898D01*
X130629131Y-98459995D01*
X130725723Y-98380723D01*
X130804995Y-98284131D01*
X130863898Y-98173930D01*
X130900171Y-98054354D01*
X130912419Y-97930000D01*
X130912419Y-97660000D01*
X130900171Y-97535646D01*
X130863898Y-97416070D01*
X130804995Y-97305869D01*
X130725723Y-97209277D01*
X130725000Y-97208684D01*
X130725000Y-96488482D01*
X130802888Y-96393576D01*
X130862947Y-96281213D01*
X130899931Y-96159293D01*
X130912419Y-96032500D01*
X130912419Y-95737500D01*
X130899931Y-95610707D01*
X130862947Y-95488787D01*
X130815490Y-95400000D01*
X130862947Y-95311213D01*
X130899931Y-95189293D01*
X130912419Y-95062500D01*
X130912419Y-94767500D01*
X130899931Y-94640707D01*
X130862947Y-94518787D01*
X130802888Y-94406424D01*
X130722062Y-94307938D01*
X130623576Y-94227112D01*
X130511213Y-94167053D01*
X130389293Y-94130069D01*
X130262500Y-94117581D01*
X129917500Y-94117581D01*
X129790707Y-94130069D01*
X129668787Y-94167053D01*
X129556424Y-94227112D01*
X129527443Y-94250897D01*
X129411475Y-94202861D01*
X129271406Y-94175000D01*
X129128594Y-94175000D01*
X128988525Y-94202861D01*
X128856584Y-94257513D01*
X128737839Y-94336856D01*
X128636856Y-94437839D01*
X128557513Y-94556584D01*
X128502861Y-94688525D01*
X128475000Y-94828594D01*
X111967563Y-94828594D01*
X111967041Y-94827959D01*
X111853022Y-94734386D01*
X111722938Y-94664855D01*
X111581790Y-94622039D01*
X111435000Y-94607581D01*
X110485000Y-94607581D01*
X110338210Y-94622039D01*
X110197062Y-94664855D01*
X110066978Y-94734386D01*
X109952959Y-94827959D01*
X109859386Y-94941978D01*
X109789855Y-95072062D01*
X109747039Y-95213210D01*
X109732581Y-95360000D01*
X109732581Y-95790097D01*
X109723381Y-95801307D01*
X109653739Y-95931599D01*
X109610853Y-96072974D01*
X109602477Y-96158020D01*
X109576261Y-96071599D01*
X109506619Y-95941307D01*
X109412895Y-95827105D01*
X109298693Y-95733381D01*
X109168401Y-95663739D01*
X109027026Y-95620853D01*
X108916835Y-95610000D01*
X108643641Y-95610000D01*
X108598930Y-95586102D01*
X108479354Y-95549829D01*
X108355000Y-95537581D01*
X108085000Y-95537581D01*
X107960646Y-95549829D01*
X107841070Y-95586102D01*
X107730869Y-95645005D01*
X107710000Y-95662132D01*
X107689131Y-95645005D01*
X107578930Y-95586102D01*
X107459354Y-95549829D01*
X107335000Y-95537581D01*
X107065000Y-95537581D01*
X106940646Y-95549829D01*
X106821070Y-95586102D01*
X106776359Y-95610000D01*
X106681133Y-95610000D01*
X106655843Y-95596482D01*
X106535330Y-95559925D01*
X106410000Y-95547581D01*
X106130000Y-95547581D01*
X106004670Y-95559925D01*
X105884157Y-95596482D01*
X105790000Y-95646810D01*
X105695843Y-95596482D01*
X105575330Y-95559925D01*
X105450000Y-95547581D01*
X105170000Y-95547581D01*
X105044670Y-95559925D01*
X104924157Y-95596482D01*
X104898867Y-95610000D01*
X104713165Y-95610000D01*
X104602974Y-95620853D01*
X104461599Y-95663739D01*
X104331307Y-95733381D01*
X104217105Y-95827105D01*
X104123381Y-95941307D01*
X104053739Y-96071599D01*
X104010853Y-96212974D01*
X103996372Y-96360000D01*
X104010853Y-96507026D01*
X104053739Y-96648401D01*
X104123381Y-96778693D01*
X104212871Y-96887736D01*
X104176599Y-96898739D01*
X104046307Y-96968381D01*
X103932105Y-97062105D01*
X103908624Y-97090717D01*
X103900481Y-97098860D01*
X103890646Y-97099829D01*
X103771070Y-97136102D01*
X103660869Y-97195005D01*
X103564277Y-97274277D01*
X103485005Y-97370869D01*
X103426102Y-97481070D01*
X103389829Y-97600646D01*
X103377581Y-97725000D01*
X103377581Y-97995000D01*
X103389685Y-98117892D01*
X103285000Y-98107581D01*
X102915000Y-98107581D01*
X102854188Y-98113571D01*
X102862419Y-98030000D01*
X102862419Y-97750000D01*
X102850075Y-97624670D01*
X102813518Y-97504157D01*
X102800000Y-97478867D01*
X102800000Y-97333165D01*
X102789147Y-97222974D01*
X102746261Y-97081599D01*
X102676619Y-96951307D01*
X102582895Y-96837105D01*
X102468692Y-96743381D01*
X102338400Y-96673739D01*
X102197025Y-96630853D01*
X102050000Y-96616372D01*
X101902974Y-96630853D01*
X101761599Y-96673739D01*
X101631307Y-96743381D01*
X101517105Y-96837105D01*
X101510000Y-96845762D01*
X101510000Y-96686834D01*
X101513628Y-96650000D01*
X101510000Y-96613165D01*
X101510000Y-96376835D01*
X101513628Y-96340000D01*
X101512643Y-96329995D01*
X101513627Y-96320000D01*
X101510000Y-96283172D01*
X101510000Y-96283166D01*
X101500151Y-96183165D01*
X101499147Y-96172974D01*
X101456261Y-96031599D01*
X101386619Y-95901307D01*
X101374772Y-95886872D01*
X101377419Y-95860000D01*
X101377419Y-95360000D01*
X101362961Y-95213210D01*
X101320145Y-95072062D01*
X101250614Y-94941978D01*
X101157041Y-94827959D01*
X101043022Y-94734386D01*
X100912938Y-94664855D01*
X100771790Y-94622039D01*
X100625000Y-94607581D01*
X99675000Y-94607581D01*
X99528210Y-94622039D01*
X99387062Y-94664855D01*
X99256978Y-94734386D01*
X99142959Y-94827959D01*
X99049386Y-94941978D01*
X98979855Y-95072062D01*
X98937039Y-95213210D01*
X98922581Y-95360000D01*
X98922581Y-95845727D01*
X98893381Y-95881307D01*
X98823739Y-96011599D01*
X98780853Y-96152974D01*
X98770000Y-96263165D01*
X98770000Y-96263173D01*
X98766373Y-96300000D01*
X98768342Y-96319996D01*
X98766372Y-96340000D01*
X98770000Y-96376835D01*
X98770000Y-96613165D01*
X98766372Y-96650000D01*
X98770000Y-96686834D01*
X98770000Y-97152755D01*
X98747243Y-97195330D01*
X98710117Y-97317719D01*
X98697581Y-97445000D01*
X98697581Y-97497581D01*
X96802911Y-97497581D01*
X96826618Y-97468694D01*
X96826619Y-97468693D01*
X96896261Y-97338401D01*
X96939147Y-97197026D01*
X96940426Y-97184037D01*
X96960646Y-97190171D01*
X97085000Y-97202419D01*
X97355000Y-97202419D01*
X97479354Y-97190171D01*
X97598930Y-97153898D01*
X97643648Y-97129996D01*
X97876835Y-97129996D01*
X97987026Y-97119143D01*
X98128401Y-97076257D01*
X98258693Y-97006615D01*
X98372895Y-96912891D01*
X98466619Y-96798689D01*
X98536261Y-96668397D01*
X98579147Y-96527022D01*
X98593628Y-96379996D01*
X98579147Y-96232970D01*
X98536261Y-96091595D01*
X98466619Y-95961303D01*
X98372895Y-95847101D01*
X98258693Y-95753377D01*
X98128401Y-95683735D01*
X97987026Y-95640849D01*
X97876835Y-95629996D01*
X97643633Y-95629996D01*
X97598930Y-95606102D01*
X97479354Y-95569829D01*
X97355000Y-95557581D01*
X97085000Y-95557581D01*
X96960646Y-95569829D01*
X96841070Y-95606102D01*
X96730869Y-95665005D01*
X96710000Y-95682132D01*
X96689131Y-95665005D01*
X96578930Y-95606102D01*
X96459354Y-95569829D01*
X96335000Y-95557581D01*
X96065000Y-95557581D01*
X95940646Y-95569829D01*
X95821070Y-95606102D01*
X95710869Y-95665005D01*
X95614277Y-95744277D01*
X95535005Y-95840869D01*
X95476102Y-95951070D01*
X95439829Y-96070646D01*
X95427581Y-96195000D01*
X95427581Y-96565000D01*
X95439829Y-96689354D01*
X95450000Y-96722883D01*
X95450000Y-96739340D01*
X95396759Y-96792581D01*
X94400000Y-96792581D01*
X94272719Y-96805117D01*
X94150330Y-96842243D01*
X94145172Y-96845000D01*
X93701828Y-96845000D01*
X93665000Y-96841373D01*
X93628172Y-96845000D01*
X93628165Y-96845000D01*
X93517974Y-96855853D01*
X93376599Y-96898739D01*
X93246307Y-96968381D01*
X93132105Y-97062105D01*
X93108624Y-97090717D01*
X93100481Y-97098860D01*
X93090646Y-97099829D01*
X92971070Y-97136102D01*
X92860869Y-97195005D01*
X92764277Y-97274277D01*
X92685005Y-97370869D01*
X92626102Y-97481070D01*
X92589829Y-97600646D01*
X92577581Y-97725000D01*
X92577581Y-97995000D01*
X92589400Y-98115000D01*
X92560325Y-98115000D01*
X92485000Y-98107581D01*
X92115000Y-98107581D01*
X91990646Y-98119829D01*
X91871070Y-98156102D01*
X91760869Y-98215005D01*
X91700000Y-98264960D01*
X91639131Y-98215005D01*
X91528930Y-98156102D01*
X91409354Y-98119829D01*
X91285000Y-98107581D01*
X90915000Y-98107581D01*
X90839675Y-98115000D01*
X90450957Y-98115000D01*
X90335330Y-98079925D01*
X90210000Y-98067581D01*
X89870000Y-98067581D01*
X89744670Y-98079925D01*
X89629043Y-98115000D01*
X89486283Y-98115000D01*
X89492467Y-98107465D01*
X89552757Y-97994670D01*
X89589883Y-97872281D01*
X89602419Y-97745000D01*
X89602419Y-97445000D01*
X89589883Y-97317719D01*
X89552757Y-97195330D01*
X89492467Y-97082535D01*
X89490000Y-97079529D01*
X89490000Y-96646834D01*
X89493628Y-96610000D01*
X89490000Y-96573165D01*
X89490000Y-96336835D01*
X89493628Y-96300000D01*
X89492643Y-96289995D01*
X89493627Y-96280000D01*
X89490000Y-96243172D01*
X89490000Y-96243166D01*
X89479147Y-96132975D01*
X89478504Y-96130853D01*
X89436261Y-95991599D01*
X89375630Y-95878165D01*
X89377419Y-95860000D01*
X89377419Y-95360000D01*
X89362961Y-95213210D01*
X89320145Y-95072062D01*
X89250614Y-94941978D01*
X89157041Y-94827959D01*
X89043022Y-94734386D01*
X88912938Y-94664855D01*
X88771790Y-94622039D01*
X88625000Y-94607581D01*
X87675000Y-94607581D01*
X87528210Y-94622039D01*
X87387062Y-94664855D01*
X87256978Y-94734386D01*
X87142959Y-94827959D01*
X87049386Y-94941978D01*
X86979855Y-95072062D01*
X86937039Y-95213210D01*
X86922581Y-95360000D01*
X86922581Y-95781357D01*
X86873381Y-95841307D01*
X86803739Y-95971599D01*
X86760853Y-96112974D01*
X86750000Y-96223165D01*
X86750000Y-96223173D01*
X86746373Y-96260000D01*
X86748342Y-96279996D01*
X86746372Y-96300000D01*
X86750000Y-96336835D01*
X86750000Y-96573165D01*
X86746372Y-96610000D01*
X86750000Y-96646834D01*
X86750000Y-97096628D01*
X86697243Y-97195330D01*
X86660117Y-97317719D01*
X86647581Y-97445000D01*
X84652419Y-97445000D01*
X84639883Y-97317719D01*
X84602757Y-97195330D01*
X84542467Y-97082535D01*
X84461330Y-96983670D01*
X84362465Y-96902533D01*
X84249670Y-96842243D01*
X84127281Y-96805117D01*
X84000000Y-96792581D01*
X82350000Y-96792581D01*
X82222719Y-96805117D01*
X82100330Y-96842243D01*
X81987535Y-96902533D01*
X81905327Y-96970000D01*
X81818327Y-96970000D01*
X81739131Y-96905005D01*
X81628930Y-96846102D01*
X81509354Y-96809829D01*
X81385000Y-96797581D01*
X81015000Y-96797581D01*
X80890646Y-96809829D01*
X80771070Y-96846102D01*
X80660869Y-96905005D01*
X80612136Y-96945000D01*
X75588883Y-96945000D01*
X75198869Y-96554987D01*
X75198120Y-96551220D01*
X75096354Y-96305535D01*
X74948613Y-96084425D01*
X74760575Y-95896387D01*
X74539465Y-95748646D01*
X74293780Y-95646880D01*
X74032963Y-95595000D01*
X73767037Y-95595000D01*
X73506220Y-95646880D01*
X73260535Y-95748646D01*
X73039425Y-95896387D01*
X72851387Y-96084425D01*
X72703646Y-96305535D01*
X72601880Y-96551220D01*
X72550000Y-96812037D01*
X72550000Y-97077963D01*
X72601880Y-97338780D01*
X72703646Y-97584465D01*
X72851387Y-97805575D01*
X73039425Y-97993613D01*
X73152484Y-98069157D01*
X73056414Y-98116050D01*
X72805554Y-98306929D01*
X72596753Y-98543081D01*
X72438035Y-98815431D01*
X72335500Y-99113512D01*
X72312428Y-99229503D01*
X72150000Y-99229503D01*
X72150000Y-92850000D01*
X136650000Y-92850000D01*
X136650000Y-106150000D01*
G37*
%TD.AperFunction*%
%TD*%
M02*
