%TF.GenerationSoftware,KiCad,Pcbnew,(5.1.8)-1*%
%TF.CreationDate,2021-10-07T20:49:06+08:00*%
%TF.ProjectId,Amplifier,416d706c-6966-4696-9572-2e6b69636164,rev?*%
%TF.SameCoordinates,Original*%
%TF.FileFunction,Copper,L2,Inr*%
%TF.FilePolarity,Positive*%
%FSLAX46Y46*%
G04 Gerber Fmt 4.6, Leading zero omitted, Abs format (unit mm)*
G04 Created by KiCad (PCBNEW (5.1.8)-1) date 2021-10-07 20:49:06*
%MOMM*%
%LPD*%
G01*
G04 APERTURE LIST*
%TA.AperFunction,ComponentPad*%
%ADD10C,1.700000*%
%TD*%
%TA.AperFunction,ComponentPad*%
%ADD11R,1.700000X1.700000*%
%TD*%
%TA.AperFunction,ComponentPad*%
%ADD12C,2.250000*%
%TD*%
%TA.AperFunction,ComponentPad*%
%ADD13C,2.050000*%
%TD*%
%TA.AperFunction,ComponentPad*%
%ADD14O,1.700000X1.700000*%
%TD*%
%TA.AperFunction,ViaPad*%
%ADD15C,0.450000*%
%TD*%
%TA.AperFunction,Conductor*%
%ADD16C,0.200000*%
%TD*%
%TA.AperFunction,Conductor*%
%ADD17C,0.100000*%
%TD*%
G04 APERTURE END LIST*
D10*
%TO.N,GND*%
%TO.C,J1*%
X144290000Y-99520000D03*
%TO.N,N/C*%
X146830000Y-102060000D03*
D11*
X146830000Y-96980000D03*
D10*
%TO.N,-18V*%
X144290000Y-102060000D03*
%TO.N,N/C*%
X146830000Y-99520000D03*
%TO.N,+18V*%
X144290000Y-96980000D03*
%TD*%
D12*
%TO.N,GND*%
%TO.C,J4*%
X117460000Y-102040000D03*
X117460000Y-96960000D03*
X122540000Y-96960000D03*
X122540000Y-102040000D03*
D13*
%TO.N,OutSignal*%
X120000000Y-99500000D03*
%TD*%
D14*
%TO.N,Signal-*%
%TO.C,J3*%
X73900000Y-96945000D03*
%TO.N,GND*%
X73900000Y-99485000D03*
D11*
%TO.N,Signal+*%
X73900000Y-102025000D03*
%TD*%
D15*
%TO.N,GND*%
X136390001Y-96300000D03*
X136390001Y-95700000D03*
X136390000Y-95099999D03*
X135390001Y-96300000D03*
X135390001Y-95700000D03*
X135390000Y-95099999D03*
X136390001Y-103800000D03*
X136390001Y-102600000D03*
X135390000Y-103799999D03*
X135390001Y-102600000D03*
X136390001Y-103200000D03*
X135390001Y-103200000D03*
X72300000Y-106000000D03*
X73300000Y-106000000D03*
X74300000Y-106000000D03*
X75300000Y-106000000D03*
X76300000Y-106000000D03*
X77300000Y-106000000D03*
X78300000Y-106000000D03*
X79300000Y-106000000D03*
X80300000Y-106000000D03*
X81300000Y-106000000D03*
X82300000Y-106000000D03*
X83300000Y-106000000D03*
X84300000Y-106000000D03*
X85300000Y-106000000D03*
X86300000Y-106000000D03*
X87300000Y-106000000D03*
X88300000Y-106000000D03*
X89300000Y-106000000D03*
X90300000Y-106000000D03*
X91300000Y-106000000D03*
X92300000Y-106000000D03*
X93300000Y-106000000D03*
X94300000Y-106000000D03*
X95300000Y-106000000D03*
X96300000Y-106000000D03*
X97300000Y-106000000D03*
X98300000Y-106000000D03*
X99300000Y-106000000D03*
X100300000Y-106000000D03*
X101300000Y-106000000D03*
X102300000Y-106000000D03*
X103300000Y-106000000D03*
X104300000Y-106000000D03*
X105300000Y-106000000D03*
X106300000Y-106000000D03*
X107300000Y-106000000D03*
X108300000Y-106000000D03*
X109300000Y-106000000D03*
X110300000Y-106000000D03*
X111300000Y-106000000D03*
X112300000Y-106000000D03*
X113300000Y-106000000D03*
X114300000Y-106000000D03*
X115300000Y-106000000D03*
X116300000Y-106000000D03*
X117300000Y-106000000D03*
X118300000Y-106000000D03*
X119300000Y-106000000D03*
X120300000Y-106000000D03*
X121300000Y-106000000D03*
X122300000Y-106000000D03*
X125300000Y-106000000D03*
X124300000Y-106000000D03*
X123300000Y-106000000D03*
X124300000Y-93000000D03*
X123300000Y-93000000D03*
X121300000Y-93000000D03*
X122300000Y-93000000D03*
X93300000Y-93000000D03*
X79300000Y-93000000D03*
X102300000Y-93000000D03*
X86300000Y-93000000D03*
X92300000Y-93000000D03*
X105300000Y-93000000D03*
X108300000Y-93000000D03*
X74300000Y-93000000D03*
X90300000Y-93000000D03*
X110300000Y-93000000D03*
X112300000Y-93000000D03*
X113300000Y-93000000D03*
X87300000Y-93000000D03*
X80300000Y-93000000D03*
X114300000Y-93000000D03*
X91300000Y-93000000D03*
X116300000Y-93000000D03*
X85300000Y-93000000D03*
X99300000Y-93000000D03*
X88300000Y-93000000D03*
X76300000Y-93000000D03*
X100300000Y-93000000D03*
X73300000Y-93000000D03*
X72300000Y-93000000D03*
X101300000Y-93000000D03*
X84300000Y-93000000D03*
X104300000Y-93000000D03*
X77300000Y-93000000D03*
X83300000Y-93000000D03*
X96300000Y-93000000D03*
X95300000Y-93000000D03*
X109300000Y-93000000D03*
X111300000Y-93000000D03*
X115300000Y-93000000D03*
X78300000Y-93000000D03*
X117300000Y-93000000D03*
X107300000Y-93000000D03*
X118300000Y-93000000D03*
X75300000Y-93000000D03*
X81300000Y-93000000D03*
X82300000Y-93000000D03*
X89300000Y-93000000D03*
X94300000Y-93000000D03*
X97300000Y-93000000D03*
X98300000Y-93000000D03*
X103300000Y-93000000D03*
X106300000Y-93000000D03*
X120300000Y-93000000D03*
X119300000Y-93000000D03*
X72300000Y-94000000D03*
X125300000Y-93000000D03*
X72300000Y-97000000D03*
X72300000Y-95000000D03*
X72300000Y-96000000D03*
X72300000Y-99000000D03*
X72300000Y-98000000D03*
X72300000Y-103000000D03*
X72300000Y-101000000D03*
X72300000Y-100000000D03*
X72300000Y-102000000D03*
X72300000Y-104000000D03*
X72300000Y-105000000D03*
%TO.N,+18V*%
X139200000Y-94720000D03*
X139200000Y-96679999D03*
%TO.N,-18V*%
X139200000Y-102220000D03*
X139199999Y-104190000D03*
%TO.N,AVCC*%
X100780000Y-96570000D03*
X100160000Y-96570000D03*
X99540000Y-96570000D03*
X129200000Y-94900000D03*
X110350000Y-96570000D03*
X110970000Y-96570000D03*
X111590000Y-96570000D03*
X88145000Y-96570000D03*
X87525000Y-96570000D03*
X88765000Y-96570000D03*
%TO.N,AVEE*%
X129200000Y-103700000D03*
X87490000Y-102120000D03*
X88110000Y-102120000D03*
X88730000Y-102120000D03*
X95230000Y-102200000D03*
X94610000Y-102200000D03*
X95850000Y-102200000D03*
X106030000Y-102170000D03*
X105410000Y-102170000D03*
X106650000Y-102170000D03*
%TO.N,Net-(C14-Pad1)*%
X102050000Y-97370000D03*
X99030000Y-103560000D03*
X97840000Y-96379996D03*
%TO.N,Net-(C15-Pad1)*%
X104750000Y-96360000D03*
X102540000Y-101660000D03*
%TO.N,Net-(C19-Pad1)*%
X112900000Y-96360000D03*
X109880000Y-103570000D03*
X108880000Y-96360000D03*
%TO.N,Net-(J5-Pad1)*%
X81700000Y-100120000D03*
%TO.N,Net-(J2-Pad1)*%
X81700000Y-98880000D03*
%TD*%
D16*
%TO.N,GND*%
X136503307Y-92714464D02*
X136599567Y-92754336D01*
X136682232Y-92817768D01*
X136745664Y-92900433D01*
X136785536Y-92996693D01*
X136800000Y-93106559D01*
X136800000Y-105893441D01*
X136785536Y-106003307D01*
X136745664Y-106099567D01*
X136682232Y-106182232D01*
X136599567Y-106245664D01*
X136503307Y-106285536D01*
X136393441Y-106300000D01*
X72406559Y-106300000D01*
X72296693Y-106285536D01*
X72200433Y-106245664D01*
X72117768Y-106182232D01*
X72054336Y-106099567D01*
X72014464Y-106003307D01*
X72000000Y-105893441D01*
X72000000Y-103503367D01*
X98455000Y-103503367D01*
X98455000Y-103616633D01*
X98477097Y-103727721D01*
X98520442Y-103832365D01*
X98583368Y-103926541D01*
X98663459Y-104006632D01*
X98757635Y-104069558D01*
X98862279Y-104112903D01*
X98973367Y-104135000D01*
X99086633Y-104135000D01*
X99197721Y-104112903D01*
X99302365Y-104069558D01*
X99396541Y-104006632D01*
X99476632Y-103926541D01*
X99539558Y-103832365D01*
X99582903Y-103727721D01*
X99605000Y-103616633D01*
X99605000Y-103513367D01*
X109305000Y-103513367D01*
X109305000Y-103626633D01*
X109327097Y-103737721D01*
X109370442Y-103842365D01*
X109433368Y-103936541D01*
X109513459Y-104016632D01*
X109607635Y-104079558D01*
X109712279Y-104122903D01*
X109823367Y-104145000D01*
X109936633Y-104145000D01*
X110047721Y-104122903D01*
X110152365Y-104079558D01*
X110246541Y-104016632D01*
X110326632Y-103936541D01*
X110389558Y-103842365D01*
X110432903Y-103737721D01*
X110455000Y-103626633D01*
X110455000Y-103513367D01*
X110432903Y-103402279D01*
X110389558Y-103297635D01*
X110369404Y-103267472D01*
X116450317Y-103267472D01*
X116565038Y-103533809D01*
X116873663Y-103679704D01*
X117204820Y-103762586D01*
X117545783Y-103779271D01*
X117883449Y-103729115D01*
X118204843Y-103614049D01*
X118354962Y-103533809D01*
X118469683Y-103267472D01*
X121530317Y-103267472D01*
X121645038Y-103533809D01*
X121953663Y-103679704D01*
X122284820Y-103762586D01*
X122625783Y-103779271D01*
X122963449Y-103729115D01*
X123284843Y-103614049D01*
X123434962Y-103533809D01*
X123549683Y-103267472D01*
X122540000Y-102257789D01*
X121530317Y-103267472D01*
X118469683Y-103267472D01*
X117460000Y-102257789D01*
X116450317Y-103267472D01*
X110369404Y-103267472D01*
X110326632Y-103203459D01*
X110246541Y-103123368D01*
X110152365Y-103060442D01*
X110047721Y-103017097D01*
X109936633Y-102995000D01*
X109823367Y-102995000D01*
X109712279Y-103017097D01*
X109607635Y-103060442D01*
X109513459Y-103123368D01*
X109433368Y-103203459D01*
X109370442Y-103297635D01*
X109327097Y-103402279D01*
X109305000Y-103513367D01*
X99605000Y-103513367D01*
X99605000Y-103503367D01*
X99582903Y-103392279D01*
X99539558Y-103287635D01*
X99476632Y-103193459D01*
X99396541Y-103113368D01*
X99302365Y-103050442D01*
X99197721Y-103007097D01*
X99086633Y-102985000D01*
X98973367Y-102985000D01*
X98862279Y-103007097D01*
X98757635Y-103050442D01*
X98663459Y-103113368D01*
X98583368Y-103193459D01*
X98520442Y-103287635D01*
X98477097Y-103392279D01*
X98455000Y-103503367D01*
X72000000Y-103503367D01*
X72000000Y-99863910D01*
X72492097Y-99863910D01*
X72518854Y-99952139D01*
X72636527Y-100212611D01*
X72802754Y-100445122D01*
X73011148Y-100640736D01*
X73253700Y-100791935D01*
X73336776Y-100823307D01*
X73050000Y-100823307D01*
X72981388Y-100830065D01*
X72915413Y-100850078D01*
X72854610Y-100882578D01*
X72801315Y-100926315D01*
X72757578Y-100979610D01*
X72725078Y-101040413D01*
X72705065Y-101106388D01*
X72698307Y-101175000D01*
X72698307Y-102875000D01*
X72705065Y-102943612D01*
X72725078Y-103009587D01*
X72757578Y-103070390D01*
X72801315Y-103123685D01*
X72854610Y-103167422D01*
X72915413Y-103199922D01*
X72981388Y-103219935D01*
X73050000Y-103226693D01*
X74750000Y-103226693D01*
X74818612Y-103219935D01*
X74884587Y-103199922D01*
X74945390Y-103167422D01*
X74998685Y-103123685D01*
X75042422Y-103070390D01*
X75074922Y-103009587D01*
X75094935Y-102943612D01*
X75101693Y-102875000D01*
X75101693Y-102063367D01*
X86915000Y-102063367D01*
X86915000Y-102176633D01*
X86937097Y-102287721D01*
X86980442Y-102392365D01*
X87043368Y-102486541D01*
X87123459Y-102566632D01*
X87217635Y-102629558D01*
X87322279Y-102672903D01*
X87433367Y-102695000D01*
X87546633Y-102695000D01*
X87657721Y-102672903D01*
X87762365Y-102629558D01*
X87800000Y-102604411D01*
X87837635Y-102629558D01*
X87942279Y-102672903D01*
X88053367Y-102695000D01*
X88166633Y-102695000D01*
X88277721Y-102672903D01*
X88382365Y-102629558D01*
X88420000Y-102604411D01*
X88457635Y-102629558D01*
X88562279Y-102672903D01*
X88673367Y-102695000D01*
X88786633Y-102695000D01*
X88897721Y-102672903D01*
X89002365Y-102629558D01*
X89096541Y-102566632D01*
X89176632Y-102486541D01*
X89239558Y-102392365D01*
X89282903Y-102287721D01*
X89305000Y-102176633D01*
X89305000Y-102143367D01*
X94035000Y-102143367D01*
X94035000Y-102256633D01*
X94057097Y-102367721D01*
X94100442Y-102472365D01*
X94163368Y-102566541D01*
X94243459Y-102646632D01*
X94337635Y-102709558D01*
X94442279Y-102752903D01*
X94553367Y-102775000D01*
X94666633Y-102775000D01*
X94777721Y-102752903D01*
X94882365Y-102709558D01*
X94920000Y-102684411D01*
X94957635Y-102709558D01*
X95062279Y-102752903D01*
X95173367Y-102775000D01*
X95286633Y-102775000D01*
X95397721Y-102752903D01*
X95502365Y-102709558D01*
X95540000Y-102684411D01*
X95577635Y-102709558D01*
X95682279Y-102752903D01*
X95793367Y-102775000D01*
X95906633Y-102775000D01*
X96017721Y-102752903D01*
X96122365Y-102709558D01*
X96216541Y-102646632D01*
X96296632Y-102566541D01*
X96359558Y-102472365D01*
X96402903Y-102367721D01*
X96425000Y-102256633D01*
X96425000Y-102143367D01*
X96402903Y-102032279D01*
X96359558Y-101927635D01*
X96296632Y-101833459D01*
X96216541Y-101753368D01*
X96122365Y-101690442D01*
X96017721Y-101647097D01*
X95906633Y-101625000D01*
X95793367Y-101625000D01*
X95682279Y-101647097D01*
X95577635Y-101690442D01*
X95540000Y-101715589D01*
X95502365Y-101690442D01*
X95397721Y-101647097D01*
X95286633Y-101625000D01*
X95173367Y-101625000D01*
X95062279Y-101647097D01*
X94957635Y-101690442D01*
X94920000Y-101715589D01*
X94882365Y-101690442D01*
X94777721Y-101647097D01*
X94666633Y-101625000D01*
X94553367Y-101625000D01*
X94442279Y-101647097D01*
X94337635Y-101690442D01*
X94243459Y-101753368D01*
X94163368Y-101833459D01*
X94100442Y-101927635D01*
X94057097Y-102032279D01*
X94035000Y-102143367D01*
X89305000Y-102143367D01*
X89305000Y-102063367D01*
X89282903Y-101952279D01*
X89239558Y-101847635D01*
X89176632Y-101753459D01*
X89096541Y-101673368D01*
X89002365Y-101610442D01*
X88985285Y-101603367D01*
X101965000Y-101603367D01*
X101965000Y-101716633D01*
X101987097Y-101827721D01*
X102030442Y-101932365D01*
X102093368Y-102026541D01*
X102173459Y-102106632D01*
X102267635Y-102169558D01*
X102372279Y-102212903D01*
X102483367Y-102235000D01*
X102596633Y-102235000D01*
X102707721Y-102212903D01*
X102812365Y-102169558D01*
X102896461Y-102113367D01*
X104835000Y-102113367D01*
X104835000Y-102226633D01*
X104857097Y-102337721D01*
X104900442Y-102442365D01*
X104963368Y-102536541D01*
X105043459Y-102616632D01*
X105137635Y-102679558D01*
X105242279Y-102722903D01*
X105353367Y-102745000D01*
X105466633Y-102745000D01*
X105577721Y-102722903D01*
X105682365Y-102679558D01*
X105720000Y-102654411D01*
X105757635Y-102679558D01*
X105862279Y-102722903D01*
X105973367Y-102745000D01*
X106086633Y-102745000D01*
X106197721Y-102722903D01*
X106302365Y-102679558D01*
X106340000Y-102654411D01*
X106377635Y-102679558D01*
X106482279Y-102722903D01*
X106593367Y-102745000D01*
X106706633Y-102745000D01*
X106817721Y-102722903D01*
X106922365Y-102679558D01*
X107016541Y-102616632D01*
X107096632Y-102536541D01*
X107159558Y-102442365D01*
X107202903Y-102337721D01*
X107225000Y-102226633D01*
X107225000Y-102125783D01*
X115720729Y-102125783D01*
X115770885Y-102463449D01*
X115885951Y-102784843D01*
X115966191Y-102934962D01*
X116232528Y-103049683D01*
X117242211Y-102040000D01*
X117677789Y-102040000D01*
X118687472Y-103049683D01*
X118953809Y-102934962D01*
X119099704Y-102626337D01*
X119182586Y-102295180D01*
X119190875Y-102125783D01*
X120800729Y-102125783D01*
X120850885Y-102463449D01*
X120965951Y-102784843D01*
X121046191Y-102934962D01*
X121312528Y-103049683D01*
X122322211Y-102040000D01*
X122757789Y-102040000D01*
X123767472Y-103049683D01*
X124033809Y-102934962D01*
X124179704Y-102626337D01*
X124262586Y-102295180D01*
X124279271Y-101954217D01*
X124229115Y-101616551D01*
X124114049Y-101295157D01*
X124033809Y-101145038D01*
X123767472Y-101030317D01*
X122757789Y-102040000D01*
X122322211Y-102040000D01*
X121312528Y-101030317D01*
X121046191Y-101145038D01*
X120900296Y-101453663D01*
X120817414Y-101784820D01*
X120800729Y-102125783D01*
X119190875Y-102125783D01*
X119199271Y-101954217D01*
X119149115Y-101616551D01*
X119034049Y-101295157D01*
X118953809Y-101145038D01*
X118687472Y-101030317D01*
X117677789Y-102040000D01*
X117242211Y-102040000D01*
X116232528Y-101030317D01*
X115966191Y-101145038D01*
X115820296Y-101453663D01*
X115737414Y-101784820D01*
X115720729Y-102125783D01*
X107225000Y-102125783D01*
X107225000Y-102113367D01*
X107202903Y-102002279D01*
X107159558Y-101897635D01*
X107096632Y-101803459D01*
X107016541Y-101723368D01*
X106922365Y-101660442D01*
X106817721Y-101617097D01*
X106706633Y-101595000D01*
X106593367Y-101595000D01*
X106482279Y-101617097D01*
X106377635Y-101660442D01*
X106340000Y-101685589D01*
X106302365Y-101660442D01*
X106197721Y-101617097D01*
X106086633Y-101595000D01*
X105973367Y-101595000D01*
X105862279Y-101617097D01*
X105757635Y-101660442D01*
X105720000Y-101685589D01*
X105682365Y-101660442D01*
X105577721Y-101617097D01*
X105466633Y-101595000D01*
X105353367Y-101595000D01*
X105242279Y-101617097D01*
X105137635Y-101660442D01*
X105043459Y-101723368D01*
X104963368Y-101803459D01*
X104900442Y-101897635D01*
X104857097Y-102002279D01*
X104835000Y-102113367D01*
X102896461Y-102113367D01*
X102906541Y-102106632D01*
X102986632Y-102026541D01*
X103049558Y-101932365D01*
X103092903Y-101827721D01*
X103115000Y-101716633D01*
X103115000Y-101603367D01*
X103092903Y-101492279D01*
X103049558Y-101387635D01*
X102986632Y-101293459D01*
X102906541Y-101213368D01*
X102812365Y-101150442D01*
X102707721Y-101107097D01*
X102596633Y-101085000D01*
X102483367Y-101085000D01*
X102372279Y-101107097D01*
X102267635Y-101150442D01*
X102173459Y-101213368D01*
X102093368Y-101293459D01*
X102030442Y-101387635D01*
X101987097Y-101492279D01*
X101965000Y-101603367D01*
X88985285Y-101603367D01*
X88897721Y-101567097D01*
X88786633Y-101545000D01*
X88673367Y-101545000D01*
X88562279Y-101567097D01*
X88457635Y-101610442D01*
X88420000Y-101635589D01*
X88382365Y-101610442D01*
X88277721Y-101567097D01*
X88166633Y-101545000D01*
X88053367Y-101545000D01*
X87942279Y-101567097D01*
X87837635Y-101610442D01*
X87800000Y-101635589D01*
X87762365Y-101610442D01*
X87657721Y-101567097D01*
X87546633Y-101545000D01*
X87433367Y-101545000D01*
X87322279Y-101567097D01*
X87217635Y-101610442D01*
X87123459Y-101673368D01*
X87043368Y-101753459D01*
X86980442Y-101847635D01*
X86937097Y-101952279D01*
X86915000Y-102063367D01*
X75101693Y-102063367D01*
X75101693Y-101175000D01*
X75094935Y-101106388D01*
X75074922Y-101040413D01*
X75042422Y-100979610D01*
X74998685Y-100926315D01*
X74945390Y-100882578D01*
X74884587Y-100850078D01*
X74818612Y-100830065D01*
X74750000Y-100823307D01*
X74463224Y-100823307D01*
X74491767Y-100812528D01*
X116450317Y-100812528D01*
X117460000Y-101822211D01*
X118469683Y-100812528D01*
X118354962Y-100546191D01*
X118046337Y-100400296D01*
X117715180Y-100317414D01*
X117374217Y-100300729D01*
X117036551Y-100350885D01*
X116715157Y-100465951D01*
X116565038Y-100546191D01*
X116450317Y-100812528D01*
X74491767Y-100812528D01*
X74546300Y-100791935D01*
X74788852Y-100640736D01*
X74997246Y-100445122D01*
X75163473Y-100212611D01*
X75230896Y-100063367D01*
X81125000Y-100063367D01*
X81125000Y-100176633D01*
X81147097Y-100287721D01*
X81190442Y-100392365D01*
X81253368Y-100486541D01*
X81333459Y-100566632D01*
X81427635Y-100629558D01*
X81532279Y-100672903D01*
X81643367Y-100695000D01*
X81756633Y-100695000D01*
X81867721Y-100672903D01*
X81972365Y-100629558D01*
X82066541Y-100566632D01*
X82146632Y-100486541D01*
X82209558Y-100392365D01*
X82252903Y-100287721D01*
X82275000Y-100176633D01*
X82275000Y-100063367D01*
X82252903Y-99952279D01*
X82209558Y-99847635D01*
X82146632Y-99753459D01*
X82066541Y-99673368D01*
X81972365Y-99610442D01*
X81867721Y-99567097D01*
X81756633Y-99545000D01*
X81643367Y-99545000D01*
X81532279Y-99567097D01*
X81427635Y-99610442D01*
X81333459Y-99673368D01*
X81253368Y-99753459D01*
X81190442Y-99847635D01*
X81147097Y-99952279D01*
X81125000Y-100063367D01*
X75230896Y-100063367D01*
X75281146Y-99952139D01*
X75307903Y-99863910D01*
X75196889Y-99639000D01*
X74054000Y-99639000D01*
X74054000Y-99659000D01*
X73746000Y-99659000D01*
X73746000Y-99639000D01*
X72603111Y-99639000D01*
X72492097Y-99863910D01*
X72000000Y-99863910D01*
X72000000Y-99106090D01*
X72492097Y-99106090D01*
X72603111Y-99331000D01*
X73746000Y-99331000D01*
X73746000Y-99311000D01*
X74054000Y-99311000D01*
X74054000Y-99331000D01*
X75196889Y-99331000D01*
X75307903Y-99106090D01*
X75281146Y-99017861D01*
X75193280Y-98823367D01*
X81125000Y-98823367D01*
X81125000Y-98936633D01*
X81147097Y-99047721D01*
X81190442Y-99152365D01*
X81253368Y-99246541D01*
X81333459Y-99326632D01*
X81427635Y-99389558D01*
X81532279Y-99432903D01*
X81643367Y-99455000D01*
X81756633Y-99455000D01*
X81867721Y-99432903D01*
X81972365Y-99389558D01*
X82009756Y-99364574D01*
X118625000Y-99364574D01*
X118625000Y-99635426D01*
X118677841Y-99901073D01*
X118781491Y-100151307D01*
X118931968Y-100376511D01*
X119123489Y-100568032D01*
X119348693Y-100718509D01*
X119598927Y-100822159D01*
X119864574Y-100875000D01*
X120135426Y-100875000D01*
X120401073Y-100822159D01*
X120424324Y-100812528D01*
X121530317Y-100812528D01*
X122540000Y-101822211D01*
X123549683Y-100812528D01*
X123434962Y-100546191D01*
X123126337Y-100400296D01*
X122795180Y-100317414D01*
X122454217Y-100300729D01*
X122116551Y-100350885D01*
X121795157Y-100465951D01*
X121645038Y-100546191D01*
X121530317Y-100812528D01*
X120424324Y-100812528D01*
X120651307Y-100718509D01*
X120876511Y-100568032D01*
X121068032Y-100376511D01*
X121218509Y-100151307D01*
X121322159Y-99901073D01*
X121375000Y-99635426D01*
X121375000Y-99364574D01*
X121333748Y-99157187D01*
X126150000Y-99157187D01*
X126150000Y-99442813D01*
X126205723Y-99722949D01*
X126315027Y-99986833D01*
X126473711Y-100224321D01*
X126675679Y-100426289D01*
X126913167Y-100584973D01*
X127177051Y-100694277D01*
X127457187Y-100750000D01*
X127742813Y-100750000D01*
X128022949Y-100694277D01*
X128286833Y-100584973D01*
X128524321Y-100426289D01*
X128700000Y-100250610D01*
X128700000Y-103413330D01*
X128690442Y-103427635D01*
X128647097Y-103532279D01*
X128625000Y-103643367D01*
X128625000Y-103756633D01*
X128647097Y-103867721D01*
X128690442Y-103972365D01*
X128700000Y-103986670D01*
X128700000Y-104000000D01*
X128701921Y-104019509D01*
X128707612Y-104038268D01*
X128716853Y-104055557D01*
X128729289Y-104070711D01*
X128744443Y-104083147D01*
X128761732Y-104092388D01*
X128780491Y-104098079D01*
X128785388Y-104098561D01*
X128833459Y-104146632D01*
X128927635Y-104209558D01*
X129032279Y-104252903D01*
X129143367Y-104275000D01*
X129256633Y-104275000D01*
X129367721Y-104252903D01*
X129472365Y-104209558D01*
X129566541Y-104146632D01*
X129613173Y-104100000D01*
X130200000Y-104100000D01*
X130219509Y-104098079D01*
X130238268Y-104092388D01*
X130255557Y-104083147D01*
X130270711Y-104070711D01*
X130283147Y-104055557D01*
X130292388Y-104038268D01*
X130298079Y-104019509D01*
X130300000Y-104000000D01*
X130300000Y-94500000D01*
X130298079Y-94480491D01*
X130292388Y-94461732D01*
X130283147Y-94444443D01*
X130270711Y-94429289D01*
X130255557Y-94416853D01*
X130238268Y-94407612D01*
X130219509Y-94401921D01*
X130200000Y-94400000D01*
X129486670Y-94400000D01*
X129472365Y-94390442D01*
X129367721Y-94347097D01*
X129256633Y-94325000D01*
X129143367Y-94325000D01*
X129032279Y-94347097D01*
X128927635Y-94390442D01*
X128913330Y-94400000D01*
X128800000Y-94400000D01*
X128780491Y-94401921D01*
X128761732Y-94407612D01*
X128744443Y-94416853D01*
X128729289Y-94429289D01*
X128716853Y-94444443D01*
X128707612Y-94461732D01*
X128701921Y-94480491D01*
X128700000Y-94500000D01*
X128700000Y-94613330D01*
X128690442Y-94627635D01*
X128647097Y-94732279D01*
X128625000Y-94843367D01*
X128625000Y-94956633D01*
X128647097Y-95067721D01*
X128690442Y-95172365D01*
X128700000Y-95186670D01*
X128700000Y-98349390D01*
X128524321Y-98173711D01*
X128286833Y-98015027D01*
X128022949Y-97905723D01*
X127742813Y-97850000D01*
X127457187Y-97850000D01*
X127177051Y-97905723D01*
X126913167Y-98015027D01*
X126675679Y-98173711D01*
X126473711Y-98375679D01*
X126315027Y-98613167D01*
X126205723Y-98877051D01*
X126150000Y-99157187D01*
X121333748Y-99157187D01*
X121322159Y-99098927D01*
X121218509Y-98848693D01*
X121068032Y-98623489D01*
X120876511Y-98431968D01*
X120651307Y-98281491D01*
X120424325Y-98187472D01*
X121530317Y-98187472D01*
X121645038Y-98453809D01*
X121953663Y-98599704D01*
X122284820Y-98682586D01*
X122625783Y-98699271D01*
X122963449Y-98649115D01*
X123284843Y-98534049D01*
X123434962Y-98453809D01*
X123549683Y-98187472D01*
X122540000Y-97177789D01*
X121530317Y-98187472D01*
X120424325Y-98187472D01*
X120401073Y-98177841D01*
X120135426Y-98125000D01*
X119864574Y-98125000D01*
X119598927Y-98177841D01*
X119348693Y-98281491D01*
X119123489Y-98431968D01*
X118931968Y-98623489D01*
X118781491Y-98848693D01*
X118677841Y-99098927D01*
X118625000Y-99364574D01*
X82009756Y-99364574D01*
X82066541Y-99326632D01*
X82146632Y-99246541D01*
X82209558Y-99152365D01*
X82252903Y-99047721D01*
X82275000Y-98936633D01*
X82275000Y-98823367D01*
X82252903Y-98712279D01*
X82209558Y-98607635D01*
X82146632Y-98513459D01*
X82066541Y-98433368D01*
X81972365Y-98370442D01*
X81867721Y-98327097D01*
X81756633Y-98305000D01*
X81643367Y-98305000D01*
X81532279Y-98327097D01*
X81427635Y-98370442D01*
X81333459Y-98433368D01*
X81253368Y-98513459D01*
X81190442Y-98607635D01*
X81147097Y-98712279D01*
X81125000Y-98823367D01*
X75193280Y-98823367D01*
X75163473Y-98757389D01*
X74997246Y-98524878D01*
X74788852Y-98329264D01*
X74561391Y-98187472D01*
X116450317Y-98187472D01*
X116565038Y-98453809D01*
X116873663Y-98599704D01*
X117204820Y-98682586D01*
X117545783Y-98699271D01*
X117883449Y-98649115D01*
X118204843Y-98534049D01*
X118354962Y-98453809D01*
X118469683Y-98187472D01*
X117460000Y-97177789D01*
X116450317Y-98187472D01*
X74561391Y-98187472D01*
X74546300Y-98178065D01*
X74291324Y-98081778D01*
X74468413Y-98008426D01*
X74664955Y-97877101D01*
X74832101Y-97709955D01*
X74963426Y-97513413D01*
X75046287Y-97313367D01*
X101475000Y-97313367D01*
X101475000Y-97426633D01*
X101497097Y-97537721D01*
X101540442Y-97642365D01*
X101603368Y-97736541D01*
X101683459Y-97816632D01*
X101777635Y-97879558D01*
X101882279Y-97922903D01*
X101993367Y-97945000D01*
X102106633Y-97945000D01*
X102217721Y-97922903D01*
X102322365Y-97879558D01*
X102416541Y-97816632D01*
X102496632Y-97736541D01*
X102559558Y-97642365D01*
X102602903Y-97537721D01*
X102625000Y-97426633D01*
X102625000Y-97313367D01*
X102602903Y-97202279D01*
X102559558Y-97097635D01*
X102496632Y-97003459D01*
X102416541Y-96923368D01*
X102322365Y-96860442D01*
X102217721Y-96817097D01*
X102106633Y-96795000D01*
X101993367Y-96795000D01*
X101882279Y-96817097D01*
X101777635Y-96860442D01*
X101683459Y-96923368D01*
X101603368Y-97003459D01*
X101540442Y-97097635D01*
X101497097Y-97202279D01*
X101475000Y-97313367D01*
X75046287Y-97313367D01*
X75053884Y-97295027D01*
X75100000Y-97063190D01*
X75100000Y-96826810D01*
X75053884Y-96594973D01*
X75020082Y-96513367D01*
X86950000Y-96513367D01*
X86950000Y-96626633D01*
X86972097Y-96737721D01*
X87015442Y-96842365D01*
X87078368Y-96936541D01*
X87158459Y-97016632D01*
X87252635Y-97079558D01*
X87357279Y-97122903D01*
X87468367Y-97145000D01*
X87581633Y-97145000D01*
X87692721Y-97122903D01*
X87797365Y-97079558D01*
X87835000Y-97054411D01*
X87872635Y-97079558D01*
X87977279Y-97122903D01*
X88088367Y-97145000D01*
X88201633Y-97145000D01*
X88312721Y-97122903D01*
X88417365Y-97079558D01*
X88455000Y-97054411D01*
X88492635Y-97079558D01*
X88597279Y-97122903D01*
X88708367Y-97145000D01*
X88821633Y-97145000D01*
X88932721Y-97122903D01*
X89037365Y-97079558D01*
X89131541Y-97016632D01*
X89211632Y-96936541D01*
X89274558Y-96842365D01*
X89317903Y-96737721D01*
X89340000Y-96626633D01*
X89340000Y-96513367D01*
X89317903Y-96402279D01*
X89285215Y-96323363D01*
X97265000Y-96323363D01*
X97265000Y-96436629D01*
X97287097Y-96547717D01*
X97330442Y-96652361D01*
X97393368Y-96746537D01*
X97473459Y-96826628D01*
X97567635Y-96889554D01*
X97672279Y-96932899D01*
X97783367Y-96954996D01*
X97896633Y-96954996D01*
X98007721Y-96932899D01*
X98112365Y-96889554D01*
X98206541Y-96826628D01*
X98286632Y-96746537D01*
X98349558Y-96652361D01*
X98392903Y-96547717D01*
X98399735Y-96513367D01*
X98965000Y-96513367D01*
X98965000Y-96626633D01*
X98987097Y-96737721D01*
X99030442Y-96842365D01*
X99093368Y-96936541D01*
X99173459Y-97016632D01*
X99267635Y-97079558D01*
X99372279Y-97122903D01*
X99483367Y-97145000D01*
X99596633Y-97145000D01*
X99707721Y-97122903D01*
X99812365Y-97079558D01*
X99850000Y-97054411D01*
X99887635Y-97079558D01*
X99992279Y-97122903D01*
X100103367Y-97145000D01*
X100216633Y-97145000D01*
X100327721Y-97122903D01*
X100432365Y-97079558D01*
X100470000Y-97054411D01*
X100507635Y-97079558D01*
X100612279Y-97122903D01*
X100723367Y-97145000D01*
X100836633Y-97145000D01*
X100947721Y-97122903D01*
X101052365Y-97079558D01*
X101146541Y-97016632D01*
X101226632Y-96936541D01*
X101289558Y-96842365D01*
X101332903Y-96737721D01*
X101355000Y-96626633D01*
X101355000Y-96513367D01*
X101332903Y-96402279D01*
X101291933Y-96303367D01*
X104175000Y-96303367D01*
X104175000Y-96416633D01*
X104197097Y-96527721D01*
X104240442Y-96632365D01*
X104303368Y-96726541D01*
X104383459Y-96806632D01*
X104477635Y-96869558D01*
X104582279Y-96912903D01*
X104693367Y-96935000D01*
X104806633Y-96935000D01*
X104917721Y-96912903D01*
X105022365Y-96869558D01*
X105116541Y-96806632D01*
X105196632Y-96726541D01*
X105259558Y-96632365D01*
X105302903Y-96527721D01*
X105325000Y-96416633D01*
X105325000Y-96303367D01*
X108305000Y-96303367D01*
X108305000Y-96416633D01*
X108327097Y-96527721D01*
X108370442Y-96632365D01*
X108433368Y-96726541D01*
X108513459Y-96806632D01*
X108607635Y-96869558D01*
X108712279Y-96912903D01*
X108823367Y-96935000D01*
X108936633Y-96935000D01*
X109047721Y-96912903D01*
X109152365Y-96869558D01*
X109246541Y-96806632D01*
X109326632Y-96726541D01*
X109389558Y-96632365D01*
X109432903Y-96527721D01*
X109435758Y-96513367D01*
X109775000Y-96513367D01*
X109775000Y-96626633D01*
X109797097Y-96737721D01*
X109840442Y-96842365D01*
X109903368Y-96936541D01*
X109983459Y-97016632D01*
X110077635Y-97079558D01*
X110182279Y-97122903D01*
X110293367Y-97145000D01*
X110406633Y-97145000D01*
X110517721Y-97122903D01*
X110622365Y-97079558D01*
X110660000Y-97054411D01*
X110697635Y-97079558D01*
X110802279Y-97122903D01*
X110913367Y-97145000D01*
X111026633Y-97145000D01*
X111137721Y-97122903D01*
X111242365Y-97079558D01*
X111280000Y-97054411D01*
X111317635Y-97079558D01*
X111422279Y-97122903D01*
X111533367Y-97145000D01*
X111646633Y-97145000D01*
X111757721Y-97122903D01*
X111862365Y-97079558D01*
X111912913Y-97045783D01*
X115720729Y-97045783D01*
X115770885Y-97383449D01*
X115885951Y-97704843D01*
X115966191Y-97854962D01*
X116232528Y-97969683D01*
X117242211Y-96960000D01*
X117677789Y-96960000D01*
X118687472Y-97969683D01*
X118953809Y-97854962D01*
X119099704Y-97546337D01*
X119182586Y-97215180D01*
X119190875Y-97045783D01*
X120800729Y-97045783D01*
X120850885Y-97383449D01*
X120965951Y-97704843D01*
X121046191Y-97854962D01*
X121312528Y-97969683D01*
X122322211Y-96960000D01*
X122757789Y-96960000D01*
X123767472Y-97969683D01*
X124033809Y-97854962D01*
X124179704Y-97546337D01*
X124262586Y-97215180D01*
X124279271Y-96874217D01*
X124229115Y-96536551D01*
X124114049Y-96215157D01*
X124033809Y-96065038D01*
X123767472Y-95950317D01*
X122757789Y-96960000D01*
X122322211Y-96960000D01*
X121312528Y-95950317D01*
X121046191Y-96065038D01*
X120900296Y-96373663D01*
X120817414Y-96704820D01*
X120800729Y-97045783D01*
X119190875Y-97045783D01*
X119199271Y-96874217D01*
X119149115Y-96536551D01*
X119034049Y-96215157D01*
X118953809Y-96065038D01*
X118687472Y-95950317D01*
X117677789Y-96960000D01*
X117242211Y-96960000D01*
X116232528Y-95950317D01*
X115966191Y-96065038D01*
X115820296Y-96373663D01*
X115737414Y-96704820D01*
X115720729Y-97045783D01*
X111912913Y-97045783D01*
X111956541Y-97016632D01*
X112036632Y-96936541D01*
X112099558Y-96842365D01*
X112142903Y-96737721D01*
X112165000Y-96626633D01*
X112165000Y-96513367D01*
X112142903Y-96402279D01*
X112101933Y-96303367D01*
X112325000Y-96303367D01*
X112325000Y-96416633D01*
X112347097Y-96527721D01*
X112390442Y-96632365D01*
X112453368Y-96726541D01*
X112533459Y-96806632D01*
X112627635Y-96869558D01*
X112732279Y-96912903D01*
X112843367Y-96935000D01*
X112956633Y-96935000D01*
X113067721Y-96912903D01*
X113172365Y-96869558D01*
X113266541Y-96806632D01*
X113346632Y-96726541D01*
X113409558Y-96632365D01*
X113452903Y-96527721D01*
X113475000Y-96416633D01*
X113475000Y-96303367D01*
X113452903Y-96192279D01*
X113409558Y-96087635D01*
X113346632Y-95993459D01*
X113266541Y-95913368D01*
X113172365Y-95850442D01*
X113067721Y-95807097D01*
X112956633Y-95785000D01*
X112843367Y-95785000D01*
X112732279Y-95807097D01*
X112627635Y-95850442D01*
X112533459Y-95913368D01*
X112453368Y-95993459D01*
X112390442Y-96087635D01*
X112347097Y-96192279D01*
X112325000Y-96303367D01*
X112101933Y-96303367D01*
X112099558Y-96297635D01*
X112036632Y-96203459D01*
X111956541Y-96123368D01*
X111862365Y-96060442D01*
X111757721Y-96017097D01*
X111646633Y-95995000D01*
X111533367Y-95995000D01*
X111422279Y-96017097D01*
X111317635Y-96060442D01*
X111280000Y-96085589D01*
X111242365Y-96060442D01*
X111137721Y-96017097D01*
X111026633Y-95995000D01*
X110913367Y-95995000D01*
X110802279Y-96017097D01*
X110697635Y-96060442D01*
X110660000Y-96085589D01*
X110622365Y-96060442D01*
X110517721Y-96017097D01*
X110406633Y-95995000D01*
X110293367Y-95995000D01*
X110182279Y-96017097D01*
X110077635Y-96060442D01*
X109983459Y-96123368D01*
X109903368Y-96203459D01*
X109840442Y-96297635D01*
X109797097Y-96402279D01*
X109775000Y-96513367D01*
X109435758Y-96513367D01*
X109455000Y-96416633D01*
X109455000Y-96303367D01*
X109432903Y-96192279D01*
X109389558Y-96087635D01*
X109326632Y-95993459D01*
X109246541Y-95913368D01*
X109152365Y-95850442D01*
X109047721Y-95807097D01*
X108936633Y-95785000D01*
X108823367Y-95785000D01*
X108712279Y-95807097D01*
X108607635Y-95850442D01*
X108513459Y-95913368D01*
X108433368Y-95993459D01*
X108370442Y-96087635D01*
X108327097Y-96192279D01*
X108305000Y-96303367D01*
X105325000Y-96303367D01*
X105302903Y-96192279D01*
X105259558Y-96087635D01*
X105196632Y-95993459D01*
X105116541Y-95913368D01*
X105022365Y-95850442D01*
X104917721Y-95807097D01*
X104806633Y-95785000D01*
X104693367Y-95785000D01*
X104582279Y-95807097D01*
X104477635Y-95850442D01*
X104383459Y-95913368D01*
X104303368Y-95993459D01*
X104240442Y-96087635D01*
X104197097Y-96192279D01*
X104175000Y-96303367D01*
X101291933Y-96303367D01*
X101289558Y-96297635D01*
X101226632Y-96203459D01*
X101146541Y-96123368D01*
X101052365Y-96060442D01*
X100947721Y-96017097D01*
X100836633Y-95995000D01*
X100723367Y-95995000D01*
X100612279Y-96017097D01*
X100507635Y-96060442D01*
X100470000Y-96085589D01*
X100432365Y-96060442D01*
X100327721Y-96017097D01*
X100216633Y-95995000D01*
X100103367Y-95995000D01*
X99992279Y-96017097D01*
X99887635Y-96060442D01*
X99850000Y-96085589D01*
X99812365Y-96060442D01*
X99707721Y-96017097D01*
X99596633Y-95995000D01*
X99483367Y-95995000D01*
X99372279Y-96017097D01*
X99267635Y-96060442D01*
X99173459Y-96123368D01*
X99093368Y-96203459D01*
X99030442Y-96297635D01*
X98987097Y-96402279D01*
X98965000Y-96513367D01*
X98399735Y-96513367D01*
X98415000Y-96436629D01*
X98415000Y-96323363D01*
X98392903Y-96212275D01*
X98349558Y-96107631D01*
X98286632Y-96013455D01*
X98206541Y-95933364D01*
X98112365Y-95870438D01*
X98007721Y-95827093D01*
X97896633Y-95804996D01*
X97783367Y-95804996D01*
X97672279Y-95827093D01*
X97567635Y-95870438D01*
X97473459Y-95933364D01*
X97393368Y-96013455D01*
X97330442Y-96107631D01*
X97287097Y-96212275D01*
X97265000Y-96323363D01*
X89285215Y-96323363D01*
X89274558Y-96297635D01*
X89211632Y-96203459D01*
X89131541Y-96123368D01*
X89037365Y-96060442D01*
X88932721Y-96017097D01*
X88821633Y-95995000D01*
X88708367Y-95995000D01*
X88597279Y-96017097D01*
X88492635Y-96060442D01*
X88455000Y-96085589D01*
X88417365Y-96060442D01*
X88312721Y-96017097D01*
X88201633Y-95995000D01*
X88088367Y-95995000D01*
X87977279Y-96017097D01*
X87872635Y-96060442D01*
X87835000Y-96085589D01*
X87797365Y-96060442D01*
X87692721Y-96017097D01*
X87581633Y-95995000D01*
X87468367Y-95995000D01*
X87357279Y-96017097D01*
X87252635Y-96060442D01*
X87158459Y-96123368D01*
X87078368Y-96203459D01*
X87015442Y-96297635D01*
X86972097Y-96402279D01*
X86950000Y-96513367D01*
X75020082Y-96513367D01*
X74963426Y-96376587D01*
X74832101Y-96180045D01*
X74664955Y-96012899D01*
X74468413Y-95881574D01*
X74250027Y-95791116D01*
X74018190Y-95745000D01*
X73781810Y-95745000D01*
X73549973Y-95791116D01*
X73331587Y-95881574D01*
X73135045Y-96012899D01*
X72967899Y-96180045D01*
X72836574Y-96376587D01*
X72746116Y-96594973D01*
X72700000Y-96826810D01*
X72700000Y-97063190D01*
X72746116Y-97295027D01*
X72836574Y-97513413D01*
X72967899Y-97709955D01*
X73135045Y-97877101D01*
X73331587Y-98008426D01*
X73508676Y-98081778D01*
X73253700Y-98178065D01*
X73011148Y-98329264D01*
X72802754Y-98524878D01*
X72636527Y-98757389D01*
X72518854Y-99017861D01*
X72492097Y-99106090D01*
X72000000Y-99106090D01*
X72000000Y-95732528D01*
X116450317Y-95732528D01*
X117460000Y-96742211D01*
X118469683Y-95732528D01*
X121530317Y-95732528D01*
X122540000Y-96742211D01*
X123549683Y-95732528D01*
X123434962Y-95466191D01*
X123126337Y-95320296D01*
X122795180Y-95237414D01*
X122454217Y-95220729D01*
X122116551Y-95270885D01*
X121795157Y-95385951D01*
X121645038Y-95466191D01*
X121530317Y-95732528D01*
X118469683Y-95732528D01*
X118354962Y-95466191D01*
X118046337Y-95320296D01*
X117715180Y-95237414D01*
X117374217Y-95220729D01*
X117036551Y-95270885D01*
X116715157Y-95385951D01*
X116565038Y-95466191D01*
X116450317Y-95732528D01*
X72000000Y-95732528D01*
X72000000Y-93106559D01*
X72014464Y-92996693D01*
X72054336Y-92900433D01*
X72117768Y-92817768D01*
X72200433Y-92754336D01*
X72296693Y-92714464D01*
X72406559Y-92700000D01*
X136393441Y-92700000D01*
X136503307Y-92714464D01*
%TA.AperFunction,Conductor*%
D17*
G36*
X136503307Y-92714464D02*
G01*
X136599567Y-92754336D01*
X136682232Y-92817768D01*
X136745664Y-92900433D01*
X136785536Y-92996693D01*
X136800000Y-93106559D01*
X136800000Y-105893441D01*
X136785536Y-106003307D01*
X136745664Y-106099567D01*
X136682232Y-106182232D01*
X136599567Y-106245664D01*
X136503307Y-106285536D01*
X136393441Y-106300000D01*
X72406559Y-106300000D01*
X72296693Y-106285536D01*
X72200433Y-106245664D01*
X72117768Y-106182232D01*
X72054336Y-106099567D01*
X72014464Y-106003307D01*
X72000000Y-105893441D01*
X72000000Y-103503367D01*
X98455000Y-103503367D01*
X98455000Y-103616633D01*
X98477097Y-103727721D01*
X98520442Y-103832365D01*
X98583368Y-103926541D01*
X98663459Y-104006632D01*
X98757635Y-104069558D01*
X98862279Y-104112903D01*
X98973367Y-104135000D01*
X99086633Y-104135000D01*
X99197721Y-104112903D01*
X99302365Y-104069558D01*
X99396541Y-104006632D01*
X99476632Y-103926541D01*
X99539558Y-103832365D01*
X99582903Y-103727721D01*
X99605000Y-103616633D01*
X99605000Y-103513367D01*
X109305000Y-103513367D01*
X109305000Y-103626633D01*
X109327097Y-103737721D01*
X109370442Y-103842365D01*
X109433368Y-103936541D01*
X109513459Y-104016632D01*
X109607635Y-104079558D01*
X109712279Y-104122903D01*
X109823367Y-104145000D01*
X109936633Y-104145000D01*
X110047721Y-104122903D01*
X110152365Y-104079558D01*
X110246541Y-104016632D01*
X110326632Y-103936541D01*
X110389558Y-103842365D01*
X110432903Y-103737721D01*
X110455000Y-103626633D01*
X110455000Y-103513367D01*
X110432903Y-103402279D01*
X110389558Y-103297635D01*
X110369404Y-103267472D01*
X116450317Y-103267472D01*
X116565038Y-103533809D01*
X116873663Y-103679704D01*
X117204820Y-103762586D01*
X117545783Y-103779271D01*
X117883449Y-103729115D01*
X118204843Y-103614049D01*
X118354962Y-103533809D01*
X118469683Y-103267472D01*
X121530317Y-103267472D01*
X121645038Y-103533809D01*
X121953663Y-103679704D01*
X122284820Y-103762586D01*
X122625783Y-103779271D01*
X122963449Y-103729115D01*
X123284843Y-103614049D01*
X123434962Y-103533809D01*
X123549683Y-103267472D01*
X122540000Y-102257789D01*
X121530317Y-103267472D01*
X118469683Y-103267472D01*
X117460000Y-102257789D01*
X116450317Y-103267472D01*
X110369404Y-103267472D01*
X110326632Y-103203459D01*
X110246541Y-103123368D01*
X110152365Y-103060442D01*
X110047721Y-103017097D01*
X109936633Y-102995000D01*
X109823367Y-102995000D01*
X109712279Y-103017097D01*
X109607635Y-103060442D01*
X109513459Y-103123368D01*
X109433368Y-103203459D01*
X109370442Y-103297635D01*
X109327097Y-103402279D01*
X109305000Y-103513367D01*
X99605000Y-103513367D01*
X99605000Y-103503367D01*
X99582903Y-103392279D01*
X99539558Y-103287635D01*
X99476632Y-103193459D01*
X99396541Y-103113368D01*
X99302365Y-103050442D01*
X99197721Y-103007097D01*
X99086633Y-102985000D01*
X98973367Y-102985000D01*
X98862279Y-103007097D01*
X98757635Y-103050442D01*
X98663459Y-103113368D01*
X98583368Y-103193459D01*
X98520442Y-103287635D01*
X98477097Y-103392279D01*
X98455000Y-103503367D01*
X72000000Y-103503367D01*
X72000000Y-99863910D01*
X72492097Y-99863910D01*
X72518854Y-99952139D01*
X72636527Y-100212611D01*
X72802754Y-100445122D01*
X73011148Y-100640736D01*
X73253700Y-100791935D01*
X73336776Y-100823307D01*
X73050000Y-100823307D01*
X72981388Y-100830065D01*
X72915413Y-100850078D01*
X72854610Y-100882578D01*
X72801315Y-100926315D01*
X72757578Y-100979610D01*
X72725078Y-101040413D01*
X72705065Y-101106388D01*
X72698307Y-101175000D01*
X72698307Y-102875000D01*
X72705065Y-102943612D01*
X72725078Y-103009587D01*
X72757578Y-103070390D01*
X72801315Y-103123685D01*
X72854610Y-103167422D01*
X72915413Y-103199922D01*
X72981388Y-103219935D01*
X73050000Y-103226693D01*
X74750000Y-103226693D01*
X74818612Y-103219935D01*
X74884587Y-103199922D01*
X74945390Y-103167422D01*
X74998685Y-103123685D01*
X75042422Y-103070390D01*
X75074922Y-103009587D01*
X75094935Y-102943612D01*
X75101693Y-102875000D01*
X75101693Y-102063367D01*
X86915000Y-102063367D01*
X86915000Y-102176633D01*
X86937097Y-102287721D01*
X86980442Y-102392365D01*
X87043368Y-102486541D01*
X87123459Y-102566632D01*
X87217635Y-102629558D01*
X87322279Y-102672903D01*
X87433367Y-102695000D01*
X87546633Y-102695000D01*
X87657721Y-102672903D01*
X87762365Y-102629558D01*
X87800000Y-102604411D01*
X87837635Y-102629558D01*
X87942279Y-102672903D01*
X88053367Y-102695000D01*
X88166633Y-102695000D01*
X88277721Y-102672903D01*
X88382365Y-102629558D01*
X88420000Y-102604411D01*
X88457635Y-102629558D01*
X88562279Y-102672903D01*
X88673367Y-102695000D01*
X88786633Y-102695000D01*
X88897721Y-102672903D01*
X89002365Y-102629558D01*
X89096541Y-102566632D01*
X89176632Y-102486541D01*
X89239558Y-102392365D01*
X89282903Y-102287721D01*
X89305000Y-102176633D01*
X89305000Y-102143367D01*
X94035000Y-102143367D01*
X94035000Y-102256633D01*
X94057097Y-102367721D01*
X94100442Y-102472365D01*
X94163368Y-102566541D01*
X94243459Y-102646632D01*
X94337635Y-102709558D01*
X94442279Y-102752903D01*
X94553367Y-102775000D01*
X94666633Y-102775000D01*
X94777721Y-102752903D01*
X94882365Y-102709558D01*
X94920000Y-102684411D01*
X94957635Y-102709558D01*
X95062279Y-102752903D01*
X95173367Y-102775000D01*
X95286633Y-102775000D01*
X95397721Y-102752903D01*
X95502365Y-102709558D01*
X95540000Y-102684411D01*
X95577635Y-102709558D01*
X95682279Y-102752903D01*
X95793367Y-102775000D01*
X95906633Y-102775000D01*
X96017721Y-102752903D01*
X96122365Y-102709558D01*
X96216541Y-102646632D01*
X96296632Y-102566541D01*
X96359558Y-102472365D01*
X96402903Y-102367721D01*
X96425000Y-102256633D01*
X96425000Y-102143367D01*
X96402903Y-102032279D01*
X96359558Y-101927635D01*
X96296632Y-101833459D01*
X96216541Y-101753368D01*
X96122365Y-101690442D01*
X96017721Y-101647097D01*
X95906633Y-101625000D01*
X95793367Y-101625000D01*
X95682279Y-101647097D01*
X95577635Y-101690442D01*
X95540000Y-101715589D01*
X95502365Y-101690442D01*
X95397721Y-101647097D01*
X95286633Y-101625000D01*
X95173367Y-101625000D01*
X95062279Y-101647097D01*
X94957635Y-101690442D01*
X94920000Y-101715589D01*
X94882365Y-101690442D01*
X94777721Y-101647097D01*
X94666633Y-101625000D01*
X94553367Y-101625000D01*
X94442279Y-101647097D01*
X94337635Y-101690442D01*
X94243459Y-101753368D01*
X94163368Y-101833459D01*
X94100442Y-101927635D01*
X94057097Y-102032279D01*
X94035000Y-102143367D01*
X89305000Y-102143367D01*
X89305000Y-102063367D01*
X89282903Y-101952279D01*
X89239558Y-101847635D01*
X89176632Y-101753459D01*
X89096541Y-101673368D01*
X89002365Y-101610442D01*
X88985285Y-101603367D01*
X101965000Y-101603367D01*
X101965000Y-101716633D01*
X101987097Y-101827721D01*
X102030442Y-101932365D01*
X102093368Y-102026541D01*
X102173459Y-102106632D01*
X102267635Y-102169558D01*
X102372279Y-102212903D01*
X102483367Y-102235000D01*
X102596633Y-102235000D01*
X102707721Y-102212903D01*
X102812365Y-102169558D01*
X102896461Y-102113367D01*
X104835000Y-102113367D01*
X104835000Y-102226633D01*
X104857097Y-102337721D01*
X104900442Y-102442365D01*
X104963368Y-102536541D01*
X105043459Y-102616632D01*
X105137635Y-102679558D01*
X105242279Y-102722903D01*
X105353367Y-102745000D01*
X105466633Y-102745000D01*
X105577721Y-102722903D01*
X105682365Y-102679558D01*
X105720000Y-102654411D01*
X105757635Y-102679558D01*
X105862279Y-102722903D01*
X105973367Y-102745000D01*
X106086633Y-102745000D01*
X106197721Y-102722903D01*
X106302365Y-102679558D01*
X106340000Y-102654411D01*
X106377635Y-102679558D01*
X106482279Y-102722903D01*
X106593367Y-102745000D01*
X106706633Y-102745000D01*
X106817721Y-102722903D01*
X106922365Y-102679558D01*
X107016541Y-102616632D01*
X107096632Y-102536541D01*
X107159558Y-102442365D01*
X107202903Y-102337721D01*
X107225000Y-102226633D01*
X107225000Y-102125783D01*
X115720729Y-102125783D01*
X115770885Y-102463449D01*
X115885951Y-102784843D01*
X115966191Y-102934962D01*
X116232528Y-103049683D01*
X117242211Y-102040000D01*
X117677789Y-102040000D01*
X118687472Y-103049683D01*
X118953809Y-102934962D01*
X119099704Y-102626337D01*
X119182586Y-102295180D01*
X119190875Y-102125783D01*
X120800729Y-102125783D01*
X120850885Y-102463449D01*
X120965951Y-102784843D01*
X121046191Y-102934962D01*
X121312528Y-103049683D01*
X122322211Y-102040000D01*
X122757789Y-102040000D01*
X123767472Y-103049683D01*
X124033809Y-102934962D01*
X124179704Y-102626337D01*
X124262586Y-102295180D01*
X124279271Y-101954217D01*
X124229115Y-101616551D01*
X124114049Y-101295157D01*
X124033809Y-101145038D01*
X123767472Y-101030317D01*
X122757789Y-102040000D01*
X122322211Y-102040000D01*
X121312528Y-101030317D01*
X121046191Y-101145038D01*
X120900296Y-101453663D01*
X120817414Y-101784820D01*
X120800729Y-102125783D01*
X119190875Y-102125783D01*
X119199271Y-101954217D01*
X119149115Y-101616551D01*
X119034049Y-101295157D01*
X118953809Y-101145038D01*
X118687472Y-101030317D01*
X117677789Y-102040000D01*
X117242211Y-102040000D01*
X116232528Y-101030317D01*
X115966191Y-101145038D01*
X115820296Y-101453663D01*
X115737414Y-101784820D01*
X115720729Y-102125783D01*
X107225000Y-102125783D01*
X107225000Y-102113367D01*
X107202903Y-102002279D01*
X107159558Y-101897635D01*
X107096632Y-101803459D01*
X107016541Y-101723368D01*
X106922365Y-101660442D01*
X106817721Y-101617097D01*
X106706633Y-101595000D01*
X106593367Y-101595000D01*
X106482279Y-101617097D01*
X106377635Y-101660442D01*
X106340000Y-101685589D01*
X106302365Y-101660442D01*
X106197721Y-101617097D01*
X106086633Y-101595000D01*
X105973367Y-101595000D01*
X105862279Y-101617097D01*
X105757635Y-101660442D01*
X105720000Y-101685589D01*
X105682365Y-101660442D01*
X105577721Y-101617097D01*
X105466633Y-101595000D01*
X105353367Y-101595000D01*
X105242279Y-101617097D01*
X105137635Y-101660442D01*
X105043459Y-101723368D01*
X104963368Y-101803459D01*
X104900442Y-101897635D01*
X104857097Y-102002279D01*
X104835000Y-102113367D01*
X102896461Y-102113367D01*
X102906541Y-102106632D01*
X102986632Y-102026541D01*
X103049558Y-101932365D01*
X103092903Y-101827721D01*
X103115000Y-101716633D01*
X103115000Y-101603367D01*
X103092903Y-101492279D01*
X103049558Y-101387635D01*
X102986632Y-101293459D01*
X102906541Y-101213368D01*
X102812365Y-101150442D01*
X102707721Y-101107097D01*
X102596633Y-101085000D01*
X102483367Y-101085000D01*
X102372279Y-101107097D01*
X102267635Y-101150442D01*
X102173459Y-101213368D01*
X102093368Y-101293459D01*
X102030442Y-101387635D01*
X101987097Y-101492279D01*
X101965000Y-101603367D01*
X88985285Y-101603367D01*
X88897721Y-101567097D01*
X88786633Y-101545000D01*
X88673367Y-101545000D01*
X88562279Y-101567097D01*
X88457635Y-101610442D01*
X88420000Y-101635589D01*
X88382365Y-101610442D01*
X88277721Y-101567097D01*
X88166633Y-101545000D01*
X88053367Y-101545000D01*
X87942279Y-101567097D01*
X87837635Y-101610442D01*
X87800000Y-101635589D01*
X87762365Y-101610442D01*
X87657721Y-101567097D01*
X87546633Y-101545000D01*
X87433367Y-101545000D01*
X87322279Y-101567097D01*
X87217635Y-101610442D01*
X87123459Y-101673368D01*
X87043368Y-101753459D01*
X86980442Y-101847635D01*
X86937097Y-101952279D01*
X86915000Y-102063367D01*
X75101693Y-102063367D01*
X75101693Y-101175000D01*
X75094935Y-101106388D01*
X75074922Y-101040413D01*
X75042422Y-100979610D01*
X74998685Y-100926315D01*
X74945390Y-100882578D01*
X74884587Y-100850078D01*
X74818612Y-100830065D01*
X74750000Y-100823307D01*
X74463224Y-100823307D01*
X74491767Y-100812528D01*
X116450317Y-100812528D01*
X117460000Y-101822211D01*
X118469683Y-100812528D01*
X118354962Y-100546191D01*
X118046337Y-100400296D01*
X117715180Y-100317414D01*
X117374217Y-100300729D01*
X117036551Y-100350885D01*
X116715157Y-100465951D01*
X116565038Y-100546191D01*
X116450317Y-100812528D01*
X74491767Y-100812528D01*
X74546300Y-100791935D01*
X74788852Y-100640736D01*
X74997246Y-100445122D01*
X75163473Y-100212611D01*
X75230896Y-100063367D01*
X81125000Y-100063367D01*
X81125000Y-100176633D01*
X81147097Y-100287721D01*
X81190442Y-100392365D01*
X81253368Y-100486541D01*
X81333459Y-100566632D01*
X81427635Y-100629558D01*
X81532279Y-100672903D01*
X81643367Y-100695000D01*
X81756633Y-100695000D01*
X81867721Y-100672903D01*
X81972365Y-100629558D01*
X82066541Y-100566632D01*
X82146632Y-100486541D01*
X82209558Y-100392365D01*
X82252903Y-100287721D01*
X82275000Y-100176633D01*
X82275000Y-100063367D01*
X82252903Y-99952279D01*
X82209558Y-99847635D01*
X82146632Y-99753459D01*
X82066541Y-99673368D01*
X81972365Y-99610442D01*
X81867721Y-99567097D01*
X81756633Y-99545000D01*
X81643367Y-99545000D01*
X81532279Y-99567097D01*
X81427635Y-99610442D01*
X81333459Y-99673368D01*
X81253368Y-99753459D01*
X81190442Y-99847635D01*
X81147097Y-99952279D01*
X81125000Y-100063367D01*
X75230896Y-100063367D01*
X75281146Y-99952139D01*
X75307903Y-99863910D01*
X75196889Y-99639000D01*
X74054000Y-99639000D01*
X74054000Y-99659000D01*
X73746000Y-99659000D01*
X73746000Y-99639000D01*
X72603111Y-99639000D01*
X72492097Y-99863910D01*
X72000000Y-99863910D01*
X72000000Y-99106090D01*
X72492097Y-99106090D01*
X72603111Y-99331000D01*
X73746000Y-99331000D01*
X73746000Y-99311000D01*
X74054000Y-99311000D01*
X74054000Y-99331000D01*
X75196889Y-99331000D01*
X75307903Y-99106090D01*
X75281146Y-99017861D01*
X75193280Y-98823367D01*
X81125000Y-98823367D01*
X81125000Y-98936633D01*
X81147097Y-99047721D01*
X81190442Y-99152365D01*
X81253368Y-99246541D01*
X81333459Y-99326632D01*
X81427635Y-99389558D01*
X81532279Y-99432903D01*
X81643367Y-99455000D01*
X81756633Y-99455000D01*
X81867721Y-99432903D01*
X81972365Y-99389558D01*
X82009756Y-99364574D01*
X118625000Y-99364574D01*
X118625000Y-99635426D01*
X118677841Y-99901073D01*
X118781491Y-100151307D01*
X118931968Y-100376511D01*
X119123489Y-100568032D01*
X119348693Y-100718509D01*
X119598927Y-100822159D01*
X119864574Y-100875000D01*
X120135426Y-100875000D01*
X120401073Y-100822159D01*
X120424324Y-100812528D01*
X121530317Y-100812528D01*
X122540000Y-101822211D01*
X123549683Y-100812528D01*
X123434962Y-100546191D01*
X123126337Y-100400296D01*
X122795180Y-100317414D01*
X122454217Y-100300729D01*
X122116551Y-100350885D01*
X121795157Y-100465951D01*
X121645038Y-100546191D01*
X121530317Y-100812528D01*
X120424324Y-100812528D01*
X120651307Y-100718509D01*
X120876511Y-100568032D01*
X121068032Y-100376511D01*
X121218509Y-100151307D01*
X121322159Y-99901073D01*
X121375000Y-99635426D01*
X121375000Y-99364574D01*
X121333748Y-99157187D01*
X126150000Y-99157187D01*
X126150000Y-99442813D01*
X126205723Y-99722949D01*
X126315027Y-99986833D01*
X126473711Y-100224321D01*
X126675679Y-100426289D01*
X126913167Y-100584973D01*
X127177051Y-100694277D01*
X127457187Y-100750000D01*
X127742813Y-100750000D01*
X128022949Y-100694277D01*
X128286833Y-100584973D01*
X128524321Y-100426289D01*
X128700000Y-100250610D01*
X128700000Y-103413330D01*
X128690442Y-103427635D01*
X128647097Y-103532279D01*
X128625000Y-103643367D01*
X128625000Y-103756633D01*
X128647097Y-103867721D01*
X128690442Y-103972365D01*
X128700000Y-103986670D01*
X128700000Y-104000000D01*
X128701921Y-104019509D01*
X128707612Y-104038268D01*
X128716853Y-104055557D01*
X128729289Y-104070711D01*
X128744443Y-104083147D01*
X128761732Y-104092388D01*
X128780491Y-104098079D01*
X128785388Y-104098561D01*
X128833459Y-104146632D01*
X128927635Y-104209558D01*
X129032279Y-104252903D01*
X129143367Y-104275000D01*
X129256633Y-104275000D01*
X129367721Y-104252903D01*
X129472365Y-104209558D01*
X129566541Y-104146632D01*
X129613173Y-104100000D01*
X130200000Y-104100000D01*
X130219509Y-104098079D01*
X130238268Y-104092388D01*
X130255557Y-104083147D01*
X130270711Y-104070711D01*
X130283147Y-104055557D01*
X130292388Y-104038268D01*
X130298079Y-104019509D01*
X130300000Y-104000000D01*
X130300000Y-94500000D01*
X130298079Y-94480491D01*
X130292388Y-94461732D01*
X130283147Y-94444443D01*
X130270711Y-94429289D01*
X130255557Y-94416853D01*
X130238268Y-94407612D01*
X130219509Y-94401921D01*
X130200000Y-94400000D01*
X129486670Y-94400000D01*
X129472365Y-94390442D01*
X129367721Y-94347097D01*
X129256633Y-94325000D01*
X129143367Y-94325000D01*
X129032279Y-94347097D01*
X128927635Y-94390442D01*
X128913330Y-94400000D01*
X128800000Y-94400000D01*
X128780491Y-94401921D01*
X128761732Y-94407612D01*
X128744443Y-94416853D01*
X128729289Y-94429289D01*
X128716853Y-94444443D01*
X128707612Y-94461732D01*
X128701921Y-94480491D01*
X128700000Y-94500000D01*
X128700000Y-94613330D01*
X128690442Y-94627635D01*
X128647097Y-94732279D01*
X128625000Y-94843367D01*
X128625000Y-94956633D01*
X128647097Y-95067721D01*
X128690442Y-95172365D01*
X128700000Y-95186670D01*
X128700000Y-98349390D01*
X128524321Y-98173711D01*
X128286833Y-98015027D01*
X128022949Y-97905723D01*
X127742813Y-97850000D01*
X127457187Y-97850000D01*
X127177051Y-97905723D01*
X126913167Y-98015027D01*
X126675679Y-98173711D01*
X126473711Y-98375679D01*
X126315027Y-98613167D01*
X126205723Y-98877051D01*
X126150000Y-99157187D01*
X121333748Y-99157187D01*
X121322159Y-99098927D01*
X121218509Y-98848693D01*
X121068032Y-98623489D01*
X120876511Y-98431968D01*
X120651307Y-98281491D01*
X120424325Y-98187472D01*
X121530317Y-98187472D01*
X121645038Y-98453809D01*
X121953663Y-98599704D01*
X122284820Y-98682586D01*
X122625783Y-98699271D01*
X122963449Y-98649115D01*
X123284843Y-98534049D01*
X123434962Y-98453809D01*
X123549683Y-98187472D01*
X122540000Y-97177789D01*
X121530317Y-98187472D01*
X120424325Y-98187472D01*
X120401073Y-98177841D01*
X120135426Y-98125000D01*
X119864574Y-98125000D01*
X119598927Y-98177841D01*
X119348693Y-98281491D01*
X119123489Y-98431968D01*
X118931968Y-98623489D01*
X118781491Y-98848693D01*
X118677841Y-99098927D01*
X118625000Y-99364574D01*
X82009756Y-99364574D01*
X82066541Y-99326632D01*
X82146632Y-99246541D01*
X82209558Y-99152365D01*
X82252903Y-99047721D01*
X82275000Y-98936633D01*
X82275000Y-98823367D01*
X82252903Y-98712279D01*
X82209558Y-98607635D01*
X82146632Y-98513459D01*
X82066541Y-98433368D01*
X81972365Y-98370442D01*
X81867721Y-98327097D01*
X81756633Y-98305000D01*
X81643367Y-98305000D01*
X81532279Y-98327097D01*
X81427635Y-98370442D01*
X81333459Y-98433368D01*
X81253368Y-98513459D01*
X81190442Y-98607635D01*
X81147097Y-98712279D01*
X81125000Y-98823367D01*
X75193280Y-98823367D01*
X75163473Y-98757389D01*
X74997246Y-98524878D01*
X74788852Y-98329264D01*
X74561391Y-98187472D01*
X116450317Y-98187472D01*
X116565038Y-98453809D01*
X116873663Y-98599704D01*
X117204820Y-98682586D01*
X117545783Y-98699271D01*
X117883449Y-98649115D01*
X118204843Y-98534049D01*
X118354962Y-98453809D01*
X118469683Y-98187472D01*
X117460000Y-97177789D01*
X116450317Y-98187472D01*
X74561391Y-98187472D01*
X74546300Y-98178065D01*
X74291324Y-98081778D01*
X74468413Y-98008426D01*
X74664955Y-97877101D01*
X74832101Y-97709955D01*
X74963426Y-97513413D01*
X75046287Y-97313367D01*
X101475000Y-97313367D01*
X101475000Y-97426633D01*
X101497097Y-97537721D01*
X101540442Y-97642365D01*
X101603368Y-97736541D01*
X101683459Y-97816632D01*
X101777635Y-97879558D01*
X101882279Y-97922903D01*
X101993367Y-97945000D01*
X102106633Y-97945000D01*
X102217721Y-97922903D01*
X102322365Y-97879558D01*
X102416541Y-97816632D01*
X102496632Y-97736541D01*
X102559558Y-97642365D01*
X102602903Y-97537721D01*
X102625000Y-97426633D01*
X102625000Y-97313367D01*
X102602903Y-97202279D01*
X102559558Y-97097635D01*
X102496632Y-97003459D01*
X102416541Y-96923368D01*
X102322365Y-96860442D01*
X102217721Y-96817097D01*
X102106633Y-96795000D01*
X101993367Y-96795000D01*
X101882279Y-96817097D01*
X101777635Y-96860442D01*
X101683459Y-96923368D01*
X101603368Y-97003459D01*
X101540442Y-97097635D01*
X101497097Y-97202279D01*
X101475000Y-97313367D01*
X75046287Y-97313367D01*
X75053884Y-97295027D01*
X75100000Y-97063190D01*
X75100000Y-96826810D01*
X75053884Y-96594973D01*
X75020082Y-96513367D01*
X86950000Y-96513367D01*
X86950000Y-96626633D01*
X86972097Y-96737721D01*
X87015442Y-96842365D01*
X87078368Y-96936541D01*
X87158459Y-97016632D01*
X87252635Y-97079558D01*
X87357279Y-97122903D01*
X87468367Y-97145000D01*
X87581633Y-97145000D01*
X87692721Y-97122903D01*
X87797365Y-97079558D01*
X87835000Y-97054411D01*
X87872635Y-97079558D01*
X87977279Y-97122903D01*
X88088367Y-97145000D01*
X88201633Y-97145000D01*
X88312721Y-97122903D01*
X88417365Y-97079558D01*
X88455000Y-97054411D01*
X88492635Y-97079558D01*
X88597279Y-97122903D01*
X88708367Y-97145000D01*
X88821633Y-97145000D01*
X88932721Y-97122903D01*
X89037365Y-97079558D01*
X89131541Y-97016632D01*
X89211632Y-96936541D01*
X89274558Y-96842365D01*
X89317903Y-96737721D01*
X89340000Y-96626633D01*
X89340000Y-96513367D01*
X89317903Y-96402279D01*
X89285215Y-96323363D01*
X97265000Y-96323363D01*
X97265000Y-96436629D01*
X97287097Y-96547717D01*
X97330442Y-96652361D01*
X97393368Y-96746537D01*
X97473459Y-96826628D01*
X97567635Y-96889554D01*
X97672279Y-96932899D01*
X97783367Y-96954996D01*
X97896633Y-96954996D01*
X98007721Y-96932899D01*
X98112365Y-96889554D01*
X98206541Y-96826628D01*
X98286632Y-96746537D01*
X98349558Y-96652361D01*
X98392903Y-96547717D01*
X98399735Y-96513367D01*
X98965000Y-96513367D01*
X98965000Y-96626633D01*
X98987097Y-96737721D01*
X99030442Y-96842365D01*
X99093368Y-96936541D01*
X99173459Y-97016632D01*
X99267635Y-97079558D01*
X99372279Y-97122903D01*
X99483367Y-97145000D01*
X99596633Y-97145000D01*
X99707721Y-97122903D01*
X99812365Y-97079558D01*
X99850000Y-97054411D01*
X99887635Y-97079558D01*
X99992279Y-97122903D01*
X100103367Y-97145000D01*
X100216633Y-97145000D01*
X100327721Y-97122903D01*
X100432365Y-97079558D01*
X100470000Y-97054411D01*
X100507635Y-97079558D01*
X100612279Y-97122903D01*
X100723367Y-97145000D01*
X100836633Y-97145000D01*
X100947721Y-97122903D01*
X101052365Y-97079558D01*
X101146541Y-97016632D01*
X101226632Y-96936541D01*
X101289558Y-96842365D01*
X101332903Y-96737721D01*
X101355000Y-96626633D01*
X101355000Y-96513367D01*
X101332903Y-96402279D01*
X101291933Y-96303367D01*
X104175000Y-96303367D01*
X104175000Y-96416633D01*
X104197097Y-96527721D01*
X104240442Y-96632365D01*
X104303368Y-96726541D01*
X104383459Y-96806632D01*
X104477635Y-96869558D01*
X104582279Y-96912903D01*
X104693367Y-96935000D01*
X104806633Y-96935000D01*
X104917721Y-96912903D01*
X105022365Y-96869558D01*
X105116541Y-96806632D01*
X105196632Y-96726541D01*
X105259558Y-96632365D01*
X105302903Y-96527721D01*
X105325000Y-96416633D01*
X105325000Y-96303367D01*
X108305000Y-96303367D01*
X108305000Y-96416633D01*
X108327097Y-96527721D01*
X108370442Y-96632365D01*
X108433368Y-96726541D01*
X108513459Y-96806632D01*
X108607635Y-96869558D01*
X108712279Y-96912903D01*
X108823367Y-96935000D01*
X108936633Y-96935000D01*
X109047721Y-96912903D01*
X109152365Y-96869558D01*
X109246541Y-96806632D01*
X109326632Y-96726541D01*
X109389558Y-96632365D01*
X109432903Y-96527721D01*
X109435758Y-96513367D01*
X109775000Y-96513367D01*
X109775000Y-96626633D01*
X109797097Y-96737721D01*
X109840442Y-96842365D01*
X109903368Y-96936541D01*
X109983459Y-97016632D01*
X110077635Y-97079558D01*
X110182279Y-97122903D01*
X110293367Y-97145000D01*
X110406633Y-97145000D01*
X110517721Y-97122903D01*
X110622365Y-97079558D01*
X110660000Y-97054411D01*
X110697635Y-97079558D01*
X110802279Y-97122903D01*
X110913367Y-97145000D01*
X111026633Y-97145000D01*
X111137721Y-97122903D01*
X111242365Y-97079558D01*
X111280000Y-97054411D01*
X111317635Y-97079558D01*
X111422279Y-97122903D01*
X111533367Y-97145000D01*
X111646633Y-97145000D01*
X111757721Y-97122903D01*
X111862365Y-97079558D01*
X111912913Y-97045783D01*
X115720729Y-97045783D01*
X115770885Y-97383449D01*
X115885951Y-97704843D01*
X115966191Y-97854962D01*
X116232528Y-97969683D01*
X117242211Y-96960000D01*
X117677789Y-96960000D01*
X118687472Y-97969683D01*
X118953809Y-97854962D01*
X119099704Y-97546337D01*
X119182586Y-97215180D01*
X119190875Y-97045783D01*
X120800729Y-97045783D01*
X120850885Y-97383449D01*
X120965951Y-97704843D01*
X121046191Y-97854962D01*
X121312528Y-97969683D01*
X122322211Y-96960000D01*
X122757789Y-96960000D01*
X123767472Y-97969683D01*
X124033809Y-97854962D01*
X124179704Y-97546337D01*
X124262586Y-97215180D01*
X124279271Y-96874217D01*
X124229115Y-96536551D01*
X124114049Y-96215157D01*
X124033809Y-96065038D01*
X123767472Y-95950317D01*
X122757789Y-96960000D01*
X122322211Y-96960000D01*
X121312528Y-95950317D01*
X121046191Y-96065038D01*
X120900296Y-96373663D01*
X120817414Y-96704820D01*
X120800729Y-97045783D01*
X119190875Y-97045783D01*
X119199271Y-96874217D01*
X119149115Y-96536551D01*
X119034049Y-96215157D01*
X118953809Y-96065038D01*
X118687472Y-95950317D01*
X117677789Y-96960000D01*
X117242211Y-96960000D01*
X116232528Y-95950317D01*
X115966191Y-96065038D01*
X115820296Y-96373663D01*
X115737414Y-96704820D01*
X115720729Y-97045783D01*
X111912913Y-97045783D01*
X111956541Y-97016632D01*
X112036632Y-96936541D01*
X112099558Y-96842365D01*
X112142903Y-96737721D01*
X112165000Y-96626633D01*
X112165000Y-96513367D01*
X112142903Y-96402279D01*
X112101933Y-96303367D01*
X112325000Y-96303367D01*
X112325000Y-96416633D01*
X112347097Y-96527721D01*
X112390442Y-96632365D01*
X112453368Y-96726541D01*
X112533459Y-96806632D01*
X112627635Y-96869558D01*
X112732279Y-96912903D01*
X112843367Y-96935000D01*
X112956633Y-96935000D01*
X113067721Y-96912903D01*
X113172365Y-96869558D01*
X113266541Y-96806632D01*
X113346632Y-96726541D01*
X113409558Y-96632365D01*
X113452903Y-96527721D01*
X113475000Y-96416633D01*
X113475000Y-96303367D01*
X113452903Y-96192279D01*
X113409558Y-96087635D01*
X113346632Y-95993459D01*
X113266541Y-95913368D01*
X113172365Y-95850442D01*
X113067721Y-95807097D01*
X112956633Y-95785000D01*
X112843367Y-95785000D01*
X112732279Y-95807097D01*
X112627635Y-95850442D01*
X112533459Y-95913368D01*
X112453368Y-95993459D01*
X112390442Y-96087635D01*
X112347097Y-96192279D01*
X112325000Y-96303367D01*
X112101933Y-96303367D01*
X112099558Y-96297635D01*
X112036632Y-96203459D01*
X111956541Y-96123368D01*
X111862365Y-96060442D01*
X111757721Y-96017097D01*
X111646633Y-95995000D01*
X111533367Y-95995000D01*
X111422279Y-96017097D01*
X111317635Y-96060442D01*
X111280000Y-96085589D01*
X111242365Y-96060442D01*
X111137721Y-96017097D01*
X111026633Y-95995000D01*
X110913367Y-95995000D01*
X110802279Y-96017097D01*
X110697635Y-96060442D01*
X110660000Y-96085589D01*
X110622365Y-96060442D01*
X110517721Y-96017097D01*
X110406633Y-95995000D01*
X110293367Y-95995000D01*
X110182279Y-96017097D01*
X110077635Y-96060442D01*
X109983459Y-96123368D01*
X109903368Y-96203459D01*
X109840442Y-96297635D01*
X109797097Y-96402279D01*
X109775000Y-96513367D01*
X109435758Y-96513367D01*
X109455000Y-96416633D01*
X109455000Y-96303367D01*
X109432903Y-96192279D01*
X109389558Y-96087635D01*
X109326632Y-95993459D01*
X109246541Y-95913368D01*
X109152365Y-95850442D01*
X109047721Y-95807097D01*
X108936633Y-95785000D01*
X108823367Y-95785000D01*
X108712279Y-95807097D01*
X108607635Y-95850442D01*
X108513459Y-95913368D01*
X108433368Y-95993459D01*
X108370442Y-96087635D01*
X108327097Y-96192279D01*
X108305000Y-96303367D01*
X105325000Y-96303367D01*
X105302903Y-96192279D01*
X105259558Y-96087635D01*
X105196632Y-95993459D01*
X105116541Y-95913368D01*
X105022365Y-95850442D01*
X104917721Y-95807097D01*
X104806633Y-95785000D01*
X104693367Y-95785000D01*
X104582279Y-95807097D01*
X104477635Y-95850442D01*
X104383459Y-95913368D01*
X104303368Y-95993459D01*
X104240442Y-96087635D01*
X104197097Y-96192279D01*
X104175000Y-96303367D01*
X101291933Y-96303367D01*
X101289558Y-96297635D01*
X101226632Y-96203459D01*
X101146541Y-96123368D01*
X101052365Y-96060442D01*
X100947721Y-96017097D01*
X100836633Y-95995000D01*
X100723367Y-95995000D01*
X100612279Y-96017097D01*
X100507635Y-96060442D01*
X100470000Y-96085589D01*
X100432365Y-96060442D01*
X100327721Y-96017097D01*
X100216633Y-95995000D01*
X100103367Y-95995000D01*
X99992279Y-96017097D01*
X99887635Y-96060442D01*
X99850000Y-96085589D01*
X99812365Y-96060442D01*
X99707721Y-96017097D01*
X99596633Y-95995000D01*
X99483367Y-95995000D01*
X99372279Y-96017097D01*
X99267635Y-96060442D01*
X99173459Y-96123368D01*
X99093368Y-96203459D01*
X99030442Y-96297635D01*
X98987097Y-96402279D01*
X98965000Y-96513367D01*
X98399735Y-96513367D01*
X98415000Y-96436629D01*
X98415000Y-96323363D01*
X98392903Y-96212275D01*
X98349558Y-96107631D01*
X98286632Y-96013455D01*
X98206541Y-95933364D01*
X98112365Y-95870438D01*
X98007721Y-95827093D01*
X97896633Y-95804996D01*
X97783367Y-95804996D01*
X97672279Y-95827093D01*
X97567635Y-95870438D01*
X97473459Y-95933364D01*
X97393368Y-96013455D01*
X97330442Y-96107631D01*
X97287097Y-96212275D01*
X97265000Y-96323363D01*
X89285215Y-96323363D01*
X89274558Y-96297635D01*
X89211632Y-96203459D01*
X89131541Y-96123368D01*
X89037365Y-96060442D01*
X88932721Y-96017097D01*
X88821633Y-95995000D01*
X88708367Y-95995000D01*
X88597279Y-96017097D01*
X88492635Y-96060442D01*
X88455000Y-96085589D01*
X88417365Y-96060442D01*
X88312721Y-96017097D01*
X88201633Y-95995000D01*
X88088367Y-95995000D01*
X87977279Y-96017097D01*
X87872635Y-96060442D01*
X87835000Y-96085589D01*
X87797365Y-96060442D01*
X87692721Y-96017097D01*
X87581633Y-95995000D01*
X87468367Y-95995000D01*
X87357279Y-96017097D01*
X87252635Y-96060442D01*
X87158459Y-96123368D01*
X87078368Y-96203459D01*
X87015442Y-96297635D01*
X86972097Y-96402279D01*
X86950000Y-96513367D01*
X75020082Y-96513367D01*
X74963426Y-96376587D01*
X74832101Y-96180045D01*
X74664955Y-96012899D01*
X74468413Y-95881574D01*
X74250027Y-95791116D01*
X74018190Y-95745000D01*
X73781810Y-95745000D01*
X73549973Y-95791116D01*
X73331587Y-95881574D01*
X73135045Y-96012899D01*
X72967899Y-96180045D01*
X72836574Y-96376587D01*
X72746116Y-96594973D01*
X72700000Y-96826810D01*
X72700000Y-97063190D01*
X72746116Y-97295027D01*
X72836574Y-97513413D01*
X72967899Y-97709955D01*
X73135045Y-97877101D01*
X73331587Y-98008426D01*
X73508676Y-98081778D01*
X73253700Y-98178065D01*
X73011148Y-98329264D01*
X72802754Y-98524878D01*
X72636527Y-98757389D01*
X72518854Y-99017861D01*
X72492097Y-99106090D01*
X72000000Y-99106090D01*
X72000000Y-95732528D01*
X116450317Y-95732528D01*
X117460000Y-96742211D01*
X118469683Y-95732528D01*
X121530317Y-95732528D01*
X122540000Y-96742211D01*
X123549683Y-95732528D01*
X123434962Y-95466191D01*
X123126337Y-95320296D01*
X122795180Y-95237414D01*
X122454217Y-95220729D01*
X122116551Y-95270885D01*
X121795157Y-95385951D01*
X121645038Y-95466191D01*
X121530317Y-95732528D01*
X118469683Y-95732528D01*
X118354962Y-95466191D01*
X118046337Y-95320296D01*
X117715180Y-95237414D01*
X117374217Y-95220729D01*
X117036551Y-95270885D01*
X116715157Y-95385951D01*
X116565038Y-95466191D01*
X116450317Y-95732528D01*
X72000000Y-95732528D01*
X72000000Y-93106559D01*
X72014464Y-92996693D01*
X72054336Y-92900433D01*
X72117768Y-92817768D01*
X72200433Y-92754336D01*
X72296693Y-92714464D01*
X72406559Y-92700000D01*
X136393441Y-92700000D01*
X136503307Y-92714464D01*
G37*
%TD.AperFunction*%
%TD*%
M02*
