%TF.GenerationSoftware,KiCad,Pcbnew,(5.1.8)-1*%
%TF.CreationDate,2021-10-07T20:49:06+08:00*%
%TF.ProjectId,Amplifier,416d706c-6966-4696-9572-2e6b69636164,rev?*%
%TF.SameCoordinates,Original*%
%TF.FileFunction,Soldermask,Top*%
%TF.FilePolarity,Negative*%
%FSLAX46Y46*%
G04 Gerber Fmt 4.6, Leading zero omitted, Abs format (unit mm)*
G04 Created by KiCad (PCBNEW (5.1.8)-1) date 2021-10-07 20:49:06*
%MOMM*%
%LPD*%
G01*
G04 APERTURE LIST*
%ADD10C,1.700000*%
%ADD11R,1.700000X1.700000*%
%ADD12C,2.200000*%
%ADD13R,2.290000X3.000000*%
%ADD14C,2.250000*%
%ADD15C,2.050000*%
%ADD16O,1.700000X1.700000*%
G04 APERTURE END LIST*
D10*
%TO.C,J1*%
X144290000Y-99520000D03*
X146830000Y-102060000D03*
D11*
X146830000Y-96980000D03*
D10*
X144290000Y-102060000D03*
X146830000Y-99520000D03*
X144290000Y-96980000D03*
%TD*%
%TO.C,R22*%
G36*
G01*
X129905000Y-100540000D02*
X130275000Y-100540000D01*
G75*
G02*
X130410000Y-100675000I0J-135000D01*
G01*
X130410000Y-100945000D01*
G75*
G02*
X130275000Y-101080000I-135000J0D01*
G01*
X129905000Y-101080000D01*
G75*
G02*
X129770000Y-100945000I0J135000D01*
G01*
X129770000Y-100675000D01*
G75*
G02*
X129905000Y-100540000I135000J0D01*
G01*
G37*
G36*
G01*
X129905000Y-99520000D02*
X130275000Y-99520000D01*
G75*
G02*
X130410000Y-99655000I0J-135000D01*
G01*
X130410000Y-99925000D01*
G75*
G02*
X130275000Y-100060000I-135000J0D01*
G01*
X129905000Y-100060000D01*
G75*
G02*
X129770000Y-99925000I0J135000D01*
G01*
X129770000Y-99655000D01*
G75*
G02*
X129905000Y-99520000I135000J0D01*
G01*
G37*
%TD*%
%TO.C,R21*%
G36*
G01*
X129905000Y-98545000D02*
X130275000Y-98545000D01*
G75*
G02*
X130410000Y-98680000I0J-135000D01*
G01*
X130410000Y-98950000D01*
G75*
G02*
X130275000Y-99085000I-135000J0D01*
G01*
X129905000Y-99085000D01*
G75*
G02*
X129770000Y-98950000I0J135000D01*
G01*
X129770000Y-98680000D01*
G75*
G02*
X129905000Y-98545000I135000J0D01*
G01*
G37*
G36*
G01*
X129905000Y-97525000D02*
X130275000Y-97525000D01*
G75*
G02*
X130410000Y-97660000I0J-135000D01*
G01*
X130410000Y-97930000D01*
G75*
G02*
X130275000Y-98065000I-135000J0D01*
G01*
X129905000Y-98065000D01*
G75*
G02*
X129770000Y-97930000I0J135000D01*
G01*
X129770000Y-97660000D01*
G75*
G02*
X129905000Y-97525000I135000J0D01*
G01*
G37*
%TD*%
%TO.C,D2*%
G36*
G01*
X130262500Y-103010000D02*
X129917500Y-103010000D01*
G75*
G02*
X129770000Y-102862500I0J147500D01*
G01*
X129770000Y-102567500D01*
G75*
G02*
X129917500Y-102420000I147500J0D01*
G01*
X130262500Y-102420000D01*
G75*
G02*
X130410000Y-102567500I0J-147500D01*
G01*
X130410000Y-102862500D01*
G75*
G02*
X130262500Y-103010000I-147500J0D01*
G01*
G37*
G36*
G01*
X130262500Y-103980000D02*
X129917500Y-103980000D01*
G75*
G02*
X129770000Y-103832500I0J147500D01*
G01*
X129770000Y-103537500D01*
G75*
G02*
X129917500Y-103390000I147500J0D01*
G01*
X130262500Y-103390000D01*
G75*
G02*
X130410000Y-103537500I0J-147500D01*
G01*
X130410000Y-103832500D01*
G75*
G02*
X130262500Y-103980000I-147500J0D01*
G01*
G37*
%TD*%
%TO.C,D1*%
G36*
G01*
X130262500Y-95210000D02*
X129917500Y-95210000D01*
G75*
G02*
X129770000Y-95062500I0J147500D01*
G01*
X129770000Y-94767500D01*
G75*
G02*
X129917500Y-94620000I147500J0D01*
G01*
X130262500Y-94620000D01*
G75*
G02*
X130410000Y-94767500I0J-147500D01*
G01*
X130410000Y-95062500D01*
G75*
G02*
X130262500Y-95210000I-147500J0D01*
G01*
G37*
G36*
G01*
X130262500Y-96180000D02*
X129917500Y-96180000D01*
G75*
G02*
X129770000Y-96032500I0J147500D01*
G01*
X129770000Y-95737500D01*
G75*
G02*
X129917500Y-95590000I147500J0D01*
G01*
X130262500Y-95590000D01*
G75*
G02*
X130410000Y-95737500I0J-147500D01*
G01*
X130410000Y-96032500D01*
G75*
G02*
X130262500Y-96180000I-147500J0D01*
G01*
G37*
%TD*%
D12*
%TO.C,H3*%
X127600000Y-99300000D03*
%TD*%
%TO.C,H2*%
X70100000Y-105100000D03*
%TD*%
%TO.C,H1*%
X70100000Y-93900000D03*
%TD*%
%TO.C,R20*%
G36*
G01*
X112735000Y-101910000D02*
X113105000Y-101910000D01*
G75*
G02*
X113240000Y-102045000I0J-135000D01*
G01*
X113240000Y-102315000D01*
G75*
G02*
X113105000Y-102450000I-135000J0D01*
G01*
X112735000Y-102450000D01*
G75*
G02*
X112600000Y-102315000I0J135000D01*
G01*
X112600000Y-102045000D01*
G75*
G02*
X112735000Y-101910000I135000J0D01*
G01*
G37*
G36*
G01*
X112735000Y-100890000D02*
X113105000Y-100890000D01*
G75*
G02*
X113240000Y-101025000I0J-135000D01*
G01*
X113240000Y-101295000D01*
G75*
G02*
X113105000Y-101430000I-135000J0D01*
G01*
X112735000Y-101430000D01*
G75*
G02*
X112600000Y-101295000I0J135000D01*
G01*
X112600000Y-101025000D01*
G75*
G02*
X112735000Y-100890000I135000J0D01*
G01*
G37*
%TD*%
%TO.C,R19*%
G36*
G01*
X112715000Y-99740000D02*
X113085000Y-99740000D01*
G75*
G02*
X113220000Y-99875000I0J-135000D01*
G01*
X113220000Y-100145000D01*
G75*
G02*
X113085000Y-100280000I-135000J0D01*
G01*
X112715000Y-100280000D01*
G75*
G02*
X112580000Y-100145000I0J135000D01*
G01*
X112580000Y-99875000D01*
G75*
G02*
X112715000Y-99740000I135000J0D01*
G01*
G37*
G36*
G01*
X112715000Y-98720000D02*
X113085000Y-98720000D01*
G75*
G02*
X113220000Y-98855000I0J-135000D01*
G01*
X113220000Y-99125000D01*
G75*
G02*
X113085000Y-99260000I-135000J0D01*
G01*
X112715000Y-99260000D01*
G75*
G02*
X112580000Y-99125000I0J135000D01*
G01*
X112580000Y-98855000D01*
G75*
G02*
X112715000Y-98720000I135000J0D01*
G01*
G37*
%TD*%
%TO.C,R18*%
G36*
G01*
X110685000Y-102830000D02*
X110315000Y-102830000D01*
G75*
G02*
X110180000Y-102695000I0J135000D01*
G01*
X110180000Y-102425000D01*
G75*
G02*
X110315000Y-102290000I135000J0D01*
G01*
X110685000Y-102290000D01*
G75*
G02*
X110820000Y-102425000I0J-135000D01*
G01*
X110820000Y-102695000D01*
G75*
G02*
X110685000Y-102830000I-135000J0D01*
G01*
G37*
G36*
G01*
X110685000Y-103850000D02*
X110315000Y-103850000D01*
G75*
G02*
X110180000Y-103715000I0J135000D01*
G01*
X110180000Y-103445000D01*
G75*
G02*
X110315000Y-103310000I135000J0D01*
G01*
X110685000Y-103310000D01*
G75*
G02*
X110820000Y-103445000I0J-135000D01*
G01*
X110820000Y-103715000D01*
G75*
G02*
X110685000Y-103850000I-135000J0D01*
G01*
G37*
%TD*%
%TO.C,R17*%
G36*
G01*
X107950000Y-96545000D02*
X107950000Y-96175000D01*
G75*
G02*
X108085000Y-96040000I135000J0D01*
G01*
X108355000Y-96040000D01*
G75*
G02*
X108490000Y-96175000I0J-135000D01*
G01*
X108490000Y-96545000D01*
G75*
G02*
X108355000Y-96680000I-135000J0D01*
G01*
X108085000Y-96680000D01*
G75*
G02*
X107950000Y-96545000I0J135000D01*
G01*
G37*
G36*
G01*
X106930000Y-96545000D02*
X106930000Y-96175000D01*
G75*
G02*
X107065000Y-96040000I135000J0D01*
G01*
X107335000Y-96040000D01*
G75*
G02*
X107470000Y-96175000I0J-135000D01*
G01*
X107470000Y-96545000D01*
G75*
G02*
X107335000Y-96680000I-135000J0D01*
G01*
X107065000Y-96680000D01*
G75*
G02*
X106930000Y-96545000I0J135000D01*
G01*
G37*
%TD*%
%TO.C,R16*%
G36*
G01*
X103285000Y-98130000D02*
X102915000Y-98130000D01*
G75*
G02*
X102780000Y-97995000I0J135000D01*
G01*
X102780000Y-97725000D01*
G75*
G02*
X102915000Y-97590000I135000J0D01*
G01*
X103285000Y-97590000D01*
G75*
G02*
X103420000Y-97725000I0J-135000D01*
G01*
X103420000Y-97995000D01*
G75*
G02*
X103285000Y-98130000I-135000J0D01*
G01*
G37*
G36*
G01*
X103285000Y-99150000D02*
X102915000Y-99150000D01*
G75*
G02*
X102780000Y-99015000I0J135000D01*
G01*
X102780000Y-98745000D01*
G75*
G02*
X102915000Y-98610000I135000J0D01*
G01*
X103285000Y-98610000D01*
G75*
G02*
X103420000Y-98745000I0J-135000D01*
G01*
X103420000Y-99015000D01*
G75*
G02*
X103285000Y-99150000I-135000J0D01*
G01*
G37*
%TD*%
%TO.C,R15*%
G36*
G01*
X104015000Y-98610000D02*
X104385000Y-98610000D01*
G75*
G02*
X104520000Y-98745000I0J-135000D01*
G01*
X104520000Y-99015000D01*
G75*
G02*
X104385000Y-99150000I-135000J0D01*
G01*
X104015000Y-99150000D01*
G75*
G02*
X103880000Y-99015000I0J135000D01*
G01*
X103880000Y-98745000D01*
G75*
G02*
X104015000Y-98610000I135000J0D01*
G01*
G37*
G36*
G01*
X104015000Y-97590000D02*
X104385000Y-97590000D01*
G75*
G02*
X104520000Y-97725000I0J-135000D01*
G01*
X104520000Y-97995000D01*
G75*
G02*
X104385000Y-98130000I-135000J0D01*
G01*
X104015000Y-98130000D01*
G75*
G02*
X103880000Y-97995000I0J135000D01*
G01*
X103880000Y-97725000D01*
G75*
G02*
X104015000Y-97590000I135000J0D01*
G01*
G37*
%TD*%
%TO.C,R14*%
G36*
G01*
X103285000Y-100410000D02*
X102915000Y-100410000D01*
G75*
G02*
X102780000Y-100275000I0J135000D01*
G01*
X102780000Y-100005000D01*
G75*
G02*
X102915000Y-99870000I135000J0D01*
G01*
X103285000Y-99870000D01*
G75*
G02*
X103420000Y-100005000I0J-135000D01*
G01*
X103420000Y-100275000D01*
G75*
G02*
X103285000Y-100410000I-135000J0D01*
G01*
G37*
G36*
G01*
X103285000Y-101430000D02*
X102915000Y-101430000D01*
G75*
G02*
X102780000Y-101295000I0J135000D01*
G01*
X102780000Y-101025000D01*
G75*
G02*
X102915000Y-100890000I135000J0D01*
G01*
X103285000Y-100890000D01*
G75*
G02*
X103420000Y-101025000I0J-135000D01*
G01*
X103420000Y-101295000D01*
G75*
G02*
X103285000Y-101430000I-135000J0D01*
G01*
G37*
%TD*%
%TO.C,R13*%
G36*
G01*
X101815000Y-100890000D02*
X102185000Y-100890000D01*
G75*
G02*
X102320000Y-101025000I0J-135000D01*
G01*
X102320000Y-101295000D01*
G75*
G02*
X102185000Y-101430000I-135000J0D01*
G01*
X101815000Y-101430000D01*
G75*
G02*
X101680000Y-101295000I0J135000D01*
G01*
X101680000Y-101025000D01*
G75*
G02*
X101815000Y-100890000I135000J0D01*
G01*
G37*
G36*
G01*
X101815000Y-99870000D02*
X102185000Y-99870000D01*
G75*
G02*
X102320000Y-100005000I0J-135000D01*
G01*
X102320000Y-100275000D01*
G75*
G02*
X102185000Y-100410000I-135000J0D01*
G01*
X101815000Y-100410000D01*
G75*
G02*
X101680000Y-100275000I0J135000D01*
G01*
X101680000Y-100005000D01*
G75*
G02*
X101815000Y-99870000I135000J0D01*
G01*
G37*
%TD*%
%TO.C,R12*%
G36*
G01*
X99845000Y-102810000D02*
X99475000Y-102810000D01*
G75*
G02*
X99340000Y-102675000I0J135000D01*
G01*
X99340000Y-102405000D01*
G75*
G02*
X99475000Y-102270000I135000J0D01*
G01*
X99845000Y-102270000D01*
G75*
G02*
X99980000Y-102405000I0J-135000D01*
G01*
X99980000Y-102675000D01*
G75*
G02*
X99845000Y-102810000I-135000J0D01*
G01*
G37*
G36*
G01*
X99845000Y-103830000D02*
X99475000Y-103830000D01*
G75*
G02*
X99340000Y-103695000I0J135000D01*
G01*
X99340000Y-103425000D01*
G75*
G02*
X99475000Y-103290000I135000J0D01*
G01*
X99845000Y-103290000D01*
G75*
G02*
X99980000Y-103425000I0J-135000D01*
G01*
X99980000Y-103695000D01*
G75*
G02*
X99845000Y-103830000I-135000J0D01*
G01*
G37*
%TD*%
%TO.C,R11*%
G36*
G01*
X96950000Y-96565000D02*
X96950000Y-96195000D01*
G75*
G02*
X97085000Y-96060000I135000J0D01*
G01*
X97355000Y-96060000D01*
G75*
G02*
X97490000Y-96195000I0J-135000D01*
G01*
X97490000Y-96565000D01*
G75*
G02*
X97355000Y-96700000I-135000J0D01*
G01*
X97085000Y-96700000D01*
G75*
G02*
X96950000Y-96565000I0J135000D01*
G01*
G37*
G36*
G01*
X95930000Y-96565000D02*
X95930000Y-96195000D01*
G75*
G02*
X96065000Y-96060000I135000J0D01*
G01*
X96335000Y-96060000D01*
G75*
G02*
X96470000Y-96195000I0J-135000D01*
G01*
X96470000Y-96565000D01*
G75*
G02*
X96335000Y-96700000I-135000J0D01*
G01*
X96065000Y-96700000D01*
G75*
G02*
X95930000Y-96565000I0J135000D01*
G01*
G37*
%TD*%
%TO.C,R10*%
G36*
G01*
X92485000Y-98130000D02*
X92115000Y-98130000D01*
G75*
G02*
X91980000Y-97995000I0J135000D01*
G01*
X91980000Y-97725000D01*
G75*
G02*
X92115000Y-97590000I135000J0D01*
G01*
X92485000Y-97590000D01*
G75*
G02*
X92620000Y-97725000I0J-135000D01*
G01*
X92620000Y-97995000D01*
G75*
G02*
X92485000Y-98130000I-135000J0D01*
G01*
G37*
G36*
G01*
X92485000Y-99150000D02*
X92115000Y-99150000D01*
G75*
G02*
X91980000Y-99015000I0J135000D01*
G01*
X91980000Y-98745000D01*
G75*
G02*
X92115000Y-98610000I135000J0D01*
G01*
X92485000Y-98610000D01*
G75*
G02*
X92620000Y-98745000I0J-135000D01*
G01*
X92620000Y-99015000D01*
G75*
G02*
X92485000Y-99150000I-135000J0D01*
G01*
G37*
%TD*%
%TO.C,R9*%
G36*
G01*
X93215000Y-98610000D02*
X93585000Y-98610000D01*
G75*
G02*
X93720000Y-98745000I0J-135000D01*
G01*
X93720000Y-99015000D01*
G75*
G02*
X93585000Y-99150000I-135000J0D01*
G01*
X93215000Y-99150000D01*
G75*
G02*
X93080000Y-99015000I0J135000D01*
G01*
X93080000Y-98745000D01*
G75*
G02*
X93215000Y-98610000I135000J0D01*
G01*
G37*
G36*
G01*
X93215000Y-97590000D02*
X93585000Y-97590000D01*
G75*
G02*
X93720000Y-97725000I0J-135000D01*
G01*
X93720000Y-97995000D01*
G75*
G02*
X93585000Y-98130000I-135000J0D01*
G01*
X93215000Y-98130000D01*
G75*
G02*
X93080000Y-97995000I0J135000D01*
G01*
X93080000Y-97725000D01*
G75*
G02*
X93215000Y-97590000I135000J0D01*
G01*
G37*
%TD*%
%TO.C,R8*%
G36*
G01*
X91460000Y-99965000D02*
X91460000Y-100335000D01*
G75*
G02*
X91325000Y-100470000I-135000J0D01*
G01*
X91055000Y-100470000D01*
G75*
G02*
X90920000Y-100335000I0J135000D01*
G01*
X90920000Y-99965000D01*
G75*
G02*
X91055000Y-99830000I135000J0D01*
G01*
X91325000Y-99830000D01*
G75*
G02*
X91460000Y-99965000I0J-135000D01*
G01*
G37*
G36*
G01*
X92480000Y-99965000D02*
X92480000Y-100335000D01*
G75*
G02*
X92345000Y-100470000I-135000J0D01*
G01*
X92075000Y-100470000D01*
G75*
G02*
X91940000Y-100335000I0J135000D01*
G01*
X91940000Y-99965000D01*
G75*
G02*
X92075000Y-99830000I135000J0D01*
G01*
X92345000Y-99830000D01*
G75*
G02*
X92480000Y-99965000I0J-135000D01*
G01*
G37*
%TD*%
%TO.C,R7*%
G36*
G01*
X91285000Y-98130000D02*
X90915000Y-98130000D01*
G75*
G02*
X90780000Y-97995000I0J135000D01*
G01*
X90780000Y-97725000D01*
G75*
G02*
X90915000Y-97590000I135000J0D01*
G01*
X91285000Y-97590000D01*
G75*
G02*
X91420000Y-97725000I0J-135000D01*
G01*
X91420000Y-97995000D01*
G75*
G02*
X91285000Y-98130000I-135000J0D01*
G01*
G37*
G36*
G01*
X91285000Y-99150000D02*
X90915000Y-99150000D01*
G75*
G02*
X90780000Y-99015000I0J135000D01*
G01*
X90780000Y-98745000D01*
G75*
G02*
X90915000Y-98610000I135000J0D01*
G01*
X91285000Y-98610000D01*
G75*
G02*
X91420000Y-98745000I0J-135000D01*
G01*
X91420000Y-99015000D01*
G75*
G02*
X91285000Y-99150000I-135000J0D01*
G01*
G37*
%TD*%
%TO.C,R6*%
G36*
G01*
X81015000Y-97300000D02*
X81385000Y-97300000D01*
G75*
G02*
X81520000Y-97435000I0J-135000D01*
G01*
X81520000Y-97705000D01*
G75*
G02*
X81385000Y-97840000I-135000J0D01*
G01*
X81015000Y-97840000D01*
G75*
G02*
X80880000Y-97705000I0J135000D01*
G01*
X80880000Y-97435000D01*
G75*
G02*
X81015000Y-97300000I135000J0D01*
G01*
G37*
G36*
G01*
X81015000Y-96280000D02*
X81385000Y-96280000D01*
G75*
G02*
X81520000Y-96415000I0J-135000D01*
G01*
X81520000Y-96685000D01*
G75*
G02*
X81385000Y-96820000I-135000J0D01*
G01*
X81015000Y-96820000D01*
G75*
G02*
X80880000Y-96685000I0J135000D01*
G01*
X80880000Y-96415000D01*
G75*
G02*
X81015000Y-96280000I135000J0D01*
G01*
G37*
%TD*%
%TO.C,R5*%
G36*
G01*
X81015000Y-102140000D02*
X81385000Y-102140000D01*
G75*
G02*
X81520000Y-102275000I0J-135000D01*
G01*
X81520000Y-102545000D01*
G75*
G02*
X81385000Y-102680000I-135000J0D01*
G01*
X81015000Y-102680000D01*
G75*
G02*
X80880000Y-102545000I0J135000D01*
G01*
X80880000Y-102275000D01*
G75*
G02*
X81015000Y-102140000I135000J0D01*
G01*
G37*
G36*
G01*
X81015000Y-101120000D02*
X81385000Y-101120000D01*
G75*
G02*
X81520000Y-101255000I0J-135000D01*
G01*
X81520000Y-101525000D01*
G75*
G02*
X81385000Y-101660000I-135000J0D01*
G01*
X81015000Y-101660000D01*
G75*
G02*
X80880000Y-101525000I0J135000D01*
G01*
X80880000Y-101255000D01*
G75*
G02*
X81015000Y-101120000I135000J0D01*
G01*
G37*
%TD*%
%TO.C,C20*%
G36*
G01*
X111380000Y-103250000D02*
X111720000Y-103250000D01*
G75*
G02*
X111860000Y-103390000I0J-140000D01*
G01*
X111860000Y-103670000D01*
G75*
G02*
X111720000Y-103810000I-140000J0D01*
G01*
X111380000Y-103810000D01*
G75*
G02*
X111240000Y-103670000I0J140000D01*
G01*
X111240000Y-103390000D01*
G75*
G02*
X111380000Y-103250000I140000J0D01*
G01*
G37*
G36*
G01*
X111380000Y-102290000D02*
X111720000Y-102290000D01*
G75*
G02*
X111860000Y-102430000I0J-140000D01*
G01*
X111860000Y-102710000D01*
G75*
G02*
X111720000Y-102850000I-140000J0D01*
G01*
X111380000Y-102850000D01*
G75*
G02*
X111240000Y-102710000I0J140000D01*
G01*
X111240000Y-102430000D01*
G75*
G02*
X111380000Y-102290000I140000J0D01*
G01*
G37*
%TD*%
%TO.C,C19*%
G36*
G01*
X112730000Y-97600000D02*
X113070000Y-97600000D01*
G75*
G02*
X113210000Y-97740000I0J-140000D01*
G01*
X113210000Y-98020000D01*
G75*
G02*
X113070000Y-98160000I-140000J0D01*
G01*
X112730000Y-98160000D01*
G75*
G02*
X112590000Y-98020000I0J140000D01*
G01*
X112590000Y-97740000D01*
G75*
G02*
X112730000Y-97600000I140000J0D01*
G01*
G37*
G36*
G01*
X112730000Y-96640000D02*
X113070000Y-96640000D01*
G75*
G02*
X113210000Y-96780000I0J-140000D01*
G01*
X113210000Y-97060000D01*
G75*
G02*
X113070000Y-97200000I-140000J0D01*
G01*
X112730000Y-97200000D01*
G75*
G02*
X112590000Y-97060000I0J140000D01*
G01*
X112590000Y-96780000D01*
G75*
G02*
X112730000Y-96640000I140000J0D01*
G01*
G37*
%TD*%
%TO.C,C16*%
G36*
G01*
X104030000Y-100850000D02*
X104370000Y-100850000D01*
G75*
G02*
X104510000Y-100990000I0J-140000D01*
G01*
X104510000Y-101270000D01*
G75*
G02*
X104370000Y-101410000I-140000J0D01*
G01*
X104030000Y-101410000D01*
G75*
G02*
X103890000Y-101270000I0J140000D01*
G01*
X103890000Y-100990000D01*
G75*
G02*
X104030000Y-100850000I140000J0D01*
G01*
G37*
G36*
G01*
X104030000Y-99890000D02*
X104370000Y-99890000D01*
G75*
G02*
X104510000Y-100030000I0J-140000D01*
G01*
X104510000Y-100310000D01*
G75*
G02*
X104370000Y-100450000I-140000J0D01*
G01*
X104030000Y-100450000D01*
G75*
G02*
X103890000Y-100310000I0J140000D01*
G01*
X103890000Y-100030000D01*
G75*
G02*
X104030000Y-99890000I140000J0D01*
G01*
G37*
%TD*%
%TO.C,C15*%
G36*
G01*
X105990000Y-96530000D02*
X105990000Y-96190000D01*
G75*
G02*
X106130000Y-96050000I140000J0D01*
G01*
X106410000Y-96050000D01*
G75*
G02*
X106550000Y-96190000I0J-140000D01*
G01*
X106550000Y-96530000D01*
G75*
G02*
X106410000Y-96670000I-140000J0D01*
G01*
X106130000Y-96670000D01*
G75*
G02*
X105990000Y-96530000I0J140000D01*
G01*
G37*
G36*
G01*
X105030000Y-96530000D02*
X105030000Y-96190000D01*
G75*
G02*
X105170000Y-96050000I140000J0D01*
G01*
X105450000Y-96050000D01*
G75*
G02*
X105590000Y-96190000I0J-140000D01*
G01*
X105590000Y-96530000D01*
G75*
G02*
X105450000Y-96670000I-140000J0D01*
G01*
X105170000Y-96670000D01*
G75*
G02*
X105030000Y-96530000I0J140000D01*
G01*
G37*
%TD*%
%TO.C,C14*%
G36*
G01*
X101880000Y-98570000D02*
X102220000Y-98570000D01*
G75*
G02*
X102360000Y-98710000I0J-140000D01*
G01*
X102360000Y-98990000D01*
G75*
G02*
X102220000Y-99130000I-140000J0D01*
G01*
X101880000Y-99130000D01*
G75*
G02*
X101740000Y-98990000I0J140000D01*
G01*
X101740000Y-98710000D01*
G75*
G02*
X101880000Y-98570000I140000J0D01*
G01*
G37*
G36*
G01*
X101880000Y-97610000D02*
X102220000Y-97610000D01*
G75*
G02*
X102360000Y-97750000I0J-140000D01*
G01*
X102360000Y-98030000D01*
G75*
G02*
X102220000Y-98170000I-140000J0D01*
G01*
X101880000Y-98170000D01*
G75*
G02*
X101740000Y-98030000I0J140000D01*
G01*
X101740000Y-97750000D01*
G75*
G02*
X101880000Y-97610000I140000J0D01*
G01*
G37*
%TD*%
%TO.C,C13*%
G36*
G01*
X90210000Y-98170000D02*
X89870000Y-98170000D01*
G75*
G02*
X89730000Y-98030000I0J140000D01*
G01*
X89730000Y-97750000D01*
G75*
G02*
X89870000Y-97610000I140000J0D01*
G01*
X90210000Y-97610000D01*
G75*
G02*
X90350000Y-97750000I0J-140000D01*
G01*
X90350000Y-98030000D01*
G75*
G02*
X90210000Y-98170000I-140000J0D01*
G01*
G37*
G36*
G01*
X90210000Y-99130000D02*
X89870000Y-99130000D01*
G75*
G02*
X89730000Y-98990000I0J140000D01*
G01*
X89730000Y-98710000D01*
G75*
G02*
X89870000Y-98570000I140000J0D01*
G01*
X90210000Y-98570000D01*
G75*
G02*
X90350000Y-98710000I0J-140000D01*
G01*
X90350000Y-98990000D01*
G75*
G02*
X90210000Y-99130000I-140000J0D01*
G01*
G37*
%TD*%
%TO.C,C12*%
G36*
G01*
X100580000Y-103250000D02*
X100920000Y-103250000D01*
G75*
G02*
X101060000Y-103390000I0J-140000D01*
G01*
X101060000Y-103670000D01*
G75*
G02*
X100920000Y-103810000I-140000J0D01*
G01*
X100580000Y-103810000D01*
G75*
G02*
X100440000Y-103670000I0J140000D01*
G01*
X100440000Y-103390000D01*
G75*
G02*
X100580000Y-103250000I140000J0D01*
G01*
G37*
G36*
G01*
X100580000Y-102290000D02*
X100920000Y-102290000D01*
G75*
G02*
X101060000Y-102430000I0J-140000D01*
G01*
X101060000Y-102710000D01*
G75*
G02*
X100920000Y-102850000I-140000J0D01*
G01*
X100580000Y-102850000D01*
G75*
G02*
X100440000Y-102710000I0J140000D01*
G01*
X100440000Y-102430000D01*
G75*
G02*
X100580000Y-102290000I140000J0D01*
G01*
G37*
%TD*%
%TO.C,C11*%
G36*
G01*
X93230000Y-100850000D02*
X93570000Y-100850000D01*
G75*
G02*
X93710000Y-100990000I0J-140000D01*
G01*
X93710000Y-101270000D01*
G75*
G02*
X93570000Y-101410000I-140000J0D01*
G01*
X93230000Y-101410000D01*
G75*
G02*
X93090000Y-101270000I0J140000D01*
G01*
X93090000Y-100990000D01*
G75*
G02*
X93230000Y-100850000I140000J0D01*
G01*
G37*
G36*
G01*
X93230000Y-99890000D02*
X93570000Y-99890000D01*
G75*
G02*
X93710000Y-100030000I0J-140000D01*
G01*
X93710000Y-100310000D01*
G75*
G02*
X93570000Y-100450000I-140000J0D01*
G01*
X93230000Y-100450000D01*
G75*
G02*
X93090000Y-100310000I0J140000D01*
G01*
X93090000Y-100030000D01*
G75*
G02*
X93230000Y-99890000I140000J0D01*
G01*
G37*
%TD*%
%TO.C,C22*%
G36*
G01*
X94765000Y-104580000D02*
X95715000Y-104580000D01*
G75*
G02*
X95965000Y-104830000I0J-250000D01*
G01*
X95965000Y-105330000D01*
G75*
G02*
X95715000Y-105580000I-250000J0D01*
G01*
X94765000Y-105580000D01*
G75*
G02*
X94515000Y-105330000I0J250000D01*
G01*
X94515000Y-104830000D01*
G75*
G02*
X94765000Y-104580000I250000J0D01*
G01*
G37*
G36*
G01*
X94765000Y-102680000D02*
X95715000Y-102680000D01*
G75*
G02*
X95965000Y-102930000I0J-250000D01*
G01*
X95965000Y-103430000D01*
G75*
G02*
X95715000Y-103680000I-250000J0D01*
G01*
X94765000Y-103680000D01*
G75*
G02*
X94515000Y-103430000I0J250000D01*
G01*
X94515000Y-102930000D01*
G75*
G02*
X94765000Y-102680000I250000J0D01*
G01*
G37*
%TD*%
%TO.C,C21*%
G36*
G01*
X99675000Y-95110000D02*
X100625000Y-95110000D01*
G75*
G02*
X100875000Y-95360000I0J-250000D01*
G01*
X100875000Y-95860000D01*
G75*
G02*
X100625000Y-96110000I-250000J0D01*
G01*
X99675000Y-96110000D01*
G75*
G02*
X99425000Y-95860000I0J250000D01*
G01*
X99425000Y-95360000D01*
G75*
G02*
X99675000Y-95110000I250000J0D01*
G01*
G37*
G36*
G01*
X99675000Y-93210000D02*
X100625000Y-93210000D01*
G75*
G02*
X100875000Y-93460000I0J-250000D01*
G01*
X100875000Y-93960000D01*
G75*
G02*
X100625000Y-94210000I-250000J0D01*
G01*
X99675000Y-94210000D01*
G75*
G02*
X99425000Y-93960000I0J250000D01*
G01*
X99425000Y-93460000D01*
G75*
G02*
X99675000Y-93210000I250000J0D01*
G01*
G37*
%TD*%
%TO.C,C18*%
G36*
G01*
X105555000Y-104580000D02*
X106505000Y-104580000D01*
G75*
G02*
X106755000Y-104830000I0J-250000D01*
G01*
X106755000Y-105330000D01*
G75*
G02*
X106505000Y-105580000I-250000J0D01*
G01*
X105555000Y-105580000D01*
G75*
G02*
X105305000Y-105330000I0J250000D01*
G01*
X105305000Y-104830000D01*
G75*
G02*
X105555000Y-104580000I250000J0D01*
G01*
G37*
G36*
G01*
X105555000Y-102680000D02*
X106505000Y-102680000D01*
G75*
G02*
X106755000Y-102930000I0J-250000D01*
G01*
X106755000Y-103430000D01*
G75*
G02*
X106505000Y-103680000I-250000J0D01*
G01*
X105555000Y-103680000D01*
G75*
G02*
X105305000Y-103430000I0J250000D01*
G01*
X105305000Y-102930000D01*
G75*
G02*
X105555000Y-102680000I250000J0D01*
G01*
G37*
%TD*%
%TO.C,C17*%
G36*
G01*
X110485000Y-95110000D02*
X111435000Y-95110000D01*
G75*
G02*
X111685000Y-95360000I0J-250000D01*
G01*
X111685000Y-95860000D01*
G75*
G02*
X111435000Y-96110000I-250000J0D01*
G01*
X110485000Y-96110000D01*
G75*
G02*
X110235000Y-95860000I0J250000D01*
G01*
X110235000Y-95360000D01*
G75*
G02*
X110485000Y-95110000I250000J0D01*
G01*
G37*
G36*
G01*
X110485000Y-93210000D02*
X111435000Y-93210000D01*
G75*
G02*
X111685000Y-93460000I0J-250000D01*
G01*
X111685000Y-93960000D01*
G75*
G02*
X111435000Y-94210000I-250000J0D01*
G01*
X110485000Y-94210000D01*
G75*
G02*
X110235000Y-93960000I0J250000D01*
G01*
X110235000Y-93460000D01*
G75*
G02*
X110485000Y-93210000I250000J0D01*
G01*
G37*
%TD*%
%TO.C,C10*%
G36*
G01*
X88575000Y-103680000D02*
X87625000Y-103680000D01*
G75*
G02*
X87375000Y-103430000I0J250000D01*
G01*
X87375000Y-102930000D01*
G75*
G02*
X87625000Y-102680000I250000J0D01*
G01*
X88575000Y-102680000D01*
G75*
G02*
X88825000Y-102930000I0J-250000D01*
G01*
X88825000Y-103430000D01*
G75*
G02*
X88575000Y-103680000I-250000J0D01*
G01*
G37*
G36*
G01*
X88575000Y-105580000D02*
X87625000Y-105580000D01*
G75*
G02*
X87375000Y-105330000I0J250000D01*
G01*
X87375000Y-104830000D01*
G75*
G02*
X87625000Y-104580000I250000J0D01*
G01*
X88575000Y-104580000D01*
G75*
G02*
X88825000Y-104830000I0J-250000D01*
G01*
X88825000Y-105330000D01*
G75*
G02*
X88575000Y-105580000I-250000J0D01*
G01*
G37*
%TD*%
%TO.C,C9*%
G36*
G01*
X88625000Y-94210000D02*
X87675000Y-94210000D01*
G75*
G02*
X87425000Y-93960000I0J250000D01*
G01*
X87425000Y-93460000D01*
G75*
G02*
X87675000Y-93210000I250000J0D01*
G01*
X88625000Y-93210000D01*
G75*
G02*
X88875000Y-93460000I0J-250000D01*
G01*
X88875000Y-93960000D01*
G75*
G02*
X88625000Y-94210000I-250000J0D01*
G01*
G37*
G36*
G01*
X88625000Y-96110000D02*
X87675000Y-96110000D01*
G75*
G02*
X87425000Y-95860000I0J250000D01*
G01*
X87425000Y-95360000D01*
G75*
G02*
X87675000Y-95110000I250000J0D01*
G01*
X88625000Y-95110000D01*
G75*
G02*
X88875000Y-95360000I0J-250000D01*
G01*
X88875000Y-95860000D01*
G75*
G02*
X88625000Y-96110000I-250000J0D01*
G01*
G37*
%TD*%
D13*
%TO.C,U5*%
X108500000Y-99500000D03*
G36*
G01*
X110000000Y-97745000D02*
X110000000Y-97445000D01*
G75*
G02*
X110150000Y-97295000I150000J0D01*
G01*
X111800000Y-97295000D01*
G75*
G02*
X111950000Y-97445000I0J-150000D01*
G01*
X111950000Y-97745000D01*
G75*
G02*
X111800000Y-97895000I-150000J0D01*
G01*
X110150000Y-97895000D01*
G75*
G02*
X110000000Y-97745000I0J150000D01*
G01*
G37*
G36*
G01*
X110000000Y-99015000D02*
X110000000Y-98715000D01*
G75*
G02*
X110150000Y-98565000I150000J0D01*
G01*
X111800000Y-98565000D01*
G75*
G02*
X111950000Y-98715000I0J-150000D01*
G01*
X111950000Y-99015000D01*
G75*
G02*
X111800000Y-99165000I-150000J0D01*
G01*
X110150000Y-99165000D01*
G75*
G02*
X110000000Y-99015000I0J150000D01*
G01*
G37*
G36*
G01*
X110000000Y-100285000D02*
X110000000Y-99985000D01*
G75*
G02*
X110150000Y-99835000I150000J0D01*
G01*
X111800000Y-99835000D01*
G75*
G02*
X111950000Y-99985000I0J-150000D01*
G01*
X111950000Y-100285000D01*
G75*
G02*
X111800000Y-100435000I-150000J0D01*
G01*
X110150000Y-100435000D01*
G75*
G02*
X110000000Y-100285000I0J150000D01*
G01*
G37*
G36*
G01*
X110000000Y-101555000D02*
X110000000Y-101255000D01*
G75*
G02*
X110150000Y-101105000I150000J0D01*
G01*
X111800000Y-101105000D01*
G75*
G02*
X111950000Y-101255000I0J-150000D01*
G01*
X111950000Y-101555000D01*
G75*
G02*
X111800000Y-101705000I-150000J0D01*
G01*
X110150000Y-101705000D01*
G75*
G02*
X110000000Y-101555000I0J150000D01*
G01*
G37*
G36*
G01*
X105050000Y-101555000D02*
X105050000Y-101255000D01*
G75*
G02*
X105200000Y-101105000I150000J0D01*
G01*
X106850000Y-101105000D01*
G75*
G02*
X107000000Y-101255000I0J-150000D01*
G01*
X107000000Y-101555000D01*
G75*
G02*
X106850000Y-101705000I-150000J0D01*
G01*
X105200000Y-101705000D01*
G75*
G02*
X105050000Y-101555000I0J150000D01*
G01*
G37*
G36*
G01*
X105050000Y-100285000D02*
X105050000Y-99985000D01*
G75*
G02*
X105200000Y-99835000I150000J0D01*
G01*
X106850000Y-99835000D01*
G75*
G02*
X107000000Y-99985000I0J-150000D01*
G01*
X107000000Y-100285000D01*
G75*
G02*
X106850000Y-100435000I-150000J0D01*
G01*
X105200000Y-100435000D01*
G75*
G02*
X105050000Y-100285000I0J150000D01*
G01*
G37*
G36*
G01*
X105050000Y-99015000D02*
X105050000Y-98715000D01*
G75*
G02*
X105200000Y-98565000I150000J0D01*
G01*
X106850000Y-98565000D01*
G75*
G02*
X107000000Y-98715000I0J-150000D01*
G01*
X107000000Y-99015000D01*
G75*
G02*
X106850000Y-99165000I-150000J0D01*
G01*
X105200000Y-99165000D01*
G75*
G02*
X105050000Y-99015000I0J150000D01*
G01*
G37*
G36*
G01*
X105050000Y-97745000D02*
X105050000Y-97445000D01*
G75*
G02*
X105200000Y-97295000I150000J0D01*
G01*
X106850000Y-97295000D01*
G75*
G02*
X107000000Y-97445000I0J-150000D01*
G01*
X107000000Y-97745000D01*
G75*
G02*
X106850000Y-97895000I-150000J0D01*
G01*
X105200000Y-97895000D01*
G75*
G02*
X105050000Y-97745000I0J150000D01*
G01*
G37*
%TD*%
%TO.C,U4*%
G36*
G01*
X94250000Y-97745000D02*
X94250000Y-97445000D01*
G75*
G02*
X94400000Y-97295000I150000J0D01*
G01*
X96050000Y-97295000D01*
G75*
G02*
X96200000Y-97445000I0J-150000D01*
G01*
X96200000Y-97745000D01*
G75*
G02*
X96050000Y-97895000I-150000J0D01*
G01*
X94400000Y-97895000D01*
G75*
G02*
X94250000Y-97745000I0J150000D01*
G01*
G37*
G36*
G01*
X94250000Y-99015000D02*
X94250000Y-98715000D01*
G75*
G02*
X94400000Y-98565000I150000J0D01*
G01*
X96050000Y-98565000D01*
G75*
G02*
X96200000Y-98715000I0J-150000D01*
G01*
X96200000Y-99015000D01*
G75*
G02*
X96050000Y-99165000I-150000J0D01*
G01*
X94400000Y-99165000D01*
G75*
G02*
X94250000Y-99015000I0J150000D01*
G01*
G37*
G36*
G01*
X94250000Y-100285000D02*
X94250000Y-99985000D01*
G75*
G02*
X94400000Y-99835000I150000J0D01*
G01*
X96050000Y-99835000D01*
G75*
G02*
X96200000Y-99985000I0J-150000D01*
G01*
X96200000Y-100285000D01*
G75*
G02*
X96050000Y-100435000I-150000J0D01*
G01*
X94400000Y-100435000D01*
G75*
G02*
X94250000Y-100285000I0J150000D01*
G01*
G37*
G36*
G01*
X94250000Y-101555000D02*
X94250000Y-101255000D01*
G75*
G02*
X94400000Y-101105000I150000J0D01*
G01*
X96050000Y-101105000D01*
G75*
G02*
X96200000Y-101255000I0J-150000D01*
G01*
X96200000Y-101555000D01*
G75*
G02*
X96050000Y-101705000I-150000J0D01*
G01*
X94400000Y-101705000D01*
G75*
G02*
X94250000Y-101555000I0J150000D01*
G01*
G37*
G36*
G01*
X99200000Y-101555000D02*
X99200000Y-101255000D01*
G75*
G02*
X99350000Y-101105000I150000J0D01*
G01*
X101000000Y-101105000D01*
G75*
G02*
X101150000Y-101255000I0J-150000D01*
G01*
X101150000Y-101555000D01*
G75*
G02*
X101000000Y-101705000I-150000J0D01*
G01*
X99350000Y-101705000D01*
G75*
G02*
X99200000Y-101555000I0J150000D01*
G01*
G37*
G36*
G01*
X99200000Y-100285000D02*
X99200000Y-99985000D01*
G75*
G02*
X99350000Y-99835000I150000J0D01*
G01*
X101000000Y-99835000D01*
G75*
G02*
X101150000Y-99985000I0J-150000D01*
G01*
X101150000Y-100285000D01*
G75*
G02*
X101000000Y-100435000I-150000J0D01*
G01*
X99350000Y-100435000D01*
G75*
G02*
X99200000Y-100285000I0J150000D01*
G01*
G37*
G36*
G01*
X99200000Y-99015000D02*
X99200000Y-98715000D01*
G75*
G02*
X99350000Y-98565000I150000J0D01*
G01*
X101000000Y-98565000D01*
G75*
G02*
X101150000Y-98715000I0J-150000D01*
G01*
X101150000Y-99015000D01*
G75*
G02*
X101000000Y-99165000I-150000J0D01*
G01*
X99350000Y-99165000D01*
G75*
G02*
X99200000Y-99015000I0J150000D01*
G01*
G37*
G36*
G01*
X99200000Y-97745000D02*
X99200000Y-97445000D01*
G75*
G02*
X99350000Y-97295000I150000J0D01*
G01*
X101000000Y-97295000D01*
G75*
G02*
X101150000Y-97445000I0J-150000D01*
G01*
X101150000Y-97745000D01*
G75*
G02*
X101000000Y-97895000I-150000J0D01*
G01*
X99350000Y-97895000D01*
G75*
G02*
X99200000Y-97745000I0J150000D01*
G01*
G37*
X97700000Y-99500000D03*
%TD*%
D14*
%TO.C,J4*%
X117460000Y-102040000D03*
X117460000Y-96960000D03*
X122540000Y-96960000D03*
X122540000Y-102040000D03*
D15*
X120000000Y-99500000D03*
%TD*%
D16*
%TO.C,J3*%
X73900000Y-96945000D03*
X73900000Y-99485000D03*
D11*
X73900000Y-102025000D03*
%TD*%
%TO.C,U3*%
G36*
G01*
X87150000Y-97745000D02*
X87150000Y-97445000D01*
G75*
G02*
X87300000Y-97295000I150000J0D01*
G01*
X88950000Y-97295000D01*
G75*
G02*
X89100000Y-97445000I0J-150000D01*
G01*
X89100000Y-97745000D01*
G75*
G02*
X88950000Y-97895000I-150000J0D01*
G01*
X87300000Y-97895000D01*
G75*
G02*
X87150000Y-97745000I0J150000D01*
G01*
G37*
G36*
G01*
X87150000Y-99015000D02*
X87150000Y-98715000D01*
G75*
G02*
X87300000Y-98565000I150000J0D01*
G01*
X88950000Y-98565000D01*
G75*
G02*
X89100000Y-98715000I0J-150000D01*
G01*
X89100000Y-99015000D01*
G75*
G02*
X88950000Y-99165000I-150000J0D01*
G01*
X87300000Y-99165000D01*
G75*
G02*
X87150000Y-99015000I0J150000D01*
G01*
G37*
G36*
G01*
X87150000Y-100285000D02*
X87150000Y-99985000D01*
G75*
G02*
X87300000Y-99835000I150000J0D01*
G01*
X88950000Y-99835000D01*
G75*
G02*
X89100000Y-99985000I0J-150000D01*
G01*
X89100000Y-100285000D01*
G75*
G02*
X88950000Y-100435000I-150000J0D01*
G01*
X87300000Y-100435000D01*
G75*
G02*
X87150000Y-100285000I0J150000D01*
G01*
G37*
G36*
G01*
X87150000Y-101555000D02*
X87150000Y-101255000D01*
G75*
G02*
X87300000Y-101105000I150000J0D01*
G01*
X88950000Y-101105000D01*
G75*
G02*
X89100000Y-101255000I0J-150000D01*
G01*
X89100000Y-101555000D01*
G75*
G02*
X88950000Y-101705000I-150000J0D01*
G01*
X87300000Y-101705000D01*
G75*
G02*
X87150000Y-101555000I0J150000D01*
G01*
G37*
G36*
G01*
X82200000Y-101555000D02*
X82200000Y-101255000D01*
G75*
G02*
X82350000Y-101105000I150000J0D01*
G01*
X84000000Y-101105000D01*
G75*
G02*
X84150000Y-101255000I0J-150000D01*
G01*
X84150000Y-101555000D01*
G75*
G02*
X84000000Y-101705000I-150000J0D01*
G01*
X82350000Y-101705000D01*
G75*
G02*
X82200000Y-101555000I0J150000D01*
G01*
G37*
G36*
G01*
X82200000Y-100285000D02*
X82200000Y-99985000D01*
G75*
G02*
X82350000Y-99835000I150000J0D01*
G01*
X84000000Y-99835000D01*
G75*
G02*
X84150000Y-99985000I0J-150000D01*
G01*
X84150000Y-100285000D01*
G75*
G02*
X84000000Y-100435000I-150000J0D01*
G01*
X82350000Y-100435000D01*
G75*
G02*
X82200000Y-100285000I0J150000D01*
G01*
G37*
G36*
G01*
X82200000Y-99015000D02*
X82200000Y-98715000D01*
G75*
G02*
X82350000Y-98565000I150000J0D01*
G01*
X84000000Y-98565000D01*
G75*
G02*
X84150000Y-98715000I0J-150000D01*
G01*
X84150000Y-99015000D01*
G75*
G02*
X84000000Y-99165000I-150000J0D01*
G01*
X82350000Y-99165000D01*
G75*
G02*
X82200000Y-99015000I0J150000D01*
G01*
G37*
G36*
G01*
X82200000Y-97745000D02*
X82200000Y-97445000D01*
G75*
G02*
X82350000Y-97295000I150000J0D01*
G01*
X84000000Y-97295000D01*
G75*
G02*
X84150000Y-97445000I0J-150000D01*
G01*
X84150000Y-97745000D01*
G75*
G02*
X84000000Y-97895000I-150000J0D01*
G01*
X82350000Y-97895000D01*
G75*
G02*
X82200000Y-97745000I0J150000D01*
G01*
G37*
%TD*%
M02*
