M48
; DRILL file {KiCad (6.0.4)} date Thu Jul 14 17:54:31 2022
; FORMAT={-:-/ absolute / metric / decimal}
; #@! TF.CreationDate,2022-07-14T17:54:31+08:00
; #@! TF.GenerationSoftware,Kicad,Pcbnew,(6.0.4)
; #@! TF.FileFunction,Plated,1,4,PTH
FMAT,2
METRIC
; #@! TA.AperFunction,Plated,PTH,ViaDrill
T1C0.200
; #@! TA.AperFunction,Plated,PTH,ViaDrill
T2C0.250
; #@! TA.AperFunction,Plated,PTH,ViaDrill
T3C0.300
; #@! TA.AperFunction,Plated,PTH,ComponentDrill
T4C0.400
; #@! TA.AperFunction,Plated,PTH,ComponentDrill
T5C0.500
; #@! TA.AperFunction,Plated,PTH,ComponentDrill
T6C0.600
; #@! TA.AperFunction,Plated,PTH,ComponentDrill
T7C1.000
; #@! TA.AperFunction,Plated,PTH,ComponentDrill
T8C2.200
; #@! TA.AperFunction,Plated,PTH,ComponentDrill
T9C3.200
%
G90
G05
T1
X132.955Y-62.0
X132.955Y-67.0
X132.955Y-70.0
X132.955Y-82.0
X132.955Y-87.0
X132.955Y-90.0
X132.955Y-102.0
X132.955Y-107.0
X132.955Y-110.0
X132.955Y-122.0
X132.955Y-127.0
X132.955Y-61.0
X132.955Y-63.0
X132.955Y-64.0
X132.955Y-66.0
X132.955Y-68.0
X132.955Y-69.0
X132.955Y-71.0
X132.955Y-72.0
X132.955Y-73.0
X132.955Y-75.0
X132.955Y-76.0
X132.955Y-77.0
X132.955Y-78.0
X132.955Y-79.0
X132.955Y-80.0
X132.955Y-81.0
X132.955Y-83.0
X132.955Y-84.0
X132.955Y-86.0
X132.955Y-88.0
X132.955Y-89.0
X132.955Y-91.0
X132.955Y-92.0
X132.955Y-93.0
X132.955Y-95.0
X132.955Y-96.0
X132.955Y-97.0
X132.955Y-98.0
X132.955Y-99.0
X132.955Y-100.0
X132.955Y-101.0
X132.955Y-103.0
X132.955Y-104.0
X132.955Y-106.0
X132.955Y-108.0
X132.955Y-109.0
X132.955Y-111.0
X132.955Y-112.0
X132.955Y-113.0
X132.955Y-115.0
X132.955Y-116.0
X132.955Y-117.0
X132.955Y-118.0
X132.955Y-119.0
X132.955Y-120.0
X132.955Y-121.0
X132.955Y-123.0
X132.955Y-124.0
X132.955Y-126.0
X132.955Y-128.0
X132.955Y-129.0
X132.955Y-65.0
X132.955Y-74.0
X132.955Y-85.0
X132.955Y-94.0
X132.955Y-105.0
X132.955Y-114.0
X132.955Y-125.0
X133.125Y-129.98
X133.215Y-59.89
X133.455Y-88.5
X133.455Y-89.5
X133.455Y-90.5
X133.455Y-91.5
X133.455Y-92.5
X133.455Y-93.5
X133.455Y-94.5
X133.455Y-95.5
X133.455Y-96.5
X133.455Y-97.5
X133.455Y-98.5
X133.455Y-99.5
X133.455Y-100.5
X133.455Y-101.5
X133.775Y-58.87
X133.805Y-131.05
X133.955Y-88.0
X133.955Y-89.0
X133.955Y-90.0
X133.955Y-100.0
X133.955Y-101.0
X133.955Y-102.0
X134.355Y-121.2
X134.355Y-123.1
X134.455Y-100.5
X134.455Y-101.5
X134.68Y-96.8
X134.805Y-131.71
X134.845Y-58.31
X134.955Y-101.0
X134.955Y-102.0
X135.33Y-96.8
X135.455Y-101.5
X135.955Y-58.0
X135.955Y-88.0
X135.955Y-89.0
X135.955Y-90.0
X135.955Y-102.0
X135.955Y-132.0
X135.98Y-93.2
X135.98Y-96.8
X136.455Y-88.5
X136.455Y-101.5
X136.625Y-99.0
X136.855Y-62.0
X136.955Y-58.0
X136.955Y-102.0
X136.955Y-132.0
X137.28Y-99.0
X137.355Y-61.5
X137.455Y-88.5
X137.455Y-93.5
X137.455Y-94.5
X137.455Y-95.5
X137.455Y-96.5
X137.455Y-101.5
X137.855Y-61.0
X137.955Y-58.0
X137.955Y-88.0
X137.955Y-89.0
X137.955Y-90.0
X137.955Y-95.0
X137.955Y-102.0
X137.955Y-132.0
X138.055Y-120.4
X138.055Y-121.0
X138.055Y-121.6
X138.055Y-122.2
X138.055Y-122.8
X138.055Y-123.4
X138.055Y-124.0
X138.355Y-60.5
X138.455Y-88.5
X138.455Y-101.5
X138.655Y-124.0
X138.755Y-120.4
X138.855Y-60.0
X138.955Y-58.0
X138.955Y-88.0
X138.955Y-89.0
X138.955Y-90.0
X138.955Y-95.0
X138.955Y-100.0
X138.955Y-101.0
X138.955Y-102.0
X138.955Y-132.0
X139.355Y-59.5
X139.355Y-124.0
X139.455Y-88.5
X139.455Y-101.5
X139.455Y-120.4
X139.905Y-64.6
X139.955Y-88.0
X139.955Y-89.0
X139.955Y-90.0
X139.955Y-92.0
X139.955Y-93.0
X139.955Y-94.0
X139.955Y-95.0
X139.955Y-96.0
X139.955Y-97.0
X139.955Y-100.0
X139.955Y-101.0
X139.955Y-102.0
X139.955Y-132.0
X139.955Y-58.0
X140.155Y-66.4
X140.455Y-88.5
X140.455Y-101.5
X140.645Y-66.996
X140.728Y-63.777
X140.955Y-58.0
X140.955Y-88.0
X140.955Y-89.0
X140.955Y-101.0
X140.955Y-102.0
X140.955Y-132.0
X141.055Y-126.2
X141.225Y-63.28
X141.355Y-67.6
X141.455Y-88.5
X141.455Y-101.5
X141.845Y-62.82
X141.955Y-58.0
X141.955Y-88.0
X141.955Y-89.0
X141.955Y-101.0
X141.955Y-102.0
X141.955Y-132.0
X142.005Y-65.475
X142.155Y-61.8
X142.405Y-62.35
X142.655Y-90.5
X142.655Y-91.0
X142.655Y-91.5
X142.73Y-64.75
X142.73Y-66.192
X142.955Y-58.0
X142.955Y-92.5
X142.955Y-93.5
X142.955Y-94.5
X142.955Y-95.5
X142.955Y-96.5
X142.955Y-97.5
X142.955Y-98.5
X142.955Y-99.5
X142.955Y-132.0
X143.455Y-93.0
X143.455Y-94.0
X143.455Y-95.0
X143.455Y-96.0
X143.455Y-97.0
X143.455Y-98.0
X143.455Y-99.0
X143.955Y-58.0
X143.955Y-132.0
X144.775Y-64.14
X144.855Y-117.52
X144.955Y-58.0
X144.955Y-132.0
X145.155Y-122.2
X145.155Y-128.7
X145.955Y-58.0
X145.955Y-132.0
X146.707Y-119.2
X146.755Y-128.5
X146.955Y-58.0
X146.955Y-132.0
X147.755Y-119.5
X147.955Y-58.0
X147.955Y-132.0
X148.955Y-58.0
X148.955Y-132.0
X149.645Y-120.85
X149.868Y-88.674
X149.955Y-58.0
X149.955Y-132.0
X150.055Y-120.3
X150.075Y-127.49
X150.355Y-123.9
X150.355Y-124.5
X150.355Y-125.1
X150.431Y-102.684
X150.655Y-120.3
X150.655Y-128.7
X150.729Y-86.596
X150.955Y-58.0
X150.955Y-79.0
X150.955Y-132.0
X151.255Y-120.3
X151.292Y-104.762
X151.855Y-120.3
X151.855Y-123.9
X151.855Y-124.5
X151.855Y-125.1
X151.955Y-78.0
X151.955Y-93.0
X151.955Y-94.0
X151.955Y-95.0
X151.955Y-96.0
X151.955Y-97.0
X151.955Y-132.0
X151.955Y-58.0
X152.455Y-120.3
X152.655Y-128.01
X152.955Y-58.0
X152.955Y-77.0
X152.955Y-132.0
X153.055Y-120.3
X153.455Y-123.9
X153.455Y-124.5
X153.455Y-125.1
X153.655Y-120.3
X153.955Y-58.0
X153.955Y-76.0
X153.955Y-132.0
X154.255Y-120.3
X154.955Y-58.0
X154.955Y-75.0
X154.955Y-123.9
X154.955Y-124.5
X154.955Y-125.1
X154.955Y-132.0
X155.955Y-58.0
X155.955Y-122.7
X155.955Y-123.3
X155.955Y-123.9
X155.955Y-124.5
X155.955Y-125.1
X155.955Y-125.7
X155.955Y-129.3
X155.955Y-129.9
X155.955Y-130.5
X155.955Y-131.1
X156.955Y-58.0
X157.11Y-119.6
X157.955Y-58.0
X158.255Y-118.4
X158.955Y-58.0
X159.455Y-118.4
X159.86Y-123.68
X159.86Y-124.4
X159.86Y-125.1
X159.955Y-58.0
X160.238Y-76.292
X160.555Y-118.4
X160.555Y-130.8
X160.57Y-124.42
X160.955Y-58.0
X161.255Y-130.8
X161.596Y-114.271
X161.717Y-119.6
X161.955Y-58.0
X161.955Y-130.8
X162.13Y-126.69
X162.316Y-75.431
X162.61Y-126.69
X162.655Y-130.8
X162.855Y-59.612
X162.873Y-119.6
X162.955Y-58.0
X163.08Y-126.69
X163.255Y-62.495
X163.355Y-130.8
X163.674Y-115.132
X163.955Y-97.0
X163.955Y-58.0
X164.055Y-119.6
X164.355Y-124.42
X164.955Y-58.0
X164.955Y-97.0
X165.555Y-62.5
X165.575Y-131.91
X165.828Y-61.387
X165.955Y-58.0
X165.955Y-97.0
X166.575Y-131.91
X166.955Y-58.0
X166.955Y-69.1
X167.525Y-93.095
X167.525Y-94.365
X167.575Y-131.91
X167.655Y-124.5
X167.955Y-58.0
X167.955Y-77.0
X167.955Y-99.0
X167.955Y-113.0
X167.955Y-120.0
X168.04Y-60.547
X168.255Y-123.9
X168.575Y-131.91
X168.818Y-88.9
X168.955Y-58.0
X168.955Y-77.0
X168.955Y-99.0
X168.955Y-113.0
X168.955Y-120.0
X169.155Y-123.9
X169.31Y-60.547
X169.575Y-131.91
X169.755Y-123.9
X169.955Y-58.0
X169.955Y-64.0
X169.955Y-77.0
X169.955Y-99.0
X169.955Y-113.0
X169.955Y-120.0
X170.355Y-123.9
X170.575Y-131.91
X170.58Y-60.547
X170.955Y-58.0
X170.955Y-77.0
X170.955Y-99.0
X170.955Y-113.0
X170.955Y-120.0
X170.955Y-123.9
X171.575Y-131.91
X171.85Y-60.547
X171.855Y-123.9
X171.955Y-58.0
X171.955Y-77.0
X171.955Y-99.0
X171.955Y-113.0
X171.955Y-120.0
X172.455Y-124.513
X172.475Y-93.095
X172.475Y-94.365
X172.475Y-95.635
X172.575Y-131.91
X172.955Y-58.0
X173.555Y-69.9
X173.575Y-131.91
X173.855Y-122.8
X173.855Y-123.76
X173.955Y-58.0
X174.575Y-131.91
X174.955Y-58.0
X175.955Y-58.0
X176.03Y-129.37
X176.155Y-122.3
X176.326Y-74.868
X176.455Y-130.6
X176.69Y-124.43
X176.935Y-58.76
X177.255Y-131.4
X177.684Y-114.569
X177.685Y-59.75
X177.77Y-122.11
X177.77Y-124.485
X177.955Y-61.0
X177.955Y-62.0
X177.955Y-63.0
X178.404Y-75.729
X178.405Y-63.875
X178.44Y-131.68
X178.71Y-122.1
X178.71Y-124.53
X179.08Y-127.59
X179.08Y-129.14
X179.08Y-64.625
X179.44Y-128.37
X179.65Y-124.54
X179.762Y-113.708
X179.83Y-127.59
X179.83Y-129.14
X179.955Y-65.175
X180.955Y-65.5
X181.53Y-124.57
X181.955Y-65.5
X182.0Y-69.23
X182.225Y-122.76
X182.955Y-65.5
X183.955Y-65.5
X183.955Y-132.0
X184.178Y-123.02
X184.188Y-124.69
X184.475Y-102.4
X184.475Y-102.9
X184.475Y-103.4
X184.737Y-71.023
X184.737Y-70.0
X184.737Y-65.943
X184.737Y-67.213
X184.737Y-68.483
X184.737Y-72.293
X184.737Y-74.833
X184.737Y-76.103
X184.737Y-77.373
X184.737Y-81.183
X184.737Y-82.453
X184.737Y-83.723
X184.737Y-84.993
X184.955Y-132.0
X185.055Y-102.4
X185.055Y-102.9
X185.055Y-103.4
X185.455Y-65.5
X185.646Y-102.405
X185.646Y-102.905
X185.646Y-103.405
X185.695Y-130.99
X185.955Y-132.0
X186.053Y-122.07
X186.063Y-125.64
X186.455Y-65.5
X186.955Y-132.0
X187.455Y-65.5
X187.955Y-93.0
X187.955Y-94.0
X187.955Y-95.0
X187.955Y-96.0
X187.955Y-97.0
X187.955Y-132.0
X188.695Y-130.99
X188.708Y-85.238
X188.955Y-65.5
X188.955Y-118.375
X188.955Y-132.0
X189.271Y-103.404
X189.569Y-87.316
X189.955Y-65.5
X189.955Y-132.0
X190.132Y-101.326
X190.835Y-65.5
X190.955Y-132.0
X191.215Y-119.47
X191.215Y-121.67
X191.215Y-123.87
X191.255Y-116.17
X191.255Y-117.27
X191.835Y-65.5
X191.955Y-126.0
X191.955Y-132.0
X192.835Y-65.5
X192.955Y-126.0
X192.955Y-128.0
X192.955Y-131.0
X192.955Y-132.0
X193.205Y-71.05
X193.835Y-65.5
X193.955Y-126.0
X193.955Y-128.0
X193.955Y-131.0
X193.955Y-132.0
X194.835Y-65.5
X194.955Y-93.0
X194.955Y-94.0
X194.955Y-95.0
X194.955Y-96.0
X194.955Y-97.0
X194.955Y-126.0
X194.955Y-132.0
X195.215Y-129.58
X195.225Y-69.03
X195.835Y-65.5
X195.955Y-126.0
X195.955Y-132.0
X196.07Y-131.23
X196.835Y-65.5
X196.955Y-126.0
X196.955Y-132.0
X197.835Y-65.5
X197.955Y-126.0
X197.955Y-132.0
X198.835Y-65.5
X198.955Y-126.0
X198.955Y-132.0
X199.255Y-130.645
X199.835Y-65.5
X199.955Y-132.0
X200.835Y-65.5
X200.955Y-132.0
X201.055Y-115.8
X201.055Y-116.7
X201.055Y-117.7
X201.055Y-118.7
X201.055Y-119.7
X201.055Y-120.7
X201.835Y-65.5
X201.955Y-132.0
X202.255Y-115.8
X202.255Y-116.7
X202.255Y-117.7
X202.255Y-118.7
X202.255Y-119.7
X202.255Y-120.7
X202.263Y-78.643
X202.263Y-65.943
X202.263Y-69.753
X202.263Y-71.023
X202.263Y-73.563
X202.263Y-76.103
X202.263Y-77.373
X202.263Y-81.183
X202.263Y-82.453
X202.263Y-83.723
X202.263Y-84.993
X202.263Y-68.483
X202.263Y-79.913
X202.263Y-72.293
X202.263Y-74.833
X202.835Y-65.5
X202.955Y-132.0
X203.835Y-65.49
X203.955Y-132.0
X204.885Y-65.51
X205.04Y-72.7
X205.105Y-131.8
X206.035Y-66.07
X206.115Y-131.22
X206.725Y-67.01
X206.735Y-130.25
X206.955Y-70.0
X206.955Y-82.0
X206.955Y-87.0
X206.955Y-90.0
X206.955Y-102.0
X206.955Y-107.0
X206.955Y-110.0
X206.955Y-122.0
X206.955Y-127.0
X206.955Y-68.0
X206.955Y-69.0
X206.955Y-71.0
X206.955Y-72.0
X206.955Y-73.0
X206.955Y-75.0
X206.955Y-76.0
X206.955Y-77.0
X206.955Y-78.0
X206.955Y-79.0
X206.955Y-80.0
X206.955Y-81.0
X206.955Y-83.0
X206.955Y-84.0
X206.955Y-86.0
X206.955Y-88.0
X206.955Y-89.0
X206.955Y-91.0
X206.955Y-92.0
X206.955Y-93.0
X206.955Y-95.0
X206.955Y-96.0
X206.955Y-97.0
X206.955Y-98.0
X206.955Y-99.0
X206.955Y-100.0
X206.955Y-101.0
X206.955Y-103.0
X206.955Y-104.0
X206.955Y-106.0
X206.955Y-108.0
X206.955Y-109.0
X206.955Y-111.0
X206.955Y-112.0
X206.955Y-113.0
X206.955Y-115.0
X206.955Y-116.0
X206.955Y-117.0
X206.955Y-118.0
X206.955Y-119.0
X206.955Y-120.0
X206.955Y-121.0
X206.955Y-123.0
X206.955Y-124.0
X206.955Y-126.0
X206.955Y-128.0
X206.955Y-129.0
X206.955Y-74.0
X206.955Y-85.0
X206.955Y-94.0
X206.955Y-105.0
X206.955Y-114.0
X206.955Y-125.0
T2
X144.577Y-67.1
X144.966Y-66.711
X144.966Y-67.489
X145.355Y-67.1
T3
X147.845Y-72.62
X148.295Y-73.07
X148.33Y-72.135
X148.764Y-73.539
X148.779Y-72.584
X149.249Y-73.054
X149.33Y-71.135
X149.825Y-71.63
X149.825Y-70.64
X150.32Y-72.125
X150.32Y-71.135
X150.815Y-71.63
X201.875Y-67.213
X202.625Y-67.213
T4
X134.305Y-129.0
X134.788Y-127.833
X134.788Y-130.167
X135.955Y-127.35
X135.955Y-130.65
X137.122Y-127.833
X137.122Y-130.167
X137.605Y-129.0
X202.305Y-129.0
X202.788Y-127.833
X202.788Y-130.167
X203.955Y-127.35
X203.955Y-130.65
X205.122Y-127.833
X205.122Y-130.167
X205.605Y-129.0
T5
X153.6Y-95.0
X154.303Y-93.303
X154.303Y-96.697
X156.0Y-92.6
X156.0Y-97.4
X157.697Y-93.303
X157.697Y-96.697
X158.4Y-95.0
X167.6Y-81.0
X167.6Y-109.0
X168.303Y-79.303
X168.303Y-82.697
X168.303Y-107.303
X168.303Y-110.697
X170.0Y-78.6
X170.0Y-83.4
X170.0Y-106.6
X170.0Y-111.4
X171.697Y-79.303
X171.697Y-82.697
X171.697Y-107.303
X171.697Y-110.697
X172.4Y-81.0
X172.4Y-109.0
X181.6Y-95.0
X182.303Y-93.303
X182.303Y-96.697
X184.0Y-92.6
X184.0Y-97.4
X185.697Y-93.303
X185.697Y-96.697
X186.4Y-95.0
T7
X200.655Y-92.74
X200.655Y-95.28
X200.655Y-97.82
X200.655Y-100.36
X200.655Y-102.9
X200.655Y-105.44
T8
X135.955Y-129.0
X203.955Y-129.0
T9
X156.0Y-95.0
X170.0Y-81.0
X170.0Y-109.0
X184.0Y-95.0
T6
G00X165.73Y-125.545
M15
G01X165.73Y-126.645
M16
G05
G00X165.73Y-129.975
M15
G01X165.73Y-130.575
M16
G05
G00X174.37Y-125.545
M15
G01X174.37Y-126.645
M16
G05
G00X174.37Y-129.975
M15
G01X174.37Y-130.575
M16
G05
T0
M30
