%TF.GenerationSoftware,KiCad,Pcbnew,(6.0.0)*%
%TF.CreationDate,2022-03-30T16:35:39+08:00*%
%TF.ProjectId,USB2_Jtag_Bridge,55534232-5f4a-4746-9167-5f4272696467,rev?*%
%TF.SameCoordinates,Original*%
%TF.FileFunction,Soldermask,Top*%
%TF.FilePolarity,Negative*%
%FSLAX46Y46*%
G04 Gerber Fmt 4.6, Leading zero omitted, Abs format (unit mm)*
G04 Created by KiCad (PCBNEW (6.0.0)) date 2022-03-30 16:35:39*
%MOMM*%
%LPD*%
G01*
G04 APERTURE LIST*
G04 Aperture macros list*
%AMRoundRect*
0 Rectangle with rounded corners*
0 $1 Rounding radius*
0 $2 $3 $4 $5 $6 $7 $8 $9 X,Y pos of 4 corners*
0 Add a 4 corners polygon primitive as box body*
4,1,4,$2,$3,$4,$5,$6,$7,$8,$9,$2,$3,0*
0 Add four circle primitives for the rounded corners*
1,1,$1+$1,$2,$3*
1,1,$1+$1,$4,$5*
1,1,$1+$1,$6,$7*
1,1,$1+$1,$8,$9*
0 Add four rect primitives between the rounded corners*
20,1,$1+$1,$2,$3,$4,$5,0*
20,1,$1+$1,$4,$5,$6,$7,0*
20,1,$1+$1,$6,$7,$8,$9,0*
20,1,$1+$1,$8,$9,$2,$3,0*%
G04 Aperture macros list end*
%ADD10R,0.800000X0.900000*%
%ADD11RoundRect,0.140000X-0.140000X-0.170000X0.140000X-0.170000X0.140000X0.170000X-0.140000X0.170000X0*%
%ADD12RoundRect,0.135000X0.135000X0.185000X-0.135000X0.185000X-0.135000X-0.185000X0.135000X-0.185000X0*%
%ADD13C,0.650000*%
%ADD14R,0.300000X1.150000*%
%ADD15O,1.000000X2.100000*%
%ADD16O,1.000000X1.600000*%
%ADD17R,2.700000X0.800000*%
%ADD18R,1.700000X1.700000*%
%ADD19O,1.700000X1.700000*%
%ADD20RoundRect,0.147500X0.147500X0.172500X-0.147500X0.172500X-0.147500X-0.172500X0.147500X-0.172500X0*%
%ADD21RoundRect,0.135000X-0.135000X-0.185000X0.135000X-0.185000X0.135000X0.185000X-0.135000X0.185000X0*%
%ADD22RoundRect,0.140000X0.140000X0.170000X-0.140000X0.170000X-0.140000X-0.170000X0.140000X-0.170000X0*%
%ADD23RoundRect,0.150000X-0.150000X0.512500X-0.150000X-0.512500X0.150000X-0.512500X0.150000X0.512500X0*%
%ADD24RoundRect,0.125000X0.125000X-0.537500X0.125000X0.537500X-0.125000X0.537500X-0.125000X-0.537500X0*%
%ADD25RoundRect,0.062500X-0.062500X0.412500X-0.062500X-0.412500X0.062500X-0.412500X0.062500X0.412500X0*%
%ADD26RoundRect,0.062500X-0.412500X0.062500X-0.412500X-0.062500X0.412500X-0.062500X0.412500X0.062500X0*%
%ADD27R,6.200000X6.200000*%
G04 APERTURE END LIST*
D10*
%TO.C,Y1*%
X149430000Y-75390000D03*
X149430000Y-73990000D03*
X148330000Y-73990000D03*
X148330000Y-75390000D03*
%TD*%
D11*
%TO.C,C1*%
X147750000Y-82850000D03*
X148710000Y-82850000D03*
%TD*%
D12*
%TO.C,R5*%
X148740000Y-77870000D03*
X147720000Y-77870000D03*
%TD*%
D13*
%TO.C,J1*%
X144860000Y-71650001D03*
X139080000Y-71650001D03*
D14*
X145320000Y-72715001D03*
X144520000Y-72715001D03*
X143220000Y-72715001D03*
X142220000Y-72715001D03*
X141720000Y-72715001D03*
X140720000Y-72715001D03*
X139420000Y-72715001D03*
X138620000Y-72715001D03*
X138920000Y-72715001D03*
X139720000Y-72715001D03*
X140220000Y-72715001D03*
X141220000Y-72715001D03*
X142720000Y-72715001D03*
X143720000Y-72715001D03*
X144220000Y-72715001D03*
X145020000Y-72715001D03*
D15*
X137650000Y-72150001D03*
D16*
X137650000Y-67970001D03*
X146290000Y-67970001D03*
D15*
X146290000Y-72150001D03*
%TD*%
D11*
%TO.C,C3*%
X147750000Y-76780000D03*
X148710000Y-76780000D03*
%TD*%
D17*
%TO.C,L1*%
X134980000Y-73030000D03*
X134980000Y-75230000D03*
%TD*%
D11*
%TO.C,C16*%
X135440000Y-76866569D03*
X136400000Y-76866569D03*
%TD*%
D12*
%TO.C,R12*%
X136410000Y-80800000D03*
X135390000Y-80800000D03*
%TD*%
D11*
%TO.C,C2*%
X147750000Y-83770000D03*
X148710000Y-83770000D03*
%TD*%
D18*
%TO.C,J2*%
X134265000Y-88795000D03*
D19*
X134265000Y-86255000D03*
X136805000Y-88795000D03*
X136805000Y-86255000D03*
X139345000Y-88795000D03*
X139345000Y-86255000D03*
X141885000Y-88795000D03*
X141885000Y-86255000D03*
X144425000Y-88795000D03*
X144425000Y-86255000D03*
X146965000Y-88795000D03*
X146965000Y-86255000D03*
X149505000Y-88795000D03*
X149505000Y-86255000D03*
%TD*%
D20*
%TO.C,D1*%
X136387500Y-82010000D03*
X135417500Y-82010000D03*
%TD*%
D12*
%TO.C,R8*%
X148740000Y-79740000D03*
X147720000Y-79740000D03*
%TD*%
D21*
%TO.C,R14*%
X135390000Y-78920000D03*
X136410000Y-78920000D03*
%TD*%
D22*
%TO.C,C4*%
X148710000Y-72460000D03*
X147750000Y-72460000D03*
%TD*%
D23*
%TO.C,U2*%
X149970000Y-68692500D03*
X149020000Y-68692500D03*
X148070000Y-68692500D03*
X148070000Y-70967500D03*
X149020000Y-70967500D03*
X149970000Y-70967500D03*
%TD*%
D11*
%TO.C,C7*%
X147750000Y-81820000D03*
X148710000Y-81820000D03*
%TD*%
D21*
%TO.C,R13*%
X135390000Y-79850000D03*
X136410000Y-79850000D03*
%TD*%
D24*
%TO.C,U3*%
X133975000Y-70967500D03*
X134625000Y-70967500D03*
X135275000Y-70967500D03*
X135925000Y-70967500D03*
X135925000Y-68692500D03*
X135275000Y-68692500D03*
X134625000Y-68692500D03*
X133975000Y-68692500D03*
%TD*%
D12*
%TO.C,R7*%
X148740000Y-78810000D03*
X147720000Y-78810000D03*
%TD*%
D25*
%TO.C,U1*%
X144720000Y-75680000D03*
X144220000Y-75680000D03*
X143720000Y-75680000D03*
X143220000Y-75680000D03*
X142720000Y-75680000D03*
X142220000Y-75680000D03*
X141720000Y-75680000D03*
X141220000Y-75680000D03*
X140720000Y-75680000D03*
X140220000Y-75680000D03*
X139720000Y-75680000D03*
X139220000Y-75680000D03*
D26*
X138095000Y-76805000D03*
X138095000Y-77305000D03*
X138095000Y-77805000D03*
X138095000Y-78305000D03*
X138095000Y-78805000D03*
X138095000Y-79305000D03*
X138095000Y-79805000D03*
X138095000Y-80305000D03*
X138095000Y-80805000D03*
X138095000Y-81305000D03*
X138095000Y-81805000D03*
X138095000Y-82305000D03*
D25*
X139220000Y-83430000D03*
X139720000Y-83430000D03*
X140220000Y-83430000D03*
X140720000Y-83430000D03*
X141220000Y-83430000D03*
X141720000Y-83430000D03*
X142220000Y-83430000D03*
X142720000Y-83430000D03*
X143220000Y-83430000D03*
X143720000Y-83430000D03*
X144220000Y-83430000D03*
X144720000Y-83430000D03*
D26*
X145845000Y-82305000D03*
X145845000Y-81805000D03*
X145845000Y-81305000D03*
X145845000Y-80805000D03*
X145845000Y-80305000D03*
X145845000Y-79805000D03*
X145845000Y-79305000D03*
X145845000Y-78805000D03*
X145845000Y-78305000D03*
X145845000Y-77805000D03*
X145845000Y-77305000D03*
X145845000Y-76805000D03*
D27*
X141970000Y-79555000D03*
%TD*%
D21*
%TO.C,R6*%
X147720000Y-80800000D03*
X148740000Y-80800000D03*
%TD*%
%TO.C,R9*%
X135390000Y-83110000D03*
X136410000Y-83110000D03*
%TD*%
D11*
%TO.C,C17*%
X135440000Y-77796568D03*
X136400000Y-77796568D03*
%TD*%
M02*
