%TF.GenerationSoftware,KiCad,Pcbnew,(6.0.0)*%
%TF.CreationDate,2022-03-30T16:35:39+08:00*%
%TF.ProjectId,USB2_Jtag_Bridge,55534232-5f4a-4746-9167-5f4272696467,rev?*%
%TF.SameCoordinates,Original*%
%TF.FileFunction,Copper,L3,Inr*%
%TF.FilePolarity,Positive*%
%FSLAX46Y46*%
G04 Gerber Fmt 4.6, Leading zero omitted, Abs format (unit mm)*
G04 Created by KiCad (PCBNEW (6.0.0)) date 2022-03-30 16:35:39*
%MOMM*%
%LPD*%
G01*
G04 APERTURE LIST*
%TA.AperFunction,ComponentPad*%
%ADD10O,1.000000X2.100000*%
%TD*%
%TA.AperFunction,ComponentPad*%
%ADD11O,1.000000X1.600000*%
%TD*%
%TA.AperFunction,ComponentPad*%
%ADD12R,1.700000X1.700000*%
%TD*%
%TA.AperFunction,ComponentPad*%
%ADD13O,1.700000X1.700000*%
%TD*%
%TA.AperFunction,ViaPad*%
%ADD14C,0.450000*%
%TD*%
%TA.AperFunction,Conductor*%
%ADD15C,0.300000*%
%TD*%
%TA.AperFunction,Conductor*%
%ADD16C,0.250000*%
%TD*%
%TA.AperFunction,Conductor*%
%ADD17C,0.200000*%
%TD*%
G04 APERTURE END LIST*
D10*
%TO.N,VSS*%
%TO.C,J1*%
X137650000Y-72150001D03*
D11*
X137650000Y-67970001D03*
X146290000Y-67970001D03*
D10*
X146290000Y-72150001D03*
%TD*%
D12*
%TO.N,unconnected-(J2-Pad1)*%
%TO.C,J2*%
X134265000Y-88795000D03*
D13*
%TO.N,Net-(J2-Pad2)*%
X134265000Y-86255000D03*
%TO.N,VSS*%
X136805000Y-88795000D03*
%TO.N,TMS*%
X136805000Y-86255000D03*
%TO.N,VSS*%
X139345000Y-88795000D03*
%TO.N,TCK*%
X139345000Y-86255000D03*
%TO.N,VSS*%
X141885000Y-88795000D03*
%TO.N,TDO*%
X141885000Y-86255000D03*
%TO.N,VSS*%
X144425000Y-88795000D03*
%TO.N,TDI*%
X144425000Y-86255000D03*
%TO.N,VSS*%
X146965000Y-88795000D03*
%TO.N,unconnected-(J2-Pad12)*%
X146965000Y-86255000D03*
%TO.N,VSS*%
X149505000Y-88795000D03*
%TO.N,unconnected-(J2-Pad14)*%
X149505000Y-86255000D03*
%TD*%
D14*
%TO.N,VSS*%
X143070000Y-78540000D03*
X149840000Y-76670000D03*
X141070000Y-80540000D03*
X141070000Y-79540000D03*
X136720000Y-76140000D03*
X149300000Y-83310000D03*
X142925000Y-70030000D03*
X149250000Y-82330000D03*
X141925000Y-69030000D03*
X149020000Y-67640000D03*
X143070000Y-80540000D03*
X140925000Y-68030000D03*
X141070000Y-78540000D03*
X142070000Y-78540000D03*
X141925000Y-70030000D03*
X142070000Y-80540000D03*
X142070000Y-79540000D03*
X137380000Y-75720000D03*
X146820000Y-75650000D03*
X142925000Y-68030000D03*
X141925000Y-68030000D03*
X143070000Y-79540000D03*
X142925000Y-69030000D03*
X140925000Y-70030000D03*
X140925000Y-69030000D03*
X149840000Y-73270000D03*
%TO.N,RESET*%
X143720000Y-84180000D03*
%TO.N,+3V3*%
X146730000Y-77400000D03*
X143720000Y-74800000D03*
X146740000Y-81300000D03*
X149970000Y-72000000D03*
X140960000Y-74800000D03*
X139220000Y-74800000D03*
X138350000Y-82820000D03*
X149970000Y-78310000D03*
%TO.N,VBUS*%
X136410000Y-83820000D03*
X139570000Y-73700000D03*
X134625000Y-72000000D03*
X146870000Y-80450000D03*
X144380000Y-73690000D03*
%TO.N,Net-(C14-Pad1)*%
X134625000Y-67660000D03*
%TO.N,Net-(C15-Pad2)*%
X135690000Y-73000000D03*
%TO.N,3.3V*%
X134980000Y-75230000D03*
%TO.N,Net-(D1-Pad2)*%
X133750000Y-72000000D03*
X134840000Y-82010000D03*
%TO.N,TDI*%
X137130000Y-77130000D03*
%TO.N,TDO*%
X137140000Y-77800000D03*
%TO.N,TCK*%
X138100000Y-76290000D03*
%TO.N,TMS*%
X137169500Y-78470000D03*
%TO.N,EEP_CS*%
X147000000Y-78100000D03*
X149030000Y-70000000D03*
%TO.N,Net-(R6-Pad2)*%
X149300000Y-79740000D03*
X150170000Y-67650000D03*
%TO.N,EEP_CLK*%
X148070000Y-70010000D03*
X147000000Y-78810000D03*
%TO.N,EEP_D*%
X147000000Y-79500000D03*
X148070000Y-67650000D03*
%TO.N,Net-(R10-Pad1)*%
X135275000Y-67660000D03*
%TO.N,Net-(R11-Pad2)*%
X135925000Y-67670000D03*
%TO.N,Net-(R12-Pad2)*%
X134790000Y-80800000D03*
X133975000Y-67660000D03*
%TO.N,Net-(R3-Pad1)*%
X143000000Y-74160000D03*
%TD*%
D15*
%TO.N,+3V3*%
X146730000Y-77400000D02*
X146425736Y-77704264D01*
X150167107Y-78112893D02*
X149970000Y-78310000D01*
X149970000Y-78310000D02*
X149970000Y-79895786D01*
X138927107Y-82242893D02*
X138350000Y-82820000D01*
X146250000Y-78128528D02*
X146250000Y-80561472D01*
X149970000Y-72000000D02*
X150167107Y-72197107D01*
X146425736Y-80985736D02*
X146740000Y-81300000D01*
X149677107Y-80602893D02*
X149272893Y-81007107D01*
X148565786Y-81300000D02*
X146740000Y-81300000D01*
X139220000Y-74800000D02*
X139220000Y-81535786D01*
X144305736Y-74975736D02*
X146730000Y-77400000D01*
X143720000Y-74800000D02*
X140960000Y-74800000D01*
X143720000Y-74800000D02*
X143881472Y-74800000D01*
X150460000Y-72904214D02*
X150460000Y-77405786D01*
X139220000Y-74800000D02*
X140960000Y-74800000D01*
X146250000Y-78128528D02*
G75*
G02*
X146425736Y-77704264I599996J1D01*
G01*
X150167107Y-78112893D02*
G75*
G03*
X150460000Y-77405786I-707106J707106D01*
G01*
X150167107Y-72197107D02*
G75*
G02*
X150460000Y-72904214I-707106J-707106D01*
G01*
X143881472Y-74800000D02*
G75*
G02*
X144305736Y-74975736I1J-599996D01*
G01*
X149677107Y-80602893D02*
G75*
G03*
X149970000Y-79895786I-707106J707106D01*
G01*
X138927107Y-82242893D02*
G75*
G03*
X139220000Y-81535786I-707106J707106D01*
G01*
X149272893Y-81007107D02*
G75*
G02*
X148565786Y-81300000I-707106J707106D01*
G01*
X146250000Y-80561472D02*
G75*
G03*
X146425736Y-80985736I599996J-1D01*
G01*
D16*
%TO.N,Net-(D1-Pad2)*%
X133750000Y-72000000D02*
X133750000Y-80505786D01*
X134042893Y-81212893D02*
X134840000Y-82010000D01*
X134042893Y-81212893D02*
G75*
G02*
X133750000Y-80505786I707106J707106D01*
G01*
%TO.N,TCK*%
X138100000Y-76290000D02*
X138100000Y-81851472D01*
X137924264Y-82275736D02*
X137915736Y-82284264D01*
X137740000Y-82708528D02*
X137740000Y-84401472D01*
X137915736Y-84825736D02*
X139345000Y-86255000D01*
X137915736Y-84825736D02*
G75*
G02*
X137740000Y-84401472I424260J424263D01*
G01*
X137915736Y-82284264D02*
G75*
G03*
X137740000Y-82708528I424260J-424263D01*
G01*
X137924264Y-82275736D02*
G75*
G03*
X138100000Y-81851472I-424260J424263D01*
G01*
%TO.N,TMS*%
X137169500Y-85890500D02*
X136805000Y-86255000D01*
X137169500Y-78470000D02*
X137169500Y-85890500D01*
D17*
%TO.N,EEP_CS*%
X148047107Y-69400000D02*
X148297893Y-69400000D01*
X148651447Y-69546447D02*
X149105000Y-70000000D01*
X147596447Y-69643553D02*
X147693554Y-69546446D01*
X146975000Y-78100000D02*
X147080000Y-78100000D01*
X147450000Y-77315786D02*
X147450000Y-69997107D01*
X147080000Y-78100000D02*
X147157107Y-78022893D01*
X147596447Y-69643553D02*
G75*
G03*
X147450000Y-69997107I353550J-353553D01*
G01*
X147449999Y-77315786D02*
G75*
G02*
X147157106Y-78022892I-999993J-3D01*
G01*
X148047107Y-69400001D02*
G75*
G03*
X147693554Y-69546446I0J-500001D01*
G01*
X148297893Y-69400000D02*
G75*
G02*
X148651447Y-69546447I1J-499997D01*
G01*
%TO.N,Net-(R6-Pad2)*%
X149877107Y-71017893D02*
X149587893Y-71307107D01*
X149295000Y-72014214D02*
X149295000Y-79560000D01*
X150170000Y-67650000D02*
X150170000Y-70310786D01*
X149877107Y-71017893D02*
G75*
G03*
X150170000Y-70310786I-707101J707104D01*
G01*
X149295001Y-72014214D02*
G75*
G02*
X149587894Y-71307108I999993J3D01*
G01*
%TO.N,EEP_CLK*%
X147396447Y-78663553D02*
X147777107Y-78282893D01*
X148070000Y-77575786D02*
X148070000Y-70010000D01*
X147000000Y-78810000D02*
X147042893Y-78810000D01*
X148069999Y-77575786D02*
G75*
G02*
X147777106Y-78282892I-999993J-3D01*
G01*
X147042893Y-78810000D02*
G75*
G03*
X147396447Y-78663553I1J499997D01*
G01*
%TO.N,EEP_D*%
X149630000Y-69624214D02*
X149630000Y-70000786D01*
X147172893Y-79500000D02*
X146975000Y-79500000D01*
X148357107Y-78522893D02*
X147526446Y-79353554D01*
X149337107Y-70707893D02*
X148942893Y-71102107D01*
X148070000Y-67650000D02*
X149337107Y-68917107D01*
X148650000Y-71809214D02*
X148650000Y-77815786D01*
X149629999Y-69624214D02*
G75*
G03*
X149337106Y-68917108I-999993J3D01*
G01*
X149629999Y-70000786D02*
G75*
G02*
X149337106Y-70707892I-999993J-3D01*
G01*
X148650001Y-71809214D02*
G75*
G02*
X148942894Y-71102108I999993J3D01*
G01*
X148649999Y-77815786D02*
G75*
G02*
X148357106Y-78522892I-999993J-3D01*
G01*
X147172893Y-79499999D02*
G75*
G03*
X147526446Y-79353554I0J500001D01*
G01*
D16*
%TO.N,Net-(R12-Pad2)*%
X135047107Y-72642893D02*
X134592893Y-73097107D01*
X134267893Y-69377893D02*
X135047107Y-70157107D01*
X135340000Y-70864214D02*
X135340000Y-71935786D01*
X134300000Y-73804214D02*
X134300000Y-79895786D01*
X134592893Y-80602893D02*
X134790000Y-80800000D01*
X133975000Y-67660000D02*
X133975000Y-68670786D01*
X134592893Y-73097107D02*
G75*
G03*
X134300000Y-73804214I707106J-707106D01*
G01*
X133975001Y-68670786D02*
G75*
G03*
X134267894Y-69377892I999993J-3D01*
G01*
X135047107Y-72642893D02*
G75*
G03*
X135340000Y-71935786I-707106J707106D01*
G01*
X135047107Y-70157107D02*
G75*
G02*
X135340000Y-70864214I-707106J-707106D01*
G01*
X134300001Y-79895786D02*
G75*
G03*
X134592894Y-80602892I999993J-3D01*
G01*
%TD*%
%TA.AperFunction,Conductor*%
%TO.N,VSS*%
G36*
X150014938Y-66261902D02*
G01*
X150020437Y-66262996D01*
X150020438Y-66262996D01*
X150030000Y-66264898D01*
X150039564Y-66262995D01*
X150049313Y-66262995D01*
X150049313Y-66263988D01*
X150061019Y-66263495D01*
X150141299Y-66272541D01*
X150162911Y-66277473D01*
X150178693Y-66282995D01*
X150258113Y-66310785D01*
X150278080Y-66320401D01*
X150363169Y-66373867D01*
X150363472Y-66374057D01*
X150380804Y-66387878D01*
X150452122Y-66459196D01*
X150465943Y-66476528D01*
X150519599Y-66561920D01*
X150529215Y-66581887D01*
X150544991Y-66626973D01*
X150562527Y-66677089D01*
X150567459Y-66698701D01*
X150576505Y-66778981D01*
X150576012Y-66790687D01*
X150577005Y-66790687D01*
X150577005Y-66800436D01*
X150575102Y-66810000D01*
X150577004Y-66819562D01*
X150577004Y-66819563D01*
X150578098Y-66825062D01*
X150580000Y-66844376D01*
X150580000Y-67166910D01*
X150561093Y-67225101D01*
X150511593Y-67261065D01*
X150450407Y-67261065D01*
X150427153Y-67249985D01*
X150398609Y-67231484D01*
X150371501Y-67213913D01*
X150241006Y-67174887D01*
X150160455Y-67174395D01*
X150111855Y-67174098D01*
X150111854Y-67174098D01*
X150104804Y-67174055D01*
X150098027Y-67175992D01*
X150098026Y-67175992D01*
X149980622Y-67209546D01*
X149980620Y-67209547D01*
X149973842Y-67211484D01*
X149858650Y-67284165D01*
X149768487Y-67386255D01*
X149710601Y-67509548D01*
X149689646Y-67644131D01*
X149707306Y-67779186D01*
X149710146Y-67785640D01*
X149710147Y-67785644D01*
X149758002Y-67894402D01*
X149762162Y-67903856D01*
X149779690Y-67924708D01*
X149796283Y-67944448D01*
X149819253Y-68001158D01*
X149819500Y-68008150D01*
X149819500Y-68669300D01*
X149800593Y-68727491D01*
X149751093Y-68763455D01*
X149689907Y-68763455D01*
X149646069Y-68734576D01*
X149631560Y-68718032D01*
X149628247Y-68713642D01*
X149627833Y-68712781D01*
X149624515Y-68708833D01*
X149618488Y-68702806D01*
X149614075Y-68698095D01*
X149600458Y-68682567D01*
X149594809Y-68675496D01*
X149592617Y-68672480D01*
X149588037Y-68666176D01*
X149581736Y-68661598D01*
X149581734Y-68661596D01*
X149571750Y-68654343D01*
X149559936Y-68644254D01*
X148571154Y-67655472D01*
X148543158Y-67599502D01*
X148533945Y-67535171D01*
X148531081Y-67515171D01*
X148474706Y-67391180D01*
X148385796Y-67287996D01*
X148271501Y-67213913D01*
X148141006Y-67174887D01*
X148060455Y-67174395D01*
X148011855Y-67174098D01*
X148011854Y-67174098D01*
X148004804Y-67174055D01*
X147998027Y-67175992D01*
X147998026Y-67175992D01*
X147880622Y-67209546D01*
X147880620Y-67209547D01*
X147873842Y-67211484D01*
X147758650Y-67284165D01*
X147668487Y-67386255D01*
X147610601Y-67509548D01*
X147589646Y-67644131D01*
X147607306Y-67779186D01*
X147610146Y-67785640D01*
X147610147Y-67785644D01*
X147658002Y-67894402D01*
X147662162Y-67903856D01*
X147695788Y-67943859D01*
X147745265Y-68002720D01*
X147745268Y-68002722D01*
X147749804Y-68008119D01*
X147755675Y-68012027D01*
X147755676Y-68012028D01*
X147782092Y-68029612D01*
X147863187Y-68083593D01*
X147869914Y-68085695D01*
X147869917Y-68085696D01*
X147986463Y-68122107D01*
X147986464Y-68122107D01*
X147993195Y-68124210D01*
X148008944Y-68124499D01*
X148009618Y-68124511D01*
X148067453Y-68144481D01*
X148077808Y-68153490D01*
X149064252Y-69139933D01*
X149074341Y-69151747D01*
X149081597Y-69161735D01*
X149081599Y-69161737D01*
X149086177Y-69168038D01*
X149092478Y-69172616D01*
X149097991Y-69178129D01*
X149097859Y-69178261D01*
X149108166Y-69187980D01*
X149163854Y-69255836D01*
X149174635Y-69271971D01*
X149199297Y-69318108D01*
X149206783Y-69332114D01*
X149217539Y-69392347D01*
X149190838Y-69447398D01*
X149136877Y-69476241D01*
X149076269Y-69467858D01*
X149049469Y-69448787D01*
X148924297Y-69323615D01*
X148914208Y-69311801D01*
X148906957Y-69301821D01*
X148902378Y-69295518D01*
X148893116Y-69288789D01*
X148887645Y-69284813D01*
X148881542Y-69280002D01*
X148802306Y-69212327D01*
X148802302Y-69212324D01*
X148799352Y-69209804D01*
X148685207Y-69139856D01*
X148561525Y-69088625D01*
X148557751Y-69087719D01*
X148557748Y-69087718D01*
X148435126Y-69058279D01*
X148435125Y-69058279D01*
X148431352Y-69057373D01*
X148427487Y-69057069D01*
X148427482Y-69057068D01*
X148381719Y-69053467D01*
X148372421Y-69052735D01*
X148363009Y-69051357D01*
X148358987Y-69049945D01*
X148353849Y-69049500D01*
X148335207Y-69049500D01*
X148327448Y-69049195D01*
X148323594Y-69048892D01*
X148315876Y-69047979D01*
X148297892Y-69045131D01*
X148290196Y-69046350D01*
X148278004Y-69048281D01*
X148262517Y-69049500D01*
X148082482Y-69049500D01*
X148066995Y-69048281D01*
X148054803Y-69046350D01*
X148047107Y-69045131D01*
X148029104Y-69047982D01*
X148021410Y-69048893D01*
X147972593Y-69052735D01*
X147917520Y-69057069D01*
X147917516Y-69057070D01*
X147913649Y-69057374D01*
X147909876Y-69058280D01*
X147909875Y-69058280D01*
X147787253Y-69087719D01*
X147787250Y-69087720D01*
X147783476Y-69088626D01*
X147659796Y-69139856D01*
X147656480Y-69141888D01*
X147640392Y-69151747D01*
X147545652Y-69209803D01*
X147542702Y-69212323D01*
X147542700Y-69212324D01*
X147500712Y-69248185D01*
X147493073Y-69253873D01*
X147489228Y-69255720D01*
X147485280Y-69259038D01*
X147472081Y-69272237D01*
X147466361Y-69277523D01*
X147463447Y-69280011D01*
X147457355Y-69284812D01*
X147448936Y-69290929D01*
X147448933Y-69290932D01*
X147442625Y-69295515D01*
X147430789Y-69311806D01*
X147420705Y-69323613D01*
X147373615Y-69370703D01*
X147361801Y-69380792D01*
X147345518Y-69392622D01*
X147340938Y-69398926D01*
X147334813Y-69407355D01*
X147330002Y-69413458D01*
X147259804Y-69495648D01*
X147189856Y-69609793D01*
X147138625Y-69733475D01*
X147107373Y-69863648D01*
X147107069Y-69867513D01*
X147107068Y-69867518D01*
X147102735Y-69922578D01*
X147101357Y-69931991D01*
X147099945Y-69936013D01*
X147099500Y-69941151D01*
X147099500Y-69959790D01*
X147099196Y-69967543D01*
X147098893Y-69971400D01*
X147097979Y-69979124D01*
X147095131Y-69997108D01*
X147096350Y-70004804D01*
X147098281Y-70016996D01*
X147099500Y-70032483D01*
X147099500Y-76890659D01*
X147080593Y-76948850D01*
X147031093Y-76984814D01*
X146969907Y-76984814D01*
X146946653Y-76973734D01*
X146937422Y-76967751D01*
X146937423Y-76967751D01*
X146931501Y-76963913D01*
X146853888Y-76940702D01*
X146812250Y-76915857D01*
X144616727Y-74720334D01*
X144606639Y-74708521D01*
X144597045Y-74695317D01*
X144597043Y-74695315D01*
X144592463Y-74689011D01*
X144576103Y-74677125D01*
X144569997Y-74672312D01*
X144474324Y-74590599D01*
X144471370Y-74588076D01*
X144468056Y-74586045D01*
X144340410Y-74507822D01*
X144340406Y-74507820D01*
X144337095Y-74505791D01*
X144333510Y-74504306D01*
X144333504Y-74504303D01*
X144195190Y-74447012D01*
X144191600Y-74445525D01*
X144187826Y-74444619D01*
X144187823Y-74444618D01*
X144108492Y-74425573D01*
X144038468Y-74408762D01*
X144034604Y-74408458D01*
X144034598Y-74408457D01*
X144013895Y-74406828D01*
X144009112Y-74406452D01*
X143963033Y-74390833D01*
X143921501Y-74363913D01*
X143791006Y-74324887D01*
X143710455Y-74324395D01*
X143661855Y-74324098D01*
X143661854Y-74324098D01*
X143654804Y-74324055D01*
X143648027Y-74325992D01*
X143648026Y-74325992D01*
X143595374Y-74341040D01*
X143534228Y-74338851D01*
X143486046Y-74301139D01*
X143469232Y-74242309D01*
X143470541Y-74229425D01*
X143479433Y-74176577D01*
X143480247Y-74171737D01*
X143480309Y-74166706D01*
X143480337Y-74164339D01*
X143480390Y-74160000D01*
X143479550Y-74154131D01*
X143466013Y-74059612D01*
X143461081Y-74025171D01*
X143404706Y-73901180D01*
X143315796Y-73797996D01*
X143201501Y-73723913D01*
X143071006Y-73684887D01*
X142990455Y-73684395D01*
X142947255Y-73684131D01*
X143899646Y-73684131D01*
X143917306Y-73819186D01*
X143920146Y-73825640D01*
X143920147Y-73825644D01*
X143948892Y-73890971D01*
X143972162Y-73943856D01*
X143992988Y-73968631D01*
X144055265Y-74042720D01*
X144055268Y-74042722D01*
X144059804Y-74048119D01*
X144065675Y-74052027D01*
X144065676Y-74052028D01*
X144080699Y-74062028D01*
X144173187Y-74123593D01*
X144179914Y-74125695D01*
X144179917Y-74125696D01*
X144296463Y-74162107D01*
X144296464Y-74162107D01*
X144303195Y-74164210D01*
X144373288Y-74165495D01*
X144432324Y-74166577D01*
X144432326Y-74166577D01*
X144439377Y-74166706D01*
X144446180Y-74164851D01*
X144446182Y-74164851D01*
X144553121Y-74135696D01*
X144570786Y-74130880D01*
X144686858Y-74059612D01*
X144769210Y-73968631D01*
X144773529Y-73963859D01*
X144773529Y-73963858D01*
X144778261Y-73958631D01*
X144837649Y-73836054D01*
X144839329Y-73826072D01*
X144859613Y-73705506D01*
X144859613Y-73705505D01*
X144860247Y-73701737D01*
X144860390Y-73690000D01*
X144859550Y-73684131D01*
X144842081Y-73562155D01*
X144841081Y-73555171D01*
X144784706Y-73431180D01*
X144695796Y-73327996D01*
X144581501Y-73253913D01*
X144451006Y-73214887D01*
X144370455Y-73214395D01*
X144321855Y-73214098D01*
X144321854Y-73214098D01*
X144314804Y-73214055D01*
X144308027Y-73215992D01*
X144308026Y-73215992D01*
X144190622Y-73249546D01*
X144190620Y-73249547D01*
X144183842Y-73251484D01*
X144068650Y-73324165D01*
X143978487Y-73426255D01*
X143920601Y-73549548D01*
X143899646Y-73684131D01*
X142947255Y-73684131D01*
X142941855Y-73684098D01*
X142941854Y-73684098D01*
X142934804Y-73684055D01*
X142928027Y-73685992D01*
X142928026Y-73685992D01*
X142810622Y-73719546D01*
X142810620Y-73719547D01*
X142803842Y-73721484D01*
X142688650Y-73794165D01*
X142598487Y-73896255D01*
X142540601Y-74019548D01*
X142519646Y-74154131D01*
X142520561Y-74161129D01*
X142537107Y-74287664D01*
X142525904Y-74347815D01*
X142481485Y-74389893D01*
X142438943Y-74399500D01*
X141245683Y-74399500D01*
X141191837Y-74383576D01*
X141161501Y-74363913D01*
X141031006Y-74324887D01*
X140950455Y-74324395D01*
X140901855Y-74324098D01*
X140901854Y-74324098D01*
X140894804Y-74324055D01*
X140888027Y-74325992D01*
X140888026Y-74325992D01*
X140770622Y-74359546D01*
X140770620Y-74359547D01*
X140763842Y-74361484D01*
X140757878Y-74365247D01*
X140727797Y-74384227D01*
X140674969Y-74399500D01*
X139505683Y-74399500D01*
X139451837Y-74383576D01*
X139421501Y-74363913D01*
X139291006Y-74324887D01*
X139210455Y-74324395D01*
X139161855Y-74324098D01*
X139161854Y-74324098D01*
X139154804Y-74324055D01*
X139148027Y-74325992D01*
X139148026Y-74325992D01*
X139030622Y-74359546D01*
X139030620Y-74359547D01*
X139023842Y-74361484D01*
X138908650Y-74434165D01*
X138818487Y-74536255D01*
X138760601Y-74659548D01*
X138739646Y-74794131D01*
X138757306Y-74929186D01*
X138760146Y-74935640D01*
X138760147Y-74935644D01*
X138811116Y-75051479D01*
X138819500Y-75091351D01*
X138819500Y-81496477D01*
X138818281Y-81511963D01*
X138814508Y-81535786D01*
X138815727Y-81543481D01*
X138815727Y-81547016D01*
X138816341Y-81567864D01*
X138808937Y-81643039D01*
X138805152Y-81662069D01*
X138776696Y-81755876D01*
X138769269Y-81773805D01*
X138723063Y-81860250D01*
X138712281Y-81876387D01*
X138664358Y-81934782D01*
X138649190Y-81949083D01*
X138646689Y-81951584D01*
X138640383Y-81956165D01*
X138639979Y-81955608D01*
X138590938Y-81980595D01*
X138530506Y-81971024D01*
X138487241Y-81927759D01*
X138477670Y-81867327D01*
X138478962Y-81859170D01*
X138478962Y-81859167D01*
X138480181Y-81851471D01*
X138476719Y-81829612D01*
X138475500Y-81814126D01*
X138475500Y-76620855D01*
X138492426Y-76565494D01*
X138493529Y-76563859D01*
X138498261Y-76558631D01*
X138557649Y-76436054D01*
X138559401Y-76425644D01*
X138579613Y-76305506D01*
X138579613Y-76305505D01*
X138580247Y-76301737D01*
X138580390Y-76290000D01*
X138579550Y-76284131D01*
X138562081Y-76162155D01*
X138561081Y-76155171D01*
X138504706Y-76031180D01*
X138415796Y-75927996D01*
X138301501Y-75853913D01*
X138171006Y-75814887D01*
X138090455Y-75814395D01*
X138041855Y-75814098D01*
X138041854Y-75814098D01*
X138034804Y-75814055D01*
X138028027Y-75815992D01*
X138028026Y-75815992D01*
X137910622Y-75849546D01*
X137910620Y-75849547D01*
X137903842Y-75851484D01*
X137788650Y-75924165D01*
X137698487Y-76026255D01*
X137640601Y-76149548D01*
X137619646Y-76284131D01*
X137637306Y-76419186D01*
X137640146Y-76425640D01*
X137640147Y-76425644D01*
X137689321Y-76537400D01*
X137692162Y-76543856D01*
X137696699Y-76549254D01*
X137696700Y-76549255D01*
X137701284Y-76554708D01*
X137724253Y-76611418D01*
X137724500Y-76618409D01*
X137724500Y-76831682D01*
X137705593Y-76889873D01*
X137656093Y-76925837D01*
X137594907Y-76925837D01*
X137545407Y-76889873D01*
X137541638Y-76883404D01*
X137541424Y-76883541D01*
X137537626Y-76877602D01*
X137534706Y-76871180D01*
X137445796Y-76767996D01*
X137331501Y-76693913D01*
X137201006Y-76654887D01*
X137120455Y-76654395D01*
X137071855Y-76654098D01*
X137071854Y-76654098D01*
X137064804Y-76654055D01*
X137058027Y-76655992D01*
X137058026Y-76655992D01*
X136940622Y-76689546D01*
X136940620Y-76689547D01*
X136933842Y-76691484D01*
X136818650Y-76764165D01*
X136728487Y-76866255D01*
X136670601Y-76989548D01*
X136649646Y-77124131D01*
X136667306Y-77259186D01*
X136670146Y-77265640D01*
X136670147Y-77265644D01*
X136719321Y-77377400D01*
X136722162Y-77383856D01*
X136726699Y-77389254D01*
X136726700Y-77389255D01*
X136740869Y-77406111D01*
X136763838Y-77462821D01*
X136749087Y-77522202D01*
X136746974Y-77525037D01*
X136747028Y-77525073D01*
X136743154Y-77530970D01*
X136738487Y-77536255D01*
X136680601Y-77659548D01*
X136659646Y-77794131D01*
X136660561Y-77801129D01*
X136666116Y-77843613D01*
X136677306Y-77929186D01*
X136680146Y-77935640D01*
X136680147Y-77935644D01*
X136729321Y-78047400D01*
X136732162Y-78053856D01*
X136736700Y-78059255D01*
X136736701Y-78059256D01*
X136761698Y-78088993D01*
X136784669Y-78145703D01*
X136769239Y-78204838D01*
X136767987Y-78206255D01*
X136710101Y-78329548D01*
X136689146Y-78464131D01*
X136690061Y-78471129D01*
X136700840Y-78553564D01*
X136706806Y-78599186D01*
X136709646Y-78605640D01*
X136709647Y-78605644D01*
X136723437Y-78636984D01*
X136761662Y-78723856D01*
X136766199Y-78729254D01*
X136766200Y-78729255D01*
X136770784Y-78734708D01*
X136793753Y-78791418D01*
X136794000Y-78798409D01*
X136794000Y-83320058D01*
X136775093Y-83378249D01*
X136725593Y-83414213D01*
X136664407Y-83414213D01*
X136641158Y-83403136D01*
X136611501Y-83383913D01*
X136481006Y-83344887D01*
X136400455Y-83344395D01*
X136351855Y-83344098D01*
X136351854Y-83344098D01*
X136344804Y-83344055D01*
X136338027Y-83345992D01*
X136338026Y-83345992D01*
X136220622Y-83379546D01*
X136220620Y-83379547D01*
X136213842Y-83381484D01*
X136098650Y-83454165D01*
X136008487Y-83556255D01*
X135950601Y-83679548D01*
X135929646Y-83814131D01*
X135947306Y-83949186D01*
X135950146Y-83955640D01*
X135950147Y-83955644D01*
X135987066Y-84039548D01*
X136002162Y-84073856D01*
X136027825Y-84104386D01*
X136085265Y-84172720D01*
X136085268Y-84172722D01*
X136089804Y-84178119D01*
X136095675Y-84182027D01*
X136095676Y-84182028D01*
X136110262Y-84191737D01*
X136203187Y-84253593D01*
X136209914Y-84255695D01*
X136209917Y-84255696D01*
X136326463Y-84292107D01*
X136326464Y-84292107D01*
X136333195Y-84294210D01*
X136403288Y-84295495D01*
X136462324Y-84296577D01*
X136462326Y-84296577D01*
X136469377Y-84296706D01*
X136476180Y-84294851D01*
X136476182Y-84294851D01*
X136548410Y-84275159D01*
X136600786Y-84260880D01*
X136643200Y-84234838D01*
X136702681Y-84220502D01*
X136759229Y-84243867D01*
X136791244Y-84296008D01*
X136794000Y-84319204D01*
X136794000Y-85056743D01*
X136775093Y-85114934D01*
X136725593Y-85150898D01*
X136711772Y-85154311D01*
X136518949Y-85187444D01*
X136329193Y-85257449D01*
X136155371Y-85360862D01*
X136151956Y-85363857D01*
X136151953Y-85363859D01*
X136135630Y-85378174D01*
X136003305Y-85494220D01*
X136000497Y-85497782D01*
X135907018Y-85616361D01*
X135878089Y-85653057D01*
X135783914Y-85832053D01*
X135782569Y-85836384D01*
X135782568Y-85836387D01*
X135728016Y-86012077D01*
X135723937Y-86025213D01*
X135700164Y-86226069D01*
X135713392Y-86427894D01*
X135763178Y-86623928D01*
X135847856Y-86807607D01*
X135964588Y-86972780D01*
X136109466Y-87113913D01*
X136277637Y-87226282D01*
X136463470Y-87306122D01*
X136660740Y-87350760D01*
X136862842Y-87358700D01*
X136916377Y-87350938D01*
X137058519Y-87330329D01*
X137058522Y-87330328D01*
X137063007Y-87329678D01*
X137158769Y-87297171D01*
X137250234Y-87266123D01*
X137250237Y-87266121D01*
X137254531Y-87264664D01*
X137431001Y-87165837D01*
X137586505Y-87036505D01*
X137715837Y-86881001D01*
X137814664Y-86704531D01*
X137879678Y-86513007D01*
X137908700Y-86312842D01*
X137910215Y-86255000D01*
X137891708Y-86053591D01*
X137836807Y-85858926D01*
X137747351Y-85677527D01*
X137626335Y-85515467D01*
X137576799Y-85469676D01*
X137546902Y-85416294D01*
X137545000Y-85396979D01*
X137545000Y-85225045D01*
X137563907Y-85166854D01*
X137613407Y-85130890D01*
X137674593Y-85130890D01*
X137714004Y-85155041D01*
X138297543Y-85738580D01*
X138325320Y-85793097D01*
X138322086Y-85837941D01*
X138268016Y-86012077D01*
X138263937Y-86025213D01*
X138240164Y-86226069D01*
X138253392Y-86427894D01*
X138303178Y-86623928D01*
X138387856Y-86807607D01*
X138504588Y-86972780D01*
X138649466Y-87113913D01*
X138817637Y-87226282D01*
X139003470Y-87306122D01*
X139200740Y-87350760D01*
X139402842Y-87358700D01*
X139456377Y-87350938D01*
X139598519Y-87330329D01*
X139598522Y-87330328D01*
X139603007Y-87329678D01*
X139698769Y-87297171D01*
X139790234Y-87266123D01*
X139790237Y-87266121D01*
X139794531Y-87264664D01*
X139971001Y-87165837D01*
X140126505Y-87036505D01*
X140255837Y-86881001D01*
X140354664Y-86704531D01*
X140419678Y-86513007D01*
X140448700Y-86312842D01*
X140450215Y-86255000D01*
X140447557Y-86226069D01*
X140780164Y-86226069D01*
X140793392Y-86427894D01*
X140843178Y-86623928D01*
X140927856Y-86807607D01*
X141044588Y-86972780D01*
X141189466Y-87113913D01*
X141357637Y-87226282D01*
X141543470Y-87306122D01*
X141740740Y-87350760D01*
X141942842Y-87358700D01*
X141996377Y-87350938D01*
X142138519Y-87330329D01*
X142138522Y-87330328D01*
X142143007Y-87329678D01*
X142238769Y-87297171D01*
X142330234Y-87266123D01*
X142330237Y-87266121D01*
X142334531Y-87264664D01*
X142511001Y-87165837D01*
X142666505Y-87036505D01*
X142795837Y-86881001D01*
X142894664Y-86704531D01*
X142959678Y-86513007D01*
X142988700Y-86312842D01*
X142990215Y-86255000D01*
X142987557Y-86226069D01*
X143320164Y-86226069D01*
X143333392Y-86427894D01*
X143383178Y-86623928D01*
X143467856Y-86807607D01*
X143584588Y-86972780D01*
X143729466Y-87113913D01*
X143897637Y-87226282D01*
X144083470Y-87306122D01*
X144280740Y-87350760D01*
X144482842Y-87358700D01*
X144536377Y-87350938D01*
X144678519Y-87330329D01*
X144678522Y-87330328D01*
X144683007Y-87329678D01*
X144778769Y-87297171D01*
X144870234Y-87266123D01*
X144870237Y-87266121D01*
X144874531Y-87264664D01*
X145051001Y-87165837D01*
X145206505Y-87036505D01*
X145335837Y-86881001D01*
X145434664Y-86704531D01*
X145499678Y-86513007D01*
X145528700Y-86312842D01*
X145530215Y-86255000D01*
X145527557Y-86226069D01*
X145860164Y-86226069D01*
X145873392Y-86427894D01*
X145923178Y-86623928D01*
X146007856Y-86807607D01*
X146124588Y-86972780D01*
X146269466Y-87113913D01*
X146437637Y-87226282D01*
X146623470Y-87306122D01*
X146820740Y-87350760D01*
X147022842Y-87358700D01*
X147076377Y-87350938D01*
X147218519Y-87330329D01*
X147218522Y-87330328D01*
X147223007Y-87329678D01*
X147318769Y-87297171D01*
X147410234Y-87266123D01*
X147410237Y-87266121D01*
X147414531Y-87264664D01*
X147591001Y-87165837D01*
X147746505Y-87036505D01*
X147875837Y-86881001D01*
X147974664Y-86704531D01*
X148039678Y-86513007D01*
X148068700Y-86312842D01*
X148070215Y-86255000D01*
X148051708Y-86053591D01*
X147996807Y-85858926D01*
X147907351Y-85677527D01*
X147786335Y-85515467D01*
X147637812Y-85378174D01*
X147615125Y-85363859D01*
X147470594Y-85272667D01*
X147466757Y-85270246D01*
X147278898Y-85195298D01*
X147080526Y-85155839D01*
X146980930Y-85154535D01*
X146882826Y-85153251D01*
X146882821Y-85153251D01*
X146878286Y-85153192D01*
X146873813Y-85153961D01*
X146873808Y-85153961D01*
X146775245Y-85170898D01*
X146678949Y-85187444D01*
X146489193Y-85257449D01*
X146315371Y-85360862D01*
X146311956Y-85363857D01*
X146311953Y-85363859D01*
X146295630Y-85378174D01*
X146163305Y-85494220D01*
X146160497Y-85497782D01*
X146067018Y-85616361D01*
X146038089Y-85653057D01*
X145943914Y-85832053D01*
X145942569Y-85836384D01*
X145942568Y-85836387D01*
X145888016Y-86012077D01*
X145883937Y-86025213D01*
X145860164Y-86226069D01*
X145527557Y-86226069D01*
X145511708Y-86053591D01*
X145456807Y-85858926D01*
X145367351Y-85677527D01*
X145246335Y-85515467D01*
X145097812Y-85378174D01*
X145075125Y-85363859D01*
X144930594Y-85272667D01*
X144926757Y-85270246D01*
X144738898Y-85195298D01*
X144540526Y-85155839D01*
X144440930Y-85154535D01*
X144342826Y-85153251D01*
X144342821Y-85153251D01*
X144338286Y-85153192D01*
X144333813Y-85153961D01*
X144333808Y-85153961D01*
X144235245Y-85170898D01*
X144138949Y-85187444D01*
X143949193Y-85257449D01*
X143775371Y-85360862D01*
X143771956Y-85363857D01*
X143771953Y-85363859D01*
X143755630Y-85378174D01*
X143623305Y-85494220D01*
X143620497Y-85497782D01*
X143527018Y-85616361D01*
X143498089Y-85653057D01*
X143403914Y-85832053D01*
X143402569Y-85836384D01*
X143402568Y-85836387D01*
X143348016Y-86012077D01*
X143343937Y-86025213D01*
X143320164Y-86226069D01*
X142987557Y-86226069D01*
X142971708Y-86053591D01*
X142916807Y-85858926D01*
X142827351Y-85677527D01*
X142706335Y-85515467D01*
X142557812Y-85378174D01*
X142535125Y-85363859D01*
X142390594Y-85272667D01*
X142386757Y-85270246D01*
X142198898Y-85195298D01*
X142000526Y-85155839D01*
X141900930Y-85154535D01*
X141802826Y-85153251D01*
X141802821Y-85153251D01*
X141798286Y-85153192D01*
X141793813Y-85153961D01*
X141793808Y-85153961D01*
X141695245Y-85170898D01*
X141598949Y-85187444D01*
X141409193Y-85257449D01*
X141235371Y-85360862D01*
X141231956Y-85363857D01*
X141231953Y-85363859D01*
X141215630Y-85378174D01*
X141083305Y-85494220D01*
X141080497Y-85497782D01*
X140987018Y-85616361D01*
X140958089Y-85653057D01*
X140863914Y-85832053D01*
X140862569Y-85836384D01*
X140862568Y-85836387D01*
X140808016Y-86012077D01*
X140803937Y-86025213D01*
X140780164Y-86226069D01*
X140447557Y-86226069D01*
X140431708Y-86053591D01*
X140376807Y-85858926D01*
X140287351Y-85677527D01*
X140166335Y-85515467D01*
X140017812Y-85378174D01*
X139995125Y-85363859D01*
X139850594Y-85272667D01*
X139846757Y-85270246D01*
X139658898Y-85195298D01*
X139460526Y-85155839D01*
X139360930Y-85154535D01*
X139262826Y-85153251D01*
X139262821Y-85153251D01*
X139258286Y-85153192D01*
X139253813Y-85153961D01*
X139253808Y-85153961D01*
X139155245Y-85170898D01*
X139058949Y-85187444D01*
X138935438Y-85233010D01*
X138874302Y-85235412D01*
X138831170Y-85210133D01*
X138207664Y-84586627D01*
X138197575Y-84574814D01*
X138189143Y-84563209D01*
X138184564Y-84556906D01*
X138178259Y-84552325D01*
X138172751Y-84546818D01*
X138173269Y-84546300D01*
X138162604Y-84535912D01*
X138153510Y-84524060D01*
X138140589Y-84501679D01*
X138128138Y-84471619D01*
X138121449Y-84446653D01*
X138119499Y-84431838D01*
X138119692Y-84416959D01*
X138118962Y-84416959D01*
X138118962Y-84409170D01*
X138120181Y-84401473D01*
X138116719Y-84379614D01*
X138115500Y-84364128D01*
X138115500Y-84174131D01*
X143239646Y-84174131D01*
X143240561Y-84181129D01*
X143255583Y-84296008D01*
X143257306Y-84309186D01*
X143260146Y-84315640D01*
X143260147Y-84315644D01*
X143297913Y-84401473D01*
X143312162Y-84433856D01*
X143333783Y-84459577D01*
X143395265Y-84532720D01*
X143395268Y-84532722D01*
X143399804Y-84538119D01*
X143405675Y-84542027D01*
X143405676Y-84542028D01*
X143422616Y-84553304D01*
X143513187Y-84613593D01*
X143519914Y-84615695D01*
X143519917Y-84615696D01*
X143636463Y-84652107D01*
X143636464Y-84652107D01*
X143643195Y-84654210D01*
X143713288Y-84655495D01*
X143772324Y-84656577D01*
X143772326Y-84656577D01*
X143779377Y-84656706D01*
X143786180Y-84654851D01*
X143786182Y-84654851D01*
X143858410Y-84635159D01*
X143910786Y-84620880D01*
X144004713Y-84563209D01*
X144020845Y-84553304D01*
X144026858Y-84549612D01*
X144049987Y-84524060D01*
X144113529Y-84453859D01*
X144113529Y-84453858D01*
X144118261Y-84448631D01*
X144177649Y-84326054D01*
X144179401Y-84315644D01*
X144199613Y-84195506D01*
X144199613Y-84195505D01*
X144200247Y-84191737D01*
X144200390Y-84180000D01*
X144199550Y-84174131D01*
X144182081Y-84052155D01*
X144181081Y-84045171D01*
X144140376Y-83955644D01*
X144127626Y-83927602D01*
X144127626Y-83927601D01*
X144124706Y-83921180D01*
X144035796Y-83817996D01*
X143921501Y-83743913D01*
X143791006Y-83704887D01*
X143710455Y-83704395D01*
X143661855Y-83704098D01*
X143661854Y-83704098D01*
X143654804Y-83704055D01*
X143648027Y-83705992D01*
X143648026Y-83705992D01*
X143530622Y-83739546D01*
X143530620Y-83739547D01*
X143523842Y-83741484D01*
X143408650Y-83814165D01*
X143318487Y-83916255D01*
X143260601Y-84039548D01*
X143239646Y-84174131D01*
X138115500Y-84174131D01*
X138115500Y-83379592D01*
X138134407Y-83321401D01*
X138183907Y-83285437D01*
X138244022Y-83285096D01*
X138266462Y-83292107D01*
X138266465Y-83292108D01*
X138273195Y-83294210D01*
X138343288Y-83295495D01*
X138402324Y-83296577D01*
X138402326Y-83296577D01*
X138409377Y-83296706D01*
X138416180Y-83294851D01*
X138416182Y-83294851D01*
X138488410Y-83275159D01*
X138540786Y-83260880D01*
X138656858Y-83189612D01*
X138748261Y-83088631D01*
X138807649Y-82966054D01*
X138809946Y-82952401D01*
X138837570Y-82898823D01*
X139182510Y-82553883D01*
X139194323Y-82543795D01*
X139207525Y-82534203D01*
X139207529Y-82534199D01*
X139213833Y-82529619D01*
X139223908Y-82515753D01*
X139229563Y-82508676D01*
X139290067Y-82439685D01*
X139333476Y-82390186D01*
X139435471Y-82237539D01*
X139516670Y-82072884D01*
X139575682Y-81899040D01*
X139611498Y-81718980D01*
X139611751Y-81715134D01*
X139621805Y-81561718D01*
X139622812Y-81552704D01*
X139624273Y-81543481D01*
X139625492Y-81535786D01*
X139621719Y-81511963D01*
X139620500Y-81496477D01*
X139620500Y-75299500D01*
X139639407Y-75241309D01*
X139688907Y-75205345D01*
X139719500Y-75200500D01*
X140673535Y-75200500D01*
X140728392Y-75217088D01*
X140753187Y-75233593D01*
X140759914Y-75235695D01*
X140759917Y-75235696D01*
X140876463Y-75272107D01*
X140876464Y-75272107D01*
X140883195Y-75274210D01*
X140953288Y-75275495D01*
X141012324Y-75276577D01*
X141012326Y-75276577D01*
X141019377Y-75276706D01*
X141026180Y-75274851D01*
X141026182Y-75274851D01*
X141098410Y-75255159D01*
X141150786Y-75240880D01*
X141183361Y-75220879D01*
X141192718Y-75215134D01*
X141244519Y-75200500D01*
X143433535Y-75200500D01*
X143488392Y-75217088D01*
X143513187Y-75233593D01*
X143519914Y-75235695D01*
X143519917Y-75235696D01*
X143636463Y-75272107D01*
X143636464Y-75272107D01*
X143643195Y-75274210D01*
X143713288Y-75275495D01*
X143772324Y-75276577D01*
X143772326Y-75276577D01*
X143779377Y-75276706D01*
X143786180Y-75274851D01*
X143786182Y-75274851D01*
X143903979Y-75242736D01*
X143903980Y-75242735D01*
X143910786Y-75240880D01*
X143912344Y-75239923D01*
X143970871Y-75234393D01*
X144017068Y-75259790D01*
X144019009Y-75262461D01*
X144038522Y-75276638D01*
X144050329Y-75286722D01*
X146095051Y-77331444D01*
X146122828Y-77385961D01*
X146113257Y-77446393D01*
X146100327Y-77465744D01*
X146038076Y-77538630D01*
X146036046Y-77541943D01*
X146036045Y-77541944D01*
X145967888Y-77653165D01*
X145955791Y-77672905D01*
X145954306Y-77676490D01*
X145954303Y-77676496D01*
X145902679Y-77801129D01*
X145895525Y-77818400D01*
X145858762Y-77971532D01*
X145858458Y-77975397D01*
X145858457Y-77975402D01*
X145848586Y-78100832D01*
X145847672Y-78108553D01*
X145844508Y-78128529D01*
X145845727Y-78136226D01*
X145848281Y-78152351D01*
X145849500Y-78167838D01*
X145849500Y-80522162D01*
X145848281Y-80537648D01*
X145844508Y-80561471D01*
X145845727Y-80569167D01*
X145847672Y-80581447D01*
X145848586Y-80589168D01*
X145857797Y-80706205D01*
X145858762Y-80718468D01*
X145859668Y-80722241D01*
X145893354Y-80862555D01*
X145895525Y-80871600D01*
X145897012Y-80875190D01*
X145954303Y-81013504D01*
X145954306Y-81013510D01*
X145955791Y-81017095D01*
X145957820Y-81020406D01*
X145957822Y-81020410D01*
X146036045Y-81148056D01*
X146038076Y-81151370D01*
X146040599Y-81154324D01*
X146122312Y-81249997D01*
X146127125Y-81256103D01*
X146139011Y-81272463D01*
X146155232Y-81284248D01*
X146158524Y-81286640D01*
X146170330Y-81296723D01*
X146220985Y-81347377D01*
X146250509Y-81376901D01*
X146275858Y-81420283D01*
X146276392Y-81422196D01*
X146277306Y-81429186D01*
X146280144Y-81435637D01*
X146280145Y-81435639D01*
X146324211Y-81535786D01*
X146332162Y-81553856D01*
X146338771Y-81561718D01*
X146415265Y-81652720D01*
X146415268Y-81652722D01*
X146419804Y-81658119D01*
X146425675Y-81662027D01*
X146425676Y-81662028D01*
X146457252Y-81683047D01*
X146533187Y-81733593D01*
X146539914Y-81735695D01*
X146539917Y-81735696D01*
X146656463Y-81772107D01*
X146656464Y-81772107D01*
X146663195Y-81774210D01*
X146733288Y-81775495D01*
X146792324Y-81776577D01*
X146792326Y-81776577D01*
X146799377Y-81776706D01*
X146806180Y-81774851D01*
X146806182Y-81774851D01*
X146893006Y-81751180D01*
X146930786Y-81740880D01*
X146972718Y-81715134D01*
X147024519Y-81700500D01*
X148526477Y-81700500D01*
X148541963Y-81701719D01*
X148565786Y-81705492D01*
X148582709Y-81702811D01*
X148591716Y-81701805D01*
X148620463Y-81699921D01*
X148745752Y-81691710D01*
X148745759Y-81691709D01*
X148748980Y-81691498D01*
X148897136Y-81662028D01*
X148925858Y-81656315D01*
X148925859Y-81656315D01*
X148929040Y-81655682D01*
X148935946Y-81653338D01*
X148976483Y-81639577D01*
X149102884Y-81596670D01*
X149203572Y-81547016D01*
X149264628Y-81516907D01*
X149264633Y-81516904D01*
X149267539Y-81515471D01*
X149420186Y-81413476D01*
X149538678Y-81309562D01*
X149545753Y-81303908D01*
X149559619Y-81293833D01*
X149564199Y-81287529D01*
X149564203Y-81287525D01*
X149573795Y-81274323D01*
X149583883Y-81262510D01*
X149932510Y-80913883D01*
X149944323Y-80903795D01*
X149957525Y-80894203D01*
X149957529Y-80894199D01*
X149963833Y-80889619D01*
X149973908Y-80875753D01*
X149979563Y-80868676D01*
X149983182Y-80864550D01*
X150083476Y-80750186D01*
X150185471Y-80597539D01*
X150189600Y-80589168D01*
X150230719Y-80505786D01*
X150266670Y-80432884D01*
X150325682Y-80259040D01*
X150361498Y-80078980D01*
X150364052Y-80040020D01*
X150371805Y-79921718D01*
X150372812Y-79912704D01*
X150374273Y-79903481D01*
X150375492Y-79895786D01*
X150371719Y-79871963D01*
X150370500Y-79856477D01*
X150370500Y-78596730D01*
X150380406Y-78553564D01*
X150391906Y-78529828D01*
X150434294Y-78485704D01*
X150494521Y-78474922D01*
X150549585Y-78501600D01*
X150578451Y-78555548D01*
X150580000Y-78572994D01*
X150580000Y-85557127D01*
X150561093Y-85615318D01*
X150511593Y-85651282D01*
X150450407Y-85651282D01*
X150401676Y-85616361D01*
X150329051Y-85519104D01*
X150329050Y-85519103D01*
X150326335Y-85515467D01*
X150177812Y-85378174D01*
X150155125Y-85363859D01*
X150010594Y-85272667D01*
X150006757Y-85270246D01*
X149818898Y-85195298D01*
X149620526Y-85155839D01*
X149520930Y-85154535D01*
X149422826Y-85153251D01*
X149422821Y-85153251D01*
X149418286Y-85153192D01*
X149413813Y-85153961D01*
X149413808Y-85153961D01*
X149315245Y-85170898D01*
X149218949Y-85187444D01*
X149029193Y-85257449D01*
X148855371Y-85360862D01*
X148851956Y-85363857D01*
X148851953Y-85363859D01*
X148835630Y-85378174D01*
X148703305Y-85494220D01*
X148700497Y-85497782D01*
X148607018Y-85616361D01*
X148578089Y-85653057D01*
X148483914Y-85832053D01*
X148482569Y-85836384D01*
X148482568Y-85836387D01*
X148428016Y-86012077D01*
X148423937Y-86025213D01*
X148400164Y-86226069D01*
X148413392Y-86427894D01*
X148463178Y-86623928D01*
X148547856Y-86807607D01*
X148664588Y-86972780D01*
X148809466Y-87113913D01*
X148977637Y-87226282D01*
X149163470Y-87306122D01*
X149360740Y-87350760D01*
X149562842Y-87358700D01*
X149616377Y-87350938D01*
X149758519Y-87330329D01*
X149758522Y-87330328D01*
X149763007Y-87329678D01*
X149858769Y-87297171D01*
X149950234Y-87266123D01*
X149950237Y-87266121D01*
X149954531Y-87264664D01*
X150131001Y-87165837D01*
X150286505Y-87036505D01*
X150404885Y-86894169D01*
X150456631Y-86861520D01*
X150517685Y-86865522D01*
X150564727Y-86904646D01*
X150580000Y-86957474D01*
X150580000Y-89771000D01*
X150561093Y-89829191D01*
X150511593Y-89865155D01*
X150481000Y-89870000D01*
X135444358Y-89870000D01*
X135386167Y-89851093D01*
X135350203Y-89801593D01*
X135350203Y-89743882D01*
X135350966Y-89742740D01*
X135365500Y-89669674D01*
X135365500Y-87920326D01*
X135350966Y-87847260D01*
X135295601Y-87764399D01*
X135212740Y-87709034D01*
X135139674Y-87694500D01*
X133390326Y-87694500D01*
X133347399Y-87703039D01*
X133328314Y-87706835D01*
X133267553Y-87699643D01*
X133222623Y-87658111D01*
X133210000Y-87609737D01*
X133210000Y-86980761D01*
X133228907Y-86922570D01*
X133278407Y-86886606D01*
X133339593Y-86886606D01*
X133389848Y-86923624D01*
X133424588Y-86972780D01*
X133569466Y-87113913D01*
X133737637Y-87226282D01*
X133923470Y-87306122D01*
X134120740Y-87350760D01*
X134322842Y-87358700D01*
X134376377Y-87350938D01*
X134518519Y-87330329D01*
X134518522Y-87330328D01*
X134523007Y-87329678D01*
X134618769Y-87297171D01*
X134710234Y-87266123D01*
X134710237Y-87266121D01*
X134714531Y-87264664D01*
X134891001Y-87165837D01*
X135046505Y-87036505D01*
X135175837Y-86881001D01*
X135274664Y-86704531D01*
X135339678Y-86513007D01*
X135368700Y-86312842D01*
X135370215Y-86255000D01*
X135351708Y-86053591D01*
X135296807Y-85858926D01*
X135207351Y-85677527D01*
X135086335Y-85515467D01*
X134937812Y-85378174D01*
X134915125Y-85363859D01*
X134770594Y-85272667D01*
X134766757Y-85270246D01*
X134578898Y-85195298D01*
X134380526Y-85155839D01*
X134280930Y-85154535D01*
X134182826Y-85153251D01*
X134182821Y-85153251D01*
X134178286Y-85153192D01*
X134173813Y-85153961D01*
X134173808Y-85153961D01*
X134075245Y-85170898D01*
X133978949Y-85187444D01*
X133789193Y-85257449D01*
X133615371Y-85360862D01*
X133611956Y-85363857D01*
X133611953Y-85363859D01*
X133595630Y-85378174D01*
X133463305Y-85494220D01*
X133460497Y-85497782D01*
X133386747Y-85591334D01*
X133335873Y-85625327D01*
X133274735Y-85622925D01*
X133226685Y-85585046D01*
X133210000Y-85530044D01*
X133210000Y-80819428D01*
X133228907Y-80761237D01*
X133278407Y-80725273D01*
X133339593Y-80725273D01*
X133389093Y-80761237D01*
X133406098Y-80800114D01*
X133418518Y-80862555D01*
X133476477Y-81033296D01*
X133477910Y-81036201D01*
X133477910Y-81036202D01*
X133545521Y-81173304D01*
X133556226Y-81195012D01*
X133558029Y-81197710D01*
X133654599Y-81342238D01*
X133654604Y-81342244D01*
X133656401Y-81344934D01*
X133658540Y-81347373D01*
X133658543Y-81347377D01*
X133726968Y-81425401D01*
X133730795Y-81430469D01*
X133731430Y-81431793D01*
X133734987Y-81436024D01*
X133743257Y-81444294D01*
X133747672Y-81449008D01*
X133759984Y-81463047D01*
X133765634Y-81470120D01*
X133769480Y-81475414D01*
X133769484Y-81475418D01*
X133774064Y-81481722D01*
X133780368Y-81486302D01*
X133780369Y-81486303D01*
X133791972Y-81494733D01*
X133803785Y-81504822D01*
X134344357Y-82045394D01*
X134372517Y-82102562D01*
X134377306Y-82139186D01*
X134380146Y-82145640D01*
X134380147Y-82145644D01*
X134419301Y-82234628D01*
X134432162Y-82263856D01*
X134475983Y-82315988D01*
X134515265Y-82362720D01*
X134515268Y-82362722D01*
X134519804Y-82368119D01*
X134525675Y-82372027D01*
X134525676Y-82372028D01*
X134542616Y-82383304D01*
X134633187Y-82443593D01*
X134639914Y-82445695D01*
X134639917Y-82445696D01*
X134756463Y-82482107D01*
X134756464Y-82482107D01*
X134763195Y-82484210D01*
X134833288Y-82485495D01*
X134892324Y-82486577D01*
X134892326Y-82486577D01*
X134899377Y-82486706D01*
X134906180Y-82484851D01*
X134906182Y-82484851D01*
X134978410Y-82465159D01*
X135030786Y-82450880D01*
X135146858Y-82379612D01*
X135238261Y-82278631D01*
X135297649Y-82156054D01*
X135299401Y-82145644D01*
X135319613Y-82025506D01*
X135319613Y-82025505D01*
X135320247Y-82021737D01*
X135320390Y-82010000D01*
X135301081Y-81875171D01*
X135256253Y-81776577D01*
X135247626Y-81757602D01*
X135247626Y-81757601D01*
X135244706Y-81751180D01*
X135155796Y-81647996D01*
X135041501Y-81573913D01*
X134913447Y-81535617D01*
X134871809Y-81510772D01*
X134803499Y-81442462D01*
X134775722Y-81387945D01*
X134785293Y-81327513D01*
X134828558Y-81284248D01*
X134849669Y-81277777D01*
X134849377Y-81276706D01*
X134980786Y-81240880D01*
X135096858Y-81169612D01*
X135116370Y-81148056D01*
X135183529Y-81073859D01*
X135183529Y-81073858D01*
X135188261Y-81068631D01*
X135247649Y-80946054D01*
X135249809Y-80933219D01*
X135269613Y-80815506D01*
X135269613Y-80815505D01*
X135270247Y-80811737D01*
X135270390Y-80800000D01*
X135251081Y-80665171D01*
X135194706Y-80541180D01*
X135105796Y-80437996D01*
X134991501Y-80363913D01*
X134984746Y-80361893D01*
X134984742Y-80361891D01*
X134872964Y-80328463D01*
X134824804Y-80296421D01*
X134786929Y-80250272D01*
X134776150Y-80234138D01*
X134727635Y-80143372D01*
X134720208Y-80125443D01*
X134710470Y-80093342D01*
X134690329Y-80026946D01*
X134686544Y-80007915D01*
X134678541Y-79926651D01*
X134678993Y-79911276D01*
X134678962Y-79911276D01*
X134678962Y-79903481D01*
X134680181Y-79895787D01*
X134676719Y-79873928D01*
X134675500Y-79858442D01*
X134675500Y-75767722D01*
X134694407Y-75709531D01*
X134743907Y-75673567D01*
X134804021Y-75673226D01*
X134903195Y-75704210D01*
X134973288Y-75705495D01*
X135032324Y-75706577D01*
X135032326Y-75706577D01*
X135039377Y-75706706D01*
X135046180Y-75704851D01*
X135046182Y-75704851D01*
X135160930Y-75673567D01*
X135170786Y-75670880D01*
X135286858Y-75599612D01*
X135378261Y-75498631D01*
X135437649Y-75376054D01*
X135454386Y-75276577D01*
X135459613Y-75245506D01*
X135459613Y-75245505D01*
X135460247Y-75241737D01*
X135460303Y-75237191D01*
X135460343Y-75233827D01*
X135460390Y-75230000D01*
X135441081Y-75095171D01*
X135384706Y-74971180D01*
X135295796Y-74867996D01*
X135181501Y-74793913D01*
X135051006Y-74754887D01*
X134970455Y-74754395D01*
X134921855Y-74754098D01*
X134921854Y-74754098D01*
X134914804Y-74754055D01*
X134908027Y-74755992D01*
X134908026Y-74755992D01*
X134904818Y-74756909D01*
X134801704Y-74786379D01*
X134740559Y-74784190D01*
X134692377Y-74746479D01*
X134675500Y-74691190D01*
X134675500Y-73841559D01*
X134676719Y-73826072D01*
X134678962Y-73811910D01*
X134680181Y-73804214D01*
X134678962Y-73796517D01*
X134678962Y-73788728D01*
X134678993Y-73788728D01*
X134678540Y-73773349D01*
X134683839Y-73719546D01*
X134686341Y-73694131D01*
X139089646Y-73694131D01*
X139090561Y-73701129D01*
X139103418Y-73799450D01*
X139107306Y-73829186D01*
X139110146Y-73835640D01*
X139110147Y-73835644D01*
X139154921Y-73937400D01*
X139162162Y-73953856D01*
X139205983Y-74005987D01*
X139245265Y-74052720D01*
X139245268Y-74052722D01*
X139249804Y-74058119D01*
X139255675Y-74062027D01*
X139255676Y-74062028D01*
X139272616Y-74073304D01*
X139363187Y-74133593D01*
X139369914Y-74135695D01*
X139369917Y-74135696D01*
X139486463Y-74172107D01*
X139486464Y-74172107D01*
X139493195Y-74174210D01*
X139563288Y-74175495D01*
X139622324Y-74176577D01*
X139622326Y-74176577D01*
X139629377Y-74176706D01*
X139636180Y-74174851D01*
X139636182Y-74174851D01*
X139737762Y-74147157D01*
X139760786Y-74140880D01*
X139876858Y-74069612D01*
X139890645Y-74054381D01*
X139963529Y-73973859D01*
X139963529Y-73973858D01*
X139968261Y-73968631D01*
X140027649Y-73846054D01*
X140029332Y-73836054D01*
X140049613Y-73715506D01*
X140049613Y-73715505D01*
X140050247Y-73711737D01*
X140050390Y-73700000D01*
X140049550Y-73694131D01*
X140032081Y-73572155D01*
X140031081Y-73565171D01*
X139974706Y-73441180D01*
X139885796Y-73337996D01*
X139771501Y-73263913D01*
X139641006Y-73224887D01*
X139560455Y-73224395D01*
X139511855Y-73224098D01*
X139511854Y-73224098D01*
X139504804Y-73224055D01*
X139498027Y-73225992D01*
X139498026Y-73225992D01*
X139380622Y-73259546D01*
X139380620Y-73259547D01*
X139373842Y-73261484D01*
X139258650Y-73334165D01*
X139168487Y-73436255D01*
X139110601Y-73559548D01*
X139089646Y-73694131D01*
X134686341Y-73694131D01*
X134686543Y-73692083D01*
X134690328Y-73673054D01*
X134720207Y-73574557D01*
X134727634Y-73556628D01*
X134776150Y-73465861D01*
X134786932Y-73449724D01*
X134838736Y-73386601D01*
X134849932Y-73376046D01*
X134849910Y-73376024D01*
X134855419Y-73370515D01*
X134861722Y-73365936D01*
X134866300Y-73359635D01*
X134866303Y-73359632D01*
X134874735Y-73348026D01*
X134884818Y-73336219D01*
X135083585Y-73137452D01*
X135138099Y-73109677D01*
X135198531Y-73119248D01*
X135244202Y-73167586D01*
X135270305Y-73226909D01*
X135282162Y-73253856D01*
X135325983Y-73305987D01*
X135365265Y-73352720D01*
X135365268Y-73352722D01*
X135369804Y-73358119D01*
X135375675Y-73362027D01*
X135375676Y-73362028D01*
X135407252Y-73383047D01*
X135483187Y-73433593D01*
X135489914Y-73435695D01*
X135489917Y-73435696D01*
X135606463Y-73472107D01*
X135606464Y-73472107D01*
X135613195Y-73474210D01*
X135683288Y-73475495D01*
X135742324Y-73476577D01*
X135742326Y-73476577D01*
X135749377Y-73476706D01*
X135756180Y-73474851D01*
X135756182Y-73474851D01*
X135856130Y-73447602D01*
X135880786Y-73440880D01*
X135996858Y-73369612D01*
X136005892Y-73359632D01*
X136083529Y-73273859D01*
X136083529Y-73273858D01*
X136088261Y-73268631D01*
X136147649Y-73146054D01*
X136153770Y-73109677D01*
X136169613Y-73015506D01*
X136169613Y-73015505D01*
X136170247Y-73011737D01*
X136170390Y-73000000D01*
X136151081Y-72865171D01*
X136094706Y-72741180D01*
X136005796Y-72637996D01*
X135891501Y-72563913D01*
X135761006Y-72524887D01*
X135730228Y-72524699D01*
X135672154Y-72505437D01*
X135636493Y-72455718D01*
X135637087Y-72393878D01*
X135647899Y-72362028D01*
X135671482Y-72292555D01*
X135689070Y-72204133D01*
X135706027Y-72118883D01*
X135706027Y-72118881D01*
X135706658Y-72115710D01*
X135706870Y-72112481D01*
X135713659Y-72008914D01*
X135714538Y-72002620D01*
X135715023Y-72001238D01*
X135715500Y-71995731D01*
X135715500Y-71984055D01*
X135715712Y-71977579D01*
X135716933Y-71958952D01*
X135717939Y-71949944D01*
X135718963Y-71943479D01*
X135718963Y-71943477D01*
X135720181Y-71935786D01*
X135716719Y-71913927D01*
X135715500Y-71898441D01*
X135715500Y-71650001D01*
X138499534Y-71650001D01*
X138519313Y-71800237D01*
X138521797Y-71806234D01*
X138574819Y-71934241D01*
X138574821Y-71934245D01*
X138577302Y-71940234D01*
X138581248Y-71945376D01*
X138581250Y-71945380D01*
X138624112Y-72001238D01*
X138669549Y-72060452D01*
X138674698Y-72064403D01*
X138784621Y-72148751D01*
X138784625Y-72148753D01*
X138789767Y-72152699D01*
X138795756Y-72155180D01*
X138795760Y-72155182D01*
X138872750Y-72187072D01*
X138929764Y-72210688D01*
X139042280Y-72225501D01*
X139117720Y-72225501D01*
X139230236Y-72210688D01*
X139287250Y-72187072D01*
X139364240Y-72155182D01*
X139364244Y-72155180D01*
X139370233Y-72152699D01*
X139375375Y-72148753D01*
X139375379Y-72148751D01*
X139485302Y-72064403D01*
X139490451Y-72060452D01*
X139535888Y-72001238D01*
X139578750Y-71945380D01*
X139578752Y-71945376D01*
X139582698Y-71940234D01*
X139585179Y-71934245D01*
X139585181Y-71934241D01*
X139638203Y-71806234D01*
X139640687Y-71800237D01*
X139660466Y-71650001D01*
X144279534Y-71650001D01*
X144299313Y-71800237D01*
X144301797Y-71806234D01*
X144354819Y-71934241D01*
X144354821Y-71934245D01*
X144357302Y-71940234D01*
X144361248Y-71945376D01*
X144361250Y-71945380D01*
X144404112Y-72001238D01*
X144449549Y-72060452D01*
X144454698Y-72064403D01*
X144564621Y-72148751D01*
X144564625Y-72148753D01*
X144569767Y-72152699D01*
X144575756Y-72155180D01*
X144575760Y-72155182D01*
X144652750Y-72187072D01*
X144709764Y-72210688D01*
X144822280Y-72225501D01*
X144897720Y-72225501D01*
X145010236Y-72210688D01*
X145067250Y-72187072D01*
X145144240Y-72155182D01*
X145144244Y-72155180D01*
X145150233Y-72152699D01*
X145155375Y-72148753D01*
X145155379Y-72148751D01*
X145265302Y-72064403D01*
X145270451Y-72060452D01*
X145315888Y-72001238D01*
X145358750Y-71945380D01*
X145358752Y-71945376D01*
X145362698Y-71940234D01*
X145365179Y-71934245D01*
X145365181Y-71934241D01*
X145418203Y-71806234D01*
X145420687Y-71800237D01*
X145440466Y-71650001D01*
X145420687Y-71499765D01*
X145395754Y-71439572D01*
X145365181Y-71365761D01*
X145365179Y-71365757D01*
X145362698Y-71359768D01*
X145358752Y-71354626D01*
X145358750Y-71354622D01*
X145274402Y-71244699D01*
X145270451Y-71239550D01*
X145265302Y-71235599D01*
X145155379Y-71151251D01*
X145155375Y-71151249D01*
X145150233Y-71147303D01*
X145144244Y-71144822D01*
X145144240Y-71144820D01*
X145016233Y-71091798D01*
X145010236Y-71089314D01*
X144897720Y-71074501D01*
X144822280Y-71074501D01*
X144709764Y-71089314D01*
X144703767Y-71091798D01*
X144575760Y-71144820D01*
X144575756Y-71144822D01*
X144569767Y-71147303D01*
X144564625Y-71151249D01*
X144564621Y-71151251D01*
X144454698Y-71235599D01*
X144449549Y-71239550D01*
X144445598Y-71244699D01*
X144361250Y-71354622D01*
X144361248Y-71354626D01*
X144357302Y-71359768D01*
X144354821Y-71365757D01*
X144354819Y-71365761D01*
X144324246Y-71439572D01*
X144299313Y-71499765D01*
X144279534Y-71650001D01*
X139660466Y-71650001D01*
X139640687Y-71499765D01*
X139615754Y-71439572D01*
X139585181Y-71365761D01*
X139585179Y-71365757D01*
X139582698Y-71359768D01*
X139578752Y-71354626D01*
X139578750Y-71354622D01*
X139494402Y-71244699D01*
X139490451Y-71239550D01*
X139485302Y-71235599D01*
X139375379Y-71151251D01*
X139375375Y-71151249D01*
X139370233Y-71147303D01*
X139364244Y-71144822D01*
X139364240Y-71144820D01*
X139236233Y-71091798D01*
X139230236Y-71089314D01*
X139117720Y-71074501D01*
X139042280Y-71074501D01*
X138929764Y-71089314D01*
X138923767Y-71091798D01*
X138795760Y-71144820D01*
X138795756Y-71144822D01*
X138789767Y-71147303D01*
X138784625Y-71151249D01*
X138784621Y-71151251D01*
X138674698Y-71235599D01*
X138669549Y-71239550D01*
X138665598Y-71244699D01*
X138581250Y-71354622D01*
X138581248Y-71354626D01*
X138577302Y-71359768D01*
X138574821Y-71365757D01*
X138574819Y-71365761D01*
X138544246Y-71439572D01*
X138519313Y-71499765D01*
X138499534Y-71650001D01*
X135715500Y-71650001D01*
X135715500Y-70901559D01*
X135716719Y-70886072D01*
X135720181Y-70864214D01*
X135717939Y-70850056D01*
X135716933Y-70841047D01*
X135706870Y-70687519D01*
X135706869Y-70687514D01*
X135706658Y-70684290D01*
X135671482Y-70507445D01*
X135613523Y-70336704D01*
X135600741Y-70310785D01*
X135535208Y-70177895D01*
X135535205Y-70177890D01*
X135533774Y-70174988D01*
X135438555Y-70032483D01*
X135435401Y-70027762D01*
X135435396Y-70027756D01*
X135433599Y-70025066D01*
X135426522Y-70016996D01*
X135363032Y-69944599D01*
X135359205Y-69939531D01*
X135358570Y-69938207D01*
X135355013Y-69933976D01*
X135346743Y-69925706D01*
X135342328Y-69920992D01*
X135330016Y-69906953D01*
X135324366Y-69899880D01*
X135320520Y-69894586D01*
X135320516Y-69894582D01*
X135315936Y-69888278D01*
X135298028Y-69875267D01*
X135286215Y-69865178D01*
X134559815Y-69138778D01*
X134549727Y-69126965D01*
X134541301Y-69115368D01*
X134536721Y-69109064D01*
X134530418Y-69104484D01*
X134524909Y-69098975D01*
X134524931Y-69098953D01*
X134513741Y-69088403D01*
X134461933Y-69025276D01*
X134451150Y-69009138D01*
X134402635Y-68918372D01*
X134395208Y-68900443D01*
X134379142Y-68847481D01*
X134365329Y-68801946D01*
X134361544Y-68782915D01*
X134353541Y-68701651D01*
X134353993Y-68686276D01*
X134353962Y-68686276D01*
X134353962Y-68678482D01*
X134355181Y-68670787D01*
X134351719Y-68648927D01*
X134350500Y-68633442D01*
X134350500Y-68207095D01*
X134369407Y-68148904D01*
X134418907Y-68112940D01*
X134479022Y-68112599D01*
X134541463Y-68132107D01*
X134541464Y-68132107D01*
X134548195Y-68134210D01*
X134618288Y-68135495D01*
X134677324Y-68136577D01*
X134677326Y-68136577D01*
X134684377Y-68136706D01*
X134691180Y-68134851D01*
X134691182Y-68134851D01*
X134798121Y-68105696D01*
X134815786Y-68100880D01*
X134887824Y-68056649D01*
X134898821Y-68049897D01*
X134958304Y-68035561D01*
X135005479Y-68051851D01*
X135068187Y-68093593D01*
X135074914Y-68095695D01*
X135074917Y-68095696D01*
X135191463Y-68132107D01*
X135191464Y-68132107D01*
X135198195Y-68134210D01*
X135268288Y-68135495D01*
X135327324Y-68136577D01*
X135327326Y-68136577D01*
X135334377Y-68136706D01*
X135341180Y-68134851D01*
X135341182Y-68134851D01*
X135448121Y-68105696D01*
X135465786Y-68100880D01*
X135541006Y-68054695D01*
X135600489Y-68040359D01*
X135647664Y-68056649D01*
X135718187Y-68103593D01*
X135724914Y-68105695D01*
X135724917Y-68105696D01*
X135841463Y-68142107D01*
X135841464Y-68142107D01*
X135848195Y-68144210D01*
X135918288Y-68145495D01*
X135977324Y-68146577D01*
X135977326Y-68146577D01*
X135984377Y-68146706D01*
X135991180Y-68144851D01*
X135991182Y-68144851D01*
X136066892Y-68124210D01*
X136115786Y-68110880D01*
X136231858Y-68039612D01*
X136251313Y-68018119D01*
X136318529Y-67943859D01*
X136318529Y-67943858D01*
X136323261Y-67938631D01*
X136382649Y-67816054D01*
X136387170Y-67789186D01*
X136404613Y-67685506D01*
X136404613Y-67685505D01*
X136405247Y-67681737D01*
X136405390Y-67670000D01*
X136386081Y-67535171D01*
X136329706Y-67411180D01*
X136240796Y-67307996D01*
X136126501Y-67233913D01*
X135996006Y-67194887D01*
X135915455Y-67194395D01*
X135866855Y-67194098D01*
X135866854Y-67194098D01*
X135859804Y-67194055D01*
X135853027Y-67195992D01*
X135853026Y-67195992D01*
X135735622Y-67229546D01*
X135735620Y-67229547D01*
X135728842Y-67231484D01*
X135668469Y-67269577D01*
X135660438Y-67274644D01*
X135601135Y-67289705D01*
X135553763Y-67273992D01*
X135488811Y-67231892D01*
X135476501Y-67223913D01*
X135346006Y-67184887D01*
X135265455Y-67184395D01*
X135216855Y-67184098D01*
X135216854Y-67184098D01*
X135209804Y-67184055D01*
X135203027Y-67185992D01*
X135203026Y-67185992D01*
X135085622Y-67219546D01*
X135085620Y-67219547D01*
X135078842Y-67221484D01*
X135002619Y-67269577D01*
X134943318Y-67284638D01*
X134895945Y-67268925D01*
X134832421Y-67227750D01*
X134832420Y-67227750D01*
X134826501Y-67223913D01*
X134696006Y-67184887D01*
X134615455Y-67184395D01*
X134566855Y-67184098D01*
X134566854Y-67184098D01*
X134559804Y-67184055D01*
X134553027Y-67185992D01*
X134553026Y-67185992D01*
X134435622Y-67219546D01*
X134435620Y-67219547D01*
X134428842Y-67221484D01*
X134352619Y-67269577D01*
X134293318Y-67284638D01*
X134245945Y-67268925D01*
X134182421Y-67227750D01*
X134182420Y-67227750D01*
X134176501Y-67223913D01*
X134046006Y-67184887D01*
X133965455Y-67184395D01*
X133916855Y-67184098D01*
X133916854Y-67184098D01*
X133909804Y-67184055D01*
X133903027Y-67185992D01*
X133903026Y-67185992D01*
X133785622Y-67219546D01*
X133785620Y-67219547D01*
X133778842Y-67221484D01*
X133663650Y-67294165D01*
X133573487Y-67396255D01*
X133515601Y-67519548D01*
X133494646Y-67654131D01*
X133512306Y-67789186D01*
X133515146Y-67795640D01*
X133515147Y-67795644D01*
X133558602Y-67894402D01*
X133567162Y-67913856D01*
X133571699Y-67919254D01*
X133571700Y-67919255D01*
X133576284Y-67924708D01*
X133599253Y-67981418D01*
X133599500Y-67988409D01*
X133599500Y-68633440D01*
X133598281Y-68648926D01*
X133594819Y-68670785D01*
X133597063Y-68684954D01*
X133598069Y-68693954D01*
X133599647Y-68718032D01*
X133602624Y-68763455D01*
X133608342Y-68850709D01*
X133608971Y-68853871D01*
X133608972Y-68853879D01*
X133620090Y-68909772D01*
X133643519Y-69027555D01*
X133701478Y-69198296D01*
X133729796Y-69255720D01*
X133767470Y-69332114D01*
X133781227Y-69360011D01*
X133783029Y-69362707D01*
X133783029Y-69362708D01*
X133869883Y-69492694D01*
X133881402Y-69509934D01*
X133883530Y-69512361D01*
X133883535Y-69512367D01*
X133951966Y-69590396D01*
X133955793Y-69595466D01*
X133956430Y-69596793D01*
X133959987Y-69601024D01*
X133968264Y-69609301D01*
X133972680Y-69614016D01*
X133984986Y-69628049D01*
X133990636Y-69635121D01*
X133994484Y-69640418D01*
X133994487Y-69640421D01*
X133999065Y-69646722D01*
X134005366Y-69651300D01*
X134005368Y-69651302D01*
X134016965Y-69659727D01*
X134028779Y-69669816D01*
X134755178Y-70396215D01*
X134765267Y-70408028D01*
X134778278Y-70425936D01*
X134784581Y-70430515D01*
X134790090Y-70436024D01*
X134790068Y-70436046D01*
X134801264Y-70446601D01*
X134853068Y-70509724D01*
X134863850Y-70525861D01*
X134912366Y-70616628D01*
X134919793Y-70634557D01*
X134949672Y-70733054D01*
X134953457Y-70752085D01*
X134961460Y-70833349D01*
X134961007Y-70848728D01*
X134961038Y-70848728D01*
X134961038Y-70856517D01*
X134959819Y-70864214D01*
X134963281Y-70886072D01*
X134964500Y-70901559D01*
X134964500Y-71473977D01*
X134945593Y-71532168D01*
X134896093Y-71568132D01*
X134834907Y-71568132D01*
X134830108Y-71566251D01*
X134826501Y-71563913D01*
X134696006Y-71524887D01*
X134615455Y-71524395D01*
X134566855Y-71524098D01*
X134566854Y-71524098D01*
X134559804Y-71524055D01*
X134553027Y-71525992D01*
X134553026Y-71525992D01*
X134435622Y-71559546D01*
X134435620Y-71559547D01*
X134428842Y-71561484D01*
X134313650Y-71634165D01*
X134293982Y-71656435D01*
X134261648Y-71693046D01*
X134208956Y-71724146D01*
X134148047Y-71718334D01*
X134112445Y-71692134D01*
X134070403Y-71643341D01*
X134070397Y-71643336D01*
X134065796Y-71637996D01*
X133951501Y-71563913D01*
X133821006Y-71524887D01*
X133740455Y-71524395D01*
X133691855Y-71524098D01*
X133691854Y-71524098D01*
X133684804Y-71524055D01*
X133678027Y-71525992D01*
X133678026Y-71525992D01*
X133560622Y-71559546D01*
X133560620Y-71559547D01*
X133553842Y-71561484D01*
X133438650Y-71634165D01*
X133433982Y-71639450D01*
X133433979Y-71639453D01*
X133383204Y-71696945D01*
X133330512Y-71728046D01*
X133269603Y-71722234D01*
X133223743Y-71681732D01*
X133210000Y-71631411D01*
X133210000Y-66844376D01*
X133211902Y-66825062D01*
X133212996Y-66819563D01*
X133212996Y-66819562D01*
X133214898Y-66810000D01*
X133212995Y-66800436D01*
X133212995Y-66790687D01*
X133213988Y-66790687D01*
X133213495Y-66778981D01*
X133222541Y-66698701D01*
X133227473Y-66677089D01*
X133245009Y-66626973D01*
X133260785Y-66581887D01*
X133270401Y-66561920D01*
X133324057Y-66476528D01*
X133337878Y-66459196D01*
X133409196Y-66387878D01*
X133426528Y-66374057D01*
X133426831Y-66373867D01*
X133511920Y-66320401D01*
X133531887Y-66310785D01*
X133611307Y-66282995D01*
X133627089Y-66277473D01*
X133648701Y-66272541D01*
X133728981Y-66263495D01*
X133740687Y-66263988D01*
X133740687Y-66262995D01*
X133750436Y-66262995D01*
X133760000Y-66264898D01*
X133769562Y-66262996D01*
X133769563Y-66262996D01*
X133775062Y-66261902D01*
X133794376Y-66260000D01*
X149995624Y-66260000D01*
X150014938Y-66261902D01*
G37*
%TD.AperFunction*%
%TA.AperFunction,Conductor*%
G36*
X149839816Y-72457533D02*
G01*
X149878102Y-72480697D01*
X149880381Y-72483833D01*
X149886689Y-72488416D01*
X149889190Y-72490917D01*
X149904358Y-72505218D01*
X149952281Y-72563613D01*
X149963063Y-72579750D01*
X150009269Y-72666195D01*
X150016696Y-72684123D01*
X150045152Y-72777931D01*
X150048936Y-72796958D01*
X150055023Y-72858749D01*
X150056341Y-72872136D01*
X150055727Y-72892984D01*
X150055727Y-72896517D01*
X150054508Y-72904214D01*
X150055727Y-72911911D01*
X150058281Y-72928036D01*
X150059500Y-72943523D01*
X150059500Y-77366477D01*
X150058281Y-77381963D01*
X150054508Y-77405786D01*
X150055727Y-77413483D01*
X150055727Y-77417016D01*
X150056341Y-77437862D01*
X150048937Y-77513039D01*
X150045152Y-77532069D01*
X150041591Y-77543809D01*
X150016696Y-77625876D01*
X150009269Y-77643805D01*
X149963063Y-77730250D01*
X149952281Y-77746387D01*
X149904358Y-77804782D01*
X149889190Y-77819083D01*
X149886689Y-77821584D01*
X149880381Y-77826167D01*
X149878052Y-77829372D01*
X149837316Y-77853344D01*
X149773843Y-77871484D01*
X149773101Y-77868888D01*
X149724072Y-77874120D01*
X149671035Y-77843613D01*
X149646059Y-77787757D01*
X149645500Y-77777251D01*
X149645500Y-72531474D01*
X149664407Y-72473283D01*
X149713907Y-72437319D01*
X149774022Y-72436978D01*
X149839816Y-72457533D01*
G37*
%TD.AperFunction*%
%TD*%
M02*
