%TF.GenerationSoftware,KiCad,Pcbnew,(5.1.8)-1*%
%TF.CreationDate,2021-10-03T21:30:47+08:00*%
%TF.ProjectId,-18v~18v Dual-Power,2d313876-7e31-4387-9620-4475616c2d50,rev?*%
%TF.SameCoordinates,Original*%
%TF.FileFunction,Copper,L3,Inr*%
%TF.FilePolarity,Positive*%
%FSLAX46Y46*%
G04 Gerber Fmt 4.6, Leading zero omitted, Abs format (unit mm)*
G04 Created by KiCad (PCBNEW (5.1.8)-1) date 2021-10-03 21:30:47*
%MOMM*%
%LPD*%
G01*
G04 APERTURE LIST*
%TA.AperFunction,ComponentPad*%
%ADD10O,3.300000X2.700000*%
%TD*%
%TA.AperFunction,ComponentPad*%
%ADD11C,1.500000*%
%TD*%
%TA.AperFunction,ViaPad*%
%ADD12C,0.500000*%
%TD*%
%TA.AperFunction,ViaPad*%
%ADD13C,0.450000*%
%TD*%
%TA.AperFunction,ViaPad*%
%ADD14C,0.550000*%
%TD*%
%TA.AperFunction,Conductor*%
%ADD15C,0.500000*%
%TD*%
%TA.AperFunction,Conductor*%
%ADD16C,0.250000*%
%TD*%
%TA.AperFunction,Conductor*%
%ADD17C,0.100000*%
%TD*%
G04 APERTURE END LIST*
D10*
%TO.N,GND*%
%TO.C,J3*%
X116600000Y-66700000D03*
X116600000Y-70900000D03*
%TO.N,VIN*%
X122100000Y-66700000D03*
%TA.AperFunction,ComponentPad*%
G36*
G01*
X123499999Y-72250000D02*
X120700001Y-72250000D01*
G75*
G02*
X120450000Y-71999999I0J250001D01*
G01*
X120450000Y-69800001D01*
G75*
G02*
X120700001Y-69550000I250001J0D01*
G01*
X123499999Y-69550000D01*
G75*
G02*
X123750000Y-69800001I0J-250001D01*
G01*
X123750000Y-71999999D01*
G75*
G02*
X123499999Y-72250000I-250001J0D01*
G01*
G37*
%TD.AperFunction*%
%TD*%
D11*
%TO.N,GND*%
%TO.C,J2*%
X166500000Y-108110000D03*
X166500000Y-105110000D03*
X166500000Y-102110000D03*
X166500000Y-99110000D03*
X166500000Y-96110000D03*
%TO.N,Vout2(-12V)*%
X163500000Y-108110000D03*
X163500000Y-105110000D03*
X163500000Y-102110000D03*
X163500000Y-99110000D03*
%TA.AperFunction,ComponentPad*%
G36*
G01*
X163000000Y-95360000D02*
X164000000Y-95360000D01*
G75*
G02*
X164250000Y-95610000I0J-250000D01*
G01*
X164250000Y-96610000D01*
G75*
G02*
X164000000Y-96860000I-250000J0D01*
G01*
X163000000Y-96860000D01*
G75*
G02*
X162750000Y-96610000I0J250000D01*
G01*
X162750000Y-95610000D01*
G75*
G02*
X163000000Y-95360000I250000J0D01*
G01*
G37*
%TD.AperFunction*%
%TD*%
%TO.N,GND*%
%TO.C,J1*%
X166500000Y-77860000D03*
X166500000Y-74860000D03*
X166500000Y-71860000D03*
X166500000Y-68860000D03*
X166500000Y-65860000D03*
%TO.N,Vout1(12V)*%
X163500000Y-77860000D03*
X163500000Y-74860000D03*
X163500000Y-71860000D03*
X163500000Y-68860000D03*
%TA.AperFunction,ComponentPad*%
G36*
G01*
X163000000Y-65110000D02*
X164000000Y-65110000D01*
G75*
G02*
X164250000Y-65360000I0J-250000D01*
G01*
X164250000Y-66360000D01*
G75*
G02*
X164000000Y-66610000I-250000J0D01*
G01*
X163000000Y-66610000D01*
G75*
G02*
X162750000Y-66360000I0J250000D01*
G01*
X162750000Y-65360000D01*
G75*
G02*
X163000000Y-65110000I250000J0D01*
G01*
G37*
%TD.AperFunction*%
%TD*%
D12*
%TO.N,GND*%
X141600000Y-86160000D03*
X142400000Y-86160000D03*
X143200000Y-86160000D03*
X144000000Y-86160000D03*
X141600000Y-86960000D03*
X142400000Y-86960000D03*
X143200000Y-86960000D03*
X144000000Y-86960000D03*
X141600000Y-87760000D03*
X142400000Y-87760000D03*
X143200000Y-87760000D03*
X144000000Y-87760000D03*
X141600000Y-88560000D03*
X142400000Y-88560000D03*
X143200000Y-88560000D03*
X144000000Y-88560000D03*
D13*
X138030000Y-88600000D03*
D12*
X140600000Y-89930000D03*
D13*
X117400000Y-60700000D03*
X118400000Y-60700000D03*
X119400000Y-60700000D03*
X120400000Y-60700000D03*
X121400000Y-60700000D03*
X122400000Y-60700000D03*
X123400000Y-60700000D03*
X124400000Y-60700000D03*
X125400000Y-60700000D03*
X126400000Y-60700000D03*
X127400000Y-60700000D03*
X128400000Y-60700000D03*
X129400000Y-60700000D03*
X130400000Y-60700000D03*
X131400000Y-60700000D03*
X132400000Y-60700000D03*
X133400000Y-60700000D03*
X134400000Y-60700000D03*
X135400000Y-60700000D03*
X136400000Y-60700000D03*
X137400000Y-60700000D03*
X138400000Y-60700000D03*
X139400000Y-60700000D03*
X140400000Y-60700000D03*
X141400000Y-60700000D03*
X142400000Y-60700000D03*
X143400000Y-60700000D03*
X144400000Y-60700000D03*
X145400000Y-60700000D03*
X146400000Y-60700000D03*
X147400000Y-60700000D03*
X148400000Y-60700000D03*
X149400000Y-60700000D03*
X150400000Y-60700000D03*
X151400000Y-60700000D03*
X152400000Y-60700000D03*
X153400000Y-60700000D03*
X154400000Y-60700000D03*
X155400000Y-60700000D03*
X156400000Y-60700000D03*
X157400000Y-60700000D03*
X158400000Y-60700000D03*
X159400000Y-60700000D03*
X160400000Y-60700000D03*
X161400000Y-60700000D03*
X162400000Y-60700000D03*
X163400000Y-60700000D03*
X164400000Y-60700000D03*
X142400000Y-113800000D03*
X128400000Y-113800000D03*
X144400000Y-113800000D03*
X136400000Y-113800000D03*
X134400000Y-113800000D03*
X152400000Y-113800000D03*
X119400000Y-113800000D03*
X129400000Y-113800000D03*
X124400000Y-113800000D03*
X123400000Y-113800000D03*
X118400000Y-113800000D03*
X125400000Y-113800000D03*
X117400000Y-113800000D03*
X137400000Y-113800000D03*
X138400000Y-113800000D03*
X121400000Y-113800000D03*
X141400000Y-113800000D03*
X143400000Y-113800000D03*
X146400000Y-113800000D03*
X149400000Y-113800000D03*
X120400000Y-113800000D03*
X150400000Y-113800000D03*
X151400000Y-113800000D03*
X154400000Y-113800000D03*
X155400000Y-113800000D03*
X147400000Y-113800000D03*
X158400000Y-113800000D03*
X139400000Y-113800000D03*
X159400000Y-113800000D03*
X132400000Y-113800000D03*
X160400000Y-113800000D03*
X161400000Y-113800000D03*
X145400000Y-113800000D03*
X133400000Y-113800000D03*
X130400000Y-113800000D03*
X148400000Y-113800000D03*
X153400000Y-113800000D03*
X122400000Y-113800000D03*
X126400000Y-113800000D03*
X156400000Y-113800000D03*
X157400000Y-113800000D03*
X127400000Y-113800000D03*
X135400000Y-113800000D03*
X131400000Y-113800000D03*
X140400000Y-113800000D03*
X163400000Y-113800000D03*
X164400000Y-113800000D03*
X162400000Y-113800000D03*
X169400000Y-83900000D03*
X169400000Y-72900000D03*
X169400000Y-101900000D03*
X169400000Y-96900000D03*
X169400000Y-86900000D03*
X169400000Y-100900000D03*
X169400000Y-69900000D03*
X169400000Y-91900000D03*
X169400000Y-105900000D03*
X169400000Y-73900000D03*
X169400001Y-107900000D03*
X169400000Y-95900000D03*
X169400001Y-84900000D03*
X169400001Y-103900000D03*
X169400000Y-104900000D03*
X169400000Y-74900000D03*
X169400000Y-108900000D03*
X169400000Y-81900000D03*
X169400000Y-68900000D03*
X169400000Y-88900000D03*
X169400001Y-75900000D03*
X169400000Y-97900000D03*
X169400000Y-76900000D03*
X169400000Y-90900000D03*
X169400000Y-99900000D03*
X169400000Y-67900000D03*
X169400001Y-98900000D03*
X169400000Y-63900000D03*
X169400000Y-106900000D03*
X169400001Y-66900000D03*
X169400001Y-70900000D03*
X169400001Y-93900000D03*
X169400001Y-102900000D03*
X169400001Y-94900000D03*
X169400000Y-65900000D03*
X169400001Y-71900000D03*
X169400000Y-79900000D03*
X169400000Y-85900000D03*
X169400000Y-92900000D03*
X169400001Y-80900000D03*
X169400000Y-64900000D03*
X169400000Y-77900000D03*
X169400001Y-89900000D03*
X169400001Y-112900000D03*
X169400000Y-87900000D03*
X169400000Y-111900000D03*
X169400000Y-78900000D03*
X169400000Y-110900000D03*
X169400001Y-62900000D03*
X169400000Y-109900000D03*
X169400000Y-82900000D03*
X133200000Y-94900000D03*
X132466665Y-94900000D03*
X169400000Y-61800000D03*
X167400000Y-60700000D03*
X169400000Y-60700000D03*
X168400000Y-60700000D03*
X165400000Y-60700000D03*
X166400000Y-60700000D03*
X165400000Y-113800000D03*
X166400000Y-113800000D03*
X169400000Y-113800000D03*
X167400000Y-113800000D03*
X168400000Y-113800000D03*
%TO.N,VIN*%
X146849982Y-87199990D03*
X123400000Y-84200000D03*
X123400000Y-85200000D03*
X123400000Y-86200000D03*
X123400000Y-87200000D03*
X123400000Y-88200000D03*
X123400000Y-89200000D03*
X134500002Y-80600000D03*
X135910016Y-91010014D03*
X121800000Y-86200000D03*
X121800000Y-87200000D03*
X122600000Y-88700000D03*
X121800000Y-89200000D03*
X121800000Y-84200000D03*
X121800000Y-85200000D03*
X122600000Y-89700000D03*
X122600000Y-84700000D03*
X122600000Y-86700000D03*
X122600000Y-87700000D03*
X122600000Y-85700000D03*
X121800000Y-88200000D03*
X123100000Y-73199999D03*
X121100000Y-73200000D03*
X122100000Y-73200000D03*
X121100000Y-64500000D03*
X123100000Y-64499999D03*
X122100000Y-64500000D03*
%TO.N,INTVcc*%
X138890000Y-87990000D03*
X135960000Y-86800000D03*
X136790000Y-95990000D03*
%TO.N,Vout2(-12V)*%
X143890000Y-98140000D03*
X160900000Y-105300000D03*
X160900000Y-106700000D03*
X160900000Y-101800000D03*
X160900000Y-108100000D03*
X160900000Y-103200000D03*
X160900000Y-107400000D03*
X160900000Y-106000000D03*
X160900000Y-104600000D03*
X160900000Y-103900000D03*
X160900000Y-102500000D03*
X160400000Y-96900000D03*
X157400000Y-96900000D03*
X161400000Y-96900000D03*
X158400000Y-96900000D03*
X159400000Y-96900000D03*
X158400000Y-94900000D03*
X159400000Y-95900000D03*
X158400000Y-95900000D03*
X161400000Y-94900000D03*
X159400000Y-94900000D03*
X157400000Y-95900000D03*
X157400000Y-94900000D03*
X160400000Y-95900000D03*
X161400000Y-95900000D03*
X160400000Y-94900000D03*
%TO.N,Net-(C23-Pad1)*%
X147600000Y-80200000D03*
%TO.N,Vout1(12V)*%
X140550000Y-84450000D03*
X155100000Y-76400000D03*
X160500000Y-65800000D03*
X160500000Y-68600000D03*
X160500000Y-67900000D03*
X160500000Y-67200000D03*
X160500000Y-66500000D03*
X160500000Y-69300000D03*
X160500000Y-70000000D03*
X160500000Y-71400000D03*
X160500000Y-70700000D03*
X160500000Y-72100000D03*
X157300000Y-76600000D03*
X158300000Y-76600000D03*
X159300000Y-76600000D03*
X160300000Y-76600000D03*
X161300000Y-76600000D03*
X157300000Y-77600000D03*
X158300000Y-77600000D03*
X159300000Y-77600000D03*
X160300000Y-77600000D03*
X161300000Y-77600000D03*
X157300000Y-78600000D03*
X158300000Y-78600000D03*
X159300000Y-78600000D03*
X160300000Y-78600000D03*
X161300000Y-78600000D03*
%TO.N,Net-(C25-Pad1)*%
X141220000Y-83700000D03*
X153850000Y-74630000D03*
%TO.N,Net-(D1-Pad2)*%
X138070000Y-86200000D03*
%TO.N,Net-(D2-Pad2)*%
X138070000Y-87410000D03*
%TO.N,Net-(Q1-Pad4)*%
X136100000Y-104400000D03*
D14*
X145490000Y-90460000D03*
D13*
%TO.N,Net-(Q1-Pad1)*%
X138100000Y-103200004D03*
X137990011Y-93649989D03*
D14*
%TO.N,Net-(Q2-Pad4)*%
X136900000Y-81900000D03*
D13*
X147200000Y-86100000D03*
%TO.N,Net-(Q3-Pad4)*%
X137000000Y-68700000D03*
X137000000Y-74400000D03*
X146150001Y-83550005D03*
%TD*%
D15*
%TO.N,Vout1(12V)*%
X149800000Y-76400000D02*
X155100000Y-76400000D01*
X141600000Y-84600000D02*
X149800000Y-76400000D01*
X140700000Y-84600000D02*
X141600000Y-84600000D01*
X140550000Y-84450000D02*
X140700000Y-84600000D01*
%TO.N,Net-(C25-Pad1)*%
X141220000Y-83700000D02*
X150290000Y-74630000D01*
X150290000Y-74630000D02*
X153850000Y-74630000D01*
%TD*%
D16*
%TO.N,GND*%
X169333260Y-60094310D02*
X169642983Y-60346915D01*
X169897738Y-60654861D01*
X170075000Y-60982700D01*
X170075000Y-113514835D01*
X169905692Y-113833258D01*
X169653090Y-114142979D01*
X169345141Y-114397736D01*
X169017299Y-114575000D01*
X113985165Y-114575000D01*
X113666742Y-114405692D01*
X113357021Y-114153090D01*
X113102264Y-113845141D01*
X112925000Y-113517299D01*
X112925000Y-112749801D01*
X113275000Y-112749801D01*
X113275000Y-113050199D01*
X113333605Y-113344826D01*
X113448562Y-113622358D01*
X113615455Y-113872131D01*
X113827869Y-114084545D01*
X114077642Y-114251438D01*
X114355174Y-114366395D01*
X114649801Y-114425000D01*
X114950199Y-114425000D01*
X115244826Y-114366395D01*
X115522358Y-114251438D01*
X115772131Y-114084545D01*
X115984545Y-113872131D01*
X116151438Y-113622358D01*
X116266395Y-113344826D01*
X116325000Y-113050199D01*
X116325000Y-112749801D01*
X116266395Y-112455174D01*
X116151438Y-112177642D01*
X115984545Y-111927869D01*
X115772131Y-111715455D01*
X115522358Y-111548562D01*
X115244826Y-111433605D01*
X114950199Y-111375000D01*
X114649801Y-111375000D01*
X114355174Y-111433605D01*
X114077642Y-111548562D01*
X113827869Y-111715455D01*
X113615455Y-111927869D01*
X113448562Y-112177642D01*
X113333605Y-112455174D01*
X113275000Y-112749801D01*
X112925000Y-112749801D01*
X112925000Y-111018895D01*
X166515000Y-111018895D01*
X166515000Y-111201105D01*
X166550547Y-111379813D01*
X166620275Y-111548152D01*
X166721505Y-111699653D01*
X166850347Y-111828495D01*
X167001848Y-111929725D01*
X167170187Y-111999453D01*
X167348895Y-112035000D01*
X167531105Y-112035000D01*
X167709813Y-111999453D01*
X167878152Y-111929725D01*
X168029653Y-111828495D01*
X168158495Y-111699653D01*
X168259725Y-111548152D01*
X168329453Y-111379813D01*
X168365000Y-111201105D01*
X168365000Y-111018895D01*
X168329453Y-110840187D01*
X168259725Y-110671848D01*
X168158495Y-110520347D01*
X168029653Y-110391505D01*
X167878152Y-110290275D01*
X167709813Y-110220547D01*
X167531105Y-110185000D01*
X167348895Y-110185000D01*
X167170187Y-110220547D01*
X167001848Y-110290275D01*
X166850347Y-110391505D01*
X166721505Y-110520347D01*
X166620275Y-110671848D01*
X166550547Y-110840187D01*
X166515000Y-111018895D01*
X112925000Y-111018895D01*
X112925000Y-104335981D01*
X135450000Y-104335981D01*
X135450000Y-104464019D01*
X135474979Y-104589598D01*
X135523978Y-104707890D01*
X135595112Y-104814351D01*
X135685649Y-104904888D01*
X135792110Y-104976022D01*
X135910402Y-105025021D01*
X136035981Y-105050000D01*
X136164019Y-105050000D01*
X136289598Y-105025021D01*
X136407890Y-104976022D01*
X136514351Y-104904888D01*
X136604888Y-104814351D01*
X136676022Y-104707890D01*
X136725021Y-104589598D01*
X136750000Y-104464019D01*
X136750000Y-104335981D01*
X136725021Y-104210402D01*
X136676022Y-104092110D01*
X136604888Y-103985649D01*
X136514351Y-103895112D01*
X136407890Y-103823978D01*
X136289598Y-103774979D01*
X136164019Y-103750000D01*
X136035981Y-103750000D01*
X135910402Y-103774979D01*
X135792110Y-103823978D01*
X135685649Y-103895112D01*
X135595112Y-103985649D01*
X135523978Y-104092110D01*
X135474979Y-104210402D01*
X135450000Y-104335981D01*
X112925000Y-104335981D01*
X112925000Y-103135985D01*
X137450000Y-103135985D01*
X137450000Y-103264023D01*
X137474979Y-103389602D01*
X137523978Y-103507894D01*
X137595112Y-103614355D01*
X137685649Y-103704892D01*
X137792110Y-103776026D01*
X137910402Y-103825025D01*
X138035981Y-103850004D01*
X138164019Y-103850004D01*
X138289598Y-103825025D01*
X138407890Y-103776026D01*
X138514351Y-103704892D01*
X138604888Y-103614355D01*
X138676022Y-103507894D01*
X138725021Y-103389602D01*
X138750000Y-103264023D01*
X138750000Y-103135985D01*
X138725021Y-103010406D01*
X138676022Y-102892114D01*
X138604888Y-102785653D01*
X138514351Y-102695116D01*
X138407890Y-102623982D01*
X138289598Y-102574983D01*
X138164019Y-102550004D01*
X138035981Y-102550004D01*
X137910402Y-102574983D01*
X137792110Y-102623982D01*
X137685649Y-102695116D01*
X137595112Y-102785653D01*
X137523978Y-102892114D01*
X137474979Y-103010406D01*
X137450000Y-103135985D01*
X112925000Y-103135985D01*
X112925000Y-101735981D01*
X160250000Y-101735981D01*
X160250000Y-101864019D01*
X160274979Y-101989598D01*
X160323978Y-102107890D01*
X160352115Y-102150000D01*
X160323978Y-102192110D01*
X160274979Y-102310402D01*
X160250000Y-102435981D01*
X160250000Y-102564019D01*
X160274979Y-102689598D01*
X160323978Y-102807890D01*
X160352115Y-102850000D01*
X160323978Y-102892110D01*
X160274979Y-103010402D01*
X160250000Y-103135981D01*
X160250000Y-103264019D01*
X160274979Y-103389598D01*
X160323978Y-103507890D01*
X160352115Y-103550000D01*
X160323978Y-103592110D01*
X160274979Y-103710402D01*
X160250000Y-103835981D01*
X160250000Y-103964019D01*
X160274979Y-104089598D01*
X160323978Y-104207890D01*
X160352115Y-104250000D01*
X160323978Y-104292110D01*
X160274979Y-104410402D01*
X160250000Y-104535981D01*
X160250000Y-104664019D01*
X160274979Y-104789598D01*
X160323978Y-104907890D01*
X160352115Y-104950000D01*
X160323978Y-104992110D01*
X160274979Y-105110402D01*
X160250000Y-105235981D01*
X160250000Y-105364019D01*
X160274979Y-105489598D01*
X160323978Y-105607890D01*
X160352115Y-105650000D01*
X160323978Y-105692110D01*
X160274979Y-105810402D01*
X160250000Y-105935981D01*
X160250000Y-106064019D01*
X160274979Y-106189598D01*
X160323978Y-106307890D01*
X160352115Y-106350000D01*
X160323978Y-106392110D01*
X160274979Y-106510402D01*
X160250000Y-106635981D01*
X160250000Y-106764019D01*
X160274979Y-106889598D01*
X160323978Y-107007890D01*
X160352115Y-107050000D01*
X160323978Y-107092110D01*
X160274979Y-107210402D01*
X160250000Y-107335981D01*
X160250000Y-107464019D01*
X160274979Y-107589598D01*
X160323978Y-107707890D01*
X160352115Y-107750000D01*
X160323978Y-107792110D01*
X160274979Y-107910402D01*
X160250000Y-108035981D01*
X160250000Y-108164019D01*
X160274979Y-108289598D01*
X160323978Y-108407890D01*
X160395112Y-108514351D01*
X160485649Y-108604888D01*
X160592110Y-108676022D01*
X160710402Y-108725021D01*
X160835981Y-108750000D01*
X160964019Y-108750000D01*
X161089598Y-108725021D01*
X161207890Y-108676022D01*
X161314351Y-108604888D01*
X161404888Y-108514351D01*
X161476022Y-108407890D01*
X161525021Y-108289598D01*
X161550000Y-108164019D01*
X161550000Y-108035981D01*
X161541704Y-107994273D01*
X162325000Y-107994273D01*
X162325000Y-108225727D01*
X162370155Y-108452735D01*
X162458729Y-108666571D01*
X162587318Y-108859019D01*
X162750981Y-109022682D01*
X162943429Y-109151271D01*
X163157265Y-109239845D01*
X163384273Y-109285000D01*
X163615727Y-109285000D01*
X163842735Y-109239845D01*
X164056571Y-109151271D01*
X164249019Y-109022682D01*
X164412682Y-108859019D01*
X164541271Y-108666571D01*
X164629845Y-108452735D01*
X164675000Y-108225727D01*
X164675000Y-107994273D01*
X164629845Y-107767265D01*
X164541271Y-107553429D01*
X164412682Y-107360981D01*
X164249019Y-107197318D01*
X164056571Y-107068729D01*
X163842735Y-106980155D01*
X163615727Y-106935000D01*
X163384273Y-106935000D01*
X163157265Y-106980155D01*
X162943429Y-107068729D01*
X162750981Y-107197318D01*
X162587318Y-107360981D01*
X162458729Y-107553429D01*
X162370155Y-107767265D01*
X162325000Y-107994273D01*
X161541704Y-107994273D01*
X161525021Y-107910402D01*
X161476022Y-107792110D01*
X161447885Y-107750000D01*
X161476022Y-107707890D01*
X161525021Y-107589598D01*
X161550000Y-107464019D01*
X161550000Y-107335981D01*
X161525021Y-107210402D01*
X161476022Y-107092110D01*
X161447885Y-107050000D01*
X161476022Y-107007890D01*
X161525021Y-106889598D01*
X161550000Y-106764019D01*
X161550000Y-106635981D01*
X161525021Y-106510402D01*
X161476022Y-106392110D01*
X161447885Y-106350000D01*
X161476022Y-106307890D01*
X161525021Y-106189598D01*
X161550000Y-106064019D01*
X161550000Y-105935981D01*
X161525021Y-105810402D01*
X161476022Y-105692110D01*
X161447885Y-105650000D01*
X161476022Y-105607890D01*
X161525021Y-105489598D01*
X161550000Y-105364019D01*
X161550000Y-105235981D01*
X161525021Y-105110402D01*
X161476918Y-104994273D01*
X162325000Y-104994273D01*
X162325000Y-105225727D01*
X162370155Y-105452735D01*
X162458729Y-105666571D01*
X162587318Y-105859019D01*
X162750981Y-106022682D01*
X162943429Y-106151271D01*
X163157265Y-106239845D01*
X163384273Y-106285000D01*
X163615727Y-106285000D01*
X163842735Y-106239845D01*
X164056571Y-106151271D01*
X164249019Y-106022682D01*
X164412682Y-105859019D01*
X164541271Y-105666571D01*
X164629845Y-105452735D01*
X164675000Y-105225727D01*
X164675000Y-104994273D01*
X164629845Y-104767265D01*
X164541271Y-104553429D01*
X164412682Y-104360981D01*
X164249019Y-104197318D01*
X164056571Y-104068729D01*
X163842735Y-103980155D01*
X163615727Y-103935000D01*
X163384273Y-103935000D01*
X163157265Y-103980155D01*
X162943429Y-104068729D01*
X162750981Y-104197318D01*
X162587318Y-104360981D01*
X162458729Y-104553429D01*
X162370155Y-104767265D01*
X162325000Y-104994273D01*
X161476918Y-104994273D01*
X161476022Y-104992110D01*
X161447885Y-104950000D01*
X161476022Y-104907890D01*
X161525021Y-104789598D01*
X161550000Y-104664019D01*
X161550000Y-104535981D01*
X161525021Y-104410402D01*
X161476022Y-104292110D01*
X161447885Y-104250000D01*
X161476022Y-104207890D01*
X161525021Y-104089598D01*
X161550000Y-103964019D01*
X161550000Y-103835981D01*
X161525021Y-103710402D01*
X161476022Y-103592110D01*
X161447885Y-103550000D01*
X161476022Y-103507890D01*
X161525021Y-103389598D01*
X161550000Y-103264019D01*
X161550000Y-103135981D01*
X161525021Y-103010402D01*
X161476022Y-102892110D01*
X161447885Y-102850000D01*
X161476022Y-102807890D01*
X161525021Y-102689598D01*
X161550000Y-102564019D01*
X161550000Y-102435981D01*
X161525021Y-102310402D01*
X161476022Y-102192110D01*
X161447885Y-102150000D01*
X161476022Y-102107890D01*
X161523084Y-101994273D01*
X162325000Y-101994273D01*
X162325000Y-102225727D01*
X162370155Y-102452735D01*
X162458729Y-102666571D01*
X162587318Y-102859019D01*
X162750981Y-103022682D01*
X162943429Y-103151271D01*
X163157265Y-103239845D01*
X163384273Y-103285000D01*
X163615727Y-103285000D01*
X163842735Y-103239845D01*
X164056571Y-103151271D01*
X164249019Y-103022682D01*
X164412682Y-102859019D01*
X164541271Y-102666571D01*
X164629845Y-102452735D01*
X164675000Y-102225727D01*
X164675000Y-101994273D01*
X164629845Y-101767265D01*
X164541271Y-101553429D01*
X164412682Y-101360981D01*
X164249019Y-101197318D01*
X164056571Y-101068729D01*
X163842735Y-100980155D01*
X163615727Y-100935000D01*
X163384273Y-100935000D01*
X163157265Y-100980155D01*
X162943429Y-101068729D01*
X162750981Y-101197318D01*
X162587318Y-101360981D01*
X162458729Y-101553429D01*
X162370155Y-101767265D01*
X162325000Y-101994273D01*
X161523084Y-101994273D01*
X161525021Y-101989598D01*
X161550000Y-101864019D01*
X161550000Y-101735981D01*
X161525021Y-101610402D01*
X161476022Y-101492110D01*
X161404888Y-101385649D01*
X161314351Y-101295112D01*
X161207890Y-101223978D01*
X161089598Y-101174979D01*
X160964019Y-101150000D01*
X160835981Y-101150000D01*
X160710402Y-101174979D01*
X160592110Y-101223978D01*
X160485649Y-101295112D01*
X160395112Y-101385649D01*
X160323978Y-101492110D01*
X160274979Y-101610402D01*
X160250000Y-101735981D01*
X112925000Y-101735981D01*
X112925000Y-98994273D01*
X162325000Y-98994273D01*
X162325000Y-99225727D01*
X162370155Y-99452735D01*
X162458729Y-99666571D01*
X162587318Y-99859019D01*
X162750981Y-100022682D01*
X162943429Y-100151271D01*
X163157265Y-100239845D01*
X163384273Y-100285000D01*
X163615727Y-100285000D01*
X163842735Y-100239845D01*
X164056571Y-100151271D01*
X164249019Y-100022682D01*
X164412682Y-99859019D01*
X164541271Y-99666571D01*
X164629845Y-99452735D01*
X164675000Y-99225727D01*
X164675000Y-98994273D01*
X164629845Y-98767265D01*
X164541271Y-98553429D01*
X164412682Y-98360981D01*
X164249019Y-98197318D01*
X164056571Y-98068729D01*
X163842735Y-97980155D01*
X163615727Y-97935000D01*
X163384273Y-97935000D01*
X163157265Y-97980155D01*
X162943429Y-98068729D01*
X162750981Y-98197318D01*
X162587318Y-98360981D01*
X162458729Y-98553429D01*
X162370155Y-98767265D01*
X162325000Y-98994273D01*
X112925000Y-98994273D01*
X112925000Y-98075981D01*
X143240000Y-98075981D01*
X143240000Y-98204019D01*
X143264979Y-98329598D01*
X143313978Y-98447890D01*
X143385112Y-98554351D01*
X143475649Y-98644888D01*
X143582110Y-98716022D01*
X143700402Y-98765021D01*
X143825981Y-98790000D01*
X143954019Y-98790000D01*
X144079598Y-98765021D01*
X144197890Y-98716022D01*
X144304351Y-98644888D01*
X144394888Y-98554351D01*
X144466022Y-98447890D01*
X144515021Y-98329598D01*
X144540000Y-98204019D01*
X144540000Y-98075981D01*
X144515021Y-97950402D01*
X144466022Y-97832110D01*
X144394888Y-97725649D01*
X144304351Y-97635112D01*
X144197890Y-97563978D01*
X144079598Y-97514979D01*
X143954019Y-97490000D01*
X143825981Y-97490000D01*
X143700402Y-97514979D01*
X143582110Y-97563978D01*
X143475649Y-97635112D01*
X143385112Y-97725649D01*
X143313978Y-97832110D01*
X143264979Y-97950402D01*
X143240000Y-98075981D01*
X112925000Y-98075981D01*
X112925000Y-95925981D01*
X136140000Y-95925981D01*
X136140000Y-96054019D01*
X136164979Y-96179598D01*
X136213978Y-96297890D01*
X136285112Y-96404351D01*
X136375649Y-96494888D01*
X136482110Y-96566022D01*
X136600402Y-96615021D01*
X136725981Y-96640000D01*
X136854019Y-96640000D01*
X136979598Y-96615021D01*
X137097890Y-96566022D01*
X137204351Y-96494888D01*
X137294888Y-96404351D01*
X137366022Y-96297890D01*
X137415021Y-96179598D01*
X137440000Y-96054019D01*
X137440000Y-95925981D01*
X137415021Y-95800402D01*
X137366022Y-95682110D01*
X137294888Y-95575649D01*
X137204351Y-95485112D01*
X137097890Y-95413978D01*
X136979598Y-95364979D01*
X136854019Y-95340000D01*
X136725981Y-95340000D01*
X136600402Y-95364979D01*
X136482110Y-95413978D01*
X136375649Y-95485112D01*
X136285112Y-95575649D01*
X136213978Y-95682110D01*
X136164979Y-95800402D01*
X136140000Y-95925981D01*
X112925000Y-95925981D01*
X112925000Y-94835981D01*
X156750000Y-94835981D01*
X156750000Y-94964019D01*
X156774979Y-95089598D01*
X156823978Y-95207890D01*
X156895112Y-95314351D01*
X156980761Y-95400000D01*
X156895112Y-95485649D01*
X156823978Y-95592110D01*
X156774979Y-95710402D01*
X156750000Y-95835981D01*
X156750000Y-95964019D01*
X156774979Y-96089598D01*
X156823978Y-96207890D01*
X156895112Y-96314351D01*
X156980761Y-96400000D01*
X156895112Y-96485649D01*
X156823978Y-96592110D01*
X156774979Y-96710402D01*
X156750000Y-96835981D01*
X156750000Y-96964019D01*
X156774979Y-97089598D01*
X156823978Y-97207890D01*
X156895112Y-97314351D01*
X156985649Y-97404888D01*
X157092110Y-97476022D01*
X157210402Y-97525021D01*
X157335981Y-97550000D01*
X157464019Y-97550000D01*
X157589598Y-97525021D01*
X157707890Y-97476022D01*
X157814351Y-97404888D01*
X157900000Y-97319239D01*
X157985649Y-97404888D01*
X158092110Y-97476022D01*
X158210402Y-97525021D01*
X158335981Y-97550000D01*
X158464019Y-97550000D01*
X158589598Y-97525021D01*
X158707890Y-97476022D01*
X158814351Y-97404888D01*
X158900000Y-97319239D01*
X158985649Y-97404888D01*
X159092110Y-97476022D01*
X159210402Y-97525021D01*
X159335981Y-97550000D01*
X159464019Y-97550000D01*
X159589598Y-97525021D01*
X159707890Y-97476022D01*
X159814351Y-97404888D01*
X159900000Y-97319239D01*
X159985649Y-97404888D01*
X160092110Y-97476022D01*
X160210402Y-97525021D01*
X160335981Y-97550000D01*
X160464019Y-97550000D01*
X160589598Y-97525021D01*
X160707890Y-97476022D01*
X160814351Y-97404888D01*
X160900000Y-97319239D01*
X160985649Y-97404888D01*
X161092110Y-97476022D01*
X161210402Y-97525021D01*
X161335981Y-97550000D01*
X161464019Y-97550000D01*
X161589598Y-97525021D01*
X161707890Y-97476022D01*
X161814351Y-97404888D01*
X161904888Y-97314351D01*
X161976022Y-97207890D01*
X162025021Y-97089598D01*
X162050000Y-96964019D01*
X162050000Y-96835981D01*
X162025021Y-96710402D01*
X161976022Y-96592110D01*
X161904888Y-96485649D01*
X161819239Y-96400000D01*
X161904888Y-96314351D01*
X161976022Y-96207890D01*
X162025021Y-96089598D01*
X162050000Y-95964019D01*
X162050000Y-95835981D01*
X162025021Y-95710402D01*
X161983433Y-95610000D01*
X162322944Y-95610000D01*
X162322944Y-96610000D01*
X162335953Y-96742087D01*
X162374482Y-96869098D01*
X162437049Y-96986152D01*
X162521249Y-97088751D01*
X162623848Y-97172951D01*
X162740902Y-97235518D01*
X162867913Y-97274047D01*
X163000000Y-97287056D01*
X164000000Y-97287056D01*
X164132087Y-97274047D01*
X164259098Y-97235518D01*
X164376152Y-97172951D01*
X164478751Y-97088751D01*
X164562951Y-96986152D01*
X164625518Y-96869098D01*
X164664047Y-96742087D01*
X164677056Y-96610000D01*
X164677056Y-95610000D01*
X164664047Y-95477913D01*
X164625518Y-95350902D01*
X164562951Y-95233848D01*
X164478751Y-95131249D01*
X164376152Y-95047049D01*
X164259098Y-94984482D01*
X164132087Y-94945953D01*
X164000000Y-94932944D01*
X163000000Y-94932944D01*
X162867913Y-94945953D01*
X162740902Y-94984482D01*
X162623848Y-95047049D01*
X162521249Y-95131249D01*
X162437049Y-95233848D01*
X162374482Y-95350902D01*
X162335953Y-95477913D01*
X162322944Y-95610000D01*
X161983433Y-95610000D01*
X161976022Y-95592110D01*
X161904888Y-95485649D01*
X161819239Y-95400000D01*
X161904888Y-95314351D01*
X161976022Y-95207890D01*
X162025021Y-95089598D01*
X162050000Y-94964019D01*
X162050000Y-94835981D01*
X162025021Y-94710402D01*
X161976022Y-94592110D01*
X161904888Y-94485649D01*
X161814351Y-94395112D01*
X161707890Y-94323978D01*
X161589598Y-94274979D01*
X161464019Y-94250000D01*
X161335981Y-94250000D01*
X161210402Y-94274979D01*
X161092110Y-94323978D01*
X160985649Y-94395112D01*
X160900000Y-94480761D01*
X160814351Y-94395112D01*
X160707890Y-94323978D01*
X160589598Y-94274979D01*
X160464019Y-94250000D01*
X160335981Y-94250000D01*
X160210402Y-94274979D01*
X160092110Y-94323978D01*
X159985649Y-94395112D01*
X159900000Y-94480761D01*
X159814351Y-94395112D01*
X159707890Y-94323978D01*
X159589598Y-94274979D01*
X159464019Y-94250000D01*
X159335981Y-94250000D01*
X159210402Y-94274979D01*
X159092110Y-94323978D01*
X158985649Y-94395112D01*
X158900000Y-94480761D01*
X158814351Y-94395112D01*
X158707890Y-94323978D01*
X158589598Y-94274979D01*
X158464019Y-94250000D01*
X158335981Y-94250000D01*
X158210402Y-94274979D01*
X158092110Y-94323978D01*
X157985649Y-94395112D01*
X157900000Y-94480761D01*
X157814351Y-94395112D01*
X157707890Y-94323978D01*
X157589598Y-94274979D01*
X157464019Y-94250000D01*
X157335981Y-94250000D01*
X157210402Y-94274979D01*
X157092110Y-94323978D01*
X156985649Y-94395112D01*
X156895112Y-94485649D01*
X156823978Y-94592110D01*
X156774979Y-94710402D01*
X156750000Y-94835981D01*
X112925000Y-94835981D01*
X112925000Y-93585970D01*
X137340011Y-93585970D01*
X137340011Y-93714008D01*
X137364990Y-93839587D01*
X137413989Y-93957879D01*
X137485123Y-94064340D01*
X137575660Y-94154877D01*
X137682121Y-94226011D01*
X137800413Y-94275010D01*
X137925992Y-94299989D01*
X138054030Y-94299989D01*
X138179609Y-94275010D01*
X138297901Y-94226011D01*
X138404362Y-94154877D01*
X138494899Y-94064340D01*
X138566033Y-93957879D01*
X138615032Y-93839587D01*
X138640011Y-93714008D01*
X138640011Y-93585970D01*
X138615032Y-93460391D01*
X138566033Y-93342099D01*
X138494899Y-93235638D01*
X138404362Y-93145101D01*
X138297901Y-93073967D01*
X138179609Y-93024968D01*
X138149078Y-93018895D01*
X166515000Y-93018895D01*
X166515000Y-93201105D01*
X166550547Y-93379813D01*
X166620275Y-93548152D01*
X166721505Y-93699653D01*
X166850347Y-93828495D01*
X167001848Y-93929725D01*
X167170187Y-93999453D01*
X167348895Y-94035000D01*
X167531105Y-94035000D01*
X167709813Y-93999453D01*
X167878152Y-93929725D01*
X168029653Y-93828495D01*
X168158495Y-93699653D01*
X168259725Y-93548152D01*
X168329453Y-93379813D01*
X168365000Y-93201105D01*
X168365000Y-93018895D01*
X168329453Y-92840187D01*
X168259725Y-92671848D01*
X168158495Y-92520347D01*
X168029653Y-92391505D01*
X167878152Y-92290275D01*
X167709813Y-92220547D01*
X167531105Y-92185000D01*
X167348895Y-92185000D01*
X167170187Y-92220547D01*
X167001848Y-92290275D01*
X166850347Y-92391505D01*
X166721505Y-92520347D01*
X166620275Y-92671848D01*
X166550547Y-92840187D01*
X166515000Y-93018895D01*
X138149078Y-93018895D01*
X138054030Y-92999989D01*
X137925992Y-92999989D01*
X137800413Y-93024968D01*
X137682121Y-93073967D01*
X137575660Y-93145101D01*
X137485123Y-93235638D01*
X137413989Y-93342099D01*
X137364990Y-93460391D01*
X137340011Y-93585970D01*
X112925000Y-93585970D01*
X112925000Y-90945995D01*
X135260016Y-90945995D01*
X135260016Y-91074033D01*
X135284995Y-91199612D01*
X135333994Y-91317904D01*
X135405128Y-91424365D01*
X135495665Y-91514902D01*
X135602126Y-91586036D01*
X135720418Y-91635035D01*
X135845997Y-91660014D01*
X135974035Y-91660014D01*
X136099614Y-91635035D01*
X136217906Y-91586036D01*
X136324367Y-91514902D01*
X136414904Y-91424365D01*
X136486038Y-91317904D01*
X136535037Y-91199612D01*
X136560016Y-91074033D01*
X136560016Y-90945995D01*
X136535037Y-90820416D01*
X136486038Y-90702124D01*
X136414904Y-90595663D01*
X136324367Y-90505126D01*
X136217906Y-90433992D01*
X136114252Y-90391056D01*
X144790000Y-90391056D01*
X144790000Y-90528944D01*
X144816901Y-90664182D01*
X144869668Y-90791574D01*
X144946274Y-90906224D01*
X145043776Y-91003726D01*
X145158426Y-91080332D01*
X145285818Y-91133099D01*
X145421056Y-91160000D01*
X145558944Y-91160000D01*
X145694182Y-91133099D01*
X145821574Y-91080332D01*
X145936224Y-91003726D01*
X146033726Y-90906224D01*
X146110332Y-90791574D01*
X146163099Y-90664182D01*
X146190000Y-90528944D01*
X146190000Y-90391056D01*
X146163099Y-90255818D01*
X146110332Y-90128426D01*
X146033726Y-90013776D01*
X145936224Y-89916274D01*
X145821574Y-89839668D01*
X145694182Y-89786901D01*
X145558944Y-89760000D01*
X145421056Y-89760000D01*
X145285818Y-89786901D01*
X145158426Y-89839668D01*
X145043776Y-89916274D01*
X144946274Y-90013776D01*
X144869668Y-90128426D01*
X144816901Y-90255818D01*
X144790000Y-90391056D01*
X136114252Y-90391056D01*
X136099614Y-90384993D01*
X135974035Y-90360014D01*
X135845997Y-90360014D01*
X135720418Y-90384993D01*
X135602126Y-90433992D01*
X135495665Y-90505126D01*
X135405128Y-90595663D01*
X135333994Y-90702124D01*
X135284995Y-90820416D01*
X135260016Y-90945995D01*
X112925000Y-90945995D01*
X112925000Y-84135981D01*
X121150000Y-84135981D01*
X121150000Y-84264019D01*
X121174979Y-84389598D01*
X121223978Y-84507890D01*
X121295112Y-84614351D01*
X121380761Y-84700000D01*
X121295112Y-84785649D01*
X121223978Y-84892110D01*
X121174979Y-85010402D01*
X121150000Y-85135981D01*
X121150000Y-85264019D01*
X121174979Y-85389598D01*
X121223978Y-85507890D01*
X121295112Y-85614351D01*
X121380761Y-85700000D01*
X121295112Y-85785649D01*
X121223978Y-85892110D01*
X121174979Y-86010402D01*
X121150000Y-86135981D01*
X121150000Y-86264019D01*
X121174979Y-86389598D01*
X121223978Y-86507890D01*
X121295112Y-86614351D01*
X121380761Y-86700000D01*
X121295112Y-86785649D01*
X121223978Y-86892110D01*
X121174979Y-87010402D01*
X121150000Y-87135981D01*
X121150000Y-87264019D01*
X121174979Y-87389598D01*
X121223978Y-87507890D01*
X121295112Y-87614351D01*
X121380761Y-87700000D01*
X121295112Y-87785649D01*
X121223978Y-87892110D01*
X121174979Y-88010402D01*
X121150000Y-88135981D01*
X121150000Y-88264019D01*
X121174979Y-88389598D01*
X121223978Y-88507890D01*
X121295112Y-88614351D01*
X121380761Y-88700000D01*
X121295112Y-88785649D01*
X121223978Y-88892110D01*
X121174979Y-89010402D01*
X121150000Y-89135981D01*
X121150000Y-89264019D01*
X121174979Y-89389598D01*
X121223978Y-89507890D01*
X121295112Y-89614351D01*
X121385649Y-89704888D01*
X121492110Y-89776022D01*
X121610402Y-89825021D01*
X121735981Y-89850000D01*
X121864019Y-89850000D01*
X121963179Y-89830276D01*
X121974979Y-89889598D01*
X122023978Y-90007890D01*
X122095112Y-90114351D01*
X122185649Y-90204888D01*
X122292110Y-90276022D01*
X122410402Y-90325021D01*
X122535981Y-90350000D01*
X122664019Y-90350000D01*
X122789598Y-90325021D01*
X122907890Y-90276022D01*
X123014351Y-90204888D01*
X123104888Y-90114351D01*
X123176022Y-90007890D01*
X123225021Y-89889598D01*
X123236821Y-89830276D01*
X123335981Y-89850000D01*
X123464019Y-89850000D01*
X123589598Y-89825021D01*
X123707890Y-89776022D01*
X123814351Y-89704888D01*
X123904888Y-89614351D01*
X123976022Y-89507890D01*
X124025021Y-89389598D01*
X124050000Y-89264019D01*
X124050000Y-89135981D01*
X124025021Y-89010402D01*
X123976022Y-88892110D01*
X123904888Y-88785649D01*
X123819239Y-88700000D01*
X123904888Y-88614351D01*
X123976022Y-88507890D01*
X124025021Y-88389598D01*
X124050000Y-88264019D01*
X124050000Y-88135981D01*
X124025021Y-88010402D01*
X123976022Y-87892110D01*
X123904888Y-87785649D01*
X123819239Y-87700000D01*
X123904888Y-87614351D01*
X123976022Y-87507890D01*
X124025021Y-87389598D01*
X124050000Y-87264019D01*
X124050000Y-87135981D01*
X124025021Y-87010402D01*
X123976022Y-86892110D01*
X123904888Y-86785649D01*
X123855220Y-86735981D01*
X135310000Y-86735981D01*
X135310000Y-86864019D01*
X135334979Y-86989598D01*
X135383978Y-87107890D01*
X135455112Y-87214351D01*
X135545649Y-87304888D01*
X135652110Y-87376022D01*
X135770402Y-87425021D01*
X135895981Y-87450000D01*
X136024019Y-87450000D01*
X136149598Y-87425021D01*
X136267890Y-87376022D01*
X136374351Y-87304888D01*
X136464888Y-87214351D01*
X136536022Y-87107890D01*
X136585021Y-86989598D01*
X136610000Y-86864019D01*
X136610000Y-86735981D01*
X136585021Y-86610402D01*
X136536022Y-86492110D01*
X136464888Y-86385649D01*
X136374351Y-86295112D01*
X136267890Y-86223978D01*
X136149598Y-86174979D01*
X136024019Y-86150000D01*
X135895981Y-86150000D01*
X135770402Y-86174979D01*
X135652110Y-86223978D01*
X135545649Y-86295112D01*
X135455112Y-86385649D01*
X135383978Y-86492110D01*
X135334979Y-86610402D01*
X135310000Y-86735981D01*
X123855220Y-86735981D01*
X123819239Y-86700000D01*
X123904888Y-86614351D01*
X123976022Y-86507890D01*
X124025021Y-86389598D01*
X124050000Y-86264019D01*
X124050000Y-86135981D01*
X137420000Y-86135981D01*
X137420000Y-86264019D01*
X137444979Y-86389598D01*
X137493978Y-86507890D01*
X137565112Y-86614351D01*
X137655649Y-86704888D01*
X137762110Y-86776022D01*
X137832068Y-86805000D01*
X137762110Y-86833978D01*
X137655649Y-86905112D01*
X137565112Y-86995649D01*
X137493978Y-87102110D01*
X137444979Y-87220402D01*
X137420000Y-87345981D01*
X137420000Y-87474019D01*
X137444979Y-87599598D01*
X137493978Y-87717890D01*
X137565112Y-87824351D01*
X137655649Y-87914888D01*
X137762110Y-87986022D01*
X137880402Y-88035021D01*
X138005981Y-88060000D01*
X138134019Y-88060000D01*
X138240000Y-88038919D01*
X138240000Y-88054019D01*
X138264979Y-88179598D01*
X138313978Y-88297890D01*
X138385112Y-88404351D01*
X138475649Y-88494888D01*
X138582110Y-88566022D01*
X138700402Y-88615021D01*
X138825981Y-88640000D01*
X138954019Y-88640000D01*
X139079598Y-88615021D01*
X139197890Y-88566022D01*
X139304351Y-88494888D01*
X139394888Y-88404351D01*
X139466022Y-88297890D01*
X139515021Y-88179598D01*
X139540000Y-88054019D01*
X139540000Y-87925981D01*
X139515021Y-87800402D01*
X139466022Y-87682110D01*
X139394888Y-87575649D01*
X139304351Y-87485112D01*
X139197890Y-87413978D01*
X139079598Y-87364979D01*
X138954019Y-87340000D01*
X138825981Y-87340000D01*
X138720000Y-87361081D01*
X138720000Y-87345981D01*
X138695021Y-87220402D01*
X138660048Y-87135971D01*
X146199982Y-87135971D01*
X146199982Y-87264009D01*
X146224961Y-87389588D01*
X146273960Y-87507880D01*
X146345094Y-87614341D01*
X146435631Y-87704878D01*
X146542092Y-87776012D01*
X146660384Y-87825011D01*
X146785963Y-87849990D01*
X146914001Y-87849990D01*
X147039580Y-87825011D01*
X147157872Y-87776012D01*
X147264333Y-87704878D01*
X147354870Y-87614341D01*
X147426004Y-87507880D01*
X147475003Y-87389588D01*
X147499982Y-87264009D01*
X147499982Y-87135971D01*
X147482842Y-87049801D01*
X165875000Y-87049801D01*
X165875000Y-87350199D01*
X165933605Y-87644826D01*
X166048562Y-87922358D01*
X166215455Y-88172131D01*
X166427869Y-88384545D01*
X166677642Y-88551438D01*
X166955174Y-88666395D01*
X167249801Y-88725000D01*
X167550199Y-88725000D01*
X167844826Y-88666395D01*
X168122358Y-88551438D01*
X168372131Y-88384545D01*
X168584545Y-88172131D01*
X168751438Y-87922358D01*
X168866395Y-87644826D01*
X168925000Y-87350199D01*
X168925000Y-87049801D01*
X168866395Y-86755174D01*
X168751438Y-86477642D01*
X168584545Y-86227869D01*
X168372131Y-86015455D01*
X168122358Y-85848562D01*
X167844826Y-85733605D01*
X167550199Y-85675000D01*
X167249801Y-85675000D01*
X166955174Y-85733605D01*
X166677642Y-85848562D01*
X166427869Y-86015455D01*
X166215455Y-86227869D01*
X166048562Y-86477642D01*
X165933605Y-86755174D01*
X165875000Y-87049801D01*
X147482842Y-87049801D01*
X147475003Y-87010392D01*
X147426004Y-86892100D01*
X147354870Y-86785639D01*
X147310071Y-86740840D01*
X147389598Y-86725021D01*
X147507890Y-86676022D01*
X147614351Y-86604888D01*
X147704888Y-86514351D01*
X147776022Y-86407890D01*
X147825021Y-86289598D01*
X147850000Y-86164019D01*
X147850000Y-86035981D01*
X147825021Y-85910402D01*
X147776022Y-85792110D01*
X147704888Y-85685649D01*
X147614351Y-85595112D01*
X147507890Y-85523978D01*
X147389598Y-85474979D01*
X147264019Y-85450000D01*
X147135981Y-85450000D01*
X147010402Y-85474979D01*
X146892110Y-85523978D01*
X146785649Y-85595112D01*
X146695112Y-85685649D01*
X146623978Y-85792110D01*
X146574979Y-85910402D01*
X146550000Y-86035981D01*
X146550000Y-86164019D01*
X146574979Y-86289598D01*
X146623978Y-86407890D01*
X146695112Y-86514351D01*
X146739911Y-86559150D01*
X146660384Y-86574969D01*
X146542092Y-86623968D01*
X146435631Y-86695102D01*
X146345094Y-86785639D01*
X146273960Y-86892100D01*
X146224961Y-87010392D01*
X146199982Y-87135971D01*
X138660048Y-87135971D01*
X138646022Y-87102110D01*
X138574888Y-86995649D01*
X138484351Y-86905112D01*
X138377890Y-86833978D01*
X138307932Y-86805000D01*
X138377890Y-86776022D01*
X138484351Y-86704888D01*
X138574888Y-86614351D01*
X138646022Y-86507890D01*
X138695021Y-86389598D01*
X138720000Y-86264019D01*
X138720000Y-86135981D01*
X138695021Y-86010402D01*
X138646022Y-85892110D01*
X138574888Y-85785649D01*
X138484351Y-85695112D01*
X138377890Y-85623978D01*
X138259598Y-85574979D01*
X138134019Y-85550000D01*
X138005981Y-85550000D01*
X137880402Y-85574979D01*
X137762110Y-85623978D01*
X137655649Y-85695112D01*
X137565112Y-85785649D01*
X137493978Y-85892110D01*
X137444979Y-86010402D01*
X137420000Y-86135981D01*
X124050000Y-86135981D01*
X124025021Y-86010402D01*
X123976022Y-85892110D01*
X123904888Y-85785649D01*
X123819239Y-85700000D01*
X123904888Y-85614351D01*
X123976022Y-85507890D01*
X124025021Y-85389598D01*
X124050000Y-85264019D01*
X124050000Y-85135981D01*
X124025021Y-85010402D01*
X123976022Y-84892110D01*
X123904888Y-84785649D01*
X123819239Y-84700000D01*
X123904888Y-84614351D01*
X123976022Y-84507890D01*
X124025021Y-84389598D01*
X124050000Y-84264019D01*
X124050000Y-84135981D01*
X124025021Y-84010402D01*
X123976022Y-83892110D01*
X123904888Y-83785649D01*
X123814351Y-83695112D01*
X123707890Y-83623978D01*
X123589598Y-83574979D01*
X123464019Y-83550000D01*
X123335981Y-83550000D01*
X123210402Y-83574979D01*
X123092110Y-83623978D01*
X122985649Y-83695112D01*
X122895112Y-83785649D01*
X122823978Y-83892110D01*
X122774979Y-84010402D01*
X122763179Y-84069724D01*
X122664019Y-84050000D01*
X122535981Y-84050000D01*
X122436821Y-84069724D01*
X122425021Y-84010402D01*
X122376022Y-83892110D01*
X122304888Y-83785649D01*
X122214351Y-83695112D01*
X122107890Y-83623978D01*
X121989598Y-83574979D01*
X121864019Y-83550000D01*
X121735981Y-83550000D01*
X121610402Y-83574979D01*
X121492110Y-83623978D01*
X121385649Y-83695112D01*
X121295112Y-83785649D01*
X121223978Y-83892110D01*
X121174979Y-84010402D01*
X121150000Y-84135981D01*
X112925000Y-84135981D01*
X112925000Y-81831056D01*
X136200000Y-81831056D01*
X136200000Y-81968944D01*
X136226901Y-82104182D01*
X136279668Y-82231574D01*
X136356274Y-82346224D01*
X136453776Y-82443726D01*
X136568426Y-82520332D01*
X136695818Y-82573099D01*
X136831056Y-82600000D01*
X136968944Y-82600000D01*
X137104182Y-82573099D01*
X137231574Y-82520332D01*
X137261570Y-82500289D01*
X138375000Y-82500289D01*
X138381240Y-85200289D01*
X138383642Y-85224386D01*
X138390755Y-85247835D01*
X138402306Y-85269446D01*
X138417852Y-85288388D01*
X138436794Y-85303934D01*
X138458405Y-85315485D01*
X138481854Y-85322598D01*
X138506240Y-85325000D01*
X148400000Y-85325000D01*
X148424386Y-85322598D01*
X148447835Y-85315485D01*
X148469446Y-85303934D01*
X148488388Y-85288388D01*
X153007881Y-80768895D01*
X166515000Y-80768895D01*
X166515000Y-80951105D01*
X166550547Y-81129813D01*
X166620275Y-81298152D01*
X166721505Y-81449653D01*
X166850347Y-81578495D01*
X167001848Y-81679725D01*
X167170187Y-81749453D01*
X167348895Y-81785000D01*
X167531105Y-81785000D01*
X167709813Y-81749453D01*
X167878152Y-81679725D01*
X168029653Y-81578495D01*
X168158495Y-81449653D01*
X168259725Y-81298152D01*
X168329453Y-81129813D01*
X168365000Y-80951105D01*
X168365000Y-80768895D01*
X168329453Y-80590187D01*
X168259725Y-80421848D01*
X168158495Y-80270347D01*
X168029653Y-80141505D01*
X167878152Y-80040275D01*
X167709813Y-79970547D01*
X167531105Y-79935000D01*
X167348895Y-79935000D01*
X167170187Y-79970547D01*
X167001848Y-80040275D01*
X166850347Y-80141505D01*
X166721505Y-80270347D01*
X166620275Y-80421848D01*
X166550547Y-80590187D01*
X166515000Y-80768895D01*
X153007881Y-80768895D01*
X156388388Y-77388388D01*
X156403813Y-77369626D01*
X156415402Y-77348036D01*
X156422556Y-77324599D01*
X156425000Y-77300217D01*
X156426324Y-76535981D01*
X156650000Y-76535981D01*
X156650000Y-76664019D01*
X156674979Y-76789598D01*
X156723978Y-76907890D01*
X156795112Y-77014351D01*
X156880761Y-77100000D01*
X156795112Y-77185649D01*
X156723978Y-77292110D01*
X156674979Y-77410402D01*
X156650000Y-77535981D01*
X156650000Y-77664019D01*
X156674979Y-77789598D01*
X156723978Y-77907890D01*
X156795112Y-78014351D01*
X156880761Y-78100000D01*
X156795112Y-78185649D01*
X156723978Y-78292110D01*
X156674979Y-78410402D01*
X156650000Y-78535981D01*
X156650000Y-78664019D01*
X156674979Y-78789598D01*
X156723978Y-78907890D01*
X156795112Y-79014351D01*
X156885649Y-79104888D01*
X156992110Y-79176022D01*
X157110402Y-79225021D01*
X157235981Y-79250000D01*
X157364019Y-79250000D01*
X157489598Y-79225021D01*
X157607890Y-79176022D01*
X157714351Y-79104888D01*
X157800000Y-79019239D01*
X157885649Y-79104888D01*
X157992110Y-79176022D01*
X158110402Y-79225021D01*
X158235981Y-79250000D01*
X158364019Y-79250000D01*
X158489598Y-79225021D01*
X158607890Y-79176022D01*
X158714351Y-79104888D01*
X158800000Y-79019239D01*
X158885649Y-79104888D01*
X158992110Y-79176022D01*
X159110402Y-79225021D01*
X159235981Y-79250000D01*
X159364019Y-79250000D01*
X159489598Y-79225021D01*
X159607890Y-79176022D01*
X159714351Y-79104888D01*
X159800000Y-79019239D01*
X159885649Y-79104888D01*
X159992110Y-79176022D01*
X160110402Y-79225021D01*
X160235981Y-79250000D01*
X160364019Y-79250000D01*
X160489598Y-79225021D01*
X160607890Y-79176022D01*
X160714351Y-79104888D01*
X160800000Y-79019239D01*
X160885649Y-79104888D01*
X160992110Y-79176022D01*
X161110402Y-79225021D01*
X161235981Y-79250000D01*
X161364019Y-79250000D01*
X161489598Y-79225021D01*
X161607890Y-79176022D01*
X161714351Y-79104888D01*
X161804888Y-79014351D01*
X161876022Y-78907890D01*
X161925021Y-78789598D01*
X161950000Y-78664019D01*
X161950000Y-78535981D01*
X161925021Y-78410402D01*
X161876022Y-78292110D01*
X161804888Y-78185649D01*
X161719239Y-78100000D01*
X161804888Y-78014351D01*
X161876022Y-77907890D01*
X161925021Y-77789598D01*
X161934036Y-77744273D01*
X162325000Y-77744273D01*
X162325000Y-77975727D01*
X162370155Y-78202735D01*
X162458729Y-78416571D01*
X162587318Y-78609019D01*
X162750981Y-78772682D01*
X162943429Y-78901271D01*
X163157265Y-78989845D01*
X163384273Y-79035000D01*
X163615727Y-79035000D01*
X163842735Y-78989845D01*
X164056571Y-78901271D01*
X164249019Y-78772682D01*
X164412682Y-78609019D01*
X164541271Y-78416571D01*
X164629845Y-78202735D01*
X164675000Y-77975727D01*
X164675000Y-77744273D01*
X164629845Y-77517265D01*
X164541271Y-77303429D01*
X164412682Y-77110981D01*
X164249019Y-76947318D01*
X164056571Y-76818729D01*
X163842735Y-76730155D01*
X163615727Y-76685000D01*
X163384273Y-76685000D01*
X163157265Y-76730155D01*
X162943429Y-76818729D01*
X162750981Y-76947318D01*
X162587318Y-77110981D01*
X162458729Y-77303429D01*
X162370155Y-77517265D01*
X162325000Y-77744273D01*
X161934036Y-77744273D01*
X161950000Y-77664019D01*
X161950000Y-77535981D01*
X161925021Y-77410402D01*
X161876022Y-77292110D01*
X161804888Y-77185649D01*
X161719239Y-77100000D01*
X161804888Y-77014351D01*
X161876022Y-76907890D01*
X161925021Y-76789598D01*
X161950000Y-76664019D01*
X161950000Y-76535981D01*
X161925021Y-76410402D01*
X161876022Y-76292110D01*
X161804888Y-76185649D01*
X161714351Y-76095112D01*
X161607890Y-76023978D01*
X161489598Y-75974979D01*
X161364019Y-75950000D01*
X161235981Y-75950000D01*
X161110402Y-75974979D01*
X160992110Y-76023978D01*
X160885649Y-76095112D01*
X160800000Y-76180761D01*
X160714351Y-76095112D01*
X160607890Y-76023978D01*
X160489598Y-75974979D01*
X160364019Y-75950000D01*
X160235981Y-75950000D01*
X160110402Y-75974979D01*
X159992110Y-76023978D01*
X159885649Y-76095112D01*
X159800000Y-76180761D01*
X159714351Y-76095112D01*
X159607890Y-76023978D01*
X159489598Y-75974979D01*
X159364019Y-75950000D01*
X159235981Y-75950000D01*
X159110402Y-75974979D01*
X158992110Y-76023978D01*
X158885649Y-76095112D01*
X158800000Y-76180761D01*
X158714351Y-76095112D01*
X158607890Y-76023978D01*
X158489598Y-75974979D01*
X158364019Y-75950000D01*
X158235981Y-75950000D01*
X158110402Y-75974979D01*
X157992110Y-76023978D01*
X157885649Y-76095112D01*
X157800000Y-76180761D01*
X157714351Y-76095112D01*
X157607890Y-76023978D01*
X157489598Y-75974979D01*
X157364019Y-75950000D01*
X157235981Y-75950000D01*
X157110402Y-75974979D01*
X156992110Y-76023978D01*
X156885649Y-76095112D01*
X156795112Y-76185649D01*
X156723978Y-76292110D01*
X156674979Y-76410402D01*
X156650000Y-76535981D01*
X156426324Y-76535981D01*
X156429430Y-74744273D01*
X162325000Y-74744273D01*
X162325000Y-74975727D01*
X162370155Y-75202735D01*
X162458729Y-75416571D01*
X162587318Y-75609019D01*
X162750981Y-75772682D01*
X162943429Y-75901271D01*
X163157265Y-75989845D01*
X163384273Y-76035000D01*
X163615727Y-76035000D01*
X163842735Y-75989845D01*
X164056571Y-75901271D01*
X164249019Y-75772682D01*
X164412682Y-75609019D01*
X164541271Y-75416571D01*
X164629845Y-75202735D01*
X164675000Y-74975727D01*
X164675000Y-74744273D01*
X164629845Y-74517265D01*
X164541271Y-74303429D01*
X164412682Y-74110981D01*
X164249019Y-73947318D01*
X164056571Y-73818729D01*
X163842735Y-73730155D01*
X163615727Y-73685000D01*
X163384273Y-73685000D01*
X163157265Y-73730155D01*
X162943429Y-73818729D01*
X162750981Y-73947318D01*
X162587318Y-74110981D01*
X162458729Y-74303429D01*
X162370155Y-74517265D01*
X162325000Y-74744273D01*
X156429430Y-74744273D01*
X156431240Y-73700217D01*
X156428838Y-73675614D01*
X156421725Y-73652165D01*
X156410174Y-73630554D01*
X156394628Y-73611612D01*
X156375686Y-73596066D01*
X156354075Y-73584515D01*
X156330626Y-73577402D01*
X156306240Y-73575000D01*
X147700000Y-73575000D01*
X147678343Y-73576890D01*
X147654742Y-73583481D01*
X147632880Y-73594549D01*
X147613597Y-73609670D01*
X138413597Y-82409670D01*
X138395906Y-82430794D01*
X138384405Y-82452432D01*
X138377346Y-82475897D01*
X138375000Y-82500289D01*
X137261570Y-82500289D01*
X137346224Y-82443726D01*
X137443726Y-82346224D01*
X137520332Y-82231574D01*
X137573099Y-82104182D01*
X137600000Y-81968944D01*
X137600000Y-81831056D01*
X137573099Y-81695818D01*
X137520332Y-81568426D01*
X137443726Y-81453776D01*
X137346224Y-81356274D01*
X137231574Y-81279668D01*
X137104182Y-81226901D01*
X136968944Y-81200000D01*
X136831056Y-81200000D01*
X136695818Y-81226901D01*
X136568426Y-81279668D01*
X136453776Y-81356274D01*
X136356274Y-81453776D01*
X136279668Y-81568426D01*
X136226901Y-81695818D01*
X136200000Y-81831056D01*
X112925000Y-81831056D01*
X112925000Y-80535981D01*
X133850002Y-80535981D01*
X133850002Y-80664019D01*
X133874981Y-80789598D01*
X133923980Y-80907890D01*
X133995114Y-81014351D01*
X134085651Y-81104888D01*
X134192112Y-81176022D01*
X134310404Y-81225021D01*
X134435983Y-81250000D01*
X134564021Y-81250000D01*
X134689600Y-81225021D01*
X134807892Y-81176022D01*
X134914353Y-81104888D01*
X135004890Y-81014351D01*
X135076024Y-80907890D01*
X135125023Y-80789598D01*
X135150002Y-80664019D01*
X135150002Y-80535981D01*
X135125023Y-80410402D01*
X135076024Y-80292110D01*
X135004890Y-80185649D01*
X134914353Y-80095112D01*
X134807892Y-80023978D01*
X134689600Y-79974979D01*
X134564021Y-79950000D01*
X134435983Y-79950000D01*
X134310404Y-79974979D01*
X134192112Y-80023978D01*
X134085651Y-80095112D01*
X133995114Y-80185649D01*
X133923980Y-80292110D01*
X133874981Y-80410402D01*
X133850002Y-80535981D01*
X112925000Y-80535981D01*
X112925000Y-74335981D01*
X136350000Y-74335981D01*
X136350000Y-74464019D01*
X136374979Y-74589598D01*
X136423978Y-74707890D01*
X136495112Y-74814351D01*
X136585649Y-74904888D01*
X136692110Y-74976022D01*
X136810402Y-75025021D01*
X136935981Y-75050000D01*
X137064019Y-75050000D01*
X137189598Y-75025021D01*
X137307890Y-74976022D01*
X137414351Y-74904888D01*
X137504888Y-74814351D01*
X137576022Y-74707890D01*
X137625021Y-74589598D01*
X137650000Y-74464019D01*
X137650000Y-74335981D01*
X137625021Y-74210402D01*
X137576022Y-74092110D01*
X137504888Y-73985649D01*
X137414351Y-73895112D01*
X137307890Y-73823978D01*
X137189598Y-73774979D01*
X137064019Y-73750000D01*
X136935981Y-73750000D01*
X136810402Y-73774979D01*
X136692110Y-73823978D01*
X136585649Y-73895112D01*
X136495112Y-73985649D01*
X136423978Y-74092110D01*
X136374979Y-74210402D01*
X136350000Y-74335981D01*
X112925000Y-74335981D01*
X112925000Y-69800001D01*
X120022944Y-69800001D01*
X120022944Y-71999999D01*
X120035953Y-72132086D01*
X120074482Y-72259097D01*
X120137049Y-72376152D01*
X120221249Y-72478751D01*
X120323848Y-72562951D01*
X120440903Y-72625518D01*
X120567914Y-72664047D01*
X120700001Y-72677056D01*
X120712672Y-72677056D01*
X120685649Y-72695112D01*
X120595112Y-72785649D01*
X120523978Y-72892110D01*
X120474979Y-73010402D01*
X120450000Y-73135981D01*
X120450000Y-73264019D01*
X120474979Y-73389598D01*
X120523978Y-73507890D01*
X120595112Y-73614351D01*
X120685649Y-73704888D01*
X120792110Y-73776022D01*
X120910402Y-73825021D01*
X121035981Y-73850000D01*
X121164019Y-73850000D01*
X121289598Y-73825021D01*
X121407890Y-73776022D01*
X121514351Y-73704888D01*
X121600000Y-73619239D01*
X121685649Y-73704888D01*
X121792110Y-73776022D01*
X121910402Y-73825021D01*
X122035981Y-73850000D01*
X122164019Y-73850000D01*
X122289598Y-73825021D01*
X122407890Y-73776022D01*
X122514351Y-73704888D01*
X122600001Y-73619239D01*
X122685649Y-73704887D01*
X122792110Y-73776021D01*
X122910402Y-73825020D01*
X123035981Y-73849999D01*
X123164019Y-73849999D01*
X123289598Y-73825020D01*
X123407890Y-73776021D01*
X123514351Y-73704887D01*
X123604888Y-73614350D01*
X123676022Y-73507889D01*
X123725021Y-73389597D01*
X123750000Y-73264018D01*
X123750000Y-73135980D01*
X123725021Y-73010401D01*
X123676022Y-72892109D01*
X123604888Y-72785648D01*
X123514351Y-72695111D01*
X123487329Y-72677056D01*
X123499999Y-72677056D01*
X123632086Y-72664047D01*
X123759097Y-72625518D01*
X123876152Y-72562951D01*
X123978751Y-72478751D01*
X124062951Y-72376152D01*
X124125518Y-72259097D01*
X124164047Y-72132086D01*
X124177056Y-71999999D01*
X124177056Y-69800001D01*
X124164047Y-69667914D01*
X124125518Y-69540903D01*
X124062951Y-69423848D01*
X123978751Y-69321249D01*
X123876152Y-69237049D01*
X123759097Y-69174482D01*
X123632086Y-69135953D01*
X123499999Y-69122944D01*
X120700001Y-69122944D01*
X120567914Y-69135953D01*
X120440903Y-69174482D01*
X120323848Y-69237049D01*
X120221249Y-69321249D01*
X120137049Y-69423848D01*
X120074482Y-69540903D01*
X120035953Y-69667914D01*
X120022944Y-69800001D01*
X112925000Y-69800001D01*
X112925000Y-68635981D01*
X136350000Y-68635981D01*
X136350000Y-68764019D01*
X136374979Y-68889598D01*
X136423978Y-69007890D01*
X136495112Y-69114351D01*
X136585649Y-69204888D01*
X136692110Y-69276022D01*
X136810402Y-69325021D01*
X136935981Y-69350000D01*
X137064019Y-69350000D01*
X137189598Y-69325021D01*
X137307890Y-69276022D01*
X137414351Y-69204888D01*
X137504888Y-69114351D01*
X137576022Y-69007890D01*
X137625021Y-68889598D01*
X137650000Y-68764019D01*
X137650000Y-68635981D01*
X137625021Y-68510402D01*
X137576022Y-68392110D01*
X137504888Y-68285649D01*
X137414351Y-68195112D01*
X137307890Y-68123978D01*
X137189598Y-68074979D01*
X137064019Y-68050000D01*
X136935981Y-68050000D01*
X136810402Y-68074979D01*
X136692110Y-68123978D01*
X136585649Y-68195112D01*
X136495112Y-68285649D01*
X136423978Y-68392110D01*
X136374979Y-68510402D01*
X136350000Y-68635981D01*
X112925000Y-68635981D01*
X112925000Y-66700000D01*
X120016412Y-66700000D01*
X120050683Y-67047961D01*
X120152180Y-67382550D01*
X120317001Y-67690908D01*
X120538813Y-67961187D01*
X120809092Y-68182999D01*
X121117450Y-68347820D01*
X121452039Y-68449317D01*
X121712804Y-68475000D01*
X122487196Y-68475000D01*
X122747961Y-68449317D01*
X123082550Y-68347820D01*
X123390908Y-68182999D01*
X123661187Y-67961187D01*
X123882999Y-67690908D01*
X124047820Y-67382550D01*
X124149317Y-67047961D01*
X124183588Y-66700000D01*
X124149317Y-66352039D01*
X124047820Y-66017450D01*
X123897372Y-65735981D01*
X159850000Y-65735981D01*
X159850000Y-65864019D01*
X159874979Y-65989598D01*
X159923978Y-66107890D01*
X159952115Y-66150000D01*
X159923978Y-66192110D01*
X159874979Y-66310402D01*
X159850000Y-66435981D01*
X159850000Y-66564019D01*
X159874979Y-66689598D01*
X159923978Y-66807890D01*
X159952115Y-66850000D01*
X159923978Y-66892110D01*
X159874979Y-67010402D01*
X159850000Y-67135981D01*
X159850000Y-67264019D01*
X159874979Y-67389598D01*
X159923978Y-67507890D01*
X159952115Y-67550000D01*
X159923978Y-67592110D01*
X159874979Y-67710402D01*
X159850000Y-67835981D01*
X159850000Y-67964019D01*
X159874979Y-68089598D01*
X159923978Y-68207890D01*
X159952115Y-68250000D01*
X159923978Y-68292110D01*
X159874979Y-68410402D01*
X159850000Y-68535981D01*
X159850000Y-68664019D01*
X159874979Y-68789598D01*
X159923978Y-68907890D01*
X159952115Y-68950000D01*
X159923978Y-68992110D01*
X159874979Y-69110402D01*
X159850000Y-69235981D01*
X159850000Y-69364019D01*
X159874979Y-69489598D01*
X159923978Y-69607890D01*
X159952115Y-69650000D01*
X159923978Y-69692110D01*
X159874979Y-69810402D01*
X159850000Y-69935981D01*
X159850000Y-70064019D01*
X159874979Y-70189598D01*
X159923978Y-70307890D01*
X159952115Y-70350000D01*
X159923978Y-70392110D01*
X159874979Y-70510402D01*
X159850000Y-70635981D01*
X159850000Y-70764019D01*
X159874979Y-70889598D01*
X159923978Y-71007890D01*
X159952115Y-71050000D01*
X159923978Y-71092110D01*
X159874979Y-71210402D01*
X159850000Y-71335981D01*
X159850000Y-71464019D01*
X159874979Y-71589598D01*
X159923978Y-71707890D01*
X159952115Y-71750000D01*
X159923978Y-71792110D01*
X159874979Y-71910402D01*
X159850000Y-72035981D01*
X159850000Y-72164019D01*
X159874979Y-72289598D01*
X159923978Y-72407890D01*
X159995112Y-72514351D01*
X160085649Y-72604888D01*
X160192110Y-72676022D01*
X160310402Y-72725021D01*
X160435981Y-72750000D01*
X160564019Y-72750000D01*
X160689598Y-72725021D01*
X160807890Y-72676022D01*
X160914351Y-72604888D01*
X161004888Y-72514351D01*
X161076022Y-72407890D01*
X161125021Y-72289598D01*
X161150000Y-72164019D01*
X161150000Y-72035981D01*
X161125021Y-71910402D01*
X161076022Y-71792110D01*
X161047885Y-71750000D01*
X161051711Y-71744273D01*
X162325000Y-71744273D01*
X162325000Y-71975727D01*
X162370155Y-72202735D01*
X162458729Y-72416571D01*
X162587318Y-72609019D01*
X162750981Y-72772682D01*
X162943429Y-72901271D01*
X163157265Y-72989845D01*
X163384273Y-73035000D01*
X163615727Y-73035000D01*
X163842735Y-72989845D01*
X164056571Y-72901271D01*
X164249019Y-72772682D01*
X164412682Y-72609019D01*
X164541271Y-72416571D01*
X164629845Y-72202735D01*
X164675000Y-71975727D01*
X164675000Y-71744273D01*
X164629845Y-71517265D01*
X164541271Y-71303429D01*
X164412682Y-71110981D01*
X164249019Y-70947318D01*
X164056571Y-70818729D01*
X163842735Y-70730155D01*
X163615727Y-70685000D01*
X163384273Y-70685000D01*
X163157265Y-70730155D01*
X162943429Y-70818729D01*
X162750981Y-70947318D01*
X162587318Y-71110981D01*
X162458729Y-71303429D01*
X162370155Y-71517265D01*
X162325000Y-71744273D01*
X161051711Y-71744273D01*
X161076022Y-71707890D01*
X161125021Y-71589598D01*
X161150000Y-71464019D01*
X161150000Y-71335981D01*
X161125021Y-71210402D01*
X161076022Y-71092110D01*
X161047885Y-71050000D01*
X161076022Y-71007890D01*
X161125021Y-70889598D01*
X161150000Y-70764019D01*
X161150000Y-70635981D01*
X161125021Y-70510402D01*
X161076022Y-70392110D01*
X161047885Y-70350000D01*
X161076022Y-70307890D01*
X161125021Y-70189598D01*
X161150000Y-70064019D01*
X161150000Y-69935981D01*
X161125021Y-69810402D01*
X161076022Y-69692110D01*
X161047885Y-69650000D01*
X161076022Y-69607890D01*
X161125021Y-69489598D01*
X161150000Y-69364019D01*
X161150000Y-69235981D01*
X161125021Y-69110402D01*
X161076022Y-68992110D01*
X161047885Y-68950000D01*
X161076022Y-68907890D01*
X161125021Y-68789598D01*
X161134036Y-68744273D01*
X162325000Y-68744273D01*
X162325000Y-68975727D01*
X162370155Y-69202735D01*
X162458729Y-69416571D01*
X162587318Y-69609019D01*
X162750981Y-69772682D01*
X162943429Y-69901271D01*
X163157265Y-69989845D01*
X163384273Y-70035000D01*
X163615727Y-70035000D01*
X163842735Y-69989845D01*
X164056571Y-69901271D01*
X164249019Y-69772682D01*
X164412682Y-69609019D01*
X164541271Y-69416571D01*
X164629845Y-69202735D01*
X164675000Y-68975727D01*
X164675000Y-68744273D01*
X164629845Y-68517265D01*
X164541271Y-68303429D01*
X164412682Y-68110981D01*
X164249019Y-67947318D01*
X164056571Y-67818729D01*
X163842735Y-67730155D01*
X163615727Y-67685000D01*
X163384273Y-67685000D01*
X163157265Y-67730155D01*
X162943429Y-67818729D01*
X162750981Y-67947318D01*
X162587318Y-68110981D01*
X162458729Y-68303429D01*
X162370155Y-68517265D01*
X162325000Y-68744273D01*
X161134036Y-68744273D01*
X161150000Y-68664019D01*
X161150000Y-68535981D01*
X161125021Y-68410402D01*
X161076022Y-68292110D01*
X161047885Y-68250000D01*
X161076022Y-68207890D01*
X161125021Y-68089598D01*
X161150000Y-67964019D01*
X161150000Y-67835981D01*
X161125021Y-67710402D01*
X161076022Y-67592110D01*
X161047885Y-67550000D01*
X161076022Y-67507890D01*
X161125021Y-67389598D01*
X161150000Y-67264019D01*
X161150000Y-67135981D01*
X161125021Y-67010402D01*
X161076022Y-66892110D01*
X161047885Y-66850000D01*
X161076022Y-66807890D01*
X161125021Y-66689598D01*
X161150000Y-66564019D01*
X161150000Y-66435981D01*
X161125021Y-66310402D01*
X161076022Y-66192110D01*
X161047885Y-66150000D01*
X161076022Y-66107890D01*
X161125021Y-65989598D01*
X161150000Y-65864019D01*
X161150000Y-65735981D01*
X161125021Y-65610402D01*
X161076022Y-65492110D01*
X161004888Y-65385649D01*
X160979239Y-65360000D01*
X162322944Y-65360000D01*
X162322944Y-66360000D01*
X162335953Y-66492087D01*
X162374482Y-66619098D01*
X162437049Y-66736152D01*
X162521249Y-66838751D01*
X162623848Y-66922951D01*
X162740902Y-66985518D01*
X162867913Y-67024047D01*
X163000000Y-67037056D01*
X164000000Y-67037056D01*
X164132087Y-67024047D01*
X164259098Y-66985518D01*
X164376152Y-66922951D01*
X164478751Y-66838751D01*
X164562951Y-66736152D01*
X164625518Y-66619098D01*
X164664047Y-66492087D01*
X164677056Y-66360000D01*
X164677056Y-65360000D01*
X164664047Y-65227913D01*
X164625518Y-65100902D01*
X164562951Y-64983848D01*
X164478751Y-64881249D01*
X164376152Y-64797049D01*
X164259098Y-64734482D01*
X164132087Y-64695953D01*
X164000000Y-64682944D01*
X163000000Y-64682944D01*
X162867913Y-64695953D01*
X162740902Y-64734482D01*
X162623848Y-64797049D01*
X162521249Y-64881249D01*
X162437049Y-64983848D01*
X162374482Y-65100902D01*
X162335953Y-65227913D01*
X162322944Y-65360000D01*
X160979239Y-65360000D01*
X160914351Y-65295112D01*
X160807890Y-65223978D01*
X160689598Y-65174979D01*
X160564019Y-65150000D01*
X160435981Y-65150000D01*
X160310402Y-65174979D01*
X160192110Y-65223978D01*
X160085649Y-65295112D01*
X159995112Y-65385649D01*
X159923978Y-65492110D01*
X159874979Y-65610402D01*
X159850000Y-65735981D01*
X123897372Y-65735981D01*
X123882999Y-65709092D01*
X123661187Y-65438813D01*
X123390908Y-65217001D01*
X123238018Y-65135280D01*
X123289598Y-65125020D01*
X123407890Y-65076021D01*
X123514351Y-65004887D01*
X123604888Y-64914350D01*
X123676022Y-64807889D01*
X123725021Y-64689597D01*
X123750000Y-64564018D01*
X123750000Y-64435980D01*
X123725021Y-64310401D01*
X123676022Y-64192109D01*
X123604888Y-64085648D01*
X123514351Y-63995111D01*
X123407890Y-63923977D01*
X123289598Y-63874978D01*
X123164019Y-63849999D01*
X123035981Y-63849999D01*
X122910402Y-63874978D01*
X122792110Y-63923977D01*
X122685649Y-63995111D01*
X122600000Y-64080761D01*
X122514351Y-63995112D01*
X122407890Y-63923978D01*
X122289598Y-63874979D01*
X122164019Y-63850000D01*
X122035981Y-63850000D01*
X121910402Y-63874979D01*
X121792110Y-63923978D01*
X121685649Y-63995112D01*
X121600000Y-64080761D01*
X121514351Y-63995112D01*
X121407890Y-63923978D01*
X121289598Y-63874979D01*
X121164019Y-63850000D01*
X121035981Y-63850000D01*
X120910402Y-63874979D01*
X120792110Y-63923978D01*
X120685649Y-63995112D01*
X120595112Y-64085649D01*
X120523978Y-64192110D01*
X120474979Y-64310402D01*
X120450000Y-64435981D01*
X120450000Y-64564019D01*
X120474979Y-64689598D01*
X120523978Y-64807890D01*
X120595112Y-64914351D01*
X120685649Y-65004888D01*
X120792110Y-65076022D01*
X120910402Y-65125021D01*
X120961980Y-65135280D01*
X120809092Y-65217001D01*
X120538813Y-65438813D01*
X120317001Y-65709092D01*
X120152180Y-66017450D01*
X120050683Y-66352039D01*
X120016412Y-66700000D01*
X112925000Y-66700000D01*
X112925000Y-61449801D01*
X113275000Y-61449801D01*
X113275000Y-61750199D01*
X113333605Y-62044826D01*
X113448562Y-62322358D01*
X113615455Y-62572131D01*
X113827869Y-62784545D01*
X114077642Y-62951438D01*
X114355174Y-63066395D01*
X114649801Y-63125000D01*
X114950199Y-63125000D01*
X115244826Y-63066395D01*
X115522358Y-62951438D01*
X115772131Y-62784545D01*
X115787781Y-62768895D01*
X166515000Y-62768895D01*
X166515000Y-62951105D01*
X166550547Y-63129813D01*
X166620275Y-63298152D01*
X166721505Y-63449653D01*
X166850347Y-63578495D01*
X167001848Y-63679725D01*
X167170187Y-63749453D01*
X167348895Y-63785000D01*
X167531105Y-63785000D01*
X167709813Y-63749453D01*
X167878152Y-63679725D01*
X168029653Y-63578495D01*
X168158495Y-63449653D01*
X168259725Y-63298152D01*
X168329453Y-63129813D01*
X168365000Y-62951105D01*
X168365000Y-62768895D01*
X168329453Y-62590187D01*
X168259725Y-62421848D01*
X168158495Y-62270347D01*
X168029653Y-62141505D01*
X167878152Y-62040275D01*
X167709813Y-61970547D01*
X167531105Y-61935000D01*
X167348895Y-61935000D01*
X167170187Y-61970547D01*
X167001848Y-62040275D01*
X166850347Y-62141505D01*
X166721505Y-62270347D01*
X166620275Y-62421848D01*
X166550547Y-62590187D01*
X166515000Y-62768895D01*
X115787781Y-62768895D01*
X115984545Y-62572131D01*
X116151438Y-62322358D01*
X116266395Y-62044826D01*
X116325000Y-61750199D01*
X116325000Y-61449801D01*
X116266395Y-61155174D01*
X116151438Y-60877642D01*
X115984545Y-60627869D01*
X115772131Y-60415455D01*
X115522358Y-60248562D01*
X115244826Y-60133605D01*
X114950199Y-60075000D01*
X114649801Y-60075000D01*
X114355174Y-60133605D01*
X114077642Y-60248562D01*
X113827869Y-60415455D01*
X113615455Y-60627869D01*
X113448562Y-60877642D01*
X113333605Y-61155174D01*
X113275000Y-61449801D01*
X112925000Y-61449801D01*
X112925000Y-60985164D01*
X113094310Y-60666740D01*
X113346915Y-60357017D01*
X113654861Y-60102262D01*
X113982700Y-59925000D01*
X169014836Y-59925000D01*
X169333260Y-60094310D01*
%TA.AperFunction,Conductor*%
D17*
G36*
X169333260Y-60094310D02*
G01*
X169642983Y-60346915D01*
X169897738Y-60654861D01*
X170075000Y-60982700D01*
X170075000Y-113514835D01*
X169905692Y-113833258D01*
X169653090Y-114142979D01*
X169345141Y-114397736D01*
X169017299Y-114575000D01*
X113985165Y-114575000D01*
X113666742Y-114405692D01*
X113357021Y-114153090D01*
X113102264Y-113845141D01*
X112925000Y-113517299D01*
X112925000Y-112749801D01*
X113275000Y-112749801D01*
X113275000Y-113050199D01*
X113333605Y-113344826D01*
X113448562Y-113622358D01*
X113615455Y-113872131D01*
X113827869Y-114084545D01*
X114077642Y-114251438D01*
X114355174Y-114366395D01*
X114649801Y-114425000D01*
X114950199Y-114425000D01*
X115244826Y-114366395D01*
X115522358Y-114251438D01*
X115772131Y-114084545D01*
X115984545Y-113872131D01*
X116151438Y-113622358D01*
X116266395Y-113344826D01*
X116325000Y-113050199D01*
X116325000Y-112749801D01*
X116266395Y-112455174D01*
X116151438Y-112177642D01*
X115984545Y-111927869D01*
X115772131Y-111715455D01*
X115522358Y-111548562D01*
X115244826Y-111433605D01*
X114950199Y-111375000D01*
X114649801Y-111375000D01*
X114355174Y-111433605D01*
X114077642Y-111548562D01*
X113827869Y-111715455D01*
X113615455Y-111927869D01*
X113448562Y-112177642D01*
X113333605Y-112455174D01*
X113275000Y-112749801D01*
X112925000Y-112749801D01*
X112925000Y-111018895D01*
X166515000Y-111018895D01*
X166515000Y-111201105D01*
X166550547Y-111379813D01*
X166620275Y-111548152D01*
X166721505Y-111699653D01*
X166850347Y-111828495D01*
X167001848Y-111929725D01*
X167170187Y-111999453D01*
X167348895Y-112035000D01*
X167531105Y-112035000D01*
X167709813Y-111999453D01*
X167878152Y-111929725D01*
X168029653Y-111828495D01*
X168158495Y-111699653D01*
X168259725Y-111548152D01*
X168329453Y-111379813D01*
X168365000Y-111201105D01*
X168365000Y-111018895D01*
X168329453Y-110840187D01*
X168259725Y-110671848D01*
X168158495Y-110520347D01*
X168029653Y-110391505D01*
X167878152Y-110290275D01*
X167709813Y-110220547D01*
X167531105Y-110185000D01*
X167348895Y-110185000D01*
X167170187Y-110220547D01*
X167001848Y-110290275D01*
X166850347Y-110391505D01*
X166721505Y-110520347D01*
X166620275Y-110671848D01*
X166550547Y-110840187D01*
X166515000Y-111018895D01*
X112925000Y-111018895D01*
X112925000Y-104335981D01*
X135450000Y-104335981D01*
X135450000Y-104464019D01*
X135474979Y-104589598D01*
X135523978Y-104707890D01*
X135595112Y-104814351D01*
X135685649Y-104904888D01*
X135792110Y-104976022D01*
X135910402Y-105025021D01*
X136035981Y-105050000D01*
X136164019Y-105050000D01*
X136289598Y-105025021D01*
X136407890Y-104976022D01*
X136514351Y-104904888D01*
X136604888Y-104814351D01*
X136676022Y-104707890D01*
X136725021Y-104589598D01*
X136750000Y-104464019D01*
X136750000Y-104335981D01*
X136725021Y-104210402D01*
X136676022Y-104092110D01*
X136604888Y-103985649D01*
X136514351Y-103895112D01*
X136407890Y-103823978D01*
X136289598Y-103774979D01*
X136164019Y-103750000D01*
X136035981Y-103750000D01*
X135910402Y-103774979D01*
X135792110Y-103823978D01*
X135685649Y-103895112D01*
X135595112Y-103985649D01*
X135523978Y-104092110D01*
X135474979Y-104210402D01*
X135450000Y-104335981D01*
X112925000Y-104335981D01*
X112925000Y-103135985D01*
X137450000Y-103135985D01*
X137450000Y-103264023D01*
X137474979Y-103389602D01*
X137523978Y-103507894D01*
X137595112Y-103614355D01*
X137685649Y-103704892D01*
X137792110Y-103776026D01*
X137910402Y-103825025D01*
X138035981Y-103850004D01*
X138164019Y-103850004D01*
X138289598Y-103825025D01*
X138407890Y-103776026D01*
X138514351Y-103704892D01*
X138604888Y-103614355D01*
X138676022Y-103507894D01*
X138725021Y-103389602D01*
X138750000Y-103264023D01*
X138750000Y-103135985D01*
X138725021Y-103010406D01*
X138676022Y-102892114D01*
X138604888Y-102785653D01*
X138514351Y-102695116D01*
X138407890Y-102623982D01*
X138289598Y-102574983D01*
X138164019Y-102550004D01*
X138035981Y-102550004D01*
X137910402Y-102574983D01*
X137792110Y-102623982D01*
X137685649Y-102695116D01*
X137595112Y-102785653D01*
X137523978Y-102892114D01*
X137474979Y-103010406D01*
X137450000Y-103135985D01*
X112925000Y-103135985D01*
X112925000Y-101735981D01*
X160250000Y-101735981D01*
X160250000Y-101864019D01*
X160274979Y-101989598D01*
X160323978Y-102107890D01*
X160352115Y-102150000D01*
X160323978Y-102192110D01*
X160274979Y-102310402D01*
X160250000Y-102435981D01*
X160250000Y-102564019D01*
X160274979Y-102689598D01*
X160323978Y-102807890D01*
X160352115Y-102850000D01*
X160323978Y-102892110D01*
X160274979Y-103010402D01*
X160250000Y-103135981D01*
X160250000Y-103264019D01*
X160274979Y-103389598D01*
X160323978Y-103507890D01*
X160352115Y-103550000D01*
X160323978Y-103592110D01*
X160274979Y-103710402D01*
X160250000Y-103835981D01*
X160250000Y-103964019D01*
X160274979Y-104089598D01*
X160323978Y-104207890D01*
X160352115Y-104250000D01*
X160323978Y-104292110D01*
X160274979Y-104410402D01*
X160250000Y-104535981D01*
X160250000Y-104664019D01*
X160274979Y-104789598D01*
X160323978Y-104907890D01*
X160352115Y-104950000D01*
X160323978Y-104992110D01*
X160274979Y-105110402D01*
X160250000Y-105235981D01*
X160250000Y-105364019D01*
X160274979Y-105489598D01*
X160323978Y-105607890D01*
X160352115Y-105650000D01*
X160323978Y-105692110D01*
X160274979Y-105810402D01*
X160250000Y-105935981D01*
X160250000Y-106064019D01*
X160274979Y-106189598D01*
X160323978Y-106307890D01*
X160352115Y-106350000D01*
X160323978Y-106392110D01*
X160274979Y-106510402D01*
X160250000Y-106635981D01*
X160250000Y-106764019D01*
X160274979Y-106889598D01*
X160323978Y-107007890D01*
X160352115Y-107050000D01*
X160323978Y-107092110D01*
X160274979Y-107210402D01*
X160250000Y-107335981D01*
X160250000Y-107464019D01*
X160274979Y-107589598D01*
X160323978Y-107707890D01*
X160352115Y-107750000D01*
X160323978Y-107792110D01*
X160274979Y-107910402D01*
X160250000Y-108035981D01*
X160250000Y-108164019D01*
X160274979Y-108289598D01*
X160323978Y-108407890D01*
X160395112Y-108514351D01*
X160485649Y-108604888D01*
X160592110Y-108676022D01*
X160710402Y-108725021D01*
X160835981Y-108750000D01*
X160964019Y-108750000D01*
X161089598Y-108725021D01*
X161207890Y-108676022D01*
X161314351Y-108604888D01*
X161404888Y-108514351D01*
X161476022Y-108407890D01*
X161525021Y-108289598D01*
X161550000Y-108164019D01*
X161550000Y-108035981D01*
X161541704Y-107994273D01*
X162325000Y-107994273D01*
X162325000Y-108225727D01*
X162370155Y-108452735D01*
X162458729Y-108666571D01*
X162587318Y-108859019D01*
X162750981Y-109022682D01*
X162943429Y-109151271D01*
X163157265Y-109239845D01*
X163384273Y-109285000D01*
X163615727Y-109285000D01*
X163842735Y-109239845D01*
X164056571Y-109151271D01*
X164249019Y-109022682D01*
X164412682Y-108859019D01*
X164541271Y-108666571D01*
X164629845Y-108452735D01*
X164675000Y-108225727D01*
X164675000Y-107994273D01*
X164629845Y-107767265D01*
X164541271Y-107553429D01*
X164412682Y-107360981D01*
X164249019Y-107197318D01*
X164056571Y-107068729D01*
X163842735Y-106980155D01*
X163615727Y-106935000D01*
X163384273Y-106935000D01*
X163157265Y-106980155D01*
X162943429Y-107068729D01*
X162750981Y-107197318D01*
X162587318Y-107360981D01*
X162458729Y-107553429D01*
X162370155Y-107767265D01*
X162325000Y-107994273D01*
X161541704Y-107994273D01*
X161525021Y-107910402D01*
X161476022Y-107792110D01*
X161447885Y-107750000D01*
X161476022Y-107707890D01*
X161525021Y-107589598D01*
X161550000Y-107464019D01*
X161550000Y-107335981D01*
X161525021Y-107210402D01*
X161476022Y-107092110D01*
X161447885Y-107050000D01*
X161476022Y-107007890D01*
X161525021Y-106889598D01*
X161550000Y-106764019D01*
X161550000Y-106635981D01*
X161525021Y-106510402D01*
X161476022Y-106392110D01*
X161447885Y-106350000D01*
X161476022Y-106307890D01*
X161525021Y-106189598D01*
X161550000Y-106064019D01*
X161550000Y-105935981D01*
X161525021Y-105810402D01*
X161476022Y-105692110D01*
X161447885Y-105650000D01*
X161476022Y-105607890D01*
X161525021Y-105489598D01*
X161550000Y-105364019D01*
X161550000Y-105235981D01*
X161525021Y-105110402D01*
X161476918Y-104994273D01*
X162325000Y-104994273D01*
X162325000Y-105225727D01*
X162370155Y-105452735D01*
X162458729Y-105666571D01*
X162587318Y-105859019D01*
X162750981Y-106022682D01*
X162943429Y-106151271D01*
X163157265Y-106239845D01*
X163384273Y-106285000D01*
X163615727Y-106285000D01*
X163842735Y-106239845D01*
X164056571Y-106151271D01*
X164249019Y-106022682D01*
X164412682Y-105859019D01*
X164541271Y-105666571D01*
X164629845Y-105452735D01*
X164675000Y-105225727D01*
X164675000Y-104994273D01*
X164629845Y-104767265D01*
X164541271Y-104553429D01*
X164412682Y-104360981D01*
X164249019Y-104197318D01*
X164056571Y-104068729D01*
X163842735Y-103980155D01*
X163615727Y-103935000D01*
X163384273Y-103935000D01*
X163157265Y-103980155D01*
X162943429Y-104068729D01*
X162750981Y-104197318D01*
X162587318Y-104360981D01*
X162458729Y-104553429D01*
X162370155Y-104767265D01*
X162325000Y-104994273D01*
X161476918Y-104994273D01*
X161476022Y-104992110D01*
X161447885Y-104950000D01*
X161476022Y-104907890D01*
X161525021Y-104789598D01*
X161550000Y-104664019D01*
X161550000Y-104535981D01*
X161525021Y-104410402D01*
X161476022Y-104292110D01*
X161447885Y-104250000D01*
X161476022Y-104207890D01*
X161525021Y-104089598D01*
X161550000Y-103964019D01*
X161550000Y-103835981D01*
X161525021Y-103710402D01*
X161476022Y-103592110D01*
X161447885Y-103550000D01*
X161476022Y-103507890D01*
X161525021Y-103389598D01*
X161550000Y-103264019D01*
X161550000Y-103135981D01*
X161525021Y-103010402D01*
X161476022Y-102892110D01*
X161447885Y-102850000D01*
X161476022Y-102807890D01*
X161525021Y-102689598D01*
X161550000Y-102564019D01*
X161550000Y-102435981D01*
X161525021Y-102310402D01*
X161476022Y-102192110D01*
X161447885Y-102150000D01*
X161476022Y-102107890D01*
X161523084Y-101994273D01*
X162325000Y-101994273D01*
X162325000Y-102225727D01*
X162370155Y-102452735D01*
X162458729Y-102666571D01*
X162587318Y-102859019D01*
X162750981Y-103022682D01*
X162943429Y-103151271D01*
X163157265Y-103239845D01*
X163384273Y-103285000D01*
X163615727Y-103285000D01*
X163842735Y-103239845D01*
X164056571Y-103151271D01*
X164249019Y-103022682D01*
X164412682Y-102859019D01*
X164541271Y-102666571D01*
X164629845Y-102452735D01*
X164675000Y-102225727D01*
X164675000Y-101994273D01*
X164629845Y-101767265D01*
X164541271Y-101553429D01*
X164412682Y-101360981D01*
X164249019Y-101197318D01*
X164056571Y-101068729D01*
X163842735Y-100980155D01*
X163615727Y-100935000D01*
X163384273Y-100935000D01*
X163157265Y-100980155D01*
X162943429Y-101068729D01*
X162750981Y-101197318D01*
X162587318Y-101360981D01*
X162458729Y-101553429D01*
X162370155Y-101767265D01*
X162325000Y-101994273D01*
X161523084Y-101994273D01*
X161525021Y-101989598D01*
X161550000Y-101864019D01*
X161550000Y-101735981D01*
X161525021Y-101610402D01*
X161476022Y-101492110D01*
X161404888Y-101385649D01*
X161314351Y-101295112D01*
X161207890Y-101223978D01*
X161089598Y-101174979D01*
X160964019Y-101150000D01*
X160835981Y-101150000D01*
X160710402Y-101174979D01*
X160592110Y-101223978D01*
X160485649Y-101295112D01*
X160395112Y-101385649D01*
X160323978Y-101492110D01*
X160274979Y-101610402D01*
X160250000Y-101735981D01*
X112925000Y-101735981D01*
X112925000Y-98994273D01*
X162325000Y-98994273D01*
X162325000Y-99225727D01*
X162370155Y-99452735D01*
X162458729Y-99666571D01*
X162587318Y-99859019D01*
X162750981Y-100022682D01*
X162943429Y-100151271D01*
X163157265Y-100239845D01*
X163384273Y-100285000D01*
X163615727Y-100285000D01*
X163842735Y-100239845D01*
X164056571Y-100151271D01*
X164249019Y-100022682D01*
X164412682Y-99859019D01*
X164541271Y-99666571D01*
X164629845Y-99452735D01*
X164675000Y-99225727D01*
X164675000Y-98994273D01*
X164629845Y-98767265D01*
X164541271Y-98553429D01*
X164412682Y-98360981D01*
X164249019Y-98197318D01*
X164056571Y-98068729D01*
X163842735Y-97980155D01*
X163615727Y-97935000D01*
X163384273Y-97935000D01*
X163157265Y-97980155D01*
X162943429Y-98068729D01*
X162750981Y-98197318D01*
X162587318Y-98360981D01*
X162458729Y-98553429D01*
X162370155Y-98767265D01*
X162325000Y-98994273D01*
X112925000Y-98994273D01*
X112925000Y-98075981D01*
X143240000Y-98075981D01*
X143240000Y-98204019D01*
X143264979Y-98329598D01*
X143313978Y-98447890D01*
X143385112Y-98554351D01*
X143475649Y-98644888D01*
X143582110Y-98716022D01*
X143700402Y-98765021D01*
X143825981Y-98790000D01*
X143954019Y-98790000D01*
X144079598Y-98765021D01*
X144197890Y-98716022D01*
X144304351Y-98644888D01*
X144394888Y-98554351D01*
X144466022Y-98447890D01*
X144515021Y-98329598D01*
X144540000Y-98204019D01*
X144540000Y-98075981D01*
X144515021Y-97950402D01*
X144466022Y-97832110D01*
X144394888Y-97725649D01*
X144304351Y-97635112D01*
X144197890Y-97563978D01*
X144079598Y-97514979D01*
X143954019Y-97490000D01*
X143825981Y-97490000D01*
X143700402Y-97514979D01*
X143582110Y-97563978D01*
X143475649Y-97635112D01*
X143385112Y-97725649D01*
X143313978Y-97832110D01*
X143264979Y-97950402D01*
X143240000Y-98075981D01*
X112925000Y-98075981D01*
X112925000Y-95925981D01*
X136140000Y-95925981D01*
X136140000Y-96054019D01*
X136164979Y-96179598D01*
X136213978Y-96297890D01*
X136285112Y-96404351D01*
X136375649Y-96494888D01*
X136482110Y-96566022D01*
X136600402Y-96615021D01*
X136725981Y-96640000D01*
X136854019Y-96640000D01*
X136979598Y-96615021D01*
X137097890Y-96566022D01*
X137204351Y-96494888D01*
X137294888Y-96404351D01*
X137366022Y-96297890D01*
X137415021Y-96179598D01*
X137440000Y-96054019D01*
X137440000Y-95925981D01*
X137415021Y-95800402D01*
X137366022Y-95682110D01*
X137294888Y-95575649D01*
X137204351Y-95485112D01*
X137097890Y-95413978D01*
X136979598Y-95364979D01*
X136854019Y-95340000D01*
X136725981Y-95340000D01*
X136600402Y-95364979D01*
X136482110Y-95413978D01*
X136375649Y-95485112D01*
X136285112Y-95575649D01*
X136213978Y-95682110D01*
X136164979Y-95800402D01*
X136140000Y-95925981D01*
X112925000Y-95925981D01*
X112925000Y-94835981D01*
X156750000Y-94835981D01*
X156750000Y-94964019D01*
X156774979Y-95089598D01*
X156823978Y-95207890D01*
X156895112Y-95314351D01*
X156980761Y-95400000D01*
X156895112Y-95485649D01*
X156823978Y-95592110D01*
X156774979Y-95710402D01*
X156750000Y-95835981D01*
X156750000Y-95964019D01*
X156774979Y-96089598D01*
X156823978Y-96207890D01*
X156895112Y-96314351D01*
X156980761Y-96400000D01*
X156895112Y-96485649D01*
X156823978Y-96592110D01*
X156774979Y-96710402D01*
X156750000Y-96835981D01*
X156750000Y-96964019D01*
X156774979Y-97089598D01*
X156823978Y-97207890D01*
X156895112Y-97314351D01*
X156985649Y-97404888D01*
X157092110Y-97476022D01*
X157210402Y-97525021D01*
X157335981Y-97550000D01*
X157464019Y-97550000D01*
X157589598Y-97525021D01*
X157707890Y-97476022D01*
X157814351Y-97404888D01*
X157900000Y-97319239D01*
X157985649Y-97404888D01*
X158092110Y-97476022D01*
X158210402Y-97525021D01*
X158335981Y-97550000D01*
X158464019Y-97550000D01*
X158589598Y-97525021D01*
X158707890Y-97476022D01*
X158814351Y-97404888D01*
X158900000Y-97319239D01*
X158985649Y-97404888D01*
X159092110Y-97476022D01*
X159210402Y-97525021D01*
X159335981Y-97550000D01*
X159464019Y-97550000D01*
X159589598Y-97525021D01*
X159707890Y-97476022D01*
X159814351Y-97404888D01*
X159900000Y-97319239D01*
X159985649Y-97404888D01*
X160092110Y-97476022D01*
X160210402Y-97525021D01*
X160335981Y-97550000D01*
X160464019Y-97550000D01*
X160589598Y-97525021D01*
X160707890Y-97476022D01*
X160814351Y-97404888D01*
X160900000Y-97319239D01*
X160985649Y-97404888D01*
X161092110Y-97476022D01*
X161210402Y-97525021D01*
X161335981Y-97550000D01*
X161464019Y-97550000D01*
X161589598Y-97525021D01*
X161707890Y-97476022D01*
X161814351Y-97404888D01*
X161904888Y-97314351D01*
X161976022Y-97207890D01*
X162025021Y-97089598D01*
X162050000Y-96964019D01*
X162050000Y-96835981D01*
X162025021Y-96710402D01*
X161976022Y-96592110D01*
X161904888Y-96485649D01*
X161819239Y-96400000D01*
X161904888Y-96314351D01*
X161976022Y-96207890D01*
X162025021Y-96089598D01*
X162050000Y-95964019D01*
X162050000Y-95835981D01*
X162025021Y-95710402D01*
X161983433Y-95610000D01*
X162322944Y-95610000D01*
X162322944Y-96610000D01*
X162335953Y-96742087D01*
X162374482Y-96869098D01*
X162437049Y-96986152D01*
X162521249Y-97088751D01*
X162623848Y-97172951D01*
X162740902Y-97235518D01*
X162867913Y-97274047D01*
X163000000Y-97287056D01*
X164000000Y-97287056D01*
X164132087Y-97274047D01*
X164259098Y-97235518D01*
X164376152Y-97172951D01*
X164478751Y-97088751D01*
X164562951Y-96986152D01*
X164625518Y-96869098D01*
X164664047Y-96742087D01*
X164677056Y-96610000D01*
X164677056Y-95610000D01*
X164664047Y-95477913D01*
X164625518Y-95350902D01*
X164562951Y-95233848D01*
X164478751Y-95131249D01*
X164376152Y-95047049D01*
X164259098Y-94984482D01*
X164132087Y-94945953D01*
X164000000Y-94932944D01*
X163000000Y-94932944D01*
X162867913Y-94945953D01*
X162740902Y-94984482D01*
X162623848Y-95047049D01*
X162521249Y-95131249D01*
X162437049Y-95233848D01*
X162374482Y-95350902D01*
X162335953Y-95477913D01*
X162322944Y-95610000D01*
X161983433Y-95610000D01*
X161976022Y-95592110D01*
X161904888Y-95485649D01*
X161819239Y-95400000D01*
X161904888Y-95314351D01*
X161976022Y-95207890D01*
X162025021Y-95089598D01*
X162050000Y-94964019D01*
X162050000Y-94835981D01*
X162025021Y-94710402D01*
X161976022Y-94592110D01*
X161904888Y-94485649D01*
X161814351Y-94395112D01*
X161707890Y-94323978D01*
X161589598Y-94274979D01*
X161464019Y-94250000D01*
X161335981Y-94250000D01*
X161210402Y-94274979D01*
X161092110Y-94323978D01*
X160985649Y-94395112D01*
X160900000Y-94480761D01*
X160814351Y-94395112D01*
X160707890Y-94323978D01*
X160589598Y-94274979D01*
X160464019Y-94250000D01*
X160335981Y-94250000D01*
X160210402Y-94274979D01*
X160092110Y-94323978D01*
X159985649Y-94395112D01*
X159900000Y-94480761D01*
X159814351Y-94395112D01*
X159707890Y-94323978D01*
X159589598Y-94274979D01*
X159464019Y-94250000D01*
X159335981Y-94250000D01*
X159210402Y-94274979D01*
X159092110Y-94323978D01*
X158985649Y-94395112D01*
X158900000Y-94480761D01*
X158814351Y-94395112D01*
X158707890Y-94323978D01*
X158589598Y-94274979D01*
X158464019Y-94250000D01*
X158335981Y-94250000D01*
X158210402Y-94274979D01*
X158092110Y-94323978D01*
X157985649Y-94395112D01*
X157900000Y-94480761D01*
X157814351Y-94395112D01*
X157707890Y-94323978D01*
X157589598Y-94274979D01*
X157464019Y-94250000D01*
X157335981Y-94250000D01*
X157210402Y-94274979D01*
X157092110Y-94323978D01*
X156985649Y-94395112D01*
X156895112Y-94485649D01*
X156823978Y-94592110D01*
X156774979Y-94710402D01*
X156750000Y-94835981D01*
X112925000Y-94835981D01*
X112925000Y-93585970D01*
X137340011Y-93585970D01*
X137340011Y-93714008D01*
X137364990Y-93839587D01*
X137413989Y-93957879D01*
X137485123Y-94064340D01*
X137575660Y-94154877D01*
X137682121Y-94226011D01*
X137800413Y-94275010D01*
X137925992Y-94299989D01*
X138054030Y-94299989D01*
X138179609Y-94275010D01*
X138297901Y-94226011D01*
X138404362Y-94154877D01*
X138494899Y-94064340D01*
X138566033Y-93957879D01*
X138615032Y-93839587D01*
X138640011Y-93714008D01*
X138640011Y-93585970D01*
X138615032Y-93460391D01*
X138566033Y-93342099D01*
X138494899Y-93235638D01*
X138404362Y-93145101D01*
X138297901Y-93073967D01*
X138179609Y-93024968D01*
X138149078Y-93018895D01*
X166515000Y-93018895D01*
X166515000Y-93201105D01*
X166550547Y-93379813D01*
X166620275Y-93548152D01*
X166721505Y-93699653D01*
X166850347Y-93828495D01*
X167001848Y-93929725D01*
X167170187Y-93999453D01*
X167348895Y-94035000D01*
X167531105Y-94035000D01*
X167709813Y-93999453D01*
X167878152Y-93929725D01*
X168029653Y-93828495D01*
X168158495Y-93699653D01*
X168259725Y-93548152D01*
X168329453Y-93379813D01*
X168365000Y-93201105D01*
X168365000Y-93018895D01*
X168329453Y-92840187D01*
X168259725Y-92671848D01*
X168158495Y-92520347D01*
X168029653Y-92391505D01*
X167878152Y-92290275D01*
X167709813Y-92220547D01*
X167531105Y-92185000D01*
X167348895Y-92185000D01*
X167170187Y-92220547D01*
X167001848Y-92290275D01*
X166850347Y-92391505D01*
X166721505Y-92520347D01*
X166620275Y-92671848D01*
X166550547Y-92840187D01*
X166515000Y-93018895D01*
X138149078Y-93018895D01*
X138054030Y-92999989D01*
X137925992Y-92999989D01*
X137800413Y-93024968D01*
X137682121Y-93073967D01*
X137575660Y-93145101D01*
X137485123Y-93235638D01*
X137413989Y-93342099D01*
X137364990Y-93460391D01*
X137340011Y-93585970D01*
X112925000Y-93585970D01*
X112925000Y-90945995D01*
X135260016Y-90945995D01*
X135260016Y-91074033D01*
X135284995Y-91199612D01*
X135333994Y-91317904D01*
X135405128Y-91424365D01*
X135495665Y-91514902D01*
X135602126Y-91586036D01*
X135720418Y-91635035D01*
X135845997Y-91660014D01*
X135974035Y-91660014D01*
X136099614Y-91635035D01*
X136217906Y-91586036D01*
X136324367Y-91514902D01*
X136414904Y-91424365D01*
X136486038Y-91317904D01*
X136535037Y-91199612D01*
X136560016Y-91074033D01*
X136560016Y-90945995D01*
X136535037Y-90820416D01*
X136486038Y-90702124D01*
X136414904Y-90595663D01*
X136324367Y-90505126D01*
X136217906Y-90433992D01*
X136114252Y-90391056D01*
X144790000Y-90391056D01*
X144790000Y-90528944D01*
X144816901Y-90664182D01*
X144869668Y-90791574D01*
X144946274Y-90906224D01*
X145043776Y-91003726D01*
X145158426Y-91080332D01*
X145285818Y-91133099D01*
X145421056Y-91160000D01*
X145558944Y-91160000D01*
X145694182Y-91133099D01*
X145821574Y-91080332D01*
X145936224Y-91003726D01*
X146033726Y-90906224D01*
X146110332Y-90791574D01*
X146163099Y-90664182D01*
X146190000Y-90528944D01*
X146190000Y-90391056D01*
X146163099Y-90255818D01*
X146110332Y-90128426D01*
X146033726Y-90013776D01*
X145936224Y-89916274D01*
X145821574Y-89839668D01*
X145694182Y-89786901D01*
X145558944Y-89760000D01*
X145421056Y-89760000D01*
X145285818Y-89786901D01*
X145158426Y-89839668D01*
X145043776Y-89916274D01*
X144946274Y-90013776D01*
X144869668Y-90128426D01*
X144816901Y-90255818D01*
X144790000Y-90391056D01*
X136114252Y-90391056D01*
X136099614Y-90384993D01*
X135974035Y-90360014D01*
X135845997Y-90360014D01*
X135720418Y-90384993D01*
X135602126Y-90433992D01*
X135495665Y-90505126D01*
X135405128Y-90595663D01*
X135333994Y-90702124D01*
X135284995Y-90820416D01*
X135260016Y-90945995D01*
X112925000Y-90945995D01*
X112925000Y-84135981D01*
X121150000Y-84135981D01*
X121150000Y-84264019D01*
X121174979Y-84389598D01*
X121223978Y-84507890D01*
X121295112Y-84614351D01*
X121380761Y-84700000D01*
X121295112Y-84785649D01*
X121223978Y-84892110D01*
X121174979Y-85010402D01*
X121150000Y-85135981D01*
X121150000Y-85264019D01*
X121174979Y-85389598D01*
X121223978Y-85507890D01*
X121295112Y-85614351D01*
X121380761Y-85700000D01*
X121295112Y-85785649D01*
X121223978Y-85892110D01*
X121174979Y-86010402D01*
X121150000Y-86135981D01*
X121150000Y-86264019D01*
X121174979Y-86389598D01*
X121223978Y-86507890D01*
X121295112Y-86614351D01*
X121380761Y-86700000D01*
X121295112Y-86785649D01*
X121223978Y-86892110D01*
X121174979Y-87010402D01*
X121150000Y-87135981D01*
X121150000Y-87264019D01*
X121174979Y-87389598D01*
X121223978Y-87507890D01*
X121295112Y-87614351D01*
X121380761Y-87700000D01*
X121295112Y-87785649D01*
X121223978Y-87892110D01*
X121174979Y-88010402D01*
X121150000Y-88135981D01*
X121150000Y-88264019D01*
X121174979Y-88389598D01*
X121223978Y-88507890D01*
X121295112Y-88614351D01*
X121380761Y-88700000D01*
X121295112Y-88785649D01*
X121223978Y-88892110D01*
X121174979Y-89010402D01*
X121150000Y-89135981D01*
X121150000Y-89264019D01*
X121174979Y-89389598D01*
X121223978Y-89507890D01*
X121295112Y-89614351D01*
X121385649Y-89704888D01*
X121492110Y-89776022D01*
X121610402Y-89825021D01*
X121735981Y-89850000D01*
X121864019Y-89850000D01*
X121963179Y-89830276D01*
X121974979Y-89889598D01*
X122023978Y-90007890D01*
X122095112Y-90114351D01*
X122185649Y-90204888D01*
X122292110Y-90276022D01*
X122410402Y-90325021D01*
X122535981Y-90350000D01*
X122664019Y-90350000D01*
X122789598Y-90325021D01*
X122907890Y-90276022D01*
X123014351Y-90204888D01*
X123104888Y-90114351D01*
X123176022Y-90007890D01*
X123225021Y-89889598D01*
X123236821Y-89830276D01*
X123335981Y-89850000D01*
X123464019Y-89850000D01*
X123589598Y-89825021D01*
X123707890Y-89776022D01*
X123814351Y-89704888D01*
X123904888Y-89614351D01*
X123976022Y-89507890D01*
X124025021Y-89389598D01*
X124050000Y-89264019D01*
X124050000Y-89135981D01*
X124025021Y-89010402D01*
X123976022Y-88892110D01*
X123904888Y-88785649D01*
X123819239Y-88700000D01*
X123904888Y-88614351D01*
X123976022Y-88507890D01*
X124025021Y-88389598D01*
X124050000Y-88264019D01*
X124050000Y-88135981D01*
X124025021Y-88010402D01*
X123976022Y-87892110D01*
X123904888Y-87785649D01*
X123819239Y-87700000D01*
X123904888Y-87614351D01*
X123976022Y-87507890D01*
X124025021Y-87389598D01*
X124050000Y-87264019D01*
X124050000Y-87135981D01*
X124025021Y-87010402D01*
X123976022Y-86892110D01*
X123904888Y-86785649D01*
X123855220Y-86735981D01*
X135310000Y-86735981D01*
X135310000Y-86864019D01*
X135334979Y-86989598D01*
X135383978Y-87107890D01*
X135455112Y-87214351D01*
X135545649Y-87304888D01*
X135652110Y-87376022D01*
X135770402Y-87425021D01*
X135895981Y-87450000D01*
X136024019Y-87450000D01*
X136149598Y-87425021D01*
X136267890Y-87376022D01*
X136374351Y-87304888D01*
X136464888Y-87214351D01*
X136536022Y-87107890D01*
X136585021Y-86989598D01*
X136610000Y-86864019D01*
X136610000Y-86735981D01*
X136585021Y-86610402D01*
X136536022Y-86492110D01*
X136464888Y-86385649D01*
X136374351Y-86295112D01*
X136267890Y-86223978D01*
X136149598Y-86174979D01*
X136024019Y-86150000D01*
X135895981Y-86150000D01*
X135770402Y-86174979D01*
X135652110Y-86223978D01*
X135545649Y-86295112D01*
X135455112Y-86385649D01*
X135383978Y-86492110D01*
X135334979Y-86610402D01*
X135310000Y-86735981D01*
X123855220Y-86735981D01*
X123819239Y-86700000D01*
X123904888Y-86614351D01*
X123976022Y-86507890D01*
X124025021Y-86389598D01*
X124050000Y-86264019D01*
X124050000Y-86135981D01*
X137420000Y-86135981D01*
X137420000Y-86264019D01*
X137444979Y-86389598D01*
X137493978Y-86507890D01*
X137565112Y-86614351D01*
X137655649Y-86704888D01*
X137762110Y-86776022D01*
X137832068Y-86805000D01*
X137762110Y-86833978D01*
X137655649Y-86905112D01*
X137565112Y-86995649D01*
X137493978Y-87102110D01*
X137444979Y-87220402D01*
X137420000Y-87345981D01*
X137420000Y-87474019D01*
X137444979Y-87599598D01*
X137493978Y-87717890D01*
X137565112Y-87824351D01*
X137655649Y-87914888D01*
X137762110Y-87986022D01*
X137880402Y-88035021D01*
X138005981Y-88060000D01*
X138134019Y-88060000D01*
X138240000Y-88038919D01*
X138240000Y-88054019D01*
X138264979Y-88179598D01*
X138313978Y-88297890D01*
X138385112Y-88404351D01*
X138475649Y-88494888D01*
X138582110Y-88566022D01*
X138700402Y-88615021D01*
X138825981Y-88640000D01*
X138954019Y-88640000D01*
X139079598Y-88615021D01*
X139197890Y-88566022D01*
X139304351Y-88494888D01*
X139394888Y-88404351D01*
X139466022Y-88297890D01*
X139515021Y-88179598D01*
X139540000Y-88054019D01*
X139540000Y-87925981D01*
X139515021Y-87800402D01*
X139466022Y-87682110D01*
X139394888Y-87575649D01*
X139304351Y-87485112D01*
X139197890Y-87413978D01*
X139079598Y-87364979D01*
X138954019Y-87340000D01*
X138825981Y-87340000D01*
X138720000Y-87361081D01*
X138720000Y-87345981D01*
X138695021Y-87220402D01*
X138660048Y-87135971D01*
X146199982Y-87135971D01*
X146199982Y-87264009D01*
X146224961Y-87389588D01*
X146273960Y-87507880D01*
X146345094Y-87614341D01*
X146435631Y-87704878D01*
X146542092Y-87776012D01*
X146660384Y-87825011D01*
X146785963Y-87849990D01*
X146914001Y-87849990D01*
X147039580Y-87825011D01*
X147157872Y-87776012D01*
X147264333Y-87704878D01*
X147354870Y-87614341D01*
X147426004Y-87507880D01*
X147475003Y-87389588D01*
X147499982Y-87264009D01*
X147499982Y-87135971D01*
X147482842Y-87049801D01*
X165875000Y-87049801D01*
X165875000Y-87350199D01*
X165933605Y-87644826D01*
X166048562Y-87922358D01*
X166215455Y-88172131D01*
X166427869Y-88384545D01*
X166677642Y-88551438D01*
X166955174Y-88666395D01*
X167249801Y-88725000D01*
X167550199Y-88725000D01*
X167844826Y-88666395D01*
X168122358Y-88551438D01*
X168372131Y-88384545D01*
X168584545Y-88172131D01*
X168751438Y-87922358D01*
X168866395Y-87644826D01*
X168925000Y-87350199D01*
X168925000Y-87049801D01*
X168866395Y-86755174D01*
X168751438Y-86477642D01*
X168584545Y-86227869D01*
X168372131Y-86015455D01*
X168122358Y-85848562D01*
X167844826Y-85733605D01*
X167550199Y-85675000D01*
X167249801Y-85675000D01*
X166955174Y-85733605D01*
X166677642Y-85848562D01*
X166427869Y-86015455D01*
X166215455Y-86227869D01*
X166048562Y-86477642D01*
X165933605Y-86755174D01*
X165875000Y-87049801D01*
X147482842Y-87049801D01*
X147475003Y-87010392D01*
X147426004Y-86892100D01*
X147354870Y-86785639D01*
X147310071Y-86740840D01*
X147389598Y-86725021D01*
X147507890Y-86676022D01*
X147614351Y-86604888D01*
X147704888Y-86514351D01*
X147776022Y-86407890D01*
X147825021Y-86289598D01*
X147850000Y-86164019D01*
X147850000Y-86035981D01*
X147825021Y-85910402D01*
X147776022Y-85792110D01*
X147704888Y-85685649D01*
X147614351Y-85595112D01*
X147507890Y-85523978D01*
X147389598Y-85474979D01*
X147264019Y-85450000D01*
X147135981Y-85450000D01*
X147010402Y-85474979D01*
X146892110Y-85523978D01*
X146785649Y-85595112D01*
X146695112Y-85685649D01*
X146623978Y-85792110D01*
X146574979Y-85910402D01*
X146550000Y-86035981D01*
X146550000Y-86164019D01*
X146574979Y-86289598D01*
X146623978Y-86407890D01*
X146695112Y-86514351D01*
X146739911Y-86559150D01*
X146660384Y-86574969D01*
X146542092Y-86623968D01*
X146435631Y-86695102D01*
X146345094Y-86785639D01*
X146273960Y-86892100D01*
X146224961Y-87010392D01*
X146199982Y-87135971D01*
X138660048Y-87135971D01*
X138646022Y-87102110D01*
X138574888Y-86995649D01*
X138484351Y-86905112D01*
X138377890Y-86833978D01*
X138307932Y-86805000D01*
X138377890Y-86776022D01*
X138484351Y-86704888D01*
X138574888Y-86614351D01*
X138646022Y-86507890D01*
X138695021Y-86389598D01*
X138720000Y-86264019D01*
X138720000Y-86135981D01*
X138695021Y-86010402D01*
X138646022Y-85892110D01*
X138574888Y-85785649D01*
X138484351Y-85695112D01*
X138377890Y-85623978D01*
X138259598Y-85574979D01*
X138134019Y-85550000D01*
X138005981Y-85550000D01*
X137880402Y-85574979D01*
X137762110Y-85623978D01*
X137655649Y-85695112D01*
X137565112Y-85785649D01*
X137493978Y-85892110D01*
X137444979Y-86010402D01*
X137420000Y-86135981D01*
X124050000Y-86135981D01*
X124025021Y-86010402D01*
X123976022Y-85892110D01*
X123904888Y-85785649D01*
X123819239Y-85700000D01*
X123904888Y-85614351D01*
X123976022Y-85507890D01*
X124025021Y-85389598D01*
X124050000Y-85264019D01*
X124050000Y-85135981D01*
X124025021Y-85010402D01*
X123976022Y-84892110D01*
X123904888Y-84785649D01*
X123819239Y-84700000D01*
X123904888Y-84614351D01*
X123976022Y-84507890D01*
X124025021Y-84389598D01*
X124050000Y-84264019D01*
X124050000Y-84135981D01*
X124025021Y-84010402D01*
X123976022Y-83892110D01*
X123904888Y-83785649D01*
X123814351Y-83695112D01*
X123707890Y-83623978D01*
X123589598Y-83574979D01*
X123464019Y-83550000D01*
X123335981Y-83550000D01*
X123210402Y-83574979D01*
X123092110Y-83623978D01*
X122985649Y-83695112D01*
X122895112Y-83785649D01*
X122823978Y-83892110D01*
X122774979Y-84010402D01*
X122763179Y-84069724D01*
X122664019Y-84050000D01*
X122535981Y-84050000D01*
X122436821Y-84069724D01*
X122425021Y-84010402D01*
X122376022Y-83892110D01*
X122304888Y-83785649D01*
X122214351Y-83695112D01*
X122107890Y-83623978D01*
X121989598Y-83574979D01*
X121864019Y-83550000D01*
X121735981Y-83550000D01*
X121610402Y-83574979D01*
X121492110Y-83623978D01*
X121385649Y-83695112D01*
X121295112Y-83785649D01*
X121223978Y-83892110D01*
X121174979Y-84010402D01*
X121150000Y-84135981D01*
X112925000Y-84135981D01*
X112925000Y-81831056D01*
X136200000Y-81831056D01*
X136200000Y-81968944D01*
X136226901Y-82104182D01*
X136279668Y-82231574D01*
X136356274Y-82346224D01*
X136453776Y-82443726D01*
X136568426Y-82520332D01*
X136695818Y-82573099D01*
X136831056Y-82600000D01*
X136968944Y-82600000D01*
X137104182Y-82573099D01*
X137231574Y-82520332D01*
X137261570Y-82500289D01*
X138375000Y-82500289D01*
X138381240Y-85200289D01*
X138383642Y-85224386D01*
X138390755Y-85247835D01*
X138402306Y-85269446D01*
X138417852Y-85288388D01*
X138436794Y-85303934D01*
X138458405Y-85315485D01*
X138481854Y-85322598D01*
X138506240Y-85325000D01*
X148400000Y-85325000D01*
X148424386Y-85322598D01*
X148447835Y-85315485D01*
X148469446Y-85303934D01*
X148488388Y-85288388D01*
X153007881Y-80768895D01*
X166515000Y-80768895D01*
X166515000Y-80951105D01*
X166550547Y-81129813D01*
X166620275Y-81298152D01*
X166721505Y-81449653D01*
X166850347Y-81578495D01*
X167001848Y-81679725D01*
X167170187Y-81749453D01*
X167348895Y-81785000D01*
X167531105Y-81785000D01*
X167709813Y-81749453D01*
X167878152Y-81679725D01*
X168029653Y-81578495D01*
X168158495Y-81449653D01*
X168259725Y-81298152D01*
X168329453Y-81129813D01*
X168365000Y-80951105D01*
X168365000Y-80768895D01*
X168329453Y-80590187D01*
X168259725Y-80421848D01*
X168158495Y-80270347D01*
X168029653Y-80141505D01*
X167878152Y-80040275D01*
X167709813Y-79970547D01*
X167531105Y-79935000D01*
X167348895Y-79935000D01*
X167170187Y-79970547D01*
X167001848Y-80040275D01*
X166850347Y-80141505D01*
X166721505Y-80270347D01*
X166620275Y-80421848D01*
X166550547Y-80590187D01*
X166515000Y-80768895D01*
X153007881Y-80768895D01*
X156388388Y-77388388D01*
X156403813Y-77369626D01*
X156415402Y-77348036D01*
X156422556Y-77324599D01*
X156425000Y-77300217D01*
X156426324Y-76535981D01*
X156650000Y-76535981D01*
X156650000Y-76664019D01*
X156674979Y-76789598D01*
X156723978Y-76907890D01*
X156795112Y-77014351D01*
X156880761Y-77100000D01*
X156795112Y-77185649D01*
X156723978Y-77292110D01*
X156674979Y-77410402D01*
X156650000Y-77535981D01*
X156650000Y-77664019D01*
X156674979Y-77789598D01*
X156723978Y-77907890D01*
X156795112Y-78014351D01*
X156880761Y-78100000D01*
X156795112Y-78185649D01*
X156723978Y-78292110D01*
X156674979Y-78410402D01*
X156650000Y-78535981D01*
X156650000Y-78664019D01*
X156674979Y-78789598D01*
X156723978Y-78907890D01*
X156795112Y-79014351D01*
X156885649Y-79104888D01*
X156992110Y-79176022D01*
X157110402Y-79225021D01*
X157235981Y-79250000D01*
X157364019Y-79250000D01*
X157489598Y-79225021D01*
X157607890Y-79176022D01*
X157714351Y-79104888D01*
X157800000Y-79019239D01*
X157885649Y-79104888D01*
X157992110Y-79176022D01*
X158110402Y-79225021D01*
X158235981Y-79250000D01*
X158364019Y-79250000D01*
X158489598Y-79225021D01*
X158607890Y-79176022D01*
X158714351Y-79104888D01*
X158800000Y-79019239D01*
X158885649Y-79104888D01*
X158992110Y-79176022D01*
X159110402Y-79225021D01*
X159235981Y-79250000D01*
X159364019Y-79250000D01*
X159489598Y-79225021D01*
X159607890Y-79176022D01*
X159714351Y-79104888D01*
X159800000Y-79019239D01*
X159885649Y-79104888D01*
X159992110Y-79176022D01*
X160110402Y-79225021D01*
X160235981Y-79250000D01*
X160364019Y-79250000D01*
X160489598Y-79225021D01*
X160607890Y-79176022D01*
X160714351Y-79104888D01*
X160800000Y-79019239D01*
X160885649Y-79104888D01*
X160992110Y-79176022D01*
X161110402Y-79225021D01*
X161235981Y-79250000D01*
X161364019Y-79250000D01*
X161489598Y-79225021D01*
X161607890Y-79176022D01*
X161714351Y-79104888D01*
X161804888Y-79014351D01*
X161876022Y-78907890D01*
X161925021Y-78789598D01*
X161950000Y-78664019D01*
X161950000Y-78535981D01*
X161925021Y-78410402D01*
X161876022Y-78292110D01*
X161804888Y-78185649D01*
X161719239Y-78100000D01*
X161804888Y-78014351D01*
X161876022Y-77907890D01*
X161925021Y-77789598D01*
X161934036Y-77744273D01*
X162325000Y-77744273D01*
X162325000Y-77975727D01*
X162370155Y-78202735D01*
X162458729Y-78416571D01*
X162587318Y-78609019D01*
X162750981Y-78772682D01*
X162943429Y-78901271D01*
X163157265Y-78989845D01*
X163384273Y-79035000D01*
X163615727Y-79035000D01*
X163842735Y-78989845D01*
X164056571Y-78901271D01*
X164249019Y-78772682D01*
X164412682Y-78609019D01*
X164541271Y-78416571D01*
X164629845Y-78202735D01*
X164675000Y-77975727D01*
X164675000Y-77744273D01*
X164629845Y-77517265D01*
X164541271Y-77303429D01*
X164412682Y-77110981D01*
X164249019Y-76947318D01*
X164056571Y-76818729D01*
X163842735Y-76730155D01*
X163615727Y-76685000D01*
X163384273Y-76685000D01*
X163157265Y-76730155D01*
X162943429Y-76818729D01*
X162750981Y-76947318D01*
X162587318Y-77110981D01*
X162458729Y-77303429D01*
X162370155Y-77517265D01*
X162325000Y-77744273D01*
X161934036Y-77744273D01*
X161950000Y-77664019D01*
X161950000Y-77535981D01*
X161925021Y-77410402D01*
X161876022Y-77292110D01*
X161804888Y-77185649D01*
X161719239Y-77100000D01*
X161804888Y-77014351D01*
X161876022Y-76907890D01*
X161925021Y-76789598D01*
X161950000Y-76664019D01*
X161950000Y-76535981D01*
X161925021Y-76410402D01*
X161876022Y-76292110D01*
X161804888Y-76185649D01*
X161714351Y-76095112D01*
X161607890Y-76023978D01*
X161489598Y-75974979D01*
X161364019Y-75950000D01*
X161235981Y-75950000D01*
X161110402Y-75974979D01*
X160992110Y-76023978D01*
X160885649Y-76095112D01*
X160800000Y-76180761D01*
X160714351Y-76095112D01*
X160607890Y-76023978D01*
X160489598Y-75974979D01*
X160364019Y-75950000D01*
X160235981Y-75950000D01*
X160110402Y-75974979D01*
X159992110Y-76023978D01*
X159885649Y-76095112D01*
X159800000Y-76180761D01*
X159714351Y-76095112D01*
X159607890Y-76023978D01*
X159489598Y-75974979D01*
X159364019Y-75950000D01*
X159235981Y-75950000D01*
X159110402Y-75974979D01*
X158992110Y-76023978D01*
X158885649Y-76095112D01*
X158800000Y-76180761D01*
X158714351Y-76095112D01*
X158607890Y-76023978D01*
X158489598Y-75974979D01*
X158364019Y-75950000D01*
X158235981Y-75950000D01*
X158110402Y-75974979D01*
X157992110Y-76023978D01*
X157885649Y-76095112D01*
X157800000Y-76180761D01*
X157714351Y-76095112D01*
X157607890Y-76023978D01*
X157489598Y-75974979D01*
X157364019Y-75950000D01*
X157235981Y-75950000D01*
X157110402Y-75974979D01*
X156992110Y-76023978D01*
X156885649Y-76095112D01*
X156795112Y-76185649D01*
X156723978Y-76292110D01*
X156674979Y-76410402D01*
X156650000Y-76535981D01*
X156426324Y-76535981D01*
X156429430Y-74744273D01*
X162325000Y-74744273D01*
X162325000Y-74975727D01*
X162370155Y-75202735D01*
X162458729Y-75416571D01*
X162587318Y-75609019D01*
X162750981Y-75772682D01*
X162943429Y-75901271D01*
X163157265Y-75989845D01*
X163384273Y-76035000D01*
X163615727Y-76035000D01*
X163842735Y-75989845D01*
X164056571Y-75901271D01*
X164249019Y-75772682D01*
X164412682Y-75609019D01*
X164541271Y-75416571D01*
X164629845Y-75202735D01*
X164675000Y-74975727D01*
X164675000Y-74744273D01*
X164629845Y-74517265D01*
X164541271Y-74303429D01*
X164412682Y-74110981D01*
X164249019Y-73947318D01*
X164056571Y-73818729D01*
X163842735Y-73730155D01*
X163615727Y-73685000D01*
X163384273Y-73685000D01*
X163157265Y-73730155D01*
X162943429Y-73818729D01*
X162750981Y-73947318D01*
X162587318Y-74110981D01*
X162458729Y-74303429D01*
X162370155Y-74517265D01*
X162325000Y-74744273D01*
X156429430Y-74744273D01*
X156431240Y-73700217D01*
X156428838Y-73675614D01*
X156421725Y-73652165D01*
X156410174Y-73630554D01*
X156394628Y-73611612D01*
X156375686Y-73596066D01*
X156354075Y-73584515D01*
X156330626Y-73577402D01*
X156306240Y-73575000D01*
X147700000Y-73575000D01*
X147678343Y-73576890D01*
X147654742Y-73583481D01*
X147632880Y-73594549D01*
X147613597Y-73609670D01*
X138413597Y-82409670D01*
X138395906Y-82430794D01*
X138384405Y-82452432D01*
X138377346Y-82475897D01*
X138375000Y-82500289D01*
X137261570Y-82500289D01*
X137346224Y-82443726D01*
X137443726Y-82346224D01*
X137520332Y-82231574D01*
X137573099Y-82104182D01*
X137600000Y-81968944D01*
X137600000Y-81831056D01*
X137573099Y-81695818D01*
X137520332Y-81568426D01*
X137443726Y-81453776D01*
X137346224Y-81356274D01*
X137231574Y-81279668D01*
X137104182Y-81226901D01*
X136968944Y-81200000D01*
X136831056Y-81200000D01*
X136695818Y-81226901D01*
X136568426Y-81279668D01*
X136453776Y-81356274D01*
X136356274Y-81453776D01*
X136279668Y-81568426D01*
X136226901Y-81695818D01*
X136200000Y-81831056D01*
X112925000Y-81831056D01*
X112925000Y-80535981D01*
X133850002Y-80535981D01*
X133850002Y-80664019D01*
X133874981Y-80789598D01*
X133923980Y-80907890D01*
X133995114Y-81014351D01*
X134085651Y-81104888D01*
X134192112Y-81176022D01*
X134310404Y-81225021D01*
X134435983Y-81250000D01*
X134564021Y-81250000D01*
X134689600Y-81225021D01*
X134807892Y-81176022D01*
X134914353Y-81104888D01*
X135004890Y-81014351D01*
X135076024Y-80907890D01*
X135125023Y-80789598D01*
X135150002Y-80664019D01*
X135150002Y-80535981D01*
X135125023Y-80410402D01*
X135076024Y-80292110D01*
X135004890Y-80185649D01*
X134914353Y-80095112D01*
X134807892Y-80023978D01*
X134689600Y-79974979D01*
X134564021Y-79950000D01*
X134435983Y-79950000D01*
X134310404Y-79974979D01*
X134192112Y-80023978D01*
X134085651Y-80095112D01*
X133995114Y-80185649D01*
X133923980Y-80292110D01*
X133874981Y-80410402D01*
X133850002Y-80535981D01*
X112925000Y-80535981D01*
X112925000Y-74335981D01*
X136350000Y-74335981D01*
X136350000Y-74464019D01*
X136374979Y-74589598D01*
X136423978Y-74707890D01*
X136495112Y-74814351D01*
X136585649Y-74904888D01*
X136692110Y-74976022D01*
X136810402Y-75025021D01*
X136935981Y-75050000D01*
X137064019Y-75050000D01*
X137189598Y-75025021D01*
X137307890Y-74976022D01*
X137414351Y-74904888D01*
X137504888Y-74814351D01*
X137576022Y-74707890D01*
X137625021Y-74589598D01*
X137650000Y-74464019D01*
X137650000Y-74335981D01*
X137625021Y-74210402D01*
X137576022Y-74092110D01*
X137504888Y-73985649D01*
X137414351Y-73895112D01*
X137307890Y-73823978D01*
X137189598Y-73774979D01*
X137064019Y-73750000D01*
X136935981Y-73750000D01*
X136810402Y-73774979D01*
X136692110Y-73823978D01*
X136585649Y-73895112D01*
X136495112Y-73985649D01*
X136423978Y-74092110D01*
X136374979Y-74210402D01*
X136350000Y-74335981D01*
X112925000Y-74335981D01*
X112925000Y-69800001D01*
X120022944Y-69800001D01*
X120022944Y-71999999D01*
X120035953Y-72132086D01*
X120074482Y-72259097D01*
X120137049Y-72376152D01*
X120221249Y-72478751D01*
X120323848Y-72562951D01*
X120440903Y-72625518D01*
X120567914Y-72664047D01*
X120700001Y-72677056D01*
X120712672Y-72677056D01*
X120685649Y-72695112D01*
X120595112Y-72785649D01*
X120523978Y-72892110D01*
X120474979Y-73010402D01*
X120450000Y-73135981D01*
X120450000Y-73264019D01*
X120474979Y-73389598D01*
X120523978Y-73507890D01*
X120595112Y-73614351D01*
X120685649Y-73704888D01*
X120792110Y-73776022D01*
X120910402Y-73825021D01*
X121035981Y-73850000D01*
X121164019Y-73850000D01*
X121289598Y-73825021D01*
X121407890Y-73776022D01*
X121514351Y-73704888D01*
X121600000Y-73619239D01*
X121685649Y-73704888D01*
X121792110Y-73776022D01*
X121910402Y-73825021D01*
X122035981Y-73850000D01*
X122164019Y-73850000D01*
X122289598Y-73825021D01*
X122407890Y-73776022D01*
X122514351Y-73704888D01*
X122600001Y-73619239D01*
X122685649Y-73704887D01*
X122792110Y-73776021D01*
X122910402Y-73825020D01*
X123035981Y-73849999D01*
X123164019Y-73849999D01*
X123289598Y-73825020D01*
X123407890Y-73776021D01*
X123514351Y-73704887D01*
X123604888Y-73614350D01*
X123676022Y-73507889D01*
X123725021Y-73389597D01*
X123750000Y-73264018D01*
X123750000Y-73135980D01*
X123725021Y-73010401D01*
X123676022Y-72892109D01*
X123604888Y-72785648D01*
X123514351Y-72695111D01*
X123487329Y-72677056D01*
X123499999Y-72677056D01*
X123632086Y-72664047D01*
X123759097Y-72625518D01*
X123876152Y-72562951D01*
X123978751Y-72478751D01*
X124062951Y-72376152D01*
X124125518Y-72259097D01*
X124164047Y-72132086D01*
X124177056Y-71999999D01*
X124177056Y-69800001D01*
X124164047Y-69667914D01*
X124125518Y-69540903D01*
X124062951Y-69423848D01*
X123978751Y-69321249D01*
X123876152Y-69237049D01*
X123759097Y-69174482D01*
X123632086Y-69135953D01*
X123499999Y-69122944D01*
X120700001Y-69122944D01*
X120567914Y-69135953D01*
X120440903Y-69174482D01*
X120323848Y-69237049D01*
X120221249Y-69321249D01*
X120137049Y-69423848D01*
X120074482Y-69540903D01*
X120035953Y-69667914D01*
X120022944Y-69800001D01*
X112925000Y-69800001D01*
X112925000Y-68635981D01*
X136350000Y-68635981D01*
X136350000Y-68764019D01*
X136374979Y-68889598D01*
X136423978Y-69007890D01*
X136495112Y-69114351D01*
X136585649Y-69204888D01*
X136692110Y-69276022D01*
X136810402Y-69325021D01*
X136935981Y-69350000D01*
X137064019Y-69350000D01*
X137189598Y-69325021D01*
X137307890Y-69276022D01*
X137414351Y-69204888D01*
X137504888Y-69114351D01*
X137576022Y-69007890D01*
X137625021Y-68889598D01*
X137650000Y-68764019D01*
X137650000Y-68635981D01*
X137625021Y-68510402D01*
X137576022Y-68392110D01*
X137504888Y-68285649D01*
X137414351Y-68195112D01*
X137307890Y-68123978D01*
X137189598Y-68074979D01*
X137064019Y-68050000D01*
X136935981Y-68050000D01*
X136810402Y-68074979D01*
X136692110Y-68123978D01*
X136585649Y-68195112D01*
X136495112Y-68285649D01*
X136423978Y-68392110D01*
X136374979Y-68510402D01*
X136350000Y-68635981D01*
X112925000Y-68635981D01*
X112925000Y-66700000D01*
X120016412Y-66700000D01*
X120050683Y-67047961D01*
X120152180Y-67382550D01*
X120317001Y-67690908D01*
X120538813Y-67961187D01*
X120809092Y-68182999D01*
X121117450Y-68347820D01*
X121452039Y-68449317D01*
X121712804Y-68475000D01*
X122487196Y-68475000D01*
X122747961Y-68449317D01*
X123082550Y-68347820D01*
X123390908Y-68182999D01*
X123661187Y-67961187D01*
X123882999Y-67690908D01*
X124047820Y-67382550D01*
X124149317Y-67047961D01*
X124183588Y-66700000D01*
X124149317Y-66352039D01*
X124047820Y-66017450D01*
X123897372Y-65735981D01*
X159850000Y-65735981D01*
X159850000Y-65864019D01*
X159874979Y-65989598D01*
X159923978Y-66107890D01*
X159952115Y-66150000D01*
X159923978Y-66192110D01*
X159874979Y-66310402D01*
X159850000Y-66435981D01*
X159850000Y-66564019D01*
X159874979Y-66689598D01*
X159923978Y-66807890D01*
X159952115Y-66850000D01*
X159923978Y-66892110D01*
X159874979Y-67010402D01*
X159850000Y-67135981D01*
X159850000Y-67264019D01*
X159874979Y-67389598D01*
X159923978Y-67507890D01*
X159952115Y-67550000D01*
X159923978Y-67592110D01*
X159874979Y-67710402D01*
X159850000Y-67835981D01*
X159850000Y-67964019D01*
X159874979Y-68089598D01*
X159923978Y-68207890D01*
X159952115Y-68250000D01*
X159923978Y-68292110D01*
X159874979Y-68410402D01*
X159850000Y-68535981D01*
X159850000Y-68664019D01*
X159874979Y-68789598D01*
X159923978Y-68907890D01*
X159952115Y-68950000D01*
X159923978Y-68992110D01*
X159874979Y-69110402D01*
X159850000Y-69235981D01*
X159850000Y-69364019D01*
X159874979Y-69489598D01*
X159923978Y-69607890D01*
X159952115Y-69650000D01*
X159923978Y-69692110D01*
X159874979Y-69810402D01*
X159850000Y-69935981D01*
X159850000Y-70064019D01*
X159874979Y-70189598D01*
X159923978Y-70307890D01*
X159952115Y-70350000D01*
X159923978Y-70392110D01*
X159874979Y-70510402D01*
X159850000Y-70635981D01*
X159850000Y-70764019D01*
X159874979Y-70889598D01*
X159923978Y-71007890D01*
X159952115Y-71050000D01*
X159923978Y-71092110D01*
X159874979Y-71210402D01*
X159850000Y-71335981D01*
X159850000Y-71464019D01*
X159874979Y-71589598D01*
X159923978Y-71707890D01*
X159952115Y-71750000D01*
X159923978Y-71792110D01*
X159874979Y-71910402D01*
X159850000Y-72035981D01*
X159850000Y-72164019D01*
X159874979Y-72289598D01*
X159923978Y-72407890D01*
X159995112Y-72514351D01*
X160085649Y-72604888D01*
X160192110Y-72676022D01*
X160310402Y-72725021D01*
X160435981Y-72750000D01*
X160564019Y-72750000D01*
X160689598Y-72725021D01*
X160807890Y-72676022D01*
X160914351Y-72604888D01*
X161004888Y-72514351D01*
X161076022Y-72407890D01*
X161125021Y-72289598D01*
X161150000Y-72164019D01*
X161150000Y-72035981D01*
X161125021Y-71910402D01*
X161076022Y-71792110D01*
X161047885Y-71750000D01*
X161051711Y-71744273D01*
X162325000Y-71744273D01*
X162325000Y-71975727D01*
X162370155Y-72202735D01*
X162458729Y-72416571D01*
X162587318Y-72609019D01*
X162750981Y-72772682D01*
X162943429Y-72901271D01*
X163157265Y-72989845D01*
X163384273Y-73035000D01*
X163615727Y-73035000D01*
X163842735Y-72989845D01*
X164056571Y-72901271D01*
X164249019Y-72772682D01*
X164412682Y-72609019D01*
X164541271Y-72416571D01*
X164629845Y-72202735D01*
X164675000Y-71975727D01*
X164675000Y-71744273D01*
X164629845Y-71517265D01*
X164541271Y-71303429D01*
X164412682Y-71110981D01*
X164249019Y-70947318D01*
X164056571Y-70818729D01*
X163842735Y-70730155D01*
X163615727Y-70685000D01*
X163384273Y-70685000D01*
X163157265Y-70730155D01*
X162943429Y-70818729D01*
X162750981Y-70947318D01*
X162587318Y-71110981D01*
X162458729Y-71303429D01*
X162370155Y-71517265D01*
X162325000Y-71744273D01*
X161051711Y-71744273D01*
X161076022Y-71707890D01*
X161125021Y-71589598D01*
X161150000Y-71464019D01*
X161150000Y-71335981D01*
X161125021Y-71210402D01*
X161076022Y-71092110D01*
X161047885Y-71050000D01*
X161076022Y-71007890D01*
X161125021Y-70889598D01*
X161150000Y-70764019D01*
X161150000Y-70635981D01*
X161125021Y-70510402D01*
X161076022Y-70392110D01*
X161047885Y-70350000D01*
X161076022Y-70307890D01*
X161125021Y-70189598D01*
X161150000Y-70064019D01*
X161150000Y-69935981D01*
X161125021Y-69810402D01*
X161076022Y-69692110D01*
X161047885Y-69650000D01*
X161076022Y-69607890D01*
X161125021Y-69489598D01*
X161150000Y-69364019D01*
X161150000Y-69235981D01*
X161125021Y-69110402D01*
X161076022Y-68992110D01*
X161047885Y-68950000D01*
X161076022Y-68907890D01*
X161125021Y-68789598D01*
X161134036Y-68744273D01*
X162325000Y-68744273D01*
X162325000Y-68975727D01*
X162370155Y-69202735D01*
X162458729Y-69416571D01*
X162587318Y-69609019D01*
X162750981Y-69772682D01*
X162943429Y-69901271D01*
X163157265Y-69989845D01*
X163384273Y-70035000D01*
X163615727Y-70035000D01*
X163842735Y-69989845D01*
X164056571Y-69901271D01*
X164249019Y-69772682D01*
X164412682Y-69609019D01*
X164541271Y-69416571D01*
X164629845Y-69202735D01*
X164675000Y-68975727D01*
X164675000Y-68744273D01*
X164629845Y-68517265D01*
X164541271Y-68303429D01*
X164412682Y-68110981D01*
X164249019Y-67947318D01*
X164056571Y-67818729D01*
X163842735Y-67730155D01*
X163615727Y-67685000D01*
X163384273Y-67685000D01*
X163157265Y-67730155D01*
X162943429Y-67818729D01*
X162750981Y-67947318D01*
X162587318Y-68110981D01*
X162458729Y-68303429D01*
X162370155Y-68517265D01*
X162325000Y-68744273D01*
X161134036Y-68744273D01*
X161150000Y-68664019D01*
X161150000Y-68535981D01*
X161125021Y-68410402D01*
X161076022Y-68292110D01*
X161047885Y-68250000D01*
X161076022Y-68207890D01*
X161125021Y-68089598D01*
X161150000Y-67964019D01*
X161150000Y-67835981D01*
X161125021Y-67710402D01*
X161076022Y-67592110D01*
X161047885Y-67550000D01*
X161076022Y-67507890D01*
X161125021Y-67389598D01*
X161150000Y-67264019D01*
X161150000Y-67135981D01*
X161125021Y-67010402D01*
X161076022Y-66892110D01*
X161047885Y-66850000D01*
X161076022Y-66807890D01*
X161125021Y-66689598D01*
X161150000Y-66564019D01*
X161150000Y-66435981D01*
X161125021Y-66310402D01*
X161076022Y-66192110D01*
X161047885Y-66150000D01*
X161076022Y-66107890D01*
X161125021Y-65989598D01*
X161150000Y-65864019D01*
X161150000Y-65735981D01*
X161125021Y-65610402D01*
X161076022Y-65492110D01*
X161004888Y-65385649D01*
X160979239Y-65360000D01*
X162322944Y-65360000D01*
X162322944Y-66360000D01*
X162335953Y-66492087D01*
X162374482Y-66619098D01*
X162437049Y-66736152D01*
X162521249Y-66838751D01*
X162623848Y-66922951D01*
X162740902Y-66985518D01*
X162867913Y-67024047D01*
X163000000Y-67037056D01*
X164000000Y-67037056D01*
X164132087Y-67024047D01*
X164259098Y-66985518D01*
X164376152Y-66922951D01*
X164478751Y-66838751D01*
X164562951Y-66736152D01*
X164625518Y-66619098D01*
X164664047Y-66492087D01*
X164677056Y-66360000D01*
X164677056Y-65360000D01*
X164664047Y-65227913D01*
X164625518Y-65100902D01*
X164562951Y-64983848D01*
X164478751Y-64881249D01*
X164376152Y-64797049D01*
X164259098Y-64734482D01*
X164132087Y-64695953D01*
X164000000Y-64682944D01*
X163000000Y-64682944D01*
X162867913Y-64695953D01*
X162740902Y-64734482D01*
X162623848Y-64797049D01*
X162521249Y-64881249D01*
X162437049Y-64983848D01*
X162374482Y-65100902D01*
X162335953Y-65227913D01*
X162322944Y-65360000D01*
X160979239Y-65360000D01*
X160914351Y-65295112D01*
X160807890Y-65223978D01*
X160689598Y-65174979D01*
X160564019Y-65150000D01*
X160435981Y-65150000D01*
X160310402Y-65174979D01*
X160192110Y-65223978D01*
X160085649Y-65295112D01*
X159995112Y-65385649D01*
X159923978Y-65492110D01*
X159874979Y-65610402D01*
X159850000Y-65735981D01*
X123897372Y-65735981D01*
X123882999Y-65709092D01*
X123661187Y-65438813D01*
X123390908Y-65217001D01*
X123238018Y-65135280D01*
X123289598Y-65125020D01*
X123407890Y-65076021D01*
X123514351Y-65004887D01*
X123604888Y-64914350D01*
X123676022Y-64807889D01*
X123725021Y-64689597D01*
X123750000Y-64564018D01*
X123750000Y-64435980D01*
X123725021Y-64310401D01*
X123676022Y-64192109D01*
X123604888Y-64085648D01*
X123514351Y-63995111D01*
X123407890Y-63923977D01*
X123289598Y-63874978D01*
X123164019Y-63849999D01*
X123035981Y-63849999D01*
X122910402Y-63874978D01*
X122792110Y-63923977D01*
X122685649Y-63995111D01*
X122600000Y-64080761D01*
X122514351Y-63995112D01*
X122407890Y-63923978D01*
X122289598Y-63874979D01*
X122164019Y-63850000D01*
X122035981Y-63850000D01*
X121910402Y-63874979D01*
X121792110Y-63923978D01*
X121685649Y-63995112D01*
X121600000Y-64080761D01*
X121514351Y-63995112D01*
X121407890Y-63923978D01*
X121289598Y-63874979D01*
X121164019Y-63850000D01*
X121035981Y-63850000D01*
X120910402Y-63874979D01*
X120792110Y-63923978D01*
X120685649Y-63995112D01*
X120595112Y-64085649D01*
X120523978Y-64192110D01*
X120474979Y-64310402D01*
X120450000Y-64435981D01*
X120450000Y-64564019D01*
X120474979Y-64689598D01*
X120523978Y-64807890D01*
X120595112Y-64914351D01*
X120685649Y-65004888D01*
X120792110Y-65076022D01*
X120910402Y-65125021D01*
X120961980Y-65135280D01*
X120809092Y-65217001D01*
X120538813Y-65438813D01*
X120317001Y-65709092D01*
X120152180Y-66017450D01*
X120050683Y-66352039D01*
X120016412Y-66700000D01*
X112925000Y-66700000D01*
X112925000Y-61449801D01*
X113275000Y-61449801D01*
X113275000Y-61750199D01*
X113333605Y-62044826D01*
X113448562Y-62322358D01*
X113615455Y-62572131D01*
X113827869Y-62784545D01*
X114077642Y-62951438D01*
X114355174Y-63066395D01*
X114649801Y-63125000D01*
X114950199Y-63125000D01*
X115244826Y-63066395D01*
X115522358Y-62951438D01*
X115772131Y-62784545D01*
X115787781Y-62768895D01*
X166515000Y-62768895D01*
X166515000Y-62951105D01*
X166550547Y-63129813D01*
X166620275Y-63298152D01*
X166721505Y-63449653D01*
X166850347Y-63578495D01*
X167001848Y-63679725D01*
X167170187Y-63749453D01*
X167348895Y-63785000D01*
X167531105Y-63785000D01*
X167709813Y-63749453D01*
X167878152Y-63679725D01*
X168029653Y-63578495D01*
X168158495Y-63449653D01*
X168259725Y-63298152D01*
X168329453Y-63129813D01*
X168365000Y-62951105D01*
X168365000Y-62768895D01*
X168329453Y-62590187D01*
X168259725Y-62421848D01*
X168158495Y-62270347D01*
X168029653Y-62141505D01*
X167878152Y-62040275D01*
X167709813Y-61970547D01*
X167531105Y-61935000D01*
X167348895Y-61935000D01*
X167170187Y-61970547D01*
X167001848Y-62040275D01*
X166850347Y-62141505D01*
X166721505Y-62270347D01*
X166620275Y-62421848D01*
X166550547Y-62590187D01*
X166515000Y-62768895D01*
X115787781Y-62768895D01*
X115984545Y-62572131D01*
X116151438Y-62322358D01*
X116266395Y-62044826D01*
X116325000Y-61750199D01*
X116325000Y-61449801D01*
X116266395Y-61155174D01*
X116151438Y-60877642D01*
X115984545Y-60627869D01*
X115772131Y-60415455D01*
X115522358Y-60248562D01*
X115244826Y-60133605D01*
X114950199Y-60075000D01*
X114649801Y-60075000D01*
X114355174Y-60133605D01*
X114077642Y-60248562D01*
X113827869Y-60415455D01*
X113615455Y-60627869D01*
X113448562Y-60877642D01*
X113333605Y-61155174D01*
X113275000Y-61449801D01*
X112925000Y-61449801D01*
X112925000Y-60985164D01*
X113094310Y-60666740D01*
X113346915Y-60357017D01*
X113654861Y-60102262D01*
X113982700Y-59925000D01*
X169014836Y-59925000D01*
X169333260Y-60094310D01*
G37*
%TD.AperFunction*%
%TD*%
M02*
