%FSLAX45Y45*%
G04 Gerber Fmt 4.5, Leading zero omitted, Abs format (unit mm)*
G04 Created by KiCad (PCBNEW (5.1.8)-1) date 2021-10-03 21:30:49*
%MOMM*%
%LPD*%
G01*
G04 APERTURE LIST*
%TA.AperFunction,Profile*%
%ADD10C,0.050000*%
%TD*%
%ADD11C,0.200000*%
%ADD12C,0.300000*%
G04 APERTURE END LIST*
D10*
X17070000Y-11270000D02*
G75*
G02*
X16820000Y-11520000I-250000J0D01*
G01*
X16820000Y-5930000D02*
G75*
G02*
X17070000Y-6180000I0J-250000D01*
G01*
X11230000Y-6180000D02*
G75*
G02*
X11480000Y-5930000I250000J0D01*
G01*
X11480000Y-11520000D02*
G75*
G02*
X11230000Y-11270000I0J250000D01*
G01*
X11230000Y-11270000D02*
X11230000Y-6180000D01*
X16820000Y-11520000D02*
X11480000Y-11520000D01*
X17070000Y-6180000D02*
X17070000Y-11270000D01*
X11480000Y-5930000D02*
X16820000Y-5930000D01*
D11*
X11725000Y-6055000D02*
X11755000Y-6085000D01*
X11755000Y-6055000D02*
X11725000Y-6085000D01*
X11725000Y-11365000D02*
X11755000Y-11395000D01*
X11755000Y-11365000D02*
X11725000Y-11395000D01*
X11825000Y-6055000D02*
X11855000Y-6085000D01*
X11855000Y-6055000D02*
X11825000Y-6085000D01*
X11825000Y-11365000D02*
X11855000Y-11395000D01*
X11855000Y-11365000D02*
X11825000Y-11395000D01*
X11925000Y-6055000D02*
X11955000Y-6085000D01*
X11955000Y-6055000D02*
X11925000Y-6085000D01*
X11925000Y-11365000D02*
X11955000Y-11395000D01*
X11955000Y-11365000D02*
X11925000Y-11395000D01*
X12025000Y-6055000D02*
X12055000Y-6085000D01*
X12055000Y-6055000D02*
X12025000Y-6085000D01*
X12025000Y-11365000D02*
X12055000Y-11395000D01*
X12055000Y-11365000D02*
X12025000Y-11395000D01*
X12095000Y-6435000D02*
X12125000Y-6465000D01*
X12125000Y-6435000D02*
X12095000Y-6465000D01*
X12095000Y-7305000D02*
X12125000Y-7335000D01*
X12125000Y-7305000D02*
X12095000Y-7335000D01*
X12125000Y-6055000D02*
X12155000Y-6085000D01*
X12155000Y-6055000D02*
X12125000Y-6085000D01*
X12125000Y-11365000D02*
X12155000Y-11395000D01*
X12155000Y-11365000D02*
X12125000Y-11395000D01*
X12165000Y-8405000D02*
X12195000Y-8435000D01*
X12195000Y-8405000D02*
X12165000Y-8435000D01*
X12165000Y-8505000D02*
X12195000Y-8535000D01*
X12195000Y-8505000D02*
X12165000Y-8535000D01*
X12165000Y-8605000D02*
X12195000Y-8635000D01*
X12195000Y-8605000D02*
X12165000Y-8635000D01*
X12165000Y-8705000D02*
X12195000Y-8735000D01*
X12195000Y-8705000D02*
X12165000Y-8735000D01*
X12165000Y-8805000D02*
X12195000Y-8835000D01*
X12195000Y-8805000D02*
X12165000Y-8835000D01*
X12165000Y-8905000D02*
X12195000Y-8935000D01*
X12195000Y-8905000D02*
X12165000Y-8935000D01*
X12195000Y-6435000D02*
X12225000Y-6465000D01*
X12225000Y-6435000D02*
X12195000Y-6465000D01*
X12195000Y-7305000D02*
X12225000Y-7335000D01*
X12225000Y-7305000D02*
X12195000Y-7335000D01*
X12225000Y-6055000D02*
X12255000Y-6085000D01*
X12255000Y-6055000D02*
X12225000Y-6085000D01*
X12225000Y-11365000D02*
X12255000Y-11395000D01*
X12255000Y-11365000D02*
X12225000Y-11395000D01*
X12245000Y-8455000D02*
X12275000Y-8485000D01*
X12275000Y-8455000D02*
X12245000Y-8485000D01*
X12245000Y-8555000D02*
X12275000Y-8585000D01*
X12275000Y-8555000D02*
X12245000Y-8585000D01*
X12245000Y-8655000D02*
X12275000Y-8685000D01*
X12275000Y-8655000D02*
X12245000Y-8685000D01*
X12245000Y-8755000D02*
X12275000Y-8785000D01*
X12275000Y-8755000D02*
X12245000Y-8785000D01*
X12245000Y-8855000D02*
X12275000Y-8885000D01*
X12275000Y-8855000D02*
X12245000Y-8885000D01*
X12245000Y-8955000D02*
X12275000Y-8985000D01*
X12275000Y-8955000D02*
X12245000Y-8985000D01*
X12295000Y-6435000D02*
X12325000Y-6465000D01*
X12325000Y-6435000D02*
X12295000Y-6465000D01*
X12295000Y-7305000D02*
X12325000Y-7335000D01*
X12325000Y-7305000D02*
X12295000Y-7335000D01*
X12325000Y-6055000D02*
X12355000Y-6085000D01*
X12355000Y-6055000D02*
X12325000Y-6085000D01*
X12325000Y-8405000D02*
X12355000Y-8435000D01*
X12355000Y-8405000D02*
X12325000Y-8435000D01*
X12325000Y-8505000D02*
X12355000Y-8535000D01*
X12355000Y-8505000D02*
X12325000Y-8535000D01*
X12325000Y-8605000D02*
X12355000Y-8635000D01*
X12355000Y-8605000D02*
X12325000Y-8635000D01*
X12325000Y-8705000D02*
X12355000Y-8735000D01*
X12355000Y-8705000D02*
X12325000Y-8735000D01*
X12325000Y-8805000D02*
X12355000Y-8835000D01*
X12355000Y-8805000D02*
X12325000Y-8835000D01*
X12325000Y-8905000D02*
X12355000Y-8935000D01*
X12355000Y-8905000D02*
X12325000Y-8935000D01*
X12325000Y-11365000D02*
X12355000Y-11395000D01*
X12355000Y-11365000D02*
X12325000Y-11395000D01*
X12425000Y-6055000D02*
X12455000Y-6085000D01*
X12455000Y-6055000D02*
X12425000Y-6085000D01*
X12425000Y-11365000D02*
X12455000Y-11395000D01*
X12455000Y-11365000D02*
X12425000Y-11395000D01*
X12525000Y-6055000D02*
X12555000Y-6085000D01*
X12555000Y-6055000D02*
X12525000Y-6085000D01*
X12525000Y-11365000D02*
X12555000Y-11395000D01*
X12555000Y-11365000D02*
X12525000Y-11395000D01*
X12625000Y-6055000D02*
X12655000Y-6085000D01*
X12655000Y-6055000D02*
X12625000Y-6085000D01*
X12625000Y-11365000D02*
X12655000Y-11395000D01*
X12655000Y-11365000D02*
X12625000Y-11395000D01*
X12725000Y-6055000D02*
X12755000Y-6085000D01*
X12755000Y-6055000D02*
X12725000Y-6085000D01*
X12725000Y-11365000D02*
X12755000Y-11395000D01*
X12755000Y-11365000D02*
X12725000Y-11395000D01*
X12825000Y-6055000D02*
X12855000Y-6085000D01*
X12855000Y-6055000D02*
X12825000Y-6085000D01*
X12825000Y-11365000D02*
X12855000Y-11395000D01*
X12855000Y-11365000D02*
X12825000Y-11395000D01*
X12925000Y-6055000D02*
X12955000Y-6085000D01*
X12955000Y-6055000D02*
X12925000Y-6085000D01*
X12925000Y-11365000D02*
X12955000Y-11395000D01*
X12955000Y-11365000D02*
X12925000Y-11395000D01*
X13025000Y-6055000D02*
X13055000Y-6085000D01*
X13055000Y-6055000D02*
X13025000Y-6085000D01*
X13025000Y-11365000D02*
X13055000Y-11395000D01*
X13055000Y-11365000D02*
X13025000Y-11395000D01*
X13125000Y-6055000D02*
X13155000Y-6085000D01*
X13155000Y-6055000D02*
X13125000Y-6085000D01*
X13125000Y-11365000D02*
X13155000Y-11395000D01*
X13155000Y-11365000D02*
X13125000Y-11395000D01*
X13225000Y-6055000D02*
X13255000Y-6085000D01*
X13255000Y-6055000D02*
X13225000Y-6085000D01*
X13225000Y-11365000D02*
X13255000Y-11395000D01*
X13255000Y-11365000D02*
X13225000Y-11395000D01*
X13231666Y-9475000D02*
X13261666Y-9505000D01*
X13261666Y-9475000D02*
X13231666Y-9505000D01*
X13305000Y-9475000D02*
X13335000Y-9505000D01*
X13335000Y-9475000D02*
X13305000Y-9505000D01*
X13325000Y-6055000D02*
X13355000Y-6085000D01*
X13355000Y-6055000D02*
X13325000Y-6085000D01*
X13325000Y-11365000D02*
X13355000Y-11395000D01*
X13355000Y-11365000D02*
X13325000Y-11395000D01*
X13425000Y-6055000D02*
X13455000Y-6085000D01*
X13455000Y-6055000D02*
X13425000Y-6085000D01*
X13425000Y-11365000D02*
X13455000Y-11395000D01*
X13455000Y-11365000D02*
X13425000Y-11395000D01*
X13435000Y-8045000D02*
X13465000Y-8075000D01*
X13465000Y-8045000D02*
X13435000Y-8075000D01*
X13525000Y-6055000D02*
X13555000Y-6085000D01*
X13555000Y-6055000D02*
X13525000Y-6085000D01*
X13525000Y-11365000D02*
X13555000Y-11395000D01*
X13555000Y-11365000D02*
X13525000Y-11395000D01*
X13576002Y-9086001D02*
X13606002Y-9116001D01*
X13606002Y-9086001D02*
X13576002Y-9116001D01*
X13581000Y-8665000D02*
X13611000Y-8695000D01*
X13611000Y-8665000D02*
X13581000Y-8695000D01*
X13595000Y-10425000D02*
X13625000Y-10455000D01*
X13625000Y-10425000D02*
X13595000Y-10455000D01*
X13625000Y-6055000D02*
X13655000Y-6085000D01*
X13655000Y-6055000D02*
X13625000Y-6085000D01*
X13625000Y-11365000D02*
X13655000Y-11395000D01*
X13655000Y-11365000D02*
X13625000Y-11395000D01*
X13664000Y-9584000D02*
X13694000Y-9614000D01*
X13694000Y-9584000D02*
X13664000Y-9614000D01*
X13685000Y-6855000D02*
X13715000Y-6885000D01*
X13715000Y-6855000D02*
X13685000Y-6885000D01*
X13685000Y-7425000D02*
X13715000Y-7455000D01*
X13715000Y-7425000D02*
X13685000Y-7455000D01*
X13725000Y-6055000D02*
X13755000Y-6085000D01*
X13755000Y-6055000D02*
X13725000Y-6085000D01*
X13725000Y-11365000D02*
X13755000Y-11395000D01*
X13755000Y-11365000D02*
X13725000Y-11395000D01*
X13784001Y-9349999D02*
X13814001Y-9379999D01*
X13814001Y-9349999D02*
X13784001Y-9379999D01*
X13788000Y-8845000D02*
X13818000Y-8875000D01*
X13818000Y-8845000D02*
X13788000Y-8875000D01*
X13792000Y-8605000D02*
X13822000Y-8635000D01*
X13822000Y-8605000D02*
X13792000Y-8635000D01*
X13792000Y-8726000D02*
X13822000Y-8756000D01*
X13822000Y-8726000D02*
X13792000Y-8756000D01*
X13795000Y-10305000D02*
X13825000Y-10335000D01*
X13825000Y-10305000D02*
X13795000Y-10335000D01*
X13825000Y-6055000D02*
X13855000Y-6085000D01*
X13855000Y-6055000D02*
X13825000Y-6085000D01*
X13825000Y-11365000D02*
X13855000Y-11395000D01*
X13855000Y-11365000D02*
X13825000Y-11395000D01*
X13874000Y-8784000D02*
X13904000Y-8814000D01*
X13904000Y-8784000D02*
X13874000Y-8814000D01*
X13925000Y-6055000D02*
X13955000Y-6085000D01*
X13955000Y-6055000D02*
X13925000Y-6085000D01*
X13925000Y-11365000D02*
X13955000Y-11395000D01*
X13955000Y-11365000D02*
X13925000Y-11395000D01*
X14025000Y-6055000D02*
X14055000Y-6085000D01*
X14055000Y-6055000D02*
X14025000Y-6085000D01*
X14025000Y-11365000D02*
X14055000Y-11395000D01*
X14055000Y-11365000D02*
X14025000Y-11395000D01*
X14040000Y-8430000D02*
X14070000Y-8460000D01*
X14070000Y-8430000D02*
X14040000Y-8460000D01*
X14045000Y-8978000D02*
X14075000Y-9008000D01*
X14075000Y-8978000D02*
X14045000Y-9008000D01*
X14107000Y-8355000D02*
X14137000Y-8385000D01*
X14137000Y-8355000D02*
X14107000Y-8385000D01*
X14125000Y-6055000D02*
X14155000Y-6085000D01*
X14155000Y-6055000D02*
X14125000Y-6085000D01*
X14125000Y-11365000D02*
X14155000Y-11395000D01*
X14155000Y-11365000D02*
X14125000Y-11395000D01*
X14145000Y-8601000D02*
X14175000Y-8631000D01*
X14175000Y-8601000D02*
X14145000Y-8631000D01*
X14145000Y-8681000D02*
X14175000Y-8711000D01*
X14175000Y-8681000D02*
X14145000Y-8711000D01*
X14145000Y-8761000D02*
X14175000Y-8791000D01*
X14175000Y-8761000D02*
X14145000Y-8791000D01*
X14145000Y-8841000D02*
X14175000Y-8871000D01*
X14175000Y-8841000D02*
X14145000Y-8871000D01*
X14225000Y-6055000D02*
X14255000Y-6085000D01*
X14255000Y-6055000D02*
X14225000Y-6085000D01*
X14225000Y-8601000D02*
X14255000Y-8631000D01*
X14255000Y-8601000D02*
X14225000Y-8631000D01*
X14225000Y-8681000D02*
X14255000Y-8711000D01*
X14255000Y-8681000D02*
X14225000Y-8711000D01*
X14225000Y-8761000D02*
X14255000Y-8791000D01*
X14255000Y-8761000D02*
X14225000Y-8791000D01*
X14225000Y-8841000D02*
X14255000Y-8871000D01*
X14255000Y-8841000D02*
X14225000Y-8871000D01*
X14225000Y-11365000D02*
X14255000Y-11395000D01*
X14255000Y-11365000D02*
X14225000Y-11395000D01*
X14305000Y-8601000D02*
X14335000Y-8631000D01*
X14335000Y-8601000D02*
X14305000Y-8631000D01*
X14305000Y-8681000D02*
X14335000Y-8711000D01*
X14335000Y-8681000D02*
X14305000Y-8711000D01*
X14305000Y-8761000D02*
X14335000Y-8791000D01*
X14335000Y-8761000D02*
X14305000Y-8791000D01*
X14305000Y-8841000D02*
X14335000Y-8871000D01*
X14335000Y-8841000D02*
X14305000Y-8871000D01*
X14325000Y-6055000D02*
X14355000Y-6085000D01*
X14355000Y-6055000D02*
X14325000Y-6085000D01*
X14325000Y-11365000D02*
X14355000Y-11395000D01*
X14355000Y-11365000D02*
X14325000Y-11395000D01*
X14374000Y-9799000D02*
X14404000Y-9829000D01*
X14404000Y-9799000D02*
X14374000Y-9829000D01*
X14385000Y-8601000D02*
X14415000Y-8631000D01*
X14415000Y-8601000D02*
X14385000Y-8631000D01*
X14385000Y-8681000D02*
X14415000Y-8711000D01*
X14415000Y-8681000D02*
X14385000Y-8711000D01*
X14385000Y-8761000D02*
X14415000Y-8791000D01*
X14415000Y-8761000D02*
X14385000Y-8791000D01*
X14385000Y-8841000D02*
X14415000Y-8871000D01*
X14415000Y-8841000D02*
X14385000Y-8871000D01*
X14425000Y-6055000D02*
X14455000Y-6085000D01*
X14455000Y-6055000D02*
X14425000Y-6085000D01*
X14425000Y-11365000D02*
X14455000Y-11395000D01*
X14455000Y-11365000D02*
X14425000Y-11395000D01*
X14525000Y-6055000D02*
X14555000Y-6085000D01*
X14555000Y-6055000D02*
X14525000Y-6085000D01*
X14525000Y-11365000D02*
X14555000Y-11395000D01*
X14555000Y-11365000D02*
X14525000Y-11395000D01*
X14600000Y-8340000D02*
X14630000Y-8370000D01*
X14630000Y-8340000D02*
X14600000Y-8370000D01*
X14625000Y-6055000D02*
X14655000Y-6085000D01*
X14655000Y-6055000D02*
X14625000Y-6085000D01*
X14625000Y-11365000D02*
X14655000Y-11395000D01*
X14655000Y-11365000D02*
X14625000Y-11395000D01*
X14669998Y-8704999D02*
X14699998Y-8734999D01*
X14699998Y-8704999D02*
X14669998Y-8734999D01*
X14705000Y-8595000D02*
X14735000Y-8625000D01*
X14735000Y-8595000D02*
X14705000Y-8625000D01*
X14725000Y-6055000D02*
X14755000Y-6085000D01*
X14755000Y-6055000D02*
X14725000Y-6085000D01*
X14725000Y-11365000D02*
X14755000Y-11395000D01*
X14755000Y-11365000D02*
X14725000Y-11395000D01*
X14745000Y-8005000D02*
X14775000Y-8035000D01*
X14775000Y-8005000D02*
X14745000Y-8035000D01*
X14825000Y-6055000D02*
X14855000Y-6085000D01*
X14855000Y-6055000D02*
X14825000Y-6085000D01*
X14825000Y-11365000D02*
X14855000Y-11395000D01*
X14855000Y-11365000D02*
X14825000Y-11395000D01*
X14925000Y-6055000D02*
X14955000Y-6085000D01*
X14955000Y-6055000D02*
X14925000Y-6085000D01*
X14925000Y-11365000D02*
X14955000Y-11395000D01*
X14955000Y-11365000D02*
X14925000Y-11395000D01*
X15025000Y-6055000D02*
X15055000Y-6085000D01*
X15055000Y-6055000D02*
X15025000Y-6085000D01*
X15025000Y-11365000D02*
X15055000Y-11395000D01*
X15055000Y-11365000D02*
X15025000Y-11395000D01*
X15125000Y-6055000D02*
X15155000Y-6085000D01*
X15155000Y-6055000D02*
X15125000Y-6085000D01*
X15125000Y-11365000D02*
X15155000Y-11395000D01*
X15155000Y-11365000D02*
X15125000Y-11395000D01*
X15225000Y-6055000D02*
X15255000Y-6085000D01*
X15255000Y-6055000D02*
X15225000Y-6085000D01*
X15225000Y-11365000D02*
X15255000Y-11395000D01*
X15255000Y-11365000D02*
X15225000Y-11395000D01*
X15325000Y-6055000D02*
X15355000Y-6085000D01*
X15355000Y-6055000D02*
X15325000Y-6085000D01*
X15325000Y-11365000D02*
X15355000Y-11395000D01*
X15355000Y-11365000D02*
X15325000Y-11395000D01*
X15370000Y-7448000D02*
X15400000Y-7478000D01*
X15400000Y-7448000D02*
X15370000Y-7478000D01*
X15425000Y-6055000D02*
X15455000Y-6085000D01*
X15455000Y-6055000D02*
X15425000Y-6085000D01*
X15425000Y-11365000D02*
X15455000Y-11395000D01*
X15455000Y-11365000D02*
X15425000Y-11395000D01*
X15495000Y-7625000D02*
X15525000Y-7655000D01*
X15525000Y-7625000D02*
X15495000Y-7655000D01*
X15525000Y-6055000D02*
X15555000Y-6085000D01*
X15555000Y-6055000D02*
X15525000Y-6085000D01*
X15525000Y-11365000D02*
X15555000Y-11395000D01*
X15555000Y-11365000D02*
X15525000Y-11395000D01*
X15625000Y-6055000D02*
X15655000Y-6085000D01*
X15655000Y-6055000D02*
X15625000Y-6085000D01*
X15625000Y-11365000D02*
X15655000Y-11395000D01*
X15655000Y-11365000D02*
X15625000Y-11395000D01*
X15715000Y-7645000D02*
X15745000Y-7675000D01*
X15745000Y-7645000D02*
X15715000Y-7675000D01*
X15715000Y-7745000D02*
X15745000Y-7775000D01*
X15745000Y-7745000D02*
X15715000Y-7775000D01*
X15715000Y-7845000D02*
X15745000Y-7875000D01*
X15745000Y-7845000D02*
X15715000Y-7875000D01*
X15725000Y-6055000D02*
X15755000Y-6085000D01*
X15755000Y-6055000D02*
X15725000Y-6085000D01*
X15725000Y-9475000D02*
X15755000Y-9505000D01*
X15755000Y-9475000D02*
X15725000Y-9505000D01*
X15725000Y-9575000D02*
X15755000Y-9605000D01*
X15755000Y-9575000D02*
X15725000Y-9605000D01*
X15725000Y-9675000D02*
X15755000Y-9705000D01*
X15755000Y-9675000D02*
X15725000Y-9705000D01*
X15725000Y-11365000D02*
X15755000Y-11395000D01*
X15755000Y-11365000D02*
X15725000Y-11395000D01*
X15815000Y-7645000D02*
X15845000Y-7675000D01*
X15845000Y-7645000D02*
X15815000Y-7675000D01*
X15815000Y-7745000D02*
X15845000Y-7775000D01*
X15845000Y-7745000D02*
X15815000Y-7775000D01*
X15815000Y-7845000D02*
X15845000Y-7875000D01*
X15845000Y-7845000D02*
X15815000Y-7875000D01*
X15825000Y-6055000D02*
X15855000Y-6085000D01*
X15855000Y-6055000D02*
X15825000Y-6085000D01*
X15825000Y-9475000D02*
X15855000Y-9505000D01*
X15855000Y-9475000D02*
X15825000Y-9505000D01*
X15825000Y-9575000D02*
X15855000Y-9605000D01*
X15855000Y-9575000D02*
X15825000Y-9605000D01*
X15825000Y-9675000D02*
X15855000Y-9705000D01*
X15855000Y-9675000D02*
X15825000Y-9705000D01*
X15825000Y-11365000D02*
X15855000Y-11395000D01*
X15855000Y-11365000D02*
X15825000Y-11395000D01*
X15915000Y-7645000D02*
X15945000Y-7675000D01*
X15945000Y-7645000D02*
X15915000Y-7675000D01*
X15915000Y-7745000D02*
X15945000Y-7775000D01*
X15945000Y-7745000D02*
X15915000Y-7775000D01*
X15915000Y-7845000D02*
X15945000Y-7875000D01*
X15945000Y-7845000D02*
X15915000Y-7875000D01*
X15925000Y-6055000D02*
X15955000Y-6085000D01*
X15955000Y-6055000D02*
X15925000Y-6085000D01*
X15925000Y-9475000D02*
X15955000Y-9505000D01*
X15955000Y-9475000D02*
X15925000Y-9505000D01*
X15925000Y-9575000D02*
X15955000Y-9605000D01*
X15955000Y-9575000D02*
X15925000Y-9605000D01*
X15925000Y-9675000D02*
X15955000Y-9705000D01*
X15955000Y-9675000D02*
X15925000Y-9705000D01*
X15925000Y-11365000D02*
X15955000Y-11395000D01*
X15955000Y-11365000D02*
X15925000Y-11395000D01*
X16015000Y-7645000D02*
X16045000Y-7675000D01*
X16045000Y-7645000D02*
X16015000Y-7675000D01*
X16015000Y-7745000D02*
X16045000Y-7775000D01*
X16045000Y-7745000D02*
X16015000Y-7775000D01*
X16015000Y-7845000D02*
X16045000Y-7875000D01*
X16045000Y-7845000D02*
X16015000Y-7875000D01*
X16025000Y-6055000D02*
X16055000Y-6085000D01*
X16055000Y-6055000D02*
X16025000Y-6085000D01*
X16025000Y-9475000D02*
X16055000Y-9505000D01*
X16055000Y-9475000D02*
X16025000Y-9505000D01*
X16025000Y-9575000D02*
X16055000Y-9605000D01*
X16055000Y-9575000D02*
X16025000Y-9605000D01*
X16025000Y-9675000D02*
X16055000Y-9705000D01*
X16055000Y-9675000D02*
X16025000Y-9705000D01*
X16025000Y-11365000D02*
X16055000Y-11395000D01*
X16055000Y-11365000D02*
X16025000Y-11395000D01*
X16035000Y-6565000D02*
X16065000Y-6595000D01*
X16065000Y-6565000D02*
X16035000Y-6595000D01*
X16035000Y-6635000D02*
X16065000Y-6665000D01*
X16065000Y-6635000D02*
X16035000Y-6665000D01*
X16035000Y-6705000D02*
X16065000Y-6735000D01*
X16065000Y-6705000D02*
X16035000Y-6735000D01*
X16035000Y-6775000D02*
X16065000Y-6805000D01*
X16065000Y-6775000D02*
X16035000Y-6805000D01*
X16035000Y-6845000D02*
X16065000Y-6875000D01*
X16065000Y-6845000D02*
X16035000Y-6875000D01*
X16035000Y-6915000D02*
X16065000Y-6945000D01*
X16065000Y-6915000D02*
X16035000Y-6945000D01*
X16035000Y-6985000D02*
X16065000Y-7015000D01*
X16065000Y-6985000D02*
X16035000Y-7015000D01*
X16035000Y-7055000D02*
X16065000Y-7085000D01*
X16065000Y-7055000D02*
X16035000Y-7085000D01*
X16035000Y-7125000D02*
X16065000Y-7155000D01*
X16065000Y-7125000D02*
X16035000Y-7155000D01*
X16035000Y-7195000D02*
X16065000Y-7225000D01*
X16065000Y-7195000D02*
X16035000Y-7225000D01*
X16075000Y-10165000D02*
X16105000Y-10195000D01*
X16105000Y-10165000D02*
X16075000Y-10195000D01*
X16075000Y-10235000D02*
X16105000Y-10265000D01*
X16105000Y-10235000D02*
X16075000Y-10265000D01*
X16075000Y-10305000D02*
X16105000Y-10335000D01*
X16105000Y-10305000D02*
X16075000Y-10335000D01*
X16075000Y-10375000D02*
X16105000Y-10405000D01*
X16105000Y-10375000D02*
X16075000Y-10405000D01*
X16075000Y-10445000D02*
X16105000Y-10475000D01*
X16105000Y-10445000D02*
X16075000Y-10475000D01*
X16075000Y-10515000D02*
X16105000Y-10545000D01*
X16105000Y-10515000D02*
X16075000Y-10545000D01*
X16075000Y-10585000D02*
X16105000Y-10615000D01*
X16105000Y-10585000D02*
X16075000Y-10615000D01*
X16075000Y-10655000D02*
X16105000Y-10685000D01*
X16105000Y-10655000D02*
X16075000Y-10685000D01*
X16075000Y-10725000D02*
X16105000Y-10755000D01*
X16105000Y-10725000D02*
X16075000Y-10755000D01*
X16075000Y-10795000D02*
X16105000Y-10825000D01*
X16105000Y-10795000D02*
X16075000Y-10825000D01*
X16115000Y-7645000D02*
X16145000Y-7675000D01*
X16145000Y-7645000D02*
X16115000Y-7675000D01*
X16115000Y-7745000D02*
X16145000Y-7775000D01*
X16145000Y-7745000D02*
X16115000Y-7775000D01*
X16115000Y-7845000D02*
X16145000Y-7875000D01*
X16145000Y-7845000D02*
X16115000Y-7875000D01*
X16125000Y-6055000D02*
X16155000Y-6085000D01*
X16155000Y-6055000D02*
X16125000Y-6085000D01*
X16125000Y-9475000D02*
X16155000Y-9505000D01*
X16155000Y-9475000D02*
X16125000Y-9505000D01*
X16125000Y-9575000D02*
X16155000Y-9605000D01*
X16155000Y-9575000D02*
X16125000Y-9605000D01*
X16125000Y-9675000D02*
X16155000Y-9705000D01*
X16155000Y-9675000D02*
X16125000Y-9705000D01*
X16125000Y-11365000D02*
X16155000Y-11395000D01*
X16155000Y-11365000D02*
X16125000Y-11395000D01*
X16225000Y-6055000D02*
X16255000Y-6085000D01*
X16255000Y-6055000D02*
X16225000Y-6085000D01*
X16225000Y-11365000D02*
X16255000Y-11395000D01*
X16255000Y-11365000D02*
X16225000Y-11395000D01*
X16325000Y-6055000D02*
X16355000Y-6085000D01*
X16355000Y-6055000D02*
X16325000Y-6085000D01*
X16325000Y-11365000D02*
X16355000Y-11395000D01*
X16355000Y-11365000D02*
X16325000Y-11395000D01*
X16425000Y-6055000D02*
X16455000Y-6085000D01*
X16455000Y-6055000D02*
X16425000Y-6085000D01*
X16425000Y-11365000D02*
X16455000Y-11395000D01*
X16455000Y-11365000D02*
X16425000Y-11395000D01*
X16525000Y-6055000D02*
X16555000Y-6085000D01*
X16555000Y-6055000D02*
X16525000Y-6085000D01*
X16525000Y-11365000D02*
X16555000Y-11395000D01*
X16555000Y-11365000D02*
X16525000Y-11395000D01*
X16625000Y-6055000D02*
X16655000Y-6085000D01*
X16655000Y-6055000D02*
X16625000Y-6085000D01*
X16625000Y-11365000D02*
X16655000Y-11395000D01*
X16655000Y-11365000D02*
X16625000Y-11395000D01*
X16725000Y-6055000D02*
X16755000Y-6085000D01*
X16755000Y-6055000D02*
X16725000Y-6085000D01*
X16725000Y-11365000D02*
X16755000Y-11395000D01*
X16755000Y-11365000D02*
X16725000Y-11395000D01*
X16825000Y-6055000D02*
X16855000Y-6085000D01*
X16855000Y-6055000D02*
X16825000Y-6085000D01*
X16825000Y-11365000D02*
X16855000Y-11395000D01*
X16855000Y-11365000D02*
X16825000Y-11395000D01*
X16925000Y-6055000D02*
X16955000Y-6085000D01*
X16955000Y-6055000D02*
X16925000Y-6085000D01*
X16925000Y-6165000D02*
X16955000Y-6195000D01*
X16955000Y-6165000D02*
X16925000Y-6195000D01*
X16925000Y-6375000D02*
X16955000Y-6405000D01*
X16955000Y-6375000D02*
X16925000Y-6405000D01*
X16925000Y-6475000D02*
X16955000Y-6505000D01*
X16955000Y-6475000D02*
X16925000Y-6505000D01*
X16925000Y-6575000D02*
X16955000Y-6605000D01*
X16955000Y-6575000D02*
X16925000Y-6605000D01*
X16925000Y-6775000D02*
X16955000Y-6805000D01*
X16955000Y-6775000D02*
X16925000Y-6805000D01*
X16925000Y-6875000D02*
X16955000Y-6905000D01*
X16955000Y-6875000D02*
X16925000Y-6905000D01*
X16925000Y-6975000D02*
X16955000Y-7005000D01*
X16955000Y-6975000D02*
X16925000Y-7005000D01*
X16925000Y-7275000D02*
X16955000Y-7305000D01*
X16955000Y-7275000D02*
X16925000Y-7305000D01*
X16925000Y-7375000D02*
X16955000Y-7405000D01*
X16955000Y-7375000D02*
X16925000Y-7405000D01*
X16925000Y-7475000D02*
X16955000Y-7505000D01*
X16955000Y-7475000D02*
X16925000Y-7505000D01*
X16925000Y-7675000D02*
X16955000Y-7705000D01*
X16955000Y-7675000D02*
X16925000Y-7705000D01*
X16925000Y-7775000D02*
X16955000Y-7805000D01*
X16955000Y-7775000D02*
X16925000Y-7805000D01*
X16925000Y-7875000D02*
X16955000Y-7905000D01*
X16955000Y-7875000D02*
X16925000Y-7905000D01*
X16925000Y-7975000D02*
X16955000Y-8005000D01*
X16955000Y-7975000D02*
X16925000Y-8005000D01*
X16925000Y-8175000D02*
X16955000Y-8205000D01*
X16955000Y-8175000D02*
X16925000Y-8205000D01*
X16925000Y-8275000D02*
X16955000Y-8305000D01*
X16955000Y-8275000D02*
X16925000Y-8305000D01*
X16925000Y-8375000D02*
X16955000Y-8405000D01*
X16955000Y-8375000D02*
X16925000Y-8405000D01*
X16925000Y-8575000D02*
X16955000Y-8605000D01*
X16955000Y-8575000D02*
X16925000Y-8605000D01*
X16925000Y-8675000D02*
X16955000Y-8705000D01*
X16955000Y-8675000D02*
X16925000Y-8705000D01*
X16925000Y-8775000D02*
X16955000Y-8805000D01*
X16955000Y-8775000D02*
X16925000Y-8805000D01*
X16925000Y-8875000D02*
X16955000Y-8905000D01*
X16955000Y-8875000D02*
X16925000Y-8905000D01*
X16925000Y-9075000D02*
X16955000Y-9105000D01*
X16955000Y-9075000D02*
X16925000Y-9105000D01*
X16925000Y-9175000D02*
X16955000Y-9205000D01*
X16955000Y-9175000D02*
X16925000Y-9205000D01*
X16925000Y-9275000D02*
X16955000Y-9305000D01*
X16955000Y-9275000D02*
X16925000Y-9305000D01*
X16925000Y-9575000D02*
X16955000Y-9605000D01*
X16955000Y-9575000D02*
X16925000Y-9605000D01*
X16925000Y-9675000D02*
X16955000Y-9705000D01*
X16955000Y-9675000D02*
X16925000Y-9705000D01*
X16925000Y-9775000D02*
X16955000Y-9805000D01*
X16955000Y-9775000D02*
X16925000Y-9805000D01*
X16925000Y-9975000D02*
X16955000Y-10005000D01*
X16955000Y-9975000D02*
X16925000Y-10005000D01*
X16925000Y-10075000D02*
X16955000Y-10105000D01*
X16955000Y-10075000D02*
X16925000Y-10105000D01*
X16925000Y-10175000D02*
X16955000Y-10205000D01*
X16955000Y-10175000D02*
X16925000Y-10205000D01*
X16925000Y-10475000D02*
X16955000Y-10505000D01*
X16955000Y-10475000D02*
X16925000Y-10505000D01*
X16925000Y-10575000D02*
X16955000Y-10605000D01*
X16955000Y-10575000D02*
X16925000Y-10605000D01*
X16925000Y-10675000D02*
X16955000Y-10705000D01*
X16955000Y-10675000D02*
X16925000Y-10705000D01*
X16925000Y-10875000D02*
X16955000Y-10905000D01*
X16955000Y-10875000D02*
X16925000Y-10905000D01*
X16925000Y-10975000D02*
X16955000Y-11005000D01*
X16955000Y-10975000D02*
X16925000Y-11005000D01*
X16925000Y-11075000D02*
X16955000Y-11105000D01*
X16955000Y-11075000D02*
X16925000Y-11105000D01*
X16925000Y-11175000D02*
X16955000Y-11205000D01*
X16955000Y-11175000D02*
X16925000Y-11205000D01*
X16925000Y-11365000D02*
X16955000Y-11395000D01*
X16955000Y-11365000D02*
X16925000Y-11395000D01*
X16925000Y-6275000D02*
X16955000Y-6305000D01*
X16955000Y-6275000D02*
X16925000Y-6305000D01*
X16925000Y-6675000D02*
X16955000Y-6705000D01*
X16955000Y-6675000D02*
X16925000Y-6705000D01*
X16925000Y-7075000D02*
X16955000Y-7105000D01*
X16955000Y-7075000D02*
X16925000Y-7105000D01*
X16925000Y-7175000D02*
X16955000Y-7205000D01*
X16955000Y-7175000D02*
X16925000Y-7205000D01*
X16925000Y-7575000D02*
X16955000Y-7605000D01*
X16955000Y-7575000D02*
X16925000Y-7605000D01*
X16925000Y-8075000D02*
X16955000Y-8105000D01*
X16955000Y-8075000D02*
X16925000Y-8105000D01*
X16925000Y-8475000D02*
X16955000Y-8505000D01*
X16955000Y-8475000D02*
X16925000Y-8505000D01*
X16925000Y-8975000D02*
X16955000Y-9005000D01*
X16955000Y-8975000D02*
X16925000Y-9005000D01*
X16925000Y-9375000D02*
X16955000Y-9405000D01*
X16955000Y-9375000D02*
X16925000Y-9405000D01*
X16925000Y-9475000D02*
X16955000Y-9505000D01*
X16955000Y-9475000D02*
X16925000Y-9505000D01*
X16925000Y-9875000D02*
X16955000Y-9905000D01*
X16955000Y-9875000D02*
X16925000Y-9905000D01*
X16925000Y-10275000D02*
X16955000Y-10305000D01*
X16955000Y-10275000D02*
X16925000Y-10305000D01*
X16925000Y-10375000D02*
X16955000Y-10405000D01*
X16955000Y-10375000D02*
X16925000Y-10405000D01*
X16925000Y-10775000D02*
X16955000Y-10805000D01*
X16955000Y-10775000D02*
X16925000Y-10805000D01*
X16925000Y-11275000D02*
X16955000Y-11305000D01*
X16955000Y-11275000D02*
X16925000Y-11305000D01*
X13710000Y-8190000D02*
G75*
G03*
X13710000Y-8190000I-20000J0D01*
G01*
X14569000Y-9046000D02*
G75*
G03*
X14569000Y-9046000I-20000J0D01*
G01*
X16350000Y-9561000D02*
X16350000Y-9661000D01*
X16300000Y-9611000D02*
X16400000Y-9611000D01*
X16350000Y-9861000D02*
X16350000Y-9961000D01*
X16300000Y-9911000D02*
X16400000Y-9911000D01*
X16350000Y-10161000D02*
X16350000Y-10261000D01*
X16300000Y-10211000D02*
X16400000Y-10211000D01*
X16350000Y-10461000D02*
X16350000Y-10561000D01*
X16300000Y-10511000D02*
X16400000Y-10511000D01*
X16350000Y-10761000D02*
X16350000Y-10861000D01*
X16300000Y-10811000D02*
X16400000Y-10811000D01*
X16650000Y-9561000D02*
X16650000Y-9661000D01*
X16600000Y-9611000D02*
X16700000Y-9611000D01*
X16650000Y-9861000D02*
X16650000Y-9961000D01*
X16600000Y-9911000D02*
X16700000Y-9911000D01*
X16650000Y-10161000D02*
X16650000Y-10261000D01*
X16600000Y-10211000D02*
X16700000Y-10211000D01*
X16650000Y-10461000D02*
X16650000Y-10561000D01*
X16600000Y-10511000D02*
X16700000Y-10511000D01*
X16650000Y-10761000D02*
X16650000Y-10861000D01*
X16600000Y-10811000D02*
X16700000Y-10811000D01*
X16350000Y-6536000D02*
X16350000Y-6636000D01*
X16300000Y-6586000D02*
X16400000Y-6586000D01*
X16350000Y-6836000D02*
X16350000Y-6936000D01*
X16300000Y-6886000D02*
X16400000Y-6886000D01*
X16350000Y-7136000D02*
X16350000Y-7236000D01*
X16300000Y-7186000D02*
X16400000Y-7186000D01*
X16350000Y-7436000D02*
X16350000Y-7536000D01*
X16300000Y-7486000D02*
X16400000Y-7486000D01*
X16350000Y-7736000D02*
X16350000Y-7836000D01*
X16300000Y-7786000D02*
X16400000Y-7786000D01*
X16650000Y-6536000D02*
X16650000Y-6636000D01*
X16600000Y-6586000D02*
X16700000Y-6586000D01*
X16650000Y-6836000D02*
X16650000Y-6936000D01*
X16600000Y-6886000D02*
X16700000Y-6886000D01*
X16650000Y-7136000D02*
X16650000Y-7236000D01*
X16600000Y-7186000D02*
X16700000Y-7186000D01*
X16650000Y-7436000D02*
X16650000Y-7536000D01*
X16600000Y-7486000D02*
X16700000Y-7486000D01*
X16650000Y-7736000D02*
X16650000Y-7836000D01*
X16600000Y-7786000D02*
X16700000Y-7786000D01*
X11709498Y-6719498D02*
X11709498Y-6620502D01*
X11610502Y-6620502D01*
X11610502Y-6719498D01*
X11709498Y-6719498D01*
X11709498Y-7139498D02*
X11709498Y-7040502D01*
X11610502Y-7040502D01*
X11610502Y-7139498D01*
X11709498Y-7139498D01*
X12259498Y-6719498D02*
X12259498Y-6620502D01*
X12160502Y-6620502D01*
X12160502Y-6719498D01*
X12259498Y-6719498D01*
X12259498Y-7139498D02*
X12259498Y-7040502D01*
X12160502Y-7040502D01*
X12160502Y-7139498D01*
X12259498Y-7139498D01*
D12*
X10036429Y-12715714D02*
X10036429Y-12415714D01*
X10107857Y-12415714D01*
X10150714Y-12430000D01*
X10179286Y-12458571D01*
X10193571Y-12487143D01*
X10207857Y-12544286D01*
X10207857Y-12587143D01*
X10193571Y-12644286D01*
X10179286Y-12672857D01*
X10150714Y-12701428D01*
X10107857Y-12715714D01*
X10036429Y-12715714D01*
X10336429Y-12715714D02*
X10336429Y-12515714D01*
X10336429Y-12572857D02*
X10350714Y-12544286D01*
X10365000Y-12530000D01*
X10393571Y-12515714D01*
X10422143Y-12515714D01*
X10522143Y-12715714D02*
X10522143Y-12515714D01*
X10522143Y-12415714D02*
X10507857Y-12430000D01*
X10522143Y-12444286D01*
X10536429Y-12430000D01*
X10522143Y-12415714D01*
X10522143Y-12444286D01*
X10707857Y-12715714D02*
X10679286Y-12701428D01*
X10665000Y-12672857D01*
X10665000Y-12415714D01*
X10865000Y-12715714D02*
X10836429Y-12701428D01*
X10822143Y-12672857D01*
X10822143Y-12415714D01*
X11207857Y-12715714D02*
X11207857Y-12415714D01*
X11307857Y-12630000D01*
X11407857Y-12415714D01*
X11407857Y-12715714D01*
X11679286Y-12715714D02*
X11679286Y-12558571D01*
X11665000Y-12530000D01*
X11636428Y-12515714D01*
X11579286Y-12515714D01*
X11550714Y-12530000D01*
X11679286Y-12701428D02*
X11650714Y-12715714D01*
X11579286Y-12715714D01*
X11550714Y-12701428D01*
X11536428Y-12672857D01*
X11536428Y-12644286D01*
X11550714Y-12615714D01*
X11579286Y-12601428D01*
X11650714Y-12601428D01*
X11679286Y-12587143D01*
X11822143Y-12515714D02*
X11822143Y-12815714D01*
X11822143Y-12530000D02*
X11850714Y-12515714D01*
X11907857Y-12515714D01*
X11936428Y-12530000D01*
X11950714Y-12544286D01*
X11965000Y-12572857D01*
X11965000Y-12658571D01*
X11950714Y-12687143D01*
X11936428Y-12701428D01*
X11907857Y-12715714D01*
X11850714Y-12715714D01*
X11822143Y-12701428D01*
X12093571Y-12687143D02*
X12107857Y-12701428D01*
X12093571Y-12715714D01*
X12079286Y-12701428D01*
X12093571Y-12687143D01*
X12093571Y-12715714D01*
X12093571Y-12530000D02*
X12107857Y-12544286D01*
X12093571Y-12558571D01*
X12079286Y-12544286D01*
X12093571Y-12530000D01*
X12093571Y-12558571D01*
X9720000Y-13195000D02*
X9750000Y-13225000D01*
X9750000Y-13195000D02*
X9720000Y-13225000D01*
X10093571Y-13045714D02*
X10122143Y-13045714D01*
X10150714Y-13060000D01*
X10165000Y-13074286D01*
X10179286Y-13102857D01*
X10193571Y-13160000D01*
X10193571Y-13231428D01*
X10179286Y-13288571D01*
X10165000Y-13317143D01*
X10150714Y-13331428D01*
X10122143Y-13345714D01*
X10093571Y-13345714D01*
X10065000Y-13331428D01*
X10050714Y-13317143D01*
X10036429Y-13288571D01*
X10022143Y-13231428D01*
X10022143Y-13160000D01*
X10036429Y-13102857D01*
X10050714Y-13074286D01*
X10065000Y-13060000D01*
X10093571Y-13045714D01*
X10322143Y-13317143D02*
X10336429Y-13331428D01*
X10322143Y-13345714D01*
X10307857Y-13331428D01*
X10322143Y-13317143D01*
X10322143Y-13345714D01*
X10436429Y-13045714D02*
X10622143Y-13045714D01*
X10522143Y-13160000D01*
X10565000Y-13160000D01*
X10593571Y-13174286D01*
X10607857Y-13188571D01*
X10622143Y-13217143D01*
X10622143Y-13288571D01*
X10607857Y-13317143D01*
X10593571Y-13331428D01*
X10565000Y-13345714D01*
X10479286Y-13345714D01*
X10450714Y-13331428D01*
X10436429Y-13317143D01*
X10807857Y-13045714D02*
X10836429Y-13045714D01*
X10865000Y-13060000D01*
X10879286Y-13074286D01*
X10893571Y-13102857D01*
X10907857Y-13160000D01*
X10907857Y-13231428D01*
X10893571Y-13288571D01*
X10879286Y-13317143D01*
X10865000Y-13331428D01*
X10836429Y-13345714D01*
X10807857Y-13345714D01*
X10779286Y-13331428D01*
X10765000Y-13317143D01*
X10750714Y-13288571D01*
X10736429Y-13231428D01*
X10736429Y-13160000D01*
X10750714Y-13102857D01*
X10765000Y-13074286D01*
X10779286Y-13060000D01*
X10807857Y-13045714D01*
X11036429Y-13345714D02*
X11036429Y-13145714D01*
X11036429Y-13174286D02*
X11050714Y-13160000D01*
X11079286Y-13145714D01*
X11122143Y-13145714D01*
X11150714Y-13160000D01*
X11165000Y-13188571D01*
X11165000Y-13345714D01*
X11165000Y-13188571D02*
X11179286Y-13160000D01*
X11207857Y-13145714D01*
X11250714Y-13145714D01*
X11279286Y-13160000D01*
X11293571Y-13188571D01*
X11293571Y-13345714D01*
X11436428Y-13345714D02*
X11436428Y-13145714D01*
X11436428Y-13174286D02*
X11450714Y-13160000D01*
X11479286Y-13145714D01*
X11522143Y-13145714D01*
X11550714Y-13160000D01*
X11565000Y-13188571D01*
X11565000Y-13345714D01*
X11565000Y-13188571D02*
X11579286Y-13160000D01*
X11607857Y-13145714D01*
X11650714Y-13145714D01*
X11679286Y-13160000D01*
X11693571Y-13188571D01*
X11693571Y-13345714D01*
X12279286Y-13031428D02*
X12022143Y-13417143D01*
X12665000Y-13045714D02*
X12693571Y-13045714D01*
X12722143Y-13060000D01*
X12736428Y-13074286D01*
X12750714Y-13102857D01*
X12765000Y-13160000D01*
X12765000Y-13231428D01*
X12750714Y-13288571D01*
X12736428Y-13317143D01*
X12722143Y-13331428D01*
X12693571Y-13345714D01*
X12665000Y-13345714D01*
X12636428Y-13331428D01*
X12622143Y-13317143D01*
X12607857Y-13288571D01*
X12593571Y-13231428D01*
X12593571Y-13160000D01*
X12607857Y-13102857D01*
X12622143Y-13074286D01*
X12636428Y-13060000D01*
X12665000Y-13045714D01*
X12893571Y-13317143D02*
X12907857Y-13331428D01*
X12893571Y-13345714D01*
X12879286Y-13331428D01*
X12893571Y-13317143D01*
X12893571Y-13345714D01*
X13093571Y-13045714D02*
X13122143Y-13045714D01*
X13150714Y-13060000D01*
X13165000Y-13074286D01*
X13179286Y-13102857D01*
X13193571Y-13160000D01*
X13193571Y-13231428D01*
X13179286Y-13288571D01*
X13165000Y-13317143D01*
X13150714Y-13331428D01*
X13122143Y-13345714D01*
X13093571Y-13345714D01*
X13065000Y-13331428D01*
X13050714Y-13317143D01*
X13036428Y-13288571D01*
X13022143Y-13231428D01*
X13022143Y-13160000D01*
X13036428Y-13102857D01*
X13050714Y-13074286D01*
X13065000Y-13060000D01*
X13093571Y-13045714D01*
X13479286Y-13345714D02*
X13307857Y-13345714D01*
X13393571Y-13345714D02*
X13393571Y-13045714D01*
X13365000Y-13088571D01*
X13336428Y-13117143D01*
X13307857Y-13131428D01*
X13593571Y-13074286D02*
X13607857Y-13060000D01*
X13636428Y-13045714D01*
X13707857Y-13045714D01*
X13736428Y-13060000D01*
X13750714Y-13074286D01*
X13765000Y-13102857D01*
X13765000Y-13131428D01*
X13750714Y-13174286D01*
X13579286Y-13345714D01*
X13765000Y-13345714D01*
X13879286Y-13045714D02*
X13879286Y-13102857D01*
X13993571Y-13045714D02*
X13993571Y-13102857D01*
X14436428Y-13460000D02*
X14422143Y-13445714D01*
X14393571Y-13402857D01*
X14379286Y-13374286D01*
X14365000Y-13331428D01*
X14350714Y-13260000D01*
X14350714Y-13202857D01*
X14365000Y-13131428D01*
X14379286Y-13088571D01*
X14393571Y-13060000D01*
X14422143Y-13017143D01*
X14436428Y-13002857D01*
X14536428Y-13074286D02*
X14550714Y-13060000D01*
X14579286Y-13045714D01*
X14650714Y-13045714D01*
X14679286Y-13060000D01*
X14693571Y-13074286D01*
X14707857Y-13102857D01*
X14707857Y-13131428D01*
X14693571Y-13174286D01*
X14522143Y-13345714D01*
X14707857Y-13345714D01*
X14807857Y-13045714D02*
X15007857Y-13045714D01*
X14879286Y-13345714D01*
X15093571Y-13045714D02*
X15279286Y-13045714D01*
X15179286Y-13160000D01*
X15222143Y-13160000D01*
X15250714Y-13174286D01*
X15265000Y-13188571D01*
X15279286Y-13217143D01*
X15279286Y-13288571D01*
X15265000Y-13317143D01*
X15250714Y-13331428D01*
X15222143Y-13345714D01*
X15136428Y-13345714D01*
X15107857Y-13331428D01*
X15093571Y-13317143D01*
X15636428Y-13345714D02*
X15636428Y-13045714D01*
X15765000Y-13345714D02*
X15765000Y-13188571D01*
X15750714Y-13160000D01*
X15722143Y-13145714D01*
X15679286Y-13145714D01*
X15650714Y-13160000D01*
X15636428Y-13174286D01*
X15950714Y-13345714D02*
X15922143Y-13331428D01*
X15907857Y-13317143D01*
X15893571Y-13288571D01*
X15893571Y-13202857D01*
X15907857Y-13174286D01*
X15922143Y-13160000D01*
X15950714Y-13145714D01*
X15993571Y-13145714D01*
X16022143Y-13160000D01*
X16036428Y-13174286D01*
X16050714Y-13202857D01*
X16050714Y-13288571D01*
X16036428Y-13317143D01*
X16022143Y-13331428D01*
X15993571Y-13345714D01*
X15950714Y-13345714D01*
X16222143Y-13345714D02*
X16193571Y-13331428D01*
X16179286Y-13302857D01*
X16179286Y-13045714D01*
X16450714Y-13331428D02*
X16422143Y-13345714D01*
X16365000Y-13345714D01*
X16336428Y-13331428D01*
X16322143Y-13302857D01*
X16322143Y-13188571D01*
X16336428Y-13160000D01*
X16365000Y-13145714D01*
X16422143Y-13145714D01*
X16450714Y-13160000D01*
X16465000Y-13188571D01*
X16465000Y-13217143D01*
X16322143Y-13245714D01*
X16579286Y-13331428D02*
X16607857Y-13345714D01*
X16665000Y-13345714D01*
X16693571Y-13331428D01*
X16707857Y-13302857D01*
X16707857Y-13288571D01*
X16693571Y-13260000D01*
X16665000Y-13245714D01*
X16622143Y-13245714D01*
X16593571Y-13231428D01*
X16579286Y-13202857D01*
X16579286Y-13188571D01*
X16593571Y-13160000D01*
X16622143Y-13145714D01*
X16665000Y-13145714D01*
X16693571Y-13160000D01*
X16807857Y-13460000D02*
X16822143Y-13445714D01*
X16850714Y-13402857D01*
X16865000Y-13374286D01*
X16879286Y-13331428D01*
X16893571Y-13260000D01*
X16893571Y-13202857D01*
X16879286Y-13131428D01*
X16865000Y-13088571D01*
X16850714Y-13060000D01*
X16822143Y-13017143D01*
X16807857Y-13002857D01*
X9750000Y-13606000D02*
G75*
G03*
X9750000Y-13606000I-20000J0D01*
G01*
X10093571Y-13441714D02*
X10122143Y-13441714D01*
X10150714Y-13456000D01*
X10165000Y-13470286D01*
X10179286Y-13498857D01*
X10193571Y-13556000D01*
X10193571Y-13627428D01*
X10179286Y-13684571D01*
X10165000Y-13713143D01*
X10150714Y-13727428D01*
X10122143Y-13741714D01*
X10093571Y-13741714D01*
X10065000Y-13727428D01*
X10050714Y-13713143D01*
X10036429Y-13684571D01*
X10022143Y-13627428D01*
X10022143Y-13556000D01*
X10036429Y-13498857D01*
X10050714Y-13470286D01*
X10065000Y-13456000D01*
X10093571Y-13441714D01*
X10322143Y-13713143D02*
X10336429Y-13727428D01*
X10322143Y-13741714D01*
X10307857Y-13727428D01*
X10322143Y-13713143D01*
X10322143Y-13741714D01*
X10593571Y-13541714D02*
X10593571Y-13741714D01*
X10522143Y-13427428D02*
X10450714Y-13641714D01*
X10636429Y-13641714D01*
X10807857Y-13441714D02*
X10836429Y-13441714D01*
X10865000Y-13456000D01*
X10879286Y-13470286D01*
X10893571Y-13498857D01*
X10907857Y-13556000D01*
X10907857Y-13627428D01*
X10893571Y-13684571D01*
X10879286Y-13713143D01*
X10865000Y-13727428D01*
X10836429Y-13741714D01*
X10807857Y-13741714D01*
X10779286Y-13727428D01*
X10765000Y-13713143D01*
X10750714Y-13684571D01*
X10736429Y-13627428D01*
X10736429Y-13556000D01*
X10750714Y-13498857D01*
X10765000Y-13470286D01*
X10779286Y-13456000D01*
X10807857Y-13441714D01*
X11036429Y-13741714D02*
X11036429Y-13541714D01*
X11036429Y-13570286D02*
X11050714Y-13556000D01*
X11079286Y-13541714D01*
X11122143Y-13541714D01*
X11150714Y-13556000D01*
X11165000Y-13584571D01*
X11165000Y-13741714D01*
X11165000Y-13584571D02*
X11179286Y-13556000D01*
X11207857Y-13541714D01*
X11250714Y-13541714D01*
X11279286Y-13556000D01*
X11293571Y-13584571D01*
X11293571Y-13741714D01*
X11436428Y-13741714D02*
X11436428Y-13541714D01*
X11436428Y-13570286D02*
X11450714Y-13556000D01*
X11479286Y-13541714D01*
X11522143Y-13541714D01*
X11550714Y-13556000D01*
X11565000Y-13584571D01*
X11565000Y-13741714D01*
X11565000Y-13584571D02*
X11579286Y-13556000D01*
X11607857Y-13541714D01*
X11650714Y-13541714D01*
X11679286Y-13556000D01*
X11693571Y-13584571D01*
X11693571Y-13741714D01*
X12279286Y-13427428D02*
X12022143Y-13813143D01*
X12665000Y-13441714D02*
X12693571Y-13441714D01*
X12722143Y-13456000D01*
X12736428Y-13470286D01*
X12750714Y-13498857D01*
X12765000Y-13556000D01*
X12765000Y-13627428D01*
X12750714Y-13684571D01*
X12736428Y-13713143D01*
X12722143Y-13727428D01*
X12693571Y-13741714D01*
X12665000Y-13741714D01*
X12636428Y-13727428D01*
X12622143Y-13713143D01*
X12607857Y-13684571D01*
X12593571Y-13627428D01*
X12593571Y-13556000D01*
X12607857Y-13498857D01*
X12622143Y-13470286D01*
X12636428Y-13456000D01*
X12665000Y-13441714D01*
X12893571Y-13713143D02*
X12907857Y-13727428D01*
X12893571Y-13741714D01*
X12879286Y-13727428D01*
X12893571Y-13713143D01*
X12893571Y-13741714D01*
X13093571Y-13441714D02*
X13122143Y-13441714D01*
X13150714Y-13456000D01*
X13165000Y-13470286D01*
X13179286Y-13498857D01*
X13193571Y-13556000D01*
X13193571Y-13627428D01*
X13179286Y-13684571D01*
X13165000Y-13713143D01*
X13150714Y-13727428D01*
X13122143Y-13741714D01*
X13093571Y-13741714D01*
X13065000Y-13727428D01*
X13050714Y-13713143D01*
X13036428Y-13684571D01*
X13022143Y-13627428D01*
X13022143Y-13556000D01*
X13036428Y-13498857D01*
X13050714Y-13470286D01*
X13065000Y-13456000D01*
X13093571Y-13441714D01*
X13479286Y-13741714D02*
X13307857Y-13741714D01*
X13393571Y-13741714D02*
X13393571Y-13441714D01*
X13365000Y-13484571D01*
X13336428Y-13513143D01*
X13307857Y-13527428D01*
X13736428Y-13441714D02*
X13679286Y-13441714D01*
X13650714Y-13456000D01*
X13636428Y-13470286D01*
X13607857Y-13513143D01*
X13593571Y-13570286D01*
X13593571Y-13684571D01*
X13607857Y-13713143D01*
X13622143Y-13727428D01*
X13650714Y-13741714D01*
X13707857Y-13741714D01*
X13736428Y-13727428D01*
X13750714Y-13713143D01*
X13765000Y-13684571D01*
X13765000Y-13613143D01*
X13750714Y-13584571D01*
X13736428Y-13570286D01*
X13707857Y-13556000D01*
X13650714Y-13556000D01*
X13622143Y-13570286D01*
X13607857Y-13584571D01*
X13593571Y-13613143D01*
X13879286Y-13441714D02*
X13879286Y-13498857D01*
X13993571Y-13441714D02*
X13993571Y-13498857D01*
X14436428Y-13856000D02*
X14422143Y-13841714D01*
X14393571Y-13798857D01*
X14379286Y-13770286D01*
X14365000Y-13727428D01*
X14350714Y-13656000D01*
X14350714Y-13598857D01*
X14365000Y-13527428D01*
X14379286Y-13484571D01*
X14393571Y-13456000D01*
X14422143Y-13413143D01*
X14436428Y-13398857D01*
X14536428Y-13470286D02*
X14550714Y-13456000D01*
X14579286Y-13441714D01*
X14650714Y-13441714D01*
X14679286Y-13456000D01*
X14693571Y-13470286D01*
X14707857Y-13498857D01*
X14707857Y-13527428D01*
X14693571Y-13570286D01*
X14522143Y-13741714D01*
X14707857Y-13741714D01*
X15065000Y-13741714D02*
X15065000Y-13441714D01*
X15193571Y-13741714D02*
X15193571Y-13584571D01*
X15179286Y-13556000D01*
X15150714Y-13541714D01*
X15107857Y-13541714D01*
X15079286Y-13556000D01*
X15065000Y-13570286D01*
X15379286Y-13741714D02*
X15350714Y-13727428D01*
X15336428Y-13713143D01*
X15322143Y-13684571D01*
X15322143Y-13598857D01*
X15336428Y-13570286D01*
X15350714Y-13556000D01*
X15379286Y-13541714D01*
X15422143Y-13541714D01*
X15450714Y-13556000D01*
X15465000Y-13570286D01*
X15479286Y-13598857D01*
X15479286Y-13684571D01*
X15465000Y-13713143D01*
X15450714Y-13727428D01*
X15422143Y-13741714D01*
X15379286Y-13741714D01*
X15650714Y-13741714D02*
X15622143Y-13727428D01*
X15607857Y-13698857D01*
X15607857Y-13441714D01*
X15879286Y-13727428D02*
X15850714Y-13741714D01*
X15793571Y-13741714D01*
X15765000Y-13727428D01*
X15750714Y-13698857D01*
X15750714Y-13584571D01*
X15765000Y-13556000D01*
X15793571Y-13541714D01*
X15850714Y-13541714D01*
X15879286Y-13556000D01*
X15893571Y-13584571D01*
X15893571Y-13613143D01*
X15750714Y-13641714D01*
X16007857Y-13727428D02*
X16036428Y-13741714D01*
X16093571Y-13741714D01*
X16122143Y-13727428D01*
X16136428Y-13698857D01*
X16136428Y-13684571D01*
X16122143Y-13656000D01*
X16093571Y-13641714D01*
X16050714Y-13641714D01*
X16022143Y-13627428D01*
X16007857Y-13598857D01*
X16007857Y-13584571D01*
X16022143Y-13556000D01*
X16050714Y-13541714D01*
X16093571Y-13541714D01*
X16122143Y-13556000D01*
X16236428Y-13856000D02*
X16250714Y-13841714D01*
X16279286Y-13798857D01*
X16293571Y-13770286D01*
X16307857Y-13727428D01*
X16322143Y-13656000D01*
X16322143Y-13598857D01*
X16307857Y-13527428D01*
X16293571Y-13484571D01*
X16279286Y-13456000D01*
X16250714Y-13413143D01*
X16236428Y-13398857D01*
X9700000Y-13952000D02*
X9700000Y-14052000D01*
X9650000Y-14002000D02*
X9750000Y-14002000D01*
X10193571Y-14137714D02*
X10022143Y-14137714D01*
X10107857Y-14137714D02*
X10107857Y-13837714D01*
X10079286Y-13880571D01*
X10050714Y-13909143D01*
X10022143Y-13923428D01*
X10322143Y-14109143D02*
X10336429Y-14123428D01*
X10322143Y-14137714D01*
X10307857Y-14123428D01*
X10322143Y-14109143D01*
X10322143Y-14137714D01*
X10522143Y-13837714D02*
X10550714Y-13837714D01*
X10579286Y-13852000D01*
X10593571Y-13866286D01*
X10607857Y-13894857D01*
X10622143Y-13952000D01*
X10622143Y-14023428D01*
X10607857Y-14080571D01*
X10593571Y-14109143D01*
X10579286Y-14123428D01*
X10550714Y-14137714D01*
X10522143Y-14137714D01*
X10493571Y-14123428D01*
X10479286Y-14109143D01*
X10465000Y-14080571D01*
X10450714Y-14023428D01*
X10450714Y-13952000D01*
X10465000Y-13894857D01*
X10479286Y-13866286D01*
X10493571Y-13852000D01*
X10522143Y-13837714D01*
X10807857Y-13837714D02*
X10836429Y-13837714D01*
X10865000Y-13852000D01*
X10879286Y-13866286D01*
X10893571Y-13894857D01*
X10907857Y-13952000D01*
X10907857Y-14023428D01*
X10893571Y-14080571D01*
X10879286Y-14109143D01*
X10865000Y-14123428D01*
X10836429Y-14137714D01*
X10807857Y-14137714D01*
X10779286Y-14123428D01*
X10765000Y-14109143D01*
X10750714Y-14080571D01*
X10736429Y-14023428D01*
X10736429Y-13952000D01*
X10750714Y-13894857D01*
X10765000Y-13866286D01*
X10779286Y-13852000D01*
X10807857Y-13837714D01*
X11036429Y-14137714D02*
X11036429Y-13937714D01*
X11036429Y-13966286D02*
X11050714Y-13952000D01*
X11079286Y-13937714D01*
X11122143Y-13937714D01*
X11150714Y-13952000D01*
X11165000Y-13980571D01*
X11165000Y-14137714D01*
X11165000Y-13980571D02*
X11179286Y-13952000D01*
X11207857Y-13937714D01*
X11250714Y-13937714D01*
X11279286Y-13952000D01*
X11293571Y-13980571D01*
X11293571Y-14137714D01*
X11436428Y-14137714D02*
X11436428Y-13937714D01*
X11436428Y-13966286D02*
X11450714Y-13952000D01*
X11479286Y-13937714D01*
X11522143Y-13937714D01*
X11550714Y-13952000D01*
X11565000Y-13980571D01*
X11565000Y-14137714D01*
X11565000Y-13980571D02*
X11579286Y-13952000D01*
X11607857Y-13937714D01*
X11650714Y-13937714D01*
X11679286Y-13952000D01*
X11693571Y-13980571D01*
X11693571Y-14137714D01*
X12279286Y-13823428D02*
X12022143Y-14209143D01*
X12665000Y-13837714D02*
X12693571Y-13837714D01*
X12722143Y-13852000D01*
X12736428Y-13866286D01*
X12750714Y-13894857D01*
X12765000Y-13952000D01*
X12765000Y-14023428D01*
X12750714Y-14080571D01*
X12736428Y-14109143D01*
X12722143Y-14123428D01*
X12693571Y-14137714D01*
X12665000Y-14137714D01*
X12636428Y-14123428D01*
X12622143Y-14109143D01*
X12607857Y-14080571D01*
X12593571Y-14023428D01*
X12593571Y-13952000D01*
X12607857Y-13894857D01*
X12622143Y-13866286D01*
X12636428Y-13852000D01*
X12665000Y-13837714D01*
X12893571Y-14109143D02*
X12907857Y-14123428D01*
X12893571Y-14137714D01*
X12879286Y-14123428D01*
X12893571Y-14109143D01*
X12893571Y-14137714D01*
X13093571Y-13837714D02*
X13122143Y-13837714D01*
X13150714Y-13852000D01*
X13165000Y-13866286D01*
X13179286Y-13894857D01*
X13193571Y-13952000D01*
X13193571Y-14023428D01*
X13179286Y-14080571D01*
X13165000Y-14109143D01*
X13150714Y-14123428D01*
X13122143Y-14137714D01*
X13093571Y-14137714D01*
X13065000Y-14123428D01*
X13050714Y-14109143D01*
X13036428Y-14080571D01*
X13022143Y-14023428D01*
X13022143Y-13952000D01*
X13036428Y-13894857D01*
X13050714Y-13866286D01*
X13065000Y-13852000D01*
X13093571Y-13837714D01*
X13293571Y-13837714D02*
X13479286Y-13837714D01*
X13379286Y-13952000D01*
X13422143Y-13952000D01*
X13450714Y-13966286D01*
X13465000Y-13980571D01*
X13479286Y-14009143D01*
X13479286Y-14080571D01*
X13465000Y-14109143D01*
X13450714Y-14123428D01*
X13422143Y-14137714D01*
X13336428Y-14137714D01*
X13307857Y-14123428D01*
X13293571Y-14109143D01*
X13622143Y-14137714D02*
X13679286Y-14137714D01*
X13707857Y-14123428D01*
X13722143Y-14109143D01*
X13750714Y-14066286D01*
X13765000Y-14009143D01*
X13765000Y-13894857D01*
X13750714Y-13866286D01*
X13736428Y-13852000D01*
X13707857Y-13837714D01*
X13650714Y-13837714D01*
X13622143Y-13852000D01*
X13607857Y-13866286D01*
X13593571Y-13894857D01*
X13593571Y-13966286D01*
X13607857Y-13994857D01*
X13622143Y-14009143D01*
X13650714Y-14023428D01*
X13707857Y-14023428D01*
X13736428Y-14009143D01*
X13750714Y-13994857D01*
X13765000Y-13966286D01*
X13879286Y-13837714D02*
X13879286Y-13894857D01*
X13993571Y-13837714D02*
X13993571Y-13894857D01*
X14436428Y-14252000D02*
X14422143Y-14237714D01*
X14393571Y-14194857D01*
X14379286Y-14166286D01*
X14365000Y-14123428D01*
X14350714Y-14052000D01*
X14350714Y-13994857D01*
X14365000Y-13923428D01*
X14379286Y-13880571D01*
X14393571Y-13852000D01*
X14422143Y-13809143D01*
X14436428Y-13794857D01*
X14536428Y-13866286D02*
X14550714Y-13852000D01*
X14579286Y-13837714D01*
X14650714Y-13837714D01*
X14679286Y-13852000D01*
X14693571Y-13866286D01*
X14707857Y-13894857D01*
X14707857Y-13923428D01*
X14693571Y-13966286D01*
X14522143Y-14137714D01*
X14707857Y-14137714D01*
X14893571Y-13837714D02*
X14922143Y-13837714D01*
X14950714Y-13852000D01*
X14965000Y-13866286D01*
X14979286Y-13894857D01*
X14993571Y-13952000D01*
X14993571Y-14023428D01*
X14979286Y-14080571D01*
X14965000Y-14109143D01*
X14950714Y-14123428D01*
X14922143Y-14137714D01*
X14893571Y-14137714D01*
X14865000Y-14123428D01*
X14850714Y-14109143D01*
X14836428Y-14080571D01*
X14822143Y-14023428D01*
X14822143Y-13952000D01*
X14836428Y-13894857D01*
X14850714Y-13866286D01*
X14865000Y-13852000D01*
X14893571Y-13837714D01*
X15350714Y-14137714D02*
X15350714Y-13837714D01*
X15479286Y-14137714D02*
X15479286Y-13980571D01*
X15465000Y-13952000D01*
X15436428Y-13937714D01*
X15393571Y-13937714D01*
X15365000Y-13952000D01*
X15350714Y-13966286D01*
X15665000Y-14137714D02*
X15636428Y-14123428D01*
X15622143Y-14109143D01*
X15607857Y-14080571D01*
X15607857Y-13994857D01*
X15622143Y-13966286D01*
X15636428Y-13952000D01*
X15665000Y-13937714D01*
X15707857Y-13937714D01*
X15736428Y-13952000D01*
X15750714Y-13966286D01*
X15765000Y-13994857D01*
X15765000Y-14080571D01*
X15750714Y-14109143D01*
X15736428Y-14123428D01*
X15707857Y-14137714D01*
X15665000Y-14137714D01*
X15936428Y-14137714D02*
X15907857Y-14123428D01*
X15893571Y-14094857D01*
X15893571Y-13837714D01*
X16165000Y-14123428D02*
X16136428Y-14137714D01*
X16079286Y-14137714D01*
X16050714Y-14123428D01*
X16036428Y-14094857D01*
X16036428Y-13980571D01*
X16050714Y-13952000D01*
X16079286Y-13937714D01*
X16136428Y-13937714D01*
X16165000Y-13952000D01*
X16179286Y-13980571D01*
X16179286Y-14009143D01*
X16036428Y-14037714D01*
X16293571Y-14123428D02*
X16322143Y-14137714D01*
X16379286Y-14137714D01*
X16407857Y-14123428D01*
X16422143Y-14094857D01*
X16422143Y-14080571D01*
X16407857Y-14052000D01*
X16379286Y-14037714D01*
X16336428Y-14037714D01*
X16307857Y-14023428D01*
X16293571Y-13994857D01*
X16293571Y-13980571D01*
X16307857Y-13952000D01*
X16336428Y-13937714D01*
X16379286Y-13937714D01*
X16407857Y-13952000D01*
X16522143Y-14252000D02*
X16536428Y-14237714D01*
X16565000Y-14194857D01*
X16579286Y-14166286D01*
X16593571Y-14123428D01*
X16607857Y-14052000D01*
X16607857Y-13994857D01*
X16593571Y-13923428D01*
X16579286Y-13880571D01*
X16565000Y-13852000D01*
X16536428Y-13809143D01*
X16522143Y-13794857D01*
X9729498Y-14447498D02*
X9729498Y-14348502D01*
X9630502Y-14348502D01*
X9630502Y-14447498D01*
X9729498Y-14447498D01*
X10193571Y-14533714D02*
X10022143Y-14533714D01*
X10107857Y-14533714D02*
X10107857Y-14233714D01*
X10079286Y-14276571D01*
X10050714Y-14305143D01*
X10022143Y-14319428D01*
X10322143Y-14505143D02*
X10336429Y-14519428D01*
X10322143Y-14533714D01*
X10307857Y-14519428D01*
X10322143Y-14505143D01*
X10322143Y-14533714D01*
X10593571Y-14333714D02*
X10593571Y-14533714D01*
X10522143Y-14219428D02*
X10450714Y-14433714D01*
X10636429Y-14433714D01*
X10807857Y-14233714D02*
X10836429Y-14233714D01*
X10865000Y-14248000D01*
X10879286Y-14262286D01*
X10893571Y-14290857D01*
X10907857Y-14348000D01*
X10907857Y-14419428D01*
X10893571Y-14476571D01*
X10879286Y-14505143D01*
X10865000Y-14519428D01*
X10836429Y-14533714D01*
X10807857Y-14533714D01*
X10779286Y-14519428D01*
X10765000Y-14505143D01*
X10750714Y-14476571D01*
X10736429Y-14419428D01*
X10736429Y-14348000D01*
X10750714Y-14290857D01*
X10765000Y-14262286D01*
X10779286Y-14248000D01*
X10807857Y-14233714D01*
X11036429Y-14533714D02*
X11036429Y-14333714D01*
X11036429Y-14362286D02*
X11050714Y-14348000D01*
X11079286Y-14333714D01*
X11122143Y-14333714D01*
X11150714Y-14348000D01*
X11165000Y-14376571D01*
X11165000Y-14533714D01*
X11165000Y-14376571D02*
X11179286Y-14348000D01*
X11207857Y-14333714D01*
X11250714Y-14333714D01*
X11279286Y-14348000D01*
X11293571Y-14376571D01*
X11293571Y-14533714D01*
X11436428Y-14533714D02*
X11436428Y-14333714D01*
X11436428Y-14362286D02*
X11450714Y-14348000D01*
X11479286Y-14333714D01*
X11522143Y-14333714D01*
X11550714Y-14348000D01*
X11565000Y-14376571D01*
X11565000Y-14533714D01*
X11565000Y-14376571D02*
X11579286Y-14348000D01*
X11607857Y-14333714D01*
X11650714Y-14333714D01*
X11679286Y-14348000D01*
X11693571Y-14376571D01*
X11693571Y-14533714D01*
X12279286Y-14219428D02*
X12022143Y-14605143D01*
X12665000Y-14233714D02*
X12693571Y-14233714D01*
X12722143Y-14248000D01*
X12736428Y-14262286D01*
X12750714Y-14290857D01*
X12765000Y-14348000D01*
X12765000Y-14419428D01*
X12750714Y-14476571D01*
X12736428Y-14505143D01*
X12722143Y-14519428D01*
X12693571Y-14533714D01*
X12665000Y-14533714D01*
X12636428Y-14519428D01*
X12622143Y-14505143D01*
X12607857Y-14476571D01*
X12593571Y-14419428D01*
X12593571Y-14348000D01*
X12607857Y-14290857D01*
X12622143Y-14262286D01*
X12636428Y-14248000D01*
X12665000Y-14233714D01*
X12893571Y-14505143D02*
X12907857Y-14519428D01*
X12893571Y-14533714D01*
X12879286Y-14519428D01*
X12893571Y-14505143D01*
X12893571Y-14533714D01*
X13093571Y-14233714D02*
X13122143Y-14233714D01*
X13150714Y-14248000D01*
X13165000Y-14262286D01*
X13179286Y-14290857D01*
X13193571Y-14348000D01*
X13193571Y-14419428D01*
X13179286Y-14476571D01*
X13165000Y-14505143D01*
X13150714Y-14519428D01*
X13122143Y-14533714D01*
X13093571Y-14533714D01*
X13065000Y-14519428D01*
X13050714Y-14505143D01*
X13036428Y-14476571D01*
X13022143Y-14419428D01*
X13022143Y-14348000D01*
X13036428Y-14290857D01*
X13050714Y-14262286D01*
X13065000Y-14248000D01*
X13093571Y-14233714D01*
X13465000Y-14233714D02*
X13322143Y-14233714D01*
X13307857Y-14376571D01*
X13322143Y-14362286D01*
X13350714Y-14348000D01*
X13422143Y-14348000D01*
X13450714Y-14362286D01*
X13465000Y-14376571D01*
X13479286Y-14405143D01*
X13479286Y-14476571D01*
X13465000Y-14505143D01*
X13450714Y-14519428D01*
X13422143Y-14533714D01*
X13350714Y-14533714D01*
X13322143Y-14519428D01*
X13307857Y-14505143D01*
X13750714Y-14233714D02*
X13607857Y-14233714D01*
X13593571Y-14376571D01*
X13607857Y-14362286D01*
X13636428Y-14348000D01*
X13707857Y-14348000D01*
X13736428Y-14362286D01*
X13750714Y-14376571D01*
X13765000Y-14405143D01*
X13765000Y-14476571D01*
X13750714Y-14505143D01*
X13736428Y-14519428D01*
X13707857Y-14533714D01*
X13636428Y-14533714D01*
X13607857Y-14519428D01*
X13593571Y-14505143D01*
X13879286Y-14233714D02*
X13879286Y-14290857D01*
X13993571Y-14233714D02*
X13993571Y-14290857D01*
X14436428Y-14648000D02*
X14422143Y-14633714D01*
X14393571Y-14590857D01*
X14379286Y-14562286D01*
X14365000Y-14519428D01*
X14350714Y-14448000D01*
X14350714Y-14390857D01*
X14365000Y-14319428D01*
X14379286Y-14276571D01*
X14393571Y-14248000D01*
X14422143Y-14205143D01*
X14436428Y-14190857D01*
X14679286Y-14333714D02*
X14679286Y-14533714D01*
X14607857Y-14219428D02*
X14536428Y-14433714D01*
X14722143Y-14433714D01*
X15065000Y-14533714D02*
X15065000Y-14233714D01*
X15193571Y-14533714D02*
X15193571Y-14376571D01*
X15179286Y-14348000D01*
X15150714Y-14333714D01*
X15107857Y-14333714D01*
X15079286Y-14348000D01*
X15065000Y-14362286D01*
X15379286Y-14533714D02*
X15350714Y-14519428D01*
X15336428Y-14505143D01*
X15322143Y-14476571D01*
X15322143Y-14390857D01*
X15336428Y-14362286D01*
X15350714Y-14348000D01*
X15379286Y-14333714D01*
X15422143Y-14333714D01*
X15450714Y-14348000D01*
X15465000Y-14362286D01*
X15479286Y-14390857D01*
X15479286Y-14476571D01*
X15465000Y-14505143D01*
X15450714Y-14519428D01*
X15422143Y-14533714D01*
X15379286Y-14533714D01*
X15650714Y-14533714D02*
X15622143Y-14519428D01*
X15607857Y-14490857D01*
X15607857Y-14233714D01*
X15879286Y-14519428D02*
X15850714Y-14533714D01*
X15793571Y-14533714D01*
X15765000Y-14519428D01*
X15750714Y-14490857D01*
X15750714Y-14376571D01*
X15765000Y-14348000D01*
X15793571Y-14333714D01*
X15850714Y-14333714D01*
X15879286Y-14348000D01*
X15893571Y-14376571D01*
X15893571Y-14405143D01*
X15750714Y-14433714D01*
X16007857Y-14519428D02*
X16036428Y-14533714D01*
X16093571Y-14533714D01*
X16122143Y-14519428D01*
X16136428Y-14490857D01*
X16136428Y-14476571D01*
X16122143Y-14448000D01*
X16093571Y-14433714D01*
X16050714Y-14433714D01*
X16022143Y-14419428D01*
X16007857Y-14390857D01*
X16007857Y-14376571D01*
X16022143Y-14348000D01*
X16050714Y-14333714D01*
X16093571Y-14333714D01*
X16122143Y-14348000D01*
X16236428Y-14648000D02*
X16250714Y-14633714D01*
X16279286Y-14590857D01*
X16293571Y-14562286D01*
X16307857Y-14519428D01*
X16322143Y-14448000D01*
X16322143Y-14390857D01*
X16307857Y-14319428D01*
X16293571Y-14276571D01*
X16279286Y-14248000D01*
X16250714Y-14205143D01*
X16236428Y-14190857D01*
M02*
