%TF.GenerationSoftware,KiCad,Pcbnew,(5.99.0-12732-g288a94f5aa)*%
%TF.CreationDate,2021-10-13T17:17:12+08:00*%
%TF.ProjectId,Dual-Power,4475616c-2d50-46f7-9765-722e6b696361,rev?*%
%TF.SameCoordinates,Original*%
%TF.FileFunction,Copper,L2,Inr*%
%TF.FilePolarity,Positive*%
%FSLAX46Y46*%
G04 Gerber Fmt 4.6, Leading zero omitted, Abs format (unit mm)*
G04 Created by KiCad (PCBNEW (5.99.0-12732-g288a94f5aa)) date 2021-10-13 17:17:12*
%MOMM*%
%LPD*%
G01*
G04 APERTURE LIST*
G04 Aperture macros list*
%AMRoundRect*
0 Rectangle with rounded corners*
0 $1 Rounding radius*
0 $2 $3 $4 $5 $6 $7 $8 $9 X,Y pos of 4 corners*
0 Add a 4 corners polygon primitive as box body*
4,1,4,$2,$3,$4,$5,$6,$7,$8,$9,$2,$3,0*
0 Add four circle primitives for the rounded corners*
1,1,$1+$1,$2,$3*
1,1,$1+$1,$4,$5*
1,1,$1+$1,$6,$7*
1,1,$1+$1,$8,$9*
0 Add four rect primitives between the rounded corners*
20,1,$1+$1,$2,$3,$4,$5,0*
20,1,$1+$1,$4,$5,$6,$7,0*
20,1,$1+$1,$6,$7,$8,$9,0*
20,1,$1+$1,$8,$9,$2,$3,0*%
G04 Aperture macros list end*
%TA.AperFunction,ComponentPad*%
%ADD10RoundRect,0.250000X-0.500000X0.500000X-0.500000X-0.500000X0.500000X-0.500000X0.500000X0.500000X0*%
%TD*%
%TA.AperFunction,ComponentPad*%
%ADD11C,1.500000*%
%TD*%
%TA.AperFunction,ComponentPad*%
%ADD12RoundRect,0.250001X1.399999X-1.099999X1.399999X1.099999X-1.399999X1.099999X-1.399999X-1.099999X0*%
%TD*%
%TA.AperFunction,ComponentPad*%
%ADD13O,3.300000X2.700000*%
%TD*%
%TA.AperFunction,ViaPad*%
%ADD14C,0.500000*%
%TD*%
%TA.AperFunction,ViaPad*%
%ADD15C,0.450000*%
%TD*%
%TA.AperFunction,ViaPad*%
%ADD16C,0.550000*%
%TD*%
%TA.AperFunction,Conductor*%
%ADD17C,0.500000*%
%TD*%
%TA.AperFunction,Conductor*%
%ADD18C,0.700000*%
%TD*%
G04 APERTURE END LIST*
D10*
%TO.N,Vout1(12V)*%
%TO.C,J1*%
X163500000Y-65860000D03*
D11*
X163500000Y-68860000D03*
X163500000Y-71860000D03*
X163500000Y-74860000D03*
X163500000Y-77860000D03*
%TO.N,GND*%
X166500000Y-65860000D03*
X166500000Y-68860000D03*
X166500000Y-71860000D03*
X166500000Y-74860000D03*
X166500000Y-77860000D03*
%TD*%
D10*
%TO.N,Vout2(-12V)*%
%TO.C,J2*%
X163500000Y-96110000D03*
D11*
X163500000Y-99110000D03*
X163500000Y-102110000D03*
X163500000Y-105110000D03*
X163500000Y-108110000D03*
%TO.N,GND*%
X166500000Y-96110000D03*
X166500000Y-99110000D03*
X166500000Y-102110000D03*
X166500000Y-105110000D03*
X166500000Y-108110000D03*
%TD*%
D12*
%TO.N,VIN*%
%TO.C,J3*%
X122100000Y-70900000D03*
D13*
X122100000Y-66700000D03*
%TO.N,GND*%
X116600000Y-70900000D03*
X116600000Y-66700000D03*
%TD*%
D14*
%TO.N,GND*%
X142400000Y-86160000D03*
X143200000Y-86160000D03*
X144000000Y-86160000D03*
X141600000Y-86960000D03*
X142400000Y-86960000D03*
X143200000Y-86960000D03*
X144000000Y-86960000D03*
X141600000Y-87760000D03*
X142400000Y-87760000D03*
X143200000Y-87760000D03*
X144000000Y-87760000D03*
X141600000Y-88560000D03*
X142400000Y-88560000D03*
X143200000Y-88560000D03*
X144000000Y-88560000D03*
D15*
X169400000Y-61800000D03*
X167400000Y-60700000D03*
X169400000Y-60700000D03*
X168400000Y-60700000D03*
X165400000Y-60700000D03*
X166400000Y-60700000D03*
X165400000Y-113800000D03*
X166400000Y-113800000D03*
X169400000Y-113800000D03*
X167400000Y-113800000D03*
X168400000Y-113800000D03*
D14*
X140600000Y-89930000D03*
D15*
X117400000Y-60700000D03*
X118400000Y-60700000D03*
X119400000Y-60700000D03*
X120400000Y-60700000D03*
X121400000Y-60700000D03*
X122400000Y-60700000D03*
X123400000Y-60700000D03*
X124400000Y-60700000D03*
X125400000Y-60700000D03*
X126400000Y-60700000D03*
X127400000Y-60700000D03*
X128400000Y-60700000D03*
X129400000Y-60700000D03*
X130400000Y-60700000D03*
X131400000Y-60700000D03*
X132400000Y-60700000D03*
X133400000Y-60700000D03*
X134400000Y-60700000D03*
X135400000Y-60700000D03*
X136400000Y-60700000D03*
X137400000Y-60700000D03*
X138400000Y-60700000D03*
X139400000Y-60700000D03*
X140400000Y-60700000D03*
X141400000Y-60700000D03*
X142400000Y-60700000D03*
X143400000Y-60700000D03*
X144400000Y-60700000D03*
X145400000Y-60700000D03*
X146400000Y-60700000D03*
X147400000Y-60700000D03*
X148400000Y-60700000D03*
X149400000Y-60700000D03*
X150400000Y-60700000D03*
X151400000Y-60700000D03*
X152400000Y-60700000D03*
X153400000Y-60700000D03*
X154400000Y-60700000D03*
X155400000Y-60700000D03*
X156400000Y-60700000D03*
X157400000Y-60700000D03*
X158400000Y-60700000D03*
X159400000Y-60700000D03*
X160400000Y-60700000D03*
X161400000Y-60700000D03*
X162400000Y-60700000D03*
X163400000Y-60700000D03*
X164400000Y-60700000D03*
X142400000Y-113800000D03*
X128400000Y-113800000D03*
X144400000Y-113800000D03*
X136400000Y-113800000D03*
X134400000Y-113800000D03*
X152400000Y-113800000D03*
X119400000Y-113800000D03*
X129400000Y-113800000D03*
X124400000Y-113800000D03*
X123400000Y-113800000D03*
X118400000Y-113800000D03*
X125400000Y-113800000D03*
X117400000Y-113800000D03*
X137400000Y-113800000D03*
X138400000Y-113800000D03*
X121400000Y-113800000D03*
X141400000Y-113800000D03*
X143400000Y-113800000D03*
X146400000Y-113800000D03*
X149400000Y-113800000D03*
X120400000Y-113800000D03*
X150400000Y-113800000D03*
X151400000Y-113800000D03*
X154400000Y-113800000D03*
X155400000Y-113800000D03*
X147400000Y-113800000D03*
X158400000Y-113800000D03*
X139400000Y-113800000D03*
X159400000Y-113800000D03*
X132400000Y-113800000D03*
X160400000Y-113800000D03*
X161400000Y-113800000D03*
X145400000Y-113800000D03*
X133400000Y-113800000D03*
X130400000Y-113800000D03*
X148400000Y-113800000D03*
X153400000Y-113800000D03*
X122400000Y-113800000D03*
X126400000Y-113800000D03*
X156400000Y-113800000D03*
X157400000Y-113800000D03*
X127400000Y-113800000D03*
X135400000Y-113800000D03*
X131400000Y-113800000D03*
X140400000Y-113800000D03*
X163400000Y-113800000D03*
X164400000Y-113800000D03*
X162400000Y-113800000D03*
X169400000Y-83900000D03*
X169400000Y-72900000D03*
X169400000Y-101900000D03*
X169400000Y-96900000D03*
X169400000Y-86900000D03*
X169400000Y-100900000D03*
X169400000Y-69900000D03*
X169400000Y-91900000D03*
X169400000Y-105900000D03*
X169400000Y-73900000D03*
X169400001Y-107900000D03*
X169400000Y-95900000D03*
X169400001Y-84900000D03*
X169400001Y-103900000D03*
X169400000Y-104900000D03*
X169400000Y-74900000D03*
X169400000Y-108900000D03*
X169400000Y-81900000D03*
X169400000Y-68900000D03*
X169400000Y-88900000D03*
X169400001Y-75900000D03*
X169400000Y-97900000D03*
X169400000Y-76900000D03*
X169400000Y-90900000D03*
X169400000Y-99900000D03*
X169400000Y-67900000D03*
X169400001Y-98900000D03*
X169400000Y-63900000D03*
X169400000Y-106900000D03*
X169400001Y-66900000D03*
X169400001Y-70900000D03*
X169400001Y-93900000D03*
X169400001Y-102900000D03*
X169400001Y-94900000D03*
X169400000Y-65900000D03*
X169400001Y-71900000D03*
X169400000Y-79900000D03*
X169400000Y-85900000D03*
X169400000Y-92900000D03*
X169400001Y-80900000D03*
X169400000Y-64900000D03*
X169400000Y-77900000D03*
X169400001Y-89900000D03*
X169400001Y-112900000D03*
X169400000Y-87900000D03*
X169400000Y-111900000D03*
X169400000Y-78900000D03*
X169400000Y-110900000D03*
X169400001Y-62900000D03*
X169400000Y-109900000D03*
X169400000Y-82900000D03*
X133200000Y-94900000D03*
X132466665Y-94900000D03*
D14*
X141600000Y-86160000D03*
D15*
X138030000Y-88600000D03*
%TO.N,VIN*%
X123400000Y-84200000D03*
X123400000Y-85200000D03*
X123400000Y-86200000D03*
X123400000Y-87200000D03*
X123400000Y-88200000D03*
X123400000Y-89200000D03*
X121800000Y-86200000D03*
X121800000Y-87200000D03*
X122600000Y-88700000D03*
X121800000Y-89200000D03*
X121800000Y-84200000D03*
X121800000Y-85200000D03*
X122600000Y-89700000D03*
X122600000Y-84700000D03*
X122600000Y-86700000D03*
X122600000Y-87700000D03*
X122600000Y-85700000D03*
X121800000Y-88200000D03*
X123100000Y-73199999D03*
X121100000Y-73200000D03*
X122100000Y-73200000D03*
X121100000Y-64500000D03*
X123100000Y-64499999D03*
X122100000Y-64500000D03*
X146849982Y-87199990D03*
X135910016Y-91010014D03*
X134500002Y-80600000D03*
%TO.N,INTVcc*%
X135960000Y-86800000D03*
X138890000Y-87990000D03*
X136790000Y-95990000D03*
%TO.N,Vout2(-12V)*%
X160400000Y-96900000D03*
X157400000Y-96900000D03*
X161400000Y-96900000D03*
X158400000Y-96900000D03*
X159400000Y-96900000D03*
X158400000Y-94900000D03*
X159400000Y-95900000D03*
X158400000Y-95900000D03*
X161400000Y-94900000D03*
X159400000Y-94900000D03*
X157400000Y-95900000D03*
X157400000Y-94900000D03*
X160400000Y-95900000D03*
X161400000Y-95900000D03*
X160400000Y-94900000D03*
X160900000Y-105300000D03*
X160900000Y-106700000D03*
X160900000Y-101800000D03*
X160900000Y-108100000D03*
X160900000Y-103200000D03*
X160900000Y-107400000D03*
X160900000Y-106000000D03*
X160900000Y-104600000D03*
X160900000Y-103900000D03*
X160900000Y-102500000D03*
X143890000Y-98140000D03*
%TO.N,Net-(C23-Pad1)*%
X147600000Y-80200000D03*
%TO.N,Vout1(12V)*%
X160500000Y-65800000D03*
X160500000Y-68600000D03*
X160500000Y-67900000D03*
X160500000Y-67200000D03*
X160500000Y-66500000D03*
X160500000Y-69300000D03*
X160500000Y-70000000D03*
X160500000Y-71400000D03*
X160500000Y-70700000D03*
X160500000Y-72100000D03*
X158300000Y-76600000D03*
X159300000Y-76600000D03*
X160300000Y-76600000D03*
X161300000Y-76600000D03*
X157300000Y-77600000D03*
X158300000Y-77600000D03*
X159300000Y-77600000D03*
X160300000Y-77600000D03*
X161300000Y-77600000D03*
X157300000Y-78600000D03*
X158300000Y-78600000D03*
X159300000Y-78600000D03*
X160300000Y-78600000D03*
X161300000Y-78600000D03*
X157300000Y-76600000D03*
X155100000Y-76400000D03*
X140550000Y-84450000D03*
%TO.N,Net-(C25-Pad1)*%
X153850000Y-74630000D03*
X141220000Y-83700000D03*
%TO.N,Net-(D1-Pad2)*%
X138070000Y-86200000D03*
%TO.N,Net-(D2-Pad2)*%
X138070000Y-87410000D03*
%TO.N,Net-(Q1-Pad4)*%
X136100000Y-104400000D03*
D16*
X145490000Y-90460000D03*
D15*
%TO.N,Net-(Q1-Pad1)*%
X137990011Y-93649989D03*
X138100000Y-103200004D03*
%TO.N,Net-(Q2-Pad4)*%
X147200000Y-86100000D03*
D16*
X136900000Y-81900000D03*
D15*
%TO.N,Net-(Q3-Pad4)*%
X137000000Y-68700000D03*
X137000000Y-74400000D03*
X146150001Y-83550005D03*
%TD*%
D17*
%TO.N,VIN*%
X134500000Y-84882843D02*
X134500000Y-84600000D01*
X134700000Y-85900000D02*
X135300000Y-85300000D01*
X134800000Y-85700000D02*
X134800000Y-84851472D01*
X134500000Y-86100000D02*
X135100000Y-85500000D01*
X146531784Y-87199990D02*
X146849982Y-87199990D01*
X134700000Y-84700000D02*
X135300000Y-85300000D01*
X134500002Y-80600000D02*
X134500002Y-84500002D01*
X134500000Y-84900000D02*
X134500000Y-89599998D01*
X135300000Y-85300000D02*
X144631794Y-85300000D01*
X134500000Y-89599998D02*
X135910016Y-91010014D01*
X144631794Y-85300000D02*
X146531784Y-87199990D01*
X135100000Y-85100000D02*
X134500002Y-84500002D01*
%TO.N,INTVcc*%
X139000000Y-89600000D02*
X139600000Y-90200000D01*
X139000000Y-89600000D02*
X139600000Y-89000000D01*
X137300000Y-89600000D02*
X139420000Y-89600000D01*
X135960000Y-86800000D02*
X135960000Y-88260000D01*
D18*
X139510000Y-90230000D02*
X136790000Y-92950000D01*
X139510000Y-89510000D02*
X139510000Y-90230000D01*
D17*
X135960000Y-88260000D02*
X137300000Y-89600000D01*
D18*
X138880000Y-87990000D02*
X139510000Y-88620000D01*
X136790000Y-92950000D02*
X136790000Y-95990000D01*
X139510000Y-88620000D02*
X139510000Y-89510000D01*
D17*
X139420000Y-89600000D02*
X139510000Y-89510000D01*
D18*
%TO.N,Vout2(-12V)*%
X163500000Y-92780000D02*
X163500000Y-96110000D01*
X143890000Y-96440000D02*
X148380000Y-91950000D01*
X148380000Y-91950000D02*
X162670000Y-91950000D01*
X162670000Y-91950000D02*
X163500000Y-92780000D01*
X143890000Y-98140000D02*
X143890000Y-96440000D01*
D17*
%TO.N,Net-(Q1-Pad4)*%
X143300000Y-90460000D02*
X145490000Y-90460000D01*
X139220000Y-103900000D02*
X139220000Y-94540000D01*
X138720000Y-104400000D02*
X139220000Y-103900000D01*
X139220000Y-94540000D02*
X143300000Y-90460000D01*
X136100000Y-104400000D02*
X138720000Y-104400000D01*
%TO.N,Net-(Q1-Pad1)*%
X137980000Y-103080004D02*
X137980000Y-93660000D01*
X138100000Y-103200004D02*
X137980000Y-103080004D01*
X137980000Y-93660000D02*
X137990011Y-93649989D01*
D18*
%TO.N,Net-(Q2-Pad4)*%
X137100000Y-81700000D02*
X136900000Y-81900000D01*
X142700000Y-81700000D02*
X137100000Y-81700000D01*
X142700000Y-81700000D02*
X147100000Y-86100000D01*
X147100000Y-86100000D02*
X147200000Y-86100000D01*
%TO.N,Net-(Q3-Pad4)*%
X146150001Y-83550001D02*
X146150001Y-83550005D01*
X137000000Y-68700000D02*
X137000000Y-74400000D01*
X137000000Y-74400000D02*
X146150001Y-83550001D01*
%TD*%
%TA.AperFunction,Conductor*%
%TO.N,GND*%
G36*
X169131133Y-59810925D02*
G01*
X169215545Y-59848916D01*
X169228804Y-59855874D01*
X169443324Y-59985555D01*
X169455647Y-59994061D01*
X169652968Y-60148652D01*
X169664176Y-60158582D01*
X169841418Y-60335824D01*
X169851348Y-60347032D01*
X170005939Y-60544353D01*
X170014445Y-60556676D01*
X170144126Y-60771196D01*
X170151084Y-60784455D01*
X170189075Y-60868867D01*
X170200000Y-60919758D01*
X170200000Y-113580242D01*
X170189075Y-113631133D01*
X170151084Y-113715545D01*
X170144126Y-113728804D01*
X170014445Y-113943324D01*
X170005941Y-113955644D01*
X169889600Y-114104143D01*
X169851348Y-114152968D01*
X169841418Y-114164176D01*
X169664176Y-114341418D01*
X169652968Y-114351348D01*
X169455647Y-114505939D01*
X169443324Y-114514445D01*
X169228804Y-114644126D01*
X169215545Y-114651084D01*
X169131133Y-114689075D01*
X169080242Y-114700000D01*
X113919758Y-114700000D01*
X113868867Y-114689075D01*
X113784455Y-114651084D01*
X113771196Y-114644126D01*
X113556676Y-114514445D01*
X113544353Y-114505939D01*
X113347032Y-114351348D01*
X113335824Y-114341418D01*
X113158582Y-114164176D01*
X113148652Y-114152968D01*
X113110400Y-114104143D01*
X112994059Y-113955644D01*
X112985555Y-113943324D01*
X112855874Y-113728804D01*
X112848916Y-113715545D01*
X112810925Y-113631133D01*
X112800000Y-113580242D01*
X112800000Y-112865665D01*
X113395119Y-112865665D01*
X113395412Y-112870747D01*
X113395412Y-112870748D01*
X113400857Y-112965181D01*
X113408376Y-113095580D01*
X113459006Y-113320242D01*
X113545649Y-113533618D01*
X113548311Y-113537962D01*
X113663317Y-113725635D01*
X113663321Y-113725640D01*
X113665979Y-113729978D01*
X113669311Y-113733824D01*
X113669312Y-113733826D01*
X113739108Y-113814400D01*
X113816763Y-113904048D01*
X113820673Y-113907294D01*
X113820677Y-113907298D01*
X113900253Y-113973363D01*
X113993953Y-114051154D01*
X114093516Y-114109334D01*
X114178287Y-114158870D01*
X114192790Y-114167345D01*
X114197543Y-114169160D01*
X114197545Y-114169161D01*
X114265584Y-114195142D01*
X114407934Y-114249501D01*
X114412920Y-114250515D01*
X114412922Y-114250516D01*
X114483822Y-114264940D01*
X114633607Y-114295414D01*
X114783235Y-114300901D01*
X114858670Y-114303667D01*
X114858673Y-114303667D01*
X114863749Y-114303853D01*
X115092178Y-114274591D01*
X115097048Y-114273130D01*
X115307892Y-114209874D01*
X115307895Y-114209873D01*
X115312761Y-114208413D01*
X115317324Y-114206177D01*
X115317328Y-114206176D01*
X115425938Y-114152968D01*
X115519574Y-114107096D01*
X115707062Y-113973363D01*
X115870190Y-113810803D01*
X116004577Y-113623783D01*
X116106615Y-113417325D01*
X116173563Y-113196975D01*
X116203622Y-112968649D01*
X116205300Y-112900000D01*
X116186430Y-112670478D01*
X116130326Y-112447120D01*
X116038496Y-112235924D01*
X116035736Y-112231658D01*
X116035733Y-112231652D01*
X115916167Y-112046832D01*
X115916165Y-112046830D01*
X115913405Y-112042563D01*
X115758412Y-111872229D01*
X115754427Y-111869082D01*
X115754424Y-111869079D01*
X115581672Y-111732648D01*
X115581673Y-111732648D01*
X115577681Y-111729496D01*
X115573235Y-111727042D01*
X115573231Y-111727039D01*
X115380520Y-111620657D01*
X115380517Y-111620656D01*
X115376065Y-111618198D01*
X115158978Y-111541323D01*
X115104575Y-111531632D01*
X114937260Y-111501829D01*
X114937255Y-111501829D01*
X114932250Y-111500937D01*
X114841875Y-111499833D01*
X114707061Y-111498185D01*
X114707059Y-111498185D01*
X114701971Y-111498123D01*
X114696942Y-111498893D01*
X114696936Y-111498893D01*
X114566950Y-111518784D01*
X114474325Y-111532958D01*
X114255424Y-111604506D01*
X114250910Y-111606856D01*
X114055664Y-111708494D01*
X114055658Y-111708498D01*
X114051149Y-111710845D01*
X114026308Y-111729496D01*
X113874315Y-111843615D01*
X113866984Y-111849119D01*
X113863469Y-111852798D01*
X113863466Y-111852800D01*
X113804256Y-111914760D01*
X113707877Y-112015616D01*
X113705013Y-112019815D01*
X113705011Y-112019817D01*
X113689495Y-112042563D01*
X113578099Y-112205863D01*
X113481136Y-112414752D01*
X113479774Y-112419662D01*
X113479774Y-112419663D01*
X113472160Y-112447120D01*
X113419592Y-112636673D01*
X113395119Y-112865665D01*
X112800000Y-112865665D01*
X112800000Y-111098753D01*
X166634514Y-111098753D01*
X166652039Y-111277486D01*
X166708726Y-111447896D01*
X166712319Y-111453829D01*
X166712320Y-111453831D01*
X166741389Y-111501829D01*
X166801759Y-111601512D01*
X166926514Y-111730699D01*
X166932308Y-111734490D01*
X166932311Y-111734493D01*
X167028213Y-111797249D01*
X167076789Y-111829036D01*
X167245116Y-111891636D01*
X167423130Y-111915388D01*
X167430031Y-111914760D01*
X167430033Y-111914760D01*
X167537744Y-111904958D01*
X167601981Y-111899112D01*
X167772782Y-111843615D01*
X167927044Y-111751657D01*
X167945068Y-111734493D01*
X168052080Y-111632587D01*
X168052082Y-111632585D01*
X168057099Y-111627807D01*
X168141391Y-111500937D01*
X168152645Y-111483999D01*
X168152646Y-111483997D01*
X168156483Y-111478222D01*
X168220257Y-111310336D01*
X168245251Y-111132493D01*
X168245565Y-111110000D01*
X168225546Y-110931528D01*
X168166485Y-110761927D01*
X168071316Y-110609625D01*
X167944770Y-110482193D01*
X167793136Y-110385963D01*
X167773219Y-110378871D01*
X167630479Y-110328043D01*
X167630475Y-110328042D01*
X167623951Y-110325719D01*
X167445624Y-110304455D01*
X167438735Y-110305179D01*
X167438732Y-110305179D01*
X167273913Y-110322502D01*
X167273911Y-110322502D01*
X167267017Y-110323227D01*
X167260456Y-110325461D01*
X167260454Y-110325461D01*
X167173718Y-110354989D01*
X167097007Y-110381103D01*
X166944045Y-110475206D01*
X166815732Y-110600859D01*
X166718446Y-110751817D01*
X166657022Y-110920578D01*
X166634514Y-111098753D01*
X112800000Y-111098753D01*
X112800000Y-108100000D01*
X160369965Y-108100000D01*
X160388026Y-108237183D01*
X160391137Y-108244694D01*
X160391138Y-108244697D01*
X160426046Y-108328973D01*
X160440976Y-108365017D01*
X160525209Y-108474791D01*
X160634982Y-108559024D01*
X160642490Y-108562134D01*
X160642492Y-108562135D01*
X160678980Y-108577248D01*
X160762817Y-108611974D01*
X160900000Y-108630035D01*
X161037183Y-108611974D01*
X161121020Y-108577248D01*
X161157508Y-108562135D01*
X161157510Y-108562134D01*
X161165018Y-108559024D01*
X161274791Y-108474791D01*
X161359024Y-108365017D01*
X161373954Y-108328973D01*
X161408862Y-108244697D01*
X161408863Y-108244694D01*
X161411974Y-108237183D01*
X161430035Y-108100000D01*
X161429411Y-108095262D01*
X162444520Y-108095262D01*
X162461759Y-108300553D01*
X162518544Y-108498586D01*
X162612712Y-108681818D01*
X162616480Y-108686572D01*
X162645402Y-108723062D01*
X162740677Y-108843270D01*
X162745296Y-108847201D01*
X162892950Y-108972865D01*
X162892955Y-108972869D01*
X162897564Y-108976791D01*
X163077398Y-109077297D01*
X163273329Y-109140959D01*
X163279347Y-109141677D01*
X163279349Y-109141677D01*
X163421410Y-109158616D01*
X163477894Y-109165351D01*
X163483938Y-109164886D01*
X163483939Y-109164886D01*
X163545266Y-109160167D01*
X163683300Y-109149546D01*
X163768596Y-109125731D01*
X163875885Y-109095776D01*
X163875889Y-109095774D01*
X163881725Y-109094145D01*
X164065610Y-109001258D01*
X164227951Y-108874424D01*
X164231907Y-108869840D01*
X164231911Y-108869837D01*
X164358602Y-108723062D01*
X164362564Y-108718472D01*
X164383387Y-108681818D01*
X164461327Y-108544618D01*
X164464323Y-108539344D01*
X164529351Y-108343863D01*
X164534823Y-108300553D01*
X164554736Y-108142919D01*
X164554736Y-108142915D01*
X164555171Y-108139474D01*
X164555583Y-108110000D01*
X164553547Y-108089232D01*
X164536072Y-107911006D01*
X164536072Y-107911004D01*
X164535480Y-107904970D01*
X164475935Y-107707749D01*
X164389240Y-107544697D01*
X164382065Y-107531203D01*
X164382064Y-107531201D01*
X164379218Y-107525849D01*
X164249011Y-107366200D01*
X164090275Y-107234882D01*
X163999665Y-107185889D01*
X163914393Y-107139783D01*
X163914391Y-107139782D01*
X163909055Y-107136897D01*
X163899991Y-107134091D01*
X163718046Y-107077770D01*
X163718047Y-107077770D01*
X163712254Y-107075977D01*
X163507369Y-107054443D01*
X163501336Y-107054992D01*
X163501332Y-107054992D01*
X163375721Y-107066424D01*
X163302203Y-107073114D01*
X163296390Y-107074825D01*
X163296389Y-107074825D01*
X163110392Y-107129567D01*
X163104572Y-107131280D01*
X163083122Y-107142494D01*
X162927374Y-107223917D01*
X162927370Y-107223920D01*
X162922002Y-107226726D01*
X162917279Y-107230523D01*
X162917278Y-107230524D01*
X162877114Y-107262817D01*
X162761447Y-107355815D01*
X162629024Y-107513630D01*
X162529776Y-107694162D01*
X162467484Y-107890532D01*
X162444520Y-108095262D01*
X161429411Y-108095262D01*
X161411974Y-107962817D01*
X161390514Y-107911006D01*
X161362135Y-107842494D01*
X161359024Y-107834983D01*
X161354075Y-107828533D01*
X161354073Y-107828530D01*
X161351740Y-107825489D01*
X161350568Y-107822458D01*
X161350011Y-107821493D01*
X161350161Y-107821406D01*
X161326543Y-107760321D01*
X161340580Y-107691876D01*
X161351740Y-107674511D01*
X161354073Y-107671470D01*
X161354075Y-107671467D01*
X161359024Y-107665017D01*
X161411974Y-107537183D01*
X161430035Y-107400000D01*
X161411974Y-107262817D01*
X161359024Y-107134983D01*
X161354075Y-107128533D01*
X161354073Y-107128530D01*
X161351740Y-107125489D01*
X161350568Y-107122458D01*
X161350011Y-107121493D01*
X161350161Y-107121406D01*
X161326543Y-107060321D01*
X161340580Y-106991876D01*
X161351740Y-106974511D01*
X161354073Y-106971470D01*
X161354075Y-106971467D01*
X161359024Y-106965017D01*
X161411974Y-106837183D01*
X161430035Y-106700000D01*
X161411974Y-106562817D01*
X161359024Y-106434983D01*
X161354075Y-106428533D01*
X161354073Y-106428530D01*
X161351740Y-106425489D01*
X161350568Y-106422458D01*
X161350011Y-106421493D01*
X161350161Y-106421406D01*
X161326543Y-106360321D01*
X161340580Y-106291876D01*
X161351740Y-106274511D01*
X161354073Y-106271470D01*
X161354075Y-106271467D01*
X161359024Y-106265017D01*
X161411974Y-106137183D01*
X161430035Y-106000000D01*
X161411974Y-105862817D01*
X161403878Y-105843270D01*
X161362135Y-105742494D01*
X161359024Y-105734983D01*
X161354075Y-105728533D01*
X161354073Y-105728530D01*
X161351740Y-105725489D01*
X161350568Y-105722458D01*
X161350011Y-105721493D01*
X161350161Y-105721406D01*
X161326543Y-105660321D01*
X161340580Y-105591876D01*
X161351740Y-105574511D01*
X161354073Y-105571470D01*
X161354075Y-105571467D01*
X161359024Y-105565017D01*
X161411974Y-105437183D01*
X161430035Y-105300000D01*
X161411974Y-105162817D01*
X161400869Y-105136005D01*
X161383992Y-105095262D01*
X162444520Y-105095262D01*
X162461759Y-105300553D01*
X162518544Y-105498586D01*
X162612712Y-105681818D01*
X162616480Y-105686572D01*
X162645402Y-105723062D01*
X162740677Y-105843270D01*
X162745296Y-105847201D01*
X162892950Y-105972865D01*
X162892955Y-105972869D01*
X162897564Y-105976791D01*
X163077398Y-106077297D01*
X163222785Y-106124536D01*
X163261708Y-106137183D01*
X163273329Y-106140959D01*
X163279347Y-106141677D01*
X163279349Y-106141677D01*
X163421410Y-106158616D01*
X163477894Y-106165351D01*
X163483938Y-106164886D01*
X163483939Y-106164886D01*
X163545266Y-106160167D01*
X163683300Y-106149546D01*
X163768596Y-106125731D01*
X163875885Y-106095776D01*
X163875889Y-106095774D01*
X163881725Y-106094145D01*
X164065610Y-106001258D01*
X164227951Y-105874424D01*
X164231907Y-105869840D01*
X164231911Y-105869837D01*
X164358602Y-105723062D01*
X164362564Y-105718472D01*
X164368443Y-105708124D01*
X164461327Y-105544618D01*
X164464323Y-105539344D01*
X164529351Y-105343863D01*
X164534823Y-105300553D01*
X164554736Y-105142919D01*
X164554736Y-105142915D01*
X164555171Y-105139474D01*
X164555583Y-105110000D01*
X164546905Y-105021493D01*
X164536072Y-104911006D01*
X164536072Y-104911004D01*
X164535480Y-104904970D01*
X164532453Y-104894943D01*
X164477688Y-104713555D01*
X164475935Y-104707749D01*
X164379218Y-104525849D01*
X164249011Y-104366200D01*
X164231864Y-104352015D01*
X164094946Y-104238746D01*
X164094945Y-104238745D01*
X164090275Y-104234882D01*
X163947171Y-104157506D01*
X163914393Y-104139783D01*
X163914391Y-104139782D01*
X163909055Y-104136897D01*
X163899991Y-104134091D01*
X163718046Y-104077770D01*
X163718047Y-104077770D01*
X163712254Y-104075977D01*
X163507369Y-104054443D01*
X163501336Y-104054992D01*
X163501332Y-104054992D01*
X163375721Y-104066424D01*
X163302203Y-104073114D01*
X163296390Y-104074825D01*
X163296389Y-104074825D01*
X163122464Y-104126014D01*
X163104572Y-104131280D01*
X163054407Y-104157506D01*
X162927374Y-104223917D01*
X162927370Y-104223920D01*
X162922002Y-104226726D01*
X162917279Y-104230523D01*
X162917278Y-104230524D01*
X162860077Y-104276515D01*
X162761447Y-104355815D01*
X162629024Y-104513630D01*
X162529776Y-104694162D01*
X162527942Y-104699944D01*
X162527941Y-104699946D01*
X162471271Y-104878594D01*
X162467484Y-104890532D01*
X162444520Y-105095262D01*
X161383992Y-105095262D01*
X161362135Y-105042494D01*
X161359024Y-105034983D01*
X161354075Y-105028533D01*
X161354073Y-105028530D01*
X161351740Y-105025489D01*
X161350568Y-105022458D01*
X161350011Y-105021493D01*
X161350161Y-105021406D01*
X161326543Y-104960321D01*
X161340580Y-104891876D01*
X161351740Y-104874511D01*
X161354073Y-104871470D01*
X161354075Y-104871467D01*
X161359024Y-104865017D01*
X161400487Y-104764916D01*
X161408862Y-104744697D01*
X161408863Y-104744694D01*
X161411974Y-104737183D01*
X161430035Y-104600000D01*
X161411974Y-104462817D01*
X161359024Y-104334983D01*
X161354075Y-104328533D01*
X161354073Y-104328530D01*
X161351740Y-104325489D01*
X161350568Y-104322458D01*
X161350011Y-104321493D01*
X161350161Y-104321406D01*
X161326543Y-104260321D01*
X161340580Y-104191876D01*
X161351740Y-104174511D01*
X161354073Y-104171470D01*
X161354075Y-104171467D01*
X161359024Y-104165017D01*
X161394850Y-104078524D01*
X161408862Y-104044697D01*
X161408863Y-104044694D01*
X161411974Y-104037183D01*
X161430035Y-103900000D01*
X161411974Y-103762817D01*
X161398486Y-103730252D01*
X161362135Y-103642494D01*
X161359024Y-103634983D01*
X161354075Y-103628533D01*
X161354073Y-103628530D01*
X161351740Y-103625489D01*
X161350568Y-103622458D01*
X161350011Y-103621493D01*
X161350161Y-103621406D01*
X161326543Y-103560321D01*
X161340580Y-103491876D01*
X161351740Y-103474511D01*
X161354073Y-103471470D01*
X161354075Y-103471467D01*
X161359024Y-103465017D01*
X161390810Y-103388279D01*
X161408862Y-103344697D01*
X161408863Y-103344694D01*
X161411974Y-103337183D01*
X161430035Y-103200000D01*
X161411974Y-103062817D01*
X161359024Y-102934983D01*
X161354075Y-102928533D01*
X161354073Y-102928530D01*
X161351740Y-102925489D01*
X161350568Y-102922458D01*
X161350011Y-102921493D01*
X161350161Y-102921406D01*
X161326543Y-102860321D01*
X161340580Y-102791876D01*
X161351740Y-102774511D01*
X161354073Y-102771470D01*
X161354075Y-102771467D01*
X161359024Y-102765017D01*
X161411974Y-102637183D01*
X161430035Y-102500000D01*
X161411974Y-102362817D01*
X161401633Y-102337850D01*
X161362135Y-102242494D01*
X161359024Y-102234983D01*
X161354075Y-102228533D01*
X161354073Y-102228530D01*
X161351740Y-102225489D01*
X161350568Y-102222458D01*
X161350011Y-102221493D01*
X161350161Y-102221406D01*
X161326543Y-102160321D01*
X161339886Y-102095262D01*
X162444520Y-102095262D01*
X162461759Y-102300553D01*
X162518544Y-102498586D01*
X162612712Y-102681818D01*
X162616480Y-102686572D01*
X162689416Y-102778594D01*
X162740677Y-102843270D01*
X162745296Y-102847201D01*
X162892950Y-102972865D01*
X162892955Y-102972869D01*
X162897564Y-102976791D01*
X163077398Y-103077297D01*
X163273329Y-103140959D01*
X163279347Y-103141677D01*
X163279349Y-103141677D01*
X163421410Y-103158616D01*
X163477894Y-103165351D01*
X163483938Y-103164886D01*
X163483939Y-103164886D01*
X163545266Y-103160167D01*
X163683300Y-103149546D01*
X163775333Y-103123850D01*
X163875885Y-103095776D01*
X163875889Y-103095774D01*
X163881725Y-103094145D01*
X164065610Y-103001258D01*
X164227951Y-102874424D01*
X164231907Y-102869840D01*
X164231911Y-102869837D01*
X164358602Y-102723062D01*
X164362564Y-102718472D01*
X164383387Y-102681818D01*
X164461327Y-102544618D01*
X164464323Y-102539344D01*
X164523046Y-102362817D01*
X164527439Y-102349611D01*
X164527439Y-102349610D01*
X164529351Y-102343863D01*
X164534823Y-102300553D01*
X164554736Y-102142919D01*
X164554736Y-102142915D01*
X164555171Y-102139474D01*
X164555583Y-102110000D01*
X164551805Y-102071470D01*
X164536072Y-101911006D01*
X164536072Y-101911004D01*
X164535480Y-101904970D01*
X164475935Y-101707749D01*
X164379218Y-101525849D01*
X164249011Y-101366200D01*
X164224503Y-101345925D01*
X164094946Y-101238746D01*
X164094945Y-101238745D01*
X164090275Y-101234882D01*
X163909055Y-101136897D01*
X163899991Y-101134091D01*
X163718046Y-101077770D01*
X163718047Y-101077770D01*
X163712254Y-101075977D01*
X163507369Y-101054443D01*
X163501336Y-101054992D01*
X163501332Y-101054992D01*
X163375721Y-101066424D01*
X163302203Y-101073114D01*
X163296390Y-101074825D01*
X163296389Y-101074825D01*
X163292475Y-101075977D01*
X163104572Y-101131280D01*
X163020819Y-101175065D01*
X162927374Y-101223917D01*
X162927370Y-101223920D01*
X162922002Y-101226726D01*
X162917279Y-101230523D01*
X162917278Y-101230524D01*
X162773748Y-101345925D01*
X162761447Y-101355815D01*
X162629024Y-101513630D01*
X162529776Y-101694162D01*
X162467484Y-101890532D01*
X162463156Y-101929120D01*
X162446390Y-102078594D01*
X162444520Y-102095262D01*
X161339886Y-102095262D01*
X161340580Y-102091876D01*
X161351740Y-102074511D01*
X161354073Y-102071470D01*
X161354075Y-102071467D01*
X161359024Y-102065017D01*
X161411974Y-101937183D01*
X161430035Y-101800000D01*
X161411974Y-101662817D01*
X161359024Y-101534983D01*
X161274791Y-101425209D01*
X161165018Y-101340976D01*
X161157510Y-101337866D01*
X161157508Y-101337865D01*
X161121020Y-101322752D01*
X161037183Y-101288026D01*
X160900000Y-101269965D01*
X160762817Y-101288026D01*
X160755306Y-101291137D01*
X160755303Y-101291138D01*
X160755301Y-101291139D01*
X160634983Y-101340976D01*
X160525209Y-101425209D01*
X160440976Y-101534983D01*
X160388026Y-101662817D01*
X160369965Y-101800000D01*
X160388026Y-101937183D01*
X160440976Y-102065017D01*
X160445925Y-102071467D01*
X160445927Y-102071470D01*
X160448260Y-102074511D01*
X160449432Y-102077542D01*
X160449989Y-102078507D01*
X160449839Y-102078594D01*
X160473457Y-102139679D01*
X160459420Y-102208124D01*
X160448260Y-102225489D01*
X160445927Y-102228530D01*
X160445925Y-102228533D01*
X160440976Y-102234983D01*
X160437865Y-102242494D01*
X160398368Y-102337850D01*
X160388026Y-102362817D01*
X160369965Y-102500000D01*
X160388026Y-102637183D01*
X160440976Y-102765017D01*
X160445925Y-102771467D01*
X160445927Y-102771470D01*
X160448260Y-102774511D01*
X160449432Y-102777542D01*
X160449989Y-102778507D01*
X160449839Y-102778594D01*
X160473457Y-102839679D01*
X160459420Y-102908124D01*
X160448260Y-102925489D01*
X160445927Y-102928530D01*
X160445925Y-102928533D01*
X160440976Y-102934983D01*
X160388026Y-103062817D01*
X160369965Y-103200000D01*
X160388026Y-103337183D01*
X160391137Y-103344694D01*
X160391138Y-103344697D01*
X160409190Y-103388279D01*
X160440976Y-103465017D01*
X160445925Y-103471467D01*
X160445927Y-103471470D01*
X160448260Y-103474511D01*
X160449432Y-103477542D01*
X160449989Y-103478507D01*
X160449839Y-103478594D01*
X160473457Y-103539679D01*
X160459420Y-103608124D01*
X160448260Y-103625489D01*
X160445927Y-103628530D01*
X160445925Y-103628533D01*
X160440976Y-103634983D01*
X160437865Y-103642494D01*
X160401515Y-103730252D01*
X160388026Y-103762817D01*
X160369965Y-103900000D01*
X160388026Y-104037183D01*
X160391137Y-104044694D01*
X160391138Y-104044697D01*
X160405150Y-104078524D01*
X160440976Y-104165017D01*
X160445925Y-104171467D01*
X160445927Y-104171470D01*
X160448260Y-104174511D01*
X160449432Y-104177542D01*
X160449989Y-104178507D01*
X160449839Y-104178594D01*
X160473457Y-104239679D01*
X160459420Y-104308124D01*
X160448260Y-104325489D01*
X160445927Y-104328530D01*
X160445925Y-104328533D01*
X160440976Y-104334983D01*
X160388026Y-104462817D01*
X160369965Y-104600000D01*
X160388026Y-104737183D01*
X160391137Y-104744694D01*
X160391138Y-104744697D01*
X160399513Y-104764916D01*
X160440976Y-104865017D01*
X160445925Y-104871467D01*
X160445927Y-104871470D01*
X160448260Y-104874511D01*
X160449432Y-104877542D01*
X160449989Y-104878507D01*
X160449839Y-104878594D01*
X160473457Y-104939679D01*
X160459420Y-105008124D01*
X160448260Y-105025489D01*
X160445927Y-105028530D01*
X160445925Y-105028533D01*
X160440976Y-105034983D01*
X160437865Y-105042494D01*
X160399132Y-105136005D01*
X160388026Y-105162817D01*
X160369965Y-105300000D01*
X160388026Y-105437183D01*
X160440976Y-105565017D01*
X160445925Y-105571467D01*
X160445927Y-105571470D01*
X160448260Y-105574511D01*
X160449432Y-105577542D01*
X160449989Y-105578507D01*
X160449839Y-105578594D01*
X160473457Y-105639679D01*
X160459420Y-105708124D01*
X160448260Y-105725489D01*
X160445927Y-105728530D01*
X160445925Y-105728533D01*
X160440976Y-105734983D01*
X160437865Y-105742494D01*
X160396123Y-105843270D01*
X160388026Y-105862817D01*
X160369965Y-106000000D01*
X160388026Y-106137183D01*
X160440976Y-106265017D01*
X160445925Y-106271467D01*
X160445927Y-106271470D01*
X160448260Y-106274511D01*
X160449432Y-106277542D01*
X160449989Y-106278507D01*
X160449839Y-106278594D01*
X160473457Y-106339679D01*
X160459420Y-106408124D01*
X160448260Y-106425489D01*
X160445927Y-106428530D01*
X160445925Y-106428533D01*
X160440976Y-106434983D01*
X160388026Y-106562817D01*
X160369965Y-106700000D01*
X160388026Y-106837183D01*
X160440976Y-106965017D01*
X160445925Y-106971467D01*
X160445927Y-106971470D01*
X160448260Y-106974511D01*
X160449432Y-106977542D01*
X160449989Y-106978507D01*
X160449839Y-106978594D01*
X160473457Y-107039679D01*
X160459420Y-107108124D01*
X160448260Y-107125489D01*
X160445927Y-107128530D01*
X160445925Y-107128533D01*
X160440976Y-107134983D01*
X160388026Y-107262817D01*
X160369965Y-107400000D01*
X160388026Y-107537183D01*
X160440976Y-107665017D01*
X160445925Y-107671467D01*
X160445927Y-107671470D01*
X160448260Y-107674511D01*
X160449432Y-107677542D01*
X160449989Y-107678507D01*
X160449839Y-107678594D01*
X160473457Y-107739679D01*
X160459420Y-107808124D01*
X160448260Y-107825489D01*
X160445927Y-107828530D01*
X160445925Y-107828533D01*
X160440976Y-107834983D01*
X160437865Y-107842494D01*
X160409487Y-107911006D01*
X160388026Y-107962817D01*
X160369965Y-108100000D01*
X112800000Y-108100000D01*
X112800000Y-89200000D01*
X121269965Y-89200000D01*
X121288026Y-89337183D01*
X121291137Y-89344694D01*
X121291138Y-89344697D01*
X121317480Y-89408293D01*
X121340976Y-89465017D01*
X121425209Y-89574791D01*
X121534982Y-89659024D01*
X121542490Y-89662134D01*
X121542492Y-89662135D01*
X121578980Y-89677248D01*
X121662817Y-89711974D01*
X121800000Y-89730035D01*
X121808059Y-89728974D01*
X121929125Y-89713035D01*
X121929126Y-89713035D01*
X121937183Y-89711974D01*
X121937305Y-89712902D01*
X122000098Y-89714397D01*
X122057960Y-89753560D01*
X122085280Y-89816325D01*
X122088026Y-89837183D01*
X122091137Y-89844694D01*
X122091138Y-89844697D01*
X122121864Y-89918877D01*
X122140976Y-89965017D01*
X122225209Y-90074791D01*
X122334982Y-90159024D01*
X122342490Y-90162134D01*
X122342492Y-90162135D01*
X122378980Y-90177248D01*
X122462817Y-90211974D01*
X122600000Y-90230035D01*
X122737183Y-90211974D01*
X122821020Y-90177248D01*
X122857508Y-90162135D01*
X122857510Y-90162134D01*
X122865018Y-90159024D01*
X122974791Y-90074791D01*
X123059024Y-89965017D01*
X123078136Y-89918877D01*
X123108862Y-89844697D01*
X123108863Y-89844694D01*
X123111974Y-89837183D01*
X123114720Y-89816325D01*
X123142985Y-89752428D01*
X123201309Y-89713956D01*
X123262700Y-89712860D01*
X123262817Y-89711974D01*
X123270874Y-89713035D01*
X123270875Y-89713035D01*
X123391941Y-89728974D01*
X123400000Y-89730035D01*
X123537183Y-89711974D01*
X123621020Y-89677248D01*
X123657508Y-89662135D01*
X123657510Y-89662134D01*
X123665018Y-89659024D01*
X123774791Y-89574791D01*
X123859024Y-89465017D01*
X123882520Y-89408293D01*
X123908862Y-89344697D01*
X123908863Y-89344694D01*
X123911974Y-89337183D01*
X123930035Y-89200000D01*
X123911974Y-89062817D01*
X123898305Y-89029815D01*
X123862135Y-88942494D01*
X123859024Y-88934983D01*
X123774791Y-88825209D01*
X123739821Y-88798375D01*
X123698618Y-88741947D01*
X123694464Y-88672201D01*
X123728677Y-88611281D01*
X123739821Y-88601625D01*
X123768345Y-88579737D01*
X123774791Y-88574791D01*
X123859024Y-88465017D01*
X123889324Y-88391865D01*
X123908862Y-88344697D01*
X123908863Y-88344694D01*
X123911974Y-88337183D01*
X123930035Y-88200000D01*
X123911974Y-88062817D01*
X123899200Y-88031976D01*
X123862135Y-87942494D01*
X123859024Y-87934983D01*
X123774791Y-87825209D01*
X123739821Y-87798375D01*
X123698618Y-87741947D01*
X123694464Y-87672201D01*
X123728677Y-87611281D01*
X123739821Y-87601625D01*
X123760581Y-87585695D01*
X123774791Y-87574791D01*
X123859024Y-87465017D01*
X123885729Y-87400544D01*
X123908862Y-87344697D01*
X123908863Y-87344694D01*
X123911974Y-87337183D01*
X123930035Y-87200000D01*
X123911974Y-87062817D01*
X123903208Y-87041652D01*
X123867698Y-86955925D01*
X123859024Y-86934983D01*
X123774791Y-86825209D01*
X123739821Y-86798375D01*
X123698618Y-86741947D01*
X123694464Y-86672201D01*
X123728677Y-86611281D01*
X123739821Y-86601625D01*
X123764679Y-86582550D01*
X123774791Y-86574791D01*
X123859024Y-86465017D01*
X123906901Y-86349431D01*
X123908862Y-86344697D01*
X123908863Y-86344694D01*
X123911974Y-86337183D01*
X123930035Y-86200000D01*
X123919167Y-86117454D01*
X133944599Y-86117454D01*
X133946008Y-86125784D01*
X133946008Y-86125787D01*
X133947764Y-86136167D01*
X133949500Y-86156846D01*
X133949500Y-89585041D01*
X133949391Y-89590233D01*
X133946790Y-89652292D01*
X133948721Y-89660523D01*
X133948721Y-89660527D01*
X133956747Y-89694745D01*
X133958876Y-89706230D01*
X133964794Y-89749430D01*
X133968151Y-89757187D01*
X133970834Y-89763387D01*
X133977758Y-89784323D01*
X133981232Y-89799134D01*
X133985305Y-89806542D01*
X134002238Y-89837344D01*
X134007376Y-89847833D01*
X134021337Y-89880095D01*
X134021340Y-89880100D01*
X134024695Y-89887853D01*
X134030012Y-89894419D01*
X134030013Y-89894421D01*
X134034267Y-89899674D01*
X134046557Y-89917963D01*
X134053893Y-89931306D01*
X134060897Y-89939420D01*
X134085509Y-89964032D01*
X134094194Y-89973677D01*
X134119614Y-90005068D01*
X134135084Y-90016062D01*
X134150934Y-90029457D01*
X135547472Y-91425994D01*
X135550837Y-91428548D01*
X135550838Y-91428549D01*
X135616054Y-91478050D01*
X135637233Y-91494126D01*
X135645094Y-91497238D01*
X135645095Y-91497239D01*
X135681662Y-91511717D01*
X135777469Y-91549650D01*
X135818277Y-91553939D01*
X135919064Y-91564532D01*
X135919067Y-91564532D01*
X135927470Y-91565415D01*
X135935800Y-91564006D01*
X135935803Y-91564006D01*
X136067850Y-91541672D01*
X136067851Y-91541672D01*
X136076186Y-91540262D01*
X136093617Y-91532060D01*
X136174232Y-91494126D01*
X136212659Y-91476044D01*
X136222615Y-91467450D01*
X136320437Y-91383013D01*
X136320438Y-91383011D01*
X136326835Y-91377490D01*
X136339079Y-91359061D01*
X136405624Y-91258902D01*
X136405625Y-91258900D01*
X136410301Y-91251862D01*
X136456910Y-91108416D01*
X136459803Y-91039405D01*
X136462872Y-90966168D01*
X136462872Y-90966167D01*
X136463226Y-90957720D01*
X136428784Y-90810878D01*
X136389509Y-90739436D01*
X136359254Y-90684400D01*
X136359250Y-90684395D01*
X136356123Y-90678706D01*
X136349119Y-90670592D01*
X135086819Y-89408293D01*
X135053334Y-89346970D01*
X135050500Y-89320612D01*
X135050500Y-86379387D01*
X135070185Y-86312348D01*
X135086819Y-86291706D01*
X135323222Y-86055303D01*
X135491705Y-85886819D01*
X135553028Y-85853334D01*
X135579386Y-85850500D01*
X137460392Y-85850500D01*
X137527431Y-85870185D01*
X137573186Y-85922989D01*
X137583130Y-85992147D01*
X137574954Y-86021948D01*
X137558026Y-86062817D01*
X137539965Y-86200000D01*
X137558026Y-86337183D01*
X137561137Y-86344694D01*
X137561138Y-86344697D01*
X137563099Y-86349431D01*
X137610976Y-86465017D01*
X137695209Y-86574791D01*
X137804982Y-86659024D01*
X137812490Y-86662134D01*
X137812492Y-86662135D01*
X137880826Y-86690439D01*
X137935230Y-86734279D01*
X137957295Y-86800573D01*
X137940016Y-86868273D01*
X137888879Y-86915884D01*
X137880826Y-86919561D01*
X137851356Y-86931768D01*
X137804983Y-86950976D01*
X137695209Y-87035209D01*
X137690265Y-87041652D01*
X137627981Y-87122822D01*
X137610976Y-87144983D01*
X137607865Y-87152494D01*
X137567559Y-87249803D01*
X137558026Y-87272817D01*
X137539965Y-87410000D01*
X137558026Y-87547183D01*
X137561137Y-87554694D01*
X137561138Y-87554697D01*
X137588288Y-87620242D01*
X137610976Y-87675017D01*
X137695209Y-87784791D01*
X137804982Y-87869024D01*
X137812490Y-87872134D01*
X137812492Y-87872135D01*
X137848980Y-87887248D01*
X137932817Y-87921974D01*
X138070000Y-87940035D01*
X138091138Y-87937252D01*
X138160173Y-87948017D01*
X138212429Y-87994397D01*
X138231263Y-88056296D01*
X138232403Y-88092569D01*
X138234579Y-88100058D01*
X138234579Y-88100060D01*
X138275519Y-88240976D01*
X138278256Y-88250398D01*
X138361919Y-88391865D01*
X138807873Y-88837819D01*
X138841358Y-88899142D01*
X138836374Y-88968834D01*
X138794502Y-89024767D01*
X138729038Y-89049184D01*
X138720192Y-89049500D01*
X137579387Y-89049500D01*
X137512348Y-89029815D01*
X137491706Y-89013181D01*
X136546819Y-88068295D01*
X136513334Y-88006972D01*
X136510500Y-87980614D01*
X136510500Y-86762215D01*
X136498169Y-86672201D01*
X136496353Y-86658940D01*
X136496353Y-86658939D01*
X136495206Y-86650568D01*
X136435305Y-86512145D01*
X136340386Y-86394930D01*
X136217442Y-86307558D01*
X136123015Y-86273562D01*
X136083485Y-86259330D01*
X136083483Y-86259330D01*
X136075532Y-86256467D01*
X136000321Y-86250944D01*
X135933539Y-86246039D01*
X135933538Y-86246039D01*
X135925109Y-86245420D01*
X135916822Y-86247091D01*
X135916821Y-86247091D01*
X135903372Y-86249803D01*
X135777257Y-86275233D01*
X135744927Y-86291706D01*
X135652495Y-86338802D01*
X135642868Y-86343707D01*
X135592488Y-86390034D01*
X135538065Y-86440078D01*
X135538063Y-86440080D01*
X135531844Y-86445799D01*
X135494781Y-86505575D01*
X135473073Y-86540588D01*
X135452365Y-86573986D01*
X135450007Y-86582101D01*
X135450006Y-86582104D01*
X135432369Y-86642813D01*
X135410285Y-86718825D01*
X135409500Y-86729515D01*
X135409500Y-88245043D01*
X135409391Y-88250235D01*
X135406790Y-88312294D01*
X135408721Y-88320525D01*
X135408721Y-88320529D01*
X135416747Y-88354747D01*
X135418876Y-88366232D01*
X135421322Y-88384088D01*
X135423144Y-88397384D01*
X135424794Y-88409432D01*
X135428151Y-88417189D01*
X135430834Y-88423389D01*
X135437758Y-88444325D01*
X135441232Y-88459136D01*
X135462071Y-88497042D01*
X135462238Y-88497346D01*
X135467376Y-88507835D01*
X135481337Y-88540097D01*
X135481340Y-88540102D01*
X135484695Y-88547855D01*
X135490012Y-88554421D01*
X135490013Y-88554423D01*
X135494267Y-88559676D01*
X135506557Y-88577965D01*
X135513893Y-88591308D01*
X135520897Y-88599422D01*
X135545509Y-88624034D01*
X135554194Y-88633679D01*
X135579614Y-88665070D01*
X135595084Y-88676064D01*
X135610934Y-88689459D01*
X136900142Y-89978666D01*
X136903737Y-89982414D01*
X136939125Y-90020898D01*
X136945799Y-90028156D01*
X136982861Y-90051135D01*
X136992487Y-90057751D01*
X137027216Y-90084112D01*
X137035073Y-90087223D01*
X137035075Y-90087224D01*
X137041364Y-90089714D01*
X137061050Y-90099615D01*
X137065170Y-90102169D01*
X137073986Y-90107635D01*
X137115864Y-90119802D01*
X137126916Y-90123586D01*
X137159590Y-90136523D01*
X137159597Y-90136525D01*
X137167453Y-90139635D01*
X137175856Y-90140518D01*
X137175860Y-90140519D01*
X137182573Y-90141224D01*
X137204214Y-90145470D01*
X137212585Y-90147902D01*
X137218825Y-90149715D01*
X137225300Y-90150190D01*
X137225303Y-90150191D01*
X137227240Y-90150333D01*
X137227242Y-90150333D01*
X137229515Y-90150500D01*
X137264323Y-90150500D01*
X137277285Y-90151179D01*
X137317454Y-90155401D01*
X137325784Y-90153992D01*
X137325787Y-90153992D01*
X137336167Y-90152236D01*
X137356846Y-90150500D01*
X138370192Y-90150500D01*
X138437231Y-90170185D01*
X138482986Y-90222989D01*
X138492930Y-90292147D01*
X138463905Y-90355703D01*
X138457873Y-90362181D01*
X136387353Y-92432701D01*
X136378712Y-92440564D01*
X136378647Y-92440618D01*
X136372060Y-92444798D01*
X136366722Y-92450482D01*
X136366720Y-92450484D01*
X136324135Y-92495833D01*
X136321424Y-92498630D01*
X136301089Y-92518965D01*
X136298706Y-92522037D01*
X136298392Y-92522442D01*
X136290805Y-92531325D01*
X136259552Y-92564607D01*
X136255800Y-92571433D01*
X136255795Y-92571439D01*
X136249326Y-92583207D01*
X136238643Y-92599469D01*
X136230424Y-92610065D01*
X136230421Y-92610069D01*
X136225638Y-92616236D01*
X136212031Y-92647681D01*
X136207510Y-92658128D01*
X136202370Y-92668621D01*
X136180373Y-92708632D01*
X136178435Y-92716181D01*
X136178432Y-92716188D01*
X136175092Y-92729198D01*
X136168791Y-92747602D01*
X136160365Y-92767074D01*
X136159145Y-92774777D01*
X136159144Y-92774780D01*
X136153223Y-92812163D01*
X136150854Y-92823601D01*
X136139500Y-92867823D01*
X136139500Y-92889046D01*
X136137973Y-92908444D01*
X136134653Y-92929405D01*
X136135387Y-92937170D01*
X136135387Y-92937172D01*
X136138950Y-92974860D01*
X136139500Y-92986530D01*
X136139500Y-96030925D01*
X136139988Y-96034785D01*
X136139988Y-96034791D01*
X136153951Y-96145317D01*
X136154929Y-96153058D01*
X136157800Y-96160310D01*
X136157801Y-96160313D01*
X136162216Y-96171464D01*
X136215432Y-96305871D01*
X136312037Y-96438837D01*
X136350526Y-96470678D01*
X136424233Y-96531653D01*
X136438674Y-96543600D01*
X136587387Y-96613579D01*
X136595044Y-96615040D01*
X136595045Y-96615040D01*
X136665794Y-96628536D01*
X136748830Y-96644376D01*
X136912860Y-96634056D01*
X136920278Y-96631646D01*
X136920282Y-96631645D01*
X137022352Y-96598480D01*
X137069171Y-96583268D01*
X137126449Y-96546918D01*
X137201353Y-96499383D01*
X137201357Y-96499380D01*
X137207940Y-96495202D01*
X137213278Y-96489517D01*
X137213281Y-96489515D01*
X137215109Y-96487568D01*
X137216921Y-96486503D01*
X137219292Y-96484542D01*
X137219608Y-96484924D01*
X137275350Y-96452174D01*
X137345164Y-96454968D01*
X137402385Y-96495062D01*
X137428845Y-96559727D01*
X137429500Y-96572453D01*
X137429500Y-103065047D01*
X137429391Y-103070239D01*
X137426790Y-103132298D01*
X137428721Y-103140529D01*
X137428721Y-103140533D01*
X137436747Y-103174751D01*
X137438876Y-103186236D01*
X137444794Y-103229436D01*
X137448151Y-103237193D01*
X137450834Y-103243393D01*
X137457758Y-103264329D01*
X137461232Y-103279140D01*
X137482238Y-103317350D01*
X137487376Y-103327839D01*
X137501337Y-103360101D01*
X137501340Y-103360106D01*
X137504695Y-103367859D01*
X137510012Y-103374425D01*
X137510013Y-103374427D01*
X137514267Y-103379680D01*
X137526557Y-103397969D01*
X137533893Y-103411312D01*
X137540897Y-103419426D01*
X137565509Y-103444038D01*
X137574194Y-103453683D01*
X137599614Y-103485074D01*
X137615084Y-103496068D01*
X137630934Y-103509463D01*
X137737456Y-103615985D01*
X137751614Y-103626731D01*
X137793111Y-103682942D01*
X137797631Y-103752665D01*
X137763738Y-103813764D01*
X137702193Y-103846839D01*
X137676643Y-103849500D01*
X136062215Y-103849500D01*
X135987045Y-103859797D01*
X135958940Y-103863647D01*
X135958939Y-103863647D01*
X135950568Y-103864794D01*
X135812145Y-103924695D01*
X135694930Y-104019614D01*
X135607558Y-104142558D01*
X135594584Y-104178594D01*
X135577256Y-104226726D01*
X135556467Y-104284468D01*
X135545420Y-104434891D01*
X135575233Y-104582743D01*
X135579071Y-104590275D01*
X135629293Y-104688842D01*
X135643707Y-104717132D01*
X135745799Y-104828156D01*
X135786578Y-104853440D01*
X135856124Y-104896560D01*
X135873986Y-104907635D01*
X135882101Y-104909993D01*
X135882104Y-104909994D01*
X135957330Y-104931849D01*
X136018825Y-104949715D01*
X136026324Y-104950266D01*
X136027240Y-104950333D01*
X136027242Y-104950333D01*
X136029515Y-104950500D01*
X138705043Y-104950500D01*
X138710236Y-104950609D01*
X138763846Y-104952856D01*
X138763847Y-104952856D01*
X138772294Y-104953210D01*
X138780525Y-104951279D01*
X138780529Y-104951279D01*
X138814747Y-104943253D01*
X138826232Y-104941124D01*
X138844088Y-104938678D01*
X138861060Y-104936353D01*
X138861061Y-104936353D01*
X138869432Y-104935206D01*
X138883390Y-104929166D01*
X138904325Y-104922242D01*
X138910903Y-104920699D01*
X138919136Y-104918768D01*
X138957348Y-104897761D01*
X138967835Y-104892624D01*
X139000097Y-104878663D01*
X139000102Y-104878660D01*
X139007855Y-104875305D01*
X139014421Y-104869988D01*
X139014423Y-104869987D01*
X139019676Y-104865733D01*
X139037965Y-104853443D01*
X139051308Y-104846107D01*
X139059422Y-104839103D01*
X139084034Y-104814491D01*
X139093679Y-104805806D01*
X139125070Y-104780386D01*
X139136064Y-104764916D01*
X139149459Y-104749066D01*
X139598667Y-104299857D01*
X139602415Y-104296262D01*
X139641935Y-104259922D01*
X139641937Y-104259920D01*
X139648156Y-104254201D01*
X139671136Y-104217138D01*
X139677753Y-104207510D01*
X139699002Y-104179516D01*
X139699004Y-104179513D01*
X139704112Y-104172783D01*
X139707223Y-104164925D01*
X139707226Y-104164920D01*
X139709710Y-104158645D01*
X139719618Y-104138944D01*
X139723180Y-104133199D01*
X139727635Y-104126014D01*
X139739800Y-104084142D01*
X139743584Y-104073091D01*
X139756524Y-104040408D01*
X139756525Y-104040405D01*
X139759636Y-104032547D01*
X139761226Y-104017418D01*
X139765471Y-103995784D01*
X139767901Y-103987419D01*
X139769715Y-103981175D01*
X139770500Y-103970485D01*
X139770500Y-103935678D01*
X139771179Y-103922717D01*
X139774518Y-103890952D01*
X139774518Y-103890949D01*
X139775401Y-103882546D01*
X139772236Y-103863833D01*
X139770500Y-103843154D01*
X139770500Y-99095262D01*
X162444520Y-99095262D01*
X162461759Y-99300553D01*
X162518544Y-99498586D01*
X162612712Y-99681818D01*
X162616480Y-99686572D01*
X162645402Y-99723062D01*
X162740677Y-99843270D01*
X162745296Y-99847201D01*
X162892950Y-99972865D01*
X162892955Y-99972869D01*
X162897564Y-99976791D01*
X163077398Y-100077297D01*
X163273329Y-100140959D01*
X163279347Y-100141677D01*
X163279349Y-100141677D01*
X163421410Y-100158616D01*
X163477894Y-100165351D01*
X163483938Y-100164886D01*
X163483939Y-100164886D01*
X163545266Y-100160167D01*
X163683300Y-100149546D01*
X163768596Y-100125731D01*
X163875885Y-100095776D01*
X163875889Y-100095774D01*
X163881725Y-100094145D01*
X164065610Y-100001258D01*
X164227951Y-99874424D01*
X164231907Y-99869840D01*
X164231911Y-99869837D01*
X164358602Y-99723062D01*
X164362564Y-99718472D01*
X164383387Y-99681818D01*
X164461327Y-99544618D01*
X164464323Y-99539344D01*
X164529351Y-99343863D01*
X164534823Y-99300553D01*
X164554736Y-99142919D01*
X164554736Y-99142915D01*
X164555171Y-99139474D01*
X164555583Y-99110000D01*
X164535480Y-98904970D01*
X164502089Y-98794376D01*
X164477688Y-98713555D01*
X164475935Y-98707749D01*
X164379218Y-98525849D01*
X164249011Y-98366200D01*
X164090275Y-98234882D01*
X163909055Y-98136897D01*
X163899991Y-98134091D01*
X163718046Y-98077770D01*
X163718047Y-98077770D01*
X163712254Y-98075977D01*
X163507369Y-98054443D01*
X163501336Y-98054992D01*
X163501332Y-98054992D01*
X163375721Y-98066424D01*
X163302203Y-98073114D01*
X163296390Y-98074825D01*
X163296389Y-98074825D01*
X163292475Y-98075977D01*
X163104572Y-98131280D01*
X163020819Y-98175065D01*
X162927374Y-98223917D01*
X162927370Y-98223920D01*
X162922002Y-98226726D01*
X162917279Y-98230523D01*
X162917278Y-98230524D01*
X162827064Y-98303058D01*
X162761447Y-98355815D01*
X162629024Y-98513630D01*
X162529776Y-98694162D01*
X162527942Y-98699944D01*
X162527941Y-98699946D01*
X162498450Y-98792915D01*
X162467484Y-98890532D01*
X162444520Y-99095262D01*
X139770500Y-99095262D01*
X139770500Y-96419405D01*
X143234653Y-96419405D01*
X143235387Y-96427170D01*
X143235387Y-96427172D01*
X143238950Y-96464860D01*
X143239500Y-96476530D01*
X143239500Y-98180925D01*
X143239988Y-98184785D01*
X143239988Y-98184791D01*
X143244711Y-98222177D01*
X143254929Y-98303058D01*
X143315432Y-98455871D01*
X143412037Y-98588837D01*
X143538674Y-98693600D01*
X143687387Y-98763579D01*
X143695044Y-98765040D01*
X143695045Y-98765040D01*
X143768109Y-98778978D01*
X143848830Y-98794376D01*
X144012860Y-98784056D01*
X144020278Y-98781646D01*
X144020282Y-98781645D01*
X144122352Y-98748480D01*
X144169171Y-98733268D01*
X144230792Y-98694162D01*
X144301353Y-98649383D01*
X144301357Y-98649380D01*
X144307940Y-98645202D01*
X144360870Y-98588837D01*
X144415111Y-98531077D01*
X144415113Y-98531074D01*
X144420448Y-98525393D01*
X144424202Y-98518565D01*
X144424204Y-98518562D01*
X144495870Y-98388203D01*
X144495872Y-98388199D01*
X144499627Y-98381368D01*
X144540500Y-98222177D01*
X144540500Y-96900000D01*
X156869965Y-96900000D01*
X156888026Y-97037183D01*
X156940976Y-97165017D01*
X157025209Y-97274791D01*
X157134982Y-97359024D01*
X157142490Y-97362134D01*
X157142492Y-97362135D01*
X157178980Y-97377248D01*
X157262817Y-97411974D01*
X157400000Y-97430035D01*
X157537183Y-97411974D01*
X157621020Y-97377248D01*
X157657508Y-97362135D01*
X157657510Y-97362134D01*
X157665018Y-97359024D01*
X157774791Y-97274791D01*
X157779736Y-97268347D01*
X157779740Y-97268343D01*
X157801625Y-97239822D01*
X157858053Y-97198620D01*
X157927799Y-97194465D01*
X157988719Y-97228678D01*
X157998375Y-97239822D01*
X158020260Y-97268343D01*
X158020264Y-97268347D01*
X158025209Y-97274791D01*
X158134982Y-97359024D01*
X158142490Y-97362134D01*
X158142492Y-97362135D01*
X158178980Y-97377248D01*
X158262817Y-97411974D01*
X158400000Y-97430035D01*
X158537183Y-97411974D01*
X158621020Y-97377248D01*
X158657508Y-97362135D01*
X158657510Y-97362134D01*
X158665018Y-97359024D01*
X158774791Y-97274791D01*
X158779736Y-97268347D01*
X158779740Y-97268343D01*
X158801625Y-97239822D01*
X158858053Y-97198620D01*
X158927799Y-97194465D01*
X158988719Y-97228678D01*
X158998375Y-97239822D01*
X159020260Y-97268343D01*
X159020264Y-97268347D01*
X159025209Y-97274791D01*
X159134982Y-97359024D01*
X159142490Y-97362134D01*
X159142492Y-97362135D01*
X159178980Y-97377248D01*
X159262817Y-97411974D01*
X159400000Y-97430035D01*
X159537183Y-97411974D01*
X159621020Y-97377248D01*
X159657508Y-97362135D01*
X159657510Y-97362134D01*
X159665018Y-97359024D01*
X159774791Y-97274791D01*
X159779736Y-97268347D01*
X159779740Y-97268343D01*
X159801625Y-97239822D01*
X159858053Y-97198620D01*
X159927799Y-97194465D01*
X159988719Y-97228678D01*
X159998375Y-97239822D01*
X160020260Y-97268343D01*
X160020264Y-97268347D01*
X160025209Y-97274791D01*
X160134982Y-97359024D01*
X160142490Y-97362134D01*
X160142492Y-97362135D01*
X160178980Y-97377248D01*
X160262817Y-97411974D01*
X160400000Y-97430035D01*
X160537183Y-97411974D01*
X160621020Y-97377248D01*
X160657508Y-97362135D01*
X160657510Y-97362134D01*
X160665018Y-97359024D01*
X160774791Y-97274791D01*
X160779736Y-97268347D01*
X160779740Y-97268343D01*
X160801625Y-97239822D01*
X160858053Y-97198620D01*
X160927799Y-97194465D01*
X160988719Y-97228678D01*
X160998375Y-97239822D01*
X161020260Y-97268343D01*
X161020264Y-97268347D01*
X161025209Y-97274791D01*
X161134982Y-97359024D01*
X161142490Y-97362134D01*
X161142492Y-97362135D01*
X161178980Y-97377248D01*
X161262817Y-97411974D01*
X161400000Y-97430035D01*
X161537183Y-97411974D01*
X161621020Y-97377248D01*
X161657508Y-97362135D01*
X161657510Y-97362134D01*
X161665018Y-97359024D01*
X161774791Y-97274791D01*
X161859024Y-97165017D01*
X161911974Y-97037183D01*
X161930035Y-96900000D01*
X161911974Y-96762817D01*
X161900304Y-96734641D01*
X161862712Y-96643886D01*
X161859024Y-96634983D01*
X161774791Y-96525209D01*
X161751774Y-96507547D01*
X161739821Y-96498375D01*
X161698618Y-96441947D01*
X161694464Y-96372201D01*
X161728677Y-96311281D01*
X161739821Y-96301625D01*
X161768345Y-96279737D01*
X161774791Y-96274791D01*
X161859024Y-96165017D01*
X161890317Y-96089469D01*
X161908862Y-96044697D01*
X161908863Y-96044694D01*
X161911974Y-96037183D01*
X161930035Y-95900000D01*
X161911974Y-95762817D01*
X161859024Y-95634983D01*
X161774791Y-95525209D01*
X161739821Y-95498375D01*
X161698618Y-95441947D01*
X161694464Y-95372201D01*
X161728677Y-95311281D01*
X161739821Y-95301625D01*
X161768345Y-95279737D01*
X161774791Y-95274791D01*
X161859024Y-95165017D01*
X161900000Y-95066091D01*
X161908862Y-95044697D01*
X161908863Y-95044694D01*
X161911974Y-95037183D01*
X161930035Y-94900000D01*
X161911974Y-94762817D01*
X161859024Y-94634983D01*
X161774791Y-94525209D01*
X161665018Y-94440976D01*
X161657510Y-94437866D01*
X161657508Y-94437865D01*
X161621020Y-94422752D01*
X161537183Y-94388026D01*
X161400000Y-94369965D01*
X161262817Y-94388026D01*
X161255306Y-94391137D01*
X161255303Y-94391138D01*
X161171027Y-94426046D01*
X161134983Y-94440976D01*
X161025209Y-94525209D01*
X161020265Y-94531652D01*
X161020261Y-94531656D01*
X160998375Y-94560178D01*
X160941947Y-94601380D01*
X160872201Y-94605535D01*
X160811281Y-94571322D01*
X160801625Y-94560178D01*
X160779740Y-94531657D01*
X160779735Y-94531652D01*
X160774791Y-94525209D01*
X160665018Y-94440976D01*
X160657510Y-94437866D01*
X160657508Y-94437865D01*
X160621020Y-94422752D01*
X160537183Y-94388026D01*
X160400000Y-94369965D01*
X160262817Y-94388026D01*
X160255306Y-94391137D01*
X160255303Y-94391138D01*
X160171027Y-94426046D01*
X160134983Y-94440976D01*
X160025209Y-94525209D01*
X160020265Y-94531652D01*
X160020261Y-94531656D01*
X159998375Y-94560178D01*
X159941947Y-94601380D01*
X159872201Y-94605535D01*
X159811281Y-94571322D01*
X159801625Y-94560178D01*
X159779740Y-94531657D01*
X159779735Y-94531652D01*
X159774791Y-94525209D01*
X159665018Y-94440976D01*
X159657510Y-94437866D01*
X159657508Y-94437865D01*
X159621020Y-94422752D01*
X159537183Y-94388026D01*
X159400000Y-94369965D01*
X159262817Y-94388026D01*
X159255306Y-94391137D01*
X159255303Y-94391138D01*
X159171027Y-94426046D01*
X159134983Y-94440976D01*
X159025209Y-94525209D01*
X159020265Y-94531652D01*
X159020261Y-94531656D01*
X158998375Y-94560178D01*
X158941947Y-94601380D01*
X158872201Y-94605535D01*
X158811281Y-94571322D01*
X158801625Y-94560178D01*
X158779740Y-94531657D01*
X158779735Y-94531652D01*
X158774791Y-94525209D01*
X158665018Y-94440976D01*
X158657510Y-94437866D01*
X158657508Y-94437865D01*
X158621020Y-94422752D01*
X158537183Y-94388026D01*
X158400000Y-94369965D01*
X158262817Y-94388026D01*
X158255306Y-94391137D01*
X158255303Y-94391138D01*
X158171027Y-94426046D01*
X158134983Y-94440976D01*
X158025209Y-94525209D01*
X158020265Y-94531652D01*
X158020261Y-94531656D01*
X157998375Y-94560178D01*
X157941947Y-94601380D01*
X157872201Y-94605535D01*
X157811281Y-94571322D01*
X157801625Y-94560178D01*
X157779740Y-94531657D01*
X157779735Y-94531652D01*
X157774791Y-94525209D01*
X157665018Y-94440976D01*
X157657510Y-94437866D01*
X157657508Y-94437865D01*
X157621020Y-94422752D01*
X157537183Y-94388026D01*
X157400000Y-94369965D01*
X157262817Y-94388026D01*
X157255306Y-94391137D01*
X157255303Y-94391138D01*
X157171027Y-94426046D01*
X157134983Y-94440976D01*
X157025209Y-94525209D01*
X156940976Y-94634983D01*
X156888026Y-94762817D01*
X156869965Y-94900000D01*
X156888026Y-95037183D01*
X156891137Y-95044694D01*
X156891138Y-95044697D01*
X156900000Y-95066091D01*
X156940976Y-95165017D01*
X157025209Y-95274791D01*
X157031655Y-95279737D01*
X157060179Y-95301625D01*
X157101382Y-95358053D01*
X157105536Y-95427799D01*
X157071323Y-95488719D01*
X157060178Y-95498376D01*
X157031654Y-95520263D01*
X157031652Y-95520265D01*
X157025209Y-95525209D01*
X157020265Y-95531652D01*
X156990106Y-95570956D01*
X156940976Y-95634983D01*
X156888026Y-95762817D01*
X156869965Y-95900000D01*
X156888026Y-96037183D01*
X156891137Y-96044694D01*
X156891138Y-96044697D01*
X156909683Y-96089469D01*
X156940976Y-96165017D01*
X157025209Y-96274791D01*
X157031655Y-96279737D01*
X157060179Y-96301625D01*
X157101382Y-96358053D01*
X157105536Y-96427799D01*
X157071323Y-96488719D01*
X157060178Y-96498376D01*
X157031654Y-96520263D01*
X157031652Y-96520265D01*
X157025209Y-96525209D01*
X157020265Y-96531652D01*
X156978808Y-96585679D01*
X156940976Y-96634983D01*
X156937288Y-96643886D01*
X156899697Y-96734641D01*
X156888026Y-96762817D01*
X156869965Y-96900000D01*
X144540500Y-96900000D01*
X144540500Y-96760808D01*
X144560185Y-96693769D01*
X144576819Y-96673127D01*
X148613127Y-92636819D01*
X148674450Y-92603334D01*
X148700808Y-92600500D01*
X162349192Y-92600500D01*
X162416231Y-92620185D01*
X162436873Y-92636819D01*
X162813181Y-93013127D01*
X162846666Y-93074450D01*
X162849500Y-93100808D01*
X162849500Y-94993202D01*
X162829815Y-95060241D01*
X162771147Y-95108494D01*
X162735079Y-95122774D01*
X162735078Y-95122775D01*
X162727217Y-95125887D01*
X162607078Y-95217078D01*
X162601968Y-95223810D01*
X162535574Y-95311281D01*
X162515887Y-95337217D01*
X162512775Y-95345078D01*
X162512774Y-95345079D01*
X162480023Y-95427799D01*
X162460364Y-95477453D01*
X162459408Y-95485357D01*
X162459407Y-95485359D01*
X162457832Y-95498375D01*
X162449500Y-95567228D01*
X162449500Y-96652772D01*
X162449948Y-96656473D01*
X162459319Y-96733909D01*
X162460364Y-96742547D01*
X162515887Y-96882783D01*
X162520999Y-96889517D01*
X162520999Y-96889518D01*
X162601968Y-96996190D01*
X162607078Y-97002922D01*
X162613810Y-97008032D01*
X162690300Y-97066091D01*
X162727217Y-97094113D01*
X162735078Y-97097225D01*
X162735079Y-97097226D01*
X162860047Y-97146704D01*
X162860049Y-97146704D01*
X162867453Y-97149636D01*
X162875357Y-97150592D01*
X162875359Y-97150593D01*
X162928073Y-97156972D01*
X162957228Y-97160500D01*
X164042772Y-97160500D01*
X164071927Y-97156972D01*
X164124641Y-97150593D01*
X164124643Y-97150592D01*
X164132547Y-97149636D01*
X164139951Y-97146704D01*
X164139953Y-97146704D01*
X164264921Y-97097226D01*
X164264922Y-97097225D01*
X164272783Y-97094113D01*
X164309701Y-97066091D01*
X164386190Y-97008032D01*
X164392922Y-97002922D01*
X164398032Y-96996190D01*
X164479001Y-96889518D01*
X164479001Y-96889517D01*
X164484113Y-96882783D01*
X164539636Y-96742547D01*
X164540682Y-96733909D01*
X164550052Y-96656473D01*
X164550500Y-96652772D01*
X164550500Y-95567228D01*
X164542168Y-95498375D01*
X164540593Y-95485359D01*
X164540592Y-95485357D01*
X164539636Y-95477453D01*
X164519977Y-95427799D01*
X164487226Y-95345079D01*
X164487225Y-95345078D01*
X164484113Y-95337217D01*
X164464427Y-95311281D01*
X164398032Y-95223810D01*
X164392922Y-95217078D01*
X164272783Y-95125887D01*
X164264922Y-95122775D01*
X164264921Y-95122774D01*
X164228853Y-95108494D01*
X164173767Y-95065513D01*
X164150500Y-94993202D01*
X164150500Y-93098753D01*
X166634514Y-93098753D01*
X166652039Y-93277486D01*
X166708726Y-93447896D01*
X166712319Y-93453829D01*
X166712320Y-93453831D01*
X166798168Y-93595583D01*
X166801759Y-93601512D01*
X166926514Y-93730699D01*
X166932308Y-93734490D01*
X166932311Y-93734493D01*
X166983453Y-93767959D01*
X167076789Y-93829036D01*
X167245116Y-93891636D01*
X167423130Y-93915388D01*
X167430031Y-93914760D01*
X167430033Y-93914760D01*
X167537744Y-93904958D01*
X167601981Y-93899112D01*
X167772782Y-93843615D01*
X167927044Y-93751657D01*
X168057099Y-93627807D01*
X168156483Y-93478222D01*
X168220257Y-93310336D01*
X168245251Y-93132493D01*
X168245565Y-93110000D01*
X168225546Y-92931528D01*
X168166485Y-92761927D01*
X168071316Y-92609625D01*
X167981286Y-92518965D01*
X167949653Y-92487110D01*
X167949652Y-92487109D01*
X167944770Y-92482193D01*
X167793136Y-92385963D01*
X167773219Y-92378871D01*
X167630479Y-92328043D01*
X167630475Y-92328042D01*
X167623951Y-92325719D01*
X167445624Y-92304455D01*
X167438735Y-92305179D01*
X167438732Y-92305179D01*
X167273913Y-92322502D01*
X167273911Y-92322502D01*
X167267017Y-92323227D01*
X167260456Y-92325461D01*
X167260454Y-92325461D01*
X167193271Y-92348332D01*
X167097007Y-92381103D01*
X167091105Y-92384734D01*
X166950271Y-92471376D01*
X166944045Y-92475206D01*
X166815732Y-92600859D01*
X166791797Y-92637999D01*
X166724144Y-92742976D01*
X166718446Y-92751817D01*
X166712384Y-92768473D01*
X166673384Y-92875625D01*
X166657022Y-92920578D01*
X166656153Y-92927459D01*
X166638484Y-93067330D01*
X166634514Y-93098753D01*
X164150500Y-93098753D01*
X164150500Y-92861072D01*
X164151050Y-92849403D01*
X164151058Y-92849317D01*
X164152760Y-92841703D01*
X164150561Y-92771737D01*
X164150500Y-92767842D01*
X164150500Y-92739075D01*
X164149947Y-92734700D01*
X164149031Y-92723056D01*
X164147842Y-92685228D01*
X164147597Y-92677430D01*
X164141674Y-92657043D01*
X164137731Y-92637999D01*
X164136049Y-92624682D01*
X164136048Y-92624680D01*
X164135071Y-92616942D01*
X164132200Y-92609691D01*
X164132199Y-92609686D01*
X164118265Y-92574493D01*
X164114481Y-92563441D01*
X164103921Y-92527092D01*
X164103919Y-92527088D01*
X164101744Y-92519601D01*
X164090938Y-92501329D01*
X164082380Y-92483860D01*
X164080250Y-92478480D01*
X164074568Y-92464129D01*
X164064655Y-92450484D01*
X164047738Y-92427201D01*
X164041333Y-92417451D01*
X164018081Y-92378135D01*
X164003074Y-92363128D01*
X163990437Y-92348332D01*
X163982550Y-92337477D01*
X163977963Y-92331163D01*
X163942787Y-92302063D01*
X163934146Y-92294200D01*
X163187299Y-91547353D01*
X163179436Y-91538712D01*
X163179382Y-91538647D01*
X163175202Y-91532060D01*
X163169518Y-91526722D01*
X163169516Y-91526720D01*
X163124167Y-91484135D01*
X163121370Y-91481424D01*
X163101035Y-91461089D01*
X163097556Y-91458391D01*
X163088672Y-91450803D01*
X163055393Y-91419552D01*
X163048567Y-91415800D01*
X163048561Y-91415795D01*
X163036793Y-91409326D01*
X163020531Y-91398643D01*
X163009935Y-91390424D01*
X163009931Y-91390421D01*
X163003764Y-91385638D01*
X162961871Y-91367509D01*
X162951378Y-91362369D01*
X162918202Y-91344130D01*
X162911368Y-91340373D01*
X162903819Y-91338435D01*
X162903812Y-91338432D01*
X162890802Y-91335092D01*
X162872398Y-91328791D01*
X162852926Y-91320365D01*
X162845223Y-91319145D01*
X162845220Y-91319144D01*
X162807837Y-91313223D01*
X162796399Y-91310854D01*
X162762529Y-91302158D01*
X162752177Y-91299500D01*
X162730954Y-91299500D01*
X162711555Y-91297973D01*
X162690595Y-91294653D01*
X162682830Y-91295387D01*
X162682828Y-91295387D01*
X162645140Y-91298950D01*
X162633470Y-91299500D01*
X148461073Y-91299500D01*
X148449404Y-91298950D01*
X148449318Y-91298942D01*
X148441704Y-91297240D01*
X148433907Y-91297485D01*
X148433906Y-91297485D01*
X148371738Y-91299439D01*
X148367843Y-91299500D01*
X148339075Y-91299500D01*
X148334698Y-91300053D01*
X148323064Y-91300968D01*
X148277431Y-91302403D01*
X148269939Y-91304580D01*
X148269937Y-91304580D01*
X148257055Y-91308323D01*
X148238008Y-91312268D01*
X148216942Y-91314929D01*
X148209691Y-91317800D01*
X148209683Y-91317802D01*
X148174492Y-91331736D01*
X148163442Y-91335520D01*
X148119602Y-91348256D01*
X148112883Y-91352230D01*
X148112882Y-91352230D01*
X148101330Y-91359061D01*
X148083863Y-91367619D01*
X148064129Y-91375432D01*
X148053695Y-91383013D01*
X148027199Y-91402263D01*
X148017435Y-91408677D01*
X147978135Y-91431919D01*
X147963128Y-91446926D01*
X147948332Y-91459563D01*
X147931163Y-91472037D01*
X147910314Y-91497239D01*
X147902063Y-91507213D01*
X147894200Y-91515854D01*
X143487353Y-95922701D01*
X143478712Y-95930564D01*
X143478647Y-95930618D01*
X143472060Y-95934798D01*
X143466722Y-95940482D01*
X143466720Y-95940484D01*
X143424135Y-95985833D01*
X143421424Y-95988630D01*
X143401089Y-96008965D01*
X143398706Y-96012037D01*
X143398392Y-96012442D01*
X143390805Y-96021325D01*
X143359552Y-96054607D01*
X143355800Y-96061433D01*
X143355795Y-96061439D01*
X143349326Y-96073207D01*
X143338643Y-96089469D01*
X143330424Y-96100065D01*
X143330421Y-96100069D01*
X143325638Y-96106236D01*
X143322538Y-96113400D01*
X143307510Y-96148128D01*
X143302370Y-96158621D01*
X143280373Y-96198632D01*
X143278435Y-96206181D01*
X143278432Y-96206188D01*
X143275092Y-96219198D01*
X143268791Y-96237602D01*
X143260365Y-96257074D01*
X143259145Y-96264777D01*
X143259144Y-96264780D01*
X143253223Y-96302163D01*
X143250854Y-96313601D01*
X143239500Y-96357823D01*
X143239500Y-96379046D01*
X143237973Y-96398444D01*
X143234653Y-96419405D01*
X139770500Y-96419405D01*
X139770500Y-94819387D01*
X139790185Y-94752348D01*
X139806819Y-94731706D01*
X143491705Y-91046819D01*
X143553028Y-91013334D01*
X143579386Y-91010500D01*
X145290504Y-91010500D01*
X145323952Y-91017152D01*
X145324402Y-91015473D01*
X145332259Y-91017578D01*
X145339764Y-91020687D01*
X145347819Y-91021747D01*
X145347821Y-91021748D01*
X145481941Y-91039405D01*
X145490000Y-91040466D01*
X145498059Y-91039405D01*
X145632177Y-91021748D01*
X145640236Y-91020687D01*
X145647743Y-91017578D01*
X145647745Y-91017577D01*
X145710234Y-90991693D01*
X145780233Y-90962698D01*
X145900451Y-90870451D01*
X145992698Y-90750233D01*
X146033001Y-90652933D01*
X146047577Y-90617745D01*
X146047578Y-90617743D01*
X146050687Y-90610236D01*
X146070466Y-90460000D01*
X146050687Y-90309764D01*
X146029372Y-90258304D01*
X145995808Y-90177276D01*
X145992698Y-90169767D01*
X145900451Y-90049549D01*
X145863113Y-90020898D01*
X145786680Y-89962249D01*
X145780233Y-89957302D01*
X145698983Y-89923647D01*
X145647745Y-89902423D01*
X145647743Y-89902422D01*
X145640236Y-89899313D01*
X145490000Y-89879534D01*
X145481941Y-89880595D01*
X145347821Y-89898252D01*
X145347819Y-89898253D01*
X145339764Y-89899313D01*
X145332259Y-89902422D01*
X145324402Y-89904527D01*
X145323952Y-89902848D01*
X145290504Y-89909500D01*
X143314957Y-89909500D01*
X143309764Y-89909391D01*
X143256154Y-89907144D01*
X143256153Y-89907144D01*
X143247706Y-89906790D01*
X143239475Y-89908721D01*
X143239471Y-89908721D01*
X143205253Y-89916747D01*
X143193768Y-89918876D01*
X143175912Y-89921322D01*
X143158940Y-89923647D01*
X143158939Y-89923647D01*
X143150568Y-89924794D01*
X143142810Y-89928151D01*
X143142811Y-89928151D01*
X143136611Y-89930834D01*
X143115675Y-89937758D01*
X143109094Y-89939301D01*
X143109089Y-89939303D01*
X143100864Y-89941232D01*
X143093456Y-89945305D01*
X143093455Y-89945305D01*
X143062649Y-89962240D01*
X143052159Y-89967379D01*
X143028605Y-89977572D01*
X143012145Y-89984695D01*
X143005571Y-89990018D01*
X143005570Y-89990019D01*
X143000322Y-89994268D01*
X142982025Y-90006564D01*
X142974386Y-90010763D01*
X142974381Y-90010766D01*
X142968692Y-90013894D01*
X142960578Y-90020898D01*
X142935971Y-90045505D01*
X142926326Y-90054190D01*
X142894930Y-90079614D01*
X142890033Y-90086505D01*
X142890031Y-90086507D01*
X142883934Y-90095086D01*
X142870539Y-90110937D01*
X138841334Y-94140142D01*
X138837586Y-94143737D01*
X138798065Y-94180078D01*
X138798063Y-94180080D01*
X138791844Y-94185799D01*
X138775383Y-94212348D01*
X138768864Y-94222862D01*
X138762247Y-94232489D01*
X138753270Y-94244316D01*
X138697060Y-94285815D01*
X138627336Y-94290335D01*
X138566237Y-94256443D01*
X138533161Y-94194898D01*
X138530500Y-94169347D01*
X138530500Y-93780920D01*
X138531179Y-93767959D01*
X138544529Y-93640941D01*
X138544529Y-93640938D01*
X138545412Y-93632535D01*
X138520259Y-93483819D01*
X138456041Y-93347346D01*
X138420179Y-93305799D01*
X138363010Y-93239568D01*
X138363008Y-93239567D01*
X138357487Y-93233170D01*
X138350449Y-93228494D01*
X138238899Y-93154381D01*
X138238897Y-93154380D01*
X138231859Y-93149704D01*
X138223823Y-93147093D01*
X138223821Y-93147092D01*
X138156933Y-93125359D01*
X138088413Y-93103095D01*
X138079971Y-93102741D01*
X138079970Y-93102741D01*
X137946165Y-93097133D01*
X137946164Y-93097133D01*
X137937717Y-93096779D01*
X137872201Y-93112146D01*
X137802439Y-93108290D01*
X137745835Y-93067330D01*
X137720361Y-93002270D01*
X137734106Y-92933765D01*
X137756205Y-92903741D01*
X139912647Y-90747299D01*
X139921288Y-90739436D01*
X139921353Y-90739382D01*
X139927940Y-90735202D01*
X139975865Y-90684167D01*
X139978576Y-90681370D01*
X139998911Y-90661035D01*
X140001293Y-90657964D01*
X140001303Y-90657953D01*
X140001613Y-90657553D01*
X140009200Y-90648669D01*
X140035110Y-90621078D01*
X140035112Y-90621076D01*
X140040448Y-90615393D01*
X140050670Y-90596800D01*
X140061351Y-90580539D01*
X140069580Y-90569930D01*
X140074363Y-90563764D01*
X140092496Y-90521862D01*
X140097636Y-90511369D01*
X140115868Y-90478207D01*
X140115870Y-90478202D01*
X140119627Y-90471368D01*
X140124906Y-90450806D01*
X140131207Y-90432404D01*
X140136537Y-90420087D01*
X140139636Y-90412926D01*
X140146779Y-90367830D01*
X140149147Y-90356393D01*
X140160500Y-90312177D01*
X140160500Y-90290954D01*
X140162027Y-90271556D01*
X140164126Y-90258304D01*
X140165347Y-90250595D01*
X140163404Y-90230035D01*
X140161050Y-90205140D01*
X140160500Y-90193470D01*
X140160500Y-88701073D01*
X140161050Y-88689404D01*
X140161058Y-88689318D01*
X140162760Y-88681704D01*
X140160561Y-88611724D01*
X140160500Y-88607829D01*
X140160500Y-88579075D01*
X140159948Y-88574704D01*
X140159032Y-88563065D01*
X140158761Y-88554423D01*
X140157598Y-88517431D01*
X140155423Y-88509946D01*
X140155422Y-88509937D01*
X140151676Y-88497042D01*
X140147731Y-88477996D01*
X140147537Y-88476461D01*
X140145071Y-88456942D01*
X140128267Y-88414501D01*
X140124484Y-88403451D01*
X140113922Y-88367095D01*
X140113922Y-88367094D01*
X140111745Y-88359602D01*
X140107774Y-88352887D01*
X140107772Y-88352883D01*
X140100938Y-88341328D01*
X140092378Y-88323856D01*
X140084568Y-88304129D01*
X140079984Y-88297820D01*
X140079981Y-88297814D01*
X140057731Y-88267189D01*
X140051319Y-88257428D01*
X140028081Y-88218135D01*
X140013074Y-88203128D01*
X140000437Y-88188332D01*
X139992550Y-88177477D01*
X139987963Y-88171163D01*
X139952787Y-88142063D01*
X139944146Y-88134200D01*
X139311035Y-87501089D01*
X139244496Y-87449476D01*
X139219931Y-87430421D01*
X139219928Y-87430419D01*
X139213764Y-87425638D01*
X139062926Y-87360365D01*
X139055219Y-87359144D01*
X139055218Y-87359144D01*
X138964007Y-87344697D01*
X138900595Y-87334653D01*
X138892830Y-87335387D01*
X138892828Y-87335387D01*
X138744732Y-87349387D01*
X138744729Y-87349388D01*
X138736971Y-87350121D01*
X138729636Y-87352762D01*
X138725542Y-87353677D01*
X138655823Y-87349092D01*
X138599651Y-87307541D01*
X138582544Y-87272581D01*
X138581974Y-87272817D01*
X138553183Y-87203308D01*
X138529024Y-87144983D01*
X138444791Y-87035209D01*
X138335018Y-86950976D01*
X138327510Y-86947866D01*
X138327508Y-86947865D01*
X138259174Y-86919561D01*
X138204770Y-86875721D01*
X138182705Y-86809427D01*
X138199984Y-86741727D01*
X138251121Y-86694116D01*
X138259174Y-86690439D01*
X138327508Y-86662135D01*
X138327510Y-86662134D01*
X138335018Y-86659024D01*
X138444791Y-86574791D01*
X138529024Y-86465017D01*
X138576901Y-86349431D01*
X138578862Y-86344697D01*
X138578863Y-86344694D01*
X138581974Y-86337183D01*
X138600035Y-86200000D01*
X138581974Y-86062817D01*
X138565047Y-86021951D01*
X138557578Y-85952484D01*
X138588853Y-85890004D01*
X138648942Y-85854352D01*
X138679608Y-85850500D01*
X144352407Y-85850500D01*
X144419446Y-85870185D01*
X144440088Y-85886819D01*
X146131938Y-87578669D01*
X146135533Y-87582417D01*
X146170315Y-87620242D01*
X146177583Y-87628146D01*
X146214656Y-87651132D01*
X146224268Y-87657739D01*
X146259001Y-87684102D01*
X146266859Y-87687213D01*
X146266864Y-87687216D01*
X146273139Y-87689700D01*
X146292840Y-87699608D01*
X146298585Y-87703170D01*
X146305770Y-87707625D01*
X146322385Y-87712452D01*
X146347642Y-87719790D01*
X146358693Y-87723574D01*
X146391376Y-87736514D01*
X146391379Y-87736515D01*
X146399237Y-87739626D01*
X146407641Y-87740509D01*
X146407648Y-87740511D01*
X146414373Y-87741218D01*
X146436000Y-87745461D01*
X146444365Y-87747891D01*
X146450609Y-87749705D01*
X146458108Y-87750256D01*
X146459024Y-87750323D01*
X146459026Y-87750323D01*
X146461299Y-87750490D01*
X146496097Y-87750490D01*
X146509059Y-87751169D01*
X146549238Y-87755392D01*
X146557574Y-87753982D01*
X146557577Y-87753982D01*
X146567950Y-87752227D01*
X146588630Y-87750490D01*
X146887767Y-87750490D01*
X146967075Y-87739626D01*
X146991042Y-87736343D01*
X146991043Y-87736343D01*
X146999414Y-87735196D01*
X147137837Y-87675295D01*
X147168831Y-87650197D01*
X147203743Y-87621925D01*
X147255052Y-87580376D01*
X147342424Y-87457432D01*
X147376255Y-87363464D01*
X147390652Y-87323475D01*
X147390652Y-87323473D01*
X147393515Y-87315522D01*
X147404520Y-87165665D01*
X165995119Y-87165665D01*
X165995412Y-87170747D01*
X165995412Y-87170748D01*
X165997563Y-87208059D01*
X166008376Y-87395580D01*
X166009495Y-87400544D01*
X166056987Y-87611281D01*
X166059006Y-87620242D01*
X166145649Y-87833618D01*
X166148311Y-87837962D01*
X166263317Y-88025635D01*
X166263321Y-88025640D01*
X166265979Y-88029978D01*
X166269311Y-88033824D01*
X166269312Y-88033826D01*
X166413257Y-88200000D01*
X166416763Y-88204048D01*
X166420673Y-88207294D01*
X166420677Y-88207298D01*
X166536970Y-88303846D01*
X166593953Y-88351154D01*
X166717568Y-88423389D01*
X166775953Y-88457506D01*
X166792790Y-88467345D01*
X166797543Y-88469160D01*
X166797545Y-88469161D01*
X166820682Y-88477996D01*
X167007934Y-88549501D01*
X167012920Y-88550515D01*
X167012922Y-88550516D01*
X167057946Y-88559676D01*
X167233607Y-88595414D01*
X167383235Y-88600901D01*
X167458670Y-88603667D01*
X167458673Y-88603667D01*
X167463749Y-88603853D01*
X167692178Y-88574591D01*
X167697048Y-88573130D01*
X167907892Y-88509874D01*
X167907895Y-88509873D01*
X167912761Y-88508413D01*
X167917324Y-88506177D01*
X167917328Y-88506176D01*
X168065575Y-88433550D01*
X168119574Y-88407096D01*
X168307062Y-88273363D01*
X168470190Y-88110803D01*
X168604577Y-87923783D01*
X168692709Y-87745461D01*
X168704358Y-87721892D01*
X168704359Y-87721890D01*
X168706615Y-87717325D01*
X168773563Y-87496975D01*
X168803073Y-87272817D01*
X168803191Y-87271924D01*
X168803191Y-87271921D01*
X168803622Y-87268649D01*
X168804299Y-87240976D01*
X168805219Y-87203308D01*
X168805300Y-87200000D01*
X168804638Y-87191941D01*
X168792282Y-87041653D01*
X168786430Y-86970478D01*
X168730326Y-86747120D01*
X168658769Y-86582550D01*
X168640524Y-86540588D01*
X168638496Y-86535924D01*
X168635736Y-86531658D01*
X168635733Y-86531652D01*
X168516167Y-86346832D01*
X168516165Y-86346830D01*
X168513405Y-86342563D01*
X168358412Y-86172229D01*
X168354427Y-86169082D01*
X168354424Y-86169079D01*
X168181672Y-86032648D01*
X168181673Y-86032648D01*
X168177681Y-86029496D01*
X168173235Y-86027042D01*
X168173231Y-86027039D01*
X167980520Y-85920657D01*
X167980517Y-85920656D01*
X167976065Y-85918198D01*
X167758978Y-85841323D01*
X167668514Y-85825209D01*
X167537260Y-85801829D01*
X167537255Y-85801829D01*
X167532250Y-85800937D01*
X167441875Y-85799833D01*
X167307061Y-85798185D01*
X167307059Y-85798185D01*
X167301971Y-85798123D01*
X167296942Y-85798893D01*
X167296936Y-85798893D01*
X167166950Y-85818784D01*
X167074325Y-85832958D01*
X166855424Y-85904506D01*
X166850910Y-85906856D01*
X166655664Y-86008494D01*
X166655658Y-86008498D01*
X166651149Y-86010845D01*
X166626308Y-86029496D01*
X166484235Y-86136167D01*
X166466984Y-86149119D01*
X166463469Y-86152798D01*
X166463466Y-86152800D01*
X166370769Y-86249803D01*
X166307877Y-86315616D01*
X166305013Y-86319815D01*
X166305011Y-86319817D01*
X166249291Y-86401499D01*
X166178099Y-86505863D01*
X166175957Y-86510477D01*
X166175955Y-86510481D01*
X166083282Y-86710128D01*
X166081136Y-86714752D01*
X166079774Y-86719662D01*
X166079774Y-86719663D01*
X166021849Y-86928536D01*
X166019592Y-86936673D01*
X166019052Y-86941728D01*
X166019051Y-86941732D01*
X166007355Y-87051169D01*
X165995119Y-87165665D01*
X147404520Y-87165665D01*
X147404562Y-87165099D01*
X147402021Y-87152494D01*
X147377374Y-87030265D01*
X147374749Y-87017247D01*
X147315013Y-86900007D01*
X147302117Y-86831339D01*
X147328394Y-86766599D01*
X147379851Y-86728422D01*
X147381425Y-86727799D01*
X147515871Y-86674568D01*
X147648837Y-86577963D01*
X147708483Y-86505863D01*
X147748631Y-86457333D01*
X147748632Y-86457331D01*
X147753600Y-86451326D01*
X147823579Y-86302613D01*
X147854376Y-86141170D01*
X147844056Y-85977140D01*
X147841646Y-85969722D01*
X147841645Y-85969718D01*
X147796785Y-85831653D01*
X147793268Y-85820829D01*
X147743208Y-85741947D01*
X147709383Y-85688647D01*
X147709380Y-85688643D01*
X147705202Y-85682060D01*
X147629830Y-85611281D01*
X147591077Y-85574889D01*
X147591074Y-85574887D01*
X147585393Y-85569552D01*
X147578565Y-85565798D01*
X147578562Y-85565796D01*
X147448204Y-85494131D01*
X147448203Y-85494131D01*
X147441368Y-85490373D01*
X147433479Y-85488347D01*
X147432450Y-85488083D01*
X147431366Y-85487465D01*
X147426560Y-85485562D01*
X147426831Y-85484878D01*
X147375606Y-85455660D01*
X146296488Y-84376542D01*
X146263003Y-84315219D01*
X146267987Y-84245527D01*
X146309859Y-84189594D01*
X146342163Y-84172193D01*
X146358797Y-84166204D01*
X146362485Y-84164941D01*
X146395927Y-84154075D01*
X146429172Y-84143273D01*
X146435762Y-84139091D01*
X146435874Y-84139038D01*
X146436865Y-84138627D01*
X146439284Y-84137442D01*
X146440291Y-84136868D01*
X146440323Y-84136852D01*
X146447669Y-84134207D01*
X146505521Y-84094891D01*
X146508738Y-84092778D01*
X146561355Y-84059387D01*
X146561357Y-84059385D01*
X146567941Y-84055207D01*
X146573280Y-84049521D01*
X146573371Y-84049446D01*
X146574223Y-84048806D01*
X146576299Y-84047034D01*
X146577106Y-84046252D01*
X146577154Y-84046210D01*
X146583603Y-84041827D01*
X146629849Y-83989371D01*
X146632471Y-83986489D01*
X146673785Y-83942494D01*
X146680449Y-83935398D01*
X146684208Y-83928562D01*
X146684272Y-83928473D01*
X146684953Y-83927624D01*
X146686506Y-83925413D01*
X146687091Y-83924459D01*
X146687136Y-83924393D01*
X146692293Y-83918543D01*
X146724056Y-83856205D01*
X146725879Y-83852762D01*
X146743744Y-83820265D01*
X146759628Y-83791373D01*
X146761568Y-83783819D01*
X146761607Y-83783720D01*
X146762054Y-83782731D01*
X146763014Y-83780189D01*
X146763338Y-83779136D01*
X146763370Y-83779048D01*
X146766909Y-83772101D01*
X146782174Y-83703810D01*
X146783083Y-83700023D01*
X146786163Y-83688026D01*
X146800501Y-83632182D01*
X146800501Y-83624387D01*
X146800514Y-83624284D01*
X146800702Y-83623208D01*
X146800999Y-83620510D01*
X146801051Y-83619405D01*
X146801059Y-83619319D01*
X146802761Y-83611705D01*
X146800562Y-83541725D01*
X146800501Y-83537830D01*
X146800501Y-83509076D01*
X146799949Y-83504705D01*
X146799033Y-83493066D01*
X146797844Y-83455224D01*
X146797844Y-83455223D01*
X146797599Y-83447432D01*
X146795424Y-83439947D01*
X146795423Y-83439938D01*
X146791677Y-83427043D01*
X146787732Y-83407997D01*
X146787538Y-83406462D01*
X146785072Y-83386943D01*
X146768268Y-83344502D01*
X146764485Y-83333452D01*
X146753923Y-83297096D01*
X146753923Y-83297095D01*
X146751746Y-83289603D01*
X146747775Y-83282888D01*
X146747773Y-83282884D01*
X146740939Y-83271329D01*
X146732379Y-83253857D01*
X146724569Y-83234130D01*
X146719985Y-83227821D01*
X146719982Y-83227815D01*
X146697732Y-83197190D01*
X146691320Y-83187429D01*
X146672053Y-83154851D01*
X146668082Y-83148136D01*
X146653075Y-83133129D01*
X146640438Y-83118333D01*
X146632551Y-83107478D01*
X146627964Y-83101164D01*
X146592788Y-83072064D01*
X146584147Y-83064201D01*
X144368699Y-80848753D01*
X166634514Y-80848753D01*
X166652039Y-81027486D01*
X166708726Y-81197896D01*
X166712318Y-81203827D01*
X166712320Y-81203831D01*
X166798168Y-81345583D01*
X166801759Y-81351512D01*
X166926514Y-81480699D01*
X166932308Y-81484490D01*
X166932311Y-81484493D01*
X167028213Y-81547249D01*
X167076789Y-81579036D01*
X167245116Y-81641636D01*
X167423130Y-81665388D01*
X167430031Y-81664760D01*
X167430033Y-81664760D01*
X167537744Y-81654958D01*
X167601981Y-81649112D01*
X167772782Y-81593615D01*
X167927044Y-81501657D01*
X167961374Y-81468965D01*
X168052080Y-81382587D01*
X168052082Y-81382585D01*
X168057099Y-81377807D01*
X168134229Y-81261717D01*
X168152645Y-81233999D01*
X168152646Y-81233997D01*
X168156483Y-81228222D01*
X168220257Y-81060336D01*
X168245251Y-80882493D01*
X168245565Y-80860000D01*
X168225546Y-80681528D01*
X168166485Y-80511927D01*
X168071316Y-80359625D01*
X168008043Y-80295909D01*
X167949653Y-80237110D01*
X167949652Y-80237109D01*
X167944770Y-80232193D01*
X167793136Y-80135963D01*
X167727121Y-80112456D01*
X167630479Y-80078043D01*
X167630475Y-80078042D01*
X167623951Y-80075719D01*
X167445624Y-80054455D01*
X167438735Y-80055179D01*
X167438732Y-80055179D01*
X167273913Y-80072502D01*
X167273911Y-80072502D01*
X167267017Y-80073227D01*
X167260456Y-80075461D01*
X167260454Y-80075461D01*
X167249850Y-80079071D01*
X167097007Y-80131103D01*
X167091105Y-80134734D01*
X166985017Y-80200000D01*
X166944045Y-80225206D01*
X166815732Y-80350859D01*
X166800828Y-80373986D01*
X166747003Y-80457506D01*
X166718446Y-80501817D01*
X166716076Y-80508329D01*
X166663029Y-80654075D01*
X166657022Y-80670578D01*
X166634514Y-80848753D01*
X144368699Y-80848753D01*
X143719946Y-80200000D01*
X147069965Y-80200000D01*
X147088026Y-80337183D01*
X147091137Y-80344694D01*
X147091138Y-80344697D01*
X147126046Y-80428973D01*
X147140976Y-80465017D01*
X147225209Y-80574791D01*
X147334982Y-80659024D01*
X147342490Y-80662134D01*
X147342492Y-80662135D01*
X147347147Y-80664063D01*
X147462817Y-80711974D01*
X147600000Y-80730035D01*
X147737183Y-80711974D01*
X147852853Y-80664063D01*
X147857508Y-80662135D01*
X147857510Y-80662134D01*
X147865018Y-80659024D01*
X147974791Y-80574791D01*
X148059024Y-80465017D01*
X148073954Y-80428973D01*
X148108862Y-80344697D01*
X148108863Y-80344694D01*
X148111974Y-80337183D01*
X148130035Y-80200000D01*
X148111974Y-80062817D01*
X148108851Y-80055276D01*
X148062135Y-79942494D01*
X148059024Y-79934983D01*
X147974791Y-79825209D01*
X147865018Y-79740976D01*
X147857510Y-79737866D01*
X147857508Y-79737865D01*
X147821020Y-79722752D01*
X147737183Y-79688026D01*
X147600000Y-79669965D01*
X147462817Y-79688026D01*
X147455306Y-79691137D01*
X147455303Y-79691138D01*
X147455301Y-79691139D01*
X147334983Y-79740976D01*
X147225209Y-79825209D01*
X147140976Y-79934983D01*
X147137865Y-79942494D01*
X147091150Y-80055276D01*
X147088026Y-80062817D01*
X147069965Y-80200000D01*
X143719946Y-80200000D01*
X142119946Y-78600000D01*
X156769965Y-78600000D01*
X156788026Y-78737183D01*
X156791137Y-78744694D01*
X156791138Y-78744697D01*
X156800000Y-78766091D01*
X156840976Y-78865017D01*
X156925209Y-78974791D01*
X157034982Y-79059024D01*
X157042490Y-79062134D01*
X157042492Y-79062135D01*
X157078980Y-79077248D01*
X157162817Y-79111974D01*
X157300000Y-79130035D01*
X157437183Y-79111974D01*
X157521020Y-79077248D01*
X157557508Y-79062135D01*
X157557510Y-79062134D01*
X157565018Y-79059024D01*
X157674791Y-78974791D01*
X157679736Y-78968347D01*
X157679740Y-78968343D01*
X157701625Y-78939822D01*
X157758053Y-78898620D01*
X157827799Y-78894465D01*
X157888719Y-78928678D01*
X157898375Y-78939822D01*
X157920260Y-78968343D01*
X157920264Y-78968347D01*
X157925209Y-78974791D01*
X158034982Y-79059024D01*
X158042490Y-79062134D01*
X158042492Y-79062135D01*
X158078980Y-79077248D01*
X158162817Y-79111974D01*
X158300000Y-79130035D01*
X158437183Y-79111974D01*
X158521020Y-79077248D01*
X158557508Y-79062135D01*
X158557510Y-79062134D01*
X158565018Y-79059024D01*
X158674791Y-78974791D01*
X158679736Y-78968347D01*
X158679740Y-78968343D01*
X158701625Y-78939822D01*
X158758053Y-78898620D01*
X158827799Y-78894465D01*
X158888719Y-78928678D01*
X158898375Y-78939822D01*
X158920260Y-78968343D01*
X158920264Y-78968347D01*
X158925209Y-78974791D01*
X159034982Y-79059024D01*
X159042490Y-79062134D01*
X159042492Y-79062135D01*
X159078980Y-79077248D01*
X159162817Y-79111974D01*
X159300000Y-79130035D01*
X159437183Y-79111974D01*
X159521020Y-79077248D01*
X159557508Y-79062135D01*
X159557510Y-79062134D01*
X159565018Y-79059024D01*
X159674791Y-78974791D01*
X159679736Y-78968347D01*
X159679740Y-78968343D01*
X159701625Y-78939822D01*
X159758053Y-78898620D01*
X159827799Y-78894465D01*
X159888719Y-78928678D01*
X159898375Y-78939822D01*
X159920260Y-78968343D01*
X159920264Y-78968347D01*
X159925209Y-78974791D01*
X160034982Y-79059024D01*
X160042490Y-79062134D01*
X160042492Y-79062135D01*
X160078980Y-79077248D01*
X160162817Y-79111974D01*
X160300000Y-79130035D01*
X160437183Y-79111974D01*
X160521020Y-79077248D01*
X160557508Y-79062135D01*
X160557510Y-79062134D01*
X160565018Y-79059024D01*
X160674791Y-78974791D01*
X160679736Y-78968347D01*
X160679740Y-78968343D01*
X160701625Y-78939822D01*
X160758053Y-78898620D01*
X160827799Y-78894465D01*
X160888719Y-78928678D01*
X160898375Y-78939822D01*
X160920260Y-78968343D01*
X160920264Y-78968347D01*
X160925209Y-78974791D01*
X161034982Y-79059024D01*
X161042490Y-79062134D01*
X161042492Y-79062135D01*
X161078980Y-79077248D01*
X161162817Y-79111974D01*
X161300000Y-79130035D01*
X161437183Y-79111974D01*
X161521020Y-79077248D01*
X161557508Y-79062135D01*
X161557510Y-79062134D01*
X161565018Y-79059024D01*
X161674791Y-78974791D01*
X161759024Y-78865017D01*
X161800000Y-78766091D01*
X161808862Y-78744697D01*
X161808863Y-78744694D01*
X161811974Y-78737183D01*
X161830035Y-78600000D01*
X161811974Y-78462817D01*
X161759024Y-78334983D01*
X161674791Y-78225209D01*
X161639821Y-78198375D01*
X161598618Y-78141947D01*
X161594464Y-78072201D01*
X161628677Y-78011281D01*
X161639821Y-78001625D01*
X161668345Y-77979737D01*
X161674791Y-77974791D01*
X161759024Y-77865017D01*
X161767207Y-77845262D01*
X162444520Y-77845262D01*
X162461759Y-78050553D01*
X162518544Y-78248586D01*
X162521316Y-78253981D01*
X162521317Y-78253982D01*
X162562946Y-78334983D01*
X162612712Y-78431818D01*
X162616480Y-78436572D01*
X162645402Y-78473062D01*
X162740677Y-78593270D01*
X162745296Y-78597201D01*
X162892950Y-78722865D01*
X162892955Y-78722869D01*
X162897564Y-78726791D01*
X163077398Y-78827297D01*
X163273329Y-78890959D01*
X163279347Y-78891677D01*
X163279349Y-78891677D01*
X163421410Y-78908616D01*
X163477894Y-78915351D01*
X163483938Y-78914886D01*
X163483939Y-78914886D01*
X163545266Y-78910167D01*
X163683300Y-78899546D01*
X163806970Y-78865017D01*
X163875885Y-78845776D01*
X163875889Y-78845774D01*
X163881725Y-78844145D01*
X164065610Y-78751258D01*
X164227951Y-78624424D01*
X164231907Y-78619840D01*
X164231911Y-78619837D01*
X164358602Y-78473062D01*
X164362564Y-78468472D01*
X164365777Y-78462817D01*
X164461327Y-78294618D01*
X164464323Y-78289344D01*
X164518062Y-78127799D01*
X164527439Y-78099611D01*
X164527439Y-78099610D01*
X164529351Y-78093863D01*
X164534823Y-78050553D01*
X164554736Y-77892919D01*
X164554736Y-77892915D01*
X164555171Y-77889474D01*
X164555583Y-77860000D01*
X164535480Y-77654970D01*
X164475935Y-77457749D01*
X164434022Y-77378922D01*
X164382065Y-77281203D01*
X164382064Y-77281201D01*
X164379218Y-77275849D01*
X164249011Y-77116200D01*
X164229429Y-77100000D01*
X164094946Y-76988746D01*
X164094945Y-76988745D01*
X164090275Y-76984882D01*
X163986328Y-76928678D01*
X163914393Y-76889783D01*
X163914391Y-76889782D01*
X163909055Y-76886897D01*
X163899991Y-76884091D01*
X163718046Y-76827770D01*
X163718047Y-76827770D01*
X163712254Y-76825977D01*
X163507369Y-76804443D01*
X163501336Y-76804992D01*
X163501332Y-76804992D01*
X163375721Y-76816424D01*
X163302203Y-76823114D01*
X163296390Y-76824825D01*
X163296389Y-76824825D01*
X163185349Y-76857506D01*
X163104572Y-76881280D01*
X163043831Y-76913035D01*
X162927374Y-76973917D01*
X162927370Y-76973920D01*
X162922002Y-76976726D01*
X162917279Y-76980523D01*
X162917278Y-76980524D01*
X162803255Y-77072201D01*
X162761447Y-77105815D01*
X162629024Y-77263630D01*
X162529776Y-77444162D01*
X162527942Y-77449944D01*
X162527941Y-77449946D01*
X162482898Y-77591941D01*
X162467484Y-77640532D01*
X162444520Y-77845262D01*
X161767207Y-77845262D01*
X161811974Y-77737183D01*
X161830035Y-77600000D01*
X161811974Y-77462817D01*
X161807657Y-77452393D01*
X161762135Y-77342494D01*
X161759024Y-77334983D01*
X161674791Y-77225209D01*
X161639821Y-77198375D01*
X161598618Y-77141947D01*
X161594464Y-77072201D01*
X161628677Y-77011281D01*
X161639821Y-77001625D01*
X161665401Y-76981996D01*
X161674791Y-76974791D01*
X161759024Y-76865017D01*
X161794348Y-76779737D01*
X161808862Y-76744697D01*
X161808863Y-76744694D01*
X161811974Y-76737183D01*
X161830035Y-76600000D01*
X161811974Y-76462817D01*
X161759024Y-76334983D01*
X161674791Y-76225209D01*
X161565018Y-76140976D01*
X161557510Y-76137866D01*
X161557508Y-76137865D01*
X161521020Y-76122752D01*
X161437183Y-76088026D01*
X161300000Y-76069965D01*
X161162817Y-76088026D01*
X161155306Y-76091137D01*
X161155303Y-76091138D01*
X161155301Y-76091139D01*
X161034983Y-76140976D01*
X160925209Y-76225209D01*
X160920265Y-76231652D01*
X160920261Y-76231656D01*
X160898375Y-76260178D01*
X160841947Y-76301380D01*
X160772201Y-76305535D01*
X160711281Y-76271322D01*
X160701625Y-76260178D01*
X160679740Y-76231657D01*
X160679735Y-76231652D01*
X160674791Y-76225209D01*
X160565018Y-76140976D01*
X160557510Y-76137866D01*
X160557508Y-76137865D01*
X160521020Y-76122752D01*
X160437183Y-76088026D01*
X160300000Y-76069965D01*
X160162817Y-76088026D01*
X160155306Y-76091137D01*
X160155303Y-76091138D01*
X160155301Y-76091139D01*
X160034983Y-76140976D01*
X159925209Y-76225209D01*
X159920265Y-76231652D01*
X159920261Y-76231656D01*
X159898375Y-76260178D01*
X159841947Y-76301380D01*
X159772201Y-76305535D01*
X159711281Y-76271322D01*
X159701625Y-76260178D01*
X159679740Y-76231657D01*
X159679735Y-76231652D01*
X159674791Y-76225209D01*
X159565018Y-76140976D01*
X159557510Y-76137866D01*
X159557508Y-76137865D01*
X159521020Y-76122752D01*
X159437183Y-76088026D01*
X159300000Y-76069965D01*
X159162817Y-76088026D01*
X159155306Y-76091137D01*
X159155303Y-76091138D01*
X159155301Y-76091139D01*
X159034983Y-76140976D01*
X158925209Y-76225209D01*
X158920265Y-76231652D01*
X158920261Y-76231656D01*
X158898375Y-76260178D01*
X158841947Y-76301380D01*
X158772201Y-76305535D01*
X158711281Y-76271322D01*
X158701625Y-76260178D01*
X158679740Y-76231657D01*
X158679735Y-76231652D01*
X158674791Y-76225209D01*
X158565018Y-76140976D01*
X158557510Y-76137866D01*
X158557508Y-76137865D01*
X158521020Y-76122752D01*
X158437183Y-76088026D01*
X158300000Y-76069965D01*
X158162817Y-76088026D01*
X158155306Y-76091137D01*
X158155303Y-76091138D01*
X158155301Y-76091139D01*
X158034983Y-76140976D01*
X157925209Y-76225209D01*
X157920265Y-76231652D01*
X157920261Y-76231656D01*
X157898375Y-76260178D01*
X157841947Y-76301380D01*
X157772201Y-76305535D01*
X157711281Y-76271322D01*
X157701625Y-76260178D01*
X157679740Y-76231657D01*
X157679735Y-76231652D01*
X157674791Y-76225209D01*
X157565018Y-76140976D01*
X157557510Y-76137866D01*
X157557508Y-76137865D01*
X157521020Y-76122752D01*
X157437183Y-76088026D01*
X157300000Y-76069965D01*
X157162817Y-76088026D01*
X157155306Y-76091137D01*
X157155303Y-76091138D01*
X157155301Y-76091139D01*
X157034983Y-76140976D01*
X156925209Y-76225209D01*
X156840976Y-76334983D01*
X156788026Y-76462817D01*
X156769965Y-76600000D01*
X156788026Y-76737183D01*
X156791137Y-76744694D01*
X156791138Y-76744697D01*
X156805652Y-76779737D01*
X156840976Y-76865017D01*
X156925209Y-76974791D01*
X156934599Y-76981996D01*
X156960179Y-77001625D01*
X157001382Y-77058053D01*
X157005536Y-77127799D01*
X156971323Y-77188719D01*
X156960178Y-77198376D01*
X156931654Y-77220263D01*
X156931652Y-77220265D01*
X156925209Y-77225209D01*
X156840976Y-77334983D01*
X156837865Y-77342494D01*
X156792344Y-77452393D01*
X156788026Y-77462817D01*
X156769965Y-77600000D01*
X156788026Y-77737183D01*
X156840976Y-77865017D01*
X156925209Y-77974791D01*
X156931655Y-77979737D01*
X156960179Y-78001625D01*
X157001382Y-78058053D01*
X157005536Y-78127799D01*
X156971323Y-78188719D01*
X156960178Y-78198376D01*
X156931654Y-78220263D01*
X156931652Y-78220265D01*
X156925209Y-78225209D01*
X156840976Y-78334983D01*
X156788026Y-78462817D01*
X156769965Y-78600000D01*
X142119946Y-78600000D01*
X139919946Y-76400000D01*
X154569965Y-76400000D01*
X154588026Y-76537183D01*
X154640976Y-76665017D01*
X154725209Y-76774791D01*
X154834982Y-76859024D01*
X154842490Y-76862134D01*
X154842492Y-76862135D01*
X154865015Y-76871464D01*
X154962817Y-76911974D01*
X155100000Y-76930035D01*
X155237183Y-76911974D01*
X155334985Y-76871464D01*
X155357508Y-76862135D01*
X155357510Y-76862134D01*
X155365018Y-76859024D01*
X155474791Y-76774791D01*
X155559024Y-76665017D01*
X155611974Y-76537183D01*
X155630035Y-76400000D01*
X155611974Y-76262817D01*
X155599068Y-76231657D01*
X155562135Y-76142494D01*
X155559024Y-76134983D01*
X155474791Y-76025209D01*
X155365018Y-75940976D01*
X155357510Y-75937866D01*
X155357508Y-75937865D01*
X155321020Y-75922752D01*
X155237183Y-75888026D01*
X155100000Y-75869965D01*
X154962817Y-75888026D01*
X154955306Y-75891137D01*
X154955303Y-75891138D01*
X154896848Y-75915351D01*
X154834983Y-75940976D01*
X154725209Y-76025209D01*
X154640976Y-76134983D01*
X154637865Y-76142494D01*
X154600933Y-76231657D01*
X154588026Y-76262817D01*
X154569965Y-76400000D01*
X139919946Y-76400000D01*
X138149946Y-74630000D01*
X153319965Y-74630000D01*
X153338026Y-74767183D01*
X153341137Y-74774694D01*
X153341138Y-74774697D01*
X153370367Y-74845262D01*
X153390976Y-74895017D01*
X153475209Y-75004791D01*
X153584982Y-75089024D01*
X153592490Y-75092134D01*
X153592492Y-75092135D01*
X153628980Y-75107248D01*
X153712817Y-75141974D01*
X153850000Y-75160035D01*
X153987183Y-75141974D01*
X154071020Y-75107248D01*
X154107508Y-75092135D01*
X154107510Y-75092134D01*
X154115018Y-75089024D01*
X154224791Y-75004791D01*
X154309024Y-74895017D01*
X154329633Y-74845262D01*
X162444520Y-74845262D01*
X162461759Y-75050553D01*
X162518544Y-75248586D01*
X162612712Y-75431818D01*
X162616480Y-75436572D01*
X162645402Y-75473062D01*
X162740677Y-75593270D01*
X162745296Y-75597201D01*
X162892950Y-75722865D01*
X162892955Y-75722869D01*
X162897564Y-75726791D01*
X163077398Y-75827297D01*
X163208716Y-75869965D01*
X163261037Y-75886965D01*
X163273329Y-75890959D01*
X163279347Y-75891677D01*
X163279349Y-75891677D01*
X163421410Y-75908616D01*
X163477894Y-75915351D01*
X163483938Y-75914886D01*
X163483939Y-75914886D01*
X163545266Y-75910167D01*
X163683300Y-75899546D01*
X163789248Y-75869965D01*
X163875885Y-75845776D01*
X163875889Y-75845774D01*
X163881725Y-75844145D01*
X164065610Y-75751258D01*
X164227951Y-75624424D01*
X164231907Y-75619840D01*
X164231911Y-75619837D01*
X164358602Y-75473062D01*
X164362564Y-75468472D01*
X164383387Y-75431818D01*
X164461327Y-75294618D01*
X164464323Y-75289344D01*
X164496549Y-75192469D01*
X164527439Y-75099611D01*
X164527439Y-75099610D01*
X164529351Y-75093863D01*
X164530588Y-75084075D01*
X164554736Y-74892919D01*
X164554736Y-74892915D01*
X164555171Y-74889474D01*
X164555583Y-74860000D01*
X164554731Y-74851308D01*
X164536072Y-74661006D01*
X164536072Y-74661004D01*
X164535480Y-74654970D01*
X164475935Y-74457749D01*
X164379218Y-74275849D01*
X164249011Y-74116200D01*
X164236458Y-74105815D01*
X164094946Y-73988746D01*
X164094945Y-73988745D01*
X164090275Y-73984882D01*
X163909055Y-73886897D01*
X163899991Y-73884091D01*
X163718046Y-73827770D01*
X163718047Y-73827770D01*
X163712254Y-73825977D01*
X163507369Y-73804443D01*
X163501336Y-73804992D01*
X163501332Y-73804992D01*
X163375721Y-73816424D01*
X163302203Y-73823114D01*
X163296390Y-73824825D01*
X163296389Y-73824825D01*
X163292475Y-73825977D01*
X163104572Y-73881280D01*
X163020819Y-73925065D01*
X162927374Y-73973917D01*
X162927370Y-73973920D01*
X162922002Y-73976726D01*
X162761447Y-74105815D01*
X162710213Y-74166873D01*
X162640239Y-74250265D01*
X162629024Y-74263630D01*
X162529776Y-74444162D01*
X162527942Y-74449944D01*
X162527941Y-74449946D01*
X162498738Y-74542006D01*
X162467484Y-74640532D01*
X162464502Y-74667118D01*
X162446045Y-74831668D01*
X162444520Y-74845262D01*
X154329633Y-74845262D01*
X154358862Y-74774697D01*
X154358863Y-74774694D01*
X154361974Y-74767183D01*
X154380035Y-74630000D01*
X154361974Y-74492817D01*
X154349854Y-74463555D01*
X154312135Y-74372494D01*
X154309024Y-74364983D01*
X154224791Y-74255209D01*
X154115018Y-74170976D01*
X154107510Y-74167866D01*
X154107508Y-74167865D01*
X154071020Y-74152752D01*
X153987183Y-74118026D01*
X153850000Y-74099965D01*
X153712817Y-74118026D01*
X153705306Y-74121137D01*
X153705303Y-74121138D01*
X153705301Y-74121139D01*
X153584983Y-74170976D01*
X153475209Y-74255209D01*
X153390976Y-74364983D01*
X153387865Y-74372494D01*
X153350147Y-74463555D01*
X153338026Y-74492817D01*
X153319965Y-74630000D01*
X138149946Y-74630000D01*
X137686819Y-74166873D01*
X137653334Y-74105550D01*
X137650500Y-74079192D01*
X137650500Y-72100000D01*
X159969965Y-72100000D01*
X159988026Y-72237183D01*
X159991137Y-72244694D01*
X159991138Y-72244697D01*
X160011816Y-72294618D01*
X160040976Y-72365017D01*
X160125209Y-72474791D01*
X160234982Y-72559024D01*
X160242490Y-72562134D01*
X160242492Y-72562135D01*
X160278980Y-72577248D01*
X160362817Y-72611974D01*
X160500000Y-72630035D01*
X160637183Y-72611974D01*
X160721020Y-72577248D01*
X160757508Y-72562135D01*
X160757510Y-72562134D01*
X160765018Y-72559024D01*
X160874791Y-72474791D01*
X160959024Y-72365017D01*
X160988184Y-72294618D01*
X161008862Y-72244697D01*
X161008863Y-72244694D01*
X161011974Y-72237183D01*
X161030035Y-72100000D01*
X161011974Y-71962817D01*
X160963282Y-71845262D01*
X162444520Y-71845262D01*
X162461759Y-72050553D01*
X162518544Y-72248586D01*
X162521316Y-72253981D01*
X162521317Y-72253982D01*
X162534441Y-72279518D01*
X162612712Y-72431818D01*
X162616480Y-72436572D01*
X162734741Y-72585780D01*
X162740677Y-72593270D01*
X162745296Y-72597201D01*
X162892950Y-72722865D01*
X162892955Y-72722869D01*
X162897564Y-72726791D01*
X163077398Y-72827297D01*
X163273329Y-72890959D01*
X163279347Y-72891677D01*
X163279349Y-72891677D01*
X163421410Y-72908616D01*
X163477894Y-72915351D01*
X163483938Y-72914886D01*
X163483939Y-72914886D01*
X163545266Y-72910167D01*
X163683300Y-72899546D01*
X163784384Y-72871323D01*
X163875885Y-72845776D01*
X163875889Y-72845774D01*
X163881725Y-72844145D01*
X164065610Y-72751258D01*
X164227951Y-72624424D01*
X164231907Y-72619840D01*
X164231911Y-72619837D01*
X164358602Y-72473062D01*
X164362564Y-72468472D01*
X164383387Y-72431818D01*
X164461327Y-72294618D01*
X164464323Y-72289344D01*
X164524629Y-72108059D01*
X164527439Y-72099611D01*
X164527439Y-72099610D01*
X164529351Y-72093863D01*
X164534823Y-72050553D01*
X164554736Y-71892919D01*
X164554736Y-71892915D01*
X164555171Y-71889474D01*
X164555583Y-71860000D01*
X164551902Y-71822458D01*
X164536072Y-71661006D01*
X164536072Y-71661004D01*
X164535480Y-71654970D01*
X164475935Y-71457749D01*
X164379218Y-71275849D01*
X164249011Y-71116200D01*
X164156513Y-71039679D01*
X164094946Y-70988746D01*
X164094945Y-70988745D01*
X164090275Y-70984882D01*
X163909055Y-70886897D01*
X163899991Y-70884091D01*
X163718046Y-70827770D01*
X163718047Y-70827770D01*
X163712254Y-70825977D01*
X163507369Y-70804443D01*
X163501336Y-70804992D01*
X163501332Y-70804992D01*
X163375721Y-70816424D01*
X163302203Y-70823114D01*
X163296390Y-70824825D01*
X163296389Y-70824825D01*
X163228870Y-70844697D01*
X163104572Y-70881280D01*
X163020819Y-70925065D01*
X162927374Y-70973917D01*
X162927370Y-70973920D01*
X162922002Y-70976726D01*
X162761447Y-71105815D01*
X162629024Y-71263630D01*
X162529776Y-71444162D01*
X162527942Y-71449944D01*
X162527941Y-71449946D01*
X162469317Y-71634753D01*
X162467484Y-71640532D01*
X162463215Y-71678594D01*
X162446397Y-71828530D01*
X162444520Y-71845262D01*
X160963282Y-71845262D01*
X160959024Y-71834983D01*
X160954075Y-71828533D01*
X160954073Y-71828530D01*
X160951740Y-71825489D01*
X160950568Y-71822458D01*
X160950011Y-71821493D01*
X160950161Y-71821406D01*
X160926543Y-71760321D01*
X160940580Y-71691876D01*
X160951740Y-71674511D01*
X160954073Y-71671470D01*
X160954075Y-71671467D01*
X160959024Y-71665017D01*
X161011974Y-71537183D01*
X161030035Y-71400000D01*
X161011974Y-71262817D01*
X160959024Y-71134983D01*
X160954075Y-71128533D01*
X160954073Y-71128530D01*
X160951740Y-71125489D01*
X160950568Y-71122458D01*
X160950011Y-71121493D01*
X160950161Y-71121406D01*
X160926543Y-71060321D01*
X160940580Y-70991876D01*
X160951740Y-70974511D01*
X160954073Y-70971470D01*
X160954075Y-70971467D01*
X160959024Y-70965017D01*
X161011974Y-70837183D01*
X161030035Y-70700000D01*
X161011974Y-70562817D01*
X160959024Y-70434983D01*
X160954075Y-70428533D01*
X160954073Y-70428530D01*
X160951740Y-70425489D01*
X160950568Y-70422458D01*
X160950011Y-70421493D01*
X160950161Y-70421406D01*
X160926543Y-70360321D01*
X160940580Y-70291876D01*
X160951740Y-70274511D01*
X160954073Y-70271470D01*
X160954075Y-70271467D01*
X160959024Y-70265017D01*
X161011974Y-70137183D01*
X161030035Y-70000000D01*
X161011974Y-69862817D01*
X161004916Y-69845776D01*
X160966897Y-69753990D01*
X160959024Y-69734983D01*
X160954075Y-69728533D01*
X160954073Y-69728530D01*
X160951740Y-69725489D01*
X160950568Y-69722458D01*
X160950011Y-69721493D01*
X160950161Y-69721406D01*
X160926543Y-69660321D01*
X160940580Y-69591876D01*
X160951740Y-69574511D01*
X160954073Y-69571470D01*
X160954075Y-69571467D01*
X160959024Y-69565017D01*
X161011974Y-69437183D01*
X161030035Y-69300000D01*
X161011974Y-69162817D01*
X160959024Y-69034983D01*
X160954075Y-69028533D01*
X160954073Y-69028530D01*
X160951740Y-69025489D01*
X160950568Y-69022458D01*
X160950011Y-69021493D01*
X160950161Y-69021406D01*
X160926543Y-68960321D01*
X160940580Y-68891876D01*
X160951740Y-68874511D01*
X160954073Y-68871470D01*
X160954075Y-68871467D01*
X160959024Y-68865017D01*
X160967207Y-68845262D01*
X162444520Y-68845262D01*
X162461759Y-69050553D01*
X162518544Y-69248586D01*
X162521316Y-69253981D01*
X162521317Y-69253982D01*
X162553132Y-69315888D01*
X162612712Y-69431818D01*
X162616480Y-69436572D01*
X162723399Y-69571470D01*
X162740677Y-69593270D01*
X162745296Y-69597201D01*
X162892950Y-69722865D01*
X162892955Y-69722869D01*
X162897564Y-69726791D01*
X163077398Y-69827297D01*
X163273329Y-69890959D01*
X163279347Y-69891677D01*
X163279349Y-69891677D01*
X163421410Y-69908616D01*
X163477894Y-69915351D01*
X163483938Y-69914886D01*
X163483939Y-69914886D01*
X163545266Y-69910167D01*
X163683300Y-69899546D01*
X163785971Y-69870880D01*
X163875885Y-69845776D01*
X163875889Y-69845774D01*
X163881725Y-69844145D01*
X164065610Y-69751258D01*
X164227951Y-69624424D01*
X164231907Y-69619840D01*
X164231911Y-69619837D01*
X164358602Y-69473062D01*
X164362564Y-69468472D01*
X164383387Y-69431818D01*
X164461327Y-69294618D01*
X164464323Y-69289344D01*
X164529351Y-69093863D01*
X164534823Y-69050553D01*
X164554736Y-68892919D01*
X164554736Y-68892915D01*
X164555171Y-68889474D01*
X164555583Y-68860000D01*
X164542750Y-68729120D01*
X164536072Y-68661006D01*
X164536072Y-68661004D01*
X164535480Y-68654970D01*
X164475935Y-68457749D01*
X164418808Y-68350308D01*
X164382065Y-68281203D01*
X164382064Y-68281201D01*
X164379218Y-68275849D01*
X164249011Y-68116200D01*
X164231864Y-68102015D01*
X164094946Y-67988746D01*
X164094945Y-67988745D01*
X164090275Y-67984882D01*
X163999665Y-67935890D01*
X163914393Y-67889783D01*
X163914391Y-67889782D01*
X163909055Y-67886897D01*
X163899991Y-67884091D01*
X163718046Y-67827770D01*
X163718047Y-67827770D01*
X163712254Y-67825977D01*
X163507369Y-67804443D01*
X163501336Y-67804992D01*
X163501332Y-67804992D01*
X163375721Y-67816424D01*
X163302203Y-67823114D01*
X163296390Y-67824825D01*
X163296389Y-67824825D01*
X163292475Y-67825977D01*
X163104572Y-67881280D01*
X163053349Y-67908059D01*
X162927374Y-67973917D01*
X162927370Y-67973920D01*
X162922002Y-67976726D01*
X162917279Y-67980523D01*
X162917278Y-67980524D01*
X162820476Y-68058355D01*
X162761447Y-68105815D01*
X162629024Y-68263630D01*
X162529776Y-68444162D01*
X162527942Y-68449944D01*
X162527941Y-68449946D01*
X162472213Y-68625625D01*
X162467484Y-68640532D01*
X162444520Y-68845262D01*
X160967207Y-68845262D01*
X161011974Y-68737183D01*
X161030035Y-68600000D01*
X161011974Y-68462817D01*
X161007657Y-68452393D01*
X160962135Y-68342494D01*
X160959024Y-68334983D01*
X160954075Y-68328533D01*
X160954073Y-68328530D01*
X160951740Y-68325489D01*
X160950568Y-68322458D01*
X160950011Y-68321493D01*
X160950161Y-68321406D01*
X160926543Y-68260321D01*
X160940580Y-68191876D01*
X160951740Y-68174511D01*
X160954073Y-68171470D01*
X160954075Y-68171467D01*
X160959024Y-68165017D01*
X160995721Y-68076421D01*
X161008862Y-68044697D01*
X161008863Y-68044694D01*
X161011974Y-68037183D01*
X161030035Y-67900000D01*
X161011974Y-67762817D01*
X160959024Y-67634983D01*
X160954075Y-67628533D01*
X160954073Y-67628530D01*
X160951740Y-67625489D01*
X160950568Y-67622458D01*
X160950011Y-67621493D01*
X160950161Y-67621406D01*
X160926543Y-67560321D01*
X160940580Y-67491876D01*
X160951740Y-67474511D01*
X160954073Y-67471470D01*
X160954075Y-67471467D01*
X160959024Y-67465017D01*
X161011974Y-67337183D01*
X161030035Y-67200000D01*
X161011974Y-67062817D01*
X160959024Y-66934983D01*
X160954075Y-66928533D01*
X160954073Y-66928530D01*
X160951740Y-66925489D01*
X160950568Y-66922458D01*
X160950011Y-66921493D01*
X160950161Y-66921406D01*
X160926543Y-66860321D01*
X160940580Y-66791876D01*
X160951740Y-66774511D01*
X160954073Y-66771470D01*
X160954075Y-66771467D01*
X160959024Y-66765017D01*
X161011974Y-66637183D01*
X161030035Y-66500000D01*
X161017234Y-66402772D01*
X162449500Y-66402772D01*
X162460364Y-66492547D01*
X162463296Y-66499951D01*
X162463296Y-66499953D01*
X162466506Y-66508059D01*
X162515887Y-66632783D01*
X162607078Y-66752922D01*
X162727217Y-66844113D01*
X162735078Y-66847225D01*
X162735079Y-66847226D01*
X162860047Y-66896704D01*
X162860049Y-66896704D01*
X162867453Y-66899636D01*
X162875357Y-66900592D01*
X162875359Y-66900593D01*
X162928073Y-66906972D01*
X162957228Y-66910500D01*
X164042772Y-66910500D01*
X164071927Y-66906972D01*
X164124641Y-66900593D01*
X164124643Y-66900592D01*
X164132547Y-66899636D01*
X164139951Y-66896704D01*
X164139953Y-66896704D01*
X164264921Y-66847226D01*
X164264922Y-66847225D01*
X164272783Y-66844113D01*
X164392922Y-66752922D01*
X164484113Y-66632783D01*
X164533495Y-66508059D01*
X164536704Y-66499953D01*
X164536704Y-66499951D01*
X164539636Y-66492547D01*
X164550500Y-66402772D01*
X164550500Y-65317228D01*
X164544781Y-65269965D01*
X164540593Y-65235359D01*
X164540592Y-65235357D01*
X164539636Y-65227453D01*
X164524823Y-65190039D01*
X164487226Y-65095079D01*
X164487225Y-65095078D01*
X164484113Y-65087217D01*
X164440709Y-65030034D01*
X164398032Y-64973810D01*
X164392922Y-64967078D01*
X164272783Y-64875887D01*
X164264922Y-64872775D01*
X164264921Y-64872774D01*
X164139953Y-64823296D01*
X164139951Y-64823296D01*
X164132547Y-64820364D01*
X164124643Y-64819408D01*
X164124641Y-64819407D01*
X164071927Y-64813028D01*
X164042772Y-64809500D01*
X162957228Y-64809500D01*
X162928073Y-64813028D01*
X162875359Y-64819407D01*
X162875357Y-64819408D01*
X162867453Y-64820364D01*
X162860049Y-64823296D01*
X162860047Y-64823296D01*
X162735079Y-64872774D01*
X162735078Y-64872775D01*
X162727217Y-64875887D01*
X162607078Y-64967078D01*
X162601968Y-64973810D01*
X162559292Y-65030034D01*
X162515887Y-65087217D01*
X162512775Y-65095078D01*
X162512774Y-65095079D01*
X162475177Y-65190039D01*
X162460364Y-65227453D01*
X162459408Y-65235357D01*
X162459407Y-65235359D01*
X162455219Y-65269965D01*
X162449500Y-65317228D01*
X162449500Y-66402772D01*
X161017234Y-66402772D01*
X161011974Y-66362817D01*
X160959024Y-66234983D01*
X160954075Y-66228533D01*
X160954073Y-66228530D01*
X160951740Y-66225489D01*
X160950568Y-66222458D01*
X160950011Y-66221493D01*
X160950161Y-66221406D01*
X160926543Y-66160321D01*
X160940580Y-66091876D01*
X160951740Y-66074511D01*
X160954073Y-66071470D01*
X160954075Y-66071467D01*
X160959024Y-66065017D01*
X161005477Y-65952868D01*
X161008862Y-65944697D01*
X161008863Y-65944694D01*
X161011974Y-65937183D01*
X161030035Y-65800000D01*
X161011974Y-65662817D01*
X160959024Y-65534983D01*
X160874791Y-65425209D01*
X160765018Y-65340976D01*
X160757510Y-65337866D01*
X160757508Y-65337865D01*
X160721020Y-65322752D01*
X160637183Y-65288026D01*
X160500000Y-65269965D01*
X160362817Y-65288026D01*
X160355306Y-65291137D01*
X160355303Y-65291138D01*
X160355301Y-65291139D01*
X160234983Y-65340976D01*
X160125209Y-65425209D01*
X160040976Y-65534983D01*
X159988026Y-65662817D01*
X159969965Y-65800000D01*
X159988026Y-65937183D01*
X159991137Y-65944694D01*
X159991138Y-65944697D01*
X159994523Y-65952868D01*
X160040976Y-66065017D01*
X160045925Y-66071467D01*
X160045927Y-66071470D01*
X160048260Y-66074511D01*
X160049432Y-66077542D01*
X160049989Y-66078507D01*
X160049839Y-66078594D01*
X160073457Y-66139679D01*
X160059420Y-66208124D01*
X160048260Y-66225489D01*
X160045927Y-66228530D01*
X160045925Y-66228533D01*
X160040976Y-66234983D01*
X159988026Y-66362817D01*
X159969965Y-66500000D01*
X159988026Y-66637183D01*
X160040976Y-66765017D01*
X160045925Y-66771467D01*
X160045927Y-66771470D01*
X160048260Y-66774511D01*
X160049432Y-66777542D01*
X160049989Y-66778507D01*
X160049839Y-66778594D01*
X160073457Y-66839679D01*
X160059420Y-66908124D01*
X160048260Y-66925489D01*
X160045927Y-66928530D01*
X160045925Y-66928533D01*
X160040976Y-66934983D01*
X159988026Y-67062817D01*
X159969965Y-67200000D01*
X159988026Y-67337183D01*
X160040976Y-67465017D01*
X160045925Y-67471467D01*
X160045927Y-67471470D01*
X160048260Y-67474511D01*
X160049432Y-67477542D01*
X160049989Y-67478507D01*
X160049839Y-67478594D01*
X160073457Y-67539679D01*
X160059420Y-67608124D01*
X160048260Y-67625489D01*
X160045927Y-67628530D01*
X160045925Y-67628533D01*
X160040976Y-67634983D01*
X159988026Y-67762817D01*
X159969965Y-67900000D01*
X159988026Y-68037183D01*
X159991137Y-68044694D01*
X159991138Y-68044697D01*
X160004279Y-68076421D01*
X160040976Y-68165017D01*
X160045925Y-68171467D01*
X160045927Y-68171470D01*
X160048260Y-68174511D01*
X160049432Y-68177542D01*
X160049989Y-68178507D01*
X160049839Y-68178594D01*
X160073457Y-68239679D01*
X160059420Y-68308124D01*
X160048260Y-68325489D01*
X160045927Y-68328530D01*
X160045925Y-68328533D01*
X160040976Y-68334983D01*
X160037865Y-68342494D01*
X159992344Y-68452393D01*
X159988026Y-68462817D01*
X159969965Y-68600000D01*
X159988026Y-68737183D01*
X160040976Y-68865017D01*
X160045925Y-68871467D01*
X160045927Y-68871470D01*
X160048260Y-68874511D01*
X160049432Y-68877542D01*
X160049989Y-68878507D01*
X160049839Y-68878594D01*
X160073457Y-68939679D01*
X160059420Y-69008124D01*
X160048260Y-69025489D01*
X160045927Y-69028530D01*
X160045925Y-69028533D01*
X160040976Y-69034983D01*
X159988026Y-69162817D01*
X159969965Y-69300000D01*
X159988026Y-69437183D01*
X160040976Y-69565017D01*
X160045925Y-69571467D01*
X160045927Y-69571470D01*
X160048260Y-69574511D01*
X160049432Y-69577542D01*
X160049989Y-69578507D01*
X160049839Y-69578594D01*
X160073457Y-69639679D01*
X160059420Y-69708124D01*
X160048260Y-69725489D01*
X160045927Y-69728530D01*
X160045925Y-69728533D01*
X160040976Y-69734983D01*
X160033103Y-69753990D01*
X159995085Y-69845776D01*
X159988026Y-69862817D01*
X159969965Y-70000000D01*
X159988026Y-70137183D01*
X160040976Y-70265017D01*
X160045925Y-70271467D01*
X160045927Y-70271470D01*
X160048260Y-70274511D01*
X160049432Y-70277542D01*
X160049989Y-70278507D01*
X160049839Y-70278594D01*
X160073457Y-70339679D01*
X160059420Y-70408124D01*
X160048260Y-70425489D01*
X160045927Y-70428530D01*
X160045925Y-70428533D01*
X160040976Y-70434983D01*
X159988026Y-70562817D01*
X159969965Y-70700000D01*
X159988026Y-70837183D01*
X160040976Y-70965017D01*
X160045925Y-70971467D01*
X160045927Y-70971470D01*
X160048260Y-70974511D01*
X160049432Y-70977542D01*
X160049989Y-70978507D01*
X160049839Y-70978594D01*
X160073457Y-71039679D01*
X160059420Y-71108124D01*
X160048260Y-71125489D01*
X160045927Y-71128530D01*
X160045925Y-71128533D01*
X160040976Y-71134983D01*
X159988026Y-71262817D01*
X159969965Y-71400000D01*
X159988026Y-71537183D01*
X160040976Y-71665017D01*
X160045925Y-71671467D01*
X160045927Y-71671470D01*
X160048260Y-71674511D01*
X160049432Y-71677542D01*
X160049989Y-71678507D01*
X160049839Y-71678594D01*
X160073457Y-71739679D01*
X160059420Y-71808124D01*
X160048260Y-71825489D01*
X160045927Y-71828530D01*
X160045925Y-71828533D01*
X160040976Y-71834983D01*
X159988026Y-71962817D01*
X159969965Y-72100000D01*
X137650500Y-72100000D01*
X137650500Y-68659075D01*
X137649982Y-68654970D01*
X137636049Y-68544683D01*
X137636049Y-68544682D01*
X137635071Y-68536942D01*
X137574568Y-68384129D01*
X137477963Y-68251163D01*
X137390137Y-68178507D01*
X137357333Y-68151369D01*
X137357331Y-68151368D01*
X137351326Y-68146400D01*
X137202613Y-68076421D01*
X137194956Y-68074960D01*
X137194955Y-68074960D01*
X137092700Y-68055454D01*
X137041170Y-68045624D01*
X136877140Y-68055944D01*
X136869722Y-68058354D01*
X136869718Y-68058355D01*
X136767648Y-68091520D01*
X136720829Y-68106732D01*
X136698512Y-68120895D01*
X136588647Y-68190617D01*
X136588643Y-68190620D01*
X136582060Y-68194798D01*
X136576720Y-68200485D01*
X136474889Y-68308923D01*
X136474887Y-68308926D01*
X136469552Y-68314607D01*
X136465798Y-68321435D01*
X136465796Y-68321438D01*
X136394130Y-68451797D01*
X136394128Y-68451801D01*
X136390373Y-68458632D01*
X136349500Y-68617823D01*
X136349500Y-74318927D01*
X136348950Y-74330596D01*
X136348942Y-74330682D01*
X136347240Y-74338296D01*
X136347485Y-74346093D01*
X136347485Y-74346094D01*
X136349439Y-74408262D01*
X136349500Y-74412157D01*
X136349500Y-74440925D01*
X136349988Y-74444787D01*
X136350052Y-74445292D01*
X136350968Y-74456936D01*
X136352403Y-74502569D01*
X136354580Y-74510061D01*
X136354580Y-74510063D01*
X136358323Y-74522945D01*
X136362268Y-74541992D01*
X136364929Y-74563058D01*
X136367800Y-74570309D01*
X136367802Y-74570317D01*
X136381736Y-74605508D01*
X136385520Y-74616558D01*
X136398256Y-74660398D01*
X136402230Y-74667117D01*
X136402230Y-74667118D01*
X136409061Y-74678670D01*
X136417619Y-74696137D01*
X136425432Y-74715871D01*
X136430016Y-74722180D01*
X136452263Y-74752801D01*
X136458677Y-74762565D01*
X136481919Y-74801865D01*
X136496926Y-74816872D01*
X136509563Y-74831668D01*
X136522037Y-74848837D01*
X136556003Y-74876936D01*
X136557213Y-74877937D01*
X136565854Y-74885800D01*
X142517873Y-80837819D01*
X142551358Y-80899142D01*
X142546374Y-80968834D01*
X142504502Y-81024767D01*
X142439038Y-81049184D01*
X142430192Y-81049500D01*
X137181073Y-81049500D01*
X137169404Y-81048950D01*
X137169318Y-81048942D01*
X137161704Y-81047240D01*
X137153906Y-81047485D01*
X137091724Y-81049439D01*
X137087829Y-81049500D01*
X137059075Y-81049500D01*
X137054704Y-81050052D01*
X137043072Y-81050967D01*
X137012738Y-81051921D01*
X137005223Y-81052157D01*
X137005222Y-81052157D01*
X136997431Y-81052402D01*
X136989946Y-81054577D01*
X136989937Y-81054578D01*
X136977042Y-81058324D01*
X136957996Y-81062269D01*
X136956461Y-81062463D01*
X136936942Y-81064929D01*
X136894501Y-81081733D01*
X136883451Y-81085516D01*
X136839602Y-81098255D01*
X136832887Y-81102226D01*
X136832883Y-81102228D01*
X136821328Y-81109062D01*
X136803856Y-81117622D01*
X136784129Y-81125432D01*
X136777820Y-81130016D01*
X136777814Y-81130019D01*
X136747189Y-81152269D01*
X136737432Y-81158678D01*
X136698135Y-81181919D01*
X136683128Y-81196926D01*
X136668332Y-81209563D01*
X136651163Y-81222037D01*
X136623064Y-81256003D01*
X136622063Y-81257213D01*
X136614200Y-81265854D01*
X136411089Y-81468965D01*
X136389440Y-81496875D01*
X136340421Y-81560069D01*
X136340419Y-81560072D01*
X136335638Y-81566236D01*
X136270365Y-81717074D01*
X136244653Y-81879405D01*
X136260121Y-82043029D01*
X136315794Y-82197668D01*
X136408175Y-82333602D01*
X136447039Y-82367865D01*
X136525610Y-82437136D01*
X136525613Y-82437138D01*
X136531459Y-82442292D01*
X136677900Y-82516908D01*
X136838296Y-82552760D01*
X136846093Y-82552515D01*
X136846094Y-82552515D01*
X136920433Y-82550178D01*
X137002569Y-82547597D01*
X137010058Y-82545421D01*
X137010060Y-82545421D01*
X137152906Y-82503921D01*
X137152909Y-82503920D01*
X137160398Y-82501744D01*
X137301865Y-82418081D01*
X137333127Y-82386819D01*
X137394450Y-82353334D01*
X137420808Y-82350500D01*
X142379192Y-82350500D01*
X142446231Y-82370185D01*
X142466873Y-82386819D01*
X144617873Y-84537819D01*
X144651358Y-84599142D01*
X144646374Y-84668834D01*
X144604502Y-84724767D01*
X144539038Y-84749184D01*
X144530192Y-84749500D01*
X141178983Y-84749500D01*
X141111944Y-84729815D01*
X141066189Y-84677011D01*
X141056245Y-84607853D01*
X141059023Y-84594307D01*
X141061974Y-84587183D01*
X141080035Y-84450000D01*
X141069189Y-84367621D01*
X141079954Y-84298587D01*
X141126334Y-84246331D01*
X141193602Y-84227445D01*
X141208308Y-84228496D01*
X141211940Y-84228974D01*
X141211941Y-84228974D01*
X141220000Y-84230035D01*
X141357183Y-84211974D01*
X141467684Y-84166204D01*
X141477508Y-84162135D01*
X141477510Y-84162134D01*
X141485018Y-84159024D01*
X141594791Y-84074791D01*
X141679024Y-83965017D01*
X141695428Y-83925413D01*
X141728862Y-83844697D01*
X141728863Y-83844694D01*
X141731974Y-83837183D01*
X141750035Y-83700000D01*
X141731974Y-83562817D01*
X141679024Y-83434983D01*
X141594791Y-83325209D01*
X141485018Y-83240976D01*
X141477510Y-83237866D01*
X141477508Y-83237865D01*
X141441020Y-83222752D01*
X141357183Y-83188026D01*
X141220000Y-83169965D01*
X141082817Y-83188026D01*
X141075306Y-83191137D01*
X141075303Y-83191138D01*
X140991027Y-83226046D01*
X140954983Y-83240976D01*
X140845209Y-83325209D01*
X140760976Y-83434983D01*
X140708026Y-83562817D01*
X140689965Y-83700000D01*
X140700523Y-83780189D01*
X140700811Y-83782378D01*
X140690046Y-83851413D01*
X140643666Y-83903669D01*
X140576398Y-83922555D01*
X140561692Y-83921504D01*
X140558060Y-83921026D01*
X140558059Y-83921026D01*
X140550000Y-83919965D01*
X140412817Y-83938026D01*
X140405306Y-83941137D01*
X140405303Y-83941138D01*
X140332090Y-83971464D01*
X140284983Y-83990976D01*
X140278536Y-83995923D01*
X140195829Y-84059387D01*
X140175209Y-84075209D01*
X140090976Y-84184983D01*
X140087865Y-84192494D01*
X140064127Y-84249804D01*
X140038026Y-84312817D01*
X140019965Y-84450000D01*
X140038026Y-84587183D01*
X140040782Y-84593836D01*
X140039129Y-84663256D01*
X139999967Y-84721119D01*
X139935738Y-84748623D01*
X139921017Y-84749500D01*
X135579387Y-84749500D01*
X135512348Y-84729815D01*
X135491706Y-84713181D01*
X135086821Y-84308297D01*
X135053336Y-84246974D01*
X135050502Y-84220616D01*
X135050502Y-80562215D01*
X135040205Y-80487045D01*
X135036355Y-80458940D01*
X135036355Y-80458939D01*
X135035208Y-80450568D01*
X134975307Y-80312145D01*
X134880388Y-80194930D01*
X134757444Y-80107558D01*
X134663017Y-80073562D01*
X134623487Y-80059330D01*
X134623485Y-80059330D01*
X134615534Y-80056467D01*
X134540322Y-80050943D01*
X134473541Y-80046039D01*
X134473540Y-80046039D01*
X134465111Y-80045420D01*
X134456824Y-80047091D01*
X134456823Y-80047091D01*
X134416713Y-80055179D01*
X134317259Y-80075233D01*
X134259438Y-80104694D01*
X134198069Y-80135963D01*
X134182870Y-80143707D01*
X134132490Y-80190034D01*
X134078067Y-80240078D01*
X134078065Y-80240080D01*
X134071846Y-80245799D01*
X134067392Y-80252983D01*
X133997627Y-80365503D01*
X133992367Y-80373986D01*
X133950287Y-80518825D01*
X133949502Y-80529515D01*
X133949502Y-84485045D01*
X133949393Y-84490237D01*
X133946792Y-84552296D01*
X133948724Y-84560533D01*
X133948950Y-84562923D01*
X133949500Y-84574594D01*
X133949500Y-86064322D01*
X133948821Y-86077282D01*
X133944599Y-86117454D01*
X123919167Y-86117454D01*
X123911974Y-86062817D01*
X123897155Y-86027039D01*
X123862135Y-85942494D01*
X123859024Y-85934983D01*
X123774791Y-85825209D01*
X123739821Y-85798375D01*
X123698618Y-85741947D01*
X123694464Y-85672201D01*
X123728677Y-85611281D01*
X123739821Y-85601625D01*
X123768345Y-85579737D01*
X123774791Y-85574791D01*
X123859024Y-85465017D01*
X123911974Y-85337183D01*
X123930035Y-85200000D01*
X123911974Y-85062817D01*
X123859024Y-84934983D01*
X123774791Y-84825209D01*
X123739821Y-84798375D01*
X123698618Y-84741947D01*
X123694464Y-84672201D01*
X123728677Y-84611281D01*
X123739821Y-84601625D01*
X123768345Y-84579737D01*
X123774791Y-84574791D01*
X123859024Y-84465017D01*
X123911974Y-84337183D01*
X123930035Y-84200000D01*
X123911974Y-84062817D01*
X123859024Y-83934983D01*
X123774791Y-83825209D01*
X123665018Y-83740976D01*
X123657510Y-83737866D01*
X123657508Y-83737865D01*
X123621020Y-83722752D01*
X123537183Y-83688026D01*
X123400000Y-83669965D01*
X123262817Y-83688026D01*
X123255306Y-83691137D01*
X123255303Y-83691138D01*
X123171027Y-83726046D01*
X123134983Y-83740976D01*
X123025209Y-83825209D01*
X122940976Y-83934983D01*
X122888026Y-84062817D01*
X122886965Y-84070879D01*
X122886964Y-84070881D01*
X122885280Y-84083675D01*
X122857015Y-84147572D01*
X122798691Y-84186044D01*
X122737300Y-84187140D01*
X122737183Y-84188026D01*
X122729126Y-84186965D01*
X122729125Y-84186965D01*
X122608059Y-84171026D01*
X122600000Y-84169965D01*
X122591941Y-84171026D01*
X122470875Y-84186965D01*
X122470874Y-84186965D01*
X122462817Y-84188026D01*
X122462695Y-84187098D01*
X122399902Y-84185603D01*
X122342040Y-84146440D01*
X122314720Y-84083675D01*
X122313036Y-84070881D01*
X122313035Y-84070879D01*
X122311974Y-84062817D01*
X122259024Y-83934983D01*
X122174791Y-83825209D01*
X122065018Y-83740976D01*
X122057510Y-83737866D01*
X122057508Y-83737865D01*
X122021020Y-83722752D01*
X121937183Y-83688026D01*
X121800000Y-83669965D01*
X121662817Y-83688026D01*
X121655306Y-83691137D01*
X121655303Y-83691138D01*
X121571027Y-83726046D01*
X121534983Y-83740976D01*
X121425209Y-83825209D01*
X121340976Y-83934983D01*
X121288026Y-84062817D01*
X121269965Y-84200000D01*
X121288026Y-84337183D01*
X121340976Y-84465017D01*
X121425209Y-84574791D01*
X121431655Y-84579737D01*
X121460179Y-84601625D01*
X121501382Y-84658053D01*
X121505536Y-84727799D01*
X121471323Y-84788719D01*
X121460178Y-84798376D01*
X121431654Y-84820263D01*
X121431652Y-84820265D01*
X121425209Y-84825209D01*
X121340976Y-84934983D01*
X121288026Y-85062817D01*
X121269965Y-85200000D01*
X121288026Y-85337183D01*
X121340976Y-85465017D01*
X121425209Y-85574791D01*
X121431655Y-85579737D01*
X121460179Y-85601625D01*
X121501382Y-85658053D01*
X121505536Y-85727799D01*
X121471323Y-85788719D01*
X121460178Y-85798376D01*
X121431654Y-85820263D01*
X121431652Y-85820265D01*
X121425209Y-85825209D01*
X121420265Y-85831652D01*
X121377934Y-85886819D01*
X121340976Y-85934983D01*
X121337865Y-85942494D01*
X121302846Y-86027039D01*
X121288026Y-86062817D01*
X121269965Y-86200000D01*
X121288026Y-86337183D01*
X121291137Y-86344694D01*
X121291138Y-86344697D01*
X121293099Y-86349431D01*
X121340976Y-86465017D01*
X121425209Y-86574791D01*
X121435321Y-86582550D01*
X121460179Y-86601625D01*
X121501382Y-86658053D01*
X121505536Y-86727799D01*
X121471323Y-86788719D01*
X121460178Y-86798376D01*
X121431654Y-86820263D01*
X121431652Y-86820265D01*
X121425209Y-86825209D01*
X121340976Y-86934983D01*
X121332302Y-86955925D01*
X121296793Y-87041652D01*
X121288026Y-87062817D01*
X121269965Y-87200000D01*
X121288026Y-87337183D01*
X121291137Y-87344694D01*
X121291138Y-87344697D01*
X121314271Y-87400544D01*
X121340976Y-87465017D01*
X121425209Y-87574791D01*
X121439419Y-87585695D01*
X121460179Y-87601625D01*
X121501382Y-87658053D01*
X121505536Y-87727799D01*
X121471323Y-87788719D01*
X121460178Y-87798376D01*
X121431654Y-87820263D01*
X121431652Y-87820265D01*
X121425209Y-87825209D01*
X121420265Y-87831652D01*
X121415423Y-87837962D01*
X121340976Y-87934983D01*
X121337865Y-87942494D01*
X121300801Y-88031976D01*
X121288026Y-88062817D01*
X121269965Y-88200000D01*
X121288026Y-88337183D01*
X121291137Y-88344694D01*
X121291138Y-88344697D01*
X121310676Y-88391865D01*
X121340976Y-88465017D01*
X121425209Y-88574791D01*
X121431655Y-88579737D01*
X121460179Y-88601625D01*
X121501382Y-88658053D01*
X121505536Y-88727799D01*
X121471323Y-88788719D01*
X121460178Y-88798376D01*
X121431654Y-88820263D01*
X121431652Y-88820265D01*
X121425209Y-88825209D01*
X121340976Y-88934983D01*
X121337865Y-88942494D01*
X121301696Y-89029815D01*
X121288026Y-89062817D01*
X121269965Y-89200000D01*
X112800000Y-89200000D01*
X112800000Y-69757229D01*
X120149500Y-69757229D01*
X120149501Y-72042770D01*
X120160364Y-72132547D01*
X120215888Y-72272783D01*
X120221000Y-72279517D01*
X120221000Y-72279518D01*
X120268866Y-72342579D01*
X120307078Y-72392922D01*
X120427217Y-72484112D01*
X120567453Y-72539636D01*
X120657229Y-72550500D01*
X120717923Y-72550500D01*
X120784962Y-72570185D01*
X120830717Y-72622989D01*
X120840661Y-72692147D01*
X120811636Y-72755703D01*
X120793410Y-72772875D01*
X120731656Y-72820261D01*
X120731652Y-72820265D01*
X120725209Y-72825209D01*
X120640976Y-72934983D01*
X120637865Y-72942494D01*
X120591139Y-73055302D01*
X120588026Y-73062817D01*
X120569965Y-73200000D01*
X120588026Y-73337183D01*
X120640976Y-73465017D01*
X120725209Y-73574791D01*
X120834982Y-73659024D01*
X120842490Y-73662134D01*
X120842492Y-73662135D01*
X120878980Y-73677248D01*
X120962817Y-73711974D01*
X121088117Y-73728471D01*
X121091934Y-73728973D01*
X121100000Y-73730035D01*
X121108067Y-73728973D01*
X121111883Y-73728471D01*
X121237183Y-73711974D01*
X121321020Y-73677248D01*
X121357508Y-73662135D01*
X121357510Y-73662134D01*
X121365018Y-73659024D01*
X121474791Y-73574791D01*
X121479736Y-73568347D01*
X121479740Y-73568343D01*
X121501625Y-73539822D01*
X121558053Y-73498620D01*
X121627799Y-73494465D01*
X121688719Y-73528678D01*
X121698375Y-73539822D01*
X121720260Y-73568343D01*
X121720264Y-73568347D01*
X121725209Y-73574791D01*
X121834982Y-73659024D01*
X121842490Y-73662134D01*
X121842492Y-73662135D01*
X121878980Y-73677248D01*
X121962817Y-73711974D01*
X122088117Y-73728471D01*
X122091934Y-73728973D01*
X122100000Y-73730035D01*
X122108067Y-73728973D01*
X122111883Y-73728471D01*
X122237183Y-73711974D01*
X122321020Y-73677248D01*
X122357508Y-73662135D01*
X122357510Y-73662134D01*
X122365018Y-73659024D01*
X122474791Y-73574791D01*
X122501625Y-73539821D01*
X122558051Y-73498619D01*
X122627797Y-73494464D01*
X122688718Y-73528676D01*
X122698375Y-73539821D01*
X122720260Y-73568342D01*
X122720264Y-73568346D01*
X122725209Y-73574790D01*
X122834982Y-73659023D01*
X122842490Y-73662133D01*
X122842492Y-73662134D01*
X122878980Y-73677247D01*
X122962817Y-73711973D01*
X123100000Y-73730034D01*
X123237183Y-73711973D01*
X123321020Y-73677247D01*
X123357508Y-73662134D01*
X123357510Y-73662133D01*
X123365018Y-73659023D01*
X123474791Y-73574790D01*
X123559024Y-73465016D01*
X123600000Y-73366091D01*
X123608862Y-73344696D01*
X123608863Y-73344693D01*
X123611974Y-73337182D01*
X123630035Y-73199999D01*
X123611974Y-73062816D01*
X123600001Y-73033909D01*
X123573954Y-72971026D01*
X123559024Y-72934982D01*
X123474791Y-72825208D01*
X123406589Y-72772874D01*
X123365387Y-72716446D01*
X123361232Y-72646700D01*
X123395445Y-72585780D01*
X123457162Y-72553028D01*
X123482076Y-72550499D01*
X123542770Y-72550499D01*
X123546471Y-72550051D01*
X123546474Y-72550051D01*
X123624638Y-72540593D01*
X123632547Y-72539636D01*
X123772783Y-72484112D01*
X123892922Y-72392922D01*
X123931134Y-72342579D01*
X123979000Y-72279518D01*
X123979000Y-72279517D01*
X123984112Y-72272783D01*
X123993693Y-72248586D01*
X124036705Y-72139950D01*
X124036705Y-72139949D01*
X124039636Y-72132547D01*
X124050500Y-72042771D01*
X124050499Y-69757230D01*
X124049777Y-69751258D01*
X124040593Y-69675362D01*
X124040592Y-69675357D01*
X124039636Y-69667453D01*
X123984112Y-69527217D01*
X123892922Y-69407078D01*
X123772783Y-69315888D01*
X123753010Y-69308059D01*
X123639950Y-69263295D01*
X123639949Y-69263295D01*
X123632547Y-69260364D01*
X123542771Y-69249500D01*
X122100387Y-69249500D01*
X120657230Y-69249501D01*
X120653529Y-69249949D01*
X120653526Y-69249949D01*
X120575362Y-69259407D01*
X120567453Y-69260364D01*
X120508784Y-69283593D01*
X120446991Y-69308059D01*
X120427217Y-69315888D01*
X120307078Y-69407078D01*
X120215888Y-69527217D01*
X120212776Y-69535078D01*
X120212775Y-69535079D01*
X120175924Y-69628154D01*
X120160364Y-69667453D01*
X120149500Y-69757229D01*
X112800000Y-69757229D01*
X112800000Y-66700000D01*
X120144396Y-66700000D01*
X120144778Y-66704854D01*
X120161904Y-66922458D01*
X120164779Y-66958994D01*
X120165914Y-66963723D01*
X120165915Y-66963727D01*
X120220705Y-67191941D01*
X120225427Y-67211610D01*
X120324846Y-67451628D01*
X120460588Y-67673140D01*
X120629311Y-67870689D01*
X120826860Y-68039412D01*
X121048372Y-68175154D01*
X121288390Y-68274573D01*
X121293126Y-68275710D01*
X121536273Y-68334085D01*
X121536277Y-68334086D01*
X121541006Y-68335221D01*
X121545856Y-68335603D01*
X121545858Y-68335603D01*
X121599071Y-68339791D01*
X121735147Y-68350500D01*
X122464853Y-68350500D01*
X122600929Y-68339791D01*
X122654142Y-68335603D01*
X122654144Y-68335603D01*
X122658994Y-68335221D01*
X122663723Y-68334086D01*
X122663727Y-68334085D01*
X122906874Y-68275710D01*
X122911610Y-68274573D01*
X123151628Y-68175154D01*
X123373140Y-68039412D01*
X123570689Y-67870689D01*
X123739412Y-67673140D01*
X123875154Y-67451628D01*
X123974573Y-67211610D01*
X123979295Y-67191941D01*
X124034085Y-66963727D01*
X124034086Y-66963723D01*
X124035221Y-66958994D01*
X124038097Y-66922458D01*
X124055222Y-66704854D01*
X124055604Y-66700000D01*
X124035221Y-66441006D01*
X124026931Y-66406473D01*
X123975710Y-66193126D01*
X123974573Y-66188390D01*
X123875154Y-65948372D01*
X123739412Y-65726860D01*
X123678297Y-65655303D01*
X123573850Y-65533012D01*
X123570689Y-65529311D01*
X123373140Y-65360588D01*
X123179378Y-65241851D01*
X123132503Y-65190039D01*
X123121080Y-65121109D01*
X123148737Y-65056946D01*
X123206693Y-65017921D01*
X123227979Y-65013185D01*
X123237183Y-65011973D01*
X123321395Y-64977092D01*
X123357508Y-64962134D01*
X123357510Y-64962133D01*
X123365018Y-64959023D01*
X123474791Y-64874790D01*
X123559024Y-64765016D01*
X123600000Y-64666091D01*
X123608862Y-64644696D01*
X123608863Y-64644693D01*
X123611974Y-64637182D01*
X123630035Y-64499999D01*
X123611974Y-64362816D01*
X123600001Y-64333909D01*
X123573954Y-64271026D01*
X123559024Y-64234982D01*
X123474791Y-64125208D01*
X123365018Y-64040975D01*
X123357510Y-64037865D01*
X123357508Y-64037864D01*
X123321020Y-64022751D01*
X123237183Y-63988025D01*
X123111883Y-63971528D01*
X123108059Y-63971025D01*
X123100000Y-63969964D01*
X123091941Y-63971025D01*
X123088117Y-63971528D01*
X122962817Y-63988025D01*
X122955306Y-63991136D01*
X122955303Y-63991137D01*
X122871027Y-64026045D01*
X122834983Y-64040975D01*
X122725209Y-64125208D01*
X122720265Y-64131651D01*
X122720263Y-64131653D01*
X122698376Y-64160177D01*
X122641949Y-64201380D01*
X122572203Y-64205535D01*
X122511282Y-64171323D01*
X122501625Y-64160178D01*
X122479740Y-64131657D01*
X122479735Y-64131652D01*
X122474791Y-64125209D01*
X122365018Y-64040976D01*
X122357510Y-64037866D01*
X122357508Y-64037865D01*
X122321020Y-64022752D01*
X122237183Y-63988026D01*
X122100000Y-63969965D01*
X121962817Y-63988026D01*
X121955306Y-63991137D01*
X121955303Y-63991138D01*
X121955301Y-63991139D01*
X121834983Y-64040976D01*
X121725209Y-64125209D01*
X121720265Y-64131652D01*
X121720261Y-64131656D01*
X121698375Y-64160178D01*
X121641947Y-64201380D01*
X121572201Y-64205535D01*
X121511281Y-64171322D01*
X121501625Y-64160178D01*
X121479740Y-64131657D01*
X121479735Y-64131652D01*
X121474791Y-64125209D01*
X121365018Y-64040976D01*
X121357510Y-64037866D01*
X121357508Y-64037865D01*
X121321020Y-64022752D01*
X121237183Y-63988026D01*
X121100000Y-63969965D01*
X120962817Y-63988026D01*
X120955306Y-63991137D01*
X120955303Y-63991138D01*
X120955301Y-63991139D01*
X120834983Y-64040976D01*
X120725209Y-64125209D01*
X120640976Y-64234983D01*
X120637865Y-64242494D01*
X120591139Y-64355302D01*
X120588026Y-64362817D01*
X120569965Y-64500000D01*
X120588026Y-64637183D01*
X120640976Y-64765017D01*
X120725209Y-64874791D01*
X120834982Y-64959024D01*
X120842490Y-64962134D01*
X120842492Y-64962135D01*
X120854426Y-64967078D01*
X120962817Y-65011974D01*
X120970879Y-65013035D01*
X120970881Y-65013036D01*
X120972014Y-65013185D01*
X120972900Y-65013577D01*
X120978726Y-65015138D01*
X120978483Y-65016046D01*
X121035911Y-65041451D01*
X121074383Y-65099775D01*
X121075215Y-65169640D01*
X121038143Y-65228863D01*
X121020620Y-65241851D01*
X120831023Y-65358036D01*
X120831015Y-65358042D01*
X120826860Y-65360588D01*
X120629311Y-65529311D01*
X120626150Y-65533012D01*
X120521704Y-65655303D01*
X120460588Y-65726860D01*
X120324846Y-65948372D01*
X120225427Y-66188390D01*
X120224290Y-66193126D01*
X120173070Y-66406473D01*
X120164779Y-66441006D01*
X120144396Y-66700000D01*
X112800000Y-66700000D01*
X112800000Y-61565665D01*
X113395119Y-61565665D01*
X113395412Y-61570747D01*
X113395412Y-61570748D01*
X113400867Y-61665349D01*
X113408376Y-61795580D01*
X113459006Y-62020242D01*
X113545649Y-62233618D01*
X113548311Y-62237962D01*
X113663317Y-62425635D01*
X113663321Y-62425640D01*
X113665979Y-62429978D01*
X113669311Y-62433824D01*
X113669312Y-62433826D01*
X113742636Y-62518473D01*
X113816763Y-62604048D01*
X113820673Y-62607294D01*
X113820677Y-62607298D01*
X113900253Y-62673363D01*
X113993953Y-62751154D01*
X114093516Y-62809334D01*
X114186893Y-62863899D01*
X114192790Y-62867345D01*
X114197543Y-62869160D01*
X114197545Y-62869161D01*
X114222269Y-62878602D01*
X114407934Y-62949501D01*
X114412920Y-62950515D01*
X114412922Y-62950516D01*
X114483822Y-62964940D01*
X114633607Y-62995414D01*
X114783235Y-63000901D01*
X114858670Y-63003667D01*
X114858673Y-63003667D01*
X114863749Y-63003853D01*
X115092178Y-62974591D01*
X115097048Y-62973130D01*
X115307892Y-62909874D01*
X115307895Y-62909873D01*
X115312761Y-62908413D01*
X115317324Y-62906177D01*
X115317328Y-62906176D01*
X115434542Y-62848753D01*
X166634514Y-62848753D01*
X166640364Y-62908413D01*
X166649704Y-63003667D01*
X166652039Y-63027486D01*
X166708726Y-63197896D01*
X166712319Y-63203829D01*
X166712320Y-63203831D01*
X166798168Y-63345583D01*
X166801759Y-63351512D01*
X166926514Y-63480699D01*
X166932308Y-63484490D01*
X166932311Y-63484493D01*
X167028213Y-63547249D01*
X167076789Y-63579036D01*
X167245116Y-63641636D01*
X167423130Y-63665388D01*
X167430031Y-63664760D01*
X167430033Y-63664760D01*
X167537744Y-63654958D01*
X167601981Y-63649112D01*
X167772782Y-63593615D01*
X167927044Y-63501657D01*
X168057099Y-63377807D01*
X168156483Y-63228222D01*
X168220257Y-63060336D01*
X168245251Y-62882493D01*
X168245437Y-62869161D01*
X168245511Y-62863899D01*
X168245511Y-62863892D01*
X168245565Y-62860000D01*
X168225546Y-62681528D01*
X168166485Y-62511927D01*
X168071316Y-62359625D01*
X167944770Y-62232193D01*
X167793136Y-62135963D01*
X167753620Y-62121892D01*
X167630479Y-62078043D01*
X167630475Y-62078042D01*
X167623951Y-62075719D01*
X167445624Y-62054455D01*
X167438735Y-62055179D01*
X167438732Y-62055179D01*
X167273913Y-62072502D01*
X167273911Y-62072502D01*
X167267017Y-62073227D01*
X167260456Y-62075461D01*
X167260454Y-62075461D01*
X167173718Y-62104989D01*
X167097007Y-62131103D01*
X166944045Y-62225206D01*
X166815732Y-62350859D01*
X166718446Y-62501817D01*
X166657022Y-62670578D01*
X166656153Y-62677459D01*
X166639494Y-62809334D01*
X166634514Y-62848753D01*
X115434542Y-62848753D01*
X115519574Y-62807096D01*
X115707062Y-62673363D01*
X115870190Y-62510803D01*
X116004577Y-62323783D01*
X116057354Y-62216998D01*
X116104358Y-62121892D01*
X116104359Y-62121890D01*
X116106615Y-62117325D01*
X116173563Y-61896975D01*
X116203622Y-61668649D01*
X116205300Y-61600000D01*
X116186430Y-61370478D01*
X116130326Y-61147120D01*
X116038496Y-60935924D01*
X116035736Y-60931658D01*
X116035733Y-60931652D01*
X115916167Y-60746832D01*
X115916165Y-60746830D01*
X115913405Y-60742563D01*
X115758412Y-60572229D01*
X115754427Y-60569082D01*
X115754424Y-60569079D01*
X115581672Y-60432648D01*
X115581673Y-60432648D01*
X115577681Y-60429496D01*
X115573235Y-60427042D01*
X115573231Y-60427039D01*
X115380520Y-60320657D01*
X115380517Y-60320656D01*
X115376065Y-60318198D01*
X115158978Y-60241323D01*
X115104575Y-60231632D01*
X114937260Y-60201829D01*
X114937255Y-60201829D01*
X114932250Y-60200937D01*
X114841875Y-60199833D01*
X114707061Y-60198185D01*
X114707059Y-60198185D01*
X114701971Y-60198123D01*
X114696942Y-60198893D01*
X114696936Y-60198893D01*
X114566950Y-60218784D01*
X114474325Y-60232958D01*
X114255424Y-60304506D01*
X114250910Y-60306856D01*
X114055664Y-60408494D01*
X114055658Y-60408498D01*
X114051149Y-60410845D01*
X113866984Y-60549119D01*
X113863469Y-60552798D01*
X113863466Y-60552800D01*
X113834405Y-60583211D01*
X113707877Y-60715616D01*
X113705013Y-60719815D01*
X113705011Y-60719817D01*
X113689495Y-60742563D01*
X113578099Y-60905863D01*
X113481136Y-61114752D01*
X113479774Y-61119662D01*
X113479774Y-61119663D01*
X113464162Y-61175960D01*
X113419592Y-61336673D01*
X113395119Y-61565665D01*
X112800000Y-61565665D01*
X112800000Y-60919758D01*
X112810925Y-60868867D01*
X112848916Y-60784455D01*
X112855874Y-60771196D01*
X112985555Y-60556676D01*
X112994061Y-60544353D01*
X113148652Y-60347032D01*
X113158582Y-60335824D01*
X113335824Y-60158582D01*
X113347032Y-60148652D01*
X113544353Y-59994061D01*
X113556676Y-59985555D01*
X113771196Y-59855874D01*
X113784455Y-59848916D01*
X113868867Y-59810925D01*
X113919758Y-59800000D01*
X169080242Y-59800000D01*
X169131133Y-59810925D01*
G37*
%TD.AperFunction*%
%TD*%
M02*
