%TF.GenerationSoftware,KiCad,Pcbnew,(5.99.0-12896-g1860893d63)*%
%TF.CreationDate,2021-10-25T08:39:38+08:00*%
%TF.ProjectId,Dual-Power,4475616c-2d50-46f7-9765-722e6b696361,rev?*%
%TF.SameCoordinates,Original*%
%TF.FileFunction,Copper,L2,Inr*%
%TF.FilePolarity,Positive*%
%FSLAX46Y46*%
G04 Gerber Fmt 4.6, Leading zero omitted, Abs format (unit mm)*
G04 Created by KiCad (PCBNEW (5.99.0-12896-g1860893d63)) date 2021-10-25 08:39:38*
%MOMM*%
%LPD*%
G01*
G04 APERTURE LIST*
G04 Aperture macros list*
%AMRoundRect*
0 Rectangle with rounded corners*
0 $1 Rounding radius*
0 $2 $3 $4 $5 $6 $7 $8 $9 X,Y pos of 4 corners*
0 Add a 4 corners polygon primitive as box body*
4,1,4,$2,$3,$4,$5,$6,$7,$8,$9,$2,$3,0*
0 Add four circle primitives for the rounded corners*
1,1,$1+$1,$2,$3*
1,1,$1+$1,$4,$5*
1,1,$1+$1,$6,$7*
1,1,$1+$1,$8,$9*
0 Add four rect primitives between the rounded corners*
20,1,$1+$1,$2,$3,$4,$5,0*
20,1,$1+$1,$4,$5,$6,$7,0*
20,1,$1+$1,$6,$7,$8,$9,0*
20,1,$1+$1,$8,$9,$2,$3,0*%
G04 Aperture macros list end*
%TA.AperFunction,ComponentPad*%
%ADD10RoundRect,0.250000X-0.500000X0.500000X-0.500000X-0.500000X0.500000X-0.500000X0.500000X0.500000X0*%
%TD*%
%TA.AperFunction,ComponentPad*%
%ADD11C,1.500000*%
%TD*%
%TA.AperFunction,ComponentPad*%
%ADD12RoundRect,0.250001X1.399999X-1.099999X1.399999X1.099999X-1.399999X1.099999X-1.399999X-1.099999X0*%
%TD*%
%TA.AperFunction,ComponentPad*%
%ADD13O,3.300000X2.700000*%
%TD*%
%TA.AperFunction,ViaPad*%
%ADD14C,0.500000*%
%TD*%
%TA.AperFunction,ViaPad*%
%ADD15C,0.450000*%
%TD*%
%TA.AperFunction,ViaPad*%
%ADD16C,0.550000*%
%TD*%
%TA.AperFunction,Conductor*%
%ADD17C,0.300000*%
%TD*%
G04 APERTURE END LIST*
D10*
%TO.N,Vout1(12V)*%
%TO.C,J1*%
X163500000Y-65860000D03*
D11*
X163500000Y-68860000D03*
X163500000Y-71860000D03*
X163500000Y-74860000D03*
X163500000Y-77860000D03*
%TO.N,GND*%
X166500000Y-65860000D03*
X166500000Y-68860000D03*
X166500000Y-71860000D03*
X166500000Y-74860000D03*
X166500000Y-77860000D03*
%TD*%
D10*
%TO.N,Vout2(-12V)*%
%TO.C,J2*%
X163500000Y-96110000D03*
D11*
X163500000Y-99110000D03*
X163500000Y-102110000D03*
X163500000Y-105110000D03*
X163500000Y-108110000D03*
%TO.N,GND*%
X166500000Y-96110000D03*
X166500000Y-99110000D03*
X166500000Y-102110000D03*
X166500000Y-105110000D03*
X166500000Y-108110000D03*
%TD*%
D12*
%TO.N,VIN*%
%TO.C,J3*%
X122100000Y-70900000D03*
D13*
X122100000Y-66700000D03*
%TO.N,GND*%
X116600000Y-70900000D03*
X116600000Y-66700000D03*
%TD*%
D14*
%TO.N,GND*%
X142400000Y-86160000D03*
X143200000Y-86160000D03*
X144000000Y-86160000D03*
X141600000Y-86960000D03*
X142400000Y-86960000D03*
X143200000Y-86960000D03*
X144000000Y-86960000D03*
X141600000Y-87760000D03*
X142400000Y-87760000D03*
X143200000Y-87760000D03*
X144000000Y-87760000D03*
X141600000Y-88560000D03*
X142400000Y-88560000D03*
X143200000Y-88560000D03*
X144000000Y-88560000D03*
D15*
X169400000Y-61800000D03*
X167400000Y-60700000D03*
X169400000Y-60700000D03*
X168400000Y-60700000D03*
X165400000Y-60700000D03*
X166400000Y-60700000D03*
X165400000Y-113800000D03*
X166400000Y-113800000D03*
X169400000Y-113800000D03*
X167400000Y-113800000D03*
X168400000Y-113800000D03*
X117400000Y-60700000D03*
X118400000Y-60700000D03*
X119400000Y-60700000D03*
X120400000Y-60700000D03*
X121400000Y-60700000D03*
X122400000Y-60700000D03*
X123400000Y-60700000D03*
X124400000Y-60700000D03*
X125400000Y-60700000D03*
X126400000Y-60700000D03*
X127400000Y-60700000D03*
X128400000Y-60700000D03*
X129400000Y-60700000D03*
X130400000Y-60700000D03*
X131400000Y-60700000D03*
X132400000Y-60700000D03*
X133400000Y-60700000D03*
X134400000Y-60700000D03*
X135400000Y-60700000D03*
X136400000Y-60700000D03*
X137400000Y-60700000D03*
X138400000Y-60700000D03*
X139400000Y-60700000D03*
X140400000Y-60700000D03*
X141400000Y-60700000D03*
X142400000Y-60700000D03*
X143400000Y-60700000D03*
X144400000Y-60700000D03*
X145400000Y-60700000D03*
X146400000Y-60700000D03*
X147400000Y-60700000D03*
X148400000Y-60700000D03*
X149400000Y-60700000D03*
X150400000Y-60700000D03*
X151400000Y-60700000D03*
X152400000Y-60700000D03*
X153400000Y-60700000D03*
X154400000Y-60700000D03*
X155400000Y-60700000D03*
X156400000Y-60700000D03*
X157400000Y-60700000D03*
X158400000Y-60700000D03*
X159400000Y-60700000D03*
X160400000Y-60700000D03*
X161400000Y-60700000D03*
X162400000Y-60700000D03*
X163400000Y-60700000D03*
X164400000Y-60700000D03*
X142400000Y-113800000D03*
X128400000Y-113800000D03*
X144400000Y-113800000D03*
X136400000Y-113800000D03*
X134400000Y-113800000D03*
X152400000Y-113800000D03*
X119400000Y-113800000D03*
X129400000Y-113800000D03*
X124400000Y-113800000D03*
X123400000Y-113800000D03*
X118400000Y-113800000D03*
X125400000Y-113800000D03*
X117400000Y-113800000D03*
X137400000Y-113800000D03*
X138400000Y-113800000D03*
X121400000Y-113800000D03*
X141400000Y-113800000D03*
X143400000Y-113800000D03*
X146400000Y-113800000D03*
X149400000Y-113800000D03*
X120400000Y-113800000D03*
X150400000Y-113800000D03*
X151400000Y-113800000D03*
X154400000Y-113800000D03*
X155400000Y-113800000D03*
X147400000Y-113800000D03*
X158400000Y-113800000D03*
X139400000Y-113800000D03*
X159400000Y-113800000D03*
X132400000Y-113800000D03*
X160400000Y-113800000D03*
X161400000Y-113800000D03*
X145400000Y-113800000D03*
X133400000Y-113800000D03*
X130400000Y-113800000D03*
X148400000Y-113800000D03*
X153400000Y-113800000D03*
X122400000Y-113800000D03*
X126400000Y-113800000D03*
X156400000Y-113800000D03*
X157400000Y-113800000D03*
X127400000Y-113800000D03*
X135400000Y-113800000D03*
X131400000Y-113800000D03*
X140400000Y-113800000D03*
X163400000Y-113800000D03*
X164400000Y-113800000D03*
X162400000Y-113800000D03*
X169400000Y-83900000D03*
X169400000Y-72900000D03*
X169400000Y-101900000D03*
X169400000Y-96900000D03*
X169400000Y-86900000D03*
X169400000Y-100900000D03*
X169400000Y-69900000D03*
X169400000Y-91900000D03*
X169400000Y-105900000D03*
X169400000Y-73900000D03*
X169400001Y-107900000D03*
X169400000Y-95900000D03*
X169400001Y-84900000D03*
X169400001Y-103900000D03*
X169400000Y-104900000D03*
X169400000Y-74900000D03*
X169400000Y-108900000D03*
X169400000Y-81900000D03*
X169400000Y-68900000D03*
X169400000Y-88900000D03*
X169400001Y-75900000D03*
X169400000Y-97900000D03*
X169400000Y-76900000D03*
X169400000Y-90900000D03*
X169400000Y-99900000D03*
X169400000Y-67900000D03*
X169400001Y-98900000D03*
X169400000Y-63900000D03*
X169400000Y-106900000D03*
X169400001Y-66900000D03*
X169400001Y-70900000D03*
X169400001Y-93900000D03*
X169400001Y-102900000D03*
X169400001Y-94900000D03*
X169400000Y-65900000D03*
X169400001Y-71900000D03*
X169400000Y-79900000D03*
X169400000Y-85900000D03*
X169400000Y-92900000D03*
X169400001Y-80900000D03*
X169400000Y-64900000D03*
X169400000Y-77900000D03*
X169400001Y-89900000D03*
X169400001Y-112900000D03*
X169400000Y-87900000D03*
X169400000Y-111900000D03*
X169400000Y-78900000D03*
X169400000Y-110900000D03*
X169400001Y-62900000D03*
X169400000Y-109900000D03*
X169400000Y-82900000D03*
D14*
X141600000Y-86160000D03*
D15*
X133750000Y-87500000D03*
X138000000Y-88600000D03*
X140600000Y-89930000D03*
X140100000Y-94350000D03*
X133750000Y-86850000D03*
X133750000Y-88150000D03*
X133750000Y-86200000D03*
%TO.N,VIN*%
X123400000Y-84200000D03*
X123400000Y-85200000D03*
X123400000Y-86200000D03*
X123400000Y-87200000D03*
X123400000Y-88200000D03*
X123400000Y-89200000D03*
X121800000Y-86200000D03*
X121800000Y-87200000D03*
X122600000Y-88700000D03*
X121800000Y-89200000D03*
X121800000Y-84200000D03*
X121800000Y-85200000D03*
X122600000Y-89700000D03*
X122600000Y-84700000D03*
X122600000Y-86700000D03*
X122600000Y-87700000D03*
X122600000Y-85700000D03*
X121800000Y-88200000D03*
X123100000Y-73199999D03*
X121100000Y-73200000D03*
X122100000Y-73200000D03*
X121100000Y-64500000D03*
X123100000Y-64499999D03*
X122100000Y-64500000D03*
X123400000Y-81500000D03*
X146849982Y-87199990D03*
X135910016Y-91010014D03*
X123400000Y-92200000D03*
%TO.N,INTVcc*%
X135950000Y-88600000D03*
X138950000Y-88000000D03*
X139200000Y-94600000D03*
%TO.N,Vout2(-12V)*%
X160400000Y-96900000D03*
X157400000Y-96900000D03*
X161400000Y-96900000D03*
X158400000Y-96900000D03*
X159400000Y-96900000D03*
X158400000Y-94900000D03*
X159400000Y-95900000D03*
X158400000Y-95900000D03*
X161400000Y-94900000D03*
X159400000Y-94900000D03*
X157400000Y-95900000D03*
X157400000Y-94900000D03*
X160400000Y-95900000D03*
X161400000Y-95900000D03*
X160400000Y-94900000D03*
X160900000Y-105300000D03*
X160900000Y-106700000D03*
X160900000Y-101800000D03*
X160900000Y-108100000D03*
X160900000Y-103200000D03*
X160900000Y-107400000D03*
X160900000Y-106000000D03*
X160900000Y-104600000D03*
X160900000Y-103900000D03*
X160900000Y-102500000D03*
X144099998Y-97800001D03*
%TO.N,Net-(C23-Pad1)*%
X147600000Y-80200000D03*
%TO.N,Vout1(12V)*%
X160500000Y-65800000D03*
X160500000Y-68600000D03*
X160500000Y-67900000D03*
X160500000Y-67200000D03*
X160500000Y-66500000D03*
X160500000Y-69300000D03*
X160500000Y-70000000D03*
X160500000Y-71400000D03*
X160500000Y-70700000D03*
X160500000Y-72100000D03*
X158300000Y-76600000D03*
X159300000Y-76600000D03*
X160300000Y-76600000D03*
X161300000Y-76600000D03*
X157300000Y-77600000D03*
X158300000Y-77600000D03*
X159300000Y-77600000D03*
X160300000Y-77600000D03*
X161300000Y-77600000D03*
X157300000Y-78600000D03*
X158300000Y-78600000D03*
X159300000Y-78600000D03*
X160300000Y-78600000D03*
X161300000Y-78600000D03*
X157300000Y-76600000D03*
X157850000Y-70800000D03*
X140250000Y-84350000D03*
%TO.N,Net-(C25-Pad1)*%
X154950000Y-70800000D03*
X141200000Y-83600000D03*
%TO.N,Net-(D1-Pad2)*%
X137940000Y-86200000D03*
%TO.N,Net-(D2-Pad2)*%
X137940000Y-87410000D03*
%TO.N,Net-(Q1-Pad4)*%
X136100000Y-104350000D03*
D16*
X144850000Y-90900000D03*
D15*
%TO.N,Net-(Q1-Pad1)*%
X138000000Y-93650000D03*
X138000000Y-103300000D03*
%TO.N,Net-(Q2-Pad4)*%
X146850000Y-86050000D03*
D16*
X136900000Y-81900000D03*
D15*
%TO.N,Net-(Q3-Pad4)*%
X137000000Y-68700000D03*
X137000000Y-74400000D03*
X146150001Y-83550005D03*
%TD*%
D17*
%TO.N,Vout2(-12V)*%
X156499999Y-97800001D02*
X157400000Y-96900000D01*
X144099998Y-97800001D02*
X156499999Y-97800001D01*
%TO.N,Vout1(12V)*%
X140250000Y-84350000D02*
X140250000Y-78350000D01*
X140250000Y-78350000D02*
X148400000Y-70200000D01*
X148400000Y-70200000D02*
X157250000Y-70200000D01*
X157250000Y-70200000D02*
X157850000Y-70800000D01*
%TO.N,Net-(C25-Pad1)*%
X141000000Y-78550000D02*
X148750000Y-70800000D01*
X148750000Y-70800000D02*
X154950000Y-70800000D01*
X141200000Y-83600000D02*
X141000000Y-83400000D01*
X141000000Y-83400000D02*
X141000000Y-78550000D01*
%TO.N,Net-(Q1-Pad1)*%
X138000000Y-93650000D02*
X138000000Y-103300000D01*
%TD*%
%TA.AperFunction,Conductor*%
%TO.N,GND*%
G36*
X169131133Y-59810925D02*
G01*
X169215545Y-59848916D01*
X169228804Y-59855874D01*
X169443324Y-59985555D01*
X169455647Y-59994061D01*
X169652968Y-60148652D01*
X169664176Y-60158582D01*
X169841418Y-60335824D01*
X169851348Y-60347032D01*
X170005939Y-60544353D01*
X170014445Y-60556676D01*
X170144126Y-60771196D01*
X170151084Y-60784455D01*
X170189075Y-60868867D01*
X170200000Y-60919758D01*
X170200000Y-113580242D01*
X170189075Y-113631133D01*
X170151084Y-113715545D01*
X170144126Y-113728804D01*
X170014445Y-113943324D01*
X170005941Y-113955644D01*
X169889600Y-114104143D01*
X169851348Y-114152968D01*
X169841418Y-114164176D01*
X169664176Y-114341418D01*
X169652968Y-114351348D01*
X169455647Y-114505939D01*
X169443324Y-114514445D01*
X169228804Y-114644126D01*
X169215545Y-114651084D01*
X169131133Y-114689075D01*
X169080242Y-114700000D01*
X113919758Y-114700000D01*
X113868867Y-114689075D01*
X113784455Y-114651084D01*
X113771196Y-114644126D01*
X113556676Y-114514445D01*
X113544353Y-114505939D01*
X113347032Y-114351348D01*
X113335824Y-114341418D01*
X113158582Y-114164176D01*
X113148652Y-114152968D01*
X113110400Y-114104143D01*
X112994059Y-113955644D01*
X112985555Y-113943324D01*
X112855874Y-113728804D01*
X112848916Y-113715545D01*
X112810925Y-113631133D01*
X112800000Y-113580242D01*
X112800000Y-112865665D01*
X113395119Y-112865665D01*
X113395412Y-112870747D01*
X113395412Y-112870748D01*
X113400857Y-112965181D01*
X113408376Y-113095580D01*
X113459006Y-113320242D01*
X113545649Y-113533618D01*
X113548311Y-113537962D01*
X113663317Y-113725635D01*
X113663321Y-113725640D01*
X113665979Y-113729978D01*
X113669311Y-113733824D01*
X113669312Y-113733826D01*
X113739108Y-113814400D01*
X113816763Y-113904048D01*
X113820673Y-113907294D01*
X113820677Y-113907298D01*
X113900253Y-113973363D01*
X113993953Y-114051154D01*
X114093516Y-114109334D01*
X114178287Y-114158870D01*
X114192790Y-114167345D01*
X114197543Y-114169160D01*
X114197545Y-114169161D01*
X114265584Y-114195142D01*
X114407934Y-114249501D01*
X114412920Y-114250515D01*
X114412922Y-114250516D01*
X114483822Y-114264940D01*
X114633607Y-114295414D01*
X114783235Y-114300901D01*
X114858670Y-114303667D01*
X114858673Y-114303667D01*
X114863749Y-114303853D01*
X115092178Y-114274591D01*
X115097048Y-114273130D01*
X115307892Y-114209874D01*
X115307895Y-114209873D01*
X115312761Y-114208413D01*
X115317324Y-114206177D01*
X115317328Y-114206176D01*
X115425938Y-114152968D01*
X115519574Y-114107096D01*
X115707062Y-113973363D01*
X115870190Y-113810803D01*
X116004577Y-113623783D01*
X116106615Y-113417325D01*
X116173563Y-113196975D01*
X116203622Y-112968649D01*
X116205300Y-112900000D01*
X116186430Y-112670478D01*
X116130326Y-112447120D01*
X116038496Y-112235924D01*
X116035736Y-112231658D01*
X116035733Y-112231652D01*
X115916167Y-112046832D01*
X115916165Y-112046830D01*
X115913405Y-112042563D01*
X115758412Y-111872229D01*
X115754427Y-111869082D01*
X115754424Y-111869079D01*
X115581672Y-111732648D01*
X115581673Y-111732648D01*
X115577681Y-111729496D01*
X115573235Y-111727042D01*
X115573231Y-111727039D01*
X115380520Y-111620657D01*
X115380517Y-111620656D01*
X115376065Y-111618198D01*
X115158978Y-111541323D01*
X115104575Y-111531632D01*
X114937260Y-111501829D01*
X114937255Y-111501829D01*
X114932250Y-111500937D01*
X114841875Y-111499833D01*
X114707061Y-111498185D01*
X114707059Y-111498185D01*
X114701971Y-111498123D01*
X114696942Y-111498893D01*
X114696936Y-111498893D01*
X114566950Y-111518784D01*
X114474325Y-111532958D01*
X114255424Y-111604506D01*
X114250910Y-111606856D01*
X114055664Y-111708494D01*
X114055658Y-111708498D01*
X114051149Y-111710845D01*
X114026308Y-111729496D01*
X113874315Y-111843615D01*
X113866984Y-111849119D01*
X113863469Y-111852798D01*
X113863466Y-111852800D01*
X113804256Y-111914760D01*
X113707877Y-112015616D01*
X113705013Y-112019815D01*
X113705011Y-112019817D01*
X113689495Y-112042563D01*
X113578099Y-112205863D01*
X113481136Y-112414752D01*
X113479774Y-112419662D01*
X113479774Y-112419663D01*
X113472160Y-112447120D01*
X113419592Y-112636673D01*
X113395119Y-112865665D01*
X112800000Y-112865665D01*
X112800000Y-111098753D01*
X166634514Y-111098753D01*
X166652039Y-111277486D01*
X166708726Y-111447896D01*
X166712319Y-111453829D01*
X166712320Y-111453831D01*
X166741389Y-111501829D01*
X166801759Y-111601512D01*
X166926514Y-111730699D01*
X166932308Y-111734490D01*
X166932311Y-111734493D01*
X167028213Y-111797249D01*
X167076789Y-111829036D01*
X167245116Y-111891636D01*
X167423130Y-111915388D01*
X167430031Y-111914760D01*
X167430033Y-111914760D01*
X167537744Y-111904958D01*
X167601981Y-111899112D01*
X167772782Y-111843615D01*
X167927044Y-111751657D01*
X167945068Y-111734493D01*
X168052080Y-111632587D01*
X168052082Y-111632585D01*
X168057099Y-111627807D01*
X168141391Y-111500937D01*
X168152645Y-111483999D01*
X168152646Y-111483997D01*
X168156483Y-111478222D01*
X168220257Y-111310336D01*
X168245251Y-111132493D01*
X168245565Y-111110000D01*
X168225546Y-110931528D01*
X168166485Y-110761927D01*
X168071316Y-110609625D01*
X167944770Y-110482193D01*
X167793136Y-110385963D01*
X167773219Y-110378871D01*
X167630479Y-110328043D01*
X167630475Y-110328042D01*
X167623951Y-110325719D01*
X167445624Y-110304455D01*
X167438735Y-110305179D01*
X167438732Y-110305179D01*
X167273913Y-110322502D01*
X167273911Y-110322502D01*
X167267017Y-110323227D01*
X167260456Y-110325461D01*
X167260454Y-110325461D01*
X167173718Y-110354989D01*
X167097007Y-110381103D01*
X166944045Y-110475206D01*
X166815732Y-110600859D01*
X166718446Y-110751817D01*
X166657022Y-110920578D01*
X166634514Y-111098753D01*
X112800000Y-111098753D01*
X112800000Y-108100000D01*
X160369965Y-108100000D01*
X160388026Y-108237183D01*
X160391137Y-108244694D01*
X160391138Y-108244697D01*
X160426046Y-108328973D01*
X160440976Y-108365017D01*
X160525209Y-108474791D01*
X160634982Y-108559024D01*
X160642490Y-108562134D01*
X160642492Y-108562135D01*
X160678980Y-108577248D01*
X160762817Y-108611974D01*
X160900000Y-108630035D01*
X161037183Y-108611974D01*
X161121020Y-108577248D01*
X161157508Y-108562135D01*
X161157510Y-108562134D01*
X161165018Y-108559024D01*
X161274791Y-108474791D01*
X161359024Y-108365017D01*
X161373954Y-108328973D01*
X161408862Y-108244697D01*
X161408863Y-108244694D01*
X161411974Y-108237183D01*
X161430035Y-108100000D01*
X161429411Y-108095262D01*
X162444520Y-108095262D01*
X162461759Y-108300553D01*
X162518544Y-108498586D01*
X162612712Y-108681818D01*
X162616480Y-108686572D01*
X162645402Y-108723062D01*
X162740677Y-108843270D01*
X162745296Y-108847201D01*
X162892950Y-108972865D01*
X162892955Y-108972869D01*
X162897564Y-108976791D01*
X163077398Y-109077297D01*
X163273329Y-109140959D01*
X163279347Y-109141677D01*
X163279349Y-109141677D01*
X163421410Y-109158616D01*
X163477894Y-109165351D01*
X163483938Y-109164886D01*
X163483939Y-109164886D01*
X163545266Y-109160167D01*
X163683300Y-109149546D01*
X163768596Y-109125731D01*
X163875885Y-109095776D01*
X163875889Y-109095774D01*
X163881725Y-109094145D01*
X164065610Y-109001258D01*
X164227951Y-108874424D01*
X164231907Y-108869840D01*
X164231911Y-108869837D01*
X164358602Y-108723062D01*
X164362564Y-108718472D01*
X164383387Y-108681818D01*
X164461327Y-108544618D01*
X164464323Y-108539344D01*
X164529351Y-108343863D01*
X164534823Y-108300553D01*
X164554736Y-108142919D01*
X164554736Y-108142915D01*
X164555171Y-108139474D01*
X164555583Y-108110000D01*
X164553547Y-108089232D01*
X164536072Y-107911006D01*
X164536072Y-107911004D01*
X164535480Y-107904970D01*
X164475935Y-107707749D01*
X164389240Y-107544697D01*
X164382065Y-107531203D01*
X164382064Y-107531201D01*
X164379218Y-107525849D01*
X164249011Y-107366200D01*
X164090275Y-107234882D01*
X163999665Y-107185889D01*
X163914393Y-107139783D01*
X163914391Y-107139782D01*
X163909055Y-107136897D01*
X163899991Y-107134091D01*
X163718046Y-107077770D01*
X163718047Y-107077770D01*
X163712254Y-107075977D01*
X163507369Y-107054443D01*
X163501336Y-107054992D01*
X163501332Y-107054992D01*
X163375721Y-107066424D01*
X163302203Y-107073114D01*
X163296390Y-107074825D01*
X163296389Y-107074825D01*
X163110392Y-107129567D01*
X163104572Y-107131280D01*
X163083122Y-107142494D01*
X162927374Y-107223917D01*
X162927370Y-107223920D01*
X162922002Y-107226726D01*
X162917279Y-107230523D01*
X162917278Y-107230524D01*
X162877114Y-107262817D01*
X162761447Y-107355815D01*
X162629024Y-107513630D01*
X162529776Y-107694162D01*
X162467484Y-107890532D01*
X162444520Y-108095262D01*
X161429411Y-108095262D01*
X161411974Y-107962817D01*
X161390514Y-107911006D01*
X161362135Y-107842494D01*
X161359024Y-107834983D01*
X161354075Y-107828533D01*
X161354073Y-107828530D01*
X161351740Y-107825489D01*
X161350568Y-107822458D01*
X161350011Y-107821493D01*
X161350161Y-107821406D01*
X161326543Y-107760321D01*
X161340580Y-107691876D01*
X161351740Y-107674511D01*
X161354073Y-107671470D01*
X161354075Y-107671467D01*
X161359024Y-107665017D01*
X161411974Y-107537183D01*
X161430035Y-107400000D01*
X161411974Y-107262817D01*
X161359024Y-107134983D01*
X161354075Y-107128533D01*
X161354073Y-107128530D01*
X161351740Y-107125489D01*
X161350568Y-107122458D01*
X161350011Y-107121493D01*
X161350161Y-107121406D01*
X161326543Y-107060321D01*
X161340580Y-106991876D01*
X161351740Y-106974511D01*
X161354073Y-106971470D01*
X161354075Y-106971467D01*
X161359024Y-106965017D01*
X161411974Y-106837183D01*
X161430035Y-106700000D01*
X161411974Y-106562817D01*
X161359024Y-106434983D01*
X161354075Y-106428533D01*
X161354073Y-106428530D01*
X161351740Y-106425489D01*
X161350568Y-106422458D01*
X161350011Y-106421493D01*
X161350161Y-106421406D01*
X161326543Y-106360321D01*
X161340580Y-106291876D01*
X161351740Y-106274511D01*
X161354073Y-106271470D01*
X161354075Y-106271467D01*
X161359024Y-106265017D01*
X161411974Y-106137183D01*
X161430035Y-106000000D01*
X161411974Y-105862817D01*
X161403878Y-105843270D01*
X161362135Y-105742494D01*
X161359024Y-105734983D01*
X161354075Y-105728533D01*
X161354073Y-105728530D01*
X161351740Y-105725489D01*
X161350568Y-105722458D01*
X161350011Y-105721493D01*
X161350161Y-105721406D01*
X161326543Y-105660321D01*
X161340580Y-105591876D01*
X161351740Y-105574511D01*
X161354073Y-105571470D01*
X161354075Y-105571467D01*
X161359024Y-105565017D01*
X161411974Y-105437183D01*
X161430035Y-105300000D01*
X161411974Y-105162817D01*
X161400869Y-105136005D01*
X161383992Y-105095262D01*
X162444520Y-105095262D01*
X162461759Y-105300553D01*
X162518544Y-105498586D01*
X162612712Y-105681818D01*
X162616480Y-105686572D01*
X162645402Y-105723062D01*
X162740677Y-105843270D01*
X162745296Y-105847201D01*
X162892950Y-105972865D01*
X162892955Y-105972869D01*
X162897564Y-105976791D01*
X163077398Y-106077297D01*
X163222785Y-106124536D01*
X163261708Y-106137183D01*
X163273329Y-106140959D01*
X163279347Y-106141677D01*
X163279349Y-106141677D01*
X163421410Y-106158616D01*
X163477894Y-106165351D01*
X163483938Y-106164886D01*
X163483939Y-106164886D01*
X163545266Y-106160167D01*
X163683300Y-106149546D01*
X163768596Y-106125731D01*
X163875885Y-106095776D01*
X163875889Y-106095774D01*
X163881725Y-106094145D01*
X164065610Y-106001258D01*
X164227951Y-105874424D01*
X164231907Y-105869840D01*
X164231911Y-105869837D01*
X164358602Y-105723062D01*
X164362564Y-105718472D01*
X164368443Y-105708124D01*
X164461327Y-105544618D01*
X164464323Y-105539344D01*
X164529351Y-105343863D01*
X164534823Y-105300553D01*
X164554736Y-105142919D01*
X164554736Y-105142915D01*
X164555171Y-105139474D01*
X164555583Y-105110000D01*
X164546905Y-105021493D01*
X164536072Y-104911006D01*
X164536072Y-104911004D01*
X164535480Y-104904970D01*
X164475935Y-104707749D01*
X164379218Y-104525849D01*
X164249011Y-104366200D01*
X164229429Y-104350000D01*
X164094946Y-104238746D01*
X164094945Y-104238745D01*
X164090275Y-104234882D01*
X163909055Y-104136897D01*
X163899991Y-104134091D01*
X163718046Y-104077770D01*
X163718047Y-104077770D01*
X163712254Y-104075977D01*
X163507369Y-104054443D01*
X163501336Y-104054992D01*
X163501332Y-104054992D01*
X163375721Y-104066424D01*
X163302203Y-104073114D01*
X163296390Y-104074825D01*
X163296389Y-104074825D01*
X163236355Y-104092494D01*
X163104572Y-104131280D01*
X163054407Y-104157506D01*
X162927374Y-104223917D01*
X162927370Y-104223920D01*
X162922002Y-104226726D01*
X162917279Y-104230523D01*
X162917278Y-104230524D01*
X162905892Y-104239679D01*
X162761447Y-104355815D01*
X162629024Y-104513630D01*
X162529776Y-104694162D01*
X162527942Y-104699944D01*
X162527941Y-104699946D01*
X162471271Y-104878594D01*
X162467484Y-104890532D01*
X162444520Y-105095262D01*
X161383992Y-105095262D01*
X161362135Y-105042494D01*
X161359024Y-105034983D01*
X161354075Y-105028533D01*
X161354073Y-105028530D01*
X161351740Y-105025489D01*
X161350568Y-105022458D01*
X161350011Y-105021493D01*
X161350161Y-105021406D01*
X161326543Y-104960321D01*
X161340580Y-104891876D01*
X161351740Y-104874511D01*
X161354073Y-104871470D01*
X161354075Y-104871467D01*
X161359024Y-104865017D01*
X161411974Y-104737183D01*
X161430035Y-104600000D01*
X161411974Y-104462817D01*
X161359024Y-104334983D01*
X161354075Y-104328533D01*
X161354073Y-104328530D01*
X161351740Y-104325489D01*
X161350568Y-104322458D01*
X161350011Y-104321493D01*
X161350161Y-104321406D01*
X161326543Y-104260321D01*
X161340580Y-104191876D01*
X161351740Y-104174511D01*
X161354073Y-104171470D01*
X161354075Y-104171467D01*
X161359024Y-104165017D01*
X161394845Y-104078536D01*
X161408862Y-104044697D01*
X161408863Y-104044694D01*
X161411974Y-104037183D01*
X161430035Y-103900000D01*
X161411974Y-103762817D01*
X161359024Y-103634983D01*
X161354075Y-103628533D01*
X161354073Y-103628530D01*
X161351740Y-103625489D01*
X161350568Y-103622458D01*
X161350011Y-103621493D01*
X161350161Y-103621406D01*
X161326543Y-103560321D01*
X161340580Y-103491876D01*
X161351740Y-103474511D01*
X161354073Y-103471470D01*
X161354075Y-103471467D01*
X161359024Y-103465017D01*
X161411974Y-103337183D01*
X161430035Y-103200000D01*
X161411974Y-103062817D01*
X161395844Y-103023874D01*
X161362135Y-102942494D01*
X161359024Y-102934983D01*
X161354075Y-102928533D01*
X161354073Y-102928530D01*
X161351740Y-102925489D01*
X161350568Y-102922458D01*
X161350011Y-102921493D01*
X161350161Y-102921406D01*
X161326543Y-102860321D01*
X161340580Y-102791876D01*
X161351740Y-102774511D01*
X161354073Y-102771470D01*
X161354075Y-102771467D01*
X161359024Y-102765017D01*
X161411974Y-102637183D01*
X161430035Y-102500000D01*
X161411974Y-102362817D01*
X161401633Y-102337850D01*
X161362135Y-102242494D01*
X161359024Y-102234983D01*
X161354075Y-102228533D01*
X161354073Y-102228530D01*
X161351740Y-102225489D01*
X161350568Y-102222458D01*
X161350011Y-102221493D01*
X161350161Y-102221406D01*
X161326543Y-102160321D01*
X161339886Y-102095262D01*
X162444520Y-102095262D01*
X162461759Y-102300553D01*
X162518544Y-102498586D01*
X162612712Y-102681818D01*
X162616480Y-102686572D01*
X162689416Y-102778594D01*
X162740677Y-102843270D01*
X162745296Y-102847201D01*
X162892950Y-102972865D01*
X162892955Y-102972869D01*
X162897564Y-102976791D01*
X163077398Y-103077297D01*
X163273329Y-103140959D01*
X163279347Y-103141677D01*
X163279349Y-103141677D01*
X163393626Y-103155303D01*
X163477894Y-103165351D01*
X163483938Y-103164886D01*
X163483939Y-103164886D01*
X163545266Y-103160167D01*
X163683300Y-103149546D01*
X163768596Y-103125731D01*
X163875885Y-103095776D01*
X163875889Y-103095774D01*
X163881725Y-103094145D01*
X164065610Y-103001258D01*
X164227951Y-102874424D01*
X164231907Y-102869840D01*
X164231911Y-102869837D01*
X164358602Y-102723062D01*
X164362564Y-102718472D01*
X164383387Y-102681818D01*
X164461327Y-102544618D01*
X164464323Y-102539344D01*
X164523046Y-102362817D01*
X164527439Y-102349611D01*
X164527439Y-102349610D01*
X164529351Y-102343863D01*
X164534823Y-102300553D01*
X164554736Y-102142919D01*
X164554736Y-102142915D01*
X164555171Y-102139474D01*
X164555583Y-102110000D01*
X164551805Y-102071470D01*
X164536072Y-101911006D01*
X164536072Y-101911004D01*
X164535480Y-101904970D01*
X164475935Y-101707749D01*
X164379218Y-101525849D01*
X164249011Y-101366200D01*
X164224503Y-101345925D01*
X164094946Y-101238746D01*
X164094945Y-101238745D01*
X164090275Y-101234882D01*
X163909055Y-101136897D01*
X163899991Y-101134091D01*
X163718046Y-101077770D01*
X163718047Y-101077770D01*
X163712254Y-101075977D01*
X163507369Y-101054443D01*
X163501336Y-101054992D01*
X163501332Y-101054992D01*
X163375721Y-101066424D01*
X163302203Y-101073114D01*
X163296390Y-101074825D01*
X163296389Y-101074825D01*
X163292475Y-101075977D01*
X163104572Y-101131280D01*
X163020819Y-101175065D01*
X162927374Y-101223917D01*
X162927370Y-101223920D01*
X162922002Y-101226726D01*
X162917279Y-101230523D01*
X162917278Y-101230524D01*
X162773748Y-101345925D01*
X162761447Y-101355815D01*
X162629024Y-101513630D01*
X162529776Y-101694162D01*
X162467484Y-101890532D01*
X162463156Y-101929120D01*
X162446390Y-102078594D01*
X162444520Y-102095262D01*
X161339886Y-102095262D01*
X161340580Y-102091876D01*
X161351740Y-102074511D01*
X161354073Y-102071470D01*
X161354075Y-102071467D01*
X161359024Y-102065017D01*
X161411974Y-101937183D01*
X161430035Y-101800000D01*
X161411974Y-101662817D01*
X161359024Y-101534983D01*
X161274791Y-101425209D01*
X161165018Y-101340976D01*
X161157510Y-101337866D01*
X161157508Y-101337865D01*
X161121020Y-101322752D01*
X161037183Y-101288026D01*
X160900000Y-101269965D01*
X160762817Y-101288026D01*
X160755306Y-101291137D01*
X160755303Y-101291138D01*
X160755301Y-101291139D01*
X160634983Y-101340976D01*
X160525209Y-101425209D01*
X160440976Y-101534983D01*
X160388026Y-101662817D01*
X160369965Y-101800000D01*
X160388026Y-101937183D01*
X160440976Y-102065017D01*
X160445925Y-102071467D01*
X160445927Y-102071470D01*
X160448260Y-102074511D01*
X160449432Y-102077542D01*
X160449989Y-102078507D01*
X160449839Y-102078594D01*
X160473457Y-102139679D01*
X160459420Y-102208124D01*
X160448260Y-102225489D01*
X160445927Y-102228530D01*
X160445925Y-102228533D01*
X160440976Y-102234983D01*
X160437865Y-102242494D01*
X160398368Y-102337850D01*
X160388026Y-102362817D01*
X160369965Y-102500000D01*
X160388026Y-102637183D01*
X160440976Y-102765017D01*
X160445925Y-102771467D01*
X160445927Y-102771470D01*
X160448260Y-102774511D01*
X160449432Y-102777542D01*
X160449989Y-102778507D01*
X160449839Y-102778594D01*
X160473457Y-102839679D01*
X160459420Y-102908124D01*
X160448260Y-102925489D01*
X160445927Y-102928530D01*
X160445925Y-102928533D01*
X160440976Y-102934983D01*
X160437865Y-102942494D01*
X160404157Y-103023874D01*
X160388026Y-103062817D01*
X160369965Y-103200000D01*
X160388026Y-103337183D01*
X160440976Y-103465017D01*
X160445925Y-103471467D01*
X160445927Y-103471470D01*
X160448260Y-103474511D01*
X160449432Y-103477542D01*
X160449989Y-103478507D01*
X160449839Y-103478594D01*
X160473457Y-103539679D01*
X160459420Y-103608124D01*
X160448260Y-103625489D01*
X160445927Y-103628530D01*
X160445925Y-103628533D01*
X160440976Y-103634983D01*
X160388026Y-103762817D01*
X160369965Y-103900000D01*
X160388026Y-104037183D01*
X160391137Y-104044694D01*
X160391138Y-104044697D01*
X160405155Y-104078536D01*
X160440976Y-104165017D01*
X160445925Y-104171467D01*
X160445927Y-104171470D01*
X160448260Y-104174511D01*
X160449432Y-104177542D01*
X160449989Y-104178507D01*
X160449839Y-104178594D01*
X160473457Y-104239679D01*
X160459420Y-104308124D01*
X160448260Y-104325489D01*
X160445927Y-104328530D01*
X160445925Y-104328533D01*
X160440976Y-104334983D01*
X160388026Y-104462817D01*
X160369965Y-104600000D01*
X160388026Y-104737183D01*
X160440976Y-104865017D01*
X160445925Y-104871467D01*
X160445927Y-104871470D01*
X160448260Y-104874511D01*
X160449432Y-104877542D01*
X160449989Y-104878507D01*
X160449839Y-104878594D01*
X160473457Y-104939679D01*
X160459420Y-105008124D01*
X160448260Y-105025489D01*
X160445927Y-105028530D01*
X160445925Y-105028533D01*
X160440976Y-105034983D01*
X160437865Y-105042494D01*
X160399132Y-105136005D01*
X160388026Y-105162817D01*
X160369965Y-105300000D01*
X160388026Y-105437183D01*
X160440976Y-105565017D01*
X160445925Y-105571467D01*
X160445927Y-105571470D01*
X160448260Y-105574511D01*
X160449432Y-105577542D01*
X160449989Y-105578507D01*
X160449839Y-105578594D01*
X160473457Y-105639679D01*
X160459420Y-105708124D01*
X160448260Y-105725489D01*
X160445927Y-105728530D01*
X160445925Y-105728533D01*
X160440976Y-105734983D01*
X160437865Y-105742494D01*
X160396123Y-105843270D01*
X160388026Y-105862817D01*
X160369965Y-106000000D01*
X160388026Y-106137183D01*
X160440976Y-106265017D01*
X160445925Y-106271467D01*
X160445927Y-106271470D01*
X160448260Y-106274511D01*
X160449432Y-106277542D01*
X160449989Y-106278507D01*
X160449839Y-106278594D01*
X160473457Y-106339679D01*
X160459420Y-106408124D01*
X160448260Y-106425489D01*
X160445927Y-106428530D01*
X160445925Y-106428533D01*
X160440976Y-106434983D01*
X160388026Y-106562817D01*
X160369965Y-106700000D01*
X160388026Y-106837183D01*
X160440976Y-106965017D01*
X160445925Y-106971467D01*
X160445927Y-106971470D01*
X160448260Y-106974511D01*
X160449432Y-106977542D01*
X160449989Y-106978507D01*
X160449839Y-106978594D01*
X160473457Y-107039679D01*
X160459420Y-107108124D01*
X160448260Y-107125489D01*
X160445927Y-107128530D01*
X160445925Y-107128533D01*
X160440976Y-107134983D01*
X160388026Y-107262817D01*
X160369965Y-107400000D01*
X160388026Y-107537183D01*
X160440976Y-107665017D01*
X160445925Y-107671467D01*
X160445927Y-107671470D01*
X160448260Y-107674511D01*
X160449432Y-107677542D01*
X160449989Y-107678507D01*
X160449839Y-107678594D01*
X160473457Y-107739679D01*
X160459420Y-107808124D01*
X160448260Y-107825489D01*
X160445927Y-107828530D01*
X160445925Y-107828533D01*
X160440976Y-107834983D01*
X160437865Y-107842494D01*
X160409487Y-107911006D01*
X160388026Y-107962817D01*
X160369965Y-108100000D01*
X112800000Y-108100000D01*
X112800000Y-104350000D01*
X135569965Y-104350000D01*
X135588026Y-104487183D01*
X135591137Y-104494694D01*
X135591138Y-104494697D01*
X135601183Y-104518947D01*
X135640976Y-104615017D01*
X135725209Y-104724791D01*
X135834982Y-104809024D01*
X135842490Y-104812134D01*
X135842492Y-104812135D01*
X135878980Y-104827248D01*
X135962817Y-104861974D01*
X136100000Y-104880035D01*
X136237183Y-104861974D01*
X136321020Y-104827248D01*
X136357508Y-104812135D01*
X136357510Y-104812134D01*
X136365018Y-104809024D01*
X136474791Y-104724791D01*
X136559024Y-104615017D01*
X136598817Y-104518947D01*
X136608862Y-104494697D01*
X136608863Y-104494694D01*
X136611974Y-104487183D01*
X136630035Y-104350000D01*
X136611974Y-104212817D01*
X136597763Y-104178507D01*
X136562135Y-104092494D01*
X136559024Y-104084983D01*
X136474791Y-103975209D01*
X136365018Y-103890976D01*
X136357510Y-103887866D01*
X136357508Y-103887865D01*
X136321020Y-103872752D01*
X136237183Y-103838026D01*
X136100000Y-103819965D01*
X135962817Y-103838026D01*
X135955306Y-103841137D01*
X135955303Y-103841138D01*
X135955301Y-103841139D01*
X135834983Y-103890976D01*
X135725209Y-103975209D01*
X135640976Y-104084983D01*
X135637865Y-104092494D01*
X135602238Y-104178507D01*
X135588026Y-104212817D01*
X135569965Y-104350000D01*
X112800000Y-104350000D01*
X112800000Y-103300000D01*
X137469965Y-103300000D01*
X137488026Y-103437183D01*
X137491137Y-103444694D01*
X137491138Y-103444697D01*
X137504743Y-103477542D01*
X137540976Y-103565017D01*
X137625209Y-103674791D01*
X137734982Y-103759024D01*
X137742490Y-103762134D01*
X137742492Y-103762135D01*
X137744139Y-103762817D01*
X137862817Y-103811974D01*
X138000000Y-103830035D01*
X138137183Y-103811974D01*
X138255861Y-103762817D01*
X138257508Y-103762135D01*
X138257510Y-103762134D01*
X138265018Y-103759024D01*
X138374791Y-103674791D01*
X138459024Y-103565017D01*
X138495257Y-103477542D01*
X138508862Y-103444697D01*
X138508863Y-103444694D01*
X138511974Y-103437183D01*
X138530035Y-103300000D01*
X138511974Y-103162817D01*
X138502921Y-103140959D01*
X138459939Y-103037192D01*
X138450500Y-102989740D01*
X138450500Y-99095262D01*
X162444520Y-99095262D01*
X162461759Y-99300553D01*
X162518544Y-99498586D01*
X162612712Y-99681818D01*
X162616480Y-99686572D01*
X162645402Y-99723062D01*
X162740677Y-99843270D01*
X162745296Y-99847201D01*
X162892950Y-99972865D01*
X162892955Y-99972869D01*
X162897564Y-99976791D01*
X163077398Y-100077297D01*
X163273329Y-100140959D01*
X163279347Y-100141677D01*
X163279349Y-100141677D01*
X163421410Y-100158616D01*
X163477894Y-100165351D01*
X163483938Y-100164886D01*
X163483939Y-100164886D01*
X163545266Y-100160167D01*
X163683300Y-100149546D01*
X163768596Y-100125731D01*
X163875885Y-100095776D01*
X163875889Y-100095774D01*
X163881725Y-100094145D01*
X164065610Y-100001258D01*
X164227951Y-99874424D01*
X164231907Y-99869840D01*
X164231911Y-99869837D01*
X164358602Y-99723062D01*
X164362564Y-99718472D01*
X164383387Y-99681818D01*
X164461327Y-99544618D01*
X164464323Y-99539344D01*
X164529351Y-99343863D01*
X164534823Y-99300553D01*
X164554736Y-99142919D01*
X164554736Y-99142915D01*
X164555171Y-99139474D01*
X164555583Y-99110000D01*
X164535480Y-98904970D01*
X164475935Y-98707749D01*
X164379218Y-98525849D01*
X164249011Y-98366200D01*
X164183464Y-98311975D01*
X164094946Y-98238746D01*
X164094945Y-98238745D01*
X164090275Y-98234882D01*
X163909055Y-98136897D01*
X163899991Y-98134091D01*
X163718046Y-98077770D01*
X163718047Y-98077770D01*
X163712254Y-98075977D01*
X163507369Y-98054443D01*
X163501336Y-98054992D01*
X163501332Y-98054992D01*
X163375721Y-98066424D01*
X163302203Y-98073114D01*
X163296390Y-98074825D01*
X163296389Y-98074825D01*
X163124951Y-98125282D01*
X163104572Y-98131280D01*
X163033668Y-98168348D01*
X162927374Y-98223917D01*
X162927370Y-98223920D01*
X162922002Y-98226726D01*
X162917279Y-98230523D01*
X162917278Y-98230524D01*
X162793510Y-98330036D01*
X162761447Y-98355815D01*
X162629024Y-98513630D01*
X162529776Y-98694162D01*
X162467484Y-98890532D01*
X162444520Y-99095262D01*
X138450500Y-99095262D01*
X138450500Y-97800001D01*
X143569963Y-97800001D01*
X143588024Y-97937184D01*
X143640974Y-98065018D01*
X143725207Y-98174792D01*
X143834980Y-98259025D01*
X143842488Y-98262135D01*
X143842490Y-98262136D01*
X143878978Y-98277249D01*
X143962815Y-98311975D01*
X144099998Y-98330036D01*
X144237181Y-98311975D01*
X144362807Y-98259940D01*
X144410259Y-98250501D01*
X156465896Y-98250501D01*
X156480470Y-98251360D01*
X156505104Y-98254276D01*
X156505107Y-98254276D01*
X156514309Y-98255365D01*
X156550973Y-98248669D01*
X156572021Y-98244825D01*
X156575863Y-98244185D01*
X156612038Y-98238746D01*
X156633961Y-98235450D01*
X156640474Y-98232322D01*
X156647572Y-98231026D01*
X156661258Y-98223917D01*
X156699662Y-98203968D01*
X156703145Y-98202228D01*
X156756078Y-98176810D01*
X156761298Y-98171985D01*
X156761519Y-98171836D01*
X156767787Y-98168580D01*
X156772827Y-98164276D01*
X156810096Y-98127007D01*
X156813606Y-98123632D01*
X156848748Y-98091148D01*
X156848750Y-98091145D01*
X156855555Y-98084855D01*
X156859236Y-98078517D01*
X156864827Y-98072276D01*
X157499165Y-97437938D01*
X157539394Y-97411058D01*
X157544699Y-97408861D01*
X157584028Y-97392570D01*
X157657508Y-97362135D01*
X157657510Y-97362134D01*
X157665018Y-97359024D01*
X157774791Y-97274791D01*
X157779736Y-97268347D01*
X157779740Y-97268343D01*
X157801625Y-97239822D01*
X157858053Y-97198620D01*
X157927799Y-97194465D01*
X157988719Y-97228678D01*
X157998375Y-97239822D01*
X158020260Y-97268343D01*
X158020264Y-97268347D01*
X158025209Y-97274791D01*
X158134982Y-97359024D01*
X158142490Y-97362134D01*
X158142492Y-97362135D01*
X158178980Y-97377248D01*
X158262817Y-97411974D01*
X158400000Y-97430035D01*
X158537183Y-97411974D01*
X158621020Y-97377248D01*
X158657508Y-97362135D01*
X158657510Y-97362134D01*
X158665018Y-97359024D01*
X158774791Y-97274791D01*
X158779736Y-97268347D01*
X158779740Y-97268343D01*
X158801625Y-97239822D01*
X158858053Y-97198620D01*
X158927799Y-97194465D01*
X158988719Y-97228678D01*
X158998375Y-97239822D01*
X159020260Y-97268343D01*
X159020264Y-97268347D01*
X159025209Y-97274791D01*
X159134982Y-97359024D01*
X159142490Y-97362134D01*
X159142492Y-97362135D01*
X159178980Y-97377248D01*
X159262817Y-97411974D01*
X159400000Y-97430035D01*
X159537183Y-97411974D01*
X159621020Y-97377248D01*
X159657508Y-97362135D01*
X159657510Y-97362134D01*
X159665018Y-97359024D01*
X159774791Y-97274791D01*
X159779736Y-97268347D01*
X159779740Y-97268343D01*
X159801625Y-97239822D01*
X159858053Y-97198620D01*
X159927799Y-97194465D01*
X159988719Y-97228678D01*
X159998375Y-97239822D01*
X160020260Y-97268343D01*
X160020264Y-97268347D01*
X160025209Y-97274791D01*
X160134982Y-97359024D01*
X160142490Y-97362134D01*
X160142492Y-97362135D01*
X160178980Y-97377248D01*
X160262817Y-97411974D01*
X160400000Y-97430035D01*
X160537183Y-97411974D01*
X160621020Y-97377248D01*
X160657508Y-97362135D01*
X160657510Y-97362134D01*
X160665018Y-97359024D01*
X160774791Y-97274791D01*
X160779736Y-97268347D01*
X160779740Y-97268343D01*
X160801625Y-97239822D01*
X160858053Y-97198620D01*
X160927799Y-97194465D01*
X160988719Y-97228678D01*
X160998375Y-97239822D01*
X161020260Y-97268343D01*
X161020264Y-97268347D01*
X161025209Y-97274791D01*
X161134982Y-97359024D01*
X161142490Y-97362134D01*
X161142492Y-97362135D01*
X161178980Y-97377248D01*
X161262817Y-97411974D01*
X161400000Y-97430035D01*
X161537183Y-97411974D01*
X161621020Y-97377248D01*
X161657508Y-97362135D01*
X161657510Y-97362134D01*
X161665018Y-97359024D01*
X161774791Y-97274791D01*
X161859024Y-97165017D01*
X161911974Y-97037183D01*
X161930035Y-96900000D01*
X161911974Y-96762817D01*
X161900304Y-96734641D01*
X161866392Y-96652772D01*
X162449500Y-96652772D01*
X162449948Y-96656473D01*
X162459319Y-96733909D01*
X162460364Y-96742547D01*
X162463296Y-96749951D01*
X162463296Y-96749953D01*
X162483442Y-96800835D01*
X162515887Y-96882783D01*
X162520999Y-96889517D01*
X162520999Y-96889518D01*
X162601968Y-96996190D01*
X162607078Y-97002922D01*
X162613810Y-97008032D01*
X162690300Y-97066091D01*
X162727217Y-97094113D01*
X162735078Y-97097225D01*
X162735079Y-97097226D01*
X162860047Y-97146704D01*
X162860049Y-97146704D01*
X162867453Y-97149636D01*
X162875357Y-97150592D01*
X162875359Y-97150593D01*
X162928073Y-97156972D01*
X162957228Y-97160500D01*
X164042772Y-97160500D01*
X164071927Y-97156972D01*
X164124641Y-97150593D01*
X164124643Y-97150592D01*
X164132547Y-97149636D01*
X164139951Y-97146704D01*
X164139953Y-97146704D01*
X164264921Y-97097226D01*
X164264922Y-97097225D01*
X164272783Y-97094113D01*
X164309701Y-97066091D01*
X164386190Y-97008032D01*
X164392922Y-97002922D01*
X164398032Y-96996190D01*
X164479001Y-96889518D01*
X164479001Y-96889517D01*
X164484113Y-96882783D01*
X164516559Y-96800835D01*
X164536704Y-96749953D01*
X164536704Y-96749951D01*
X164539636Y-96742547D01*
X164540682Y-96733909D01*
X164550052Y-96656473D01*
X164550500Y-96652772D01*
X164550500Y-95567228D01*
X164542168Y-95498375D01*
X164540593Y-95485359D01*
X164540592Y-95485357D01*
X164539636Y-95477453D01*
X164519977Y-95427799D01*
X164487226Y-95345079D01*
X164487225Y-95345078D01*
X164484113Y-95337217D01*
X164464427Y-95311281D01*
X164398032Y-95223810D01*
X164392922Y-95217078D01*
X164272783Y-95125887D01*
X164264922Y-95122775D01*
X164264921Y-95122774D01*
X164139953Y-95073296D01*
X164139951Y-95073296D01*
X164132547Y-95070364D01*
X164124643Y-95069408D01*
X164124641Y-95069407D01*
X164064546Y-95062135D01*
X164042772Y-95059500D01*
X162957228Y-95059500D01*
X162935454Y-95062135D01*
X162875359Y-95069407D01*
X162875357Y-95069408D01*
X162867453Y-95070364D01*
X162860049Y-95073296D01*
X162860047Y-95073296D01*
X162735079Y-95122774D01*
X162735078Y-95122775D01*
X162727217Y-95125887D01*
X162607078Y-95217078D01*
X162601968Y-95223810D01*
X162535574Y-95311281D01*
X162515887Y-95337217D01*
X162512775Y-95345078D01*
X162512774Y-95345079D01*
X162480023Y-95427799D01*
X162460364Y-95477453D01*
X162459408Y-95485357D01*
X162459407Y-95485359D01*
X162457832Y-95498375D01*
X162449500Y-95567228D01*
X162449500Y-96652772D01*
X161866392Y-96652772D01*
X161862135Y-96642494D01*
X161859024Y-96634983D01*
X161774791Y-96525209D01*
X161739821Y-96498375D01*
X161698618Y-96441947D01*
X161694464Y-96372201D01*
X161728677Y-96311281D01*
X161739821Y-96301625D01*
X161768345Y-96279737D01*
X161774791Y-96274791D01*
X161859024Y-96165017D01*
X161911974Y-96037183D01*
X161930035Y-95900000D01*
X161911974Y-95762817D01*
X161859024Y-95634983D01*
X161774791Y-95525209D01*
X161739821Y-95498375D01*
X161698618Y-95441947D01*
X161694464Y-95372201D01*
X161728677Y-95311281D01*
X161739821Y-95301625D01*
X161768345Y-95279737D01*
X161774791Y-95274791D01*
X161859024Y-95165017D01*
X161902730Y-95059500D01*
X161908862Y-95044697D01*
X161908863Y-95044694D01*
X161911974Y-95037183D01*
X161930035Y-94900000D01*
X161911974Y-94762817D01*
X161902392Y-94739682D01*
X161862135Y-94642494D01*
X161859024Y-94634983D01*
X161774791Y-94525209D01*
X161665018Y-94440976D01*
X161657510Y-94437866D01*
X161657508Y-94437865D01*
X161597153Y-94412866D01*
X161537183Y-94388026D01*
X161400000Y-94369965D01*
X161262817Y-94388026D01*
X161255306Y-94391137D01*
X161255303Y-94391138D01*
X161255301Y-94391139D01*
X161134983Y-94440976D01*
X161025209Y-94525209D01*
X161020265Y-94531652D01*
X161020261Y-94531656D01*
X160998375Y-94560178D01*
X160941947Y-94601380D01*
X160872201Y-94605535D01*
X160811281Y-94571322D01*
X160801625Y-94560178D01*
X160779740Y-94531657D01*
X160779735Y-94531652D01*
X160774791Y-94525209D01*
X160665018Y-94440976D01*
X160657510Y-94437866D01*
X160657508Y-94437865D01*
X160597153Y-94412866D01*
X160537183Y-94388026D01*
X160400000Y-94369965D01*
X160262817Y-94388026D01*
X160255306Y-94391137D01*
X160255303Y-94391138D01*
X160255301Y-94391139D01*
X160134983Y-94440976D01*
X160025209Y-94525209D01*
X160020265Y-94531652D01*
X160020261Y-94531656D01*
X159998375Y-94560178D01*
X159941947Y-94601380D01*
X159872201Y-94605535D01*
X159811281Y-94571322D01*
X159801625Y-94560178D01*
X159779740Y-94531657D01*
X159779735Y-94531652D01*
X159774791Y-94525209D01*
X159665018Y-94440976D01*
X159657510Y-94437866D01*
X159657508Y-94437865D01*
X159597153Y-94412866D01*
X159537183Y-94388026D01*
X159400000Y-94369965D01*
X159262817Y-94388026D01*
X159255306Y-94391137D01*
X159255303Y-94391138D01*
X159255301Y-94391139D01*
X159134983Y-94440976D01*
X159025209Y-94525209D01*
X159020265Y-94531652D01*
X159020261Y-94531656D01*
X158998375Y-94560178D01*
X158941947Y-94601380D01*
X158872201Y-94605535D01*
X158811281Y-94571322D01*
X158801625Y-94560178D01*
X158779740Y-94531657D01*
X158779735Y-94531652D01*
X158774791Y-94525209D01*
X158665018Y-94440976D01*
X158657510Y-94437866D01*
X158657508Y-94437865D01*
X158597153Y-94412866D01*
X158537183Y-94388026D01*
X158400000Y-94369965D01*
X158262817Y-94388026D01*
X158255306Y-94391137D01*
X158255303Y-94391138D01*
X158255301Y-94391139D01*
X158134983Y-94440976D01*
X158025209Y-94525209D01*
X158020265Y-94531652D01*
X158020261Y-94531656D01*
X157998375Y-94560178D01*
X157941947Y-94601380D01*
X157872201Y-94605535D01*
X157811281Y-94571322D01*
X157801625Y-94560178D01*
X157779740Y-94531657D01*
X157779735Y-94531652D01*
X157774791Y-94525209D01*
X157665018Y-94440976D01*
X157657510Y-94437866D01*
X157657508Y-94437865D01*
X157597153Y-94412866D01*
X157537183Y-94388026D01*
X157400000Y-94369965D01*
X157262817Y-94388026D01*
X157255306Y-94391137D01*
X157255303Y-94391138D01*
X157255301Y-94391139D01*
X157134983Y-94440976D01*
X157025209Y-94525209D01*
X156940976Y-94634983D01*
X156937865Y-94642494D01*
X156897609Y-94739682D01*
X156888026Y-94762817D01*
X156869965Y-94900000D01*
X156888026Y-95037183D01*
X156891137Y-95044694D01*
X156891138Y-95044697D01*
X156897270Y-95059500D01*
X156940976Y-95165017D01*
X157025209Y-95274791D01*
X157031655Y-95279737D01*
X157060179Y-95301625D01*
X157101382Y-95358053D01*
X157105536Y-95427799D01*
X157071323Y-95488719D01*
X157060178Y-95498376D01*
X157031654Y-95520263D01*
X157031652Y-95520265D01*
X157025209Y-95525209D01*
X157020265Y-95531652D01*
X156990106Y-95570956D01*
X156940976Y-95634983D01*
X156888026Y-95762817D01*
X156869965Y-95900000D01*
X156888026Y-96037183D01*
X156940976Y-96165017D01*
X157025209Y-96274791D01*
X157031655Y-96279737D01*
X157060179Y-96301625D01*
X157101382Y-96358053D01*
X157105536Y-96427799D01*
X157071323Y-96488719D01*
X157060178Y-96498376D01*
X157031654Y-96520263D01*
X157031652Y-96520265D01*
X157025209Y-96525209D01*
X156940976Y-96634983D01*
X156891139Y-96755303D01*
X156888942Y-96760606D01*
X156862062Y-96800835D01*
X156349715Y-97313182D01*
X156288392Y-97346667D01*
X156262034Y-97349501D01*
X144410259Y-97349501D01*
X144362807Y-97340062D01*
X144357505Y-97337866D01*
X144237181Y-97288027D01*
X144099998Y-97269966D01*
X143962815Y-97288027D01*
X143955304Y-97291138D01*
X143955301Y-97291139D01*
X143871025Y-97326047D01*
X143834981Y-97340977D01*
X143828534Y-97345924D01*
X143807408Y-97362135D01*
X143725207Y-97425210D01*
X143640974Y-97534984D01*
X143588024Y-97662818D01*
X143569963Y-97800001D01*
X138450500Y-97800001D01*
X138450500Y-94787134D01*
X138470185Y-94720095D01*
X138522989Y-94674340D01*
X138592147Y-94664396D01*
X138655703Y-94693421D01*
X138689061Y-94739682D01*
X138740976Y-94865017D01*
X138825209Y-94974791D01*
X138934982Y-95059024D01*
X138942490Y-95062134D01*
X138942492Y-95062135D01*
X138969438Y-95073296D01*
X139062817Y-95111974D01*
X139200000Y-95130035D01*
X139337183Y-95111974D01*
X139430562Y-95073296D01*
X139457508Y-95062135D01*
X139457510Y-95062134D01*
X139465018Y-95059024D01*
X139574791Y-94974791D01*
X139659024Y-94865017D01*
X139691284Y-94787134D01*
X139708862Y-94744697D01*
X139708863Y-94744694D01*
X139711974Y-94737183D01*
X139730035Y-94600000D01*
X139711974Y-94462817D01*
X139704978Y-94445925D01*
X139662135Y-94342494D01*
X139659024Y-94334983D01*
X139574791Y-94225209D01*
X139465018Y-94140976D01*
X139457510Y-94137866D01*
X139457508Y-94137865D01*
X139421020Y-94122752D01*
X139337183Y-94088026D01*
X139200000Y-94069965D01*
X139062817Y-94088026D01*
X139055306Y-94091137D01*
X139055303Y-94091138D01*
X139055301Y-94091139D01*
X138934983Y-94140976D01*
X138825209Y-94225209D01*
X138740976Y-94334983D01*
X138737865Y-94342494D01*
X138689061Y-94460318D01*
X138645220Y-94514722D01*
X138578926Y-94536787D01*
X138511227Y-94519508D01*
X138463616Y-94468371D01*
X138450500Y-94412866D01*
X138450500Y-93960260D01*
X138459939Y-93912808D01*
X138508862Y-93794697D01*
X138508863Y-93794694D01*
X138511974Y-93787183D01*
X138530035Y-93650000D01*
X138511974Y-93512817D01*
X138500038Y-93483999D01*
X138462135Y-93392494D01*
X138459024Y-93384983D01*
X138374791Y-93275209D01*
X138265018Y-93190976D01*
X138257510Y-93187866D01*
X138257508Y-93187865D01*
X138221020Y-93172752D01*
X138137183Y-93138026D01*
X138000000Y-93119965D01*
X137862817Y-93138026D01*
X137855306Y-93141137D01*
X137855303Y-93141138D01*
X137855301Y-93141139D01*
X137734983Y-93190976D01*
X137625209Y-93275209D01*
X137540976Y-93384983D01*
X137537865Y-93392494D01*
X137499963Y-93483999D01*
X137488026Y-93512817D01*
X137469965Y-93650000D01*
X137488026Y-93787183D01*
X137491137Y-93794694D01*
X137491138Y-93794697D01*
X137540061Y-93912808D01*
X137549500Y-93960260D01*
X137549500Y-102989740D01*
X137540061Y-103037192D01*
X137497080Y-103140959D01*
X137488026Y-103162817D01*
X137469965Y-103300000D01*
X112800000Y-103300000D01*
X112800000Y-93098753D01*
X166634514Y-93098753D01*
X166652039Y-93277486D01*
X166708726Y-93447896D01*
X166712319Y-93453829D01*
X166712320Y-93453831D01*
X166798168Y-93595583D01*
X166801759Y-93601512D01*
X166926514Y-93730699D01*
X166932308Y-93734490D01*
X166932311Y-93734493D01*
X167000509Y-93779120D01*
X167076789Y-93829036D01*
X167245116Y-93891636D01*
X167423130Y-93915388D01*
X167430031Y-93914760D01*
X167430033Y-93914760D01*
X167537744Y-93904958D01*
X167601981Y-93899112D01*
X167772782Y-93843615D01*
X167927044Y-93751657D01*
X167954286Y-93725715D01*
X168052080Y-93632587D01*
X168052082Y-93632585D01*
X168057099Y-93627807D01*
X168133498Y-93512817D01*
X168152645Y-93483999D01*
X168152646Y-93483997D01*
X168156483Y-93478222D01*
X168220257Y-93310336D01*
X168245251Y-93132493D01*
X168245565Y-93110000D01*
X168225546Y-92931528D01*
X168166485Y-92761927D01*
X168071316Y-92609625D01*
X167944770Y-92482193D01*
X167793136Y-92385963D01*
X167773219Y-92378871D01*
X167630479Y-92328043D01*
X167630475Y-92328042D01*
X167623951Y-92325719D01*
X167445624Y-92304455D01*
X167438735Y-92305179D01*
X167438732Y-92305179D01*
X167273913Y-92322502D01*
X167273911Y-92322502D01*
X167267017Y-92323227D01*
X167260456Y-92325461D01*
X167260454Y-92325461D01*
X167249706Y-92329120D01*
X167097007Y-92381103D01*
X167091105Y-92384734D01*
X166950128Y-92471464D01*
X166944045Y-92475206D01*
X166815732Y-92600859D01*
X166811979Y-92606683D01*
X166732484Y-92730035D01*
X166718446Y-92751817D01*
X166657022Y-92920578D01*
X166634514Y-93098753D01*
X112800000Y-93098753D01*
X112800000Y-92200000D01*
X122869965Y-92200000D01*
X122888026Y-92337183D01*
X122891137Y-92344694D01*
X122891138Y-92344697D01*
X122906218Y-92381103D01*
X122940976Y-92465017D01*
X123025209Y-92574791D01*
X123134982Y-92659024D01*
X123142490Y-92662134D01*
X123142492Y-92662135D01*
X123178980Y-92677248D01*
X123262817Y-92711974D01*
X123400000Y-92730035D01*
X123537183Y-92711974D01*
X123621020Y-92677248D01*
X123657508Y-92662135D01*
X123657510Y-92662134D01*
X123665018Y-92659024D01*
X123774791Y-92574791D01*
X123859024Y-92465017D01*
X123893782Y-92381103D01*
X123908862Y-92344697D01*
X123908863Y-92344694D01*
X123911974Y-92337183D01*
X123930035Y-92200000D01*
X123911974Y-92062817D01*
X123859024Y-91934983D01*
X123774791Y-91825209D01*
X123665018Y-91740976D01*
X123657510Y-91737866D01*
X123657508Y-91737865D01*
X123621020Y-91722752D01*
X123537183Y-91688026D01*
X123400000Y-91669965D01*
X123262817Y-91688026D01*
X123255306Y-91691137D01*
X123255303Y-91691138D01*
X123255301Y-91691139D01*
X123134983Y-91740976D01*
X123025209Y-91825209D01*
X122940976Y-91934983D01*
X122888026Y-92062817D01*
X122869965Y-92200000D01*
X112800000Y-92200000D01*
X112800000Y-91010014D01*
X135379981Y-91010014D01*
X135398042Y-91147197D01*
X135401153Y-91154708D01*
X135401154Y-91154711D01*
X135415868Y-91190233D01*
X135450992Y-91275031D01*
X135535225Y-91384805D01*
X135644998Y-91469038D01*
X135652506Y-91472148D01*
X135652508Y-91472149D01*
X135672588Y-91480466D01*
X135772833Y-91521988D01*
X135910016Y-91540049D01*
X136047199Y-91521988D01*
X136147444Y-91480466D01*
X136167524Y-91472149D01*
X136167526Y-91472148D01*
X136175034Y-91469038D01*
X136284807Y-91384805D01*
X136369040Y-91275031D01*
X136404164Y-91190233D01*
X136418878Y-91154711D01*
X136418879Y-91154708D01*
X136421990Y-91147197D01*
X136440051Y-91010014D01*
X136425567Y-90900000D01*
X144269534Y-90900000D01*
X144289313Y-91050236D01*
X144347302Y-91190233D01*
X144439549Y-91310451D01*
X144559767Y-91402698D01*
X144629765Y-91431692D01*
X144692255Y-91457577D01*
X144692257Y-91457578D01*
X144699764Y-91460687D01*
X144850000Y-91480466D01*
X144858059Y-91479405D01*
X144992177Y-91461748D01*
X145000236Y-91460687D01*
X145007743Y-91457578D01*
X145007745Y-91457577D01*
X145070234Y-91431693D01*
X145140233Y-91402698D01*
X145260451Y-91310451D01*
X145352698Y-91190233D01*
X145410687Y-91050236D01*
X145430466Y-90900000D01*
X145410687Y-90749764D01*
X145352698Y-90609767D01*
X145260451Y-90489549D01*
X145140233Y-90397302D01*
X145070235Y-90368308D01*
X145007745Y-90342423D01*
X145007743Y-90342422D01*
X145000236Y-90339313D01*
X144850000Y-90319534D01*
X144699764Y-90339313D01*
X144692257Y-90342422D01*
X144692255Y-90342423D01*
X144629765Y-90368308D01*
X144559767Y-90397302D01*
X144439549Y-90489549D01*
X144347302Y-90609767D01*
X144289313Y-90749764D01*
X144269534Y-90900000D01*
X136425567Y-90900000D01*
X136421990Y-90872831D01*
X136369040Y-90744997D01*
X136284807Y-90635223D01*
X136175034Y-90550990D01*
X136167526Y-90547880D01*
X136167524Y-90547879D01*
X136131036Y-90532766D01*
X136047199Y-90498040D01*
X135910016Y-90479979D01*
X135772833Y-90498040D01*
X135765322Y-90501151D01*
X135765319Y-90501152D01*
X135765317Y-90501153D01*
X135644999Y-90550990D01*
X135535225Y-90635223D01*
X135450992Y-90744997D01*
X135398042Y-90872831D01*
X135379981Y-91010014D01*
X112800000Y-91010014D01*
X112800000Y-89200000D01*
X121269965Y-89200000D01*
X121288026Y-89337183D01*
X121340976Y-89465017D01*
X121425209Y-89574791D01*
X121534982Y-89659024D01*
X121542490Y-89662134D01*
X121542492Y-89662135D01*
X121578980Y-89677248D01*
X121662817Y-89711974D01*
X121800000Y-89730035D01*
X121808059Y-89728974D01*
X121929125Y-89713035D01*
X121929126Y-89713035D01*
X121937183Y-89711974D01*
X121937305Y-89712902D01*
X122000098Y-89714397D01*
X122057960Y-89753560D01*
X122085280Y-89816325D01*
X122088026Y-89837183D01*
X122140976Y-89965017D01*
X122225209Y-90074791D01*
X122334982Y-90159024D01*
X122342490Y-90162134D01*
X122342492Y-90162135D01*
X122378980Y-90177248D01*
X122462817Y-90211974D01*
X122600000Y-90230035D01*
X122737183Y-90211974D01*
X122821020Y-90177248D01*
X122857508Y-90162135D01*
X122857510Y-90162134D01*
X122865018Y-90159024D01*
X122974791Y-90074791D01*
X123059024Y-89965017D01*
X123111974Y-89837183D01*
X123114720Y-89816325D01*
X123142985Y-89752428D01*
X123201309Y-89713956D01*
X123262700Y-89712860D01*
X123262817Y-89711974D01*
X123270874Y-89713035D01*
X123270875Y-89713035D01*
X123391941Y-89728974D01*
X123400000Y-89730035D01*
X123537183Y-89711974D01*
X123621020Y-89677248D01*
X123657508Y-89662135D01*
X123657510Y-89662134D01*
X123665018Y-89659024D01*
X123774791Y-89574791D01*
X123859024Y-89465017D01*
X123911974Y-89337183D01*
X123930035Y-89200000D01*
X123911974Y-89062817D01*
X123859024Y-88934983D01*
X123774791Y-88825209D01*
X123739821Y-88798375D01*
X123698618Y-88741947D01*
X123694464Y-88672201D01*
X123728677Y-88611281D01*
X123739821Y-88601625D01*
X123741939Y-88600000D01*
X135419965Y-88600000D01*
X135438026Y-88737183D01*
X135441137Y-88744694D01*
X135441138Y-88744697D01*
X135459373Y-88788719D01*
X135490976Y-88865017D01*
X135575209Y-88974791D01*
X135684982Y-89059024D01*
X135692490Y-89062134D01*
X135692492Y-89062135D01*
X135694139Y-89062817D01*
X135812817Y-89111974D01*
X135950000Y-89130035D01*
X136087183Y-89111974D01*
X136205861Y-89062817D01*
X136207508Y-89062135D01*
X136207510Y-89062134D01*
X136215018Y-89059024D01*
X136324791Y-88974791D01*
X136409024Y-88865017D01*
X136440627Y-88788719D01*
X136458862Y-88744697D01*
X136458863Y-88744694D01*
X136461974Y-88737183D01*
X136480035Y-88600000D01*
X136461974Y-88462817D01*
X136409024Y-88334983D01*
X136324791Y-88225209D01*
X136215018Y-88140976D01*
X136207510Y-88137866D01*
X136207508Y-88137865D01*
X136171020Y-88122752D01*
X136087183Y-88088026D01*
X135950000Y-88069965D01*
X135812817Y-88088026D01*
X135805306Y-88091137D01*
X135805303Y-88091138D01*
X135749144Y-88114400D01*
X135684983Y-88140976D01*
X135575209Y-88225209D01*
X135570265Y-88231652D01*
X135544663Y-88265017D01*
X135490976Y-88334983D01*
X135438026Y-88462817D01*
X135419965Y-88600000D01*
X123741939Y-88600000D01*
X123768345Y-88579737D01*
X123774791Y-88574791D01*
X123859024Y-88465017D01*
X123894348Y-88379737D01*
X123908862Y-88344697D01*
X123908863Y-88344694D01*
X123911974Y-88337183D01*
X123930035Y-88200000D01*
X123911974Y-88062817D01*
X123859024Y-87934983D01*
X123774791Y-87825209D01*
X123739821Y-87798375D01*
X123698618Y-87741947D01*
X123694464Y-87672201D01*
X123728677Y-87611281D01*
X123739821Y-87601625D01*
X123751774Y-87592453D01*
X123774791Y-87574791D01*
X123859024Y-87465017D01*
X123881812Y-87410000D01*
X137409965Y-87410000D01*
X137428026Y-87547183D01*
X137431137Y-87554694D01*
X137431138Y-87554697D01*
X137458288Y-87620242D01*
X137480976Y-87675017D01*
X137565209Y-87784791D01*
X137674982Y-87869024D01*
X137682490Y-87872134D01*
X137682492Y-87872135D01*
X137718980Y-87887248D01*
X137802817Y-87921974D01*
X137940000Y-87940035D01*
X138077183Y-87921974D01*
X138161020Y-87887248D01*
X138197508Y-87872135D01*
X138197510Y-87872134D01*
X138205018Y-87869024D01*
X138225801Y-87853076D01*
X138290968Y-87827882D01*
X138359413Y-87841920D01*
X138409404Y-87890733D01*
X138425068Y-87958824D01*
X138424227Y-87967626D01*
X138419965Y-88000000D01*
X138438026Y-88137183D01*
X138441137Y-88144694D01*
X138441138Y-88144697D01*
X138460707Y-88191941D01*
X138490976Y-88265017D01*
X138575209Y-88374791D01*
X138684982Y-88459024D01*
X138692490Y-88462134D01*
X138692492Y-88462135D01*
X138705071Y-88467345D01*
X138812817Y-88511974D01*
X138950000Y-88530035D01*
X139087183Y-88511974D01*
X139194929Y-88467345D01*
X139207508Y-88462135D01*
X139207510Y-88462134D01*
X139215018Y-88459024D01*
X139324791Y-88374791D01*
X139409024Y-88265017D01*
X139439293Y-88191941D01*
X139458862Y-88144697D01*
X139458863Y-88144694D01*
X139461974Y-88137183D01*
X139480035Y-88000000D01*
X139461974Y-87862817D01*
X139453319Y-87841920D01*
X139415163Y-87749804D01*
X139409024Y-87734983D01*
X139324791Y-87625209D01*
X139215018Y-87540976D01*
X139207510Y-87537866D01*
X139207508Y-87537865D01*
X139171020Y-87522752D01*
X139087183Y-87488026D01*
X138950000Y-87469965D01*
X138812817Y-87488026D01*
X138805306Y-87491137D01*
X138805303Y-87491138D01*
X138779459Y-87501843D01*
X138684983Y-87540976D01*
X138678538Y-87545922D01*
X138678532Y-87545925D01*
X138664198Y-87556924D01*
X138599029Y-87582117D01*
X138530584Y-87568078D01*
X138480595Y-87519264D01*
X138464933Y-87451172D01*
X138465772Y-87442377D01*
X138470035Y-87410000D01*
X138451974Y-87272817D01*
X138442442Y-87249803D01*
X138421809Y-87199990D01*
X146319947Y-87199990D01*
X146338008Y-87337173D01*
X146341119Y-87344684D01*
X146341120Y-87344687D01*
X146360096Y-87390499D01*
X146390958Y-87465007D01*
X146475191Y-87574781D01*
X146584964Y-87659014D01*
X146592472Y-87662124D01*
X146592474Y-87662125D01*
X146616801Y-87672201D01*
X146712799Y-87711964D01*
X146849982Y-87730025D01*
X146987165Y-87711964D01*
X147083163Y-87672201D01*
X147107490Y-87662125D01*
X147107492Y-87662124D01*
X147115000Y-87659014D01*
X147224773Y-87574781D01*
X147309006Y-87465007D01*
X147339868Y-87390499D01*
X147358844Y-87344687D01*
X147358845Y-87344684D01*
X147361956Y-87337173D01*
X147380017Y-87199990D01*
X147375498Y-87165665D01*
X165995119Y-87165665D01*
X165995412Y-87170747D01*
X165995412Y-87170748D01*
X165997563Y-87208049D01*
X166008376Y-87395580D01*
X166025379Y-87471026D01*
X166056987Y-87611281D01*
X166059006Y-87620242D01*
X166145649Y-87833618D01*
X166148311Y-87837962D01*
X166263317Y-88025635D01*
X166263321Y-88025640D01*
X166265979Y-88029978D01*
X166269311Y-88033824D01*
X166269312Y-88033826D01*
X166413257Y-88200000D01*
X166416763Y-88204048D01*
X166420673Y-88207294D01*
X166420677Y-88207298D01*
X166497966Y-88271464D01*
X166593953Y-88351154D01*
X166693516Y-88409334D01*
X166775953Y-88457506D01*
X166792790Y-88467345D01*
X166797543Y-88469160D01*
X166797545Y-88469161D01*
X166865584Y-88495142D01*
X167007934Y-88549501D01*
X167012920Y-88550515D01*
X167012922Y-88550516D01*
X167083822Y-88564940D01*
X167233607Y-88595414D01*
X167383235Y-88600901D01*
X167458670Y-88603667D01*
X167458673Y-88603667D01*
X167463749Y-88603853D01*
X167692178Y-88574591D01*
X167697048Y-88573130D01*
X167907892Y-88509874D01*
X167907895Y-88509873D01*
X167912761Y-88508413D01*
X167917324Y-88506177D01*
X167917328Y-88506176D01*
X168023678Y-88454075D01*
X168119574Y-88407096D01*
X168307062Y-88273363D01*
X168470190Y-88110803D01*
X168604577Y-87923783D01*
X168701074Y-87728536D01*
X168704358Y-87721892D01*
X168704359Y-87721890D01*
X168706615Y-87717325D01*
X168773563Y-87496975D01*
X168803622Y-87268649D01*
X168804299Y-87240976D01*
X168805219Y-87203308D01*
X168805300Y-87200000D01*
X168804638Y-87191941D01*
X168792282Y-87041653D01*
X168786430Y-86970478D01*
X168730326Y-86747120D01*
X168638496Y-86535924D01*
X168635736Y-86531658D01*
X168635733Y-86531652D01*
X168516167Y-86346832D01*
X168516165Y-86346830D01*
X168513405Y-86342563D01*
X168358412Y-86172229D01*
X168354427Y-86169082D01*
X168354424Y-86169079D01*
X168210358Y-86055303D01*
X168177681Y-86029496D01*
X168173235Y-86027042D01*
X168173231Y-86027039D01*
X167980520Y-85920657D01*
X167980517Y-85920656D01*
X167976065Y-85918198D01*
X167758978Y-85841323D01*
X167668514Y-85825209D01*
X167537260Y-85801829D01*
X167537255Y-85801829D01*
X167532250Y-85800937D01*
X167441875Y-85799833D01*
X167307061Y-85798185D01*
X167307059Y-85798185D01*
X167301971Y-85798123D01*
X167296942Y-85798893D01*
X167296936Y-85798893D01*
X167166950Y-85818784D01*
X167074325Y-85832958D01*
X166855424Y-85904506D01*
X166850910Y-85906856D01*
X166655664Y-86008494D01*
X166655658Y-86008498D01*
X166651149Y-86010845D01*
X166466984Y-86149119D01*
X166463469Y-86152798D01*
X166463466Y-86152800D01*
X166423429Y-86194697D01*
X166307877Y-86315616D01*
X166305013Y-86319815D01*
X166305011Y-86319817D01*
X166289495Y-86342563D01*
X166178099Y-86505863D01*
X166175957Y-86510477D01*
X166175955Y-86510481D01*
X166083282Y-86710128D01*
X166081136Y-86714752D01*
X166079774Y-86719662D01*
X166079774Y-86719663D01*
X166021849Y-86928536D01*
X166019592Y-86936673D01*
X166019052Y-86941728D01*
X166019051Y-86941732D01*
X166007355Y-87051169D01*
X165995119Y-87165665D01*
X147375498Y-87165665D01*
X147361956Y-87062807D01*
X147353194Y-87041652D01*
X147321667Y-86965539D01*
X147309006Y-86934973D01*
X147224773Y-86825199D01*
X147115000Y-86740966D01*
X147107489Y-86737855D01*
X147100452Y-86733792D01*
X147101721Y-86731594D01*
X147057205Y-86695726D01*
X147035136Y-86629433D01*
X147052411Y-86561732D01*
X147100764Y-86516708D01*
X147100470Y-86516198D01*
X147102687Y-86514918D01*
X147103545Y-86514119D01*
X147106065Y-86512968D01*
X147107509Y-86512134D01*
X147115018Y-86509024D01*
X147224791Y-86424791D01*
X147309024Y-86315017D01*
X147336036Y-86249803D01*
X147358862Y-86194697D01*
X147358863Y-86194694D01*
X147361974Y-86187183D01*
X147380035Y-86050000D01*
X147361974Y-85912817D01*
X147309024Y-85784983D01*
X147224791Y-85675209D01*
X147115018Y-85590976D01*
X147107510Y-85587866D01*
X147107508Y-85587865D01*
X147060386Y-85568347D01*
X146987183Y-85538026D01*
X146850000Y-85519965D01*
X146712817Y-85538026D01*
X146705306Y-85541137D01*
X146705303Y-85541138D01*
X146705301Y-85541139D01*
X146584983Y-85590976D01*
X146578536Y-85595923D01*
X146496302Y-85659024D01*
X146475209Y-85675209D01*
X146390976Y-85784983D01*
X146338026Y-85912817D01*
X146319965Y-86050000D01*
X146338026Y-86187183D01*
X146341137Y-86194694D01*
X146341138Y-86194697D01*
X146363964Y-86249803D01*
X146390976Y-86315017D01*
X146475209Y-86424791D01*
X146584982Y-86509024D01*
X146592493Y-86512135D01*
X146599530Y-86516198D01*
X146598260Y-86518398D01*
X146642770Y-86554254D01*
X146664846Y-86620544D01*
X146647578Y-86688247D01*
X146599218Y-86733287D01*
X146599510Y-86733794D01*
X146597310Y-86735064D01*
X146596449Y-86735866D01*
X146593919Y-86737022D01*
X146592477Y-86737854D01*
X146584965Y-86740966D01*
X146578518Y-86745913D01*
X146510149Y-86798375D01*
X146475191Y-86825199D01*
X146390958Y-86934973D01*
X146378297Y-86965539D01*
X146346771Y-87041652D01*
X146338008Y-87062807D01*
X146319947Y-87199990D01*
X138421809Y-87199990D01*
X138402135Y-87152494D01*
X138399024Y-87144983D01*
X138314791Y-87035209D01*
X138205018Y-86950976D01*
X138197510Y-86947866D01*
X138197508Y-86947865D01*
X138129174Y-86919561D01*
X138074770Y-86875721D01*
X138052705Y-86809427D01*
X138069984Y-86741727D01*
X138121121Y-86694116D01*
X138129174Y-86690439D01*
X138197508Y-86662135D01*
X138197510Y-86662134D01*
X138205018Y-86659024D01*
X138314791Y-86574791D01*
X138399024Y-86465017D01*
X138418355Y-86418347D01*
X138448862Y-86344697D01*
X138448863Y-86344694D01*
X138451974Y-86337183D01*
X138470035Y-86200000D01*
X138451974Y-86062817D01*
X138437155Y-86027039D01*
X138402135Y-85942494D01*
X138399024Y-85934983D01*
X138314791Y-85825209D01*
X138205018Y-85740976D01*
X138197510Y-85737866D01*
X138197508Y-85737865D01*
X138161020Y-85722752D01*
X138077183Y-85688026D01*
X137940000Y-85669965D01*
X137802817Y-85688026D01*
X137795306Y-85691137D01*
X137795303Y-85691138D01*
X137711027Y-85726046D01*
X137674983Y-85740976D01*
X137663478Y-85749804D01*
X137596922Y-85800875D01*
X137565209Y-85825209D01*
X137480976Y-85934983D01*
X137477865Y-85942494D01*
X137442846Y-86027039D01*
X137428026Y-86062817D01*
X137409965Y-86200000D01*
X137428026Y-86337183D01*
X137431137Y-86344694D01*
X137431138Y-86344697D01*
X137461645Y-86418347D01*
X137480976Y-86465017D01*
X137565209Y-86574791D01*
X137674982Y-86659024D01*
X137682490Y-86662134D01*
X137682492Y-86662135D01*
X137750826Y-86690439D01*
X137805230Y-86734279D01*
X137827295Y-86800573D01*
X137810016Y-86868273D01*
X137758879Y-86915884D01*
X137750826Y-86919561D01*
X137721356Y-86931768D01*
X137674983Y-86950976D01*
X137565209Y-87035209D01*
X137560265Y-87041652D01*
X137497981Y-87122822D01*
X137480976Y-87144983D01*
X137477865Y-87152494D01*
X137437559Y-87249803D01*
X137428026Y-87272817D01*
X137409965Y-87410000D01*
X123881812Y-87410000D01*
X123885729Y-87400544D01*
X123908862Y-87344697D01*
X123908863Y-87344694D01*
X123911974Y-87337183D01*
X123930035Y-87200000D01*
X123911974Y-87062817D01*
X123908858Y-87055293D01*
X123867698Y-86955925D01*
X123859024Y-86934983D01*
X123774791Y-86825209D01*
X123739821Y-86798375D01*
X123698618Y-86741947D01*
X123694464Y-86672201D01*
X123728677Y-86611281D01*
X123739821Y-86601625D01*
X123768345Y-86579737D01*
X123774791Y-86574791D01*
X123859024Y-86465017D01*
X123878355Y-86418347D01*
X123908862Y-86344697D01*
X123908863Y-86344694D01*
X123911974Y-86337183D01*
X123930035Y-86200000D01*
X123911974Y-86062817D01*
X123897155Y-86027039D01*
X123862135Y-85942494D01*
X123859024Y-85934983D01*
X123774791Y-85825209D01*
X123739821Y-85798375D01*
X123698618Y-85741947D01*
X123694464Y-85672201D01*
X123728677Y-85611281D01*
X123739821Y-85601625D01*
X123768345Y-85579737D01*
X123774791Y-85574791D01*
X123859024Y-85465017D01*
X123911974Y-85337183D01*
X123930035Y-85200000D01*
X123911974Y-85062817D01*
X123859024Y-84934983D01*
X123774791Y-84825209D01*
X123739821Y-84798375D01*
X123698618Y-84741947D01*
X123694464Y-84672201D01*
X123728677Y-84611281D01*
X123739821Y-84601625D01*
X123768345Y-84579737D01*
X123774791Y-84574791D01*
X123859024Y-84465017D01*
X123906665Y-84350000D01*
X139719965Y-84350000D01*
X139738026Y-84487183D01*
X139790976Y-84615017D01*
X139875209Y-84724791D01*
X139984982Y-84809024D01*
X139992490Y-84812134D01*
X139992492Y-84812135D01*
X140012116Y-84820263D01*
X140112817Y-84861974D01*
X140250000Y-84880035D01*
X140387183Y-84861974D01*
X140487884Y-84820263D01*
X140507508Y-84812135D01*
X140507510Y-84812134D01*
X140515018Y-84809024D01*
X140624791Y-84724791D01*
X140709024Y-84615017D01*
X140761974Y-84487183D01*
X140780035Y-84350000D01*
X140761974Y-84212817D01*
X140758862Y-84205303D01*
X140757354Y-84199677D01*
X140759015Y-84129827D01*
X140798176Y-84071963D01*
X140862404Y-84044457D01*
X140931037Y-84055997D01*
X140934982Y-84059024D01*
X141062817Y-84111974D01*
X141200000Y-84130035D01*
X141337183Y-84111974D01*
X141436395Y-84070880D01*
X141457508Y-84062135D01*
X141457510Y-84062134D01*
X141465018Y-84059024D01*
X141574791Y-83974791D01*
X141659024Y-83865017D01*
X141711974Y-83737183D01*
X141730035Y-83600000D01*
X141723453Y-83550005D01*
X145619966Y-83550005D01*
X145638027Y-83687188D01*
X145641138Y-83694699D01*
X145641139Y-83694702D01*
X145662356Y-83745925D01*
X145690977Y-83815022D01*
X145775210Y-83924796D01*
X145884983Y-84009029D01*
X145892491Y-84012139D01*
X145892493Y-84012140D01*
X145928981Y-84027253D01*
X146012818Y-84061979D01*
X146150001Y-84080040D01*
X146287184Y-84061979D01*
X146371021Y-84027253D01*
X146407509Y-84012140D01*
X146407511Y-84012139D01*
X146415019Y-84009029D01*
X146524792Y-83924796D01*
X146609025Y-83815022D01*
X146637646Y-83745925D01*
X146658863Y-83694702D01*
X146658864Y-83694699D01*
X146661975Y-83687188D01*
X146680036Y-83550005D01*
X146661975Y-83412822D01*
X146609025Y-83284988D01*
X146524792Y-83175214D01*
X146415019Y-83090981D01*
X146407511Y-83087871D01*
X146407509Y-83087870D01*
X146371021Y-83072757D01*
X146287184Y-83038031D01*
X146150001Y-83019970D01*
X146012818Y-83038031D01*
X146005307Y-83041142D01*
X146005304Y-83041143D01*
X146005302Y-83041144D01*
X145884984Y-83090981D01*
X145878537Y-83095928D01*
X145785833Y-83167063D01*
X145775210Y-83175214D01*
X145690977Y-83284988D01*
X145638027Y-83412822D01*
X145619966Y-83550005D01*
X141723453Y-83550005D01*
X141711974Y-83462817D01*
X141694606Y-83420885D01*
X141662135Y-83342494D01*
X141659024Y-83334983D01*
X141574791Y-83225209D01*
X141499011Y-83167060D01*
X141457811Y-83110634D01*
X141450500Y-83068687D01*
X141450500Y-80848753D01*
X166634514Y-80848753D01*
X166652039Y-81027486D01*
X166708726Y-81197896D01*
X166712319Y-81203829D01*
X166712320Y-81203831D01*
X166798168Y-81345583D01*
X166801759Y-81351512D01*
X166926514Y-81480699D01*
X166932308Y-81484490D01*
X166932311Y-81484493D01*
X167028213Y-81547249D01*
X167076789Y-81579036D01*
X167245116Y-81641636D01*
X167423130Y-81665388D01*
X167430031Y-81664760D01*
X167430033Y-81664760D01*
X167537744Y-81654958D01*
X167601981Y-81649112D01*
X167772782Y-81593615D01*
X167927044Y-81501657D01*
X167939759Y-81489549D01*
X168052080Y-81382587D01*
X168052082Y-81382585D01*
X168057099Y-81377807D01*
X168156483Y-81228222D01*
X168220257Y-81060336D01*
X168245251Y-80882493D01*
X168245565Y-80860000D01*
X168225546Y-80681528D01*
X168166485Y-80511927D01*
X168071316Y-80359625D01*
X167944770Y-80232193D01*
X167793136Y-80135963D01*
X167773219Y-80128871D01*
X167630479Y-80078043D01*
X167630475Y-80078042D01*
X167623951Y-80075719D01*
X167445624Y-80054455D01*
X167438735Y-80055179D01*
X167438732Y-80055179D01*
X167273913Y-80072502D01*
X167273911Y-80072502D01*
X167267017Y-80073227D01*
X167260456Y-80075461D01*
X167260454Y-80075461D01*
X167173718Y-80104989D01*
X167097007Y-80131103D01*
X167091105Y-80134734D01*
X166985017Y-80200000D01*
X166944045Y-80225206D01*
X166815732Y-80350859D01*
X166811979Y-80356683D01*
X166747003Y-80457506D01*
X166718446Y-80501817D01*
X166716076Y-80508329D01*
X166663029Y-80654075D01*
X166657022Y-80670578D01*
X166634514Y-80848753D01*
X141450500Y-80848753D01*
X141450500Y-80200000D01*
X147069965Y-80200000D01*
X147088026Y-80337183D01*
X147091137Y-80344694D01*
X147091138Y-80344697D01*
X147099756Y-80365503D01*
X147140976Y-80465017D01*
X147225209Y-80574791D01*
X147334982Y-80659024D01*
X147342490Y-80662134D01*
X147342492Y-80662135D01*
X147347147Y-80664063D01*
X147462817Y-80711974D01*
X147600000Y-80730035D01*
X147737183Y-80711974D01*
X147852853Y-80664063D01*
X147857508Y-80662135D01*
X147857510Y-80662134D01*
X147865018Y-80659024D01*
X147974791Y-80574791D01*
X148059024Y-80465017D01*
X148100244Y-80365503D01*
X148108862Y-80344697D01*
X148108863Y-80344694D01*
X148111974Y-80337183D01*
X148130035Y-80200000D01*
X148111974Y-80062817D01*
X148108851Y-80055276D01*
X148062135Y-79942494D01*
X148059024Y-79934983D01*
X147974791Y-79825209D01*
X147865018Y-79740976D01*
X147857510Y-79737866D01*
X147857508Y-79737865D01*
X147821020Y-79722752D01*
X147737183Y-79688026D01*
X147600000Y-79669965D01*
X147462817Y-79688026D01*
X147455306Y-79691137D01*
X147455303Y-79691138D01*
X147455301Y-79691139D01*
X147334983Y-79740976D01*
X147225209Y-79825209D01*
X147140976Y-79934983D01*
X147137865Y-79942494D01*
X147091150Y-80055276D01*
X147088026Y-80062817D01*
X147069965Y-80200000D01*
X141450500Y-80200000D01*
X141450500Y-78787965D01*
X141470185Y-78720926D01*
X141486819Y-78700284D01*
X141587103Y-78600000D01*
X156769965Y-78600000D01*
X156788026Y-78737183D01*
X156791137Y-78744694D01*
X156791138Y-78744697D01*
X156800000Y-78766091D01*
X156840976Y-78865017D01*
X156925209Y-78974791D01*
X157034982Y-79059024D01*
X157042490Y-79062134D01*
X157042492Y-79062135D01*
X157078980Y-79077248D01*
X157162817Y-79111974D01*
X157300000Y-79130035D01*
X157437183Y-79111974D01*
X157521020Y-79077248D01*
X157557508Y-79062135D01*
X157557510Y-79062134D01*
X157565018Y-79059024D01*
X157674791Y-78974791D01*
X157679736Y-78968347D01*
X157679740Y-78968343D01*
X157701625Y-78939822D01*
X157758053Y-78898620D01*
X157827799Y-78894465D01*
X157888719Y-78928678D01*
X157898375Y-78939822D01*
X157920260Y-78968343D01*
X157920264Y-78968347D01*
X157925209Y-78974791D01*
X158034982Y-79059024D01*
X158042490Y-79062134D01*
X158042492Y-79062135D01*
X158078980Y-79077248D01*
X158162817Y-79111974D01*
X158300000Y-79130035D01*
X158437183Y-79111974D01*
X158521020Y-79077248D01*
X158557508Y-79062135D01*
X158557510Y-79062134D01*
X158565018Y-79059024D01*
X158674791Y-78974791D01*
X158679736Y-78968347D01*
X158679740Y-78968343D01*
X158701625Y-78939822D01*
X158758053Y-78898620D01*
X158827799Y-78894465D01*
X158888719Y-78928678D01*
X158898375Y-78939822D01*
X158920260Y-78968343D01*
X158920264Y-78968347D01*
X158925209Y-78974791D01*
X159034982Y-79059024D01*
X159042490Y-79062134D01*
X159042492Y-79062135D01*
X159078980Y-79077248D01*
X159162817Y-79111974D01*
X159300000Y-79130035D01*
X159437183Y-79111974D01*
X159521020Y-79077248D01*
X159557508Y-79062135D01*
X159557510Y-79062134D01*
X159565018Y-79059024D01*
X159674791Y-78974791D01*
X159679736Y-78968347D01*
X159679740Y-78968343D01*
X159701625Y-78939822D01*
X159758053Y-78898620D01*
X159827799Y-78894465D01*
X159888719Y-78928678D01*
X159898375Y-78939822D01*
X159920260Y-78968343D01*
X159920264Y-78968347D01*
X159925209Y-78974791D01*
X160034982Y-79059024D01*
X160042490Y-79062134D01*
X160042492Y-79062135D01*
X160078980Y-79077248D01*
X160162817Y-79111974D01*
X160300000Y-79130035D01*
X160437183Y-79111974D01*
X160521020Y-79077248D01*
X160557508Y-79062135D01*
X160557510Y-79062134D01*
X160565018Y-79059024D01*
X160674791Y-78974791D01*
X160679736Y-78968347D01*
X160679740Y-78968343D01*
X160701625Y-78939822D01*
X160758053Y-78898620D01*
X160827799Y-78894465D01*
X160888719Y-78928678D01*
X160898375Y-78939822D01*
X160920260Y-78968343D01*
X160920264Y-78968347D01*
X160925209Y-78974791D01*
X161034982Y-79059024D01*
X161042490Y-79062134D01*
X161042492Y-79062135D01*
X161078980Y-79077248D01*
X161162817Y-79111974D01*
X161300000Y-79130035D01*
X161437183Y-79111974D01*
X161521020Y-79077248D01*
X161557508Y-79062135D01*
X161557510Y-79062134D01*
X161565018Y-79059024D01*
X161674791Y-78974791D01*
X161759024Y-78865017D01*
X161800000Y-78766091D01*
X161808862Y-78744697D01*
X161808863Y-78744694D01*
X161811974Y-78737183D01*
X161830035Y-78600000D01*
X161811974Y-78462817D01*
X161759024Y-78334983D01*
X161674791Y-78225209D01*
X161639821Y-78198375D01*
X161598618Y-78141947D01*
X161594464Y-78072201D01*
X161628677Y-78011281D01*
X161639821Y-78001625D01*
X161668345Y-77979737D01*
X161674791Y-77974791D01*
X161759024Y-77865017D01*
X161767207Y-77845262D01*
X162444520Y-77845262D01*
X162461759Y-78050553D01*
X162518544Y-78248586D01*
X162521316Y-78253981D01*
X162521317Y-78253982D01*
X162562946Y-78334983D01*
X162612712Y-78431818D01*
X162616480Y-78436572D01*
X162645402Y-78473062D01*
X162740677Y-78593270D01*
X162745296Y-78597201D01*
X162892950Y-78722865D01*
X162892955Y-78722869D01*
X162897564Y-78726791D01*
X163077398Y-78827297D01*
X163273329Y-78890959D01*
X163279347Y-78891677D01*
X163279349Y-78891677D01*
X163421410Y-78908616D01*
X163477894Y-78915351D01*
X163483938Y-78914886D01*
X163483939Y-78914886D01*
X163545266Y-78910167D01*
X163683300Y-78899546D01*
X163806970Y-78865017D01*
X163875885Y-78845776D01*
X163875889Y-78845774D01*
X163881725Y-78844145D01*
X164065610Y-78751258D01*
X164227951Y-78624424D01*
X164231907Y-78619840D01*
X164231911Y-78619837D01*
X164358602Y-78473062D01*
X164362564Y-78468472D01*
X164365777Y-78462817D01*
X164461327Y-78294618D01*
X164464323Y-78289344D01*
X164507880Y-78158408D01*
X164527439Y-78099611D01*
X164527439Y-78099610D01*
X164529351Y-78093863D01*
X164530291Y-78086426D01*
X164554736Y-77892919D01*
X164554736Y-77892915D01*
X164555171Y-77889474D01*
X164555583Y-77860000D01*
X164535480Y-77654970D01*
X164475935Y-77457749D01*
X164434022Y-77378922D01*
X164382065Y-77281203D01*
X164382064Y-77281201D01*
X164379218Y-77275849D01*
X164249011Y-77116200D01*
X164229429Y-77100000D01*
X164094946Y-76988746D01*
X164094945Y-76988745D01*
X164090275Y-76984882D01*
X163986328Y-76928678D01*
X163914393Y-76889783D01*
X163914391Y-76889782D01*
X163909055Y-76886897D01*
X163899991Y-76884091D01*
X163718046Y-76827770D01*
X163718047Y-76827770D01*
X163712254Y-76825977D01*
X163507369Y-76804443D01*
X163501336Y-76804992D01*
X163501332Y-76804992D01*
X163375721Y-76816424D01*
X163302203Y-76823114D01*
X163296390Y-76824825D01*
X163296389Y-76824825D01*
X163292475Y-76825977D01*
X163104572Y-76881280D01*
X163079352Y-76894465D01*
X162927374Y-76973917D01*
X162927370Y-76973920D01*
X162922002Y-76976726D01*
X162917279Y-76980523D01*
X162917278Y-76980524D01*
X162803255Y-77072201D01*
X162761447Y-77105815D01*
X162629024Y-77263630D01*
X162529776Y-77444162D01*
X162527942Y-77449944D01*
X162527941Y-77449946D01*
X162482898Y-77591941D01*
X162467484Y-77640532D01*
X162444520Y-77845262D01*
X161767207Y-77845262D01*
X161811974Y-77737183D01*
X161830035Y-77600000D01*
X161811974Y-77462817D01*
X161807657Y-77452393D01*
X161762135Y-77342494D01*
X161759024Y-77334983D01*
X161674791Y-77225209D01*
X161639821Y-77198375D01*
X161598618Y-77141947D01*
X161594464Y-77072201D01*
X161628677Y-77011281D01*
X161639821Y-77001625D01*
X161665401Y-76981996D01*
X161674791Y-76974791D01*
X161759024Y-76865017D01*
X161811974Y-76737183D01*
X161830035Y-76600000D01*
X161811974Y-76462817D01*
X161759024Y-76334983D01*
X161674791Y-76225209D01*
X161565018Y-76140976D01*
X161557510Y-76137866D01*
X161557508Y-76137865D01*
X161521020Y-76122752D01*
X161437183Y-76088026D01*
X161300000Y-76069965D01*
X161162817Y-76088026D01*
X161155306Y-76091137D01*
X161155303Y-76091138D01*
X161155301Y-76091139D01*
X161034983Y-76140976D01*
X160925209Y-76225209D01*
X160920265Y-76231652D01*
X160920261Y-76231656D01*
X160898375Y-76260178D01*
X160841947Y-76301380D01*
X160772201Y-76305535D01*
X160711281Y-76271322D01*
X160701625Y-76260178D01*
X160679740Y-76231657D01*
X160679735Y-76231652D01*
X160674791Y-76225209D01*
X160565018Y-76140976D01*
X160557510Y-76137866D01*
X160557508Y-76137865D01*
X160521020Y-76122752D01*
X160437183Y-76088026D01*
X160300000Y-76069965D01*
X160162817Y-76088026D01*
X160155306Y-76091137D01*
X160155303Y-76091138D01*
X160155301Y-76091139D01*
X160034983Y-76140976D01*
X159925209Y-76225209D01*
X159920265Y-76231652D01*
X159920261Y-76231656D01*
X159898375Y-76260178D01*
X159841947Y-76301380D01*
X159772201Y-76305535D01*
X159711281Y-76271322D01*
X159701625Y-76260178D01*
X159679740Y-76231657D01*
X159679735Y-76231652D01*
X159674791Y-76225209D01*
X159565018Y-76140976D01*
X159557510Y-76137866D01*
X159557508Y-76137865D01*
X159521020Y-76122752D01*
X159437183Y-76088026D01*
X159300000Y-76069965D01*
X159162817Y-76088026D01*
X159155306Y-76091137D01*
X159155303Y-76091138D01*
X159155301Y-76091139D01*
X159034983Y-76140976D01*
X158925209Y-76225209D01*
X158920265Y-76231652D01*
X158920261Y-76231656D01*
X158898375Y-76260178D01*
X158841947Y-76301380D01*
X158772201Y-76305535D01*
X158711281Y-76271322D01*
X158701625Y-76260178D01*
X158679740Y-76231657D01*
X158679735Y-76231652D01*
X158674791Y-76225209D01*
X158565018Y-76140976D01*
X158557510Y-76137866D01*
X158557508Y-76137865D01*
X158521020Y-76122752D01*
X158437183Y-76088026D01*
X158300000Y-76069965D01*
X158162817Y-76088026D01*
X158155306Y-76091137D01*
X158155303Y-76091138D01*
X158155301Y-76091139D01*
X158034983Y-76140976D01*
X157925209Y-76225209D01*
X157920265Y-76231652D01*
X157920261Y-76231656D01*
X157898375Y-76260178D01*
X157841947Y-76301380D01*
X157772201Y-76305535D01*
X157711281Y-76271322D01*
X157701625Y-76260178D01*
X157679740Y-76231657D01*
X157679735Y-76231652D01*
X157674791Y-76225209D01*
X157565018Y-76140976D01*
X157557510Y-76137866D01*
X157557508Y-76137865D01*
X157521020Y-76122752D01*
X157437183Y-76088026D01*
X157300000Y-76069965D01*
X157162817Y-76088026D01*
X157155306Y-76091137D01*
X157155303Y-76091138D01*
X157155301Y-76091139D01*
X157034983Y-76140976D01*
X156925209Y-76225209D01*
X156840976Y-76334983D01*
X156788026Y-76462817D01*
X156769965Y-76600000D01*
X156788026Y-76737183D01*
X156840976Y-76865017D01*
X156925209Y-76974791D01*
X156934599Y-76981996D01*
X156960179Y-77001625D01*
X157001382Y-77058053D01*
X157005536Y-77127799D01*
X156971323Y-77188719D01*
X156960178Y-77198376D01*
X156931654Y-77220263D01*
X156931652Y-77220265D01*
X156925209Y-77225209D01*
X156840976Y-77334983D01*
X156837865Y-77342494D01*
X156792344Y-77452393D01*
X156788026Y-77462817D01*
X156769965Y-77600000D01*
X156788026Y-77737183D01*
X156840976Y-77865017D01*
X156925209Y-77974791D01*
X156931655Y-77979737D01*
X156960179Y-78001625D01*
X157001382Y-78058053D01*
X157005536Y-78127799D01*
X156971323Y-78188719D01*
X156960178Y-78198376D01*
X156931654Y-78220263D01*
X156931652Y-78220265D01*
X156925209Y-78225209D01*
X156840976Y-78334983D01*
X156788026Y-78462817D01*
X156769965Y-78600000D01*
X141587103Y-78600000D01*
X145341841Y-74845262D01*
X162444520Y-74845262D01*
X162461759Y-75050553D01*
X162518544Y-75248586D01*
X162612712Y-75431818D01*
X162616480Y-75436572D01*
X162645402Y-75473062D01*
X162740677Y-75593270D01*
X162745296Y-75597201D01*
X162892950Y-75722865D01*
X162892955Y-75722869D01*
X162897564Y-75726791D01*
X163077398Y-75827297D01*
X163273329Y-75890959D01*
X163279347Y-75891677D01*
X163279349Y-75891677D01*
X163421410Y-75908616D01*
X163477894Y-75915351D01*
X163483938Y-75914886D01*
X163483939Y-75914886D01*
X163545266Y-75910167D01*
X163683300Y-75899546D01*
X163768596Y-75875731D01*
X163875885Y-75845776D01*
X163875889Y-75845774D01*
X163881725Y-75844145D01*
X164065610Y-75751258D01*
X164227951Y-75624424D01*
X164231907Y-75619840D01*
X164231911Y-75619837D01*
X164358602Y-75473062D01*
X164362564Y-75468472D01*
X164383387Y-75431818D01*
X164461327Y-75294618D01*
X164464323Y-75289344D01*
X164529351Y-75093863D01*
X164534823Y-75050553D01*
X164554736Y-74892919D01*
X164554736Y-74892915D01*
X164555171Y-74889474D01*
X164555583Y-74860000D01*
X164535480Y-74654970D01*
X164475935Y-74457749D01*
X164379218Y-74275849D01*
X164249011Y-74116200D01*
X164231864Y-74102015D01*
X164094946Y-73988746D01*
X164094945Y-73988745D01*
X164090275Y-73984882D01*
X163999665Y-73935889D01*
X163914393Y-73889783D01*
X163914391Y-73889782D01*
X163909055Y-73886897D01*
X163899991Y-73884091D01*
X163718046Y-73827770D01*
X163718047Y-73827770D01*
X163712254Y-73825977D01*
X163507369Y-73804443D01*
X163501336Y-73804992D01*
X163501332Y-73804992D01*
X163375721Y-73816424D01*
X163302203Y-73823114D01*
X163296390Y-73824825D01*
X163296389Y-73824825D01*
X163292475Y-73825977D01*
X163104572Y-73881280D01*
X163085716Y-73891138D01*
X162927374Y-73973917D01*
X162927370Y-73973920D01*
X162922002Y-73976726D01*
X162917279Y-73980523D01*
X162917278Y-73980524D01*
X162853688Y-74031652D01*
X162761447Y-74105815D01*
X162629024Y-74263630D01*
X162529776Y-74444162D01*
X162527942Y-74449944D01*
X162527941Y-74449946D01*
X162469317Y-74634753D01*
X162467484Y-74640532D01*
X162460731Y-74700738D01*
X162452425Y-74774791D01*
X162444520Y-74845262D01*
X145341841Y-74845262D01*
X148087103Y-72100000D01*
X159969965Y-72100000D01*
X159988026Y-72237183D01*
X159991137Y-72244694D01*
X159991138Y-72244697D01*
X160011816Y-72294618D01*
X160040976Y-72365017D01*
X160125209Y-72474791D01*
X160234982Y-72559024D01*
X160242490Y-72562134D01*
X160242492Y-72562135D01*
X160278980Y-72577248D01*
X160362817Y-72611974D01*
X160500000Y-72630035D01*
X160637183Y-72611974D01*
X160721020Y-72577248D01*
X160757508Y-72562135D01*
X160757510Y-72562134D01*
X160765018Y-72559024D01*
X160874791Y-72474791D01*
X160959024Y-72365017D01*
X160988184Y-72294618D01*
X161008862Y-72244697D01*
X161008863Y-72244694D01*
X161011974Y-72237183D01*
X161030035Y-72100000D01*
X161011974Y-71962817D01*
X160963282Y-71845262D01*
X162444520Y-71845262D01*
X162461759Y-72050553D01*
X162518544Y-72248586D01*
X162521316Y-72253981D01*
X162521317Y-72253982D01*
X162534441Y-72279518D01*
X162612712Y-72431818D01*
X162616480Y-72436572D01*
X162734741Y-72585780D01*
X162740677Y-72593270D01*
X162745296Y-72597201D01*
X162892950Y-72722865D01*
X162892955Y-72722869D01*
X162897564Y-72726791D01*
X163077398Y-72827297D01*
X163273329Y-72890959D01*
X163279347Y-72891677D01*
X163279349Y-72891677D01*
X163421410Y-72908616D01*
X163477894Y-72915351D01*
X163483938Y-72914886D01*
X163483939Y-72914886D01*
X163545266Y-72910167D01*
X163683300Y-72899546D01*
X163784384Y-72871323D01*
X163875885Y-72845776D01*
X163875889Y-72845774D01*
X163881725Y-72844145D01*
X164065610Y-72751258D01*
X164227951Y-72624424D01*
X164231907Y-72619840D01*
X164231911Y-72619837D01*
X164358602Y-72473062D01*
X164362564Y-72468472D01*
X164383387Y-72431818D01*
X164461327Y-72294618D01*
X164464323Y-72289344D01*
X164524629Y-72108059D01*
X164527439Y-72099611D01*
X164527439Y-72099610D01*
X164529351Y-72093863D01*
X164534823Y-72050553D01*
X164554736Y-71892919D01*
X164554736Y-71892915D01*
X164555171Y-71889474D01*
X164555583Y-71860000D01*
X164551902Y-71822458D01*
X164536072Y-71661006D01*
X164536072Y-71661004D01*
X164535480Y-71654970D01*
X164475935Y-71457749D01*
X164379218Y-71275849D01*
X164249011Y-71116200D01*
X164194935Y-71071464D01*
X164094946Y-70988746D01*
X164094945Y-70988745D01*
X164090275Y-70984882D01*
X163976383Y-70923301D01*
X163914393Y-70889783D01*
X163914391Y-70889782D01*
X163909055Y-70886897D01*
X163899991Y-70884091D01*
X163718046Y-70827770D01*
X163718047Y-70827770D01*
X163712254Y-70825977D01*
X163507369Y-70804443D01*
X163501336Y-70804992D01*
X163501332Y-70804992D01*
X163375721Y-70816424D01*
X163302203Y-70823114D01*
X163296390Y-70824825D01*
X163296389Y-70824825D01*
X163228870Y-70844697D01*
X163104572Y-70881280D01*
X163024194Y-70923301D01*
X162927374Y-70973917D01*
X162927370Y-70973920D01*
X162922002Y-70976726D01*
X162917279Y-70980523D01*
X162917278Y-70980524D01*
X162812190Y-71065017D01*
X162761447Y-71105815D01*
X162742387Y-71128530D01*
X162637042Y-71254075D01*
X162629024Y-71263630D01*
X162529776Y-71444162D01*
X162527942Y-71449944D01*
X162527941Y-71449946D01*
X162469317Y-71634753D01*
X162467484Y-71640532D01*
X162463215Y-71678594D01*
X162446397Y-71828530D01*
X162444520Y-71845262D01*
X160963282Y-71845262D01*
X160959024Y-71834983D01*
X160954075Y-71828533D01*
X160954073Y-71828530D01*
X160951740Y-71825489D01*
X160950568Y-71822458D01*
X160950011Y-71821493D01*
X160950161Y-71821406D01*
X160926543Y-71760321D01*
X160940580Y-71691876D01*
X160951740Y-71674511D01*
X160954073Y-71671470D01*
X160954075Y-71671467D01*
X160959024Y-71665017D01*
X161011974Y-71537183D01*
X161030035Y-71400000D01*
X161011974Y-71262817D01*
X161006873Y-71250500D01*
X160962135Y-71142494D01*
X160959024Y-71134983D01*
X160954075Y-71128533D01*
X160954073Y-71128530D01*
X160951740Y-71125489D01*
X160950568Y-71122458D01*
X160950011Y-71121493D01*
X160950161Y-71121406D01*
X160926543Y-71060321D01*
X160940580Y-70991876D01*
X160951740Y-70974511D01*
X160954073Y-70971470D01*
X160954075Y-70971467D01*
X160959024Y-70965017D01*
X160976303Y-70923301D01*
X161008862Y-70844697D01*
X161008863Y-70844694D01*
X161011974Y-70837183D01*
X161030035Y-70700000D01*
X161011974Y-70562817D01*
X160997775Y-70528536D01*
X160962135Y-70442494D01*
X160959024Y-70434983D01*
X160954075Y-70428533D01*
X160954073Y-70428530D01*
X160951740Y-70425489D01*
X160950568Y-70422458D01*
X160950011Y-70421493D01*
X160950161Y-70421406D01*
X160926543Y-70360321D01*
X160940580Y-70291876D01*
X160951740Y-70274511D01*
X160954073Y-70271470D01*
X160954075Y-70271467D01*
X160959024Y-70265017D01*
X161011974Y-70137183D01*
X161030035Y-70000000D01*
X161011974Y-69862817D01*
X161004916Y-69845776D01*
X160966897Y-69753990D01*
X160959024Y-69734983D01*
X160954075Y-69728533D01*
X160954073Y-69728530D01*
X160951740Y-69725489D01*
X160950568Y-69722458D01*
X160950011Y-69721493D01*
X160950161Y-69721406D01*
X160926543Y-69660321D01*
X160940580Y-69591876D01*
X160951740Y-69574511D01*
X160954073Y-69571470D01*
X160954075Y-69571467D01*
X160959024Y-69565017D01*
X161011974Y-69437183D01*
X161030035Y-69300000D01*
X161011974Y-69162817D01*
X160959024Y-69034983D01*
X160954075Y-69028533D01*
X160954073Y-69028530D01*
X160951740Y-69025489D01*
X160950568Y-69022458D01*
X160950011Y-69021493D01*
X160950161Y-69021406D01*
X160926543Y-68960321D01*
X160940580Y-68891876D01*
X160951740Y-68874511D01*
X160954073Y-68871470D01*
X160954075Y-68871467D01*
X160959024Y-68865017D01*
X160967207Y-68845262D01*
X162444520Y-68845262D01*
X162461759Y-69050553D01*
X162518544Y-69248586D01*
X162521316Y-69253981D01*
X162521317Y-69253982D01*
X162553132Y-69315888D01*
X162612712Y-69431818D01*
X162616480Y-69436572D01*
X162723399Y-69571470D01*
X162740677Y-69593270D01*
X162745296Y-69597201D01*
X162892950Y-69722865D01*
X162892955Y-69722869D01*
X162897564Y-69726791D01*
X163077398Y-69827297D01*
X163273329Y-69890959D01*
X163279347Y-69891677D01*
X163279349Y-69891677D01*
X163421410Y-69908616D01*
X163477894Y-69915351D01*
X163483938Y-69914886D01*
X163483939Y-69914886D01*
X163545266Y-69910167D01*
X163683300Y-69899546D01*
X163796680Y-69867890D01*
X163875885Y-69845776D01*
X163875889Y-69845774D01*
X163881725Y-69844145D01*
X164065610Y-69751258D01*
X164227951Y-69624424D01*
X164231907Y-69619840D01*
X164231911Y-69619837D01*
X164358602Y-69473062D01*
X164362564Y-69468472D01*
X164383387Y-69431818D01*
X164461327Y-69294618D01*
X164464323Y-69289344D01*
X164529351Y-69093863D01*
X164531761Y-69074791D01*
X164554736Y-68892919D01*
X164554736Y-68892915D01*
X164555171Y-68889474D01*
X164555583Y-68860000D01*
X164535480Y-68654970D01*
X164475935Y-68457749D01*
X164418808Y-68350308D01*
X164382065Y-68281203D01*
X164382064Y-68281201D01*
X164379218Y-68275849D01*
X164249011Y-68116200D01*
X164159267Y-68041957D01*
X164094946Y-67988746D01*
X164094945Y-67988745D01*
X164090275Y-67984882D01*
X163999665Y-67935890D01*
X163914393Y-67889783D01*
X163914391Y-67889782D01*
X163909055Y-67886897D01*
X163899991Y-67884091D01*
X163718046Y-67827770D01*
X163718047Y-67827770D01*
X163712254Y-67825977D01*
X163507369Y-67804443D01*
X163501336Y-67804992D01*
X163501332Y-67804992D01*
X163375721Y-67816424D01*
X163302203Y-67823114D01*
X163296390Y-67824825D01*
X163296389Y-67824825D01*
X163292475Y-67825977D01*
X163104572Y-67881280D01*
X163053349Y-67908059D01*
X162927374Y-67973917D01*
X162927370Y-67973920D01*
X162922002Y-67976726D01*
X162917279Y-67980523D01*
X162917278Y-67980524D01*
X162840871Y-68041957D01*
X162761447Y-68105815D01*
X162629024Y-68263630D01*
X162529776Y-68444162D01*
X162527942Y-68449944D01*
X162527941Y-68449946D01*
X162489579Y-68570880D01*
X162467484Y-68640532D01*
X162461718Y-68691941D01*
X162446331Y-68829120D01*
X162444520Y-68845262D01*
X160967207Y-68845262D01*
X161011974Y-68737183D01*
X161030035Y-68600000D01*
X161011974Y-68462817D01*
X161007657Y-68452393D01*
X160962135Y-68342494D01*
X160959024Y-68334983D01*
X160954075Y-68328533D01*
X160954073Y-68328530D01*
X160951740Y-68325489D01*
X160950568Y-68322458D01*
X160950011Y-68321493D01*
X160950161Y-68321406D01*
X160926543Y-68260321D01*
X160940580Y-68191876D01*
X160951740Y-68174511D01*
X160954073Y-68171470D01*
X160954075Y-68171467D01*
X160959024Y-68165017D01*
X161011974Y-68037183D01*
X161030035Y-67900000D01*
X161011974Y-67762817D01*
X160959024Y-67634983D01*
X160954075Y-67628533D01*
X160954073Y-67628530D01*
X160951740Y-67625489D01*
X160950568Y-67622458D01*
X160950011Y-67621493D01*
X160950161Y-67621406D01*
X160926543Y-67560321D01*
X160940580Y-67491876D01*
X160951740Y-67474511D01*
X160954073Y-67471470D01*
X160954075Y-67471467D01*
X160959024Y-67465017D01*
X161011974Y-67337183D01*
X161030035Y-67200000D01*
X161011974Y-67062817D01*
X160959024Y-66934983D01*
X160954075Y-66928533D01*
X160954073Y-66928530D01*
X160951740Y-66925489D01*
X160950568Y-66922458D01*
X160950011Y-66921493D01*
X160950161Y-66921406D01*
X160926543Y-66860321D01*
X160940580Y-66791876D01*
X160951740Y-66774511D01*
X160954073Y-66771470D01*
X160954075Y-66771467D01*
X160959024Y-66765017D01*
X161011974Y-66637183D01*
X161030035Y-66500000D01*
X161017234Y-66402772D01*
X162449500Y-66402772D01*
X162460364Y-66492547D01*
X162463296Y-66499951D01*
X162463296Y-66499953D01*
X162466506Y-66508059D01*
X162515887Y-66632783D01*
X162607078Y-66752922D01*
X162727217Y-66844113D01*
X162735078Y-66847225D01*
X162735079Y-66847226D01*
X162860047Y-66896704D01*
X162860049Y-66896704D01*
X162867453Y-66899636D01*
X162875357Y-66900592D01*
X162875359Y-66900593D01*
X162928073Y-66906972D01*
X162957228Y-66910500D01*
X164042772Y-66910500D01*
X164071927Y-66906972D01*
X164124641Y-66900593D01*
X164124643Y-66900592D01*
X164132547Y-66899636D01*
X164139951Y-66896704D01*
X164139953Y-66896704D01*
X164264921Y-66847226D01*
X164264922Y-66847225D01*
X164272783Y-66844113D01*
X164392922Y-66752922D01*
X164484113Y-66632783D01*
X164533495Y-66508059D01*
X164536704Y-66499953D01*
X164536704Y-66499951D01*
X164539636Y-66492547D01*
X164550500Y-66402772D01*
X164550500Y-65317228D01*
X164544781Y-65269965D01*
X164540593Y-65235359D01*
X164540592Y-65235357D01*
X164539636Y-65227453D01*
X164524823Y-65190039D01*
X164487226Y-65095079D01*
X164487225Y-65095078D01*
X164484113Y-65087217D01*
X164440709Y-65030034D01*
X164398032Y-64973810D01*
X164392922Y-64967078D01*
X164272783Y-64875887D01*
X164264922Y-64872775D01*
X164264921Y-64872774D01*
X164139953Y-64823296D01*
X164139951Y-64823296D01*
X164132547Y-64820364D01*
X164124643Y-64819408D01*
X164124641Y-64819407D01*
X164071927Y-64813028D01*
X164042772Y-64809500D01*
X162957228Y-64809500D01*
X162928073Y-64813028D01*
X162875359Y-64819407D01*
X162875357Y-64819408D01*
X162867453Y-64820364D01*
X162860049Y-64823296D01*
X162860047Y-64823296D01*
X162735079Y-64872774D01*
X162735078Y-64872775D01*
X162727217Y-64875887D01*
X162607078Y-64967078D01*
X162601968Y-64973810D01*
X162559292Y-65030034D01*
X162515887Y-65087217D01*
X162512775Y-65095078D01*
X162512774Y-65095079D01*
X162475177Y-65190039D01*
X162460364Y-65227453D01*
X162459408Y-65235357D01*
X162459407Y-65235359D01*
X162455219Y-65269965D01*
X162449500Y-65317228D01*
X162449500Y-66402772D01*
X161017234Y-66402772D01*
X161011974Y-66362817D01*
X160959024Y-66234983D01*
X160954075Y-66228533D01*
X160954073Y-66228530D01*
X160951740Y-66225489D01*
X160950568Y-66222458D01*
X160950011Y-66221493D01*
X160950161Y-66221406D01*
X160926543Y-66160321D01*
X160940580Y-66091876D01*
X160951740Y-66074511D01*
X160954073Y-66071470D01*
X160954075Y-66071467D01*
X160959024Y-66065017D01*
X161005477Y-65952868D01*
X161008862Y-65944697D01*
X161008863Y-65944694D01*
X161011974Y-65937183D01*
X161030035Y-65800000D01*
X161011974Y-65662817D01*
X160959024Y-65534983D01*
X160874791Y-65425209D01*
X160765018Y-65340976D01*
X160757510Y-65337866D01*
X160757508Y-65337865D01*
X160721020Y-65322752D01*
X160637183Y-65288026D01*
X160500000Y-65269965D01*
X160362817Y-65288026D01*
X160355306Y-65291137D01*
X160355303Y-65291138D01*
X160355301Y-65291139D01*
X160234983Y-65340976D01*
X160125209Y-65425209D01*
X160040976Y-65534983D01*
X159988026Y-65662817D01*
X159969965Y-65800000D01*
X159988026Y-65937183D01*
X159991137Y-65944694D01*
X159991138Y-65944697D01*
X159994523Y-65952868D01*
X160040976Y-66065017D01*
X160045925Y-66071467D01*
X160045927Y-66071470D01*
X160048260Y-66074511D01*
X160049432Y-66077542D01*
X160049989Y-66078507D01*
X160049839Y-66078594D01*
X160073457Y-66139679D01*
X160059420Y-66208124D01*
X160048260Y-66225489D01*
X160045927Y-66228530D01*
X160045925Y-66228533D01*
X160040976Y-66234983D01*
X159988026Y-66362817D01*
X159969965Y-66500000D01*
X159988026Y-66637183D01*
X160040976Y-66765017D01*
X160045925Y-66771467D01*
X160045927Y-66771470D01*
X160048260Y-66774511D01*
X160049432Y-66777542D01*
X160049989Y-66778507D01*
X160049839Y-66778594D01*
X160073457Y-66839679D01*
X160059420Y-66908124D01*
X160048260Y-66925489D01*
X160045927Y-66928530D01*
X160045925Y-66928533D01*
X160040976Y-66934983D01*
X159988026Y-67062817D01*
X159969965Y-67200000D01*
X159988026Y-67337183D01*
X160040976Y-67465017D01*
X160045925Y-67471467D01*
X160045927Y-67471470D01*
X160048260Y-67474511D01*
X160049432Y-67477542D01*
X160049989Y-67478507D01*
X160049839Y-67478594D01*
X160073457Y-67539679D01*
X160059420Y-67608124D01*
X160048260Y-67625489D01*
X160045927Y-67628530D01*
X160045925Y-67628533D01*
X160040976Y-67634983D01*
X159988026Y-67762817D01*
X159969965Y-67900000D01*
X159988026Y-68037183D01*
X160040976Y-68165017D01*
X160045925Y-68171467D01*
X160045927Y-68171470D01*
X160048260Y-68174511D01*
X160049432Y-68177542D01*
X160049989Y-68178507D01*
X160049839Y-68178594D01*
X160073457Y-68239679D01*
X160059420Y-68308124D01*
X160048260Y-68325489D01*
X160045927Y-68328530D01*
X160045925Y-68328533D01*
X160040976Y-68334983D01*
X160037865Y-68342494D01*
X159992344Y-68452393D01*
X159988026Y-68462817D01*
X159969965Y-68600000D01*
X159988026Y-68737183D01*
X160040976Y-68865017D01*
X160045925Y-68871467D01*
X160045927Y-68871470D01*
X160048260Y-68874511D01*
X160049432Y-68877542D01*
X160049989Y-68878507D01*
X160049839Y-68878594D01*
X160073457Y-68939679D01*
X160059420Y-69008124D01*
X160048260Y-69025489D01*
X160045927Y-69028530D01*
X160045925Y-69028533D01*
X160040976Y-69034983D01*
X159988026Y-69162817D01*
X159969965Y-69300000D01*
X159988026Y-69437183D01*
X160040976Y-69565017D01*
X160045925Y-69571467D01*
X160045927Y-69571470D01*
X160048260Y-69574511D01*
X160049432Y-69577542D01*
X160049989Y-69578507D01*
X160049839Y-69578594D01*
X160073457Y-69639679D01*
X160059420Y-69708124D01*
X160048260Y-69725489D01*
X160045927Y-69728530D01*
X160045925Y-69728533D01*
X160040976Y-69734983D01*
X160033103Y-69753990D01*
X159995085Y-69845776D01*
X159988026Y-69862817D01*
X159969965Y-70000000D01*
X159988026Y-70137183D01*
X160040976Y-70265017D01*
X160045925Y-70271467D01*
X160045927Y-70271470D01*
X160048260Y-70274511D01*
X160049432Y-70277542D01*
X160049989Y-70278507D01*
X160049839Y-70278594D01*
X160073457Y-70339679D01*
X160059420Y-70408124D01*
X160048260Y-70425489D01*
X160045927Y-70428530D01*
X160045925Y-70428533D01*
X160040976Y-70434983D01*
X160037865Y-70442494D01*
X160002226Y-70528536D01*
X159988026Y-70562817D01*
X159969965Y-70700000D01*
X159988026Y-70837183D01*
X159991137Y-70844694D01*
X159991138Y-70844697D01*
X160023697Y-70923301D01*
X160040976Y-70965017D01*
X160045925Y-70971467D01*
X160045927Y-70971470D01*
X160048260Y-70974511D01*
X160049432Y-70977542D01*
X160049989Y-70978507D01*
X160049839Y-70978594D01*
X160073457Y-71039679D01*
X160059420Y-71108124D01*
X160048260Y-71125489D01*
X160045927Y-71128530D01*
X160045925Y-71128533D01*
X160040976Y-71134983D01*
X160037865Y-71142494D01*
X159993128Y-71250500D01*
X159988026Y-71262817D01*
X159969965Y-71400000D01*
X159988026Y-71537183D01*
X160040976Y-71665017D01*
X160045925Y-71671467D01*
X160045927Y-71671470D01*
X160048260Y-71674511D01*
X160049432Y-71677542D01*
X160049989Y-71678507D01*
X160049839Y-71678594D01*
X160073457Y-71739679D01*
X160059420Y-71808124D01*
X160048260Y-71825489D01*
X160045927Y-71828530D01*
X160045925Y-71828533D01*
X160040976Y-71834983D01*
X159988026Y-71962817D01*
X159969965Y-72100000D01*
X148087103Y-72100000D01*
X148900284Y-71286819D01*
X148961607Y-71253334D01*
X148987965Y-71250500D01*
X154639739Y-71250500D01*
X154687191Y-71259939D01*
X154812817Y-71311974D01*
X154950000Y-71330035D01*
X155087183Y-71311974D01*
X155186395Y-71270880D01*
X155207508Y-71262135D01*
X155207510Y-71262134D01*
X155215018Y-71259024D01*
X155324791Y-71174791D01*
X155409024Y-71065017D01*
X155445595Y-70976726D01*
X155458862Y-70944697D01*
X155458863Y-70944694D01*
X155461974Y-70937183D01*
X155480035Y-70800000D01*
X155478808Y-70790682D01*
X155478974Y-70789619D01*
X155478974Y-70783814D01*
X155479879Y-70783814D01*
X155489576Y-70721647D01*
X155535957Y-70669393D01*
X155601748Y-70650500D01*
X157012035Y-70650500D01*
X157079074Y-70670185D01*
X157099716Y-70686819D01*
X157312062Y-70899165D01*
X157338942Y-70939393D01*
X157390976Y-71065017D01*
X157475209Y-71174791D01*
X157584982Y-71259024D01*
X157592490Y-71262134D01*
X157592492Y-71262135D01*
X157613605Y-71270880D01*
X157712817Y-71311974D01*
X157850000Y-71330035D01*
X157987183Y-71311974D01*
X158086395Y-71270880D01*
X158107508Y-71262135D01*
X158107510Y-71262134D01*
X158115018Y-71259024D01*
X158224791Y-71174791D01*
X158309024Y-71065017D01*
X158345595Y-70976726D01*
X158358862Y-70944697D01*
X158358863Y-70944694D01*
X158361974Y-70937183D01*
X158380035Y-70800000D01*
X158361974Y-70662817D01*
X158356873Y-70650500D01*
X158312135Y-70542494D01*
X158309024Y-70534983D01*
X158224791Y-70425209D01*
X158115018Y-70340976D01*
X158107510Y-70337866D01*
X158107508Y-70337865D01*
X157989394Y-70288942D01*
X157949165Y-70262062D01*
X157592667Y-69905564D01*
X157582969Y-69894651D01*
X157567611Y-69875170D01*
X157561872Y-69867890D01*
X157513554Y-69834495D01*
X157510454Y-69832281D01*
X157463184Y-69797366D01*
X157456368Y-69794973D01*
X157450431Y-69790869D01*
X157394481Y-69773174D01*
X157390791Y-69771943D01*
X157344116Y-69755552D01*
X157344112Y-69755551D01*
X157335369Y-69752481D01*
X157328265Y-69752202D01*
X157328014Y-69752153D01*
X157321270Y-69750020D01*
X157314663Y-69749500D01*
X157261932Y-69749500D01*
X157257063Y-69749404D01*
X157209273Y-69747526D01*
X157209272Y-69747526D01*
X157200006Y-69747162D01*
X157192922Y-69749040D01*
X157184562Y-69749500D01*
X148434103Y-69749500D01*
X148419529Y-69748641D01*
X148394893Y-69745725D01*
X148394892Y-69745725D01*
X148385690Y-69744636D01*
X148376574Y-69746301D01*
X148376567Y-69746301D01*
X148327938Y-69755182D01*
X148324102Y-69755821D01*
X148314738Y-69757229D01*
X148275202Y-69763173D01*
X148275201Y-69763173D01*
X148266038Y-69764551D01*
X148259528Y-69767677D01*
X148252427Y-69768974D01*
X148244201Y-69773247D01*
X148200322Y-69796039D01*
X148196840Y-69797779D01*
X148152277Y-69819178D01*
X148152275Y-69819179D01*
X148143921Y-69823191D01*
X148138702Y-69828016D01*
X148138487Y-69828161D01*
X148132212Y-69831420D01*
X148127172Y-69835724D01*
X148089890Y-69873006D01*
X148086380Y-69876381D01*
X148044444Y-69915146D01*
X148040765Y-69921481D01*
X148035178Y-69927718D01*
X139955564Y-78007333D01*
X139944651Y-78017031D01*
X139917890Y-78038128D01*
X139912620Y-78045753D01*
X139884510Y-78086426D01*
X139882281Y-78089546D01*
X139847366Y-78136816D01*
X139844973Y-78143632D01*
X139840869Y-78149569D01*
X139825433Y-78198376D01*
X139823175Y-78205516D01*
X139821943Y-78209209D01*
X139805552Y-78255884D01*
X139805551Y-78255888D01*
X139802481Y-78264631D01*
X139802202Y-78271735D01*
X139802153Y-78271986D01*
X139800020Y-78278730D01*
X139799500Y-78285337D01*
X139799500Y-78338068D01*
X139799404Y-78342937D01*
X139797162Y-78399994D01*
X139799040Y-78407078D01*
X139799500Y-78415438D01*
X139799500Y-84039740D01*
X139790061Y-84087192D01*
X139743469Y-84199677D01*
X139738026Y-84212817D01*
X139719965Y-84350000D01*
X123906665Y-84350000D01*
X123911974Y-84337183D01*
X123930035Y-84200000D01*
X123911974Y-84062817D01*
X123902416Y-84039740D01*
X123862135Y-83942494D01*
X123859024Y-83934983D01*
X123774791Y-83825209D01*
X123665018Y-83740976D01*
X123657510Y-83737866D01*
X123657508Y-83737865D01*
X123621020Y-83722752D01*
X123537183Y-83688026D01*
X123400000Y-83669965D01*
X123262817Y-83688026D01*
X123255306Y-83691137D01*
X123255303Y-83691138D01*
X123171027Y-83726046D01*
X123134983Y-83740976D01*
X123025209Y-83825209D01*
X123020265Y-83831652D01*
X122994663Y-83865017D01*
X122940976Y-83934983D01*
X122937865Y-83942494D01*
X122897585Y-84039740D01*
X122888026Y-84062817D01*
X122886965Y-84070879D01*
X122886964Y-84070881D01*
X122885280Y-84083675D01*
X122857015Y-84147572D01*
X122798691Y-84186044D01*
X122737300Y-84187140D01*
X122737183Y-84188026D01*
X122729126Y-84186965D01*
X122729125Y-84186965D01*
X122608059Y-84171026D01*
X122600000Y-84169965D01*
X122591941Y-84171026D01*
X122470875Y-84186965D01*
X122470874Y-84186965D01*
X122462817Y-84188026D01*
X122462695Y-84187098D01*
X122399902Y-84185603D01*
X122342040Y-84146440D01*
X122314720Y-84083675D01*
X122313036Y-84070881D01*
X122313035Y-84070879D01*
X122311974Y-84062817D01*
X122302416Y-84039740D01*
X122262135Y-83942494D01*
X122259024Y-83934983D01*
X122174791Y-83825209D01*
X122065018Y-83740976D01*
X122057510Y-83737866D01*
X122057508Y-83737865D01*
X122021020Y-83722752D01*
X121937183Y-83688026D01*
X121800000Y-83669965D01*
X121662817Y-83688026D01*
X121655306Y-83691137D01*
X121655303Y-83691138D01*
X121571027Y-83726046D01*
X121534983Y-83740976D01*
X121425209Y-83825209D01*
X121420265Y-83831652D01*
X121394663Y-83865017D01*
X121340976Y-83934983D01*
X121337865Y-83942494D01*
X121297585Y-84039740D01*
X121288026Y-84062817D01*
X121269965Y-84200000D01*
X121288026Y-84337183D01*
X121340976Y-84465017D01*
X121425209Y-84574791D01*
X121431655Y-84579737D01*
X121460179Y-84601625D01*
X121501382Y-84658053D01*
X121505536Y-84727799D01*
X121471323Y-84788719D01*
X121460178Y-84798376D01*
X121431654Y-84820263D01*
X121431652Y-84820265D01*
X121425209Y-84825209D01*
X121340976Y-84934983D01*
X121288026Y-85062817D01*
X121269965Y-85200000D01*
X121288026Y-85337183D01*
X121340976Y-85465017D01*
X121425209Y-85574791D01*
X121431655Y-85579737D01*
X121460179Y-85601625D01*
X121501382Y-85658053D01*
X121505536Y-85727799D01*
X121471323Y-85788719D01*
X121460178Y-85798376D01*
X121431654Y-85820263D01*
X121431652Y-85820265D01*
X121425209Y-85825209D01*
X121340976Y-85934983D01*
X121337865Y-85942494D01*
X121302846Y-86027039D01*
X121288026Y-86062817D01*
X121269965Y-86200000D01*
X121288026Y-86337183D01*
X121291137Y-86344694D01*
X121291138Y-86344697D01*
X121321645Y-86418347D01*
X121340976Y-86465017D01*
X121425209Y-86574791D01*
X121431655Y-86579737D01*
X121460179Y-86601625D01*
X121501382Y-86658053D01*
X121505536Y-86727799D01*
X121471323Y-86788719D01*
X121460178Y-86798376D01*
X121431654Y-86820263D01*
X121431652Y-86820265D01*
X121425209Y-86825209D01*
X121340976Y-86934983D01*
X121332302Y-86955925D01*
X121291143Y-87055293D01*
X121288026Y-87062817D01*
X121269965Y-87200000D01*
X121288026Y-87337183D01*
X121291137Y-87344694D01*
X121291138Y-87344697D01*
X121314271Y-87400544D01*
X121340976Y-87465017D01*
X121425209Y-87574791D01*
X121448226Y-87592453D01*
X121460179Y-87601625D01*
X121501382Y-87658053D01*
X121505536Y-87727799D01*
X121471323Y-87788719D01*
X121460178Y-87798376D01*
X121431654Y-87820263D01*
X121431652Y-87820265D01*
X121425209Y-87825209D01*
X121420265Y-87831652D01*
X121415423Y-87837962D01*
X121340976Y-87934983D01*
X121288026Y-88062817D01*
X121269965Y-88200000D01*
X121288026Y-88337183D01*
X121291137Y-88344694D01*
X121291138Y-88344697D01*
X121305652Y-88379737D01*
X121340976Y-88465017D01*
X121425209Y-88574791D01*
X121431655Y-88579737D01*
X121460179Y-88601625D01*
X121501382Y-88658053D01*
X121505536Y-88727799D01*
X121471323Y-88788719D01*
X121460178Y-88798376D01*
X121431654Y-88820263D01*
X121431652Y-88820265D01*
X121425209Y-88825209D01*
X121420265Y-88831652D01*
X121394663Y-88865017D01*
X121340976Y-88934983D01*
X121288026Y-89062817D01*
X121269965Y-89200000D01*
X112800000Y-89200000D01*
X112800000Y-81500000D01*
X122869965Y-81500000D01*
X122888026Y-81637183D01*
X122891137Y-81644694D01*
X122891138Y-81644697D01*
X122926046Y-81728973D01*
X122940976Y-81765017D01*
X123025209Y-81874791D01*
X123134982Y-81959024D01*
X123142490Y-81962134D01*
X123142492Y-81962135D01*
X123178980Y-81977248D01*
X123262817Y-82011974D01*
X123400000Y-82030035D01*
X123537183Y-82011974D01*
X123621020Y-81977248D01*
X123657508Y-81962135D01*
X123657510Y-81962134D01*
X123665018Y-81959024D01*
X123741938Y-81900000D01*
X136319534Y-81900000D01*
X136339313Y-82050236D01*
X136397302Y-82190233D01*
X136489549Y-82310451D01*
X136609767Y-82402698D01*
X136679766Y-82431693D01*
X136742255Y-82457577D01*
X136742257Y-82457578D01*
X136749764Y-82460687D01*
X136900000Y-82480466D01*
X136908059Y-82479405D01*
X137042177Y-82461748D01*
X137050236Y-82460687D01*
X137057743Y-82457578D01*
X137057745Y-82457577D01*
X137120235Y-82431692D01*
X137190233Y-82402698D01*
X137310451Y-82310451D01*
X137402698Y-82190233D01*
X137460687Y-82050236D01*
X137480466Y-81900000D01*
X137460687Y-81749764D01*
X137402698Y-81609767D01*
X137318470Y-81500000D01*
X137315395Y-81495992D01*
X137310451Y-81489549D01*
X137190233Y-81397302D01*
X137120234Y-81368307D01*
X137057745Y-81342423D01*
X137057743Y-81342422D01*
X137050236Y-81339313D01*
X136900000Y-81319534D01*
X136749764Y-81339313D01*
X136742257Y-81342422D01*
X136742255Y-81342423D01*
X136679765Y-81368308D01*
X136609767Y-81397302D01*
X136489549Y-81489549D01*
X136484605Y-81495992D01*
X136481530Y-81500000D01*
X136397302Y-81609767D01*
X136339313Y-81749764D01*
X136319534Y-81900000D01*
X123741938Y-81900000D01*
X123774791Y-81874791D01*
X123859024Y-81765017D01*
X123873954Y-81728973D01*
X123908862Y-81644697D01*
X123908863Y-81644694D01*
X123911974Y-81637183D01*
X123930035Y-81500000D01*
X123911974Y-81362817D01*
X123907292Y-81351512D01*
X123862135Y-81242494D01*
X123859024Y-81234983D01*
X123774791Y-81125209D01*
X123665018Y-81040976D01*
X123657510Y-81037866D01*
X123657508Y-81037865D01*
X123615784Y-81020583D01*
X123537183Y-80988026D01*
X123400000Y-80969965D01*
X123262817Y-80988026D01*
X123255306Y-80991137D01*
X123255303Y-80991138D01*
X123171027Y-81026046D01*
X123134983Y-81040976D01*
X123025209Y-81125209D01*
X122940976Y-81234983D01*
X122937865Y-81242494D01*
X122892709Y-81351512D01*
X122888026Y-81362817D01*
X122869965Y-81500000D01*
X112800000Y-81500000D01*
X112800000Y-74400000D01*
X136469965Y-74400000D01*
X136488026Y-74537183D01*
X136540976Y-74665017D01*
X136625209Y-74774791D01*
X136734982Y-74859024D01*
X136742490Y-74862134D01*
X136742492Y-74862135D01*
X136778980Y-74877248D01*
X136862817Y-74911974D01*
X137000000Y-74930035D01*
X137137183Y-74911974D01*
X137221020Y-74877248D01*
X137257508Y-74862135D01*
X137257510Y-74862134D01*
X137265018Y-74859024D01*
X137374791Y-74774791D01*
X137459024Y-74665017D01*
X137511974Y-74537183D01*
X137530035Y-74400000D01*
X137511974Y-74262817D01*
X137459024Y-74134983D01*
X137374791Y-74025209D01*
X137265018Y-73940976D01*
X137257510Y-73937866D01*
X137257508Y-73937865D01*
X137221020Y-73922752D01*
X137137183Y-73888026D01*
X137000000Y-73869965D01*
X136862817Y-73888026D01*
X136855306Y-73891137D01*
X136855303Y-73891138D01*
X136855301Y-73891139D01*
X136734983Y-73940976D01*
X136625209Y-74025209D01*
X136540976Y-74134983D01*
X136488026Y-74262817D01*
X136469965Y-74400000D01*
X112800000Y-74400000D01*
X112800000Y-69757229D01*
X120149500Y-69757229D01*
X120149501Y-72042770D01*
X120160364Y-72132547D01*
X120215888Y-72272783D01*
X120221000Y-72279517D01*
X120221000Y-72279518D01*
X120268866Y-72342579D01*
X120307078Y-72392922D01*
X120427217Y-72484112D01*
X120567453Y-72539636D01*
X120657229Y-72550500D01*
X120717923Y-72550500D01*
X120784962Y-72570185D01*
X120830717Y-72622989D01*
X120840661Y-72692147D01*
X120811636Y-72755703D01*
X120793410Y-72772875D01*
X120731656Y-72820261D01*
X120731652Y-72820265D01*
X120725209Y-72825209D01*
X120640976Y-72934983D01*
X120637865Y-72942494D01*
X120591139Y-73055302D01*
X120588026Y-73062817D01*
X120569965Y-73200000D01*
X120588026Y-73337183D01*
X120640976Y-73465017D01*
X120725209Y-73574791D01*
X120834982Y-73659024D01*
X120842490Y-73662134D01*
X120842492Y-73662135D01*
X120878980Y-73677248D01*
X120962817Y-73711974D01*
X121088117Y-73728471D01*
X121091934Y-73728973D01*
X121100000Y-73730035D01*
X121108067Y-73728973D01*
X121111883Y-73728471D01*
X121237183Y-73711974D01*
X121321020Y-73677248D01*
X121357508Y-73662135D01*
X121357510Y-73662134D01*
X121365018Y-73659024D01*
X121474791Y-73574791D01*
X121479736Y-73568347D01*
X121479740Y-73568343D01*
X121501625Y-73539822D01*
X121558053Y-73498620D01*
X121627799Y-73494465D01*
X121688719Y-73528678D01*
X121698375Y-73539822D01*
X121720260Y-73568343D01*
X121720264Y-73568347D01*
X121725209Y-73574791D01*
X121834982Y-73659024D01*
X121842490Y-73662134D01*
X121842492Y-73662135D01*
X121878980Y-73677248D01*
X121962817Y-73711974D01*
X122088117Y-73728471D01*
X122091934Y-73728973D01*
X122100000Y-73730035D01*
X122108067Y-73728973D01*
X122111883Y-73728471D01*
X122237183Y-73711974D01*
X122321020Y-73677248D01*
X122357508Y-73662135D01*
X122357510Y-73662134D01*
X122365018Y-73659024D01*
X122474791Y-73574791D01*
X122501625Y-73539821D01*
X122558051Y-73498619D01*
X122627797Y-73494464D01*
X122688718Y-73528676D01*
X122698375Y-73539821D01*
X122720260Y-73568342D01*
X122720264Y-73568346D01*
X122725209Y-73574790D01*
X122834982Y-73659023D01*
X122842490Y-73662133D01*
X122842492Y-73662134D01*
X122878980Y-73677247D01*
X122962817Y-73711973D01*
X123100000Y-73730034D01*
X123237183Y-73711973D01*
X123321020Y-73677247D01*
X123357508Y-73662134D01*
X123357510Y-73662133D01*
X123365018Y-73659023D01*
X123474791Y-73574790D01*
X123559024Y-73465016D01*
X123600000Y-73366091D01*
X123608862Y-73344696D01*
X123608863Y-73344693D01*
X123611974Y-73337182D01*
X123630035Y-73199999D01*
X123611974Y-73062816D01*
X123600001Y-73033909D01*
X123573954Y-72971026D01*
X123559024Y-72934982D01*
X123474791Y-72825208D01*
X123406589Y-72772874D01*
X123365387Y-72716446D01*
X123361232Y-72646700D01*
X123395445Y-72585780D01*
X123457162Y-72553028D01*
X123482076Y-72550499D01*
X123542770Y-72550499D01*
X123546471Y-72550051D01*
X123546474Y-72550051D01*
X123624638Y-72540593D01*
X123632547Y-72539636D01*
X123772783Y-72484112D01*
X123892922Y-72392922D01*
X123931134Y-72342579D01*
X123979000Y-72279518D01*
X123979000Y-72279517D01*
X123984112Y-72272783D01*
X123993693Y-72248586D01*
X124036705Y-72139950D01*
X124036705Y-72139949D01*
X124039636Y-72132547D01*
X124050500Y-72042771D01*
X124050499Y-69757230D01*
X124049999Y-69753093D01*
X124040593Y-69675362D01*
X124040592Y-69675357D01*
X124039636Y-69667453D01*
X123984112Y-69527217D01*
X123892922Y-69407078D01*
X123772783Y-69315888D01*
X123753010Y-69308059D01*
X123639950Y-69263295D01*
X123639949Y-69263295D01*
X123632547Y-69260364D01*
X123542771Y-69249500D01*
X122100387Y-69249500D01*
X120657230Y-69249501D01*
X120653529Y-69249949D01*
X120653526Y-69249949D01*
X120575362Y-69259407D01*
X120567453Y-69260364D01*
X120508784Y-69283593D01*
X120446991Y-69308059D01*
X120427217Y-69315888D01*
X120307078Y-69407078D01*
X120215888Y-69527217D01*
X120212776Y-69535078D01*
X120212775Y-69535079D01*
X120175924Y-69628154D01*
X120160364Y-69667453D01*
X120149500Y-69757229D01*
X112800000Y-69757229D01*
X112800000Y-68700000D01*
X136469965Y-68700000D01*
X136488026Y-68837183D01*
X136491137Y-68844694D01*
X136491138Y-68844697D01*
X136509685Y-68889474D01*
X136540976Y-68965017D01*
X136625209Y-69074791D01*
X136734982Y-69159024D01*
X136742490Y-69162134D01*
X136742492Y-69162135D01*
X136744139Y-69162817D01*
X136862817Y-69211974D01*
X137000000Y-69230035D01*
X137137183Y-69211974D01*
X137255861Y-69162817D01*
X137257508Y-69162135D01*
X137257510Y-69162134D01*
X137265018Y-69159024D01*
X137374791Y-69074791D01*
X137459024Y-68965017D01*
X137490315Y-68889474D01*
X137508862Y-68844697D01*
X137508863Y-68844694D01*
X137511974Y-68837183D01*
X137530035Y-68700000D01*
X137511974Y-68562817D01*
X137459024Y-68434983D01*
X137374791Y-68325209D01*
X137265018Y-68240976D01*
X137257510Y-68237866D01*
X137257508Y-68237865D01*
X137221020Y-68222752D01*
X137137183Y-68188026D01*
X137000000Y-68169965D01*
X136862817Y-68188026D01*
X136855306Y-68191137D01*
X136855303Y-68191138D01*
X136771027Y-68226046D01*
X136734983Y-68240976D01*
X136625209Y-68325209D01*
X136540976Y-68434983D01*
X136488026Y-68562817D01*
X136469965Y-68700000D01*
X112800000Y-68700000D01*
X112800000Y-66700000D01*
X120144396Y-66700000D01*
X120144778Y-66704854D01*
X120161904Y-66922458D01*
X120164779Y-66958994D01*
X120165914Y-66963723D01*
X120165915Y-66963727D01*
X120220705Y-67191941D01*
X120225427Y-67211610D01*
X120324846Y-67451628D01*
X120460588Y-67673140D01*
X120629311Y-67870689D01*
X120826860Y-68039412D01*
X121048372Y-68175154D01*
X121288390Y-68274573D01*
X121293126Y-68275710D01*
X121536273Y-68334085D01*
X121536277Y-68334086D01*
X121541006Y-68335221D01*
X121545856Y-68335603D01*
X121545858Y-68335603D01*
X121599071Y-68339791D01*
X121735147Y-68350500D01*
X122464853Y-68350500D01*
X122600929Y-68339791D01*
X122654142Y-68335603D01*
X122654144Y-68335603D01*
X122658994Y-68335221D01*
X122663723Y-68334086D01*
X122663727Y-68334085D01*
X122906874Y-68275710D01*
X122911610Y-68274573D01*
X123151628Y-68175154D01*
X123373140Y-68039412D01*
X123570689Y-67870689D01*
X123739412Y-67673140D01*
X123875154Y-67451628D01*
X123974573Y-67211610D01*
X123979295Y-67191941D01*
X124034085Y-66963727D01*
X124034086Y-66963723D01*
X124035221Y-66958994D01*
X124038097Y-66922458D01*
X124055222Y-66704854D01*
X124055604Y-66700000D01*
X124035221Y-66441006D01*
X124026931Y-66406473D01*
X123975710Y-66193126D01*
X123974573Y-66188390D01*
X123875154Y-65948372D01*
X123739412Y-65726860D01*
X123678297Y-65655303D01*
X123573850Y-65533012D01*
X123570689Y-65529311D01*
X123373140Y-65360588D01*
X123179378Y-65241851D01*
X123132503Y-65190039D01*
X123121080Y-65121109D01*
X123148737Y-65056946D01*
X123206693Y-65017921D01*
X123227979Y-65013185D01*
X123237183Y-65011973D01*
X123321395Y-64977092D01*
X123357508Y-64962134D01*
X123357510Y-64962133D01*
X123365018Y-64959023D01*
X123474791Y-64874790D01*
X123559024Y-64765016D01*
X123600000Y-64666091D01*
X123608862Y-64644696D01*
X123608863Y-64644693D01*
X123611974Y-64637182D01*
X123630035Y-64499999D01*
X123611974Y-64362816D01*
X123600001Y-64333909D01*
X123573954Y-64271026D01*
X123559024Y-64234982D01*
X123474791Y-64125208D01*
X123365018Y-64040975D01*
X123357510Y-64037865D01*
X123357508Y-64037864D01*
X123321020Y-64022751D01*
X123237183Y-63988025D01*
X123111883Y-63971528D01*
X123108059Y-63971025D01*
X123100000Y-63969964D01*
X123091941Y-63971025D01*
X123088117Y-63971528D01*
X122962817Y-63988025D01*
X122955306Y-63991136D01*
X122955303Y-63991137D01*
X122871027Y-64026045D01*
X122834983Y-64040975D01*
X122725209Y-64125208D01*
X122720265Y-64131651D01*
X122720263Y-64131653D01*
X122698376Y-64160177D01*
X122641949Y-64201380D01*
X122572203Y-64205535D01*
X122511282Y-64171323D01*
X122501625Y-64160178D01*
X122479740Y-64131657D01*
X122479735Y-64131652D01*
X122474791Y-64125209D01*
X122365018Y-64040976D01*
X122357510Y-64037866D01*
X122357508Y-64037865D01*
X122321020Y-64022752D01*
X122237183Y-63988026D01*
X122100000Y-63969965D01*
X121962817Y-63988026D01*
X121955306Y-63991137D01*
X121955303Y-63991138D01*
X121955301Y-63991139D01*
X121834983Y-64040976D01*
X121725209Y-64125209D01*
X121720265Y-64131652D01*
X121720261Y-64131656D01*
X121698375Y-64160178D01*
X121641947Y-64201380D01*
X121572201Y-64205535D01*
X121511281Y-64171322D01*
X121501625Y-64160178D01*
X121479740Y-64131657D01*
X121479735Y-64131652D01*
X121474791Y-64125209D01*
X121365018Y-64040976D01*
X121357510Y-64037866D01*
X121357508Y-64037865D01*
X121321020Y-64022752D01*
X121237183Y-63988026D01*
X121100000Y-63969965D01*
X120962817Y-63988026D01*
X120955306Y-63991137D01*
X120955303Y-63991138D01*
X120955301Y-63991139D01*
X120834983Y-64040976D01*
X120725209Y-64125209D01*
X120640976Y-64234983D01*
X120637865Y-64242494D01*
X120591139Y-64355302D01*
X120588026Y-64362817D01*
X120569965Y-64500000D01*
X120588026Y-64637183D01*
X120640976Y-64765017D01*
X120725209Y-64874791D01*
X120834982Y-64959024D01*
X120842490Y-64962134D01*
X120842492Y-64962135D01*
X120854426Y-64967078D01*
X120962817Y-65011974D01*
X120970879Y-65013035D01*
X120970881Y-65013036D01*
X120972014Y-65013185D01*
X120972900Y-65013577D01*
X120978726Y-65015138D01*
X120978483Y-65016046D01*
X121035911Y-65041451D01*
X121074383Y-65099775D01*
X121075215Y-65169640D01*
X121038143Y-65228863D01*
X121020620Y-65241851D01*
X120831023Y-65358036D01*
X120831015Y-65358042D01*
X120826860Y-65360588D01*
X120629311Y-65529311D01*
X120626150Y-65533012D01*
X120521704Y-65655303D01*
X120460588Y-65726860D01*
X120324846Y-65948372D01*
X120225427Y-66188390D01*
X120224290Y-66193126D01*
X120173070Y-66406473D01*
X120164779Y-66441006D01*
X120144396Y-66700000D01*
X112800000Y-66700000D01*
X112800000Y-61565665D01*
X113395119Y-61565665D01*
X113395412Y-61570747D01*
X113395412Y-61570748D01*
X113400867Y-61665349D01*
X113408376Y-61795580D01*
X113459006Y-62020242D01*
X113545649Y-62233618D01*
X113548311Y-62237962D01*
X113663317Y-62425635D01*
X113663321Y-62425640D01*
X113665979Y-62429978D01*
X113669311Y-62433824D01*
X113669312Y-62433826D01*
X113742636Y-62518473D01*
X113816763Y-62604048D01*
X113820673Y-62607294D01*
X113820677Y-62607298D01*
X113900253Y-62673363D01*
X113993953Y-62751154D01*
X114093516Y-62809334D01*
X114186893Y-62863899D01*
X114192790Y-62867345D01*
X114197543Y-62869160D01*
X114197545Y-62869161D01*
X114222269Y-62878602D01*
X114407934Y-62949501D01*
X114412920Y-62950515D01*
X114412922Y-62950516D01*
X114483822Y-62964940D01*
X114633607Y-62995414D01*
X114783235Y-63000901D01*
X114858670Y-63003667D01*
X114858673Y-63003667D01*
X114863749Y-63003853D01*
X115092178Y-62974591D01*
X115097048Y-62973130D01*
X115307892Y-62909874D01*
X115307895Y-62909873D01*
X115312761Y-62908413D01*
X115317324Y-62906177D01*
X115317328Y-62906176D01*
X115434542Y-62848753D01*
X166634514Y-62848753D01*
X166640364Y-62908413D01*
X166649704Y-63003667D01*
X166652039Y-63027486D01*
X166708726Y-63197896D01*
X166712319Y-63203829D01*
X166712320Y-63203831D01*
X166798168Y-63345583D01*
X166801759Y-63351512D01*
X166926514Y-63480699D01*
X166932308Y-63484490D01*
X166932311Y-63484493D01*
X167028213Y-63547249D01*
X167076789Y-63579036D01*
X167245116Y-63641636D01*
X167423130Y-63665388D01*
X167430031Y-63664760D01*
X167430033Y-63664760D01*
X167537744Y-63654958D01*
X167601981Y-63649112D01*
X167772782Y-63593615D01*
X167927044Y-63501657D01*
X168057099Y-63377807D01*
X168156483Y-63228222D01*
X168220257Y-63060336D01*
X168245251Y-62882493D01*
X168245437Y-62869161D01*
X168245511Y-62863899D01*
X168245511Y-62863892D01*
X168245565Y-62860000D01*
X168225546Y-62681528D01*
X168166485Y-62511927D01*
X168071316Y-62359625D01*
X167944770Y-62232193D01*
X167793136Y-62135963D01*
X167753620Y-62121892D01*
X167630479Y-62078043D01*
X167630475Y-62078042D01*
X167623951Y-62075719D01*
X167445624Y-62054455D01*
X167438735Y-62055179D01*
X167438732Y-62055179D01*
X167273913Y-62072502D01*
X167273911Y-62072502D01*
X167267017Y-62073227D01*
X167260456Y-62075461D01*
X167260454Y-62075461D01*
X167173718Y-62104989D01*
X167097007Y-62131103D01*
X166944045Y-62225206D01*
X166815732Y-62350859D01*
X166718446Y-62501817D01*
X166657022Y-62670578D01*
X166656153Y-62677459D01*
X166639494Y-62809334D01*
X166634514Y-62848753D01*
X115434542Y-62848753D01*
X115519574Y-62807096D01*
X115707062Y-62673363D01*
X115870190Y-62510803D01*
X116004577Y-62323783D01*
X116057354Y-62216998D01*
X116104358Y-62121892D01*
X116104359Y-62121890D01*
X116106615Y-62117325D01*
X116173563Y-61896975D01*
X116203622Y-61668649D01*
X116205300Y-61600000D01*
X116186430Y-61370478D01*
X116130326Y-61147120D01*
X116038496Y-60935924D01*
X116035736Y-60931658D01*
X116035733Y-60931652D01*
X115916167Y-60746832D01*
X115916165Y-60746830D01*
X115913405Y-60742563D01*
X115758412Y-60572229D01*
X115754427Y-60569082D01*
X115754424Y-60569079D01*
X115581672Y-60432648D01*
X115581673Y-60432648D01*
X115577681Y-60429496D01*
X115573235Y-60427042D01*
X115573231Y-60427039D01*
X115380520Y-60320657D01*
X115380517Y-60320656D01*
X115376065Y-60318198D01*
X115158978Y-60241323D01*
X115104575Y-60231632D01*
X114937260Y-60201829D01*
X114937255Y-60201829D01*
X114932250Y-60200937D01*
X114841875Y-60199833D01*
X114707061Y-60198185D01*
X114707059Y-60198185D01*
X114701971Y-60198123D01*
X114696942Y-60198893D01*
X114696936Y-60198893D01*
X114566950Y-60218784D01*
X114474325Y-60232958D01*
X114255424Y-60304506D01*
X114250910Y-60306856D01*
X114055664Y-60408494D01*
X114055658Y-60408498D01*
X114051149Y-60410845D01*
X113866984Y-60549119D01*
X113863469Y-60552798D01*
X113863466Y-60552800D01*
X113834405Y-60583211D01*
X113707877Y-60715616D01*
X113705013Y-60719815D01*
X113705011Y-60719817D01*
X113689495Y-60742563D01*
X113578099Y-60905863D01*
X113481136Y-61114752D01*
X113479774Y-61119662D01*
X113479774Y-61119663D01*
X113464162Y-61175960D01*
X113419592Y-61336673D01*
X113395119Y-61565665D01*
X112800000Y-61565665D01*
X112800000Y-60919758D01*
X112810925Y-60868867D01*
X112848916Y-60784455D01*
X112855874Y-60771196D01*
X112985555Y-60556676D01*
X112994061Y-60544353D01*
X113148652Y-60347032D01*
X113158582Y-60335824D01*
X113335824Y-60158582D01*
X113347032Y-60148652D01*
X113544353Y-59994061D01*
X113556676Y-59985555D01*
X113771196Y-59855874D01*
X113784455Y-59848916D01*
X113868867Y-59810925D01*
X113919758Y-59800000D01*
X169080242Y-59800000D01*
X169131133Y-59810925D01*
G37*
%TD.AperFunction*%
%TD*%
M02*
