M48
; DRILL file {KiCad (5.99.0-12889-g70df3822b5)} date Sat Oct 23 22:37:24 2021
; FORMAT={-:-/ absolute / metric / decimal}
; #@! TF.CreationDate,2021-10-23T22:37:24+08:00
; #@! TF.GenerationSoftware,Kicad,Pcbnew,(5.99.0-12889-g70df3822b5)
; #@! TF.FileFunction,Plated,1,4,PTH
FMAT,2
METRIC
; #@! TA.AperFunction,Plated,PTH,ViaDrill
T1C0.300
; #@! TA.AperFunction,Plated,PTH,ViaDrill
T2C0.400
; #@! TA.AperFunction,Plated,PTH,ComponentDrill
T3C1.000
; #@! TA.AperFunction,Plated,PTH,ComponentDrill
T4C1.400
%
G90
G05
T1
X117.4Y-60.7
X117.4Y-113.8
X118.4Y-60.7
X118.4Y-113.8
X119.4Y-60.7
X119.4Y-113.8
X120.4Y-60.7
X120.4Y-113.8
X121.1Y-64.5
X121.1Y-73.2
X121.4Y-60.7
X121.4Y-113.8
X121.8Y-84.2
X121.8Y-85.2
X121.8Y-86.2
X121.8Y-87.2
X121.8Y-88.2
X121.8Y-89.2
X122.1Y-64.5
X122.1Y-73.2
X122.4Y-60.7
X122.4Y-113.8
X122.6Y-84.7
X122.6Y-85.7
X122.6Y-86.7
X122.6Y-87.7
X122.6Y-88.7
X122.6Y-89.7
X123.1Y-64.5
X123.1Y-73.2
X123.4Y-60.7
X123.4Y-84.2
X123.4Y-85.2
X123.4Y-86.2
X123.4Y-87.2
X123.4Y-88.2
X123.4Y-89.2
X123.4Y-113.8
X124.4Y-60.7
X124.4Y-113.8
X125.4Y-60.7
X125.4Y-113.8
X126.4Y-60.7
X126.4Y-113.8
X127.4Y-60.7
X127.4Y-113.8
X128.4Y-60.7
X128.4Y-113.8
X129.4Y-60.7
X129.4Y-113.8
X130.4Y-60.7
X130.4Y-113.8
X131.4Y-60.7
X131.4Y-113.8
X132.4Y-60.7
X132.4Y-113.8
X133.4Y-60.7
X133.4Y-113.8
X133.75Y-86.2
X133.75Y-86.85
X133.75Y-87.5
X133.75Y-88.15
X134.4Y-60.7
X134.4Y-113.8
X135.4Y-60.7
X135.4Y-113.8
X135.91Y-91.01
X135.95Y-88.6
X136.1Y-103.05
X136.4Y-60.7
X136.4Y-113.8
X137.0Y-68.7
X137.0Y-74.4
X137.4Y-60.7
X137.4Y-113.8
X137.94Y-86.2
X137.94Y-87.41
X138.0Y-88.6
X138.0Y-103.3
X138.1Y-93.65
X138.4Y-60.7
X138.4Y-113.8
X139.2Y-94.6
X139.3Y-87.7
X139.4Y-60.7
X139.4Y-113.8
X140.1Y-94.35
X140.25Y-84.35
X140.4Y-60.7
X140.4Y-113.8
X140.6Y-89.93
X141.2Y-83.6
X141.4Y-60.7
X141.4Y-113.8
X141.6Y-86.16
X141.6Y-86.96
X141.6Y-87.76
X141.6Y-88.56
X142.4Y-60.7
X142.4Y-86.16
X142.4Y-86.96
X142.4Y-87.76
X142.4Y-88.56
X142.4Y-113.8
X143.2Y-86.16
X143.2Y-86.96
X143.2Y-87.76
X143.2Y-88.56
X143.4Y-60.7
X143.4Y-113.8
X144.0Y-86.16
X144.0Y-86.96
X144.0Y-87.76
X144.0Y-88.56
X144.1Y-97.8
X144.4Y-60.7
X144.4Y-113.8
X145.4Y-60.7
X145.4Y-113.8
X146.15Y-83.55
X146.4Y-60.7
X146.4Y-113.8
X146.85Y-87.2
X146.85Y-86.05
X147.4Y-60.7
X147.4Y-113.8
X147.6Y-80.2
X148.4Y-60.7
X148.4Y-113.8
X149.4Y-60.7
X149.4Y-113.8
X150.4Y-60.7
X150.4Y-113.8
X151.4Y-60.7
X151.4Y-113.8
X152.4Y-60.7
X152.4Y-113.8
X153.4Y-60.7
X153.4Y-113.8
X154.4Y-60.7
X154.4Y-113.8
X154.95Y-70.8
X155.4Y-60.7
X155.4Y-113.8
X156.4Y-60.7
X156.4Y-113.8
X157.3Y-76.6
X157.3Y-77.6
X157.3Y-78.6
X157.4Y-60.7
X157.4Y-94.9
X157.4Y-95.9
X157.4Y-96.9
X157.4Y-113.8
X157.85Y-70.8
X158.3Y-76.6
X158.3Y-77.6
X158.3Y-78.6
X158.4Y-60.7
X158.4Y-94.9
X158.4Y-95.9
X158.4Y-96.9
X158.4Y-113.8
X159.3Y-76.6
X159.3Y-77.6
X159.3Y-78.6
X159.4Y-60.7
X159.4Y-94.9
X159.4Y-95.9
X159.4Y-96.9
X159.4Y-113.8
X160.3Y-76.6
X160.3Y-77.6
X160.3Y-78.6
X160.4Y-60.7
X160.4Y-94.9
X160.4Y-95.9
X160.4Y-96.9
X160.4Y-113.8
X160.5Y-65.8
X160.5Y-66.5
X160.5Y-67.2
X160.5Y-67.9
X160.5Y-68.6
X160.5Y-69.3
X160.5Y-70.0
X160.5Y-70.7
X160.5Y-71.4
X160.5Y-72.1
X160.9Y-101.8
X160.9Y-102.5
X160.9Y-103.2
X160.9Y-103.9
X160.9Y-104.6
X160.9Y-105.3
X160.9Y-106.0
X160.9Y-106.7
X160.9Y-107.4
X160.9Y-108.1
X161.3Y-76.6
X161.3Y-77.6
X161.3Y-78.6
X161.4Y-60.7
X161.4Y-94.9
X161.4Y-95.9
X161.4Y-96.9
X161.4Y-113.8
X162.4Y-60.7
X162.4Y-113.8
X163.4Y-60.7
X163.4Y-113.8
X164.4Y-60.7
X164.4Y-113.8
X165.4Y-60.7
X165.4Y-113.8
X166.4Y-60.7
X166.4Y-113.8
X167.4Y-60.7
X167.4Y-113.8
X168.4Y-60.7
X168.4Y-113.8
X169.4Y-60.7
X169.4Y-61.8
X169.4Y-63.9
X169.4Y-64.9
X169.4Y-65.9
X169.4Y-67.9
X169.4Y-68.9
X169.4Y-69.9
X169.4Y-72.9
X169.4Y-73.9
X169.4Y-74.9
X169.4Y-76.9
X169.4Y-77.9
X169.4Y-78.9
X169.4Y-79.9
X169.4Y-81.9
X169.4Y-82.9
X169.4Y-83.9
X169.4Y-85.9
X169.4Y-86.9
X169.4Y-87.9
X169.4Y-88.9
X169.4Y-90.9
X169.4Y-91.9
X169.4Y-92.9
X169.4Y-95.9
X169.4Y-96.9
X169.4Y-97.9
X169.4Y-99.9
X169.4Y-100.9
X169.4Y-101.9
X169.4Y-104.9
X169.4Y-105.9
X169.4Y-106.9
X169.4Y-108.9
X169.4Y-109.9
X169.4Y-110.9
X169.4Y-111.9
X169.4Y-113.8
X169.4Y-62.9
X169.4Y-66.9
X169.4Y-70.9
X169.4Y-71.9
X169.4Y-75.9
X169.4Y-80.9
X169.4Y-84.9
X169.4Y-89.9
X169.4Y-93.9
X169.4Y-94.9
X169.4Y-98.9
X169.4Y-102.9
X169.4Y-103.9
X169.4Y-107.9
X169.4Y-112.9
T2
X136.9Y-81.9
X144.85Y-90.9
T3
X163.5Y-65.86
X163.5Y-68.86
X163.5Y-71.86
X163.5Y-74.86
X163.5Y-77.86
X163.5Y-96.11
X163.5Y-99.11
X163.5Y-102.11
X163.5Y-105.11
X163.5Y-108.11
X166.5Y-65.86
X166.5Y-68.86
X166.5Y-71.86
X166.5Y-74.86
X166.5Y-77.86
X166.5Y-96.11
X166.5Y-99.11
X166.5Y-102.11
X166.5Y-105.11
X166.5Y-108.11
T4
X116.6Y-66.7
X116.6Y-70.9
X122.1Y-66.7
X122.1Y-70.9
T0
M30
