%TF.GenerationSoftware,KiCad,Pcbnew,(5.99.0-12889-g70df3822b5)*%
%TF.CreationDate,2021-12-19T14:06:27+08:00*%
%TF.ProjectId,WirelessPowerP40_Transmitter,57697265-6c65-4737-9350-6f7765725034,rev?*%
%TF.SameCoordinates,Original*%
%TF.FileFunction,Soldermask,Top*%
%TF.FilePolarity,Negative*%
%FSLAX46Y46*%
G04 Gerber Fmt 4.6, Leading zero omitted, Abs format (unit mm)*
G04 Created by KiCad (PCBNEW (5.99.0-12889-g70df3822b5)) date 2021-12-19 14:06:27*
%MOMM*%
%LPD*%
G01*
G04 APERTURE LIST*
G04 Aperture macros list*
%AMRoundRect*
0 Rectangle with rounded corners*
0 $1 Rounding radius*
0 $2 $3 $4 $5 $6 $7 $8 $9 X,Y pos of 4 corners*
0 Add a 4 corners polygon primitive as box body*
4,1,4,$2,$3,$4,$5,$6,$7,$8,$9,$2,$3,0*
0 Add four circle primitives for the rounded corners*
1,1,$1+$1,$2,$3*
1,1,$1+$1,$4,$5*
1,1,$1+$1,$6,$7*
1,1,$1+$1,$8,$9*
0 Add four rect primitives between the rounded corners*
20,1,$1+$1,$2,$3,$4,$5,0*
20,1,$1+$1,$4,$5,$6,$7,0*
20,1,$1+$1,$6,$7,$8,$9,0*
20,1,$1+$1,$8,$9,$2,$3,0*%
%AMFreePoly0*
4,1,19,0.300000,-2.000000,-0.870000,-2.000000,-0.870000,-2.210000,-1.700000,-2.210000,-1.700000,-1.600000,-1.020000,-1.600000,-1.020000,-0.940000,-1.700000,-0.940000,-1.700000,-0.330000,-1.020000,-0.330000,-1.020000,0.330000,-1.700000,0.330000,-1.700000,0.940000,-1.020000,0.940000,-1.020000,1.140000,-0.300000,1.140000,-0.300000,2.000000,0.300000,2.000000,0.300000,-2.000000,0.300000,-2.000000,
$1*%
G04 Aperture macros list end*
%ADD10C,0.010000*%
%ADD11RoundRect,0.250000X-1.425000X0.362500X-1.425000X-0.362500X1.425000X-0.362500X1.425000X0.362500X0*%
%ADD12RoundRect,0.140000X0.170000X-0.140000X0.170000X0.140000X-0.170000X0.140000X-0.170000X-0.140000X0*%
%ADD13RoundRect,0.135000X0.135000X0.185000X-0.135000X0.185000X-0.135000X-0.185000X0.135000X-0.185000X0*%
%ADD14RoundRect,0.250000X1.100000X-0.325000X1.100000X0.325000X-1.100000X0.325000X-1.100000X-0.325000X0*%
%ADD15R,0.610000X0.830000*%
%ADD16FreePoly0,270.000000*%
%ADD17R,4.000000X2.150000*%
%ADD18O,0.850000X0.250000*%
%ADD19R,1.600000X1.600000*%
%ADD20RoundRect,0.140000X-0.170000X0.140000X-0.170000X-0.140000X0.170000X-0.140000X0.170000X0.140000X0*%
%ADD21R,1.350000X1.350000*%
%ADD22O,1.350000X1.350000*%
%ADD23RoundRect,0.135000X-0.185000X0.135000X-0.185000X-0.135000X0.185000X-0.135000X0.185000X0.135000X0*%
%ADD24RoundRect,0.250000X-0.250000X-0.475000X0.250000X-0.475000X0.250000X0.475000X-0.250000X0.475000X0*%
%ADD25RoundRect,0.200000X0.200000X0.275000X-0.200000X0.275000X-0.200000X-0.275000X0.200000X-0.275000X0*%
%ADD26RoundRect,0.250000X0.250000X0.475000X-0.250000X0.475000X-0.250000X-0.475000X0.250000X-0.475000X0*%
%ADD27C,0.700000*%
%ADD28C,4.400000*%
%ADD29RoundRect,0.250000X-0.475000X0.250000X-0.475000X-0.250000X0.475000X-0.250000X0.475000X0.250000X0*%
%ADD30RoundRect,0.135000X0.185000X-0.135000X0.185000X0.135000X-0.185000X0.135000X-0.185000X-0.135000X0*%
%ADD31RoundRect,0.150000X-0.587500X-0.150000X0.587500X-0.150000X0.587500X0.150000X-0.587500X0.150000X0*%
%ADD32RoundRect,0.140000X0.140000X0.170000X-0.140000X0.170000X-0.140000X-0.170000X0.140000X-0.170000X0*%
%ADD33RoundRect,0.250000X0.475000X-0.250000X0.475000X0.250000X-0.475000X0.250000X-0.475000X-0.250000X0*%
%ADD34RoundRect,0.147500X0.147500X0.172500X-0.147500X0.172500X-0.147500X-0.172500X0.147500X-0.172500X0*%
%ADD35RoundRect,0.140000X-0.140000X-0.170000X0.140000X-0.170000X0.140000X0.170000X-0.140000X0.170000X0*%
%ADD36RoundRect,0.062500X0.062500X-0.350000X0.062500X0.350000X-0.062500X0.350000X-0.062500X-0.350000X0*%
%ADD37RoundRect,0.062500X0.350000X-0.062500X0.350000X0.062500X-0.350000X0.062500X-0.350000X-0.062500X0*%
%ADD38R,1.700000X1.700000*%
%ADD39RoundRect,0.135000X-0.135000X-0.185000X0.135000X-0.185000X0.135000X0.185000X-0.135000X0.185000X0*%
%ADD40R,1.600000X1.900000*%
%ADD41RoundRect,0.250000X-0.262500X-0.450000X0.262500X-0.450000X0.262500X0.450000X-0.262500X0.450000X0*%
%ADD42RoundRect,0.250000X0.262500X0.450000X-0.262500X0.450000X-0.262500X-0.450000X0.262500X-0.450000X0*%
%ADD43RoundRect,0.125000X-0.125000X0.537500X-0.125000X-0.537500X0.125000X-0.537500X0.125000X0.537500X0*%
%ADD44R,0.700000X0.510000*%
%ADD45C,3.200000*%
%ADD46RoundRect,0.225000X-0.225000X-0.250000X0.225000X-0.250000X0.225000X0.250000X-0.225000X0.250000X0*%
%ADD47R,0.500000X0.630000*%
%ADD48RoundRect,0.062500X0.062500X-0.337500X0.062500X0.337500X-0.062500X0.337500X-0.062500X-0.337500X0*%
%ADD49RoundRect,0.062500X0.337500X-0.062500X0.337500X0.062500X-0.337500X0.062500X-0.337500X-0.062500X0*%
%ADD50R,3.350000X3.350000*%
%ADD51RoundRect,0.225000X0.225000X0.250000X-0.225000X0.250000X-0.225000X-0.250000X0.225000X-0.250000X0*%
%ADD52RoundRect,0.225000X0.250000X-0.225000X0.250000X0.225000X-0.250000X0.225000X-0.250000X-0.225000X0*%
%ADD53RoundRect,0.243750X0.456250X-0.243750X0.456250X0.243750X-0.456250X0.243750X-0.456250X-0.243750X0*%
%ADD54C,1.800000*%
%ADD55C,1.400000*%
%ADD56O,2.100000X1.100000*%
%ADD57R,2.700000X0.800000*%
%ADD58R,3.600000X3.600000*%
%ADD59R,0.450000X0.700000*%
G04 APERTURE END LIST*
D10*
%TO.C,U9*%
X151692343Y-113355784D02*
X151692343Y-110845784D01*
X151692343Y-110845784D02*
X154342343Y-110845784D01*
X154342343Y-110845784D02*
X154342343Y-113355784D01*
X154342343Y-113355784D02*
X151692343Y-113355784D01*
G36*
X154342343Y-113355784D02*
G01*
X151692343Y-113355784D01*
X151692343Y-110845784D01*
X154342343Y-110845784D01*
X154342343Y-113355784D01*
G37*
X154342343Y-113355784D02*
X151692343Y-113355784D01*
X151692343Y-110845784D01*
X154342343Y-110845784D01*
X154342343Y-113355784D01*
%TD*%
D11*
%TO.C,R12*%
X128990000Y-88457500D03*
X128990000Y-94382500D03*
%TD*%
D12*
%TO.C,C56*%
X144127342Y-113950783D03*
X144127342Y-112990783D03*
%TD*%
D13*
%TO.C,R39*%
X154390000Y-78575001D03*
X153370000Y-78575001D03*
%TD*%
D14*
%TO.C,C52*%
X119660001Y-114160000D03*
X119660001Y-111210000D03*
%TD*%
D15*
%TO.C,U6*%
X133605000Y-101049999D03*
D16*
X131700000Y-102334999D03*
D15*
X129795000Y-106729999D03*
X131065000Y-106729999D03*
X132335000Y-106729999D03*
X133605000Y-106729999D03*
D17*
X131700000Y-104419999D03*
%TD*%
D18*
%TO.C,U8*%
X145857342Y-110640784D03*
X145857342Y-111140784D03*
X145857342Y-111640784D03*
X145857342Y-112140784D03*
X148757342Y-112140784D03*
X148757342Y-111640784D03*
X148757342Y-111140784D03*
X148757342Y-110640784D03*
D19*
X147307342Y-111390784D03*
%TD*%
D20*
%TO.C,C30*%
X156427500Y-83200001D03*
X156427500Y-84160001D03*
%TD*%
D21*
%TO.C,J3*%
X134510000Y-71860000D03*
D22*
X136510000Y-71860000D03*
X138510000Y-71860000D03*
X140510000Y-71860000D03*
%TD*%
D23*
%TO.C,R26*%
X152698332Y-100927500D03*
X152698332Y-101947500D03*
%TD*%
D24*
%TO.C,C41*%
X115610000Y-104240000D03*
X117510000Y-104240000D03*
%TD*%
D25*
%TO.C,R16*%
X138580000Y-95010000D03*
X136930000Y-95010000D03*
%TD*%
D26*
%TO.C,C14*%
X123634908Y-78285927D03*
X121734908Y-78285927D03*
%TD*%
D15*
%TO.C,U7*%
X127365001Y-101049999D03*
D16*
X125460001Y-102334999D03*
D15*
X123555001Y-106729999D03*
X124825001Y-106729999D03*
X126095001Y-106729999D03*
X127365001Y-106729999D03*
D17*
X125460001Y-104419999D03*
%TD*%
D23*
%TO.C,R19*%
X156240000Y-90100000D03*
X156240000Y-91120000D03*
%TD*%
D27*
%TO.C,H3*%
X111800000Y-116850000D03*
X111800000Y-120150000D03*
X112966726Y-119666726D03*
X110633274Y-117333274D03*
D28*
X111800000Y-118500000D03*
D27*
X110633274Y-119666726D03*
X112966726Y-117333274D03*
X110150000Y-118500000D03*
X113450000Y-118500000D03*
%TD*%
D21*
%TO.C,J6*%
X158760000Y-107750000D03*
D22*
X158760000Y-105750000D03*
%TD*%
D29*
%TO.C,C8*%
X126000000Y-88520001D03*
X126000000Y-90420001D03*
%TD*%
%TO.C,C43*%
X143400000Y-104240000D03*
X143400000Y-106140000D03*
%TD*%
D30*
%TO.C,R9*%
X133440000Y-87950000D03*
X133440000Y-86930000D03*
%TD*%
D31*
%TO.C,D1*%
X133962500Y-90190000D03*
X133962500Y-92090000D03*
X135837500Y-91140000D03*
%TD*%
D32*
%TO.C,C22*%
X139540000Y-97160000D03*
X138580000Y-97160000D03*
%TD*%
D33*
%TO.C,C19*%
X123999999Y-94370001D03*
X123999999Y-92470001D03*
%TD*%
D34*
%TO.C,LED3*%
X160060000Y-82760000D03*
X159090000Y-82760000D03*
%TD*%
D35*
%TO.C,C42*%
X153349999Y-84197500D03*
X154309999Y-84197500D03*
%TD*%
D20*
%TO.C,C37*%
X158210000Y-100955001D03*
X158210000Y-101915001D03*
%TD*%
D34*
%TO.C,LED4*%
X129385000Y-70679999D03*
X128415000Y-70679999D03*
%TD*%
D13*
%TO.C,R41*%
X144197341Y-109610785D03*
X143177341Y-109610785D03*
%TD*%
D36*
%TO.C,U1*%
X123744258Y-75489936D03*
X124244258Y-75489936D03*
X124744258Y-75489936D03*
X125244258Y-75489936D03*
D37*
X125956758Y-74777436D03*
X125956758Y-74277436D03*
X125956758Y-73777436D03*
X125956758Y-73277436D03*
D36*
X125244258Y-72564936D03*
X124744258Y-72564936D03*
X124244258Y-72564936D03*
X123744258Y-72564936D03*
D37*
X123031758Y-73277436D03*
X123031758Y-73777436D03*
X123031758Y-74277436D03*
X123031758Y-74777436D03*
D38*
X124494258Y-74027436D03*
%TD*%
D39*
%TO.C,R5*%
X143000000Y-88190000D03*
X144020000Y-88190000D03*
%TD*%
D25*
%TO.C,R7*%
X135610000Y-93550000D03*
X133960000Y-93550000D03*
%TD*%
D40*
%TO.C,L1*%
X118109999Y-73940000D03*
X118109999Y-78040000D03*
%TD*%
D20*
%TO.C,C36*%
X149320000Y-100957501D03*
X149320000Y-101917501D03*
%TD*%
D13*
%TO.C,R45*%
X144167342Y-110867450D03*
X143147342Y-110867450D03*
%TD*%
D32*
%TO.C,C33*%
X143560000Y-80542500D03*
X142600000Y-80542500D03*
%TD*%
D13*
%TO.C,R40*%
X154390000Y-77475000D03*
X153370000Y-77475000D03*
%TD*%
D21*
%TO.C,J4*%
X159740000Y-87780000D03*
D22*
X159740000Y-85780000D03*
%TD*%
D41*
%TO.C,R37*%
X115647500Y-106310000D03*
X117472500Y-106310000D03*
%TD*%
D42*
%TO.C,R36*%
X141512500Y-106310000D03*
X139687500Y-106310000D03*
%TD*%
D35*
%TO.C,C1*%
X128429257Y-72187436D03*
X129389257Y-72187436D03*
%TD*%
D13*
%TO.C,R42*%
X146872658Y-109605883D03*
X145852658Y-109605883D03*
%TD*%
D30*
%TO.C,R11*%
X137160000Y-93530000D03*
X137160000Y-92510000D03*
%TD*%
D26*
%TO.C,C39*%
X141550000Y-104240000D03*
X139650000Y-104240000D03*
%TD*%
D43*
%TO.C,U2*%
X129975000Y-83992500D03*
X129325000Y-83992500D03*
X128675000Y-83992500D03*
X128025000Y-83992500D03*
X128025000Y-86267500D03*
X128675000Y-86267500D03*
X129325000Y-86267500D03*
X129975000Y-86267500D03*
%TD*%
D33*
%TO.C,C6*%
X123999999Y-86180001D03*
X123999999Y-84280001D03*
%TD*%
D34*
%TO.C,LED2*%
X160060000Y-75793432D03*
X159090000Y-75793432D03*
%TD*%
D27*
%TO.C,H1*%
X157633274Y-72666726D03*
X158800000Y-69850000D03*
X157633274Y-70333274D03*
D28*
X158800000Y-71500000D03*
D27*
X159966726Y-70333274D03*
X157150000Y-71500000D03*
X158800000Y-73150000D03*
X159966726Y-72666726D03*
X160450000Y-71500000D03*
%TD*%
D23*
%TO.C,R30*%
X145280000Y-85479999D03*
X145280000Y-86499999D03*
%TD*%
D44*
%TO.C,U3*%
X142365001Y-89497211D03*
X142365001Y-90447211D03*
X142365001Y-91397211D03*
X144685001Y-91397211D03*
X144685001Y-89497211D03*
%TD*%
D29*
%TO.C,C46*%
X137690000Y-98940001D03*
X137690000Y-100840001D03*
%TD*%
D30*
%TO.C,R8*%
X131500000Y-86240000D03*
X131500000Y-85220000D03*
%TD*%
D39*
%TO.C,R33*%
X153370000Y-76410000D03*
X154390000Y-76410000D03*
%TD*%
D27*
%TO.C,H2*%
X157533274Y-119666726D03*
X158700000Y-120150000D03*
X160350000Y-118500000D03*
X159866726Y-117333274D03*
X157050000Y-118500000D03*
D28*
X158700000Y-118500000D03*
D27*
X157533274Y-117333274D03*
X159866726Y-119666726D03*
X158700000Y-116850000D03*
%TD*%
D12*
%TO.C,C16*%
X138155000Y-93490000D03*
X138155000Y-92530000D03*
%TD*%
D45*
%TO.C,J5*%
X132840000Y-117595000D03*
X137840000Y-117595000D03*
%TD*%
D20*
%TO.C,C17*%
X133440000Y-85100000D03*
X133440000Y-86060000D03*
%TD*%
D39*
%TO.C,R34*%
X153370001Y-79700000D03*
X154390001Y-79700000D03*
%TD*%
D14*
%TO.C,C53*%
X123010001Y-114160000D03*
X123010001Y-111210000D03*
%TD*%
D13*
%TO.C,R10*%
X139290000Y-88240000D03*
X138270000Y-88240000D03*
%TD*%
D32*
%TO.C,C26*%
X143560000Y-78342500D03*
X142600000Y-78342500D03*
%TD*%
D23*
%TO.C,R25*%
X150425000Y-100927501D03*
X150425000Y-101947501D03*
%TD*%
D39*
%TO.C,R18*%
X142560000Y-82040001D03*
X143580000Y-82040001D03*
%TD*%
D46*
%TO.C,C20*%
X134010000Y-95020000D03*
X135560000Y-95020000D03*
%TD*%
D32*
%TO.C,C24*%
X143560000Y-77242501D03*
X142600000Y-77242501D03*
%TD*%
D30*
%TO.C,R17*%
X152537501Y-91150001D03*
X152537501Y-90130001D03*
%TD*%
D39*
%TO.C,R35*%
X153320000Y-83197500D03*
X154340000Y-83197500D03*
%TD*%
D12*
%TO.C,C3*%
X131500000Y-90060000D03*
X131500000Y-89100000D03*
%TD*%
D23*
%TO.C,R28*%
X157205000Y-100927501D03*
X157205000Y-101947501D03*
%TD*%
D29*
%TO.C,C9*%
X124000000Y-88500000D03*
X124000000Y-90400000D03*
%TD*%
%TO.C,C44*%
X113766567Y-104234144D03*
X113766567Y-106134144D03*
%TD*%
D47*
%TO.C,U9*%
X152042343Y-114130784D03*
X152692343Y-114130784D03*
X153342343Y-114130784D03*
X153992343Y-114130784D03*
%TD*%
D29*
%TO.C,C47*%
X135730000Y-98940001D03*
X135730000Y-100840001D03*
%TD*%
D33*
%TO.C,C40*%
X121430001Y-104240000D03*
X121430001Y-102340000D03*
%TD*%
D20*
%TO.C,C15*%
X131500000Y-83350000D03*
X131500000Y-84310000D03*
%TD*%
D32*
%TO.C,C23*%
X139540000Y-96220000D03*
X138580000Y-96220000D03*
%TD*%
D29*
%TO.C,C50*%
X121430000Y-98940001D03*
X121430000Y-100840001D03*
%TD*%
D39*
%TO.C,R44*%
X143147342Y-111930783D03*
X144167342Y-111930783D03*
%TD*%
D14*
%TO.C,C58*%
X129810000Y-114165000D03*
X129810000Y-111215000D03*
%TD*%
D39*
%TO.C,R13*%
X128406558Y-74569717D03*
X129426558Y-74569717D03*
%TD*%
D33*
%TO.C,C38*%
X135729999Y-104240000D03*
X135729999Y-102340000D03*
%TD*%
D21*
%TO.C,J7*%
X158760000Y-113810000D03*
D22*
X158760000Y-111810000D03*
%TD*%
D32*
%TO.C,C57*%
X148757342Y-113180783D03*
X147797342Y-113180783D03*
%TD*%
D12*
%TO.C,C7*%
X138255713Y-87290000D03*
X138255713Y-86330000D03*
%TD*%
D23*
%TO.C,R27*%
X156088330Y-100927501D03*
X156088330Y-101947501D03*
%TD*%
D20*
%TO.C,C28*%
X153824998Y-100957501D03*
X153824998Y-101917501D03*
%TD*%
D48*
%TO.C,U4*%
X152154999Y-98510000D03*
X152654999Y-98510000D03*
X153154999Y-98510000D03*
X153654999Y-98510000D03*
X154154999Y-98510000D03*
X154654999Y-98510000D03*
X155154999Y-98510000D03*
D49*
X156104999Y-97560000D03*
X156104999Y-97060000D03*
X156104999Y-96560000D03*
X156104999Y-96060000D03*
X156104999Y-95560000D03*
X156104999Y-95060000D03*
X156104999Y-94560000D03*
D48*
X155154999Y-93610000D03*
X154654999Y-93610000D03*
X154154999Y-93610000D03*
X153654999Y-93610000D03*
X153154999Y-93610000D03*
X152654999Y-93610000D03*
X152154999Y-93610000D03*
D49*
X151204999Y-94560000D03*
X151204999Y-95060000D03*
X151204999Y-95560000D03*
X151204999Y-96060000D03*
X151204999Y-96560000D03*
X151204999Y-97060000D03*
X151204999Y-97560000D03*
D50*
X153654999Y-96060000D03*
%TD*%
D20*
%TO.C,C32*%
X141520000Y-96210000D03*
X141520000Y-97170000D03*
%TD*%
D32*
%TO.C,C29*%
X143559999Y-79442499D03*
X142599999Y-79442499D03*
%TD*%
D51*
%TO.C,C2*%
X136975000Y-87660000D03*
X135425000Y-87660000D03*
%TD*%
D20*
%TO.C,C31*%
X158360000Y-90120000D03*
X158360000Y-91080000D03*
%TD*%
D14*
%TO.C,C54*%
X126410001Y-114160000D03*
X126410001Y-111210000D03*
%TD*%
D23*
%TO.C,R23*%
X140510000Y-96180000D03*
X140510000Y-97200000D03*
%TD*%
D39*
%TO.C,R4*%
X137250000Y-89220000D03*
X138270000Y-89220000D03*
%TD*%
%TO.C,R3*%
X133960000Y-88900000D03*
X134980000Y-88900000D03*
%TD*%
D23*
%TO.C,R6*%
X139280000Y-86290000D03*
X139280000Y-87310000D03*
%TD*%
D24*
%TO.C,C12*%
X125359257Y-78285927D03*
X127259257Y-78285927D03*
%TD*%
D23*
%TO.C,R31*%
X149400000Y-85482500D03*
X149400000Y-86502500D03*
%TD*%
D14*
%TO.C,C51*%
X116310001Y-114160001D03*
X116310001Y-111210001D03*
%TD*%
D20*
%TO.C,C34*%
X157427500Y-83200000D03*
X157427500Y-84160000D03*
%TD*%
D23*
%TO.C,R29*%
X154951664Y-100927501D03*
X154951664Y-101947501D03*
%TD*%
D20*
%TO.C,C13*%
X131500000Y-87150000D03*
X131500000Y-88110000D03*
%TD*%
D30*
%TO.C,R43*%
X143197342Y-113970783D03*
X143197342Y-112950783D03*
%TD*%
D52*
%TO.C,C25*%
X155032500Y-90970000D03*
X155032500Y-89420000D03*
%TD*%
%TO.C,C18*%
X112940000Y-78495000D03*
X112940000Y-76945000D03*
%TD*%
D12*
%TO.C,C35*%
X153612500Y-91145000D03*
X153612500Y-90185000D03*
%TD*%
D32*
%TO.C,C55*%
X148767341Y-109600782D03*
X147807341Y-109600782D03*
%TD*%
D29*
%TO.C,C48*%
X119470000Y-98940001D03*
X119470000Y-100840001D03*
%TD*%
D21*
%TO.C,J2*%
X151610000Y-71860000D03*
D22*
X149610000Y-71860000D03*
X147610000Y-71860000D03*
X145610000Y-71860000D03*
%TD*%
D52*
%TO.C,C21*%
X114550000Y-78495000D03*
X114550000Y-76945000D03*
%TD*%
D20*
%TO.C,C27*%
X155427500Y-83200001D03*
X155427500Y-84160001D03*
%TD*%
D34*
%TO.C,LED1*%
X160060000Y-79276716D03*
X159090000Y-79276716D03*
%TD*%
D29*
%TO.C,C45*%
X139650000Y-98940001D03*
X139650000Y-100840001D03*
%TD*%
D53*
%TO.C,D3*%
X126000000Y-94357500D03*
X126000000Y-92482500D03*
%TD*%
D54*
%TO.C,J1*%
X120490000Y-85857500D03*
D55*
X120490000Y-88107500D03*
X120490000Y-92107500D03*
D54*
X120490000Y-94357500D03*
D55*
X120490000Y-90107500D03*
D56*
X119490000Y-96657500D03*
X112990000Y-83557500D03*
X112990000Y-96657500D03*
X119490000Y-83557500D03*
%TD*%
D30*
%TO.C,R2*%
X131500000Y-94340000D03*
X131500000Y-93320000D03*
%TD*%
D13*
%TO.C,R14*%
X129426558Y-75652293D03*
X128406558Y-75652293D03*
%TD*%
D39*
%TO.C,R1*%
X128406558Y-73487139D03*
X129426558Y-73487139D03*
%TD*%
%TO.C,R38*%
X153369999Y-80800000D03*
X154389999Y-80800000D03*
%TD*%
D23*
%TO.C,R24*%
X151561666Y-100927501D03*
X151561666Y-101947501D03*
%TD*%
D27*
%TO.C,H4*%
X110633274Y-72666726D03*
D28*
X111800000Y-71500000D03*
D27*
X110633274Y-70333274D03*
X110150000Y-71500000D03*
X113450000Y-71500000D03*
X112966726Y-72666726D03*
X111800000Y-69850000D03*
X111800000Y-73150000D03*
X112966726Y-70333274D03*
%TD*%
D33*
%TO.C,C5*%
X126005000Y-86180000D03*
X126005000Y-84280000D03*
%TD*%
D32*
%TO.C,C11*%
X124724257Y-70102434D03*
X123764257Y-70102434D03*
%TD*%
D13*
%TO.C,R20*%
X148800000Y-98130000D03*
X147780000Y-98130000D03*
%TD*%
D23*
%TO.C,R15*%
X134510000Y-85090000D03*
X134510000Y-86110000D03*
%TD*%
D35*
%TO.C,C4*%
X129000000Y-82100000D03*
X129960000Y-82100000D03*
%TD*%
D57*
%TO.C,L2*%
X150157500Y-88670000D03*
X150157500Y-90870000D03*
%TD*%
D23*
%TO.C,R32*%
X146430000Y-85480000D03*
X146430000Y-86500000D03*
%TD*%
D36*
%TO.C,U5*%
X146680000Y-83030000D03*
X147080000Y-83030000D03*
X147480000Y-83030000D03*
X147880000Y-83030000D03*
X148280000Y-83030000D03*
X148680000Y-83030000D03*
X149080000Y-83030000D03*
X149480000Y-83030000D03*
X149880000Y-83030000D03*
X150280000Y-83030000D03*
D37*
X150917500Y-82392500D03*
X150917500Y-81992500D03*
X150917500Y-81592500D03*
X150917500Y-81192500D03*
X150917500Y-80792500D03*
X150917500Y-80392500D03*
X150917500Y-79992500D03*
X150917500Y-79592500D03*
X150917500Y-79192500D03*
X150917500Y-78792500D03*
D36*
X150280000Y-78155000D03*
X149880000Y-78155000D03*
X149480000Y-78155000D03*
X149080000Y-78155000D03*
X148680000Y-78155000D03*
X148280000Y-78155000D03*
X147880000Y-78155000D03*
X147480000Y-78155000D03*
X147080000Y-78155000D03*
X146680000Y-78155000D03*
D37*
X146042500Y-78792500D03*
X146042500Y-79192500D03*
X146042500Y-79592500D03*
X146042500Y-79992500D03*
X146042500Y-80392500D03*
X146042500Y-80792500D03*
X146042500Y-81192500D03*
X146042500Y-81592500D03*
X146042500Y-81992500D03*
X146042500Y-82392500D03*
D58*
X148480000Y-80592500D03*
%TD*%
D59*
%TO.C,D2*%
X139360000Y-91510000D03*
X140660000Y-91510000D03*
X140010000Y-89510000D03*
%TD*%
D29*
%TO.C,C49*%
X117510000Y-98940001D03*
X117510000Y-100840001D03*
%TD*%
D39*
%TO.C,R21*%
X142560000Y-83140000D03*
X143580000Y-83140000D03*
%TD*%
D30*
%TO.C,NCP15XW153J03RC1*%
X128593095Y-108489500D03*
X128593095Y-107469500D03*
%TD*%
D46*
%TO.C,C10*%
X134010000Y-96490000D03*
X135560000Y-96490000D03*
%TD*%
D23*
%TO.C,R22*%
X157360002Y-90100000D03*
X157360002Y-91120000D03*
%TD*%
M02*
