%TF.GenerationSoftware,KiCad,Pcbnew,(5.99.0-12889-g70df3822b5)*%
%TF.CreationDate,2022-01-04T22:15:28+08:00*%
%TF.ProjectId,WirelessPowerP40_Transmitter,57697265-6c65-4737-9350-6f7765725034,rev?*%
%TF.SameCoordinates,Original*%
%TF.FileFunction,Soldermask,Bot*%
%TF.FilePolarity,Negative*%
%FSLAX46Y46*%
G04 Gerber Fmt 4.6, Leading zero omitted, Abs format (unit mm)*
G04 Created by KiCad (PCBNEW (5.99.0-12889-g70df3822b5)) date 2022-01-04 22:15:28*
%MOMM*%
%LPD*%
G01*
G04 APERTURE LIST*
%ADD10C,0.010000*%
%ADD11R,1.350000X1.350000*%
%ADD12O,1.350000X1.350000*%
%ADD13C,0.700000*%
%ADD14C,4.400000*%
%ADD15C,3.200000*%
G04 APERTURE END LIST*
D10*
%TO.C,J1*%
X115450000Y-93320000D02*
X115449000Y-93286000D01*
X115449000Y-93286000D02*
X115446000Y-93252000D01*
X115446000Y-93252000D02*
X115442000Y-93218000D01*
X115442000Y-93218000D02*
X115436000Y-93185000D01*
X115436000Y-93185000D02*
X115428000Y-93152000D01*
X115428000Y-93152000D02*
X115418000Y-93119000D01*
X115418000Y-93119000D02*
X115407000Y-93087000D01*
X115407000Y-93087000D02*
X115394000Y-93056000D01*
X115394000Y-93056000D02*
X115379000Y-93025000D01*
X115379000Y-93025000D02*
X115363000Y-92995000D01*
X115363000Y-92995000D02*
X115345000Y-92966000D01*
X115345000Y-92966000D02*
X115326000Y-92938000D01*
X115326000Y-92938000D02*
X115305000Y-92911000D01*
X115305000Y-92911000D02*
X115283000Y-92885000D01*
X115283000Y-92885000D02*
X115260000Y-92860000D01*
X115260000Y-92860000D02*
X115235000Y-92837000D01*
X115235000Y-92837000D02*
X115209000Y-92815000D01*
X115209000Y-92815000D02*
X115182000Y-92794000D01*
X115182000Y-92794000D02*
X115154000Y-92775000D01*
X115154000Y-92775000D02*
X115125000Y-92757000D01*
X115125000Y-92757000D02*
X115095000Y-92741000D01*
X115095000Y-92741000D02*
X115064000Y-92726000D01*
X115064000Y-92726000D02*
X115033000Y-92713000D01*
X115033000Y-92713000D02*
X115001000Y-92702000D01*
X115001000Y-92702000D02*
X114968000Y-92692000D01*
X114968000Y-92692000D02*
X114935000Y-92684000D01*
X114935000Y-92684000D02*
X114902000Y-92678000D01*
X114902000Y-92678000D02*
X114868000Y-92674000D01*
X114868000Y-92674000D02*
X114834000Y-92671000D01*
X114834000Y-92671000D02*
X114800000Y-92670000D01*
X114800000Y-92670000D02*
X114200000Y-92670000D01*
X114200000Y-92670000D02*
X114166000Y-92671000D01*
X114166000Y-92671000D02*
X114132000Y-92674000D01*
X114132000Y-92674000D02*
X114098000Y-92678000D01*
X114098000Y-92678000D02*
X114065000Y-92684000D01*
X114065000Y-92684000D02*
X114032000Y-92692000D01*
X114032000Y-92692000D02*
X113999000Y-92702000D01*
X113999000Y-92702000D02*
X113967000Y-92713000D01*
X113967000Y-92713000D02*
X113936000Y-92726000D01*
X113936000Y-92726000D02*
X113905000Y-92741000D01*
X113905000Y-92741000D02*
X113875000Y-92757000D01*
X113875000Y-92757000D02*
X113846000Y-92775000D01*
X113846000Y-92775000D02*
X113818000Y-92794000D01*
X113818000Y-92794000D02*
X113791000Y-92815000D01*
X113791000Y-92815000D02*
X113765000Y-92837000D01*
X113765000Y-92837000D02*
X113740000Y-92860000D01*
X113740000Y-92860000D02*
X113717000Y-92885000D01*
X113717000Y-92885000D02*
X113695000Y-92911000D01*
X113695000Y-92911000D02*
X113674000Y-92938000D01*
X113674000Y-92938000D02*
X113655000Y-92966000D01*
X113655000Y-92966000D02*
X113637000Y-92995000D01*
X113637000Y-92995000D02*
X113621000Y-93025000D01*
X113621000Y-93025000D02*
X113606000Y-93056000D01*
X113606000Y-93056000D02*
X113593000Y-93087000D01*
X113593000Y-93087000D02*
X113582000Y-93119000D01*
X113582000Y-93119000D02*
X113572000Y-93152000D01*
X113572000Y-93152000D02*
X113564000Y-93185000D01*
X113564000Y-93185000D02*
X113558000Y-93218000D01*
X113558000Y-93218000D02*
X113554000Y-93252000D01*
X113554000Y-93252000D02*
X113551000Y-93286000D01*
X113551000Y-93286000D02*
X113550000Y-93320000D01*
X113550000Y-93320000D02*
X113551000Y-93354000D01*
X113551000Y-93354000D02*
X113554000Y-93388000D01*
X113554000Y-93388000D02*
X113558000Y-93422000D01*
X113558000Y-93422000D02*
X113564000Y-93455000D01*
X113564000Y-93455000D02*
X113572000Y-93488000D01*
X113572000Y-93488000D02*
X113582000Y-93521000D01*
X113582000Y-93521000D02*
X113593000Y-93553000D01*
X113593000Y-93553000D02*
X113606000Y-93584000D01*
X113606000Y-93584000D02*
X113621000Y-93615000D01*
X113621000Y-93615000D02*
X113637000Y-93645000D01*
X113637000Y-93645000D02*
X113655000Y-93674000D01*
X113655000Y-93674000D02*
X113674000Y-93702000D01*
X113674000Y-93702000D02*
X113695000Y-93729000D01*
X113695000Y-93729000D02*
X113717000Y-93755000D01*
X113717000Y-93755000D02*
X113740000Y-93780000D01*
X113740000Y-93780000D02*
X113765000Y-93803000D01*
X113765000Y-93803000D02*
X113791000Y-93825000D01*
X113791000Y-93825000D02*
X113818000Y-93846000D01*
X113818000Y-93846000D02*
X113846000Y-93865000D01*
X113846000Y-93865000D02*
X113875000Y-93883000D01*
X113875000Y-93883000D02*
X113905000Y-93899000D01*
X113905000Y-93899000D02*
X113936000Y-93914000D01*
X113936000Y-93914000D02*
X113967000Y-93927000D01*
X113967000Y-93927000D02*
X113999000Y-93938000D01*
X113999000Y-93938000D02*
X114032000Y-93948000D01*
X114032000Y-93948000D02*
X114065000Y-93956000D01*
X114065000Y-93956000D02*
X114098000Y-93962000D01*
X114098000Y-93962000D02*
X114132000Y-93966000D01*
X114132000Y-93966000D02*
X114166000Y-93969000D01*
X114166000Y-93969000D02*
X114200000Y-93970000D01*
X114200000Y-93970000D02*
X114800000Y-93970000D01*
X114800000Y-93970000D02*
X114834000Y-93969000D01*
X114834000Y-93969000D02*
X114868000Y-93966000D01*
X114868000Y-93966000D02*
X114902000Y-93962000D01*
X114902000Y-93962000D02*
X114935000Y-93956000D01*
X114935000Y-93956000D02*
X114968000Y-93948000D01*
X114968000Y-93948000D02*
X115001000Y-93938000D01*
X115001000Y-93938000D02*
X115033000Y-93927000D01*
X115033000Y-93927000D02*
X115064000Y-93914000D01*
X115064000Y-93914000D02*
X115095000Y-93899000D01*
X115095000Y-93899000D02*
X115125000Y-93883000D01*
X115125000Y-93883000D02*
X115154000Y-93865000D01*
X115154000Y-93865000D02*
X115182000Y-93846000D01*
X115182000Y-93846000D02*
X115209000Y-93825000D01*
X115209000Y-93825000D02*
X115235000Y-93803000D01*
X115235000Y-93803000D02*
X115260000Y-93780000D01*
X115260000Y-93780000D02*
X115283000Y-93755000D01*
X115283000Y-93755000D02*
X115305000Y-93729000D01*
X115305000Y-93729000D02*
X115326000Y-93702000D01*
X115326000Y-93702000D02*
X115345000Y-93674000D01*
X115345000Y-93674000D02*
X115363000Y-93645000D01*
X115363000Y-93645000D02*
X115379000Y-93615000D01*
X115379000Y-93615000D02*
X115394000Y-93584000D01*
X115394000Y-93584000D02*
X115407000Y-93553000D01*
X115407000Y-93553000D02*
X115418000Y-93521000D01*
X115418000Y-93521000D02*
X115428000Y-93488000D01*
X115428000Y-93488000D02*
X115436000Y-93455000D01*
X115436000Y-93455000D02*
X115442000Y-93422000D01*
X115442000Y-93422000D02*
X115446000Y-93388000D01*
X115446000Y-93388000D02*
X115449000Y-93354000D01*
X115449000Y-93354000D02*
X115450000Y-93320000D01*
X115450000Y-93320000D02*
X115450000Y-93320000D01*
G36*
X114834000Y-92671000D02*
G01*
X114868000Y-92674000D01*
X114902000Y-92678000D01*
X114935000Y-92684000D01*
X114968000Y-92692000D01*
X115001000Y-92702000D01*
X115033000Y-92713000D01*
X115064000Y-92726000D01*
X115095000Y-92741000D01*
X115125000Y-92757000D01*
X115154000Y-92775000D01*
X115182000Y-92794000D01*
X115209000Y-92815000D01*
X115235000Y-92837000D01*
X115260000Y-92860000D01*
X115283000Y-92885000D01*
X115305000Y-92911000D01*
X115326000Y-92938000D01*
X115345000Y-92966000D01*
X115363000Y-92995000D01*
X115379000Y-93025000D01*
X115394000Y-93056000D01*
X115407000Y-93087000D01*
X115418000Y-93119000D01*
X115428000Y-93152000D01*
X115436000Y-93185000D01*
X115442000Y-93218000D01*
X115446000Y-93252000D01*
X115449000Y-93286000D01*
X115450000Y-93320000D01*
X115449000Y-93354000D01*
X115446000Y-93388000D01*
X115442000Y-93422000D01*
X115436000Y-93455000D01*
X115428000Y-93488000D01*
X115418000Y-93521000D01*
X115407000Y-93553000D01*
X115394000Y-93584000D01*
X115379000Y-93615000D01*
X115363000Y-93645000D01*
X115345000Y-93674000D01*
X115326000Y-93702000D01*
X115305000Y-93729000D01*
X115283000Y-93755000D01*
X115260000Y-93780000D01*
X115235000Y-93803000D01*
X115209000Y-93825000D01*
X115182000Y-93846000D01*
X115154000Y-93865000D01*
X115125000Y-93883000D01*
X115095000Y-93899000D01*
X115064000Y-93914000D01*
X115033000Y-93927000D01*
X115001000Y-93938000D01*
X114968000Y-93948000D01*
X114935000Y-93956000D01*
X114902000Y-93962000D01*
X114868000Y-93966000D01*
X114834000Y-93969000D01*
X114800000Y-93970000D01*
X114200000Y-93970000D01*
X114166000Y-93969000D01*
X114132000Y-93966000D01*
X114098000Y-93962000D01*
X114065000Y-93956000D01*
X114032000Y-93948000D01*
X113999000Y-93938000D01*
X113967000Y-93927000D01*
X113936000Y-93914000D01*
X113905000Y-93899000D01*
X113875000Y-93883000D01*
X113846000Y-93865000D01*
X113818000Y-93846000D01*
X113791000Y-93825000D01*
X113765000Y-93803000D01*
X113740000Y-93780000D01*
X113717000Y-93755000D01*
X113695000Y-93729000D01*
X113674000Y-93702000D01*
X113655000Y-93674000D01*
X113637000Y-93645000D01*
X113621000Y-93615000D01*
X113606000Y-93584000D01*
X113593000Y-93553000D01*
X113582000Y-93521000D01*
X113572000Y-93488000D01*
X113564000Y-93455000D01*
X113558000Y-93422000D01*
X113554000Y-93388000D01*
X113551000Y-93354000D01*
X113550000Y-93320000D01*
X113551000Y-93286000D01*
X113554000Y-93252000D01*
X113558000Y-93218000D01*
X113564000Y-93185000D01*
X113572000Y-93152000D01*
X113582000Y-93119000D01*
X113593000Y-93087000D01*
X113606000Y-93056000D01*
X113621000Y-93025000D01*
X113637000Y-92995000D01*
X113655000Y-92966000D01*
X113674000Y-92938000D01*
X113695000Y-92911000D01*
X113717000Y-92885000D01*
X113740000Y-92860000D01*
X113765000Y-92837000D01*
X113791000Y-92815000D01*
X113818000Y-92794000D01*
X113846000Y-92775000D01*
X113875000Y-92757000D01*
X113905000Y-92741000D01*
X113936000Y-92726000D01*
X113967000Y-92713000D01*
X113999000Y-92702000D01*
X114032000Y-92692000D01*
X114065000Y-92684000D01*
X114098000Y-92678000D01*
X114132000Y-92674000D01*
X114166000Y-92671000D01*
X114200000Y-92670000D01*
X114800000Y-92670000D01*
X114834000Y-92671000D01*
G37*
X114834000Y-92671000D02*
X114868000Y-92674000D01*
X114902000Y-92678000D01*
X114935000Y-92684000D01*
X114968000Y-92692000D01*
X115001000Y-92702000D01*
X115033000Y-92713000D01*
X115064000Y-92726000D01*
X115095000Y-92741000D01*
X115125000Y-92757000D01*
X115154000Y-92775000D01*
X115182000Y-92794000D01*
X115209000Y-92815000D01*
X115235000Y-92837000D01*
X115260000Y-92860000D01*
X115283000Y-92885000D01*
X115305000Y-92911000D01*
X115326000Y-92938000D01*
X115345000Y-92966000D01*
X115363000Y-92995000D01*
X115379000Y-93025000D01*
X115394000Y-93056000D01*
X115407000Y-93087000D01*
X115418000Y-93119000D01*
X115428000Y-93152000D01*
X115436000Y-93185000D01*
X115442000Y-93218000D01*
X115446000Y-93252000D01*
X115449000Y-93286000D01*
X115450000Y-93320000D01*
X115449000Y-93354000D01*
X115446000Y-93388000D01*
X115442000Y-93422000D01*
X115436000Y-93455000D01*
X115428000Y-93488000D01*
X115418000Y-93521000D01*
X115407000Y-93553000D01*
X115394000Y-93584000D01*
X115379000Y-93615000D01*
X115363000Y-93645000D01*
X115345000Y-93674000D01*
X115326000Y-93702000D01*
X115305000Y-93729000D01*
X115283000Y-93755000D01*
X115260000Y-93780000D01*
X115235000Y-93803000D01*
X115209000Y-93825000D01*
X115182000Y-93846000D01*
X115154000Y-93865000D01*
X115125000Y-93883000D01*
X115095000Y-93899000D01*
X115064000Y-93914000D01*
X115033000Y-93927000D01*
X115001000Y-93938000D01*
X114968000Y-93948000D01*
X114935000Y-93956000D01*
X114902000Y-93962000D01*
X114868000Y-93966000D01*
X114834000Y-93969000D01*
X114800000Y-93970000D01*
X114200000Y-93970000D01*
X114166000Y-93969000D01*
X114132000Y-93966000D01*
X114098000Y-93962000D01*
X114065000Y-93956000D01*
X114032000Y-93948000D01*
X113999000Y-93938000D01*
X113967000Y-93927000D01*
X113936000Y-93914000D01*
X113905000Y-93899000D01*
X113875000Y-93883000D01*
X113846000Y-93865000D01*
X113818000Y-93846000D01*
X113791000Y-93825000D01*
X113765000Y-93803000D01*
X113740000Y-93780000D01*
X113717000Y-93755000D01*
X113695000Y-93729000D01*
X113674000Y-93702000D01*
X113655000Y-93674000D01*
X113637000Y-93645000D01*
X113621000Y-93615000D01*
X113606000Y-93584000D01*
X113593000Y-93553000D01*
X113582000Y-93521000D01*
X113572000Y-93488000D01*
X113564000Y-93455000D01*
X113558000Y-93422000D01*
X113554000Y-93388000D01*
X113551000Y-93354000D01*
X113550000Y-93320000D01*
X113551000Y-93286000D01*
X113554000Y-93252000D01*
X113558000Y-93218000D01*
X113564000Y-93185000D01*
X113572000Y-93152000D01*
X113582000Y-93119000D01*
X113593000Y-93087000D01*
X113606000Y-93056000D01*
X113621000Y-93025000D01*
X113637000Y-92995000D01*
X113655000Y-92966000D01*
X113674000Y-92938000D01*
X113695000Y-92911000D01*
X113717000Y-92885000D01*
X113740000Y-92860000D01*
X113765000Y-92837000D01*
X113791000Y-92815000D01*
X113818000Y-92794000D01*
X113846000Y-92775000D01*
X113875000Y-92757000D01*
X113905000Y-92741000D01*
X113936000Y-92726000D01*
X113967000Y-92713000D01*
X113999000Y-92702000D01*
X114032000Y-92692000D01*
X114065000Y-92684000D01*
X114098000Y-92678000D01*
X114132000Y-92674000D01*
X114166000Y-92671000D01*
X114200000Y-92670000D01*
X114800000Y-92670000D01*
X114834000Y-92671000D01*
X111650000Y-84680000D02*
X111649000Y-84646000D01*
X111649000Y-84646000D02*
X111646000Y-84612000D01*
X111646000Y-84612000D02*
X111642000Y-84578000D01*
X111642000Y-84578000D02*
X111636000Y-84545000D01*
X111636000Y-84545000D02*
X111628000Y-84512000D01*
X111628000Y-84512000D02*
X111618000Y-84479000D01*
X111618000Y-84479000D02*
X111607000Y-84447000D01*
X111607000Y-84447000D02*
X111594000Y-84416000D01*
X111594000Y-84416000D02*
X111579000Y-84385000D01*
X111579000Y-84385000D02*
X111563000Y-84355000D01*
X111563000Y-84355000D02*
X111545000Y-84326000D01*
X111545000Y-84326000D02*
X111526000Y-84298000D01*
X111526000Y-84298000D02*
X111505000Y-84271000D01*
X111505000Y-84271000D02*
X111483000Y-84245000D01*
X111483000Y-84245000D02*
X111460000Y-84220000D01*
X111460000Y-84220000D02*
X111435000Y-84197000D01*
X111435000Y-84197000D02*
X111409000Y-84175000D01*
X111409000Y-84175000D02*
X111382000Y-84154000D01*
X111382000Y-84154000D02*
X111354000Y-84135000D01*
X111354000Y-84135000D02*
X111325000Y-84117000D01*
X111325000Y-84117000D02*
X111295000Y-84101000D01*
X111295000Y-84101000D02*
X111264000Y-84086000D01*
X111264000Y-84086000D02*
X111233000Y-84073000D01*
X111233000Y-84073000D02*
X111201000Y-84062000D01*
X111201000Y-84062000D02*
X111168000Y-84052000D01*
X111168000Y-84052000D02*
X111135000Y-84044000D01*
X111135000Y-84044000D02*
X111102000Y-84038000D01*
X111102000Y-84038000D02*
X111068000Y-84034000D01*
X111068000Y-84034000D02*
X111034000Y-84031000D01*
X111034000Y-84031000D02*
X111000000Y-84030000D01*
X111000000Y-84030000D02*
X110400000Y-84030000D01*
X110400000Y-84030000D02*
X110366000Y-84031000D01*
X110366000Y-84031000D02*
X110332000Y-84034000D01*
X110332000Y-84034000D02*
X110298000Y-84038000D01*
X110298000Y-84038000D02*
X110265000Y-84044000D01*
X110265000Y-84044000D02*
X110232000Y-84052000D01*
X110232000Y-84052000D02*
X110199000Y-84062000D01*
X110199000Y-84062000D02*
X110167000Y-84073000D01*
X110167000Y-84073000D02*
X110136000Y-84086000D01*
X110136000Y-84086000D02*
X110105000Y-84101000D01*
X110105000Y-84101000D02*
X110075000Y-84117000D01*
X110075000Y-84117000D02*
X110046000Y-84135000D01*
X110046000Y-84135000D02*
X110018000Y-84154000D01*
X110018000Y-84154000D02*
X109991000Y-84175000D01*
X109991000Y-84175000D02*
X109965000Y-84197000D01*
X109965000Y-84197000D02*
X109940000Y-84220000D01*
X109940000Y-84220000D02*
X109917000Y-84245000D01*
X109917000Y-84245000D02*
X109895000Y-84271000D01*
X109895000Y-84271000D02*
X109874000Y-84298000D01*
X109874000Y-84298000D02*
X109855000Y-84326000D01*
X109855000Y-84326000D02*
X109837000Y-84355000D01*
X109837000Y-84355000D02*
X109821000Y-84385000D01*
X109821000Y-84385000D02*
X109806000Y-84416000D01*
X109806000Y-84416000D02*
X109793000Y-84447000D01*
X109793000Y-84447000D02*
X109782000Y-84479000D01*
X109782000Y-84479000D02*
X109772000Y-84512000D01*
X109772000Y-84512000D02*
X109764000Y-84545000D01*
X109764000Y-84545000D02*
X109758000Y-84578000D01*
X109758000Y-84578000D02*
X109754000Y-84612000D01*
X109754000Y-84612000D02*
X109751000Y-84646000D01*
X109751000Y-84646000D02*
X109750000Y-84680000D01*
X109750000Y-84680000D02*
X109751000Y-84714000D01*
X109751000Y-84714000D02*
X109754000Y-84748000D01*
X109754000Y-84748000D02*
X109758000Y-84782000D01*
X109758000Y-84782000D02*
X109764000Y-84815000D01*
X109764000Y-84815000D02*
X109772000Y-84848000D01*
X109772000Y-84848000D02*
X109782000Y-84881000D01*
X109782000Y-84881000D02*
X109793000Y-84913000D01*
X109793000Y-84913000D02*
X109806000Y-84944000D01*
X109806000Y-84944000D02*
X109821000Y-84975000D01*
X109821000Y-84975000D02*
X109837000Y-85005000D01*
X109837000Y-85005000D02*
X109855000Y-85034000D01*
X109855000Y-85034000D02*
X109874000Y-85062000D01*
X109874000Y-85062000D02*
X109895000Y-85089000D01*
X109895000Y-85089000D02*
X109917000Y-85115000D01*
X109917000Y-85115000D02*
X109940000Y-85140000D01*
X109940000Y-85140000D02*
X109965000Y-85163000D01*
X109965000Y-85163000D02*
X109991000Y-85185000D01*
X109991000Y-85185000D02*
X110018000Y-85206000D01*
X110018000Y-85206000D02*
X110046000Y-85225000D01*
X110046000Y-85225000D02*
X110075000Y-85243000D01*
X110075000Y-85243000D02*
X110105000Y-85259000D01*
X110105000Y-85259000D02*
X110136000Y-85274000D01*
X110136000Y-85274000D02*
X110167000Y-85287000D01*
X110167000Y-85287000D02*
X110199000Y-85298000D01*
X110199000Y-85298000D02*
X110232000Y-85308000D01*
X110232000Y-85308000D02*
X110265000Y-85316000D01*
X110265000Y-85316000D02*
X110298000Y-85322000D01*
X110298000Y-85322000D02*
X110332000Y-85326000D01*
X110332000Y-85326000D02*
X110366000Y-85329000D01*
X110366000Y-85329000D02*
X110400000Y-85330000D01*
X110400000Y-85330000D02*
X111000000Y-85330000D01*
X111000000Y-85330000D02*
X111034000Y-85329000D01*
X111034000Y-85329000D02*
X111068000Y-85326000D01*
X111068000Y-85326000D02*
X111102000Y-85322000D01*
X111102000Y-85322000D02*
X111135000Y-85316000D01*
X111135000Y-85316000D02*
X111168000Y-85308000D01*
X111168000Y-85308000D02*
X111201000Y-85298000D01*
X111201000Y-85298000D02*
X111233000Y-85287000D01*
X111233000Y-85287000D02*
X111264000Y-85274000D01*
X111264000Y-85274000D02*
X111295000Y-85259000D01*
X111295000Y-85259000D02*
X111325000Y-85243000D01*
X111325000Y-85243000D02*
X111354000Y-85225000D01*
X111354000Y-85225000D02*
X111382000Y-85206000D01*
X111382000Y-85206000D02*
X111409000Y-85185000D01*
X111409000Y-85185000D02*
X111435000Y-85163000D01*
X111435000Y-85163000D02*
X111460000Y-85140000D01*
X111460000Y-85140000D02*
X111483000Y-85115000D01*
X111483000Y-85115000D02*
X111505000Y-85089000D01*
X111505000Y-85089000D02*
X111526000Y-85062000D01*
X111526000Y-85062000D02*
X111545000Y-85034000D01*
X111545000Y-85034000D02*
X111563000Y-85005000D01*
X111563000Y-85005000D02*
X111579000Y-84975000D01*
X111579000Y-84975000D02*
X111594000Y-84944000D01*
X111594000Y-84944000D02*
X111607000Y-84913000D01*
X111607000Y-84913000D02*
X111618000Y-84881000D01*
X111618000Y-84881000D02*
X111628000Y-84848000D01*
X111628000Y-84848000D02*
X111636000Y-84815000D01*
X111636000Y-84815000D02*
X111642000Y-84782000D01*
X111642000Y-84782000D02*
X111646000Y-84748000D01*
X111646000Y-84748000D02*
X111649000Y-84714000D01*
X111649000Y-84714000D02*
X111650000Y-84680000D01*
X111650000Y-84680000D02*
X111650000Y-84680000D01*
G36*
X111034000Y-84031000D02*
G01*
X111068000Y-84034000D01*
X111102000Y-84038000D01*
X111135000Y-84044000D01*
X111168000Y-84052000D01*
X111201000Y-84062000D01*
X111233000Y-84073000D01*
X111264000Y-84086000D01*
X111295000Y-84101000D01*
X111325000Y-84117000D01*
X111354000Y-84135000D01*
X111382000Y-84154000D01*
X111409000Y-84175000D01*
X111435000Y-84197000D01*
X111460000Y-84220000D01*
X111483000Y-84245000D01*
X111505000Y-84271000D01*
X111526000Y-84298000D01*
X111545000Y-84326000D01*
X111563000Y-84355000D01*
X111579000Y-84385000D01*
X111594000Y-84416000D01*
X111607000Y-84447000D01*
X111618000Y-84479000D01*
X111628000Y-84512000D01*
X111636000Y-84545000D01*
X111642000Y-84578000D01*
X111646000Y-84612000D01*
X111649000Y-84646000D01*
X111650000Y-84680000D01*
X111649000Y-84714000D01*
X111646000Y-84748000D01*
X111642000Y-84782000D01*
X111636000Y-84815000D01*
X111628000Y-84848000D01*
X111618000Y-84881000D01*
X111607000Y-84913000D01*
X111594000Y-84944000D01*
X111579000Y-84975000D01*
X111563000Y-85005000D01*
X111545000Y-85034000D01*
X111526000Y-85062000D01*
X111505000Y-85089000D01*
X111483000Y-85115000D01*
X111460000Y-85140000D01*
X111435000Y-85163000D01*
X111409000Y-85185000D01*
X111382000Y-85206000D01*
X111354000Y-85225000D01*
X111325000Y-85243000D01*
X111295000Y-85259000D01*
X111264000Y-85274000D01*
X111233000Y-85287000D01*
X111201000Y-85298000D01*
X111168000Y-85308000D01*
X111135000Y-85316000D01*
X111102000Y-85322000D01*
X111068000Y-85326000D01*
X111034000Y-85329000D01*
X111000000Y-85330000D01*
X110400000Y-85330000D01*
X110366000Y-85329000D01*
X110332000Y-85326000D01*
X110298000Y-85322000D01*
X110265000Y-85316000D01*
X110232000Y-85308000D01*
X110199000Y-85298000D01*
X110167000Y-85287000D01*
X110136000Y-85274000D01*
X110105000Y-85259000D01*
X110075000Y-85243000D01*
X110046000Y-85225000D01*
X110018000Y-85206000D01*
X109991000Y-85185000D01*
X109965000Y-85163000D01*
X109940000Y-85140000D01*
X109917000Y-85115000D01*
X109895000Y-85089000D01*
X109874000Y-85062000D01*
X109855000Y-85034000D01*
X109837000Y-85005000D01*
X109821000Y-84975000D01*
X109806000Y-84944000D01*
X109793000Y-84913000D01*
X109782000Y-84881000D01*
X109772000Y-84848000D01*
X109764000Y-84815000D01*
X109758000Y-84782000D01*
X109754000Y-84748000D01*
X109751000Y-84714000D01*
X109750000Y-84680000D01*
X109751000Y-84646000D01*
X109754000Y-84612000D01*
X109758000Y-84578000D01*
X109764000Y-84545000D01*
X109772000Y-84512000D01*
X109782000Y-84479000D01*
X109793000Y-84447000D01*
X109806000Y-84416000D01*
X109821000Y-84385000D01*
X109837000Y-84355000D01*
X109855000Y-84326000D01*
X109874000Y-84298000D01*
X109895000Y-84271000D01*
X109917000Y-84245000D01*
X109940000Y-84220000D01*
X109965000Y-84197000D01*
X109991000Y-84175000D01*
X110018000Y-84154000D01*
X110046000Y-84135000D01*
X110075000Y-84117000D01*
X110105000Y-84101000D01*
X110136000Y-84086000D01*
X110167000Y-84073000D01*
X110199000Y-84062000D01*
X110232000Y-84052000D01*
X110265000Y-84044000D01*
X110298000Y-84038000D01*
X110332000Y-84034000D01*
X110366000Y-84031000D01*
X110400000Y-84030000D01*
X111000000Y-84030000D01*
X111034000Y-84031000D01*
G37*
X111034000Y-84031000D02*
X111068000Y-84034000D01*
X111102000Y-84038000D01*
X111135000Y-84044000D01*
X111168000Y-84052000D01*
X111201000Y-84062000D01*
X111233000Y-84073000D01*
X111264000Y-84086000D01*
X111295000Y-84101000D01*
X111325000Y-84117000D01*
X111354000Y-84135000D01*
X111382000Y-84154000D01*
X111409000Y-84175000D01*
X111435000Y-84197000D01*
X111460000Y-84220000D01*
X111483000Y-84245000D01*
X111505000Y-84271000D01*
X111526000Y-84298000D01*
X111545000Y-84326000D01*
X111563000Y-84355000D01*
X111579000Y-84385000D01*
X111594000Y-84416000D01*
X111607000Y-84447000D01*
X111618000Y-84479000D01*
X111628000Y-84512000D01*
X111636000Y-84545000D01*
X111642000Y-84578000D01*
X111646000Y-84612000D01*
X111649000Y-84646000D01*
X111650000Y-84680000D01*
X111649000Y-84714000D01*
X111646000Y-84748000D01*
X111642000Y-84782000D01*
X111636000Y-84815000D01*
X111628000Y-84848000D01*
X111618000Y-84881000D01*
X111607000Y-84913000D01*
X111594000Y-84944000D01*
X111579000Y-84975000D01*
X111563000Y-85005000D01*
X111545000Y-85034000D01*
X111526000Y-85062000D01*
X111505000Y-85089000D01*
X111483000Y-85115000D01*
X111460000Y-85140000D01*
X111435000Y-85163000D01*
X111409000Y-85185000D01*
X111382000Y-85206000D01*
X111354000Y-85225000D01*
X111325000Y-85243000D01*
X111295000Y-85259000D01*
X111264000Y-85274000D01*
X111233000Y-85287000D01*
X111201000Y-85298000D01*
X111168000Y-85308000D01*
X111135000Y-85316000D01*
X111102000Y-85322000D01*
X111068000Y-85326000D01*
X111034000Y-85329000D01*
X111000000Y-85330000D01*
X110400000Y-85330000D01*
X110366000Y-85329000D01*
X110332000Y-85326000D01*
X110298000Y-85322000D01*
X110265000Y-85316000D01*
X110232000Y-85308000D01*
X110199000Y-85298000D01*
X110167000Y-85287000D01*
X110136000Y-85274000D01*
X110105000Y-85259000D01*
X110075000Y-85243000D01*
X110046000Y-85225000D01*
X110018000Y-85206000D01*
X109991000Y-85185000D01*
X109965000Y-85163000D01*
X109940000Y-85140000D01*
X109917000Y-85115000D01*
X109895000Y-85089000D01*
X109874000Y-85062000D01*
X109855000Y-85034000D01*
X109837000Y-85005000D01*
X109821000Y-84975000D01*
X109806000Y-84944000D01*
X109793000Y-84913000D01*
X109782000Y-84881000D01*
X109772000Y-84848000D01*
X109764000Y-84815000D01*
X109758000Y-84782000D01*
X109754000Y-84748000D01*
X109751000Y-84714000D01*
X109750000Y-84680000D01*
X109751000Y-84646000D01*
X109754000Y-84612000D01*
X109758000Y-84578000D01*
X109764000Y-84545000D01*
X109772000Y-84512000D01*
X109782000Y-84479000D01*
X109793000Y-84447000D01*
X109806000Y-84416000D01*
X109821000Y-84385000D01*
X109837000Y-84355000D01*
X109855000Y-84326000D01*
X109874000Y-84298000D01*
X109895000Y-84271000D01*
X109917000Y-84245000D01*
X109940000Y-84220000D01*
X109965000Y-84197000D01*
X109991000Y-84175000D01*
X110018000Y-84154000D01*
X110046000Y-84135000D01*
X110075000Y-84117000D01*
X110105000Y-84101000D01*
X110136000Y-84086000D01*
X110167000Y-84073000D01*
X110199000Y-84062000D01*
X110232000Y-84052000D01*
X110265000Y-84044000D01*
X110298000Y-84038000D01*
X110332000Y-84034000D01*
X110366000Y-84031000D01*
X110400000Y-84030000D01*
X111000000Y-84030000D01*
X111034000Y-84031000D01*
X111650000Y-93320000D02*
X111649000Y-93286000D01*
X111649000Y-93286000D02*
X111646000Y-93252000D01*
X111646000Y-93252000D02*
X111642000Y-93218000D01*
X111642000Y-93218000D02*
X111636000Y-93185000D01*
X111636000Y-93185000D02*
X111628000Y-93152000D01*
X111628000Y-93152000D02*
X111618000Y-93119000D01*
X111618000Y-93119000D02*
X111607000Y-93087000D01*
X111607000Y-93087000D02*
X111594000Y-93056000D01*
X111594000Y-93056000D02*
X111579000Y-93025000D01*
X111579000Y-93025000D02*
X111563000Y-92995000D01*
X111563000Y-92995000D02*
X111545000Y-92966000D01*
X111545000Y-92966000D02*
X111526000Y-92938000D01*
X111526000Y-92938000D02*
X111505000Y-92911000D01*
X111505000Y-92911000D02*
X111483000Y-92885000D01*
X111483000Y-92885000D02*
X111460000Y-92860000D01*
X111460000Y-92860000D02*
X111435000Y-92837000D01*
X111435000Y-92837000D02*
X111409000Y-92815000D01*
X111409000Y-92815000D02*
X111382000Y-92794000D01*
X111382000Y-92794000D02*
X111354000Y-92775000D01*
X111354000Y-92775000D02*
X111325000Y-92757000D01*
X111325000Y-92757000D02*
X111295000Y-92741000D01*
X111295000Y-92741000D02*
X111264000Y-92726000D01*
X111264000Y-92726000D02*
X111233000Y-92713000D01*
X111233000Y-92713000D02*
X111201000Y-92702000D01*
X111201000Y-92702000D02*
X111168000Y-92692000D01*
X111168000Y-92692000D02*
X111135000Y-92684000D01*
X111135000Y-92684000D02*
X111102000Y-92678000D01*
X111102000Y-92678000D02*
X111068000Y-92674000D01*
X111068000Y-92674000D02*
X111034000Y-92671000D01*
X111034000Y-92671000D02*
X111000000Y-92670000D01*
X111000000Y-92670000D02*
X110400000Y-92670000D01*
X110400000Y-92670000D02*
X110366000Y-92671000D01*
X110366000Y-92671000D02*
X110332000Y-92674000D01*
X110332000Y-92674000D02*
X110298000Y-92678000D01*
X110298000Y-92678000D02*
X110265000Y-92684000D01*
X110265000Y-92684000D02*
X110232000Y-92692000D01*
X110232000Y-92692000D02*
X110199000Y-92702000D01*
X110199000Y-92702000D02*
X110167000Y-92713000D01*
X110167000Y-92713000D02*
X110136000Y-92726000D01*
X110136000Y-92726000D02*
X110105000Y-92741000D01*
X110105000Y-92741000D02*
X110075000Y-92757000D01*
X110075000Y-92757000D02*
X110046000Y-92775000D01*
X110046000Y-92775000D02*
X110018000Y-92794000D01*
X110018000Y-92794000D02*
X109991000Y-92815000D01*
X109991000Y-92815000D02*
X109965000Y-92837000D01*
X109965000Y-92837000D02*
X109940000Y-92860000D01*
X109940000Y-92860000D02*
X109917000Y-92885000D01*
X109917000Y-92885000D02*
X109895000Y-92911000D01*
X109895000Y-92911000D02*
X109874000Y-92938000D01*
X109874000Y-92938000D02*
X109855000Y-92966000D01*
X109855000Y-92966000D02*
X109837000Y-92995000D01*
X109837000Y-92995000D02*
X109821000Y-93025000D01*
X109821000Y-93025000D02*
X109806000Y-93056000D01*
X109806000Y-93056000D02*
X109793000Y-93087000D01*
X109793000Y-93087000D02*
X109782000Y-93119000D01*
X109782000Y-93119000D02*
X109772000Y-93152000D01*
X109772000Y-93152000D02*
X109764000Y-93185000D01*
X109764000Y-93185000D02*
X109758000Y-93218000D01*
X109758000Y-93218000D02*
X109754000Y-93252000D01*
X109754000Y-93252000D02*
X109751000Y-93286000D01*
X109751000Y-93286000D02*
X109750000Y-93320000D01*
X109750000Y-93320000D02*
X109751000Y-93354000D01*
X109751000Y-93354000D02*
X109754000Y-93388000D01*
X109754000Y-93388000D02*
X109758000Y-93422000D01*
X109758000Y-93422000D02*
X109764000Y-93455000D01*
X109764000Y-93455000D02*
X109772000Y-93488000D01*
X109772000Y-93488000D02*
X109782000Y-93521000D01*
X109782000Y-93521000D02*
X109793000Y-93553000D01*
X109793000Y-93553000D02*
X109806000Y-93584000D01*
X109806000Y-93584000D02*
X109821000Y-93615000D01*
X109821000Y-93615000D02*
X109837000Y-93645000D01*
X109837000Y-93645000D02*
X109855000Y-93674000D01*
X109855000Y-93674000D02*
X109874000Y-93702000D01*
X109874000Y-93702000D02*
X109895000Y-93729000D01*
X109895000Y-93729000D02*
X109917000Y-93755000D01*
X109917000Y-93755000D02*
X109940000Y-93780000D01*
X109940000Y-93780000D02*
X109965000Y-93803000D01*
X109965000Y-93803000D02*
X109991000Y-93825000D01*
X109991000Y-93825000D02*
X110018000Y-93846000D01*
X110018000Y-93846000D02*
X110046000Y-93865000D01*
X110046000Y-93865000D02*
X110075000Y-93883000D01*
X110075000Y-93883000D02*
X110105000Y-93899000D01*
X110105000Y-93899000D02*
X110136000Y-93914000D01*
X110136000Y-93914000D02*
X110167000Y-93927000D01*
X110167000Y-93927000D02*
X110199000Y-93938000D01*
X110199000Y-93938000D02*
X110232000Y-93948000D01*
X110232000Y-93948000D02*
X110265000Y-93956000D01*
X110265000Y-93956000D02*
X110298000Y-93962000D01*
X110298000Y-93962000D02*
X110332000Y-93966000D01*
X110332000Y-93966000D02*
X110366000Y-93969000D01*
X110366000Y-93969000D02*
X110400000Y-93970000D01*
X110400000Y-93970000D02*
X111000000Y-93970000D01*
X111000000Y-93970000D02*
X111034000Y-93969000D01*
X111034000Y-93969000D02*
X111068000Y-93966000D01*
X111068000Y-93966000D02*
X111102000Y-93962000D01*
X111102000Y-93962000D02*
X111135000Y-93956000D01*
X111135000Y-93956000D02*
X111168000Y-93948000D01*
X111168000Y-93948000D02*
X111201000Y-93938000D01*
X111201000Y-93938000D02*
X111233000Y-93927000D01*
X111233000Y-93927000D02*
X111264000Y-93914000D01*
X111264000Y-93914000D02*
X111295000Y-93899000D01*
X111295000Y-93899000D02*
X111325000Y-93883000D01*
X111325000Y-93883000D02*
X111354000Y-93865000D01*
X111354000Y-93865000D02*
X111382000Y-93846000D01*
X111382000Y-93846000D02*
X111409000Y-93825000D01*
X111409000Y-93825000D02*
X111435000Y-93803000D01*
X111435000Y-93803000D02*
X111460000Y-93780000D01*
X111460000Y-93780000D02*
X111483000Y-93755000D01*
X111483000Y-93755000D02*
X111505000Y-93729000D01*
X111505000Y-93729000D02*
X111526000Y-93702000D01*
X111526000Y-93702000D02*
X111545000Y-93674000D01*
X111545000Y-93674000D02*
X111563000Y-93645000D01*
X111563000Y-93645000D02*
X111579000Y-93615000D01*
X111579000Y-93615000D02*
X111594000Y-93584000D01*
X111594000Y-93584000D02*
X111607000Y-93553000D01*
X111607000Y-93553000D02*
X111618000Y-93521000D01*
X111618000Y-93521000D02*
X111628000Y-93488000D01*
X111628000Y-93488000D02*
X111636000Y-93455000D01*
X111636000Y-93455000D02*
X111642000Y-93422000D01*
X111642000Y-93422000D02*
X111646000Y-93388000D01*
X111646000Y-93388000D02*
X111649000Y-93354000D01*
X111649000Y-93354000D02*
X111650000Y-93320000D01*
X111650000Y-93320000D02*
X111650000Y-93320000D01*
G36*
X111034000Y-92671000D02*
G01*
X111068000Y-92674000D01*
X111102000Y-92678000D01*
X111135000Y-92684000D01*
X111168000Y-92692000D01*
X111201000Y-92702000D01*
X111233000Y-92713000D01*
X111264000Y-92726000D01*
X111295000Y-92741000D01*
X111325000Y-92757000D01*
X111354000Y-92775000D01*
X111382000Y-92794000D01*
X111409000Y-92815000D01*
X111435000Y-92837000D01*
X111460000Y-92860000D01*
X111483000Y-92885000D01*
X111505000Y-92911000D01*
X111526000Y-92938000D01*
X111545000Y-92966000D01*
X111563000Y-92995000D01*
X111579000Y-93025000D01*
X111594000Y-93056000D01*
X111607000Y-93087000D01*
X111618000Y-93119000D01*
X111628000Y-93152000D01*
X111636000Y-93185000D01*
X111642000Y-93218000D01*
X111646000Y-93252000D01*
X111649000Y-93286000D01*
X111650000Y-93320000D01*
X111649000Y-93354000D01*
X111646000Y-93388000D01*
X111642000Y-93422000D01*
X111636000Y-93455000D01*
X111628000Y-93488000D01*
X111618000Y-93521000D01*
X111607000Y-93553000D01*
X111594000Y-93584000D01*
X111579000Y-93615000D01*
X111563000Y-93645000D01*
X111545000Y-93674000D01*
X111526000Y-93702000D01*
X111505000Y-93729000D01*
X111483000Y-93755000D01*
X111460000Y-93780000D01*
X111435000Y-93803000D01*
X111409000Y-93825000D01*
X111382000Y-93846000D01*
X111354000Y-93865000D01*
X111325000Y-93883000D01*
X111295000Y-93899000D01*
X111264000Y-93914000D01*
X111233000Y-93927000D01*
X111201000Y-93938000D01*
X111168000Y-93948000D01*
X111135000Y-93956000D01*
X111102000Y-93962000D01*
X111068000Y-93966000D01*
X111034000Y-93969000D01*
X111000000Y-93970000D01*
X110400000Y-93970000D01*
X110366000Y-93969000D01*
X110332000Y-93966000D01*
X110298000Y-93962000D01*
X110265000Y-93956000D01*
X110232000Y-93948000D01*
X110199000Y-93938000D01*
X110167000Y-93927000D01*
X110136000Y-93914000D01*
X110105000Y-93899000D01*
X110075000Y-93883000D01*
X110046000Y-93865000D01*
X110018000Y-93846000D01*
X109991000Y-93825000D01*
X109965000Y-93803000D01*
X109940000Y-93780000D01*
X109917000Y-93755000D01*
X109895000Y-93729000D01*
X109874000Y-93702000D01*
X109855000Y-93674000D01*
X109837000Y-93645000D01*
X109821000Y-93615000D01*
X109806000Y-93584000D01*
X109793000Y-93553000D01*
X109782000Y-93521000D01*
X109772000Y-93488000D01*
X109764000Y-93455000D01*
X109758000Y-93422000D01*
X109754000Y-93388000D01*
X109751000Y-93354000D01*
X109750000Y-93320000D01*
X109751000Y-93286000D01*
X109754000Y-93252000D01*
X109758000Y-93218000D01*
X109764000Y-93185000D01*
X109772000Y-93152000D01*
X109782000Y-93119000D01*
X109793000Y-93087000D01*
X109806000Y-93056000D01*
X109821000Y-93025000D01*
X109837000Y-92995000D01*
X109855000Y-92966000D01*
X109874000Y-92938000D01*
X109895000Y-92911000D01*
X109917000Y-92885000D01*
X109940000Y-92860000D01*
X109965000Y-92837000D01*
X109991000Y-92815000D01*
X110018000Y-92794000D01*
X110046000Y-92775000D01*
X110075000Y-92757000D01*
X110105000Y-92741000D01*
X110136000Y-92726000D01*
X110167000Y-92713000D01*
X110199000Y-92702000D01*
X110232000Y-92692000D01*
X110265000Y-92684000D01*
X110298000Y-92678000D01*
X110332000Y-92674000D01*
X110366000Y-92671000D01*
X110400000Y-92670000D01*
X111000000Y-92670000D01*
X111034000Y-92671000D01*
G37*
X111034000Y-92671000D02*
X111068000Y-92674000D01*
X111102000Y-92678000D01*
X111135000Y-92684000D01*
X111168000Y-92692000D01*
X111201000Y-92702000D01*
X111233000Y-92713000D01*
X111264000Y-92726000D01*
X111295000Y-92741000D01*
X111325000Y-92757000D01*
X111354000Y-92775000D01*
X111382000Y-92794000D01*
X111409000Y-92815000D01*
X111435000Y-92837000D01*
X111460000Y-92860000D01*
X111483000Y-92885000D01*
X111505000Y-92911000D01*
X111526000Y-92938000D01*
X111545000Y-92966000D01*
X111563000Y-92995000D01*
X111579000Y-93025000D01*
X111594000Y-93056000D01*
X111607000Y-93087000D01*
X111618000Y-93119000D01*
X111628000Y-93152000D01*
X111636000Y-93185000D01*
X111642000Y-93218000D01*
X111646000Y-93252000D01*
X111649000Y-93286000D01*
X111650000Y-93320000D01*
X111649000Y-93354000D01*
X111646000Y-93388000D01*
X111642000Y-93422000D01*
X111636000Y-93455000D01*
X111628000Y-93488000D01*
X111618000Y-93521000D01*
X111607000Y-93553000D01*
X111594000Y-93584000D01*
X111579000Y-93615000D01*
X111563000Y-93645000D01*
X111545000Y-93674000D01*
X111526000Y-93702000D01*
X111505000Y-93729000D01*
X111483000Y-93755000D01*
X111460000Y-93780000D01*
X111435000Y-93803000D01*
X111409000Y-93825000D01*
X111382000Y-93846000D01*
X111354000Y-93865000D01*
X111325000Y-93883000D01*
X111295000Y-93899000D01*
X111264000Y-93914000D01*
X111233000Y-93927000D01*
X111201000Y-93938000D01*
X111168000Y-93948000D01*
X111135000Y-93956000D01*
X111102000Y-93962000D01*
X111068000Y-93966000D01*
X111034000Y-93969000D01*
X111000000Y-93970000D01*
X110400000Y-93970000D01*
X110366000Y-93969000D01*
X110332000Y-93966000D01*
X110298000Y-93962000D01*
X110265000Y-93956000D01*
X110232000Y-93948000D01*
X110199000Y-93938000D01*
X110167000Y-93927000D01*
X110136000Y-93914000D01*
X110105000Y-93899000D01*
X110075000Y-93883000D01*
X110046000Y-93865000D01*
X110018000Y-93846000D01*
X109991000Y-93825000D01*
X109965000Y-93803000D01*
X109940000Y-93780000D01*
X109917000Y-93755000D01*
X109895000Y-93729000D01*
X109874000Y-93702000D01*
X109855000Y-93674000D01*
X109837000Y-93645000D01*
X109821000Y-93615000D01*
X109806000Y-93584000D01*
X109793000Y-93553000D01*
X109782000Y-93521000D01*
X109772000Y-93488000D01*
X109764000Y-93455000D01*
X109758000Y-93422000D01*
X109754000Y-93388000D01*
X109751000Y-93354000D01*
X109750000Y-93320000D01*
X109751000Y-93286000D01*
X109754000Y-93252000D01*
X109758000Y-93218000D01*
X109764000Y-93185000D01*
X109772000Y-93152000D01*
X109782000Y-93119000D01*
X109793000Y-93087000D01*
X109806000Y-93056000D01*
X109821000Y-93025000D01*
X109837000Y-92995000D01*
X109855000Y-92966000D01*
X109874000Y-92938000D01*
X109895000Y-92911000D01*
X109917000Y-92885000D01*
X109940000Y-92860000D01*
X109965000Y-92837000D01*
X109991000Y-92815000D01*
X110018000Y-92794000D01*
X110046000Y-92775000D01*
X110075000Y-92757000D01*
X110105000Y-92741000D01*
X110136000Y-92726000D01*
X110167000Y-92713000D01*
X110199000Y-92702000D01*
X110232000Y-92692000D01*
X110265000Y-92684000D01*
X110298000Y-92678000D01*
X110332000Y-92674000D01*
X110366000Y-92671000D01*
X110400000Y-92670000D01*
X111000000Y-92670000D01*
X111034000Y-92671000D01*
X115450000Y-84680000D02*
X115449000Y-84646000D01*
X115449000Y-84646000D02*
X115446000Y-84612000D01*
X115446000Y-84612000D02*
X115442000Y-84578000D01*
X115442000Y-84578000D02*
X115436000Y-84545000D01*
X115436000Y-84545000D02*
X115428000Y-84512000D01*
X115428000Y-84512000D02*
X115418000Y-84479000D01*
X115418000Y-84479000D02*
X115407000Y-84447000D01*
X115407000Y-84447000D02*
X115394000Y-84416000D01*
X115394000Y-84416000D02*
X115379000Y-84385000D01*
X115379000Y-84385000D02*
X115363000Y-84355000D01*
X115363000Y-84355000D02*
X115345000Y-84326000D01*
X115345000Y-84326000D02*
X115326000Y-84298000D01*
X115326000Y-84298000D02*
X115305000Y-84271000D01*
X115305000Y-84271000D02*
X115283000Y-84245000D01*
X115283000Y-84245000D02*
X115260000Y-84220000D01*
X115260000Y-84220000D02*
X115235000Y-84197000D01*
X115235000Y-84197000D02*
X115209000Y-84175000D01*
X115209000Y-84175000D02*
X115182000Y-84154000D01*
X115182000Y-84154000D02*
X115154000Y-84135000D01*
X115154000Y-84135000D02*
X115125000Y-84117000D01*
X115125000Y-84117000D02*
X115095000Y-84101000D01*
X115095000Y-84101000D02*
X115064000Y-84086000D01*
X115064000Y-84086000D02*
X115033000Y-84073000D01*
X115033000Y-84073000D02*
X115001000Y-84062000D01*
X115001000Y-84062000D02*
X114968000Y-84052000D01*
X114968000Y-84052000D02*
X114935000Y-84044000D01*
X114935000Y-84044000D02*
X114902000Y-84038000D01*
X114902000Y-84038000D02*
X114868000Y-84034000D01*
X114868000Y-84034000D02*
X114834000Y-84031000D01*
X114834000Y-84031000D02*
X114800000Y-84030000D01*
X114800000Y-84030000D02*
X114200000Y-84030000D01*
X114200000Y-84030000D02*
X114166000Y-84031000D01*
X114166000Y-84031000D02*
X114132000Y-84034000D01*
X114132000Y-84034000D02*
X114098000Y-84038000D01*
X114098000Y-84038000D02*
X114065000Y-84044000D01*
X114065000Y-84044000D02*
X114032000Y-84052000D01*
X114032000Y-84052000D02*
X113999000Y-84062000D01*
X113999000Y-84062000D02*
X113967000Y-84073000D01*
X113967000Y-84073000D02*
X113936000Y-84086000D01*
X113936000Y-84086000D02*
X113905000Y-84101000D01*
X113905000Y-84101000D02*
X113875000Y-84117000D01*
X113875000Y-84117000D02*
X113846000Y-84135000D01*
X113846000Y-84135000D02*
X113818000Y-84154000D01*
X113818000Y-84154000D02*
X113791000Y-84175000D01*
X113791000Y-84175000D02*
X113765000Y-84197000D01*
X113765000Y-84197000D02*
X113740000Y-84220000D01*
X113740000Y-84220000D02*
X113717000Y-84245000D01*
X113717000Y-84245000D02*
X113695000Y-84271000D01*
X113695000Y-84271000D02*
X113674000Y-84298000D01*
X113674000Y-84298000D02*
X113655000Y-84326000D01*
X113655000Y-84326000D02*
X113637000Y-84355000D01*
X113637000Y-84355000D02*
X113621000Y-84385000D01*
X113621000Y-84385000D02*
X113606000Y-84416000D01*
X113606000Y-84416000D02*
X113593000Y-84447000D01*
X113593000Y-84447000D02*
X113582000Y-84479000D01*
X113582000Y-84479000D02*
X113572000Y-84512000D01*
X113572000Y-84512000D02*
X113564000Y-84545000D01*
X113564000Y-84545000D02*
X113558000Y-84578000D01*
X113558000Y-84578000D02*
X113554000Y-84612000D01*
X113554000Y-84612000D02*
X113551000Y-84646000D01*
X113551000Y-84646000D02*
X113550000Y-84680000D01*
X113550000Y-84680000D02*
X113551000Y-84714000D01*
X113551000Y-84714000D02*
X113554000Y-84748000D01*
X113554000Y-84748000D02*
X113558000Y-84782000D01*
X113558000Y-84782000D02*
X113564000Y-84815000D01*
X113564000Y-84815000D02*
X113572000Y-84848000D01*
X113572000Y-84848000D02*
X113582000Y-84881000D01*
X113582000Y-84881000D02*
X113593000Y-84913000D01*
X113593000Y-84913000D02*
X113606000Y-84944000D01*
X113606000Y-84944000D02*
X113621000Y-84975000D01*
X113621000Y-84975000D02*
X113637000Y-85005000D01*
X113637000Y-85005000D02*
X113655000Y-85034000D01*
X113655000Y-85034000D02*
X113674000Y-85062000D01*
X113674000Y-85062000D02*
X113695000Y-85089000D01*
X113695000Y-85089000D02*
X113717000Y-85115000D01*
X113717000Y-85115000D02*
X113740000Y-85140000D01*
X113740000Y-85140000D02*
X113765000Y-85163000D01*
X113765000Y-85163000D02*
X113791000Y-85185000D01*
X113791000Y-85185000D02*
X113818000Y-85206000D01*
X113818000Y-85206000D02*
X113846000Y-85225000D01*
X113846000Y-85225000D02*
X113875000Y-85243000D01*
X113875000Y-85243000D02*
X113905000Y-85259000D01*
X113905000Y-85259000D02*
X113936000Y-85274000D01*
X113936000Y-85274000D02*
X113967000Y-85287000D01*
X113967000Y-85287000D02*
X113999000Y-85298000D01*
X113999000Y-85298000D02*
X114032000Y-85308000D01*
X114032000Y-85308000D02*
X114065000Y-85316000D01*
X114065000Y-85316000D02*
X114098000Y-85322000D01*
X114098000Y-85322000D02*
X114132000Y-85326000D01*
X114132000Y-85326000D02*
X114166000Y-85329000D01*
X114166000Y-85329000D02*
X114200000Y-85330000D01*
X114200000Y-85330000D02*
X114800000Y-85330000D01*
X114800000Y-85330000D02*
X114834000Y-85329000D01*
X114834000Y-85329000D02*
X114868000Y-85326000D01*
X114868000Y-85326000D02*
X114902000Y-85322000D01*
X114902000Y-85322000D02*
X114935000Y-85316000D01*
X114935000Y-85316000D02*
X114968000Y-85308000D01*
X114968000Y-85308000D02*
X115001000Y-85298000D01*
X115001000Y-85298000D02*
X115033000Y-85287000D01*
X115033000Y-85287000D02*
X115064000Y-85274000D01*
X115064000Y-85274000D02*
X115095000Y-85259000D01*
X115095000Y-85259000D02*
X115125000Y-85243000D01*
X115125000Y-85243000D02*
X115154000Y-85225000D01*
X115154000Y-85225000D02*
X115182000Y-85206000D01*
X115182000Y-85206000D02*
X115209000Y-85185000D01*
X115209000Y-85185000D02*
X115235000Y-85163000D01*
X115235000Y-85163000D02*
X115260000Y-85140000D01*
X115260000Y-85140000D02*
X115283000Y-85115000D01*
X115283000Y-85115000D02*
X115305000Y-85089000D01*
X115305000Y-85089000D02*
X115326000Y-85062000D01*
X115326000Y-85062000D02*
X115345000Y-85034000D01*
X115345000Y-85034000D02*
X115363000Y-85005000D01*
X115363000Y-85005000D02*
X115379000Y-84975000D01*
X115379000Y-84975000D02*
X115394000Y-84944000D01*
X115394000Y-84944000D02*
X115407000Y-84913000D01*
X115407000Y-84913000D02*
X115418000Y-84881000D01*
X115418000Y-84881000D02*
X115428000Y-84848000D01*
X115428000Y-84848000D02*
X115436000Y-84815000D01*
X115436000Y-84815000D02*
X115442000Y-84782000D01*
X115442000Y-84782000D02*
X115446000Y-84748000D01*
X115446000Y-84748000D02*
X115449000Y-84714000D01*
X115449000Y-84714000D02*
X115450000Y-84680000D01*
X115450000Y-84680000D02*
X115450000Y-84680000D01*
G36*
X114834000Y-84031000D02*
G01*
X114868000Y-84034000D01*
X114902000Y-84038000D01*
X114935000Y-84044000D01*
X114968000Y-84052000D01*
X115001000Y-84062000D01*
X115033000Y-84073000D01*
X115064000Y-84086000D01*
X115095000Y-84101000D01*
X115125000Y-84117000D01*
X115154000Y-84135000D01*
X115182000Y-84154000D01*
X115209000Y-84175000D01*
X115235000Y-84197000D01*
X115260000Y-84220000D01*
X115283000Y-84245000D01*
X115305000Y-84271000D01*
X115326000Y-84298000D01*
X115345000Y-84326000D01*
X115363000Y-84355000D01*
X115379000Y-84385000D01*
X115394000Y-84416000D01*
X115407000Y-84447000D01*
X115418000Y-84479000D01*
X115428000Y-84512000D01*
X115436000Y-84545000D01*
X115442000Y-84578000D01*
X115446000Y-84612000D01*
X115449000Y-84646000D01*
X115450000Y-84680000D01*
X115449000Y-84714000D01*
X115446000Y-84748000D01*
X115442000Y-84782000D01*
X115436000Y-84815000D01*
X115428000Y-84848000D01*
X115418000Y-84881000D01*
X115407000Y-84913000D01*
X115394000Y-84944000D01*
X115379000Y-84975000D01*
X115363000Y-85005000D01*
X115345000Y-85034000D01*
X115326000Y-85062000D01*
X115305000Y-85089000D01*
X115283000Y-85115000D01*
X115260000Y-85140000D01*
X115235000Y-85163000D01*
X115209000Y-85185000D01*
X115182000Y-85206000D01*
X115154000Y-85225000D01*
X115125000Y-85243000D01*
X115095000Y-85259000D01*
X115064000Y-85274000D01*
X115033000Y-85287000D01*
X115001000Y-85298000D01*
X114968000Y-85308000D01*
X114935000Y-85316000D01*
X114902000Y-85322000D01*
X114868000Y-85326000D01*
X114834000Y-85329000D01*
X114800000Y-85330000D01*
X114200000Y-85330000D01*
X114166000Y-85329000D01*
X114132000Y-85326000D01*
X114098000Y-85322000D01*
X114065000Y-85316000D01*
X114032000Y-85308000D01*
X113999000Y-85298000D01*
X113967000Y-85287000D01*
X113936000Y-85274000D01*
X113905000Y-85259000D01*
X113875000Y-85243000D01*
X113846000Y-85225000D01*
X113818000Y-85206000D01*
X113791000Y-85185000D01*
X113765000Y-85163000D01*
X113740000Y-85140000D01*
X113717000Y-85115000D01*
X113695000Y-85089000D01*
X113674000Y-85062000D01*
X113655000Y-85034000D01*
X113637000Y-85005000D01*
X113621000Y-84975000D01*
X113606000Y-84944000D01*
X113593000Y-84913000D01*
X113582000Y-84881000D01*
X113572000Y-84848000D01*
X113564000Y-84815000D01*
X113558000Y-84782000D01*
X113554000Y-84748000D01*
X113551000Y-84714000D01*
X113550000Y-84680000D01*
X113551000Y-84646000D01*
X113554000Y-84612000D01*
X113558000Y-84578000D01*
X113564000Y-84545000D01*
X113572000Y-84512000D01*
X113582000Y-84479000D01*
X113593000Y-84447000D01*
X113606000Y-84416000D01*
X113621000Y-84385000D01*
X113637000Y-84355000D01*
X113655000Y-84326000D01*
X113674000Y-84298000D01*
X113695000Y-84271000D01*
X113717000Y-84245000D01*
X113740000Y-84220000D01*
X113765000Y-84197000D01*
X113791000Y-84175000D01*
X113818000Y-84154000D01*
X113846000Y-84135000D01*
X113875000Y-84117000D01*
X113905000Y-84101000D01*
X113936000Y-84086000D01*
X113967000Y-84073000D01*
X113999000Y-84062000D01*
X114032000Y-84052000D01*
X114065000Y-84044000D01*
X114098000Y-84038000D01*
X114132000Y-84034000D01*
X114166000Y-84031000D01*
X114200000Y-84030000D01*
X114800000Y-84030000D01*
X114834000Y-84031000D01*
G37*
X114834000Y-84031000D02*
X114868000Y-84034000D01*
X114902000Y-84038000D01*
X114935000Y-84044000D01*
X114968000Y-84052000D01*
X115001000Y-84062000D01*
X115033000Y-84073000D01*
X115064000Y-84086000D01*
X115095000Y-84101000D01*
X115125000Y-84117000D01*
X115154000Y-84135000D01*
X115182000Y-84154000D01*
X115209000Y-84175000D01*
X115235000Y-84197000D01*
X115260000Y-84220000D01*
X115283000Y-84245000D01*
X115305000Y-84271000D01*
X115326000Y-84298000D01*
X115345000Y-84326000D01*
X115363000Y-84355000D01*
X115379000Y-84385000D01*
X115394000Y-84416000D01*
X115407000Y-84447000D01*
X115418000Y-84479000D01*
X115428000Y-84512000D01*
X115436000Y-84545000D01*
X115442000Y-84578000D01*
X115446000Y-84612000D01*
X115449000Y-84646000D01*
X115450000Y-84680000D01*
X115449000Y-84714000D01*
X115446000Y-84748000D01*
X115442000Y-84782000D01*
X115436000Y-84815000D01*
X115428000Y-84848000D01*
X115418000Y-84881000D01*
X115407000Y-84913000D01*
X115394000Y-84944000D01*
X115379000Y-84975000D01*
X115363000Y-85005000D01*
X115345000Y-85034000D01*
X115326000Y-85062000D01*
X115305000Y-85089000D01*
X115283000Y-85115000D01*
X115260000Y-85140000D01*
X115235000Y-85163000D01*
X115209000Y-85185000D01*
X115182000Y-85206000D01*
X115154000Y-85225000D01*
X115125000Y-85243000D01*
X115095000Y-85259000D01*
X115064000Y-85274000D01*
X115033000Y-85287000D01*
X115001000Y-85298000D01*
X114968000Y-85308000D01*
X114935000Y-85316000D01*
X114902000Y-85322000D01*
X114868000Y-85326000D01*
X114834000Y-85329000D01*
X114800000Y-85330000D01*
X114200000Y-85330000D01*
X114166000Y-85329000D01*
X114132000Y-85326000D01*
X114098000Y-85322000D01*
X114065000Y-85316000D01*
X114032000Y-85308000D01*
X113999000Y-85298000D01*
X113967000Y-85287000D01*
X113936000Y-85274000D01*
X113905000Y-85259000D01*
X113875000Y-85243000D01*
X113846000Y-85225000D01*
X113818000Y-85206000D01*
X113791000Y-85185000D01*
X113765000Y-85163000D01*
X113740000Y-85140000D01*
X113717000Y-85115000D01*
X113695000Y-85089000D01*
X113674000Y-85062000D01*
X113655000Y-85034000D01*
X113637000Y-85005000D01*
X113621000Y-84975000D01*
X113606000Y-84944000D01*
X113593000Y-84913000D01*
X113582000Y-84881000D01*
X113572000Y-84848000D01*
X113564000Y-84815000D01*
X113558000Y-84782000D01*
X113554000Y-84748000D01*
X113551000Y-84714000D01*
X113550000Y-84680000D01*
X113551000Y-84646000D01*
X113554000Y-84612000D01*
X113558000Y-84578000D01*
X113564000Y-84545000D01*
X113572000Y-84512000D01*
X113582000Y-84479000D01*
X113593000Y-84447000D01*
X113606000Y-84416000D01*
X113621000Y-84385000D01*
X113637000Y-84355000D01*
X113655000Y-84326000D01*
X113674000Y-84298000D01*
X113695000Y-84271000D01*
X113717000Y-84245000D01*
X113740000Y-84220000D01*
X113765000Y-84197000D01*
X113791000Y-84175000D01*
X113818000Y-84154000D01*
X113846000Y-84135000D01*
X113875000Y-84117000D01*
X113905000Y-84101000D01*
X113936000Y-84086000D01*
X113967000Y-84073000D01*
X113999000Y-84062000D01*
X114032000Y-84052000D01*
X114065000Y-84044000D01*
X114098000Y-84038000D01*
X114132000Y-84034000D01*
X114166000Y-84031000D01*
X114200000Y-84030000D01*
X114800000Y-84030000D01*
X114834000Y-84031000D01*
%TD*%
D11*
%TO.C,J3*%
X134510000Y-71860000D03*
D12*
X136510000Y-71860000D03*
X138510000Y-71860000D03*
X140510000Y-71860000D03*
%TD*%
D13*
%TO.C,H3*%
X111800000Y-116850000D03*
X111800000Y-120150000D03*
X112966726Y-119666726D03*
X110633274Y-117333274D03*
D14*
X111800000Y-118500000D03*
D13*
X110633274Y-119666726D03*
X112966726Y-117333274D03*
X110150000Y-118500000D03*
X113450000Y-118500000D03*
%TD*%
D11*
%TO.C,J6*%
X158760000Y-107750000D03*
D12*
X158760000Y-105750000D03*
%TD*%
D11*
%TO.C,J4*%
X159740000Y-87780000D03*
D12*
X159740000Y-85780000D03*
%TD*%
D13*
%TO.C,H1*%
X157633274Y-72666726D03*
X158800000Y-69850000D03*
X157633274Y-70333274D03*
D14*
X158800000Y-71500000D03*
D13*
X159966726Y-70333274D03*
X157150000Y-71500000D03*
X158800000Y-73150000D03*
X159966726Y-72666726D03*
X160450000Y-71500000D03*
%TD*%
%TO.C,H2*%
X157533274Y-119666726D03*
X158700000Y-120150000D03*
X160350000Y-118500000D03*
X159866726Y-117333274D03*
X157050000Y-118500000D03*
D14*
X158700000Y-118500000D03*
D13*
X157533274Y-117333274D03*
X159866726Y-119666726D03*
X158700000Y-116850000D03*
%TD*%
D15*
%TO.C,J5*%
X132840000Y-117595000D03*
X137840000Y-117595000D03*
%TD*%
D11*
%TO.C,J7*%
X158760000Y-113810000D03*
D12*
X158760000Y-111810000D03*
%TD*%
D11*
%TO.C,J2*%
X151610000Y-71860000D03*
D12*
X149610000Y-71860000D03*
X147610000Y-71860000D03*
X145610000Y-71860000D03*
%TD*%
D13*
%TO.C,H4*%
X110633274Y-72666726D03*
D14*
X111800000Y-71500000D03*
D13*
X110633274Y-70333274D03*
X110150000Y-71500000D03*
X113450000Y-71500000D03*
X112966726Y-72666726D03*
X111800000Y-69850000D03*
X111800000Y-73150000D03*
X112966726Y-70333274D03*
%TD*%
M02*
