%TF.GenerationSoftware,KiCad,Pcbnew,(6.0.0)*%
%TF.CreationDate,2022-01-13T22:19:54+08:00*%
%TF.ProjectId,WirelessPowerP40_Transmitter,57697265-6c65-4737-9350-6f7765725034,rev?*%
%TF.SameCoordinates,Original*%
%TF.FileFunction,Soldermask,Bot*%
%TF.FilePolarity,Negative*%
%FSLAX46Y46*%
G04 Gerber Fmt 4.6, Leading zero omitted, Abs format (unit mm)*
G04 Created by KiCad (PCBNEW (6.0.0)) date 2022-01-13 22:19:54*
%MOMM*%
%LPD*%
G01*
G04 APERTURE LIST*
%ADD10R,1.350000X1.350000*%
%ADD11O,1.350000X1.350000*%
%ADD12C,0.700000*%
%ADD13C,4.400000*%
%ADD14C,3.200000*%
%ADD15O,1.600000X1.000000*%
G04 APERTURE END LIST*
D10*
%TO.C,J3*%
X134510000Y-71860000D03*
D11*
X136510000Y-71860000D03*
X138510000Y-71860000D03*
X140510000Y-71860000D03*
%TD*%
D12*
%TO.C,H3*%
X111800000Y-116850000D03*
X111800000Y-120150000D03*
X112966726Y-119666726D03*
X110633274Y-117333274D03*
D13*
X111800000Y-118500000D03*
D12*
X110633274Y-119666726D03*
X112966726Y-117333274D03*
X110150000Y-118500000D03*
X113450000Y-118500000D03*
%TD*%
D10*
%TO.C,J6*%
X158760000Y-107750000D03*
D11*
X158760000Y-105750000D03*
%TD*%
D10*
%TO.C,J4*%
X159740000Y-87780000D03*
D11*
X159740000Y-85780000D03*
%TD*%
D12*
%TO.C,H1*%
X157633274Y-72666726D03*
X158800000Y-69850000D03*
X157633274Y-70333274D03*
D13*
X158800000Y-71500000D03*
D12*
X159966726Y-70333274D03*
X157150000Y-71500000D03*
X158800000Y-73150000D03*
X159966726Y-72666726D03*
X160450000Y-71500000D03*
%TD*%
%TO.C,H2*%
X157533274Y-119666726D03*
X158700000Y-120150000D03*
X160350000Y-118500000D03*
X159866726Y-117333274D03*
X157050000Y-118500000D03*
D13*
X158700000Y-118500000D03*
D12*
X157533274Y-117333274D03*
X159866726Y-119666726D03*
X158700000Y-116850000D03*
%TD*%
D14*
%TO.C,J5*%
X132840000Y-117595000D03*
X137840000Y-117595000D03*
%TD*%
D10*
%TO.C,J7*%
X158760000Y-113810000D03*
D11*
X158760000Y-111810000D03*
%TD*%
D10*
%TO.C,J2*%
X145510000Y-71860000D03*
D11*
X147510000Y-71860000D03*
X149510000Y-71860000D03*
X151510000Y-71860000D03*
%TD*%
D15*
%TO.C,J1*%
X115100000Y-84780000D03*
X115100000Y-93420000D03*
X111300000Y-84780000D03*
X111300000Y-93420000D03*
%TD*%
D12*
%TO.C,H4*%
X110633274Y-72666726D03*
D13*
X111800000Y-71500000D03*
D12*
X110633274Y-70333274D03*
X110150000Y-71500000D03*
X113450000Y-71500000D03*
X112966726Y-72666726D03*
X111800000Y-69850000D03*
X111800000Y-73150000D03*
X112966726Y-70333274D03*
%TD*%
M02*
