%TF.GenerationSoftware,KiCad,Pcbnew,(5.99.0-12889-g70df3822b5)*%
%TF.CreationDate,2022-01-04T22:15:28+08:00*%
%TF.ProjectId,WirelessPowerP40_Transmitter,57697265-6c65-4737-9350-6f7765725034,rev?*%
%TF.SameCoordinates,Original*%
%TF.FileFunction,Legend,Top*%
%TF.FilePolarity,Positive*%
%FSLAX46Y46*%
G04 Gerber Fmt 4.6, Leading zero omitted, Abs format (unit mm)*
G04 Created by KiCad (PCBNEW (5.99.0-12889-g70df3822b5)) date 2022-01-04 22:15:28*
%MOMM*%
%LPD*%
G01*
G04 APERTURE LIST*
%ADD10C,0.100000*%
%ADD11C,0.150000*%
%ADD12C,0.120000*%
%ADD13C,0.200000*%
G04 APERTURE END LIST*
D10*
X149355000Y-91760000D02*
X149355000Y-100360000D01*
X144180000Y-76292500D02*
X152780000Y-76292501D01*
D11*
X112500000Y-98700000D02*
X112500000Y-100900000D01*
X144900000Y-98700000D02*
X144900000Y-100700000D01*
D10*
X152780000Y-76292501D02*
X152780000Y-84892501D01*
X127759998Y-70609999D02*
X127759999Y-77309999D01*
X144180000Y-84892500D02*
X152780000Y-84892501D01*
X121159999Y-77310001D02*
X121160000Y-70609999D01*
D11*
X112500000Y-98700000D02*
X116300000Y-98700000D01*
D10*
X157955000Y-91759999D02*
X157955000Y-100360000D01*
D11*
X141000000Y-98700000D02*
X144900000Y-98700000D01*
D10*
X121160000Y-70609999D02*
X127759998Y-70609999D01*
X157955000Y-91759999D02*
X149355000Y-91760000D01*
X144180000Y-84892500D02*
X144180000Y-76292500D01*
X157955000Y-100360000D02*
X149355000Y-100360000D01*
X127759999Y-77309999D02*
X121159999Y-77310001D01*
D11*
X152105237Y-73698571D02*
X151343332Y-73698571D01*
X151724285Y-73317619D02*
X151724285Y-74079523D01*
X149279049Y-73317619D02*
X149612382Y-73793809D01*
X149850477Y-73317619D02*
X149850477Y-74317619D01*
X149469525Y-74317619D01*
X149374287Y-74270000D01*
X149326668Y-74222380D01*
X149279049Y-74127142D01*
X149279049Y-73984285D01*
X149326668Y-73889047D01*
X149374287Y-73841428D01*
X149469525Y-73793809D01*
X149850477Y-73793809D01*
X138893331Y-74167619D02*
X138321902Y-74167619D01*
X138607617Y-73167619D02*
X138607617Y-74167619D01*
X140243333Y-73691428D02*
X141005238Y-73691428D01*
X134193333Y-73691428D02*
X134955238Y-73691428D01*
X134574286Y-74072380D02*
X134574286Y-73310476D01*
X147976668Y-74317619D02*
X147405239Y-74317619D01*
X147690954Y-73317619D02*
X147690954Y-74317619D01*
X146055237Y-73698571D02*
X145293332Y-73698571D01*
X136400476Y-73167619D02*
X136733809Y-73643809D01*
X136971904Y-73167619D02*
X136971904Y-74167619D01*
X136590952Y-74167619D01*
X136495714Y-74120000D01*
X136448095Y-74072380D01*
X136400476Y-73977142D01*
X136400476Y-73834285D01*
X136448095Y-73739047D01*
X136495714Y-73691428D01*
X136590952Y-73643809D01*
X136971904Y-73643809D01*
D10*
%TO.C,R12*%
X129381428Y-91805714D02*
X129095714Y-92005714D01*
X129381428Y-92148571D02*
X128781428Y-92148571D01*
X128781428Y-91920000D01*
X128810000Y-91862857D01*
X128838571Y-91834285D01*
X128895714Y-91805714D01*
X128981428Y-91805714D01*
X129038571Y-91834285D01*
X129067142Y-91862857D01*
X129095714Y-91920000D01*
X129095714Y-92148571D01*
X129381428Y-91234285D02*
X129381428Y-91577142D01*
X129381428Y-91405714D02*
X128781428Y-91405714D01*
X128867142Y-91462857D01*
X128924285Y-91520000D01*
X128952857Y-91577142D01*
X128838571Y-91005714D02*
X128810000Y-90977142D01*
X128781428Y-90920000D01*
X128781428Y-90777142D01*
X128810000Y-90720000D01*
X128838571Y-90691428D01*
X128895714Y-90662857D01*
X128952857Y-90662857D01*
X129038571Y-90691428D01*
X129381428Y-91034285D01*
X129381428Y-90662857D01*
%TO.C,C56*%
X145361627Y-113826497D02*
X145390199Y-113855068D01*
X145418770Y-113940783D01*
X145418770Y-113997925D01*
X145390199Y-114083640D01*
X145333056Y-114140783D01*
X145275913Y-114169354D01*
X145161627Y-114197925D01*
X145075913Y-114197925D01*
X144961627Y-114169354D01*
X144904484Y-114140783D01*
X144847342Y-114083640D01*
X144818770Y-113997925D01*
X144818770Y-113940783D01*
X144847342Y-113855068D01*
X144875913Y-113826497D01*
X144818770Y-113283640D02*
X144818770Y-113569354D01*
X145104484Y-113597925D01*
X145075913Y-113569354D01*
X145047342Y-113512211D01*
X145047342Y-113369354D01*
X145075913Y-113312211D01*
X145104484Y-113283640D01*
X145161627Y-113255068D01*
X145304484Y-113255068D01*
X145361627Y-113283640D01*
X145390199Y-113312211D01*
X145418770Y-113369354D01*
X145418770Y-113512211D01*
X145390199Y-113569354D01*
X145361627Y-113597925D01*
X144818770Y-112740783D02*
X144818770Y-112855068D01*
X144847342Y-112912211D01*
X144875913Y-112940783D01*
X144961627Y-112997925D01*
X145075913Y-113026497D01*
X145304484Y-113026497D01*
X145361627Y-112997925D01*
X145390199Y-112969354D01*
X145418770Y-112912211D01*
X145418770Y-112797925D01*
X145390199Y-112740783D01*
X145361627Y-112712211D01*
X145304484Y-112683640D01*
X145161627Y-112683640D01*
X145104484Y-112712211D01*
X145075913Y-112740783D01*
X145047342Y-112797925D01*
X145047342Y-112912211D01*
X145075913Y-112969354D01*
X145104484Y-112997925D01*
X145161627Y-113026497D01*
%TO.C,R39*%
X155364286Y-78846429D02*
X155164286Y-78560715D01*
X155021429Y-78846429D02*
X155021429Y-78246429D01*
X155250001Y-78246429D01*
X155307143Y-78275001D01*
X155335715Y-78303572D01*
X155364286Y-78360715D01*
X155364286Y-78446429D01*
X155335715Y-78503572D01*
X155307143Y-78532143D01*
X155250001Y-78560715D01*
X155021429Y-78560715D01*
X155564286Y-78246429D02*
X155935715Y-78246429D01*
X155735715Y-78475001D01*
X155821429Y-78475001D01*
X155878572Y-78503572D01*
X155907143Y-78532143D01*
X155935715Y-78589286D01*
X155935715Y-78732143D01*
X155907143Y-78789286D01*
X155878572Y-78817858D01*
X155821429Y-78846429D01*
X155650001Y-78846429D01*
X155592858Y-78817858D01*
X155564286Y-78789286D01*
X156221429Y-78846429D02*
X156335715Y-78846429D01*
X156392858Y-78817858D01*
X156421429Y-78789286D01*
X156478572Y-78703572D01*
X156507143Y-78589286D01*
X156507143Y-78360715D01*
X156478572Y-78303572D01*
X156450001Y-78275001D01*
X156392858Y-78246429D01*
X156278572Y-78246429D01*
X156221429Y-78275001D01*
X156192858Y-78303572D01*
X156164286Y-78360715D01*
X156164286Y-78503572D01*
X156192858Y-78560715D01*
X156221429Y-78589286D01*
X156278572Y-78617858D01*
X156392858Y-78617858D01*
X156450001Y-78589286D01*
X156478572Y-78560715D01*
X156507143Y-78503572D01*
%TO.C,C52*%
X119196784Y-112954283D02*
X119168213Y-112982855D01*
X119082499Y-113011426D01*
X119025356Y-113011426D01*
X118939641Y-112982855D01*
X118882499Y-112925712D01*
X118853927Y-112868569D01*
X118825356Y-112754283D01*
X118825356Y-112668569D01*
X118853927Y-112554283D01*
X118882499Y-112497140D01*
X118939641Y-112439998D01*
X119025356Y-112411426D01*
X119082499Y-112411426D01*
X119168213Y-112439998D01*
X119196784Y-112468569D01*
X119739641Y-112411426D02*
X119453927Y-112411426D01*
X119425356Y-112697140D01*
X119453927Y-112668569D01*
X119511070Y-112639998D01*
X119653927Y-112639998D01*
X119711070Y-112668569D01*
X119739641Y-112697140D01*
X119768213Y-112754283D01*
X119768213Y-112897140D01*
X119739641Y-112954283D01*
X119711070Y-112982855D01*
X119653927Y-113011426D01*
X119511070Y-113011426D01*
X119453927Y-112982855D01*
X119425356Y-112954283D01*
X119996784Y-112468569D02*
X120025356Y-112439998D01*
X120082499Y-112411426D01*
X120225356Y-112411426D01*
X120282499Y-112439998D01*
X120311070Y-112468569D01*
X120339641Y-112525712D01*
X120339641Y-112582855D01*
X120311070Y-112668569D01*
X119968213Y-113011426D01*
X120339641Y-113011426D01*
%TO.C,U6*%
X131242857Y-99331426D02*
X131242857Y-99817140D01*
X131271428Y-99874283D01*
X131300000Y-99902855D01*
X131357142Y-99931426D01*
X131471428Y-99931426D01*
X131528571Y-99902855D01*
X131557142Y-99874283D01*
X131585714Y-99817140D01*
X131585714Y-99331426D01*
X132128571Y-99331426D02*
X132014285Y-99331426D01*
X131957142Y-99359998D01*
X131928571Y-99388569D01*
X131871428Y-99474283D01*
X131842857Y-99588569D01*
X131842857Y-99817140D01*
X131871428Y-99874283D01*
X131900000Y-99902855D01*
X131957142Y-99931426D01*
X132071428Y-99931426D01*
X132128571Y-99902855D01*
X132157142Y-99874283D01*
X132185714Y-99817140D01*
X132185714Y-99674283D01*
X132157142Y-99617140D01*
X132128571Y-99588569D01*
X132071428Y-99559998D01*
X131957142Y-99559998D01*
X131900000Y-99588569D01*
X131871428Y-99617140D01*
X131842857Y-99674283D01*
%TO.C,U8*%
X145892212Y-113649800D02*
X146377926Y-113649800D01*
X146435069Y-113621229D01*
X146463641Y-113592658D01*
X146492212Y-113535515D01*
X146492212Y-113421229D01*
X146463641Y-113364086D01*
X146435069Y-113335515D01*
X146377926Y-113306943D01*
X145892212Y-113306943D01*
X146149355Y-112935515D02*
X146120784Y-112992658D01*
X146092212Y-113021229D01*
X146035069Y-113049800D01*
X146006498Y-113049800D01*
X145949355Y-113021229D01*
X145920784Y-112992658D01*
X145892212Y-112935515D01*
X145892212Y-112821229D01*
X145920784Y-112764086D01*
X145949355Y-112735515D01*
X146006498Y-112706943D01*
X146035069Y-112706943D01*
X146092212Y-112735515D01*
X146120784Y-112764086D01*
X146149355Y-112821229D01*
X146149355Y-112935515D01*
X146177926Y-112992658D01*
X146206498Y-113021229D01*
X146263641Y-113049800D01*
X146377926Y-113049800D01*
X146435069Y-113021229D01*
X146463641Y-112992658D01*
X146492212Y-112935515D01*
X146492212Y-112821229D01*
X146463641Y-112764086D01*
X146435069Y-112735515D01*
X146377926Y-112706943D01*
X146263641Y-112706943D01*
X146206498Y-112735515D01*
X146177926Y-112764086D01*
X146149355Y-112821229D01*
%TO.C,C30*%
X156654285Y-82425714D02*
X156682857Y-82454285D01*
X156711428Y-82540000D01*
X156711428Y-82597142D01*
X156682857Y-82682857D01*
X156625714Y-82740000D01*
X156568571Y-82768571D01*
X156454285Y-82797142D01*
X156368571Y-82797142D01*
X156254285Y-82768571D01*
X156197142Y-82740000D01*
X156140000Y-82682857D01*
X156111428Y-82597142D01*
X156111428Y-82540000D01*
X156140000Y-82454285D01*
X156168571Y-82425714D01*
X156111428Y-82225714D02*
X156111428Y-81854285D01*
X156340000Y-82054285D01*
X156340000Y-81968571D01*
X156368571Y-81911428D01*
X156397142Y-81882857D01*
X156454285Y-81854285D01*
X156597142Y-81854285D01*
X156654285Y-81882857D01*
X156682857Y-81911428D01*
X156711428Y-81968571D01*
X156711428Y-82140000D01*
X156682857Y-82197142D01*
X156654285Y-82225714D01*
X156111428Y-81482857D02*
X156111428Y-81425714D01*
X156140000Y-81368571D01*
X156168571Y-81340000D01*
X156225714Y-81311428D01*
X156340000Y-81282857D01*
X156482857Y-81282857D01*
X156597142Y-81311428D01*
X156654285Y-81340000D01*
X156682857Y-81368571D01*
X156711428Y-81425714D01*
X156711428Y-81482857D01*
X156682857Y-81540000D01*
X156654285Y-81568571D01*
X156597142Y-81597142D01*
X156482857Y-81625714D01*
X156340000Y-81625714D01*
X156225714Y-81597142D01*
X156168571Y-81568571D01*
X156140000Y-81540000D01*
X156111428Y-81482857D01*
%TO.C,R26*%
X152969760Y-104203214D02*
X152684046Y-104403214D01*
X152969760Y-104546071D02*
X152369760Y-104546071D01*
X152369760Y-104317500D01*
X152398332Y-104260357D01*
X152426903Y-104231785D01*
X152484046Y-104203214D01*
X152569760Y-104203214D01*
X152626903Y-104231785D01*
X152655474Y-104260357D01*
X152684046Y-104317500D01*
X152684046Y-104546071D01*
X152426903Y-103974642D02*
X152398332Y-103946071D01*
X152369760Y-103888928D01*
X152369760Y-103746071D01*
X152398332Y-103688928D01*
X152426903Y-103660357D01*
X152484046Y-103631785D01*
X152541189Y-103631785D01*
X152626903Y-103660357D01*
X152969760Y-104003214D01*
X152969760Y-103631785D01*
X152369760Y-103117500D02*
X152369760Y-103231785D01*
X152398332Y-103288928D01*
X152426903Y-103317500D01*
X152512617Y-103374642D01*
X152626903Y-103403214D01*
X152855474Y-103403214D01*
X152912617Y-103374642D01*
X152941189Y-103346071D01*
X152969760Y-103288928D01*
X152969760Y-103174642D01*
X152941189Y-103117500D01*
X152912617Y-103088928D01*
X152855474Y-103060357D01*
X152712617Y-103060357D01*
X152655474Y-103088928D01*
X152626903Y-103117500D01*
X152598332Y-103174642D01*
X152598332Y-103288928D01*
X152626903Y-103346071D01*
X152655474Y-103374642D01*
X152712617Y-103403214D01*
%TO.C,C41*%
X116214285Y-102814285D02*
X116185714Y-102842857D01*
X116100000Y-102871428D01*
X116042857Y-102871428D01*
X115957142Y-102842857D01*
X115900000Y-102785714D01*
X115871428Y-102728571D01*
X115842857Y-102614285D01*
X115842857Y-102528571D01*
X115871428Y-102414285D01*
X115900000Y-102357142D01*
X115957142Y-102300000D01*
X116042857Y-102271428D01*
X116100000Y-102271428D01*
X116185714Y-102300000D01*
X116214285Y-102328571D01*
X116728571Y-102471428D02*
X116728571Y-102871428D01*
X116585714Y-102242857D02*
X116442857Y-102671428D01*
X116814285Y-102671428D01*
X117357142Y-102871428D02*
X117014285Y-102871428D01*
X117185714Y-102871428D02*
X117185714Y-102271428D01*
X117128571Y-102357142D01*
X117071428Y-102414285D01*
X117014285Y-102442857D01*
%TO.C,R16*%
X139881428Y-95315714D02*
X139595714Y-95515714D01*
X139881428Y-95658571D02*
X139281428Y-95658571D01*
X139281428Y-95430000D01*
X139310000Y-95372857D01*
X139338571Y-95344285D01*
X139395714Y-95315714D01*
X139481428Y-95315714D01*
X139538571Y-95344285D01*
X139567142Y-95372857D01*
X139595714Y-95430000D01*
X139595714Y-95658571D01*
X139881428Y-94744285D02*
X139881428Y-95087142D01*
X139881428Y-94915714D02*
X139281428Y-94915714D01*
X139367142Y-94972857D01*
X139424285Y-95030000D01*
X139452857Y-95087142D01*
X139281428Y-94230000D02*
X139281428Y-94344285D01*
X139310000Y-94401428D01*
X139338571Y-94430000D01*
X139424285Y-94487142D01*
X139538571Y-94515714D01*
X139767142Y-94515714D01*
X139824285Y-94487142D01*
X139852857Y-94458571D01*
X139881428Y-94401428D01*
X139881428Y-94287142D01*
X139852857Y-94230000D01*
X139824285Y-94201428D01*
X139767142Y-94172857D01*
X139624285Y-94172857D01*
X139567142Y-94201428D01*
X139538571Y-94230000D01*
X139510000Y-94287142D01*
X139510000Y-94401428D01*
X139538571Y-94458571D01*
X139567142Y-94487142D01*
X139624285Y-94515714D01*
%TO.C,C14*%
X122299193Y-80010212D02*
X122270622Y-80038784D01*
X122184908Y-80067355D01*
X122127765Y-80067355D01*
X122042050Y-80038784D01*
X121984908Y-79981641D01*
X121956336Y-79924498D01*
X121927765Y-79810212D01*
X121927765Y-79724498D01*
X121956336Y-79610212D01*
X121984908Y-79553069D01*
X122042050Y-79495927D01*
X122127765Y-79467355D01*
X122184908Y-79467355D01*
X122270622Y-79495927D01*
X122299193Y-79524498D01*
X122870622Y-80067355D02*
X122527765Y-80067355D01*
X122699193Y-80067355D02*
X122699193Y-79467355D01*
X122642050Y-79553069D01*
X122584908Y-79610212D01*
X122527765Y-79638784D01*
X123384908Y-79667355D02*
X123384908Y-80067355D01*
X123242050Y-79438784D02*
X123099193Y-79867355D01*
X123470622Y-79867355D01*
%TO.C,U7*%
X125002858Y-99351427D02*
X125002858Y-99837141D01*
X125031429Y-99894284D01*
X125060001Y-99922856D01*
X125117143Y-99951427D01*
X125231429Y-99951427D01*
X125288572Y-99922856D01*
X125317143Y-99894284D01*
X125345715Y-99837141D01*
X125345715Y-99351427D01*
X125574286Y-99351427D02*
X125974286Y-99351427D01*
X125717143Y-99951427D01*
%TO.C,R19*%
X156566429Y-89220714D02*
X156280715Y-89420714D01*
X156566429Y-89563571D02*
X155966429Y-89563571D01*
X155966429Y-89335000D01*
X155995001Y-89277857D01*
X156023572Y-89249285D01*
X156080715Y-89220714D01*
X156166429Y-89220714D01*
X156223572Y-89249285D01*
X156252143Y-89277857D01*
X156280715Y-89335000D01*
X156280715Y-89563571D01*
X156566429Y-88649285D02*
X156566429Y-88992142D01*
X156566429Y-88820714D02*
X155966429Y-88820714D01*
X156052143Y-88877857D01*
X156109286Y-88935000D01*
X156137858Y-88992142D01*
X156566429Y-88363571D02*
X156566429Y-88249285D01*
X156537858Y-88192142D01*
X156509286Y-88163571D01*
X156423572Y-88106428D01*
X156309286Y-88077857D01*
X156080715Y-88077857D01*
X156023572Y-88106428D01*
X155995001Y-88135000D01*
X155966429Y-88192142D01*
X155966429Y-88306428D01*
X155995001Y-88363571D01*
X156023572Y-88392142D01*
X156080715Y-88420714D01*
X156223572Y-88420714D01*
X156280715Y-88392142D01*
X156309286Y-88363571D01*
X156337858Y-88306428D01*
X156337858Y-88192142D01*
X156309286Y-88135000D01*
X156280715Y-88106428D01*
X156223572Y-88077857D01*
%TO.C,C59*%
X120624285Y-92014285D02*
X120595714Y-92042857D01*
X120510000Y-92071428D01*
X120452857Y-92071428D01*
X120367142Y-92042857D01*
X120310000Y-91985714D01*
X120281428Y-91928571D01*
X120252857Y-91814285D01*
X120252857Y-91728571D01*
X120281428Y-91614285D01*
X120310000Y-91557142D01*
X120367142Y-91500000D01*
X120452857Y-91471428D01*
X120510000Y-91471428D01*
X120595714Y-91500000D01*
X120624285Y-91528571D01*
X121167142Y-91471428D02*
X120881428Y-91471428D01*
X120852857Y-91757142D01*
X120881428Y-91728571D01*
X120938571Y-91700000D01*
X121081428Y-91700000D01*
X121138571Y-91728571D01*
X121167142Y-91757142D01*
X121195714Y-91814285D01*
X121195714Y-91957142D01*
X121167142Y-92014285D01*
X121138571Y-92042857D01*
X121081428Y-92071428D01*
X120938571Y-92071428D01*
X120881428Y-92042857D01*
X120852857Y-92014285D01*
X121481428Y-92071428D02*
X121595714Y-92071428D01*
X121652857Y-92042857D01*
X121681428Y-92014285D01*
X121738571Y-91928571D01*
X121767142Y-91814285D01*
X121767142Y-91585714D01*
X121738571Y-91528571D01*
X121710000Y-91500000D01*
X121652857Y-91471428D01*
X121538571Y-91471428D01*
X121481428Y-91500000D01*
X121452857Y-91528571D01*
X121424285Y-91585714D01*
X121424285Y-91728571D01*
X121452857Y-91785714D01*
X121481428Y-91814285D01*
X121538571Y-91842857D01*
X121652857Y-91842857D01*
X121710000Y-91814285D01*
X121738571Y-91785714D01*
X121767142Y-91728571D01*
%TO.C,H3*%
X111342857Y-118771428D02*
X111342857Y-118171428D01*
X111342857Y-118457142D02*
X111685714Y-118457142D01*
X111685714Y-118771428D02*
X111685714Y-118171428D01*
X111914285Y-118171428D02*
X112285714Y-118171428D01*
X112085714Y-118400000D01*
X112171428Y-118400000D01*
X112228571Y-118428571D01*
X112257142Y-118457142D01*
X112285714Y-118514285D01*
X112285714Y-118657142D01*
X112257142Y-118714285D01*
X112228571Y-118742857D01*
X112171428Y-118771428D01*
X112000000Y-118771428D01*
X111942857Y-118742857D01*
X111914285Y-118714285D01*
%TO.C,C8*%
X126614285Y-82660000D02*
X126642857Y-82688571D01*
X126671428Y-82774285D01*
X126671428Y-82831428D01*
X126642857Y-82917142D01*
X126585714Y-82974285D01*
X126528571Y-83002857D01*
X126414285Y-83031428D01*
X126328571Y-83031428D01*
X126214285Y-83002857D01*
X126157142Y-82974285D01*
X126100000Y-82917142D01*
X126071428Y-82831428D01*
X126071428Y-82774285D01*
X126100000Y-82688571D01*
X126128571Y-82660000D01*
X126328571Y-82317142D02*
X126300000Y-82374285D01*
X126271428Y-82402857D01*
X126214285Y-82431428D01*
X126185714Y-82431428D01*
X126128571Y-82402857D01*
X126100000Y-82374285D01*
X126071428Y-82317142D01*
X126071428Y-82202857D01*
X126100000Y-82145714D01*
X126128571Y-82117142D01*
X126185714Y-82088571D01*
X126214285Y-82088571D01*
X126271428Y-82117142D01*
X126300000Y-82145714D01*
X126328571Y-82202857D01*
X126328571Y-82317142D01*
X126357142Y-82374285D01*
X126385714Y-82402857D01*
X126442857Y-82431428D01*
X126557142Y-82431428D01*
X126614285Y-82402857D01*
X126642857Y-82374285D01*
X126671428Y-82317142D01*
X126671428Y-82202857D01*
X126642857Y-82145714D01*
X126614285Y-82117142D01*
X126557142Y-82088571D01*
X126442857Y-82088571D01*
X126385714Y-82117142D01*
X126357142Y-82145714D01*
X126328571Y-82202857D01*
%TO.C,C43*%
X145094285Y-105575714D02*
X145122857Y-105604285D01*
X145151428Y-105690000D01*
X145151428Y-105747142D01*
X145122857Y-105832857D01*
X145065714Y-105890000D01*
X145008571Y-105918571D01*
X144894285Y-105947142D01*
X144808571Y-105947142D01*
X144694285Y-105918571D01*
X144637142Y-105890000D01*
X144580000Y-105832857D01*
X144551428Y-105747142D01*
X144551428Y-105690000D01*
X144580000Y-105604285D01*
X144608571Y-105575714D01*
X144751428Y-105061428D02*
X145151428Y-105061428D01*
X144522857Y-105204285D02*
X144951428Y-105347142D01*
X144951428Y-104975714D01*
X144551428Y-104804285D02*
X144551428Y-104432857D01*
X144780000Y-104632857D01*
X144780000Y-104547142D01*
X144808571Y-104490000D01*
X144837142Y-104461428D01*
X144894285Y-104432857D01*
X145037142Y-104432857D01*
X145094285Y-104461428D01*
X145122857Y-104490000D01*
X145151428Y-104547142D01*
X145151428Y-104718571D01*
X145122857Y-104775714D01*
X145094285Y-104804285D01*
%TO.C,R9*%
X134621428Y-87540000D02*
X134335714Y-87740000D01*
X134621428Y-87882857D02*
X134021428Y-87882857D01*
X134021428Y-87654285D01*
X134050000Y-87597142D01*
X134078571Y-87568571D01*
X134135714Y-87540000D01*
X134221428Y-87540000D01*
X134278571Y-87568571D01*
X134307142Y-87597142D01*
X134335714Y-87654285D01*
X134335714Y-87882857D01*
X134621428Y-87254285D02*
X134621428Y-87140000D01*
X134592857Y-87082857D01*
X134564285Y-87054285D01*
X134478571Y-86997142D01*
X134364285Y-86968571D01*
X134135714Y-86968571D01*
X134078571Y-86997142D01*
X134050000Y-87025714D01*
X134021428Y-87082857D01*
X134021428Y-87197142D01*
X134050000Y-87254285D01*
X134078571Y-87282857D01*
X134135714Y-87311428D01*
X134278571Y-87311428D01*
X134335714Y-87282857D01*
X134364285Y-87254285D01*
X134392857Y-87197142D01*
X134392857Y-87082857D01*
X134364285Y-87025714D01*
X134335714Y-86997142D01*
X134278571Y-86968571D01*
%TO.C,D1*%
X132587142Y-91411428D02*
X132587142Y-90811428D01*
X132730000Y-90811428D01*
X132815714Y-90840000D01*
X132872857Y-90897142D01*
X132901428Y-90954285D01*
X132930000Y-91068571D01*
X132930000Y-91154285D01*
X132901428Y-91268571D01*
X132872857Y-91325714D01*
X132815714Y-91382857D01*
X132730000Y-91411428D01*
X132587142Y-91411428D01*
X133501428Y-91411428D02*
X133158571Y-91411428D01*
X133330000Y-91411428D02*
X133330000Y-90811428D01*
X133272857Y-90897142D01*
X133215714Y-90954285D01*
X133158571Y-90982857D01*
%TO.C,C22*%
X136964285Y-97344285D02*
X136935714Y-97372857D01*
X136850000Y-97401428D01*
X136792857Y-97401428D01*
X136707142Y-97372857D01*
X136650000Y-97315714D01*
X136621428Y-97258571D01*
X136592857Y-97144285D01*
X136592857Y-97058571D01*
X136621428Y-96944285D01*
X136650000Y-96887142D01*
X136707142Y-96830000D01*
X136792857Y-96801428D01*
X136850000Y-96801428D01*
X136935714Y-96830000D01*
X136964285Y-96858571D01*
X137192857Y-96858571D02*
X137221428Y-96830000D01*
X137278571Y-96801428D01*
X137421428Y-96801428D01*
X137478571Y-96830000D01*
X137507142Y-96858571D01*
X137535714Y-96915714D01*
X137535714Y-96972857D01*
X137507142Y-97058571D01*
X137164285Y-97401428D01*
X137535714Y-97401428D01*
X137764285Y-96858571D02*
X137792857Y-96830000D01*
X137850000Y-96801428D01*
X137992857Y-96801428D01*
X138050000Y-96830000D01*
X138078571Y-96858571D01*
X138107142Y-96915714D01*
X138107142Y-96972857D01*
X138078571Y-97058571D01*
X137735714Y-97401428D01*
X138107142Y-97401428D01*
%TO.C,C19*%
X124234284Y-96605715D02*
X124262856Y-96634286D01*
X124291427Y-96720001D01*
X124291427Y-96777143D01*
X124262856Y-96862858D01*
X124205713Y-96920001D01*
X124148570Y-96948572D01*
X124034284Y-96977143D01*
X123948570Y-96977143D01*
X123834284Y-96948572D01*
X123777141Y-96920001D01*
X123719999Y-96862858D01*
X123691427Y-96777143D01*
X123691427Y-96720001D01*
X123719999Y-96634286D01*
X123748570Y-96605715D01*
X124291427Y-96034286D02*
X124291427Y-96377143D01*
X124291427Y-96205715D02*
X123691427Y-96205715D01*
X123777141Y-96262858D01*
X123834284Y-96320001D01*
X123862856Y-96377143D01*
X124291427Y-95748572D02*
X124291427Y-95634286D01*
X124262856Y-95577143D01*
X124234284Y-95548572D01*
X124148570Y-95491429D01*
X124034284Y-95462858D01*
X123805713Y-95462858D01*
X123748570Y-95491429D01*
X123719999Y-95520001D01*
X123691427Y-95577143D01*
X123691427Y-95691429D01*
X123719999Y-95748572D01*
X123748570Y-95777143D01*
X123805713Y-95805715D01*
X123948570Y-95805715D01*
X124005713Y-95777143D01*
X124034284Y-95748572D01*
X124062856Y-95691429D01*
X124062856Y-95577143D01*
X124034284Y-95520001D01*
X124005713Y-95491429D01*
X123948570Y-95462858D01*
%TO.C,LED3*%
X158933571Y-81761428D02*
X158647857Y-81761428D01*
X158647857Y-81161428D01*
X159133571Y-81447142D02*
X159333571Y-81447142D01*
X159419285Y-81761428D02*
X159133571Y-81761428D01*
X159133571Y-81161428D01*
X159419285Y-81161428D01*
X159676428Y-81761428D02*
X159676428Y-81161428D01*
X159819285Y-81161428D01*
X159905000Y-81190000D01*
X159962142Y-81247142D01*
X159990714Y-81304285D01*
X160019285Y-81418571D01*
X160019285Y-81504285D01*
X159990714Y-81618571D01*
X159962142Y-81675714D01*
X159905000Y-81732857D01*
X159819285Y-81761428D01*
X159676428Y-81761428D01*
X160219285Y-81161428D02*
X160590714Y-81161428D01*
X160390714Y-81390000D01*
X160476428Y-81390000D01*
X160533571Y-81418571D01*
X160562142Y-81447142D01*
X160590714Y-81504285D01*
X160590714Y-81647142D01*
X160562142Y-81704285D01*
X160533571Y-81732857D01*
X160476428Y-81761428D01*
X160305000Y-81761428D01*
X160247857Y-81732857D01*
X160219285Y-81704285D01*
%TO.C,C42*%
X153404284Y-85601785D02*
X153375713Y-85630357D01*
X153289999Y-85658928D01*
X153232856Y-85658928D01*
X153147141Y-85630357D01*
X153089999Y-85573214D01*
X153061427Y-85516071D01*
X153032856Y-85401785D01*
X153032856Y-85316071D01*
X153061427Y-85201785D01*
X153089999Y-85144642D01*
X153147141Y-85087500D01*
X153232856Y-85058928D01*
X153289999Y-85058928D01*
X153375713Y-85087500D01*
X153404284Y-85116071D01*
X153918570Y-85258928D02*
X153918570Y-85658928D01*
X153775713Y-85030357D02*
X153632856Y-85458928D01*
X154004284Y-85458928D01*
X154204284Y-85116071D02*
X154232856Y-85087500D01*
X154289999Y-85058928D01*
X154432856Y-85058928D01*
X154489999Y-85087500D01*
X154518570Y-85116071D01*
X154547141Y-85173214D01*
X154547141Y-85230357D01*
X154518570Y-85316071D01*
X154175713Y-85658928D01*
X154547141Y-85658928D01*
%TO.C,C37*%
X158444285Y-104230715D02*
X158472857Y-104259286D01*
X158501428Y-104345001D01*
X158501428Y-104402143D01*
X158472857Y-104487858D01*
X158415714Y-104545001D01*
X158358571Y-104573572D01*
X158244285Y-104602143D01*
X158158571Y-104602143D01*
X158044285Y-104573572D01*
X157987142Y-104545001D01*
X157930000Y-104487858D01*
X157901428Y-104402143D01*
X157901428Y-104345001D01*
X157930000Y-104259286D01*
X157958571Y-104230715D01*
X157901428Y-104030715D02*
X157901428Y-103659286D01*
X158130000Y-103859286D01*
X158130000Y-103773572D01*
X158158571Y-103716429D01*
X158187142Y-103687858D01*
X158244285Y-103659286D01*
X158387142Y-103659286D01*
X158444285Y-103687858D01*
X158472857Y-103716429D01*
X158501428Y-103773572D01*
X158501428Y-103945001D01*
X158472857Y-104002143D01*
X158444285Y-104030715D01*
X157901428Y-103459286D02*
X157901428Y-103059286D01*
X158501428Y-103316429D01*
%TO.C,LED4*%
X130648447Y-70961427D02*
X130362733Y-70961427D01*
X130362733Y-70361427D01*
X130848447Y-70647141D02*
X131048447Y-70647141D01*
X131134161Y-70961427D02*
X130848447Y-70961427D01*
X130848447Y-70361427D01*
X131134161Y-70361427D01*
X131391304Y-70961427D02*
X131391304Y-70361427D01*
X131534161Y-70361427D01*
X131619876Y-70389999D01*
X131677018Y-70447141D01*
X131705590Y-70504284D01*
X131734161Y-70618570D01*
X131734161Y-70704284D01*
X131705590Y-70818570D01*
X131677018Y-70875713D01*
X131619876Y-70932856D01*
X131534161Y-70961427D01*
X131391304Y-70961427D01*
X132248447Y-70561427D02*
X132248447Y-70961427D01*
X132105590Y-70332856D02*
X131962733Y-70761427D01*
X132334161Y-70761427D01*
%TO.C,R41*%
X141121626Y-109872213D02*
X140921626Y-109586499D01*
X140778769Y-109872213D02*
X140778769Y-109272213D01*
X141007341Y-109272213D01*
X141064483Y-109300785D01*
X141093055Y-109329356D01*
X141121626Y-109386499D01*
X141121626Y-109472213D01*
X141093055Y-109529356D01*
X141064483Y-109557927D01*
X141007341Y-109586499D01*
X140778769Y-109586499D01*
X141635912Y-109472213D02*
X141635912Y-109872213D01*
X141493055Y-109243642D02*
X141350198Y-109672213D01*
X141721626Y-109672213D01*
X142264483Y-109872213D02*
X141921626Y-109872213D01*
X142093055Y-109872213D02*
X142093055Y-109272213D01*
X142035912Y-109357927D01*
X141978769Y-109415070D01*
X141921626Y-109443642D01*
%TO.C,U1*%
X121491428Y-77077142D02*
X121977142Y-77077142D01*
X122034285Y-77048571D01*
X122062857Y-77020000D01*
X122091428Y-76962857D01*
X122091428Y-76848571D01*
X122062857Y-76791428D01*
X122034285Y-76762857D01*
X121977142Y-76734285D01*
X121491428Y-76734285D01*
X122091428Y-76134285D02*
X122091428Y-76477142D01*
X122091428Y-76305714D02*
X121491428Y-76305714D01*
X121577142Y-76362857D01*
X121634285Y-76420000D01*
X121662857Y-76477142D01*
%TO.C,R5*%
X143380000Y-87562466D02*
X143180000Y-87276752D01*
X143037142Y-87562466D02*
X143037142Y-86962466D01*
X143265714Y-86962466D01*
X143322857Y-86991038D01*
X143351428Y-87019609D01*
X143380000Y-87076752D01*
X143380000Y-87162466D01*
X143351428Y-87219609D01*
X143322857Y-87248180D01*
X143265714Y-87276752D01*
X143037142Y-87276752D01*
X143922857Y-86962466D02*
X143637142Y-86962466D01*
X143608571Y-87248180D01*
X143637142Y-87219609D01*
X143694285Y-87191038D01*
X143837142Y-87191038D01*
X143894285Y-87219609D01*
X143922857Y-87248180D01*
X143951428Y-87305323D01*
X143951428Y-87448180D01*
X143922857Y-87505323D01*
X143894285Y-87533895D01*
X143837142Y-87562466D01*
X143694285Y-87562466D01*
X143637142Y-87533895D01*
X143608571Y-87505323D01*
%TO.C,R7*%
X133053248Y-94077640D02*
X132709796Y-94017031D01*
X132810811Y-94320077D02*
X132386547Y-93895813D01*
X132548172Y-93734188D01*
X132608781Y-93713985D01*
X132649187Y-93713985D01*
X132709796Y-93734188D01*
X132770405Y-93794797D01*
X132790608Y-93855407D01*
X132790608Y-93895813D01*
X132770405Y-93956422D01*
X132608781Y-94118046D01*
X132770405Y-93511955D02*
X133053248Y-93229112D01*
X133295684Y-93835204D01*
%TO.C,L1*%
X118034999Y-76286429D02*
X117749284Y-76286429D01*
X117749284Y-75686429D01*
X118549284Y-76286429D02*
X118206427Y-76286429D01*
X118377856Y-76286429D02*
X118377856Y-75686429D01*
X118320713Y-75772143D01*
X118263570Y-75829286D01*
X118206427Y-75857858D01*
%TO.C,C36*%
X149494285Y-104043215D02*
X149522857Y-104071786D01*
X149551428Y-104157501D01*
X149551428Y-104214643D01*
X149522857Y-104300358D01*
X149465714Y-104357501D01*
X149408571Y-104386072D01*
X149294285Y-104414643D01*
X149208571Y-104414643D01*
X149094285Y-104386072D01*
X149037142Y-104357501D01*
X148980000Y-104300358D01*
X148951428Y-104214643D01*
X148951428Y-104157501D01*
X148980000Y-104071786D01*
X149008571Y-104043215D01*
X148951428Y-103843215D02*
X148951428Y-103471786D01*
X149180000Y-103671786D01*
X149180000Y-103586072D01*
X149208571Y-103528929D01*
X149237142Y-103500358D01*
X149294285Y-103471786D01*
X149437142Y-103471786D01*
X149494285Y-103500358D01*
X149522857Y-103528929D01*
X149551428Y-103586072D01*
X149551428Y-103757501D01*
X149522857Y-103814643D01*
X149494285Y-103843215D01*
X148951428Y-102957501D02*
X148951428Y-103071786D01*
X148980000Y-103128929D01*
X149008571Y-103157501D01*
X149094285Y-103214643D01*
X149208571Y-103243215D01*
X149437142Y-103243215D01*
X149494285Y-103214643D01*
X149522857Y-103186072D01*
X149551428Y-103128929D01*
X149551428Y-103014643D01*
X149522857Y-102957501D01*
X149494285Y-102928929D01*
X149437142Y-102900358D01*
X149294285Y-102900358D01*
X149237142Y-102928929D01*
X149208571Y-102957501D01*
X149180000Y-103014643D01*
X149180000Y-103128929D01*
X149208571Y-103186072D01*
X149237142Y-103214643D01*
X149294285Y-103243215D01*
%TO.C,R45*%
X141091627Y-111108878D02*
X140891627Y-110823164D01*
X140748770Y-111108878D02*
X140748770Y-110508878D01*
X140977342Y-110508878D01*
X141034484Y-110537450D01*
X141063056Y-110566021D01*
X141091627Y-110623164D01*
X141091627Y-110708878D01*
X141063056Y-110766021D01*
X141034484Y-110794592D01*
X140977342Y-110823164D01*
X140748770Y-110823164D01*
X141605913Y-110708878D02*
X141605913Y-111108878D01*
X141463056Y-110480307D02*
X141320199Y-110908878D01*
X141691627Y-110908878D01*
X142205913Y-110508878D02*
X141920199Y-110508878D01*
X141891627Y-110794592D01*
X141920199Y-110766021D01*
X141977342Y-110737450D01*
X142120199Y-110737450D01*
X142177342Y-110766021D01*
X142205913Y-110794592D01*
X142234484Y-110851735D01*
X142234484Y-110994592D01*
X142205913Y-111051735D01*
X142177342Y-111080307D01*
X142120199Y-111108878D01*
X141977342Y-111108878D01*
X141920199Y-111080307D01*
X141891627Y-111051735D01*
%TO.C,U10*%
X122061428Y-95122857D02*
X122547142Y-95122857D01*
X122604285Y-95094285D01*
X122632857Y-95065714D01*
X122661428Y-95008571D01*
X122661428Y-94894285D01*
X122632857Y-94837142D01*
X122604285Y-94808571D01*
X122547142Y-94780000D01*
X122061428Y-94780000D01*
X122661428Y-94180000D02*
X122661428Y-94522857D01*
X122661428Y-94351428D02*
X122061428Y-94351428D01*
X122147142Y-94408571D01*
X122204285Y-94465714D01*
X122232857Y-94522857D01*
X122061428Y-93808571D02*
X122061428Y-93751428D01*
X122090000Y-93694285D01*
X122118571Y-93665714D01*
X122175714Y-93637142D01*
X122290000Y-93608571D01*
X122432857Y-93608571D01*
X122547142Y-93637142D01*
X122604285Y-93665714D01*
X122632857Y-93694285D01*
X122661428Y-93751428D01*
X122661428Y-93808571D01*
X122632857Y-93865714D01*
X122604285Y-93894285D01*
X122547142Y-93922857D01*
X122432857Y-93951428D01*
X122290000Y-93951428D01*
X122175714Y-93922857D01*
X122118571Y-93894285D01*
X122090000Y-93865714D01*
X122061428Y-93808571D01*
%TO.C,C33*%
X140394285Y-80756785D02*
X140365714Y-80785357D01*
X140280000Y-80813928D01*
X140222857Y-80813928D01*
X140137142Y-80785357D01*
X140080000Y-80728214D01*
X140051428Y-80671071D01*
X140022857Y-80556785D01*
X140022857Y-80471071D01*
X140051428Y-80356785D01*
X140080000Y-80299642D01*
X140137142Y-80242500D01*
X140222857Y-80213928D01*
X140280000Y-80213928D01*
X140365714Y-80242500D01*
X140394285Y-80271071D01*
X140594285Y-80213928D02*
X140965714Y-80213928D01*
X140765714Y-80442500D01*
X140851428Y-80442500D01*
X140908571Y-80471071D01*
X140937142Y-80499642D01*
X140965714Y-80556785D01*
X140965714Y-80699642D01*
X140937142Y-80756785D01*
X140908571Y-80785357D01*
X140851428Y-80813928D01*
X140680000Y-80813928D01*
X140622857Y-80785357D01*
X140594285Y-80756785D01*
X141165714Y-80213928D02*
X141537142Y-80213928D01*
X141337142Y-80442500D01*
X141422857Y-80442500D01*
X141480000Y-80471071D01*
X141508571Y-80499642D01*
X141537142Y-80556785D01*
X141537142Y-80699642D01*
X141508571Y-80756785D01*
X141480000Y-80785357D01*
X141422857Y-80813928D01*
X141251428Y-80813928D01*
X141194285Y-80785357D01*
X141165714Y-80756785D01*
%TO.C,R40*%
X155364286Y-77746428D02*
X155164286Y-77460714D01*
X155021429Y-77746428D02*
X155021429Y-77146428D01*
X155250001Y-77146428D01*
X155307143Y-77175000D01*
X155335715Y-77203571D01*
X155364286Y-77260714D01*
X155364286Y-77346428D01*
X155335715Y-77403571D01*
X155307143Y-77432142D01*
X155250001Y-77460714D01*
X155021429Y-77460714D01*
X155878572Y-77346428D02*
X155878572Y-77746428D01*
X155735715Y-77117857D02*
X155592858Y-77546428D01*
X155964286Y-77546428D01*
X156307143Y-77146428D02*
X156364286Y-77146428D01*
X156421429Y-77175000D01*
X156450001Y-77203571D01*
X156478572Y-77260714D01*
X156507143Y-77375000D01*
X156507143Y-77517857D01*
X156478572Y-77632142D01*
X156450001Y-77689285D01*
X156421429Y-77717857D01*
X156364286Y-77746428D01*
X156307143Y-77746428D01*
X156250001Y-77717857D01*
X156221429Y-77689285D01*
X156192858Y-77632142D01*
X156164286Y-77517857D01*
X156164286Y-77375000D01*
X156192858Y-77260714D01*
X156221429Y-77203571D01*
X156250001Y-77175000D01*
X156307143Y-77146428D01*
%TO.C,R37*%
X116214285Y-108371428D02*
X116014285Y-108085714D01*
X115871428Y-108371428D02*
X115871428Y-107771428D01*
X116100000Y-107771428D01*
X116157142Y-107800000D01*
X116185714Y-107828571D01*
X116214285Y-107885714D01*
X116214285Y-107971428D01*
X116185714Y-108028571D01*
X116157142Y-108057142D01*
X116100000Y-108085714D01*
X115871428Y-108085714D01*
X116414285Y-107771428D02*
X116785714Y-107771428D01*
X116585714Y-108000000D01*
X116671428Y-108000000D01*
X116728571Y-108028571D01*
X116757142Y-108057142D01*
X116785714Y-108114285D01*
X116785714Y-108257142D01*
X116757142Y-108314285D01*
X116728571Y-108342857D01*
X116671428Y-108371428D01*
X116500000Y-108371428D01*
X116442857Y-108342857D01*
X116414285Y-108314285D01*
X116985714Y-107771428D02*
X117385714Y-107771428D01*
X117128571Y-108371428D01*
%TO.C,R36*%
X140214285Y-108271428D02*
X140014285Y-107985714D01*
X139871428Y-108271428D02*
X139871428Y-107671428D01*
X140100000Y-107671428D01*
X140157142Y-107700000D01*
X140185714Y-107728571D01*
X140214285Y-107785714D01*
X140214285Y-107871428D01*
X140185714Y-107928571D01*
X140157142Y-107957142D01*
X140100000Y-107985714D01*
X139871428Y-107985714D01*
X140414285Y-107671428D02*
X140785714Y-107671428D01*
X140585714Y-107900000D01*
X140671428Y-107900000D01*
X140728571Y-107928571D01*
X140757142Y-107957142D01*
X140785714Y-108014285D01*
X140785714Y-108157142D01*
X140757142Y-108214285D01*
X140728571Y-108242857D01*
X140671428Y-108271428D01*
X140500000Y-108271428D01*
X140442857Y-108242857D01*
X140414285Y-108214285D01*
X141300000Y-107671428D02*
X141185714Y-107671428D01*
X141128571Y-107700000D01*
X141100000Y-107728571D01*
X141042857Y-107814285D01*
X141014285Y-107928571D01*
X141014285Y-108157142D01*
X141042857Y-108214285D01*
X141071428Y-108242857D01*
X141128571Y-108271428D01*
X141242857Y-108271428D01*
X141300000Y-108242857D01*
X141328571Y-108214285D01*
X141357142Y-108157142D01*
X141357142Y-108014285D01*
X141328571Y-107957142D01*
X141300000Y-107928571D01*
X141242857Y-107900000D01*
X141128571Y-107900000D01*
X141071428Y-107928571D01*
X141042857Y-107957142D01*
X141014285Y-108014285D01*
%TO.C,C1*%
X130705591Y-72344285D02*
X130677019Y-72372857D01*
X130591305Y-72401428D01*
X130534162Y-72401428D01*
X130448448Y-72372857D01*
X130391305Y-72315714D01*
X130362733Y-72258571D01*
X130334162Y-72144285D01*
X130334162Y-72058571D01*
X130362733Y-71944285D01*
X130391305Y-71887142D01*
X130448448Y-71830000D01*
X130534162Y-71801428D01*
X130591305Y-71801428D01*
X130677019Y-71830000D01*
X130705591Y-71858571D01*
X131277019Y-72401428D02*
X130934162Y-72401428D01*
X131105591Y-72401428D02*
X131105591Y-71801428D01*
X131048448Y-71887142D01*
X130991305Y-71944285D01*
X130934162Y-71972857D01*
%TO.C,R42*%
X145976943Y-108907311D02*
X145776943Y-108621597D01*
X145634086Y-108907311D02*
X145634086Y-108307311D01*
X145862658Y-108307311D01*
X145919800Y-108335883D01*
X145948372Y-108364454D01*
X145976943Y-108421597D01*
X145976943Y-108507311D01*
X145948372Y-108564454D01*
X145919800Y-108593025D01*
X145862658Y-108621597D01*
X145634086Y-108621597D01*
X146491229Y-108507311D02*
X146491229Y-108907311D01*
X146348372Y-108278740D02*
X146205515Y-108707311D01*
X146576943Y-108707311D01*
X146776943Y-108364454D02*
X146805515Y-108335883D01*
X146862658Y-108307311D01*
X147005515Y-108307311D01*
X147062658Y-108335883D01*
X147091229Y-108364454D01*
X147119800Y-108421597D01*
X147119800Y-108478740D01*
X147091229Y-108564454D01*
X146748372Y-108907311D01*
X147119800Y-108907311D01*
%TO.C,R11*%
X137426428Y-91623214D02*
X137140714Y-91823214D01*
X137426428Y-91966071D02*
X136826428Y-91966071D01*
X136826428Y-91737500D01*
X136855000Y-91680357D01*
X136883571Y-91651785D01*
X136940714Y-91623214D01*
X137026428Y-91623214D01*
X137083571Y-91651785D01*
X137112142Y-91680357D01*
X137140714Y-91737500D01*
X137140714Y-91966071D01*
X137426428Y-91051785D02*
X137426428Y-91394642D01*
X137426428Y-91223214D02*
X136826428Y-91223214D01*
X136912142Y-91280357D01*
X136969285Y-91337500D01*
X136997857Y-91394642D01*
X137426428Y-90480357D02*
X137426428Y-90823214D01*
X137426428Y-90651785D02*
X136826428Y-90651785D01*
X136912142Y-90708928D01*
X136969285Y-90766071D01*
X136997857Y-90823214D01*
%TO.C,C39*%
X140214285Y-102914285D02*
X140185714Y-102942857D01*
X140100000Y-102971428D01*
X140042857Y-102971428D01*
X139957142Y-102942857D01*
X139900000Y-102885714D01*
X139871428Y-102828571D01*
X139842857Y-102714285D01*
X139842857Y-102628571D01*
X139871428Y-102514285D01*
X139900000Y-102457142D01*
X139957142Y-102400000D01*
X140042857Y-102371428D01*
X140100000Y-102371428D01*
X140185714Y-102400000D01*
X140214285Y-102428571D01*
X140414285Y-102371428D02*
X140785714Y-102371428D01*
X140585714Y-102600000D01*
X140671428Y-102600000D01*
X140728571Y-102628571D01*
X140757142Y-102657142D01*
X140785714Y-102714285D01*
X140785714Y-102857142D01*
X140757142Y-102914285D01*
X140728571Y-102942857D01*
X140671428Y-102971428D01*
X140500000Y-102971428D01*
X140442857Y-102942857D01*
X140414285Y-102914285D01*
X141071428Y-102971428D02*
X141185714Y-102971428D01*
X141242857Y-102942857D01*
X141271428Y-102914285D01*
X141328571Y-102828571D01*
X141357142Y-102714285D01*
X141357142Y-102485714D01*
X141328571Y-102428571D01*
X141300000Y-102400000D01*
X141242857Y-102371428D01*
X141128571Y-102371428D01*
X141071428Y-102400000D01*
X141042857Y-102428571D01*
X141014285Y-102485714D01*
X141014285Y-102628571D01*
X141042857Y-102685714D01*
X141071428Y-102714285D01*
X141128571Y-102742857D01*
X141242857Y-102742857D01*
X141300000Y-102714285D01*
X141328571Y-102685714D01*
X141357142Y-102628571D01*
%TO.C,U2*%
X130671428Y-82707142D02*
X131157142Y-82707142D01*
X131214285Y-82678571D01*
X131242857Y-82650000D01*
X131271428Y-82592857D01*
X131271428Y-82478571D01*
X131242857Y-82421428D01*
X131214285Y-82392857D01*
X131157142Y-82364285D01*
X130671428Y-82364285D01*
X130728571Y-82107142D02*
X130700000Y-82078571D01*
X130671428Y-82021428D01*
X130671428Y-81878571D01*
X130700000Y-81821428D01*
X130728571Y-81792857D01*
X130785714Y-81764285D01*
X130842857Y-81764285D01*
X130928571Y-81792857D01*
X131271428Y-82135714D01*
X131271428Y-81764285D01*
%TO.C,C6*%
X124604285Y-82660000D02*
X124632857Y-82688571D01*
X124661428Y-82774285D01*
X124661428Y-82831428D01*
X124632857Y-82917142D01*
X124575714Y-82974285D01*
X124518571Y-83002857D01*
X124404285Y-83031428D01*
X124318571Y-83031428D01*
X124204285Y-83002857D01*
X124147142Y-82974285D01*
X124090000Y-82917142D01*
X124061428Y-82831428D01*
X124061428Y-82774285D01*
X124090000Y-82688571D01*
X124118571Y-82660000D01*
X124061428Y-82145714D02*
X124061428Y-82260000D01*
X124090000Y-82317142D01*
X124118571Y-82345714D01*
X124204285Y-82402857D01*
X124318571Y-82431428D01*
X124547142Y-82431428D01*
X124604285Y-82402857D01*
X124632857Y-82374285D01*
X124661428Y-82317142D01*
X124661428Y-82202857D01*
X124632857Y-82145714D01*
X124604285Y-82117142D01*
X124547142Y-82088571D01*
X124404285Y-82088571D01*
X124347142Y-82117142D01*
X124318571Y-82145714D01*
X124290000Y-82202857D01*
X124290000Y-82317142D01*
X124318571Y-82374285D01*
X124347142Y-82402857D01*
X124404285Y-82431428D01*
%TO.C,LED2*%
X158933571Y-74879860D02*
X158647857Y-74879860D01*
X158647857Y-74279860D01*
X159133571Y-74565574D02*
X159333571Y-74565574D01*
X159419285Y-74879860D02*
X159133571Y-74879860D01*
X159133571Y-74279860D01*
X159419285Y-74279860D01*
X159676428Y-74879860D02*
X159676428Y-74279860D01*
X159819285Y-74279860D01*
X159905000Y-74308432D01*
X159962142Y-74365574D01*
X159990714Y-74422717D01*
X160019285Y-74537003D01*
X160019285Y-74622717D01*
X159990714Y-74737003D01*
X159962142Y-74794146D01*
X159905000Y-74851289D01*
X159819285Y-74879860D01*
X159676428Y-74879860D01*
X160247857Y-74337003D02*
X160276428Y-74308432D01*
X160333571Y-74279860D01*
X160476428Y-74279860D01*
X160533571Y-74308432D01*
X160562142Y-74337003D01*
X160590714Y-74394146D01*
X160590714Y-74451289D01*
X160562142Y-74537003D01*
X160219285Y-74879860D01*
X160590714Y-74879860D01*
%TO.C,R30*%
X145551428Y-88233213D02*
X145265714Y-88433213D01*
X145551428Y-88576070D02*
X144951428Y-88576070D01*
X144951428Y-88347499D01*
X144980000Y-88290356D01*
X145008571Y-88261784D01*
X145065714Y-88233213D01*
X145151428Y-88233213D01*
X145208571Y-88261784D01*
X145237142Y-88290356D01*
X145265714Y-88347499D01*
X145265714Y-88576070D01*
X144951428Y-88033213D02*
X144951428Y-87661784D01*
X145180000Y-87861784D01*
X145180000Y-87776070D01*
X145208571Y-87718927D01*
X145237142Y-87690356D01*
X145294285Y-87661784D01*
X145437142Y-87661784D01*
X145494285Y-87690356D01*
X145522857Y-87718927D01*
X145551428Y-87776070D01*
X145551428Y-87947499D01*
X145522857Y-88004641D01*
X145494285Y-88033213D01*
X144951428Y-87290356D02*
X144951428Y-87233213D01*
X144980000Y-87176070D01*
X145008571Y-87147499D01*
X145065714Y-87118927D01*
X145180000Y-87090356D01*
X145322857Y-87090356D01*
X145437142Y-87118927D01*
X145494285Y-87147499D01*
X145522857Y-87176070D01*
X145551428Y-87233213D01*
X145551428Y-87290356D01*
X145522857Y-87347499D01*
X145494285Y-87376070D01*
X145437142Y-87404641D01*
X145322857Y-87433213D01*
X145180000Y-87433213D01*
X145065714Y-87404641D01*
X145008571Y-87376070D01*
X144980000Y-87347499D01*
X144951428Y-87290356D01*
%TO.C,U3*%
X142767858Y-91818639D02*
X142767858Y-92304353D01*
X142796429Y-92361496D01*
X142825001Y-92390068D01*
X142882143Y-92418639D01*
X142996429Y-92418639D01*
X143053572Y-92390068D01*
X143082143Y-92361496D01*
X143110715Y-92304353D01*
X143110715Y-91818639D01*
X143339286Y-91818639D02*
X143710715Y-91818639D01*
X143510715Y-92047211D01*
X143596429Y-92047211D01*
X143653572Y-92075782D01*
X143682143Y-92104353D01*
X143710715Y-92161496D01*
X143710715Y-92304353D01*
X143682143Y-92361496D01*
X143653572Y-92390068D01*
X143596429Y-92418639D01*
X143425001Y-92418639D01*
X143367858Y-92390068D01*
X143339286Y-92361496D01*
%TO.C,C46*%
X143014285Y-100285714D02*
X143042857Y-100314285D01*
X143071428Y-100400000D01*
X143071428Y-100457142D01*
X143042857Y-100542857D01*
X142985714Y-100600000D01*
X142928571Y-100628571D01*
X142814285Y-100657142D01*
X142728571Y-100657142D01*
X142614285Y-100628571D01*
X142557142Y-100600000D01*
X142500000Y-100542857D01*
X142471428Y-100457142D01*
X142471428Y-100400000D01*
X142500000Y-100314285D01*
X142528571Y-100285714D01*
X142671428Y-99771428D02*
X143071428Y-99771428D01*
X142442857Y-99914285D02*
X142871428Y-100057142D01*
X142871428Y-99685714D01*
X142471428Y-99200000D02*
X142471428Y-99314285D01*
X142500000Y-99371428D01*
X142528571Y-99400000D01*
X142614285Y-99457142D01*
X142728571Y-99485714D01*
X142957142Y-99485714D01*
X143014285Y-99457142D01*
X143042857Y-99428571D01*
X143071428Y-99371428D01*
X143071428Y-99257142D01*
X143042857Y-99200000D01*
X143014285Y-99171428D01*
X142957142Y-99142857D01*
X142814285Y-99142857D01*
X142757142Y-99171428D01*
X142728571Y-99200000D01*
X142700000Y-99257142D01*
X142700000Y-99371428D01*
X142728571Y-99428571D01*
X142757142Y-99457142D01*
X142814285Y-99485714D01*
%TO.C,R8*%
X132701428Y-85840000D02*
X132415714Y-86040000D01*
X132701428Y-86182857D02*
X132101428Y-86182857D01*
X132101428Y-85954285D01*
X132130000Y-85897142D01*
X132158571Y-85868571D01*
X132215714Y-85840000D01*
X132301428Y-85840000D01*
X132358571Y-85868571D01*
X132387142Y-85897142D01*
X132415714Y-85954285D01*
X132415714Y-86182857D01*
X132358571Y-85497142D02*
X132330000Y-85554285D01*
X132301428Y-85582857D01*
X132244285Y-85611428D01*
X132215714Y-85611428D01*
X132158571Y-85582857D01*
X132130000Y-85554285D01*
X132101428Y-85497142D01*
X132101428Y-85382857D01*
X132130000Y-85325714D01*
X132158571Y-85297142D01*
X132215714Y-85268571D01*
X132244285Y-85268571D01*
X132301428Y-85297142D01*
X132330000Y-85325714D01*
X132358571Y-85382857D01*
X132358571Y-85497142D01*
X132387142Y-85554285D01*
X132415714Y-85582857D01*
X132472857Y-85611428D01*
X132587142Y-85611428D01*
X132644285Y-85582857D01*
X132672857Y-85554285D01*
X132701428Y-85497142D01*
X132701428Y-85382857D01*
X132672857Y-85325714D01*
X132644285Y-85297142D01*
X132587142Y-85268571D01*
X132472857Y-85268571D01*
X132415714Y-85297142D01*
X132387142Y-85325714D01*
X132358571Y-85382857D01*
%TO.C,R33*%
X155364286Y-76681428D02*
X155164286Y-76395714D01*
X155021429Y-76681428D02*
X155021429Y-76081428D01*
X155250001Y-76081428D01*
X155307143Y-76110000D01*
X155335715Y-76138571D01*
X155364286Y-76195714D01*
X155364286Y-76281428D01*
X155335715Y-76338571D01*
X155307143Y-76367142D01*
X155250001Y-76395714D01*
X155021429Y-76395714D01*
X155564286Y-76081428D02*
X155935715Y-76081428D01*
X155735715Y-76310000D01*
X155821429Y-76310000D01*
X155878572Y-76338571D01*
X155907143Y-76367142D01*
X155935715Y-76424285D01*
X155935715Y-76567142D01*
X155907143Y-76624285D01*
X155878572Y-76652857D01*
X155821429Y-76681428D01*
X155650001Y-76681428D01*
X155592858Y-76652857D01*
X155564286Y-76624285D01*
X156135715Y-76081428D02*
X156507143Y-76081428D01*
X156307143Y-76310000D01*
X156392858Y-76310000D01*
X156450001Y-76338571D01*
X156478572Y-76367142D01*
X156507143Y-76424285D01*
X156507143Y-76567142D01*
X156478572Y-76624285D01*
X156450001Y-76652857D01*
X156392858Y-76681428D01*
X156221429Y-76681428D01*
X156164286Y-76652857D01*
X156135715Y-76624285D01*
%TO.C,H2*%
X158242857Y-118811428D02*
X158242857Y-118211428D01*
X158242857Y-118497142D02*
X158585714Y-118497142D01*
X158585714Y-118811428D02*
X158585714Y-118211428D01*
X158842857Y-118268571D02*
X158871428Y-118240000D01*
X158928571Y-118211428D01*
X159071428Y-118211428D01*
X159128571Y-118240000D01*
X159157142Y-118268571D01*
X159185714Y-118325714D01*
X159185714Y-118382857D01*
X159157142Y-118468571D01*
X158814285Y-118811428D01*
X159185714Y-118811428D01*
%TO.C,C16*%
X138384285Y-91615714D02*
X138412857Y-91644285D01*
X138441428Y-91730000D01*
X138441428Y-91787142D01*
X138412857Y-91872857D01*
X138355714Y-91930000D01*
X138298571Y-91958571D01*
X138184285Y-91987142D01*
X138098571Y-91987142D01*
X137984285Y-91958571D01*
X137927142Y-91930000D01*
X137870000Y-91872857D01*
X137841428Y-91787142D01*
X137841428Y-91730000D01*
X137870000Y-91644285D01*
X137898571Y-91615714D01*
X138441428Y-91044285D02*
X138441428Y-91387142D01*
X138441428Y-91215714D02*
X137841428Y-91215714D01*
X137927142Y-91272857D01*
X137984285Y-91330000D01*
X138012857Y-91387142D01*
X137841428Y-90530000D02*
X137841428Y-90644285D01*
X137870000Y-90701428D01*
X137898571Y-90730000D01*
X137984285Y-90787142D01*
X138098571Y-90815714D01*
X138327142Y-90815714D01*
X138384285Y-90787142D01*
X138412857Y-90758571D01*
X138441428Y-90701428D01*
X138441428Y-90587142D01*
X138412857Y-90530000D01*
X138384285Y-90501428D01*
X138327142Y-90472857D01*
X138184285Y-90472857D01*
X138127142Y-90501428D01*
X138098571Y-90530000D01*
X138070000Y-90587142D01*
X138070000Y-90701428D01*
X138098571Y-90758571D01*
X138127142Y-90787142D01*
X138184285Y-90815714D01*
%TO.C,C17*%
X133654285Y-84025714D02*
X133682857Y-84054285D01*
X133711428Y-84140000D01*
X133711428Y-84197142D01*
X133682857Y-84282857D01*
X133625714Y-84340000D01*
X133568571Y-84368571D01*
X133454285Y-84397142D01*
X133368571Y-84397142D01*
X133254285Y-84368571D01*
X133197142Y-84340000D01*
X133140000Y-84282857D01*
X133111428Y-84197142D01*
X133111428Y-84140000D01*
X133140000Y-84054285D01*
X133168571Y-84025714D01*
X133711428Y-83454285D02*
X133711428Y-83797142D01*
X133711428Y-83625714D02*
X133111428Y-83625714D01*
X133197142Y-83682857D01*
X133254285Y-83740000D01*
X133282857Y-83797142D01*
X133111428Y-83254285D02*
X133111428Y-82854285D01*
X133711428Y-83111428D01*
%TO.C,R34*%
X155364287Y-79971428D02*
X155164287Y-79685714D01*
X155021430Y-79971428D02*
X155021430Y-79371428D01*
X155250002Y-79371428D01*
X155307144Y-79400000D01*
X155335716Y-79428571D01*
X155364287Y-79485714D01*
X155364287Y-79571428D01*
X155335716Y-79628571D01*
X155307144Y-79657142D01*
X155250002Y-79685714D01*
X155021430Y-79685714D01*
X155564287Y-79371428D02*
X155935716Y-79371428D01*
X155735716Y-79600000D01*
X155821430Y-79600000D01*
X155878573Y-79628571D01*
X155907144Y-79657142D01*
X155935716Y-79714285D01*
X155935716Y-79857142D01*
X155907144Y-79914285D01*
X155878573Y-79942857D01*
X155821430Y-79971428D01*
X155650002Y-79971428D01*
X155592859Y-79942857D01*
X155564287Y-79914285D01*
X156450002Y-79571428D02*
X156450002Y-79971428D01*
X156307144Y-79342857D02*
X156164287Y-79771428D01*
X156535716Y-79771428D01*
%TO.C,C53*%
X122474282Y-112954283D02*
X122445711Y-112982855D01*
X122359997Y-113011426D01*
X122302854Y-113011426D01*
X122217139Y-112982855D01*
X122159997Y-112925712D01*
X122131425Y-112868569D01*
X122102854Y-112754283D01*
X122102854Y-112668569D01*
X122131425Y-112554283D01*
X122159997Y-112497140D01*
X122217139Y-112439998D01*
X122302854Y-112411426D01*
X122359997Y-112411426D01*
X122445711Y-112439998D01*
X122474282Y-112468569D01*
X123017139Y-112411426D02*
X122731425Y-112411426D01*
X122702854Y-112697140D01*
X122731425Y-112668569D01*
X122788568Y-112639998D01*
X122931425Y-112639998D01*
X122988568Y-112668569D01*
X123017139Y-112697140D01*
X123045711Y-112754283D01*
X123045711Y-112897140D01*
X123017139Y-112954283D01*
X122988568Y-112982855D01*
X122931425Y-113011426D01*
X122788568Y-113011426D01*
X122731425Y-112982855D01*
X122702854Y-112954283D01*
X123245711Y-112411426D02*
X123617139Y-112411426D01*
X123417139Y-112639998D01*
X123502854Y-112639998D01*
X123559997Y-112668569D01*
X123588568Y-112697140D01*
X123617139Y-112754283D01*
X123617139Y-112897140D01*
X123588568Y-112954283D01*
X123559997Y-112982855D01*
X123502854Y-113011426D01*
X123331425Y-113011426D01*
X123274282Y-112982855D01*
X123245711Y-112954283D01*
%TO.C,R10*%
X140275713Y-88531428D02*
X140075713Y-88245714D01*
X139932856Y-88531428D02*
X139932856Y-87931428D01*
X140161428Y-87931428D01*
X140218570Y-87960000D01*
X140247142Y-87988571D01*
X140275713Y-88045714D01*
X140275713Y-88131428D01*
X140247142Y-88188571D01*
X140218570Y-88217142D01*
X140161428Y-88245714D01*
X139932856Y-88245714D01*
X140847142Y-88531428D02*
X140504285Y-88531428D01*
X140675713Y-88531428D02*
X140675713Y-87931428D01*
X140618570Y-88017142D01*
X140561428Y-88074285D01*
X140504285Y-88102857D01*
X141218570Y-87931428D02*
X141275713Y-87931428D01*
X141332856Y-87960000D01*
X141361428Y-87988571D01*
X141389999Y-88045714D01*
X141418570Y-88160000D01*
X141418570Y-88302857D01*
X141389999Y-88417142D01*
X141361428Y-88474285D01*
X141332856Y-88502857D01*
X141275713Y-88531428D01*
X141218570Y-88531428D01*
X141161428Y-88502857D01*
X141132856Y-88474285D01*
X141104285Y-88417142D01*
X141075713Y-88302857D01*
X141075713Y-88160000D01*
X141104285Y-88045714D01*
X141132856Y-87988571D01*
X141161428Y-87960000D01*
X141218570Y-87931428D01*
%TO.C,C26*%
X140394285Y-78556785D02*
X140365714Y-78585357D01*
X140280000Y-78613928D01*
X140222857Y-78613928D01*
X140137142Y-78585357D01*
X140080000Y-78528214D01*
X140051428Y-78471071D01*
X140022857Y-78356785D01*
X140022857Y-78271071D01*
X140051428Y-78156785D01*
X140080000Y-78099642D01*
X140137142Y-78042500D01*
X140222857Y-78013928D01*
X140280000Y-78013928D01*
X140365714Y-78042500D01*
X140394285Y-78071071D01*
X140622857Y-78071071D02*
X140651428Y-78042500D01*
X140708571Y-78013928D01*
X140851428Y-78013928D01*
X140908571Y-78042500D01*
X140937142Y-78071071D01*
X140965714Y-78128214D01*
X140965714Y-78185357D01*
X140937142Y-78271071D01*
X140594285Y-78613928D01*
X140965714Y-78613928D01*
X141480000Y-78013928D02*
X141365714Y-78013928D01*
X141308571Y-78042500D01*
X141280000Y-78071071D01*
X141222857Y-78156785D01*
X141194285Y-78271071D01*
X141194285Y-78499642D01*
X141222857Y-78556785D01*
X141251428Y-78585357D01*
X141308571Y-78613928D01*
X141422857Y-78613928D01*
X141480000Y-78585357D01*
X141508571Y-78556785D01*
X141537142Y-78499642D01*
X141537142Y-78356785D01*
X141508571Y-78299642D01*
X141480000Y-78271071D01*
X141422857Y-78242500D01*
X141308571Y-78242500D01*
X141251428Y-78271071D01*
X141222857Y-78299642D01*
X141194285Y-78356785D01*
%TO.C,R25*%
X150696428Y-104203215D02*
X150410714Y-104403215D01*
X150696428Y-104546072D02*
X150096428Y-104546072D01*
X150096428Y-104317501D01*
X150125000Y-104260358D01*
X150153571Y-104231786D01*
X150210714Y-104203215D01*
X150296428Y-104203215D01*
X150353571Y-104231786D01*
X150382142Y-104260358D01*
X150410714Y-104317501D01*
X150410714Y-104546072D01*
X150153571Y-103974643D02*
X150125000Y-103946072D01*
X150096428Y-103888929D01*
X150096428Y-103746072D01*
X150125000Y-103688929D01*
X150153571Y-103660358D01*
X150210714Y-103631786D01*
X150267857Y-103631786D01*
X150353571Y-103660358D01*
X150696428Y-104003215D01*
X150696428Y-103631786D01*
X150096428Y-103088929D02*
X150096428Y-103374643D01*
X150382142Y-103403215D01*
X150353571Y-103374643D01*
X150325000Y-103317501D01*
X150325000Y-103174643D01*
X150353571Y-103117501D01*
X150382142Y-103088929D01*
X150439285Y-103060358D01*
X150582142Y-103060358D01*
X150639285Y-103088929D01*
X150667857Y-103117501D01*
X150696428Y-103174643D01*
X150696428Y-103317501D01*
X150667857Y-103374643D01*
X150639285Y-103403215D01*
%TO.C,R18*%
X140754285Y-82321428D02*
X140554285Y-82035714D01*
X140411428Y-82321428D02*
X140411428Y-81721428D01*
X140640000Y-81721428D01*
X140697142Y-81750000D01*
X140725714Y-81778571D01*
X140754285Y-81835714D01*
X140754285Y-81921428D01*
X140725714Y-81978571D01*
X140697142Y-82007142D01*
X140640000Y-82035714D01*
X140411428Y-82035714D01*
X141325714Y-82321428D02*
X140982857Y-82321428D01*
X141154285Y-82321428D02*
X141154285Y-81721428D01*
X141097142Y-81807142D01*
X141040000Y-81864285D01*
X140982857Y-81892857D01*
X141668571Y-81978571D02*
X141611428Y-81950000D01*
X141582857Y-81921428D01*
X141554285Y-81864285D01*
X141554285Y-81835714D01*
X141582857Y-81778571D01*
X141611428Y-81750000D01*
X141668571Y-81721428D01*
X141782857Y-81721428D01*
X141840000Y-81750000D01*
X141868571Y-81778571D01*
X141897142Y-81835714D01*
X141897142Y-81864285D01*
X141868571Y-81921428D01*
X141840000Y-81950000D01*
X141782857Y-81978571D01*
X141668571Y-81978571D01*
X141611428Y-82007142D01*
X141582857Y-82035714D01*
X141554285Y-82092857D01*
X141554285Y-82207142D01*
X141582857Y-82264285D01*
X141611428Y-82292857D01*
X141668571Y-82321428D01*
X141782857Y-82321428D01*
X141840000Y-82292857D01*
X141868571Y-82264285D01*
X141897142Y-82207142D01*
X141897142Y-82092857D01*
X141868571Y-82035714D01*
X141840000Y-82007142D01*
X141782857Y-81978571D01*
%TO.C,C20*%
X132608781Y-95784264D02*
X132608781Y-95824670D01*
X132568375Y-95905482D01*
X132527969Y-95945888D01*
X132447157Y-95986294D01*
X132366345Y-95986294D01*
X132305735Y-95966091D01*
X132204720Y-95905482D01*
X132144111Y-95844873D01*
X132083502Y-95743857D01*
X132063299Y-95683248D01*
X132063299Y-95602436D01*
X132103705Y-95521624D01*
X132144111Y-95481218D01*
X132224923Y-95440812D01*
X132265329Y-95440812D01*
X132426954Y-95279187D02*
X132426954Y-95238781D01*
X132447157Y-95178172D01*
X132548172Y-95077157D01*
X132608781Y-95056954D01*
X132649187Y-95056954D01*
X132709796Y-95077157D01*
X132750203Y-95117563D01*
X132790609Y-95198375D01*
X132790609Y-95683248D01*
X133053248Y-95420609D01*
X132891624Y-94733705D02*
X132932030Y-94693299D01*
X132992639Y-94673096D01*
X133033045Y-94673096D01*
X133093654Y-94693299D01*
X133194670Y-94753908D01*
X133295685Y-94854923D01*
X133356294Y-94955938D01*
X133376497Y-95016548D01*
X133376497Y-95056954D01*
X133356294Y-95117563D01*
X133315888Y-95157969D01*
X133255279Y-95178172D01*
X133214873Y-95178172D01*
X133154264Y-95157969D01*
X133053248Y-95097360D01*
X132952233Y-94996345D01*
X132891624Y-94895329D01*
X132871421Y-94834720D01*
X132871421Y-94794314D01*
X132891624Y-94733705D01*
%TO.C,C24*%
X140394285Y-77416786D02*
X140365714Y-77445358D01*
X140280000Y-77473929D01*
X140222857Y-77473929D01*
X140137142Y-77445358D01*
X140080000Y-77388215D01*
X140051428Y-77331072D01*
X140022857Y-77216786D01*
X140022857Y-77131072D01*
X140051428Y-77016786D01*
X140080000Y-76959643D01*
X140137142Y-76902501D01*
X140222857Y-76873929D01*
X140280000Y-76873929D01*
X140365714Y-76902501D01*
X140394285Y-76931072D01*
X140622857Y-76931072D02*
X140651428Y-76902501D01*
X140708571Y-76873929D01*
X140851428Y-76873929D01*
X140908571Y-76902501D01*
X140937142Y-76931072D01*
X140965714Y-76988215D01*
X140965714Y-77045358D01*
X140937142Y-77131072D01*
X140594285Y-77473929D01*
X140965714Y-77473929D01*
X141480000Y-77073929D02*
X141480000Y-77473929D01*
X141337142Y-76845358D02*
X141194285Y-77273929D01*
X141565714Y-77273929D01*
%TO.C,R17*%
X152838929Y-88835715D02*
X152553215Y-89035715D01*
X152838929Y-89178572D02*
X152238929Y-89178572D01*
X152238929Y-88950001D01*
X152267501Y-88892858D01*
X152296072Y-88864286D01*
X152353215Y-88835715D01*
X152438929Y-88835715D01*
X152496072Y-88864286D01*
X152524643Y-88892858D01*
X152553215Y-88950001D01*
X152553215Y-89178572D01*
X152838929Y-88264286D02*
X152838929Y-88607143D01*
X152838929Y-88435715D02*
X152238929Y-88435715D01*
X152324643Y-88492858D01*
X152381786Y-88550001D01*
X152410358Y-88607143D01*
X152238929Y-88064286D02*
X152238929Y-87664286D01*
X152838929Y-87921429D01*
%TO.C,R35*%
X153454285Y-82538928D02*
X153254285Y-82253214D01*
X153111428Y-82538928D02*
X153111428Y-81938928D01*
X153340000Y-81938928D01*
X153397142Y-81967500D01*
X153425714Y-81996071D01*
X153454285Y-82053214D01*
X153454285Y-82138928D01*
X153425714Y-82196071D01*
X153397142Y-82224642D01*
X153340000Y-82253214D01*
X153111428Y-82253214D01*
X153654285Y-81938928D02*
X154025714Y-81938928D01*
X153825714Y-82167500D01*
X153911428Y-82167500D01*
X153968571Y-82196071D01*
X153997142Y-82224642D01*
X154025714Y-82281785D01*
X154025714Y-82424642D01*
X153997142Y-82481785D01*
X153968571Y-82510357D01*
X153911428Y-82538928D01*
X153740000Y-82538928D01*
X153682857Y-82510357D01*
X153654285Y-82481785D01*
X154568571Y-81938928D02*
X154282857Y-81938928D01*
X154254285Y-82224642D01*
X154282857Y-82196071D01*
X154340000Y-82167500D01*
X154482857Y-82167500D01*
X154540000Y-82196071D01*
X154568571Y-82224642D01*
X154597142Y-82281785D01*
X154597142Y-82424642D01*
X154568571Y-82481785D01*
X154540000Y-82510357D01*
X154482857Y-82538928D01*
X154340000Y-82538928D01*
X154282857Y-82510357D01*
X154254285Y-82481785D01*
%TO.C,C3*%
X131714285Y-91200000D02*
X131742857Y-91228571D01*
X131771428Y-91314285D01*
X131771428Y-91371428D01*
X131742857Y-91457142D01*
X131685714Y-91514285D01*
X131628571Y-91542857D01*
X131514285Y-91571428D01*
X131428571Y-91571428D01*
X131314285Y-91542857D01*
X131257142Y-91514285D01*
X131200000Y-91457142D01*
X131171428Y-91371428D01*
X131171428Y-91314285D01*
X131200000Y-91228571D01*
X131228571Y-91200000D01*
X131171428Y-91000000D02*
X131171428Y-90628571D01*
X131400000Y-90828571D01*
X131400000Y-90742857D01*
X131428571Y-90685714D01*
X131457142Y-90657142D01*
X131514285Y-90628571D01*
X131657142Y-90628571D01*
X131714285Y-90657142D01*
X131742857Y-90685714D01*
X131771428Y-90742857D01*
X131771428Y-90914285D01*
X131742857Y-90971428D01*
X131714285Y-91000000D01*
%TO.C,R28*%
X157486428Y-104213215D02*
X157200714Y-104413215D01*
X157486428Y-104556072D02*
X156886428Y-104556072D01*
X156886428Y-104327501D01*
X156915000Y-104270358D01*
X156943571Y-104241786D01*
X157000714Y-104213215D01*
X157086428Y-104213215D01*
X157143571Y-104241786D01*
X157172142Y-104270358D01*
X157200714Y-104327501D01*
X157200714Y-104556072D01*
X156943571Y-103984643D02*
X156915000Y-103956072D01*
X156886428Y-103898929D01*
X156886428Y-103756072D01*
X156915000Y-103698929D01*
X156943571Y-103670358D01*
X157000714Y-103641786D01*
X157057857Y-103641786D01*
X157143571Y-103670358D01*
X157486428Y-104013215D01*
X157486428Y-103641786D01*
X157143571Y-103298929D02*
X157115000Y-103356072D01*
X157086428Y-103384643D01*
X157029285Y-103413215D01*
X157000714Y-103413215D01*
X156943571Y-103384643D01*
X156915000Y-103356072D01*
X156886428Y-103298929D01*
X156886428Y-103184643D01*
X156915000Y-103127501D01*
X156943571Y-103098929D01*
X157000714Y-103070358D01*
X157029285Y-103070358D01*
X157086428Y-103098929D01*
X157115000Y-103127501D01*
X157143571Y-103184643D01*
X157143571Y-103298929D01*
X157172142Y-103356072D01*
X157200714Y-103384643D01*
X157257857Y-103413215D01*
X157372142Y-103413215D01*
X157429285Y-103384643D01*
X157457857Y-103356072D01*
X157486428Y-103298929D01*
X157486428Y-103184643D01*
X157457857Y-103127501D01*
X157429285Y-103098929D01*
X157372142Y-103070358D01*
X157257857Y-103070358D01*
X157200714Y-103098929D01*
X157172142Y-103127501D01*
X157143571Y-103184643D01*
%TO.C,C9*%
X125644285Y-82660000D02*
X125672857Y-82688571D01*
X125701428Y-82774285D01*
X125701428Y-82831428D01*
X125672857Y-82917142D01*
X125615714Y-82974285D01*
X125558571Y-83002857D01*
X125444285Y-83031428D01*
X125358571Y-83031428D01*
X125244285Y-83002857D01*
X125187142Y-82974285D01*
X125130000Y-82917142D01*
X125101428Y-82831428D01*
X125101428Y-82774285D01*
X125130000Y-82688571D01*
X125158571Y-82660000D01*
X125701428Y-82374285D02*
X125701428Y-82260000D01*
X125672857Y-82202857D01*
X125644285Y-82174285D01*
X125558571Y-82117142D01*
X125444285Y-82088571D01*
X125215714Y-82088571D01*
X125158571Y-82117142D01*
X125130000Y-82145714D01*
X125101428Y-82202857D01*
X125101428Y-82317142D01*
X125130000Y-82374285D01*
X125158571Y-82402857D01*
X125215714Y-82431428D01*
X125358571Y-82431428D01*
X125415714Y-82402857D01*
X125444285Y-82374285D01*
X125472857Y-82317142D01*
X125472857Y-82202857D01*
X125444285Y-82145714D01*
X125415714Y-82117142D01*
X125358571Y-82088571D01*
%TO.C,C44*%
X112610852Y-105569858D02*
X112639424Y-105598429D01*
X112667995Y-105684144D01*
X112667995Y-105741286D01*
X112639424Y-105827001D01*
X112582281Y-105884144D01*
X112525138Y-105912715D01*
X112410852Y-105941286D01*
X112325138Y-105941286D01*
X112210852Y-105912715D01*
X112153709Y-105884144D01*
X112096567Y-105827001D01*
X112067995Y-105741286D01*
X112067995Y-105684144D01*
X112096567Y-105598429D01*
X112125138Y-105569858D01*
X112267995Y-105055572D02*
X112667995Y-105055572D01*
X112039424Y-105198429D02*
X112467995Y-105341286D01*
X112467995Y-104969858D01*
X112267995Y-104484144D02*
X112667995Y-104484144D01*
X112039424Y-104627001D02*
X112467995Y-104769858D01*
X112467995Y-104398429D01*
%TO.C,C47*%
X141664285Y-100285714D02*
X141692857Y-100314285D01*
X141721428Y-100400000D01*
X141721428Y-100457142D01*
X141692857Y-100542857D01*
X141635714Y-100600000D01*
X141578571Y-100628571D01*
X141464285Y-100657142D01*
X141378571Y-100657142D01*
X141264285Y-100628571D01*
X141207142Y-100600000D01*
X141150000Y-100542857D01*
X141121428Y-100457142D01*
X141121428Y-100400000D01*
X141150000Y-100314285D01*
X141178571Y-100285714D01*
X141321428Y-99771428D02*
X141721428Y-99771428D01*
X141092857Y-99914285D02*
X141521428Y-100057142D01*
X141521428Y-99685714D01*
X141121428Y-99514285D02*
X141121428Y-99114285D01*
X141721428Y-99371428D01*
%TO.C,C40*%
X121644286Y-106285714D02*
X121672858Y-106314285D01*
X121701429Y-106400000D01*
X121701429Y-106457142D01*
X121672858Y-106542857D01*
X121615715Y-106600000D01*
X121558572Y-106628571D01*
X121444286Y-106657142D01*
X121358572Y-106657142D01*
X121244286Y-106628571D01*
X121187143Y-106600000D01*
X121130001Y-106542857D01*
X121101429Y-106457142D01*
X121101429Y-106400000D01*
X121130001Y-106314285D01*
X121158572Y-106285714D01*
X121301429Y-105771428D02*
X121701429Y-105771428D01*
X121072858Y-105914285D02*
X121501429Y-106057142D01*
X121501429Y-105685714D01*
X121101429Y-105342857D02*
X121101429Y-105285714D01*
X121130001Y-105228571D01*
X121158572Y-105200000D01*
X121215715Y-105171428D01*
X121330001Y-105142857D01*
X121472858Y-105142857D01*
X121587143Y-105171428D01*
X121644286Y-105200000D01*
X121672858Y-105228571D01*
X121701429Y-105285714D01*
X121701429Y-105342857D01*
X121672858Y-105400000D01*
X121644286Y-105428571D01*
X121587143Y-105457142D01*
X121472858Y-105485714D01*
X121330001Y-105485714D01*
X121215715Y-105457142D01*
X121158572Y-105428571D01*
X121130001Y-105400000D01*
X121101429Y-105342857D01*
%TO.C,C15*%
X132644285Y-84275714D02*
X132672857Y-84304285D01*
X132701428Y-84390000D01*
X132701428Y-84447142D01*
X132672857Y-84532857D01*
X132615714Y-84590000D01*
X132558571Y-84618571D01*
X132444285Y-84647142D01*
X132358571Y-84647142D01*
X132244285Y-84618571D01*
X132187142Y-84590000D01*
X132130000Y-84532857D01*
X132101428Y-84447142D01*
X132101428Y-84390000D01*
X132130000Y-84304285D01*
X132158571Y-84275714D01*
X132701428Y-83704285D02*
X132701428Y-84047142D01*
X132701428Y-83875714D02*
X132101428Y-83875714D01*
X132187142Y-83932857D01*
X132244285Y-83990000D01*
X132272857Y-84047142D01*
X132101428Y-83161428D02*
X132101428Y-83447142D01*
X132387142Y-83475714D01*
X132358571Y-83447142D01*
X132330000Y-83390000D01*
X132330000Y-83247142D01*
X132358571Y-83190000D01*
X132387142Y-83161428D01*
X132444285Y-83132857D01*
X132587142Y-83132857D01*
X132644285Y-83161428D01*
X132672857Y-83190000D01*
X132701428Y-83247142D01*
X132701428Y-83390000D01*
X132672857Y-83447142D01*
X132644285Y-83475714D01*
%TO.C,C23*%
X136944285Y-96494285D02*
X136915714Y-96522857D01*
X136830000Y-96551428D01*
X136772857Y-96551428D01*
X136687142Y-96522857D01*
X136630000Y-96465714D01*
X136601428Y-96408571D01*
X136572857Y-96294285D01*
X136572857Y-96208571D01*
X136601428Y-96094285D01*
X136630000Y-96037142D01*
X136687142Y-95980000D01*
X136772857Y-95951428D01*
X136830000Y-95951428D01*
X136915714Y-95980000D01*
X136944285Y-96008571D01*
X137172857Y-96008571D02*
X137201428Y-95980000D01*
X137258571Y-95951428D01*
X137401428Y-95951428D01*
X137458571Y-95980000D01*
X137487142Y-96008571D01*
X137515714Y-96065714D01*
X137515714Y-96122857D01*
X137487142Y-96208571D01*
X137144285Y-96551428D01*
X137515714Y-96551428D01*
X137715714Y-95951428D02*
X138087142Y-95951428D01*
X137887142Y-96180000D01*
X137972857Y-96180000D01*
X138030000Y-96208571D01*
X138058571Y-96237142D01*
X138087142Y-96294285D01*
X138087142Y-96437142D01*
X138058571Y-96494285D01*
X138030000Y-96522857D01*
X137972857Y-96551428D01*
X137801428Y-96551428D01*
X137744285Y-96522857D01*
X137715714Y-96494285D01*
%TO.C,C50*%
X115914285Y-100285714D02*
X115942857Y-100314285D01*
X115971428Y-100400000D01*
X115971428Y-100457142D01*
X115942857Y-100542857D01*
X115885714Y-100600000D01*
X115828571Y-100628571D01*
X115714285Y-100657142D01*
X115628571Y-100657142D01*
X115514285Y-100628571D01*
X115457142Y-100600000D01*
X115400000Y-100542857D01*
X115371428Y-100457142D01*
X115371428Y-100400000D01*
X115400000Y-100314285D01*
X115428571Y-100285714D01*
X115371428Y-99742857D02*
X115371428Y-100028571D01*
X115657142Y-100057142D01*
X115628571Y-100028571D01*
X115600000Y-99971428D01*
X115600000Y-99828571D01*
X115628571Y-99771428D01*
X115657142Y-99742857D01*
X115714285Y-99714285D01*
X115857142Y-99714285D01*
X115914285Y-99742857D01*
X115942857Y-99771428D01*
X115971428Y-99828571D01*
X115971428Y-99971428D01*
X115942857Y-100028571D01*
X115914285Y-100057142D01*
X115371428Y-99342857D02*
X115371428Y-99285714D01*
X115400000Y-99228571D01*
X115428571Y-99200000D01*
X115485714Y-99171428D01*
X115600000Y-99142857D01*
X115742857Y-99142857D01*
X115857142Y-99171428D01*
X115914285Y-99200000D01*
X115942857Y-99228571D01*
X115971428Y-99285714D01*
X115971428Y-99342857D01*
X115942857Y-99400000D01*
X115914285Y-99428571D01*
X115857142Y-99457142D01*
X115742857Y-99485714D01*
X115600000Y-99485714D01*
X115485714Y-99457142D01*
X115428571Y-99428571D01*
X115400000Y-99400000D01*
X115371428Y-99342857D01*
%TO.C,R44*%
X141091627Y-112232211D02*
X140891627Y-111946497D01*
X140748770Y-112232211D02*
X140748770Y-111632211D01*
X140977342Y-111632211D01*
X141034484Y-111660783D01*
X141063056Y-111689354D01*
X141091627Y-111746497D01*
X141091627Y-111832211D01*
X141063056Y-111889354D01*
X141034484Y-111917925D01*
X140977342Y-111946497D01*
X140748770Y-111946497D01*
X141605913Y-111832211D02*
X141605913Y-112232211D01*
X141463056Y-111603640D02*
X141320199Y-112032211D01*
X141691627Y-112032211D01*
X142177342Y-111832211D02*
X142177342Y-112232211D01*
X142034484Y-111603640D02*
X141891627Y-112032211D01*
X142263056Y-112032211D01*
%TO.C,C58*%
X128914283Y-112924285D02*
X128885712Y-112952857D01*
X128799998Y-112981428D01*
X128742855Y-112981428D01*
X128657140Y-112952857D01*
X128599998Y-112895714D01*
X128571426Y-112838571D01*
X128542855Y-112724285D01*
X128542855Y-112638571D01*
X128571426Y-112524285D01*
X128599998Y-112467142D01*
X128657140Y-112410000D01*
X128742855Y-112381428D01*
X128799998Y-112381428D01*
X128885712Y-112410000D01*
X128914283Y-112438571D01*
X129457140Y-112381428D02*
X129171426Y-112381428D01*
X129142855Y-112667142D01*
X129171426Y-112638571D01*
X129228569Y-112610000D01*
X129371426Y-112610000D01*
X129428569Y-112638571D01*
X129457140Y-112667142D01*
X129485712Y-112724285D01*
X129485712Y-112867142D01*
X129457140Y-112924285D01*
X129428569Y-112952857D01*
X129371426Y-112981428D01*
X129228569Y-112981428D01*
X129171426Y-112952857D01*
X129142855Y-112924285D01*
X129828569Y-112638571D02*
X129771426Y-112610000D01*
X129742855Y-112581428D01*
X129714283Y-112524285D01*
X129714283Y-112495714D01*
X129742855Y-112438571D01*
X129771426Y-112410000D01*
X129828569Y-112381428D01*
X129942855Y-112381428D01*
X129999998Y-112410000D01*
X130028569Y-112438571D01*
X130057140Y-112495714D01*
X130057140Y-112524285D01*
X130028569Y-112581428D01*
X129999998Y-112610000D01*
X129942855Y-112638571D01*
X129828569Y-112638571D01*
X129771426Y-112667142D01*
X129742855Y-112695714D01*
X129714283Y-112752857D01*
X129714283Y-112867142D01*
X129742855Y-112924285D01*
X129771426Y-112952857D01*
X129828569Y-112981428D01*
X129942855Y-112981428D01*
X129999998Y-112952857D01*
X130028569Y-112924285D01*
X130057140Y-112867142D01*
X130057140Y-112752857D01*
X130028569Y-112695714D01*
X129999998Y-112667142D01*
X129942855Y-112638571D01*
%TO.C,R13*%
X130705590Y-74745842D02*
X130505590Y-74460128D01*
X130362733Y-74745842D02*
X130362733Y-74145842D01*
X130591305Y-74145842D01*
X130648447Y-74174414D01*
X130677019Y-74202985D01*
X130705590Y-74260128D01*
X130705590Y-74345842D01*
X130677019Y-74402985D01*
X130648447Y-74431556D01*
X130591305Y-74460128D01*
X130362733Y-74460128D01*
X131277019Y-74745842D02*
X130934162Y-74745842D01*
X131105590Y-74745842D02*
X131105590Y-74145842D01*
X131048447Y-74231556D01*
X130991305Y-74288699D01*
X130934162Y-74317271D01*
X131477019Y-74145842D02*
X131848447Y-74145842D01*
X131648447Y-74374414D01*
X131734162Y-74374414D01*
X131791305Y-74402985D01*
X131819876Y-74431556D01*
X131848447Y-74488699D01*
X131848447Y-74631556D01*
X131819876Y-74688699D01*
X131791305Y-74717271D01*
X131734162Y-74745842D01*
X131562733Y-74745842D01*
X131505590Y-74717271D01*
X131477019Y-74688699D01*
%TO.C,C38*%
X135944284Y-106285714D02*
X135972856Y-106314285D01*
X136001427Y-106400000D01*
X136001427Y-106457142D01*
X135972856Y-106542857D01*
X135915713Y-106600000D01*
X135858570Y-106628571D01*
X135744284Y-106657142D01*
X135658570Y-106657142D01*
X135544284Y-106628571D01*
X135487141Y-106600000D01*
X135429999Y-106542857D01*
X135401427Y-106457142D01*
X135401427Y-106400000D01*
X135429999Y-106314285D01*
X135458570Y-106285714D01*
X135401427Y-106085714D02*
X135401427Y-105714285D01*
X135629999Y-105914285D01*
X135629999Y-105828571D01*
X135658570Y-105771428D01*
X135687141Y-105742857D01*
X135744284Y-105714285D01*
X135887141Y-105714285D01*
X135944284Y-105742857D01*
X135972856Y-105771428D01*
X136001427Y-105828571D01*
X136001427Y-106000000D01*
X135972856Y-106057142D01*
X135944284Y-106085714D01*
X135658570Y-105371428D02*
X135629999Y-105428571D01*
X135601427Y-105457142D01*
X135544284Y-105485714D01*
X135515713Y-105485714D01*
X135458570Y-105457142D01*
X135429999Y-105428571D01*
X135401427Y-105371428D01*
X135401427Y-105257142D01*
X135429999Y-105200000D01*
X135458570Y-105171428D01*
X135515713Y-105142857D01*
X135544284Y-105142857D01*
X135601427Y-105171428D01*
X135629999Y-105200000D01*
X135658570Y-105257142D01*
X135658570Y-105371428D01*
X135687141Y-105428571D01*
X135715713Y-105457142D01*
X135772856Y-105485714D01*
X135887141Y-105485714D01*
X135944284Y-105457142D01*
X135972856Y-105428571D01*
X136001427Y-105371428D01*
X136001427Y-105257142D01*
X135972856Y-105200000D01*
X135944284Y-105171428D01*
X135887141Y-105142857D01*
X135772856Y-105142857D01*
X135715713Y-105171428D01*
X135687141Y-105200000D01*
X135658570Y-105257142D01*
%TO.C,C57*%
X147891627Y-114555068D02*
X147863056Y-114583640D01*
X147777342Y-114612211D01*
X147720199Y-114612211D01*
X147634484Y-114583640D01*
X147577342Y-114526497D01*
X147548770Y-114469354D01*
X147520199Y-114355068D01*
X147520199Y-114269354D01*
X147548770Y-114155068D01*
X147577342Y-114097925D01*
X147634484Y-114040783D01*
X147720199Y-114012211D01*
X147777342Y-114012211D01*
X147863056Y-114040783D01*
X147891627Y-114069354D01*
X148434484Y-114012211D02*
X148148770Y-114012211D01*
X148120199Y-114297925D01*
X148148770Y-114269354D01*
X148205913Y-114240783D01*
X148348770Y-114240783D01*
X148405913Y-114269354D01*
X148434484Y-114297925D01*
X148463056Y-114355068D01*
X148463056Y-114497925D01*
X148434484Y-114555068D01*
X148405913Y-114583640D01*
X148348770Y-114612211D01*
X148205913Y-114612211D01*
X148148770Y-114583640D01*
X148120199Y-114555068D01*
X148663056Y-114012211D02*
X149063056Y-114012211D01*
X148805913Y-114612211D01*
%TO.C,C7*%
X138489998Y-85314284D02*
X138518570Y-85342855D01*
X138547141Y-85428569D01*
X138547141Y-85485712D01*
X138518570Y-85571426D01*
X138461427Y-85628569D01*
X138404284Y-85657141D01*
X138289998Y-85685712D01*
X138204284Y-85685712D01*
X138089998Y-85657141D01*
X138032855Y-85628569D01*
X137975713Y-85571426D01*
X137947141Y-85485712D01*
X137947141Y-85428569D01*
X137975713Y-85342855D01*
X138004284Y-85314284D01*
X137947141Y-85114284D02*
X137947141Y-84714284D01*
X138547141Y-84971426D01*
%TO.C,R27*%
X156359758Y-104203215D02*
X156074044Y-104403215D01*
X156359758Y-104546072D02*
X155759758Y-104546072D01*
X155759758Y-104317501D01*
X155788330Y-104260358D01*
X155816901Y-104231786D01*
X155874044Y-104203215D01*
X155959758Y-104203215D01*
X156016901Y-104231786D01*
X156045472Y-104260358D01*
X156074044Y-104317501D01*
X156074044Y-104546072D01*
X155816901Y-103974643D02*
X155788330Y-103946072D01*
X155759758Y-103888929D01*
X155759758Y-103746072D01*
X155788330Y-103688929D01*
X155816901Y-103660358D01*
X155874044Y-103631786D01*
X155931187Y-103631786D01*
X156016901Y-103660358D01*
X156359758Y-104003215D01*
X156359758Y-103631786D01*
X155759758Y-103431786D02*
X155759758Y-103031786D01*
X156359758Y-103288929D01*
%TO.C,C28*%
X154042543Y-104203215D02*
X154071115Y-104231786D01*
X154099686Y-104317501D01*
X154099686Y-104374643D01*
X154071115Y-104460358D01*
X154013972Y-104517501D01*
X153956829Y-104546072D01*
X153842543Y-104574643D01*
X153756829Y-104574643D01*
X153642543Y-104546072D01*
X153585400Y-104517501D01*
X153528258Y-104460358D01*
X153499686Y-104374643D01*
X153499686Y-104317501D01*
X153528258Y-104231786D01*
X153556829Y-104203215D01*
X153556829Y-103974643D02*
X153528258Y-103946072D01*
X153499686Y-103888929D01*
X153499686Y-103746072D01*
X153528258Y-103688929D01*
X153556829Y-103660358D01*
X153613972Y-103631786D01*
X153671115Y-103631786D01*
X153756829Y-103660358D01*
X154099686Y-104003215D01*
X154099686Y-103631786D01*
X153756829Y-103288929D02*
X153728258Y-103346072D01*
X153699686Y-103374643D01*
X153642543Y-103403215D01*
X153613972Y-103403215D01*
X153556829Y-103374643D01*
X153528258Y-103346072D01*
X153499686Y-103288929D01*
X153499686Y-103174643D01*
X153528258Y-103117501D01*
X153556829Y-103088929D01*
X153613972Y-103060358D01*
X153642543Y-103060358D01*
X153699686Y-103088929D01*
X153728258Y-103117501D01*
X153756829Y-103174643D01*
X153756829Y-103288929D01*
X153785400Y-103346072D01*
X153813972Y-103374643D01*
X153871115Y-103403215D01*
X153985400Y-103403215D01*
X154042543Y-103374643D01*
X154071115Y-103346072D01*
X154099686Y-103288929D01*
X154099686Y-103174643D01*
X154071115Y-103117501D01*
X154042543Y-103088929D01*
X153985400Y-103060358D01*
X153871115Y-103060358D01*
X153813972Y-103088929D01*
X153785400Y-103117501D01*
X153756829Y-103174643D01*
%TO.C,U4*%
X149726427Y-99917142D02*
X150212141Y-99917142D01*
X150269284Y-99888571D01*
X150297856Y-99860000D01*
X150326427Y-99802857D01*
X150326427Y-99688571D01*
X150297856Y-99631428D01*
X150269284Y-99602857D01*
X150212141Y-99574285D01*
X149726427Y-99574285D01*
X149926427Y-99031428D02*
X150326427Y-99031428D01*
X149697856Y-99174285D02*
X150126427Y-99317142D01*
X150126427Y-98945714D01*
%TO.C,C32*%
X141734285Y-95275714D02*
X141762857Y-95304285D01*
X141791428Y-95390000D01*
X141791428Y-95447142D01*
X141762857Y-95532857D01*
X141705714Y-95590000D01*
X141648571Y-95618571D01*
X141534285Y-95647142D01*
X141448571Y-95647142D01*
X141334285Y-95618571D01*
X141277142Y-95590000D01*
X141220000Y-95532857D01*
X141191428Y-95447142D01*
X141191428Y-95390000D01*
X141220000Y-95304285D01*
X141248571Y-95275714D01*
X141191428Y-95075714D02*
X141191428Y-94704285D01*
X141420000Y-94904285D01*
X141420000Y-94818571D01*
X141448571Y-94761428D01*
X141477142Y-94732857D01*
X141534285Y-94704285D01*
X141677142Y-94704285D01*
X141734285Y-94732857D01*
X141762857Y-94761428D01*
X141791428Y-94818571D01*
X141791428Y-94990000D01*
X141762857Y-95047142D01*
X141734285Y-95075714D01*
X141248571Y-94475714D02*
X141220000Y-94447142D01*
X141191428Y-94390000D01*
X141191428Y-94247142D01*
X141220000Y-94190000D01*
X141248571Y-94161428D01*
X141305714Y-94132857D01*
X141362857Y-94132857D01*
X141448571Y-94161428D01*
X141791428Y-94504285D01*
X141791428Y-94132857D01*
%TO.C,C29*%
X140394284Y-79656784D02*
X140365713Y-79685356D01*
X140279999Y-79713927D01*
X140222856Y-79713927D01*
X140137141Y-79685356D01*
X140079999Y-79628213D01*
X140051427Y-79571070D01*
X140022856Y-79456784D01*
X140022856Y-79371070D01*
X140051427Y-79256784D01*
X140079999Y-79199641D01*
X140137141Y-79142499D01*
X140222856Y-79113927D01*
X140279999Y-79113927D01*
X140365713Y-79142499D01*
X140394284Y-79171070D01*
X140622856Y-79171070D02*
X140651427Y-79142499D01*
X140708570Y-79113927D01*
X140851427Y-79113927D01*
X140908570Y-79142499D01*
X140937141Y-79171070D01*
X140965713Y-79228213D01*
X140965713Y-79285356D01*
X140937141Y-79371070D01*
X140594284Y-79713927D01*
X140965713Y-79713927D01*
X141251427Y-79713927D02*
X141365713Y-79713927D01*
X141422856Y-79685356D01*
X141451427Y-79656784D01*
X141508570Y-79571070D01*
X141537141Y-79456784D01*
X141537141Y-79228213D01*
X141508570Y-79171070D01*
X141479999Y-79142499D01*
X141422856Y-79113927D01*
X141308570Y-79113927D01*
X141251427Y-79142499D01*
X141222856Y-79171070D01*
X141194284Y-79228213D01*
X141194284Y-79371070D01*
X141222856Y-79428213D01*
X141251427Y-79456784D01*
X141308570Y-79485356D01*
X141422856Y-79485356D01*
X141479999Y-79456784D01*
X141508570Y-79428213D01*
X141537141Y-79371070D01*
%TO.C,C2*%
X136090000Y-86824285D02*
X136061428Y-86852857D01*
X135975714Y-86881428D01*
X135918571Y-86881428D01*
X135832857Y-86852857D01*
X135775714Y-86795714D01*
X135747142Y-86738571D01*
X135718571Y-86624285D01*
X135718571Y-86538571D01*
X135747142Y-86424285D01*
X135775714Y-86367142D01*
X135832857Y-86310000D01*
X135918571Y-86281428D01*
X135975714Y-86281428D01*
X136061428Y-86310000D01*
X136090000Y-86338571D01*
X136318571Y-86338571D02*
X136347142Y-86310000D01*
X136404285Y-86281428D01*
X136547142Y-86281428D01*
X136604285Y-86310000D01*
X136632857Y-86338571D01*
X136661428Y-86395714D01*
X136661428Y-86452857D01*
X136632857Y-86538571D01*
X136290000Y-86881428D01*
X136661428Y-86881428D01*
%TO.C,C31*%
X158579286Y-89190714D02*
X158607858Y-89219285D01*
X158636429Y-89305000D01*
X158636429Y-89362142D01*
X158607858Y-89447857D01*
X158550715Y-89505000D01*
X158493572Y-89533571D01*
X158379286Y-89562142D01*
X158293572Y-89562142D01*
X158179286Y-89533571D01*
X158122143Y-89505000D01*
X158065001Y-89447857D01*
X158036429Y-89362142D01*
X158036429Y-89305000D01*
X158065001Y-89219285D01*
X158093572Y-89190714D01*
X158036429Y-88990714D02*
X158036429Y-88619285D01*
X158265001Y-88819285D01*
X158265001Y-88733571D01*
X158293572Y-88676428D01*
X158322143Y-88647857D01*
X158379286Y-88619285D01*
X158522143Y-88619285D01*
X158579286Y-88647857D01*
X158607858Y-88676428D01*
X158636429Y-88733571D01*
X158636429Y-88905000D01*
X158607858Y-88962142D01*
X158579286Y-88990714D01*
X158636429Y-88047857D02*
X158636429Y-88390714D01*
X158636429Y-88219285D02*
X158036429Y-88219285D01*
X158122143Y-88276428D01*
X158179286Y-88333571D01*
X158207858Y-88390714D01*
%TO.C,C54*%
X125701782Y-112954283D02*
X125673211Y-112982855D01*
X125587497Y-113011426D01*
X125530354Y-113011426D01*
X125444639Y-112982855D01*
X125387497Y-112925712D01*
X125358925Y-112868569D01*
X125330354Y-112754283D01*
X125330354Y-112668569D01*
X125358925Y-112554283D01*
X125387497Y-112497140D01*
X125444639Y-112439998D01*
X125530354Y-112411426D01*
X125587497Y-112411426D01*
X125673211Y-112439998D01*
X125701782Y-112468569D01*
X126244639Y-112411426D02*
X125958925Y-112411426D01*
X125930354Y-112697140D01*
X125958925Y-112668569D01*
X126016068Y-112639998D01*
X126158925Y-112639998D01*
X126216068Y-112668569D01*
X126244639Y-112697140D01*
X126273211Y-112754283D01*
X126273211Y-112897140D01*
X126244639Y-112954283D01*
X126216068Y-112982855D01*
X126158925Y-113011426D01*
X126016068Y-113011426D01*
X125958925Y-112982855D01*
X125930354Y-112954283D01*
X126787497Y-112611426D02*
X126787497Y-113011426D01*
X126644639Y-112382855D02*
X126501782Y-112811426D01*
X126873211Y-112811426D01*
%TO.C,R23*%
X140791428Y-95275714D02*
X140505714Y-95475714D01*
X140791428Y-95618571D02*
X140191428Y-95618571D01*
X140191428Y-95390000D01*
X140220000Y-95332857D01*
X140248571Y-95304285D01*
X140305714Y-95275714D01*
X140391428Y-95275714D01*
X140448571Y-95304285D01*
X140477142Y-95332857D01*
X140505714Y-95390000D01*
X140505714Y-95618571D01*
X140248571Y-95047142D02*
X140220000Y-95018571D01*
X140191428Y-94961428D01*
X140191428Y-94818571D01*
X140220000Y-94761428D01*
X140248571Y-94732857D01*
X140305714Y-94704285D01*
X140362857Y-94704285D01*
X140448571Y-94732857D01*
X140791428Y-95075714D01*
X140791428Y-94704285D01*
X140191428Y-94504285D02*
X140191428Y-94132857D01*
X140420000Y-94332857D01*
X140420000Y-94247142D01*
X140448571Y-94190000D01*
X140477142Y-94161428D01*
X140534285Y-94132857D01*
X140677142Y-94132857D01*
X140734285Y-94161428D01*
X140762857Y-94190000D01*
X140791428Y-94247142D01*
X140791428Y-94418571D01*
X140762857Y-94475714D01*
X140734285Y-94504285D01*
%TO.C,R4*%
X136090000Y-89481428D02*
X135890000Y-89195714D01*
X135747142Y-89481428D02*
X135747142Y-88881428D01*
X135975714Y-88881428D01*
X136032857Y-88910000D01*
X136061428Y-88938571D01*
X136090000Y-88995714D01*
X136090000Y-89081428D01*
X136061428Y-89138571D01*
X136032857Y-89167142D01*
X135975714Y-89195714D01*
X135747142Y-89195714D01*
X136604285Y-89081428D02*
X136604285Y-89481428D01*
X136461428Y-88852857D02*
X136318571Y-89281428D01*
X136690000Y-89281428D01*
%TO.C,R3*%
X132800000Y-89201428D02*
X132600000Y-88915714D01*
X132457142Y-89201428D02*
X132457142Y-88601428D01*
X132685714Y-88601428D01*
X132742857Y-88630000D01*
X132771428Y-88658571D01*
X132800000Y-88715714D01*
X132800000Y-88801428D01*
X132771428Y-88858571D01*
X132742857Y-88887142D01*
X132685714Y-88915714D01*
X132457142Y-88915714D01*
X133000000Y-88601428D02*
X133371428Y-88601428D01*
X133171428Y-88830000D01*
X133257142Y-88830000D01*
X133314285Y-88858571D01*
X133342857Y-88887142D01*
X133371428Y-88944285D01*
X133371428Y-89087142D01*
X133342857Y-89144285D01*
X133314285Y-89172857D01*
X133257142Y-89201428D01*
X133085714Y-89201428D01*
X133028571Y-89172857D01*
X133000000Y-89144285D01*
%TO.C,R6*%
X139521428Y-85260000D02*
X139235714Y-85460000D01*
X139521428Y-85602857D02*
X138921428Y-85602857D01*
X138921428Y-85374285D01*
X138950000Y-85317142D01*
X138978571Y-85288571D01*
X139035714Y-85260000D01*
X139121428Y-85260000D01*
X139178571Y-85288571D01*
X139207142Y-85317142D01*
X139235714Y-85374285D01*
X139235714Y-85602857D01*
X138921428Y-84745714D02*
X138921428Y-84860000D01*
X138950000Y-84917142D01*
X138978571Y-84945714D01*
X139064285Y-85002857D01*
X139178571Y-85031428D01*
X139407142Y-85031428D01*
X139464285Y-85002857D01*
X139492857Y-84974285D01*
X139521428Y-84917142D01*
X139521428Y-84802857D01*
X139492857Y-84745714D01*
X139464285Y-84717142D01*
X139407142Y-84688571D01*
X139264285Y-84688571D01*
X139207142Y-84717142D01*
X139178571Y-84745714D01*
X139150000Y-84802857D01*
X139150000Y-84917142D01*
X139178571Y-84974285D01*
X139207142Y-85002857D01*
X139264285Y-85031428D01*
%TO.C,C12*%
X125923542Y-80010212D02*
X125894971Y-80038784D01*
X125809257Y-80067355D01*
X125752114Y-80067355D01*
X125666399Y-80038784D01*
X125609257Y-79981641D01*
X125580685Y-79924498D01*
X125552114Y-79810212D01*
X125552114Y-79724498D01*
X125580685Y-79610212D01*
X125609257Y-79553069D01*
X125666399Y-79495927D01*
X125752114Y-79467355D01*
X125809257Y-79467355D01*
X125894971Y-79495927D01*
X125923542Y-79524498D01*
X126494971Y-80067355D02*
X126152114Y-80067355D01*
X126323542Y-80067355D02*
X126323542Y-79467355D01*
X126266399Y-79553069D01*
X126209257Y-79610212D01*
X126152114Y-79638784D01*
X126723542Y-79524498D02*
X126752114Y-79495927D01*
X126809257Y-79467355D01*
X126952114Y-79467355D01*
X127009257Y-79495927D01*
X127037828Y-79524498D01*
X127066399Y-79581641D01*
X127066399Y-79638784D01*
X127037828Y-79724498D01*
X126694971Y-80067355D01*
X127066399Y-80067355D01*
%TO.C,R31*%
X150711428Y-86305714D02*
X150425714Y-86505714D01*
X150711428Y-86648571D02*
X150111428Y-86648571D01*
X150111428Y-86420000D01*
X150140000Y-86362857D01*
X150168571Y-86334285D01*
X150225714Y-86305714D01*
X150311428Y-86305714D01*
X150368571Y-86334285D01*
X150397142Y-86362857D01*
X150425714Y-86420000D01*
X150425714Y-86648571D01*
X150111428Y-86105714D02*
X150111428Y-85734285D01*
X150340000Y-85934285D01*
X150340000Y-85848571D01*
X150368571Y-85791428D01*
X150397142Y-85762857D01*
X150454285Y-85734285D01*
X150597142Y-85734285D01*
X150654285Y-85762857D01*
X150682857Y-85791428D01*
X150711428Y-85848571D01*
X150711428Y-86020000D01*
X150682857Y-86077142D01*
X150654285Y-86105714D01*
X150711428Y-85162857D02*
X150711428Y-85505714D01*
X150711428Y-85334285D02*
X150111428Y-85334285D01*
X150197142Y-85391428D01*
X150254285Y-85448571D01*
X150282857Y-85505714D01*
%TO.C,C51*%
X115919286Y-112954283D02*
X115890715Y-112982855D01*
X115805001Y-113011426D01*
X115747858Y-113011426D01*
X115662143Y-112982855D01*
X115605001Y-112925712D01*
X115576429Y-112868569D01*
X115547858Y-112754283D01*
X115547858Y-112668569D01*
X115576429Y-112554283D01*
X115605001Y-112497140D01*
X115662143Y-112439998D01*
X115747858Y-112411426D01*
X115805001Y-112411426D01*
X115890715Y-112439998D01*
X115919286Y-112468569D01*
X116462143Y-112411426D02*
X116176429Y-112411426D01*
X116147858Y-112697140D01*
X116176429Y-112668569D01*
X116233572Y-112639998D01*
X116376429Y-112639998D01*
X116433572Y-112668569D01*
X116462143Y-112697140D01*
X116490715Y-112754283D01*
X116490715Y-112897140D01*
X116462143Y-112954283D01*
X116433572Y-112982855D01*
X116376429Y-113011426D01*
X116233572Y-113011426D01*
X116176429Y-112982855D01*
X116147858Y-112954283D01*
X117062143Y-113011426D02*
X116719286Y-113011426D01*
X116890715Y-113011426D02*
X116890715Y-112411426D01*
X116833572Y-112497140D01*
X116776429Y-112554283D01*
X116719286Y-112582855D01*
%TO.C,C34*%
X157644285Y-82425714D02*
X157672857Y-82454285D01*
X157701428Y-82540000D01*
X157701428Y-82597142D01*
X157672857Y-82682857D01*
X157615714Y-82740000D01*
X157558571Y-82768571D01*
X157444285Y-82797142D01*
X157358571Y-82797142D01*
X157244285Y-82768571D01*
X157187142Y-82740000D01*
X157130000Y-82682857D01*
X157101428Y-82597142D01*
X157101428Y-82540000D01*
X157130000Y-82454285D01*
X157158571Y-82425714D01*
X157101428Y-82225714D02*
X157101428Y-81854285D01*
X157330000Y-82054285D01*
X157330000Y-81968571D01*
X157358571Y-81911428D01*
X157387142Y-81882857D01*
X157444285Y-81854285D01*
X157587142Y-81854285D01*
X157644285Y-81882857D01*
X157672857Y-81911428D01*
X157701428Y-81968571D01*
X157701428Y-82140000D01*
X157672857Y-82197142D01*
X157644285Y-82225714D01*
X157301428Y-81340000D02*
X157701428Y-81340000D01*
X157072857Y-81482857D02*
X157501428Y-81625714D01*
X157501428Y-81254285D01*
%TO.C,R29*%
X155223092Y-104203215D02*
X154937378Y-104403215D01*
X155223092Y-104546072D02*
X154623092Y-104546072D01*
X154623092Y-104317501D01*
X154651664Y-104260358D01*
X154680235Y-104231786D01*
X154737378Y-104203215D01*
X154823092Y-104203215D01*
X154880235Y-104231786D01*
X154908806Y-104260358D01*
X154937378Y-104317501D01*
X154937378Y-104546072D01*
X154680235Y-103974643D02*
X154651664Y-103946072D01*
X154623092Y-103888929D01*
X154623092Y-103746072D01*
X154651664Y-103688929D01*
X154680235Y-103660358D01*
X154737378Y-103631786D01*
X154794521Y-103631786D01*
X154880235Y-103660358D01*
X155223092Y-104003215D01*
X155223092Y-103631786D01*
X155223092Y-103346072D02*
X155223092Y-103231786D01*
X155194521Y-103174643D01*
X155165949Y-103146072D01*
X155080235Y-103088929D01*
X154965949Y-103060358D01*
X154737378Y-103060358D01*
X154680235Y-103088929D01*
X154651664Y-103117501D01*
X154623092Y-103174643D01*
X154623092Y-103288929D01*
X154651664Y-103346072D01*
X154680235Y-103374643D01*
X154737378Y-103403215D01*
X154880235Y-103403215D01*
X154937378Y-103374643D01*
X154965949Y-103346072D01*
X154994521Y-103288929D01*
X154994521Y-103174643D01*
X154965949Y-103117501D01*
X154937378Y-103088929D01*
X154880235Y-103060358D01*
%TO.C,C13*%
X132644285Y-88005714D02*
X132672857Y-88034285D01*
X132701428Y-88120000D01*
X132701428Y-88177142D01*
X132672857Y-88262857D01*
X132615714Y-88320000D01*
X132558571Y-88348571D01*
X132444285Y-88377142D01*
X132358571Y-88377142D01*
X132244285Y-88348571D01*
X132187142Y-88320000D01*
X132130000Y-88262857D01*
X132101428Y-88177142D01*
X132101428Y-88120000D01*
X132130000Y-88034285D01*
X132158571Y-88005714D01*
X132701428Y-87434285D02*
X132701428Y-87777142D01*
X132701428Y-87605714D02*
X132101428Y-87605714D01*
X132187142Y-87662857D01*
X132244285Y-87720000D01*
X132272857Y-87777142D01*
X132101428Y-87234285D02*
X132101428Y-86862857D01*
X132330000Y-87062857D01*
X132330000Y-86977142D01*
X132358571Y-86920000D01*
X132387142Y-86891428D01*
X132444285Y-86862857D01*
X132587142Y-86862857D01*
X132644285Y-86891428D01*
X132672857Y-86920000D01*
X132701428Y-86977142D01*
X132701428Y-87148571D01*
X132672857Y-87205714D01*
X132644285Y-87234285D01*
%TO.C,R43*%
X142458770Y-113856497D02*
X142173056Y-114056497D01*
X142458770Y-114199354D02*
X141858770Y-114199354D01*
X141858770Y-113970783D01*
X141887342Y-113913640D01*
X141915913Y-113885068D01*
X141973056Y-113856497D01*
X142058770Y-113856497D01*
X142115913Y-113885068D01*
X142144484Y-113913640D01*
X142173056Y-113970783D01*
X142173056Y-114199354D01*
X142058770Y-113342211D02*
X142458770Y-113342211D01*
X141830199Y-113485068D02*
X142258770Y-113627925D01*
X142258770Y-113256497D01*
X141858770Y-113085068D02*
X141858770Y-112713640D01*
X142087342Y-112913640D01*
X142087342Y-112827925D01*
X142115913Y-112770783D01*
X142144484Y-112742211D01*
X142201627Y-112713640D01*
X142344484Y-112713640D01*
X142401627Y-112742211D01*
X142430199Y-112770783D01*
X142458770Y-112827925D01*
X142458770Y-112999354D01*
X142430199Y-113056497D01*
X142401627Y-113085068D01*
%TO.C,C25*%
X155246785Y-88050714D02*
X155275357Y-88079285D01*
X155303928Y-88165000D01*
X155303928Y-88222142D01*
X155275357Y-88307857D01*
X155218214Y-88365000D01*
X155161071Y-88393571D01*
X155046785Y-88422142D01*
X154961071Y-88422142D01*
X154846785Y-88393571D01*
X154789642Y-88365000D01*
X154732500Y-88307857D01*
X154703928Y-88222142D01*
X154703928Y-88165000D01*
X154732500Y-88079285D01*
X154761071Y-88050714D01*
X154761071Y-87822142D02*
X154732500Y-87793571D01*
X154703928Y-87736428D01*
X154703928Y-87593571D01*
X154732500Y-87536428D01*
X154761071Y-87507857D01*
X154818214Y-87479285D01*
X154875357Y-87479285D01*
X154961071Y-87507857D01*
X155303928Y-87850714D01*
X155303928Y-87479285D01*
X154703928Y-86936428D02*
X154703928Y-87222142D01*
X154989642Y-87250714D01*
X154961071Y-87222142D01*
X154932500Y-87165000D01*
X154932500Y-87022142D01*
X154961071Y-86965000D01*
X154989642Y-86936428D01*
X155046785Y-86907857D01*
X155189642Y-86907857D01*
X155246785Y-86936428D01*
X155275357Y-86965000D01*
X155303928Y-87022142D01*
X155303928Y-87165000D01*
X155275357Y-87222142D01*
X155246785Y-87250714D01*
%TO.C,C18*%
X113154285Y-75595714D02*
X113182857Y-75624285D01*
X113211428Y-75710000D01*
X113211428Y-75767142D01*
X113182857Y-75852857D01*
X113125714Y-75910000D01*
X113068571Y-75938571D01*
X112954285Y-75967142D01*
X112868571Y-75967142D01*
X112754285Y-75938571D01*
X112697142Y-75910000D01*
X112640000Y-75852857D01*
X112611428Y-75767142D01*
X112611428Y-75710000D01*
X112640000Y-75624285D01*
X112668571Y-75595714D01*
X113211428Y-75024285D02*
X113211428Y-75367142D01*
X113211428Y-75195714D02*
X112611428Y-75195714D01*
X112697142Y-75252857D01*
X112754285Y-75310000D01*
X112782857Y-75367142D01*
X112868571Y-74681428D02*
X112840000Y-74738571D01*
X112811428Y-74767142D01*
X112754285Y-74795714D01*
X112725714Y-74795714D01*
X112668571Y-74767142D01*
X112640000Y-74738571D01*
X112611428Y-74681428D01*
X112611428Y-74567142D01*
X112640000Y-74510000D01*
X112668571Y-74481428D01*
X112725714Y-74452857D01*
X112754285Y-74452857D01*
X112811428Y-74481428D01*
X112840000Y-74510000D01*
X112868571Y-74567142D01*
X112868571Y-74681428D01*
X112897142Y-74738571D01*
X112925714Y-74767142D01*
X112982857Y-74795714D01*
X113097142Y-74795714D01*
X113154285Y-74767142D01*
X113182857Y-74738571D01*
X113211428Y-74681428D01*
X113211428Y-74567142D01*
X113182857Y-74510000D01*
X113154285Y-74481428D01*
X113097142Y-74452857D01*
X112982857Y-74452857D01*
X112925714Y-74481428D01*
X112897142Y-74510000D01*
X112868571Y-74567142D01*
%TO.C,C35*%
X153866785Y-88850714D02*
X153895357Y-88879285D01*
X153923928Y-88965000D01*
X153923928Y-89022142D01*
X153895357Y-89107857D01*
X153838214Y-89165000D01*
X153781071Y-89193571D01*
X153666785Y-89222142D01*
X153581071Y-89222142D01*
X153466785Y-89193571D01*
X153409642Y-89165000D01*
X153352500Y-89107857D01*
X153323928Y-89022142D01*
X153323928Y-88965000D01*
X153352500Y-88879285D01*
X153381071Y-88850714D01*
X153323928Y-88650714D02*
X153323928Y-88279285D01*
X153552500Y-88479285D01*
X153552500Y-88393571D01*
X153581071Y-88336428D01*
X153609642Y-88307857D01*
X153666785Y-88279285D01*
X153809642Y-88279285D01*
X153866785Y-88307857D01*
X153895357Y-88336428D01*
X153923928Y-88393571D01*
X153923928Y-88565000D01*
X153895357Y-88622142D01*
X153866785Y-88650714D01*
X153323928Y-87736428D02*
X153323928Y-88022142D01*
X153609642Y-88050714D01*
X153581071Y-88022142D01*
X153552500Y-87965000D01*
X153552500Y-87822142D01*
X153581071Y-87765000D01*
X153609642Y-87736428D01*
X153666785Y-87707857D01*
X153809642Y-87707857D01*
X153866785Y-87736428D01*
X153895357Y-87765000D01*
X153923928Y-87822142D01*
X153923928Y-87965000D01*
X153895357Y-88022142D01*
X153866785Y-88050714D01*
%TO.C,C55*%
X147818316Y-108855361D02*
X147789745Y-108883933D01*
X147704031Y-108912504D01*
X147646888Y-108912504D01*
X147561173Y-108883933D01*
X147504031Y-108826790D01*
X147475459Y-108769647D01*
X147446888Y-108655361D01*
X147446888Y-108569647D01*
X147475459Y-108455361D01*
X147504031Y-108398218D01*
X147561173Y-108341076D01*
X147646888Y-108312504D01*
X147704031Y-108312504D01*
X147789745Y-108341076D01*
X147818316Y-108369647D01*
X148361173Y-108312504D02*
X148075459Y-108312504D01*
X148046888Y-108598218D01*
X148075459Y-108569647D01*
X148132602Y-108541076D01*
X148275459Y-108541076D01*
X148332602Y-108569647D01*
X148361173Y-108598218D01*
X148389745Y-108655361D01*
X148389745Y-108798218D01*
X148361173Y-108855361D01*
X148332602Y-108883933D01*
X148275459Y-108912504D01*
X148132602Y-108912504D01*
X148075459Y-108883933D01*
X148046888Y-108855361D01*
X148932602Y-108312504D02*
X148646888Y-108312504D01*
X148618316Y-108598218D01*
X148646888Y-108569647D01*
X148704031Y-108541076D01*
X148846888Y-108541076D01*
X148904031Y-108569647D01*
X148932602Y-108598218D01*
X148961173Y-108655361D01*
X148961173Y-108798218D01*
X148932602Y-108855361D01*
X148904031Y-108883933D01*
X148846888Y-108912504D01*
X148704031Y-108912504D01*
X148646888Y-108883933D01*
X148618316Y-108855361D01*
%TO.C,C48*%
X114664285Y-100285714D02*
X114692857Y-100314285D01*
X114721428Y-100400000D01*
X114721428Y-100457142D01*
X114692857Y-100542857D01*
X114635714Y-100600000D01*
X114578571Y-100628571D01*
X114464285Y-100657142D01*
X114378571Y-100657142D01*
X114264285Y-100628571D01*
X114207142Y-100600000D01*
X114150000Y-100542857D01*
X114121428Y-100457142D01*
X114121428Y-100400000D01*
X114150000Y-100314285D01*
X114178571Y-100285714D01*
X114321428Y-99771428D02*
X114721428Y-99771428D01*
X114092857Y-99914285D02*
X114521428Y-100057142D01*
X114521428Y-99685714D01*
X114378571Y-99371428D02*
X114350000Y-99428571D01*
X114321428Y-99457142D01*
X114264285Y-99485714D01*
X114235714Y-99485714D01*
X114178571Y-99457142D01*
X114150000Y-99428571D01*
X114121428Y-99371428D01*
X114121428Y-99257142D01*
X114150000Y-99200000D01*
X114178571Y-99171428D01*
X114235714Y-99142857D01*
X114264285Y-99142857D01*
X114321428Y-99171428D01*
X114350000Y-99200000D01*
X114378571Y-99257142D01*
X114378571Y-99371428D01*
X114407142Y-99428571D01*
X114435714Y-99457142D01*
X114492857Y-99485714D01*
X114607142Y-99485714D01*
X114664285Y-99457142D01*
X114692857Y-99428571D01*
X114721428Y-99371428D01*
X114721428Y-99257142D01*
X114692857Y-99200000D01*
X114664285Y-99171428D01*
X114607142Y-99142857D01*
X114492857Y-99142857D01*
X114435714Y-99171428D01*
X114407142Y-99200000D01*
X114378571Y-99257142D01*
%TO.C,C21*%
X114764285Y-75635714D02*
X114792857Y-75664285D01*
X114821428Y-75750000D01*
X114821428Y-75807142D01*
X114792857Y-75892857D01*
X114735714Y-75950000D01*
X114678571Y-75978571D01*
X114564285Y-76007142D01*
X114478571Y-76007142D01*
X114364285Y-75978571D01*
X114307142Y-75950000D01*
X114250000Y-75892857D01*
X114221428Y-75807142D01*
X114221428Y-75750000D01*
X114250000Y-75664285D01*
X114278571Y-75635714D01*
X114278571Y-75407142D02*
X114250000Y-75378571D01*
X114221428Y-75321428D01*
X114221428Y-75178571D01*
X114250000Y-75121428D01*
X114278571Y-75092857D01*
X114335714Y-75064285D01*
X114392857Y-75064285D01*
X114478571Y-75092857D01*
X114821428Y-75435714D01*
X114821428Y-75064285D01*
X114821428Y-74492857D02*
X114821428Y-74835714D01*
X114821428Y-74664285D02*
X114221428Y-74664285D01*
X114307142Y-74721428D01*
X114364285Y-74778571D01*
X114392857Y-74835714D01*
%TO.C,C27*%
X155644285Y-82425714D02*
X155672857Y-82454285D01*
X155701428Y-82540000D01*
X155701428Y-82597142D01*
X155672857Y-82682857D01*
X155615714Y-82740000D01*
X155558571Y-82768571D01*
X155444285Y-82797142D01*
X155358571Y-82797142D01*
X155244285Y-82768571D01*
X155187142Y-82740000D01*
X155130000Y-82682857D01*
X155101428Y-82597142D01*
X155101428Y-82540000D01*
X155130000Y-82454285D01*
X155158571Y-82425714D01*
X155158571Y-82197142D02*
X155130000Y-82168571D01*
X155101428Y-82111428D01*
X155101428Y-81968571D01*
X155130000Y-81911428D01*
X155158571Y-81882857D01*
X155215714Y-81854285D01*
X155272857Y-81854285D01*
X155358571Y-81882857D01*
X155701428Y-82225714D01*
X155701428Y-81854285D01*
X155101428Y-81654285D02*
X155101428Y-81254285D01*
X155701428Y-81511428D01*
%TO.C,LED1*%
X158933571Y-78448144D02*
X158647857Y-78448144D01*
X158647857Y-77848144D01*
X159133571Y-78133858D02*
X159333571Y-78133858D01*
X159419285Y-78448144D02*
X159133571Y-78448144D01*
X159133571Y-77848144D01*
X159419285Y-77848144D01*
X159676428Y-78448144D02*
X159676428Y-77848144D01*
X159819285Y-77848144D01*
X159905000Y-77876716D01*
X159962142Y-77933858D01*
X159990714Y-77991001D01*
X160019285Y-78105287D01*
X160019285Y-78191001D01*
X159990714Y-78305287D01*
X159962142Y-78362430D01*
X159905000Y-78419573D01*
X159819285Y-78448144D01*
X159676428Y-78448144D01*
X160590714Y-78448144D02*
X160247857Y-78448144D01*
X160419285Y-78448144D02*
X160419285Y-77848144D01*
X160362142Y-77933858D01*
X160305000Y-77991001D01*
X160247857Y-78019573D01*
%TO.C,C45*%
X144414285Y-100285714D02*
X144442857Y-100314285D01*
X144471428Y-100400000D01*
X144471428Y-100457142D01*
X144442857Y-100542857D01*
X144385714Y-100600000D01*
X144328571Y-100628571D01*
X144214285Y-100657142D01*
X144128571Y-100657142D01*
X144014285Y-100628571D01*
X143957142Y-100600000D01*
X143900000Y-100542857D01*
X143871428Y-100457142D01*
X143871428Y-100400000D01*
X143900000Y-100314285D01*
X143928571Y-100285714D01*
X144071428Y-99771428D02*
X144471428Y-99771428D01*
X143842857Y-99914285D02*
X144271428Y-100057142D01*
X144271428Y-99685714D01*
X143871428Y-99171428D02*
X143871428Y-99457142D01*
X144157142Y-99485714D01*
X144128571Y-99457142D01*
X144100000Y-99400000D01*
X144100000Y-99257142D01*
X144128571Y-99200000D01*
X144157142Y-99171428D01*
X144214285Y-99142857D01*
X144357142Y-99142857D01*
X144414285Y-99171428D01*
X144442857Y-99200000D01*
X144471428Y-99257142D01*
X144471428Y-99400000D01*
X144442857Y-99457142D01*
X144414285Y-99485714D01*
%TO.C,D3*%
X126196427Y-96325357D02*
X125596427Y-96325357D01*
X125596427Y-96182500D01*
X125624999Y-96096785D01*
X125682141Y-96039642D01*
X125739284Y-96011071D01*
X125853570Y-95982500D01*
X125939284Y-95982500D01*
X126053570Y-96011071D01*
X126110713Y-96039642D01*
X126167856Y-96096785D01*
X126196427Y-96182500D01*
X126196427Y-96325357D01*
X125596427Y-95782500D02*
X125596427Y-95411071D01*
X125824999Y-95611071D01*
X125824999Y-95525357D01*
X125853570Y-95468214D01*
X125882141Y-95439642D01*
X125939284Y-95411071D01*
X126082141Y-95411071D01*
X126139284Y-95439642D01*
X126167856Y-95468214D01*
X126196427Y-95525357D01*
X126196427Y-95696785D01*
X126167856Y-95753928D01*
X126139284Y-95782500D01*
%TO.C,R2*%
X131761428Y-95460000D02*
X131475714Y-95660000D01*
X131761428Y-95802857D02*
X131161428Y-95802857D01*
X131161428Y-95574285D01*
X131190000Y-95517142D01*
X131218571Y-95488571D01*
X131275714Y-95460000D01*
X131361428Y-95460000D01*
X131418571Y-95488571D01*
X131447142Y-95517142D01*
X131475714Y-95574285D01*
X131475714Y-95802857D01*
X131218571Y-95231428D02*
X131190000Y-95202857D01*
X131161428Y-95145714D01*
X131161428Y-95002857D01*
X131190000Y-94945714D01*
X131218571Y-94917142D01*
X131275714Y-94888571D01*
X131332857Y-94888571D01*
X131418571Y-94917142D01*
X131761428Y-95260000D01*
X131761428Y-94888571D01*
%TO.C,R14*%
X130705590Y-75866346D02*
X130505590Y-75580632D01*
X130362733Y-75866346D02*
X130362733Y-75266346D01*
X130591305Y-75266346D01*
X130648447Y-75294918D01*
X130677019Y-75323489D01*
X130705590Y-75380632D01*
X130705590Y-75466346D01*
X130677019Y-75523489D01*
X130648447Y-75552060D01*
X130591305Y-75580632D01*
X130362733Y-75580632D01*
X131277019Y-75866346D02*
X130934162Y-75866346D01*
X131105590Y-75866346D02*
X131105590Y-75266346D01*
X131048447Y-75352060D01*
X130991305Y-75409203D01*
X130934162Y-75437775D01*
X131791305Y-75466346D02*
X131791305Y-75866346D01*
X131648447Y-75237775D02*
X131505590Y-75666346D01*
X131877019Y-75666346D01*
%TO.C,R1*%
X130705591Y-73671501D02*
X130505591Y-73385787D01*
X130362733Y-73671501D02*
X130362733Y-73071501D01*
X130591305Y-73071501D01*
X130648448Y-73100073D01*
X130677019Y-73128644D01*
X130705591Y-73185787D01*
X130705591Y-73271501D01*
X130677019Y-73328644D01*
X130648448Y-73357215D01*
X130591305Y-73385787D01*
X130362733Y-73385787D01*
X131277019Y-73671501D02*
X130934162Y-73671501D01*
X131105591Y-73671501D02*
X131105591Y-73071501D01*
X131048448Y-73157215D01*
X130991305Y-73214358D01*
X130934162Y-73242930D01*
%TO.C,R38*%
X155364285Y-81071427D02*
X155164285Y-80785713D01*
X155021428Y-81071427D02*
X155021428Y-80471427D01*
X155250000Y-80471427D01*
X155307142Y-80499999D01*
X155335714Y-80528570D01*
X155364285Y-80585713D01*
X155364285Y-80671427D01*
X155335714Y-80728570D01*
X155307142Y-80757141D01*
X155250000Y-80785713D01*
X155021428Y-80785713D01*
X155564285Y-80471427D02*
X155935714Y-80471427D01*
X155735714Y-80699999D01*
X155821428Y-80699999D01*
X155878571Y-80728570D01*
X155907142Y-80757141D01*
X155935714Y-80814284D01*
X155935714Y-80957141D01*
X155907142Y-81014284D01*
X155878571Y-81042856D01*
X155821428Y-81071427D01*
X155650000Y-81071427D01*
X155592857Y-81042856D01*
X155564285Y-81014284D01*
X156278571Y-80728570D02*
X156221428Y-80699999D01*
X156192857Y-80671427D01*
X156164285Y-80614284D01*
X156164285Y-80585713D01*
X156192857Y-80528570D01*
X156221428Y-80499999D01*
X156278571Y-80471427D01*
X156392857Y-80471427D01*
X156450000Y-80499999D01*
X156478571Y-80528570D01*
X156507142Y-80585713D01*
X156507142Y-80614284D01*
X156478571Y-80671427D01*
X156450000Y-80699999D01*
X156392857Y-80728570D01*
X156278571Y-80728570D01*
X156221428Y-80757141D01*
X156192857Y-80785713D01*
X156164285Y-80842856D01*
X156164285Y-80957141D01*
X156192857Y-81014284D01*
X156221428Y-81042856D01*
X156278571Y-81071427D01*
X156392857Y-81071427D01*
X156450000Y-81042856D01*
X156478571Y-81014284D01*
X156507142Y-80957141D01*
X156507142Y-80842856D01*
X156478571Y-80785713D01*
X156450000Y-80757141D01*
X156392857Y-80728570D01*
%TO.C,R24*%
X151833092Y-104203215D02*
X151547378Y-104403215D01*
X151833092Y-104546072D02*
X151233092Y-104546072D01*
X151233092Y-104317501D01*
X151261664Y-104260358D01*
X151290235Y-104231786D01*
X151347378Y-104203215D01*
X151433092Y-104203215D01*
X151490235Y-104231786D01*
X151518806Y-104260358D01*
X151547378Y-104317501D01*
X151547378Y-104546072D01*
X151290235Y-103974643D02*
X151261664Y-103946072D01*
X151233092Y-103888929D01*
X151233092Y-103746072D01*
X151261664Y-103688929D01*
X151290235Y-103660358D01*
X151347378Y-103631786D01*
X151404521Y-103631786D01*
X151490235Y-103660358D01*
X151833092Y-104003215D01*
X151833092Y-103631786D01*
X151433092Y-103117501D02*
X151833092Y-103117501D01*
X151204521Y-103260358D02*
X151633092Y-103403215D01*
X151633092Y-103031786D01*
%TO.C,C5*%
X123634285Y-82660000D02*
X123662857Y-82688571D01*
X123691428Y-82774285D01*
X123691428Y-82831428D01*
X123662857Y-82917142D01*
X123605714Y-82974285D01*
X123548571Y-83002857D01*
X123434285Y-83031428D01*
X123348571Y-83031428D01*
X123234285Y-83002857D01*
X123177142Y-82974285D01*
X123120000Y-82917142D01*
X123091428Y-82831428D01*
X123091428Y-82774285D01*
X123120000Y-82688571D01*
X123148571Y-82660000D01*
X123091428Y-82117142D02*
X123091428Y-82402857D01*
X123377142Y-82431428D01*
X123348571Y-82402857D01*
X123320000Y-82345714D01*
X123320000Y-82202857D01*
X123348571Y-82145714D01*
X123377142Y-82117142D01*
X123434285Y-82088571D01*
X123577142Y-82088571D01*
X123634285Y-82117142D01*
X123662857Y-82145714D01*
X123691428Y-82202857D01*
X123691428Y-82345714D01*
X123662857Y-82402857D01*
X123634285Y-82431428D01*
%TO.C,C11*%
X121658542Y-70276719D02*
X121629971Y-70305291D01*
X121544257Y-70333862D01*
X121487114Y-70333862D01*
X121401399Y-70305291D01*
X121344257Y-70248148D01*
X121315685Y-70191005D01*
X121287114Y-70076719D01*
X121287114Y-69991005D01*
X121315685Y-69876719D01*
X121344257Y-69819576D01*
X121401399Y-69762434D01*
X121487114Y-69733862D01*
X121544257Y-69733862D01*
X121629971Y-69762434D01*
X121658542Y-69791005D01*
X122229971Y-70333862D02*
X121887114Y-70333862D01*
X122058542Y-70333862D02*
X122058542Y-69733862D01*
X122001399Y-69819576D01*
X121944257Y-69876719D01*
X121887114Y-69905291D01*
X122801399Y-70333862D02*
X122458542Y-70333862D01*
X122629971Y-70333862D02*
X122629971Y-69733862D01*
X122572828Y-69819576D01*
X122515685Y-69876719D01*
X122458542Y-69905291D01*
%TO.C,R20*%
X146034286Y-98441428D02*
X145834286Y-98155714D01*
X145691429Y-98441428D02*
X145691429Y-97841428D01*
X145920001Y-97841428D01*
X145977143Y-97870000D01*
X146005715Y-97898571D01*
X146034286Y-97955714D01*
X146034286Y-98041428D01*
X146005715Y-98098571D01*
X145977143Y-98127142D01*
X145920001Y-98155714D01*
X145691429Y-98155714D01*
X146262858Y-97898571D02*
X146291429Y-97870000D01*
X146348572Y-97841428D01*
X146491429Y-97841428D01*
X146548572Y-97870000D01*
X146577143Y-97898571D01*
X146605715Y-97955714D01*
X146605715Y-98012857D01*
X146577143Y-98098571D01*
X146234286Y-98441428D01*
X146605715Y-98441428D01*
X146977143Y-97841428D02*
X147034286Y-97841428D01*
X147091429Y-97870000D01*
X147120001Y-97898571D01*
X147148572Y-97955714D01*
X147177143Y-98070000D01*
X147177143Y-98212857D01*
X147148572Y-98327142D01*
X147120001Y-98384285D01*
X147091429Y-98412857D01*
X147034286Y-98441428D01*
X146977143Y-98441428D01*
X146920001Y-98412857D01*
X146891429Y-98384285D01*
X146862858Y-98327142D01*
X146834286Y-98212857D01*
X146834286Y-98070000D01*
X146862858Y-97955714D01*
X146891429Y-97898571D01*
X146920001Y-97870000D01*
X146977143Y-97841428D01*
%TO.C,R15*%
X134781428Y-84025714D02*
X134495714Y-84225714D01*
X134781428Y-84368571D02*
X134181428Y-84368571D01*
X134181428Y-84140000D01*
X134210000Y-84082857D01*
X134238571Y-84054285D01*
X134295714Y-84025714D01*
X134381428Y-84025714D01*
X134438571Y-84054285D01*
X134467142Y-84082857D01*
X134495714Y-84140000D01*
X134495714Y-84368571D01*
X134781428Y-83454285D02*
X134781428Y-83797142D01*
X134781428Y-83625714D02*
X134181428Y-83625714D01*
X134267142Y-83682857D01*
X134324285Y-83740000D01*
X134352857Y-83797142D01*
X134181428Y-82911428D02*
X134181428Y-83197142D01*
X134467142Y-83225714D01*
X134438571Y-83197142D01*
X134410000Y-83140000D01*
X134410000Y-82997142D01*
X134438571Y-82940000D01*
X134467142Y-82911428D01*
X134524285Y-82882857D01*
X134667142Y-82882857D01*
X134724285Y-82911428D01*
X134752857Y-82940000D01*
X134781428Y-82997142D01*
X134781428Y-83140000D01*
X134752857Y-83197142D01*
X134724285Y-83225714D01*
%TO.C,C4*%
X127810000Y-82314285D02*
X127781428Y-82342857D01*
X127695714Y-82371428D01*
X127638571Y-82371428D01*
X127552857Y-82342857D01*
X127495714Y-82285714D01*
X127467142Y-82228571D01*
X127438571Y-82114285D01*
X127438571Y-82028571D01*
X127467142Y-81914285D01*
X127495714Y-81857142D01*
X127552857Y-81800000D01*
X127638571Y-81771428D01*
X127695714Y-81771428D01*
X127781428Y-81800000D01*
X127810000Y-81828571D01*
X128324285Y-81971428D02*
X128324285Y-82371428D01*
X128181428Y-81742857D02*
X128038571Y-82171428D01*
X128410000Y-82171428D01*
%TO.C,L2*%
X149990000Y-90091428D02*
X149704285Y-90091428D01*
X149704285Y-89491428D01*
X150161428Y-89548571D02*
X150190000Y-89520000D01*
X150247142Y-89491428D01*
X150390000Y-89491428D01*
X150447142Y-89520000D01*
X150475714Y-89548571D01*
X150504285Y-89605714D01*
X150504285Y-89662857D01*
X150475714Y-89748571D01*
X150132857Y-90091428D01*
X150504285Y-90091428D01*
%TO.C,R32*%
X146701428Y-88233214D02*
X146415714Y-88433214D01*
X146701428Y-88576071D02*
X146101428Y-88576071D01*
X146101428Y-88347500D01*
X146130000Y-88290357D01*
X146158571Y-88261785D01*
X146215714Y-88233214D01*
X146301428Y-88233214D01*
X146358571Y-88261785D01*
X146387142Y-88290357D01*
X146415714Y-88347500D01*
X146415714Y-88576071D01*
X146101428Y-88033214D02*
X146101428Y-87661785D01*
X146330000Y-87861785D01*
X146330000Y-87776071D01*
X146358571Y-87718928D01*
X146387142Y-87690357D01*
X146444285Y-87661785D01*
X146587142Y-87661785D01*
X146644285Y-87690357D01*
X146672857Y-87718928D01*
X146701428Y-87776071D01*
X146701428Y-87947500D01*
X146672857Y-88004642D01*
X146644285Y-88033214D01*
X146158571Y-87433214D02*
X146130000Y-87404642D01*
X146101428Y-87347500D01*
X146101428Y-87204642D01*
X146130000Y-87147500D01*
X146158571Y-87118928D01*
X146215714Y-87090357D01*
X146272857Y-87090357D01*
X146358571Y-87118928D01*
X146701428Y-87461785D01*
X146701428Y-87090357D01*
%TO.C,U5*%
X144451428Y-84449642D02*
X144937142Y-84449642D01*
X144994285Y-84421071D01*
X145022857Y-84392500D01*
X145051428Y-84335357D01*
X145051428Y-84221071D01*
X145022857Y-84163928D01*
X144994285Y-84135357D01*
X144937142Y-84106785D01*
X144451428Y-84106785D01*
X144451428Y-83535357D02*
X144451428Y-83821071D01*
X144737142Y-83849642D01*
X144708571Y-83821071D01*
X144680000Y-83763928D01*
X144680000Y-83621071D01*
X144708571Y-83563928D01*
X144737142Y-83535357D01*
X144794285Y-83506785D01*
X144937142Y-83506785D01*
X144994285Y-83535357D01*
X145022857Y-83563928D01*
X145051428Y-83621071D01*
X145051428Y-83763928D01*
X145022857Y-83821071D01*
X144994285Y-83849642D01*
%TO.C,D2*%
X139552142Y-90821428D02*
X139552142Y-90221428D01*
X139695000Y-90221428D01*
X139780714Y-90250000D01*
X139837857Y-90307142D01*
X139866428Y-90364285D01*
X139895000Y-90478571D01*
X139895000Y-90564285D01*
X139866428Y-90678571D01*
X139837857Y-90735714D01*
X139780714Y-90792857D01*
X139695000Y-90821428D01*
X139552142Y-90821428D01*
X140123571Y-90278571D02*
X140152142Y-90250000D01*
X140209285Y-90221428D01*
X140352142Y-90221428D01*
X140409285Y-90250000D01*
X140437857Y-90278571D01*
X140466428Y-90335714D01*
X140466428Y-90392857D01*
X140437857Y-90478571D01*
X140095000Y-90821428D01*
X140466428Y-90821428D01*
%TO.C,C49*%
X113414285Y-100285714D02*
X113442857Y-100314285D01*
X113471428Y-100400000D01*
X113471428Y-100457142D01*
X113442857Y-100542857D01*
X113385714Y-100600000D01*
X113328571Y-100628571D01*
X113214285Y-100657142D01*
X113128571Y-100657142D01*
X113014285Y-100628571D01*
X112957142Y-100600000D01*
X112900000Y-100542857D01*
X112871428Y-100457142D01*
X112871428Y-100400000D01*
X112900000Y-100314285D01*
X112928571Y-100285714D01*
X113071428Y-99771428D02*
X113471428Y-99771428D01*
X112842857Y-99914285D02*
X113271428Y-100057142D01*
X113271428Y-99685714D01*
X113471428Y-99428571D02*
X113471428Y-99314285D01*
X113442857Y-99257142D01*
X113414285Y-99228571D01*
X113328571Y-99171428D01*
X113214285Y-99142857D01*
X112985714Y-99142857D01*
X112928571Y-99171428D01*
X112900000Y-99200000D01*
X112871428Y-99257142D01*
X112871428Y-99371428D01*
X112900000Y-99428571D01*
X112928571Y-99457142D01*
X112985714Y-99485714D01*
X113128571Y-99485714D01*
X113185714Y-99457142D01*
X113214285Y-99428571D01*
X113242857Y-99371428D01*
X113242857Y-99257142D01*
X113214285Y-99200000D01*
X113185714Y-99171428D01*
X113128571Y-99142857D01*
%TO.C,R21*%
X140754285Y-83411428D02*
X140554285Y-83125714D01*
X140411428Y-83411428D02*
X140411428Y-82811428D01*
X140640000Y-82811428D01*
X140697142Y-82840000D01*
X140725714Y-82868571D01*
X140754285Y-82925714D01*
X140754285Y-83011428D01*
X140725714Y-83068571D01*
X140697142Y-83097142D01*
X140640000Y-83125714D01*
X140411428Y-83125714D01*
X140982857Y-82868571D02*
X141011428Y-82840000D01*
X141068571Y-82811428D01*
X141211428Y-82811428D01*
X141268571Y-82840000D01*
X141297142Y-82868571D01*
X141325714Y-82925714D01*
X141325714Y-82982857D01*
X141297142Y-83068571D01*
X140954285Y-83411428D01*
X141325714Y-83411428D01*
X141897142Y-83411428D02*
X141554285Y-83411428D01*
X141725714Y-83411428D02*
X141725714Y-82811428D01*
X141668571Y-82897142D01*
X141611428Y-82954285D01*
X141554285Y-82982857D01*
%TO.C,C10*%
X132608781Y-97329264D02*
X132608781Y-97369670D01*
X132568375Y-97450482D01*
X132527969Y-97490888D01*
X132447157Y-97531294D01*
X132366345Y-97531294D01*
X132305735Y-97511091D01*
X132204720Y-97450482D01*
X132144111Y-97389873D01*
X132083502Y-97288857D01*
X132063299Y-97228248D01*
X132063299Y-97147436D01*
X132103705Y-97066624D01*
X132144111Y-97026218D01*
X132224923Y-96985812D01*
X132265329Y-96985812D01*
X133053248Y-96965609D02*
X132810812Y-97208045D01*
X132932030Y-97086827D02*
X132507766Y-96662563D01*
X132527969Y-96763578D01*
X132527969Y-96844390D01*
X132507766Y-96905000D01*
X132891624Y-96278705D02*
X132932030Y-96238299D01*
X132992639Y-96218096D01*
X133033045Y-96218096D01*
X133093654Y-96238299D01*
X133194670Y-96298908D01*
X133295685Y-96399923D01*
X133356294Y-96500938D01*
X133376497Y-96561548D01*
X133376497Y-96601954D01*
X133356294Y-96662563D01*
X133315888Y-96702969D01*
X133255279Y-96723172D01*
X133214873Y-96723172D01*
X133154264Y-96702969D01*
X133053248Y-96642360D01*
X132952233Y-96541345D01*
X132891624Y-96440329D01*
X132871421Y-96379720D01*
X132871421Y-96339314D01*
X132891624Y-96278705D01*
%TO.C,R22*%
X157636431Y-89200714D02*
X157350717Y-89400714D01*
X157636431Y-89543571D02*
X157036431Y-89543571D01*
X157036431Y-89315000D01*
X157065003Y-89257857D01*
X157093574Y-89229285D01*
X157150717Y-89200714D01*
X157236431Y-89200714D01*
X157293574Y-89229285D01*
X157322145Y-89257857D01*
X157350717Y-89315000D01*
X157350717Y-89543571D01*
X157093574Y-88972142D02*
X157065003Y-88943571D01*
X157036431Y-88886428D01*
X157036431Y-88743571D01*
X157065003Y-88686428D01*
X157093574Y-88657857D01*
X157150717Y-88629285D01*
X157207860Y-88629285D01*
X157293574Y-88657857D01*
X157636431Y-89000714D01*
X157636431Y-88629285D01*
X157093574Y-88400714D02*
X157065003Y-88372142D01*
X157036431Y-88315000D01*
X157036431Y-88172142D01*
X157065003Y-88115000D01*
X157093574Y-88086428D01*
X157150717Y-88057857D01*
X157207860Y-88057857D01*
X157293574Y-88086428D01*
X157636431Y-88429285D01*
X157636431Y-88057857D01*
%TO.C,R12*%
X130700000Y-89242936D02*
X130700000Y-93597064D01*
X127280000Y-89242936D02*
X127280000Y-93597064D01*
%TO.C,C56*%
X144487342Y-113578619D02*
X144487342Y-113362947D01*
X143767342Y-113578619D02*
X143767342Y-113362947D01*
%TO.C,R39*%
X154033641Y-78195001D02*
X153726359Y-78195001D01*
X154033641Y-78955001D02*
X153726359Y-78955001D01*
%TO.C,C52*%
X120917500Y-113396252D02*
X120917500Y-111973748D01*
X118197500Y-113396252D02*
X118197500Y-111973748D01*
%TO.C,U6*%
X134310000Y-106889999D02*
X134310000Y-103889999D01*
X129090000Y-106889999D02*
X129090000Y-100889999D01*
%TO.C,U8*%
X146857342Y-110270784D02*
X148757342Y-110270784D01*
X145857342Y-112510784D02*
X148757342Y-112510784D01*
%TO.C,C30*%
X156067500Y-83572165D02*
X156067500Y-83787837D01*
X156787500Y-83572165D02*
X156787500Y-83787837D01*
%TO.C,J3*%
X135510000Y-70800000D02*
X141570000Y-70800000D01*
X134510000Y-72920000D02*
X133450000Y-72920000D01*
X133450000Y-72920000D02*
X133450000Y-71860000D01*
X141570000Y-72920000D02*
X141570000Y-70800000D01*
X135510000Y-72920000D02*
X135510000Y-70800000D01*
X135510000Y-72920000D02*
X141570000Y-72920000D01*
%TO.C,R26*%
X153078332Y-101283859D02*
X153078332Y-101591141D01*
X152318332Y-101283859D02*
X152318332Y-101591141D01*
%TO.C,C41*%
X116298748Y-103505000D02*
X116821252Y-103505000D01*
X116298748Y-104975000D02*
X116821252Y-104975000D01*
%TO.C,R16*%
X137992258Y-94487500D02*
X137517742Y-94487500D01*
X137992258Y-95532500D02*
X137517742Y-95532500D01*
%TO.C,C14*%
X122946160Y-77550927D02*
X122423656Y-77550927D01*
X122946160Y-79020927D02*
X122423656Y-79020927D01*
%TO.C,U7*%
X122850001Y-106889999D02*
X122850001Y-100889999D01*
X128070001Y-106889999D02*
X128070001Y-103889999D01*
%TO.C,R19*%
X156620000Y-90456359D02*
X156620000Y-90763641D01*
X155860000Y-90456359D02*
X155860000Y-90763641D01*
D12*
%TO.C,C59*%
X120912164Y-92360000D02*
X121127836Y-92360000D01*
X120912164Y-93080000D02*
X121127836Y-93080000D01*
D10*
%TO.C,J6*%
X159820000Y-107750000D02*
X159820000Y-108810000D01*
X159820000Y-106750000D02*
X157700000Y-106750000D01*
X159820000Y-104690000D02*
X157700000Y-104690000D01*
X159820000Y-108810000D02*
X158760000Y-108810000D01*
X159820000Y-106750000D02*
X159820000Y-104690000D01*
X157700000Y-106750000D02*
X157700000Y-104690000D01*
%TO.C,C8*%
X126735000Y-89208749D02*
X126735000Y-89731253D01*
X125265000Y-89208749D02*
X125265000Y-89731253D01*
%TO.C,C43*%
X144135000Y-104928748D02*
X144135000Y-105451252D01*
X142665000Y-104928748D02*
X142665000Y-105451252D01*
%TO.C,R9*%
X133820000Y-87593641D02*
X133820000Y-87286359D01*
X133060000Y-87593641D02*
X133060000Y-87286359D01*
D12*
%TO.C,D1*%
X134900000Y-89580000D02*
X135550000Y-89580000D01*
X134900000Y-92700000D02*
X135550000Y-92700000D01*
X134900000Y-92700000D02*
X134250000Y-92700000D01*
X134900000Y-89580000D02*
X133225000Y-89580000D01*
D10*
%TO.C,C22*%
X139167836Y-97520000D02*
X138952164Y-97520000D01*
X139167836Y-96800000D02*
X138952164Y-96800000D01*
%TO.C,C19*%
X123264999Y-93681253D02*
X123264999Y-93158749D01*
X124734999Y-93681253D02*
X124734999Y-93158749D01*
%TO.C,LED3*%
X160715000Y-82760000D02*
G75*
G03*
X160715000Y-82760000I-50000J0D01*
G01*
%TO.C,C42*%
X153722163Y-83837500D02*
X153937835Y-83837500D01*
X153722163Y-84557500D02*
X153937835Y-84557500D01*
%TO.C,C37*%
X157850000Y-101327165D02*
X157850000Y-101542837D01*
X158570000Y-101327165D02*
X158570000Y-101542837D01*
%TO.C,LED4*%
X130040000Y-70679999D02*
G75*
G03*
X130040000Y-70679999I-50000J0D01*
G01*
%TO.C,R41*%
X143840982Y-109990785D02*
X143533700Y-109990785D01*
X143840982Y-109230785D02*
X143533700Y-109230785D01*
%TO.C,U1*%
X122884258Y-72417436D02*
X123359258Y-72417436D01*
X126104258Y-75637436D02*
X125629258Y-75637436D01*
X122884258Y-72892436D02*
X122884258Y-72417436D01*
X122884258Y-75162436D02*
X122884258Y-75637436D01*
X126104258Y-72892436D02*
X126104258Y-72417436D01*
X126104258Y-72417436D02*
X125629258Y-72417436D01*
X126104258Y-75162436D02*
X126104258Y-75637436D01*
%TO.C,R5*%
X143356359Y-88570000D02*
X143663641Y-88570000D01*
X143356359Y-87810000D02*
X143663641Y-87810000D01*
%TO.C,R7*%
X135022258Y-94072500D02*
X134547742Y-94072500D01*
X135022258Y-93027500D02*
X134547742Y-93027500D01*
%TO.C,L1*%
X120809999Y-78840000D02*
X119309999Y-78840000D01*
X116909999Y-73140000D02*
X115409999Y-73140000D01*
X119309999Y-73140000D02*
X120809999Y-73140000D01*
X115409999Y-73140000D02*
X115409999Y-78840000D01*
X120809999Y-73140000D02*
X120809999Y-78840000D01*
X115409999Y-78840000D02*
X116909999Y-78840000D01*
%TO.C,C36*%
X149680000Y-101329665D02*
X149680000Y-101545337D01*
X148960000Y-101329665D02*
X148960000Y-101545337D01*
%TO.C,R45*%
X143810983Y-111247450D02*
X143503701Y-111247450D01*
X143810983Y-110487450D02*
X143503701Y-110487450D01*
D12*
%TO.C,U10*%
X118890000Y-94020000D02*
X118890000Y-97020000D01*
X122110000Y-95520000D02*
X122110000Y-97020000D01*
D10*
%TO.C,C33*%
X143187836Y-80182500D02*
X142972164Y-80182500D01*
X143187836Y-80902500D02*
X142972164Y-80902500D01*
%TO.C,R40*%
X154033641Y-77095000D02*
X153726359Y-77095000D01*
X154033641Y-77855000D02*
X153726359Y-77855000D01*
%TO.C,J4*%
X160800000Y-86780000D02*
X158680000Y-86780000D01*
X160800000Y-87780000D02*
X160800000Y-88840000D01*
X160800000Y-88840000D02*
X159740000Y-88840000D01*
X160800000Y-84720000D02*
X158680000Y-84720000D01*
X160800000Y-86780000D02*
X160800000Y-84720000D01*
X158680000Y-86780000D02*
X158680000Y-84720000D01*
%TO.C,R37*%
X116332936Y-107045000D02*
X116787064Y-107045000D01*
X116332936Y-105575000D02*
X116787064Y-105575000D01*
%TO.C,R36*%
X140827064Y-107045000D02*
X140372936Y-107045000D01*
X140827064Y-105575000D02*
X140372936Y-105575000D01*
%TO.C,C1*%
X128801421Y-71827436D02*
X129017093Y-71827436D01*
X128801421Y-72547436D02*
X129017093Y-72547436D01*
%TO.C,R42*%
X146516299Y-109225883D02*
X146209017Y-109225883D01*
X146516299Y-109985883D02*
X146209017Y-109985883D01*
%TO.C,R11*%
X136780000Y-93173641D02*
X136780000Y-92866359D01*
X137540000Y-93173641D02*
X137540000Y-92866359D01*
%TO.C,C39*%
X140861252Y-104975000D02*
X140338748Y-104975000D01*
X140861252Y-103505000D02*
X140338748Y-103505000D01*
%TO.C,U2*%
X127440000Y-85130000D02*
X127440000Y-85930000D01*
X130560000Y-85130000D02*
X130560000Y-83330000D01*
X127440000Y-85130000D02*
X127440000Y-84330000D01*
X130560000Y-85130000D02*
X130560000Y-85930000D01*
%TO.C,C6*%
X123264999Y-85491253D02*
X123264999Y-84968749D01*
X124734999Y-85491253D02*
X124734999Y-84968749D01*
%TO.C,LED2*%
X160715000Y-75793432D02*
G75*
G03*
X160715000Y-75793432I-50000J0D01*
G01*
%TO.C,R30*%
X144900000Y-85836358D02*
X144900000Y-86143640D01*
X145660000Y-85836358D02*
X145660000Y-86143640D01*
D12*
%TO.C,U3*%
X143925001Y-89287211D02*
X142025001Y-89287211D01*
X142525001Y-91607211D02*
X143925001Y-91607211D01*
D10*
%TO.C,C46*%
X138425000Y-99628749D02*
X138425000Y-100151253D01*
X136955000Y-99628749D02*
X136955000Y-100151253D01*
%TO.C,R8*%
X131880000Y-85883641D02*
X131880000Y-85576359D01*
X131120000Y-85883641D02*
X131120000Y-85576359D01*
%TO.C,R33*%
X153726359Y-76030000D02*
X154033641Y-76030000D01*
X153726359Y-76790000D02*
X154033641Y-76790000D01*
%TO.C,C16*%
X137795000Y-93117836D02*
X137795000Y-92902164D01*
X138515000Y-93117836D02*
X138515000Y-92902164D01*
%TO.C,J5*%
X140550000Y-116185000D02*
X139240000Y-114885000D01*
X130130000Y-119005000D02*
X131440000Y-120305000D01*
X131440000Y-120305000D02*
X139240000Y-120305000D01*
X130130000Y-116185000D02*
X130130000Y-119005000D01*
X140550000Y-119005000D02*
X140550000Y-116185000D01*
X140550000Y-119005000D02*
X139240000Y-120305000D01*
X131440000Y-114885000D02*
X139240000Y-114885000D01*
X130130000Y-116185000D02*
X131440000Y-114885000D01*
%TO.C,C17*%
X133080000Y-85472164D02*
X133080000Y-85687836D01*
X133800000Y-85472164D02*
X133800000Y-85687836D01*
%TO.C,R34*%
X153726360Y-79320000D02*
X154033642Y-79320000D01*
X153726360Y-80080000D02*
X154033642Y-80080000D01*
%TO.C,C53*%
X124164999Y-113396252D02*
X124164999Y-111973748D01*
X121444999Y-113396252D02*
X121444999Y-111973748D01*
%TO.C,R10*%
X138933641Y-87860000D02*
X138626359Y-87860000D01*
X138933641Y-88620000D02*
X138626359Y-88620000D01*
%TO.C,C26*%
X143187836Y-77982500D02*
X142972164Y-77982500D01*
X143187836Y-78702500D02*
X142972164Y-78702500D01*
%TO.C,R25*%
X150045000Y-101283860D02*
X150045000Y-101591142D01*
X150805000Y-101283860D02*
X150805000Y-101591142D01*
%TO.C,R18*%
X142916359Y-81660001D02*
X143223641Y-81660001D01*
X142916359Y-82420001D02*
X143223641Y-82420001D01*
%TO.C,C20*%
X134644420Y-94510000D02*
X134925580Y-94510000D01*
X134644420Y-95530000D02*
X134925580Y-95530000D01*
%TO.C,C24*%
X143187836Y-76882501D02*
X142972164Y-76882501D01*
X143187836Y-77602501D02*
X142972164Y-77602501D01*
%TO.C,R17*%
X152917501Y-90793642D02*
X152917501Y-90486360D01*
X152157501Y-90793642D02*
X152157501Y-90486360D01*
%TO.C,R35*%
X153676359Y-82817500D02*
X153983641Y-82817500D01*
X153676359Y-83577500D02*
X153983641Y-83577500D01*
%TO.C,C3*%
X131140000Y-89687836D02*
X131140000Y-89472164D01*
X131860000Y-89687836D02*
X131860000Y-89472164D01*
%TO.C,R28*%
X157585000Y-101283860D02*
X157585000Y-101591142D01*
X156825000Y-101283860D02*
X156825000Y-101591142D01*
%TO.C,C9*%
X124735000Y-89188748D02*
X124735000Y-89711252D01*
X123265000Y-89188748D02*
X123265000Y-89711252D01*
%TO.C,C44*%
X113031567Y-104922892D02*
X113031567Y-105445396D01*
X114501567Y-104922892D02*
X114501567Y-105445396D01*
%TO.C,U9*%
X154667343Y-114345784D02*
X154667343Y-111045784D01*
X151367343Y-114345784D02*
X151367343Y-111045784D01*
X151717343Y-115045784D02*
G75*
G03*
X151717343Y-115045784I-100000J0D01*
G01*
%TO.C,C47*%
X134995000Y-99628749D02*
X134995000Y-100151253D01*
X136465000Y-99628749D02*
X136465000Y-100151253D01*
%TO.C,C40*%
X120695001Y-103551252D02*
X120695001Y-103028748D01*
X122165001Y-103551252D02*
X122165001Y-103028748D01*
%TO.C,C15*%
X131140000Y-83722164D02*
X131140000Y-83937836D01*
X131860000Y-83722164D02*
X131860000Y-83937836D01*
%TO.C,C23*%
X139167836Y-95860000D02*
X138952164Y-95860000D01*
X139167836Y-96580000D02*
X138952164Y-96580000D01*
%TO.C,C50*%
X120695000Y-99628749D02*
X120695000Y-100151253D01*
X122165000Y-99628749D02*
X122165000Y-100151253D01*
%TO.C,R44*%
X143503701Y-111550783D02*
X143810983Y-111550783D01*
X143503701Y-112310783D02*
X143810983Y-112310783D01*
D12*
%TO.C,C58*%
X127939997Y-113401252D02*
X127939997Y-111978748D01*
X130659997Y-113401252D02*
X130659997Y-111978748D01*
D10*
%TO.C,R13*%
X128762917Y-74189717D02*
X129070199Y-74189717D01*
X128762917Y-74949717D02*
X129070199Y-74949717D01*
%TO.C,C38*%
X134994999Y-103551252D02*
X134994999Y-103028748D01*
X136464999Y-103551252D02*
X136464999Y-103028748D01*
%TO.C,J7*%
X159820000Y-112810000D02*
X157700000Y-112810000D01*
X159820000Y-112810000D02*
X159820000Y-110750000D01*
X159820000Y-114870000D02*
X158760000Y-114870000D01*
X157700000Y-112810000D02*
X157700000Y-110750000D01*
X159820000Y-110750000D02*
X157700000Y-110750000D01*
X159820000Y-113810000D02*
X159820000Y-114870000D01*
%TO.C,C57*%
X148385178Y-112820783D02*
X148169506Y-112820783D01*
X148385178Y-113540783D02*
X148169506Y-113540783D01*
%TO.C,C7*%
X138615713Y-86917836D02*
X138615713Y-86702164D01*
X137895713Y-86917836D02*
X137895713Y-86702164D01*
%TO.C,R27*%
X156468330Y-101283860D02*
X156468330Y-101591142D01*
X155708330Y-101283860D02*
X155708330Y-101591142D01*
%TO.C,C28*%
X154184998Y-101329665D02*
X154184998Y-101545337D01*
X153464998Y-101329665D02*
X153464998Y-101545337D01*
%TO.C,U4*%
X151044999Y-94175000D02*
X151044999Y-93450000D01*
X156264999Y-98670000D02*
X155539999Y-98670000D01*
X156264999Y-93450000D02*
X155539999Y-93450000D01*
X156264999Y-97945000D02*
X156264999Y-98670000D01*
X156264999Y-94175000D02*
X156264999Y-93450000D01*
X151044999Y-93450000D02*
X151769999Y-93450000D01*
X151044999Y-97945000D02*
X151044999Y-98670000D01*
%TO.C,C32*%
X141880000Y-96582164D02*
X141880000Y-96797836D01*
X141160000Y-96582164D02*
X141160000Y-96797836D01*
%TO.C,C29*%
X143187835Y-79082499D02*
X142972163Y-79082499D01*
X143187835Y-79802499D02*
X142972163Y-79802499D01*
%TO.C,C2*%
X136340580Y-87150000D02*
X136059420Y-87150000D01*
X136340580Y-88170000D02*
X136059420Y-88170000D01*
%TO.C,C31*%
X158720000Y-90492164D02*
X158720000Y-90707836D01*
X158000000Y-90492164D02*
X158000000Y-90707836D01*
%TO.C,C54*%
X127412498Y-113396252D02*
X127412498Y-111973748D01*
X124692498Y-113396252D02*
X124692498Y-111973748D01*
%TO.C,R23*%
X140890000Y-96536359D02*
X140890000Y-96843641D01*
X140130000Y-96536359D02*
X140130000Y-96843641D01*
%TO.C,R4*%
X137606359Y-88840000D02*
X137913641Y-88840000D01*
X137606359Y-89600000D02*
X137913641Y-89600000D01*
%TO.C,R3*%
X134316359Y-88520000D02*
X134623641Y-88520000D01*
X134316359Y-89280000D02*
X134623641Y-89280000D01*
%TO.C,R6*%
X138900000Y-86646359D02*
X138900000Y-86953641D01*
X139660000Y-86646359D02*
X139660000Y-86953641D01*
%TO.C,C12*%
X126048005Y-79020927D02*
X126570509Y-79020927D01*
X126048005Y-77550927D02*
X126570509Y-77550927D01*
%TO.C,R31*%
X149780000Y-85838859D02*
X149780000Y-86146141D01*
X149020000Y-85838859D02*
X149020000Y-86146141D01*
%TO.C,C51*%
X117670001Y-113396253D02*
X117670001Y-111973749D01*
X114950001Y-113396253D02*
X114950001Y-111973749D01*
%TO.C,C34*%
X157787500Y-83572164D02*
X157787500Y-83787836D01*
X157067500Y-83572164D02*
X157067500Y-83787836D01*
%TO.C,R29*%
X154571664Y-101283860D02*
X154571664Y-101591142D01*
X155331664Y-101283860D02*
X155331664Y-101591142D01*
%TO.C,C13*%
X131860000Y-87522164D02*
X131860000Y-87737836D01*
X131140000Y-87522164D02*
X131140000Y-87737836D01*
%TO.C,R43*%
X142817342Y-113614424D02*
X142817342Y-113307142D01*
X143577342Y-113614424D02*
X143577342Y-113307142D01*
%TO.C,C25*%
X154522500Y-90335580D02*
X154522500Y-90054420D01*
X155542500Y-90335580D02*
X155542500Y-90054420D01*
%TO.C,C18*%
X113450000Y-77860580D02*
X113450000Y-77579420D01*
X112430000Y-77860580D02*
X112430000Y-77579420D01*
%TO.C,C35*%
X153252500Y-90772836D02*
X153252500Y-90557164D01*
X153972500Y-90772836D02*
X153972500Y-90557164D01*
%TO.C,C55*%
X148395177Y-109240782D02*
X148179505Y-109240782D01*
X148395177Y-109960782D02*
X148179505Y-109960782D01*
%TO.C,C48*%
X120205000Y-99628749D02*
X120205000Y-100151253D01*
X118735000Y-99628749D02*
X118735000Y-100151253D01*
%TO.C,J2*%
X150610000Y-70800000D02*
X144550000Y-70800000D01*
X150610000Y-72920000D02*
X144550000Y-72920000D01*
X152670000Y-70800000D02*
X152670000Y-71860000D01*
X144550000Y-70800000D02*
X144550000Y-72920000D01*
X150610000Y-70800000D02*
X150610000Y-72920000D01*
X151610000Y-70800000D02*
X152670000Y-70800000D01*
%TO.C,C21*%
X115060000Y-77860580D02*
X115060000Y-77579420D01*
X114040000Y-77860580D02*
X114040000Y-77579420D01*
%TO.C,C27*%
X155787500Y-83572165D02*
X155787500Y-83787837D01*
X155067500Y-83572165D02*
X155067500Y-83787837D01*
%TO.C,LED1*%
X160715000Y-79276716D02*
G75*
G03*
X160715000Y-79276716I-50000J0D01*
G01*
%TO.C,C45*%
X140385000Y-99628749D02*
X140385000Y-100151253D01*
X138915000Y-99628749D02*
X138915000Y-100151253D01*
%TO.C,D3*%
X125040000Y-95105000D02*
X126960000Y-95105000D01*
X126960000Y-95105000D02*
X126960000Y-92420000D01*
X125040000Y-92420000D02*
X125040000Y-95105000D01*
D13*
%TO.C,J1*%
X109250000Y-84530000D02*
X108100000Y-84530000D01*
X108100000Y-93470000D02*
X109250000Y-93470000D01*
X108100000Y-84530000D02*
X108100000Y-93470000D01*
D10*
%TO.C,R2*%
X131880000Y-93983641D02*
X131880000Y-93676359D01*
X131120000Y-93983641D02*
X131120000Y-93676359D01*
%TO.C,R14*%
X129070199Y-76032293D02*
X128762917Y-76032293D01*
X129070199Y-75272293D02*
X128762917Y-75272293D01*
%TO.C,R1*%
X128762917Y-73867139D02*
X129070199Y-73867139D01*
X128762917Y-73107139D02*
X129070199Y-73107139D01*
%TO.C,R38*%
X153726358Y-81180000D02*
X154033640Y-81180000D01*
X153726358Y-80420000D02*
X154033640Y-80420000D01*
%TO.C,R24*%
X151181666Y-101283860D02*
X151181666Y-101591142D01*
X151941666Y-101283860D02*
X151941666Y-101591142D01*
%TO.C,C5*%
X125270000Y-85491252D02*
X125270000Y-84968748D01*
X126740000Y-85491252D02*
X126740000Y-84968748D01*
%TO.C,C11*%
X124352093Y-69742434D02*
X124136421Y-69742434D01*
X124352093Y-70462434D02*
X124136421Y-70462434D01*
%TO.C,R20*%
X148443641Y-97750000D02*
X148136359Y-97750000D01*
X148443641Y-98510000D02*
X148136359Y-98510000D01*
%TO.C,R15*%
X134890000Y-85446359D02*
X134890000Y-85753641D01*
X134130000Y-85446359D02*
X134130000Y-85753641D01*
%TO.C,C4*%
X129372164Y-82460000D02*
X129587836Y-82460000D01*
X129372164Y-81740000D02*
X129587836Y-81740000D01*
%TO.C,L2*%
X148557500Y-88270000D02*
X148557500Y-91270000D01*
X151757500Y-88270000D02*
X151757500Y-91270000D01*
%TO.C,R32*%
X146050000Y-85836359D02*
X146050000Y-86143641D01*
X146810000Y-85836359D02*
X146810000Y-86143641D01*
%TO.C,U5*%
X145870000Y-77982500D02*
X146295000Y-77982500D01*
X151090000Y-82777500D02*
X151090000Y-83202500D01*
X145870000Y-78407500D02*
X145870000Y-77982500D01*
X145870000Y-82777500D02*
X145870000Y-83202500D01*
X151090000Y-77982500D02*
X150665000Y-77982500D01*
X151090000Y-83202500D02*
X150665000Y-83202500D01*
X151090000Y-78407500D02*
X151090000Y-77982500D01*
%TO.C,D2*%
X138850000Y-89780000D02*
X138850000Y-91810000D01*
X138850000Y-89780000D02*
X139510000Y-89780000D01*
X140510000Y-89780000D02*
X141170000Y-89780000D01*
X141170000Y-91190000D02*
X141170000Y-89780000D01*
%TO.C,C49*%
X116775000Y-99628749D02*
X116775000Y-100151253D01*
X118245000Y-99628749D02*
X118245000Y-100151253D01*
%TO.C,R21*%
X142916359Y-82760000D02*
X143223641Y-82760000D01*
X142916359Y-83520000D02*
X143223641Y-83520000D01*
%TO.C,NCP15XW153J03RC1*%
X128973095Y-108133141D02*
X128973095Y-107825859D01*
X128213095Y-108133141D02*
X128213095Y-107825859D01*
%TO.C,C10*%
X134644420Y-97000000D02*
X134925580Y-97000000D01*
X134644420Y-95980000D02*
X134925580Y-95980000D01*
%TO.C,R22*%
X156980002Y-90456359D02*
X156980002Y-90763641D01*
X157740002Y-90456359D02*
X157740002Y-90763641D01*
%TD*%
M02*
