G04 #@! TF.GenerationSoftware,KiCad,Pcbnew,(5.99.0-12889-g70df3822b5)*
G04 #@! TF.CreationDate,2021-11-21T20:47:17+08:00*
G04 #@! TF.ProjectId,WirelessPower,57697265-6c65-4737-9350-6f7765722e6b,rev?*
G04 #@! TF.SameCoordinates,Original*
G04 #@! TF.FileFunction,Copper,L3,Inr*
G04 #@! TF.FilePolarity,Positive*
%FSLAX46Y46*%
G04 Gerber Fmt 4.6, Leading zero omitted, Abs format (unit mm)*
G04 Created by KiCad (PCBNEW (5.99.0-12889-g70df3822b5)) date 2021-11-21 20:47:17*
%MOMM*%
%LPD*%
G01*
G04 APERTURE LIST*
G04 #@! TA.AperFunction,ComponentPad*
%ADD10R,1.700000X1.700000*%
G04 #@! TD*
G04 #@! TA.AperFunction,ComponentPad*
%ADD11O,1.700000X1.700000*%
G04 #@! TD*
G04 #@! TA.AperFunction,ComponentPad*
%ADD12C,1.400000*%
G04 #@! TD*
G04 #@! TA.AperFunction,ComponentPad*
%ADD13O,1.400000X1.400000*%
G04 #@! TD*
G04 #@! TA.AperFunction,ViaPad*
%ADD14C,0.500000*%
G04 #@! TD*
G04 #@! TA.AperFunction,ViaPad*
%ADD15C,0.450000*%
G04 #@! TD*
G04 #@! TA.AperFunction,Conductor*
%ADD16C,1.000000*%
G04 #@! TD*
G04 #@! TA.AperFunction,Conductor*
%ADD17C,0.500000*%
G04 #@! TD*
G04 #@! TA.AperFunction,Conductor*
%ADD18C,0.600000*%
G04 #@! TD*
G04 #@! TA.AperFunction,Conductor*
%ADD19C,0.800000*%
G04 #@! TD*
G04 APERTURE END LIST*
D10*
G04 #@! TO.N,BAT+*
G04 #@! TO.C,J5*
X135250000Y-121090000D03*
D11*
G04 #@! TO.N,BAT-*
X137790000Y-121090000D03*
G04 #@! TD*
D12*
G04 #@! TO.N,Net-(C15-Pad2)*
G04 #@! TO.C,J6*
X171410000Y-111140000D03*
D13*
G04 #@! TO.N,Net-(C1-Pad1)*
X168870000Y-111140000D03*
G04 #@! TD*
D12*
G04 #@! TO.N,Net-(TH1-Pad1)*
G04 #@! TO.C,TH1*
X174010000Y-121180000D03*
D13*
G04 #@! TO.N,GND*
X174010000Y-118640000D03*
G04 #@! TD*
D12*
G04 #@! TO.N,Net-(TH2-Pad1)*
G04 #@! TO.C,TH2*
X152490000Y-112060000D03*
D13*
G04 #@! TO.N,GND*
X155030000Y-112060000D03*
G04 #@! TD*
D14*
G04 #@! TO.N,GND*
X153970000Y-116060000D03*
X152970000Y-122540000D03*
X135570000Y-74270000D03*
D15*
X164040000Y-118280000D03*
X164640000Y-118280000D03*
X163440000Y-118880000D03*
X164040000Y-118880000D03*
X164640000Y-118880000D03*
X163440000Y-119480000D03*
X164040000Y-119480000D03*
X164640000Y-119480000D03*
X163440000Y-120080000D03*
X164040000Y-120080000D03*
X164640000Y-120080000D03*
X163440000Y-120680000D03*
X164040000Y-120680000D03*
X164640000Y-120680000D03*
D14*
X147130000Y-118430000D03*
X148130000Y-118430000D03*
X149130000Y-118430000D03*
X146130000Y-119430000D03*
X147130000Y-119430000D03*
X148130000Y-119430000D03*
X149130000Y-119430000D03*
X146130000Y-120430000D03*
X147130000Y-120430000D03*
X148130000Y-120430000D03*
X149130000Y-120430000D03*
X146130000Y-121430000D03*
X147130000Y-121430000D03*
X148130000Y-121430000D03*
X149130000Y-121430000D03*
X147130000Y-122420000D03*
X146130000Y-122420000D03*
X149130000Y-122420000D03*
X148130000Y-122420000D03*
X145110000Y-120430000D03*
X145110000Y-121430000D03*
X145110000Y-122420000D03*
X153970000Y-122540000D03*
X154970000Y-122540000D03*
X155970000Y-122540000D03*
X156970000Y-122540000D03*
X157970000Y-122540000D03*
X158970000Y-122540000D03*
D15*
X163440000Y-118280000D03*
D14*
X137570000Y-74270000D03*
X139570000Y-74270000D03*
X141570000Y-74270000D03*
X143570000Y-74270000D03*
X145570000Y-74270000D03*
X147570000Y-74270000D03*
X149570000Y-74270000D03*
X151570000Y-74270000D03*
X153570000Y-74270000D03*
X155570000Y-74270000D03*
X157570000Y-74270000D03*
X159570000Y-74270000D03*
X161570000Y-74270000D03*
X163570000Y-74270000D03*
X165570000Y-74270000D03*
X167570000Y-74270000D03*
X169570000Y-74270000D03*
X171570000Y-74270000D03*
X173570000Y-74270000D03*
X175570000Y-74270000D03*
X177570000Y-74270000D03*
X179570000Y-74270000D03*
X181570000Y-74270000D03*
X183570000Y-74270000D03*
X183570000Y-76270000D03*
X181570000Y-76270000D03*
X179570000Y-76270000D03*
X177570000Y-76270000D03*
X175570000Y-76270000D03*
X173570000Y-76270000D03*
X171570000Y-76270000D03*
X169570000Y-76270000D03*
X167570000Y-76270000D03*
X165570000Y-76270000D03*
X163570000Y-76270000D03*
X161570000Y-76270000D03*
X159570000Y-76270000D03*
X157570000Y-76270000D03*
X155570000Y-76270000D03*
X153570000Y-76270000D03*
X151570000Y-76270000D03*
X149570000Y-76270000D03*
X147570000Y-76270000D03*
X145570000Y-76270000D03*
X143570000Y-76270000D03*
X141570000Y-76270000D03*
X139570000Y-76270000D03*
X137570000Y-76270000D03*
X135570000Y-76270000D03*
X135570000Y-78270000D03*
X137570000Y-78270000D03*
X139570000Y-78270000D03*
X141570000Y-78270000D03*
X143570000Y-78270000D03*
X145570000Y-78270000D03*
X147570000Y-78270000D03*
X149570000Y-78270000D03*
X151570000Y-78270000D03*
X153570000Y-78270000D03*
X155570000Y-78270000D03*
X157570000Y-78270000D03*
X159570000Y-78270000D03*
X161570000Y-78270000D03*
X163570000Y-78270000D03*
X165570000Y-78270000D03*
X167570000Y-78270000D03*
X169570000Y-78270000D03*
X171570000Y-78270000D03*
X173570000Y-78270000D03*
X175570000Y-78270000D03*
X177570000Y-78270000D03*
X179570000Y-78270000D03*
X181570000Y-78270000D03*
X183570000Y-78270000D03*
X183570000Y-80270000D03*
X181570000Y-80270000D03*
X179570000Y-80270000D03*
X177570000Y-80270000D03*
X175570000Y-80270000D03*
X173570000Y-80270000D03*
X171570000Y-80270000D03*
X169570000Y-80270000D03*
X167570000Y-80270000D03*
X165570000Y-80270000D03*
X163570000Y-80270000D03*
X161570000Y-80270000D03*
X159570000Y-80270000D03*
X157570000Y-80270000D03*
X155570000Y-80270000D03*
X153570000Y-80270000D03*
X151570000Y-80270000D03*
X149570000Y-80270000D03*
X147570000Y-80270000D03*
X145570000Y-80270000D03*
X143570000Y-80270000D03*
X141570000Y-80270000D03*
X139570000Y-80270000D03*
X137570000Y-80270000D03*
X135570000Y-80270000D03*
X135570000Y-82270000D03*
X137570000Y-82270000D03*
X139570000Y-82270000D03*
X141570000Y-82270000D03*
X143570000Y-82270000D03*
X145570000Y-82270000D03*
X147570000Y-82270000D03*
X149570000Y-82270000D03*
X151570000Y-82270000D03*
X153570000Y-82270000D03*
X155570000Y-82270000D03*
X159570000Y-82270000D03*
X165570000Y-82270000D03*
X169570000Y-82270000D03*
X171570000Y-82270000D03*
X173570000Y-82270000D03*
X175570000Y-82270000D03*
X177570000Y-82270000D03*
X179570000Y-82270000D03*
X181570000Y-82270000D03*
X183570000Y-82270000D03*
X183570000Y-84270000D03*
X181570000Y-84270000D03*
X179570000Y-84270000D03*
X177570000Y-84270000D03*
X175570000Y-84270000D03*
X173570000Y-84270000D03*
X169570000Y-84270000D03*
X165570000Y-84270000D03*
X159570000Y-84270000D03*
X155570000Y-84270000D03*
X151570000Y-84270000D03*
X149570000Y-84270000D03*
X147570000Y-84270000D03*
X145570000Y-84270000D03*
X143570000Y-84270000D03*
X141570000Y-84270000D03*
X139570000Y-84270000D03*
X137570000Y-84270000D03*
X135570000Y-84270000D03*
X135570000Y-86270000D03*
X137570000Y-86270000D03*
X139570000Y-86270000D03*
X141570000Y-86270000D03*
X143570000Y-86270000D03*
X145570000Y-86270000D03*
X147570000Y-86270000D03*
X149570000Y-86270000D03*
X151570000Y-86270000D03*
X155570000Y-86270000D03*
X159570000Y-86270000D03*
X165570000Y-86270000D03*
X169570000Y-86270000D03*
X173570000Y-86270000D03*
X175570000Y-86270000D03*
X177570000Y-86270000D03*
X179570000Y-86270000D03*
X181570000Y-86270000D03*
X183570000Y-86270000D03*
X183570000Y-88270000D03*
X181570000Y-88270000D03*
X179570000Y-88270000D03*
X177570000Y-88270000D03*
X147570000Y-88270000D03*
X145570000Y-88270000D03*
X143570000Y-88270000D03*
X141570000Y-88270000D03*
X139570000Y-88270000D03*
X137570000Y-88270000D03*
X135570000Y-88270000D03*
X135570000Y-90270000D03*
X137570000Y-90270000D03*
X139570000Y-90270000D03*
X141570000Y-90270000D03*
X143570000Y-90270000D03*
X145570000Y-90270000D03*
X147570000Y-90270000D03*
X149570000Y-90270000D03*
X151570000Y-90270000D03*
X173570000Y-90270000D03*
X175570000Y-90270000D03*
X177570000Y-90270000D03*
X179570000Y-90270000D03*
X181570000Y-90270000D03*
X183570000Y-90270000D03*
X183570000Y-92270000D03*
X181570000Y-92270000D03*
X179570000Y-92270000D03*
X145570000Y-92270000D03*
X143570000Y-92270000D03*
X141570000Y-92270000D03*
X139570000Y-92270000D03*
X137570000Y-92270000D03*
X135570000Y-92270000D03*
X135570000Y-94270000D03*
X137570000Y-94270000D03*
X139570000Y-94270000D03*
X141570000Y-94270000D03*
X143570000Y-94270000D03*
X145570000Y-94270000D03*
X147570000Y-94270000D03*
X149570000Y-94270000D03*
X151570000Y-94270000D03*
X173570000Y-94270000D03*
X175570000Y-94270000D03*
X177570000Y-94270000D03*
X179570000Y-94270000D03*
X181570000Y-94270000D03*
X183570000Y-94270000D03*
X183570000Y-96270000D03*
X181570000Y-96270000D03*
X179570000Y-96270000D03*
X145570000Y-96270000D03*
X143570000Y-96270000D03*
X141570000Y-96270000D03*
X139570000Y-96270000D03*
X137570000Y-96270000D03*
X135570000Y-96270000D03*
X135570000Y-98270000D03*
X137570000Y-98270000D03*
X139570000Y-98270000D03*
X141570000Y-98270000D03*
X143570000Y-98270000D03*
X145570000Y-98270000D03*
X147570000Y-98270000D03*
X149570000Y-98270000D03*
X151570000Y-98270000D03*
X173570000Y-98270000D03*
X175570000Y-98270000D03*
X177570000Y-98270000D03*
X179570000Y-98270000D03*
X181570000Y-98270000D03*
X183570000Y-98270000D03*
X183570000Y-100270000D03*
X181570000Y-100270000D03*
X179570000Y-100270000D03*
X145570000Y-100270000D03*
X143570000Y-100270000D03*
X141570000Y-100270000D03*
X139570000Y-100270000D03*
X137570000Y-100270000D03*
X135570000Y-100270000D03*
X135570000Y-102270000D03*
X137570000Y-102270000D03*
X139570000Y-102270000D03*
X141570000Y-102270000D03*
X143570000Y-102270000D03*
X145570000Y-102270000D03*
X147570000Y-102270000D03*
X149570000Y-102270000D03*
X151570000Y-102270000D03*
X173570000Y-102270000D03*
X175570000Y-102270000D03*
X177570000Y-102270000D03*
X179570000Y-102270000D03*
X181570000Y-102270000D03*
X183570000Y-102270000D03*
X183570000Y-104270000D03*
X181570000Y-104270000D03*
X179570000Y-104270000D03*
X145570000Y-104270000D03*
X143570000Y-104270000D03*
X141570000Y-104270000D03*
X139570000Y-104270000D03*
X137570000Y-104270000D03*
X135570000Y-104270000D03*
X135570000Y-106270000D03*
X137570000Y-106270000D03*
X139570000Y-106270000D03*
X141570000Y-106270000D03*
X143570000Y-106270000D03*
X145570000Y-106270000D03*
X147570000Y-106270000D03*
X149570000Y-106270000D03*
X151570000Y-106270000D03*
X173570000Y-106270000D03*
X175570000Y-106270000D03*
X177570000Y-106270000D03*
X179570000Y-106270000D03*
X181570000Y-106270000D03*
X183570000Y-106270000D03*
X183570000Y-108270000D03*
X181570000Y-108270000D03*
X179570000Y-108270000D03*
X177570000Y-108270000D03*
X175570000Y-108270000D03*
X173570000Y-108270000D03*
X151570000Y-108270000D03*
X149570000Y-108270000D03*
X147570000Y-108270000D03*
X145570000Y-108270000D03*
X143570000Y-108270000D03*
X141570000Y-108270000D03*
X139570000Y-108270000D03*
X137570000Y-108270000D03*
X135570000Y-108270000D03*
X153570000Y-116560000D03*
X153970000Y-117060000D03*
X146130000Y-118430000D03*
D15*
G04 #@! TO.N,BAT+*
X179500000Y-118160000D03*
D14*
X140036250Y-124720000D03*
X141412500Y-124720000D03*
X142788750Y-124720000D03*
X144165000Y-124720000D03*
X145541250Y-124720000D03*
X146917500Y-124720000D03*
X148293750Y-124720000D03*
X149670000Y-124690000D03*
X144825000Y-124020000D03*
X147577500Y-124020000D03*
X150330000Y-123990000D03*
X148953750Y-124020000D03*
X146201250Y-124020000D03*
X142072500Y-124020000D03*
X139320000Y-124020000D03*
X143448750Y-124020000D03*
X140696250Y-124020000D03*
D15*
X180100000Y-118160000D03*
X180700000Y-118160000D03*
X179500000Y-118760000D03*
X180100000Y-118760000D03*
X180700000Y-118760000D03*
X179500000Y-119360000D03*
X180100000Y-119360000D03*
X180700000Y-119360000D03*
D14*
X137990000Y-124000000D03*
X138660000Y-124720000D03*
G04 #@! TO.N,Net-(C1-Pad2)*
X158450000Y-121040000D03*
X158450000Y-120475000D03*
X161860000Y-116660000D03*
X162450000Y-116660000D03*
X161860000Y-117255000D03*
X162450000Y-117255000D03*
X161860000Y-116065000D03*
X158450000Y-119910000D03*
X162450000Y-116065000D03*
G04 #@! TO.N,Net-(C1-Pad1)*
X157570000Y-82270000D03*
X161570000Y-82270000D03*
X163570000Y-82270000D03*
X167570000Y-82270000D03*
X171570000Y-84270000D03*
X167570000Y-84270000D03*
X163570000Y-84270000D03*
X161570000Y-84270000D03*
X157570000Y-84270000D03*
X153570000Y-84270000D03*
X153570000Y-86270000D03*
X157570000Y-86270000D03*
X161570000Y-86270000D03*
X163570000Y-86270000D03*
X167570000Y-86270000D03*
X171570000Y-86270000D03*
X175570000Y-88270000D03*
X173570000Y-88270000D03*
X171570000Y-88270000D03*
X169570000Y-88270000D03*
X167570000Y-88270000D03*
X165570000Y-88270000D03*
X163570000Y-88270000D03*
X161570000Y-88270000D03*
X159570000Y-88270000D03*
X157570000Y-88270000D03*
X155570000Y-88270000D03*
X153570000Y-88270000D03*
X151570000Y-88270000D03*
X149570000Y-88270000D03*
X153570000Y-90270000D03*
X155570000Y-90270000D03*
X157570000Y-90270000D03*
X159570000Y-90270000D03*
X161570000Y-90270000D03*
X163570000Y-90270000D03*
X165570000Y-90270000D03*
X167570000Y-90270000D03*
X169570000Y-90270000D03*
X171570000Y-90270000D03*
X177570000Y-92270000D03*
X175570000Y-92270000D03*
X173570000Y-92270000D03*
X171570000Y-92270000D03*
X169570000Y-92270000D03*
X167570000Y-92270000D03*
X165570000Y-92270000D03*
X163570000Y-92270000D03*
X161570000Y-92270000D03*
X159570000Y-92270000D03*
X157570000Y-92270000D03*
X155570000Y-92270000D03*
X153570000Y-92270000D03*
X151570000Y-92270000D03*
X149570000Y-92270000D03*
X147570000Y-92270000D03*
X153570000Y-94270000D03*
X155570000Y-94270000D03*
X157570000Y-94270000D03*
X159570000Y-94270000D03*
X161570000Y-94270000D03*
X163570000Y-94270000D03*
X165570000Y-94270000D03*
X167570000Y-94270000D03*
X169570000Y-94270000D03*
X171570000Y-94270000D03*
X177570000Y-96270000D03*
X175570000Y-96270000D03*
X173570000Y-96270000D03*
X171570000Y-96270000D03*
X169570000Y-96270000D03*
X167570000Y-96270000D03*
X165570000Y-96270000D03*
X163570000Y-96270000D03*
X161570000Y-96270000D03*
X159570000Y-96270000D03*
X157570000Y-96270000D03*
X155570000Y-96270000D03*
X153570000Y-96270000D03*
X151570000Y-96270000D03*
X149570000Y-96270000D03*
X147570000Y-96270000D03*
X153570000Y-98270000D03*
X155570000Y-98270000D03*
X157570000Y-98270000D03*
X159570000Y-98270000D03*
X161570000Y-98270000D03*
X163570000Y-98270000D03*
X165570000Y-98270000D03*
X167570000Y-98270000D03*
X169570000Y-98270000D03*
X171570000Y-98270000D03*
X177570000Y-100270000D03*
X175570000Y-100270000D03*
X173570000Y-100270000D03*
X171570000Y-100270000D03*
X169570000Y-100270000D03*
X167570000Y-100270000D03*
X165570000Y-100270000D03*
X163570000Y-100270000D03*
X161570000Y-100270000D03*
X159570000Y-100270000D03*
X157570000Y-100270000D03*
X155570000Y-100270000D03*
X153570000Y-100270000D03*
X151570000Y-100270000D03*
X149570000Y-100270000D03*
X147570000Y-100270000D03*
X153570000Y-102270000D03*
X155570000Y-102270000D03*
X157570000Y-102270000D03*
X159570000Y-102270000D03*
X161570000Y-102270000D03*
X163570000Y-102270000D03*
X165570000Y-102270000D03*
X167570000Y-102270000D03*
X169570000Y-102270000D03*
X171570000Y-102270000D03*
X177570000Y-104270000D03*
X175570000Y-104270000D03*
X173570000Y-104270000D03*
X171570000Y-104270000D03*
X169570000Y-104270000D03*
X167570000Y-104270000D03*
X165570000Y-104270000D03*
X163570000Y-104270000D03*
X161570000Y-104270000D03*
X159570000Y-104270000D03*
X157570000Y-104270000D03*
X155570000Y-104270000D03*
X153570000Y-104270000D03*
X151570000Y-104270000D03*
X149570000Y-104270000D03*
X147570000Y-104270000D03*
X153570000Y-106270000D03*
X155570000Y-106270000D03*
X157570000Y-106270000D03*
X159570000Y-106270000D03*
X161570000Y-106270000D03*
X163570000Y-106270000D03*
X165570000Y-106270000D03*
X167570000Y-106270000D03*
X169570000Y-106270000D03*
X171570000Y-106270000D03*
X171570000Y-108270000D03*
X169570000Y-108270000D03*
X167570000Y-108270000D03*
X165570000Y-108270000D03*
X163570000Y-108270000D03*
X161570000Y-108270000D03*
X159570000Y-108270000D03*
X157570000Y-108270000D03*
X155570000Y-108270000D03*
X153570000Y-108270000D03*
G04 #@! TO.N,Net-(R1-Pad1)*
X170800000Y-119240000D03*
X167260000Y-120900000D03*
G04 #@! TO.N,BAT_ISET*
X176540000Y-114710000D03*
X152010000Y-115870000D03*
G04 #@! TO.N,Net-(TH1-Pad1)*
X166600000Y-121810000D03*
G04 #@! TO.N,Net-(TH2-Pad1)*
X151469993Y-117510007D03*
G04 #@! TO.N,Net-(U1-Pad2)*
X144830000Y-118760000D03*
X147535000Y-116970000D03*
D15*
G04 #@! TO.N,REG_power*
X160735000Y-118740000D03*
D14*
X179820000Y-115170000D03*
G04 #@! TO.N,REG_EN2*
X164820000Y-122310000D03*
X181350000Y-112710000D03*
G04 #@! TO.N,REG_EN1*
X163320000Y-122310000D03*
X182140000Y-113640000D03*
G04 #@! TO.N,REG_CHG*
X182920000Y-114330000D03*
X161400000Y-122460000D03*
G04 #@! TO.N,BAT_PG*
X175700000Y-115210000D03*
X157310000Y-115240000D03*
G04 #@! TO.N,BAT_CHG*
X174710000Y-115710000D03*
X150370000Y-117820000D03*
G04 #@! TO.N,Net-(C15-Pad2)*
X169680000Y-119940000D03*
X165440000Y-117220000D03*
X165990000Y-116620000D03*
X165440000Y-116620000D03*
X169680000Y-119230000D03*
X169680000Y-118520000D03*
X165990000Y-117220000D03*
G04 #@! TD*
D16*
G04 #@! TO.N,Net-(C1-Pad1)*
X154260000Y-88270000D02*
X154260000Y-108270000D01*
X154910000Y-88270000D02*
X154910000Y-108270000D01*
X156310000Y-88270000D02*
X156310000Y-108270000D01*
X156960000Y-88270000D02*
X156960000Y-108270000D01*
X158210000Y-88270000D02*
X158210000Y-108270000D01*
X158910000Y-88270000D02*
X158910000Y-108270000D01*
X160310000Y-88270000D02*
X160310000Y-108270000D01*
X160910000Y-88270000D02*
X160910000Y-108270000D01*
X162110000Y-88270000D02*
X162110000Y-108270000D01*
X162760000Y-88270000D02*
X162760000Y-108270000D01*
X164060000Y-88270000D02*
X164060000Y-108270000D01*
X164810000Y-88270000D02*
X164810000Y-108270000D01*
X166160000Y-88270000D02*
X166160000Y-108270000D01*
X166900000Y-88270000D02*
X166900000Y-108270000D01*
X168500000Y-88270000D02*
X168500000Y-108270000D01*
X169060000Y-88270000D02*
X169060000Y-108270000D01*
X170010000Y-108270000D02*
X170010000Y-88270000D01*
X170760000Y-108270000D02*
X170760000Y-88270000D01*
X171570000Y-92270000D02*
X177570000Y-92270000D01*
X175570000Y-104270000D02*
X177570000Y-104270000D01*
X153570000Y-90270000D02*
X171570000Y-90270000D01*
X153570000Y-100270000D02*
X147570000Y-100270000D01*
X161570000Y-108270000D02*
X161570000Y-88270000D01*
X175570000Y-104270000D02*
X171570000Y-104270000D01*
X167570000Y-82270000D02*
X167570000Y-88270000D01*
X153570000Y-100270000D02*
X171360000Y-100270000D01*
X161570000Y-82270000D02*
X161570000Y-88270000D01*
X167570000Y-88270000D02*
X167570000Y-108270000D01*
X171780000Y-100270000D02*
X171570000Y-100060000D01*
X171570000Y-96270000D02*
X177570000Y-96270000D01*
X153570000Y-106270000D02*
X171570000Y-106270000D01*
X171570000Y-108270000D02*
X171570000Y-100060000D01*
X153570000Y-104270000D02*
X149570000Y-104270000D01*
X171570000Y-100060000D02*
X171570000Y-88270000D01*
X153570000Y-92270000D02*
X171570000Y-92270000D01*
X155570000Y-88270000D02*
X155570000Y-108270000D01*
X159570000Y-108270000D02*
X159570000Y-88270000D01*
X153570000Y-98270000D02*
X171570000Y-98270000D01*
X175570000Y-88270000D02*
X171570000Y-88270000D01*
X153570000Y-108270000D02*
X171570000Y-108270000D01*
X171570000Y-94270000D02*
X153570000Y-94270000D01*
X171360000Y-100270000D02*
X171570000Y-100060000D01*
X171570000Y-84270000D02*
X171570000Y-88270000D01*
X153570000Y-88270000D02*
X171570000Y-88270000D01*
X153570000Y-88270000D02*
X153570000Y-84270000D01*
X169570000Y-108270000D02*
X169570000Y-88270000D01*
X171570000Y-96270000D02*
X153570000Y-96270000D01*
X153570000Y-88270000D02*
X149570000Y-88270000D01*
X153570000Y-88270000D02*
X153570000Y-108270000D01*
X177570000Y-100270000D02*
X171780000Y-100270000D01*
X163570000Y-88270000D02*
X163570000Y-108270000D01*
X147570000Y-96270000D02*
X153570000Y-96270000D01*
X153570000Y-92270000D02*
X147570000Y-92270000D01*
X149570000Y-104270000D02*
X147570000Y-104270000D01*
X171570000Y-104270000D02*
X153570000Y-104270000D01*
X157570000Y-88270000D02*
X157570000Y-82270000D01*
X163570000Y-88270000D02*
X163570000Y-82270000D01*
X171570000Y-102270000D02*
X153570000Y-102270000D01*
X157570000Y-88270000D02*
X157570000Y-108270000D01*
X165570000Y-108270000D02*
X165570000Y-88270000D01*
D17*
G04 #@! TO.N,Net-(R1-Pad1)*
X170230000Y-121190000D02*
X170800000Y-120620000D01*
X167260000Y-120900000D02*
X167550000Y-121190000D01*
X167550000Y-121190000D02*
X170230000Y-121190000D01*
X170800000Y-120620000D02*
X170800000Y-119240000D01*
D18*
G04 #@! TO.N,Net-(TH1-Pad1)*
X172860000Y-122330000D02*
X174010000Y-121180000D01*
X166600000Y-121810000D02*
X167120000Y-122330000D01*
X167120000Y-122330000D02*
X172860000Y-122330000D01*
G04 #@! TO.N,Net-(TH2-Pad1)*
X152490000Y-112060000D02*
X150820000Y-113730000D01*
X150820000Y-113730000D02*
X150820000Y-116860014D01*
X150820000Y-116860014D02*
X151469993Y-117510007D01*
D19*
G04 #@! TO.N,Net-(U1-Pad2)*
X144830000Y-117720000D02*
X145580000Y-116970000D01*
X145580000Y-116970000D02*
X147535000Y-116970000D01*
X144830000Y-118760000D02*
X144830000Y-117720000D01*
G04 #@! TD*
G04 #@! TA.AperFunction,Conductor*
G04 #@! TO.N,GND*
G36*
X182080223Y-70008906D02*
G01*
X182092036Y-70018995D01*
X184435335Y-72362294D01*
X184455055Y-72390458D01*
X184479432Y-72442734D01*
X184609953Y-72629139D01*
X184770861Y-72790047D01*
X184957266Y-72920568D01*
X184961176Y-72922391D01*
X184961179Y-72922393D01*
X185009542Y-72944945D01*
X185037706Y-72964665D01*
X187381004Y-75307963D01*
X187408781Y-75362480D01*
X187410000Y-75377967D01*
X187410001Y-120203360D01*
X187391094Y-120261551D01*
X187381005Y-120273364D01*
X185040193Y-122614176D01*
X185012028Y-122633896D01*
X184957266Y-122659432D01*
X184953723Y-122661913D01*
X184953721Y-122661914D01*
X184786711Y-122778855D01*
X184770861Y-122789953D01*
X184609953Y-122950861D01*
X184479432Y-123137266D01*
X184477602Y-123141191D01*
X184453896Y-123192028D01*
X184434176Y-123220193D01*
X182093365Y-125561004D01*
X182038848Y-125588781D01*
X182023361Y-125590000D01*
X169624020Y-125590000D01*
X139558159Y-125590001D01*
X139499968Y-125571094D01*
X139464004Y-125521594D01*
X139459160Y-125490566D01*
X139460700Y-125139788D01*
X139461307Y-125001661D01*
X139480470Y-124943555D01*
X139530127Y-124907809D01*
X139591312Y-124908078D01*
X139640653Y-124944259D01*
X139644353Y-124949780D01*
X139647014Y-124954054D01*
X139649855Y-124960510D01*
X139656287Y-124968162D01*
X139728350Y-125053892D01*
X139728353Y-125053894D01*
X139732889Y-125059291D01*
X139840310Y-125130796D01*
X139847038Y-125132898D01*
X139847040Y-125132899D01*
X139901897Y-125150037D01*
X139963483Y-125169278D01*
X140027994Y-125170461D01*
X140085452Y-125171514D01*
X140085454Y-125171514D01*
X140092505Y-125171643D01*
X140099308Y-125169788D01*
X140099310Y-125169788D01*
X140141078Y-125158400D01*
X140217005Y-125137700D01*
X140326974Y-125070179D01*
X140413572Y-124974507D01*
X140469838Y-124858375D01*
X140491247Y-124731120D01*
X140491383Y-124720000D01*
X140473089Y-124592259D01*
X140470169Y-124585836D01*
X140469118Y-124582243D01*
X140470933Y-124521085D01*
X140508350Y-124472673D01*
X140567076Y-124455501D01*
X140593662Y-124459962D01*
X140616746Y-124467174D01*
X140616751Y-124467175D01*
X140623483Y-124469278D01*
X140687994Y-124470460D01*
X140745452Y-124471514D01*
X140745454Y-124471514D01*
X140752505Y-124471643D01*
X140759308Y-124469788D01*
X140759310Y-124469788D01*
X140865607Y-124440808D01*
X140926722Y-124443744D01*
X140974439Y-124482041D01*
X140990533Y-124541072D01*
X140981260Y-124578399D01*
X140980251Y-124580547D01*
X140980250Y-124580552D01*
X140977254Y-124586932D01*
X140957401Y-124714440D01*
X140958316Y-124721437D01*
X140958316Y-124721438D01*
X140959582Y-124731120D01*
X140974133Y-124842394D01*
X140976971Y-124848845D01*
X140976972Y-124848847D01*
X141023264Y-124954054D01*
X141026105Y-124960510D01*
X141060697Y-125001662D01*
X141104600Y-125053892D01*
X141104603Y-125053894D01*
X141109139Y-125059291D01*
X141216560Y-125130796D01*
X141223288Y-125132898D01*
X141223290Y-125132899D01*
X141278147Y-125150037D01*
X141339733Y-125169278D01*
X141404244Y-125170461D01*
X141461702Y-125171514D01*
X141461704Y-125171514D01*
X141468755Y-125171643D01*
X141475558Y-125169788D01*
X141475560Y-125169788D01*
X141517328Y-125158400D01*
X141593255Y-125137700D01*
X141703224Y-125070179D01*
X141789822Y-124974507D01*
X141846088Y-124858375D01*
X141867497Y-124731120D01*
X141867633Y-124720000D01*
X141849339Y-124592259D01*
X141846419Y-124585836D01*
X141845368Y-124582243D01*
X141847183Y-124521085D01*
X141884600Y-124472673D01*
X141943326Y-124455501D01*
X141969912Y-124459962D01*
X141992996Y-124467174D01*
X141993001Y-124467175D01*
X141999733Y-124469278D01*
X142064244Y-124470460D01*
X142121702Y-124471514D01*
X142121704Y-124471514D01*
X142128755Y-124471643D01*
X142135558Y-124469788D01*
X142135560Y-124469788D01*
X142241857Y-124440808D01*
X142302972Y-124443744D01*
X142350689Y-124482041D01*
X142366783Y-124541072D01*
X142357510Y-124578399D01*
X142356501Y-124580547D01*
X142356500Y-124580552D01*
X142353504Y-124586932D01*
X142333651Y-124714440D01*
X142334566Y-124721437D01*
X142334566Y-124721438D01*
X142335832Y-124731120D01*
X142350383Y-124842394D01*
X142353221Y-124848845D01*
X142353222Y-124848847D01*
X142399514Y-124954054D01*
X142402355Y-124960510D01*
X142436947Y-125001662D01*
X142480850Y-125053892D01*
X142480853Y-125053894D01*
X142485389Y-125059291D01*
X142592810Y-125130796D01*
X142599538Y-125132898D01*
X142599540Y-125132899D01*
X142654397Y-125150037D01*
X142715983Y-125169278D01*
X142780494Y-125170461D01*
X142837952Y-125171514D01*
X142837954Y-125171514D01*
X142845005Y-125171643D01*
X142851808Y-125169788D01*
X142851810Y-125169788D01*
X142893578Y-125158400D01*
X142969505Y-125137700D01*
X143079474Y-125070179D01*
X143166072Y-124974507D01*
X143222338Y-124858375D01*
X143243747Y-124731120D01*
X143243883Y-124720000D01*
X143225589Y-124592259D01*
X143222669Y-124585836D01*
X143221618Y-124582243D01*
X143223433Y-124521085D01*
X143260850Y-124472673D01*
X143319576Y-124455501D01*
X143346162Y-124459962D01*
X143369246Y-124467174D01*
X143369251Y-124467175D01*
X143375983Y-124469278D01*
X143440494Y-124470460D01*
X143497952Y-124471514D01*
X143497954Y-124471514D01*
X143505005Y-124471643D01*
X143511808Y-124469788D01*
X143511810Y-124469788D01*
X143618107Y-124440808D01*
X143679222Y-124443744D01*
X143726939Y-124482041D01*
X143743033Y-124541072D01*
X143733760Y-124578399D01*
X143732751Y-124580547D01*
X143732750Y-124580552D01*
X143729754Y-124586932D01*
X143709901Y-124714440D01*
X143710816Y-124721437D01*
X143710816Y-124721438D01*
X143712082Y-124731120D01*
X143726633Y-124842394D01*
X143729471Y-124848845D01*
X143729472Y-124848847D01*
X143775764Y-124954054D01*
X143778605Y-124960510D01*
X143813197Y-125001662D01*
X143857100Y-125053892D01*
X143857103Y-125053894D01*
X143861639Y-125059291D01*
X143969060Y-125130796D01*
X143975788Y-125132898D01*
X143975790Y-125132899D01*
X144030647Y-125150037D01*
X144092233Y-125169278D01*
X144156744Y-125170461D01*
X144214202Y-125171514D01*
X144214204Y-125171514D01*
X144221255Y-125171643D01*
X144228058Y-125169788D01*
X144228060Y-125169788D01*
X144269828Y-125158400D01*
X144345755Y-125137700D01*
X144455724Y-125070179D01*
X144542322Y-124974507D01*
X144598588Y-124858375D01*
X144619997Y-124731120D01*
X144620133Y-124720000D01*
X144601839Y-124592259D01*
X144598919Y-124585836D01*
X144597868Y-124582243D01*
X144599683Y-124521085D01*
X144637100Y-124472673D01*
X144695826Y-124455501D01*
X144722412Y-124459962D01*
X144745496Y-124467174D01*
X144745501Y-124467175D01*
X144752233Y-124469278D01*
X144816744Y-124470460D01*
X144874202Y-124471514D01*
X144874204Y-124471514D01*
X144881255Y-124471643D01*
X144888058Y-124469788D01*
X144888060Y-124469788D01*
X144994357Y-124440808D01*
X145055472Y-124443744D01*
X145103189Y-124482041D01*
X145119283Y-124541072D01*
X145110010Y-124578399D01*
X145109001Y-124580547D01*
X145109000Y-124580552D01*
X145106004Y-124586932D01*
X145086151Y-124714440D01*
X145087066Y-124721437D01*
X145087066Y-124721438D01*
X145088332Y-124731120D01*
X145102883Y-124842394D01*
X145105721Y-124848845D01*
X145105722Y-124848847D01*
X145152014Y-124954054D01*
X145154855Y-124960510D01*
X145189447Y-125001662D01*
X145233350Y-125053892D01*
X145233353Y-125053894D01*
X145237889Y-125059291D01*
X145345310Y-125130796D01*
X145352038Y-125132898D01*
X145352040Y-125132899D01*
X145406897Y-125150037D01*
X145468483Y-125169278D01*
X145532994Y-125170461D01*
X145590452Y-125171514D01*
X145590454Y-125171514D01*
X145597505Y-125171643D01*
X145604308Y-125169788D01*
X145604310Y-125169788D01*
X145646078Y-125158400D01*
X145722005Y-125137700D01*
X145831974Y-125070179D01*
X145918572Y-124974507D01*
X145974838Y-124858375D01*
X145996247Y-124731120D01*
X145996383Y-124720000D01*
X145978089Y-124592259D01*
X145975169Y-124585836D01*
X145974118Y-124582243D01*
X145975933Y-124521085D01*
X146013350Y-124472673D01*
X146072076Y-124455501D01*
X146098662Y-124459962D01*
X146121746Y-124467174D01*
X146121751Y-124467175D01*
X146128483Y-124469278D01*
X146192994Y-124470460D01*
X146250452Y-124471514D01*
X146250454Y-124471514D01*
X146257505Y-124471643D01*
X146264308Y-124469788D01*
X146264310Y-124469788D01*
X146370607Y-124440808D01*
X146431722Y-124443744D01*
X146479439Y-124482041D01*
X146495533Y-124541072D01*
X146486260Y-124578399D01*
X146485251Y-124580547D01*
X146485250Y-124580552D01*
X146482254Y-124586932D01*
X146462401Y-124714440D01*
X146463316Y-124721437D01*
X146463316Y-124721438D01*
X146464582Y-124731120D01*
X146479133Y-124842394D01*
X146481971Y-124848845D01*
X146481972Y-124848847D01*
X146528264Y-124954054D01*
X146531105Y-124960510D01*
X146565697Y-125001662D01*
X146609600Y-125053892D01*
X146609603Y-125053894D01*
X146614139Y-125059291D01*
X146721560Y-125130796D01*
X146728288Y-125132898D01*
X146728290Y-125132899D01*
X146783147Y-125150037D01*
X146844733Y-125169278D01*
X146909244Y-125170461D01*
X146966702Y-125171514D01*
X146966704Y-125171514D01*
X146973755Y-125171643D01*
X146980558Y-125169788D01*
X146980560Y-125169788D01*
X147022328Y-125158400D01*
X147098255Y-125137700D01*
X147208224Y-125070179D01*
X147294822Y-124974507D01*
X147351088Y-124858375D01*
X147372497Y-124731120D01*
X147372633Y-124720000D01*
X147354339Y-124592259D01*
X147351419Y-124585836D01*
X147350368Y-124582243D01*
X147352183Y-124521085D01*
X147389600Y-124472673D01*
X147448326Y-124455501D01*
X147474912Y-124459962D01*
X147497996Y-124467174D01*
X147498001Y-124467175D01*
X147504733Y-124469278D01*
X147569244Y-124470460D01*
X147626702Y-124471514D01*
X147626704Y-124471514D01*
X147633755Y-124471643D01*
X147640558Y-124469788D01*
X147640560Y-124469788D01*
X147746857Y-124440808D01*
X147807972Y-124443744D01*
X147855689Y-124482041D01*
X147871783Y-124541072D01*
X147862510Y-124578399D01*
X147861501Y-124580547D01*
X147861500Y-124580552D01*
X147858504Y-124586932D01*
X147838651Y-124714440D01*
X147839566Y-124721437D01*
X147839566Y-124721438D01*
X147840832Y-124731120D01*
X147855383Y-124842394D01*
X147858221Y-124848845D01*
X147858222Y-124848847D01*
X147904514Y-124954054D01*
X147907355Y-124960510D01*
X147941947Y-125001662D01*
X147985850Y-125053892D01*
X147985853Y-125053894D01*
X147990389Y-125059291D01*
X148097810Y-125130796D01*
X148104538Y-125132898D01*
X148104540Y-125132899D01*
X148159397Y-125150037D01*
X148220983Y-125169278D01*
X148285494Y-125170461D01*
X148342952Y-125171514D01*
X148342954Y-125171514D01*
X148350005Y-125171643D01*
X148356808Y-125169788D01*
X148356810Y-125169788D01*
X148398578Y-125158400D01*
X148474505Y-125137700D01*
X148584474Y-125070179D01*
X148671072Y-124974507D01*
X148727338Y-124858375D01*
X148748747Y-124731120D01*
X148748883Y-124720000D01*
X148730589Y-124592259D01*
X148727669Y-124585836D01*
X148726618Y-124582243D01*
X148728433Y-124521085D01*
X148765850Y-124472673D01*
X148824576Y-124455501D01*
X148851162Y-124459962D01*
X148874246Y-124467174D01*
X148874251Y-124467175D01*
X148880983Y-124469278D01*
X148945494Y-124470460D01*
X149002952Y-124471514D01*
X149002954Y-124471514D01*
X149010005Y-124471643D01*
X149016808Y-124469788D01*
X149016810Y-124469788D01*
X149111577Y-124443951D01*
X149172692Y-124446887D01*
X149220409Y-124485184D01*
X149236503Y-124544215D01*
X149234301Y-124556861D01*
X149234754Y-124556932D01*
X149214901Y-124684440D01*
X149215816Y-124691437D01*
X149215816Y-124691438D01*
X149217082Y-124701120D01*
X149231633Y-124812394D01*
X149234471Y-124818845D01*
X149234472Y-124818847D01*
X149280764Y-124924054D01*
X149283605Y-124930510D01*
X149303396Y-124954054D01*
X149362100Y-125023892D01*
X149362103Y-125023894D01*
X149366639Y-125029291D01*
X149474060Y-125100796D01*
X149480788Y-125102898D01*
X149480790Y-125102899D01*
X149535646Y-125120037D01*
X149597233Y-125139278D01*
X149661744Y-125140461D01*
X149719202Y-125141514D01*
X149719204Y-125141514D01*
X149726255Y-125141643D01*
X149733058Y-125139788D01*
X149733060Y-125139788D01*
X149780375Y-125126888D01*
X149850755Y-125107700D01*
X149960724Y-125040179D01*
X150032837Y-124960510D01*
X150042590Y-124949735D01*
X150042590Y-124949734D01*
X150047322Y-124944507D01*
X150103588Y-124828375D01*
X150114596Y-124762941D01*
X150124363Y-124704891D01*
X150124363Y-124704886D01*
X150124997Y-124701120D01*
X150125133Y-124690000D01*
X150106839Y-124562259D01*
X150103919Y-124555836D01*
X150102868Y-124552243D01*
X150104683Y-124491085D01*
X150142100Y-124442673D01*
X150200826Y-124425501D01*
X150227412Y-124429962D01*
X150250496Y-124437174D01*
X150250501Y-124437175D01*
X150257233Y-124439278D01*
X150321744Y-124440460D01*
X150379202Y-124441514D01*
X150379204Y-124441514D01*
X150386255Y-124441643D01*
X150393058Y-124439788D01*
X150393060Y-124439788D01*
X150445462Y-124425501D01*
X150510755Y-124407700D01*
X150620724Y-124340179D01*
X150678055Y-124276841D01*
X150702590Y-124249735D01*
X150702590Y-124249734D01*
X150707322Y-124244507D01*
X150763588Y-124128375D01*
X150774596Y-124062941D01*
X150784363Y-124004891D01*
X150784363Y-124004886D01*
X150784997Y-124001120D01*
X150785133Y-123990000D01*
X150766839Y-123862259D01*
X150729989Y-123781212D01*
X150716349Y-123751212D01*
X150716348Y-123751211D01*
X150713428Y-123744788D01*
X150629193Y-123647028D01*
X150623276Y-123643193D01*
X150623274Y-123643191D01*
X150526824Y-123580677D01*
X150520906Y-123576841D01*
X150514150Y-123574821D01*
X150514149Y-123574820D01*
X150466765Y-123560649D01*
X150397273Y-123539866D01*
X150320644Y-123539398D01*
X150275282Y-123539121D01*
X150268231Y-123539078D01*
X150261454Y-123541015D01*
X150261453Y-123541015D01*
X150150935Y-123572601D01*
X150150933Y-123572602D01*
X150144155Y-123574539D01*
X150035019Y-123643399D01*
X149949596Y-123740122D01*
X149894754Y-123856932D01*
X149874901Y-123984440D01*
X149875816Y-123991437D01*
X149875816Y-123991438D01*
X149877082Y-124001120D01*
X149891633Y-124112394D01*
X149894472Y-124118847D01*
X149896370Y-124125644D01*
X149894326Y-124126215D01*
X149899451Y-124177105D01*
X149868629Y-124229960D01*
X149812626Y-124254604D01*
X149774339Y-124250951D01*
X149744035Y-124241888D01*
X149744033Y-124241888D01*
X149737273Y-124239866D01*
X149660644Y-124239398D01*
X149615282Y-124239121D01*
X149608231Y-124239078D01*
X149601454Y-124241015D01*
X149601453Y-124241015D01*
X149512782Y-124266357D01*
X149451635Y-124264168D01*
X149403454Y-124226456D01*
X149386640Y-124167626D01*
X149387949Y-124154743D01*
X149408113Y-124034891D01*
X149408113Y-124034886D01*
X149408747Y-124031120D01*
X149408883Y-124020000D01*
X149390589Y-123892259D01*
X149337178Y-123774788D01*
X149252943Y-123677028D01*
X149247026Y-123673193D01*
X149247024Y-123673191D01*
X149150574Y-123610677D01*
X149144656Y-123606841D01*
X149137900Y-123604821D01*
X149137899Y-123604820D01*
X149095085Y-123592016D01*
X149021023Y-123569866D01*
X148944394Y-123569398D01*
X148899032Y-123569121D01*
X148891981Y-123569078D01*
X148885204Y-123571015D01*
X148885203Y-123571015D01*
X148774685Y-123602601D01*
X148774683Y-123602602D01*
X148767905Y-123604539D01*
X148658769Y-123673399D01*
X148573346Y-123770122D01*
X148518504Y-123886932D01*
X148498651Y-124014440D01*
X148499566Y-124021437D01*
X148499566Y-124021438D01*
X148500832Y-124031120D01*
X148515383Y-124142394D01*
X148518222Y-124148847D01*
X148520120Y-124155644D01*
X148518076Y-124156215D01*
X148523201Y-124207105D01*
X148492379Y-124259960D01*
X148436376Y-124284604D01*
X148398089Y-124280951D01*
X148367785Y-124271888D01*
X148367783Y-124271888D01*
X148361023Y-124269866D01*
X148284394Y-124269398D01*
X148239032Y-124269121D01*
X148231981Y-124269078D01*
X148225204Y-124271015D01*
X148225203Y-124271015D01*
X148126127Y-124299331D01*
X148064981Y-124297142D01*
X148016799Y-124259430D01*
X147999985Y-124200600D01*
X148007128Y-124171844D01*
X148005868Y-124171442D01*
X148008012Y-124164724D01*
X148011088Y-124158375D01*
X148032497Y-124031120D01*
X148032633Y-124020000D01*
X148014339Y-123892259D01*
X147960928Y-123774788D01*
X147876693Y-123677028D01*
X147870776Y-123673193D01*
X147870774Y-123673191D01*
X147774324Y-123610677D01*
X147768406Y-123606841D01*
X147761650Y-123604821D01*
X147761649Y-123604820D01*
X147718835Y-123592016D01*
X147644773Y-123569866D01*
X147568144Y-123569398D01*
X147522782Y-123569121D01*
X147515731Y-123569078D01*
X147508954Y-123571015D01*
X147508953Y-123571015D01*
X147398435Y-123602601D01*
X147398433Y-123602602D01*
X147391655Y-123604539D01*
X147282519Y-123673399D01*
X147197096Y-123770122D01*
X147142254Y-123886932D01*
X147122401Y-124014440D01*
X147123316Y-124021437D01*
X147123316Y-124021438D01*
X147124582Y-124031120D01*
X147139133Y-124142394D01*
X147141972Y-124148847D01*
X147143870Y-124155644D01*
X147141826Y-124156215D01*
X147146951Y-124207105D01*
X147116129Y-124259960D01*
X147060126Y-124284604D01*
X147021839Y-124280951D01*
X146991535Y-124271888D01*
X146991533Y-124271888D01*
X146984773Y-124269866D01*
X146908144Y-124269398D01*
X146862782Y-124269121D01*
X146855731Y-124269078D01*
X146848954Y-124271015D01*
X146848953Y-124271015D01*
X146749877Y-124299331D01*
X146688731Y-124297142D01*
X146640549Y-124259430D01*
X146623735Y-124200600D01*
X146630878Y-124171844D01*
X146629618Y-124171442D01*
X146631762Y-124164724D01*
X146634838Y-124158375D01*
X146656247Y-124031120D01*
X146656383Y-124020000D01*
X146638089Y-123892259D01*
X146584678Y-123774788D01*
X146500443Y-123677028D01*
X146494526Y-123673193D01*
X146494524Y-123673191D01*
X146398074Y-123610677D01*
X146392156Y-123606841D01*
X146385400Y-123604821D01*
X146385399Y-123604820D01*
X146342585Y-123592016D01*
X146268523Y-123569866D01*
X146191894Y-123569398D01*
X146146532Y-123569121D01*
X146139481Y-123569078D01*
X146132704Y-123571015D01*
X146132703Y-123571015D01*
X146022185Y-123602601D01*
X146022183Y-123602602D01*
X146015405Y-123604539D01*
X145906269Y-123673399D01*
X145820846Y-123770122D01*
X145766004Y-123886932D01*
X145746151Y-124014440D01*
X145747066Y-124021437D01*
X145747066Y-124021438D01*
X145748332Y-124031120D01*
X145762883Y-124142394D01*
X145765722Y-124148847D01*
X145767620Y-124155644D01*
X145765576Y-124156215D01*
X145770701Y-124207105D01*
X145739879Y-124259960D01*
X145683876Y-124284604D01*
X145645589Y-124280951D01*
X145615285Y-124271888D01*
X145615283Y-124271888D01*
X145608523Y-124269866D01*
X145531894Y-124269398D01*
X145486532Y-124269121D01*
X145479481Y-124269078D01*
X145472704Y-124271015D01*
X145472703Y-124271015D01*
X145373627Y-124299331D01*
X145312481Y-124297142D01*
X145264299Y-124259430D01*
X145247485Y-124200600D01*
X145254628Y-124171844D01*
X145253368Y-124171442D01*
X145255512Y-124164724D01*
X145258588Y-124158375D01*
X145279997Y-124031120D01*
X145280133Y-124020000D01*
X145261839Y-123892259D01*
X145208428Y-123774788D01*
X145124193Y-123677028D01*
X145118276Y-123673193D01*
X145118274Y-123673191D01*
X145021824Y-123610677D01*
X145015906Y-123606841D01*
X145009150Y-123604821D01*
X145009149Y-123604820D01*
X144966335Y-123592016D01*
X144892273Y-123569866D01*
X144815644Y-123569398D01*
X144770282Y-123569121D01*
X144763231Y-123569078D01*
X144756454Y-123571015D01*
X144756453Y-123571015D01*
X144645935Y-123602601D01*
X144645933Y-123602602D01*
X144639155Y-123604539D01*
X144530019Y-123673399D01*
X144444596Y-123770122D01*
X144389754Y-123886932D01*
X144369901Y-124014440D01*
X144370816Y-124021437D01*
X144370816Y-124021438D01*
X144372082Y-124031120D01*
X144386633Y-124142394D01*
X144389472Y-124148847D01*
X144391370Y-124155644D01*
X144389326Y-124156215D01*
X144394451Y-124207105D01*
X144363629Y-124259960D01*
X144307626Y-124284604D01*
X144269339Y-124280951D01*
X144239035Y-124271888D01*
X144239033Y-124271888D01*
X144232273Y-124269866D01*
X144155644Y-124269398D01*
X144110282Y-124269121D01*
X144103231Y-124269078D01*
X144096454Y-124271015D01*
X144096453Y-124271015D01*
X143997377Y-124299331D01*
X143936231Y-124297142D01*
X143888049Y-124259430D01*
X143871235Y-124200600D01*
X143878378Y-124171844D01*
X143877118Y-124171442D01*
X143879262Y-124164724D01*
X143882338Y-124158375D01*
X143903747Y-124031120D01*
X143903883Y-124020000D01*
X143885589Y-123892259D01*
X143832178Y-123774788D01*
X143747943Y-123677028D01*
X143742026Y-123673193D01*
X143742024Y-123673191D01*
X143645574Y-123610677D01*
X143639656Y-123606841D01*
X143632900Y-123604821D01*
X143632899Y-123604820D01*
X143590085Y-123592016D01*
X143516023Y-123569866D01*
X143439394Y-123569398D01*
X143394032Y-123569121D01*
X143386981Y-123569078D01*
X143380204Y-123571015D01*
X143380203Y-123571015D01*
X143269685Y-123602601D01*
X143269683Y-123602602D01*
X143262905Y-123604539D01*
X143153769Y-123673399D01*
X143068346Y-123770122D01*
X143013504Y-123886932D01*
X142993651Y-124014440D01*
X142994566Y-124021437D01*
X142994566Y-124021438D01*
X142995832Y-124031120D01*
X143010383Y-124142394D01*
X143013222Y-124148847D01*
X143015120Y-124155644D01*
X143013076Y-124156215D01*
X143018201Y-124207105D01*
X142987379Y-124259960D01*
X142931376Y-124284604D01*
X142893089Y-124280951D01*
X142862785Y-124271888D01*
X142862783Y-124271888D01*
X142856023Y-124269866D01*
X142779394Y-124269398D01*
X142734032Y-124269121D01*
X142726981Y-124269078D01*
X142720204Y-124271015D01*
X142720203Y-124271015D01*
X142621127Y-124299331D01*
X142559981Y-124297142D01*
X142511799Y-124259430D01*
X142494985Y-124200600D01*
X142502128Y-124171844D01*
X142500868Y-124171442D01*
X142503012Y-124164724D01*
X142506088Y-124158375D01*
X142527497Y-124031120D01*
X142527633Y-124020000D01*
X142509339Y-123892259D01*
X142455928Y-123774788D01*
X142371693Y-123677028D01*
X142365776Y-123673193D01*
X142365774Y-123673191D01*
X142269324Y-123610677D01*
X142263406Y-123606841D01*
X142256650Y-123604821D01*
X142256649Y-123604820D01*
X142213835Y-123592016D01*
X142139773Y-123569866D01*
X142063144Y-123569398D01*
X142017782Y-123569121D01*
X142010731Y-123569078D01*
X142003954Y-123571015D01*
X142003953Y-123571015D01*
X141893435Y-123602601D01*
X141893433Y-123602602D01*
X141886655Y-123604539D01*
X141777519Y-123673399D01*
X141692096Y-123770122D01*
X141637254Y-123886932D01*
X141617401Y-124014440D01*
X141618316Y-124021437D01*
X141618316Y-124021438D01*
X141619582Y-124031120D01*
X141634133Y-124142394D01*
X141636972Y-124148847D01*
X141638870Y-124155644D01*
X141636826Y-124156215D01*
X141641951Y-124207105D01*
X141611129Y-124259960D01*
X141555126Y-124284604D01*
X141516839Y-124280951D01*
X141486535Y-124271888D01*
X141486533Y-124271888D01*
X141479773Y-124269866D01*
X141403144Y-124269398D01*
X141357782Y-124269121D01*
X141350731Y-124269078D01*
X141343954Y-124271015D01*
X141343953Y-124271015D01*
X141244877Y-124299331D01*
X141183731Y-124297142D01*
X141135549Y-124259430D01*
X141118735Y-124200600D01*
X141125878Y-124171844D01*
X141124618Y-124171442D01*
X141126762Y-124164724D01*
X141129838Y-124158375D01*
X141151247Y-124031120D01*
X141151383Y-124020000D01*
X141133089Y-123892259D01*
X141079678Y-123774788D01*
X140995443Y-123677028D01*
X140989526Y-123673193D01*
X140989524Y-123673191D01*
X140893074Y-123610677D01*
X140887156Y-123606841D01*
X140880400Y-123604821D01*
X140880399Y-123604820D01*
X140837585Y-123592016D01*
X140763523Y-123569866D01*
X140686894Y-123569398D01*
X140641532Y-123569121D01*
X140634481Y-123569078D01*
X140627704Y-123571015D01*
X140627703Y-123571015D01*
X140517185Y-123602601D01*
X140517183Y-123602602D01*
X140510405Y-123604539D01*
X140401269Y-123673399D01*
X140315846Y-123770122D01*
X140261004Y-123886932D01*
X140241151Y-124014440D01*
X140242066Y-124021437D01*
X140242066Y-124021438D01*
X140243332Y-124031120D01*
X140257883Y-124142394D01*
X140260722Y-124148847D01*
X140262620Y-124155644D01*
X140260576Y-124156215D01*
X140265701Y-124207105D01*
X140234879Y-124259960D01*
X140178876Y-124284604D01*
X140140589Y-124280951D01*
X140110285Y-124271888D01*
X140110283Y-124271888D01*
X140103523Y-124269866D01*
X140026894Y-124269398D01*
X139981532Y-124269121D01*
X139974481Y-124269078D01*
X139967704Y-124271015D01*
X139967703Y-124271015D01*
X139868627Y-124299331D01*
X139807481Y-124297142D01*
X139759299Y-124259430D01*
X139742485Y-124200600D01*
X139749628Y-124171844D01*
X139748368Y-124171442D01*
X139750512Y-124164724D01*
X139753588Y-124158375D01*
X139774997Y-124031120D01*
X139775133Y-124020000D01*
X139756839Y-123892259D01*
X139703428Y-123774788D01*
X139619193Y-123677028D01*
X139613276Y-123673193D01*
X139613274Y-123673191D01*
X139512949Y-123608165D01*
X139474402Y-123560649D01*
X139467796Y-123524654D01*
X139470935Y-122810179D01*
X139472498Y-122454440D01*
X160944901Y-122454440D01*
X160945816Y-122461437D01*
X160945816Y-122461438D01*
X160947082Y-122471120D01*
X160961633Y-122582394D01*
X160964471Y-122588845D01*
X160964472Y-122588847D01*
X161010429Y-122693292D01*
X161013605Y-122700510D01*
X161032425Y-122722899D01*
X161092100Y-122793892D01*
X161092103Y-122793894D01*
X161096639Y-122799291D01*
X161204060Y-122870796D01*
X161210788Y-122872898D01*
X161210790Y-122872899D01*
X161265646Y-122890037D01*
X161327233Y-122909278D01*
X161391744Y-122910460D01*
X161449202Y-122911514D01*
X161449204Y-122911514D01*
X161456255Y-122911643D01*
X161463058Y-122909788D01*
X161463060Y-122909788D01*
X161504828Y-122898400D01*
X161580755Y-122877700D01*
X161680118Y-122816691D01*
X161684711Y-122813871D01*
X161690724Y-122810179D01*
X161726720Y-122770411D01*
X161772590Y-122719735D01*
X161772590Y-122719734D01*
X161777322Y-122714507D01*
X161833588Y-122598375D01*
X161854997Y-122471120D01*
X161855133Y-122460000D01*
X161836839Y-122332259D01*
X161824190Y-122304440D01*
X162864901Y-122304440D01*
X162865816Y-122311437D01*
X162865816Y-122311438D01*
X162867082Y-122321120D01*
X162881633Y-122432394D01*
X162884471Y-122438845D01*
X162884472Y-122438847D01*
X162900332Y-122474891D01*
X162933605Y-122550510D01*
X162965831Y-122588847D01*
X163012100Y-122643892D01*
X163012103Y-122643894D01*
X163016639Y-122649291D01*
X163124060Y-122720796D01*
X163130788Y-122722898D01*
X163130790Y-122722899D01*
X163185646Y-122740037D01*
X163247233Y-122759278D01*
X163311744Y-122760460D01*
X163369202Y-122761514D01*
X163369204Y-122761514D01*
X163376255Y-122761643D01*
X163383058Y-122759788D01*
X163383060Y-122759788D01*
X163426450Y-122747958D01*
X163500755Y-122727700D01*
X163610724Y-122660179D01*
X163629865Y-122639032D01*
X163692590Y-122569735D01*
X163692590Y-122569734D01*
X163697322Y-122564507D01*
X163744419Y-122467299D01*
X163750512Y-122454724D01*
X163750512Y-122454723D01*
X163753588Y-122448375D01*
X163773123Y-122332259D01*
X163774363Y-122324891D01*
X163774363Y-122324886D01*
X163774997Y-122321120D01*
X163775133Y-122310000D01*
X163774337Y-122304440D01*
X164364901Y-122304440D01*
X164365816Y-122311437D01*
X164365816Y-122311438D01*
X164367082Y-122321120D01*
X164381633Y-122432394D01*
X164384471Y-122438845D01*
X164384472Y-122438847D01*
X164400332Y-122474891D01*
X164433605Y-122550510D01*
X164465831Y-122588847D01*
X164512100Y-122643892D01*
X164512103Y-122643894D01*
X164516639Y-122649291D01*
X164624060Y-122720796D01*
X164630788Y-122722898D01*
X164630790Y-122722899D01*
X164685646Y-122740037D01*
X164747233Y-122759278D01*
X164811744Y-122760460D01*
X164869202Y-122761514D01*
X164869204Y-122761514D01*
X164876255Y-122761643D01*
X164883058Y-122759788D01*
X164883060Y-122759788D01*
X164926450Y-122747958D01*
X165000755Y-122727700D01*
X165110724Y-122660179D01*
X165129865Y-122639032D01*
X165192590Y-122569735D01*
X165192590Y-122569734D01*
X165197322Y-122564507D01*
X165244419Y-122467299D01*
X165250512Y-122454724D01*
X165250512Y-122454723D01*
X165253588Y-122448375D01*
X165273123Y-122332259D01*
X165274363Y-122324891D01*
X165274363Y-122324886D01*
X165274997Y-122321120D01*
X165275133Y-122310000D01*
X165256839Y-122182259D01*
X165203428Y-122064788D01*
X165119193Y-121967028D01*
X165113276Y-121963193D01*
X165113274Y-121963191D01*
X165016824Y-121900677D01*
X165010906Y-121896841D01*
X165004150Y-121894821D01*
X165004149Y-121894820D01*
X164961335Y-121882016D01*
X164887273Y-121859866D01*
X164810644Y-121859398D01*
X164765282Y-121859121D01*
X164758231Y-121859078D01*
X164751454Y-121861015D01*
X164751453Y-121861015D01*
X164640935Y-121892601D01*
X164640933Y-121892602D01*
X164634155Y-121894539D01*
X164525019Y-121963399D01*
X164439596Y-122060122D01*
X164384754Y-122176932D01*
X164364901Y-122304440D01*
X163774337Y-122304440D01*
X163756839Y-122182259D01*
X163703428Y-122064788D01*
X163619193Y-121967028D01*
X163613276Y-121963193D01*
X163613274Y-121963191D01*
X163516824Y-121900677D01*
X163510906Y-121896841D01*
X163504150Y-121894821D01*
X163504149Y-121894820D01*
X163461335Y-121882016D01*
X163387273Y-121859866D01*
X163310644Y-121859398D01*
X163265282Y-121859121D01*
X163258231Y-121859078D01*
X163251454Y-121861015D01*
X163251453Y-121861015D01*
X163140935Y-121892601D01*
X163140933Y-121892602D01*
X163134155Y-121894539D01*
X163025019Y-121963399D01*
X162939596Y-122060122D01*
X162884754Y-122176932D01*
X162864901Y-122304440D01*
X161824190Y-122304440D01*
X161783428Y-122214788D01*
X161730395Y-122153240D01*
X161703798Y-122122372D01*
X161703797Y-122122371D01*
X161699193Y-122117028D01*
X161693276Y-122113193D01*
X161693274Y-122113191D01*
X161596824Y-122050677D01*
X161590906Y-122046841D01*
X161584150Y-122044821D01*
X161584149Y-122044820D01*
X161541335Y-122032016D01*
X161467273Y-122009866D01*
X161390644Y-122009398D01*
X161345282Y-122009121D01*
X161338231Y-122009078D01*
X161331454Y-122011015D01*
X161331453Y-122011015D01*
X161220935Y-122042601D01*
X161220933Y-122042602D01*
X161214155Y-122044539D01*
X161105019Y-122113399D01*
X161019596Y-122210122D01*
X160964754Y-122326932D01*
X160944901Y-122454440D01*
X139472498Y-122454440D01*
X139475507Y-121769447D01*
X166095981Y-121769447D01*
X166096418Y-121776485D01*
X166103976Y-121898302D01*
X166104859Y-121912538D01*
X166124530Y-121967028D01*
X166140410Y-122011015D01*
X166153540Y-122047387D01*
X166157700Y-122053082D01*
X166157702Y-122053085D01*
X166216267Y-122133250D01*
X166216270Y-122133254D01*
X166218522Y-122136336D01*
X166718605Y-122636419D01*
X166726579Y-122646399D01*
X166726596Y-122646384D01*
X166731166Y-122651754D01*
X166734930Y-122657720D01*
X166740215Y-122662388D01*
X166740218Y-122662391D01*
X166775208Y-122693292D01*
X166779678Y-122697492D01*
X166791506Y-122709320D01*
X166800550Y-122716098D01*
X166806699Y-122721104D01*
X166842388Y-122752623D01*
X166851671Y-122756982D01*
X166868966Y-122767373D01*
X166877176Y-122773526D01*
X166883782Y-122776002D01*
X166883783Y-122776003D01*
X166921752Y-122790237D01*
X166929074Y-122793323D01*
X166965775Y-122810554D01*
X166965776Y-122810554D01*
X166972163Y-122813553D01*
X166982300Y-122815131D01*
X167001816Y-122820252D01*
X167004816Y-122821377D01*
X167004818Y-122821377D01*
X167011419Y-122823852D01*
X167058904Y-122827381D01*
X167066792Y-122828287D01*
X167077228Y-122829912D01*
X167077236Y-122829913D01*
X167081009Y-122830500D01*
X167097209Y-122830500D01*
X167104546Y-122830772D01*
X167154392Y-122834476D01*
X167161287Y-122833004D01*
X167161289Y-122833004D01*
X167162801Y-122832681D01*
X167183468Y-122830500D01*
X172792834Y-122830500D01*
X172805535Y-122831919D01*
X172805537Y-122831897D01*
X172812569Y-122832463D01*
X172819447Y-122834019D01*
X172873101Y-122830690D01*
X172879233Y-122830500D01*
X172895940Y-122830500D01*
X172899427Y-122830001D01*
X172899435Y-122830000D01*
X172907121Y-122828899D01*
X172915024Y-122828089D01*
X172955501Y-122825578D01*
X172955504Y-122825577D01*
X172962538Y-122825141D01*
X172969167Y-122822748D01*
X172969171Y-122822747D01*
X172972187Y-122821658D01*
X172991763Y-122816777D01*
X172992955Y-122816606D01*
X172994936Y-122816323D01*
X172994937Y-122816323D01*
X173001918Y-122815323D01*
X173008337Y-122812404D01*
X173008342Y-122812403D01*
X173045257Y-122795619D01*
X173052615Y-122792623D01*
X173066878Y-122787474D01*
X173097387Y-122776460D01*
X173105672Y-122770408D01*
X173123086Y-122760232D01*
X173132428Y-122755984D01*
X173148341Y-122742272D01*
X173168495Y-122724907D01*
X173174716Y-122719967D01*
X173176751Y-122718480D01*
X173186336Y-122711478D01*
X173197800Y-122700014D01*
X173203181Y-122695019D01*
X173235693Y-122667005D01*
X173235694Y-122667004D01*
X173241037Y-122662400D01*
X173245711Y-122655189D01*
X173258782Y-122639032D01*
X173796491Y-122101323D01*
X173851008Y-122073546D01*
X173887077Y-122074490D01*
X173910277Y-122079421D01*
X173910278Y-122079421D01*
X173915354Y-122080500D01*
X174104646Y-122080500D01*
X174260432Y-122047387D01*
X174284732Y-122042222D01*
X174284733Y-122042222D01*
X174289803Y-122041144D01*
X174294540Y-122039035D01*
X174457996Y-121966259D01*
X174457998Y-121966258D01*
X174462730Y-121964151D01*
X174615871Y-121852888D01*
X174619337Y-121849038D01*
X174619341Y-121849035D01*
X174739061Y-121716072D01*
X174742533Y-121712216D01*
X174764474Y-121674213D01*
X174834587Y-121552774D01*
X174834588Y-121552772D01*
X174837179Y-121548284D01*
X174847460Y-121516643D01*
X174894072Y-121373188D01*
X174894073Y-121373183D01*
X174895674Y-121368256D01*
X174915460Y-121180000D01*
X174914177Y-121167788D01*
X174902232Y-121054140D01*
X174895674Y-120991744D01*
X174894073Y-120986817D01*
X174894072Y-120986812D01*
X174838781Y-120816646D01*
X174838780Y-120816645D01*
X174837179Y-120811716D01*
X174830823Y-120800706D01*
X174745126Y-120652275D01*
X174745125Y-120652274D01*
X174742533Y-120647784D01*
X174690867Y-120590403D01*
X174619341Y-120510965D01*
X174619337Y-120510962D01*
X174615871Y-120507112D01*
X174462730Y-120395849D01*
X174457998Y-120393742D01*
X174457996Y-120393741D01*
X174294540Y-120320965D01*
X174294539Y-120320965D01*
X174289803Y-120318856D01*
X174284733Y-120317778D01*
X174284732Y-120317778D01*
X174247390Y-120309841D01*
X174104646Y-120279500D01*
X173915354Y-120279500D01*
X173772610Y-120309841D01*
X173735268Y-120317778D01*
X173735267Y-120317778D01*
X173730197Y-120318856D01*
X173725461Y-120320965D01*
X173725460Y-120320965D01*
X173562004Y-120393741D01*
X173562002Y-120393742D01*
X173557270Y-120395849D01*
X173404129Y-120507112D01*
X173400663Y-120510962D01*
X173400659Y-120510965D01*
X173329133Y-120590403D01*
X173277467Y-120647784D01*
X173274875Y-120652274D01*
X173274874Y-120652275D01*
X173189178Y-120800706D01*
X173182821Y-120811716D01*
X173181220Y-120816645D01*
X173181219Y-120816646D01*
X173125928Y-120986812D01*
X173125927Y-120986817D01*
X173124326Y-120991744D01*
X173117768Y-121054140D01*
X173105824Y-121167788D01*
X173104540Y-121180000D01*
X173105082Y-121185157D01*
X173118401Y-121311887D01*
X173105679Y-121371736D01*
X173089947Y-121392239D01*
X172681682Y-121800504D01*
X172627165Y-121828281D01*
X172611678Y-121829500D01*
X170331118Y-121829500D01*
X170272927Y-121810593D01*
X170236963Y-121761093D01*
X170236963Y-121699907D01*
X170272927Y-121650407D01*
X170316399Y-121632600D01*
X170356646Y-121626549D01*
X170363962Y-121625449D01*
X170370475Y-121622321D01*
X170377573Y-121621025D01*
X170429982Y-121593801D01*
X170432762Y-121592412D01*
X170479408Y-121570013D01*
X170479411Y-121570011D01*
X170486079Y-121566809D01*
X170490521Y-121562703D01*
X170492781Y-121561180D01*
X170497788Y-121558579D01*
X170502828Y-121554275D01*
X170540460Y-121516643D01*
X170543263Y-121513949D01*
X170580124Y-121479876D01*
X170580126Y-121479873D01*
X170585556Y-121474854D01*
X170589078Y-121468790D01*
X170595638Y-121461465D01*
X171095484Y-120961619D01*
X171104197Y-120953877D01*
X171126299Y-120936453D01*
X171132110Y-120931872D01*
X171140839Y-120919243D01*
X171165703Y-120883267D01*
X171167511Y-120880737D01*
X171198239Y-120839135D01*
X171198240Y-120839134D01*
X171202635Y-120833183D01*
X171205029Y-120826366D01*
X171209131Y-120820431D01*
X171211888Y-120811716D01*
X171221986Y-120779783D01*
X171226948Y-120764096D01*
X171227928Y-120761159D01*
X171245068Y-120712352D01*
X171245068Y-120712350D01*
X171247520Y-120705369D01*
X171247758Y-120699327D01*
X171248280Y-120696647D01*
X171249980Y-120691270D01*
X171250500Y-120684663D01*
X171250500Y-120631469D01*
X171250576Y-120627583D01*
X171252548Y-120577396D01*
X171252548Y-120577394D01*
X171252838Y-120570006D01*
X171251041Y-120563228D01*
X171250500Y-120553402D01*
X171250500Y-119286120D01*
X171251872Y-119269695D01*
X171254363Y-119254891D01*
X171254363Y-119254886D01*
X171254997Y-119251120D01*
X171255133Y-119240000D01*
X171252905Y-119224440D01*
X171250632Y-119208568D01*
X171250500Y-119207356D01*
X171250500Y-119206150D01*
X171246010Y-119176285D01*
X171245922Y-119175681D01*
X171242379Y-119150938D01*
X171236839Y-119112259D01*
X171236160Y-119110765D01*
X171235449Y-119106038D01*
X171208822Y-119050588D01*
X171207949Y-119048719D01*
X171186350Y-119001213D01*
X171186347Y-119001209D01*
X171183428Y-118994788D01*
X171180757Y-118991688D01*
X171180013Y-118990594D01*
X171176809Y-118983921D01*
X171137542Y-118941442D01*
X171135241Y-118938864D01*
X171108530Y-118907864D01*
X172831161Y-118907864D01*
X172869398Y-119050566D01*
X172872341Y-119058652D01*
X172958021Y-119242396D01*
X172962322Y-119249844D01*
X173078605Y-119415912D01*
X173084138Y-119422507D01*
X173227493Y-119565862D01*
X173234088Y-119571395D01*
X173400156Y-119687678D01*
X173407604Y-119691979D01*
X173591348Y-119777659D01*
X173599434Y-119780602D01*
X173740857Y-119818496D01*
X173753140Y-119817853D01*
X173756000Y-119808199D01*
X173756000Y-119806874D01*
X174264000Y-119806874D01*
X174267802Y-119818576D01*
X174277864Y-119818839D01*
X174420566Y-119780602D01*
X174428652Y-119777659D01*
X174612396Y-119691979D01*
X174619844Y-119687678D01*
X174785912Y-119571395D01*
X174792507Y-119565862D01*
X174935862Y-119422507D01*
X174941395Y-119415912D01*
X174980545Y-119360000D01*
X179069196Y-119360000D01*
X179090281Y-119493126D01*
X179093817Y-119500065D01*
X179093817Y-119500066D01*
X179143222Y-119597028D01*
X179151472Y-119613220D01*
X179246780Y-119708528D01*
X179253717Y-119712063D01*
X179253719Y-119712064D01*
X179359934Y-119766183D01*
X179366874Y-119769719D01*
X179374568Y-119770938D01*
X179374569Y-119770938D01*
X179456422Y-119783902D01*
X179490145Y-119789243D01*
X179492304Y-119789585D01*
X179500000Y-119790804D01*
X179507696Y-119789585D01*
X179509856Y-119789243D01*
X179543578Y-119783902D01*
X179625431Y-119770938D01*
X179625432Y-119770938D01*
X179633126Y-119769719D01*
X179753220Y-119708528D01*
X179754564Y-119711167D01*
X179800007Y-119696405D01*
X179845436Y-119711166D01*
X179846780Y-119708528D01*
X179966874Y-119769719D01*
X179974568Y-119770938D01*
X179974569Y-119770938D01*
X180056422Y-119783902D01*
X180090145Y-119789243D01*
X180092304Y-119789585D01*
X180100000Y-119790804D01*
X180107696Y-119789585D01*
X180109856Y-119789243D01*
X180143578Y-119783902D01*
X180225431Y-119770938D01*
X180225432Y-119770938D01*
X180233126Y-119769719D01*
X180353220Y-119708528D01*
X180354564Y-119711167D01*
X180400007Y-119696405D01*
X180445436Y-119711166D01*
X180446780Y-119708528D01*
X180566874Y-119769719D01*
X180574568Y-119770938D01*
X180574569Y-119770938D01*
X180656422Y-119783902D01*
X180690145Y-119789243D01*
X180692304Y-119789585D01*
X180700000Y-119790804D01*
X180707696Y-119789585D01*
X180709856Y-119789243D01*
X180743578Y-119783902D01*
X180825431Y-119770938D01*
X180825432Y-119770938D01*
X180833126Y-119769719D01*
X180840066Y-119766183D01*
X180946281Y-119712064D01*
X180946283Y-119712063D01*
X180953220Y-119708528D01*
X181048528Y-119613220D01*
X181056779Y-119597028D01*
X181106183Y-119500066D01*
X181106183Y-119500065D01*
X181109719Y-119493126D01*
X181130804Y-119360000D01*
X181115475Y-119263217D01*
X181110938Y-119234569D01*
X181110938Y-119234568D01*
X181109719Y-119226874D01*
X181097547Y-119202984D01*
X181048528Y-119106780D01*
X181051167Y-119105436D01*
X181036405Y-119059993D01*
X181051166Y-119014564D01*
X181048528Y-119013220D01*
X181106183Y-118900066D01*
X181106183Y-118900065D01*
X181109719Y-118893126D01*
X181111788Y-118880066D01*
X181126195Y-118789099D01*
X181130804Y-118760000D01*
X181114708Y-118658375D01*
X181110938Y-118634569D01*
X181110938Y-118634568D01*
X181109719Y-118626874D01*
X181099529Y-118606874D01*
X181048528Y-118506780D01*
X181051167Y-118505436D01*
X181036405Y-118459993D01*
X181051166Y-118414564D01*
X181048528Y-118413220D01*
X181106183Y-118300066D01*
X181106183Y-118300065D01*
X181109719Y-118293126D01*
X181112624Y-118274788D01*
X181129585Y-118167696D01*
X181130804Y-118160000D01*
X181122616Y-118108302D01*
X181110938Y-118034569D01*
X181110938Y-118034568D01*
X181109719Y-118026874D01*
X181106183Y-118019934D01*
X181052064Y-117913719D01*
X181052063Y-117913717D01*
X181048528Y-117906780D01*
X180953220Y-117811472D01*
X180946283Y-117807937D01*
X180946281Y-117807936D01*
X180840066Y-117753817D01*
X180840065Y-117753817D01*
X180833126Y-117750281D01*
X180825432Y-117749062D01*
X180825431Y-117749062D01*
X180707696Y-117730415D01*
X180700000Y-117729196D01*
X180692304Y-117730415D01*
X180574569Y-117749062D01*
X180574568Y-117749062D01*
X180566874Y-117750281D01*
X180559935Y-117753817D01*
X180559934Y-117753817D01*
X180536320Y-117765849D01*
X180446780Y-117811472D01*
X180445436Y-117808833D01*
X180399993Y-117823595D01*
X180354564Y-117808834D01*
X180353220Y-117811472D01*
X180240066Y-117753817D01*
X180240065Y-117753817D01*
X180233126Y-117750281D01*
X180225432Y-117749062D01*
X180225431Y-117749062D01*
X180107696Y-117730415D01*
X180100000Y-117729196D01*
X180092304Y-117730415D01*
X179974569Y-117749062D01*
X179974568Y-117749062D01*
X179966874Y-117750281D01*
X179959935Y-117753817D01*
X179959934Y-117753817D01*
X179936320Y-117765849D01*
X179846780Y-117811472D01*
X179845436Y-117808833D01*
X179799993Y-117823595D01*
X179754564Y-117808834D01*
X179753220Y-117811472D01*
X179640066Y-117753817D01*
X179640065Y-117753817D01*
X179633126Y-117750281D01*
X179625432Y-117749062D01*
X179625431Y-117749062D01*
X179507696Y-117730415D01*
X179500000Y-117729196D01*
X179492304Y-117730415D01*
X179374569Y-117749062D01*
X179374568Y-117749062D01*
X179366874Y-117750281D01*
X179359935Y-117753817D01*
X179359934Y-117753817D01*
X179253719Y-117807936D01*
X179253717Y-117807937D01*
X179246780Y-117811472D01*
X179151472Y-117906780D01*
X179147937Y-117913717D01*
X179147936Y-117913719D01*
X179093817Y-118019934D01*
X179090281Y-118026874D01*
X179089062Y-118034568D01*
X179089062Y-118034569D01*
X179077384Y-118108302D01*
X179069196Y-118160000D01*
X179070415Y-118167696D01*
X179087377Y-118274788D01*
X179090281Y-118293126D01*
X179093817Y-118300065D01*
X179093817Y-118300066D01*
X179151472Y-118413220D01*
X179148833Y-118414564D01*
X179163595Y-118460007D01*
X179148834Y-118505436D01*
X179151472Y-118506780D01*
X179100472Y-118606874D01*
X179090281Y-118626874D01*
X179089062Y-118634568D01*
X179089062Y-118634569D01*
X179085292Y-118658375D01*
X179069196Y-118760000D01*
X179073805Y-118789099D01*
X179088213Y-118880066D01*
X179090281Y-118893126D01*
X179093817Y-118900065D01*
X179093817Y-118900066D01*
X179151472Y-119013220D01*
X179148833Y-119014564D01*
X179163595Y-119060007D01*
X179148834Y-119105436D01*
X179151472Y-119106780D01*
X179102454Y-119202984D01*
X179090281Y-119226874D01*
X179089062Y-119234568D01*
X179089062Y-119234569D01*
X179084525Y-119263217D01*
X179069196Y-119360000D01*
X174980545Y-119360000D01*
X175057678Y-119249844D01*
X175061979Y-119242396D01*
X175147659Y-119058652D01*
X175150602Y-119050566D01*
X175188496Y-118909143D01*
X175187853Y-118896860D01*
X175178199Y-118894000D01*
X174279680Y-118894000D01*
X174266995Y-118898122D01*
X174264000Y-118902243D01*
X174264000Y-119806874D01*
X173756000Y-119806874D01*
X173756000Y-118909680D01*
X173751878Y-118896995D01*
X173747757Y-118894000D01*
X172843126Y-118894000D01*
X172831424Y-118897802D01*
X172831161Y-118907864D01*
X171108530Y-118907864D01*
X171103797Y-118902371D01*
X171103796Y-118902370D01*
X171099193Y-118897028D01*
X171093976Y-118893647D01*
X171091138Y-118890889D01*
X171089879Y-118889881D01*
X171084854Y-118884444D01*
X171038089Y-118857282D01*
X171033966Y-118854750D01*
X170996828Y-118830678D01*
X170996820Y-118830674D01*
X170990906Y-118826841D01*
X170984149Y-118824820D01*
X170978831Y-118822363D01*
X170975816Y-118820796D01*
X170974116Y-118820123D01*
X170967713Y-118816404D01*
X170918717Y-118805047D01*
X170912706Y-118803454D01*
X170874032Y-118791887D01*
X170874029Y-118791887D01*
X170867273Y-118789866D01*
X170860218Y-118789823D01*
X170853245Y-118788781D01*
X170853272Y-118788601D01*
X170845462Y-118787684D01*
X170842958Y-118787487D01*
X170835745Y-118785815D01*
X170789359Y-118789099D01*
X170781776Y-118789344D01*
X170749553Y-118789147D01*
X170745281Y-118789121D01*
X170738231Y-118789078D01*
X170731455Y-118791015D01*
X170731452Y-118791015D01*
X170731215Y-118791083D01*
X170710999Y-118794648D01*
X170710105Y-118794711D01*
X170708000Y-118794860D01*
X170707999Y-118794860D01*
X170700616Y-118795383D01*
X170693712Y-118798054D01*
X170660826Y-118810777D01*
X170652313Y-118813634D01*
X170614155Y-118824539D01*
X170604698Y-118830506D01*
X170587594Y-118839108D01*
X170574274Y-118844261D01*
X170555209Y-118859291D01*
X170543772Y-118868307D01*
X170535313Y-118874286D01*
X170505019Y-118893399D01*
X170500353Y-118898682D01*
X170500345Y-118898689D01*
X170495051Y-118904684D01*
X170482141Y-118916893D01*
X170467890Y-118928128D01*
X170463683Y-118934215D01*
X170447996Y-118956913D01*
X170440757Y-118966161D01*
X170424263Y-118984836D01*
X170424259Y-118984843D01*
X170419596Y-118990122D01*
X170414389Y-119001213D01*
X170411552Y-119007255D01*
X170403381Y-119021464D01*
X170395078Y-119033478D01*
X170395076Y-119033481D01*
X170390869Y-119039569D01*
X170381476Y-119069269D01*
X170376699Y-119081490D01*
X170371735Y-119092064D01*
X170364754Y-119106932D01*
X170361246Y-119129463D01*
X170357822Y-119144060D01*
X170350020Y-119168730D01*
X170349500Y-119175337D01*
X170349500Y-119197243D01*
X170348321Y-119212473D01*
X170346458Y-119224440D01*
X170344901Y-119234440D01*
X170345816Y-119241437D01*
X170345816Y-119241438D01*
X170348664Y-119263217D01*
X170349500Y-119276053D01*
X170349500Y-120392389D01*
X170330593Y-120450580D01*
X170320504Y-120462393D01*
X170072393Y-120710504D01*
X170017876Y-120738281D01*
X170002389Y-120739500D01*
X167777611Y-120739500D01*
X167719420Y-120720593D01*
X167707607Y-120710504D01*
X167593311Y-120596208D01*
X167588316Y-120590827D01*
X167563798Y-120562372D01*
X167563797Y-120562371D01*
X167559193Y-120557028D01*
X167519001Y-120530977D01*
X167514030Y-120527536D01*
X167479136Y-120501762D01*
X167479135Y-120501761D01*
X167473184Y-120497366D01*
X167466200Y-120494913D01*
X167464628Y-120494081D01*
X167461067Y-120492637D01*
X167456824Y-120490676D01*
X167450906Y-120486841D01*
X167401287Y-120472001D01*
X167396854Y-120470560D01*
X167352351Y-120454932D01*
X167352346Y-120454931D01*
X167345369Y-120452481D01*
X167337980Y-120452191D01*
X167336388Y-120451887D01*
X167332949Y-120451564D01*
X167327273Y-120449866D01*
X167311848Y-120449772D01*
X167271563Y-120449526D01*
X167268280Y-120449452D01*
X167217398Y-120447452D01*
X167217395Y-120447452D01*
X167210006Y-120447162D01*
X167202854Y-120449058D01*
X167202442Y-120449104D01*
X167198231Y-120449078D01*
X167191454Y-120451015D01*
X167191453Y-120451015D01*
X167140709Y-120465518D01*
X167138876Y-120466022D01*
X167086220Y-120479983D01*
X167086218Y-120479984D01*
X167079063Y-120481881D01*
X167075348Y-120484198D01*
X167074155Y-120484539D01*
X167019275Y-120519166D01*
X167018835Y-120519442D01*
X166970398Y-120549650D01*
X166970396Y-120549652D01*
X166964118Y-120553567D01*
X166959268Y-120559156D01*
X166959267Y-120559157D01*
X166922039Y-120602059D01*
X166921513Y-120602661D01*
X166879596Y-120650122D01*
X166878728Y-120651970D01*
X166875333Y-120655883D01*
X166872342Y-120662648D01*
X166872341Y-120662650D01*
X166850660Y-120711693D01*
X166849730Y-120713735D01*
X166824754Y-120766932D01*
X166824119Y-120771009D01*
X166824042Y-120771215D01*
X166823550Y-120773015D01*
X166820558Y-120779783D01*
X166819689Y-120787129D01*
X166819688Y-120787131D01*
X166817310Y-120807226D01*
X166814625Y-120829917D01*
X166813813Y-120836775D01*
X166813325Y-120840337D01*
X166804901Y-120894440D01*
X166805746Y-120900901D01*
X166805455Y-120905358D01*
X166805505Y-120906962D01*
X166804636Y-120914310D01*
X166805965Y-120921586D01*
X166805965Y-120921591D01*
X166814267Y-120967047D01*
X166815042Y-120971995D01*
X166821633Y-121022394D01*
X166824474Y-121028851D01*
X166826370Y-121035642D01*
X166826081Y-121035723D01*
X166827645Y-121040292D01*
X166828975Y-121047573D01*
X166832386Y-121054139D01*
X166832386Y-121054140D01*
X166851933Y-121091771D01*
X166854693Y-121097533D01*
X166870763Y-121134054D01*
X166870767Y-121134061D01*
X166873605Y-121140510D01*
X166878141Y-121145906D01*
X166881869Y-121151895D01*
X166881769Y-121151957D01*
X166888188Y-121161564D01*
X166891421Y-121167788D01*
X166895725Y-121172828D01*
X166914125Y-121191228D01*
X166941902Y-121245745D01*
X166932331Y-121306177D01*
X166889066Y-121349442D01*
X166828634Y-121359013D01*
X166809369Y-121353932D01*
X166769020Y-121338806D01*
X166708580Y-121316148D01*
X166565608Y-121305524D01*
X166558713Y-121306996D01*
X166558712Y-121306996D01*
X166432300Y-121333981D01*
X166432298Y-121333982D01*
X166425401Y-121335454D01*
X166299229Y-121403532D01*
X166197237Y-121504286D01*
X166127622Y-121629616D01*
X166126065Y-121636495D01*
X166126065Y-121636496D01*
X166109947Y-121707725D01*
X166095981Y-121769447D01*
X139475507Y-121769447D01*
X139478735Y-121034440D01*
X157994901Y-121034440D01*
X157995816Y-121041437D01*
X157995816Y-121041438D01*
X157996618Y-121047573D01*
X158011633Y-121162394D01*
X158014471Y-121168845D01*
X158014472Y-121168847D01*
X158021458Y-121184724D01*
X158063605Y-121280510D01*
X158085869Y-121306996D01*
X158142100Y-121373892D01*
X158142103Y-121373894D01*
X158146639Y-121379291D01*
X158254060Y-121450796D01*
X158260788Y-121452898D01*
X158260790Y-121452899D01*
X158288209Y-121461465D01*
X158377233Y-121489278D01*
X158441744Y-121490460D01*
X158499202Y-121491514D01*
X158499204Y-121491514D01*
X158506255Y-121491643D01*
X158513058Y-121489788D01*
X158513060Y-121489788D01*
X158554828Y-121478400D01*
X158630755Y-121457700D01*
X158740724Y-121390179D01*
X158755466Y-121373892D01*
X158822590Y-121299735D01*
X158822590Y-121299734D01*
X158827322Y-121294507D01*
X158883588Y-121178375D01*
X158904997Y-121051120D01*
X158905133Y-121040000D01*
X158886839Y-120912259D01*
X158834398Y-120796921D01*
X158827525Y-120736124D01*
X158835426Y-120712780D01*
X158835447Y-120712738D01*
X158868785Y-120643928D01*
X158880512Y-120619724D01*
X158880512Y-120619723D01*
X158883588Y-120613375D01*
X158897450Y-120530979D01*
X158904363Y-120489891D01*
X158904363Y-120489886D01*
X158904997Y-120486120D01*
X158905133Y-120475000D01*
X158886839Y-120347259D01*
X158834398Y-120231921D01*
X158827525Y-120171124D01*
X158835426Y-120147780D01*
X158880512Y-120054724D01*
X158880512Y-120054723D01*
X158883588Y-120048375D01*
X158894596Y-119982941D01*
X158902756Y-119934440D01*
X169224901Y-119934440D01*
X169225816Y-119941437D01*
X169225816Y-119941438D01*
X169227082Y-119951120D01*
X169241633Y-120062394D01*
X169244471Y-120068845D01*
X169244472Y-120068847D01*
X169289475Y-120171124D01*
X169293605Y-120180510D01*
X169331105Y-120225122D01*
X169372100Y-120273892D01*
X169372103Y-120273894D01*
X169376639Y-120279291D01*
X169484060Y-120350796D01*
X169490788Y-120352898D01*
X169490790Y-120352899D01*
X169545646Y-120370037D01*
X169607233Y-120389278D01*
X169671744Y-120390460D01*
X169729202Y-120391514D01*
X169729204Y-120391514D01*
X169736255Y-120391643D01*
X169743058Y-120389788D01*
X169743060Y-120389788D01*
X169784828Y-120378400D01*
X169860755Y-120357700D01*
X169970724Y-120290179D01*
X169977042Y-120283199D01*
X170052590Y-120199735D01*
X170052590Y-120199734D01*
X170057322Y-120194507D01*
X170113588Y-120078375D01*
X170134997Y-119951120D01*
X170135133Y-119940000D01*
X170116839Y-119812259D01*
X170063428Y-119694788D01*
X170024697Y-119649838D01*
X170001037Y-119593415D01*
X170015061Y-119533859D01*
X170026299Y-119518781D01*
X170052590Y-119489735D01*
X170052590Y-119489734D01*
X170057322Y-119484507D01*
X170113588Y-119368375D01*
X170130204Y-119269610D01*
X170134363Y-119244891D01*
X170134363Y-119244886D01*
X170134997Y-119241120D01*
X170135133Y-119230000D01*
X170116839Y-119102259D01*
X170091544Y-119046625D01*
X170066349Y-118991212D01*
X170066348Y-118991211D01*
X170063428Y-118984788D01*
X170024697Y-118939838D01*
X170001037Y-118883415D01*
X170015061Y-118823859D01*
X170026299Y-118808781D01*
X170052590Y-118779735D01*
X170052590Y-118779734D01*
X170057322Y-118774507D01*
X170113588Y-118658375D01*
X170134997Y-118531120D01*
X170135133Y-118520000D01*
X170116839Y-118392259D01*
X170107108Y-118370857D01*
X172831504Y-118370857D01*
X172832147Y-118383140D01*
X172841801Y-118386000D01*
X173740320Y-118386000D01*
X173753005Y-118381878D01*
X173756000Y-118377757D01*
X173756000Y-118370320D01*
X174264000Y-118370320D01*
X174268122Y-118383005D01*
X174272243Y-118386000D01*
X175176874Y-118386000D01*
X175188576Y-118382198D01*
X175188839Y-118372136D01*
X175150602Y-118229434D01*
X175147659Y-118221348D01*
X175061979Y-118037604D01*
X175057678Y-118030156D01*
X174941395Y-117864088D01*
X174935862Y-117857493D01*
X174792507Y-117714138D01*
X174785912Y-117708605D01*
X174619844Y-117592322D01*
X174612396Y-117588021D01*
X174428652Y-117502341D01*
X174420566Y-117499398D01*
X174279143Y-117461504D01*
X174266860Y-117462147D01*
X174264000Y-117471801D01*
X174264000Y-118370320D01*
X173756000Y-118370320D01*
X173756000Y-117473126D01*
X173752198Y-117461424D01*
X173742136Y-117461161D01*
X173599434Y-117499398D01*
X173591348Y-117502341D01*
X173407604Y-117588021D01*
X173400156Y-117592322D01*
X173234088Y-117708605D01*
X173227493Y-117714138D01*
X173084138Y-117857493D01*
X173078605Y-117864088D01*
X172962322Y-118030156D01*
X172958021Y-118037604D01*
X172872341Y-118221348D01*
X172869398Y-118229434D01*
X172831504Y-118370857D01*
X170107108Y-118370857D01*
X170079627Y-118310415D01*
X170066349Y-118281212D01*
X170066348Y-118281211D01*
X170063428Y-118274788D01*
X169979193Y-118177028D01*
X169973276Y-118173193D01*
X169973274Y-118173191D01*
X169876824Y-118110677D01*
X169870906Y-118106841D01*
X169864150Y-118104821D01*
X169864149Y-118104820D01*
X169821335Y-118092016D01*
X169747273Y-118069866D01*
X169670644Y-118069398D01*
X169625282Y-118069121D01*
X169618231Y-118069078D01*
X169611454Y-118071015D01*
X169611453Y-118071015D01*
X169500935Y-118102601D01*
X169500933Y-118102602D01*
X169494155Y-118104539D01*
X169385019Y-118173399D01*
X169299596Y-118270122D01*
X169244754Y-118386932D01*
X169224901Y-118514440D01*
X169225816Y-118521437D01*
X169225816Y-118521438D01*
X169227082Y-118531120D01*
X169241633Y-118642394D01*
X169244471Y-118648845D01*
X169244472Y-118648847D01*
X169289994Y-118752304D01*
X169293605Y-118760510D01*
X169330452Y-118804344D01*
X169336219Y-118811205D01*
X169359189Y-118867914D01*
X169344439Y-118927295D01*
X169334640Y-118940441D01*
X169315818Y-118961754D01*
X169299596Y-118980122D01*
X169244754Y-119096932D01*
X169224901Y-119224440D01*
X169225816Y-119231437D01*
X169225816Y-119231438D01*
X169226936Y-119240000D01*
X169241633Y-119352394D01*
X169244471Y-119358845D01*
X169244472Y-119358847D01*
X169289427Y-119461015D01*
X169293605Y-119470510D01*
X169315739Y-119496841D01*
X169336219Y-119521205D01*
X169359189Y-119577914D01*
X169344439Y-119637295D01*
X169334640Y-119650441D01*
X169304266Y-119684834D01*
X169299596Y-119690122D01*
X169244754Y-119806932D01*
X169224901Y-119934440D01*
X158902756Y-119934440D01*
X158904363Y-119924891D01*
X158904363Y-119924886D01*
X158904997Y-119921120D01*
X158905133Y-119910000D01*
X158886839Y-119782259D01*
X158854515Y-119711166D01*
X158836349Y-119671212D01*
X158836348Y-119671211D01*
X158833428Y-119664788D01*
X158749193Y-119567028D01*
X158743276Y-119563193D01*
X158743274Y-119563191D01*
X158646824Y-119500677D01*
X158640906Y-119496841D01*
X158634150Y-119494821D01*
X158634149Y-119494820D01*
X158531276Y-119464054D01*
X158517273Y-119459866D01*
X158440644Y-119459398D01*
X158395282Y-119459121D01*
X158388231Y-119459078D01*
X158381454Y-119461015D01*
X158381453Y-119461015D01*
X158270935Y-119492601D01*
X158270933Y-119492602D01*
X158264155Y-119494539D01*
X158155019Y-119563399D01*
X158069596Y-119660122D01*
X158014754Y-119776932D01*
X157994901Y-119904440D01*
X157995816Y-119911437D01*
X157995816Y-119911438D01*
X157997082Y-119921120D01*
X158011633Y-120032394D01*
X158014471Y-120038845D01*
X158014472Y-120038847D01*
X158063605Y-120150510D01*
X158061558Y-120151411D01*
X158073759Y-120200709D01*
X158064627Y-120235705D01*
X158014754Y-120341932D01*
X157994901Y-120469440D01*
X157995816Y-120476437D01*
X157995816Y-120476438D01*
X157996831Y-120484198D01*
X158011633Y-120597394D01*
X158014471Y-120603845D01*
X158014472Y-120603847D01*
X158063605Y-120715510D01*
X158061558Y-120716411D01*
X158073759Y-120765709D01*
X158064627Y-120800705D01*
X158014754Y-120906932D01*
X157994901Y-121034440D01*
X139478735Y-121034440D01*
X139490000Y-118470000D01*
X139481870Y-118470048D01*
X131909587Y-118514943D01*
X131851285Y-118496381D01*
X131815028Y-118447095D01*
X131810000Y-118415945D01*
X131810000Y-117720000D01*
X144224318Y-117720000D01*
X144225165Y-117726433D01*
X144228653Y-117752927D01*
X144229500Y-117765849D01*
X144229500Y-118799361D01*
X144244956Y-118916762D01*
X144305464Y-119062841D01*
X144401718Y-119188282D01*
X144527159Y-119284536D01*
X144673238Y-119345044D01*
X144830000Y-119365682D01*
X144986762Y-119345044D01*
X145132841Y-119284536D01*
X145258282Y-119188282D01*
X145354536Y-119062841D01*
X145415044Y-118916762D01*
X145430500Y-118799361D01*
X145430500Y-118740000D01*
X160304196Y-118740000D01*
X160305415Y-118747696D01*
X160322772Y-118857282D01*
X160325281Y-118873126D01*
X160328817Y-118880065D01*
X160328817Y-118880066D01*
X160382176Y-118984788D01*
X160386472Y-118993220D01*
X160481780Y-119088528D01*
X160488717Y-119092063D01*
X160488719Y-119092064D01*
X160590793Y-119144073D01*
X160601874Y-119149719D01*
X160609568Y-119150938D01*
X160609569Y-119150938D01*
X160687950Y-119163352D01*
X160721906Y-119168730D01*
X160727304Y-119169585D01*
X160735000Y-119170804D01*
X160742696Y-119169585D01*
X160748095Y-119168730D01*
X160782050Y-119163352D01*
X160860431Y-119150938D01*
X160860432Y-119150938D01*
X160868126Y-119149719D01*
X160879207Y-119144073D01*
X160981281Y-119092064D01*
X160981283Y-119092063D01*
X160988220Y-119088528D01*
X161083528Y-118993220D01*
X161087825Y-118984788D01*
X161141183Y-118880066D01*
X161141183Y-118880065D01*
X161144719Y-118873126D01*
X161147229Y-118857282D01*
X161164585Y-118747696D01*
X161165804Y-118740000D01*
X161149238Y-118635403D01*
X161145938Y-118614569D01*
X161145938Y-118614568D01*
X161144719Y-118606874D01*
X161108042Y-118534891D01*
X161087064Y-118493719D01*
X161087063Y-118493717D01*
X161083528Y-118486780D01*
X160988220Y-118391472D01*
X160981283Y-118387937D01*
X160981281Y-118387936D01*
X160875066Y-118333817D01*
X160875065Y-118333817D01*
X160868126Y-118330281D01*
X160860432Y-118329062D01*
X160860431Y-118329062D01*
X160742696Y-118310415D01*
X160735000Y-118309196D01*
X160727304Y-118310415D01*
X160609569Y-118329062D01*
X160609568Y-118329062D01*
X160601874Y-118330281D01*
X160594935Y-118333817D01*
X160594934Y-118333817D01*
X160488719Y-118387936D01*
X160488717Y-118387937D01*
X160481780Y-118391472D01*
X160386472Y-118486780D01*
X160382937Y-118493717D01*
X160382936Y-118493719D01*
X160361958Y-118534891D01*
X160325281Y-118606874D01*
X160324062Y-118614568D01*
X160324062Y-118614569D01*
X160320762Y-118635403D01*
X160304196Y-118740000D01*
X145430500Y-118740000D01*
X145430500Y-118009743D01*
X145449407Y-117951552D01*
X145459496Y-117939739D01*
X145584795Y-117814440D01*
X149914901Y-117814440D01*
X149915816Y-117821437D01*
X149915816Y-117821438D01*
X149917082Y-117831120D01*
X149931633Y-117942394D01*
X149934471Y-117948845D01*
X149934472Y-117948847D01*
X149973526Y-118037604D01*
X149983605Y-118060510D01*
X150018986Y-118102601D01*
X150062100Y-118153892D01*
X150062103Y-118153894D01*
X150066639Y-118159291D01*
X150174060Y-118230796D01*
X150180788Y-118232898D01*
X150180790Y-118232899D01*
X150235647Y-118250037D01*
X150297233Y-118269278D01*
X150361744Y-118270460D01*
X150419202Y-118271514D01*
X150419204Y-118271514D01*
X150426255Y-118271643D01*
X150433058Y-118269788D01*
X150433060Y-118269788D01*
X150474828Y-118258400D01*
X150550755Y-118237700D01*
X150660724Y-118170179D01*
X150719884Y-118104820D01*
X150742590Y-118079735D01*
X150742590Y-118079734D01*
X150747322Y-118074507D01*
X150803588Y-117958375D01*
X150819451Y-117864088D01*
X150824363Y-117834891D01*
X150824363Y-117834886D01*
X150824997Y-117831120D01*
X150825133Y-117820000D01*
X150824767Y-117817447D01*
X150839779Y-117758451D01*
X150886838Y-117719348D01*
X150947895Y-117715374D01*
X150993485Y-117741313D01*
X151141500Y-117889327D01*
X151227169Y-117953533D01*
X151361413Y-118003859D01*
X151504385Y-118014483D01*
X151551708Y-118004381D01*
X151637693Y-117986026D01*
X151637695Y-117986025D01*
X151644592Y-117984553D01*
X151770764Y-117916475D01*
X151872756Y-117815721D01*
X151942371Y-117690391D01*
X151946643Y-117671514D01*
X151972456Y-117557437D01*
X151972456Y-117557436D01*
X151974012Y-117550560D01*
X151968760Y-117465909D01*
X151965571Y-117414507D01*
X151965571Y-117414505D01*
X151965134Y-117407469D01*
X151925208Y-117296871D01*
X151918849Y-117279256D01*
X151918848Y-117279254D01*
X151916453Y-117272620D01*
X151912293Y-117266925D01*
X151912291Y-117266922D01*
X151899519Y-117249440D01*
X161404901Y-117249440D01*
X161405816Y-117256437D01*
X161405816Y-117256438D01*
X161406669Y-117262964D01*
X161421633Y-117377394D01*
X161424471Y-117383845D01*
X161424472Y-117383847D01*
X161466201Y-117478684D01*
X161473605Y-117495510D01*
X161513963Y-117543522D01*
X161552100Y-117588892D01*
X161552103Y-117588894D01*
X161556639Y-117594291D01*
X161664060Y-117665796D01*
X161670788Y-117667898D01*
X161670790Y-117667899D01*
X161711281Y-117680549D01*
X161787233Y-117704278D01*
X161851744Y-117705460D01*
X161909202Y-117706514D01*
X161909204Y-117706514D01*
X161916255Y-117706643D01*
X161923058Y-117704788D01*
X161923060Y-117704788D01*
X161988553Y-117686932D01*
X162040755Y-117672700D01*
X162094739Y-117639554D01*
X162103153Y-117634388D01*
X162162636Y-117620052D01*
X162209811Y-117636342D01*
X162248189Y-117661888D01*
X162254060Y-117665796D01*
X162260788Y-117667898D01*
X162260790Y-117667899D01*
X162301281Y-117680549D01*
X162377233Y-117704278D01*
X162441744Y-117705460D01*
X162499202Y-117706514D01*
X162499204Y-117706514D01*
X162506255Y-117706643D01*
X162513058Y-117704788D01*
X162513060Y-117704788D01*
X162578553Y-117686932D01*
X162630755Y-117672700D01*
X162740724Y-117605179D01*
X162756255Y-117588021D01*
X162822590Y-117514735D01*
X162822590Y-117514734D01*
X162827322Y-117509507D01*
X162876356Y-117408302D01*
X162880512Y-117399724D01*
X162880512Y-117399723D01*
X162883588Y-117393375D01*
X162899824Y-117296871D01*
X162904363Y-117269891D01*
X162904363Y-117269886D01*
X162904997Y-117266120D01*
X162905133Y-117255000D01*
X162899324Y-117214440D01*
X164984901Y-117214440D01*
X164985816Y-117221437D01*
X164985816Y-117221438D01*
X164987082Y-117231120D01*
X165001633Y-117342394D01*
X165004471Y-117348845D01*
X165004472Y-117348847D01*
X165033363Y-117414507D01*
X165053605Y-117460510D01*
X165077599Y-117489054D01*
X165132100Y-117553892D01*
X165132103Y-117553894D01*
X165136639Y-117559291D01*
X165244060Y-117630796D01*
X165250788Y-117632898D01*
X165250790Y-117632899D01*
X165305646Y-117650037D01*
X165367233Y-117669278D01*
X165431744Y-117670460D01*
X165489202Y-117671514D01*
X165489204Y-117671514D01*
X165496255Y-117671643D01*
X165503058Y-117669788D01*
X165503060Y-117669788D01*
X165544828Y-117658400D01*
X165620755Y-117637700D01*
X165662346Y-117612163D01*
X165721828Y-117597827D01*
X165769005Y-117614118D01*
X165788188Y-117626888D01*
X165788192Y-117626890D01*
X165794060Y-117630796D01*
X165800788Y-117632898D01*
X165800790Y-117632899D01*
X165855646Y-117650037D01*
X165917233Y-117669278D01*
X165981744Y-117670460D01*
X166039202Y-117671514D01*
X166039204Y-117671514D01*
X166046255Y-117671643D01*
X166053058Y-117669788D01*
X166053060Y-117669788D01*
X166094828Y-117658400D01*
X166170755Y-117637700D01*
X166270423Y-117576504D01*
X166274711Y-117573871D01*
X166280724Y-117570179D01*
X166285459Y-117564948D01*
X166362590Y-117479735D01*
X166362590Y-117479734D01*
X166367322Y-117474507D01*
X166404253Y-117398282D01*
X166420512Y-117364724D01*
X166420512Y-117364723D01*
X166423588Y-117358375D01*
X166438474Y-117269891D01*
X166444363Y-117234891D01*
X166444363Y-117234886D01*
X166444997Y-117231120D01*
X166445133Y-117220000D01*
X166426839Y-117092259D01*
X166373428Y-116974788D01*
X166370994Y-116971963D01*
X166355954Y-116914229D01*
X166369105Y-116875371D01*
X166367322Y-116874507D01*
X166420512Y-116764724D01*
X166420512Y-116764723D01*
X166423588Y-116758375D01*
X166438268Y-116671120D01*
X166444363Y-116634891D01*
X166444363Y-116634886D01*
X166444997Y-116631120D01*
X166445133Y-116620000D01*
X166426839Y-116492259D01*
X166391615Y-116414788D01*
X166376349Y-116381212D01*
X166376348Y-116381211D01*
X166373428Y-116374788D01*
X166313735Y-116305510D01*
X166293798Y-116282372D01*
X166293797Y-116282371D01*
X166289193Y-116277028D01*
X166283276Y-116273193D01*
X166283274Y-116273191D01*
X166186824Y-116210677D01*
X166180906Y-116206841D01*
X166174150Y-116204821D01*
X166174149Y-116204820D01*
X166092505Y-116180403D01*
X166057273Y-116169866D01*
X165980644Y-116169398D01*
X165935282Y-116169121D01*
X165928231Y-116169078D01*
X165921454Y-116171015D01*
X165921453Y-116171015D01*
X165810935Y-116202601D01*
X165810933Y-116202602D01*
X165804155Y-116204539D01*
X165798191Y-116208302D01*
X165768111Y-116227281D01*
X165708808Y-116242342D01*
X165661437Y-116226630D01*
X165651484Y-116220179D01*
X165630906Y-116206841D01*
X165624150Y-116204821D01*
X165624149Y-116204820D01*
X165542505Y-116180403D01*
X165507273Y-116169866D01*
X165430644Y-116169398D01*
X165385282Y-116169121D01*
X165378231Y-116169078D01*
X165371454Y-116171015D01*
X165371453Y-116171015D01*
X165260935Y-116202601D01*
X165260933Y-116202602D01*
X165254155Y-116204539D01*
X165145019Y-116273399D01*
X165059596Y-116370122D01*
X165004754Y-116486932D01*
X164984901Y-116614440D01*
X164985816Y-116621437D01*
X164985816Y-116621438D01*
X164987082Y-116631120D01*
X165001633Y-116742394D01*
X165004471Y-116748845D01*
X165004472Y-116748847D01*
X165030166Y-116807241D01*
X165053605Y-116860510D01*
X165058140Y-116865906D01*
X165059281Y-116867738D01*
X165073980Y-116927132D01*
X165059451Y-116970054D01*
X165059596Y-116970122D01*
X165004754Y-117086932D01*
X164984901Y-117214440D01*
X162899324Y-117214440D01*
X162886839Y-117127259D01*
X162833428Y-117009788D01*
X162832387Y-117008580D01*
X162817594Y-116951796D01*
X162827326Y-116914498D01*
X162827457Y-116914229D01*
X162876387Y-116813238D01*
X162880512Y-116804724D01*
X162880512Y-116804723D01*
X162883588Y-116798375D01*
X162904997Y-116671120D01*
X162905046Y-116667159D01*
X162905086Y-116663825D01*
X162905133Y-116660000D01*
X162886839Y-116532259D01*
X162833428Y-116414788D01*
X162832387Y-116413580D01*
X162817594Y-116356796D01*
X162827326Y-116319498D01*
X162831847Y-116310168D01*
X162873658Y-116223871D01*
X162880512Y-116209724D01*
X162880512Y-116209723D01*
X162883588Y-116203375D01*
X162898303Y-116115909D01*
X162904363Y-116079891D01*
X162904363Y-116079886D01*
X162904997Y-116076120D01*
X162905133Y-116065000D01*
X162886839Y-115937259D01*
X162850559Y-115857466D01*
X162836349Y-115826212D01*
X162836348Y-115826211D01*
X162833428Y-115819788D01*
X162749193Y-115722028D01*
X162743276Y-115718193D01*
X162743274Y-115718191D01*
X162722058Y-115704440D01*
X174254901Y-115704440D01*
X174255816Y-115711437D01*
X174255816Y-115711438D01*
X174256699Y-115718191D01*
X174271633Y-115832394D01*
X174274471Y-115838845D01*
X174274472Y-115838847D01*
X174317774Y-115937259D01*
X174323605Y-115950510D01*
X174352936Y-115985403D01*
X174402100Y-116043892D01*
X174402103Y-116043894D01*
X174406639Y-116049291D01*
X174514060Y-116120796D01*
X174520788Y-116122898D01*
X174520790Y-116122899D01*
X174575647Y-116140037D01*
X174637233Y-116159278D01*
X174701744Y-116160460D01*
X174759202Y-116161514D01*
X174759204Y-116161514D01*
X174766255Y-116161643D01*
X174773058Y-116159788D01*
X174773060Y-116159788D01*
X174814828Y-116148400D01*
X174890755Y-116127700D01*
X175000724Y-116060179D01*
X175007042Y-116053199D01*
X175082590Y-115969735D01*
X175082590Y-115969734D01*
X175087322Y-115964507D01*
X175129574Y-115877299D01*
X175140512Y-115854724D01*
X175140512Y-115854723D01*
X175143588Y-115848375D01*
X175160266Y-115749243D01*
X175164363Y-115724891D01*
X175164363Y-115724886D01*
X175164997Y-115721120D01*
X175165133Y-115710000D01*
X175146839Y-115582259D01*
X175121727Y-115527028D01*
X175096349Y-115471212D01*
X175096348Y-115471211D01*
X175093428Y-115464788D01*
X175009193Y-115367028D01*
X175003276Y-115363193D01*
X175003274Y-115363191D01*
X174932813Y-115317522D01*
X174900906Y-115296841D01*
X174894150Y-115294821D01*
X174894149Y-115294820D01*
X174851335Y-115282016D01*
X174777273Y-115259866D01*
X174700644Y-115259398D01*
X174655282Y-115259121D01*
X174648231Y-115259078D01*
X174641454Y-115261015D01*
X174641453Y-115261015D01*
X174530935Y-115292601D01*
X174530933Y-115292602D01*
X174524155Y-115294539D01*
X174415019Y-115363399D01*
X174329596Y-115460122D01*
X174274754Y-115576932D01*
X174254901Y-115704440D01*
X162722058Y-115704440D01*
X162646824Y-115655677D01*
X162640906Y-115651841D01*
X162634150Y-115649821D01*
X162634149Y-115649820D01*
X162560186Y-115627700D01*
X162517273Y-115614866D01*
X162440644Y-115614398D01*
X162395282Y-115614121D01*
X162388231Y-115614078D01*
X162381454Y-115616015D01*
X162381453Y-115616015D01*
X162270935Y-115647601D01*
X162270933Y-115647602D01*
X162264155Y-115649539D01*
X162258191Y-115653302D01*
X162207842Y-115685070D01*
X162148539Y-115700131D01*
X162101170Y-115684420D01*
X162050906Y-115651841D01*
X162044150Y-115649821D01*
X162044149Y-115649820D01*
X161970186Y-115627700D01*
X161927273Y-115614866D01*
X161850644Y-115614398D01*
X161805282Y-115614121D01*
X161798231Y-115614078D01*
X161791454Y-115616015D01*
X161791453Y-115616015D01*
X161680935Y-115647601D01*
X161680933Y-115647602D01*
X161674155Y-115649539D01*
X161565019Y-115718399D01*
X161479596Y-115815122D01*
X161424754Y-115931932D01*
X161404901Y-116059440D01*
X161405816Y-116066437D01*
X161405816Y-116066438D01*
X161407082Y-116076120D01*
X161421633Y-116187394D01*
X161424471Y-116193845D01*
X161424472Y-116193847D01*
X161463424Y-116282372D01*
X161473605Y-116305510D01*
X161477749Y-116310440D01*
X161492382Y-116369562D01*
X161478783Y-116409740D01*
X161479596Y-116410122D01*
X161424754Y-116526932D01*
X161404901Y-116654440D01*
X161405816Y-116661437D01*
X161405816Y-116661438D01*
X161407082Y-116671120D01*
X161421633Y-116782394D01*
X161424471Y-116788845D01*
X161424472Y-116788847D01*
X161462899Y-116876178D01*
X161473605Y-116900510D01*
X161477749Y-116905440D01*
X161492382Y-116964562D01*
X161478783Y-117004740D01*
X161479596Y-117005122D01*
X161424754Y-117121932D01*
X161404901Y-117249440D01*
X151899519Y-117249440D01*
X151853726Y-117186757D01*
X151853723Y-117186753D01*
X151851471Y-117183671D01*
X151349496Y-116681696D01*
X151321719Y-116627179D01*
X151320500Y-116611692D01*
X151320500Y-115864440D01*
X151554901Y-115864440D01*
X151555816Y-115871437D01*
X151555816Y-115871438D01*
X151557082Y-115881120D01*
X151571633Y-115992394D01*
X151574471Y-115998845D01*
X151574472Y-115998847D01*
X151603083Y-116063871D01*
X151623605Y-116110510D01*
X151662831Y-116157175D01*
X151702100Y-116203892D01*
X151702103Y-116203894D01*
X151706639Y-116209291D01*
X151814060Y-116280796D01*
X151820788Y-116282898D01*
X151820790Y-116282899D01*
X151875647Y-116300037D01*
X151937233Y-116319278D01*
X152001744Y-116320461D01*
X152059202Y-116321514D01*
X152059204Y-116321514D01*
X152066255Y-116321643D01*
X152073058Y-116319788D01*
X152073060Y-116319788D01*
X152125429Y-116305510D01*
X152190755Y-116287700D01*
X152289157Y-116227281D01*
X152294711Y-116223871D01*
X152300724Y-116220179D01*
X152309325Y-116210677D01*
X152382590Y-116129735D01*
X152382590Y-116129734D01*
X152387322Y-116124507D01*
X152443588Y-116008375D01*
X152456633Y-115930837D01*
X152464363Y-115884891D01*
X152464363Y-115884886D01*
X152464997Y-115881120D01*
X152465133Y-115870000D01*
X152446839Y-115742259D01*
X152428464Y-115701846D01*
X152396349Y-115631212D01*
X152396348Y-115631211D01*
X152393428Y-115624788D01*
X152309193Y-115527028D01*
X152303276Y-115523193D01*
X152303274Y-115523191D01*
X152206824Y-115460677D01*
X152200906Y-115456841D01*
X152194150Y-115454821D01*
X152194149Y-115454820D01*
X152151335Y-115442016D01*
X152077273Y-115419866D01*
X152000644Y-115419398D01*
X151955282Y-115419121D01*
X151948231Y-115419078D01*
X151941454Y-115421015D01*
X151941453Y-115421015D01*
X151830935Y-115452601D01*
X151830933Y-115452602D01*
X151824155Y-115454539D01*
X151818191Y-115458302D01*
X151814427Y-115460677D01*
X151715019Y-115523399D01*
X151629596Y-115620122D01*
X151574754Y-115736932D01*
X151554901Y-115864440D01*
X151320500Y-115864440D01*
X151320500Y-115234440D01*
X156854901Y-115234440D01*
X156855816Y-115241437D01*
X156855816Y-115241438D01*
X156857082Y-115251120D01*
X156871633Y-115362394D01*
X156874471Y-115368845D01*
X156874472Y-115368847D01*
X156920764Y-115474054D01*
X156923605Y-115480510D01*
X156943260Y-115503892D01*
X157002100Y-115573892D01*
X157002103Y-115573894D01*
X157006639Y-115579291D01*
X157114060Y-115650796D01*
X157120788Y-115652898D01*
X157120790Y-115652899D01*
X157175647Y-115670037D01*
X157237233Y-115689278D01*
X157301744Y-115690461D01*
X157359202Y-115691514D01*
X157359204Y-115691514D01*
X157366255Y-115691643D01*
X157373058Y-115689788D01*
X157373060Y-115689788D01*
X157414828Y-115678400D01*
X157490755Y-115657700D01*
X157600724Y-115590179D01*
X157612715Y-115576932D01*
X157682590Y-115499735D01*
X157682590Y-115499734D01*
X157687322Y-115494507D01*
X157743588Y-115378375D01*
X157757692Y-115294539D01*
X157764363Y-115254891D01*
X157764363Y-115254886D01*
X157764997Y-115251120D01*
X157765133Y-115240000D01*
X157760040Y-115204440D01*
X175244901Y-115204440D01*
X175245816Y-115211437D01*
X175245816Y-115211438D01*
X175247082Y-115221120D01*
X175261633Y-115332394D01*
X175264471Y-115338845D01*
X175264472Y-115338847D01*
X175300102Y-115419823D01*
X175313605Y-115450510D01*
X175331007Y-115471212D01*
X175392100Y-115543892D01*
X175392103Y-115543894D01*
X175396639Y-115549291D01*
X175504060Y-115620796D01*
X175510788Y-115622898D01*
X175510790Y-115622899D01*
X175537399Y-115631212D01*
X175627233Y-115659278D01*
X175691744Y-115660460D01*
X175749202Y-115661514D01*
X175749204Y-115661514D01*
X175756255Y-115661643D01*
X175763058Y-115659788D01*
X175763060Y-115659788D01*
X175810375Y-115646888D01*
X175880755Y-115627700D01*
X175990724Y-115560179D01*
X176020731Y-115527028D01*
X176072590Y-115469735D01*
X176072590Y-115469734D01*
X176077322Y-115464507D01*
X176133588Y-115348375D01*
X176148285Y-115261015D01*
X176154363Y-115224891D01*
X176154363Y-115224886D01*
X176154997Y-115221120D01*
X176155133Y-115210000D01*
X176154337Y-115204440D01*
X176152479Y-115191464D01*
X176157172Y-115164440D01*
X179364901Y-115164440D01*
X179365816Y-115171437D01*
X179365816Y-115171438D01*
X179367082Y-115181120D01*
X179381633Y-115292394D01*
X179384471Y-115298845D01*
X179384472Y-115298847D01*
X179415201Y-115368684D01*
X179433605Y-115410510D01*
X179468986Y-115452601D01*
X179512100Y-115503892D01*
X179512103Y-115503894D01*
X179516639Y-115509291D01*
X179624060Y-115580796D01*
X179630788Y-115582898D01*
X179630790Y-115582899D01*
X179665910Y-115593871D01*
X179747233Y-115619278D01*
X179811744Y-115620461D01*
X179869202Y-115621514D01*
X179869204Y-115621514D01*
X179876255Y-115621643D01*
X179883058Y-115619788D01*
X179883060Y-115619788D01*
X179924828Y-115608400D01*
X180000755Y-115587700D01*
X180110724Y-115520179D01*
X180159308Y-115466504D01*
X180192590Y-115429735D01*
X180192590Y-115429734D01*
X180197322Y-115424507D01*
X180253588Y-115308375D01*
X180268268Y-115221120D01*
X180274363Y-115184891D01*
X180274363Y-115184886D01*
X180274997Y-115181120D01*
X180275133Y-115170000D01*
X180256839Y-115042259D01*
X180233134Y-114990122D01*
X180206349Y-114931212D01*
X180206348Y-114931211D01*
X180203428Y-114924788D01*
X180131592Y-114841418D01*
X180123798Y-114832372D01*
X180123797Y-114832371D01*
X180119193Y-114827028D01*
X180113276Y-114823193D01*
X180113274Y-114823191D01*
X180042278Y-114777175D01*
X180010906Y-114756841D01*
X180004150Y-114754821D01*
X180004149Y-114754820D01*
X179922288Y-114730338D01*
X179887273Y-114719866D01*
X179810644Y-114719398D01*
X179765282Y-114719121D01*
X179758231Y-114719078D01*
X179751454Y-114721015D01*
X179751453Y-114721015D01*
X179640935Y-114752601D01*
X179640933Y-114752602D01*
X179634155Y-114754539D01*
X179525019Y-114823399D01*
X179439596Y-114920122D01*
X179384754Y-115036932D01*
X179364901Y-115164440D01*
X176157172Y-115164440D01*
X176162947Y-115131181D01*
X176206849Y-115088564D01*
X176267416Y-115079891D01*
X176305337Y-115095020D01*
X176344060Y-115120796D01*
X176350788Y-115122898D01*
X176350790Y-115122899D01*
X176377300Y-115131181D01*
X176467233Y-115159278D01*
X176531744Y-115160461D01*
X176589202Y-115161514D01*
X176589204Y-115161514D01*
X176596255Y-115161643D01*
X176603058Y-115159788D01*
X176603060Y-115159788D01*
X176644828Y-115148400D01*
X176720755Y-115127700D01*
X176830724Y-115060179D01*
X176845457Y-115043902D01*
X176912590Y-114969735D01*
X176912590Y-114969734D01*
X176917322Y-114964507D01*
X176973588Y-114848375D01*
X176984815Y-114781643D01*
X176994363Y-114724891D01*
X176994363Y-114724886D01*
X176994997Y-114721120D01*
X176995133Y-114710000D01*
X176976839Y-114582259D01*
X176923428Y-114464788D01*
X176839193Y-114367028D01*
X176833276Y-114363193D01*
X176833274Y-114363191D01*
X176736824Y-114300677D01*
X176730906Y-114296841D01*
X176724150Y-114294821D01*
X176724149Y-114294820D01*
X176681335Y-114282016D01*
X176607273Y-114259866D01*
X176530644Y-114259398D01*
X176485282Y-114259121D01*
X176478231Y-114259078D01*
X176471454Y-114261015D01*
X176471453Y-114261015D01*
X176360935Y-114292601D01*
X176360933Y-114292602D01*
X176354155Y-114294539D01*
X176245019Y-114363399D01*
X176159596Y-114460122D01*
X176104754Y-114576932D01*
X176084901Y-114704440D01*
X176085816Y-114711438D01*
X176085816Y-114711441D01*
X176088287Y-114730338D01*
X176077084Y-114790489D01*
X176032665Y-114832567D01*
X175971996Y-114840499D01*
X175936276Y-114826248D01*
X175931881Y-114823399D01*
X175890906Y-114796841D01*
X175884150Y-114794821D01*
X175884149Y-114794820D01*
X175825149Y-114777175D01*
X175767273Y-114759866D01*
X175690644Y-114759398D01*
X175645282Y-114759121D01*
X175638231Y-114759078D01*
X175631454Y-114761015D01*
X175631453Y-114761015D01*
X175520935Y-114792601D01*
X175520933Y-114792602D01*
X175514155Y-114794539D01*
X175405019Y-114863399D01*
X175319596Y-114960122D01*
X175264754Y-115076932D01*
X175244901Y-115204440D01*
X157760040Y-115204440D01*
X157746839Y-115112259D01*
X157693428Y-114994788D01*
X157634591Y-114926504D01*
X157613798Y-114902372D01*
X157613797Y-114902371D01*
X157609193Y-114897028D01*
X157603276Y-114893193D01*
X157603274Y-114893191D01*
X157506824Y-114830677D01*
X157500906Y-114826841D01*
X157494150Y-114824821D01*
X157494149Y-114824820D01*
X157451335Y-114812016D01*
X157377273Y-114789866D01*
X157300644Y-114789398D01*
X157255282Y-114789121D01*
X157248231Y-114789078D01*
X157241454Y-114791015D01*
X157241453Y-114791015D01*
X157130935Y-114822601D01*
X157130933Y-114822602D01*
X157124155Y-114824539D01*
X157118191Y-114828302D01*
X157111706Y-114832394D01*
X157015019Y-114893399D01*
X156929596Y-114990122D01*
X156874754Y-115106932D01*
X156854901Y-115234440D01*
X151320500Y-115234440D01*
X151320500Y-113978322D01*
X151339407Y-113920131D01*
X151349496Y-113908318D01*
X151623374Y-113634440D01*
X181684901Y-113634440D01*
X181685816Y-113641437D01*
X181685816Y-113641438D01*
X181687082Y-113651120D01*
X181701633Y-113762394D01*
X181704471Y-113768845D01*
X181704472Y-113768847D01*
X181724847Y-113815153D01*
X181753605Y-113880510D01*
X181786910Y-113920131D01*
X181832100Y-113973892D01*
X181832103Y-113973894D01*
X181836639Y-113979291D01*
X181944060Y-114050796D01*
X181950788Y-114052898D01*
X181950790Y-114052899D01*
X182005647Y-114070037D01*
X182067233Y-114089278D01*
X182131744Y-114090461D01*
X182189202Y-114091514D01*
X182189204Y-114091514D01*
X182196255Y-114091643D01*
X182203058Y-114089788D01*
X182203060Y-114089788D01*
X182244828Y-114078400D01*
X182320755Y-114057700D01*
X182360923Y-114033037D01*
X182420406Y-114018701D01*
X182476954Y-114042067D01*
X182508969Y-114094208D01*
X182502339Y-114159477D01*
X182484754Y-114196932D01*
X182464901Y-114324440D01*
X182465816Y-114331437D01*
X182465816Y-114331438D01*
X182470470Y-114367028D01*
X182481633Y-114452394D01*
X182484471Y-114458845D01*
X182484472Y-114458847D01*
X182489913Y-114471212D01*
X182533605Y-114570510D01*
X182575122Y-114619900D01*
X182612100Y-114663892D01*
X182612103Y-114663894D01*
X182616639Y-114669291D01*
X182724060Y-114740796D01*
X182730788Y-114742898D01*
X182730790Y-114742899D01*
X182768948Y-114754820D01*
X182847233Y-114779278D01*
X182911744Y-114780460D01*
X182969202Y-114781514D01*
X182969204Y-114781514D01*
X182976255Y-114781643D01*
X182983058Y-114779788D01*
X182983060Y-114779788D01*
X183024828Y-114768400D01*
X183100755Y-114747700D01*
X183210724Y-114680179D01*
X183297322Y-114584507D01*
X183353588Y-114468375D01*
X183370360Y-114368684D01*
X183374363Y-114344891D01*
X183374363Y-114344886D01*
X183374997Y-114341120D01*
X183375133Y-114330000D01*
X183356839Y-114202259D01*
X183303428Y-114084788D01*
X183219193Y-113987028D01*
X183213276Y-113983193D01*
X183213274Y-113983191D01*
X183139794Y-113935565D01*
X183110906Y-113916841D01*
X183104150Y-113914821D01*
X183104149Y-113914820D01*
X183036228Y-113894507D01*
X182987273Y-113879866D01*
X182910644Y-113879398D01*
X182865282Y-113879121D01*
X182858231Y-113879078D01*
X182851454Y-113881015D01*
X182851453Y-113881015D01*
X182740935Y-113912601D01*
X182740933Y-113912602D01*
X182734155Y-113914539D01*
X182728191Y-113918302D01*
X182700831Y-113935565D01*
X182641528Y-113950626D01*
X182584699Y-113927954D01*
X182552049Y-113876207D01*
X182556051Y-113815153D01*
X182558909Y-113808672D01*
X182570512Y-113784724D01*
X182570512Y-113784723D01*
X182573588Y-113778375D01*
X182594997Y-113651120D01*
X182595133Y-113640000D01*
X182576839Y-113512259D01*
X182527764Y-113404324D01*
X182526349Y-113401212D01*
X182526348Y-113401211D01*
X182523428Y-113394788D01*
X182439193Y-113297028D01*
X182433276Y-113293193D01*
X182433274Y-113293191D01*
X182336824Y-113230677D01*
X182330906Y-113226841D01*
X182324150Y-113224821D01*
X182324149Y-113224820D01*
X182281335Y-113212016D01*
X182207273Y-113189866D01*
X182130644Y-113189398D01*
X182085282Y-113189121D01*
X182078231Y-113189078D01*
X182071454Y-113191015D01*
X182071453Y-113191015D01*
X181960935Y-113222601D01*
X181960933Y-113222602D01*
X181954155Y-113224539D01*
X181845019Y-113293399D01*
X181759596Y-113390122D01*
X181704754Y-113506932D01*
X181684901Y-113634440D01*
X151623374Y-113634440D01*
X152276491Y-112981323D01*
X152331008Y-112953546D01*
X152367077Y-112954490D01*
X152390277Y-112959421D01*
X152390278Y-112959421D01*
X152395354Y-112960500D01*
X152584646Y-112960500D01*
X152727390Y-112930159D01*
X152764732Y-112922222D01*
X152764733Y-112922222D01*
X152769803Y-112921144D01*
X152933243Y-112848375D01*
X152937996Y-112846259D01*
X152937998Y-112846258D01*
X152942730Y-112844151D01*
X153095871Y-112732888D01*
X153099337Y-112729038D01*
X153099341Y-112729035D01*
X153219061Y-112596072D01*
X153222533Y-112592216D01*
X153231357Y-112576932D01*
X153314587Y-112432774D01*
X153314588Y-112432772D01*
X153317179Y-112428284D01*
X153335346Y-112372372D01*
X153349808Y-112327864D01*
X153851161Y-112327864D01*
X153889398Y-112470566D01*
X153892341Y-112478652D01*
X153978021Y-112662396D01*
X153982322Y-112669844D01*
X154098605Y-112835912D01*
X154104138Y-112842507D01*
X154247493Y-112985862D01*
X154254088Y-112991395D01*
X154420156Y-113107678D01*
X154427604Y-113111979D01*
X154611348Y-113197659D01*
X154619434Y-113200602D01*
X154760857Y-113238496D01*
X154773140Y-113237853D01*
X154776000Y-113228199D01*
X154776000Y-113226874D01*
X155284000Y-113226874D01*
X155287802Y-113238576D01*
X155297864Y-113238839D01*
X155440566Y-113200602D01*
X155448652Y-113197659D01*
X155632396Y-113111979D01*
X155639844Y-113107678D01*
X155805912Y-112991395D01*
X155812507Y-112985862D01*
X155955862Y-112842507D01*
X155961395Y-112835912D01*
X156053453Y-112704440D01*
X180894901Y-112704440D01*
X180895816Y-112711437D01*
X180895816Y-112711438D01*
X180897082Y-112721120D01*
X180911633Y-112832394D01*
X180914471Y-112838845D01*
X180914472Y-112838847D01*
X180960764Y-112944054D01*
X180963605Y-112950510D01*
X181005122Y-112999901D01*
X181042100Y-113043892D01*
X181042103Y-113043894D01*
X181046639Y-113049291D01*
X181154060Y-113120796D01*
X181160788Y-113122898D01*
X181160790Y-113122899D01*
X181215646Y-113140037D01*
X181277233Y-113159278D01*
X181341744Y-113160460D01*
X181399202Y-113161514D01*
X181399204Y-113161514D01*
X181406255Y-113161643D01*
X181413058Y-113159788D01*
X181413060Y-113159788D01*
X181454828Y-113148400D01*
X181530755Y-113127700D01*
X181640724Y-113060179D01*
X181702984Y-112991395D01*
X181722590Y-112969735D01*
X181722590Y-112969734D01*
X181727322Y-112964507D01*
X181783588Y-112848375D01*
X181802505Y-112735934D01*
X181804363Y-112724891D01*
X181804363Y-112724886D01*
X181804997Y-112721120D01*
X181805133Y-112710000D01*
X181786839Y-112582259D01*
X181733428Y-112464788D01*
X181649193Y-112367028D01*
X181643276Y-112363193D01*
X181643274Y-112363191D01*
X181571792Y-112316860D01*
X181540906Y-112296841D01*
X181534150Y-112294821D01*
X181534149Y-112294820D01*
X181458644Y-112272239D01*
X181417273Y-112259866D01*
X181340644Y-112259398D01*
X181295282Y-112259121D01*
X181288231Y-112259078D01*
X181281454Y-112261015D01*
X181281453Y-112261015D01*
X181170935Y-112292601D01*
X181170933Y-112292602D01*
X181164155Y-112294539D01*
X181055019Y-112363399D01*
X180969596Y-112460122D01*
X180914754Y-112576932D01*
X180894901Y-112704440D01*
X156053453Y-112704440D01*
X156077678Y-112669844D01*
X156081979Y-112662396D01*
X156167659Y-112478652D01*
X156170602Y-112470566D01*
X156208496Y-112329143D01*
X156207853Y-112316860D01*
X156198199Y-112314000D01*
X155299680Y-112314000D01*
X155286995Y-112318122D01*
X155284000Y-112322243D01*
X155284000Y-113226874D01*
X154776000Y-113226874D01*
X154776000Y-112329680D01*
X154771878Y-112316995D01*
X154767757Y-112314000D01*
X153863126Y-112314000D01*
X153851424Y-112317802D01*
X153851161Y-112327864D01*
X153349808Y-112327864D01*
X153374072Y-112253188D01*
X153374073Y-112253183D01*
X153375674Y-112248256D01*
X153395460Y-112060000D01*
X153375674Y-111871744D01*
X153374073Y-111866817D01*
X153374072Y-111866812D01*
X153349392Y-111790857D01*
X153851504Y-111790857D01*
X153852147Y-111803140D01*
X153861801Y-111806000D01*
X154760320Y-111806000D01*
X154773005Y-111801878D01*
X154776000Y-111797757D01*
X154776000Y-111790320D01*
X155284000Y-111790320D01*
X155288122Y-111803005D01*
X155292243Y-111806000D01*
X156196874Y-111806000D01*
X156208576Y-111802198D01*
X156208839Y-111792136D01*
X156170602Y-111649434D01*
X156167659Y-111641348D01*
X156081979Y-111457604D01*
X156077678Y-111450156D01*
X155961395Y-111284088D01*
X155955862Y-111277493D01*
X155818369Y-111140000D01*
X167964540Y-111140000D01*
X167984326Y-111328256D01*
X167985927Y-111333183D01*
X167985928Y-111333188D01*
X168023934Y-111450156D01*
X168042821Y-111508284D01*
X168137467Y-111672216D01*
X168140939Y-111676072D01*
X168260659Y-111809035D01*
X168260663Y-111809038D01*
X168264129Y-111812888D01*
X168417270Y-111924151D01*
X168422002Y-111926258D01*
X168422004Y-111926259D01*
X168585460Y-111999035D01*
X168590197Y-112001144D01*
X168595267Y-112002222D01*
X168595268Y-112002222D01*
X168632610Y-112010159D01*
X168775354Y-112040500D01*
X168964646Y-112040500D01*
X169107390Y-112010159D01*
X169144732Y-112002222D01*
X169144733Y-112002222D01*
X169149803Y-112001144D01*
X169154540Y-111999035D01*
X169317996Y-111926259D01*
X169317998Y-111926258D01*
X169322730Y-111924151D01*
X169475871Y-111812888D01*
X169479337Y-111809038D01*
X169479341Y-111809035D01*
X169599061Y-111676072D01*
X169602533Y-111672216D01*
X169697179Y-111508284D01*
X169716066Y-111450156D01*
X169754072Y-111333188D01*
X169754073Y-111333183D01*
X169755674Y-111328256D01*
X169775460Y-111140000D01*
X170504540Y-111140000D01*
X170524326Y-111328256D01*
X170525927Y-111333183D01*
X170525928Y-111333188D01*
X170563934Y-111450156D01*
X170582821Y-111508284D01*
X170677467Y-111672216D01*
X170680939Y-111676072D01*
X170800659Y-111809035D01*
X170800663Y-111809038D01*
X170804129Y-111812888D01*
X170957270Y-111924151D01*
X170962002Y-111926258D01*
X170962004Y-111926259D01*
X171125460Y-111999035D01*
X171130197Y-112001144D01*
X171135267Y-112002222D01*
X171135268Y-112002222D01*
X171172610Y-112010159D01*
X171315354Y-112040500D01*
X171504646Y-112040500D01*
X171647390Y-112010159D01*
X171684732Y-112002222D01*
X171684733Y-112002222D01*
X171689803Y-112001144D01*
X171694540Y-111999035D01*
X171857996Y-111926259D01*
X171857998Y-111926258D01*
X171862730Y-111924151D01*
X172015871Y-111812888D01*
X172019337Y-111809038D01*
X172019341Y-111809035D01*
X172139061Y-111676072D01*
X172142533Y-111672216D01*
X172237179Y-111508284D01*
X172256066Y-111450156D01*
X172294072Y-111333188D01*
X172294073Y-111333183D01*
X172295674Y-111328256D01*
X172315460Y-111140000D01*
X172295674Y-110951744D01*
X172294073Y-110946817D01*
X172294072Y-110946812D01*
X172238781Y-110776646D01*
X172238780Y-110776645D01*
X172237179Y-110771716D01*
X172142533Y-110607784D01*
X172134044Y-110598356D01*
X172019341Y-110470965D01*
X172019337Y-110470962D01*
X172015871Y-110467112D01*
X171862730Y-110355849D01*
X171857998Y-110353742D01*
X171857996Y-110353741D01*
X171694540Y-110280965D01*
X171694539Y-110280965D01*
X171689803Y-110278856D01*
X171684733Y-110277778D01*
X171684732Y-110277778D01*
X171647390Y-110269841D01*
X171504646Y-110239500D01*
X171315354Y-110239500D01*
X171172610Y-110269841D01*
X171135268Y-110277778D01*
X171135267Y-110277778D01*
X171130197Y-110278856D01*
X171125461Y-110280965D01*
X171125460Y-110280965D01*
X170962004Y-110353741D01*
X170962002Y-110353742D01*
X170957270Y-110355849D01*
X170804129Y-110467112D01*
X170800663Y-110470962D01*
X170800659Y-110470965D01*
X170685956Y-110598356D01*
X170677467Y-110607784D01*
X170582821Y-110771716D01*
X170581220Y-110776645D01*
X170581219Y-110776646D01*
X170525928Y-110946812D01*
X170525927Y-110946817D01*
X170524326Y-110951744D01*
X170504540Y-111140000D01*
X169775460Y-111140000D01*
X169755674Y-110951744D01*
X169754073Y-110946817D01*
X169754072Y-110946812D01*
X169698781Y-110776646D01*
X169698780Y-110776645D01*
X169697179Y-110771716D01*
X169602533Y-110607784D01*
X169594044Y-110598356D01*
X169479341Y-110470965D01*
X169479337Y-110470962D01*
X169475871Y-110467112D01*
X169322730Y-110355849D01*
X169317998Y-110353742D01*
X169317996Y-110353741D01*
X169154540Y-110280965D01*
X169154539Y-110280965D01*
X169149803Y-110278856D01*
X169144733Y-110277778D01*
X169144732Y-110277778D01*
X169107390Y-110269841D01*
X168964646Y-110239500D01*
X168775354Y-110239500D01*
X168632610Y-110269841D01*
X168595268Y-110277778D01*
X168595267Y-110277778D01*
X168590197Y-110278856D01*
X168585461Y-110280965D01*
X168585460Y-110280965D01*
X168422004Y-110353741D01*
X168422002Y-110353742D01*
X168417270Y-110355849D01*
X168264129Y-110467112D01*
X168260663Y-110470962D01*
X168260659Y-110470965D01*
X168145956Y-110598356D01*
X168137467Y-110607784D01*
X168042821Y-110771716D01*
X168041220Y-110776645D01*
X168041219Y-110776646D01*
X167985928Y-110946812D01*
X167985927Y-110946817D01*
X167984326Y-110951744D01*
X167964540Y-111140000D01*
X155818369Y-111140000D01*
X155812507Y-111134138D01*
X155805912Y-111128605D01*
X155639844Y-111012322D01*
X155632396Y-111008021D01*
X155448652Y-110922341D01*
X155440566Y-110919398D01*
X155299143Y-110881504D01*
X155286860Y-110882147D01*
X155284000Y-110891801D01*
X155284000Y-111790320D01*
X154776000Y-111790320D01*
X154776000Y-110893126D01*
X154772198Y-110881424D01*
X154762136Y-110881161D01*
X154619434Y-110919398D01*
X154611348Y-110922341D01*
X154427604Y-111008021D01*
X154420156Y-111012322D01*
X154254088Y-111128605D01*
X154247493Y-111134138D01*
X154104138Y-111277493D01*
X154098605Y-111284088D01*
X153982322Y-111450156D01*
X153978021Y-111457604D01*
X153892341Y-111641348D01*
X153889398Y-111649434D01*
X153851504Y-111790857D01*
X153349392Y-111790857D01*
X153318781Y-111696646D01*
X153318780Y-111696645D01*
X153317179Y-111691716D01*
X153222533Y-111527784D01*
X153200536Y-111503354D01*
X153099341Y-111390965D01*
X153099337Y-111390962D01*
X153095871Y-111387112D01*
X152942730Y-111275849D01*
X152937998Y-111273742D01*
X152937996Y-111273741D01*
X152774540Y-111200965D01*
X152774539Y-111200965D01*
X152769803Y-111198856D01*
X152764733Y-111197778D01*
X152764732Y-111197778D01*
X152727390Y-111189841D01*
X152584646Y-111159500D01*
X152395354Y-111159500D01*
X152252610Y-111189841D01*
X152215268Y-111197778D01*
X152215267Y-111197778D01*
X152210197Y-111198856D01*
X152205461Y-111200965D01*
X152205460Y-111200965D01*
X152042004Y-111273741D01*
X152042002Y-111273742D01*
X152037270Y-111275849D01*
X151884129Y-111387112D01*
X151880663Y-111390962D01*
X151880659Y-111390965D01*
X151779464Y-111503354D01*
X151757467Y-111527784D01*
X151662821Y-111691716D01*
X151661220Y-111696645D01*
X151661219Y-111696646D01*
X151605928Y-111866812D01*
X151605927Y-111866817D01*
X151604326Y-111871744D01*
X151584540Y-112060000D01*
X151585082Y-112065157D01*
X151598401Y-112191887D01*
X151585679Y-112251736D01*
X151569947Y-112272239D01*
X150513581Y-113328605D01*
X150503601Y-113336579D01*
X150503616Y-113336596D01*
X150498246Y-113341166D01*
X150492280Y-113344930D01*
X150487612Y-113350215D01*
X150487609Y-113350218D01*
X150456708Y-113385208D01*
X150452508Y-113389678D01*
X150440680Y-113401506D01*
X150433902Y-113410550D01*
X150428896Y-113416699D01*
X150397377Y-113452388D01*
X150393018Y-113461671D01*
X150382627Y-113478966D01*
X150376474Y-113487176D01*
X150373998Y-113493781D01*
X150359765Y-113531746D01*
X150356680Y-113539066D01*
X150339446Y-113575774D01*
X150339445Y-113575778D01*
X150336447Y-113582163D01*
X150335362Y-113589131D01*
X150335361Y-113589135D01*
X150334870Y-113592292D01*
X150329747Y-113611820D01*
X150326148Y-113621420D01*
X150324661Y-113641438D01*
X150322620Y-113668898D01*
X150321713Y-113676793D01*
X150320088Y-113687228D01*
X150320087Y-113687236D01*
X150319500Y-113691009D01*
X150319500Y-113707209D01*
X150319228Y-113714545D01*
X150315524Y-113764392D01*
X150316996Y-113771287D01*
X150316996Y-113771289D01*
X150317319Y-113772801D01*
X150319500Y-113793468D01*
X150319500Y-116792848D01*
X150318081Y-116805549D01*
X150318103Y-116805551D01*
X150317537Y-116812583D01*
X150315981Y-116819461D01*
X150316418Y-116826499D01*
X150319310Y-116873116D01*
X150319500Y-116879247D01*
X150319500Y-116895954D01*
X150319999Y-116899441D01*
X150320000Y-116899449D01*
X150321101Y-116907135D01*
X150321911Y-116915038D01*
X150324192Y-116951796D01*
X150324859Y-116962552D01*
X150327252Y-116969181D01*
X150327253Y-116969185D01*
X150328342Y-116972201D01*
X150333223Y-116991777D01*
X150334677Y-117001932D01*
X150337596Y-117008351D01*
X150337597Y-117008356D01*
X150354381Y-117045271D01*
X150357377Y-117052629D01*
X150373540Y-117097401D01*
X150379592Y-117105686D01*
X150389768Y-117123100D01*
X150394016Y-117132442D01*
X150398621Y-117137786D01*
X150425093Y-117168509D01*
X150430033Y-117174730D01*
X150438522Y-117186350D01*
X150449986Y-117197814D01*
X150454980Y-117203194D01*
X150457316Y-117205905D01*
X150480978Y-117262330D01*
X150466955Y-117321887D01*
X150420603Y-117361826D01*
X150381714Y-117369527D01*
X150326575Y-117369190D01*
X150315282Y-117369121D01*
X150308231Y-117369078D01*
X150301454Y-117371015D01*
X150301453Y-117371015D01*
X150190935Y-117402601D01*
X150190933Y-117402602D01*
X150184155Y-117404539D01*
X150075019Y-117473399D01*
X149989596Y-117570122D01*
X149934754Y-117686932D01*
X149914901Y-117814440D01*
X145584795Y-117814440D01*
X145799739Y-117599496D01*
X145854256Y-117571719D01*
X145869743Y-117570500D01*
X147574361Y-117570500D01*
X147691762Y-117555044D01*
X147837841Y-117494536D01*
X147963282Y-117398282D01*
X148059536Y-117272841D01*
X148120044Y-117126762D01*
X148139207Y-116981207D01*
X148139835Y-116976434D01*
X148140682Y-116970000D01*
X148139702Y-116962552D01*
X148132147Y-116905168D01*
X148120044Y-116813238D01*
X148059536Y-116667159D01*
X147963282Y-116541718D01*
X147837841Y-116445464D01*
X147691762Y-116384956D01*
X147574361Y-116369500D01*
X145625849Y-116369500D01*
X145612927Y-116368653D01*
X145580000Y-116364318D01*
X145573566Y-116365165D01*
X145541080Y-116369442D01*
X145540639Y-116369500D01*
X145423238Y-116384956D01*
X145277159Y-116445464D01*
X145151718Y-116541718D01*
X145147764Y-116546871D01*
X145131502Y-116568064D01*
X145122964Y-116577801D01*
X144437801Y-117262964D01*
X144428064Y-117271502D01*
X144401718Y-117291718D01*
X144344117Y-117366785D01*
X144305464Y-117417159D01*
X144244956Y-117563238D01*
X144224318Y-117720000D01*
X131810000Y-117720000D01*
X131810000Y-104351105D01*
X146869031Y-104351105D01*
X146908612Y-104515968D01*
X146986375Y-104666631D01*
X147097831Y-104794396D01*
X147236547Y-104891887D01*
X147394513Y-104953476D01*
X147400428Y-104954255D01*
X147400429Y-104954255D01*
X147513624Y-104969157D01*
X147523826Y-104970500D01*
X152770500Y-104970500D01*
X152828691Y-104989407D01*
X152864655Y-105038907D01*
X152869500Y-105069500D01*
X152869500Y-106261231D01*
X152869499Y-106261750D01*
X152869031Y-106351105D01*
X152869381Y-106352561D01*
X152869500Y-106354629D01*
X152869500Y-108261231D01*
X152869499Y-108261750D01*
X152869200Y-108318903D01*
X152869031Y-108351105D01*
X152878062Y-108388723D01*
X152880077Y-108399924D01*
X152884724Y-108438320D01*
X152887433Y-108445487D01*
X152896908Y-108470563D01*
X152900564Y-108482444D01*
X152908612Y-108515968D01*
X152911350Y-108521272D01*
X152926347Y-108550329D01*
X152930983Y-108560741D01*
X152944655Y-108596923D01*
X152948032Y-108601836D01*
X152948037Y-108601846D01*
X152964182Y-108625335D01*
X152970568Y-108636004D01*
X152986375Y-108666631D01*
X152990299Y-108671130D01*
X152990301Y-108671132D01*
X153011801Y-108695779D01*
X153018784Y-108704780D01*
X153040688Y-108736651D01*
X153066424Y-108759581D01*
X153075169Y-108768418D01*
X153097831Y-108794396D01*
X153102712Y-108797826D01*
X153102716Y-108797830D01*
X153129470Y-108816633D01*
X153138401Y-108823711D01*
X153147931Y-108832202D01*
X153167279Y-108849440D01*
X153172554Y-108852233D01*
X153197746Y-108865572D01*
X153208344Y-108872066D01*
X153236547Y-108891887D01*
X153250828Y-108897455D01*
X153272573Y-108905933D01*
X153282936Y-108910677D01*
X153311845Y-108925984D01*
X153311848Y-108925985D01*
X153317119Y-108928776D01*
X153322906Y-108930230D01*
X153322907Y-108930230D01*
X153350552Y-108937174D01*
X153362392Y-108940952D01*
X153394513Y-108953476D01*
X153400428Y-108954255D01*
X153400429Y-108954255D01*
X153408185Y-108955276D01*
X153432861Y-108958525D01*
X153444048Y-108960659D01*
X153458711Y-108964342D01*
X153475769Y-108968627D01*
X153475772Y-108968627D01*
X153481559Y-108970081D01*
X153510647Y-108970233D01*
X153521097Y-108970288D01*
X153522629Y-108970342D01*
X153523826Y-108970500D01*
X153561231Y-108970500D01*
X153561750Y-108970501D01*
X153646885Y-108970947D01*
X153646887Y-108970947D01*
X153651105Y-108970969D01*
X153652561Y-108970619D01*
X153654629Y-108970500D01*
X154251231Y-108970500D01*
X154251750Y-108970501D01*
X154336885Y-108970947D01*
X154336887Y-108970947D01*
X154341105Y-108970969D01*
X154342561Y-108970619D01*
X154344629Y-108970500D01*
X154901231Y-108970500D01*
X154901750Y-108970501D01*
X154986885Y-108970947D01*
X154986887Y-108970947D01*
X154991105Y-108970969D01*
X154992561Y-108970619D01*
X154994629Y-108970500D01*
X155561231Y-108970500D01*
X155561750Y-108970501D01*
X155646885Y-108970947D01*
X155646887Y-108970947D01*
X155651105Y-108970969D01*
X155652561Y-108970619D01*
X155654629Y-108970500D01*
X156301231Y-108970500D01*
X156301750Y-108970501D01*
X156386885Y-108970947D01*
X156386887Y-108970947D01*
X156391105Y-108970969D01*
X156392561Y-108970619D01*
X156394629Y-108970500D01*
X156951231Y-108970500D01*
X156951750Y-108970501D01*
X157036885Y-108970947D01*
X157036887Y-108970947D01*
X157041105Y-108970969D01*
X157042561Y-108970619D01*
X157044629Y-108970500D01*
X157561231Y-108970500D01*
X157561750Y-108970501D01*
X157646885Y-108970947D01*
X157646887Y-108970947D01*
X157651105Y-108970969D01*
X157652561Y-108970619D01*
X157654629Y-108970500D01*
X158201231Y-108970500D01*
X158201750Y-108970501D01*
X158286885Y-108970947D01*
X158286887Y-108970947D01*
X158291105Y-108970969D01*
X158292561Y-108970619D01*
X158294629Y-108970500D01*
X158901231Y-108970500D01*
X158901750Y-108970501D01*
X158986885Y-108970947D01*
X158986887Y-108970947D01*
X158991105Y-108970969D01*
X158992561Y-108970619D01*
X158994629Y-108970500D01*
X159561231Y-108970500D01*
X159561750Y-108970501D01*
X159646885Y-108970947D01*
X159646887Y-108970947D01*
X159651105Y-108970969D01*
X159652561Y-108970619D01*
X159654629Y-108970500D01*
X160301231Y-108970500D01*
X160301750Y-108970501D01*
X160386885Y-108970947D01*
X160386887Y-108970947D01*
X160391105Y-108970969D01*
X160392561Y-108970619D01*
X160394629Y-108970500D01*
X160901231Y-108970500D01*
X160901750Y-108970501D01*
X160986885Y-108970947D01*
X160986887Y-108970947D01*
X160991105Y-108970969D01*
X160992561Y-108970619D01*
X160994629Y-108970500D01*
X161561231Y-108970500D01*
X161561750Y-108970501D01*
X161646885Y-108970947D01*
X161646887Y-108970947D01*
X161651105Y-108970969D01*
X161652561Y-108970619D01*
X161654629Y-108970500D01*
X162101231Y-108970500D01*
X162101750Y-108970501D01*
X162186885Y-108970947D01*
X162186887Y-108970947D01*
X162191105Y-108970969D01*
X162192561Y-108970619D01*
X162194629Y-108970500D01*
X162751231Y-108970500D01*
X162751750Y-108970501D01*
X162836885Y-108970947D01*
X162836887Y-108970947D01*
X162841105Y-108970969D01*
X162842561Y-108970619D01*
X162844629Y-108970500D01*
X163561231Y-108970500D01*
X163561750Y-108970501D01*
X163646885Y-108970947D01*
X163646887Y-108970947D01*
X163651105Y-108970969D01*
X163652561Y-108970619D01*
X163654629Y-108970500D01*
X164051231Y-108970500D01*
X164051750Y-108970501D01*
X164136885Y-108970947D01*
X164136887Y-108970947D01*
X164141105Y-108970969D01*
X164142561Y-108970619D01*
X164144629Y-108970500D01*
X164801231Y-108970500D01*
X164801750Y-108970501D01*
X164886885Y-108970947D01*
X164886887Y-108970947D01*
X164891105Y-108970969D01*
X164892561Y-108970619D01*
X164894629Y-108970500D01*
X165561231Y-108970500D01*
X165561750Y-108970501D01*
X165646885Y-108970947D01*
X165646887Y-108970947D01*
X165651105Y-108970969D01*
X165652561Y-108970619D01*
X165654629Y-108970500D01*
X166151231Y-108970500D01*
X166151750Y-108970501D01*
X166236885Y-108970947D01*
X166236887Y-108970947D01*
X166241105Y-108970969D01*
X166242561Y-108970619D01*
X166244629Y-108970500D01*
X166891231Y-108970500D01*
X166891750Y-108970501D01*
X166976885Y-108970947D01*
X166976887Y-108970947D01*
X166981105Y-108970969D01*
X166982561Y-108970619D01*
X166984629Y-108970500D01*
X167561231Y-108970500D01*
X167561750Y-108970501D01*
X167646885Y-108970947D01*
X167646887Y-108970947D01*
X167651105Y-108970969D01*
X167652561Y-108970619D01*
X167654629Y-108970500D01*
X168491231Y-108970500D01*
X168491750Y-108970501D01*
X168576885Y-108970947D01*
X168576887Y-108970947D01*
X168581105Y-108970969D01*
X168582561Y-108970619D01*
X168584629Y-108970500D01*
X169051231Y-108970500D01*
X169051750Y-108970501D01*
X169136885Y-108970947D01*
X169136887Y-108970947D01*
X169141105Y-108970969D01*
X169142561Y-108970619D01*
X169144629Y-108970500D01*
X169561231Y-108970500D01*
X169561750Y-108970501D01*
X169646885Y-108970947D01*
X169646887Y-108970947D01*
X169651105Y-108970969D01*
X169652561Y-108970619D01*
X169654629Y-108970500D01*
X170001231Y-108970500D01*
X170001750Y-108970501D01*
X170086885Y-108970947D01*
X170086887Y-108970947D01*
X170091105Y-108970969D01*
X170092561Y-108970619D01*
X170094629Y-108970500D01*
X170751231Y-108970500D01*
X170751750Y-108970501D01*
X170836885Y-108970947D01*
X170836887Y-108970947D01*
X170841105Y-108970969D01*
X170842561Y-108970619D01*
X170844629Y-108970500D01*
X171561231Y-108970500D01*
X171561750Y-108970501D01*
X171645138Y-108970938D01*
X171645140Y-108970938D01*
X171651105Y-108970969D01*
X171688723Y-108961938D01*
X171699924Y-108959923D01*
X171738320Y-108955276D01*
X171770568Y-108943090D01*
X171782444Y-108939436D01*
X171815968Y-108931388D01*
X171850329Y-108913653D01*
X171860741Y-108909017D01*
X171891340Y-108897455D01*
X171891343Y-108897454D01*
X171896923Y-108895345D01*
X171901836Y-108891968D01*
X171901846Y-108891963D01*
X171925335Y-108875818D01*
X171936006Y-108869431D01*
X171943483Y-108865572D01*
X171966631Y-108853625D01*
X171971130Y-108849701D01*
X171971132Y-108849699D01*
X171995779Y-108828199D01*
X172004783Y-108821214D01*
X172006673Y-108819915D01*
X172036651Y-108799312D01*
X172059582Y-108773575D01*
X172068418Y-108764831D01*
X172089899Y-108746092D01*
X172094396Y-108742169D01*
X172097826Y-108737288D01*
X172097830Y-108737284D01*
X172116633Y-108710530D01*
X172123711Y-108701599D01*
X172132202Y-108692069D01*
X172149440Y-108672721D01*
X172165572Y-108642254D01*
X172172066Y-108631656D01*
X172176508Y-108625335D01*
X172191887Y-108603453D01*
X172205933Y-108567427D01*
X172210677Y-108557064D01*
X172211557Y-108555403D01*
X172228776Y-108522881D01*
X172230230Y-108517093D01*
X172237174Y-108489448D01*
X172240953Y-108477606D01*
X172251309Y-108451044D01*
X172253476Y-108445487D01*
X172258525Y-108407139D01*
X172260660Y-108395947D01*
X172262478Y-108388712D01*
X172270081Y-108358441D01*
X172270288Y-108318903D01*
X172270342Y-108317371D01*
X172270500Y-108316174D01*
X172270500Y-108278769D01*
X172270501Y-108278250D01*
X172270947Y-108193115D01*
X172270947Y-108193113D01*
X172270969Y-108188895D01*
X172270619Y-108187439D01*
X172270500Y-108185371D01*
X172270500Y-106278769D01*
X172270501Y-106278250D01*
X172270947Y-106193115D01*
X172270947Y-106193113D01*
X172270969Y-106188895D01*
X172270619Y-106187439D01*
X172270500Y-106185371D01*
X172270500Y-105069500D01*
X172289407Y-105011309D01*
X172338907Y-104975345D01*
X172369500Y-104970500D01*
X177612516Y-104970500D01*
X177635443Y-104967726D01*
X177732398Y-104955993D01*
X177732401Y-104955992D01*
X177738320Y-104955276D01*
X177896923Y-104895345D01*
X177901840Y-104891965D01*
X177901843Y-104891964D01*
X178031733Y-104802692D01*
X178036651Y-104799312D01*
X178149440Y-104672721D01*
X178152665Y-104666631D01*
X178168135Y-104637412D01*
X178228776Y-104522881D01*
X178270081Y-104358441D01*
X178270969Y-104188895D01*
X178231388Y-104024032D01*
X178153625Y-103873369D01*
X178042169Y-103745604D01*
X177903453Y-103648113D01*
X177745487Y-103586524D01*
X177739572Y-103585745D01*
X177739571Y-103585745D01*
X177619387Y-103569923D01*
X177616174Y-103569500D01*
X172369500Y-103569500D01*
X172311309Y-103550593D01*
X172275345Y-103501093D01*
X172270500Y-103470500D01*
X172270500Y-102278769D01*
X172270501Y-102278250D01*
X172270947Y-102193115D01*
X172270947Y-102193113D01*
X172270969Y-102188895D01*
X172270619Y-102187439D01*
X172270500Y-102185371D01*
X172270500Y-101069500D01*
X172289407Y-101011309D01*
X172338907Y-100975345D01*
X172369500Y-100970500D01*
X177612516Y-100970500D01*
X177635443Y-100967726D01*
X177732398Y-100955993D01*
X177732401Y-100955992D01*
X177738320Y-100955276D01*
X177896923Y-100895345D01*
X177901840Y-100891965D01*
X177901843Y-100891964D01*
X178031733Y-100802692D01*
X178036651Y-100799312D01*
X178149440Y-100672721D01*
X178152665Y-100666631D01*
X178168135Y-100637412D01*
X178228776Y-100522881D01*
X178270081Y-100358441D01*
X178270969Y-100188895D01*
X178231388Y-100024032D01*
X178153625Y-99873369D01*
X178042169Y-99745604D01*
X177903453Y-99648113D01*
X177745487Y-99586524D01*
X177739572Y-99585745D01*
X177739571Y-99585745D01*
X177619387Y-99569923D01*
X177616174Y-99569500D01*
X172369500Y-99569500D01*
X172311309Y-99550593D01*
X172275345Y-99501093D01*
X172270500Y-99470500D01*
X172270500Y-98278769D01*
X172270501Y-98278250D01*
X172270947Y-98193115D01*
X172270947Y-98193113D01*
X172270969Y-98188895D01*
X172270619Y-98187439D01*
X172270500Y-98185371D01*
X172270500Y-97069500D01*
X172289407Y-97011309D01*
X172338907Y-96975345D01*
X172369500Y-96970500D01*
X177612516Y-96970500D01*
X177635443Y-96967726D01*
X177732398Y-96955993D01*
X177732401Y-96955992D01*
X177738320Y-96955276D01*
X177896923Y-96895345D01*
X177901840Y-96891965D01*
X177901843Y-96891964D01*
X178031733Y-96802692D01*
X178036651Y-96799312D01*
X178149440Y-96672721D01*
X178152665Y-96666631D01*
X178168135Y-96637412D01*
X178228776Y-96522881D01*
X178270081Y-96358441D01*
X178270969Y-96188895D01*
X178231388Y-96024032D01*
X178153625Y-95873369D01*
X178042169Y-95745604D01*
X177903453Y-95648113D01*
X177745487Y-95586524D01*
X177739572Y-95585745D01*
X177739571Y-95585745D01*
X177619387Y-95569923D01*
X177616174Y-95569500D01*
X172369500Y-95569500D01*
X172311309Y-95550593D01*
X172275345Y-95501093D01*
X172270500Y-95470500D01*
X172270500Y-94278769D01*
X172270501Y-94278250D01*
X172270947Y-94193115D01*
X172270947Y-94193113D01*
X172270969Y-94188895D01*
X172270619Y-94187439D01*
X172270500Y-94185371D01*
X172270500Y-93069500D01*
X172289407Y-93011309D01*
X172338907Y-92975345D01*
X172369500Y-92970500D01*
X177612516Y-92970500D01*
X177635443Y-92967726D01*
X177732398Y-92955993D01*
X177732401Y-92955992D01*
X177738320Y-92955276D01*
X177896923Y-92895345D01*
X177901840Y-92891965D01*
X177901843Y-92891964D01*
X178031733Y-92802692D01*
X178036651Y-92799312D01*
X178149440Y-92672721D01*
X178152665Y-92666631D01*
X178168135Y-92637412D01*
X178228776Y-92522881D01*
X178270081Y-92358441D01*
X178270969Y-92188895D01*
X178231388Y-92024032D01*
X178153625Y-91873369D01*
X178042169Y-91745604D01*
X177903453Y-91648113D01*
X177745487Y-91586524D01*
X177739572Y-91585745D01*
X177739571Y-91585745D01*
X177619387Y-91569923D01*
X177616174Y-91569500D01*
X172369500Y-91569500D01*
X172311309Y-91550593D01*
X172275345Y-91501093D01*
X172270500Y-91470500D01*
X172270500Y-90278769D01*
X172270501Y-90278250D01*
X172270947Y-90193115D01*
X172270947Y-90193113D01*
X172270969Y-90188895D01*
X172270619Y-90187439D01*
X172270500Y-90185371D01*
X172270500Y-89069500D01*
X172289407Y-89011309D01*
X172338907Y-88975345D01*
X172369500Y-88970500D01*
X175612516Y-88970500D01*
X175635443Y-88967726D01*
X175732398Y-88955993D01*
X175732401Y-88955992D01*
X175738320Y-88955276D01*
X175896923Y-88895345D01*
X175901840Y-88891965D01*
X175901843Y-88891964D01*
X176031733Y-88802692D01*
X176036651Y-88799312D01*
X176149440Y-88672721D01*
X176152665Y-88666631D01*
X176168135Y-88637412D01*
X176228776Y-88522881D01*
X176270081Y-88358441D01*
X176270969Y-88188895D01*
X176231388Y-88024032D01*
X176153625Y-87873369D01*
X176042169Y-87745604D01*
X175903453Y-87648113D01*
X175745487Y-87586524D01*
X175739572Y-87585745D01*
X175739571Y-87585745D01*
X175619387Y-87569923D01*
X175616174Y-87569500D01*
X172369500Y-87569500D01*
X172311309Y-87550593D01*
X172275345Y-87501093D01*
X172270500Y-87470500D01*
X172270500Y-84227484D01*
X172255276Y-84101680D01*
X172195345Y-83943077D01*
X172099312Y-83803349D01*
X171972721Y-83690560D01*
X171822881Y-83611224D01*
X171740661Y-83590571D01*
X171664231Y-83571373D01*
X171664228Y-83571373D01*
X171658441Y-83569919D01*
X171572841Y-83569471D01*
X171494861Y-83569062D01*
X171494859Y-83569062D01*
X171488895Y-83569031D01*
X171483099Y-83570423D01*
X171483095Y-83570423D01*
X171375703Y-83596207D01*
X171324032Y-83608612D01*
X171248701Y-83647493D01*
X171178675Y-83683636D01*
X171178673Y-83683638D01*
X171173369Y-83686375D01*
X171045604Y-83797831D01*
X170948113Y-83936547D01*
X170886524Y-84094513D01*
X170869500Y-84223826D01*
X170869500Y-87470500D01*
X170850593Y-87528691D01*
X170801093Y-87564655D01*
X170770500Y-87569500D01*
X170768769Y-87569500D01*
X170768250Y-87569499D01*
X170683115Y-87569053D01*
X170683113Y-87569053D01*
X170678895Y-87569031D01*
X170677439Y-87569381D01*
X170675371Y-87569500D01*
X170018769Y-87569500D01*
X170018250Y-87569499D01*
X169933115Y-87569053D01*
X169933113Y-87569053D01*
X169928895Y-87569031D01*
X169927439Y-87569381D01*
X169925371Y-87569500D01*
X169578769Y-87569500D01*
X169578250Y-87569499D01*
X169493115Y-87569053D01*
X169493113Y-87569053D01*
X169488895Y-87569031D01*
X169487439Y-87569381D01*
X169485371Y-87569500D01*
X169068769Y-87569500D01*
X169068250Y-87569499D01*
X168983115Y-87569053D01*
X168983113Y-87569053D01*
X168978895Y-87569031D01*
X168977439Y-87569381D01*
X168975371Y-87569500D01*
X168508769Y-87569500D01*
X168508250Y-87569499D01*
X168423115Y-87569053D01*
X168423113Y-87569053D01*
X168418895Y-87569031D01*
X168417439Y-87569381D01*
X168415371Y-87569500D01*
X168369500Y-87569500D01*
X168311309Y-87550593D01*
X168275345Y-87501093D01*
X168270500Y-87470500D01*
X168270500Y-82227484D01*
X168255276Y-82101680D01*
X168195345Y-81943077D01*
X168099312Y-81803349D01*
X167972721Y-81690560D01*
X167822881Y-81611224D01*
X167740661Y-81590571D01*
X167664231Y-81571373D01*
X167664228Y-81571373D01*
X167658441Y-81569919D01*
X167572841Y-81569471D01*
X167494861Y-81569062D01*
X167494859Y-81569062D01*
X167488895Y-81569031D01*
X167483099Y-81570423D01*
X167483095Y-81570423D01*
X167375703Y-81596207D01*
X167324032Y-81608612D01*
X167248700Y-81647494D01*
X167178675Y-81683636D01*
X167178673Y-81683638D01*
X167173369Y-81686375D01*
X167045604Y-81797831D01*
X166948113Y-81936547D01*
X166886524Y-82094513D01*
X166869500Y-82223826D01*
X166869500Y-87470500D01*
X166850593Y-87528691D01*
X166801093Y-87564655D01*
X166770500Y-87569500D01*
X166168769Y-87569500D01*
X166168250Y-87569499D01*
X166083115Y-87569053D01*
X166083113Y-87569053D01*
X166078895Y-87569031D01*
X166077439Y-87569381D01*
X166075371Y-87569500D01*
X165578769Y-87569500D01*
X165578250Y-87569499D01*
X165493115Y-87569053D01*
X165493113Y-87569053D01*
X165488895Y-87569031D01*
X165487439Y-87569381D01*
X165485371Y-87569500D01*
X164818769Y-87569500D01*
X164818250Y-87569499D01*
X164733115Y-87569053D01*
X164733113Y-87569053D01*
X164728895Y-87569031D01*
X164727439Y-87569381D01*
X164725371Y-87569500D01*
X164369500Y-87569500D01*
X164311309Y-87550593D01*
X164275345Y-87501093D01*
X164270500Y-87470500D01*
X164270500Y-82227484D01*
X164255276Y-82101680D01*
X164195345Y-81943077D01*
X164099312Y-81803349D01*
X163972721Y-81690560D01*
X163822881Y-81611224D01*
X163740661Y-81590571D01*
X163664231Y-81571373D01*
X163664228Y-81571373D01*
X163658441Y-81569919D01*
X163572841Y-81569471D01*
X163494861Y-81569062D01*
X163494859Y-81569062D01*
X163488895Y-81569031D01*
X163483099Y-81570423D01*
X163483095Y-81570423D01*
X163375703Y-81596207D01*
X163324032Y-81608612D01*
X163248700Y-81647494D01*
X163178675Y-81683636D01*
X163178673Y-81683638D01*
X163173369Y-81686375D01*
X163045604Y-81797831D01*
X162948113Y-81936547D01*
X162886524Y-82094513D01*
X162869500Y-82223826D01*
X162869500Y-87470500D01*
X162850593Y-87528691D01*
X162801093Y-87564655D01*
X162770500Y-87569500D01*
X162768769Y-87569500D01*
X162768250Y-87569499D01*
X162683115Y-87569053D01*
X162683113Y-87569053D01*
X162678895Y-87569031D01*
X162677439Y-87569381D01*
X162675371Y-87569500D01*
X162369500Y-87569500D01*
X162311309Y-87550593D01*
X162275345Y-87501093D01*
X162270500Y-87470500D01*
X162270500Y-82227484D01*
X162255276Y-82101680D01*
X162195345Y-81943077D01*
X162099312Y-81803349D01*
X161972721Y-81690560D01*
X161822881Y-81611224D01*
X161740661Y-81590571D01*
X161664231Y-81571373D01*
X161664228Y-81571373D01*
X161658441Y-81569919D01*
X161572841Y-81569471D01*
X161494861Y-81569062D01*
X161494859Y-81569062D01*
X161488895Y-81569031D01*
X161483099Y-81570423D01*
X161483095Y-81570423D01*
X161375703Y-81596207D01*
X161324032Y-81608612D01*
X161248700Y-81647494D01*
X161178675Y-81683636D01*
X161178673Y-81683638D01*
X161173369Y-81686375D01*
X161045604Y-81797831D01*
X160948113Y-81936547D01*
X160886524Y-82094513D01*
X160869500Y-82223826D01*
X160869500Y-87470500D01*
X160850593Y-87528691D01*
X160801093Y-87564655D01*
X160770500Y-87569500D01*
X160318769Y-87569500D01*
X160318250Y-87569499D01*
X160233115Y-87569053D01*
X160233113Y-87569053D01*
X160228895Y-87569031D01*
X160227439Y-87569381D01*
X160225371Y-87569500D01*
X159578769Y-87569500D01*
X159578250Y-87569499D01*
X159493115Y-87569053D01*
X159493113Y-87569053D01*
X159488895Y-87569031D01*
X159487439Y-87569381D01*
X159485371Y-87569500D01*
X158918769Y-87569500D01*
X158918250Y-87569499D01*
X158833115Y-87569053D01*
X158833113Y-87569053D01*
X158828895Y-87569031D01*
X158827439Y-87569381D01*
X158825371Y-87569500D01*
X158369500Y-87569500D01*
X158311309Y-87550593D01*
X158275345Y-87501093D01*
X158270500Y-87470500D01*
X158270500Y-82227484D01*
X158255276Y-82101680D01*
X158195345Y-81943077D01*
X158099312Y-81803349D01*
X157972721Y-81690560D01*
X157822881Y-81611224D01*
X157740661Y-81590571D01*
X157664231Y-81571373D01*
X157664228Y-81571373D01*
X157658441Y-81569919D01*
X157572841Y-81569471D01*
X157494861Y-81569062D01*
X157494859Y-81569062D01*
X157488895Y-81569031D01*
X157483099Y-81570423D01*
X157483095Y-81570423D01*
X157375703Y-81596207D01*
X157324032Y-81608612D01*
X157248700Y-81647494D01*
X157178675Y-81683636D01*
X157178673Y-81683638D01*
X157173369Y-81686375D01*
X157045604Y-81797831D01*
X156948113Y-81936547D01*
X156886524Y-82094513D01*
X156869500Y-82223826D01*
X156869500Y-87470500D01*
X156850593Y-87528691D01*
X156801093Y-87564655D01*
X156770500Y-87569500D01*
X156318769Y-87569500D01*
X156318250Y-87569499D01*
X156233115Y-87569053D01*
X156233113Y-87569053D01*
X156228895Y-87569031D01*
X156227439Y-87569381D01*
X156225371Y-87569500D01*
X155578769Y-87569500D01*
X155578250Y-87569499D01*
X155493115Y-87569053D01*
X155493113Y-87569053D01*
X155488895Y-87569031D01*
X155487439Y-87569381D01*
X155485371Y-87569500D01*
X154918769Y-87569500D01*
X154918250Y-87569499D01*
X154833115Y-87569053D01*
X154833113Y-87569053D01*
X154828895Y-87569031D01*
X154827439Y-87569381D01*
X154825371Y-87569500D01*
X154369500Y-87569500D01*
X154311309Y-87550593D01*
X154275345Y-87501093D01*
X154270500Y-87470500D01*
X154270500Y-84227484D01*
X154255276Y-84101680D01*
X154195345Y-83943077D01*
X154099312Y-83803349D01*
X153972721Y-83690560D01*
X153822881Y-83611224D01*
X153740661Y-83590571D01*
X153664231Y-83571373D01*
X153664228Y-83571373D01*
X153658441Y-83569919D01*
X153572841Y-83569471D01*
X153494861Y-83569062D01*
X153494859Y-83569062D01*
X153488895Y-83569031D01*
X153483099Y-83570423D01*
X153483095Y-83570423D01*
X153375703Y-83596207D01*
X153324032Y-83608612D01*
X153248701Y-83647493D01*
X153178675Y-83683636D01*
X153178673Y-83683638D01*
X153173369Y-83686375D01*
X153045604Y-83797831D01*
X152948113Y-83936547D01*
X152886524Y-84094513D01*
X152869500Y-84223826D01*
X152869500Y-87470500D01*
X152850593Y-87528691D01*
X152801093Y-87564655D01*
X152770500Y-87569500D01*
X149527484Y-87569500D01*
X149523989Y-87569923D01*
X149407602Y-87584007D01*
X149407599Y-87584008D01*
X149401680Y-87584724D01*
X149243077Y-87644655D01*
X149238160Y-87648035D01*
X149238157Y-87648036D01*
X149125769Y-87725279D01*
X149103349Y-87740688D01*
X148990560Y-87867279D01*
X148987770Y-87872549D01*
X148987769Y-87872550D01*
X148984526Y-87878675D01*
X148911224Y-88017119D01*
X148869919Y-88181559D01*
X148869031Y-88351105D01*
X148908612Y-88515968D01*
X148986375Y-88666631D01*
X149097831Y-88794396D01*
X149236547Y-88891887D01*
X149394513Y-88953476D01*
X149400428Y-88954255D01*
X149400429Y-88954255D01*
X149513624Y-88969157D01*
X149523826Y-88970500D01*
X152770500Y-88970500D01*
X152828691Y-88989407D01*
X152864655Y-89038907D01*
X152869500Y-89069500D01*
X152869500Y-90261231D01*
X152869499Y-90261750D01*
X152869031Y-90351105D01*
X152869381Y-90352561D01*
X152869500Y-90354629D01*
X152869500Y-91470500D01*
X152850593Y-91528691D01*
X152801093Y-91564655D01*
X152770500Y-91569500D01*
X147527484Y-91569500D01*
X147523989Y-91569923D01*
X147407602Y-91584007D01*
X147407599Y-91584008D01*
X147401680Y-91584724D01*
X147243077Y-91644655D01*
X147238160Y-91648035D01*
X147238157Y-91648036D01*
X147125769Y-91725279D01*
X147103349Y-91740688D01*
X146990560Y-91867279D01*
X146987770Y-91872549D01*
X146987769Y-91872550D01*
X146984526Y-91878675D01*
X146911224Y-92017119D01*
X146869919Y-92181559D01*
X146869031Y-92351105D01*
X146908612Y-92515968D01*
X146986375Y-92666631D01*
X147097831Y-92794396D01*
X147236547Y-92891887D01*
X147394513Y-92953476D01*
X147400428Y-92954255D01*
X147400429Y-92954255D01*
X147513624Y-92969157D01*
X147523826Y-92970500D01*
X152770500Y-92970500D01*
X152828691Y-92989407D01*
X152864655Y-93038907D01*
X152869500Y-93069500D01*
X152869500Y-94261231D01*
X152869499Y-94261750D01*
X152869031Y-94351105D01*
X152869381Y-94352561D01*
X152869500Y-94354629D01*
X152869500Y-95470500D01*
X152850593Y-95528691D01*
X152801093Y-95564655D01*
X152770500Y-95569500D01*
X147527484Y-95569500D01*
X147523989Y-95569923D01*
X147407602Y-95584007D01*
X147407599Y-95584008D01*
X147401680Y-95584724D01*
X147243077Y-95644655D01*
X147238160Y-95648035D01*
X147238157Y-95648036D01*
X147125769Y-95725279D01*
X147103349Y-95740688D01*
X146990560Y-95867279D01*
X146987770Y-95872549D01*
X146987769Y-95872550D01*
X146984526Y-95878675D01*
X146911224Y-96017119D01*
X146869919Y-96181559D01*
X146869031Y-96351105D01*
X146908612Y-96515968D01*
X146986375Y-96666631D01*
X147097831Y-96794396D01*
X147236547Y-96891887D01*
X147394513Y-96953476D01*
X147400428Y-96954255D01*
X147400429Y-96954255D01*
X147513624Y-96969157D01*
X147523826Y-96970500D01*
X152770500Y-96970500D01*
X152828691Y-96989407D01*
X152864655Y-97038907D01*
X152869500Y-97069500D01*
X152869500Y-98261231D01*
X152869499Y-98261750D01*
X152869031Y-98351105D01*
X152869381Y-98352561D01*
X152869500Y-98354629D01*
X152869500Y-99470500D01*
X152850593Y-99528691D01*
X152801093Y-99564655D01*
X152770500Y-99569500D01*
X147527484Y-99569500D01*
X147523989Y-99569923D01*
X147407602Y-99584007D01*
X147407599Y-99584008D01*
X147401680Y-99584724D01*
X147243077Y-99644655D01*
X147238160Y-99648035D01*
X147238157Y-99648036D01*
X147125769Y-99725279D01*
X147103349Y-99740688D01*
X146990560Y-99867279D01*
X146987770Y-99872549D01*
X146987769Y-99872550D01*
X146984526Y-99878675D01*
X146911224Y-100017119D01*
X146869919Y-100181559D01*
X146869031Y-100351105D01*
X146908612Y-100515968D01*
X146986375Y-100666631D01*
X147097831Y-100794396D01*
X147236547Y-100891887D01*
X147394513Y-100953476D01*
X147400428Y-100954255D01*
X147400429Y-100954255D01*
X147513624Y-100969157D01*
X147523826Y-100970500D01*
X152770500Y-100970500D01*
X152828691Y-100989407D01*
X152864655Y-101038907D01*
X152869500Y-101069500D01*
X152869500Y-102261231D01*
X152869499Y-102261750D01*
X152869031Y-102351105D01*
X152869381Y-102352561D01*
X152869500Y-102354629D01*
X152869500Y-103470500D01*
X152850593Y-103528691D01*
X152801093Y-103564655D01*
X152770500Y-103569500D01*
X147527484Y-103569500D01*
X147523989Y-103569923D01*
X147407602Y-103584007D01*
X147407599Y-103584008D01*
X147401680Y-103584724D01*
X147243077Y-103644655D01*
X147238160Y-103648035D01*
X147238157Y-103648036D01*
X147125769Y-103725279D01*
X147103349Y-103740688D01*
X146990560Y-103867279D01*
X146987770Y-103872549D01*
X146987769Y-103872550D01*
X146984526Y-103878675D01*
X146911224Y-104017119D01*
X146869919Y-104181559D01*
X146869031Y-104351105D01*
X131810000Y-104351105D01*
X131810000Y-75369321D01*
X131828907Y-75311130D01*
X131838996Y-75299317D01*
X134166093Y-72972220D01*
X134194257Y-72952500D01*
X134258821Y-72922393D01*
X134258824Y-72922391D01*
X134262734Y-72920568D01*
X134449139Y-72790047D01*
X134610047Y-72629139D01*
X134740568Y-72442734D01*
X134772500Y-72374257D01*
X134792220Y-72346093D01*
X137119317Y-70018995D01*
X137173834Y-69991218D01*
X137189321Y-69989999D01*
X182022032Y-69989999D01*
X182080223Y-70008906D01*
G37*
G04 #@! TD.AperFunction*
G04 #@! TD*
M02*
