%TF.GenerationSoftware,KiCad,Pcbnew,(5.1.8)-1*%
%TF.CreationDate,2021-10-07T22:13:12+08:00*%
%TF.ProjectId,Pad,5061642e-6b69-4636-9164-5f7063625858,rev?*%
%TF.SameCoordinates,Original*%
%TF.FileFunction,Copper,L3,Inr*%
%TF.FilePolarity,Positive*%
%FSLAX46Y46*%
G04 Gerber Fmt 4.6, Leading zero omitted, Abs format (unit mm)*
G04 Created by KiCad (PCBNEW (5.1.8)-1) date 2021-10-07 22:13:12*
%MOMM*%
%LPD*%
G01*
G04 APERTURE LIST*
%TA.AperFunction,ComponentPad*%
%ADD10R,1.700000X1.700000*%
%TD*%
%TA.AperFunction,ComponentPad*%
%ADD11O,3.300000X2.700000*%
%TD*%
%TA.AperFunction,ComponentPad*%
%ADD12C,1.700000*%
%TD*%
%TA.AperFunction,Conductor*%
%ADD13C,0.500000*%
%TD*%
%TA.AperFunction,Conductor*%
%ADD14C,0.100000*%
%TD*%
G04 APERTURE END LIST*
D10*
%TO.N,N/C*%
%TO.C,J15*%
X124000000Y-129700000D03*
%TD*%
%TO.N,N/C*%
%TO.C,J14*%
X124000000Y-111900000D03*
%TD*%
%TO.N,N/C*%
%TO.C,J13*%
X124000000Y-93900000D03*
%TD*%
%TO.N,N/C*%
%TO.C,J12*%
X124000000Y-76100000D03*
%TD*%
%TO.N,N/C*%
%TO.C,J11*%
X124000000Y-125900000D03*
%TD*%
%TO.N,N/C*%
%TO.C,J10*%
X124000000Y-108100000D03*
%TD*%
%TO.N,N/C*%
%TO.C,J9*%
X124000000Y-90100000D03*
%TD*%
%TO.N,N/C*%
%TO.C,J8*%
X124000000Y-72300000D03*
%TD*%
%TO.N,N/C*%
%TO.C,J5*%
X124000000Y-58200000D03*
%TD*%
%TO.N,N/C*%
%TO.C,J2*%
X124000000Y-54400000D03*
%TD*%
D11*
%TO.N,GND*%
%TO.C,J16*%
X190200000Y-40600000D03*
X190200000Y-44800000D03*
%TO.N,-18V*%
X184700000Y-40600000D03*
%TO.N,+18V*%
%TA.AperFunction,ComponentPad*%
G36*
G01*
X186099999Y-46150000D02*
X183300001Y-46150000D01*
G75*
G02*
X183050000Y-45899999I0J250001D01*
G01*
X183050000Y-43700001D01*
G75*
G02*
X183300001Y-43450000I250001J0D01*
G01*
X186099999Y-43450000D01*
G75*
G02*
X186350000Y-43700001I0J-250001D01*
G01*
X186350000Y-45899999D01*
G75*
G02*
X186099999Y-46150000I-250001J0D01*
G01*
G37*
%TD.AperFunction*%
%TD*%
D12*
%TO.N,-18V*%
%TO.C,J1*%
X188190000Y-58820000D03*
%TO.N,N/C*%
X190730000Y-56280000D03*
%TO.N,+18V*%
X188190000Y-53740000D03*
D10*
%TO.N,N/C*%
X190730000Y-58820000D03*
D12*
X190730000Y-53740000D03*
%TO.N,GND*%
X188190000Y-56280000D03*
%TD*%
%TO.N,-18V*%
%TO.C,J4*%
X188190000Y-94520000D03*
%TO.N,N/C*%
X190730000Y-91980000D03*
%TO.N,+18V*%
X188190000Y-89440000D03*
D10*
%TO.N,N/C*%
X190730000Y-94520000D03*
D12*
X190730000Y-89440000D03*
%TO.N,GND*%
X188190000Y-91980000D03*
%TD*%
%TO.N,GND*%
%TO.C,J3*%
X188190000Y-74180000D03*
%TO.N,N/C*%
X190730000Y-71640000D03*
D10*
X190730000Y-76720000D03*
D12*
%TO.N,+18V*%
X188190000Y-71640000D03*
%TO.N,N/C*%
X190730000Y-74180000D03*
%TO.N,-18V*%
X188190000Y-76720000D03*
%TD*%
%TO.N,-18V*%
%TO.C,J6*%
X188190000Y-112520000D03*
%TO.N,N/C*%
X190730000Y-109980000D03*
%TO.N,+18V*%
X188190000Y-107440000D03*
D10*
%TO.N,N/C*%
X190730000Y-112520000D03*
D12*
X190730000Y-107440000D03*
%TO.N,GND*%
X188190000Y-109980000D03*
%TD*%
%TO.N,GND*%
%TO.C,J7*%
X188190000Y-127780000D03*
%TO.N,N/C*%
X190730000Y-125240000D03*
D10*
X190730000Y-130320000D03*
D12*
%TO.N,+18V*%
X188190000Y-125240000D03*
%TO.N,N/C*%
X190730000Y-127780000D03*
%TO.N,-18V*%
X188190000Y-130320000D03*
%TD*%
D13*
%TO.N,GND*%
X193325000Y-141325000D02*
X112975000Y-141325000D01*
X112975000Y-138368545D01*
X114750000Y-138368545D01*
X114750000Y-138831455D01*
X114840309Y-139285470D01*
X115017457Y-139713143D01*
X115274636Y-140098038D01*
X115601962Y-140425364D01*
X115986857Y-140682543D01*
X116414530Y-140859691D01*
X116868545Y-140950000D01*
X117331455Y-140950000D01*
X117785470Y-140859691D01*
X118213143Y-140682543D01*
X118598038Y-140425364D01*
X118925364Y-140098038D01*
X119182543Y-139713143D01*
X119359691Y-139285470D01*
X119450000Y-138831455D01*
X119450000Y-138368545D01*
X186850000Y-138368545D01*
X186850000Y-138831455D01*
X186940309Y-139285470D01*
X187117457Y-139713143D01*
X187374636Y-140098038D01*
X187701962Y-140425364D01*
X188086857Y-140682543D01*
X188514530Y-140859691D01*
X188968545Y-140950000D01*
X189431455Y-140950000D01*
X189885470Y-140859691D01*
X190313143Y-140682543D01*
X190698038Y-140425364D01*
X191025364Y-140098038D01*
X191282543Y-139713143D01*
X191459691Y-139285470D01*
X191550000Y-138831455D01*
X191550000Y-138368545D01*
X191459691Y-137914530D01*
X191282543Y-137486857D01*
X191025364Y-137101962D01*
X190698038Y-136774636D01*
X190313143Y-136517457D01*
X189885470Y-136340309D01*
X189431455Y-136250000D01*
X188968545Y-136250000D01*
X188514530Y-136340309D01*
X188086857Y-136517457D01*
X187701962Y-136774636D01*
X187374636Y-137101962D01*
X187117457Y-137486857D01*
X186940309Y-137914530D01*
X186850000Y-138368545D01*
X119450000Y-138368545D01*
X119359691Y-137914530D01*
X119182543Y-137486857D01*
X118925364Y-137101962D01*
X118598038Y-136774636D01*
X118213143Y-136517457D01*
X117785470Y-136340309D01*
X117331455Y-136250000D01*
X116868545Y-136250000D01*
X116414530Y-136340309D01*
X115986857Y-136517457D01*
X115601962Y-136774636D01*
X115274636Y-137101962D01*
X115017457Y-137486857D01*
X114840309Y-137914530D01*
X114750000Y-138368545D01*
X112975000Y-138368545D01*
X112975000Y-134940092D01*
X113123697Y-135039448D01*
X113460375Y-135178905D01*
X113817791Y-135250000D01*
X114182209Y-135250000D01*
X114539625Y-135178905D01*
X114876303Y-135039448D01*
X115179306Y-134836989D01*
X115436989Y-134579306D01*
X115639448Y-134276303D01*
X115778905Y-133939625D01*
X115850000Y-133582209D01*
X115850000Y-133217791D01*
X115778905Y-132860375D01*
X115639448Y-132523697D01*
X115436989Y-132220694D01*
X115179306Y-131963011D01*
X114876303Y-131760552D01*
X114539625Y-131621095D01*
X114182209Y-131550000D01*
X113817791Y-131550000D01*
X113460375Y-131621095D01*
X113123697Y-131760552D01*
X112975000Y-131859908D01*
X112975000Y-128850000D01*
X122396372Y-128850000D01*
X122396372Y-130550000D01*
X122410853Y-130697026D01*
X122453739Y-130838401D01*
X122523381Y-130968693D01*
X122617105Y-131082895D01*
X122731307Y-131176619D01*
X122861599Y-131246261D01*
X123002974Y-131289147D01*
X123150000Y-131303628D01*
X124850000Y-131303628D01*
X124997026Y-131289147D01*
X125138401Y-131246261D01*
X125268693Y-131176619D01*
X125382895Y-131082895D01*
X125476619Y-130968693D01*
X125546261Y-130838401D01*
X125589147Y-130697026D01*
X125603628Y-130550000D01*
X125603628Y-128850000D01*
X125589147Y-128702974D01*
X125546261Y-128561599D01*
X125476619Y-128431307D01*
X125382895Y-128317105D01*
X125268693Y-128223381D01*
X125138401Y-128153739D01*
X124997026Y-128110853D01*
X124850000Y-128096372D01*
X123150000Y-128096372D01*
X123002974Y-128110853D01*
X122861599Y-128153739D01*
X122731307Y-128223381D01*
X122617105Y-128317105D01*
X122523381Y-128431307D01*
X122453739Y-128561599D01*
X122410853Y-128702974D01*
X122396372Y-128850000D01*
X112975000Y-128850000D01*
X112975000Y-127568545D01*
X140850000Y-127568545D01*
X140850000Y-128031455D01*
X140940309Y-128485470D01*
X141117457Y-128913143D01*
X141374636Y-129298038D01*
X141701962Y-129625364D01*
X142086857Y-129882543D01*
X142514530Y-130059691D01*
X142968545Y-130150000D01*
X143431455Y-130150000D01*
X143885470Y-130059691D01*
X144313143Y-129882543D01*
X144698038Y-129625364D01*
X145025364Y-129298038D01*
X145282543Y-128913143D01*
X145459691Y-128485470D01*
X145550000Y-128031455D01*
X145550000Y-127568545D01*
X145520014Y-127417791D01*
X169650000Y-127417791D01*
X169650000Y-127782209D01*
X169721095Y-128139625D01*
X169860552Y-128476303D01*
X170063011Y-128779306D01*
X170320694Y-129036989D01*
X170623697Y-129239448D01*
X170960375Y-129378905D01*
X171317791Y-129450000D01*
X171682209Y-129450000D01*
X172039625Y-129378905D01*
X172376303Y-129239448D01*
X172679306Y-129036989D01*
X172936989Y-128779306D01*
X173139448Y-128476303D01*
X173278905Y-128139625D01*
X173350000Y-127782209D01*
X173350000Y-127417791D01*
X173278905Y-127060375D01*
X173139448Y-126723697D01*
X172936989Y-126420694D01*
X172679306Y-126163011D01*
X172376303Y-125960552D01*
X172039625Y-125821095D01*
X171682209Y-125750000D01*
X171317791Y-125750000D01*
X170960375Y-125821095D01*
X170623697Y-125960552D01*
X170320694Y-126163011D01*
X170063011Y-126420694D01*
X169860552Y-126723697D01*
X169721095Y-127060375D01*
X169650000Y-127417791D01*
X145520014Y-127417791D01*
X145459691Y-127114530D01*
X145282543Y-126686857D01*
X145025364Y-126301962D01*
X144698038Y-125974636D01*
X144313143Y-125717457D01*
X143885470Y-125540309D01*
X143431455Y-125450000D01*
X142968545Y-125450000D01*
X142514530Y-125540309D01*
X142086857Y-125717457D01*
X141701962Y-125974636D01*
X141374636Y-126301962D01*
X141117457Y-126686857D01*
X140940309Y-127114530D01*
X140850000Y-127568545D01*
X112975000Y-127568545D01*
X112975000Y-125050000D01*
X122396372Y-125050000D01*
X122396372Y-126750000D01*
X122410853Y-126897026D01*
X122453739Y-127038401D01*
X122523381Y-127168693D01*
X122617105Y-127282895D01*
X122731307Y-127376619D01*
X122861599Y-127446261D01*
X123002974Y-127489147D01*
X123150000Y-127503628D01*
X124850000Y-127503628D01*
X124997026Y-127489147D01*
X125138401Y-127446261D01*
X125268693Y-127376619D01*
X125382895Y-127282895D01*
X125476619Y-127168693D01*
X125546261Y-127038401D01*
X125589147Y-126897026D01*
X125603628Y-126750000D01*
X125603628Y-125082414D01*
X186590000Y-125082414D01*
X186590000Y-125397586D01*
X186651487Y-125706703D01*
X186772098Y-125997884D01*
X186947199Y-126259941D01*
X187170059Y-126482801D01*
X187432116Y-126657902D01*
X187723297Y-126778513D01*
X188032414Y-126840000D01*
X188347586Y-126840000D01*
X188656703Y-126778513D01*
X188947884Y-126657902D01*
X189209941Y-126482801D01*
X189432801Y-126259941D01*
X189460000Y-126219235D01*
X189487199Y-126259941D01*
X189710059Y-126482801D01*
X189750765Y-126510000D01*
X189710059Y-126537199D01*
X189487199Y-126760059D01*
X189312098Y-127022116D01*
X189191487Y-127313297D01*
X189130000Y-127622414D01*
X189130000Y-127937586D01*
X189191487Y-128246703D01*
X189312098Y-128537884D01*
X189487199Y-128799941D01*
X189506489Y-128819231D01*
X189461307Y-128843381D01*
X189347105Y-128937105D01*
X189253381Y-129051307D01*
X189229231Y-129096489D01*
X189209941Y-129077199D01*
X188947884Y-128902098D01*
X188656703Y-128781487D01*
X188347586Y-128720000D01*
X188032414Y-128720000D01*
X187723297Y-128781487D01*
X187432116Y-128902098D01*
X187170059Y-129077199D01*
X186947199Y-129300059D01*
X186772098Y-129562116D01*
X186651487Y-129853297D01*
X186590000Y-130162414D01*
X186590000Y-130477586D01*
X186651487Y-130786703D01*
X186772098Y-131077884D01*
X186947199Y-131339941D01*
X187170059Y-131562801D01*
X187432116Y-131737902D01*
X187723297Y-131858513D01*
X188032414Y-131920000D01*
X188347586Y-131920000D01*
X188656703Y-131858513D01*
X188947884Y-131737902D01*
X189209941Y-131562801D01*
X189229231Y-131543511D01*
X189253381Y-131588693D01*
X189347105Y-131702895D01*
X189461307Y-131796619D01*
X189591599Y-131866261D01*
X189732974Y-131909147D01*
X189880000Y-131923628D01*
X191580000Y-131923628D01*
X191727026Y-131909147D01*
X191868401Y-131866261D01*
X191998693Y-131796619D01*
X192112895Y-131702895D01*
X192206619Y-131588693D01*
X192276261Y-131458401D01*
X192319147Y-131317026D01*
X192333628Y-131170000D01*
X192333628Y-129470000D01*
X192319147Y-129322974D01*
X192276261Y-129181599D01*
X192206619Y-129051307D01*
X192112895Y-128937105D01*
X191998693Y-128843381D01*
X191953511Y-128819231D01*
X191972801Y-128799941D01*
X192147902Y-128537884D01*
X192268513Y-128246703D01*
X192330000Y-127937586D01*
X192330000Y-127622414D01*
X192268513Y-127313297D01*
X192147902Y-127022116D01*
X191972801Y-126760059D01*
X191749941Y-126537199D01*
X191709235Y-126510000D01*
X191749941Y-126482801D01*
X191972801Y-126259941D01*
X192147902Y-125997884D01*
X192268513Y-125706703D01*
X192330000Y-125397586D01*
X192330000Y-125082414D01*
X192268513Y-124773297D01*
X192147902Y-124482116D01*
X191972801Y-124220059D01*
X191749941Y-123997199D01*
X191487884Y-123822098D01*
X191196703Y-123701487D01*
X190887586Y-123640000D01*
X190572414Y-123640000D01*
X190263297Y-123701487D01*
X189972116Y-123822098D01*
X189710059Y-123997199D01*
X189487199Y-124220059D01*
X189460000Y-124260765D01*
X189432801Y-124220059D01*
X189209941Y-123997199D01*
X188947884Y-123822098D01*
X188656703Y-123701487D01*
X188347586Y-123640000D01*
X188032414Y-123640000D01*
X187723297Y-123701487D01*
X187432116Y-123822098D01*
X187170059Y-123997199D01*
X186947199Y-124220059D01*
X186772098Y-124482116D01*
X186651487Y-124773297D01*
X186590000Y-125082414D01*
X125603628Y-125082414D01*
X125603628Y-125050000D01*
X125589147Y-124902974D01*
X125546261Y-124761599D01*
X125476619Y-124631307D01*
X125382895Y-124517105D01*
X125268693Y-124423381D01*
X125138401Y-124353739D01*
X124997026Y-124310853D01*
X124850000Y-124296372D01*
X123150000Y-124296372D01*
X123002974Y-124310853D01*
X122861599Y-124353739D01*
X122731307Y-124423381D01*
X122617105Y-124517105D01*
X122523381Y-124631307D01*
X122453739Y-124761599D01*
X122410853Y-124902974D01*
X122396372Y-125050000D01*
X112975000Y-125050000D01*
X112975000Y-123740092D01*
X113123697Y-123839448D01*
X113460375Y-123978905D01*
X113817791Y-124050000D01*
X114182209Y-124050000D01*
X114539625Y-123978905D01*
X114876303Y-123839448D01*
X115179306Y-123636989D01*
X115436989Y-123379306D01*
X115639448Y-123076303D01*
X115778905Y-122739625D01*
X115850000Y-122382209D01*
X115850000Y-122017791D01*
X115778905Y-121660375D01*
X115639448Y-121323697D01*
X115436989Y-121020694D01*
X115179306Y-120763011D01*
X114876303Y-120560552D01*
X114539625Y-120421095D01*
X114182209Y-120350000D01*
X113817791Y-120350000D01*
X113460375Y-120421095D01*
X113123697Y-120560552D01*
X112975000Y-120659908D01*
X112975000Y-117140092D01*
X113123697Y-117239448D01*
X113460375Y-117378905D01*
X113817791Y-117450000D01*
X114182209Y-117450000D01*
X114539625Y-117378905D01*
X114876303Y-117239448D01*
X115179306Y-117036989D01*
X115436989Y-116779306D01*
X115639448Y-116476303D01*
X115778905Y-116139625D01*
X115850000Y-115782209D01*
X115850000Y-115417791D01*
X115778905Y-115060375D01*
X115639448Y-114723697D01*
X115436989Y-114420694D01*
X115179306Y-114163011D01*
X114876303Y-113960552D01*
X114539625Y-113821095D01*
X114182209Y-113750000D01*
X113817791Y-113750000D01*
X113460375Y-113821095D01*
X113123697Y-113960552D01*
X112975000Y-114059908D01*
X112975000Y-111050000D01*
X122396372Y-111050000D01*
X122396372Y-112750000D01*
X122410853Y-112897026D01*
X122453739Y-113038401D01*
X122523381Y-113168693D01*
X122617105Y-113282895D01*
X122731307Y-113376619D01*
X122861599Y-113446261D01*
X123002974Y-113489147D01*
X123150000Y-113503628D01*
X124850000Y-113503628D01*
X124997026Y-113489147D01*
X125138401Y-113446261D01*
X125268693Y-113376619D01*
X125382895Y-113282895D01*
X125476619Y-113168693D01*
X125546261Y-113038401D01*
X125589147Y-112897026D01*
X125603628Y-112750000D01*
X125603628Y-111050000D01*
X125589147Y-110902974D01*
X125546261Y-110761599D01*
X125476619Y-110631307D01*
X125382895Y-110517105D01*
X125268693Y-110423381D01*
X125138401Y-110353739D01*
X124997026Y-110310853D01*
X124850000Y-110296372D01*
X123150000Y-110296372D01*
X123002974Y-110310853D01*
X122861599Y-110353739D01*
X122731307Y-110423381D01*
X122617105Y-110517105D01*
X122523381Y-110631307D01*
X122453739Y-110761599D01*
X122410853Y-110902974D01*
X122396372Y-111050000D01*
X112975000Y-111050000D01*
X112975000Y-107250000D01*
X122396372Y-107250000D01*
X122396372Y-108950000D01*
X122410853Y-109097026D01*
X122453739Y-109238401D01*
X122523381Y-109368693D01*
X122617105Y-109482895D01*
X122731307Y-109576619D01*
X122861599Y-109646261D01*
X123002974Y-109689147D01*
X123150000Y-109703628D01*
X124850000Y-109703628D01*
X124997026Y-109689147D01*
X125138401Y-109646261D01*
X125191665Y-109617791D01*
X169650000Y-109617791D01*
X169650000Y-109982209D01*
X169721095Y-110339625D01*
X169860552Y-110676303D01*
X170063011Y-110979306D01*
X170320694Y-111236989D01*
X170623697Y-111439448D01*
X170960375Y-111578905D01*
X171317791Y-111650000D01*
X171682209Y-111650000D01*
X172039625Y-111578905D01*
X172376303Y-111439448D01*
X172679306Y-111236989D01*
X172936989Y-110979306D01*
X173139448Y-110676303D01*
X173278905Y-110339625D01*
X173350000Y-109982209D01*
X173350000Y-109617791D01*
X173278905Y-109260375D01*
X173139448Y-108923697D01*
X172936989Y-108620694D01*
X172679306Y-108363011D01*
X172376303Y-108160552D01*
X172039625Y-108021095D01*
X171682209Y-107950000D01*
X171317791Y-107950000D01*
X170960375Y-108021095D01*
X170623697Y-108160552D01*
X170320694Y-108363011D01*
X170063011Y-108620694D01*
X169860552Y-108923697D01*
X169721095Y-109260375D01*
X169650000Y-109617791D01*
X125191665Y-109617791D01*
X125268693Y-109576619D01*
X125382895Y-109482895D01*
X125476619Y-109368693D01*
X125546261Y-109238401D01*
X125589147Y-109097026D01*
X125603628Y-108950000D01*
X125603628Y-107282414D01*
X186590000Y-107282414D01*
X186590000Y-107597586D01*
X186651487Y-107906703D01*
X186772098Y-108197884D01*
X186947199Y-108459941D01*
X187170059Y-108682801D01*
X187432116Y-108857902D01*
X187723297Y-108978513D01*
X188032414Y-109040000D01*
X188347586Y-109040000D01*
X188656703Y-108978513D01*
X188947884Y-108857902D01*
X189209941Y-108682801D01*
X189432801Y-108459941D01*
X189460000Y-108419235D01*
X189487199Y-108459941D01*
X189710059Y-108682801D01*
X189750765Y-108710000D01*
X189710059Y-108737199D01*
X189487199Y-108960059D01*
X189312098Y-109222116D01*
X189191487Y-109513297D01*
X189130000Y-109822414D01*
X189130000Y-110137586D01*
X189191487Y-110446703D01*
X189312098Y-110737884D01*
X189487199Y-110999941D01*
X189506489Y-111019231D01*
X189461307Y-111043381D01*
X189347105Y-111137105D01*
X189253381Y-111251307D01*
X189229231Y-111296489D01*
X189209941Y-111277199D01*
X188947884Y-111102098D01*
X188656703Y-110981487D01*
X188347586Y-110920000D01*
X188032414Y-110920000D01*
X187723297Y-110981487D01*
X187432116Y-111102098D01*
X187170059Y-111277199D01*
X186947199Y-111500059D01*
X186772098Y-111762116D01*
X186651487Y-112053297D01*
X186590000Y-112362414D01*
X186590000Y-112677586D01*
X186651487Y-112986703D01*
X186772098Y-113277884D01*
X186947199Y-113539941D01*
X187170059Y-113762801D01*
X187432116Y-113937902D01*
X187723297Y-114058513D01*
X188032414Y-114120000D01*
X188347586Y-114120000D01*
X188656703Y-114058513D01*
X188947884Y-113937902D01*
X189209941Y-113762801D01*
X189229231Y-113743511D01*
X189253381Y-113788693D01*
X189347105Y-113902895D01*
X189461307Y-113996619D01*
X189591599Y-114066261D01*
X189732974Y-114109147D01*
X189880000Y-114123628D01*
X191580000Y-114123628D01*
X191727026Y-114109147D01*
X191868401Y-114066261D01*
X191998693Y-113996619D01*
X192112895Y-113902895D01*
X192206619Y-113788693D01*
X192276261Y-113658401D01*
X192319147Y-113517026D01*
X192333628Y-113370000D01*
X192333628Y-111670000D01*
X192319147Y-111522974D01*
X192276261Y-111381599D01*
X192206619Y-111251307D01*
X192112895Y-111137105D01*
X191998693Y-111043381D01*
X191953511Y-111019231D01*
X191972801Y-110999941D01*
X192147902Y-110737884D01*
X192268513Y-110446703D01*
X192330000Y-110137586D01*
X192330000Y-109822414D01*
X192268513Y-109513297D01*
X192147902Y-109222116D01*
X191972801Y-108960059D01*
X191749941Y-108737199D01*
X191709235Y-108710000D01*
X191749941Y-108682801D01*
X191972801Y-108459941D01*
X192147902Y-108197884D01*
X192268513Y-107906703D01*
X192330000Y-107597586D01*
X192330000Y-107282414D01*
X192268513Y-106973297D01*
X192147902Y-106682116D01*
X191972801Y-106420059D01*
X191749941Y-106197199D01*
X191487884Y-106022098D01*
X191196703Y-105901487D01*
X190887586Y-105840000D01*
X190572414Y-105840000D01*
X190263297Y-105901487D01*
X189972116Y-106022098D01*
X189710059Y-106197199D01*
X189487199Y-106420059D01*
X189460000Y-106460765D01*
X189432801Y-106420059D01*
X189209941Y-106197199D01*
X188947884Y-106022098D01*
X188656703Y-105901487D01*
X188347586Y-105840000D01*
X188032414Y-105840000D01*
X187723297Y-105901487D01*
X187432116Y-106022098D01*
X187170059Y-106197199D01*
X186947199Y-106420059D01*
X186772098Y-106682116D01*
X186651487Y-106973297D01*
X186590000Y-107282414D01*
X125603628Y-107282414D01*
X125603628Y-107250000D01*
X125589147Y-107102974D01*
X125546261Y-106961599D01*
X125476619Y-106831307D01*
X125382895Y-106717105D01*
X125268693Y-106623381D01*
X125138401Y-106553739D01*
X124997026Y-106510853D01*
X124850000Y-106496372D01*
X123150000Y-106496372D01*
X123002974Y-106510853D01*
X122861599Y-106553739D01*
X122731307Y-106623381D01*
X122617105Y-106717105D01*
X122523381Y-106831307D01*
X122453739Y-106961599D01*
X122410853Y-107102974D01*
X122396372Y-107250000D01*
X112975000Y-107250000D01*
X112975000Y-105940092D01*
X113123697Y-106039448D01*
X113460375Y-106178905D01*
X113817791Y-106250000D01*
X114182209Y-106250000D01*
X114539625Y-106178905D01*
X114876303Y-106039448D01*
X115179306Y-105836989D01*
X115436989Y-105579306D01*
X115639448Y-105276303D01*
X115778905Y-104939625D01*
X115850000Y-104582209D01*
X115850000Y-104217791D01*
X115778905Y-103860375D01*
X115639448Y-103523697D01*
X115436989Y-103220694D01*
X115179306Y-102963011D01*
X114876303Y-102760552D01*
X114539625Y-102621095D01*
X114182209Y-102550000D01*
X113817791Y-102550000D01*
X113460375Y-102621095D01*
X113123697Y-102760552D01*
X112975000Y-102859908D01*
X112975000Y-99140092D01*
X113123697Y-99239448D01*
X113460375Y-99378905D01*
X113817791Y-99450000D01*
X114182209Y-99450000D01*
X114539625Y-99378905D01*
X114876303Y-99239448D01*
X115179306Y-99036989D01*
X115436989Y-98779306D01*
X115639448Y-98476303D01*
X115778905Y-98139625D01*
X115850000Y-97782209D01*
X115850000Y-97417791D01*
X115778905Y-97060375D01*
X115639448Y-96723697D01*
X115436989Y-96420694D01*
X115179306Y-96163011D01*
X114876303Y-95960552D01*
X114539625Y-95821095D01*
X114182209Y-95750000D01*
X113817791Y-95750000D01*
X113460375Y-95821095D01*
X113123697Y-95960552D01*
X112975000Y-96059908D01*
X112975000Y-93050000D01*
X122396372Y-93050000D01*
X122396372Y-94750000D01*
X122410853Y-94897026D01*
X122453739Y-95038401D01*
X122523381Y-95168693D01*
X122617105Y-95282895D01*
X122731307Y-95376619D01*
X122861599Y-95446261D01*
X123002974Y-95489147D01*
X123150000Y-95503628D01*
X124850000Y-95503628D01*
X124997026Y-95489147D01*
X125138401Y-95446261D01*
X125268693Y-95376619D01*
X125382895Y-95282895D01*
X125476619Y-95168693D01*
X125546261Y-95038401D01*
X125589147Y-94897026D01*
X125603628Y-94750000D01*
X125603628Y-93050000D01*
X125589147Y-92902974D01*
X125546261Y-92761599D01*
X125476619Y-92631307D01*
X125382895Y-92517105D01*
X125268693Y-92423381D01*
X125138401Y-92353739D01*
X124997026Y-92310853D01*
X124850000Y-92296372D01*
X123150000Y-92296372D01*
X123002974Y-92310853D01*
X122861599Y-92353739D01*
X122731307Y-92423381D01*
X122617105Y-92517105D01*
X122523381Y-92631307D01*
X122453739Y-92761599D01*
X122410853Y-92902974D01*
X122396372Y-93050000D01*
X112975000Y-93050000D01*
X112975000Y-91818545D01*
X140850000Y-91818545D01*
X140850000Y-92281455D01*
X140940309Y-92735470D01*
X141117457Y-93163143D01*
X141374636Y-93548038D01*
X141701962Y-93875364D01*
X142086857Y-94132543D01*
X142514530Y-94309691D01*
X142968545Y-94400000D01*
X143431455Y-94400000D01*
X143885470Y-94309691D01*
X144313143Y-94132543D01*
X144698038Y-93875364D01*
X145025364Y-93548038D01*
X145282543Y-93163143D01*
X145459691Y-92735470D01*
X145550000Y-92281455D01*
X145550000Y-91818545D01*
X145510068Y-91617791D01*
X169650000Y-91617791D01*
X169650000Y-91982209D01*
X169721095Y-92339625D01*
X169860552Y-92676303D01*
X170063011Y-92979306D01*
X170320694Y-93236989D01*
X170623697Y-93439448D01*
X170960375Y-93578905D01*
X171317791Y-93650000D01*
X171682209Y-93650000D01*
X172039625Y-93578905D01*
X172376303Y-93439448D01*
X172679306Y-93236989D01*
X172936989Y-92979306D01*
X173139448Y-92676303D01*
X173278905Y-92339625D01*
X173350000Y-91982209D01*
X173350000Y-91617791D01*
X173278905Y-91260375D01*
X173139448Y-90923697D01*
X172936989Y-90620694D01*
X172679306Y-90363011D01*
X172376303Y-90160552D01*
X172039625Y-90021095D01*
X171682209Y-89950000D01*
X171317791Y-89950000D01*
X170960375Y-90021095D01*
X170623697Y-90160552D01*
X170320694Y-90363011D01*
X170063011Y-90620694D01*
X169860552Y-90923697D01*
X169721095Y-91260375D01*
X169650000Y-91617791D01*
X145510068Y-91617791D01*
X145459691Y-91364530D01*
X145282543Y-90936857D01*
X145025364Y-90551962D01*
X144698038Y-90224636D01*
X144313143Y-89967457D01*
X143885470Y-89790309D01*
X143431455Y-89700000D01*
X142968545Y-89700000D01*
X142514530Y-89790309D01*
X142086857Y-89967457D01*
X141701962Y-90224636D01*
X141374636Y-90551962D01*
X141117457Y-90936857D01*
X140940309Y-91364530D01*
X140850000Y-91818545D01*
X112975000Y-91818545D01*
X112975000Y-89250000D01*
X122396372Y-89250000D01*
X122396372Y-90950000D01*
X122410853Y-91097026D01*
X122453739Y-91238401D01*
X122523381Y-91368693D01*
X122617105Y-91482895D01*
X122731307Y-91576619D01*
X122861599Y-91646261D01*
X123002974Y-91689147D01*
X123150000Y-91703628D01*
X124850000Y-91703628D01*
X124997026Y-91689147D01*
X125138401Y-91646261D01*
X125268693Y-91576619D01*
X125382895Y-91482895D01*
X125476619Y-91368693D01*
X125546261Y-91238401D01*
X125589147Y-91097026D01*
X125603628Y-90950000D01*
X125603628Y-89282414D01*
X186590000Y-89282414D01*
X186590000Y-89597586D01*
X186651487Y-89906703D01*
X186772098Y-90197884D01*
X186947199Y-90459941D01*
X187170059Y-90682801D01*
X187432116Y-90857902D01*
X187723297Y-90978513D01*
X188032414Y-91040000D01*
X188347586Y-91040000D01*
X188656703Y-90978513D01*
X188947884Y-90857902D01*
X189209941Y-90682801D01*
X189432801Y-90459941D01*
X189460000Y-90419235D01*
X189487199Y-90459941D01*
X189710059Y-90682801D01*
X189750765Y-90710000D01*
X189710059Y-90737199D01*
X189487199Y-90960059D01*
X189312098Y-91222116D01*
X189191487Y-91513297D01*
X189130000Y-91822414D01*
X189130000Y-92137586D01*
X189191487Y-92446703D01*
X189312098Y-92737884D01*
X189487199Y-92999941D01*
X189506489Y-93019231D01*
X189461307Y-93043381D01*
X189347105Y-93137105D01*
X189253381Y-93251307D01*
X189229231Y-93296489D01*
X189209941Y-93277199D01*
X188947884Y-93102098D01*
X188656703Y-92981487D01*
X188347586Y-92920000D01*
X188032414Y-92920000D01*
X187723297Y-92981487D01*
X187432116Y-93102098D01*
X187170059Y-93277199D01*
X186947199Y-93500059D01*
X186772098Y-93762116D01*
X186651487Y-94053297D01*
X186590000Y-94362414D01*
X186590000Y-94677586D01*
X186651487Y-94986703D01*
X186772098Y-95277884D01*
X186947199Y-95539941D01*
X187170059Y-95762801D01*
X187432116Y-95937902D01*
X187723297Y-96058513D01*
X188032414Y-96120000D01*
X188347586Y-96120000D01*
X188656703Y-96058513D01*
X188947884Y-95937902D01*
X189209941Y-95762801D01*
X189229231Y-95743511D01*
X189253381Y-95788693D01*
X189347105Y-95902895D01*
X189461307Y-95996619D01*
X189591599Y-96066261D01*
X189732974Y-96109147D01*
X189880000Y-96123628D01*
X191580000Y-96123628D01*
X191727026Y-96109147D01*
X191868401Y-96066261D01*
X191998693Y-95996619D01*
X192112895Y-95902895D01*
X192206619Y-95788693D01*
X192276261Y-95658401D01*
X192319147Y-95517026D01*
X192333628Y-95370000D01*
X192333628Y-93670000D01*
X192319147Y-93522974D01*
X192276261Y-93381599D01*
X192206619Y-93251307D01*
X192112895Y-93137105D01*
X191998693Y-93043381D01*
X191953511Y-93019231D01*
X191972801Y-92999941D01*
X192147902Y-92737884D01*
X192268513Y-92446703D01*
X192330000Y-92137586D01*
X192330000Y-91822414D01*
X192268513Y-91513297D01*
X192147902Y-91222116D01*
X191972801Y-90960059D01*
X191749941Y-90737199D01*
X191709235Y-90710000D01*
X191749941Y-90682801D01*
X191972801Y-90459941D01*
X192147902Y-90197884D01*
X192268513Y-89906703D01*
X192330000Y-89597586D01*
X192330000Y-89282414D01*
X192268513Y-88973297D01*
X192147902Y-88682116D01*
X191972801Y-88420059D01*
X191749941Y-88197199D01*
X191487884Y-88022098D01*
X191196703Y-87901487D01*
X190887586Y-87840000D01*
X190572414Y-87840000D01*
X190263297Y-87901487D01*
X189972116Y-88022098D01*
X189710059Y-88197199D01*
X189487199Y-88420059D01*
X189460000Y-88460765D01*
X189432801Y-88420059D01*
X189209941Y-88197199D01*
X188947884Y-88022098D01*
X188656703Y-87901487D01*
X188347586Y-87840000D01*
X188032414Y-87840000D01*
X187723297Y-87901487D01*
X187432116Y-88022098D01*
X187170059Y-88197199D01*
X186947199Y-88420059D01*
X186772098Y-88682116D01*
X186651487Y-88973297D01*
X186590000Y-89282414D01*
X125603628Y-89282414D01*
X125603628Y-89250000D01*
X125589147Y-89102974D01*
X125546261Y-88961599D01*
X125476619Y-88831307D01*
X125382895Y-88717105D01*
X125268693Y-88623381D01*
X125138401Y-88553739D01*
X124997026Y-88510853D01*
X124850000Y-88496372D01*
X123150000Y-88496372D01*
X123002974Y-88510853D01*
X122861599Y-88553739D01*
X122731307Y-88623381D01*
X122617105Y-88717105D01*
X122523381Y-88831307D01*
X122453739Y-88961599D01*
X122410853Y-89102974D01*
X122396372Y-89250000D01*
X112975000Y-89250000D01*
X112975000Y-87940092D01*
X113123697Y-88039448D01*
X113460375Y-88178905D01*
X113817791Y-88250000D01*
X114182209Y-88250000D01*
X114539625Y-88178905D01*
X114876303Y-88039448D01*
X115179306Y-87836989D01*
X115436989Y-87579306D01*
X115639448Y-87276303D01*
X115778905Y-86939625D01*
X115850000Y-86582209D01*
X115850000Y-86217791D01*
X115778905Y-85860375D01*
X115639448Y-85523697D01*
X115436989Y-85220694D01*
X115179306Y-84963011D01*
X114876303Y-84760552D01*
X114539625Y-84621095D01*
X114182209Y-84550000D01*
X113817791Y-84550000D01*
X113460375Y-84621095D01*
X113123697Y-84760552D01*
X112975000Y-84859908D01*
X112975000Y-81340092D01*
X113123697Y-81439448D01*
X113460375Y-81578905D01*
X113817791Y-81650000D01*
X114182209Y-81650000D01*
X114539625Y-81578905D01*
X114876303Y-81439448D01*
X115179306Y-81236989D01*
X115436989Y-80979306D01*
X115639448Y-80676303D01*
X115778905Y-80339625D01*
X115850000Y-79982209D01*
X115850000Y-79617791D01*
X115778905Y-79260375D01*
X115639448Y-78923697D01*
X115436989Y-78620694D01*
X115179306Y-78363011D01*
X114876303Y-78160552D01*
X114539625Y-78021095D01*
X114182209Y-77950000D01*
X113817791Y-77950000D01*
X113460375Y-78021095D01*
X113123697Y-78160552D01*
X112975000Y-78259908D01*
X112975000Y-75250000D01*
X122396372Y-75250000D01*
X122396372Y-76950000D01*
X122410853Y-77097026D01*
X122453739Y-77238401D01*
X122523381Y-77368693D01*
X122617105Y-77482895D01*
X122731307Y-77576619D01*
X122861599Y-77646261D01*
X123002974Y-77689147D01*
X123150000Y-77703628D01*
X124850000Y-77703628D01*
X124997026Y-77689147D01*
X125138401Y-77646261D01*
X125268693Y-77576619D01*
X125382895Y-77482895D01*
X125476619Y-77368693D01*
X125546261Y-77238401D01*
X125589147Y-77097026D01*
X125603628Y-76950000D01*
X125603628Y-75250000D01*
X125589147Y-75102974D01*
X125546261Y-74961599D01*
X125476619Y-74831307D01*
X125382895Y-74717105D01*
X125268693Y-74623381D01*
X125138401Y-74553739D01*
X124997026Y-74510853D01*
X124850000Y-74496372D01*
X123150000Y-74496372D01*
X123002974Y-74510853D01*
X122861599Y-74553739D01*
X122731307Y-74623381D01*
X122617105Y-74717105D01*
X122523381Y-74831307D01*
X122453739Y-74961599D01*
X122410853Y-75102974D01*
X122396372Y-75250000D01*
X112975000Y-75250000D01*
X112975000Y-71450000D01*
X122396372Y-71450000D01*
X122396372Y-73150000D01*
X122410853Y-73297026D01*
X122453739Y-73438401D01*
X122523381Y-73568693D01*
X122617105Y-73682895D01*
X122731307Y-73776619D01*
X122861599Y-73846261D01*
X123002974Y-73889147D01*
X123150000Y-73903628D01*
X124850000Y-73903628D01*
X124997026Y-73889147D01*
X125138401Y-73846261D01*
X125191665Y-73817791D01*
X169650000Y-73817791D01*
X169650000Y-74182209D01*
X169721095Y-74539625D01*
X169860552Y-74876303D01*
X170063011Y-75179306D01*
X170320694Y-75436989D01*
X170623697Y-75639448D01*
X170960375Y-75778905D01*
X171317791Y-75850000D01*
X171682209Y-75850000D01*
X172039625Y-75778905D01*
X172376303Y-75639448D01*
X172679306Y-75436989D01*
X172936989Y-75179306D01*
X173139448Y-74876303D01*
X173278905Y-74539625D01*
X173350000Y-74182209D01*
X173350000Y-73817791D01*
X173278905Y-73460375D01*
X173139448Y-73123697D01*
X172936989Y-72820694D01*
X172679306Y-72563011D01*
X172376303Y-72360552D01*
X172039625Y-72221095D01*
X171682209Y-72150000D01*
X171317791Y-72150000D01*
X170960375Y-72221095D01*
X170623697Y-72360552D01*
X170320694Y-72563011D01*
X170063011Y-72820694D01*
X169860552Y-73123697D01*
X169721095Y-73460375D01*
X169650000Y-73817791D01*
X125191665Y-73817791D01*
X125268693Y-73776619D01*
X125382895Y-73682895D01*
X125476619Y-73568693D01*
X125546261Y-73438401D01*
X125589147Y-73297026D01*
X125603628Y-73150000D01*
X125603628Y-71482414D01*
X186590000Y-71482414D01*
X186590000Y-71797586D01*
X186651487Y-72106703D01*
X186772098Y-72397884D01*
X186947199Y-72659941D01*
X187170059Y-72882801D01*
X187432116Y-73057902D01*
X187723297Y-73178513D01*
X188032414Y-73240000D01*
X188347586Y-73240000D01*
X188656703Y-73178513D01*
X188947884Y-73057902D01*
X189209941Y-72882801D01*
X189432801Y-72659941D01*
X189460000Y-72619235D01*
X189487199Y-72659941D01*
X189710059Y-72882801D01*
X189750765Y-72910000D01*
X189710059Y-72937199D01*
X189487199Y-73160059D01*
X189312098Y-73422116D01*
X189191487Y-73713297D01*
X189130000Y-74022414D01*
X189130000Y-74337586D01*
X189191487Y-74646703D01*
X189312098Y-74937884D01*
X189487199Y-75199941D01*
X189506489Y-75219231D01*
X189461307Y-75243381D01*
X189347105Y-75337105D01*
X189253381Y-75451307D01*
X189229231Y-75496489D01*
X189209941Y-75477199D01*
X188947884Y-75302098D01*
X188656703Y-75181487D01*
X188347586Y-75120000D01*
X188032414Y-75120000D01*
X187723297Y-75181487D01*
X187432116Y-75302098D01*
X187170059Y-75477199D01*
X186947199Y-75700059D01*
X186772098Y-75962116D01*
X186651487Y-76253297D01*
X186590000Y-76562414D01*
X186590000Y-76877586D01*
X186651487Y-77186703D01*
X186772098Y-77477884D01*
X186947199Y-77739941D01*
X187170059Y-77962801D01*
X187432116Y-78137902D01*
X187723297Y-78258513D01*
X188032414Y-78320000D01*
X188347586Y-78320000D01*
X188656703Y-78258513D01*
X188947884Y-78137902D01*
X189209941Y-77962801D01*
X189229231Y-77943511D01*
X189253381Y-77988693D01*
X189347105Y-78102895D01*
X189461307Y-78196619D01*
X189591599Y-78266261D01*
X189732974Y-78309147D01*
X189880000Y-78323628D01*
X191580000Y-78323628D01*
X191727026Y-78309147D01*
X191868401Y-78266261D01*
X191998693Y-78196619D01*
X192112895Y-78102895D01*
X192206619Y-77988693D01*
X192276261Y-77858401D01*
X192319147Y-77717026D01*
X192333628Y-77570000D01*
X192333628Y-75870000D01*
X192319147Y-75722974D01*
X192276261Y-75581599D01*
X192206619Y-75451307D01*
X192112895Y-75337105D01*
X191998693Y-75243381D01*
X191953511Y-75219231D01*
X191972801Y-75199941D01*
X192147902Y-74937884D01*
X192268513Y-74646703D01*
X192330000Y-74337586D01*
X192330000Y-74022414D01*
X192268513Y-73713297D01*
X192147902Y-73422116D01*
X191972801Y-73160059D01*
X191749941Y-72937199D01*
X191709235Y-72910000D01*
X191749941Y-72882801D01*
X191972801Y-72659941D01*
X192147902Y-72397884D01*
X192268513Y-72106703D01*
X192330000Y-71797586D01*
X192330000Y-71482414D01*
X192268513Y-71173297D01*
X192147902Y-70882116D01*
X191972801Y-70620059D01*
X191749941Y-70397199D01*
X191487884Y-70222098D01*
X191196703Y-70101487D01*
X190887586Y-70040000D01*
X190572414Y-70040000D01*
X190263297Y-70101487D01*
X189972116Y-70222098D01*
X189710059Y-70397199D01*
X189487199Y-70620059D01*
X189460000Y-70660765D01*
X189432801Y-70620059D01*
X189209941Y-70397199D01*
X188947884Y-70222098D01*
X188656703Y-70101487D01*
X188347586Y-70040000D01*
X188032414Y-70040000D01*
X187723297Y-70101487D01*
X187432116Y-70222098D01*
X187170059Y-70397199D01*
X186947199Y-70620059D01*
X186772098Y-70882116D01*
X186651487Y-71173297D01*
X186590000Y-71482414D01*
X125603628Y-71482414D01*
X125603628Y-71450000D01*
X125589147Y-71302974D01*
X125546261Y-71161599D01*
X125476619Y-71031307D01*
X125382895Y-70917105D01*
X125268693Y-70823381D01*
X125138401Y-70753739D01*
X124997026Y-70710853D01*
X124850000Y-70696372D01*
X123150000Y-70696372D01*
X123002974Y-70710853D01*
X122861599Y-70753739D01*
X122731307Y-70823381D01*
X122617105Y-70917105D01*
X122523381Y-71031307D01*
X122453739Y-71161599D01*
X122410853Y-71302974D01*
X122396372Y-71450000D01*
X112975000Y-71450000D01*
X112975000Y-70140092D01*
X113123697Y-70239448D01*
X113460375Y-70378905D01*
X113817791Y-70450000D01*
X114182209Y-70450000D01*
X114539625Y-70378905D01*
X114876303Y-70239448D01*
X115179306Y-70036989D01*
X115436989Y-69779306D01*
X115639448Y-69476303D01*
X115778905Y-69139625D01*
X115850000Y-68782209D01*
X115850000Y-68417791D01*
X115778905Y-68060375D01*
X115639448Y-67723697D01*
X115436989Y-67420694D01*
X115179306Y-67163011D01*
X114876303Y-66960552D01*
X114539625Y-66821095D01*
X114182209Y-66750000D01*
X113817791Y-66750000D01*
X113460375Y-66821095D01*
X113123697Y-66960552D01*
X112975000Y-67059908D01*
X112975000Y-63440092D01*
X113123697Y-63539448D01*
X113460375Y-63678905D01*
X113817791Y-63750000D01*
X114182209Y-63750000D01*
X114539625Y-63678905D01*
X114876303Y-63539448D01*
X115179306Y-63336989D01*
X115436989Y-63079306D01*
X115639448Y-62776303D01*
X115778905Y-62439625D01*
X115850000Y-62082209D01*
X115850000Y-61717791D01*
X115778905Y-61360375D01*
X115639448Y-61023697D01*
X115436989Y-60720694D01*
X115179306Y-60463011D01*
X114876303Y-60260552D01*
X114539625Y-60121095D01*
X114182209Y-60050000D01*
X113817791Y-60050000D01*
X113460375Y-60121095D01*
X113123697Y-60260552D01*
X112975000Y-60359908D01*
X112975000Y-57350000D01*
X122396372Y-57350000D01*
X122396372Y-59050000D01*
X122410853Y-59197026D01*
X122453739Y-59338401D01*
X122523381Y-59468693D01*
X122617105Y-59582895D01*
X122731307Y-59676619D01*
X122861599Y-59746261D01*
X123002974Y-59789147D01*
X123150000Y-59803628D01*
X124850000Y-59803628D01*
X124997026Y-59789147D01*
X125138401Y-59746261D01*
X125268693Y-59676619D01*
X125382895Y-59582895D01*
X125476619Y-59468693D01*
X125546261Y-59338401D01*
X125589147Y-59197026D01*
X125603628Y-59050000D01*
X125603628Y-57350000D01*
X125589147Y-57202974D01*
X125546261Y-57061599D01*
X125476619Y-56931307D01*
X125382895Y-56817105D01*
X125268693Y-56723381D01*
X125138401Y-56653739D01*
X124997026Y-56610853D01*
X124850000Y-56596372D01*
X123150000Y-56596372D01*
X123002974Y-56610853D01*
X122861599Y-56653739D01*
X122731307Y-56723381D01*
X122617105Y-56817105D01*
X122523381Y-56931307D01*
X122453739Y-57061599D01*
X122410853Y-57202974D01*
X122396372Y-57350000D01*
X112975000Y-57350000D01*
X112975000Y-56068545D01*
X140850000Y-56068545D01*
X140850000Y-56531455D01*
X140940309Y-56985470D01*
X141117457Y-57413143D01*
X141374636Y-57798038D01*
X141701962Y-58125364D01*
X142086857Y-58382543D01*
X142514530Y-58559691D01*
X142968545Y-58650000D01*
X143431455Y-58650000D01*
X143885470Y-58559691D01*
X144313143Y-58382543D01*
X144698038Y-58125364D01*
X145025364Y-57798038D01*
X145282543Y-57413143D01*
X145459691Y-56985470D01*
X145550000Y-56531455D01*
X145550000Y-56068545D01*
X145520014Y-55917791D01*
X169650000Y-55917791D01*
X169650000Y-56282209D01*
X169721095Y-56639625D01*
X169860552Y-56976303D01*
X170063011Y-57279306D01*
X170320694Y-57536989D01*
X170623697Y-57739448D01*
X170960375Y-57878905D01*
X171317791Y-57950000D01*
X171682209Y-57950000D01*
X172039625Y-57878905D01*
X172376303Y-57739448D01*
X172679306Y-57536989D01*
X172936989Y-57279306D01*
X173139448Y-56976303D01*
X173278905Y-56639625D01*
X173350000Y-56282209D01*
X173350000Y-55917791D01*
X173278905Y-55560375D01*
X173139448Y-55223697D01*
X172936989Y-54920694D01*
X172679306Y-54663011D01*
X172376303Y-54460552D01*
X172039625Y-54321095D01*
X171682209Y-54250000D01*
X171317791Y-54250000D01*
X170960375Y-54321095D01*
X170623697Y-54460552D01*
X170320694Y-54663011D01*
X170063011Y-54920694D01*
X169860552Y-55223697D01*
X169721095Y-55560375D01*
X169650000Y-55917791D01*
X145520014Y-55917791D01*
X145459691Y-55614530D01*
X145282543Y-55186857D01*
X145025364Y-54801962D01*
X144698038Y-54474636D01*
X144313143Y-54217457D01*
X143885470Y-54040309D01*
X143431455Y-53950000D01*
X142968545Y-53950000D01*
X142514530Y-54040309D01*
X142086857Y-54217457D01*
X141701962Y-54474636D01*
X141374636Y-54801962D01*
X141117457Y-55186857D01*
X140940309Y-55614530D01*
X140850000Y-56068545D01*
X112975000Y-56068545D01*
X112975000Y-53550000D01*
X122396372Y-53550000D01*
X122396372Y-55250000D01*
X122410853Y-55397026D01*
X122453739Y-55538401D01*
X122523381Y-55668693D01*
X122617105Y-55782895D01*
X122731307Y-55876619D01*
X122861599Y-55946261D01*
X123002974Y-55989147D01*
X123150000Y-56003628D01*
X124850000Y-56003628D01*
X124997026Y-55989147D01*
X125138401Y-55946261D01*
X125268693Y-55876619D01*
X125382895Y-55782895D01*
X125476619Y-55668693D01*
X125546261Y-55538401D01*
X125589147Y-55397026D01*
X125603628Y-55250000D01*
X125603628Y-53582414D01*
X186590000Y-53582414D01*
X186590000Y-53897586D01*
X186651487Y-54206703D01*
X186772098Y-54497884D01*
X186947199Y-54759941D01*
X187170059Y-54982801D01*
X187432116Y-55157902D01*
X187723297Y-55278513D01*
X188032414Y-55340000D01*
X188347586Y-55340000D01*
X188656703Y-55278513D01*
X188947884Y-55157902D01*
X189209941Y-54982801D01*
X189432801Y-54759941D01*
X189460000Y-54719235D01*
X189487199Y-54759941D01*
X189710059Y-54982801D01*
X189750765Y-55010000D01*
X189710059Y-55037199D01*
X189487199Y-55260059D01*
X189312098Y-55522116D01*
X189191487Y-55813297D01*
X189130000Y-56122414D01*
X189130000Y-56437586D01*
X189191487Y-56746703D01*
X189312098Y-57037884D01*
X189487199Y-57299941D01*
X189506489Y-57319231D01*
X189461307Y-57343381D01*
X189347105Y-57437105D01*
X189253381Y-57551307D01*
X189229231Y-57596489D01*
X189209941Y-57577199D01*
X188947884Y-57402098D01*
X188656703Y-57281487D01*
X188347586Y-57220000D01*
X188032414Y-57220000D01*
X187723297Y-57281487D01*
X187432116Y-57402098D01*
X187170059Y-57577199D01*
X186947199Y-57800059D01*
X186772098Y-58062116D01*
X186651487Y-58353297D01*
X186590000Y-58662414D01*
X186590000Y-58977586D01*
X186651487Y-59286703D01*
X186772098Y-59577884D01*
X186947199Y-59839941D01*
X187170059Y-60062801D01*
X187432116Y-60237902D01*
X187723297Y-60358513D01*
X188032414Y-60420000D01*
X188347586Y-60420000D01*
X188656703Y-60358513D01*
X188947884Y-60237902D01*
X189209941Y-60062801D01*
X189229231Y-60043511D01*
X189253381Y-60088693D01*
X189347105Y-60202895D01*
X189461307Y-60296619D01*
X189591599Y-60366261D01*
X189732974Y-60409147D01*
X189880000Y-60423628D01*
X191580000Y-60423628D01*
X191727026Y-60409147D01*
X191868401Y-60366261D01*
X191998693Y-60296619D01*
X192112895Y-60202895D01*
X192206619Y-60088693D01*
X192276261Y-59958401D01*
X192319147Y-59817026D01*
X192333628Y-59670000D01*
X192333628Y-57970000D01*
X192319147Y-57822974D01*
X192276261Y-57681599D01*
X192206619Y-57551307D01*
X192112895Y-57437105D01*
X191998693Y-57343381D01*
X191953511Y-57319231D01*
X191972801Y-57299941D01*
X192147902Y-57037884D01*
X192268513Y-56746703D01*
X192330000Y-56437586D01*
X192330000Y-56122414D01*
X192268513Y-55813297D01*
X192147902Y-55522116D01*
X191972801Y-55260059D01*
X191749941Y-55037199D01*
X191709235Y-55010000D01*
X191749941Y-54982801D01*
X191972801Y-54759941D01*
X192147902Y-54497884D01*
X192268513Y-54206703D01*
X192330000Y-53897586D01*
X192330000Y-53582414D01*
X192268513Y-53273297D01*
X192147902Y-52982116D01*
X191972801Y-52720059D01*
X191749941Y-52497199D01*
X191487884Y-52322098D01*
X191196703Y-52201487D01*
X190887586Y-52140000D01*
X190572414Y-52140000D01*
X190263297Y-52201487D01*
X189972116Y-52322098D01*
X189710059Y-52497199D01*
X189487199Y-52720059D01*
X189460000Y-52760765D01*
X189432801Y-52720059D01*
X189209941Y-52497199D01*
X188947884Y-52322098D01*
X188656703Y-52201487D01*
X188347586Y-52140000D01*
X188032414Y-52140000D01*
X187723297Y-52201487D01*
X187432116Y-52322098D01*
X187170059Y-52497199D01*
X186947199Y-52720059D01*
X186772098Y-52982116D01*
X186651487Y-53273297D01*
X186590000Y-53582414D01*
X125603628Y-53582414D01*
X125603628Y-53550000D01*
X125589147Y-53402974D01*
X125546261Y-53261599D01*
X125476619Y-53131307D01*
X125382895Y-53017105D01*
X125268693Y-52923381D01*
X125138401Y-52853739D01*
X124997026Y-52810853D01*
X124850000Y-52796372D01*
X123150000Y-52796372D01*
X123002974Y-52810853D01*
X122861599Y-52853739D01*
X122731307Y-52923381D01*
X122617105Y-53017105D01*
X122523381Y-53131307D01*
X122453739Y-53261599D01*
X122410853Y-53402974D01*
X122396372Y-53550000D01*
X112975000Y-53550000D01*
X112975000Y-52240092D01*
X113123697Y-52339448D01*
X113460375Y-52478905D01*
X113817791Y-52550000D01*
X114182209Y-52550000D01*
X114539625Y-52478905D01*
X114876303Y-52339448D01*
X115179306Y-52136989D01*
X115436989Y-51879306D01*
X115639448Y-51576303D01*
X115778905Y-51239625D01*
X115850000Y-50882209D01*
X115850000Y-50517791D01*
X115778905Y-50160375D01*
X115639448Y-49823697D01*
X115436989Y-49520694D01*
X115179306Y-49263011D01*
X114876303Y-49060552D01*
X114539625Y-48921095D01*
X114182209Y-48850000D01*
X113817791Y-48850000D01*
X113460375Y-48921095D01*
X113123697Y-49060552D01*
X112975000Y-49159908D01*
X112975000Y-41868545D01*
X114750000Y-41868545D01*
X114750000Y-42331455D01*
X114840309Y-42785470D01*
X115017457Y-43213143D01*
X115274636Y-43598038D01*
X115601962Y-43925364D01*
X115986857Y-44182543D01*
X116414530Y-44359691D01*
X116868545Y-44450000D01*
X117331455Y-44450000D01*
X117785470Y-44359691D01*
X118213143Y-44182543D01*
X118598038Y-43925364D01*
X118925364Y-43598038D01*
X119182543Y-43213143D01*
X119359691Y-42785470D01*
X119450000Y-42331455D01*
X119450000Y-41868545D01*
X174250000Y-41868545D01*
X174250000Y-42331455D01*
X174340309Y-42785470D01*
X174517457Y-43213143D01*
X174774636Y-43598038D01*
X175101962Y-43925364D01*
X175486857Y-44182543D01*
X175914530Y-44359691D01*
X176368545Y-44450000D01*
X176831455Y-44450000D01*
X177285470Y-44359691D01*
X177713143Y-44182543D01*
X178098038Y-43925364D01*
X178425364Y-43598038D01*
X178682543Y-43213143D01*
X178859691Y-42785470D01*
X178950000Y-42331455D01*
X178950000Y-41868545D01*
X178859691Y-41414530D01*
X178682543Y-40986857D01*
X178425364Y-40601962D01*
X178423402Y-40600000D01*
X182289839Y-40600000D01*
X182330385Y-41011672D01*
X182450465Y-41407524D01*
X182645465Y-41772343D01*
X182907891Y-42092109D01*
X183227657Y-42354535D01*
X183592476Y-42549535D01*
X183988328Y-42669615D01*
X184259997Y-42696372D01*
X183300001Y-42696372D01*
X183104203Y-42715656D01*
X182915929Y-42772769D01*
X182742415Y-42865514D01*
X182590328Y-42990328D01*
X182465514Y-43142415D01*
X182372769Y-43315929D01*
X182315656Y-43504203D01*
X182296372Y-43700001D01*
X182296372Y-45899999D01*
X182315656Y-46095797D01*
X182372769Y-46284071D01*
X182465514Y-46457585D01*
X182590328Y-46609672D01*
X182742415Y-46734486D01*
X182915929Y-46827231D01*
X183104203Y-46884344D01*
X183300001Y-46903628D01*
X186099999Y-46903628D01*
X186295797Y-46884344D01*
X186484071Y-46827231D01*
X186657585Y-46734486D01*
X186809672Y-46609672D01*
X186934486Y-46457585D01*
X187027231Y-46284071D01*
X187084344Y-46095797D01*
X187103628Y-45899999D01*
X187103628Y-43700001D01*
X187084344Y-43504203D01*
X187027231Y-43315929D01*
X186934486Y-43142415D01*
X186809672Y-42990328D01*
X186657585Y-42865514D01*
X186484071Y-42772769D01*
X186295797Y-42715656D01*
X186099999Y-42696372D01*
X185140003Y-42696372D01*
X185411672Y-42669615D01*
X185807524Y-42549535D01*
X186172343Y-42354535D01*
X186492109Y-42092109D01*
X186754535Y-41772343D01*
X186949535Y-41407524D01*
X187069615Y-41011672D01*
X187110161Y-40600000D01*
X187069615Y-40188328D01*
X186949535Y-39792476D01*
X186754535Y-39427657D01*
X186492109Y-39107891D01*
X186172343Y-38845465D01*
X185807524Y-38650465D01*
X185411672Y-38530385D01*
X185103167Y-38500000D01*
X184296833Y-38500000D01*
X183988328Y-38530385D01*
X183592476Y-38650465D01*
X183227657Y-38845465D01*
X182907891Y-39107891D01*
X182645465Y-39427657D01*
X182450465Y-39792476D01*
X182330385Y-40188328D01*
X182289839Y-40600000D01*
X178423402Y-40600000D01*
X178098038Y-40274636D01*
X177713143Y-40017457D01*
X177285470Y-39840309D01*
X176831455Y-39750000D01*
X176368545Y-39750000D01*
X175914530Y-39840309D01*
X175486857Y-40017457D01*
X175101962Y-40274636D01*
X174774636Y-40601962D01*
X174517457Y-40986857D01*
X174340309Y-41414530D01*
X174250000Y-41868545D01*
X119450000Y-41868545D01*
X119359691Y-41414530D01*
X119182543Y-40986857D01*
X118925364Y-40601962D01*
X118598038Y-40274636D01*
X118213143Y-40017457D01*
X117785470Y-39840309D01*
X117331455Y-39750000D01*
X116868545Y-39750000D01*
X116414530Y-39840309D01*
X115986857Y-40017457D01*
X115601962Y-40274636D01*
X115274636Y-40601962D01*
X115017457Y-40986857D01*
X114840309Y-41414530D01*
X114750000Y-41868545D01*
X112975000Y-41868545D01*
X112975000Y-37975000D01*
X193325001Y-37975000D01*
X193325000Y-141325000D01*
%TA.AperFunction,Conductor*%
D14*
G36*
X193325000Y-141325000D02*
G01*
X112975000Y-141325000D01*
X112975000Y-138368545D01*
X114750000Y-138368545D01*
X114750000Y-138831455D01*
X114840309Y-139285470D01*
X115017457Y-139713143D01*
X115274636Y-140098038D01*
X115601962Y-140425364D01*
X115986857Y-140682543D01*
X116414530Y-140859691D01*
X116868545Y-140950000D01*
X117331455Y-140950000D01*
X117785470Y-140859691D01*
X118213143Y-140682543D01*
X118598038Y-140425364D01*
X118925364Y-140098038D01*
X119182543Y-139713143D01*
X119359691Y-139285470D01*
X119450000Y-138831455D01*
X119450000Y-138368545D01*
X186850000Y-138368545D01*
X186850000Y-138831455D01*
X186940309Y-139285470D01*
X187117457Y-139713143D01*
X187374636Y-140098038D01*
X187701962Y-140425364D01*
X188086857Y-140682543D01*
X188514530Y-140859691D01*
X188968545Y-140950000D01*
X189431455Y-140950000D01*
X189885470Y-140859691D01*
X190313143Y-140682543D01*
X190698038Y-140425364D01*
X191025364Y-140098038D01*
X191282543Y-139713143D01*
X191459691Y-139285470D01*
X191550000Y-138831455D01*
X191550000Y-138368545D01*
X191459691Y-137914530D01*
X191282543Y-137486857D01*
X191025364Y-137101962D01*
X190698038Y-136774636D01*
X190313143Y-136517457D01*
X189885470Y-136340309D01*
X189431455Y-136250000D01*
X188968545Y-136250000D01*
X188514530Y-136340309D01*
X188086857Y-136517457D01*
X187701962Y-136774636D01*
X187374636Y-137101962D01*
X187117457Y-137486857D01*
X186940309Y-137914530D01*
X186850000Y-138368545D01*
X119450000Y-138368545D01*
X119359691Y-137914530D01*
X119182543Y-137486857D01*
X118925364Y-137101962D01*
X118598038Y-136774636D01*
X118213143Y-136517457D01*
X117785470Y-136340309D01*
X117331455Y-136250000D01*
X116868545Y-136250000D01*
X116414530Y-136340309D01*
X115986857Y-136517457D01*
X115601962Y-136774636D01*
X115274636Y-137101962D01*
X115017457Y-137486857D01*
X114840309Y-137914530D01*
X114750000Y-138368545D01*
X112975000Y-138368545D01*
X112975000Y-134940092D01*
X113123697Y-135039448D01*
X113460375Y-135178905D01*
X113817791Y-135250000D01*
X114182209Y-135250000D01*
X114539625Y-135178905D01*
X114876303Y-135039448D01*
X115179306Y-134836989D01*
X115436989Y-134579306D01*
X115639448Y-134276303D01*
X115778905Y-133939625D01*
X115850000Y-133582209D01*
X115850000Y-133217791D01*
X115778905Y-132860375D01*
X115639448Y-132523697D01*
X115436989Y-132220694D01*
X115179306Y-131963011D01*
X114876303Y-131760552D01*
X114539625Y-131621095D01*
X114182209Y-131550000D01*
X113817791Y-131550000D01*
X113460375Y-131621095D01*
X113123697Y-131760552D01*
X112975000Y-131859908D01*
X112975000Y-128850000D01*
X122396372Y-128850000D01*
X122396372Y-130550000D01*
X122410853Y-130697026D01*
X122453739Y-130838401D01*
X122523381Y-130968693D01*
X122617105Y-131082895D01*
X122731307Y-131176619D01*
X122861599Y-131246261D01*
X123002974Y-131289147D01*
X123150000Y-131303628D01*
X124850000Y-131303628D01*
X124997026Y-131289147D01*
X125138401Y-131246261D01*
X125268693Y-131176619D01*
X125382895Y-131082895D01*
X125476619Y-130968693D01*
X125546261Y-130838401D01*
X125589147Y-130697026D01*
X125603628Y-130550000D01*
X125603628Y-128850000D01*
X125589147Y-128702974D01*
X125546261Y-128561599D01*
X125476619Y-128431307D01*
X125382895Y-128317105D01*
X125268693Y-128223381D01*
X125138401Y-128153739D01*
X124997026Y-128110853D01*
X124850000Y-128096372D01*
X123150000Y-128096372D01*
X123002974Y-128110853D01*
X122861599Y-128153739D01*
X122731307Y-128223381D01*
X122617105Y-128317105D01*
X122523381Y-128431307D01*
X122453739Y-128561599D01*
X122410853Y-128702974D01*
X122396372Y-128850000D01*
X112975000Y-128850000D01*
X112975000Y-127568545D01*
X140850000Y-127568545D01*
X140850000Y-128031455D01*
X140940309Y-128485470D01*
X141117457Y-128913143D01*
X141374636Y-129298038D01*
X141701962Y-129625364D01*
X142086857Y-129882543D01*
X142514530Y-130059691D01*
X142968545Y-130150000D01*
X143431455Y-130150000D01*
X143885470Y-130059691D01*
X144313143Y-129882543D01*
X144698038Y-129625364D01*
X145025364Y-129298038D01*
X145282543Y-128913143D01*
X145459691Y-128485470D01*
X145550000Y-128031455D01*
X145550000Y-127568545D01*
X145520014Y-127417791D01*
X169650000Y-127417791D01*
X169650000Y-127782209D01*
X169721095Y-128139625D01*
X169860552Y-128476303D01*
X170063011Y-128779306D01*
X170320694Y-129036989D01*
X170623697Y-129239448D01*
X170960375Y-129378905D01*
X171317791Y-129450000D01*
X171682209Y-129450000D01*
X172039625Y-129378905D01*
X172376303Y-129239448D01*
X172679306Y-129036989D01*
X172936989Y-128779306D01*
X173139448Y-128476303D01*
X173278905Y-128139625D01*
X173350000Y-127782209D01*
X173350000Y-127417791D01*
X173278905Y-127060375D01*
X173139448Y-126723697D01*
X172936989Y-126420694D01*
X172679306Y-126163011D01*
X172376303Y-125960552D01*
X172039625Y-125821095D01*
X171682209Y-125750000D01*
X171317791Y-125750000D01*
X170960375Y-125821095D01*
X170623697Y-125960552D01*
X170320694Y-126163011D01*
X170063011Y-126420694D01*
X169860552Y-126723697D01*
X169721095Y-127060375D01*
X169650000Y-127417791D01*
X145520014Y-127417791D01*
X145459691Y-127114530D01*
X145282543Y-126686857D01*
X145025364Y-126301962D01*
X144698038Y-125974636D01*
X144313143Y-125717457D01*
X143885470Y-125540309D01*
X143431455Y-125450000D01*
X142968545Y-125450000D01*
X142514530Y-125540309D01*
X142086857Y-125717457D01*
X141701962Y-125974636D01*
X141374636Y-126301962D01*
X141117457Y-126686857D01*
X140940309Y-127114530D01*
X140850000Y-127568545D01*
X112975000Y-127568545D01*
X112975000Y-125050000D01*
X122396372Y-125050000D01*
X122396372Y-126750000D01*
X122410853Y-126897026D01*
X122453739Y-127038401D01*
X122523381Y-127168693D01*
X122617105Y-127282895D01*
X122731307Y-127376619D01*
X122861599Y-127446261D01*
X123002974Y-127489147D01*
X123150000Y-127503628D01*
X124850000Y-127503628D01*
X124997026Y-127489147D01*
X125138401Y-127446261D01*
X125268693Y-127376619D01*
X125382895Y-127282895D01*
X125476619Y-127168693D01*
X125546261Y-127038401D01*
X125589147Y-126897026D01*
X125603628Y-126750000D01*
X125603628Y-125082414D01*
X186590000Y-125082414D01*
X186590000Y-125397586D01*
X186651487Y-125706703D01*
X186772098Y-125997884D01*
X186947199Y-126259941D01*
X187170059Y-126482801D01*
X187432116Y-126657902D01*
X187723297Y-126778513D01*
X188032414Y-126840000D01*
X188347586Y-126840000D01*
X188656703Y-126778513D01*
X188947884Y-126657902D01*
X189209941Y-126482801D01*
X189432801Y-126259941D01*
X189460000Y-126219235D01*
X189487199Y-126259941D01*
X189710059Y-126482801D01*
X189750765Y-126510000D01*
X189710059Y-126537199D01*
X189487199Y-126760059D01*
X189312098Y-127022116D01*
X189191487Y-127313297D01*
X189130000Y-127622414D01*
X189130000Y-127937586D01*
X189191487Y-128246703D01*
X189312098Y-128537884D01*
X189487199Y-128799941D01*
X189506489Y-128819231D01*
X189461307Y-128843381D01*
X189347105Y-128937105D01*
X189253381Y-129051307D01*
X189229231Y-129096489D01*
X189209941Y-129077199D01*
X188947884Y-128902098D01*
X188656703Y-128781487D01*
X188347586Y-128720000D01*
X188032414Y-128720000D01*
X187723297Y-128781487D01*
X187432116Y-128902098D01*
X187170059Y-129077199D01*
X186947199Y-129300059D01*
X186772098Y-129562116D01*
X186651487Y-129853297D01*
X186590000Y-130162414D01*
X186590000Y-130477586D01*
X186651487Y-130786703D01*
X186772098Y-131077884D01*
X186947199Y-131339941D01*
X187170059Y-131562801D01*
X187432116Y-131737902D01*
X187723297Y-131858513D01*
X188032414Y-131920000D01*
X188347586Y-131920000D01*
X188656703Y-131858513D01*
X188947884Y-131737902D01*
X189209941Y-131562801D01*
X189229231Y-131543511D01*
X189253381Y-131588693D01*
X189347105Y-131702895D01*
X189461307Y-131796619D01*
X189591599Y-131866261D01*
X189732974Y-131909147D01*
X189880000Y-131923628D01*
X191580000Y-131923628D01*
X191727026Y-131909147D01*
X191868401Y-131866261D01*
X191998693Y-131796619D01*
X192112895Y-131702895D01*
X192206619Y-131588693D01*
X192276261Y-131458401D01*
X192319147Y-131317026D01*
X192333628Y-131170000D01*
X192333628Y-129470000D01*
X192319147Y-129322974D01*
X192276261Y-129181599D01*
X192206619Y-129051307D01*
X192112895Y-128937105D01*
X191998693Y-128843381D01*
X191953511Y-128819231D01*
X191972801Y-128799941D01*
X192147902Y-128537884D01*
X192268513Y-128246703D01*
X192330000Y-127937586D01*
X192330000Y-127622414D01*
X192268513Y-127313297D01*
X192147902Y-127022116D01*
X191972801Y-126760059D01*
X191749941Y-126537199D01*
X191709235Y-126510000D01*
X191749941Y-126482801D01*
X191972801Y-126259941D01*
X192147902Y-125997884D01*
X192268513Y-125706703D01*
X192330000Y-125397586D01*
X192330000Y-125082414D01*
X192268513Y-124773297D01*
X192147902Y-124482116D01*
X191972801Y-124220059D01*
X191749941Y-123997199D01*
X191487884Y-123822098D01*
X191196703Y-123701487D01*
X190887586Y-123640000D01*
X190572414Y-123640000D01*
X190263297Y-123701487D01*
X189972116Y-123822098D01*
X189710059Y-123997199D01*
X189487199Y-124220059D01*
X189460000Y-124260765D01*
X189432801Y-124220059D01*
X189209941Y-123997199D01*
X188947884Y-123822098D01*
X188656703Y-123701487D01*
X188347586Y-123640000D01*
X188032414Y-123640000D01*
X187723297Y-123701487D01*
X187432116Y-123822098D01*
X187170059Y-123997199D01*
X186947199Y-124220059D01*
X186772098Y-124482116D01*
X186651487Y-124773297D01*
X186590000Y-125082414D01*
X125603628Y-125082414D01*
X125603628Y-125050000D01*
X125589147Y-124902974D01*
X125546261Y-124761599D01*
X125476619Y-124631307D01*
X125382895Y-124517105D01*
X125268693Y-124423381D01*
X125138401Y-124353739D01*
X124997026Y-124310853D01*
X124850000Y-124296372D01*
X123150000Y-124296372D01*
X123002974Y-124310853D01*
X122861599Y-124353739D01*
X122731307Y-124423381D01*
X122617105Y-124517105D01*
X122523381Y-124631307D01*
X122453739Y-124761599D01*
X122410853Y-124902974D01*
X122396372Y-125050000D01*
X112975000Y-125050000D01*
X112975000Y-123740092D01*
X113123697Y-123839448D01*
X113460375Y-123978905D01*
X113817791Y-124050000D01*
X114182209Y-124050000D01*
X114539625Y-123978905D01*
X114876303Y-123839448D01*
X115179306Y-123636989D01*
X115436989Y-123379306D01*
X115639448Y-123076303D01*
X115778905Y-122739625D01*
X115850000Y-122382209D01*
X115850000Y-122017791D01*
X115778905Y-121660375D01*
X115639448Y-121323697D01*
X115436989Y-121020694D01*
X115179306Y-120763011D01*
X114876303Y-120560552D01*
X114539625Y-120421095D01*
X114182209Y-120350000D01*
X113817791Y-120350000D01*
X113460375Y-120421095D01*
X113123697Y-120560552D01*
X112975000Y-120659908D01*
X112975000Y-117140092D01*
X113123697Y-117239448D01*
X113460375Y-117378905D01*
X113817791Y-117450000D01*
X114182209Y-117450000D01*
X114539625Y-117378905D01*
X114876303Y-117239448D01*
X115179306Y-117036989D01*
X115436989Y-116779306D01*
X115639448Y-116476303D01*
X115778905Y-116139625D01*
X115850000Y-115782209D01*
X115850000Y-115417791D01*
X115778905Y-115060375D01*
X115639448Y-114723697D01*
X115436989Y-114420694D01*
X115179306Y-114163011D01*
X114876303Y-113960552D01*
X114539625Y-113821095D01*
X114182209Y-113750000D01*
X113817791Y-113750000D01*
X113460375Y-113821095D01*
X113123697Y-113960552D01*
X112975000Y-114059908D01*
X112975000Y-111050000D01*
X122396372Y-111050000D01*
X122396372Y-112750000D01*
X122410853Y-112897026D01*
X122453739Y-113038401D01*
X122523381Y-113168693D01*
X122617105Y-113282895D01*
X122731307Y-113376619D01*
X122861599Y-113446261D01*
X123002974Y-113489147D01*
X123150000Y-113503628D01*
X124850000Y-113503628D01*
X124997026Y-113489147D01*
X125138401Y-113446261D01*
X125268693Y-113376619D01*
X125382895Y-113282895D01*
X125476619Y-113168693D01*
X125546261Y-113038401D01*
X125589147Y-112897026D01*
X125603628Y-112750000D01*
X125603628Y-111050000D01*
X125589147Y-110902974D01*
X125546261Y-110761599D01*
X125476619Y-110631307D01*
X125382895Y-110517105D01*
X125268693Y-110423381D01*
X125138401Y-110353739D01*
X124997026Y-110310853D01*
X124850000Y-110296372D01*
X123150000Y-110296372D01*
X123002974Y-110310853D01*
X122861599Y-110353739D01*
X122731307Y-110423381D01*
X122617105Y-110517105D01*
X122523381Y-110631307D01*
X122453739Y-110761599D01*
X122410853Y-110902974D01*
X122396372Y-111050000D01*
X112975000Y-111050000D01*
X112975000Y-107250000D01*
X122396372Y-107250000D01*
X122396372Y-108950000D01*
X122410853Y-109097026D01*
X122453739Y-109238401D01*
X122523381Y-109368693D01*
X122617105Y-109482895D01*
X122731307Y-109576619D01*
X122861599Y-109646261D01*
X123002974Y-109689147D01*
X123150000Y-109703628D01*
X124850000Y-109703628D01*
X124997026Y-109689147D01*
X125138401Y-109646261D01*
X125191665Y-109617791D01*
X169650000Y-109617791D01*
X169650000Y-109982209D01*
X169721095Y-110339625D01*
X169860552Y-110676303D01*
X170063011Y-110979306D01*
X170320694Y-111236989D01*
X170623697Y-111439448D01*
X170960375Y-111578905D01*
X171317791Y-111650000D01*
X171682209Y-111650000D01*
X172039625Y-111578905D01*
X172376303Y-111439448D01*
X172679306Y-111236989D01*
X172936989Y-110979306D01*
X173139448Y-110676303D01*
X173278905Y-110339625D01*
X173350000Y-109982209D01*
X173350000Y-109617791D01*
X173278905Y-109260375D01*
X173139448Y-108923697D01*
X172936989Y-108620694D01*
X172679306Y-108363011D01*
X172376303Y-108160552D01*
X172039625Y-108021095D01*
X171682209Y-107950000D01*
X171317791Y-107950000D01*
X170960375Y-108021095D01*
X170623697Y-108160552D01*
X170320694Y-108363011D01*
X170063011Y-108620694D01*
X169860552Y-108923697D01*
X169721095Y-109260375D01*
X169650000Y-109617791D01*
X125191665Y-109617791D01*
X125268693Y-109576619D01*
X125382895Y-109482895D01*
X125476619Y-109368693D01*
X125546261Y-109238401D01*
X125589147Y-109097026D01*
X125603628Y-108950000D01*
X125603628Y-107282414D01*
X186590000Y-107282414D01*
X186590000Y-107597586D01*
X186651487Y-107906703D01*
X186772098Y-108197884D01*
X186947199Y-108459941D01*
X187170059Y-108682801D01*
X187432116Y-108857902D01*
X187723297Y-108978513D01*
X188032414Y-109040000D01*
X188347586Y-109040000D01*
X188656703Y-108978513D01*
X188947884Y-108857902D01*
X189209941Y-108682801D01*
X189432801Y-108459941D01*
X189460000Y-108419235D01*
X189487199Y-108459941D01*
X189710059Y-108682801D01*
X189750765Y-108710000D01*
X189710059Y-108737199D01*
X189487199Y-108960059D01*
X189312098Y-109222116D01*
X189191487Y-109513297D01*
X189130000Y-109822414D01*
X189130000Y-110137586D01*
X189191487Y-110446703D01*
X189312098Y-110737884D01*
X189487199Y-110999941D01*
X189506489Y-111019231D01*
X189461307Y-111043381D01*
X189347105Y-111137105D01*
X189253381Y-111251307D01*
X189229231Y-111296489D01*
X189209941Y-111277199D01*
X188947884Y-111102098D01*
X188656703Y-110981487D01*
X188347586Y-110920000D01*
X188032414Y-110920000D01*
X187723297Y-110981487D01*
X187432116Y-111102098D01*
X187170059Y-111277199D01*
X186947199Y-111500059D01*
X186772098Y-111762116D01*
X186651487Y-112053297D01*
X186590000Y-112362414D01*
X186590000Y-112677586D01*
X186651487Y-112986703D01*
X186772098Y-113277884D01*
X186947199Y-113539941D01*
X187170059Y-113762801D01*
X187432116Y-113937902D01*
X187723297Y-114058513D01*
X188032414Y-114120000D01*
X188347586Y-114120000D01*
X188656703Y-114058513D01*
X188947884Y-113937902D01*
X189209941Y-113762801D01*
X189229231Y-113743511D01*
X189253381Y-113788693D01*
X189347105Y-113902895D01*
X189461307Y-113996619D01*
X189591599Y-114066261D01*
X189732974Y-114109147D01*
X189880000Y-114123628D01*
X191580000Y-114123628D01*
X191727026Y-114109147D01*
X191868401Y-114066261D01*
X191998693Y-113996619D01*
X192112895Y-113902895D01*
X192206619Y-113788693D01*
X192276261Y-113658401D01*
X192319147Y-113517026D01*
X192333628Y-113370000D01*
X192333628Y-111670000D01*
X192319147Y-111522974D01*
X192276261Y-111381599D01*
X192206619Y-111251307D01*
X192112895Y-111137105D01*
X191998693Y-111043381D01*
X191953511Y-111019231D01*
X191972801Y-110999941D01*
X192147902Y-110737884D01*
X192268513Y-110446703D01*
X192330000Y-110137586D01*
X192330000Y-109822414D01*
X192268513Y-109513297D01*
X192147902Y-109222116D01*
X191972801Y-108960059D01*
X191749941Y-108737199D01*
X191709235Y-108710000D01*
X191749941Y-108682801D01*
X191972801Y-108459941D01*
X192147902Y-108197884D01*
X192268513Y-107906703D01*
X192330000Y-107597586D01*
X192330000Y-107282414D01*
X192268513Y-106973297D01*
X192147902Y-106682116D01*
X191972801Y-106420059D01*
X191749941Y-106197199D01*
X191487884Y-106022098D01*
X191196703Y-105901487D01*
X190887586Y-105840000D01*
X190572414Y-105840000D01*
X190263297Y-105901487D01*
X189972116Y-106022098D01*
X189710059Y-106197199D01*
X189487199Y-106420059D01*
X189460000Y-106460765D01*
X189432801Y-106420059D01*
X189209941Y-106197199D01*
X188947884Y-106022098D01*
X188656703Y-105901487D01*
X188347586Y-105840000D01*
X188032414Y-105840000D01*
X187723297Y-105901487D01*
X187432116Y-106022098D01*
X187170059Y-106197199D01*
X186947199Y-106420059D01*
X186772098Y-106682116D01*
X186651487Y-106973297D01*
X186590000Y-107282414D01*
X125603628Y-107282414D01*
X125603628Y-107250000D01*
X125589147Y-107102974D01*
X125546261Y-106961599D01*
X125476619Y-106831307D01*
X125382895Y-106717105D01*
X125268693Y-106623381D01*
X125138401Y-106553739D01*
X124997026Y-106510853D01*
X124850000Y-106496372D01*
X123150000Y-106496372D01*
X123002974Y-106510853D01*
X122861599Y-106553739D01*
X122731307Y-106623381D01*
X122617105Y-106717105D01*
X122523381Y-106831307D01*
X122453739Y-106961599D01*
X122410853Y-107102974D01*
X122396372Y-107250000D01*
X112975000Y-107250000D01*
X112975000Y-105940092D01*
X113123697Y-106039448D01*
X113460375Y-106178905D01*
X113817791Y-106250000D01*
X114182209Y-106250000D01*
X114539625Y-106178905D01*
X114876303Y-106039448D01*
X115179306Y-105836989D01*
X115436989Y-105579306D01*
X115639448Y-105276303D01*
X115778905Y-104939625D01*
X115850000Y-104582209D01*
X115850000Y-104217791D01*
X115778905Y-103860375D01*
X115639448Y-103523697D01*
X115436989Y-103220694D01*
X115179306Y-102963011D01*
X114876303Y-102760552D01*
X114539625Y-102621095D01*
X114182209Y-102550000D01*
X113817791Y-102550000D01*
X113460375Y-102621095D01*
X113123697Y-102760552D01*
X112975000Y-102859908D01*
X112975000Y-99140092D01*
X113123697Y-99239448D01*
X113460375Y-99378905D01*
X113817791Y-99450000D01*
X114182209Y-99450000D01*
X114539625Y-99378905D01*
X114876303Y-99239448D01*
X115179306Y-99036989D01*
X115436989Y-98779306D01*
X115639448Y-98476303D01*
X115778905Y-98139625D01*
X115850000Y-97782209D01*
X115850000Y-97417791D01*
X115778905Y-97060375D01*
X115639448Y-96723697D01*
X115436989Y-96420694D01*
X115179306Y-96163011D01*
X114876303Y-95960552D01*
X114539625Y-95821095D01*
X114182209Y-95750000D01*
X113817791Y-95750000D01*
X113460375Y-95821095D01*
X113123697Y-95960552D01*
X112975000Y-96059908D01*
X112975000Y-93050000D01*
X122396372Y-93050000D01*
X122396372Y-94750000D01*
X122410853Y-94897026D01*
X122453739Y-95038401D01*
X122523381Y-95168693D01*
X122617105Y-95282895D01*
X122731307Y-95376619D01*
X122861599Y-95446261D01*
X123002974Y-95489147D01*
X123150000Y-95503628D01*
X124850000Y-95503628D01*
X124997026Y-95489147D01*
X125138401Y-95446261D01*
X125268693Y-95376619D01*
X125382895Y-95282895D01*
X125476619Y-95168693D01*
X125546261Y-95038401D01*
X125589147Y-94897026D01*
X125603628Y-94750000D01*
X125603628Y-93050000D01*
X125589147Y-92902974D01*
X125546261Y-92761599D01*
X125476619Y-92631307D01*
X125382895Y-92517105D01*
X125268693Y-92423381D01*
X125138401Y-92353739D01*
X124997026Y-92310853D01*
X124850000Y-92296372D01*
X123150000Y-92296372D01*
X123002974Y-92310853D01*
X122861599Y-92353739D01*
X122731307Y-92423381D01*
X122617105Y-92517105D01*
X122523381Y-92631307D01*
X122453739Y-92761599D01*
X122410853Y-92902974D01*
X122396372Y-93050000D01*
X112975000Y-93050000D01*
X112975000Y-91818545D01*
X140850000Y-91818545D01*
X140850000Y-92281455D01*
X140940309Y-92735470D01*
X141117457Y-93163143D01*
X141374636Y-93548038D01*
X141701962Y-93875364D01*
X142086857Y-94132543D01*
X142514530Y-94309691D01*
X142968545Y-94400000D01*
X143431455Y-94400000D01*
X143885470Y-94309691D01*
X144313143Y-94132543D01*
X144698038Y-93875364D01*
X145025364Y-93548038D01*
X145282543Y-93163143D01*
X145459691Y-92735470D01*
X145550000Y-92281455D01*
X145550000Y-91818545D01*
X145510068Y-91617791D01*
X169650000Y-91617791D01*
X169650000Y-91982209D01*
X169721095Y-92339625D01*
X169860552Y-92676303D01*
X170063011Y-92979306D01*
X170320694Y-93236989D01*
X170623697Y-93439448D01*
X170960375Y-93578905D01*
X171317791Y-93650000D01*
X171682209Y-93650000D01*
X172039625Y-93578905D01*
X172376303Y-93439448D01*
X172679306Y-93236989D01*
X172936989Y-92979306D01*
X173139448Y-92676303D01*
X173278905Y-92339625D01*
X173350000Y-91982209D01*
X173350000Y-91617791D01*
X173278905Y-91260375D01*
X173139448Y-90923697D01*
X172936989Y-90620694D01*
X172679306Y-90363011D01*
X172376303Y-90160552D01*
X172039625Y-90021095D01*
X171682209Y-89950000D01*
X171317791Y-89950000D01*
X170960375Y-90021095D01*
X170623697Y-90160552D01*
X170320694Y-90363011D01*
X170063011Y-90620694D01*
X169860552Y-90923697D01*
X169721095Y-91260375D01*
X169650000Y-91617791D01*
X145510068Y-91617791D01*
X145459691Y-91364530D01*
X145282543Y-90936857D01*
X145025364Y-90551962D01*
X144698038Y-90224636D01*
X144313143Y-89967457D01*
X143885470Y-89790309D01*
X143431455Y-89700000D01*
X142968545Y-89700000D01*
X142514530Y-89790309D01*
X142086857Y-89967457D01*
X141701962Y-90224636D01*
X141374636Y-90551962D01*
X141117457Y-90936857D01*
X140940309Y-91364530D01*
X140850000Y-91818545D01*
X112975000Y-91818545D01*
X112975000Y-89250000D01*
X122396372Y-89250000D01*
X122396372Y-90950000D01*
X122410853Y-91097026D01*
X122453739Y-91238401D01*
X122523381Y-91368693D01*
X122617105Y-91482895D01*
X122731307Y-91576619D01*
X122861599Y-91646261D01*
X123002974Y-91689147D01*
X123150000Y-91703628D01*
X124850000Y-91703628D01*
X124997026Y-91689147D01*
X125138401Y-91646261D01*
X125268693Y-91576619D01*
X125382895Y-91482895D01*
X125476619Y-91368693D01*
X125546261Y-91238401D01*
X125589147Y-91097026D01*
X125603628Y-90950000D01*
X125603628Y-89282414D01*
X186590000Y-89282414D01*
X186590000Y-89597586D01*
X186651487Y-89906703D01*
X186772098Y-90197884D01*
X186947199Y-90459941D01*
X187170059Y-90682801D01*
X187432116Y-90857902D01*
X187723297Y-90978513D01*
X188032414Y-91040000D01*
X188347586Y-91040000D01*
X188656703Y-90978513D01*
X188947884Y-90857902D01*
X189209941Y-90682801D01*
X189432801Y-90459941D01*
X189460000Y-90419235D01*
X189487199Y-90459941D01*
X189710059Y-90682801D01*
X189750765Y-90710000D01*
X189710059Y-90737199D01*
X189487199Y-90960059D01*
X189312098Y-91222116D01*
X189191487Y-91513297D01*
X189130000Y-91822414D01*
X189130000Y-92137586D01*
X189191487Y-92446703D01*
X189312098Y-92737884D01*
X189487199Y-92999941D01*
X189506489Y-93019231D01*
X189461307Y-93043381D01*
X189347105Y-93137105D01*
X189253381Y-93251307D01*
X189229231Y-93296489D01*
X189209941Y-93277199D01*
X188947884Y-93102098D01*
X188656703Y-92981487D01*
X188347586Y-92920000D01*
X188032414Y-92920000D01*
X187723297Y-92981487D01*
X187432116Y-93102098D01*
X187170059Y-93277199D01*
X186947199Y-93500059D01*
X186772098Y-93762116D01*
X186651487Y-94053297D01*
X186590000Y-94362414D01*
X186590000Y-94677586D01*
X186651487Y-94986703D01*
X186772098Y-95277884D01*
X186947199Y-95539941D01*
X187170059Y-95762801D01*
X187432116Y-95937902D01*
X187723297Y-96058513D01*
X188032414Y-96120000D01*
X188347586Y-96120000D01*
X188656703Y-96058513D01*
X188947884Y-95937902D01*
X189209941Y-95762801D01*
X189229231Y-95743511D01*
X189253381Y-95788693D01*
X189347105Y-95902895D01*
X189461307Y-95996619D01*
X189591599Y-96066261D01*
X189732974Y-96109147D01*
X189880000Y-96123628D01*
X191580000Y-96123628D01*
X191727026Y-96109147D01*
X191868401Y-96066261D01*
X191998693Y-95996619D01*
X192112895Y-95902895D01*
X192206619Y-95788693D01*
X192276261Y-95658401D01*
X192319147Y-95517026D01*
X192333628Y-95370000D01*
X192333628Y-93670000D01*
X192319147Y-93522974D01*
X192276261Y-93381599D01*
X192206619Y-93251307D01*
X192112895Y-93137105D01*
X191998693Y-93043381D01*
X191953511Y-93019231D01*
X191972801Y-92999941D01*
X192147902Y-92737884D01*
X192268513Y-92446703D01*
X192330000Y-92137586D01*
X192330000Y-91822414D01*
X192268513Y-91513297D01*
X192147902Y-91222116D01*
X191972801Y-90960059D01*
X191749941Y-90737199D01*
X191709235Y-90710000D01*
X191749941Y-90682801D01*
X191972801Y-90459941D01*
X192147902Y-90197884D01*
X192268513Y-89906703D01*
X192330000Y-89597586D01*
X192330000Y-89282414D01*
X192268513Y-88973297D01*
X192147902Y-88682116D01*
X191972801Y-88420059D01*
X191749941Y-88197199D01*
X191487884Y-88022098D01*
X191196703Y-87901487D01*
X190887586Y-87840000D01*
X190572414Y-87840000D01*
X190263297Y-87901487D01*
X189972116Y-88022098D01*
X189710059Y-88197199D01*
X189487199Y-88420059D01*
X189460000Y-88460765D01*
X189432801Y-88420059D01*
X189209941Y-88197199D01*
X188947884Y-88022098D01*
X188656703Y-87901487D01*
X188347586Y-87840000D01*
X188032414Y-87840000D01*
X187723297Y-87901487D01*
X187432116Y-88022098D01*
X187170059Y-88197199D01*
X186947199Y-88420059D01*
X186772098Y-88682116D01*
X186651487Y-88973297D01*
X186590000Y-89282414D01*
X125603628Y-89282414D01*
X125603628Y-89250000D01*
X125589147Y-89102974D01*
X125546261Y-88961599D01*
X125476619Y-88831307D01*
X125382895Y-88717105D01*
X125268693Y-88623381D01*
X125138401Y-88553739D01*
X124997026Y-88510853D01*
X124850000Y-88496372D01*
X123150000Y-88496372D01*
X123002974Y-88510853D01*
X122861599Y-88553739D01*
X122731307Y-88623381D01*
X122617105Y-88717105D01*
X122523381Y-88831307D01*
X122453739Y-88961599D01*
X122410853Y-89102974D01*
X122396372Y-89250000D01*
X112975000Y-89250000D01*
X112975000Y-87940092D01*
X113123697Y-88039448D01*
X113460375Y-88178905D01*
X113817791Y-88250000D01*
X114182209Y-88250000D01*
X114539625Y-88178905D01*
X114876303Y-88039448D01*
X115179306Y-87836989D01*
X115436989Y-87579306D01*
X115639448Y-87276303D01*
X115778905Y-86939625D01*
X115850000Y-86582209D01*
X115850000Y-86217791D01*
X115778905Y-85860375D01*
X115639448Y-85523697D01*
X115436989Y-85220694D01*
X115179306Y-84963011D01*
X114876303Y-84760552D01*
X114539625Y-84621095D01*
X114182209Y-84550000D01*
X113817791Y-84550000D01*
X113460375Y-84621095D01*
X113123697Y-84760552D01*
X112975000Y-84859908D01*
X112975000Y-81340092D01*
X113123697Y-81439448D01*
X113460375Y-81578905D01*
X113817791Y-81650000D01*
X114182209Y-81650000D01*
X114539625Y-81578905D01*
X114876303Y-81439448D01*
X115179306Y-81236989D01*
X115436989Y-80979306D01*
X115639448Y-80676303D01*
X115778905Y-80339625D01*
X115850000Y-79982209D01*
X115850000Y-79617791D01*
X115778905Y-79260375D01*
X115639448Y-78923697D01*
X115436989Y-78620694D01*
X115179306Y-78363011D01*
X114876303Y-78160552D01*
X114539625Y-78021095D01*
X114182209Y-77950000D01*
X113817791Y-77950000D01*
X113460375Y-78021095D01*
X113123697Y-78160552D01*
X112975000Y-78259908D01*
X112975000Y-75250000D01*
X122396372Y-75250000D01*
X122396372Y-76950000D01*
X122410853Y-77097026D01*
X122453739Y-77238401D01*
X122523381Y-77368693D01*
X122617105Y-77482895D01*
X122731307Y-77576619D01*
X122861599Y-77646261D01*
X123002974Y-77689147D01*
X123150000Y-77703628D01*
X124850000Y-77703628D01*
X124997026Y-77689147D01*
X125138401Y-77646261D01*
X125268693Y-77576619D01*
X125382895Y-77482895D01*
X125476619Y-77368693D01*
X125546261Y-77238401D01*
X125589147Y-77097026D01*
X125603628Y-76950000D01*
X125603628Y-75250000D01*
X125589147Y-75102974D01*
X125546261Y-74961599D01*
X125476619Y-74831307D01*
X125382895Y-74717105D01*
X125268693Y-74623381D01*
X125138401Y-74553739D01*
X124997026Y-74510853D01*
X124850000Y-74496372D01*
X123150000Y-74496372D01*
X123002974Y-74510853D01*
X122861599Y-74553739D01*
X122731307Y-74623381D01*
X122617105Y-74717105D01*
X122523381Y-74831307D01*
X122453739Y-74961599D01*
X122410853Y-75102974D01*
X122396372Y-75250000D01*
X112975000Y-75250000D01*
X112975000Y-71450000D01*
X122396372Y-71450000D01*
X122396372Y-73150000D01*
X122410853Y-73297026D01*
X122453739Y-73438401D01*
X122523381Y-73568693D01*
X122617105Y-73682895D01*
X122731307Y-73776619D01*
X122861599Y-73846261D01*
X123002974Y-73889147D01*
X123150000Y-73903628D01*
X124850000Y-73903628D01*
X124997026Y-73889147D01*
X125138401Y-73846261D01*
X125191665Y-73817791D01*
X169650000Y-73817791D01*
X169650000Y-74182209D01*
X169721095Y-74539625D01*
X169860552Y-74876303D01*
X170063011Y-75179306D01*
X170320694Y-75436989D01*
X170623697Y-75639448D01*
X170960375Y-75778905D01*
X171317791Y-75850000D01*
X171682209Y-75850000D01*
X172039625Y-75778905D01*
X172376303Y-75639448D01*
X172679306Y-75436989D01*
X172936989Y-75179306D01*
X173139448Y-74876303D01*
X173278905Y-74539625D01*
X173350000Y-74182209D01*
X173350000Y-73817791D01*
X173278905Y-73460375D01*
X173139448Y-73123697D01*
X172936989Y-72820694D01*
X172679306Y-72563011D01*
X172376303Y-72360552D01*
X172039625Y-72221095D01*
X171682209Y-72150000D01*
X171317791Y-72150000D01*
X170960375Y-72221095D01*
X170623697Y-72360552D01*
X170320694Y-72563011D01*
X170063011Y-72820694D01*
X169860552Y-73123697D01*
X169721095Y-73460375D01*
X169650000Y-73817791D01*
X125191665Y-73817791D01*
X125268693Y-73776619D01*
X125382895Y-73682895D01*
X125476619Y-73568693D01*
X125546261Y-73438401D01*
X125589147Y-73297026D01*
X125603628Y-73150000D01*
X125603628Y-71482414D01*
X186590000Y-71482414D01*
X186590000Y-71797586D01*
X186651487Y-72106703D01*
X186772098Y-72397884D01*
X186947199Y-72659941D01*
X187170059Y-72882801D01*
X187432116Y-73057902D01*
X187723297Y-73178513D01*
X188032414Y-73240000D01*
X188347586Y-73240000D01*
X188656703Y-73178513D01*
X188947884Y-73057902D01*
X189209941Y-72882801D01*
X189432801Y-72659941D01*
X189460000Y-72619235D01*
X189487199Y-72659941D01*
X189710059Y-72882801D01*
X189750765Y-72910000D01*
X189710059Y-72937199D01*
X189487199Y-73160059D01*
X189312098Y-73422116D01*
X189191487Y-73713297D01*
X189130000Y-74022414D01*
X189130000Y-74337586D01*
X189191487Y-74646703D01*
X189312098Y-74937884D01*
X189487199Y-75199941D01*
X189506489Y-75219231D01*
X189461307Y-75243381D01*
X189347105Y-75337105D01*
X189253381Y-75451307D01*
X189229231Y-75496489D01*
X189209941Y-75477199D01*
X188947884Y-75302098D01*
X188656703Y-75181487D01*
X188347586Y-75120000D01*
X188032414Y-75120000D01*
X187723297Y-75181487D01*
X187432116Y-75302098D01*
X187170059Y-75477199D01*
X186947199Y-75700059D01*
X186772098Y-75962116D01*
X186651487Y-76253297D01*
X186590000Y-76562414D01*
X186590000Y-76877586D01*
X186651487Y-77186703D01*
X186772098Y-77477884D01*
X186947199Y-77739941D01*
X187170059Y-77962801D01*
X187432116Y-78137902D01*
X187723297Y-78258513D01*
X188032414Y-78320000D01*
X188347586Y-78320000D01*
X188656703Y-78258513D01*
X188947884Y-78137902D01*
X189209941Y-77962801D01*
X189229231Y-77943511D01*
X189253381Y-77988693D01*
X189347105Y-78102895D01*
X189461307Y-78196619D01*
X189591599Y-78266261D01*
X189732974Y-78309147D01*
X189880000Y-78323628D01*
X191580000Y-78323628D01*
X191727026Y-78309147D01*
X191868401Y-78266261D01*
X191998693Y-78196619D01*
X192112895Y-78102895D01*
X192206619Y-77988693D01*
X192276261Y-77858401D01*
X192319147Y-77717026D01*
X192333628Y-77570000D01*
X192333628Y-75870000D01*
X192319147Y-75722974D01*
X192276261Y-75581599D01*
X192206619Y-75451307D01*
X192112895Y-75337105D01*
X191998693Y-75243381D01*
X191953511Y-75219231D01*
X191972801Y-75199941D01*
X192147902Y-74937884D01*
X192268513Y-74646703D01*
X192330000Y-74337586D01*
X192330000Y-74022414D01*
X192268513Y-73713297D01*
X192147902Y-73422116D01*
X191972801Y-73160059D01*
X191749941Y-72937199D01*
X191709235Y-72910000D01*
X191749941Y-72882801D01*
X191972801Y-72659941D01*
X192147902Y-72397884D01*
X192268513Y-72106703D01*
X192330000Y-71797586D01*
X192330000Y-71482414D01*
X192268513Y-71173297D01*
X192147902Y-70882116D01*
X191972801Y-70620059D01*
X191749941Y-70397199D01*
X191487884Y-70222098D01*
X191196703Y-70101487D01*
X190887586Y-70040000D01*
X190572414Y-70040000D01*
X190263297Y-70101487D01*
X189972116Y-70222098D01*
X189710059Y-70397199D01*
X189487199Y-70620059D01*
X189460000Y-70660765D01*
X189432801Y-70620059D01*
X189209941Y-70397199D01*
X188947884Y-70222098D01*
X188656703Y-70101487D01*
X188347586Y-70040000D01*
X188032414Y-70040000D01*
X187723297Y-70101487D01*
X187432116Y-70222098D01*
X187170059Y-70397199D01*
X186947199Y-70620059D01*
X186772098Y-70882116D01*
X186651487Y-71173297D01*
X186590000Y-71482414D01*
X125603628Y-71482414D01*
X125603628Y-71450000D01*
X125589147Y-71302974D01*
X125546261Y-71161599D01*
X125476619Y-71031307D01*
X125382895Y-70917105D01*
X125268693Y-70823381D01*
X125138401Y-70753739D01*
X124997026Y-70710853D01*
X124850000Y-70696372D01*
X123150000Y-70696372D01*
X123002974Y-70710853D01*
X122861599Y-70753739D01*
X122731307Y-70823381D01*
X122617105Y-70917105D01*
X122523381Y-71031307D01*
X122453739Y-71161599D01*
X122410853Y-71302974D01*
X122396372Y-71450000D01*
X112975000Y-71450000D01*
X112975000Y-70140092D01*
X113123697Y-70239448D01*
X113460375Y-70378905D01*
X113817791Y-70450000D01*
X114182209Y-70450000D01*
X114539625Y-70378905D01*
X114876303Y-70239448D01*
X115179306Y-70036989D01*
X115436989Y-69779306D01*
X115639448Y-69476303D01*
X115778905Y-69139625D01*
X115850000Y-68782209D01*
X115850000Y-68417791D01*
X115778905Y-68060375D01*
X115639448Y-67723697D01*
X115436989Y-67420694D01*
X115179306Y-67163011D01*
X114876303Y-66960552D01*
X114539625Y-66821095D01*
X114182209Y-66750000D01*
X113817791Y-66750000D01*
X113460375Y-66821095D01*
X113123697Y-66960552D01*
X112975000Y-67059908D01*
X112975000Y-63440092D01*
X113123697Y-63539448D01*
X113460375Y-63678905D01*
X113817791Y-63750000D01*
X114182209Y-63750000D01*
X114539625Y-63678905D01*
X114876303Y-63539448D01*
X115179306Y-63336989D01*
X115436989Y-63079306D01*
X115639448Y-62776303D01*
X115778905Y-62439625D01*
X115850000Y-62082209D01*
X115850000Y-61717791D01*
X115778905Y-61360375D01*
X115639448Y-61023697D01*
X115436989Y-60720694D01*
X115179306Y-60463011D01*
X114876303Y-60260552D01*
X114539625Y-60121095D01*
X114182209Y-60050000D01*
X113817791Y-60050000D01*
X113460375Y-60121095D01*
X113123697Y-60260552D01*
X112975000Y-60359908D01*
X112975000Y-57350000D01*
X122396372Y-57350000D01*
X122396372Y-59050000D01*
X122410853Y-59197026D01*
X122453739Y-59338401D01*
X122523381Y-59468693D01*
X122617105Y-59582895D01*
X122731307Y-59676619D01*
X122861599Y-59746261D01*
X123002974Y-59789147D01*
X123150000Y-59803628D01*
X124850000Y-59803628D01*
X124997026Y-59789147D01*
X125138401Y-59746261D01*
X125268693Y-59676619D01*
X125382895Y-59582895D01*
X125476619Y-59468693D01*
X125546261Y-59338401D01*
X125589147Y-59197026D01*
X125603628Y-59050000D01*
X125603628Y-57350000D01*
X125589147Y-57202974D01*
X125546261Y-57061599D01*
X125476619Y-56931307D01*
X125382895Y-56817105D01*
X125268693Y-56723381D01*
X125138401Y-56653739D01*
X124997026Y-56610853D01*
X124850000Y-56596372D01*
X123150000Y-56596372D01*
X123002974Y-56610853D01*
X122861599Y-56653739D01*
X122731307Y-56723381D01*
X122617105Y-56817105D01*
X122523381Y-56931307D01*
X122453739Y-57061599D01*
X122410853Y-57202974D01*
X122396372Y-57350000D01*
X112975000Y-57350000D01*
X112975000Y-56068545D01*
X140850000Y-56068545D01*
X140850000Y-56531455D01*
X140940309Y-56985470D01*
X141117457Y-57413143D01*
X141374636Y-57798038D01*
X141701962Y-58125364D01*
X142086857Y-58382543D01*
X142514530Y-58559691D01*
X142968545Y-58650000D01*
X143431455Y-58650000D01*
X143885470Y-58559691D01*
X144313143Y-58382543D01*
X144698038Y-58125364D01*
X145025364Y-57798038D01*
X145282543Y-57413143D01*
X145459691Y-56985470D01*
X145550000Y-56531455D01*
X145550000Y-56068545D01*
X145520014Y-55917791D01*
X169650000Y-55917791D01*
X169650000Y-56282209D01*
X169721095Y-56639625D01*
X169860552Y-56976303D01*
X170063011Y-57279306D01*
X170320694Y-57536989D01*
X170623697Y-57739448D01*
X170960375Y-57878905D01*
X171317791Y-57950000D01*
X171682209Y-57950000D01*
X172039625Y-57878905D01*
X172376303Y-57739448D01*
X172679306Y-57536989D01*
X172936989Y-57279306D01*
X173139448Y-56976303D01*
X173278905Y-56639625D01*
X173350000Y-56282209D01*
X173350000Y-55917791D01*
X173278905Y-55560375D01*
X173139448Y-55223697D01*
X172936989Y-54920694D01*
X172679306Y-54663011D01*
X172376303Y-54460552D01*
X172039625Y-54321095D01*
X171682209Y-54250000D01*
X171317791Y-54250000D01*
X170960375Y-54321095D01*
X170623697Y-54460552D01*
X170320694Y-54663011D01*
X170063011Y-54920694D01*
X169860552Y-55223697D01*
X169721095Y-55560375D01*
X169650000Y-55917791D01*
X145520014Y-55917791D01*
X145459691Y-55614530D01*
X145282543Y-55186857D01*
X145025364Y-54801962D01*
X144698038Y-54474636D01*
X144313143Y-54217457D01*
X143885470Y-54040309D01*
X143431455Y-53950000D01*
X142968545Y-53950000D01*
X142514530Y-54040309D01*
X142086857Y-54217457D01*
X141701962Y-54474636D01*
X141374636Y-54801962D01*
X141117457Y-55186857D01*
X140940309Y-55614530D01*
X140850000Y-56068545D01*
X112975000Y-56068545D01*
X112975000Y-53550000D01*
X122396372Y-53550000D01*
X122396372Y-55250000D01*
X122410853Y-55397026D01*
X122453739Y-55538401D01*
X122523381Y-55668693D01*
X122617105Y-55782895D01*
X122731307Y-55876619D01*
X122861599Y-55946261D01*
X123002974Y-55989147D01*
X123150000Y-56003628D01*
X124850000Y-56003628D01*
X124997026Y-55989147D01*
X125138401Y-55946261D01*
X125268693Y-55876619D01*
X125382895Y-55782895D01*
X125476619Y-55668693D01*
X125546261Y-55538401D01*
X125589147Y-55397026D01*
X125603628Y-55250000D01*
X125603628Y-53582414D01*
X186590000Y-53582414D01*
X186590000Y-53897586D01*
X186651487Y-54206703D01*
X186772098Y-54497884D01*
X186947199Y-54759941D01*
X187170059Y-54982801D01*
X187432116Y-55157902D01*
X187723297Y-55278513D01*
X188032414Y-55340000D01*
X188347586Y-55340000D01*
X188656703Y-55278513D01*
X188947884Y-55157902D01*
X189209941Y-54982801D01*
X189432801Y-54759941D01*
X189460000Y-54719235D01*
X189487199Y-54759941D01*
X189710059Y-54982801D01*
X189750765Y-55010000D01*
X189710059Y-55037199D01*
X189487199Y-55260059D01*
X189312098Y-55522116D01*
X189191487Y-55813297D01*
X189130000Y-56122414D01*
X189130000Y-56437586D01*
X189191487Y-56746703D01*
X189312098Y-57037884D01*
X189487199Y-57299941D01*
X189506489Y-57319231D01*
X189461307Y-57343381D01*
X189347105Y-57437105D01*
X189253381Y-57551307D01*
X189229231Y-57596489D01*
X189209941Y-57577199D01*
X188947884Y-57402098D01*
X188656703Y-57281487D01*
X188347586Y-57220000D01*
X188032414Y-57220000D01*
X187723297Y-57281487D01*
X187432116Y-57402098D01*
X187170059Y-57577199D01*
X186947199Y-57800059D01*
X186772098Y-58062116D01*
X186651487Y-58353297D01*
X186590000Y-58662414D01*
X186590000Y-58977586D01*
X186651487Y-59286703D01*
X186772098Y-59577884D01*
X186947199Y-59839941D01*
X187170059Y-60062801D01*
X187432116Y-60237902D01*
X187723297Y-60358513D01*
X188032414Y-60420000D01*
X188347586Y-60420000D01*
X188656703Y-60358513D01*
X188947884Y-60237902D01*
X189209941Y-60062801D01*
X189229231Y-60043511D01*
X189253381Y-60088693D01*
X189347105Y-60202895D01*
X189461307Y-60296619D01*
X189591599Y-60366261D01*
X189732974Y-60409147D01*
X189880000Y-60423628D01*
X191580000Y-60423628D01*
X191727026Y-60409147D01*
X191868401Y-60366261D01*
X191998693Y-60296619D01*
X192112895Y-60202895D01*
X192206619Y-60088693D01*
X192276261Y-59958401D01*
X192319147Y-59817026D01*
X192333628Y-59670000D01*
X192333628Y-57970000D01*
X192319147Y-57822974D01*
X192276261Y-57681599D01*
X192206619Y-57551307D01*
X192112895Y-57437105D01*
X191998693Y-57343381D01*
X191953511Y-57319231D01*
X191972801Y-57299941D01*
X192147902Y-57037884D01*
X192268513Y-56746703D01*
X192330000Y-56437586D01*
X192330000Y-56122414D01*
X192268513Y-55813297D01*
X192147902Y-55522116D01*
X191972801Y-55260059D01*
X191749941Y-55037199D01*
X191709235Y-55010000D01*
X191749941Y-54982801D01*
X191972801Y-54759941D01*
X192147902Y-54497884D01*
X192268513Y-54206703D01*
X192330000Y-53897586D01*
X192330000Y-53582414D01*
X192268513Y-53273297D01*
X192147902Y-52982116D01*
X191972801Y-52720059D01*
X191749941Y-52497199D01*
X191487884Y-52322098D01*
X191196703Y-52201487D01*
X190887586Y-52140000D01*
X190572414Y-52140000D01*
X190263297Y-52201487D01*
X189972116Y-52322098D01*
X189710059Y-52497199D01*
X189487199Y-52720059D01*
X189460000Y-52760765D01*
X189432801Y-52720059D01*
X189209941Y-52497199D01*
X188947884Y-52322098D01*
X188656703Y-52201487D01*
X188347586Y-52140000D01*
X188032414Y-52140000D01*
X187723297Y-52201487D01*
X187432116Y-52322098D01*
X187170059Y-52497199D01*
X186947199Y-52720059D01*
X186772098Y-52982116D01*
X186651487Y-53273297D01*
X186590000Y-53582414D01*
X125603628Y-53582414D01*
X125603628Y-53550000D01*
X125589147Y-53402974D01*
X125546261Y-53261599D01*
X125476619Y-53131307D01*
X125382895Y-53017105D01*
X125268693Y-52923381D01*
X125138401Y-52853739D01*
X124997026Y-52810853D01*
X124850000Y-52796372D01*
X123150000Y-52796372D01*
X123002974Y-52810853D01*
X122861599Y-52853739D01*
X122731307Y-52923381D01*
X122617105Y-53017105D01*
X122523381Y-53131307D01*
X122453739Y-53261599D01*
X122410853Y-53402974D01*
X122396372Y-53550000D01*
X112975000Y-53550000D01*
X112975000Y-52240092D01*
X113123697Y-52339448D01*
X113460375Y-52478905D01*
X113817791Y-52550000D01*
X114182209Y-52550000D01*
X114539625Y-52478905D01*
X114876303Y-52339448D01*
X115179306Y-52136989D01*
X115436989Y-51879306D01*
X115639448Y-51576303D01*
X115778905Y-51239625D01*
X115850000Y-50882209D01*
X115850000Y-50517791D01*
X115778905Y-50160375D01*
X115639448Y-49823697D01*
X115436989Y-49520694D01*
X115179306Y-49263011D01*
X114876303Y-49060552D01*
X114539625Y-48921095D01*
X114182209Y-48850000D01*
X113817791Y-48850000D01*
X113460375Y-48921095D01*
X113123697Y-49060552D01*
X112975000Y-49159908D01*
X112975000Y-41868545D01*
X114750000Y-41868545D01*
X114750000Y-42331455D01*
X114840309Y-42785470D01*
X115017457Y-43213143D01*
X115274636Y-43598038D01*
X115601962Y-43925364D01*
X115986857Y-44182543D01*
X116414530Y-44359691D01*
X116868545Y-44450000D01*
X117331455Y-44450000D01*
X117785470Y-44359691D01*
X118213143Y-44182543D01*
X118598038Y-43925364D01*
X118925364Y-43598038D01*
X119182543Y-43213143D01*
X119359691Y-42785470D01*
X119450000Y-42331455D01*
X119450000Y-41868545D01*
X174250000Y-41868545D01*
X174250000Y-42331455D01*
X174340309Y-42785470D01*
X174517457Y-43213143D01*
X174774636Y-43598038D01*
X175101962Y-43925364D01*
X175486857Y-44182543D01*
X175914530Y-44359691D01*
X176368545Y-44450000D01*
X176831455Y-44450000D01*
X177285470Y-44359691D01*
X177713143Y-44182543D01*
X178098038Y-43925364D01*
X178425364Y-43598038D01*
X178682543Y-43213143D01*
X178859691Y-42785470D01*
X178950000Y-42331455D01*
X178950000Y-41868545D01*
X178859691Y-41414530D01*
X178682543Y-40986857D01*
X178425364Y-40601962D01*
X178423402Y-40600000D01*
X182289839Y-40600000D01*
X182330385Y-41011672D01*
X182450465Y-41407524D01*
X182645465Y-41772343D01*
X182907891Y-42092109D01*
X183227657Y-42354535D01*
X183592476Y-42549535D01*
X183988328Y-42669615D01*
X184259997Y-42696372D01*
X183300001Y-42696372D01*
X183104203Y-42715656D01*
X182915929Y-42772769D01*
X182742415Y-42865514D01*
X182590328Y-42990328D01*
X182465514Y-43142415D01*
X182372769Y-43315929D01*
X182315656Y-43504203D01*
X182296372Y-43700001D01*
X182296372Y-45899999D01*
X182315656Y-46095797D01*
X182372769Y-46284071D01*
X182465514Y-46457585D01*
X182590328Y-46609672D01*
X182742415Y-46734486D01*
X182915929Y-46827231D01*
X183104203Y-46884344D01*
X183300001Y-46903628D01*
X186099999Y-46903628D01*
X186295797Y-46884344D01*
X186484071Y-46827231D01*
X186657585Y-46734486D01*
X186809672Y-46609672D01*
X186934486Y-46457585D01*
X187027231Y-46284071D01*
X187084344Y-46095797D01*
X187103628Y-45899999D01*
X187103628Y-43700001D01*
X187084344Y-43504203D01*
X187027231Y-43315929D01*
X186934486Y-43142415D01*
X186809672Y-42990328D01*
X186657585Y-42865514D01*
X186484071Y-42772769D01*
X186295797Y-42715656D01*
X186099999Y-42696372D01*
X185140003Y-42696372D01*
X185411672Y-42669615D01*
X185807524Y-42549535D01*
X186172343Y-42354535D01*
X186492109Y-42092109D01*
X186754535Y-41772343D01*
X186949535Y-41407524D01*
X187069615Y-41011672D01*
X187110161Y-40600000D01*
X187069615Y-40188328D01*
X186949535Y-39792476D01*
X186754535Y-39427657D01*
X186492109Y-39107891D01*
X186172343Y-38845465D01*
X185807524Y-38650465D01*
X185411672Y-38530385D01*
X185103167Y-38500000D01*
X184296833Y-38500000D01*
X183988328Y-38530385D01*
X183592476Y-38650465D01*
X183227657Y-38845465D01*
X182907891Y-39107891D01*
X182645465Y-39427657D01*
X182450465Y-39792476D01*
X182330385Y-40188328D01*
X182289839Y-40600000D01*
X178423402Y-40600000D01*
X178098038Y-40274636D01*
X177713143Y-40017457D01*
X177285470Y-39840309D01*
X176831455Y-39750000D01*
X176368545Y-39750000D01*
X175914530Y-39840309D01*
X175486857Y-40017457D01*
X175101962Y-40274636D01*
X174774636Y-40601962D01*
X174517457Y-40986857D01*
X174340309Y-41414530D01*
X174250000Y-41868545D01*
X119450000Y-41868545D01*
X119359691Y-41414530D01*
X119182543Y-40986857D01*
X118925364Y-40601962D01*
X118598038Y-40274636D01*
X118213143Y-40017457D01*
X117785470Y-39840309D01*
X117331455Y-39750000D01*
X116868545Y-39750000D01*
X116414530Y-39840309D01*
X115986857Y-40017457D01*
X115601962Y-40274636D01*
X115274636Y-40601962D01*
X115017457Y-40986857D01*
X114840309Y-41414530D01*
X114750000Y-41868545D01*
X112975000Y-41868545D01*
X112975000Y-37975000D01*
X193325001Y-37975000D01*
X193325000Y-141325000D01*
G37*
%TD.AperFunction*%
%TD*%
M02*
