G04 #@! TF.GenerationSoftware,KiCad,Pcbnew,(6.0.4)*
G04 #@! TF.CreationDate,2022-07-06T17:35:23+08:00*
G04 #@! TF.ProjectId,MP2145S_EVB,4d503231-3435-4535-9f45-56422e6b6963,rev?*
G04 #@! TF.SameCoordinates,PX5e56640PY77750e0*
G04 #@! TF.FileFunction,Soldermask,Bot*
G04 #@! TF.FilePolarity,Negative*
%FSLAX46Y46*%
G04 Gerber Fmt 4.6, Leading zero omitted, Abs format (unit mm)*
G04 Created by KiCad (PCBNEW (6.0.4)) date 2022-07-06 17:35:23*
%MOMM*%
%LPD*%
G01*
G04 APERTURE LIST*
G04 Aperture macros list*
%AMRoundRect*
0 Rectangle with rounded corners*
0 $1 Rounding radius*
0 $2 $3 $4 $5 $6 $7 $8 $9 X,Y pos of 4 corners*
0 Add a 4 corners polygon primitive as box body*
4,1,4,$2,$3,$4,$5,$6,$7,$8,$9,$2,$3,0*
0 Add four circle primitives for the rounded corners*
1,1,$1+$1,$2,$3*
1,1,$1+$1,$4,$5*
1,1,$1+$1,$6,$7*
1,1,$1+$1,$8,$9*
0 Add four rect primitives between the rounded corners*
20,1,$1+$1,$2,$3,$4,$5,0*
20,1,$1+$1,$4,$5,$6,$7,0*
20,1,$1+$1,$6,$7,$8,$9,0*
20,1,$1+$1,$8,$9,$2,$3,0*%
%AMOutline4P*
0 Free polygon, 4 corners , with rotation*
0 The origin of the aperture is its center*
0 number of corners: always 4*
0 $1 to $8 corner X, Y*
0 $9 Rotation angle, in degrees counterclockwise*
0 create outline with 4 corners*
4,1,4,$1,$2,$3,$4,$5,$6,$7,$8,$1,$2,$9*%
G04 Aperture macros list end*
%ADD10C,0.010000*%
%ADD11R,0.700000X3.200000*%
%ADD12R,0.700000X4.300000*%
%ADD13RoundRect,0.225000X0.225000X0.250000X-0.225000X0.250000X-0.225000X-0.250000X0.225000X-0.250000X0*%
%ADD14RoundRect,0.140000X0.140000X0.170000X-0.140000X0.170000X-0.140000X-0.170000X0.140000X-0.170000X0*%
%ADD15RoundRect,0.140000X-0.170000X0.140000X-0.170000X-0.140000X0.170000X-0.140000X0.170000X0.140000X0*%
%ADD16RoundRect,0.140000X0.170000X-0.140000X0.170000X0.140000X-0.170000X0.140000X-0.170000X-0.140000X0*%
%ADD17RoundRect,0.140000X-0.140000X-0.170000X0.140000X-0.170000X0.140000X0.170000X-0.140000X0.170000X0*%
%ADD18RoundRect,0.225000X-0.225000X-0.250000X0.225000X-0.250000X0.225000X0.250000X-0.225000X0.250000X0*%
%ADD19R,2.500000X1.900000*%
%ADD20RoundRect,0.135000X0.185000X-0.135000X0.185000X0.135000X-0.185000X0.135000X-0.185000X-0.135000X0*%
%ADD21RoundRect,0.135000X-0.135000X-0.185000X0.135000X-0.185000X0.135000X0.185000X-0.135000X0.185000X0*%
%ADD22RoundRect,0.135000X-0.185000X0.135000X-0.185000X-0.135000X0.185000X-0.135000X0.185000X0.135000X0*%
%ADD23R,0.240000X0.600000*%
%ADD24R,0.600000X0.240000*%
%ADD25R,0.240000X0.990000*%
%ADD26R,0.517500X0.427500*%
%ADD27R,2.050000X3.050000*%
%ADD28R,1.800000X2.200000*%
%ADD29R,0.300000X1.300000*%
%ADD30RoundRect,0.225000X-0.250000X0.225000X-0.250000X-0.225000X0.250000X-0.225000X0.250000X0.225000X0*%
%ADD31RoundRect,0.225000X0.250000X-0.225000X0.250000X0.225000X-0.250000X0.225000X-0.250000X-0.225000X0*%
%ADD32R,1.900000X2.500000*%
%ADD33O,0.750000X0.250000*%
%ADD34O,0.250000X0.900000*%
%ADD35O,0.500000X0.300000*%
%ADD36Outline4P,-0.050000X-0.150000X0.050000X-0.150000X0.050000X0.150000X-0.050000X0.150000X225.000000*%
%ADD37Outline4P,-0.050000X-0.150000X0.050000X-0.150000X0.050000X0.150000X-0.050000X0.150000X45.000000*%
%ADD38Outline4P,-0.050000X-0.150000X0.050000X-0.150000X0.050000X0.150000X-0.050000X0.150000X135.000000*%
%ADD39RoundRect,0.100000X-0.525000X-0.100000X0.525000X-0.100000X0.525000X0.100000X-0.525000X0.100000X0*%
%ADD40RoundRect,0.147500X-0.172500X0.147500X-0.172500X-0.147500X0.172500X-0.147500X0.172500X0.147500X0*%
%ADD41RoundRect,0.275000X3.225000X0.275000X-3.225000X0.275000X-3.225000X-0.275000X3.225000X-0.275000X0*%
%ADD42RoundRect,0.275000X0.275000X-3.225000X0.275000X3.225000X-0.275000X3.225000X-0.275000X-3.225000X0*%
G04 APERTURE END LIST*
G04 #@! TO.C,U1*
G36*
X56854850Y28871794D02*
G01*
X56862679Y28871178D01*
X56870465Y28870153D01*
X56878187Y28868722D01*
X56885823Y28866889D01*
X56893353Y28864658D01*
X56900755Y28862037D01*
X56908010Y28859032D01*
X56915099Y28855651D01*
X56922000Y28851904D01*
X56928696Y28847801D01*
X56935168Y28843353D01*
X56941398Y28838572D01*
X56947370Y28833472D01*
X56953066Y28828066D01*
X56958472Y28822370D01*
X56963572Y28816398D01*
X56968353Y28810168D01*
X56972801Y28803696D01*
X56976904Y28797000D01*
X56980651Y28790099D01*
X56984032Y28783010D01*
X56987037Y28775755D01*
X56989658Y28768353D01*
X56991889Y28760823D01*
X56993722Y28753187D01*
X56995153Y28745465D01*
X56996178Y28737679D01*
X56996794Y28729850D01*
X56997000Y28722000D01*
X56997000Y28347000D01*
X57143000Y28347000D01*
X57143000Y28720000D01*
X57143208Y28727955D01*
X57143833Y28735888D01*
X57144871Y28743778D01*
X57146322Y28751603D01*
X57148179Y28759340D01*
X57150439Y28766971D01*
X57153096Y28774472D01*
X57156141Y28781824D01*
X57159567Y28789007D01*
X57163364Y28796000D01*
X57167522Y28802785D01*
X57172029Y28809343D01*
X57176874Y28815657D01*
X57182042Y28821708D01*
X57187520Y28827480D01*
X57193292Y28832958D01*
X57199343Y28838126D01*
X57205657Y28842971D01*
X57212215Y28847478D01*
X57219000Y28851636D01*
X57225993Y28855433D01*
X57233176Y28858859D01*
X57240528Y28861904D01*
X57248029Y28864561D01*
X57255660Y28866821D01*
X57263397Y28868678D01*
X57271222Y28870129D01*
X57279112Y28871167D01*
X57287045Y28871792D01*
X57295000Y28872000D01*
X57395000Y28872000D01*
X57402955Y28871792D01*
X57410888Y28871167D01*
X57418778Y28870129D01*
X57426603Y28868678D01*
X57434340Y28866821D01*
X57441971Y28864561D01*
X57449472Y28861904D01*
X57456824Y28858859D01*
X57464007Y28855433D01*
X57471000Y28851636D01*
X57477785Y28847478D01*
X57484343Y28842971D01*
X57490657Y28838126D01*
X57496708Y28832958D01*
X57502480Y28827480D01*
X57507958Y28821708D01*
X57513126Y28815657D01*
X57517971Y28809343D01*
X57522478Y28802785D01*
X57526636Y28796000D01*
X57530433Y28789007D01*
X57533859Y28781824D01*
X57536904Y28774472D01*
X57539561Y28766971D01*
X57541821Y28759340D01*
X57543678Y28751603D01*
X57545129Y28743778D01*
X57546167Y28735888D01*
X57546792Y28727955D01*
X57547000Y28720000D01*
X57547000Y27947000D01*
X57547001Y27946948D01*
X57547005Y27946895D01*
X57547012Y27946844D01*
X57547022Y27946792D01*
X57547034Y27946741D01*
X57547049Y27946691D01*
X57547066Y27946642D01*
X57547086Y27946593D01*
X57547109Y27946546D01*
X57547134Y27946500D01*
X57547161Y27946455D01*
X57547191Y27946412D01*
X57547223Y27946371D01*
X57547257Y27946331D01*
X57547293Y27946293D01*
X57547331Y27946257D01*
X57547371Y27946223D01*
X57547412Y27946191D01*
X57547455Y27946161D01*
X57547500Y27946134D01*
X57547546Y27946109D01*
X57547593Y27946086D01*
X57547642Y27946066D01*
X57547691Y27946049D01*
X57547741Y27946034D01*
X57547792Y27946022D01*
X57547844Y27946012D01*
X57547895Y27946005D01*
X57547948Y27946001D01*
X57548000Y27946000D01*
X58045000Y27946000D01*
X58052955Y27945792D01*
X58060888Y27945167D01*
X58068778Y27944129D01*
X58076603Y27942678D01*
X58084340Y27940821D01*
X58091971Y27938561D01*
X58099472Y27935904D01*
X58106824Y27932859D01*
X58114007Y27929433D01*
X58121000Y27925636D01*
X58127785Y27921478D01*
X58134343Y27916971D01*
X58140657Y27912126D01*
X58146708Y27906958D01*
X58152480Y27901480D01*
X58157958Y27895708D01*
X58163126Y27889657D01*
X58167971Y27883343D01*
X58172478Y27876785D01*
X58176636Y27870000D01*
X58180433Y27863007D01*
X58183859Y27855824D01*
X58186904Y27848472D01*
X58189561Y27840971D01*
X58191821Y27833340D01*
X58193678Y27825603D01*
X58195129Y27817778D01*
X58196167Y27809888D01*
X58196792Y27801955D01*
X58197000Y27794000D01*
X58197000Y24845000D01*
X58196792Y24837045D01*
X58196167Y24829112D01*
X58195129Y24821222D01*
X58193678Y24813397D01*
X58191821Y24805660D01*
X58189561Y24798029D01*
X58186904Y24790528D01*
X58183859Y24783176D01*
X58180433Y24775993D01*
X58176636Y24769000D01*
X58172478Y24762215D01*
X58167971Y24755657D01*
X58163126Y24749343D01*
X58157958Y24743292D01*
X58152480Y24737520D01*
X58146708Y24732042D01*
X58140657Y24726874D01*
X58134343Y24722029D01*
X58127785Y24717522D01*
X58121000Y24713364D01*
X58114007Y24709567D01*
X58106824Y24706141D01*
X58099472Y24703096D01*
X58091971Y24700439D01*
X58084340Y24698179D01*
X58076603Y24696322D01*
X58068778Y24694871D01*
X58060888Y24693833D01*
X58052955Y24693208D01*
X58045000Y24693000D01*
X57547000Y24693000D01*
X57547000Y23917000D01*
X57546797Y23909254D01*
X57546189Y23901530D01*
X57545178Y23893848D01*
X57543766Y23886229D01*
X57541957Y23878695D01*
X57539756Y23871265D01*
X57537170Y23863962D01*
X57534205Y23856803D01*
X57530869Y23849809D01*
X57527172Y23843000D01*
X57523123Y23836393D01*
X57518735Y23830008D01*
X57514018Y23823861D01*
X57508985Y23817969D01*
X57503652Y23812348D01*
X57498031Y23807015D01*
X57492139Y23801982D01*
X57485992Y23797265D01*
X57479607Y23792877D01*
X57473000Y23788828D01*
X57466191Y23785131D01*
X57459197Y23781795D01*
X57452038Y23778830D01*
X57444735Y23776244D01*
X57437305Y23774043D01*
X57429771Y23772234D01*
X57422152Y23770822D01*
X57414470Y23769811D01*
X57406746Y23769203D01*
X57399000Y23769000D01*
X57293000Y23769000D01*
X57285150Y23769206D01*
X57277321Y23769822D01*
X57269535Y23770847D01*
X57261813Y23772278D01*
X57254177Y23774111D01*
X57246647Y23776342D01*
X57239245Y23778963D01*
X57231990Y23781968D01*
X57224901Y23785349D01*
X57218000Y23789096D01*
X57211304Y23793199D01*
X57204832Y23797647D01*
X57198602Y23802428D01*
X57192630Y23807528D01*
X57186934Y23812934D01*
X57181528Y23818630D01*
X57176428Y23824602D01*
X57171647Y23830832D01*
X57167199Y23837304D01*
X57163096Y23844000D01*
X57159349Y23850901D01*
X57155968Y23857990D01*
X57152963Y23865245D01*
X57150342Y23872647D01*
X57148111Y23880177D01*
X57146278Y23887813D01*
X57144847Y23895535D01*
X57143822Y23903321D01*
X57143206Y23911150D01*
X57143000Y23919000D01*
X57143000Y24292000D01*
X57142999Y24292052D01*
X57142995Y24292105D01*
X57142988Y24292156D01*
X57142978Y24292208D01*
X57142966Y24292259D01*
X57142951Y24292309D01*
X57142934Y24292358D01*
X57142914Y24292407D01*
X57142891Y24292454D01*
X57142866Y24292500D01*
X57142839Y24292545D01*
X57142809Y24292588D01*
X57142777Y24292629D01*
X57142743Y24292669D01*
X57142707Y24292707D01*
X57142669Y24292743D01*
X57142629Y24292777D01*
X57142588Y24292809D01*
X57142545Y24292839D01*
X57142500Y24292866D01*
X57142454Y24292891D01*
X57142407Y24292914D01*
X57142358Y24292934D01*
X57142309Y24292951D01*
X57142259Y24292966D01*
X57142208Y24292978D01*
X57142156Y24292988D01*
X57142105Y24292995D01*
X57142052Y24292999D01*
X57142000Y24293000D01*
X56997000Y24293000D01*
X56997000Y23918000D01*
X56996796Y23910202D01*
X56996184Y23902425D01*
X56995166Y23894691D01*
X56993744Y23887021D01*
X56991923Y23879436D01*
X56989707Y23871956D01*
X56987103Y23864603D01*
X56984118Y23857396D01*
X56980760Y23850355D01*
X56977038Y23843500D01*
X56972962Y23836849D01*
X56968544Y23830420D01*
X56963795Y23824231D01*
X56958729Y23818300D01*
X56953359Y23812641D01*
X56947700Y23807271D01*
X56941769Y23802205D01*
X56935580Y23797456D01*
X56929151Y23793038D01*
X56922500Y23788962D01*
X56915645Y23785240D01*
X56908604Y23781882D01*
X56901397Y23778897D01*
X56894044Y23776293D01*
X56886564Y23774077D01*
X56878979Y23772256D01*
X56871309Y23770834D01*
X56863575Y23769816D01*
X56855798Y23769204D01*
X56848000Y23769000D01*
X56743000Y23769000D01*
X56735150Y23769206D01*
X56727321Y23769822D01*
X56719535Y23770847D01*
X56711813Y23772278D01*
X56704177Y23774111D01*
X56696647Y23776342D01*
X56689245Y23778963D01*
X56681990Y23781968D01*
X56674901Y23785349D01*
X56668000Y23789096D01*
X56661304Y23793199D01*
X56654832Y23797647D01*
X56648602Y23802428D01*
X56642630Y23807528D01*
X56636934Y23812934D01*
X56631528Y23818630D01*
X56626428Y23824602D01*
X56621647Y23830832D01*
X56617199Y23837304D01*
X56613096Y23844000D01*
X56609349Y23850901D01*
X56605968Y23857990D01*
X56602963Y23865245D01*
X56600342Y23872647D01*
X56598111Y23880177D01*
X56596278Y23887813D01*
X56594847Y23895535D01*
X56593822Y23903321D01*
X56593206Y23911150D01*
X56593000Y23919000D01*
X56593000Y24693000D01*
X56592999Y24693052D01*
X56592995Y24693105D01*
X56592988Y24693156D01*
X56592978Y24693208D01*
X56592966Y24693259D01*
X56592951Y24693309D01*
X56592934Y24693358D01*
X56592914Y24693407D01*
X56592891Y24693454D01*
X56592866Y24693500D01*
X56592839Y24693545D01*
X56592809Y24693588D01*
X56592777Y24693629D01*
X56592743Y24693669D01*
X56592707Y24693707D01*
X56592669Y24693743D01*
X56592629Y24693777D01*
X56592588Y24693809D01*
X56592545Y24693839D01*
X56592500Y24693866D01*
X56592454Y24693891D01*
X56592407Y24693914D01*
X56592358Y24693934D01*
X56592309Y24693951D01*
X56592259Y24693966D01*
X56592208Y24693978D01*
X56592156Y24693988D01*
X56592105Y24693995D01*
X56592052Y24693999D01*
X56592000Y24694000D01*
X56093000Y24694000D01*
X56085150Y24694206D01*
X56077321Y24694822D01*
X56069535Y24695847D01*
X56061813Y24697278D01*
X56054177Y24699111D01*
X56046647Y24701342D01*
X56039245Y24703963D01*
X56031990Y24706968D01*
X56024901Y24710349D01*
X56018000Y24714096D01*
X56011304Y24718199D01*
X56004832Y24722647D01*
X55998602Y24727428D01*
X55992630Y24732528D01*
X55986934Y24737934D01*
X55981528Y24743630D01*
X55976428Y24749602D01*
X55971647Y24755832D01*
X55967199Y24762304D01*
X55963096Y24769000D01*
X55959349Y24775901D01*
X55955968Y24782990D01*
X55952963Y24790245D01*
X55950342Y24797647D01*
X55948111Y24805177D01*
X55946278Y24812813D01*
X55944847Y24820535D01*
X55943822Y24828321D01*
X55943206Y24836150D01*
X55943000Y24844000D01*
X55943000Y27795000D01*
X55943208Y27802955D01*
X55943833Y27810888D01*
X55944871Y27818778D01*
X55946322Y27826603D01*
X55948179Y27834340D01*
X55950439Y27841971D01*
X55953096Y27849472D01*
X55956141Y27856824D01*
X55959567Y27864007D01*
X55963364Y27871000D01*
X55967522Y27877785D01*
X55972029Y27884343D01*
X55976874Y27890657D01*
X55982042Y27896708D01*
X55987520Y27902480D01*
X55993292Y27907958D01*
X55999343Y27913126D01*
X56005657Y27917971D01*
X56012215Y27922478D01*
X56019000Y27926636D01*
X56025993Y27930433D01*
X56033176Y27933859D01*
X56040528Y27936904D01*
X56048029Y27939561D01*
X56055660Y27941821D01*
X56063397Y27943678D01*
X56071222Y27945129D01*
X56079112Y27946167D01*
X56087045Y27946792D01*
X56095000Y27947000D01*
X56593000Y27947000D01*
X56593000Y28721000D01*
X56593207Y28728903D01*
X56593827Y28736784D01*
X56594859Y28744622D01*
X56596300Y28752395D01*
X56598145Y28760082D01*
X56600390Y28767662D01*
X56603029Y28775114D01*
X56606055Y28782417D01*
X56609458Y28789553D01*
X56613230Y28796500D01*
X56617361Y28803240D01*
X56621838Y28809756D01*
X56626651Y28816027D01*
X56631785Y28822039D01*
X56637227Y28827773D01*
X56642961Y28833215D01*
X56648973Y28838349D01*
X56655244Y28843162D01*
X56661760Y28847639D01*
X56668500Y28851770D01*
X56675447Y28855542D01*
X56682583Y28858945D01*
X56689886Y28861971D01*
X56697338Y28864610D01*
X56704918Y28866855D01*
X56712605Y28868700D01*
X56720378Y28870141D01*
X56728216Y28871173D01*
X56736097Y28871793D01*
X56744000Y28872000D01*
X56847000Y28872000D01*
X56854850Y28871794D01*
G37*
D10*
X56854850Y28871794D02*
X56862679Y28871178D01*
X56870465Y28870153D01*
X56878187Y28868722D01*
X56885823Y28866889D01*
X56893353Y28864658D01*
X56900755Y28862037D01*
X56908010Y28859032D01*
X56915099Y28855651D01*
X56922000Y28851904D01*
X56928696Y28847801D01*
X56935168Y28843353D01*
X56941398Y28838572D01*
X56947370Y28833472D01*
X56953066Y28828066D01*
X56958472Y28822370D01*
X56963572Y28816398D01*
X56968353Y28810168D01*
X56972801Y28803696D01*
X56976904Y28797000D01*
X56980651Y28790099D01*
X56984032Y28783010D01*
X56987037Y28775755D01*
X56989658Y28768353D01*
X56991889Y28760823D01*
X56993722Y28753187D01*
X56995153Y28745465D01*
X56996178Y28737679D01*
X56996794Y28729850D01*
X56997000Y28722000D01*
X56997000Y28347000D01*
X57143000Y28347000D01*
X57143000Y28720000D01*
X57143208Y28727955D01*
X57143833Y28735888D01*
X57144871Y28743778D01*
X57146322Y28751603D01*
X57148179Y28759340D01*
X57150439Y28766971D01*
X57153096Y28774472D01*
X57156141Y28781824D01*
X57159567Y28789007D01*
X57163364Y28796000D01*
X57167522Y28802785D01*
X57172029Y28809343D01*
X57176874Y28815657D01*
X57182042Y28821708D01*
X57187520Y28827480D01*
X57193292Y28832958D01*
X57199343Y28838126D01*
X57205657Y28842971D01*
X57212215Y28847478D01*
X57219000Y28851636D01*
X57225993Y28855433D01*
X57233176Y28858859D01*
X57240528Y28861904D01*
X57248029Y28864561D01*
X57255660Y28866821D01*
X57263397Y28868678D01*
X57271222Y28870129D01*
X57279112Y28871167D01*
X57287045Y28871792D01*
X57295000Y28872000D01*
X57395000Y28872000D01*
X57402955Y28871792D01*
X57410888Y28871167D01*
X57418778Y28870129D01*
X57426603Y28868678D01*
X57434340Y28866821D01*
X57441971Y28864561D01*
X57449472Y28861904D01*
X57456824Y28858859D01*
X57464007Y28855433D01*
X57471000Y28851636D01*
X57477785Y28847478D01*
X57484343Y28842971D01*
X57490657Y28838126D01*
X57496708Y28832958D01*
X57502480Y28827480D01*
X57507958Y28821708D01*
X57513126Y28815657D01*
X57517971Y28809343D01*
X57522478Y28802785D01*
X57526636Y28796000D01*
X57530433Y28789007D01*
X57533859Y28781824D01*
X57536904Y28774472D01*
X57539561Y28766971D01*
X57541821Y28759340D01*
X57543678Y28751603D01*
X57545129Y28743778D01*
X57546167Y28735888D01*
X57546792Y28727955D01*
X57547000Y28720000D01*
X57547000Y27947000D01*
X57547001Y27946948D01*
X57547005Y27946895D01*
X57547012Y27946844D01*
X57547022Y27946792D01*
X57547034Y27946741D01*
X57547049Y27946691D01*
X57547066Y27946642D01*
X57547086Y27946593D01*
X57547109Y27946546D01*
X57547134Y27946500D01*
X57547161Y27946455D01*
X57547191Y27946412D01*
X57547223Y27946371D01*
X57547257Y27946331D01*
X57547293Y27946293D01*
X57547331Y27946257D01*
X57547371Y27946223D01*
X57547412Y27946191D01*
X57547455Y27946161D01*
X57547500Y27946134D01*
X57547546Y27946109D01*
X57547593Y27946086D01*
X57547642Y27946066D01*
X57547691Y27946049D01*
X57547741Y27946034D01*
X57547792Y27946022D01*
X57547844Y27946012D01*
X57547895Y27946005D01*
X57547948Y27946001D01*
X57548000Y27946000D01*
X58045000Y27946000D01*
X58052955Y27945792D01*
X58060888Y27945167D01*
X58068778Y27944129D01*
X58076603Y27942678D01*
X58084340Y27940821D01*
X58091971Y27938561D01*
X58099472Y27935904D01*
X58106824Y27932859D01*
X58114007Y27929433D01*
X58121000Y27925636D01*
X58127785Y27921478D01*
X58134343Y27916971D01*
X58140657Y27912126D01*
X58146708Y27906958D01*
X58152480Y27901480D01*
X58157958Y27895708D01*
X58163126Y27889657D01*
X58167971Y27883343D01*
X58172478Y27876785D01*
X58176636Y27870000D01*
X58180433Y27863007D01*
X58183859Y27855824D01*
X58186904Y27848472D01*
X58189561Y27840971D01*
X58191821Y27833340D01*
X58193678Y27825603D01*
X58195129Y27817778D01*
X58196167Y27809888D01*
X58196792Y27801955D01*
X58197000Y27794000D01*
X58197000Y24845000D01*
X58196792Y24837045D01*
X58196167Y24829112D01*
X58195129Y24821222D01*
X58193678Y24813397D01*
X58191821Y24805660D01*
X58189561Y24798029D01*
X58186904Y24790528D01*
X58183859Y24783176D01*
X58180433Y24775993D01*
X58176636Y24769000D01*
X58172478Y24762215D01*
X58167971Y24755657D01*
X58163126Y24749343D01*
X58157958Y24743292D01*
X58152480Y24737520D01*
X58146708Y24732042D01*
X58140657Y24726874D01*
X58134343Y24722029D01*
X58127785Y24717522D01*
X58121000Y24713364D01*
X58114007Y24709567D01*
X58106824Y24706141D01*
X58099472Y24703096D01*
X58091971Y24700439D01*
X58084340Y24698179D01*
X58076603Y24696322D01*
X58068778Y24694871D01*
X58060888Y24693833D01*
X58052955Y24693208D01*
X58045000Y24693000D01*
X57547000Y24693000D01*
X57547000Y23917000D01*
X57546797Y23909254D01*
X57546189Y23901530D01*
X57545178Y23893848D01*
X57543766Y23886229D01*
X57541957Y23878695D01*
X57539756Y23871265D01*
X57537170Y23863962D01*
X57534205Y23856803D01*
X57530869Y23849809D01*
X57527172Y23843000D01*
X57523123Y23836393D01*
X57518735Y23830008D01*
X57514018Y23823861D01*
X57508985Y23817969D01*
X57503652Y23812348D01*
X57498031Y23807015D01*
X57492139Y23801982D01*
X57485992Y23797265D01*
X57479607Y23792877D01*
X57473000Y23788828D01*
X57466191Y23785131D01*
X57459197Y23781795D01*
X57452038Y23778830D01*
X57444735Y23776244D01*
X57437305Y23774043D01*
X57429771Y23772234D01*
X57422152Y23770822D01*
X57414470Y23769811D01*
X57406746Y23769203D01*
X57399000Y23769000D01*
X57293000Y23769000D01*
X57285150Y23769206D01*
X57277321Y23769822D01*
X57269535Y23770847D01*
X57261813Y23772278D01*
X57254177Y23774111D01*
X57246647Y23776342D01*
X57239245Y23778963D01*
X57231990Y23781968D01*
X57224901Y23785349D01*
X57218000Y23789096D01*
X57211304Y23793199D01*
X57204832Y23797647D01*
X57198602Y23802428D01*
X57192630Y23807528D01*
X57186934Y23812934D01*
X57181528Y23818630D01*
X57176428Y23824602D01*
X57171647Y23830832D01*
X57167199Y23837304D01*
X57163096Y23844000D01*
X57159349Y23850901D01*
X57155968Y23857990D01*
X57152963Y23865245D01*
X57150342Y23872647D01*
X57148111Y23880177D01*
X57146278Y23887813D01*
X57144847Y23895535D01*
X57143822Y23903321D01*
X57143206Y23911150D01*
X57143000Y23919000D01*
X57143000Y24292000D01*
X57142999Y24292052D01*
X57142995Y24292105D01*
X57142988Y24292156D01*
X57142978Y24292208D01*
X57142966Y24292259D01*
X57142951Y24292309D01*
X57142934Y24292358D01*
X57142914Y24292407D01*
X57142891Y24292454D01*
X57142866Y24292500D01*
X57142839Y24292545D01*
X57142809Y24292588D01*
X57142777Y24292629D01*
X57142743Y24292669D01*
X57142707Y24292707D01*
X57142669Y24292743D01*
X57142629Y24292777D01*
X57142588Y24292809D01*
X57142545Y24292839D01*
X57142500Y24292866D01*
X57142454Y24292891D01*
X57142407Y24292914D01*
X57142358Y24292934D01*
X57142309Y24292951D01*
X57142259Y24292966D01*
X57142208Y24292978D01*
X57142156Y24292988D01*
X57142105Y24292995D01*
X57142052Y24292999D01*
X57142000Y24293000D01*
X56997000Y24293000D01*
X56997000Y23918000D01*
X56996796Y23910202D01*
X56996184Y23902425D01*
X56995166Y23894691D01*
X56993744Y23887021D01*
X56991923Y23879436D01*
X56989707Y23871956D01*
X56987103Y23864603D01*
X56984118Y23857396D01*
X56980760Y23850355D01*
X56977038Y23843500D01*
X56972962Y23836849D01*
X56968544Y23830420D01*
X56963795Y23824231D01*
X56958729Y23818300D01*
X56953359Y23812641D01*
X56947700Y23807271D01*
X56941769Y23802205D01*
X56935580Y23797456D01*
X56929151Y23793038D01*
X56922500Y23788962D01*
X56915645Y23785240D01*
X56908604Y23781882D01*
X56901397Y23778897D01*
X56894044Y23776293D01*
X56886564Y23774077D01*
X56878979Y23772256D01*
X56871309Y23770834D01*
X56863575Y23769816D01*
X56855798Y23769204D01*
X56848000Y23769000D01*
X56743000Y23769000D01*
X56735150Y23769206D01*
X56727321Y23769822D01*
X56719535Y23770847D01*
X56711813Y23772278D01*
X56704177Y23774111D01*
X56696647Y23776342D01*
X56689245Y23778963D01*
X56681990Y23781968D01*
X56674901Y23785349D01*
X56668000Y23789096D01*
X56661304Y23793199D01*
X56654832Y23797647D01*
X56648602Y23802428D01*
X56642630Y23807528D01*
X56636934Y23812934D01*
X56631528Y23818630D01*
X56626428Y23824602D01*
X56621647Y23830832D01*
X56617199Y23837304D01*
X56613096Y23844000D01*
X56609349Y23850901D01*
X56605968Y23857990D01*
X56602963Y23865245D01*
X56600342Y23872647D01*
X56598111Y23880177D01*
X56596278Y23887813D01*
X56594847Y23895535D01*
X56593822Y23903321D01*
X56593206Y23911150D01*
X56593000Y23919000D01*
X56593000Y24693000D01*
X56592999Y24693052D01*
X56592995Y24693105D01*
X56592988Y24693156D01*
X56592978Y24693208D01*
X56592966Y24693259D01*
X56592951Y24693309D01*
X56592934Y24693358D01*
X56592914Y24693407D01*
X56592891Y24693454D01*
X56592866Y24693500D01*
X56592839Y24693545D01*
X56592809Y24693588D01*
X56592777Y24693629D01*
X56592743Y24693669D01*
X56592707Y24693707D01*
X56592669Y24693743D01*
X56592629Y24693777D01*
X56592588Y24693809D01*
X56592545Y24693839D01*
X56592500Y24693866D01*
X56592454Y24693891D01*
X56592407Y24693914D01*
X56592358Y24693934D01*
X56592309Y24693951D01*
X56592259Y24693966D01*
X56592208Y24693978D01*
X56592156Y24693988D01*
X56592105Y24693995D01*
X56592052Y24693999D01*
X56592000Y24694000D01*
X56093000Y24694000D01*
X56085150Y24694206D01*
X56077321Y24694822D01*
X56069535Y24695847D01*
X56061813Y24697278D01*
X56054177Y24699111D01*
X56046647Y24701342D01*
X56039245Y24703963D01*
X56031990Y24706968D01*
X56024901Y24710349D01*
X56018000Y24714096D01*
X56011304Y24718199D01*
X56004832Y24722647D01*
X55998602Y24727428D01*
X55992630Y24732528D01*
X55986934Y24737934D01*
X55981528Y24743630D01*
X55976428Y24749602D01*
X55971647Y24755832D01*
X55967199Y24762304D01*
X55963096Y24769000D01*
X55959349Y24775901D01*
X55955968Y24782990D01*
X55952963Y24790245D01*
X55950342Y24797647D01*
X55948111Y24805177D01*
X55946278Y24812813D01*
X55944847Y24820535D01*
X55943822Y24828321D01*
X55943206Y24836150D01*
X55943000Y24844000D01*
X55943000Y27795000D01*
X55943208Y27802955D01*
X55943833Y27810888D01*
X55944871Y27818778D01*
X55946322Y27826603D01*
X55948179Y27834340D01*
X55950439Y27841971D01*
X55953096Y27849472D01*
X55956141Y27856824D01*
X55959567Y27864007D01*
X55963364Y27871000D01*
X55967522Y27877785D01*
X55972029Y27884343D01*
X55976874Y27890657D01*
X55982042Y27896708D01*
X55987520Y27902480D01*
X55993292Y27907958D01*
X55999343Y27913126D01*
X56005657Y27917971D01*
X56012215Y27922478D01*
X56019000Y27926636D01*
X56025993Y27930433D01*
X56033176Y27933859D01*
X56040528Y27936904D01*
X56048029Y27939561D01*
X56055660Y27941821D01*
X56063397Y27943678D01*
X56071222Y27945129D01*
X56079112Y27946167D01*
X56087045Y27946792D01*
X56095000Y27947000D01*
X56593000Y27947000D01*
X56593000Y28721000D01*
X56593207Y28728903D01*
X56593827Y28736784D01*
X56594859Y28744622D01*
X56596300Y28752395D01*
X56598145Y28760082D01*
X56600390Y28767662D01*
X56603029Y28775114D01*
X56606055Y28782417D01*
X56609458Y28789553D01*
X56613230Y28796500D01*
X56617361Y28803240D01*
X56621838Y28809756D01*
X56626651Y28816027D01*
X56631785Y28822039D01*
X56637227Y28827773D01*
X56642961Y28833215D01*
X56648973Y28838349D01*
X56655244Y28843162D01*
X56661760Y28847639D01*
X56668500Y28851770D01*
X56675447Y28855542D01*
X56682583Y28858945D01*
X56689886Y28861971D01*
X56697338Y28864610D01*
X56704918Y28866855D01*
X56712605Y28868700D01*
X56720378Y28870141D01*
X56728216Y28871173D01*
X56736097Y28871793D01*
X56744000Y28872000D01*
X56847000Y28872000D01*
X56854850Y28871794D01*
G04 #@! TD*
D11*
G04 #@! TO.C,PCI1*
X13050000Y5600000D03*
D12*
X14050000Y5050000D03*
X15050000Y5050000D03*
X16050000Y5050000D03*
X17050000Y5050000D03*
X18050000Y5050000D03*
X19050000Y5050000D03*
X20050000Y5050000D03*
X21050000Y5050000D03*
X22050000Y5050000D03*
X23050000Y5050000D03*
X26050000Y5050000D03*
X27050000Y5050000D03*
X28050000Y5050000D03*
X29050000Y5050000D03*
X30050000Y5050000D03*
X31050000Y5050000D03*
X32050000Y5050000D03*
G04 #@! TD*
D13*
G04 #@! TO.C,C1*
X58255000Y21210000D03*
X56705000Y21210000D03*
G04 #@! TD*
D14*
G04 #@! TO.C,C2*
X57520000Y22320000D03*
X56560000Y22320000D03*
G04 #@! TD*
D15*
G04 #@! TO.C,C3*
X56600000Y30610000D03*
X56600000Y29650000D03*
G04 #@! TD*
D16*
G04 #@! TO.C,C4*
X58680000Y29650000D03*
X58680000Y30610000D03*
G04 #@! TD*
G04 #@! TO.C,C5*
X54140000Y29650000D03*
X54140000Y30610000D03*
G04 #@! TD*
D14*
G04 #@! TO.C,C6*
X57520000Y23240000D03*
X56560000Y23240000D03*
G04 #@! TD*
D17*
G04 #@! TO.C,C39*
X59580000Y25060000D03*
X60540000Y25060000D03*
G04 #@! TD*
D18*
G04 #@! TO.C,C40*
X53895000Y23250000D03*
X55445000Y23250000D03*
G04 #@! TD*
G04 #@! TO.C,C41*
X53905000Y22230000D03*
X55455000Y22230000D03*
G04 #@! TD*
D19*
G04 #@! TO.C,L1*
X61620000Y19070000D03*
X61620000Y23170000D03*
G04 #@! TD*
D20*
G04 #@! TO.C,R1*
X54140000Y27710000D03*
X54140000Y28730000D03*
G04 #@! TD*
G04 #@! TO.C,R2*
X55420000Y29620000D03*
X55420000Y30640000D03*
G04 #@! TD*
D21*
G04 #@! TO.C,R7*
X59550000Y27570000D03*
X60570000Y27570000D03*
G04 #@! TD*
D22*
G04 #@! TO.C,R8*
X54140000Y26940000D03*
X54140000Y25920000D03*
G04 #@! TD*
D20*
G04 #@! TO.C,R34*
X57560000Y29620000D03*
X57560000Y30640000D03*
G04 #@! TD*
D23*
G04 #@! TO.C,U1*
X57820000Y28470000D03*
D24*
X58720000Y28070000D03*
X58720000Y27570000D03*
X58720000Y27070000D03*
X58720000Y26570000D03*
X58720000Y26070000D03*
X58720000Y25570000D03*
X58720000Y25070000D03*
X58720000Y24570000D03*
D23*
X57820000Y24170000D03*
X56320000Y24170000D03*
D24*
X55420000Y24570000D03*
X55420000Y25070000D03*
X55420000Y25570000D03*
X55420000Y26070000D03*
X55420000Y26570000D03*
X55420000Y27070000D03*
X55420000Y27570000D03*
X55420000Y28070000D03*
D23*
X56320000Y28470000D03*
D25*
X56790000Y28275000D03*
D26*
X57070000Y24580000D03*
D27*
X57070000Y26320000D03*
D25*
X57340000Y28275000D03*
X57340000Y24360000D03*
X56790000Y24360000D03*
D26*
X57070000Y28040000D03*
G04 #@! TD*
D28*
G04 #@! TO.C,J1*
X51020000Y13355000D03*
X61320000Y13355000D03*
D29*
X59420000Y16605000D03*
X58920000Y16605000D03*
X58420000Y16605000D03*
X57920000Y16605000D03*
X57420000Y16605000D03*
X56920000Y16605000D03*
X56420000Y16605000D03*
X55920000Y16605000D03*
X55420000Y16605000D03*
X54920000Y16605000D03*
X54420000Y16605000D03*
X53920000Y16605000D03*
X53420000Y16605000D03*
X52920000Y16605000D03*
G04 #@! TD*
D18*
G04 #@! TO.C,C42*
X53905000Y21210000D03*
X55455000Y21210000D03*
G04 #@! TD*
G04 #@! TO.C,C7*
X42095000Y28630000D03*
X43645000Y28630000D03*
G04 #@! TD*
G04 #@! TO.C,C8*
X32085000Y27620000D03*
X33635000Y27620000D03*
G04 #@! TD*
D15*
G04 #@! TO.C,C9*
X51070000Y25960000D03*
X51070000Y25000000D03*
G04 #@! TD*
D16*
G04 #@! TO.C,C10*
X20090000Y28660000D03*
X20090000Y29620000D03*
G04 #@! TD*
D15*
G04 #@! TO.C,C11*
X16340000Y29620000D03*
X16340000Y28660000D03*
G04 #@! TD*
D13*
G04 #@! TO.C,C12*
X15345000Y25720001D03*
X13795000Y25720001D03*
G04 #@! TD*
G04 #@! TO.C,C13*
X15330000Y24690000D03*
X13780000Y24690000D03*
G04 #@! TD*
D18*
G04 #@! TO.C,C14*
X22065000Y28640000D03*
X23615000Y28640000D03*
G04 #@! TD*
G04 #@! TO.C,C15*
X32084999Y28639999D03*
X33634999Y28639999D03*
G04 #@! TD*
D30*
G04 #@! TO.C,C16*
X52230000Y25985000D03*
X52230000Y24435000D03*
G04 #@! TD*
D18*
G04 #@! TO.C,C17*
X42095000Y27610000D03*
X43645000Y27610000D03*
G04 #@! TD*
D17*
G04 #@! TO.C,C18*
X22230000Y26630000D03*
X23190000Y26630000D03*
G04 #@! TD*
G04 #@! TO.C,C19*
X32210000Y26650000D03*
X33170000Y26650000D03*
G04 #@! TD*
D16*
G04 #@! TO.C,C20*
X30119999Y28660000D03*
X30119999Y29620000D03*
G04 #@! TD*
G04 #@! TO.C,C21*
X40100000Y28660000D03*
X40100000Y29620000D03*
G04 #@! TD*
D15*
G04 #@! TO.C,C22*
X26350000Y29620000D03*
X26350000Y28660000D03*
G04 #@! TD*
G04 #@! TO.C,C23*
X36320000Y29620000D03*
X36320000Y28660000D03*
G04 #@! TD*
D13*
G04 #@! TO.C,C24*
X25355000Y24700000D03*
X23805000Y24700000D03*
G04 #@! TD*
G04 #@! TO.C,C25*
X35315000Y25720001D03*
X33765000Y25720001D03*
G04 #@! TD*
G04 #@! TO.C,C26*
X25355000Y25720001D03*
X23805000Y25720001D03*
G04 #@! TD*
G04 #@! TO.C,C27*
X35315000Y24700000D03*
X33765000Y24700000D03*
G04 #@! TD*
D31*
G04 #@! TO.C,C28*
X52230000Y28245000D03*
X52230000Y29795000D03*
G04 #@! TD*
D18*
G04 #@! TO.C,C29*
X22065000Y27620000D03*
X23615000Y27620000D03*
G04 #@! TD*
D17*
G04 #@! TO.C,C30*
X42260000Y26650000D03*
X43220000Y26650000D03*
G04 #@! TD*
D16*
G04 #@! TO.C,C31*
X50100000Y28670000D03*
X50100000Y29630000D03*
G04 #@! TD*
D15*
G04 #@! TO.C,C32*
X46280000Y29620000D03*
X46280000Y28660000D03*
G04 #@! TD*
D13*
G04 #@! TO.C,C33*
X45315000Y24700000D03*
X43765000Y24700000D03*
G04 #@! TD*
G04 #@! TO.C,C34*
X45315000Y25720001D03*
X43765000Y25720001D03*
G04 #@! TD*
D32*
G04 #@! TO.C,L2*
X19920000Y21200000D03*
X15820000Y21200000D03*
G04 #@! TD*
G04 #@! TO.C,L3*
X29860000Y21200000D03*
X25760000Y21200000D03*
G04 #@! TD*
G04 #@! TO.C,L4*
X39820000Y21200000D03*
X35720000Y21200000D03*
G04 #@! TD*
G04 #@! TO.C,L5*
X49830000Y21200000D03*
X45730000Y21200000D03*
G04 #@! TD*
D22*
G04 #@! TO.C,R3*
X18280000Y29650000D03*
X18280000Y28630000D03*
G04 #@! TD*
D20*
G04 #@! TO.C,R4*
X19220000Y28630000D03*
X19220000Y29650000D03*
G04 #@! TD*
G04 #@! TO.C,R5*
X21020000Y26800000D03*
X21020000Y27820000D03*
G04 #@! TD*
D22*
G04 #@! TO.C,R6*
X17360000Y29650000D03*
X17360000Y28630000D03*
G04 #@! TD*
D20*
G04 #@! TO.C,R9*
X15330000Y26770000D03*
X15330000Y27790000D03*
G04 #@! TD*
G04 #@! TO.C,R10*
X15330000Y28630000D03*
X15330000Y29650000D03*
G04 #@! TD*
D22*
G04 #@! TO.C,R11*
X28250000Y29650000D03*
X28250000Y28630000D03*
G04 #@! TD*
D20*
G04 #@! TO.C,R12*
X29239999Y28630000D03*
X29239999Y29650000D03*
G04 #@! TD*
D22*
G04 #@! TO.C,R13*
X38240000Y29650000D03*
X38240000Y28630000D03*
G04 #@! TD*
D20*
G04 #@! TO.C,R14*
X39230000Y28630000D03*
X39230000Y29650000D03*
G04 #@! TD*
G04 #@! TO.C,R15*
X31010000Y26800000D03*
X31010000Y27820000D03*
G04 #@! TD*
G04 #@! TO.C,R16*
X41060000Y26800000D03*
X41060000Y27820000D03*
G04 #@! TD*
D22*
G04 #@! TO.C,R17*
X27350001Y29650000D03*
X27350001Y28630000D03*
G04 #@! TD*
G04 #@! TO.C,R18*
X37320000Y29650000D03*
X37320000Y28630000D03*
G04 #@! TD*
D20*
G04 #@! TO.C,R19*
X25349999Y26770000D03*
X25349999Y27790000D03*
G04 #@! TD*
G04 #@! TO.C,R20*
X25350000Y28630000D03*
X25350000Y29650000D03*
G04 #@! TD*
G04 #@! TO.C,R21*
X35280000Y26770000D03*
X35280000Y27790000D03*
G04 #@! TD*
G04 #@! TO.C,R22*
X35280000Y28630000D03*
X35280000Y29650000D03*
G04 #@! TD*
D22*
G04 #@! TO.C,R23*
X48250000Y29650000D03*
X48250000Y28630000D03*
G04 #@! TD*
D20*
G04 #@! TO.C,R24*
X49220000Y28640000D03*
X49220000Y29660000D03*
G04 #@! TD*
G04 #@! TO.C,R25*
X51080000Y26800000D03*
X51080000Y27820000D03*
G04 #@! TD*
D22*
G04 #@! TO.C,R26*
X47310000Y29650000D03*
X47310000Y28630000D03*
G04 #@! TD*
D20*
G04 #@! TO.C,R27*
X45300000Y26770000D03*
X45300000Y27790000D03*
G04 #@! TD*
G04 #@! TO.C,R28*
X45300000Y28630000D03*
X45300000Y29650000D03*
G04 #@! TD*
D33*
G04 #@! TO.C,U2*
X16885000Y25540000D03*
X16885000Y26040000D03*
X16885000Y26540000D03*
D34*
X17360000Y27390000D03*
X17860000Y27390000D03*
X18360000Y27390000D03*
D33*
X18835000Y26540000D03*
X18430000Y26040000D03*
X18835000Y26040000D03*
X18190000Y26040000D03*
D35*
X17860000Y26040000D03*
D33*
X18835000Y25540000D03*
D36*
X18240000Y24720000D03*
D37*
X17730000Y24730000D03*
D38*
X17990000Y24730000D03*
D34*
X18360000Y24690000D03*
D39*
X17860000Y24940000D03*
D38*
X17490000Y24730000D03*
D34*
X17860000Y24690000D03*
X17360000Y24690000D03*
G04 #@! TD*
D33*
G04 #@! TO.C,U3*
X26805000Y25529999D03*
X26805000Y26029999D03*
X26805000Y26529999D03*
D34*
X27280000Y27379999D03*
X27780000Y27379999D03*
X28280000Y27379999D03*
D33*
X28755000Y26529999D03*
D35*
X27780000Y26029999D03*
D33*
X28110000Y26029999D03*
X28755000Y26029999D03*
X28350000Y26029999D03*
X28755000Y25529999D03*
D38*
X27410000Y24719999D03*
D34*
X28280000Y24679999D03*
D36*
X28160000Y24709999D03*
D37*
X27650000Y24719999D03*
D38*
X27910000Y24719999D03*
D39*
X27780000Y24929999D03*
D34*
X27780000Y24679999D03*
X27280000Y24679999D03*
G04 #@! TD*
D33*
G04 #@! TO.C,U4*
X36795000Y25529999D03*
X36795000Y26029999D03*
X36795000Y26529999D03*
D34*
X37270000Y27379999D03*
X37770000Y27379999D03*
X38270000Y27379999D03*
D33*
X38745000Y26529999D03*
D35*
X37770000Y26029999D03*
D33*
X38340000Y26029999D03*
X38100000Y26029999D03*
X38745000Y26029999D03*
X38745000Y25529999D03*
D38*
X37900000Y24719999D03*
D34*
X38270000Y24679999D03*
D39*
X37770000Y24929999D03*
D36*
X38150000Y24709999D03*
D38*
X37400000Y24719999D03*
D37*
X37640000Y24719999D03*
D34*
X37770000Y24679999D03*
X37270000Y24679999D03*
G04 #@! TD*
D33*
G04 #@! TO.C,U5*
X46895000Y25529999D03*
X46895000Y26029999D03*
X46895000Y26529999D03*
D34*
X47370000Y27379999D03*
X47870000Y27379999D03*
X48370000Y27379999D03*
D33*
X48845000Y26529999D03*
X48845000Y26029999D03*
X48440000Y26029999D03*
D35*
X47870000Y26029999D03*
D33*
X48200000Y26029999D03*
X48845000Y25529999D03*
D39*
X47870000Y24929999D03*
D34*
X48370000Y24679999D03*
D37*
X47740000Y24719999D03*
D36*
X48250000Y24709999D03*
D38*
X48000000Y24719999D03*
X47500000Y24719999D03*
D34*
X47870000Y24679999D03*
X47370000Y24679999D03*
G04 #@! TD*
D40*
G04 #@! TO.C,D1*
X21020000Y29625000D03*
X21020000Y28655000D03*
G04 #@! TD*
G04 #@! TO.C,D2*
X31010000Y29605000D03*
X31010000Y28635000D03*
G04 #@! TD*
G04 #@! TO.C,D3*
X41060000Y29625000D03*
X41060000Y28655000D03*
G04 #@! TD*
G04 #@! TO.C,D4*
X51080000Y29635000D03*
X51080000Y28665000D03*
G04 #@! TD*
D41*
G04 #@! TO.C,J2*
X58640000Y32810000D03*
G04 #@! TD*
D42*
G04 #@! TO.C,J3*
X64920000Y16860000D03*
G04 #@! TD*
D41*
G04 #@! TO.C,J4*
X44933334Y32810000D03*
G04 #@! TD*
D42*
G04 #@! TO.C,J6*
X64920000Y26220000D03*
G04 #@! TD*
G04 #@! TO.C,J7*
X11190000Y16860000D03*
G04 #@! TD*
D41*
G04 #@! TO.C,J8*
X31226668Y32810000D03*
G04 #@! TD*
G04 #@! TO.C,J9*
X44933334Y11090000D03*
G04 #@! TD*
D42*
G04 #@! TO.C,J10*
X11190000Y26530000D03*
G04 #@! TD*
D41*
G04 #@! TO.C,J11*
X17520000Y32810000D03*
G04 #@! TD*
M02*
