G04 #@! TF.GenerationSoftware,KiCad,Pcbnew,(5.1.8)-1*
G04 #@! TF.CreationDate,2021-09-21T14:18:05+08:00*
G04 #@! TF.ProjectId,PowerSupply,506f7765-7253-4757-9070-6c792e6b6963,rev?*
G04 #@! TF.SameCoordinates,PX5e56640PY77750e0*
G04 #@! TF.FileFunction,Copper,L2,Inr*
G04 #@! TF.FilePolarity,Positive*
%FSLAX46Y46*%
G04 Gerber Fmt 4.6, Leading zero omitted, Abs format (unit mm)*
G04 Created by KiCad (PCBNEW (5.1.8)-1) date 2021-09-21 14:18:05*
%MOMM*%
%LPD*%
G01*
G04 APERTURE LIST*
G04 #@! TA.AperFunction,ViaPad*
%ADD10C,0.500000*%
G04 #@! TD*
G04 #@! TA.AperFunction,Conductor*
%ADD11C,0.500000*%
G04 #@! TD*
G04 #@! TA.AperFunction,Conductor*
%ADD12C,0.254000*%
G04 #@! TD*
G04 #@! TA.AperFunction,Conductor*
%ADD13C,0.100000*%
G04 #@! TD*
G04 APERTURE END LIST*
D10*
G04 #@! TO.N,GND*
X57060000Y29060000D03*
X57740000Y27470000D03*
X57065000Y27470000D03*
X56390001Y27480000D03*
X12160000Y33320000D03*
X13160000Y33320000D03*
X14160000Y33320000D03*
X15160000Y33320000D03*
X16160000Y33320000D03*
X17160000Y33320000D03*
X18160000Y33320000D03*
X19160000Y33320000D03*
X20160000Y33320000D03*
X21160000Y33320000D03*
X22160000Y33320000D03*
X23160000Y33320000D03*
X24160000Y33320000D03*
X25160000Y33320000D03*
X26160000Y33320000D03*
X27160000Y33320000D03*
X28160000Y33320000D03*
X29160000Y33320000D03*
X30160000Y33320000D03*
X31160000Y33320000D03*
X32160000Y33320000D03*
X33160000Y33320000D03*
X34160000Y33320000D03*
X35160000Y33320000D03*
X36160000Y33320000D03*
X37160000Y33320000D03*
X38160000Y33320000D03*
X39160000Y33320000D03*
X40160000Y33320000D03*
X41160000Y33320000D03*
X42160000Y33320000D03*
X43160000Y33320000D03*
X44160000Y33320000D03*
X45160000Y33320000D03*
X46160000Y33320000D03*
X47160000Y33320000D03*
X48160000Y33320000D03*
X49160000Y33320000D03*
X50160000Y33320000D03*
X51160000Y33320000D03*
X52160000Y33320000D03*
X53160000Y33320000D03*
X54160000Y33320000D03*
X55160000Y33320000D03*
X56160000Y33320000D03*
X57160000Y33320000D03*
X58160000Y33320000D03*
X59160000Y33320000D03*
X60160000Y33320000D03*
X61160000Y33320000D03*
X12290000Y32130000D03*
X13160000Y32320000D03*
X14160000Y32320000D03*
X15160000Y32320000D03*
X16160000Y32320000D03*
X17160000Y32320000D03*
X18160000Y32320000D03*
X19160000Y32320000D03*
X20160000Y32320000D03*
X21160000Y32320000D03*
X22160000Y32320000D03*
X23160000Y32320000D03*
X24160000Y32320000D03*
X25160000Y32320000D03*
X26160000Y32320000D03*
X27160000Y32320000D03*
X28160000Y32320000D03*
X29160000Y32320000D03*
X30160000Y32320000D03*
X31160000Y32320000D03*
X32160000Y32320000D03*
X33160000Y32320000D03*
X34160000Y32320000D03*
X35160000Y32320000D03*
X36160000Y32320000D03*
X37160000Y32320000D03*
X38160000Y32320000D03*
X39160000Y32320000D03*
X40160000Y32320000D03*
X41160000Y32320000D03*
X42160000Y32320000D03*
X43160000Y32320000D03*
X44160000Y32320000D03*
X45160000Y32320000D03*
X46160000Y32320000D03*
X47160000Y32320000D03*
X48160000Y32320000D03*
X49160000Y32320000D03*
X50160000Y32320000D03*
X51160000Y32320000D03*
X52160000Y32320000D03*
X53160000Y32320000D03*
X54160000Y32320000D03*
X55160000Y32320000D03*
X56160000Y32320000D03*
X57160000Y32320000D03*
X58160000Y32320000D03*
X59160000Y32320000D03*
X60160000Y32320000D03*
X61160000Y32320000D03*
X62160000Y32320000D03*
X62160000Y33320000D03*
X63160000Y32320000D03*
X63160000Y33320000D03*
X63860000Y32050000D03*
X64160000Y33320000D03*
X11300000Y33020000D03*
X10670000Y31600000D03*
X11780000Y31470000D03*
X10690000Y30590000D03*
X11690000Y30590000D03*
X10690000Y28590000D03*
X11690000Y28590000D03*
X10690000Y27590000D03*
X11690000Y27590000D03*
X10690000Y26590000D03*
X11690000Y26590000D03*
X10690000Y25590000D03*
X11690000Y25590000D03*
X10690000Y24590000D03*
X11690000Y24590000D03*
X10690000Y23590000D03*
X11690000Y23590000D03*
X10690000Y22590000D03*
X11690000Y22590000D03*
X10690000Y21590000D03*
X11690000Y21590000D03*
X10690000Y20590000D03*
X11690000Y20590000D03*
X10690000Y19590000D03*
X11690000Y19590000D03*
X10690000Y18590000D03*
X11690000Y18590000D03*
X10690000Y17590000D03*
X11690000Y17590000D03*
X10690000Y16590000D03*
X11690000Y16590000D03*
X10690000Y15590000D03*
X11690000Y15590000D03*
X10690000Y14590000D03*
X11690000Y14590000D03*
X10690000Y13590000D03*
X11690000Y13590000D03*
X10690000Y12590000D03*
X11690000Y12590000D03*
X11690000Y11590000D03*
X41690000Y11590000D03*
X42690000Y11590000D03*
X43690000Y11590000D03*
X44690000Y11590000D03*
X45690000Y11590000D03*
X46690000Y11590000D03*
X47690000Y11590000D03*
X48690000Y11590000D03*
X49690000Y11590000D03*
X50690000Y11590000D03*
X51690000Y11590000D03*
X52690000Y11590000D03*
X53690000Y11590000D03*
X54690000Y11590000D03*
X55690000Y11590000D03*
X56690000Y11590000D03*
X57690000Y11590000D03*
X58690000Y11590000D03*
X59690000Y11590000D03*
X60690000Y11590000D03*
X61690000Y11590000D03*
X62690000Y11590000D03*
X63600000Y11860000D03*
X33690000Y10590000D03*
X34690000Y10590000D03*
X35690000Y10590000D03*
X36690000Y10590000D03*
X37690000Y10590000D03*
X38690000Y10590000D03*
X39690000Y10590000D03*
X40690000Y10590000D03*
X41690000Y10590000D03*
X42690000Y10590000D03*
X43690000Y10590000D03*
X44690000Y10590000D03*
X45690000Y10590000D03*
X46690000Y10590000D03*
X47690000Y10590000D03*
X48690000Y10590000D03*
X49690000Y10590000D03*
X50690000Y10590000D03*
X51690000Y10590000D03*
X52690000Y10590000D03*
X53690000Y10590000D03*
X54690000Y10590000D03*
X55690000Y10590000D03*
X56690000Y10590000D03*
X57690000Y10590000D03*
X58690000Y10590000D03*
X59690000Y10590000D03*
X60690000Y10590000D03*
X61690000Y10590000D03*
X62690000Y10590000D03*
X63690000Y10590000D03*
X64870000Y32980000D03*
X64290000Y31450000D03*
X65380000Y31520000D03*
X64390000Y30490000D03*
X65380000Y30500000D03*
X64390000Y28490000D03*
X65390000Y28490000D03*
X64390000Y27490000D03*
X65390000Y27490000D03*
X64390000Y26490000D03*
X65390000Y26490000D03*
X64390000Y25490000D03*
X65390000Y25490000D03*
X64390000Y24490000D03*
X65390000Y24490000D03*
X64390000Y23490000D03*
X65390000Y23490000D03*
X64390000Y22490000D03*
X65390000Y22490000D03*
X64390000Y21490000D03*
X65390000Y21490000D03*
X64390000Y20490000D03*
X65390000Y20490000D03*
X64390000Y19490000D03*
X65390000Y19490000D03*
X64390000Y18490000D03*
X65390000Y18490000D03*
X64390000Y17490000D03*
X65390000Y17490000D03*
X64390000Y16490000D03*
X65390000Y16490000D03*
X64390000Y15490000D03*
X65390000Y15490000D03*
X64390000Y14490000D03*
X65390000Y14490000D03*
X64390000Y13490000D03*
X65390000Y13490000D03*
X64210000Y12480000D03*
X65390000Y12550000D03*
X65320000Y11760000D03*
X64440000Y10700000D03*
X57075000Y26693334D03*
X57750000Y26693334D03*
X56400000Y26703334D03*
X57065000Y25916668D03*
X56390001Y25926668D03*
X57740000Y25916668D03*
X56390000Y25150000D03*
X57065000Y25140000D03*
X57740000Y25140000D03*
X57019999Y18505001D03*
X57570000Y18505000D03*
X56470000Y18505001D03*
X57029999Y17805001D03*
X56480000Y17805001D03*
X57580000Y17805000D03*
X11690000Y29590000D03*
X10690000Y29590000D03*
X65390000Y29490000D03*
X64390000Y29490000D03*
X57429999Y14305001D03*
X57970000Y15005000D03*
X56870000Y15005001D03*
X56880000Y14305001D03*
X57980000Y14305000D03*
X57419999Y15005001D03*
X57970000Y13605000D03*
X57419999Y13605001D03*
X56880000Y12905001D03*
X57980000Y12905000D03*
X56870000Y13605001D03*
X57429999Y12905001D03*
X58680000Y12905001D03*
X59219999Y13605001D03*
X59770000Y13605000D03*
X59780000Y12905000D03*
X58670000Y13605001D03*
X59229999Y12905001D03*
X59219999Y15005001D03*
X59780000Y14305000D03*
X59229999Y14305001D03*
X58670000Y15005001D03*
X59770000Y15005000D03*
X58680000Y14305001D03*
X21660000Y32820000D03*
X36660000Y32820000D03*
X52660000Y32820000D03*
X53660000Y32820000D03*
X54660000Y32820000D03*
X59660000Y32820000D03*
X43660000Y32820000D03*
X44660000Y32820000D03*
X48660000Y32820000D03*
X19660000Y32820000D03*
X51660000Y32820000D03*
X28660000Y32820000D03*
X56660000Y32820000D03*
X22660000Y32820000D03*
X37660000Y32820000D03*
X27660000Y32820000D03*
X55660000Y32820000D03*
X39660000Y32820000D03*
X46660000Y32820000D03*
X50660000Y32820000D03*
X31660000Y32820000D03*
X20660000Y32820000D03*
X23660000Y32820000D03*
X34660000Y32820000D03*
X32660000Y32820000D03*
X29660000Y32820000D03*
X57660000Y32820000D03*
X61660000Y32820000D03*
X45660000Y32820000D03*
X49660000Y32820000D03*
X41660000Y32820000D03*
X18660000Y32820000D03*
X60660000Y32820000D03*
X30660000Y32820000D03*
X42660000Y32820000D03*
X24660000Y32820000D03*
X58660000Y32820000D03*
X40660000Y32820000D03*
X33660000Y32820000D03*
X25660000Y32820000D03*
X35660000Y32820000D03*
X26660000Y32820000D03*
X38660000Y32820000D03*
X47660000Y32820000D03*
X62660000Y32820000D03*
X63660000Y32820000D03*
X64370000Y32530000D03*
X12590000Y32770000D03*
X13660000Y32820000D03*
X14660000Y32820000D03*
X15660000Y32820000D03*
X16660000Y32820000D03*
X17660000Y32820000D03*
X64770000Y31920000D03*
X64890000Y31060000D03*
X64900000Y29990000D03*
X64890000Y17980000D03*
X64890000Y13980000D03*
X64100000Y11360000D03*
X64890000Y27980000D03*
X64890000Y21980000D03*
X64890000Y25980000D03*
X64890000Y20980000D03*
X64890000Y15980000D03*
X64820000Y12910000D03*
X64890000Y14980000D03*
X64890000Y24980000D03*
X64890000Y23980000D03*
X64890000Y19980000D03*
X64890000Y16980000D03*
X64890000Y22980000D03*
X64890000Y18980000D03*
X64890000Y26980000D03*
X64890000Y28980000D03*
X10850000Y32400000D03*
X11190000Y27110000D03*
X11190000Y20110000D03*
X11190000Y29110000D03*
X11190000Y19110000D03*
X11190000Y31110000D03*
X11190000Y28110000D03*
X11190000Y26110000D03*
X11190000Y24110000D03*
X11190000Y23110000D03*
X11190000Y22110000D03*
X11190000Y21110000D03*
X11190000Y25110000D03*
X11190000Y15110000D03*
X11190000Y13110000D03*
X11190000Y14110000D03*
X11190000Y17110000D03*
X11190000Y18110000D03*
X11190000Y16110000D03*
X11190000Y30110000D03*
X11190000Y12090000D03*
X47210000Y11080000D03*
X54210000Y11080000D03*
X41210000Y11080000D03*
X43210000Y11080000D03*
X62210000Y11080000D03*
X55210000Y11080000D03*
X48210000Y11080000D03*
X61210000Y11080000D03*
X49210000Y11080000D03*
X51210000Y11080000D03*
X58210000Y11080000D03*
X57210000Y11080000D03*
X56210000Y11080000D03*
X50210000Y11080000D03*
X42210000Y11080000D03*
X44210000Y11080000D03*
X45210000Y11080000D03*
X46210000Y11080000D03*
X60210000Y11080000D03*
X53210000Y11080000D03*
X59210000Y11080000D03*
X63210000Y11080000D03*
X52210000Y11080000D03*
X11800000Y32570000D03*
X11360000Y31990000D03*
X65310000Y32360000D03*
X64650000Y11940000D03*
X64980000Y11120000D03*
X57019999Y19895001D03*
X56480000Y19195001D03*
X56470000Y19895001D03*
X57570000Y19895000D03*
X57580000Y19195000D03*
X57029999Y19195001D03*
X55279999Y19895001D03*
X54740000Y19195001D03*
X55840000Y19195000D03*
X55830000Y19895000D03*
X54730000Y19895001D03*
X55289999Y19195001D03*
X53590000Y19195001D03*
X54139999Y19195001D03*
X53580000Y19895001D03*
X54129999Y19895001D03*
X17140000Y23810000D03*
X16520000Y23810000D03*
X17750000Y23810000D03*
X18380000Y23810000D03*
X26480000Y23800000D03*
X27710000Y23800000D03*
X27100000Y23800000D03*
X28340000Y23800000D03*
X36430000Y23810000D03*
X37660000Y23810000D03*
X38290000Y23810000D03*
X37050000Y23810000D03*
X46450000Y23820000D03*
X48310000Y23820000D03*
X47680000Y23820000D03*
X47070000Y23820000D03*
X50620000Y24510000D03*
X51010000Y24130000D03*
X36430000Y24410000D03*
X26480000Y24410000D03*
X46450000Y24380000D03*
X16520000Y24390000D03*
X43650000Y29550000D03*
X43120000Y29550000D03*
X20490000Y30430000D03*
X21090000Y30430000D03*
X19890000Y30430000D03*
X31110000Y30430000D03*
X29910000Y30430000D03*
X30510000Y30430000D03*
X40440000Y30430000D03*
X41040000Y30430000D03*
X39840000Y30430000D03*
X51050000Y30430000D03*
X50450000Y30430000D03*
X49850000Y30430000D03*
X44180000Y29550000D03*
X33630000Y29550000D03*
X33100000Y29550000D03*
X34160000Y29550000D03*
X23610000Y29550000D03*
X23080000Y29550000D03*
X24140000Y29550000D03*
X51440000Y23790000D03*
G04 #@! TO.N,+3V3*
X46290000Y30380000D03*
X45380000Y23780000D03*
G04 #@! TO.N,+5V*
X17360000Y30320000D03*
X18280000Y30320000D03*
X54260000Y25280000D03*
X54750000Y25500000D03*
X53190000Y27390000D03*
X52090000Y27390000D03*
X52640000Y27390000D03*
X53190000Y26880000D03*
X52090000Y26880000D03*
X53190000Y26303334D03*
X28260000Y30360000D03*
X27340000Y30360000D03*
X38250000Y30350000D03*
X37330000Y30350000D03*
X47320000Y30380000D03*
X48240000Y30380000D03*
X20470000Y25720000D03*
X52650000Y26880000D03*
X53190000Y25790000D03*
X53190000Y25280000D03*
X53730000Y25280000D03*
X53620000Y24720000D03*
X54150000Y24720000D03*
X54150000Y24120000D03*
X53640000Y24120000D03*
X21070000Y25720000D03*
X21670000Y25720000D03*
X22270000Y25720000D03*
X20470000Y25120000D03*
X21070000Y25120000D03*
X21670000Y25120000D03*
X22270000Y25120000D03*
X30390000Y25700000D03*
X30390000Y25100000D03*
X30990000Y25700000D03*
X31590000Y25700000D03*
X32190000Y25100000D03*
X32190000Y25700000D03*
X31590000Y25100000D03*
X30990000Y25100000D03*
X40460000Y25100000D03*
X42260000Y25700000D03*
X41060000Y25100000D03*
X41660000Y25700000D03*
X41060000Y25700000D03*
X41660000Y25100000D03*
X42260000Y25100000D03*
X40460000Y25700000D03*
X39870000Y25700000D03*
X29780000Y25700000D03*
X19850000Y25730000D03*
X20190000Y26630000D03*
X30070000Y26610000D03*
X40180000Y26650000D03*
G04 #@! TO.N,+1V2*
X16340000Y30380000D03*
X14160000Y29190000D03*
G04 #@! TO.N,+1V5*
X26350000Y30380000D03*
X25385000Y23775000D03*
G04 #@! TO.N,+2V5*
X36320000Y30380000D03*
X35335000Y23755000D03*
G04 #@! TO.N,Net-(C3-Pad1)*
X56600000Y31300000D03*
X54750000Y27700000D03*
G04 #@! TO.N,Net-(R34-Pad2)*
X54740000Y26940000D03*
X57560000Y31300000D03*
G04 #@! TO.N,REG_EN2*
X26050000Y8690000D03*
X52925000Y15350000D03*
G04 #@! TO.N,REG_EN1*
X27050000Y9630000D03*
X53420000Y17785000D03*
G04 #@! TO.N,REG_CHG*
X28043332Y10610000D03*
X53920000Y15345000D03*
G04 #@! TO.N,REG_POWER*
X29044998Y11945000D03*
X54420000Y17785000D03*
G04 #@! TO.N,BAT_ISET*
X30046664Y11945000D03*
X54920000Y15345000D03*
G04 #@! TO.N,BAT_PG*
X31048330Y11945000D03*
X55420000Y17785000D03*
G04 #@! TO.N,BAT_CHG*
X32060000Y11945000D03*
X55920000Y15345000D03*
G04 #@! TD*
D11*
G04 #@! TO.N,REG_EN1*
X27050000Y12825000D02*
X27050000Y9630000D01*
X29065000Y14840000D02*
X27050000Y12825000D01*
X47420000Y14840000D02*
X29065000Y14840000D01*
X50365000Y17785000D02*
X47420000Y14840000D01*
X53420000Y17785000D02*
X50365000Y17785000D01*
G04 #@! TO.N,REG_POWER*
X30440000Y13890000D02*
X29044998Y12494998D01*
X47910000Y13890000D02*
X30440000Y13890000D01*
X51020000Y17000000D02*
X47910000Y13890000D01*
X54025000Y17000000D02*
X51020000Y17000000D01*
X54420000Y17395000D02*
X54025000Y17000000D01*
X54420000Y17785000D02*
X54420000Y17395000D01*
X29044998Y12494998D02*
X29044998Y11945000D01*
G04 #@! TO.N,BAT_PG*
X54625000Y16150000D02*
X55420000Y16945000D01*
X51580000Y16150000D02*
X54625000Y16150000D01*
X48300000Y12870000D02*
X51580000Y16150000D01*
X55420000Y16945000D02*
X55420000Y17785000D01*
X31770000Y12870000D02*
X48300000Y12870000D01*
X31048330Y12148330D02*
X31770000Y12870000D01*
X31048330Y11945000D02*
X31048330Y12148330D01*
G04 #@! TD*
D12*
G04 #@! TO.N,GND*
X64300374Y33457004D02*
X64589309Y33369770D01*
X64855796Y33228076D01*
X65089685Y33037321D01*
X65282070Y32804767D01*
X65425622Y32539275D01*
X65514871Y32250958D01*
X65548624Y31929813D01*
X65548001Y12022124D01*
X65516379Y11699622D01*
X65429145Y11410690D01*
X65287452Y11144204D01*
X65096697Y10910315D01*
X64864143Y10717930D01*
X64598650Y10574378D01*
X64310334Y10485129D01*
X63989185Y10451376D01*
X32853177Y10451997D01*
X32793507Y10470097D01*
X32700000Y10479307D01*
X32606492Y10470097D01*
X32516577Y10442822D01*
X32433711Y10398529D01*
X32395293Y10367000D01*
X28675458Y10367000D01*
X28694316Y10412526D01*
X28720332Y10543321D01*
X28720332Y10676679D01*
X28694316Y10807474D01*
X28643282Y10930680D01*
X28569192Y11041563D01*
X28474895Y11135860D01*
X28364012Y11209950D01*
X28240806Y11260984D01*
X28110011Y11287000D01*
X27976653Y11287000D01*
X27845858Y11260984D01*
X27727000Y11211751D01*
X27727000Y12544578D01*
X29345422Y14163000D01*
X29755577Y14163000D01*
X28589798Y12997220D01*
X28563971Y12976024D01*
X28479370Y12872938D01*
X28416506Y12755327D01*
X28377794Y12627712D01*
X28367998Y12528249D01*
X28367998Y12528243D01*
X28364724Y12494998D01*
X28367998Y12461753D01*
X28367998Y11878321D01*
X28374519Y11845536D01*
X28377794Y11812285D01*
X28387492Y11780315D01*
X28394014Y11747526D01*
X28406809Y11716636D01*
X28416506Y11684670D01*
X28432254Y11655208D01*
X28445048Y11624320D01*
X28463621Y11596524D01*
X28479370Y11567059D01*
X28500565Y11541233D01*
X28519138Y11513437D01*
X28542780Y11489795D01*
X28563972Y11463973D01*
X28589792Y11442783D01*
X28613435Y11419140D01*
X28641235Y11400565D01*
X28667058Y11379372D01*
X28696518Y11363625D01*
X28724318Y11345050D01*
X28755210Y11332254D01*
X28784669Y11316508D01*
X28816632Y11306812D01*
X28847524Y11294016D01*
X28880316Y11287493D01*
X28912284Y11277796D01*
X28945533Y11274521D01*
X28978319Y11268000D01*
X29011746Y11268000D01*
X29044998Y11264725D01*
X29078250Y11268000D01*
X29111677Y11268000D01*
X29144462Y11274521D01*
X29177713Y11277796D01*
X29209683Y11287494D01*
X29242472Y11294016D01*
X29273362Y11306811D01*
X29305328Y11316508D01*
X29334790Y11332256D01*
X29365678Y11345050D01*
X29393474Y11363623D01*
X29422939Y11379372D01*
X29448767Y11400568D01*
X29476561Y11419140D01*
X29500199Y11442778D01*
X29526025Y11463973D01*
X29545968Y11488273D01*
X29615101Y11419140D01*
X29725984Y11345050D01*
X29849190Y11294016D01*
X29979985Y11268000D01*
X30113343Y11268000D01*
X30244138Y11294016D01*
X30367344Y11345050D01*
X30478227Y11419140D01*
X30547361Y11488274D01*
X30567303Y11463974D01*
X30593125Y11442782D01*
X30616767Y11419140D01*
X30644563Y11400567D01*
X30670389Y11379372D01*
X30699854Y11363623D01*
X30727650Y11345050D01*
X30758538Y11332256D01*
X30788000Y11316508D01*
X30819966Y11306811D01*
X30850856Y11294016D01*
X30883645Y11287494D01*
X30915615Y11277796D01*
X30948866Y11274521D01*
X30981651Y11268000D01*
X31015078Y11268000D01*
X31048330Y11264725D01*
X31081582Y11268000D01*
X31115009Y11268000D01*
X31147795Y11274521D01*
X31181044Y11277796D01*
X31213012Y11287493D01*
X31245804Y11294016D01*
X31276696Y11306812D01*
X31308659Y11316508D01*
X31338118Y11332254D01*
X31369010Y11345050D01*
X31396810Y11363625D01*
X31426270Y11379372D01*
X31452093Y11400565D01*
X31479893Y11419140D01*
X31503536Y11442783D01*
X31529356Y11463973D01*
X31550548Y11489795D01*
X31554165Y11493412D01*
X31628437Y11419140D01*
X31739320Y11345050D01*
X31862526Y11294016D01*
X31993321Y11268000D01*
X32126679Y11268000D01*
X32257474Y11294016D01*
X32380680Y11345050D01*
X32491563Y11419140D01*
X32585860Y11513437D01*
X32659950Y11624320D01*
X32710984Y11747526D01*
X32737000Y11878321D01*
X32737000Y12011679D01*
X32710984Y12142474D01*
X32690055Y12193000D01*
X48266755Y12193000D01*
X48300000Y12189726D01*
X48333245Y12193000D01*
X48333252Y12193000D01*
X48432715Y12202796D01*
X48560330Y12241508D01*
X48677941Y12304372D01*
X48781027Y12388973D01*
X48802226Y12414804D01*
X51860422Y15473000D01*
X52259203Y15473000D01*
X52248000Y15416679D01*
X52248000Y15283321D01*
X52274016Y15152526D01*
X52325050Y15029320D01*
X52399140Y14918437D01*
X52493437Y14824140D01*
X52604320Y14750050D01*
X52727526Y14699016D01*
X52858321Y14673000D01*
X52991679Y14673000D01*
X53122474Y14699016D01*
X53245680Y14750050D01*
X53356563Y14824140D01*
X53420000Y14887577D01*
X53488437Y14819140D01*
X53599320Y14745050D01*
X53722526Y14694016D01*
X53853321Y14668000D01*
X53986679Y14668000D01*
X54117474Y14694016D01*
X54240680Y14745050D01*
X54351563Y14819140D01*
X54420000Y14887577D01*
X54488437Y14819140D01*
X54599320Y14745050D01*
X54722526Y14694016D01*
X54853321Y14668000D01*
X54986679Y14668000D01*
X55117474Y14694016D01*
X55240680Y14745050D01*
X55351563Y14819140D01*
X55420000Y14887577D01*
X55488437Y14819140D01*
X55599320Y14745050D01*
X55722526Y14694016D01*
X55853321Y14668000D01*
X55986679Y14668000D01*
X56117474Y14694016D01*
X56240680Y14745050D01*
X56351563Y14819140D01*
X56445860Y14913437D01*
X56519950Y15024320D01*
X56570984Y15147526D01*
X56597000Y15278321D01*
X56597000Y15411679D01*
X56570984Y15542474D01*
X56519950Y15665680D01*
X56445860Y15776563D01*
X56351563Y15870860D01*
X56240680Y15944950D01*
X56117474Y15995984D01*
X55986679Y16022000D01*
X55853321Y16022000D01*
X55722526Y15995984D01*
X55599320Y15944950D01*
X55488437Y15870860D01*
X55420000Y15802423D01*
X55351563Y15870860D01*
X55322621Y15890199D01*
X55875205Y16442782D01*
X55901026Y16463973D01*
X55922218Y16489795D01*
X55922224Y16489801D01*
X55985628Y16567059D01*
X56048492Y16684670D01*
X56087204Y16812285D01*
X56100275Y16945000D01*
X56097000Y16978252D01*
X56097000Y17851679D01*
X56090479Y17884464D01*
X56087204Y17917715D01*
X56077506Y17949685D01*
X56070984Y17982474D01*
X56058189Y18013364D01*
X56048492Y18045330D01*
X56032744Y18074792D01*
X56019950Y18105680D01*
X56001377Y18133476D01*
X55985628Y18162941D01*
X55964432Y18188769D01*
X55945860Y18216563D01*
X55922222Y18240201D01*
X55901027Y18266027D01*
X55875199Y18287224D01*
X55851563Y18310860D01*
X55823769Y18329432D01*
X55797941Y18350628D01*
X55768476Y18366377D01*
X55740680Y18384950D01*
X55709792Y18397744D01*
X55680330Y18413492D01*
X55648364Y18423189D01*
X55617474Y18435984D01*
X55584685Y18442506D01*
X55552715Y18452204D01*
X55519464Y18455479D01*
X55486679Y18462000D01*
X55453252Y18462000D01*
X55420000Y18465275D01*
X55386748Y18462000D01*
X55353321Y18462000D01*
X55320535Y18455479D01*
X55287286Y18452204D01*
X55255318Y18442507D01*
X55222526Y18435984D01*
X55191634Y18423188D01*
X55159671Y18413492D01*
X55130212Y18397746D01*
X55099320Y18384950D01*
X55071520Y18366375D01*
X55042060Y18350628D01*
X55016237Y18329435D01*
X54988437Y18310860D01*
X54964794Y18287217D01*
X54938974Y18266027D01*
X54920000Y18242907D01*
X54901026Y18266027D01*
X54875206Y18287217D01*
X54851563Y18310860D01*
X54823763Y18329435D01*
X54797940Y18350628D01*
X54768480Y18366375D01*
X54740680Y18384950D01*
X54709788Y18397746D01*
X54680329Y18413492D01*
X54648366Y18423188D01*
X54617474Y18435984D01*
X54584682Y18442507D01*
X54552714Y18452204D01*
X54519465Y18455479D01*
X54486679Y18462000D01*
X54453252Y18462000D01*
X54420000Y18465275D01*
X54386748Y18462000D01*
X54353321Y18462000D01*
X54320536Y18455479D01*
X54287285Y18452204D01*
X54255315Y18442506D01*
X54222526Y18435984D01*
X54191636Y18423189D01*
X54159670Y18413492D01*
X54130208Y18397744D01*
X54099320Y18384950D01*
X54071524Y18366377D01*
X54042059Y18350628D01*
X54016233Y18329433D01*
X53988437Y18310860D01*
X53964795Y18287218D01*
X53938973Y18266026D01*
X53920000Y18242908D01*
X53901027Y18266027D01*
X53875199Y18287224D01*
X53851563Y18310860D01*
X53823769Y18329432D01*
X53797941Y18350628D01*
X53768476Y18366377D01*
X53740680Y18384950D01*
X53709792Y18397744D01*
X53680330Y18413492D01*
X53648364Y18423189D01*
X53617474Y18435984D01*
X53584685Y18442506D01*
X53552715Y18452204D01*
X53519464Y18455479D01*
X53486679Y18462000D01*
X50398245Y18462000D01*
X50365000Y18465274D01*
X50331755Y18462000D01*
X50331748Y18462000D01*
X50232285Y18452204D01*
X50104670Y18413492D01*
X49987059Y18350628D01*
X49883973Y18266027D01*
X49862778Y18240201D01*
X47139578Y15517000D01*
X29098241Y15517000D01*
X29064999Y15520274D01*
X29031757Y15517000D01*
X29031748Y15517000D01*
X28932285Y15507204D01*
X28804670Y15468492D01*
X28687059Y15405628D01*
X28583973Y15321027D01*
X28562776Y15295198D01*
X26594800Y13327222D01*
X26568973Y13306026D01*
X26547778Y13280200D01*
X26547776Y13280198D01*
X26521303Y13247940D01*
X26484372Y13202940D01*
X26421508Y13085329D01*
X26382796Y12957714D01*
X26373000Y12858251D01*
X26373000Y12858245D01*
X26369726Y12825000D01*
X26373000Y12791755D01*
X26373001Y10367000D01*
X25093564Y10367000D01*
X25086767Y10369746D01*
X25046928Y10386494D01*
X25040560Y10388416D01*
X25040554Y10388418D01*
X25040548Y10388419D01*
X24862688Y10440766D01*
X24820198Y10448871D01*
X24777872Y10457560D01*
X24771244Y10458210D01*
X24586600Y10475014D01*
X24543368Y10474712D01*
X24500135Y10475014D01*
X24493507Y10474364D01*
X24309114Y10454983D01*
X24266754Y10446288D01*
X24224301Y10438190D01*
X24217933Y10436267D01*
X24217921Y10436264D01*
X24217910Y10436259D01*
X24040809Y10381438D01*
X24006462Y10367000D01*
X12809477Y10367000D01*
X12809087Y10369045D01*
X12807263Y10375086D01*
X12737970Y10598937D01*
X12722094Y10636705D01*
X12706748Y10674688D01*
X12703785Y10680260D01*
X12592332Y10886387D01*
X12569409Y10920372D01*
X12546992Y10954629D01*
X12543004Y10959519D01*
X12543003Y10959521D01*
X12542998Y10959526D01*
X12393635Y11140073D01*
X12364569Y11168938D01*
X12335904Y11198209D01*
X12331047Y11202227D01*
X12331041Y11202233D01*
X12331034Y11202237D01*
X12149449Y11350335D01*
X12115342Y11372996D01*
X12081525Y11396150D01*
X12075974Y11399152D01*
X11869074Y11509163D01*
X11831164Y11524789D01*
X11793544Y11540913D01*
X11787525Y11542776D01*
X11787515Y11542780D01*
X11787505Y11542782D01*
X11563189Y11610508D01*
X11522994Y11618467D01*
X11482928Y11626983D01*
X11476657Y11627642D01*
X11476654Y11627643D01*
X11476651Y11627643D01*
X11243440Y11650509D01*
X11054337Y11669050D01*
X10914867Y11711159D01*
X10786228Y11779558D01*
X10673326Y11871639D01*
X10580460Y11983893D01*
X10511164Y12112054D01*
X10468082Y12251228D01*
X10450668Y12416912D01*
X10451080Y23841679D01*
X24708000Y23841679D01*
X24708000Y23708321D01*
X24734016Y23577526D01*
X24785050Y23454320D01*
X24859140Y23343437D01*
X24953437Y23249140D01*
X25064320Y23175050D01*
X25187526Y23124016D01*
X25318321Y23098000D01*
X25451679Y23098000D01*
X25582474Y23124016D01*
X25705680Y23175050D01*
X25816563Y23249140D01*
X25910860Y23343437D01*
X25984950Y23454320D01*
X26035984Y23577526D01*
X26062000Y23708321D01*
X26062000Y23821679D01*
X34658000Y23821679D01*
X34658000Y23688321D01*
X34684016Y23557526D01*
X34735050Y23434320D01*
X34809140Y23323437D01*
X34903437Y23229140D01*
X35014320Y23155050D01*
X35137526Y23104016D01*
X35268321Y23078000D01*
X35401679Y23078000D01*
X35532474Y23104016D01*
X35655680Y23155050D01*
X35766563Y23229140D01*
X35860860Y23323437D01*
X35934950Y23434320D01*
X35985984Y23557526D01*
X36012000Y23688321D01*
X36012000Y23821679D01*
X36007028Y23846679D01*
X44703000Y23846679D01*
X44703000Y23713321D01*
X44729016Y23582526D01*
X44780050Y23459320D01*
X44854140Y23348437D01*
X44948437Y23254140D01*
X45059320Y23180050D01*
X45182526Y23129016D01*
X45313321Y23103000D01*
X45446679Y23103000D01*
X45577474Y23129016D01*
X45700680Y23180050D01*
X45811563Y23254140D01*
X45905860Y23348437D01*
X45979950Y23459320D01*
X46030984Y23582526D01*
X46057000Y23713321D01*
X46057000Y23846679D01*
X46030984Y23977474D01*
X45979950Y24100680D01*
X45905860Y24211563D01*
X45811563Y24305860D01*
X45700680Y24379950D01*
X45577474Y24430984D01*
X45446679Y24457000D01*
X45313321Y24457000D01*
X45182526Y24430984D01*
X45059320Y24379950D01*
X44948437Y24305860D01*
X44854140Y24211563D01*
X44780050Y24100680D01*
X44729016Y23977474D01*
X44703000Y23846679D01*
X36007028Y23846679D01*
X35985984Y23952474D01*
X35934950Y24075680D01*
X35860860Y24186563D01*
X35766563Y24280860D01*
X35655680Y24354950D01*
X35532474Y24405984D01*
X35401679Y24432000D01*
X35268321Y24432000D01*
X35137526Y24405984D01*
X35014320Y24354950D01*
X34903437Y24280860D01*
X34809140Y24186563D01*
X34735050Y24075680D01*
X34684016Y23952474D01*
X34658000Y23821679D01*
X26062000Y23821679D01*
X26062000Y23841679D01*
X26035984Y23972474D01*
X25984950Y24095680D01*
X25910860Y24206563D01*
X25816563Y24300860D01*
X25705680Y24374950D01*
X25582474Y24425984D01*
X25451679Y24452000D01*
X25318321Y24452000D01*
X25187526Y24425984D01*
X25064320Y24374950D01*
X24953437Y24300860D01*
X24859140Y24206563D01*
X24785050Y24095680D01*
X24734016Y23972474D01*
X24708000Y23841679D01*
X10451080Y23841679D01*
X10451151Y25796679D01*
X19173000Y25796679D01*
X19173000Y25663321D01*
X19199016Y25532526D01*
X19250050Y25409320D01*
X19324140Y25298437D01*
X19418437Y25204140D01*
X19529320Y25130050D01*
X19652526Y25079016D01*
X19783321Y25053000D01*
X19793064Y25053000D01*
X19819016Y24922526D01*
X19870050Y24799320D01*
X19944140Y24688437D01*
X20038437Y24594140D01*
X20149320Y24520050D01*
X20272526Y24469016D01*
X20403321Y24443000D01*
X20536679Y24443000D01*
X20667474Y24469016D01*
X20770000Y24511484D01*
X20872526Y24469016D01*
X21003321Y24443000D01*
X21136679Y24443000D01*
X21267474Y24469016D01*
X21370000Y24511484D01*
X21472526Y24469016D01*
X21603321Y24443000D01*
X21736679Y24443000D01*
X21867474Y24469016D01*
X21970000Y24511484D01*
X22072526Y24469016D01*
X22203321Y24443000D01*
X22336679Y24443000D01*
X22467474Y24469016D01*
X22590680Y24520050D01*
X22701563Y24594140D01*
X22795860Y24688437D01*
X22869950Y24799320D01*
X22920984Y24922526D01*
X22947000Y25053321D01*
X22947000Y25186679D01*
X22920984Y25317474D01*
X22878516Y25420000D01*
X22920984Y25522526D01*
X22947000Y25653321D01*
X22947000Y25766679D01*
X29103000Y25766679D01*
X29103000Y25633321D01*
X29129016Y25502526D01*
X29180050Y25379320D01*
X29254140Y25268437D01*
X29348437Y25174140D01*
X29459320Y25100050D01*
X29582526Y25049016D01*
X29713321Y25023000D01*
X29715053Y25023000D01*
X29739016Y24902526D01*
X29790050Y24779320D01*
X29864140Y24668437D01*
X29958437Y24574140D01*
X30069320Y24500050D01*
X30192526Y24449016D01*
X30323321Y24423000D01*
X30456679Y24423000D01*
X30587474Y24449016D01*
X30690000Y24491484D01*
X30792526Y24449016D01*
X30923321Y24423000D01*
X31056679Y24423000D01*
X31187474Y24449016D01*
X31290000Y24491484D01*
X31392526Y24449016D01*
X31523321Y24423000D01*
X31656679Y24423000D01*
X31787474Y24449016D01*
X31890000Y24491484D01*
X31992526Y24449016D01*
X32123321Y24423000D01*
X32256679Y24423000D01*
X32387474Y24449016D01*
X32510680Y24500050D01*
X32621563Y24574140D01*
X32715860Y24668437D01*
X32789950Y24779320D01*
X32840984Y24902526D01*
X32867000Y25033321D01*
X32867000Y25166679D01*
X32840984Y25297474D01*
X32798516Y25400000D01*
X32840984Y25502526D01*
X32867000Y25633321D01*
X32867000Y25766679D01*
X39193000Y25766679D01*
X39193000Y25633321D01*
X39219016Y25502526D01*
X39270050Y25379320D01*
X39344140Y25268437D01*
X39438437Y25174140D01*
X39549320Y25100050D01*
X39672526Y25049016D01*
X39784300Y25026783D01*
X39809016Y24902526D01*
X39860050Y24779320D01*
X39934140Y24668437D01*
X40028437Y24574140D01*
X40139320Y24500050D01*
X40262526Y24449016D01*
X40393321Y24423000D01*
X40526679Y24423000D01*
X40657474Y24449016D01*
X40760000Y24491484D01*
X40862526Y24449016D01*
X40993321Y24423000D01*
X41126679Y24423000D01*
X41257474Y24449016D01*
X41360000Y24491484D01*
X41462526Y24449016D01*
X41593321Y24423000D01*
X41726679Y24423000D01*
X41857474Y24449016D01*
X41960000Y24491484D01*
X42062526Y24449016D01*
X42193321Y24423000D01*
X42326679Y24423000D01*
X42457474Y24449016D01*
X42580680Y24500050D01*
X42691563Y24574140D01*
X42785860Y24668437D01*
X42859950Y24779320D01*
X42910984Y24902526D01*
X42937000Y25033321D01*
X42937000Y25166679D01*
X42910984Y25297474D01*
X42868516Y25400000D01*
X42910984Y25502526D01*
X42937000Y25633321D01*
X42937000Y25766679D01*
X42910984Y25897474D01*
X42859950Y26020680D01*
X42785860Y26131563D01*
X42691563Y26225860D01*
X42580680Y26299950D01*
X42457474Y26350984D01*
X42326679Y26377000D01*
X42193321Y26377000D01*
X42062526Y26350984D01*
X41960000Y26308516D01*
X41857474Y26350984D01*
X41726679Y26377000D01*
X41593321Y26377000D01*
X41462526Y26350984D01*
X41360000Y26308516D01*
X41257474Y26350984D01*
X41126679Y26377000D01*
X40993321Y26377000D01*
X40862526Y26350984D01*
X40768364Y26311981D01*
X40779950Y26329320D01*
X40830984Y26452526D01*
X40857000Y26583321D01*
X40857000Y26716679D01*
X40830984Y26847474D01*
X40779950Y26970680D01*
X40705860Y27081563D01*
X40611563Y27175860D01*
X40500680Y27249950D01*
X40377474Y27300984D01*
X40246679Y27327000D01*
X40113321Y27327000D01*
X39982526Y27300984D01*
X39859320Y27249950D01*
X39748437Y27175860D01*
X39654140Y27081563D01*
X39580050Y26970680D01*
X39529016Y26847474D01*
X39503000Y26716679D01*
X39503000Y26583321D01*
X39529016Y26452526D01*
X39580050Y26329320D01*
X39588759Y26316286D01*
X39549320Y26299950D01*
X39438437Y26225860D01*
X39344140Y26131563D01*
X39270050Y26020680D01*
X39219016Y25897474D01*
X39193000Y25766679D01*
X32867000Y25766679D01*
X32840984Y25897474D01*
X32789950Y26020680D01*
X32715860Y26131563D01*
X32621563Y26225860D01*
X32510680Y26299950D01*
X32387474Y26350984D01*
X32256679Y26377000D01*
X32123321Y26377000D01*
X31992526Y26350984D01*
X31890000Y26308516D01*
X31787474Y26350984D01*
X31656679Y26377000D01*
X31523321Y26377000D01*
X31392526Y26350984D01*
X31290000Y26308516D01*
X31187474Y26350984D01*
X31056679Y26377000D01*
X30923321Y26377000D01*
X30792526Y26350984D01*
X30690000Y26308516D01*
X30679673Y26312794D01*
X30720984Y26412526D01*
X30747000Y26543321D01*
X30747000Y26676679D01*
X30720984Y26807474D01*
X30669950Y26930680D01*
X30595860Y27041563D01*
X30501563Y27135860D01*
X30390680Y27209950D01*
X30267474Y27260984D01*
X30136679Y27287000D01*
X30003321Y27287000D01*
X29872526Y27260984D01*
X29749320Y27209950D01*
X29638437Y27135860D01*
X29544140Y27041563D01*
X29470050Y26930680D01*
X29419016Y26807474D01*
X29393000Y26676679D01*
X29393000Y26543321D01*
X29419016Y26412526D01*
X29464720Y26302187D01*
X29459320Y26299950D01*
X29348437Y26225860D01*
X29254140Y26131563D01*
X29180050Y26020680D01*
X29129016Y25897474D01*
X29103000Y25766679D01*
X22947000Y25766679D01*
X22947000Y25786679D01*
X22920984Y25917474D01*
X22869950Y26040680D01*
X22795860Y26151563D01*
X22701563Y26245860D01*
X22590680Y26319950D01*
X22467474Y26370984D01*
X22336679Y26397000D01*
X22203321Y26397000D01*
X22072526Y26370984D01*
X21970000Y26328516D01*
X21867474Y26370984D01*
X21736679Y26397000D01*
X21603321Y26397000D01*
X21472526Y26370984D01*
X21370000Y26328516D01*
X21267474Y26370984D01*
X21136679Y26397000D01*
X21003321Y26397000D01*
X20872526Y26370984D01*
X20803680Y26342467D01*
X20840984Y26432526D01*
X20867000Y26563321D01*
X20867000Y26696679D01*
X20840984Y26827474D01*
X20789950Y26950680D01*
X20715860Y27061563D01*
X20621563Y27155860D01*
X20510680Y27229950D01*
X20387474Y27280984D01*
X20256679Y27307000D01*
X20123321Y27307000D01*
X19992526Y27280984D01*
X19869320Y27229950D01*
X19758437Y27155860D01*
X19664140Y27061563D01*
X19590050Y26950680D01*
X19539016Y26827474D01*
X19513000Y26696679D01*
X19513000Y26563321D01*
X19539016Y26432526D01*
X19573862Y26348400D01*
X19529320Y26329950D01*
X19418437Y26255860D01*
X19324140Y26161563D01*
X19250050Y26050680D01*
X19199016Y25927474D01*
X19173000Y25796679D01*
X10451151Y25796679D01*
X10451211Y27456679D01*
X51413000Y27456679D01*
X51413000Y27323321D01*
X51439016Y27192526D01*
X51462844Y27135000D01*
X51439016Y27077474D01*
X51413000Y26946679D01*
X51413000Y26813321D01*
X51439016Y26682526D01*
X51490050Y26559320D01*
X51564140Y26448437D01*
X51658437Y26354140D01*
X51769320Y26280050D01*
X51892526Y26229016D01*
X52023321Y26203000D01*
X52156679Y26203000D01*
X52287474Y26229016D01*
X52370000Y26263200D01*
X52452526Y26229016D01*
X52517073Y26216177D01*
X52539016Y26105860D01*
X52563535Y26046667D01*
X52539016Y25987474D01*
X52513000Y25856679D01*
X52513000Y25723321D01*
X52539016Y25592526D01*
X52562844Y25535000D01*
X52539016Y25477474D01*
X52513000Y25346679D01*
X52513000Y25213321D01*
X52539016Y25082526D01*
X52590050Y24959320D01*
X52664140Y24848437D01*
X52758437Y24754140D01*
X52869320Y24680050D01*
X52943822Y24649190D01*
X52969016Y24522526D01*
X53020050Y24399320D01*
X53021820Y24396670D01*
X52989016Y24317474D01*
X52963000Y24186679D01*
X52963000Y24053321D01*
X52989016Y23922526D01*
X53040050Y23799320D01*
X53114140Y23688437D01*
X53208437Y23594140D01*
X53319320Y23520050D01*
X53442526Y23469016D01*
X53573321Y23443000D01*
X53706679Y23443000D01*
X53837474Y23469016D01*
X53895000Y23492844D01*
X53952526Y23469016D01*
X54083321Y23443000D01*
X54216679Y23443000D01*
X54347474Y23469016D01*
X54470680Y23520050D01*
X54581563Y23594140D01*
X54675860Y23688437D01*
X54749950Y23799320D01*
X54800984Y23922526D01*
X54827000Y24053321D01*
X54827000Y24186679D01*
X54800984Y24317474D01*
X54758516Y24420000D01*
X54800984Y24522526D01*
X54827000Y24653321D01*
X54827000Y24786679D01*
X54819658Y24823592D01*
X54947474Y24849016D01*
X55070680Y24900050D01*
X55181563Y24974140D01*
X55275860Y25068437D01*
X55349950Y25179320D01*
X55400984Y25302526D01*
X55427000Y25433321D01*
X55427000Y25566679D01*
X55400984Y25697474D01*
X55349950Y25820680D01*
X55275860Y25931563D01*
X55181563Y26025860D01*
X55070680Y26099950D01*
X54947474Y26150984D01*
X54816679Y26177000D01*
X54683321Y26177000D01*
X54552526Y26150984D01*
X54429320Y26099950D01*
X54318437Y26025860D01*
X54249577Y25957000D01*
X54193321Y25957000D01*
X54062526Y25930984D01*
X53995000Y25903014D01*
X53927474Y25930984D01*
X53849120Y25946569D01*
X53840984Y25987474D01*
X53816465Y26046667D01*
X53840984Y26105860D01*
X53867000Y26236655D01*
X53867000Y26370013D01*
X53840984Y26500808D01*
X53803349Y26591667D01*
X53840984Y26682526D01*
X53867000Y26813321D01*
X53867000Y26946679D01*
X53855066Y27006679D01*
X54063000Y27006679D01*
X54063000Y26873321D01*
X54089016Y26742526D01*
X54140050Y26619320D01*
X54214140Y26508437D01*
X54308437Y26414140D01*
X54419320Y26340050D01*
X54542526Y26289016D01*
X54673321Y26263000D01*
X54806679Y26263000D01*
X54937474Y26289016D01*
X55060680Y26340050D01*
X55171563Y26414140D01*
X55265860Y26508437D01*
X55339950Y26619320D01*
X55390984Y26742526D01*
X55417000Y26873321D01*
X55417000Y27006679D01*
X55390984Y27137474D01*
X55339950Y27260680D01*
X55305313Y27312517D01*
X55349950Y27379320D01*
X55400984Y27502526D01*
X55427000Y27633321D01*
X55427000Y27766679D01*
X55400984Y27897474D01*
X55349950Y28020680D01*
X55275860Y28131563D01*
X55181563Y28225860D01*
X55070680Y28299950D01*
X54947474Y28350984D01*
X54816679Y28377000D01*
X54683321Y28377000D01*
X54552526Y28350984D01*
X54429320Y28299950D01*
X54318437Y28225860D01*
X54224140Y28131563D01*
X54150050Y28020680D01*
X54099016Y27897474D01*
X54073000Y27766679D01*
X54073000Y27633321D01*
X54099016Y27502526D01*
X54150050Y27379320D01*
X54184687Y27327483D01*
X54140050Y27260680D01*
X54089016Y27137474D01*
X54063000Y27006679D01*
X53855066Y27006679D01*
X53840984Y27077474D01*
X53817156Y27135000D01*
X53840984Y27192526D01*
X53867000Y27323321D01*
X53867000Y27456679D01*
X53840984Y27587474D01*
X53789950Y27710680D01*
X53715860Y27821563D01*
X53621563Y27915860D01*
X53510680Y27989950D01*
X53387474Y28040984D01*
X53256679Y28067000D01*
X53123321Y28067000D01*
X52992526Y28040984D01*
X52915000Y28008871D01*
X52837474Y28040984D01*
X52706679Y28067000D01*
X52573321Y28067000D01*
X52442526Y28040984D01*
X52365000Y28008871D01*
X52287474Y28040984D01*
X52156679Y28067000D01*
X52023321Y28067000D01*
X51892526Y28040984D01*
X51769320Y27989950D01*
X51658437Y27915860D01*
X51564140Y27821563D01*
X51490050Y27710680D01*
X51439016Y27587474D01*
X51413000Y27456679D01*
X10451211Y27456679D01*
X10451277Y29256679D01*
X13483000Y29256679D01*
X13483000Y29123321D01*
X13509016Y28992526D01*
X13560050Y28869320D01*
X13634140Y28758437D01*
X13728437Y28664140D01*
X13839320Y28590050D01*
X13962526Y28539016D01*
X14093321Y28513000D01*
X14226679Y28513000D01*
X14357474Y28539016D01*
X14480680Y28590050D01*
X14591563Y28664140D01*
X14685860Y28758437D01*
X14759950Y28869320D01*
X14810984Y28992526D01*
X14837000Y29123321D01*
X14837000Y29256679D01*
X14810984Y29387474D01*
X14759950Y29510680D01*
X14685860Y29621563D01*
X14591563Y29715860D01*
X14480680Y29789950D01*
X14357474Y29840984D01*
X14226679Y29867000D01*
X14093321Y29867000D01*
X13962526Y29840984D01*
X13839320Y29789950D01*
X13728437Y29715860D01*
X13634140Y29621563D01*
X13560050Y29510680D01*
X13509016Y29387474D01*
X13483000Y29256679D01*
X10451277Y29256679D01*
X10451320Y30446679D01*
X15663000Y30446679D01*
X15663000Y30313321D01*
X15689016Y30182526D01*
X15740050Y30059320D01*
X15814140Y29948437D01*
X15908437Y29854140D01*
X16019320Y29780050D01*
X16142526Y29729016D01*
X16273321Y29703000D01*
X16406679Y29703000D01*
X16537474Y29729016D01*
X16660680Y29780050D01*
X16771563Y29854140D01*
X16822813Y29905390D01*
X16834140Y29888437D01*
X16928437Y29794140D01*
X17039320Y29720050D01*
X17162526Y29669016D01*
X17293321Y29643000D01*
X17426679Y29643000D01*
X17557474Y29669016D01*
X17680680Y29720050D01*
X17791563Y29794140D01*
X17820000Y29822577D01*
X17848437Y29794140D01*
X17959320Y29720050D01*
X18082526Y29669016D01*
X18213321Y29643000D01*
X18346679Y29643000D01*
X18477474Y29669016D01*
X18600680Y29720050D01*
X18711563Y29794140D01*
X18805860Y29888437D01*
X18879950Y29999320D01*
X18930984Y30122526D01*
X18957000Y30253321D01*
X18957000Y30386679D01*
X18945066Y30446679D01*
X25673000Y30446679D01*
X25673000Y30313321D01*
X25699016Y30182526D01*
X25750050Y30059320D01*
X25824140Y29948437D01*
X25918437Y29854140D01*
X26029320Y29780050D01*
X26152526Y29729016D01*
X26283321Y29703000D01*
X26416679Y29703000D01*
X26547474Y29729016D01*
X26670680Y29780050D01*
X26781563Y29854140D01*
X26835000Y29907577D01*
X26908437Y29834140D01*
X27019320Y29760050D01*
X27142526Y29709016D01*
X27273321Y29683000D01*
X27406679Y29683000D01*
X27537474Y29709016D01*
X27660680Y29760050D01*
X27771563Y29834140D01*
X27800000Y29862577D01*
X27828437Y29834140D01*
X27939320Y29760050D01*
X28062526Y29709016D01*
X28193321Y29683000D01*
X28326679Y29683000D01*
X28457474Y29709016D01*
X28580680Y29760050D01*
X28691563Y29834140D01*
X28785860Y29928437D01*
X28859950Y30039320D01*
X28910984Y30162526D01*
X28937000Y30293321D01*
X28937000Y30426679D01*
X28933022Y30446679D01*
X35643000Y30446679D01*
X35643000Y30313321D01*
X35669016Y30182526D01*
X35720050Y30059320D01*
X35794140Y29948437D01*
X35888437Y29854140D01*
X35999320Y29780050D01*
X36122526Y29729016D01*
X36253321Y29703000D01*
X36386679Y29703000D01*
X36517474Y29729016D01*
X36640680Y29780050D01*
X36751563Y29854140D01*
X36810000Y29912577D01*
X36898437Y29824140D01*
X37009320Y29750050D01*
X37132526Y29699016D01*
X37263321Y29673000D01*
X37396679Y29673000D01*
X37527474Y29699016D01*
X37650680Y29750050D01*
X37761563Y29824140D01*
X37790000Y29852577D01*
X37818437Y29824140D01*
X37929320Y29750050D01*
X38052526Y29699016D01*
X38183321Y29673000D01*
X38316679Y29673000D01*
X38447474Y29699016D01*
X38570680Y29750050D01*
X38681563Y29824140D01*
X38775860Y29918437D01*
X38849950Y30029320D01*
X38900984Y30152526D01*
X38927000Y30283321D01*
X38927000Y30416679D01*
X38921033Y30446679D01*
X45613000Y30446679D01*
X45613000Y30313321D01*
X45639016Y30182526D01*
X45690050Y30059320D01*
X45764140Y29948437D01*
X45858437Y29854140D01*
X45969320Y29780050D01*
X46092526Y29729016D01*
X46223321Y29703000D01*
X46356679Y29703000D01*
X46487474Y29729016D01*
X46610680Y29780050D01*
X46721563Y29854140D01*
X46805000Y29937577D01*
X46888437Y29854140D01*
X46999320Y29780050D01*
X47122526Y29729016D01*
X47253321Y29703000D01*
X47386679Y29703000D01*
X47517474Y29729016D01*
X47640680Y29780050D01*
X47751563Y29854140D01*
X47780000Y29882577D01*
X47808437Y29854140D01*
X47919320Y29780050D01*
X48042526Y29729016D01*
X48173321Y29703000D01*
X48306679Y29703000D01*
X48437474Y29729016D01*
X48560680Y29780050D01*
X48671563Y29854140D01*
X48765860Y29948437D01*
X48839950Y30059320D01*
X48890984Y30182526D01*
X48917000Y30313321D01*
X48917000Y30446679D01*
X48890984Y30577474D01*
X48839950Y30700680D01*
X48765860Y30811563D01*
X48671563Y30905860D01*
X48560680Y30979950D01*
X48437474Y31030984D01*
X48306679Y31057000D01*
X48173321Y31057000D01*
X48042526Y31030984D01*
X47919320Y30979950D01*
X47808437Y30905860D01*
X47780000Y30877423D01*
X47751563Y30905860D01*
X47640680Y30979950D01*
X47517474Y31030984D01*
X47386679Y31057000D01*
X47253321Y31057000D01*
X47122526Y31030984D01*
X46999320Y30979950D01*
X46888437Y30905860D01*
X46805000Y30822423D01*
X46721563Y30905860D01*
X46610680Y30979950D01*
X46487474Y31030984D01*
X46356679Y31057000D01*
X46223321Y31057000D01*
X46092526Y31030984D01*
X45969320Y30979950D01*
X45858437Y30905860D01*
X45764140Y30811563D01*
X45690050Y30700680D01*
X45639016Y30577474D01*
X45613000Y30446679D01*
X38921033Y30446679D01*
X38900984Y30547474D01*
X38849950Y30670680D01*
X38775860Y30781563D01*
X38681563Y30875860D01*
X38570680Y30949950D01*
X38447474Y31000984D01*
X38316679Y31027000D01*
X38183321Y31027000D01*
X38052526Y31000984D01*
X37929320Y30949950D01*
X37818437Y30875860D01*
X37790000Y30847423D01*
X37761563Y30875860D01*
X37650680Y30949950D01*
X37527474Y31000984D01*
X37396679Y31027000D01*
X37263321Y31027000D01*
X37132526Y31000984D01*
X37009320Y30949950D01*
X36898437Y30875860D01*
X36840000Y30817423D01*
X36751563Y30905860D01*
X36640680Y30979950D01*
X36517474Y31030984D01*
X36386679Y31057000D01*
X36253321Y31057000D01*
X36122526Y31030984D01*
X35999320Y30979950D01*
X35888437Y30905860D01*
X35794140Y30811563D01*
X35720050Y30700680D01*
X35669016Y30577474D01*
X35643000Y30446679D01*
X28933022Y30446679D01*
X28910984Y30557474D01*
X28859950Y30680680D01*
X28785860Y30791563D01*
X28691563Y30885860D01*
X28580680Y30959950D01*
X28457474Y31010984D01*
X28326679Y31037000D01*
X28193321Y31037000D01*
X28062526Y31010984D01*
X27939320Y30959950D01*
X27828437Y30885860D01*
X27800000Y30857423D01*
X27771563Y30885860D01*
X27660680Y30959950D01*
X27537474Y31010984D01*
X27406679Y31037000D01*
X27273321Y31037000D01*
X27142526Y31010984D01*
X27019320Y30959950D01*
X26908437Y30885860D01*
X26855000Y30832423D01*
X26781563Y30905860D01*
X26670680Y30979950D01*
X26547474Y31030984D01*
X26416679Y31057000D01*
X26283321Y31057000D01*
X26152526Y31030984D01*
X26029320Y30979950D01*
X25918437Y30905860D01*
X25824140Y30811563D01*
X25750050Y30700680D01*
X25699016Y30577474D01*
X25673000Y30446679D01*
X18945066Y30446679D01*
X18930984Y30517474D01*
X18879950Y30640680D01*
X18805860Y30751563D01*
X18711563Y30845860D01*
X18600680Y30919950D01*
X18477474Y30970984D01*
X18346679Y30997000D01*
X18213321Y30997000D01*
X18082526Y30970984D01*
X17959320Y30919950D01*
X17848437Y30845860D01*
X17820000Y30817423D01*
X17791563Y30845860D01*
X17680680Y30919950D01*
X17557474Y30970984D01*
X17426679Y30997000D01*
X17293321Y30997000D01*
X17162526Y30970984D01*
X17039320Y30919950D01*
X16928437Y30845860D01*
X16877187Y30794610D01*
X16865860Y30811563D01*
X16771563Y30905860D01*
X16660680Y30979950D01*
X16537474Y31030984D01*
X16406679Y31057000D01*
X16273321Y31057000D01*
X16142526Y31030984D01*
X16019320Y30979950D01*
X15908437Y30905860D01*
X15814140Y30811563D01*
X15740050Y30700680D01*
X15689016Y30577474D01*
X15663000Y30446679D01*
X10451320Y30446679D01*
X10451353Y31366679D01*
X55923000Y31366679D01*
X55923000Y31233321D01*
X55949016Y31102526D01*
X56000050Y30979320D01*
X56074140Y30868437D01*
X56168437Y30774140D01*
X56279320Y30700050D01*
X56402526Y30649016D01*
X56533321Y30623000D01*
X56666679Y30623000D01*
X56797474Y30649016D01*
X56920680Y30700050D01*
X57031563Y30774140D01*
X57080000Y30822577D01*
X57128437Y30774140D01*
X57239320Y30700050D01*
X57362526Y30649016D01*
X57493321Y30623000D01*
X57626679Y30623000D01*
X57757474Y30649016D01*
X57880680Y30700050D01*
X57991563Y30774140D01*
X58085860Y30868437D01*
X58159950Y30979320D01*
X58210984Y31102526D01*
X58237000Y31233321D01*
X58237000Y31366679D01*
X58210984Y31497474D01*
X58159950Y31620680D01*
X58085860Y31731563D01*
X57991563Y31825860D01*
X57880680Y31899950D01*
X57757474Y31950984D01*
X57626679Y31977000D01*
X57493321Y31977000D01*
X57362526Y31950984D01*
X57239320Y31899950D01*
X57128437Y31825860D01*
X57080000Y31777423D01*
X57031563Y31825860D01*
X56920680Y31899950D01*
X56797474Y31950984D01*
X56666679Y31977000D01*
X56533321Y31977000D01*
X56402526Y31950984D01*
X56279320Y31899950D01*
X56168437Y31825860D01*
X56074140Y31731563D01*
X56000050Y31620680D01*
X55949016Y31497474D01*
X55923000Y31366679D01*
X10451353Y31366679D01*
X10451374Y31917874D01*
X10482996Y32240374D01*
X10570230Y32529309D01*
X10711924Y32795796D01*
X10902679Y33029685D01*
X11135233Y33222070D01*
X11400725Y33365622D01*
X11689042Y33454871D01*
X12010187Y33488624D01*
X63977891Y33488624D01*
X64300374Y33457004D01*
G04 #@! TA.AperFunction,Conductor*
D13*
G36*
X64300374Y33457004D02*
G01*
X64589309Y33369770D01*
X64855796Y33228076D01*
X65089685Y33037321D01*
X65282070Y32804767D01*
X65425622Y32539275D01*
X65514871Y32250958D01*
X65548624Y31929813D01*
X65548001Y12022124D01*
X65516379Y11699622D01*
X65429145Y11410690D01*
X65287452Y11144204D01*
X65096697Y10910315D01*
X64864143Y10717930D01*
X64598650Y10574378D01*
X64310334Y10485129D01*
X63989185Y10451376D01*
X32853177Y10451997D01*
X32793507Y10470097D01*
X32700000Y10479307D01*
X32606492Y10470097D01*
X32516577Y10442822D01*
X32433711Y10398529D01*
X32395293Y10367000D01*
X28675458Y10367000D01*
X28694316Y10412526D01*
X28720332Y10543321D01*
X28720332Y10676679D01*
X28694316Y10807474D01*
X28643282Y10930680D01*
X28569192Y11041563D01*
X28474895Y11135860D01*
X28364012Y11209950D01*
X28240806Y11260984D01*
X28110011Y11287000D01*
X27976653Y11287000D01*
X27845858Y11260984D01*
X27727000Y11211751D01*
X27727000Y12544578D01*
X29345422Y14163000D01*
X29755577Y14163000D01*
X28589798Y12997220D01*
X28563971Y12976024D01*
X28479370Y12872938D01*
X28416506Y12755327D01*
X28377794Y12627712D01*
X28367998Y12528249D01*
X28367998Y12528243D01*
X28364724Y12494998D01*
X28367998Y12461753D01*
X28367998Y11878321D01*
X28374519Y11845536D01*
X28377794Y11812285D01*
X28387492Y11780315D01*
X28394014Y11747526D01*
X28406809Y11716636D01*
X28416506Y11684670D01*
X28432254Y11655208D01*
X28445048Y11624320D01*
X28463621Y11596524D01*
X28479370Y11567059D01*
X28500565Y11541233D01*
X28519138Y11513437D01*
X28542780Y11489795D01*
X28563972Y11463973D01*
X28589792Y11442783D01*
X28613435Y11419140D01*
X28641235Y11400565D01*
X28667058Y11379372D01*
X28696518Y11363625D01*
X28724318Y11345050D01*
X28755210Y11332254D01*
X28784669Y11316508D01*
X28816632Y11306812D01*
X28847524Y11294016D01*
X28880316Y11287493D01*
X28912284Y11277796D01*
X28945533Y11274521D01*
X28978319Y11268000D01*
X29011746Y11268000D01*
X29044998Y11264725D01*
X29078250Y11268000D01*
X29111677Y11268000D01*
X29144462Y11274521D01*
X29177713Y11277796D01*
X29209683Y11287494D01*
X29242472Y11294016D01*
X29273362Y11306811D01*
X29305328Y11316508D01*
X29334790Y11332256D01*
X29365678Y11345050D01*
X29393474Y11363623D01*
X29422939Y11379372D01*
X29448767Y11400568D01*
X29476561Y11419140D01*
X29500199Y11442778D01*
X29526025Y11463973D01*
X29545968Y11488273D01*
X29615101Y11419140D01*
X29725984Y11345050D01*
X29849190Y11294016D01*
X29979985Y11268000D01*
X30113343Y11268000D01*
X30244138Y11294016D01*
X30367344Y11345050D01*
X30478227Y11419140D01*
X30547361Y11488274D01*
X30567303Y11463974D01*
X30593125Y11442782D01*
X30616767Y11419140D01*
X30644563Y11400567D01*
X30670389Y11379372D01*
X30699854Y11363623D01*
X30727650Y11345050D01*
X30758538Y11332256D01*
X30788000Y11316508D01*
X30819966Y11306811D01*
X30850856Y11294016D01*
X30883645Y11287494D01*
X30915615Y11277796D01*
X30948866Y11274521D01*
X30981651Y11268000D01*
X31015078Y11268000D01*
X31048330Y11264725D01*
X31081582Y11268000D01*
X31115009Y11268000D01*
X31147795Y11274521D01*
X31181044Y11277796D01*
X31213012Y11287493D01*
X31245804Y11294016D01*
X31276696Y11306812D01*
X31308659Y11316508D01*
X31338118Y11332254D01*
X31369010Y11345050D01*
X31396810Y11363625D01*
X31426270Y11379372D01*
X31452093Y11400565D01*
X31479893Y11419140D01*
X31503536Y11442783D01*
X31529356Y11463973D01*
X31550548Y11489795D01*
X31554165Y11493412D01*
X31628437Y11419140D01*
X31739320Y11345050D01*
X31862526Y11294016D01*
X31993321Y11268000D01*
X32126679Y11268000D01*
X32257474Y11294016D01*
X32380680Y11345050D01*
X32491563Y11419140D01*
X32585860Y11513437D01*
X32659950Y11624320D01*
X32710984Y11747526D01*
X32737000Y11878321D01*
X32737000Y12011679D01*
X32710984Y12142474D01*
X32690055Y12193000D01*
X48266755Y12193000D01*
X48300000Y12189726D01*
X48333245Y12193000D01*
X48333252Y12193000D01*
X48432715Y12202796D01*
X48560330Y12241508D01*
X48677941Y12304372D01*
X48781027Y12388973D01*
X48802226Y12414804D01*
X51860422Y15473000D01*
X52259203Y15473000D01*
X52248000Y15416679D01*
X52248000Y15283321D01*
X52274016Y15152526D01*
X52325050Y15029320D01*
X52399140Y14918437D01*
X52493437Y14824140D01*
X52604320Y14750050D01*
X52727526Y14699016D01*
X52858321Y14673000D01*
X52991679Y14673000D01*
X53122474Y14699016D01*
X53245680Y14750050D01*
X53356563Y14824140D01*
X53420000Y14887577D01*
X53488437Y14819140D01*
X53599320Y14745050D01*
X53722526Y14694016D01*
X53853321Y14668000D01*
X53986679Y14668000D01*
X54117474Y14694016D01*
X54240680Y14745050D01*
X54351563Y14819140D01*
X54420000Y14887577D01*
X54488437Y14819140D01*
X54599320Y14745050D01*
X54722526Y14694016D01*
X54853321Y14668000D01*
X54986679Y14668000D01*
X55117474Y14694016D01*
X55240680Y14745050D01*
X55351563Y14819140D01*
X55420000Y14887577D01*
X55488437Y14819140D01*
X55599320Y14745050D01*
X55722526Y14694016D01*
X55853321Y14668000D01*
X55986679Y14668000D01*
X56117474Y14694016D01*
X56240680Y14745050D01*
X56351563Y14819140D01*
X56445860Y14913437D01*
X56519950Y15024320D01*
X56570984Y15147526D01*
X56597000Y15278321D01*
X56597000Y15411679D01*
X56570984Y15542474D01*
X56519950Y15665680D01*
X56445860Y15776563D01*
X56351563Y15870860D01*
X56240680Y15944950D01*
X56117474Y15995984D01*
X55986679Y16022000D01*
X55853321Y16022000D01*
X55722526Y15995984D01*
X55599320Y15944950D01*
X55488437Y15870860D01*
X55420000Y15802423D01*
X55351563Y15870860D01*
X55322621Y15890199D01*
X55875205Y16442782D01*
X55901026Y16463973D01*
X55922218Y16489795D01*
X55922224Y16489801D01*
X55985628Y16567059D01*
X56048492Y16684670D01*
X56087204Y16812285D01*
X56100275Y16945000D01*
X56097000Y16978252D01*
X56097000Y17851679D01*
X56090479Y17884464D01*
X56087204Y17917715D01*
X56077506Y17949685D01*
X56070984Y17982474D01*
X56058189Y18013364D01*
X56048492Y18045330D01*
X56032744Y18074792D01*
X56019950Y18105680D01*
X56001377Y18133476D01*
X55985628Y18162941D01*
X55964432Y18188769D01*
X55945860Y18216563D01*
X55922222Y18240201D01*
X55901027Y18266027D01*
X55875199Y18287224D01*
X55851563Y18310860D01*
X55823769Y18329432D01*
X55797941Y18350628D01*
X55768476Y18366377D01*
X55740680Y18384950D01*
X55709792Y18397744D01*
X55680330Y18413492D01*
X55648364Y18423189D01*
X55617474Y18435984D01*
X55584685Y18442506D01*
X55552715Y18452204D01*
X55519464Y18455479D01*
X55486679Y18462000D01*
X55453252Y18462000D01*
X55420000Y18465275D01*
X55386748Y18462000D01*
X55353321Y18462000D01*
X55320535Y18455479D01*
X55287286Y18452204D01*
X55255318Y18442507D01*
X55222526Y18435984D01*
X55191634Y18423188D01*
X55159671Y18413492D01*
X55130212Y18397746D01*
X55099320Y18384950D01*
X55071520Y18366375D01*
X55042060Y18350628D01*
X55016237Y18329435D01*
X54988437Y18310860D01*
X54964794Y18287217D01*
X54938974Y18266027D01*
X54920000Y18242907D01*
X54901026Y18266027D01*
X54875206Y18287217D01*
X54851563Y18310860D01*
X54823763Y18329435D01*
X54797940Y18350628D01*
X54768480Y18366375D01*
X54740680Y18384950D01*
X54709788Y18397746D01*
X54680329Y18413492D01*
X54648366Y18423188D01*
X54617474Y18435984D01*
X54584682Y18442507D01*
X54552714Y18452204D01*
X54519465Y18455479D01*
X54486679Y18462000D01*
X54453252Y18462000D01*
X54420000Y18465275D01*
X54386748Y18462000D01*
X54353321Y18462000D01*
X54320536Y18455479D01*
X54287285Y18452204D01*
X54255315Y18442506D01*
X54222526Y18435984D01*
X54191636Y18423189D01*
X54159670Y18413492D01*
X54130208Y18397744D01*
X54099320Y18384950D01*
X54071524Y18366377D01*
X54042059Y18350628D01*
X54016233Y18329433D01*
X53988437Y18310860D01*
X53964795Y18287218D01*
X53938973Y18266026D01*
X53920000Y18242908D01*
X53901027Y18266027D01*
X53875199Y18287224D01*
X53851563Y18310860D01*
X53823769Y18329432D01*
X53797941Y18350628D01*
X53768476Y18366377D01*
X53740680Y18384950D01*
X53709792Y18397744D01*
X53680330Y18413492D01*
X53648364Y18423189D01*
X53617474Y18435984D01*
X53584685Y18442506D01*
X53552715Y18452204D01*
X53519464Y18455479D01*
X53486679Y18462000D01*
X50398245Y18462000D01*
X50365000Y18465274D01*
X50331755Y18462000D01*
X50331748Y18462000D01*
X50232285Y18452204D01*
X50104670Y18413492D01*
X49987059Y18350628D01*
X49883973Y18266027D01*
X49862778Y18240201D01*
X47139578Y15517000D01*
X29098241Y15517000D01*
X29064999Y15520274D01*
X29031757Y15517000D01*
X29031748Y15517000D01*
X28932285Y15507204D01*
X28804670Y15468492D01*
X28687059Y15405628D01*
X28583973Y15321027D01*
X28562776Y15295198D01*
X26594800Y13327222D01*
X26568973Y13306026D01*
X26547778Y13280200D01*
X26547776Y13280198D01*
X26521303Y13247940D01*
X26484372Y13202940D01*
X26421508Y13085329D01*
X26382796Y12957714D01*
X26373000Y12858251D01*
X26373000Y12858245D01*
X26369726Y12825000D01*
X26373000Y12791755D01*
X26373001Y10367000D01*
X25093564Y10367000D01*
X25086767Y10369746D01*
X25046928Y10386494D01*
X25040560Y10388416D01*
X25040554Y10388418D01*
X25040548Y10388419D01*
X24862688Y10440766D01*
X24820198Y10448871D01*
X24777872Y10457560D01*
X24771244Y10458210D01*
X24586600Y10475014D01*
X24543368Y10474712D01*
X24500135Y10475014D01*
X24493507Y10474364D01*
X24309114Y10454983D01*
X24266754Y10446288D01*
X24224301Y10438190D01*
X24217933Y10436267D01*
X24217921Y10436264D01*
X24217910Y10436259D01*
X24040809Y10381438D01*
X24006462Y10367000D01*
X12809477Y10367000D01*
X12809087Y10369045D01*
X12807263Y10375086D01*
X12737970Y10598937D01*
X12722094Y10636705D01*
X12706748Y10674688D01*
X12703785Y10680260D01*
X12592332Y10886387D01*
X12569409Y10920372D01*
X12546992Y10954629D01*
X12543004Y10959519D01*
X12543003Y10959521D01*
X12542998Y10959526D01*
X12393635Y11140073D01*
X12364569Y11168938D01*
X12335904Y11198209D01*
X12331047Y11202227D01*
X12331041Y11202233D01*
X12331034Y11202237D01*
X12149449Y11350335D01*
X12115342Y11372996D01*
X12081525Y11396150D01*
X12075974Y11399152D01*
X11869074Y11509163D01*
X11831164Y11524789D01*
X11793544Y11540913D01*
X11787525Y11542776D01*
X11787515Y11542780D01*
X11787505Y11542782D01*
X11563189Y11610508D01*
X11522994Y11618467D01*
X11482928Y11626983D01*
X11476657Y11627642D01*
X11476654Y11627643D01*
X11476651Y11627643D01*
X11243440Y11650509D01*
X11054337Y11669050D01*
X10914867Y11711159D01*
X10786228Y11779558D01*
X10673326Y11871639D01*
X10580460Y11983893D01*
X10511164Y12112054D01*
X10468082Y12251228D01*
X10450668Y12416912D01*
X10451080Y23841679D01*
X24708000Y23841679D01*
X24708000Y23708321D01*
X24734016Y23577526D01*
X24785050Y23454320D01*
X24859140Y23343437D01*
X24953437Y23249140D01*
X25064320Y23175050D01*
X25187526Y23124016D01*
X25318321Y23098000D01*
X25451679Y23098000D01*
X25582474Y23124016D01*
X25705680Y23175050D01*
X25816563Y23249140D01*
X25910860Y23343437D01*
X25984950Y23454320D01*
X26035984Y23577526D01*
X26062000Y23708321D01*
X26062000Y23821679D01*
X34658000Y23821679D01*
X34658000Y23688321D01*
X34684016Y23557526D01*
X34735050Y23434320D01*
X34809140Y23323437D01*
X34903437Y23229140D01*
X35014320Y23155050D01*
X35137526Y23104016D01*
X35268321Y23078000D01*
X35401679Y23078000D01*
X35532474Y23104016D01*
X35655680Y23155050D01*
X35766563Y23229140D01*
X35860860Y23323437D01*
X35934950Y23434320D01*
X35985984Y23557526D01*
X36012000Y23688321D01*
X36012000Y23821679D01*
X36007028Y23846679D01*
X44703000Y23846679D01*
X44703000Y23713321D01*
X44729016Y23582526D01*
X44780050Y23459320D01*
X44854140Y23348437D01*
X44948437Y23254140D01*
X45059320Y23180050D01*
X45182526Y23129016D01*
X45313321Y23103000D01*
X45446679Y23103000D01*
X45577474Y23129016D01*
X45700680Y23180050D01*
X45811563Y23254140D01*
X45905860Y23348437D01*
X45979950Y23459320D01*
X46030984Y23582526D01*
X46057000Y23713321D01*
X46057000Y23846679D01*
X46030984Y23977474D01*
X45979950Y24100680D01*
X45905860Y24211563D01*
X45811563Y24305860D01*
X45700680Y24379950D01*
X45577474Y24430984D01*
X45446679Y24457000D01*
X45313321Y24457000D01*
X45182526Y24430984D01*
X45059320Y24379950D01*
X44948437Y24305860D01*
X44854140Y24211563D01*
X44780050Y24100680D01*
X44729016Y23977474D01*
X44703000Y23846679D01*
X36007028Y23846679D01*
X35985984Y23952474D01*
X35934950Y24075680D01*
X35860860Y24186563D01*
X35766563Y24280860D01*
X35655680Y24354950D01*
X35532474Y24405984D01*
X35401679Y24432000D01*
X35268321Y24432000D01*
X35137526Y24405984D01*
X35014320Y24354950D01*
X34903437Y24280860D01*
X34809140Y24186563D01*
X34735050Y24075680D01*
X34684016Y23952474D01*
X34658000Y23821679D01*
X26062000Y23821679D01*
X26062000Y23841679D01*
X26035984Y23972474D01*
X25984950Y24095680D01*
X25910860Y24206563D01*
X25816563Y24300860D01*
X25705680Y24374950D01*
X25582474Y24425984D01*
X25451679Y24452000D01*
X25318321Y24452000D01*
X25187526Y24425984D01*
X25064320Y24374950D01*
X24953437Y24300860D01*
X24859140Y24206563D01*
X24785050Y24095680D01*
X24734016Y23972474D01*
X24708000Y23841679D01*
X10451080Y23841679D01*
X10451151Y25796679D01*
X19173000Y25796679D01*
X19173000Y25663321D01*
X19199016Y25532526D01*
X19250050Y25409320D01*
X19324140Y25298437D01*
X19418437Y25204140D01*
X19529320Y25130050D01*
X19652526Y25079016D01*
X19783321Y25053000D01*
X19793064Y25053000D01*
X19819016Y24922526D01*
X19870050Y24799320D01*
X19944140Y24688437D01*
X20038437Y24594140D01*
X20149320Y24520050D01*
X20272526Y24469016D01*
X20403321Y24443000D01*
X20536679Y24443000D01*
X20667474Y24469016D01*
X20770000Y24511484D01*
X20872526Y24469016D01*
X21003321Y24443000D01*
X21136679Y24443000D01*
X21267474Y24469016D01*
X21370000Y24511484D01*
X21472526Y24469016D01*
X21603321Y24443000D01*
X21736679Y24443000D01*
X21867474Y24469016D01*
X21970000Y24511484D01*
X22072526Y24469016D01*
X22203321Y24443000D01*
X22336679Y24443000D01*
X22467474Y24469016D01*
X22590680Y24520050D01*
X22701563Y24594140D01*
X22795860Y24688437D01*
X22869950Y24799320D01*
X22920984Y24922526D01*
X22947000Y25053321D01*
X22947000Y25186679D01*
X22920984Y25317474D01*
X22878516Y25420000D01*
X22920984Y25522526D01*
X22947000Y25653321D01*
X22947000Y25766679D01*
X29103000Y25766679D01*
X29103000Y25633321D01*
X29129016Y25502526D01*
X29180050Y25379320D01*
X29254140Y25268437D01*
X29348437Y25174140D01*
X29459320Y25100050D01*
X29582526Y25049016D01*
X29713321Y25023000D01*
X29715053Y25023000D01*
X29739016Y24902526D01*
X29790050Y24779320D01*
X29864140Y24668437D01*
X29958437Y24574140D01*
X30069320Y24500050D01*
X30192526Y24449016D01*
X30323321Y24423000D01*
X30456679Y24423000D01*
X30587474Y24449016D01*
X30690000Y24491484D01*
X30792526Y24449016D01*
X30923321Y24423000D01*
X31056679Y24423000D01*
X31187474Y24449016D01*
X31290000Y24491484D01*
X31392526Y24449016D01*
X31523321Y24423000D01*
X31656679Y24423000D01*
X31787474Y24449016D01*
X31890000Y24491484D01*
X31992526Y24449016D01*
X32123321Y24423000D01*
X32256679Y24423000D01*
X32387474Y24449016D01*
X32510680Y24500050D01*
X32621563Y24574140D01*
X32715860Y24668437D01*
X32789950Y24779320D01*
X32840984Y24902526D01*
X32867000Y25033321D01*
X32867000Y25166679D01*
X32840984Y25297474D01*
X32798516Y25400000D01*
X32840984Y25502526D01*
X32867000Y25633321D01*
X32867000Y25766679D01*
X39193000Y25766679D01*
X39193000Y25633321D01*
X39219016Y25502526D01*
X39270050Y25379320D01*
X39344140Y25268437D01*
X39438437Y25174140D01*
X39549320Y25100050D01*
X39672526Y25049016D01*
X39784300Y25026783D01*
X39809016Y24902526D01*
X39860050Y24779320D01*
X39934140Y24668437D01*
X40028437Y24574140D01*
X40139320Y24500050D01*
X40262526Y24449016D01*
X40393321Y24423000D01*
X40526679Y24423000D01*
X40657474Y24449016D01*
X40760000Y24491484D01*
X40862526Y24449016D01*
X40993321Y24423000D01*
X41126679Y24423000D01*
X41257474Y24449016D01*
X41360000Y24491484D01*
X41462526Y24449016D01*
X41593321Y24423000D01*
X41726679Y24423000D01*
X41857474Y24449016D01*
X41960000Y24491484D01*
X42062526Y24449016D01*
X42193321Y24423000D01*
X42326679Y24423000D01*
X42457474Y24449016D01*
X42580680Y24500050D01*
X42691563Y24574140D01*
X42785860Y24668437D01*
X42859950Y24779320D01*
X42910984Y24902526D01*
X42937000Y25033321D01*
X42937000Y25166679D01*
X42910984Y25297474D01*
X42868516Y25400000D01*
X42910984Y25502526D01*
X42937000Y25633321D01*
X42937000Y25766679D01*
X42910984Y25897474D01*
X42859950Y26020680D01*
X42785860Y26131563D01*
X42691563Y26225860D01*
X42580680Y26299950D01*
X42457474Y26350984D01*
X42326679Y26377000D01*
X42193321Y26377000D01*
X42062526Y26350984D01*
X41960000Y26308516D01*
X41857474Y26350984D01*
X41726679Y26377000D01*
X41593321Y26377000D01*
X41462526Y26350984D01*
X41360000Y26308516D01*
X41257474Y26350984D01*
X41126679Y26377000D01*
X40993321Y26377000D01*
X40862526Y26350984D01*
X40768364Y26311981D01*
X40779950Y26329320D01*
X40830984Y26452526D01*
X40857000Y26583321D01*
X40857000Y26716679D01*
X40830984Y26847474D01*
X40779950Y26970680D01*
X40705860Y27081563D01*
X40611563Y27175860D01*
X40500680Y27249950D01*
X40377474Y27300984D01*
X40246679Y27327000D01*
X40113321Y27327000D01*
X39982526Y27300984D01*
X39859320Y27249950D01*
X39748437Y27175860D01*
X39654140Y27081563D01*
X39580050Y26970680D01*
X39529016Y26847474D01*
X39503000Y26716679D01*
X39503000Y26583321D01*
X39529016Y26452526D01*
X39580050Y26329320D01*
X39588759Y26316286D01*
X39549320Y26299950D01*
X39438437Y26225860D01*
X39344140Y26131563D01*
X39270050Y26020680D01*
X39219016Y25897474D01*
X39193000Y25766679D01*
X32867000Y25766679D01*
X32840984Y25897474D01*
X32789950Y26020680D01*
X32715860Y26131563D01*
X32621563Y26225860D01*
X32510680Y26299950D01*
X32387474Y26350984D01*
X32256679Y26377000D01*
X32123321Y26377000D01*
X31992526Y26350984D01*
X31890000Y26308516D01*
X31787474Y26350984D01*
X31656679Y26377000D01*
X31523321Y26377000D01*
X31392526Y26350984D01*
X31290000Y26308516D01*
X31187474Y26350984D01*
X31056679Y26377000D01*
X30923321Y26377000D01*
X30792526Y26350984D01*
X30690000Y26308516D01*
X30679673Y26312794D01*
X30720984Y26412526D01*
X30747000Y26543321D01*
X30747000Y26676679D01*
X30720984Y26807474D01*
X30669950Y26930680D01*
X30595860Y27041563D01*
X30501563Y27135860D01*
X30390680Y27209950D01*
X30267474Y27260984D01*
X30136679Y27287000D01*
X30003321Y27287000D01*
X29872526Y27260984D01*
X29749320Y27209950D01*
X29638437Y27135860D01*
X29544140Y27041563D01*
X29470050Y26930680D01*
X29419016Y26807474D01*
X29393000Y26676679D01*
X29393000Y26543321D01*
X29419016Y26412526D01*
X29464720Y26302187D01*
X29459320Y26299950D01*
X29348437Y26225860D01*
X29254140Y26131563D01*
X29180050Y26020680D01*
X29129016Y25897474D01*
X29103000Y25766679D01*
X22947000Y25766679D01*
X22947000Y25786679D01*
X22920984Y25917474D01*
X22869950Y26040680D01*
X22795860Y26151563D01*
X22701563Y26245860D01*
X22590680Y26319950D01*
X22467474Y26370984D01*
X22336679Y26397000D01*
X22203321Y26397000D01*
X22072526Y26370984D01*
X21970000Y26328516D01*
X21867474Y26370984D01*
X21736679Y26397000D01*
X21603321Y26397000D01*
X21472526Y26370984D01*
X21370000Y26328516D01*
X21267474Y26370984D01*
X21136679Y26397000D01*
X21003321Y26397000D01*
X20872526Y26370984D01*
X20803680Y26342467D01*
X20840984Y26432526D01*
X20867000Y26563321D01*
X20867000Y26696679D01*
X20840984Y26827474D01*
X20789950Y26950680D01*
X20715860Y27061563D01*
X20621563Y27155860D01*
X20510680Y27229950D01*
X20387474Y27280984D01*
X20256679Y27307000D01*
X20123321Y27307000D01*
X19992526Y27280984D01*
X19869320Y27229950D01*
X19758437Y27155860D01*
X19664140Y27061563D01*
X19590050Y26950680D01*
X19539016Y26827474D01*
X19513000Y26696679D01*
X19513000Y26563321D01*
X19539016Y26432526D01*
X19573862Y26348400D01*
X19529320Y26329950D01*
X19418437Y26255860D01*
X19324140Y26161563D01*
X19250050Y26050680D01*
X19199016Y25927474D01*
X19173000Y25796679D01*
X10451151Y25796679D01*
X10451211Y27456679D01*
X51413000Y27456679D01*
X51413000Y27323321D01*
X51439016Y27192526D01*
X51462844Y27135000D01*
X51439016Y27077474D01*
X51413000Y26946679D01*
X51413000Y26813321D01*
X51439016Y26682526D01*
X51490050Y26559320D01*
X51564140Y26448437D01*
X51658437Y26354140D01*
X51769320Y26280050D01*
X51892526Y26229016D01*
X52023321Y26203000D01*
X52156679Y26203000D01*
X52287474Y26229016D01*
X52370000Y26263200D01*
X52452526Y26229016D01*
X52517073Y26216177D01*
X52539016Y26105860D01*
X52563535Y26046667D01*
X52539016Y25987474D01*
X52513000Y25856679D01*
X52513000Y25723321D01*
X52539016Y25592526D01*
X52562844Y25535000D01*
X52539016Y25477474D01*
X52513000Y25346679D01*
X52513000Y25213321D01*
X52539016Y25082526D01*
X52590050Y24959320D01*
X52664140Y24848437D01*
X52758437Y24754140D01*
X52869320Y24680050D01*
X52943822Y24649190D01*
X52969016Y24522526D01*
X53020050Y24399320D01*
X53021820Y24396670D01*
X52989016Y24317474D01*
X52963000Y24186679D01*
X52963000Y24053321D01*
X52989016Y23922526D01*
X53040050Y23799320D01*
X53114140Y23688437D01*
X53208437Y23594140D01*
X53319320Y23520050D01*
X53442526Y23469016D01*
X53573321Y23443000D01*
X53706679Y23443000D01*
X53837474Y23469016D01*
X53895000Y23492844D01*
X53952526Y23469016D01*
X54083321Y23443000D01*
X54216679Y23443000D01*
X54347474Y23469016D01*
X54470680Y23520050D01*
X54581563Y23594140D01*
X54675860Y23688437D01*
X54749950Y23799320D01*
X54800984Y23922526D01*
X54827000Y24053321D01*
X54827000Y24186679D01*
X54800984Y24317474D01*
X54758516Y24420000D01*
X54800984Y24522526D01*
X54827000Y24653321D01*
X54827000Y24786679D01*
X54819658Y24823592D01*
X54947474Y24849016D01*
X55070680Y24900050D01*
X55181563Y24974140D01*
X55275860Y25068437D01*
X55349950Y25179320D01*
X55400984Y25302526D01*
X55427000Y25433321D01*
X55427000Y25566679D01*
X55400984Y25697474D01*
X55349950Y25820680D01*
X55275860Y25931563D01*
X55181563Y26025860D01*
X55070680Y26099950D01*
X54947474Y26150984D01*
X54816679Y26177000D01*
X54683321Y26177000D01*
X54552526Y26150984D01*
X54429320Y26099950D01*
X54318437Y26025860D01*
X54249577Y25957000D01*
X54193321Y25957000D01*
X54062526Y25930984D01*
X53995000Y25903014D01*
X53927474Y25930984D01*
X53849120Y25946569D01*
X53840984Y25987474D01*
X53816465Y26046667D01*
X53840984Y26105860D01*
X53867000Y26236655D01*
X53867000Y26370013D01*
X53840984Y26500808D01*
X53803349Y26591667D01*
X53840984Y26682526D01*
X53867000Y26813321D01*
X53867000Y26946679D01*
X53855066Y27006679D01*
X54063000Y27006679D01*
X54063000Y26873321D01*
X54089016Y26742526D01*
X54140050Y26619320D01*
X54214140Y26508437D01*
X54308437Y26414140D01*
X54419320Y26340050D01*
X54542526Y26289016D01*
X54673321Y26263000D01*
X54806679Y26263000D01*
X54937474Y26289016D01*
X55060680Y26340050D01*
X55171563Y26414140D01*
X55265860Y26508437D01*
X55339950Y26619320D01*
X55390984Y26742526D01*
X55417000Y26873321D01*
X55417000Y27006679D01*
X55390984Y27137474D01*
X55339950Y27260680D01*
X55305313Y27312517D01*
X55349950Y27379320D01*
X55400984Y27502526D01*
X55427000Y27633321D01*
X55427000Y27766679D01*
X55400984Y27897474D01*
X55349950Y28020680D01*
X55275860Y28131563D01*
X55181563Y28225860D01*
X55070680Y28299950D01*
X54947474Y28350984D01*
X54816679Y28377000D01*
X54683321Y28377000D01*
X54552526Y28350984D01*
X54429320Y28299950D01*
X54318437Y28225860D01*
X54224140Y28131563D01*
X54150050Y28020680D01*
X54099016Y27897474D01*
X54073000Y27766679D01*
X54073000Y27633321D01*
X54099016Y27502526D01*
X54150050Y27379320D01*
X54184687Y27327483D01*
X54140050Y27260680D01*
X54089016Y27137474D01*
X54063000Y27006679D01*
X53855066Y27006679D01*
X53840984Y27077474D01*
X53817156Y27135000D01*
X53840984Y27192526D01*
X53867000Y27323321D01*
X53867000Y27456679D01*
X53840984Y27587474D01*
X53789950Y27710680D01*
X53715860Y27821563D01*
X53621563Y27915860D01*
X53510680Y27989950D01*
X53387474Y28040984D01*
X53256679Y28067000D01*
X53123321Y28067000D01*
X52992526Y28040984D01*
X52915000Y28008871D01*
X52837474Y28040984D01*
X52706679Y28067000D01*
X52573321Y28067000D01*
X52442526Y28040984D01*
X52365000Y28008871D01*
X52287474Y28040984D01*
X52156679Y28067000D01*
X52023321Y28067000D01*
X51892526Y28040984D01*
X51769320Y27989950D01*
X51658437Y27915860D01*
X51564140Y27821563D01*
X51490050Y27710680D01*
X51439016Y27587474D01*
X51413000Y27456679D01*
X10451211Y27456679D01*
X10451277Y29256679D01*
X13483000Y29256679D01*
X13483000Y29123321D01*
X13509016Y28992526D01*
X13560050Y28869320D01*
X13634140Y28758437D01*
X13728437Y28664140D01*
X13839320Y28590050D01*
X13962526Y28539016D01*
X14093321Y28513000D01*
X14226679Y28513000D01*
X14357474Y28539016D01*
X14480680Y28590050D01*
X14591563Y28664140D01*
X14685860Y28758437D01*
X14759950Y28869320D01*
X14810984Y28992526D01*
X14837000Y29123321D01*
X14837000Y29256679D01*
X14810984Y29387474D01*
X14759950Y29510680D01*
X14685860Y29621563D01*
X14591563Y29715860D01*
X14480680Y29789950D01*
X14357474Y29840984D01*
X14226679Y29867000D01*
X14093321Y29867000D01*
X13962526Y29840984D01*
X13839320Y29789950D01*
X13728437Y29715860D01*
X13634140Y29621563D01*
X13560050Y29510680D01*
X13509016Y29387474D01*
X13483000Y29256679D01*
X10451277Y29256679D01*
X10451320Y30446679D01*
X15663000Y30446679D01*
X15663000Y30313321D01*
X15689016Y30182526D01*
X15740050Y30059320D01*
X15814140Y29948437D01*
X15908437Y29854140D01*
X16019320Y29780050D01*
X16142526Y29729016D01*
X16273321Y29703000D01*
X16406679Y29703000D01*
X16537474Y29729016D01*
X16660680Y29780050D01*
X16771563Y29854140D01*
X16822813Y29905390D01*
X16834140Y29888437D01*
X16928437Y29794140D01*
X17039320Y29720050D01*
X17162526Y29669016D01*
X17293321Y29643000D01*
X17426679Y29643000D01*
X17557474Y29669016D01*
X17680680Y29720050D01*
X17791563Y29794140D01*
X17820000Y29822577D01*
X17848437Y29794140D01*
X17959320Y29720050D01*
X18082526Y29669016D01*
X18213321Y29643000D01*
X18346679Y29643000D01*
X18477474Y29669016D01*
X18600680Y29720050D01*
X18711563Y29794140D01*
X18805860Y29888437D01*
X18879950Y29999320D01*
X18930984Y30122526D01*
X18957000Y30253321D01*
X18957000Y30386679D01*
X18945066Y30446679D01*
X25673000Y30446679D01*
X25673000Y30313321D01*
X25699016Y30182526D01*
X25750050Y30059320D01*
X25824140Y29948437D01*
X25918437Y29854140D01*
X26029320Y29780050D01*
X26152526Y29729016D01*
X26283321Y29703000D01*
X26416679Y29703000D01*
X26547474Y29729016D01*
X26670680Y29780050D01*
X26781563Y29854140D01*
X26835000Y29907577D01*
X26908437Y29834140D01*
X27019320Y29760050D01*
X27142526Y29709016D01*
X27273321Y29683000D01*
X27406679Y29683000D01*
X27537474Y29709016D01*
X27660680Y29760050D01*
X27771563Y29834140D01*
X27800000Y29862577D01*
X27828437Y29834140D01*
X27939320Y29760050D01*
X28062526Y29709016D01*
X28193321Y29683000D01*
X28326679Y29683000D01*
X28457474Y29709016D01*
X28580680Y29760050D01*
X28691563Y29834140D01*
X28785860Y29928437D01*
X28859950Y30039320D01*
X28910984Y30162526D01*
X28937000Y30293321D01*
X28937000Y30426679D01*
X28933022Y30446679D01*
X35643000Y30446679D01*
X35643000Y30313321D01*
X35669016Y30182526D01*
X35720050Y30059320D01*
X35794140Y29948437D01*
X35888437Y29854140D01*
X35999320Y29780050D01*
X36122526Y29729016D01*
X36253321Y29703000D01*
X36386679Y29703000D01*
X36517474Y29729016D01*
X36640680Y29780050D01*
X36751563Y29854140D01*
X36810000Y29912577D01*
X36898437Y29824140D01*
X37009320Y29750050D01*
X37132526Y29699016D01*
X37263321Y29673000D01*
X37396679Y29673000D01*
X37527474Y29699016D01*
X37650680Y29750050D01*
X37761563Y29824140D01*
X37790000Y29852577D01*
X37818437Y29824140D01*
X37929320Y29750050D01*
X38052526Y29699016D01*
X38183321Y29673000D01*
X38316679Y29673000D01*
X38447474Y29699016D01*
X38570680Y29750050D01*
X38681563Y29824140D01*
X38775860Y29918437D01*
X38849950Y30029320D01*
X38900984Y30152526D01*
X38927000Y30283321D01*
X38927000Y30416679D01*
X38921033Y30446679D01*
X45613000Y30446679D01*
X45613000Y30313321D01*
X45639016Y30182526D01*
X45690050Y30059320D01*
X45764140Y29948437D01*
X45858437Y29854140D01*
X45969320Y29780050D01*
X46092526Y29729016D01*
X46223321Y29703000D01*
X46356679Y29703000D01*
X46487474Y29729016D01*
X46610680Y29780050D01*
X46721563Y29854140D01*
X46805000Y29937577D01*
X46888437Y29854140D01*
X46999320Y29780050D01*
X47122526Y29729016D01*
X47253321Y29703000D01*
X47386679Y29703000D01*
X47517474Y29729016D01*
X47640680Y29780050D01*
X47751563Y29854140D01*
X47780000Y29882577D01*
X47808437Y29854140D01*
X47919320Y29780050D01*
X48042526Y29729016D01*
X48173321Y29703000D01*
X48306679Y29703000D01*
X48437474Y29729016D01*
X48560680Y29780050D01*
X48671563Y29854140D01*
X48765860Y29948437D01*
X48839950Y30059320D01*
X48890984Y30182526D01*
X48917000Y30313321D01*
X48917000Y30446679D01*
X48890984Y30577474D01*
X48839950Y30700680D01*
X48765860Y30811563D01*
X48671563Y30905860D01*
X48560680Y30979950D01*
X48437474Y31030984D01*
X48306679Y31057000D01*
X48173321Y31057000D01*
X48042526Y31030984D01*
X47919320Y30979950D01*
X47808437Y30905860D01*
X47780000Y30877423D01*
X47751563Y30905860D01*
X47640680Y30979950D01*
X47517474Y31030984D01*
X47386679Y31057000D01*
X47253321Y31057000D01*
X47122526Y31030984D01*
X46999320Y30979950D01*
X46888437Y30905860D01*
X46805000Y30822423D01*
X46721563Y30905860D01*
X46610680Y30979950D01*
X46487474Y31030984D01*
X46356679Y31057000D01*
X46223321Y31057000D01*
X46092526Y31030984D01*
X45969320Y30979950D01*
X45858437Y30905860D01*
X45764140Y30811563D01*
X45690050Y30700680D01*
X45639016Y30577474D01*
X45613000Y30446679D01*
X38921033Y30446679D01*
X38900984Y30547474D01*
X38849950Y30670680D01*
X38775860Y30781563D01*
X38681563Y30875860D01*
X38570680Y30949950D01*
X38447474Y31000984D01*
X38316679Y31027000D01*
X38183321Y31027000D01*
X38052526Y31000984D01*
X37929320Y30949950D01*
X37818437Y30875860D01*
X37790000Y30847423D01*
X37761563Y30875860D01*
X37650680Y30949950D01*
X37527474Y31000984D01*
X37396679Y31027000D01*
X37263321Y31027000D01*
X37132526Y31000984D01*
X37009320Y30949950D01*
X36898437Y30875860D01*
X36840000Y30817423D01*
X36751563Y30905860D01*
X36640680Y30979950D01*
X36517474Y31030984D01*
X36386679Y31057000D01*
X36253321Y31057000D01*
X36122526Y31030984D01*
X35999320Y30979950D01*
X35888437Y30905860D01*
X35794140Y30811563D01*
X35720050Y30700680D01*
X35669016Y30577474D01*
X35643000Y30446679D01*
X28933022Y30446679D01*
X28910984Y30557474D01*
X28859950Y30680680D01*
X28785860Y30791563D01*
X28691563Y30885860D01*
X28580680Y30959950D01*
X28457474Y31010984D01*
X28326679Y31037000D01*
X28193321Y31037000D01*
X28062526Y31010984D01*
X27939320Y30959950D01*
X27828437Y30885860D01*
X27800000Y30857423D01*
X27771563Y30885860D01*
X27660680Y30959950D01*
X27537474Y31010984D01*
X27406679Y31037000D01*
X27273321Y31037000D01*
X27142526Y31010984D01*
X27019320Y30959950D01*
X26908437Y30885860D01*
X26855000Y30832423D01*
X26781563Y30905860D01*
X26670680Y30979950D01*
X26547474Y31030984D01*
X26416679Y31057000D01*
X26283321Y31057000D01*
X26152526Y31030984D01*
X26029320Y30979950D01*
X25918437Y30905860D01*
X25824140Y30811563D01*
X25750050Y30700680D01*
X25699016Y30577474D01*
X25673000Y30446679D01*
X18945066Y30446679D01*
X18930984Y30517474D01*
X18879950Y30640680D01*
X18805860Y30751563D01*
X18711563Y30845860D01*
X18600680Y30919950D01*
X18477474Y30970984D01*
X18346679Y30997000D01*
X18213321Y30997000D01*
X18082526Y30970984D01*
X17959320Y30919950D01*
X17848437Y30845860D01*
X17820000Y30817423D01*
X17791563Y30845860D01*
X17680680Y30919950D01*
X17557474Y30970984D01*
X17426679Y30997000D01*
X17293321Y30997000D01*
X17162526Y30970984D01*
X17039320Y30919950D01*
X16928437Y30845860D01*
X16877187Y30794610D01*
X16865860Y30811563D01*
X16771563Y30905860D01*
X16660680Y30979950D01*
X16537474Y31030984D01*
X16406679Y31057000D01*
X16273321Y31057000D01*
X16142526Y31030984D01*
X16019320Y30979950D01*
X15908437Y30905860D01*
X15814140Y30811563D01*
X15740050Y30700680D01*
X15689016Y30577474D01*
X15663000Y30446679D01*
X10451320Y30446679D01*
X10451353Y31366679D01*
X55923000Y31366679D01*
X55923000Y31233321D01*
X55949016Y31102526D01*
X56000050Y30979320D01*
X56074140Y30868437D01*
X56168437Y30774140D01*
X56279320Y30700050D01*
X56402526Y30649016D01*
X56533321Y30623000D01*
X56666679Y30623000D01*
X56797474Y30649016D01*
X56920680Y30700050D01*
X57031563Y30774140D01*
X57080000Y30822577D01*
X57128437Y30774140D01*
X57239320Y30700050D01*
X57362526Y30649016D01*
X57493321Y30623000D01*
X57626679Y30623000D01*
X57757474Y30649016D01*
X57880680Y30700050D01*
X57991563Y30774140D01*
X58085860Y30868437D01*
X58159950Y30979320D01*
X58210984Y31102526D01*
X58237000Y31233321D01*
X58237000Y31366679D01*
X58210984Y31497474D01*
X58159950Y31620680D01*
X58085860Y31731563D01*
X57991563Y31825860D01*
X57880680Y31899950D01*
X57757474Y31950984D01*
X57626679Y31977000D01*
X57493321Y31977000D01*
X57362526Y31950984D01*
X57239320Y31899950D01*
X57128437Y31825860D01*
X57080000Y31777423D01*
X57031563Y31825860D01*
X56920680Y31899950D01*
X56797474Y31950984D01*
X56666679Y31977000D01*
X56533321Y31977000D01*
X56402526Y31950984D01*
X56279320Y31899950D01*
X56168437Y31825860D01*
X56074140Y31731563D01*
X56000050Y31620680D01*
X55949016Y31497474D01*
X55923000Y31366679D01*
X10451353Y31366679D01*
X10451374Y31917874D01*
X10482996Y32240374D01*
X10570230Y32529309D01*
X10711924Y32795796D01*
X10902679Y33029685D01*
X11135233Y33222070D01*
X11400725Y33365622D01*
X11689042Y33454871D01*
X12010187Y33488624D01*
X63977891Y33488624D01*
X64300374Y33457004D01*
G37*
G04 #@! TD.AperFunction*
G04 #@! TD*
M02*
