G04 #@! TF.GenerationSoftware,KiCad,Pcbnew,(5.1.8)-1*
G04 #@! TF.CreationDate,2021-09-21T14:18:05+08:00*
G04 #@! TF.ProjectId,PowerSupply,506f7765-7253-4757-9070-6c792e6b6963,rev?*
G04 #@! TF.SameCoordinates,PX5e56640PY77750e0*
G04 #@! TF.FileFunction,Copper,L3,Inr*
G04 #@! TF.FilePolarity,Positive*
%FSLAX46Y46*%
G04 Gerber Fmt 4.6, Leading zero omitted, Abs format (unit mm)*
G04 Created by KiCad (PCBNEW (5.1.8)-1) date 2021-09-21 14:18:05*
%MOMM*%
%LPD*%
G01*
G04 APERTURE LIST*
G04 #@! TA.AperFunction,ViaPad*
%ADD10C,0.500000*%
G04 #@! TD*
G04 #@! TA.AperFunction,Conductor*
%ADD11C,0.600000*%
G04 #@! TD*
G04 #@! TA.AperFunction,Conductor*
%ADD12C,0.450000*%
G04 #@! TD*
G04 #@! TA.AperFunction,Conductor*
%ADD13C,0.500000*%
G04 #@! TD*
G04 #@! TA.AperFunction,Conductor*
%ADD14C,0.254000*%
G04 #@! TD*
G04 #@! TA.AperFunction,Conductor*
%ADD15C,0.100000*%
G04 #@! TD*
G04 APERTURE END LIST*
D10*
G04 #@! TO.N,GND*
X57060000Y29060000D03*
X57740000Y27470000D03*
X57065000Y27470000D03*
X56390001Y27480000D03*
X12160000Y33320000D03*
X13160000Y33320000D03*
X14160000Y33320000D03*
X15160000Y33320000D03*
X16160000Y33320000D03*
X17160000Y33320000D03*
X18160000Y33320000D03*
X19160000Y33320000D03*
X20160000Y33320000D03*
X21160000Y33320000D03*
X22160000Y33320000D03*
X23160000Y33320000D03*
X24160000Y33320000D03*
X25160000Y33320000D03*
X26160000Y33320000D03*
X27160000Y33320000D03*
X28160000Y33320000D03*
X29160000Y33320000D03*
X30160000Y33320000D03*
X31160000Y33320000D03*
X32160000Y33320000D03*
X33160000Y33320000D03*
X34160000Y33320000D03*
X35160000Y33320000D03*
X36160000Y33320000D03*
X37160000Y33320000D03*
X38160000Y33320000D03*
X39160000Y33320000D03*
X40160000Y33320000D03*
X41160000Y33320000D03*
X42160000Y33320000D03*
X43160000Y33320000D03*
X44160000Y33320000D03*
X45160000Y33320000D03*
X46160000Y33320000D03*
X47160000Y33320000D03*
X48160000Y33320000D03*
X49160000Y33320000D03*
X50160000Y33320000D03*
X51160000Y33320000D03*
X52160000Y33320000D03*
X53160000Y33320000D03*
X54160000Y33320000D03*
X55160000Y33320000D03*
X56160000Y33320000D03*
X57160000Y33320000D03*
X58160000Y33320000D03*
X59160000Y33320000D03*
X60160000Y33320000D03*
X61160000Y33320000D03*
X12290000Y32130000D03*
X13160000Y32320000D03*
X14160000Y32320000D03*
X15160000Y32320000D03*
X16160000Y32320000D03*
X17160000Y32320000D03*
X18160000Y32320000D03*
X19160000Y32320000D03*
X20160000Y32320000D03*
X21160000Y32320000D03*
X22160000Y32320000D03*
X23160000Y32320000D03*
X24160000Y32320000D03*
X25160000Y32320000D03*
X26160000Y32320000D03*
X27160000Y32320000D03*
X28160000Y32320000D03*
X29160000Y32320000D03*
X30160000Y32320000D03*
X31160000Y32320000D03*
X32160000Y32320000D03*
X33160000Y32320000D03*
X34160000Y32320000D03*
X35160000Y32320000D03*
X36160000Y32320000D03*
X37160000Y32320000D03*
X38160000Y32320000D03*
X39160000Y32320000D03*
X40160000Y32320000D03*
X41160000Y32320000D03*
X42160000Y32320000D03*
X43160000Y32320000D03*
X44160000Y32320000D03*
X45160000Y32320000D03*
X46160000Y32320000D03*
X47160000Y32320000D03*
X48160000Y32320000D03*
X49160000Y32320000D03*
X50160000Y32320000D03*
X51160000Y32320000D03*
X52160000Y32320000D03*
X53160000Y32320000D03*
X54160000Y32320000D03*
X55160000Y32320000D03*
X56160000Y32320000D03*
X57160000Y32320000D03*
X58160000Y32320000D03*
X59160000Y32320000D03*
X60160000Y32320000D03*
X61160000Y32320000D03*
X62160000Y32320000D03*
X62160000Y33320000D03*
X63160000Y32320000D03*
X63160000Y33320000D03*
X63860000Y32050000D03*
X64160000Y33320000D03*
X11300000Y33020000D03*
X10670000Y31600000D03*
X11780000Y31470000D03*
X10690000Y30590000D03*
X11690000Y30590000D03*
X10690000Y28590000D03*
X11690000Y28590000D03*
X10690000Y27590000D03*
X11690000Y27590000D03*
X10690000Y26590000D03*
X11690000Y26590000D03*
X10690000Y25590000D03*
X11690000Y25590000D03*
X10690000Y24590000D03*
X11690000Y24590000D03*
X10690000Y23590000D03*
X11690000Y23590000D03*
X10690000Y22590000D03*
X11690000Y22590000D03*
X10690000Y21590000D03*
X11690000Y21590000D03*
X10690000Y20590000D03*
X11690000Y20590000D03*
X10690000Y19590000D03*
X11690000Y19590000D03*
X10690000Y18590000D03*
X11690000Y18590000D03*
X10690000Y17590000D03*
X11690000Y17590000D03*
X10690000Y16590000D03*
X11690000Y16590000D03*
X10690000Y15590000D03*
X11690000Y15590000D03*
X10690000Y14590000D03*
X11690000Y14590000D03*
X10690000Y13590000D03*
X11690000Y13590000D03*
X10690000Y12590000D03*
X11690000Y12590000D03*
X11690000Y11590000D03*
X41690000Y11590000D03*
X42690000Y11590000D03*
X43690000Y11590000D03*
X44690000Y11590000D03*
X45690000Y11590000D03*
X46690000Y11590000D03*
X47690000Y11590000D03*
X48690000Y11590000D03*
X49690000Y11590000D03*
X50690000Y11590000D03*
X51690000Y11590000D03*
X52690000Y11590000D03*
X53690000Y11590000D03*
X54690000Y11590000D03*
X55690000Y11590000D03*
X56690000Y11590000D03*
X57690000Y11590000D03*
X58690000Y11590000D03*
X59690000Y11590000D03*
X60690000Y11590000D03*
X61690000Y11590000D03*
X62690000Y11590000D03*
X63600000Y11860000D03*
X33690000Y10590000D03*
X34690000Y10590000D03*
X35690000Y10590000D03*
X36690000Y10590000D03*
X37690000Y10590000D03*
X38690000Y10590000D03*
X39690000Y10590000D03*
X40690000Y10590000D03*
X41690000Y10590000D03*
X42690000Y10590000D03*
X43690000Y10590000D03*
X44690000Y10590000D03*
X45690000Y10590000D03*
X46690000Y10590000D03*
X47690000Y10590000D03*
X48690000Y10590000D03*
X49690000Y10590000D03*
X50690000Y10590000D03*
X51690000Y10590000D03*
X52690000Y10590000D03*
X53690000Y10590000D03*
X54690000Y10590000D03*
X55690000Y10590000D03*
X56690000Y10590000D03*
X57690000Y10590000D03*
X58690000Y10590000D03*
X59690000Y10590000D03*
X60690000Y10590000D03*
X61690000Y10590000D03*
X62690000Y10590000D03*
X63690000Y10590000D03*
X64870000Y32980000D03*
X64290000Y31450000D03*
X65380000Y31520000D03*
X64390000Y30490000D03*
X65380000Y30500000D03*
X64390000Y28490000D03*
X65390000Y28490000D03*
X64390000Y27490000D03*
X65390000Y27490000D03*
X64390000Y26490000D03*
X65390000Y26490000D03*
X64390000Y25490000D03*
X65390000Y25490000D03*
X64390000Y24490000D03*
X65390000Y24490000D03*
X64390000Y23490000D03*
X65390000Y23490000D03*
X64390000Y22490000D03*
X65390000Y22490000D03*
X64390000Y21490000D03*
X65390000Y21490000D03*
X64390000Y20490000D03*
X65390000Y20490000D03*
X64390000Y19490000D03*
X65390000Y19490000D03*
X64390000Y18490000D03*
X65390000Y18490000D03*
X64390000Y17490000D03*
X65390000Y17490000D03*
X64390000Y16490000D03*
X65390000Y16490000D03*
X64390000Y15490000D03*
X65390000Y15490000D03*
X64390000Y14490000D03*
X65390000Y14490000D03*
X64390000Y13490000D03*
X65390000Y13490000D03*
X64210000Y12480000D03*
X65390000Y12550000D03*
X65320000Y11760000D03*
X64440000Y10700000D03*
X57075000Y26693334D03*
X57750000Y26693334D03*
X56400000Y26703334D03*
X57065000Y25916668D03*
X56390001Y25926668D03*
X57740000Y25916668D03*
X56390000Y25150000D03*
X57065000Y25140000D03*
X57740000Y25140000D03*
X57019999Y18505001D03*
X57570000Y18505000D03*
X56470000Y18505001D03*
X57029999Y17805001D03*
X56480000Y17805001D03*
X57580000Y17805000D03*
X11690000Y29590000D03*
X10690000Y29590000D03*
X65390000Y29490000D03*
X64390000Y29490000D03*
X57429999Y14305001D03*
X57970000Y15005000D03*
X56870000Y15005001D03*
X56880000Y14305001D03*
X57980000Y14305000D03*
X57419999Y15005001D03*
X57970000Y13605000D03*
X57419999Y13605001D03*
X56880000Y12905001D03*
X57980000Y12905000D03*
X56870000Y13605001D03*
X57429999Y12905001D03*
X58680000Y12905001D03*
X59219999Y13605001D03*
X59770000Y13605000D03*
X59780000Y12905000D03*
X58670000Y13605001D03*
X59229999Y12905001D03*
X59219999Y15005001D03*
X59780000Y14305000D03*
X59229999Y14305001D03*
X58670000Y15005001D03*
X59770000Y15005000D03*
X58680000Y14305001D03*
X21660000Y32820000D03*
X36660000Y32820000D03*
X52660000Y32820000D03*
X53660000Y32820000D03*
X54660000Y32820000D03*
X59660000Y32820000D03*
X43660000Y32820000D03*
X44660000Y32820000D03*
X48660000Y32820000D03*
X19660000Y32820000D03*
X51660000Y32820000D03*
X28660000Y32820000D03*
X56660000Y32820000D03*
X22660000Y32820000D03*
X37660000Y32820000D03*
X27660000Y32820000D03*
X55660000Y32820000D03*
X39660000Y32820000D03*
X46660000Y32820000D03*
X50660000Y32820000D03*
X31660000Y32820000D03*
X20660000Y32820000D03*
X23660000Y32820000D03*
X34660000Y32820000D03*
X32660000Y32820000D03*
X29660000Y32820000D03*
X57660000Y32820000D03*
X61660000Y32820000D03*
X45660000Y32820000D03*
X49660000Y32820000D03*
X41660000Y32820000D03*
X18660000Y32820000D03*
X60660000Y32820000D03*
X30660000Y32820000D03*
X42660000Y32820000D03*
X24660000Y32820000D03*
X58660000Y32820000D03*
X40660000Y32820000D03*
X33660000Y32820000D03*
X25660000Y32820000D03*
X35660000Y32820000D03*
X26660000Y32820000D03*
X38660000Y32820000D03*
X47660000Y32820000D03*
X62660000Y32820000D03*
X63660000Y32820000D03*
X64370000Y32530000D03*
X12590000Y32770000D03*
X13660000Y32820000D03*
X14660000Y32820000D03*
X15660000Y32820000D03*
X16660000Y32820000D03*
X17660000Y32820000D03*
X64770000Y31920000D03*
X64890000Y31060000D03*
X64900000Y29990000D03*
X64890000Y17980000D03*
X64890000Y13980000D03*
X64100000Y11360000D03*
X64890000Y27980000D03*
X64890000Y21980000D03*
X64890000Y25980000D03*
X64890000Y20980000D03*
X64890000Y15980000D03*
X64820000Y12910000D03*
X64890000Y14980000D03*
X64890000Y24980000D03*
X64890000Y23980000D03*
X64890000Y19980000D03*
X64890000Y16980000D03*
X64890000Y22980000D03*
X64890000Y18980000D03*
X64890000Y26980000D03*
X64890000Y28980000D03*
X10850000Y32400000D03*
X11190000Y27110000D03*
X11190000Y20110000D03*
X11190000Y29110000D03*
X11190000Y19110000D03*
X11190000Y31110000D03*
X11190000Y28110000D03*
X11190000Y26110000D03*
X11190000Y24110000D03*
X11190000Y23110000D03*
X11190000Y22110000D03*
X11190000Y21110000D03*
X11190000Y25110000D03*
X11190000Y15110000D03*
X11190000Y13110000D03*
X11190000Y14110000D03*
X11190000Y17110000D03*
X11190000Y18110000D03*
X11190000Y16110000D03*
X11190000Y30110000D03*
X11190000Y12090000D03*
X47210000Y11080000D03*
X54210000Y11080000D03*
X41210000Y11080000D03*
X43210000Y11080000D03*
X62210000Y11080000D03*
X55210000Y11080000D03*
X48210000Y11080000D03*
X61210000Y11080000D03*
X49210000Y11080000D03*
X51210000Y11080000D03*
X58210000Y11080000D03*
X57210000Y11080000D03*
X56210000Y11080000D03*
X50210000Y11080000D03*
X42210000Y11080000D03*
X44210000Y11080000D03*
X45210000Y11080000D03*
X46210000Y11080000D03*
X60210000Y11080000D03*
X53210000Y11080000D03*
X59210000Y11080000D03*
X63210000Y11080000D03*
X52210000Y11080000D03*
X11800000Y32570000D03*
X11360000Y31990000D03*
X65310000Y32360000D03*
X64650000Y11940000D03*
X64980000Y11120000D03*
X57019999Y19895001D03*
X56480000Y19195001D03*
X56470000Y19895001D03*
X57570000Y19895000D03*
X57580000Y19195000D03*
X57029999Y19195001D03*
X55279999Y19895001D03*
X54740000Y19195001D03*
X55840000Y19195000D03*
X55830000Y19895000D03*
X54730000Y19895001D03*
X55289999Y19195001D03*
X53590000Y19195001D03*
X54139999Y19195001D03*
X53580000Y19895001D03*
X54129999Y19895001D03*
X17140000Y23810000D03*
X16520000Y23810000D03*
X17750000Y23810000D03*
X18380000Y23810000D03*
X26480000Y23800000D03*
X27710000Y23800000D03*
X27100000Y23800000D03*
X28340000Y23800000D03*
X36430000Y23810000D03*
X37660000Y23810000D03*
X38290000Y23810000D03*
X37050000Y23810000D03*
X46450000Y23820000D03*
X48310000Y23820000D03*
X47680000Y23820000D03*
X47070000Y23820000D03*
X50620000Y24510000D03*
X51010000Y24130000D03*
X36430000Y24410000D03*
X26480000Y24410000D03*
X46450000Y24380000D03*
X16520000Y24390000D03*
X43650000Y29550000D03*
X43120000Y29550000D03*
X20490000Y30430000D03*
X21090000Y30430000D03*
X19890000Y30430000D03*
X31110000Y30430000D03*
X29910000Y30430000D03*
X30510000Y30430000D03*
X40440000Y30430000D03*
X41040000Y30430000D03*
X39840000Y30430000D03*
X51050000Y30430000D03*
X50450000Y30430000D03*
X49850000Y30430000D03*
X44180000Y29550000D03*
X33630000Y29550000D03*
X33100000Y29550000D03*
X34160000Y29550000D03*
X23610000Y29550000D03*
X23080000Y29550000D03*
X24140000Y29550000D03*
X51440000Y23790000D03*
G04 #@! TO.N,+3V3*
X46290000Y30380000D03*
X45380000Y23780000D03*
G04 #@! TO.N,+5V*
X17360000Y30320000D03*
X18280000Y30320000D03*
X54260000Y25280000D03*
X54750000Y25500000D03*
X53190000Y27390000D03*
X52090000Y27390000D03*
X52640000Y27390000D03*
X53190000Y26880000D03*
X52090000Y26880000D03*
X53190000Y26303334D03*
X28260000Y30360000D03*
X27340000Y30360000D03*
X38250000Y30350000D03*
X37330000Y30350000D03*
X47320000Y30380000D03*
X48240000Y30380000D03*
X20470000Y25720000D03*
X52650000Y26880000D03*
X53190000Y25790000D03*
X53190000Y25280000D03*
X53730000Y25280000D03*
X53620000Y24720000D03*
X54150000Y24720000D03*
X54150000Y24120000D03*
X53640000Y24120000D03*
X21070000Y25720000D03*
X21670000Y25720000D03*
X22270000Y25720000D03*
X20470000Y25120000D03*
X21070000Y25120000D03*
X21670000Y25120000D03*
X22270000Y25120000D03*
X30390000Y25700000D03*
X30390000Y25100000D03*
X30990000Y25700000D03*
X31590000Y25700000D03*
X32190000Y25100000D03*
X32190000Y25700000D03*
X31590000Y25100000D03*
X30990000Y25100000D03*
X40460000Y25100000D03*
X42260000Y25700000D03*
X41060000Y25100000D03*
X41660000Y25700000D03*
X41060000Y25700000D03*
X41660000Y25100000D03*
X42260000Y25100000D03*
X40460000Y25700000D03*
X39870000Y25700000D03*
X29780000Y25700000D03*
X19850000Y25730000D03*
X20190000Y26630000D03*
X30070000Y26610000D03*
X40180000Y26650000D03*
G04 #@! TO.N,+1V2*
X16340000Y30380000D03*
X14160000Y29190000D03*
G04 #@! TO.N,+1V5*
X26350000Y30380000D03*
X25385000Y23775000D03*
G04 #@! TO.N,+2V5*
X36320000Y30380000D03*
X35335000Y23755000D03*
G04 #@! TO.N,Net-(C3-Pad1)*
X56600000Y31300000D03*
X54750000Y27700000D03*
G04 #@! TO.N,Net-(R34-Pad2)*
X54740000Y26940000D03*
X57560000Y31300000D03*
G04 #@! TO.N,REG_EN2*
X26050000Y8690000D03*
X52925000Y15350000D03*
G04 #@! TO.N,REG_EN1*
X27050000Y9630000D03*
X53420000Y17785000D03*
G04 #@! TO.N,REG_CHG*
X28043332Y10610000D03*
X53920000Y15345000D03*
G04 #@! TO.N,REG_POWER*
X29044998Y11945000D03*
X54420000Y17785000D03*
G04 #@! TO.N,BAT_ISET*
X30046664Y11945000D03*
X54920000Y15345000D03*
G04 #@! TO.N,BAT_PG*
X31048330Y11945000D03*
X55420000Y17785000D03*
G04 #@! TO.N,BAT_CHG*
X32060000Y11945000D03*
X55920000Y15345000D03*
G04 #@! TD*
D11*
G04 #@! TO.N,+3V3*
X45380000Y27730000D02*
X45380000Y23780000D01*
X46290000Y28640000D02*
X45380000Y27730000D01*
X46290000Y30380000D02*
X46290000Y28640000D01*
G04 #@! TO.N,+5V*
X53170000Y27440000D02*
X53190000Y27440000D01*
X28260000Y30360000D02*
X27340000Y30360000D01*
X37330000Y30350000D02*
X38250000Y30350000D01*
X18280000Y30320000D02*
X17360000Y30320000D01*
X17830000Y30210000D02*
X17830000Y28060000D01*
X27780000Y30250000D02*
X27780000Y28100000D01*
X52540000Y28090000D02*
X53190000Y27440000D01*
X52090000Y28090000D02*
X52540000Y28090000D01*
X47320000Y30380000D02*
X48240000Y30380000D01*
X53190000Y26340000D02*
X53120000Y26270000D01*
X53190000Y27440000D02*
X53190000Y26340000D01*
X52400000Y27680000D02*
X53050000Y27030000D01*
X52280000Y27320000D02*
X52930000Y26670000D01*
X38250000Y28430000D02*
X38250000Y30350000D01*
X40160000Y26520000D02*
X38250000Y28430000D01*
X37330000Y28170000D02*
X40140000Y25360000D01*
X37330000Y30350000D02*
X37330000Y28170000D01*
X40400000Y25100000D02*
X40140000Y25360000D01*
X42210000Y25100000D02*
X40400000Y25100000D01*
X41060000Y25620000D02*
X40160000Y26520000D01*
X42210000Y25620000D02*
X41060000Y25620000D01*
X42210000Y25100000D02*
X42210000Y25620000D01*
X37850000Y28130000D02*
X40660000Y25320000D01*
X37730000Y30190000D02*
X37730000Y28010000D01*
X41690000Y26140000D02*
X42210000Y25620000D01*
X41670000Y26140000D02*
X41690000Y26140000D01*
X40540000Y26140000D02*
X40160000Y26520000D01*
X41670000Y26140000D02*
X40540000Y26140000D01*
X30120000Y25380000D02*
X30120000Y25360000D01*
X27340000Y28160000D02*
X30120000Y25380000D01*
X27340000Y30360000D02*
X27340000Y28160000D01*
X30380000Y25100000D02*
X30120000Y25360000D01*
X32190000Y25100000D02*
X30380000Y25100000D01*
X32190000Y25100000D02*
X32190000Y25620000D01*
X31040000Y25620000D02*
X30140000Y26520000D01*
X32190000Y25620000D02*
X31040000Y25620000D01*
X28260000Y28400000D02*
X30140000Y26520000D01*
X28260000Y30360000D02*
X28260000Y28400000D01*
X31670000Y26140000D02*
X32190000Y25620000D01*
X31650000Y26140000D02*
X31670000Y26140000D01*
X30520000Y26140000D02*
X30140000Y26520000D01*
X31650000Y26140000D02*
X30520000Y26140000D01*
X27880000Y28220000D02*
X30660000Y25440000D01*
X20200000Y25390000D02*
X20200000Y25370000D01*
X17360000Y28230000D02*
X20200000Y25390000D01*
X17360000Y30320000D02*
X17360000Y28230000D01*
X18280000Y28460000D02*
X20220000Y26520000D01*
X18280000Y30320000D02*
X18280000Y28460000D01*
X20460000Y25110000D02*
X20200000Y25370000D01*
X22270000Y25110000D02*
X20460000Y25110000D01*
X22270000Y25110000D02*
X22270000Y25630000D01*
X21750000Y26150000D02*
X22270000Y25630000D01*
X21730000Y26150000D02*
X21750000Y26150000D01*
X20590000Y26150000D02*
X20220000Y26520000D01*
X21730000Y26150000D02*
X20590000Y26150000D01*
X22030000Y25630000D02*
X20220000Y25630000D01*
X17770000Y28410000D02*
X20610000Y25570000D01*
X52710000Y26270000D02*
X52090000Y26890000D01*
X53120000Y26270000D02*
X52710000Y26270000D01*
X52090000Y26890000D02*
X52090000Y28090000D01*
X49520000Y27490000D02*
X52090000Y27490000D01*
X47750000Y29260000D02*
X49520000Y27490000D01*
X47750000Y30350000D02*
X47750000Y29260000D01*
X51900000Y27900000D02*
X52090000Y28090000D01*
X49880000Y27900000D02*
X51900000Y27900000D01*
X48240000Y29540000D02*
X49880000Y27900000D01*
X48240000Y30380000D02*
X48240000Y29540000D01*
X52080000Y26900000D02*
X52090000Y26890000D01*
X49570000Y26900000D02*
X52080000Y26900000D01*
X47320000Y29150000D02*
X49570000Y26900000D01*
X47320000Y30380000D02*
X47320000Y29150000D01*
D12*
G04 #@! TO.N,+1V2*
X15740000Y29190000D02*
X14160000Y29190000D01*
X16340000Y29790000D02*
X15740000Y29190000D01*
X16340000Y30380000D02*
X16340000Y29790000D01*
D11*
G04 #@! TO.N,+1V5*
X25385000Y27435000D02*
X25385000Y23775000D01*
X26350000Y28400000D02*
X25385000Y27435000D01*
X26350000Y30380000D02*
X26350000Y28400000D01*
G04 #@! TO.N,+2V5*
X35335000Y27505000D02*
X35335000Y23755000D01*
X36320000Y28490000D02*
X35335000Y27505000D01*
X36320000Y30380000D02*
X36320000Y28490000D01*
D13*
G04 #@! TO.N,Net-(C3-Pad1)*
X56600000Y31300000D02*
X54760000Y29460000D01*
X54760000Y29460000D02*
X54760000Y27710000D01*
X54760000Y27710000D02*
X54750000Y27700000D01*
G04 #@! TO.N,Net-(R34-Pad2)*
X57560000Y30920000D02*
X57560000Y31300000D01*
X55580000Y28940000D02*
X57560000Y30920000D01*
X55580000Y27410000D02*
X55580000Y28940000D01*
X55110000Y26940000D02*
X55580000Y27410000D01*
X54740000Y26940000D02*
X55110000Y26940000D01*
G04 #@! TO.N,REG_EN2*
X26050000Y12975000D02*
X26050000Y8690000D01*
X28425000Y15350000D02*
X26050000Y12975000D01*
X52925000Y15350000D02*
X28425000Y15350000D01*
G04 #@! TO.N,REG_CHG*
X28043332Y12693332D02*
X28043332Y10610000D01*
X29800000Y14450000D02*
X28043332Y12693332D01*
X53425000Y14450000D02*
X29800000Y14450000D01*
X53920000Y14945000D02*
X53425000Y14450000D01*
X53920000Y15345000D02*
X53920000Y14945000D01*
G04 #@! TO.N,BAT_ISET*
X30046664Y12356664D02*
X30046664Y11945000D01*
X31215000Y13525000D02*
X30046664Y12356664D01*
X54275000Y13525000D02*
X31215000Y13525000D01*
X54920000Y14170000D02*
X54275000Y13525000D01*
X54920000Y15345000D02*
X54920000Y14170000D01*
G04 #@! TO.N,BAT_CHG*
X32725000Y12625000D02*
X32050000Y11950000D01*
X54700000Y12625000D02*
X32725000Y12625000D01*
X55920000Y13845000D02*
X54700000Y12625000D01*
X55920000Y15345000D02*
X55920000Y13845000D01*
G04 #@! TD*
D14*
G04 #@! TO.N,GND*
X64300374Y33457004D02*
X64589309Y33369770D01*
X64855796Y33228076D01*
X65089685Y33037321D01*
X65282070Y32804767D01*
X65425622Y32539275D01*
X65514871Y32250958D01*
X65548624Y31929813D01*
X65548001Y12022124D01*
X65516379Y11699622D01*
X65429145Y11410690D01*
X65287452Y11144204D01*
X65096697Y10910315D01*
X64864143Y10717930D01*
X64598650Y10574378D01*
X64310334Y10485129D01*
X63989185Y10451376D01*
X32853177Y10451997D01*
X32793507Y10470097D01*
X32700000Y10479307D01*
X32606492Y10470097D01*
X32516577Y10442822D01*
X32433711Y10398529D01*
X32395293Y10367000D01*
X28677081Y10367000D01*
X28681521Y10381636D01*
X28694316Y10412526D01*
X28700838Y10445315D01*
X28710536Y10477285D01*
X28713811Y10510536D01*
X28720332Y10543321D01*
X28720332Y11347713D01*
X28724318Y11345050D01*
X28847524Y11294016D01*
X28978319Y11268000D01*
X29111677Y11268000D01*
X29242472Y11294016D01*
X29365678Y11345050D01*
X29476561Y11419140D01*
X29545695Y11488274D01*
X29565638Y11463973D01*
X29591458Y11442783D01*
X29615101Y11419140D01*
X29642901Y11400565D01*
X29668724Y11379372D01*
X29698184Y11363625D01*
X29725984Y11345050D01*
X29756876Y11332254D01*
X29786335Y11316508D01*
X29818298Y11306812D01*
X29849190Y11294016D01*
X29881982Y11287493D01*
X29913950Y11277796D01*
X29947199Y11274521D01*
X29979985Y11268000D01*
X30013412Y11268000D01*
X30046664Y11264725D01*
X30079916Y11268000D01*
X30113343Y11268000D01*
X30146128Y11274521D01*
X30179379Y11277796D01*
X30211349Y11287494D01*
X30244138Y11294016D01*
X30275028Y11306811D01*
X30306994Y11316508D01*
X30336456Y11332256D01*
X30367344Y11345050D01*
X30395140Y11363623D01*
X30424605Y11379372D01*
X30450433Y11400568D01*
X30478227Y11419140D01*
X30501865Y11442778D01*
X30527691Y11463973D01*
X30547634Y11488273D01*
X30616767Y11419140D01*
X30727650Y11345050D01*
X30850856Y11294016D01*
X30981651Y11268000D01*
X31115009Y11268000D01*
X31245804Y11294016D01*
X31369010Y11345050D01*
X31479893Y11419140D01*
X31551282Y11490529D01*
X31568973Y11468973D01*
X31622680Y11424897D01*
X31628437Y11419140D01*
X31635207Y11414617D01*
X31672060Y11384372D01*
X31714102Y11361900D01*
X31739320Y11345050D01*
X31767344Y11333442D01*
X31789671Y11321508D01*
X31813896Y11314159D01*
X31862526Y11294016D01*
X31914147Y11283748D01*
X31917286Y11282796D01*
X31920551Y11282474D01*
X31993321Y11268000D01*
X32126679Y11268000D01*
X32257474Y11294016D01*
X32380680Y11345050D01*
X32491563Y11419140D01*
X32585860Y11513437D01*
X32616067Y11558645D01*
X33005422Y11948000D01*
X54666755Y11948000D01*
X54700000Y11944726D01*
X54733245Y11948000D01*
X54733252Y11948000D01*
X54832715Y11957796D01*
X54960330Y11996508D01*
X55077941Y12059372D01*
X55181027Y12143973D01*
X55202226Y12169804D01*
X56375201Y13342778D01*
X56401027Y13363973D01*
X56424263Y13392285D01*
X56485628Y13467059D01*
X56548492Y13584670D01*
X56587204Y13712285D01*
X56600275Y13845000D01*
X56597000Y13878252D01*
X56597000Y15411679D01*
X56590479Y15444464D01*
X56587204Y15477715D01*
X56577506Y15509685D01*
X56570984Y15542474D01*
X56558189Y15573364D01*
X56548492Y15605330D01*
X56532744Y15634792D01*
X56519950Y15665680D01*
X56501377Y15693476D01*
X56485628Y15722941D01*
X56464433Y15748767D01*
X56445860Y15776563D01*
X56422218Y15800205D01*
X56401026Y15826027D01*
X56375206Y15847217D01*
X56351563Y15870860D01*
X56323763Y15889435D01*
X56297940Y15910628D01*
X56268480Y15926375D01*
X56240680Y15944950D01*
X56209788Y15957746D01*
X56180329Y15973492D01*
X56148366Y15983188D01*
X56117474Y15995984D01*
X56084682Y16002507D01*
X56052714Y16012204D01*
X56019465Y16015479D01*
X55986679Y16022000D01*
X55953252Y16022000D01*
X55920000Y16025275D01*
X55886748Y16022000D01*
X55853321Y16022000D01*
X55820536Y16015479D01*
X55787285Y16012204D01*
X55755315Y16002506D01*
X55722526Y15995984D01*
X55691636Y15983189D01*
X55659670Y15973492D01*
X55630208Y15957744D01*
X55599320Y15944950D01*
X55571524Y15926377D01*
X55542059Y15910628D01*
X55516233Y15889433D01*
X55488437Y15870860D01*
X55464795Y15847218D01*
X55438973Y15826026D01*
X55420000Y15802907D01*
X55401026Y15826027D01*
X55375206Y15847217D01*
X55351563Y15870860D01*
X55323763Y15889435D01*
X55297940Y15910628D01*
X55268480Y15926375D01*
X55240680Y15944950D01*
X55209788Y15957746D01*
X55180329Y15973492D01*
X55148366Y15983188D01*
X55117474Y15995984D01*
X55084682Y16002507D01*
X55052714Y16012204D01*
X55019465Y16015479D01*
X54986679Y16022000D01*
X54953252Y16022000D01*
X54920000Y16025275D01*
X54886748Y16022000D01*
X54853321Y16022000D01*
X54820536Y16015479D01*
X54787285Y16012204D01*
X54755315Y16002506D01*
X54722526Y15995984D01*
X54691636Y15983189D01*
X54659670Y15973492D01*
X54630208Y15957744D01*
X54599320Y15944950D01*
X54571524Y15926377D01*
X54542059Y15910628D01*
X54516233Y15889433D01*
X54488437Y15870860D01*
X54464795Y15847218D01*
X54438973Y15826026D01*
X54420000Y15802907D01*
X54401026Y15826027D01*
X54375206Y15847217D01*
X54351563Y15870860D01*
X54323763Y15889435D01*
X54297940Y15910628D01*
X54268480Y15926375D01*
X54240680Y15944950D01*
X54209788Y15957746D01*
X54180329Y15973492D01*
X54148366Y15983188D01*
X54117474Y15995984D01*
X54084682Y16002507D01*
X54052714Y16012204D01*
X54019465Y16015479D01*
X53986679Y16022000D01*
X53953252Y16022000D01*
X53920000Y16025275D01*
X53886748Y16022000D01*
X53853321Y16022000D01*
X53820536Y16015479D01*
X53787285Y16012204D01*
X53755315Y16002506D01*
X53722526Y15995984D01*
X53691636Y15983189D01*
X53659670Y15973492D01*
X53630208Y15957744D01*
X53599320Y15944950D01*
X53571524Y15926377D01*
X53542059Y15910628D01*
X53516233Y15889433D01*
X53488437Y15870860D01*
X53464795Y15847218D01*
X53438973Y15826026D01*
X53424552Y15808454D01*
X53406027Y15831027D01*
X53380200Y15852223D01*
X53356563Y15875860D01*
X53328769Y15894432D01*
X53302941Y15915628D01*
X53273476Y15931377D01*
X53245680Y15949950D01*
X53214792Y15962744D01*
X53185330Y15978492D01*
X53153364Y15988189D01*
X53122474Y16000984D01*
X53089685Y16007506D01*
X53057715Y16017204D01*
X53024464Y16020479D01*
X52991679Y16027000D01*
X28458241Y16027000D01*
X28424999Y16030274D01*
X28391757Y16027000D01*
X28391748Y16027000D01*
X28292285Y16017204D01*
X28164670Y15978492D01*
X28047059Y15915628D01*
X27943973Y15831027D01*
X27922774Y15805196D01*
X25594800Y13477222D01*
X25568973Y13456026D01*
X25547778Y13430200D01*
X25547776Y13430198D01*
X25516662Y13392285D01*
X25484372Y13352940D01*
X25421508Y13235329D01*
X25382796Y13107714D01*
X25373000Y13008251D01*
X25373000Y13008245D01*
X25369726Y12975000D01*
X25373000Y12941755D01*
X25373001Y10367000D01*
X25093564Y10367000D01*
X25086767Y10369746D01*
X25046928Y10386494D01*
X25040560Y10388416D01*
X25040554Y10388418D01*
X25040548Y10388419D01*
X24862688Y10440766D01*
X24820198Y10448871D01*
X24777872Y10457560D01*
X24771244Y10458210D01*
X24586600Y10475014D01*
X24543368Y10474712D01*
X24500135Y10475014D01*
X24493507Y10474364D01*
X24309114Y10454983D01*
X24266754Y10446288D01*
X24224301Y10438190D01*
X24217933Y10436267D01*
X24217921Y10436264D01*
X24217910Y10436259D01*
X24040809Y10381438D01*
X24006462Y10367000D01*
X12809477Y10367000D01*
X12809087Y10369045D01*
X12807263Y10375086D01*
X12737970Y10598937D01*
X12722094Y10636705D01*
X12706748Y10674688D01*
X12703785Y10680260D01*
X12592332Y10886387D01*
X12569409Y10920372D01*
X12546992Y10954629D01*
X12543004Y10959519D01*
X12543003Y10959521D01*
X12542998Y10959526D01*
X12393635Y11140073D01*
X12364569Y11168938D01*
X12335904Y11198209D01*
X12331047Y11202227D01*
X12331041Y11202233D01*
X12331034Y11202237D01*
X12149449Y11350335D01*
X12115342Y11372996D01*
X12081525Y11396150D01*
X12075974Y11399152D01*
X11869074Y11509163D01*
X11831164Y11524789D01*
X11793544Y11540913D01*
X11787525Y11542776D01*
X11787515Y11542780D01*
X11787505Y11542782D01*
X11563189Y11610508D01*
X11522994Y11618467D01*
X11482928Y11626983D01*
X11476657Y11627642D01*
X11476654Y11627643D01*
X11476651Y11627643D01*
X11243440Y11650509D01*
X11054337Y11669050D01*
X10914867Y11711159D01*
X10786228Y11779558D01*
X10673326Y11871639D01*
X10580460Y11983893D01*
X10511164Y12112054D01*
X10468082Y12251228D01*
X10450668Y12416912D01*
X10450864Y17851679D01*
X52743000Y17851679D01*
X52743000Y17718321D01*
X52769016Y17587526D01*
X52820050Y17464320D01*
X52894140Y17353437D01*
X52988437Y17259140D01*
X53099320Y17185050D01*
X53222526Y17134016D01*
X53353321Y17108000D01*
X53486679Y17108000D01*
X53617474Y17134016D01*
X53740680Y17185050D01*
X53851563Y17259140D01*
X53920000Y17327577D01*
X53988437Y17259140D01*
X54099320Y17185050D01*
X54222526Y17134016D01*
X54353321Y17108000D01*
X54486679Y17108000D01*
X54617474Y17134016D01*
X54740680Y17185050D01*
X54851563Y17259140D01*
X54920000Y17327577D01*
X54988437Y17259140D01*
X55099320Y17185050D01*
X55222526Y17134016D01*
X55353321Y17108000D01*
X55486679Y17108000D01*
X55617474Y17134016D01*
X55740680Y17185050D01*
X55851563Y17259140D01*
X55945860Y17353437D01*
X56019950Y17464320D01*
X56070984Y17587526D01*
X56097000Y17718321D01*
X56097000Y17851679D01*
X56070984Y17982474D01*
X56019950Y18105680D01*
X55945860Y18216563D01*
X55851563Y18310860D01*
X55740680Y18384950D01*
X55617474Y18435984D01*
X55486679Y18462000D01*
X55353321Y18462000D01*
X55222526Y18435984D01*
X55099320Y18384950D01*
X54988437Y18310860D01*
X54920000Y18242423D01*
X54851563Y18310860D01*
X54740680Y18384950D01*
X54617474Y18435984D01*
X54486679Y18462000D01*
X54353321Y18462000D01*
X54222526Y18435984D01*
X54099320Y18384950D01*
X53988437Y18310860D01*
X53920000Y18242423D01*
X53851563Y18310860D01*
X53740680Y18384950D01*
X53617474Y18435984D01*
X53486679Y18462000D01*
X53353321Y18462000D01*
X53222526Y18435984D01*
X53099320Y18384950D01*
X52988437Y18310860D01*
X52894140Y18216563D01*
X52820050Y18105680D01*
X52769016Y17982474D01*
X52743000Y17851679D01*
X10450864Y17851679D01*
X10451277Y29256679D01*
X13483000Y29256679D01*
X13483000Y29123321D01*
X13509016Y28992526D01*
X13523000Y28958766D01*
X13523000Y26220000D01*
X13525440Y26195224D01*
X13532667Y26171399D01*
X13544403Y26149443D01*
X13560197Y26130197D01*
X15590197Y24100197D01*
X15609443Y24084403D01*
X15631399Y24072667D01*
X15655224Y24065440D01*
X15680000Y24063000D01*
X24658001Y24063000D01*
X24658001Y23739292D01*
X24668521Y23632483D01*
X24710091Y23495443D01*
X24777598Y23369147D01*
X24868447Y23258446D01*
X24979148Y23167597D01*
X25105444Y23100090D01*
X25242484Y23058520D01*
X25385000Y23044483D01*
X25527517Y23058520D01*
X25664557Y23100090D01*
X25790853Y23167597D01*
X25901554Y23258446D01*
X25992403Y23369147D01*
X26059910Y23495443D01*
X26101480Y23632483D01*
X26112000Y23739292D01*
X26112000Y24063000D01*
X34608001Y24063000D01*
X34608001Y23719292D01*
X34618521Y23612483D01*
X34660091Y23475443D01*
X34727598Y23349147D01*
X34818447Y23238446D01*
X34929148Y23147597D01*
X35055444Y23080090D01*
X35192484Y23038520D01*
X35335000Y23024483D01*
X35477517Y23038520D01*
X35614557Y23080090D01*
X35740853Y23147597D01*
X35851554Y23238446D01*
X35942403Y23349147D01*
X36009910Y23475443D01*
X36051480Y23612483D01*
X36062000Y23719292D01*
X36062000Y24063000D01*
X44653001Y24063000D01*
X44653001Y23744292D01*
X44663521Y23637483D01*
X44705091Y23500443D01*
X44772598Y23374147D01*
X44863447Y23263446D01*
X44974148Y23172597D01*
X45100444Y23105090D01*
X45237484Y23063520D01*
X45380000Y23049483D01*
X45522517Y23063520D01*
X45659557Y23105090D01*
X45785853Y23172597D01*
X45896554Y23263446D01*
X45987403Y23374147D01*
X46054910Y23500443D01*
X46096480Y23637483D01*
X46107000Y23744292D01*
X46107000Y24063000D01*
X52963000Y24063000D01*
X52963000Y24053321D01*
X52989016Y23922526D01*
X53040050Y23799320D01*
X53114140Y23688437D01*
X53208437Y23594140D01*
X53319320Y23520050D01*
X53442526Y23469016D01*
X53573321Y23443000D01*
X53706679Y23443000D01*
X53837474Y23469016D01*
X53895000Y23492844D01*
X53952526Y23469016D01*
X54083321Y23443000D01*
X54216679Y23443000D01*
X54347474Y23469016D01*
X54470680Y23520050D01*
X54581563Y23594140D01*
X54675860Y23688437D01*
X54749950Y23799320D01*
X54800984Y23922526D01*
X54827000Y24053321D01*
X54827000Y24140696D01*
X54827176Y24141023D01*
X54834480Y24164824D01*
X54836999Y24189593D01*
X54839043Y24827448D01*
X54947474Y24849016D01*
X55070680Y24900050D01*
X55181563Y24974140D01*
X55275860Y25068437D01*
X55349950Y25179320D01*
X55400984Y25302526D01*
X55427000Y25433321D01*
X55427000Y25566679D01*
X55400984Y25697474D01*
X55349950Y25820680D01*
X55275860Y25931563D01*
X55181563Y26025860D01*
X55070680Y26099950D01*
X54947474Y26150984D01*
X54843352Y26171695D01*
X54843645Y26263000D01*
X55076755Y26263000D01*
X55110000Y26259726D01*
X55143245Y26263000D01*
X55143252Y26263000D01*
X55242715Y26272796D01*
X55370330Y26311508D01*
X55487941Y26374372D01*
X55591027Y26458973D01*
X55612226Y26484804D01*
X56035200Y26907778D01*
X56061026Y26928973D01*
X56145628Y27032059D01*
X56208492Y27149670D01*
X56247204Y27277285D01*
X56257000Y27376748D01*
X56257000Y27376757D01*
X56260274Y27409999D01*
X56257000Y27443241D01*
X56257000Y28659578D01*
X58015206Y30417783D01*
X58041026Y30438973D01*
X58062218Y30464795D01*
X58062224Y30464801D01*
X58125628Y30542059D01*
X58188492Y30659670D01*
X58227204Y30787285D01*
X58240275Y30920000D01*
X58237000Y30953252D01*
X58237000Y31366679D01*
X58230479Y31399465D01*
X58227204Y31432714D01*
X58217506Y31464682D01*
X58210984Y31497474D01*
X58198189Y31528364D01*
X58188492Y31560330D01*
X58172744Y31589792D01*
X58159950Y31620680D01*
X58141377Y31648476D01*
X58125628Y31677941D01*
X58104432Y31703769D01*
X58085860Y31731563D01*
X58062222Y31755201D01*
X58041027Y31781027D01*
X58015199Y31802224D01*
X57991563Y31825860D01*
X57963769Y31844432D01*
X57937941Y31865628D01*
X57908476Y31881377D01*
X57880680Y31899950D01*
X57849792Y31912744D01*
X57820330Y31928492D01*
X57788364Y31938189D01*
X57757474Y31950984D01*
X57724685Y31957506D01*
X57692715Y31967204D01*
X57659464Y31970479D01*
X57626679Y31977000D01*
X57593252Y31977000D01*
X57560000Y31980275D01*
X57526748Y31977000D01*
X57493321Y31977000D01*
X57460535Y31970479D01*
X57427286Y31967204D01*
X57395318Y31957507D01*
X57362526Y31950984D01*
X57331634Y31938188D01*
X57299671Y31928492D01*
X57270212Y31912746D01*
X57239320Y31899950D01*
X57211520Y31881375D01*
X57182060Y31865628D01*
X57156237Y31844435D01*
X57128437Y31825860D01*
X57104794Y31802217D01*
X57080000Y31781869D01*
X57055202Y31802221D01*
X57031563Y31825860D01*
X57003765Y31844434D01*
X56977940Y31865628D01*
X56948480Y31881375D01*
X56920680Y31899950D01*
X56889788Y31912746D01*
X56860329Y31928492D01*
X56828366Y31938188D01*
X56797474Y31950984D01*
X56764682Y31957507D01*
X56732714Y31967204D01*
X56699467Y31970478D01*
X56666679Y31977000D01*
X56633245Y31977000D01*
X56600000Y31980274D01*
X56566755Y31977000D01*
X56533321Y31977000D01*
X56500534Y31970478D01*
X56467285Y31967204D01*
X56435315Y31957506D01*
X56402526Y31950984D01*
X56371636Y31938189D01*
X56339670Y31928492D01*
X56310208Y31912744D01*
X56279320Y31899950D01*
X56251524Y31881377D01*
X56222059Y31865628D01*
X56196231Y31844431D01*
X56168437Y31825860D01*
X56144801Y31802224D01*
X54304800Y29962222D01*
X54278973Y29941026D01*
X54257778Y29915200D01*
X54257776Y29915198D01*
X54235814Y29888437D01*
X54194372Y29837940D01*
X54131508Y29720329D01*
X54092796Y29592714D01*
X54083000Y29493251D01*
X54083000Y29493245D01*
X54079726Y29460000D01*
X54083000Y29426755D01*
X54083001Y28126605D01*
X51129803Y31079803D01*
X51110557Y31095597D01*
X51088601Y31107333D01*
X51064776Y31114560D01*
X51040000Y31117000D01*
X15500000Y31117000D01*
X15464253Y31111865D01*
X15441165Y31102550D01*
X15420338Y31088909D01*
X13570338Y29598909D01*
X13560197Y29589803D01*
X13544403Y29570557D01*
X13532667Y29548601D01*
X13525440Y29524776D01*
X13523000Y29500000D01*
X13523000Y29421234D01*
X13509016Y29387474D01*
X13483000Y29256679D01*
X10451277Y29256679D01*
X10451374Y31917874D01*
X10482996Y32240374D01*
X10570230Y32529309D01*
X10711924Y32795796D01*
X10902679Y33029685D01*
X11135233Y33222070D01*
X11400725Y33365622D01*
X11689042Y33454871D01*
X12010187Y33488624D01*
X63977891Y33488624D01*
X64300374Y33457004D01*
G04 #@! TA.AperFunction,Conductor*
D15*
G36*
X64300374Y33457004D02*
G01*
X64589309Y33369770D01*
X64855796Y33228076D01*
X65089685Y33037321D01*
X65282070Y32804767D01*
X65425622Y32539275D01*
X65514871Y32250958D01*
X65548624Y31929813D01*
X65548001Y12022124D01*
X65516379Y11699622D01*
X65429145Y11410690D01*
X65287452Y11144204D01*
X65096697Y10910315D01*
X64864143Y10717930D01*
X64598650Y10574378D01*
X64310334Y10485129D01*
X63989185Y10451376D01*
X32853177Y10451997D01*
X32793507Y10470097D01*
X32700000Y10479307D01*
X32606492Y10470097D01*
X32516577Y10442822D01*
X32433711Y10398529D01*
X32395293Y10367000D01*
X28677081Y10367000D01*
X28681521Y10381636D01*
X28694316Y10412526D01*
X28700838Y10445315D01*
X28710536Y10477285D01*
X28713811Y10510536D01*
X28720332Y10543321D01*
X28720332Y11347713D01*
X28724318Y11345050D01*
X28847524Y11294016D01*
X28978319Y11268000D01*
X29111677Y11268000D01*
X29242472Y11294016D01*
X29365678Y11345050D01*
X29476561Y11419140D01*
X29545695Y11488274D01*
X29565638Y11463973D01*
X29591458Y11442783D01*
X29615101Y11419140D01*
X29642901Y11400565D01*
X29668724Y11379372D01*
X29698184Y11363625D01*
X29725984Y11345050D01*
X29756876Y11332254D01*
X29786335Y11316508D01*
X29818298Y11306812D01*
X29849190Y11294016D01*
X29881982Y11287493D01*
X29913950Y11277796D01*
X29947199Y11274521D01*
X29979985Y11268000D01*
X30013412Y11268000D01*
X30046664Y11264725D01*
X30079916Y11268000D01*
X30113343Y11268000D01*
X30146128Y11274521D01*
X30179379Y11277796D01*
X30211349Y11287494D01*
X30244138Y11294016D01*
X30275028Y11306811D01*
X30306994Y11316508D01*
X30336456Y11332256D01*
X30367344Y11345050D01*
X30395140Y11363623D01*
X30424605Y11379372D01*
X30450433Y11400568D01*
X30478227Y11419140D01*
X30501865Y11442778D01*
X30527691Y11463973D01*
X30547634Y11488273D01*
X30616767Y11419140D01*
X30727650Y11345050D01*
X30850856Y11294016D01*
X30981651Y11268000D01*
X31115009Y11268000D01*
X31245804Y11294016D01*
X31369010Y11345050D01*
X31479893Y11419140D01*
X31551282Y11490529D01*
X31568973Y11468973D01*
X31622680Y11424897D01*
X31628437Y11419140D01*
X31635207Y11414617D01*
X31672060Y11384372D01*
X31714102Y11361900D01*
X31739320Y11345050D01*
X31767344Y11333442D01*
X31789671Y11321508D01*
X31813896Y11314159D01*
X31862526Y11294016D01*
X31914147Y11283748D01*
X31917286Y11282796D01*
X31920551Y11282474D01*
X31993321Y11268000D01*
X32126679Y11268000D01*
X32257474Y11294016D01*
X32380680Y11345050D01*
X32491563Y11419140D01*
X32585860Y11513437D01*
X32616067Y11558645D01*
X33005422Y11948000D01*
X54666755Y11948000D01*
X54700000Y11944726D01*
X54733245Y11948000D01*
X54733252Y11948000D01*
X54832715Y11957796D01*
X54960330Y11996508D01*
X55077941Y12059372D01*
X55181027Y12143973D01*
X55202226Y12169804D01*
X56375201Y13342778D01*
X56401027Y13363973D01*
X56424263Y13392285D01*
X56485628Y13467059D01*
X56548492Y13584670D01*
X56587204Y13712285D01*
X56600275Y13845000D01*
X56597000Y13878252D01*
X56597000Y15411679D01*
X56590479Y15444464D01*
X56587204Y15477715D01*
X56577506Y15509685D01*
X56570984Y15542474D01*
X56558189Y15573364D01*
X56548492Y15605330D01*
X56532744Y15634792D01*
X56519950Y15665680D01*
X56501377Y15693476D01*
X56485628Y15722941D01*
X56464433Y15748767D01*
X56445860Y15776563D01*
X56422218Y15800205D01*
X56401026Y15826027D01*
X56375206Y15847217D01*
X56351563Y15870860D01*
X56323763Y15889435D01*
X56297940Y15910628D01*
X56268480Y15926375D01*
X56240680Y15944950D01*
X56209788Y15957746D01*
X56180329Y15973492D01*
X56148366Y15983188D01*
X56117474Y15995984D01*
X56084682Y16002507D01*
X56052714Y16012204D01*
X56019465Y16015479D01*
X55986679Y16022000D01*
X55953252Y16022000D01*
X55920000Y16025275D01*
X55886748Y16022000D01*
X55853321Y16022000D01*
X55820536Y16015479D01*
X55787285Y16012204D01*
X55755315Y16002506D01*
X55722526Y15995984D01*
X55691636Y15983189D01*
X55659670Y15973492D01*
X55630208Y15957744D01*
X55599320Y15944950D01*
X55571524Y15926377D01*
X55542059Y15910628D01*
X55516233Y15889433D01*
X55488437Y15870860D01*
X55464795Y15847218D01*
X55438973Y15826026D01*
X55420000Y15802907D01*
X55401026Y15826027D01*
X55375206Y15847217D01*
X55351563Y15870860D01*
X55323763Y15889435D01*
X55297940Y15910628D01*
X55268480Y15926375D01*
X55240680Y15944950D01*
X55209788Y15957746D01*
X55180329Y15973492D01*
X55148366Y15983188D01*
X55117474Y15995984D01*
X55084682Y16002507D01*
X55052714Y16012204D01*
X55019465Y16015479D01*
X54986679Y16022000D01*
X54953252Y16022000D01*
X54920000Y16025275D01*
X54886748Y16022000D01*
X54853321Y16022000D01*
X54820536Y16015479D01*
X54787285Y16012204D01*
X54755315Y16002506D01*
X54722526Y15995984D01*
X54691636Y15983189D01*
X54659670Y15973492D01*
X54630208Y15957744D01*
X54599320Y15944950D01*
X54571524Y15926377D01*
X54542059Y15910628D01*
X54516233Y15889433D01*
X54488437Y15870860D01*
X54464795Y15847218D01*
X54438973Y15826026D01*
X54420000Y15802907D01*
X54401026Y15826027D01*
X54375206Y15847217D01*
X54351563Y15870860D01*
X54323763Y15889435D01*
X54297940Y15910628D01*
X54268480Y15926375D01*
X54240680Y15944950D01*
X54209788Y15957746D01*
X54180329Y15973492D01*
X54148366Y15983188D01*
X54117474Y15995984D01*
X54084682Y16002507D01*
X54052714Y16012204D01*
X54019465Y16015479D01*
X53986679Y16022000D01*
X53953252Y16022000D01*
X53920000Y16025275D01*
X53886748Y16022000D01*
X53853321Y16022000D01*
X53820536Y16015479D01*
X53787285Y16012204D01*
X53755315Y16002506D01*
X53722526Y15995984D01*
X53691636Y15983189D01*
X53659670Y15973492D01*
X53630208Y15957744D01*
X53599320Y15944950D01*
X53571524Y15926377D01*
X53542059Y15910628D01*
X53516233Y15889433D01*
X53488437Y15870860D01*
X53464795Y15847218D01*
X53438973Y15826026D01*
X53424552Y15808454D01*
X53406027Y15831027D01*
X53380200Y15852223D01*
X53356563Y15875860D01*
X53328769Y15894432D01*
X53302941Y15915628D01*
X53273476Y15931377D01*
X53245680Y15949950D01*
X53214792Y15962744D01*
X53185330Y15978492D01*
X53153364Y15988189D01*
X53122474Y16000984D01*
X53089685Y16007506D01*
X53057715Y16017204D01*
X53024464Y16020479D01*
X52991679Y16027000D01*
X28458241Y16027000D01*
X28424999Y16030274D01*
X28391757Y16027000D01*
X28391748Y16027000D01*
X28292285Y16017204D01*
X28164670Y15978492D01*
X28047059Y15915628D01*
X27943973Y15831027D01*
X27922774Y15805196D01*
X25594800Y13477222D01*
X25568973Y13456026D01*
X25547778Y13430200D01*
X25547776Y13430198D01*
X25516662Y13392285D01*
X25484372Y13352940D01*
X25421508Y13235329D01*
X25382796Y13107714D01*
X25373000Y13008251D01*
X25373000Y13008245D01*
X25369726Y12975000D01*
X25373000Y12941755D01*
X25373001Y10367000D01*
X25093564Y10367000D01*
X25086767Y10369746D01*
X25046928Y10386494D01*
X25040560Y10388416D01*
X25040554Y10388418D01*
X25040548Y10388419D01*
X24862688Y10440766D01*
X24820198Y10448871D01*
X24777872Y10457560D01*
X24771244Y10458210D01*
X24586600Y10475014D01*
X24543368Y10474712D01*
X24500135Y10475014D01*
X24493507Y10474364D01*
X24309114Y10454983D01*
X24266754Y10446288D01*
X24224301Y10438190D01*
X24217933Y10436267D01*
X24217921Y10436264D01*
X24217910Y10436259D01*
X24040809Y10381438D01*
X24006462Y10367000D01*
X12809477Y10367000D01*
X12809087Y10369045D01*
X12807263Y10375086D01*
X12737970Y10598937D01*
X12722094Y10636705D01*
X12706748Y10674688D01*
X12703785Y10680260D01*
X12592332Y10886387D01*
X12569409Y10920372D01*
X12546992Y10954629D01*
X12543004Y10959519D01*
X12543003Y10959521D01*
X12542998Y10959526D01*
X12393635Y11140073D01*
X12364569Y11168938D01*
X12335904Y11198209D01*
X12331047Y11202227D01*
X12331041Y11202233D01*
X12331034Y11202237D01*
X12149449Y11350335D01*
X12115342Y11372996D01*
X12081525Y11396150D01*
X12075974Y11399152D01*
X11869074Y11509163D01*
X11831164Y11524789D01*
X11793544Y11540913D01*
X11787525Y11542776D01*
X11787515Y11542780D01*
X11787505Y11542782D01*
X11563189Y11610508D01*
X11522994Y11618467D01*
X11482928Y11626983D01*
X11476657Y11627642D01*
X11476654Y11627643D01*
X11476651Y11627643D01*
X11243440Y11650509D01*
X11054337Y11669050D01*
X10914867Y11711159D01*
X10786228Y11779558D01*
X10673326Y11871639D01*
X10580460Y11983893D01*
X10511164Y12112054D01*
X10468082Y12251228D01*
X10450668Y12416912D01*
X10450864Y17851679D01*
X52743000Y17851679D01*
X52743000Y17718321D01*
X52769016Y17587526D01*
X52820050Y17464320D01*
X52894140Y17353437D01*
X52988437Y17259140D01*
X53099320Y17185050D01*
X53222526Y17134016D01*
X53353321Y17108000D01*
X53486679Y17108000D01*
X53617474Y17134016D01*
X53740680Y17185050D01*
X53851563Y17259140D01*
X53920000Y17327577D01*
X53988437Y17259140D01*
X54099320Y17185050D01*
X54222526Y17134016D01*
X54353321Y17108000D01*
X54486679Y17108000D01*
X54617474Y17134016D01*
X54740680Y17185050D01*
X54851563Y17259140D01*
X54920000Y17327577D01*
X54988437Y17259140D01*
X55099320Y17185050D01*
X55222526Y17134016D01*
X55353321Y17108000D01*
X55486679Y17108000D01*
X55617474Y17134016D01*
X55740680Y17185050D01*
X55851563Y17259140D01*
X55945860Y17353437D01*
X56019950Y17464320D01*
X56070984Y17587526D01*
X56097000Y17718321D01*
X56097000Y17851679D01*
X56070984Y17982474D01*
X56019950Y18105680D01*
X55945860Y18216563D01*
X55851563Y18310860D01*
X55740680Y18384950D01*
X55617474Y18435984D01*
X55486679Y18462000D01*
X55353321Y18462000D01*
X55222526Y18435984D01*
X55099320Y18384950D01*
X54988437Y18310860D01*
X54920000Y18242423D01*
X54851563Y18310860D01*
X54740680Y18384950D01*
X54617474Y18435984D01*
X54486679Y18462000D01*
X54353321Y18462000D01*
X54222526Y18435984D01*
X54099320Y18384950D01*
X53988437Y18310860D01*
X53920000Y18242423D01*
X53851563Y18310860D01*
X53740680Y18384950D01*
X53617474Y18435984D01*
X53486679Y18462000D01*
X53353321Y18462000D01*
X53222526Y18435984D01*
X53099320Y18384950D01*
X52988437Y18310860D01*
X52894140Y18216563D01*
X52820050Y18105680D01*
X52769016Y17982474D01*
X52743000Y17851679D01*
X10450864Y17851679D01*
X10451277Y29256679D01*
X13483000Y29256679D01*
X13483000Y29123321D01*
X13509016Y28992526D01*
X13523000Y28958766D01*
X13523000Y26220000D01*
X13525440Y26195224D01*
X13532667Y26171399D01*
X13544403Y26149443D01*
X13560197Y26130197D01*
X15590197Y24100197D01*
X15609443Y24084403D01*
X15631399Y24072667D01*
X15655224Y24065440D01*
X15680000Y24063000D01*
X24658001Y24063000D01*
X24658001Y23739292D01*
X24668521Y23632483D01*
X24710091Y23495443D01*
X24777598Y23369147D01*
X24868447Y23258446D01*
X24979148Y23167597D01*
X25105444Y23100090D01*
X25242484Y23058520D01*
X25385000Y23044483D01*
X25527517Y23058520D01*
X25664557Y23100090D01*
X25790853Y23167597D01*
X25901554Y23258446D01*
X25992403Y23369147D01*
X26059910Y23495443D01*
X26101480Y23632483D01*
X26112000Y23739292D01*
X26112000Y24063000D01*
X34608001Y24063000D01*
X34608001Y23719292D01*
X34618521Y23612483D01*
X34660091Y23475443D01*
X34727598Y23349147D01*
X34818447Y23238446D01*
X34929148Y23147597D01*
X35055444Y23080090D01*
X35192484Y23038520D01*
X35335000Y23024483D01*
X35477517Y23038520D01*
X35614557Y23080090D01*
X35740853Y23147597D01*
X35851554Y23238446D01*
X35942403Y23349147D01*
X36009910Y23475443D01*
X36051480Y23612483D01*
X36062000Y23719292D01*
X36062000Y24063000D01*
X44653001Y24063000D01*
X44653001Y23744292D01*
X44663521Y23637483D01*
X44705091Y23500443D01*
X44772598Y23374147D01*
X44863447Y23263446D01*
X44974148Y23172597D01*
X45100444Y23105090D01*
X45237484Y23063520D01*
X45380000Y23049483D01*
X45522517Y23063520D01*
X45659557Y23105090D01*
X45785853Y23172597D01*
X45896554Y23263446D01*
X45987403Y23374147D01*
X46054910Y23500443D01*
X46096480Y23637483D01*
X46107000Y23744292D01*
X46107000Y24063000D01*
X52963000Y24063000D01*
X52963000Y24053321D01*
X52989016Y23922526D01*
X53040050Y23799320D01*
X53114140Y23688437D01*
X53208437Y23594140D01*
X53319320Y23520050D01*
X53442526Y23469016D01*
X53573321Y23443000D01*
X53706679Y23443000D01*
X53837474Y23469016D01*
X53895000Y23492844D01*
X53952526Y23469016D01*
X54083321Y23443000D01*
X54216679Y23443000D01*
X54347474Y23469016D01*
X54470680Y23520050D01*
X54581563Y23594140D01*
X54675860Y23688437D01*
X54749950Y23799320D01*
X54800984Y23922526D01*
X54827000Y24053321D01*
X54827000Y24140696D01*
X54827176Y24141023D01*
X54834480Y24164824D01*
X54836999Y24189593D01*
X54839043Y24827448D01*
X54947474Y24849016D01*
X55070680Y24900050D01*
X55181563Y24974140D01*
X55275860Y25068437D01*
X55349950Y25179320D01*
X55400984Y25302526D01*
X55427000Y25433321D01*
X55427000Y25566679D01*
X55400984Y25697474D01*
X55349950Y25820680D01*
X55275860Y25931563D01*
X55181563Y26025860D01*
X55070680Y26099950D01*
X54947474Y26150984D01*
X54843352Y26171695D01*
X54843645Y26263000D01*
X55076755Y26263000D01*
X55110000Y26259726D01*
X55143245Y26263000D01*
X55143252Y26263000D01*
X55242715Y26272796D01*
X55370330Y26311508D01*
X55487941Y26374372D01*
X55591027Y26458973D01*
X55612226Y26484804D01*
X56035200Y26907778D01*
X56061026Y26928973D01*
X56145628Y27032059D01*
X56208492Y27149670D01*
X56247204Y27277285D01*
X56257000Y27376748D01*
X56257000Y27376757D01*
X56260274Y27409999D01*
X56257000Y27443241D01*
X56257000Y28659578D01*
X58015206Y30417783D01*
X58041026Y30438973D01*
X58062218Y30464795D01*
X58062224Y30464801D01*
X58125628Y30542059D01*
X58188492Y30659670D01*
X58227204Y30787285D01*
X58240275Y30920000D01*
X58237000Y30953252D01*
X58237000Y31366679D01*
X58230479Y31399465D01*
X58227204Y31432714D01*
X58217506Y31464682D01*
X58210984Y31497474D01*
X58198189Y31528364D01*
X58188492Y31560330D01*
X58172744Y31589792D01*
X58159950Y31620680D01*
X58141377Y31648476D01*
X58125628Y31677941D01*
X58104432Y31703769D01*
X58085860Y31731563D01*
X58062222Y31755201D01*
X58041027Y31781027D01*
X58015199Y31802224D01*
X57991563Y31825860D01*
X57963769Y31844432D01*
X57937941Y31865628D01*
X57908476Y31881377D01*
X57880680Y31899950D01*
X57849792Y31912744D01*
X57820330Y31928492D01*
X57788364Y31938189D01*
X57757474Y31950984D01*
X57724685Y31957506D01*
X57692715Y31967204D01*
X57659464Y31970479D01*
X57626679Y31977000D01*
X57593252Y31977000D01*
X57560000Y31980275D01*
X57526748Y31977000D01*
X57493321Y31977000D01*
X57460535Y31970479D01*
X57427286Y31967204D01*
X57395318Y31957507D01*
X57362526Y31950984D01*
X57331634Y31938188D01*
X57299671Y31928492D01*
X57270212Y31912746D01*
X57239320Y31899950D01*
X57211520Y31881375D01*
X57182060Y31865628D01*
X57156237Y31844435D01*
X57128437Y31825860D01*
X57104794Y31802217D01*
X57080000Y31781869D01*
X57055202Y31802221D01*
X57031563Y31825860D01*
X57003765Y31844434D01*
X56977940Y31865628D01*
X56948480Y31881375D01*
X56920680Y31899950D01*
X56889788Y31912746D01*
X56860329Y31928492D01*
X56828366Y31938188D01*
X56797474Y31950984D01*
X56764682Y31957507D01*
X56732714Y31967204D01*
X56699467Y31970478D01*
X56666679Y31977000D01*
X56633245Y31977000D01*
X56600000Y31980274D01*
X56566755Y31977000D01*
X56533321Y31977000D01*
X56500534Y31970478D01*
X56467285Y31967204D01*
X56435315Y31957506D01*
X56402526Y31950984D01*
X56371636Y31938189D01*
X56339670Y31928492D01*
X56310208Y31912744D01*
X56279320Y31899950D01*
X56251524Y31881377D01*
X56222059Y31865628D01*
X56196231Y31844431D01*
X56168437Y31825860D01*
X56144801Y31802224D01*
X54304800Y29962222D01*
X54278973Y29941026D01*
X54257778Y29915200D01*
X54257776Y29915198D01*
X54235814Y29888437D01*
X54194372Y29837940D01*
X54131508Y29720329D01*
X54092796Y29592714D01*
X54083000Y29493251D01*
X54083000Y29493245D01*
X54079726Y29460000D01*
X54083000Y29426755D01*
X54083001Y28126605D01*
X51129803Y31079803D01*
X51110557Y31095597D01*
X51088601Y31107333D01*
X51064776Y31114560D01*
X51040000Y31117000D01*
X15500000Y31117000D01*
X15464253Y31111865D01*
X15441165Y31102550D01*
X15420338Y31088909D01*
X13570338Y29598909D01*
X13560197Y29589803D01*
X13544403Y29570557D01*
X13532667Y29548601D01*
X13525440Y29524776D01*
X13523000Y29500000D01*
X13523000Y29421234D01*
X13509016Y29387474D01*
X13483000Y29256679D01*
X10451277Y29256679D01*
X10451374Y31917874D01*
X10482996Y32240374D01*
X10570230Y32529309D01*
X10711924Y32795796D01*
X10902679Y33029685D01*
X11135233Y33222070D01*
X11400725Y33365622D01*
X11689042Y33454871D01*
X12010187Y33488624D01*
X63977891Y33488624D01*
X64300374Y33457004D01*
G37*
G04 #@! TD.AperFunction*
G04 #@! TD*
M02*
