G04 #@! TF.GenerationSoftware,KiCad,Pcbnew,(5.1.8)-1*
G04 #@! TF.CreationDate,2021-09-22T18:05:39+08:00*
G04 #@! TF.ProjectId,PowerSupply,506f7765-7253-4757-9070-6c792e6b6963,rev?*
G04 #@! TF.SameCoordinates,PX5e56640PY77750e0*
G04 #@! TF.FileFunction,Copper,L2,Inr*
G04 #@! TF.FilePolarity,Positive*
%FSLAX46Y46*%
G04 Gerber Fmt 4.6, Leading zero omitted, Abs format (unit mm)*
G04 Created by KiCad (PCBNEW (5.1.8)-1) date 2021-09-22 18:05:39*
%MOMM*%
%LPD*%
G01*
G04 APERTURE LIST*
G04 #@! TA.AperFunction,ViaPad*
%ADD10C,0.500000*%
G04 #@! TD*
G04 #@! TA.AperFunction,Conductor*
%ADD11C,0.500000*%
G04 #@! TD*
G04 #@! TA.AperFunction,Conductor*
%ADD12C,0.254000*%
G04 #@! TD*
G04 #@! TA.AperFunction,Conductor*
%ADD13C,0.100000*%
G04 #@! TD*
G04 APERTURE END LIST*
D10*
G04 #@! TO.N,GND*
X57060000Y29060000D03*
X57740000Y27470000D03*
X57065000Y27470000D03*
X56390001Y27480000D03*
X38300000Y24320000D03*
X38849999Y24320000D03*
X39400000Y24320000D03*
X48330000Y24310001D03*
X49430000Y24310000D03*
X48879999Y24310001D03*
X29680000Y24300000D03*
X29130000Y24300000D03*
X28580001Y24300000D03*
X18070000Y24320000D03*
X18619999Y24320000D03*
X19170000Y24320000D03*
X12160000Y33320000D03*
X13160000Y33320000D03*
X14160000Y33320000D03*
X15160000Y33320000D03*
X16160000Y33320000D03*
X17160000Y33320000D03*
X18160000Y33320000D03*
X19160000Y33320000D03*
X20160000Y33320000D03*
X21160000Y33320000D03*
X22160000Y33320000D03*
X23160000Y33320000D03*
X24160000Y33320000D03*
X25160000Y33320000D03*
X26160000Y33320000D03*
X27160000Y33320000D03*
X28160000Y33320000D03*
X29160000Y33320000D03*
X30160000Y33320000D03*
X31160000Y33320000D03*
X32160000Y33320000D03*
X33160000Y33320000D03*
X34160000Y33320000D03*
X35160000Y33320000D03*
X36160000Y33320000D03*
X37160000Y33320000D03*
X38160000Y33320000D03*
X39160000Y33320000D03*
X40160000Y33320000D03*
X41160000Y33320000D03*
X42160000Y33320000D03*
X43160000Y33320000D03*
X44160000Y33320000D03*
X45160000Y33320000D03*
X46160000Y33320000D03*
X47160000Y33320000D03*
X48160000Y33320000D03*
X49160000Y33320000D03*
X50160000Y33320000D03*
X51160000Y33320000D03*
X52160000Y33320000D03*
X53160000Y33320000D03*
X54160000Y33320000D03*
X55160000Y33320000D03*
X56160000Y33320000D03*
X57160000Y33320000D03*
X58160000Y33320000D03*
X59160000Y33320000D03*
X60160000Y33320000D03*
X61160000Y33320000D03*
X12290000Y32130000D03*
X13160000Y32320000D03*
X14160000Y32320000D03*
X15160000Y32320000D03*
X16160000Y32320000D03*
X17160000Y32320000D03*
X18160000Y32320000D03*
X19160000Y32320000D03*
X20160000Y32320000D03*
X21160000Y32320000D03*
X22160000Y32320000D03*
X23160000Y32320000D03*
X24160000Y32320000D03*
X25160000Y32320000D03*
X26160000Y32320000D03*
X27160000Y32320000D03*
X28160000Y32320000D03*
X29160000Y32320000D03*
X30160000Y32320000D03*
X31160000Y32320000D03*
X32160000Y32320000D03*
X33160000Y32320000D03*
X34160000Y32320000D03*
X35160000Y32320000D03*
X36160000Y32320000D03*
X37160000Y32320000D03*
X38160000Y32320000D03*
X39160000Y32320000D03*
X40160000Y32320000D03*
X41160000Y32320000D03*
X42160000Y32320000D03*
X43160000Y32320000D03*
X44160000Y32320000D03*
X45160000Y32320000D03*
X46160000Y32320000D03*
X47160000Y32320000D03*
X48160000Y32320000D03*
X49160000Y32320000D03*
X50160000Y32320000D03*
X51160000Y32320000D03*
X52160000Y32320000D03*
X53160000Y32320000D03*
X54160000Y32320000D03*
X55160000Y32320000D03*
X56160000Y32320000D03*
X57160000Y32320000D03*
X58160000Y32320000D03*
X59160000Y32320000D03*
X60160000Y32320000D03*
X61160000Y32320000D03*
X62160000Y32320000D03*
X62160000Y33320000D03*
X63160000Y32320000D03*
X63160000Y33320000D03*
X63860000Y32050000D03*
X64160000Y33320000D03*
X11300000Y33020000D03*
X10670000Y31600000D03*
X11780000Y31470000D03*
X10690000Y30590000D03*
X11690000Y30590000D03*
X10690000Y28590000D03*
X11690000Y28590000D03*
X10690000Y27590000D03*
X11690000Y27590000D03*
X10690000Y26590000D03*
X11690000Y26590000D03*
X10690000Y25590000D03*
X11690000Y25590000D03*
X10690000Y24590000D03*
X11690000Y24590000D03*
X10690000Y23590000D03*
X11690000Y23590000D03*
X10690000Y22590000D03*
X11690000Y22590000D03*
X10690000Y21590000D03*
X11690000Y21590000D03*
X10690000Y20590000D03*
X11690000Y20590000D03*
X10690000Y19590000D03*
X11690000Y19590000D03*
X10690000Y18590000D03*
X11690000Y18590000D03*
X10690000Y17590000D03*
X11690000Y17590000D03*
X10690000Y16590000D03*
X11690000Y16590000D03*
X10690000Y15590000D03*
X11690000Y15590000D03*
X10690000Y14590000D03*
X11690000Y14590000D03*
X10690000Y13590000D03*
X11690000Y13590000D03*
X10690000Y12590000D03*
X11690000Y12590000D03*
X11690000Y11590000D03*
X41690000Y11590000D03*
X42690000Y11590000D03*
X43690000Y11590000D03*
X44690000Y11590000D03*
X45690000Y11590000D03*
X46690000Y11590000D03*
X47690000Y11590000D03*
X48690000Y11590000D03*
X49690000Y11590000D03*
X50690000Y11590000D03*
X51690000Y11590000D03*
X52690000Y11590000D03*
X53690000Y11590000D03*
X54690000Y11590000D03*
X55690000Y11590000D03*
X56690000Y11590000D03*
X57690000Y11590000D03*
X58690000Y11590000D03*
X59690000Y11590000D03*
X60690000Y11590000D03*
X61690000Y11590000D03*
X62690000Y11590000D03*
X63600000Y11860000D03*
X33690000Y10590000D03*
X34690000Y10590000D03*
X35690000Y10590000D03*
X36690000Y10590000D03*
X37690000Y10590000D03*
X38690000Y10590000D03*
X39690000Y10590000D03*
X40690000Y10590000D03*
X41690000Y10590000D03*
X42690000Y10590000D03*
X43690000Y10590000D03*
X44690000Y10590000D03*
X45690000Y10590000D03*
X46690000Y10590000D03*
X47690000Y10590000D03*
X48690000Y10590000D03*
X49690000Y10590000D03*
X50690000Y10590000D03*
X51690000Y10590000D03*
X52690000Y10590000D03*
X53690000Y10590000D03*
X54690000Y10590000D03*
X55690000Y10590000D03*
X56690000Y10590000D03*
X57690000Y10590000D03*
X58690000Y10590000D03*
X59690000Y10590000D03*
X60690000Y10590000D03*
X61690000Y10590000D03*
X62690000Y10590000D03*
X63690000Y10590000D03*
X64870000Y32980000D03*
X64290000Y31450000D03*
X65380000Y31520000D03*
X64390000Y30490000D03*
X65380000Y30500000D03*
X64390000Y28490000D03*
X65390000Y28490000D03*
X64390000Y27490000D03*
X65390000Y27490000D03*
X64390000Y26490000D03*
X65390000Y26490000D03*
X64390000Y25490000D03*
X65390000Y25490000D03*
X64390000Y24490000D03*
X65390000Y24490000D03*
X64390000Y23490000D03*
X65390000Y23490000D03*
X64390000Y22490000D03*
X65390000Y22490000D03*
X64390000Y21490000D03*
X65390000Y21490000D03*
X64390000Y20490000D03*
X65390000Y20490000D03*
X64390000Y19490000D03*
X65390000Y19490000D03*
X64390000Y18490000D03*
X65390000Y18490000D03*
X64390000Y17490000D03*
X65390000Y17490000D03*
X64390000Y16490000D03*
X65390000Y16490000D03*
X64390000Y15490000D03*
X65390000Y15490000D03*
X64390000Y14490000D03*
X65390000Y14490000D03*
X64390000Y13490000D03*
X65390000Y13490000D03*
X64210000Y12480000D03*
X65390000Y12550000D03*
X65320000Y11760000D03*
X64440000Y10700000D03*
X57075000Y26693334D03*
X57750000Y26693334D03*
X56400000Y26703334D03*
X57065000Y25916668D03*
X56390001Y25926668D03*
X57740000Y25916668D03*
X56390000Y25150000D03*
X57065000Y25140000D03*
X57740000Y25140000D03*
X57019999Y18505001D03*
X57570000Y18505000D03*
X56470000Y18505001D03*
X57029999Y17805001D03*
X56480000Y17805001D03*
X57580000Y17805000D03*
X11690000Y29590000D03*
X10690000Y29590000D03*
X65390000Y29490000D03*
X64390000Y29490000D03*
X57429999Y14305001D03*
X57970000Y15005000D03*
X56870000Y15005001D03*
X56880000Y14305001D03*
X57980000Y14305000D03*
X57419999Y15005001D03*
X57970000Y13605000D03*
X57419999Y13605001D03*
X56880000Y12905001D03*
X57980000Y12905000D03*
X56870000Y13605001D03*
X57429999Y12905001D03*
X58680000Y12905001D03*
X59219999Y13605001D03*
X59770000Y13605000D03*
X59780000Y12905000D03*
X58670000Y13605001D03*
X59229999Y12905001D03*
X59219999Y15005001D03*
X59780000Y14305000D03*
X59229999Y14305001D03*
X58670000Y15005001D03*
X59770000Y15005000D03*
X58680000Y14305001D03*
X21660000Y32820000D03*
X36660000Y32820000D03*
X52660000Y32820000D03*
X53660000Y32820000D03*
X54660000Y32820000D03*
X59660000Y32820000D03*
X43660000Y32820000D03*
X44660000Y32820000D03*
X48660000Y32820000D03*
X19660000Y32820000D03*
X51660000Y32820000D03*
X28660000Y32820000D03*
X56660000Y32820000D03*
X22660000Y32820000D03*
X37660000Y32820000D03*
X27660000Y32820000D03*
X55660000Y32820000D03*
X39660000Y32820000D03*
X46660000Y32820000D03*
X50660000Y32820000D03*
X31660000Y32820000D03*
X20660000Y32820000D03*
X23660000Y32820000D03*
X34660000Y32820000D03*
X32660000Y32820000D03*
X29660000Y32820000D03*
X57660000Y32820000D03*
X61660000Y32820000D03*
X45660000Y32820000D03*
X49660000Y32820000D03*
X41660000Y32820000D03*
X18660000Y32820000D03*
X60660000Y32820000D03*
X30660000Y32820000D03*
X42660000Y32820000D03*
X24660000Y32820000D03*
X58660000Y32820000D03*
X40660000Y32820000D03*
X33660000Y32820000D03*
X25660000Y32820000D03*
X35660000Y32820000D03*
X26660000Y32820000D03*
X38660000Y32820000D03*
X47660000Y32820000D03*
X62660000Y32820000D03*
X63660000Y32820000D03*
X64370000Y32530000D03*
X12590000Y32770000D03*
X13660000Y32820000D03*
X14660000Y32820000D03*
X15660000Y32820000D03*
X16660000Y32820000D03*
X17660000Y32820000D03*
X64770000Y31920000D03*
X64890000Y31060000D03*
X64900000Y29990000D03*
X64890000Y17980000D03*
X64890000Y13980000D03*
X64100000Y11360000D03*
X64890000Y27980000D03*
X64890000Y21980000D03*
X64890000Y25980000D03*
X64890000Y20980000D03*
X64890000Y15980000D03*
X64820000Y12910000D03*
X64890000Y14980000D03*
X64890000Y24980000D03*
X64890000Y23980000D03*
X64890000Y19980000D03*
X64890000Y16980000D03*
X64890000Y22980000D03*
X64890000Y18980000D03*
X64890000Y26980000D03*
X64890000Y28980000D03*
X10850000Y32400000D03*
X11190000Y27110000D03*
X11190000Y20110000D03*
X11190000Y29110000D03*
X11190000Y19110000D03*
X11190000Y31110000D03*
X11190000Y28110000D03*
X11190000Y26110000D03*
X11190000Y24110000D03*
X11190000Y23110000D03*
X11190000Y22110000D03*
X11190000Y21110000D03*
X11190000Y25110000D03*
X11190000Y15110000D03*
X11190000Y13110000D03*
X11190000Y14110000D03*
X11190000Y17110000D03*
X11190000Y18110000D03*
X11190000Y16110000D03*
X11190000Y30110000D03*
X11190000Y12090000D03*
X47210000Y11080000D03*
X54210000Y11080000D03*
X41210000Y11080000D03*
X43210000Y11080000D03*
X62210000Y11080000D03*
X55210000Y11080000D03*
X48210000Y11080000D03*
X61210000Y11080000D03*
X49210000Y11080000D03*
X51210000Y11080000D03*
X58210000Y11080000D03*
X57210000Y11080000D03*
X56210000Y11080000D03*
X50210000Y11080000D03*
X42210000Y11080000D03*
X44210000Y11080000D03*
X45210000Y11080000D03*
X46210000Y11080000D03*
X60210000Y11080000D03*
X53210000Y11080000D03*
X59210000Y11080000D03*
X63210000Y11080000D03*
X52210000Y11080000D03*
X11800000Y32570000D03*
X11360000Y31990000D03*
X65310000Y32360000D03*
X64650000Y11940000D03*
X64980000Y11120000D03*
X23920000Y22730000D03*
X23920000Y22130000D03*
X23920000Y21530000D03*
X24520000Y22730000D03*
X25130000Y22730000D03*
X35410000Y22640000D03*
X34200000Y22640000D03*
X34200000Y21440000D03*
X34800000Y22640000D03*
X34200000Y22040000D03*
X44190000Y22070000D03*
X45400000Y22670000D03*
X44190000Y21470000D03*
X44190000Y22670000D03*
X44790000Y22670000D03*
X57019999Y19895001D03*
X56480000Y19195001D03*
X56470000Y19895001D03*
X57570000Y19895000D03*
X57580000Y19195000D03*
X57029999Y19195001D03*
X55279999Y19895001D03*
X54740000Y19195001D03*
X55840000Y19195000D03*
X55830000Y19895000D03*
X54730000Y19895001D03*
X55289999Y19195001D03*
X53590000Y19195001D03*
X54139999Y19195001D03*
X53580000Y19895001D03*
X54129999Y19895001D03*
G04 #@! TO.N,+3V3*
X48980000Y27800000D03*
X48310000Y20530000D03*
G04 #@! TO.N,+5V*
X40880000Y26380000D03*
X41570000Y26380000D03*
X50860000Y26380000D03*
X51500000Y26380000D03*
X31040000Y26370000D03*
X31690000Y26370000D03*
X53620000Y25220000D03*
X54180000Y25220000D03*
X54730000Y25460000D03*
X53620000Y24690000D03*
X54180000Y24685000D03*
X53620000Y24150000D03*
X54180000Y24150000D03*
X13720000Y25640000D03*
X20580000Y26340000D03*
X21260000Y26340000D03*
X20970000Y26860000D03*
X21640000Y26860000D03*
X31410000Y26860000D03*
X32060000Y26860000D03*
X24050000Y25630000D03*
X41280000Y26910000D03*
X41970000Y26910000D03*
X33930000Y25640000D03*
X51260000Y26900000D03*
X51900000Y26900000D03*
X43950000Y25640000D03*
G04 #@! TO.N,+1V2*
X18870000Y27840000D03*
X18060000Y20470000D03*
G04 #@! TO.N,+1V5*
X29180000Y27790000D03*
X28510000Y20410000D03*
G04 #@! TO.N,+2V5*
X39030000Y27800000D03*
X38310000Y20470000D03*
G04 #@! TO.N,Net-(1V2-Pad1)*
X20160000Y27660000D03*
X14180002Y28840000D03*
G04 #@! TO.N,Net-(1V5-Pad1)*
X30530000Y27720000D03*
X23540000Y28810000D03*
G04 #@! TO.N,Net-(2V5-Pad1)*
X40470000Y27730000D03*
X34380000Y28870000D03*
G04 #@! TO.N,Net-(3V3-Pad1)*
X50320000Y27780000D03*
X44410000Y28830000D03*
G04 #@! TO.N,Net-(C3-Pad1)*
X56600000Y31300000D03*
X54750000Y27700000D03*
G04 #@! TO.N,Net-(R34-Pad2)*
X54740000Y26940000D03*
X57560000Y31300000D03*
G04 #@! TO.N,REG_EN2*
X26050000Y8690000D03*
X52925000Y15350000D03*
G04 #@! TO.N,REG_EN1*
X27050000Y9630000D03*
X53420000Y17785000D03*
G04 #@! TO.N,REG_CHG*
X28043332Y10610000D03*
X53920000Y15345000D03*
G04 #@! TO.N,REG_POWER*
X29044998Y11945000D03*
X54420000Y17785000D03*
G04 #@! TO.N,BAT_ISET*
X30046664Y11945000D03*
X54920000Y15345000D03*
G04 #@! TO.N,BAT_PG*
X31048330Y11945000D03*
X55420000Y17785000D03*
G04 #@! TO.N,BAT_CHG*
X32060000Y11945000D03*
X55920000Y15345000D03*
G04 #@! TD*
D11*
G04 #@! TO.N,REG_EN1*
X27050000Y12825000D02*
X27050000Y9630000D01*
X29065000Y14840000D02*
X27050000Y12825000D01*
X47420000Y14840000D02*
X29065000Y14840000D01*
X50365000Y17785000D02*
X47420000Y14840000D01*
X53420000Y17785000D02*
X50365000Y17785000D01*
G04 #@! TO.N,REG_POWER*
X30440000Y13890000D02*
X29044998Y12494998D01*
X47910000Y13890000D02*
X30440000Y13890000D01*
X51020000Y17000000D02*
X47910000Y13890000D01*
X54025000Y17000000D02*
X51020000Y17000000D01*
X54420000Y17395000D02*
X54025000Y17000000D01*
X54420000Y17785000D02*
X54420000Y17395000D01*
X29044998Y12494998D02*
X29044998Y11945000D01*
G04 #@! TO.N,BAT_PG*
X54625000Y16150000D02*
X55420000Y16945000D01*
X51580000Y16150000D02*
X54625000Y16150000D01*
X48300000Y12870000D02*
X51580000Y16150000D01*
X55420000Y16945000D02*
X55420000Y17785000D01*
X31770000Y12870000D02*
X48300000Y12870000D01*
X31048330Y12148330D02*
X31770000Y12870000D01*
X31048330Y11945000D02*
X31048330Y12148330D01*
G04 #@! TD*
D12*
G04 #@! TO.N,GND*
X64300374Y33457004D02*
X64589309Y33369770D01*
X64855796Y33228076D01*
X65089685Y33037321D01*
X65282070Y32804767D01*
X65425622Y32539275D01*
X65514871Y32250958D01*
X65548624Y31929813D01*
X65548001Y12022124D01*
X65516379Y11699622D01*
X65429145Y11410690D01*
X65287452Y11144204D01*
X65096697Y10910315D01*
X64864143Y10717930D01*
X64598650Y10574378D01*
X64310334Y10485129D01*
X63989185Y10451376D01*
X32853177Y10451997D01*
X32793507Y10470097D01*
X32700000Y10479307D01*
X32606492Y10470097D01*
X32516577Y10442822D01*
X32433711Y10398529D01*
X32395293Y10367000D01*
X28675458Y10367000D01*
X28694316Y10412526D01*
X28720332Y10543321D01*
X28720332Y10676679D01*
X28694316Y10807474D01*
X28643282Y10930680D01*
X28569192Y11041563D01*
X28474895Y11135860D01*
X28364012Y11209950D01*
X28240806Y11260984D01*
X28110011Y11287000D01*
X27976653Y11287000D01*
X27845858Y11260984D01*
X27727000Y11211751D01*
X27727000Y12544578D01*
X29345422Y14163000D01*
X29755577Y14163000D01*
X28589798Y12997220D01*
X28563971Y12976024D01*
X28479370Y12872938D01*
X28416506Y12755327D01*
X28377794Y12627712D01*
X28367998Y12528249D01*
X28367998Y12528243D01*
X28364724Y12494998D01*
X28367998Y12461753D01*
X28367998Y11878321D01*
X28374519Y11845536D01*
X28377794Y11812285D01*
X28387492Y11780315D01*
X28394014Y11747526D01*
X28406809Y11716636D01*
X28416506Y11684670D01*
X28432254Y11655208D01*
X28445048Y11624320D01*
X28463621Y11596524D01*
X28479370Y11567059D01*
X28500565Y11541233D01*
X28519138Y11513437D01*
X28542780Y11489795D01*
X28563972Y11463973D01*
X28589792Y11442783D01*
X28613435Y11419140D01*
X28641235Y11400565D01*
X28667058Y11379372D01*
X28696518Y11363625D01*
X28724318Y11345050D01*
X28755210Y11332254D01*
X28784669Y11316508D01*
X28816632Y11306812D01*
X28847524Y11294016D01*
X28880316Y11287493D01*
X28912284Y11277796D01*
X28945533Y11274521D01*
X28978319Y11268000D01*
X29011746Y11268000D01*
X29044998Y11264725D01*
X29078250Y11268000D01*
X29111677Y11268000D01*
X29144462Y11274521D01*
X29177713Y11277796D01*
X29209683Y11287494D01*
X29242472Y11294016D01*
X29273362Y11306811D01*
X29305328Y11316508D01*
X29334790Y11332256D01*
X29365678Y11345050D01*
X29393474Y11363623D01*
X29422939Y11379372D01*
X29448767Y11400568D01*
X29476561Y11419140D01*
X29500199Y11442778D01*
X29526025Y11463973D01*
X29545968Y11488273D01*
X29615101Y11419140D01*
X29725984Y11345050D01*
X29849190Y11294016D01*
X29979985Y11268000D01*
X30113343Y11268000D01*
X30244138Y11294016D01*
X30367344Y11345050D01*
X30478227Y11419140D01*
X30547361Y11488274D01*
X30567303Y11463974D01*
X30593125Y11442782D01*
X30616767Y11419140D01*
X30644563Y11400567D01*
X30670389Y11379372D01*
X30699854Y11363623D01*
X30727650Y11345050D01*
X30758538Y11332256D01*
X30788000Y11316508D01*
X30819966Y11306811D01*
X30850856Y11294016D01*
X30883645Y11287494D01*
X30915615Y11277796D01*
X30948866Y11274521D01*
X30981651Y11268000D01*
X31015078Y11268000D01*
X31048330Y11264725D01*
X31081582Y11268000D01*
X31115009Y11268000D01*
X31147795Y11274521D01*
X31181044Y11277796D01*
X31213012Y11287493D01*
X31245804Y11294016D01*
X31276696Y11306812D01*
X31308659Y11316508D01*
X31338118Y11332254D01*
X31369010Y11345050D01*
X31396810Y11363625D01*
X31426270Y11379372D01*
X31452093Y11400565D01*
X31479893Y11419140D01*
X31503536Y11442783D01*
X31529356Y11463973D01*
X31550548Y11489795D01*
X31554165Y11493412D01*
X31628437Y11419140D01*
X31739320Y11345050D01*
X31862526Y11294016D01*
X31993321Y11268000D01*
X32126679Y11268000D01*
X32257474Y11294016D01*
X32380680Y11345050D01*
X32491563Y11419140D01*
X32585860Y11513437D01*
X32659950Y11624320D01*
X32710984Y11747526D01*
X32737000Y11878321D01*
X32737000Y12011679D01*
X32710984Y12142474D01*
X32690055Y12193000D01*
X48266755Y12193000D01*
X48300000Y12189726D01*
X48333245Y12193000D01*
X48333252Y12193000D01*
X48432715Y12202796D01*
X48560330Y12241508D01*
X48677941Y12304372D01*
X48781027Y12388973D01*
X48802226Y12414804D01*
X51860422Y15473000D01*
X52259203Y15473000D01*
X52248000Y15416679D01*
X52248000Y15283321D01*
X52274016Y15152526D01*
X52325050Y15029320D01*
X52399140Y14918437D01*
X52493437Y14824140D01*
X52604320Y14750050D01*
X52727526Y14699016D01*
X52858321Y14673000D01*
X52991679Y14673000D01*
X53122474Y14699016D01*
X53245680Y14750050D01*
X53356563Y14824140D01*
X53420000Y14887577D01*
X53488437Y14819140D01*
X53599320Y14745050D01*
X53722526Y14694016D01*
X53853321Y14668000D01*
X53986679Y14668000D01*
X54117474Y14694016D01*
X54240680Y14745050D01*
X54351563Y14819140D01*
X54420000Y14887577D01*
X54488437Y14819140D01*
X54599320Y14745050D01*
X54722526Y14694016D01*
X54853321Y14668000D01*
X54986679Y14668000D01*
X55117474Y14694016D01*
X55240680Y14745050D01*
X55351563Y14819140D01*
X55420000Y14887577D01*
X55488437Y14819140D01*
X55599320Y14745050D01*
X55722526Y14694016D01*
X55853321Y14668000D01*
X55986679Y14668000D01*
X56117474Y14694016D01*
X56240680Y14745050D01*
X56351563Y14819140D01*
X56445860Y14913437D01*
X56519950Y15024320D01*
X56570984Y15147526D01*
X56597000Y15278321D01*
X56597000Y15411679D01*
X56570984Y15542474D01*
X56519950Y15665680D01*
X56445860Y15776563D01*
X56351563Y15870860D01*
X56240680Y15944950D01*
X56117474Y15995984D01*
X55986679Y16022000D01*
X55853321Y16022000D01*
X55722526Y15995984D01*
X55599320Y15944950D01*
X55488437Y15870860D01*
X55420000Y15802423D01*
X55351563Y15870860D01*
X55322621Y15890199D01*
X55875205Y16442782D01*
X55901026Y16463973D01*
X55922218Y16489795D01*
X55922224Y16489801D01*
X55985628Y16567059D01*
X56048492Y16684670D01*
X56087204Y16812285D01*
X56100275Y16945000D01*
X56097000Y16978252D01*
X56097000Y17851679D01*
X56090479Y17884464D01*
X56087204Y17917715D01*
X56077506Y17949685D01*
X56070984Y17982474D01*
X56058189Y18013364D01*
X56048492Y18045330D01*
X56032744Y18074792D01*
X56019950Y18105680D01*
X56001377Y18133476D01*
X55985628Y18162941D01*
X55964432Y18188769D01*
X55945860Y18216563D01*
X55922222Y18240201D01*
X55901027Y18266027D01*
X55875199Y18287224D01*
X55851563Y18310860D01*
X55823769Y18329432D01*
X55797941Y18350628D01*
X55768476Y18366377D01*
X55740680Y18384950D01*
X55709792Y18397744D01*
X55680330Y18413492D01*
X55648364Y18423189D01*
X55617474Y18435984D01*
X55584685Y18442506D01*
X55552715Y18452204D01*
X55519464Y18455479D01*
X55486679Y18462000D01*
X55453252Y18462000D01*
X55420000Y18465275D01*
X55386748Y18462000D01*
X55353321Y18462000D01*
X55320535Y18455479D01*
X55287286Y18452204D01*
X55255318Y18442507D01*
X55222526Y18435984D01*
X55191634Y18423188D01*
X55159671Y18413492D01*
X55130212Y18397746D01*
X55099320Y18384950D01*
X55071520Y18366375D01*
X55042060Y18350628D01*
X55016237Y18329435D01*
X54988437Y18310860D01*
X54964794Y18287217D01*
X54938974Y18266027D01*
X54920000Y18242907D01*
X54901026Y18266027D01*
X54875206Y18287217D01*
X54851563Y18310860D01*
X54823763Y18329435D01*
X54797940Y18350628D01*
X54768480Y18366375D01*
X54740680Y18384950D01*
X54709788Y18397746D01*
X54680329Y18413492D01*
X54648366Y18423188D01*
X54617474Y18435984D01*
X54584682Y18442507D01*
X54552714Y18452204D01*
X54519465Y18455479D01*
X54486679Y18462000D01*
X54453252Y18462000D01*
X54420000Y18465275D01*
X54386748Y18462000D01*
X54353321Y18462000D01*
X54320536Y18455479D01*
X54287285Y18452204D01*
X54255315Y18442506D01*
X54222526Y18435984D01*
X54191636Y18423189D01*
X54159670Y18413492D01*
X54130208Y18397744D01*
X54099320Y18384950D01*
X54071524Y18366377D01*
X54042059Y18350628D01*
X54016233Y18329433D01*
X53988437Y18310860D01*
X53964795Y18287218D01*
X53938973Y18266026D01*
X53920000Y18242908D01*
X53901027Y18266027D01*
X53875199Y18287224D01*
X53851563Y18310860D01*
X53823769Y18329432D01*
X53797941Y18350628D01*
X53768476Y18366377D01*
X53740680Y18384950D01*
X53709792Y18397744D01*
X53680330Y18413492D01*
X53648364Y18423189D01*
X53617474Y18435984D01*
X53584685Y18442506D01*
X53552715Y18452204D01*
X53519464Y18455479D01*
X53486679Y18462000D01*
X50398245Y18462000D01*
X50365000Y18465274D01*
X50331755Y18462000D01*
X50331748Y18462000D01*
X50232285Y18452204D01*
X50104670Y18413492D01*
X49987059Y18350628D01*
X49883973Y18266027D01*
X49862778Y18240201D01*
X47139578Y15517000D01*
X29098241Y15517000D01*
X29064999Y15520274D01*
X29031757Y15517000D01*
X29031748Y15517000D01*
X28932285Y15507204D01*
X28804670Y15468492D01*
X28687059Y15405628D01*
X28583973Y15321027D01*
X28562776Y15295198D01*
X26594800Y13327222D01*
X26568973Y13306026D01*
X26547778Y13280200D01*
X26547776Y13280198D01*
X26521303Y13247940D01*
X26484372Y13202940D01*
X26421508Y13085329D01*
X26382796Y12957714D01*
X26373000Y12858251D01*
X26373000Y12858245D01*
X26369726Y12825000D01*
X26373000Y12791755D01*
X26373001Y10367000D01*
X25093564Y10367000D01*
X25086767Y10369746D01*
X25046928Y10386494D01*
X25040560Y10388416D01*
X25040554Y10388418D01*
X25040548Y10388419D01*
X24862688Y10440766D01*
X24820198Y10448871D01*
X24777872Y10457560D01*
X24771244Y10458210D01*
X24586600Y10475014D01*
X24543368Y10474712D01*
X24500135Y10475014D01*
X24493507Y10474364D01*
X24309114Y10454983D01*
X24266754Y10446288D01*
X24224301Y10438190D01*
X24217933Y10436267D01*
X24217921Y10436264D01*
X24217910Y10436259D01*
X24040809Y10381438D01*
X24006462Y10367000D01*
X12809477Y10367000D01*
X12809087Y10369045D01*
X12807263Y10375086D01*
X12737970Y10598937D01*
X12722094Y10636705D01*
X12706748Y10674688D01*
X12703785Y10680260D01*
X12592332Y10886387D01*
X12569409Y10920372D01*
X12546992Y10954629D01*
X12543004Y10959519D01*
X12543003Y10959521D01*
X12542998Y10959526D01*
X12393635Y11140073D01*
X12364569Y11168938D01*
X12335904Y11198209D01*
X12331047Y11202227D01*
X12331041Y11202233D01*
X12331034Y11202237D01*
X12149449Y11350335D01*
X12115342Y11372996D01*
X12081525Y11396150D01*
X12075974Y11399152D01*
X11869074Y11509163D01*
X11831164Y11524789D01*
X11793544Y11540913D01*
X11787525Y11542776D01*
X11787515Y11542780D01*
X11787505Y11542782D01*
X11563189Y11610508D01*
X11522994Y11618467D01*
X11482928Y11626983D01*
X11476657Y11627642D01*
X11476654Y11627643D01*
X11476651Y11627643D01*
X11243440Y11650509D01*
X11054337Y11669050D01*
X10914867Y11711159D01*
X10786228Y11779558D01*
X10673326Y11871639D01*
X10580460Y11983893D01*
X10511164Y12112054D01*
X10468082Y12251228D01*
X10450668Y12416912D01*
X10450961Y20536679D01*
X17383000Y20536679D01*
X17383000Y20403321D01*
X17409016Y20272526D01*
X17460050Y20149320D01*
X17534140Y20038437D01*
X17628437Y19944140D01*
X17739320Y19870050D01*
X17862526Y19819016D01*
X17993321Y19793000D01*
X18126679Y19793000D01*
X18257474Y19819016D01*
X18380680Y19870050D01*
X18491563Y19944140D01*
X18585860Y20038437D01*
X18659950Y20149320D01*
X18710984Y20272526D01*
X18737000Y20403321D01*
X18737000Y20476679D01*
X27833000Y20476679D01*
X27833000Y20343321D01*
X27859016Y20212526D01*
X27910050Y20089320D01*
X27984140Y19978437D01*
X28078437Y19884140D01*
X28189320Y19810050D01*
X28312526Y19759016D01*
X28443321Y19733000D01*
X28576679Y19733000D01*
X28707474Y19759016D01*
X28830680Y19810050D01*
X28941563Y19884140D01*
X29035860Y19978437D01*
X29109950Y20089320D01*
X29160984Y20212526D01*
X29187000Y20343321D01*
X29187000Y20476679D01*
X29175066Y20536679D01*
X37633000Y20536679D01*
X37633000Y20403321D01*
X37659016Y20272526D01*
X37710050Y20149320D01*
X37784140Y20038437D01*
X37878437Y19944140D01*
X37989320Y19870050D01*
X38112526Y19819016D01*
X38243321Y19793000D01*
X38376679Y19793000D01*
X38507474Y19819016D01*
X38630680Y19870050D01*
X38741563Y19944140D01*
X38835860Y20038437D01*
X38909950Y20149320D01*
X38960984Y20272526D01*
X38987000Y20403321D01*
X38987000Y20536679D01*
X38975066Y20596679D01*
X47633000Y20596679D01*
X47633000Y20463321D01*
X47659016Y20332526D01*
X47710050Y20209320D01*
X47784140Y20098437D01*
X47878437Y20004140D01*
X47989320Y19930050D01*
X48112526Y19879016D01*
X48243321Y19853000D01*
X48376679Y19853000D01*
X48507474Y19879016D01*
X48630680Y19930050D01*
X48741563Y20004140D01*
X48835860Y20098437D01*
X48909950Y20209320D01*
X48960984Y20332526D01*
X48987000Y20463321D01*
X48987000Y20596679D01*
X48960984Y20727474D01*
X48909950Y20850680D01*
X48835860Y20961563D01*
X48741563Y21055860D01*
X48630680Y21129950D01*
X48507474Y21180984D01*
X48376679Y21207000D01*
X48243321Y21207000D01*
X48112526Y21180984D01*
X47989320Y21129950D01*
X47878437Y21055860D01*
X47784140Y20961563D01*
X47710050Y20850680D01*
X47659016Y20727474D01*
X47633000Y20596679D01*
X38975066Y20596679D01*
X38960984Y20667474D01*
X38909950Y20790680D01*
X38835860Y20901563D01*
X38741563Y20995860D01*
X38630680Y21069950D01*
X38507474Y21120984D01*
X38376679Y21147000D01*
X38243321Y21147000D01*
X38112526Y21120984D01*
X37989320Y21069950D01*
X37878437Y20995860D01*
X37784140Y20901563D01*
X37710050Y20790680D01*
X37659016Y20667474D01*
X37633000Y20536679D01*
X29175066Y20536679D01*
X29160984Y20607474D01*
X29109950Y20730680D01*
X29035860Y20841563D01*
X28941563Y20935860D01*
X28830680Y21009950D01*
X28707474Y21060984D01*
X28576679Y21087000D01*
X28443321Y21087000D01*
X28312526Y21060984D01*
X28189320Y21009950D01*
X28078437Y20935860D01*
X27984140Y20841563D01*
X27910050Y20730680D01*
X27859016Y20607474D01*
X27833000Y20476679D01*
X18737000Y20476679D01*
X18737000Y20536679D01*
X18710984Y20667474D01*
X18659950Y20790680D01*
X18585860Y20901563D01*
X18491563Y20995860D01*
X18380680Y21069950D01*
X18257474Y21120984D01*
X18126679Y21147000D01*
X17993321Y21147000D01*
X17862526Y21120984D01*
X17739320Y21069950D01*
X17628437Y20995860D01*
X17534140Y20901563D01*
X17460050Y20790680D01*
X17409016Y20667474D01*
X17383000Y20536679D01*
X10450961Y20536679D01*
X10451149Y25706679D01*
X13043000Y25706679D01*
X13043000Y25573321D01*
X13069016Y25442526D01*
X13120050Y25319320D01*
X13194140Y25208437D01*
X13288437Y25114140D01*
X13399320Y25040050D01*
X13522526Y24989016D01*
X13653321Y24963000D01*
X13786679Y24963000D01*
X13917474Y24989016D01*
X14040680Y25040050D01*
X14151563Y25114140D01*
X14245860Y25208437D01*
X14319950Y25319320D01*
X14370984Y25442526D01*
X14397000Y25573321D01*
X14397000Y25706679D01*
X14370984Y25837474D01*
X14319950Y25960680D01*
X14245860Y26071563D01*
X14151563Y26165860D01*
X14040680Y26239950D01*
X13917474Y26290984D01*
X13786679Y26317000D01*
X13653321Y26317000D01*
X13522526Y26290984D01*
X13399320Y26239950D01*
X13288437Y26165860D01*
X13194140Y26071563D01*
X13120050Y25960680D01*
X13069016Y25837474D01*
X13043000Y25706679D01*
X10451149Y25706679D01*
X10451228Y27906679D01*
X18193000Y27906679D01*
X18193000Y27773321D01*
X18219016Y27642526D01*
X18270050Y27519320D01*
X18344140Y27408437D01*
X18438437Y27314140D01*
X18549320Y27240050D01*
X18672526Y27189016D01*
X18803321Y27163000D01*
X18936679Y27163000D01*
X19067474Y27189016D01*
X19190680Y27240050D01*
X19301563Y27314140D01*
X19395860Y27408437D01*
X19469950Y27519320D01*
X19488711Y27564612D01*
X19509016Y27462526D01*
X19560050Y27339320D01*
X19634140Y27228437D01*
X19728437Y27134140D01*
X19839320Y27060050D01*
X19962526Y27009016D01*
X20093321Y26983000D01*
X20226679Y26983000D01*
X20307396Y26999055D01*
X20298901Y26956345D01*
X20259320Y26939950D01*
X20148437Y26865860D01*
X20054140Y26771563D01*
X19980050Y26660680D01*
X19929016Y26537474D01*
X19903000Y26406679D01*
X19903000Y26273321D01*
X19929016Y26142526D01*
X19980050Y26019320D01*
X20054140Y25908437D01*
X20148437Y25814140D01*
X20259320Y25740050D01*
X20382526Y25689016D01*
X20513321Y25663000D01*
X20646679Y25663000D01*
X20777474Y25689016D01*
X20900680Y25740050D01*
X20920000Y25752959D01*
X20939320Y25740050D01*
X21062526Y25689016D01*
X21193321Y25663000D01*
X21326679Y25663000D01*
X21457474Y25689016D01*
X21475973Y25696679D01*
X23373000Y25696679D01*
X23373000Y25563321D01*
X23399016Y25432526D01*
X23450050Y25309320D01*
X23524140Y25198437D01*
X23618437Y25104140D01*
X23729320Y25030050D01*
X23852526Y24979016D01*
X23983321Y24953000D01*
X24116679Y24953000D01*
X24247474Y24979016D01*
X24370680Y25030050D01*
X24481563Y25104140D01*
X24575860Y25198437D01*
X24649950Y25309320D01*
X24700984Y25432526D01*
X24727000Y25563321D01*
X24727000Y25696679D01*
X24700984Y25827474D01*
X24649950Y25950680D01*
X24575860Y26061563D01*
X24481563Y26155860D01*
X24370680Y26229950D01*
X24247474Y26280984D01*
X24116679Y26307000D01*
X23983321Y26307000D01*
X23852526Y26280984D01*
X23729320Y26229950D01*
X23618437Y26155860D01*
X23524140Y26061563D01*
X23450050Y25950680D01*
X23399016Y25827474D01*
X23373000Y25696679D01*
X21475973Y25696679D01*
X21580680Y25740050D01*
X21691563Y25814140D01*
X21785860Y25908437D01*
X21859950Y26019320D01*
X21910984Y26142526D01*
X21931997Y26248169D01*
X21960680Y26260050D01*
X22071563Y26334140D01*
X22165860Y26428437D01*
X22239950Y26539320D01*
X22290984Y26662526D01*
X22317000Y26793321D01*
X22317000Y26926679D01*
X22290984Y27057474D01*
X22239950Y27180680D01*
X22165860Y27291563D01*
X22071563Y27385860D01*
X21960680Y27459950D01*
X21837474Y27510984D01*
X21706679Y27537000D01*
X21573321Y27537000D01*
X21442526Y27510984D01*
X21319320Y27459950D01*
X21305000Y27450382D01*
X21290680Y27459950D01*
X21167474Y27510984D01*
X21036679Y27537000D01*
X20903321Y27537000D01*
X20822604Y27520945D01*
X20837000Y27593321D01*
X20837000Y27726679D01*
X20811143Y27856679D01*
X28503000Y27856679D01*
X28503000Y27723321D01*
X28529016Y27592526D01*
X28580050Y27469320D01*
X28654140Y27358437D01*
X28748437Y27264140D01*
X28859320Y27190050D01*
X28982526Y27139016D01*
X29113321Y27113000D01*
X29246679Y27113000D01*
X29377474Y27139016D01*
X29500680Y27190050D01*
X29611563Y27264140D01*
X29705860Y27358437D01*
X29779950Y27469320D01*
X29830984Y27592526D01*
X29853000Y27703211D01*
X29853000Y27653321D01*
X29879016Y27522526D01*
X29930050Y27399320D01*
X30004140Y27288437D01*
X30098437Y27194140D01*
X30209320Y27120050D01*
X30332526Y27069016D01*
X30463321Y27043000D01*
X30596679Y27043000D01*
X30727474Y27069016D01*
X30771320Y27087178D01*
X30759016Y27057474D01*
X30743608Y26980010D01*
X30719320Y26969950D01*
X30608437Y26895860D01*
X30514140Y26801563D01*
X30440050Y26690680D01*
X30389016Y26567474D01*
X30363000Y26436679D01*
X30363000Y26303321D01*
X30389016Y26172526D01*
X30440050Y26049320D01*
X30514140Y25938437D01*
X30608437Y25844140D01*
X30719320Y25770050D01*
X30842526Y25719016D01*
X30973321Y25693000D01*
X31106679Y25693000D01*
X31237474Y25719016D01*
X31360680Y25770050D01*
X31365000Y25772937D01*
X31369320Y25770050D01*
X31492526Y25719016D01*
X31623321Y25693000D01*
X31756679Y25693000D01*
X31825449Y25706679D01*
X33253000Y25706679D01*
X33253000Y25573321D01*
X33279016Y25442526D01*
X33330050Y25319320D01*
X33404140Y25208437D01*
X33498437Y25114140D01*
X33609320Y25040050D01*
X33732526Y24989016D01*
X33863321Y24963000D01*
X33996679Y24963000D01*
X34127474Y24989016D01*
X34250680Y25040050D01*
X34361563Y25114140D01*
X34455860Y25208437D01*
X34529950Y25319320D01*
X34580984Y25442526D01*
X34607000Y25573321D01*
X34607000Y25706679D01*
X34580984Y25837474D01*
X34529950Y25960680D01*
X34455860Y26071563D01*
X34361563Y26165860D01*
X34250680Y26239950D01*
X34127474Y26290984D01*
X33996679Y26317000D01*
X33863321Y26317000D01*
X33732526Y26290984D01*
X33609320Y26239950D01*
X33498437Y26165860D01*
X33404140Y26071563D01*
X33330050Y25960680D01*
X33279016Y25837474D01*
X33253000Y25706679D01*
X31825449Y25706679D01*
X31887474Y25719016D01*
X32010680Y25770050D01*
X32121563Y25844140D01*
X32215860Y25938437D01*
X32289950Y26049320D01*
X32340984Y26172526D01*
X32356392Y26249990D01*
X32380680Y26260050D01*
X32491563Y26334140D01*
X32585860Y26428437D01*
X32659950Y26539320D01*
X32710984Y26662526D01*
X32737000Y26793321D01*
X32737000Y26926679D01*
X32710984Y27057474D01*
X32659950Y27180680D01*
X32585860Y27291563D01*
X32491563Y27385860D01*
X32380680Y27459950D01*
X32257474Y27510984D01*
X32126679Y27537000D01*
X31993321Y27537000D01*
X31862526Y27510984D01*
X31739320Y27459950D01*
X31735000Y27457063D01*
X31730680Y27459950D01*
X31607474Y27510984D01*
X31476679Y27537000D01*
X31343321Y27537000D01*
X31212526Y27510984D01*
X31168680Y27492822D01*
X31180984Y27522526D01*
X31207000Y27653321D01*
X31207000Y27786679D01*
X31191088Y27866679D01*
X38353000Y27866679D01*
X38353000Y27733321D01*
X38379016Y27602526D01*
X38430050Y27479320D01*
X38504140Y27368437D01*
X38598437Y27274140D01*
X38709320Y27200050D01*
X38832526Y27149016D01*
X38963321Y27123000D01*
X39096679Y27123000D01*
X39227474Y27149016D01*
X39350680Y27200050D01*
X39461563Y27274140D01*
X39555860Y27368437D01*
X39629950Y27479320D01*
X39680984Y27602526D01*
X39707000Y27733321D01*
X39707000Y27796679D01*
X39793000Y27796679D01*
X39793000Y27663321D01*
X39819016Y27532526D01*
X39870050Y27409320D01*
X39944140Y27298437D01*
X40038437Y27204140D01*
X40149320Y27130050D01*
X40272526Y27079016D01*
X40403321Y27053000D01*
X40536679Y27053000D01*
X40621538Y27069879D01*
X40607631Y26999961D01*
X40559320Y26979950D01*
X40448437Y26905860D01*
X40354140Y26811563D01*
X40280050Y26700680D01*
X40229016Y26577474D01*
X40203000Y26446679D01*
X40203000Y26313321D01*
X40229016Y26182526D01*
X40280050Y26059320D01*
X40354140Y25948437D01*
X40448437Y25854140D01*
X40559320Y25780050D01*
X40682526Y25729016D01*
X40813321Y25703000D01*
X40946679Y25703000D01*
X41077474Y25729016D01*
X41200680Y25780050D01*
X41225000Y25796300D01*
X41249320Y25780050D01*
X41372526Y25729016D01*
X41503321Y25703000D01*
X41636679Y25703000D01*
X41655175Y25706679D01*
X43273000Y25706679D01*
X43273000Y25573321D01*
X43299016Y25442526D01*
X43350050Y25319320D01*
X43424140Y25208437D01*
X43518437Y25114140D01*
X43629320Y25040050D01*
X43752526Y24989016D01*
X43883321Y24963000D01*
X44016679Y24963000D01*
X44147474Y24989016D01*
X44270680Y25040050D01*
X44381563Y25114140D01*
X44475860Y25208437D01*
X44528139Y25286679D01*
X52943000Y25286679D01*
X52943000Y25153321D01*
X52969016Y25022526D01*
X52996986Y24955000D01*
X52969016Y24887474D01*
X52943000Y24756679D01*
X52943000Y24623321D01*
X52969016Y24492526D01*
X52999057Y24420000D01*
X52969016Y24347474D01*
X52943000Y24216679D01*
X52943000Y24083321D01*
X52969016Y23952526D01*
X53020050Y23829320D01*
X53094140Y23718437D01*
X53188437Y23624140D01*
X53299320Y23550050D01*
X53422526Y23499016D01*
X53553321Y23473000D01*
X53686679Y23473000D01*
X53817474Y23499016D01*
X53900000Y23533200D01*
X53982526Y23499016D01*
X54113321Y23473000D01*
X54246679Y23473000D01*
X54377474Y23499016D01*
X54500680Y23550050D01*
X54611563Y23624140D01*
X54705860Y23718437D01*
X54779950Y23829320D01*
X54830984Y23952526D01*
X54857000Y24083321D01*
X54857000Y24216679D01*
X54830984Y24347474D01*
X54801978Y24417500D01*
X54830984Y24487526D01*
X54857000Y24618321D01*
X54857000Y24751679D01*
X54848711Y24793350D01*
X54927474Y24809016D01*
X55050680Y24860050D01*
X55161563Y24934140D01*
X55255860Y25028437D01*
X55329950Y25139320D01*
X55380984Y25262526D01*
X55407000Y25393321D01*
X55407000Y25526679D01*
X55380984Y25657474D01*
X55329950Y25780680D01*
X55255860Y25891563D01*
X55161563Y25985860D01*
X55050680Y26059950D01*
X54927474Y26110984D01*
X54796679Y26137000D01*
X54663321Y26137000D01*
X54532526Y26110984D01*
X54409320Y26059950D01*
X54298437Y25985860D01*
X54209577Y25897000D01*
X54113321Y25897000D01*
X53982526Y25870984D01*
X53900000Y25836800D01*
X53817474Y25870984D01*
X53686679Y25897000D01*
X53553321Y25897000D01*
X53422526Y25870984D01*
X53299320Y25819950D01*
X53188437Y25745860D01*
X53094140Y25651563D01*
X53020050Y25540680D01*
X52969016Y25417474D01*
X52943000Y25286679D01*
X44528139Y25286679D01*
X44549950Y25319320D01*
X44600984Y25442526D01*
X44627000Y25573321D01*
X44627000Y25706679D01*
X44600984Y25837474D01*
X44549950Y25960680D01*
X44475860Y26071563D01*
X44381563Y26165860D01*
X44270680Y26239950D01*
X44147474Y26290984D01*
X44016679Y26317000D01*
X43883321Y26317000D01*
X43752526Y26290984D01*
X43629320Y26239950D01*
X43518437Y26165860D01*
X43424140Y26071563D01*
X43350050Y25960680D01*
X43299016Y25837474D01*
X43273000Y25706679D01*
X41655175Y25706679D01*
X41767474Y25729016D01*
X41890680Y25780050D01*
X42001563Y25854140D01*
X42095860Y25948437D01*
X42169950Y26059320D01*
X42220984Y26182526D01*
X42242369Y26290039D01*
X42290680Y26310050D01*
X42401563Y26384140D01*
X42495860Y26478437D01*
X42569950Y26589320D01*
X42620984Y26712526D01*
X42647000Y26843321D01*
X42647000Y26976679D01*
X42620984Y27107474D01*
X42569950Y27230680D01*
X42495860Y27341563D01*
X42401563Y27435860D01*
X42290680Y27509950D01*
X42167474Y27560984D01*
X42036679Y27587000D01*
X41903321Y27587000D01*
X41772526Y27560984D01*
X41649320Y27509950D01*
X41625000Y27493700D01*
X41600680Y27509950D01*
X41477474Y27560984D01*
X41346679Y27587000D01*
X41213321Y27587000D01*
X41128462Y27570121D01*
X41147000Y27663321D01*
X41147000Y27796679D01*
X41133077Y27866679D01*
X48303000Y27866679D01*
X48303000Y27733321D01*
X48329016Y27602526D01*
X48380050Y27479320D01*
X48454140Y27368437D01*
X48548437Y27274140D01*
X48659320Y27200050D01*
X48782526Y27149016D01*
X48913321Y27123000D01*
X49046679Y27123000D01*
X49177474Y27149016D01*
X49300680Y27200050D01*
X49411563Y27274140D01*
X49505860Y27368437D01*
X49579950Y27479320D01*
X49630984Y27602526D01*
X49648011Y27688129D01*
X49669016Y27582526D01*
X49720050Y27459320D01*
X49794140Y27348437D01*
X49888437Y27254140D01*
X49999320Y27180050D01*
X50122526Y27129016D01*
X50253321Y27103000D01*
X50386679Y27103000D01*
X50517474Y27129016D01*
X50640680Y27180050D01*
X50644193Y27182397D01*
X50609016Y27097474D01*
X50589799Y27000859D01*
X50539320Y26979950D01*
X50428437Y26905860D01*
X50334140Y26811563D01*
X50260050Y26700680D01*
X50209016Y26577474D01*
X50183000Y26446679D01*
X50183000Y26313321D01*
X50209016Y26182526D01*
X50260050Y26059320D01*
X50334140Y25948437D01*
X50428437Y25854140D01*
X50539320Y25780050D01*
X50662526Y25729016D01*
X50793321Y25703000D01*
X50926679Y25703000D01*
X51057474Y25729016D01*
X51180000Y25779768D01*
X51302526Y25729016D01*
X51433321Y25703000D01*
X51566679Y25703000D01*
X51697474Y25729016D01*
X51820680Y25780050D01*
X51931563Y25854140D01*
X52025860Y25948437D01*
X52099950Y26059320D01*
X52150984Y26182526D01*
X52170201Y26279141D01*
X52220680Y26300050D01*
X52331563Y26374140D01*
X52425860Y26468437D01*
X52499950Y26579320D01*
X52550984Y26702526D01*
X52577000Y26833321D01*
X52577000Y26966679D01*
X52569044Y27006679D01*
X54063000Y27006679D01*
X54063000Y26873321D01*
X54089016Y26742526D01*
X54140050Y26619320D01*
X54214140Y26508437D01*
X54308437Y26414140D01*
X54419320Y26340050D01*
X54542526Y26289016D01*
X54673321Y26263000D01*
X54806679Y26263000D01*
X54937474Y26289016D01*
X55060680Y26340050D01*
X55171563Y26414140D01*
X55265860Y26508437D01*
X55339950Y26619320D01*
X55390984Y26742526D01*
X55417000Y26873321D01*
X55417000Y27006679D01*
X55390984Y27137474D01*
X55339950Y27260680D01*
X55305313Y27312517D01*
X55349950Y27379320D01*
X55400984Y27502526D01*
X55427000Y27633321D01*
X55427000Y27766679D01*
X55400984Y27897474D01*
X55349950Y28020680D01*
X55275860Y28131563D01*
X55181563Y28225860D01*
X55070680Y28299950D01*
X54947474Y28350984D01*
X54816679Y28377000D01*
X54683321Y28377000D01*
X54552526Y28350984D01*
X54429320Y28299950D01*
X54318437Y28225860D01*
X54224140Y28131563D01*
X54150050Y28020680D01*
X54099016Y27897474D01*
X54073000Y27766679D01*
X54073000Y27633321D01*
X54099016Y27502526D01*
X54150050Y27379320D01*
X54184687Y27327483D01*
X54140050Y27260680D01*
X54089016Y27137474D01*
X54063000Y27006679D01*
X52569044Y27006679D01*
X52550984Y27097474D01*
X52499950Y27220680D01*
X52425860Y27331563D01*
X52331563Y27425860D01*
X52220680Y27499950D01*
X52097474Y27550984D01*
X51966679Y27577000D01*
X51833321Y27577000D01*
X51702526Y27550984D01*
X51580000Y27500232D01*
X51457474Y27550984D01*
X51326679Y27577000D01*
X51193321Y27577000D01*
X51062526Y27550984D01*
X50939320Y27499950D01*
X50935807Y27497603D01*
X50970984Y27582526D01*
X50997000Y27713321D01*
X50997000Y27846679D01*
X50970984Y27977474D01*
X50919950Y28100680D01*
X50845860Y28211563D01*
X50751563Y28305860D01*
X50640680Y28379950D01*
X50517474Y28430984D01*
X50386679Y28457000D01*
X50253321Y28457000D01*
X50122526Y28430984D01*
X49999320Y28379950D01*
X49888437Y28305860D01*
X49794140Y28211563D01*
X49720050Y28100680D01*
X49669016Y27977474D01*
X49651989Y27891871D01*
X49630984Y27997474D01*
X49579950Y28120680D01*
X49505860Y28231563D01*
X49411563Y28325860D01*
X49300680Y28399950D01*
X49177474Y28450984D01*
X49046679Y28477000D01*
X48913321Y28477000D01*
X48782526Y28450984D01*
X48659320Y28399950D01*
X48548437Y28325860D01*
X48454140Y28231563D01*
X48380050Y28120680D01*
X48329016Y27997474D01*
X48303000Y27866679D01*
X41133077Y27866679D01*
X41120984Y27927474D01*
X41069950Y28050680D01*
X40995860Y28161563D01*
X40901563Y28255860D01*
X40790680Y28329950D01*
X40667474Y28380984D01*
X40536679Y28407000D01*
X40403321Y28407000D01*
X40272526Y28380984D01*
X40149320Y28329950D01*
X40038437Y28255860D01*
X39944140Y28161563D01*
X39870050Y28050680D01*
X39819016Y27927474D01*
X39793000Y27796679D01*
X39707000Y27796679D01*
X39707000Y27866679D01*
X39680984Y27997474D01*
X39629950Y28120680D01*
X39555860Y28231563D01*
X39461563Y28325860D01*
X39350680Y28399950D01*
X39227474Y28450984D01*
X39096679Y28477000D01*
X38963321Y28477000D01*
X38832526Y28450984D01*
X38709320Y28399950D01*
X38598437Y28325860D01*
X38504140Y28231563D01*
X38430050Y28120680D01*
X38379016Y27997474D01*
X38353000Y27866679D01*
X31191088Y27866679D01*
X31180984Y27917474D01*
X31129950Y28040680D01*
X31055860Y28151563D01*
X30961563Y28245860D01*
X30850680Y28319950D01*
X30727474Y28370984D01*
X30596679Y28397000D01*
X30463321Y28397000D01*
X30332526Y28370984D01*
X30209320Y28319950D01*
X30098437Y28245860D01*
X30004140Y28151563D01*
X29930050Y28040680D01*
X29879016Y27917474D01*
X29857000Y27806789D01*
X29857000Y27856679D01*
X29830984Y27987474D01*
X29779950Y28110680D01*
X29705860Y28221563D01*
X29611563Y28315860D01*
X29500680Y28389950D01*
X29377474Y28440984D01*
X29246679Y28467000D01*
X29113321Y28467000D01*
X28982526Y28440984D01*
X28859320Y28389950D01*
X28748437Y28315860D01*
X28654140Y28221563D01*
X28580050Y28110680D01*
X28529016Y27987474D01*
X28503000Y27856679D01*
X20811143Y27856679D01*
X20810984Y27857474D01*
X20759950Y27980680D01*
X20685860Y28091563D01*
X20591563Y28185860D01*
X20480680Y28259950D01*
X20357474Y28310984D01*
X20226679Y28337000D01*
X20093321Y28337000D01*
X19962526Y28310984D01*
X19839320Y28259950D01*
X19728437Y28185860D01*
X19634140Y28091563D01*
X19560050Y27980680D01*
X19541289Y27935388D01*
X19520984Y28037474D01*
X19469950Y28160680D01*
X19395860Y28271563D01*
X19301563Y28365860D01*
X19190680Y28439950D01*
X19067474Y28490984D01*
X18936679Y28517000D01*
X18803321Y28517000D01*
X18672526Y28490984D01*
X18549320Y28439950D01*
X18438437Y28365860D01*
X18344140Y28271563D01*
X18270050Y28160680D01*
X18219016Y28037474D01*
X18193000Y27906679D01*
X10451228Y27906679D01*
X10451264Y28906679D01*
X13503002Y28906679D01*
X13503002Y28773321D01*
X13529018Y28642526D01*
X13580052Y28519320D01*
X13654142Y28408437D01*
X13748439Y28314140D01*
X13859322Y28240050D01*
X13982528Y28189016D01*
X14113323Y28163000D01*
X14246681Y28163000D01*
X14377476Y28189016D01*
X14500682Y28240050D01*
X14611565Y28314140D01*
X14705862Y28408437D01*
X14779952Y28519320D01*
X14830986Y28642526D01*
X14857002Y28773321D01*
X14857002Y28876679D01*
X22863000Y28876679D01*
X22863000Y28743321D01*
X22889016Y28612526D01*
X22940050Y28489320D01*
X23014140Y28378437D01*
X23108437Y28284140D01*
X23219320Y28210050D01*
X23342526Y28159016D01*
X23473321Y28133000D01*
X23606679Y28133000D01*
X23737474Y28159016D01*
X23860680Y28210050D01*
X23971563Y28284140D01*
X24065860Y28378437D01*
X24139950Y28489320D01*
X24190984Y28612526D01*
X24217000Y28743321D01*
X24217000Y28876679D01*
X24205066Y28936679D01*
X33703000Y28936679D01*
X33703000Y28803321D01*
X33729016Y28672526D01*
X33780050Y28549320D01*
X33854140Y28438437D01*
X33948437Y28344140D01*
X34059320Y28270050D01*
X34182526Y28219016D01*
X34313321Y28193000D01*
X34446679Y28193000D01*
X34577474Y28219016D01*
X34700680Y28270050D01*
X34811563Y28344140D01*
X34905860Y28438437D01*
X34979950Y28549320D01*
X35030984Y28672526D01*
X35057000Y28803321D01*
X35057000Y28896679D01*
X43733000Y28896679D01*
X43733000Y28763321D01*
X43759016Y28632526D01*
X43810050Y28509320D01*
X43884140Y28398437D01*
X43978437Y28304140D01*
X44089320Y28230050D01*
X44212526Y28179016D01*
X44343321Y28153000D01*
X44476679Y28153000D01*
X44607474Y28179016D01*
X44730680Y28230050D01*
X44841563Y28304140D01*
X44935860Y28398437D01*
X45009950Y28509320D01*
X45060984Y28632526D01*
X45087000Y28763321D01*
X45087000Y28896679D01*
X45060984Y29027474D01*
X45009950Y29150680D01*
X44935860Y29261563D01*
X44841563Y29355860D01*
X44730680Y29429950D01*
X44607474Y29480984D01*
X44476679Y29507000D01*
X44343321Y29507000D01*
X44212526Y29480984D01*
X44089320Y29429950D01*
X43978437Y29355860D01*
X43884140Y29261563D01*
X43810050Y29150680D01*
X43759016Y29027474D01*
X43733000Y28896679D01*
X35057000Y28896679D01*
X35057000Y28936679D01*
X35030984Y29067474D01*
X34979950Y29190680D01*
X34905860Y29301563D01*
X34811563Y29395860D01*
X34700680Y29469950D01*
X34577474Y29520984D01*
X34446679Y29547000D01*
X34313321Y29547000D01*
X34182526Y29520984D01*
X34059320Y29469950D01*
X33948437Y29395860D01*
X33854140Y29301563D01*
X33780050Y29190680D01*
X33729016Y29067474D01*
X33703000Y28936679D01*
X24205066Y28936679D01*
X24190984Y29007474D01*
X24139950Y29130680D01*
X24065860Y29241563D01*
X23971563Y29335860D01*
X23860680Y29409950D01*
X23737474Y29460984D01*
X23606679Y29487000D01*
X23473321Y29487000D01*
X23342526Y29460984D01*
X23219320Y29409950D01*
X23108437Y29335860D01*
X23014140Y29241563D01*
X22940050Y29130680D01*
X22889016Y29007474D01*
X22863000Y28876679D01*
X14857002Y28876679D01*
X14857002Y28906679D01*
X14830986Y29037474D01*
X14779952Y29160680D01*
X14705862Y29271563D01*
X14611565Y29365860D01*
X14500682Y29439950D01*
X14377476Y29490984D01*
X14246681Y29517000D01*
X14113323Y29517000D01*
X13982528Y29490984D01*
X13859322Y29439950D01*
X13748439Y29365860D01*
X13654142Y29271563D01*
X13580052Y29160680D01*
X13529018Y29037474D01*
X13503002Y28906679D01*
X10451264Y28906679D01*
X10451353Y31366679D01*
X55923000Y31366679D01*
X55923000Y31233321D01*
X55949016Y31102526D01*
X56000050Y30979320D01*
X56074140Y30868437D01*
X56168437Y30774140D01*
X56279320Y30700050D01*
X56402526Y30649016D01*
X56533321Y30623000D01*
X56666679Y30623000D01*
X56797474Y30649016D01*
X56920680Y30700050D01*
X57031563Y30774140D01*
X57080000Y30822577D01*
X57128437Y30774140D01*
X57239320Y30700050D01*
X57362526Y30649016D01*
X57493321Y30623000D01*
X57626679Y30623000D01*
X57757474Y30649016D01*
X57880680Y30700050D01*
X57991563Y30774140D01*
X58085860Y30868437D01*
X58159950Y30979320D01*
X58210984Y31102526D01*
X58237000Y31233321D01*
X58237000Y31366679D01*
X58210984Y31497474D01*
X58159950Y31620680D01*
X58085860Y31731563D01*
X57991563Y31825860D01*
X57880680Y31899950D01*
X57757474Y31950984D01*
X57626679Y31977000D01*
X57493321Y31977000D01*
X57362526Y31950984D01*
X57239320Y31899950D01*
X57128437Y31825860D01*
X57080000Y31777423D01*
X57031563Y31825860D01*
X56920680Y31899950D01*
X56797474Y31950984D01*
X56666679Y31977000D01*
X56533321Y31977000D01*
X56402526Y31950984D01*
X56279320Y31899950D01*
X56168437Y31825860D01*
X56074140Y31731563D01*
X56000050Y31620680D01*
X55949016Y31497474D01*
X55923000Y31366679D01*
X10451353Y31366679D01*
X10451374Y31917874D01*
X10482996Y32240374D01*
X10570230Y32529309D01*
X10711924Y32795796D01*
X10902679Y33029685D01*
X11135233Y33222070D01*
X11400725Y33365622D01*
X11689042Y33454871D01*
X12010187Y33488624D01*
X63977891Y33488624D01*
X64300374Y33457004D01*
G04 #@! TA.AperFunction,Conductor*
D13*
G36*
X64300374Y33457004D02*
G01*
X64589309Y33369770D01*
X64855796Y33228076D01*
X65089685Y33037321D01*
X65282070Y32804767D01*
X65425622Y32539275D01*
X65514871Y32250958D01*
X65548624Y31929813D01*
X65548001Y12022124D01*
X65516379Y11699622D01*
X65429145Y11410690D01*
X65287452Y11144204D01*
X65096697Y10910315D01*
X64864143Y10717930D01*
X64598650Y10574378D01*
X64310334Y10485129D01*
X63989185Y10451376D01*
X32853177Y10451997D01*
X32793507Y10470097D01*
X32700000Y10479307D01*
X32606492Y10470097D01*
X32516577Y10442822D01*
X32433711Y10398529D01*
X32395293Y10367000D01*
X28675458Y10367000D01*
X28694316Y10412526D01*
X28720332Y10543321D01*
X28720332Y10676679D01*
X28694316Y10807474D01*
X28643282Y10930680D01*
X28569192Y11041563D01*
X28474895Y11135860D01*
X28364012Y11209950D01*
X28240806Y11260984D01*
X28110011Y11287000D01*
X27976653Y11287000D01*
X27845858Y11260984D01*
X27727000Y11211751D01*
X27727000Y12544578D01*
X29345422Y14163000D01*
X29755577Y14163000D01*
X28589798Y12997220D01*
X28563971Y12976024D01*
X28479370Y12872938D01*
X28416506Y12755327D01*
X28377794Y12627712D01*
X28367998Y12528249D01*
X28367998Y12528243D01*
X28364724Y12494998D01*
X28367998Y12461753D01*
X28367998Y11878321D01*
X28374519Y11845536D01*
X28377794Y11812285D01*
X28387492Y11780315D01*
X28394014Y11747526D01*
X28406809Y11716636D01*
X28416506Y11684670D01*
X28432254Y11655208D01*
X28445048Y11624320D01*
X28463621Y11596524D01*
X28479370Y11567059D01*
X28500565Y11541233D01*
X28519138Y11513437D01*
X28542780Y11489795D01*
X28563972Y11463973D01*
X28589792Y11442783D01*
X28613435Y11419140D01*
X28641235Y11400565D01*
X28667058Y11379372D01*
X28696518Y11363625D01*
X28724318Y11345050D01*
X28755210Y11332254D01*
X28784669Y11316508D01*
X28816632Y11306812D01*
X28847524Y11294016D01*
X28880316Y11287493D01*
X28912284Y11277796D01*
X28945533Y11274521D01*
X28978319Y11268000D01*
X29011746Y11268000D01*
X29044998Y11264725D01*
X29078250Y11268000D01*
X29111677Y11268000D01*
X29144462Y11274521D01*
X29177713Y11277796D01*
X29209683Y11287494D01*
X29242472Y11294016D01*
X29273362Y11306811D01*
X29305328Y11316508D01*
X29334790Y11332256D01*
X29365678Y11345050D01*
X29393474Y11363623D01*
X29422939Y11379372D01*
X29448767Y11400568D01*
X29476561Y11419140D01*
X29500199Y11442778D01*
X29526025Y11463973D01*
X29545968Y11488273D01*
X29615101Y11419140D01*
X29725984Y11345050D01*
X29849190Y11294016D01*
X29979985Y11268000D01*
X30113343Y11268000D01*
X30244138Y11294016D01*
X30367344Y11345050D01*
X30478227Y11419140D01*
X30547361Y11488274D01*
X30567303Y11463974D01*
X30593125Y11442782D01*
X30616767Y11419140D01*
X30644563Y11400567D01*
X30670389Y11379372D01*
X30699854Y11363623D01*
X30727650Y11345050D01*
X30758538Y11332256D01*
X30788000Y11316508D01*
X30819966Y11306811D01*
X30850856Y11294016D01*
X30883645Y11287494D01*
X30915615Y11277796D01*
X30948866Y11274521D01*
X30981651Y11268000D01*
X31015078Y11268000D01*
X31048330Y11264725D01*
X31081582Y11268000D01*
X31115009Y11268000D01*
X31147795Y11274521D01*
X31181044Y11277796D01*
X31213012Y11287493D01*
X31245804Y11294016D01*
X31276696Y11306812D01*
X31308659Y11316508D01*
X31338118Y11332254D01*
X31369010Y11345050D01*
X31396810Y11363625D01*
X31426270Y11379372D01*
X31452093Y11400565D01*
X31479893Y11419140D01*
X31503536Y11442783D01*
X31529356Y11463973D01*
X31550548Y11489795D01*
X31554165Y11493412D01*
X31628437Y11419140D01*
X31739320Y11345050D01*
X31862526Y11294016D01*
X31993321Y11268000D01*
X32126679Y11268000D01*
X32257474Y11294016D01*
X32380680Y11345050D01*
X32491563Y11419140D01*
X32585860Y11513437D01*
X32659950Y11624320D01*
X32710984Y11747526D01*
X32737000Y11878321D01*
X32737000Y12011679D01*
X32710984Y12142474D01*
X32690055Y12193000D01*
X48266755Y12193000D01*
X48300000Y12189726D01*
X48333245Y12193000D01*
X48333252Y12193000D01*
X48432715Y12202796D01*
X48560330Y12241508D01*
X48677941Y12304372D01*
X48781027Y12388973D01*
X48802226Y12414804D01*
X51860422Y15473000D01*
X52259203Y15473000D01*
X52248000Y15416679D01*
X52248000Y15283321D01*
X52274016Y15152526D01*
X52325050Y15029320D01*
X52399140Y14918437D01*
X52493437Y14824140D01*
X52604320Y14750050D01*
X52727526Y14699016D01*
X52858321Y14673000D01*
X52991679Y14673000D01*
X53122474Y14699016D01*
X53245680Y14750050D01*
X53356563Y14824140D01*
X53420000Y14887577D01*
X53488437Y14819140D01*
X53599320Y14745050D01*
X53722526Y14694016D01*
X53853321Y14668000D01*
X53986679Y14668000D01*
X54117474Y14694016D01*
X54240680Y14745050D01*
X54351563Y14819140D01*
X54420000Y14887577D01*
X54488437Y14819140D01*
X54599320Y14745050D01*
X54722526Y14694016D01*
X54853321Y14668000D01*
X54986679Y14668000D01*
X55117474Y14694016D01*
X55240680Y14745050D01*
X55351563Y14819140D01*
X55420000Y14887577D01*
X55488437Y14819140D01*
X55599320Y14745050D01*
X55722526Y14694016D01*
X55853321Y14668000D01*
X55986679Y14668000D01*
X56117474Y14694016D01*
X56240680Y14745050D01*
X56351563Y14819140D01*
X56445860Y14913437D01*
X56519950Y15024320D01*
X56570984Y15147526D01*
X56597000Y15278321D01*
X56597000Y15411679D01*
X56570984Y15542474D01*
X56519950Y15665680D01*
X56445860Y15776563D01*
X56351563Y15870860D01*
X56240680Y15944950D01*
X56117474Y15995984D01*
X55986679Y16022000D01*
X55853321Y16022000D01*
X55722526Y15995984D01*
X55599320Y15944950D01*
X55488437Y15870860D01*
X55420000Y15802423D01*
X55351563Y15870860D01*
X55322621Y15890199D01*
X55875205Y16442782D01*
X55901026Y16463973D01*
X55922218Y16489795D01*
X55922224Y16489801D01*
X55985628Y16567059D01*
X56048492Y16684670D01*
X56087204Y16812285D01*
X56100275Y16945000D01*
X56097000Y16978252D01*
X56097000Y17851679D01*
X56090479Y17884464D01*
X56087204Y17917715D01*
X56077506Y17949685D01*
X56070984Y17982474D01*
X56058189Y18013364D01*
X56048492Y18045330D01*
X56032744Y18074792D01*
X56019950Y18105680D01*
X56001377Y18133476D01*
X55985628Y18162941D01*
X55964432Y18188769D01*
X55945860Y18216563D01*
X55922222Y18240201D01*
X55901027Y18266027D01*
X55875199Y18287224D01*
X55851563Y18310860D01*
X55823769Y18329432D01*
X55797941Y18350628D01*
X55768476Y18366377D01*
X55740680Y18384950D01*
X55709792Y18397744D01*
X55680330Y18413492D01*
X55648364Y18423189D01*
X55617474Y18435984D01*
X55584685Y18442506D01*
X55552715Y18452204D01*
X55519464Y18455479D01*
X55486679Y18462000D01*
X55453252Y18462000D01*
X55420000Y18465275D01*
X55386748Y18462000D01*
X55353321Y18462000D01*
X55320535Y18455479D01*
X55287286Y18452204D01*
X55255318Y18442507D01*
X55222526Y18435984D01*
X55191634Y18423188D01*
X55159671Y18413492D01*
X55130212Y18397746D01*
X55099320Y18384950D01*
X55071520Y18366375D01*
X55042060Y18350628D01*
X55016237Y18329435D01*
X54988437Y18310860D01*
X54964794Y18287217D01*
X54938974Y18266027D01*
X54920000Y18242907D01*
X54901026Y18266027D01*
X54875206Y18287217D01*
X54851563Y18310860D01*
X54823763Y18329435D01*
X54797940Y18350628D01*
X54768480Y18366375D01*
X54740680Y18384950D01*
X54709788Y18397746D01*
X54680329Y18413492D01*
X54648366Y18423188D01*
X54617474Y18435984D01*
X54584682Y18442507D01*
X54552714Y18452204D01*
X54519465Y18455479D01*
X54486679Y18462000D01*
X54453252Y18462000D01*
X54420000Y18465275D01*
X54386748Y18462000D01*
X54353321Y18462000D01*
X54320536Y18455479D01*
X54287285Y18452204D01*
X54255315Y18442506D01*
X54222526Y18435984D01*
X54191636Y18423189D01*
X54159670Y18413492D01*
X54130208Y18397744D01*
X54099320Y18384950D01*
X54071524Y18366377D01*
X54042059Y18350628D01*
X54016233Y18329433D01*
X53988437Y18310860D01*
X53964795Y18287218D01*
X53938973Y18266026D01*
X53920000Y18242908D01*
X53901027Y18266027D01*
X53875199Y18287224D01*
X53851563Y18310860D01*
X53823769Y18329432D01*
X53797941Y18350628D01*
X53768476Y18366377D01*
X53740680Y18384950D01*
X53709792Y18397744D01*
X53680330Y18413492D01*
X53648364Y18423189D01*
X53617474Y18435984D01*
X53584685Y18442506D01*
X53552715Y18452204D01*
X53519464Y18455479D01*
X53486679Y18462000D01*
X50398245Y18462000D01*
X50365000Y18465274D01*
X50331755Y18462000D01*
X50331748Y18462000D01*
X50232285Y18452204D01*
X50104670Y18413492D01*
X49987059Y18350628D01*
X49883973Y18266027D01*
X49862778Y18240201D01*
X47139578Y15517000D01*
X29098241Y15517000D01*
X29064999Y15520274D01*
X29031757Y15517000D01*
X29031748Y15517000D01*
X28932285Y15507204D01*
X28804670Y15468492D01*
X28687059Y15405628D01*
X28583973Y15321027D01*
X28562776Y15295198D01*
X26594800Y13327222D01*
X26568973Y13306026D01*
X26547778Y13280200D01*
X26547776Y13280198D01*
X26521303Y13247940D01*
X26484372Y13202940D01*
X26421508Y13085329D01*
X26382796Y12957714D01*
X26373000Y12858251D01*
X26373000Y12858245D01*
X26369726Y12825000D01*
X26373000Y12791755D01*
X26373001Y10367000D01*
X25093564Y10367000D01*
X25086767Y10369746D01*
X25046928Y10386494D01*
X25040560Y10388416D01*
X25040554Y10388418D01*
X25040548Y10388419D01*
X24862688Y10440766D01*
X24820198Y10448871D01*
X24777872Y10457560D01*
X24771244Y10458210D01*
X24586600Y10475014D01*
X24543368Y10474712D01*
X24500135Y10475014D01*
X24493507Y10474364D01*
X24309114Y10454983D01*
X24266754Y10446288D01*
X24224301Y10438190D01*
X24217933Y10436267D01*
X24217921Y10436264D01*
X24217910Y10436259D01*
X24040809Y10381438D01*
X24006462Y10367000D01*
X12809477Y10367000D01*
X12809087Y10369045D01*
X12807263Y10375086D01*
X12737970Y10598937D01*
X12722094Y10636705D01*
X12706748Y10674688D01*
X12703785Y10680260D01*
X12592332Y10886387D01*
X12569409Y10920372D01*
X12546992Y10954629D01*
X12543004Y10959519D01*
X12543003Y10959521D01*
X12542998Y10959526D01*
X12393635Y11140073D01*
X12364569Y11168938D01*
X12335904Y11198209D01*
X12331047Y11202227D01*
X12331041Y11202233D01*
X12331034Y11202237D01*
X12149449Y11350335D01*
X12115342Y11372996D01*
X12081525Y11396150D01*
X12075974Y11399152D01*
X11869074Y11509163D01*
X11831164Y11524789D01*
X11793544Y11540913D01*
X11787525Y11542776D01*
X11787515Y11542780D01*
X11787505Y11542782D01*
X11563189Y11610508D01*
X11522994Y11618467D01*
X11482928Y11626983D01*
X11476657Y11627642D01*
X11476654Y11627643D01*
X11476651Y11627643D01*
X11243440Y11650509D01*
X11054337Y11669050D01*
X10914867Y11711159D01*
X10786228Y11779558D01*
X10673326Y11871639D01*
X10580460Y11983893D01*
X10511164Y12112054D01*
X10468082Y12251228D01*
X10450668Y12416912D01*
X10450961Y20536679D01*
X17383000Y20536679D01*
X17383000Y20403321D01*
X17409016Y20272526D01*
X17460050Y20149320D01*
X17534140Y20038437D01*
X17628437Y19944140D01*
X17739320Y19870050D01*
X17862526Y19819016D01*
X17993321Y19793000D01*
X18126679Y19793000D01*
X18257474Y19819016D01*
X18380680Y19870050D01*
X18491563Y19944140D01*
X18585860Y20038437D01*
X18659950Y20149320D01*
X18710984Y20272526D01*
X18737000Y20403321D01*
X18737000Y20476679D01*
X27833000Y20476679D01*
X27833000Y20343321D01*
X27859016Y20212526D01*
X27910050Y20089320D01*
X27984140Y19978437D01*
X28078437Y19884140D01*
X28189320Y19810050D01*
X28312526Y19759016D01*
X28443321Y19733000D01*
X28576679Y19733000D01*
X28707474Y19759016D01*
X28830680Y19810050D01*
X28941563Y19884140D01*
X29035860Y19978437D01*
X29109950Y20089320D01*
X29160984Y20212526D01*
X29187000Y20343321D01*
X29187000Y20476679D01*
X29175066Y20536679D01*
X37633000Y20536679D01*
X37633000Y20403321D01*
X37659016Y20272526D01*
X37710050Y20149320D01*
X37784140Y20038437D01*
X37878437Y19944140D01*
X37989320Y19870050D01*
X38112526Y19819016D01*
X38243321Y19793000D01*
X38376679Y19793000D01*
X38507474Y19819016D01*
X38630680Y19870050D01*
X38741563Y19944140D01*
X38835860Y20038437D01*
X38909950Y20149320D01*
X38960984Y20272526D01*
X38987000Y20403321D01*
X38987000Y20536679D01*
X38975066Y20596679D01*
X47633000Y20596679D01*
X47633000Y20463321D01*
X47659016Y20332526D01*
X47710050Y20209320D01*
X47784140Y20098437D01*
X47878437Y20004140D01*
X47989320Y19930050D01*
X48112526Y19879016D01*
X48243321Y19853000D01*
X48376679Y19853000D01*
X48507474Y19879016D01*
X48630680Y19930050D01*
X48741563Y20004140D01*
X48835860Y20098437D01*
X48909950Y20209320D01*
X48960984Y20332526D01*
X48987000Y20463321D01*
X48987000Y20596679D01*
X48960984Y20727474D01*
X48909950Y20850680D01*
X48835860Y20961563D01*
X48741563Y21055860D01*
X48630680Y21129950D01*
X48507474Y21180984D01*
X48376679Y21207000D01*
X48243321Y21207000D01*
X48112526Y21180984D01*
X47989320Y21129950D01*
X47878437Y21055860D01*
X47784140Y20961563D01*
X47710050Y20850680D01*
X47659016Y20727474D01*
X47633000Y20596679D01*
X38975066Y20596679D01*
X38960984Y20667474D01*
X38909950Y20790680D01*
X38835860Y20901563D01*
X38741563Y20995860D01*
X38630680Y21069950D01*
X38507474Y21120984D01*
X38376679Y21147000D01*
X38243321Y21147000D01*
X38112526Y21120984D01*
X37989320Y21069950D01*
X37878437Y20995860D01*
X37784140Y20901563D01*
X37710050Y20790680D01*
X37659016Y20667474D01*
X37633000Y20536679D01*
X29175066Y20536679D01*
X29160984Y20607474D01*
X29109950Y20730680D01*
X29035860Y20841563D01*
X28941563Y20935860D01*
X28830680Y21009950D01*
X28707474Y21060984D01*
X28576679Y21087000D01*
X28443321Y21087000D01*
X28312526Y21060984D01*
X28189320Y21009950D01*
X28078437Y20935860D01*
X27984140Y20841563D01*
X27910050Y20730680D01*
X27859016Y20607474D01*
X27833000Y20476679D01*
X18737000Y20476679D01*
X18737000Y20536679D01*
X18710984Y20667474D01*
X18659950Y20790680D01*
X18585860Y20901563D01*
X18491563Y20995860D01*
X18380680Y21069950D01*
X18257474Y21120984D01*
X18126679Y21147000D01*
X17993321Y21147000D01*
X17862526Y21120984D01*
X17739320Y21069950D01*
X17628437Y20995860D01*
X17534140Y20901563D01*
X17460050Y20790680D01*
X17409016Y20667474D01*
X17383000Y20536679D01*
X10450961Y20536679D01*
X10451149Y25706679D01*
X13043000Y25706679D01*
X13043000Y25573321D01*
X13069016Y25442526D01*
X13120050Y25319320D01*
X13194140Y25208437D01*
X13288437Y25114140D01*
X13399320Y25040050D01*
X13522526Y24989016D01*
X13653321Y24963000D01*
X13786679Y24963000D01*
X13917474Y24989016D01*
X14040680Y25040050D01*
X14151563Y25114140D01*
X14245860Y25208437D01*
X14319950Y25319320D01*
X14370984Y25442526D01*
X14397000Y25573321D01*
X14397000Y25706679D01*
X14370984Y25837474D01*
X14319950Y25960680D01*
X14245860Y26071563D01*
X14151563Y26165860D01*
X14040680Y26239950D01*
X13917474Y26290984D01*
X13786679Y26317000D01*
X13653321Y26317000D01*
X13522526Y26290984D01*
X13399320Y26239950D01*
X13288437Y26165860D01*
X13194140Y26071563D01*
X13120050Y25960680D01*
X13069016Y25837474D01*
X13043000Y25706679D01*
X10451149Y25706679D01*
X10451228Y27906679D01*
X18193000Y27906679D01*
X18193000Y27773321D01*
X18219016Y27642526D01*
X18270050Y27519320D01*
X18344140Y27408437D01*
X18438437Y27314140D01*
X18549320Y27240050D01*
X18672526Y27189016D01*
X18803321Y27163000D01*
X18936679Y27163000D01*
X19067474Y27189016D01*
X19190680Y27240050D01*
X19301563Y27314140D01*
X19395860Y27408437D01*
X19469950Y27519320D01*
X19488711Y27564612D01*
X19509016Y27462526D01*
X19560050Y27339320D01*
X19634140Y27228437D01*
X19728437Y27134140D01*
X19839320Y27060050D01*
X19962526Y27009016D01*
X20093321Y26983000D01*
X20226679Y26983000D01*
X20307396Y26999055D01*
X20298901Y26956345D01*
X20259320Y26939950D01*
X20148437Y26865860D01*
X20054140Y26771563D01*
X19980050Y26660680D01*
X19929016Y26537474D01*
X19903000Y26406679D01*
X19903000Y26273321D01*
X19929016Y26142526D01*
X19980050Y26019320D01*
X20054140Y25908437D01*
X20148437Y25814140D01*
X20259320Y25740050D01*
X20382526Y25689016D01*
X20513321Y25663000D01*
X20646679Y25663000D01*
X20777474Y25689016D01*
X20900680Y25740050D01*
X20920000Y25752959D01*
X20939320Y25740050D01*
X21062526Y25689016D01*
X21193321Y25663000D01*
X21326679Y25663000D01*
X21457474Y25689016D01*
X21475973Y25696679D01*
X23373000Y25696679D01*
X23373000Y25563321D01*
X23399016Y25432526D01*
X23450050Y25309320D01*
X23524140Y25198437D01*
X23618437Y25104140D01*
X23729320Y25030050D01*
X23852526Y24979016D01*
X23983321Y24953000D01*
X24116679Y24953000D01*
X24247474Y24979016D01*
X24370680Y25030050D01*
X24481563Y25104140D01*
X24575860Y25198437D01*
X24649950Y25309320D01*
X24700984Y25432526D01*
X24727000Y25563321D01*
X24727000Y25696679D01*
X24700984Y25827474D01*
X24649950Y25950680D01*
X24575860Y26061563D01*
X24481563Y26155860D01*
X24370680Y26229950D01*
X24247474Y26280984D01*
X24116679Y26307000D01*
X23983321Y26307000D01*
X23852526Y26280984D01*
X23729320Y26229950D01*
X23618437Y26155860D01*
X23524140Y26061563D01*
X23450050Y25950680D01*
X23399016Y25827474D01*
X23373000Y25696679D01*
X21475973Y25696679D01*
X21580680Y25740050D01*
X21691563Y25814140D01*
X21785860Y25908437D01*
X21859950Y26019320D01*
X21910984Y26142526D01*
X21931997Y26248169D01*
X21960680Y26260050D01*
X22071563Y26334140D01*
X22165860Y26428437D01*
X22239950Y26539320D01*
X22290984Y26662526D01*
X22317000Y26793321D01*
X22317000Y26926679D01*
X22290984Y27057474D01*
X22239950Y27180680D01*
X22165860Y27291563D01*
X22071563Y27385860D01*
X21960680Y27459950D01*
X21837474Y27510984D01*
X21706679Y27537000D01*
X21573321Y27537000D01*
X21442526Y27510984D01*
X21319320Y27459950D01*
X21305000Y27450382D01*
X21290680Y27459950D01*
X21167474Y27510984D01*
X21036679Y27537000D01*
X20903321Y27537000D01*
X20822604Y27520945D01*
X20837000Y27593321D01*
X20837000Y27726679D01*
X20811143Y27856679D01*
X28503000Y27856679D01*
X28503000Y27723321D01*
X28529016Y27592526D01*
X28580050Y27469320D01*
X28654140Y27358437D01*
X28748437Y27264140D01*
X28859320Y27190050D01*
X28982526Y27139016D01*
X29113321Y27113000D01*
X29246679Y27113000D01*
X29377474Y27139016D01*
X29500680Y27190050D01*
X29611563Y27264140D01*
X29705860Y27358437D01*
X29779950Y27469320D01*
X29830984Y27592526D01*
X29853000Y27703211D01*
X29853000Y27653321D01*
X29879016Y27522526D01*
X29930050Y27399320D01*
X30004140Y27288437D01*
X30098437Y27194140D01*
X30209320Y27120050D01*
X30332526Y27069016D01*
X30463321Y27043000D01*
X30596679Y27043000D01*
X30727474Y27069016D01*
X30771320Y27087178D01*
X30759016Y27057474D01*
X30743608Y26980010D01*
X30719320Y26969950D01*
X30608437Y26895860D01*
X30514140Y26801563D01*
X30440050Y26690680D01*
X30389016Y26567474D01*
X30363000Y26436679D01*
X30363000Y26303321D01*
X30389016Y26172526D01*
X30440050Y26049320D01*
X30514140Y25938437D01*
X30608437Y25844140D01*
X30719320Y25770050D01*
X30842526Y25719016D01*
X30973321Y25693000D01*
X31106679Y25693000D01*
X31237474Y25719016D01*
X31360680Y25770050D01*
X31365000Y25772937D01*
X31369320Y25770050D01*
X31492526Y25719016D01*
X31623321Y25693000D01*
X31756679Y25693000D01*
X31825449Y25706679D01*
X33253000Y25706679D01*
X33253000Y25573321D01*
X33279016Y25442526D01*
X33330050Y25319320D01*
X33404140Y25208437D01*
X33498437Y25114140D01*
X33609320Y25040050D01*
X33732526Y24989016D01*
X33863321Y24963000D01*
X33996679Y24963000D01*
X34127474Y24989016D01*
X34250680Y25040050D01*
X34361563Y25114140D01*
X34455860Y25208437D01*
X34529950Y25319320D01*
X34580984Y25442526D01*
X34607000Y25573321D01*
X34607000Y25706679D01*
X34580984Y25837474D01*
X34529950Y25960680D01*
X34455860Y26071563D01*
X34361563Y26165860D01*
X34250680Y26239950D01*
X34127474Y26290984D01*
X33996679Y26317000D01*
X33863321Y26317000D01*
X33732526Y26290984D01*
X33609320Y26239950D01*
X33498437Y26165860D01*
X33404140Y26071563D01*
X33330050Y25960680D01*
X33279016Y25837474D01*
X33253000Y25706679D01*
X31825449Y25706679D01*
X31887474Y25719016D01*
X32010680Y25770050D01*
X32121563Y25844140D01*
X32215860Y25938437D01*
X32289950Y26049320D01*
X32340984Y26172526D01*
X32356392Y26249990D01*
X32380680Y26260050D01*
X32491563Y26334140D01*
X32585860Y26428437D01*
X32659950Y26539320D01*
X32710984Y26662526D01*
X32737000Y26793321D01*
X32737000Y26926679D01*
X32710984Y27057474D01*
X32659950Y27180680D01*
X32585860Y27291563D01*
X32491563Y27385860D01*
X32380680Y27459950D01*
X32257474Y27510984D01*
X32126679Y27537000D01*
X31993321Y27537000D01*
X31862526Y27510984D01*
X31739320Y27459950D01*
X31735000Y27457063D01*
X31730680Y27459950D01*
X31607474Y27510984D01*
X31476679Y27537000D01*
X31343321Y27537000D01*
X31212526Y27510984D01*
X31168680Y27492822D01*
X31180984Y27522526D01*
X31207000Y27653321D01*
X31207000Y27786679D01*
X31191088Y27866679D01*
X38353000Y27866679D01*
X38353000Y27733321D01*
X38379016Y27602526D01*
X38430050Y27479320D01*
X38504140Y27368437D01*
X38598437Y27274140D01*
X38709320Y27200050D01*
X38832526Y27149016D01*
X38963321Y27123000D01*
X39096679Y27123000D01*
X39227474Y27149016D01*
X39350680Y27200050D01*
X39461563Y27274140D01*
X39555860Y27368437D01*
X39629950Y27479320D01*
X39680984Y27602526D01*
X39707000Y27733321D01*
X39707000Y27796679D01*
X39793000Y27796679D01*
X39793000Y27663321D01*
X39819016Y27532526D01*
X39870050Y27409320D01*
X39944140Y27298437D01*
X40038437Y27204140D01*
X40149320Y27130050D01*
X40272526Y27079016D01*
X40403321Y27053000D01*
X40536679Y27053000D01*
X40621538Y27069879D01*
X40607631Y26999961D01*
X40559320Y26979950D01*
X40448437Y26905860D01*
X40354140Y26811563D01*
X40280050Y26700680D01*
X40229016Y26577474D01*
X40203000Y26446679D01*
X40203000Y26313321D01*
X40229016Y26182526D01*
X40280050Y26059320D01*
X40354140Y25948437D01*
X40448437Y25854140D01*
X40559320Y25780050D01*
X40682526Y25729016D01*
X40813321Y25703000D01*
X40946679Y25703000D01*
X41077474Y25729016D01*
X41200680Y25780050D01*
X41225000Y25796300D01*
X41249320Y25780050D01*
X41372526Y25729016D01*
X41503321Y25703000D01*
X41636679Y25703000D01*
X41655175Y25706679D01*
X43273000Y25706679D01*
X43273000Y25573321D01*
X43299016Y25442526D01*
X43350050Y25319320D01*
X43424140Y25208437D01*
X43518437Y25114140D01*
X43629320Y25040050D01*
X43752526Y24989016D01*
X43883321Y24963000D01*
X44016679Y24963000D01*
X44147474Y24989016D01*
X44270680Y25040050D01*
X44381563Y25114140D01*
X44475860Y25208437D01*
X44528139Y25286679D01*
X52943000Y25286679D01*
X52943000Y25153321D01*
X52969016Y25022526D01*
X52996986Y24955000D01*
X52969016Y24887474D01*
X52943000Y24756679D01*
X52943000Y24623321D01*
X52969016Y24492526D01*
X52999057Y24420000D01*
X52969016Y24347474D01*
X52943000Y24216679D01*
X52943000Y24083321D01*
X52969016Y23952526D01*
X53020050Y23829320D01*
X53094140Y23718437D01*
X53188437Y23624140D01*
X53299320Y23550050D01*
X53422526Y23499016D01*
X53553321Y23473000D01*
X53686679Y23473000D01*
X53817474Y23499016D01*
X53900000Y23533200D01*
X53982526Y23499016D01*
X54113321Y23473000D01*
X54246679Y23473000D01*
X54377474Y23499016D01*
X54500680Y23550050D01*
X54611563Y23624140D01*
X54705860Y23718437D01*
X54779950Y23829320D01*
X54830984Y23952526D01*
X54857000Y24083321D01*
X54857000Y24216679D01*
X54830984Y24347474D01*
X54801978Y24417500D01*
X54830984Y24487526D01*
X54857000Y24618321D01*
X54857000Y24751679D01*
X54848711Y24793350D01*
X54927474Y24809016D01*
X55050680Y24860050D01*
X55161563Y24934140D01*
X55255860Y25028437D01*
X55329950Y25139320D01*
X55380984Y25262526D01*
X55407000Y25393321D01*
X55407000Y25526679D01*
X55380984Y25657474D01*
X55329950Y25780680D01*
X55255860Y25891563D01*
X55161563Y25985860D01*
X55050680Y26059950D01*
X54927474Y26110984D01*
X54796679Y26137000D01*
X54663321Y26137000D01*
X54532526Y26110984D01*
X54409320Y26059950D01*
X54298437Y25985860D01*
X54209577Y25897000D01*
X54113321Y25897000D01*
X53982526Y25870984D01*
X53900000Y25836800D01*
X53817474Y25870984D01*
X53686679Y25897000D01*
X53553321Y25897000D01*
X53422526Y25870984D01*
X53299320Y25819950D01*
X53188437Y25745860D01*
X53094140Y25651563D01*
X53020050Y25540680D01*
X52969016Y25417474D01*
X52943000Y25286679D01*
X44528139Y25286679D01*
X44549950Y25319320D01*
X44600984Y25442526D01*
X44627000Y25573321D01*
X44627000Y25706679D01*
X44600984Y25837474D01*
X44549950Y25960680D01*
X44475860Y26071563D01*
X44381563Y26165860D01*
X44270680Y26239950D01*
X44147474Y26290984D01*
X44016679Y26317000D01*
X43883321Y26317000D01*
X43752526Y26290984D01*
X43629320Y26239950D01*
X43518437Y26165860D01*
X43424140Y26071563D01*
X43350050Y25960680D01*
X43299016Y25837474D01*
X43273000Y25706679D01*
X41655175Y25706679D01*
X41767474Y25729016D01*
X41890680Y25780050D01*
X42001563Y25854140D01*
X42095860Y25948437D01*
X42169950Y26059320D01*
X42220984Y26182526D01*
X42242369Y26290039D01*
X42290680Y26310050D01*
X42401563Y26384140D01*
X42495860Y26478437D01*
X42569950Y26589320D01*
X42620984Y26712526D01*
X42647000Y26843321D01*
X42647000Y26976679D01*
X42620984Y27107474D01*
X42569950Y27230680D01*
X42495860Y27341563D01*
X42401563Y27435860D01*
X42290680Y27509950D01*
X42167474Y27560984D01*
X42036679Y27587000D01*
X41903321Y27587000D01*
X41772526Y27560984D01*
X41649320Y27509950D01*
X41625000Y27493700D01*
X41600680Y27509950D01*
X41477474Y27560984D01*
X41346679Y27587000D01*
X41213321Y27587000D01*
X41128462Y27570121D01*
X41147000Y27663321D01*
X41147000Y27796679D01*
X41133077Y27866679D01*
X48303000Y27866679D01*
X48303000Y27733321D01*
X48329016Y27602526D01*
X48380050Y27479320D01*
X48454140Y27368437D01*
X48548437Y27274140D01*
X48659320Y27200050D01*
X48782526Y27149016D01*
X48913321Y27123000D01*
X49046679Y27123000D01*
X49177474Y27149016D01*
X49300680Y27200050D01*
X49411563Y27274140D01*
X49505860Y27368437D01*
X49579950Y27479320D01*
X49630984Y27602526D01*
X49648011Y27688129D01*
X49669016Y27582526D01*
X49720050Y27459320D01*
X49794140Y27348437D01*
X49888437Y27254140D01*
X49999320Y27180050D01*
X50122526Y27129016D01*
X50253321Y27103000D01*
X50386679Y27103000D01*
X50517474Y27129016D01*
X50640680Y27180050D01*
X50644193Y27182397D01*
X50609016Y27097474D01*
X50589799Y27000859D01*
X50539320Y26979950D01*
X50428437Y26905860D01*
X50334140Y26811563D01*
X50260050Y26700680D01*
X50209016Y26577474D01*
X50183000Y26446679D01*
X50183000Y26313321D01*
X50209016Y26182526D01*
X50260050Y26059320D01*
X50334140Y25948437D01*
X50428437Y25854140D01*
X50539320Y25780050D01*
X50662526Y25729016D01*
X50793321Y25703000D01*
X50926679Y25703000D01*
X51057474Y25729016D01*
X51180000Y25779768D01*
X51302526Y25729016D01*
X51433321Y25703000D01*
X51566679Y25703000D01*
X51697474Y25729016D01*
X51820680Y25780050D01*
X51931563Y25854140D01*
X52025860Y25948437D01*
X52099950Y26059320D01*
X52150984Y26182526D01*
X52170201Y26279141D01*
X52220680Y26300050D01*
X52331563Y26374140D01*
X52425860Y26468437D01*
X52499950Y26579320D01*
X52550984Y26702526D01*
X52577000Y26833321D01*
X52577000Y26966679D01*
X52569044Y27006679D01*
X54063000Y27006679D01*
X54063000Y26873321D01*
X54089016Y26742526D01*
X54140050Y26619320D01*
X54214140Y26508437D01*
X54308437Y26414140D01*
X54419320Y26340050D01*
X54542526Y26289016D01*
X54673321Y26263000D01*
X54806679Y26263000D01*
X54937474Y26289016D01*
X55060680Y26340050D01*
X55171563Y26414140D01*
X55265860Y26508437D01*
X55339950Y26619320D01*
X55390984Y26742526D01*
X55417000Y26873321D01*
X55417000Y27006679D01*
X55390984Y27137474D01*
X55339950Y27260680D01*
X55305313Y27312517D01*
X55349950Y27379320D01*
X55400984Y27502526D01*
X55427000Y27633321D01*
X55427000Y27766679D01*
X55400984Y27897474D01*
X55349950Y28020680D01*
X55275860Y28131563D01*
X55181563Y28225860D01*
X55070680Y28299950D01*
X54947474Y28350984D01*
X54816679Y28377000D01*
X54683321Y28377000D01*
X54552526Y28350984D01*
X54429320Y28299950D01*
X54318437Y28225860D01*
X54224140Y28131563D01*
X54150050Y28020680D01*
X54099016Y27897474D01*
X54073000Y27766679D01*
X54073000Y27633321D01*
X54099016Y27502526D01*
X54150050Y27379320D01*
X54184687Y27327483D01*
X54140050Y27260680D01*
X54089016Y27137474D01*
X54063000Y27006679D01*
X52569044Y27006679D01*
X52550984Y27097474D01*
X52499950Y27220680D01*
X52425860Y27331563D01*
X52331563Y27425860D01*
X52220680Y27499950D01*
X52097474Y27550984D01*
X51966679Y27577000D01*
X51833321Y27577000D01*
X51702526Y27550984D01*
X51580000Y27500232D01*
X51457474Y27550984D01*
X51326679Y27577000D01*
X51193321Y27577000D01*
X51062526Y27550984D01*
X50939320Y27499950D01*
X50935807Y27497603D01*
X50970984Y27582526D01*
X50997000Y27713321D01*
X50997000Y27846679D01*
X50970984Y27977474D01*
X50919950Y28100680D01*
X50845860Y28211563D01*
X50751563Y28305860D01*
X50640680Y28379950D01*
X50517474Y28430984D01*
X50386679Y28457000D01*
X50253321Y28457000D01*
X50122526Y28430984D01*
X49999320Y28379950D01*
X49888437Y28305860D01*
X49794140Y28211563D01*
X49720050Y28100680D01*
X49669016Y27977474D01*
X49651989Y27891871D01*
X49630984Y27997474D01*
X49579950Y28120680D01*
X49505860Y28231563D01*
X49411563Y28325860D01*
X49300680Y28399950D01*
X49177474Y28450984D01*
X49046679Y28477000D01*
X48913321Y28477000D01*
X48782526Y28450984D01*
X48659320Y28399950D01*
X48548437Y28325860D01*
X48454140Y28231563D01*
X48380050Y28120680D01*
X48329016Y27997474D01*
X48303000Y27866679D01*
X41133077Y27866679D01*
X41120984Y27927474D01*
X41069950Y28050680D01*
X40995860Y28161563D01*
X40901563Y28255860D01*
X40790680Y28329950D01*
X40667474Y28380984D01*
X40536679Y28407000D01*
X40403321Y28407000D01*
X40272526Y28380984D01*
X40149320Y28329950D01*
X40038437Y28255860D01*
X39944140Y28161563D01*
X39870050Y28050680D01*
X39819016Y27927474D01*
X39793000Y27796679D01*
X39707000Y27796679D01*
X39707000Y27866679D01*
X39680984Y27997474D01*
X39629950Y28120680D01*
X39555860Y28231563D01*
X39461563Y28325860D01*
X39350680Y28399950D01*
X39227474Y28450984D01*
X39096679Y28477000D01*
X38963321Y28477000D01*
X38832526Y28450984D01*
X38709320Y28399950D01*
X38598437Y28325860D01*
X38504140Y28231563D01*
X38430050Y28120680D01*
X38379016Y27997474D01*
X38353000Y27866679D01*
X31191088Y27866679D01*
X31180984Y27917474D01*
X31129950Y28040680D01*
X31055860Y28151563D01*
X30961563Y28245860D01*
X30850680Y28319950D01*
X30727474Y28370984D01*
X30596679Y28397000D01*
X30463321Y28397000D01*
X30332526Y28370984D01*
X30209320Y28319950D01*
X30098437Y28245860D01*
X30004140Y28151563D01*
X29930050Y28040680D01*
X29879016Y27917474D01*
X29857000Y27806789D01*
X29857000Y27856679D01*
X29830984Y27987474D01*
X29779950Y28110680D01*
X29705860Y28221563D01*
X29611563Y28315860D01*
X29500680Y28389950D01*
X29377474Y28440984D01*
X29246679Y28467000D01*
X29113321Y28467000D01*
X28982526Y28440984D01*
X28859320Y28389950D01*
X28748437Y28315860D01*
X28654140Y28221563D01*
X28580050Y28110680D01*
X28529016Y27987474D01*
X28503000Y27856679D01*
X20811143Y27856679D01*
X20810984Y27857474D01*
X20759950Y27980680D01*
X20685860Y28091563D01*
X20591563Y28185860D01*
X20480680Y28259950D01*
X20357474Y28310984D01*
X20226679Y28337000D01*
X20093321Y28337000D01*
X19962526Y28310984D01*
X19839320Y28259950D01*
X19728437Y28185860D01*
X19634140Y28091563D01*
X19560050Y27980680D01*
X19541289Y27935388D01*
X19520984Y28037474D01*
X19469950Y28160680D01*
X19395860Y28271563D01*
X19301563Y28365860D01*
X19190680Y28439950D01*
X19067474Y28490984D01*
X18936679Y28517000D01*
X18803321Y28517000D01*
X18672526Y28490984D01*
X18549320Y28439950D01*
X18438437Y28365860D01*
X18344140Y28271563D01*
X18270050Y28160680D01*
X18219016Y28037474D01*
X18193000Y27906679D01*
X10451228Y27906679D01*
X10451264Y28906679D01*
X13503002Y28906679D01*
X13503002Y28773321D01*
X13529018Y28642526D01*
X13580052Y28519320D01*
X13654142Y28408437D01*
X13748439Y28314140D01*
X13859322Y28240050D01*
X13982528Y28189016D01*
X14113323Y28163000D01*
X14246681Y28163000D01*
X14377476Y28189016D01*
X14500682Y28240050D01*
X14611565Y28314140D01*
X14705862Y28408437D01*
X14779952Y28519320D01*
X14830986Y28642526D01*
X14857002Y28773321D01*
X14857002Y28876679D01*
X22863000Y28876679D01*
X22863000Y28743321D01*
X22889016Y28612526D01*
X22940050Y28489320D01*
X23014140Y28378437D01*
X23108437Y28284140D01*
X23219320Y28210050D01*
X23342526Y28159016D01*
X23473321Y28133000D01*
X23606679Y28133000D01*
X23737474Y28159016D01*
X23860680Y28210050D01*
X23971563Y28284140D01*
X24065860Y28378437D01*
X24139950Y28489320D01*
X24190984Y28612526D01*
X24217000Y28743321D01*
X24217000Y28876679D01*
X24205066Y28936679D01*
X33703000Y28936679D01*
X33703000Y28803321D01*
X33729016Y28672526D01*
X33780050Y28549320D01*
X33854140Y28438437D01*
X33948437Y28344140D01*
X34059320Y28270050D01*
X34182526Y28219016D01*
X34313321Y28193000D01*
X34446679Y28193000D01*
X34577474Y28219016D01*
X34700680Y28270050D01*
X34811563Y28344140D01*
X34905860Y28438437D01*
X34979950Y28549320D01*
X35030984Y28672526D01*
X35057000Y28803321D01*
X35057000Y28896679D01*
X43733000Y28896679D01*
X43733000Y28763321D01*
X43759016Y28632526D01*
X43810050Y28509320D01*
X43884140Y28398437D01*
X43978437Y28304140D01*
X44089320Y28230050D01*
X44212526Y28179016D01*
X44343321Y28153000D01*
X44476679Y28153000D01*
X44607474Y28179016D01*
X44730680Y28230050D01*
X44841563Y28304140D01*
X44935860Y28398437D01*
X45009950Y28509320D01*
X45060984Y28632526D01*
X45087000Y28763321D01*
X45087000Y28896679D01*
X45060984Y29027474D01*
X45009950Y29150680D01*
X44935860Y29261563D01*
X44841563Y29355860D01*
X44730680Y29429950D01*
X44607474Y29480984D01*
X44476679Y29507000D01*
X44343321Y29507000D01*
X44212526Y29480984D01*
X44089320Y29429950D01*
X43978437Y29355860D01*
X43884140Y29261563D01*
X43810050Y29150680D01*
X43759016Y29027474D01*
X43733000Y28896679D01*
X35057000Y28896679D01*
X35057000Y28936679D01*
X35030984Y29067474D01*
X34979950Y29190680D01*
X34905860Y29301563D01*
X34811563Y29395860D01*
X34700680Y29469950D01*
X34577474Y29520984D01*
X34446679Y29547000D01*
X34313321Y29547000D01*
X34182526Y29520984D01*
X34059320Y29469950D01*
X33948437Y29395860D01*
X33854140Y29301563D01*
X33780050Y29190680D01*
X33729016Y29067474D01*
X33703000Y28936679D01*
X24205066Y28936679D01*
X24190984Y29007474D01*
X24139950Y29130680D01*
X24065860Y29241563D01*
X23971563Y29335860D01*
X23860680Y29409950D01*
X23737474Y29460984D01*
X23606679Y29487000D01*
X23473321Y29487000D01*
X23342526Y29460984D01*
X23219320Y29409950D01*
X23108437Y29335860D01*
X23014140Y29241563D01*
X22940050Y29130680D01*
X22889016Y29007474D01*
X22863000Y28876679D01*
X14857002Y28876679D01*
X14857002Y28906679D01*
X14830986Y29037474D01*
X14779952Y29160680D01*
X14705862Y29271563D01*
X14611565Y29365860D01*
X14500682Y29439950D01*
X14377476Y29490984D01*
X14246681Y29517000D01*
X14113323Y29517000D01*
X13982528Y29490984D01*
X13859322Y29439950D01*
X13748439Y29365860D01*
X13654142Y29271563D01*
X13580052Y29160680D01*
X13529018Y29037474D01*
X13503002Y28906679D01*
X10451264Y28906679D01*
X10451353Y31366679D01*
X55923000Y31366679D01*
X55923000Y31233321D01*
X55949016Y31102526D01*
X56000050Y30979320D01*
X56074140Y30868437D01*
X56168437Y30774140D01*
X56279320Y30700050D01*
X56402526Y30649016D01*
X56533321Y30623000D01*
X56666679Y30623000D01*
X56797474Y30649016D01*
X56920680Y30700050D01*
X57031563Y30774140D01*
X57080000Y30822577D01*
X57128437Y30774140D01*
X57239320Y30700050D01*
X57362526Y30649016D01*
X57493321Y30623000D01*
X57626679Y30623000D01*
X57757474Y30649016D01*
X57880680Y30700050D01*
X57991563Y30774140D01*
X58085860Y30868437D01*
X58159950Y30979320D01*
X58210984Y31102526D01*
X58237000Y31233321D01*
X58237000Y31366679D01*
X58210984Y31497474D01*
X58159950Y31620680D01*
X58085860Y31731563D01*
X57991563Y31825860D01*
X57880680Y31899950D01*
X57757474Y31950984D01*
X57626679Y31977000D01*
X57493321Y31977000D01*
X57362526Y31950984D01*
X57239320Y31899950D01*
X57128437Y31825860D01*
X57080000Y31777423D01*
X57031563Y31825860D01*
X56920680Y31899950D01*
X56797474Y31950984D01*
X56666679Y31977000D01*
X56533321Y31977000D01*
X56402526Y31950984D01*
X56279320Y31899950D01*
X56168437Y31825860D01*
X56074140Y31731563D01*
X56000050Y31620680D01*
X55949016Y31497474D01*
X55923000Y31366679D01*
X10451353Y31366679D01*
X10451374Y31917874D01*
X10482996Y32240374D01*
X10570230Y32529309D01*
X10711924Y32795796D01*
X10902679Y33029685D01*
X11135233Y33222070D01*
X11400725Y33365622D01*
X11689042Y33454871D01*
X12010187Y33488624D01*
X63977891Y33488624D01*
X64300374Y33457004D01*
G37*
G04 #@! TD.AperFunction*
G04 #@! TD*
M02*
