G04 #@! TF.GenerationSoftware,KiCad,Pcbnew,(5.1.8)-1*
G04 #@! TF.CreationDate,2021-09-22T18:05:39+08:00*
G04 #@! TF.ProjectId,PowerSupply,506f7765-7253-4757-9070-6c792e6b6963,rev?*
G04 #@! TF.SameCoordinates,PX5e56640PY77750e0*
G04 #@! TF.FileFunction,Copper,L1,Top*
G04 #@! TF.FilePolarity,Positive*
%FSLAX46Y46*%
G04 Gerber Fmt 4.6, Leading zero omitted, Abs format (unit mm)*
G04 Created by KiCad (PCBNEW (5.1.8)-1) date 2021-09-22 18:05:39*
%MOMM*%
%LPD*%
G01*
G04 APERTURE LIST*
G04 #@! TA.AperFunction,ConnectorPad*
%ADD10R,0.700000X4.300000*%
G04 #@! TD*
G04 #@! TA.AperFunction,ConnectorPad*
%ADD11R,0.700000X3.200000*%
G04 #@! TD*
G04 #@! TA.AperFunction,ViaPad*
%ADD12C,0.500000*%
G04 #@! TD*
G04 #@! TA.AperFunction,Conductor*
%ADD13C,0.700000*%
G04 #@! TD*
G04 #@! TA.AperFunction,Conductor*
%ADD14C,0.254000*%
G04 #@! TD*
G04 #@! TA.AperFunction,Conductor*
%ADD15C,0.100000*%
G04 #@! TD*
G04 APERTURE END LIST*
D10*
G04 #@! TO.P,PCI1,B13*
G04 #@! TO.N,REG_EN1*
X27050000Y5050000D03*
G04 #@! TO.P,PCI1,B12*
G04 #@! TO.N,REG_EN2*
X26050000Y5050000D03*
G04 #@! TO.P,PCI1,B18*
G04 #@! TO.N,BAT_CHG*
X32050000Y5050000D03*
D11*
G04 #@! TO.P,PCI1,B17*
G04 #@! TO.N,BAT_PG*
X31050000Y5600000D03*
D10*
G04 #@! TO.P,PCI1,B16*
G04 #@! TO.N,BAT_ISET*
X30050000Y5050000D03*
G04 #@! TO.P,PCI1,B15*
G04 #@! TO.N,REG_POWER*
X29050000Y5050000D03*
G04 #@! TO.P,PCI1,B14*
G04 #@! TO.N,REG_CHG*
X28050000Y5050000D03*
G04 #@! TO.P,PCI1,B11*
G04 #@! TO.N,GND*
X23050000Y5050000D03*
G04 #@! TO.P,PCI1,B10*
X22050000Y5050000D03*
G04 #@! TO.P,PCI1,B9*
X21050000Y5050000D03*
G04 #@! TO.P,PCI1,B8*
X20050000Y5050000D03*
G04 #@! TO.P,PCI1,B7*
X19050000Y5050000D03*
G04 #@! TO.P,PCI1,B6*
X18050000Y5050000D03*
G04 #@! TO.P,PCI1,B5*
G04 #@! TO.N,+5V*
X17050000Y5050000D03*
G04 #@! TO.P,PCI1,B4*
X16050000Y5050000D03*
G04 #@! TO.P,PCI1,B3*
X15050000Y5050000D03*
G04 #@! TO.P,PCI1,B2*
X14050000Y5050000D03*
G04 #@! TO.P,PCI1,B1*
X13050000Y5050000D03*
G04 #@! TD*
G04 #@! TO.P,C27,2*
G04 #@! TO.N,GND*
G04 #@! TA.AperFunction,SMDPad,CuDef*
G36*
G01*
X20530000Y24145000D02*
X21030000Y24145000D01*
G75*
G02*
X21255000Y23920000I0J-225000D01*
G01*
X21255000Y23470000D01*
G75*
G02*
X21030000Y23245000I-225000J0D01*
G01*
X20530000Y23245000D01*
G75*
G02*
X20305000Y23470000I0J225000D01*
G01*
X20305000Y23920000D01*
G75*
G02*
X20530000Y24145000I225000J0D01*
G01*
G37*
G04 #@! TD.AperFunction*
G04 #@! TO.P,C27,1*
G04 #@! TO.N,+5V*
G04 #@! TA.AperFunction,SMDPad,CuDef*
G36*
G01*
X20530000Y25695000D02*
X21030000Y25695000D01*
G75*
G02*
X21255000Y25470000I0J-225000D01*
G01*
X21255000Y25020000D01*
G75*
G02*
X21030000Y24795000I-225000J0D01*
G01*
X20530000Y24795000D01*
G75*
G02*
X20305000Y25020000I0J225000D01*
G01*
X20305000Y25470000D01*
G75*
G02*
X20530000Y25695000I225000J0D01*
G01*
G37*
G04 #@! TD.AperFunction*
G04 #@! TD*
G04 #@! TO.P,C25,2*
G04 #@! TO.N,GND*
G04 #@! TA.AperFunction,SMDPad,CuDef*
G36*
G01*
X31300000Y24145000D02*
X31800000Y24145000D01*
G75*
G02*
X32025000Y23920000I0J-225000D01*
G01*
X32025000Y23470000D01*
G75*
G02*
X31800000Y23245000I-225000J0D01*
G01*
X31300000Y23245000D01*
G75*
G02*
X31075000Y23470000I0J225000D01*
G01*
X31075000Y23920000D01*
G75*
G02*
X31300000Y24145000I225000J0D01*
G01*
G37*
G04 #@! TD.AperFunction*
G04 #@! TO.P,C25,1*
G04 #@! TO.N,+5V*
G04 #@! TA.AperFunction,SMDPad,CuDef*
G36*
G01*
X31300000Y25695000D02*
X31800000Y25695000D01*
G75*
G02*
X32025000Y25470000I0J-225000D01*
G01*
X32025000Y25020000D01*
G75*
G02*
X31800000Y24795000I-225000J0D01*
G01*
X31300000Y24795000D01*
G75*
G02*
X31075000Y25020000I0J225000D01*
G01*
X31075000Y25470000D01*
G75*
G02*
X31300000Y25695000I225000J0D01*
G01*
G37*
G04 #@! TD.AperFunction*
G04 #@! TD*
G04 #@! TO.P,C11,2*
G04 #@! TO.N,GND*
G04 #@! TA.AperFunction,SMDPad,CuDef*
G36*
G01*
X40890000Y24145000D02*
X41390000Y24145000D01*
G75*
G02*
X41615000Y23920000I0J-225000D01*
G01*
X41615000Y23470000D01*
G75*
G02*
X41390000Y23245000I-225000J0D01*
G01*
X40890000Y23245000D01*
G75*
G02*
X40665000Y23470000I0J225000D01*
G01*
X40665000Y23920000D01*
G75*
G02*
X40890000Y24145000I225000J0D01*
G01*
G37*
G04 #@! TD.AperFunction*
G04 #@! TO.P,C11,1*
G04 #@! TO.N,+5V*
G04 #@! TA.AperFunction,SMDPad,CuDef*
G36*
G01*
X40890000Y25695000D02*
X41390000Y25695000D01*
G75*
G02*
X41615000Y25470000I0J-225000D01*
G01*
X41615000Y25020000D01*
G75*
G02*
X41390000Y24795000I-225000J0D01*
G01*
X40890000Y24795000D01*
G75*
G02*
X40665000Y25020000I0J225000D01*
G01*
X40665000Y25470000D01*
G75*
G02*
X40890000Y25695000I225000J0D01*
G01*
G37*
G04 #@! TD.AperFunction*
G04 #@! TD*
G04 #@! TO.P,C9,2*
G04 #@! TO.N,GND*
G04 #@! TA.AperFunction,SMDPad,CuDef*
G36*
G01*
X50980000Y23225000D02*
X51480000Y23225000D01*
G75*
G02*
X51705000Y23000000I0J-225000D01*
G01*
X51705000Y22550000D01*
G75*
G02*
X51480000Y22325000I-225000J0D01*
G01*
X50980000Y22325000D01*
G75*
G02*
X50755000Y22550000I0J225000D01*
G01*
X50755000Y23000000D01*
G75*
G02*
X50980000Y23225000I225000J0D01*
G01*
G37*
G04 #@! TD.AperFunction*
G04 #@! TO.P,C9,1*
G04 #@! TO.N,+5V*
G04 #@! TA.AperFunction,SMDPad,CuDef*
G36*
G01*
X50980000Y24775000D02*
X51480000Y24775000D01*
G75*
G02*
X51705000Y24550000I0J-225000D01*
G01*
X51705000Y24100000D01*
G75*
G02*
X51480000Y23875000I-225000J0D01*
G01*
X50980000Y23875000D01*
G75*
G02*
X50755000Y24100000I0J225000D01*
G01*
X50755000Y24550000D01*
G75*
G02*
X50980000Y24775000I225000J0D01*
G01*
G37*
G04 #@! TD.AperFunction*
G04 #@! TD*
D12*
G04 #@! TO.N,GND*
X57060000Y29060000D03*
X57740000Y27470000D03*
X57065000Y27470000D03*
X56390001Y27480000D03*
X38300000Y24320000D03*
X38849999Y24320000D03*
X39400000Y24320000D03*
X48330000Y24310001D03*
X49430000Y24310000D03*
X48879999Y24310001D03*
X29680000Y24300000D03*
X29130000Y24300000D03*
X28580001Y24300000D03*
X18070000Y24320000D03*
X18619999Y24320000D03*
X19170000Y24320000D03*
X12160000Y33320000D03*
X13160000Y33320000D03*
X14160000Y33320000D03*
X15160000Y33320000D03*
X16160000Y33320000D03*
X17160000Y33320000D03*
X18160000Y33320000D03*
X19160000Y33320000D03*
X20160000Y33320000D03*
X21160000Y33320000D03*
X22160000Y33320000D03*
X23160000Y33320000D03*
X24160000Y33320000D03*
X25160000Y33320000D03*
X26160000Y33320000D03*
X27160000Y33320000D03*
X28160000Y33320000D03*
X29160000Y33320000D03*
X30160000Y33320000D03*
X31160000Y33320000D03*
X32160000Y33320000D03*
X33160000Y33320000D03*
X34160000Y33320000D03*
X35160000Y33320000D03*
X36160000Y33320000D03*
X37160000Y33320000D03*
X38160000Y33320000D03*
X39160000Y33320000D03*
X40160000Y33320000D03*
X41160000Y33320000D03*
X42160000Y33320000D03*
X43160000Y33320000D03*
X44160000Y33320000D03*
X45160000Y33320000D03*
X46160000Y33320000D03*
X47160000Y33320000D03*
X48160000Y33320000D03*
X49160000Y33320000D03*
X50160000Y33320000D03*
X51160000Y33320000D03*
X52160000Y33320000D03*
X53160000Y33320000D03*
X54160000Y33320000D03*
X55160000Y33320000D03*
X56160000Y33320000D03*
X57160000Y33320000D03*
X58160000Y33320000D03*
X59160000Y33320000D03*
X60160000Y33320000D03*
X61160000Y33320000D03*
X12290000Y32130000D03*
X13160000Y32320000D03*
X14160000Y32320000D03*
X15160000Y32320000D03*
X16160000Y32320000D03*
X17160000Y32320000D03*
X18160000Y32320000D03*
X19160000Y32320000D03*
X20160000Y32320000D03*
X21160000Y32320000D03*
X22160000Y32320000D03*
X23160000Y32320000D03*
X24160000Y32320000D03*
X25160000Y32320000D03*
X26160000Y32320000D03*
X27160000Y32320000D03*
X28160000Y32320000D03*
X29160000Y32320000D03*
X30160000Y32320000D03*
X31160000Y32320000D03*
X32160000Y32320000D03*
X33160000Y32320000D03*
X34160000Y32320000D03*
X35160000Y32320000D03*
X36160000Y32320000D03*
X37160000Y32320000D03*
X38160000Y32320000D03*
X39160000Y32320000D03*
X40160000Y32320000D03*
X41160000Y32320000D03*
X42160000Y32320000D03*
X43160000Y32320000D03*
X44160000Y32320000D03*
X45160000Y32320000D03*
X46160000Y32320000D03*
X47160000Y32320000D03*
X48160000Y32320000D03*
X49160000Y32320000D03*
X50160000Y32320000D03*
X51160000Y32320000D03*
X52160000Y32320000D03*
X53160000Y32320000D03*
X54160000Y32320000D03*
X55160000Y32320000D03*
X56160000Y32320000D03*
X57160000Y32320000D03*
X58160000Y32320000D03*
X59160000Y32320000D03*
X60160000Y32320000D03*
X61160000Y32320000D03*
X62160000Y32320000D03*
X62160000Y33320000D03*
X63160000Y32320000D03*
X63160000Y33320000D03*
X63860000Y32050000D03*
X64160000Y33320000D03*
X11300000Y33020000D03*
X10670000Y31600000D03*
X11780000Y31470000D03*
X10690000Y30590000D03*
X11690000Y30590000D03*
X10690000Y28590000D03*
X11690000Y28590000D03*
X10690000Y27590000D03*
X11690000Y27590000D03*
X10690000Y26590000D03*
X11690000Y26590000D03*
X10690000Y25590000D03*
X11690000Y25590000D03*
X10690000Y24590000D03*
X11690000Y24590000D03*
X10690000Y23590000D03*
X11690000Y23590000D03*
X10690000Y22590000D03*
X11690000Y22590000D03*
X10690000Y21590000D03*
X11690000Y21590000D03*
X10690000Y20590000D03*
X11690000Y20590000D03*
X10690000Y19590000D03*
X11690000Y19590000D03*
X10690000Y18590000D03*
X11690000Y18590000D03*
X10690000Y17590000D03*
X11690000Y17590000D03*
X10690000Y16590000D03*
X11690000Y16590000D03*
X10690000Y15590000D03*
X11690000Y15590000D03*
X10690000Y14590000D03*
X11690000Y14590000D03*
X10690000Y13590000D03*
X11690000Y13590000D03*
X10690000Y12590000D03*
X11690000Y12590000D03*
X11690000Y11590000D03*
X41690000Y11590000D03*
X42690000Y11590000D03*
X43690000Y11590000D03*
X44690000Y11590000D03*
X45690000Y11590000D03*
X46690000Y11590000D03*
X47690000Y11590000D03*
X48690000Y11590000D03*
X49690000Y11590000D03*
X50690000Y11590000D03*
X51690000Y11590000D03*
X52690000Y11590000D03*
X53690000Y11590000D03*
X54690000Y11590000D03*
X55690000Y11590000D03*
X56690000Y11590000D03*
X57690000Y11590000D03*
X58690000Y11590000D03*
X59690000Y11590000D03*
X60690000Y11590000D03*
X61690000Y11590000D03*
X62690000Y11590000D03*
X63600000Y11860000D03*
X33690000Y10590000D03*
X34690000Y10590000D03*
X35690000Y10590000D03*
X36690000Y10590000D03*
X37690000Y10590000D03*
X38690000Y10590000D03*
X39690000Y10590000D03*
X40690000Y10590000D03*
X41690000Y10590000D03*
X42690000Y10590000D03*
X43690000Y10590000D03*
X44690000Y10590000D03*
X45690000Y10590000D03*
X46690000Y10590000D03*
X47690000Y10590000D03*
X48690000Y10590000D03*
X49690000Y10590000D03*
X50690000Y10590000D03*
X51690000Y10590000D03*
X52690000Y10590000D03*
X53690000Y10590000D03*
X54690000Y10590000D03*
X55690000Y10590000D03*
X56690000Y10590000D03*
X57690000Y10590000D03*
X58690000Y10590000D03*
X59690000Y10590000D03*
X60690000Y10590000D03*
X61690000Y10590000D03*
X62690000Y10590000D03*
X63690000Y10590000D03*
X64870000Y32980000D03*
X64290000Y31450000D03*
X65380000Y31520000D03*
X64390000Y30490000D03*
X65380000Y30500000D03*
X64390000Y28490000D03*
X65390000Y28490000D03*
X64390000Y27490000D03*
X65390000Y27490000D03*
X64390000Y26490000D03*
X65390000Y26490000D03*
X64390000Y25490000D03*
X65390000Y25490000D03*
X64390000Y24490000D03*
X65390000Y24490000D03*
X64390000Y23490000D03*
X65390000Y23490000D03*
X64390000Y22490000D03*
X65390000Y22490000D03*
X64390000Y21490000D03*
X65390000Y21490000D03*
X64390000Y20490000D03*
X65390000Y20490000D03*
X64390000Y19490000D03*
X65390000Y19490000D03*
X64390000Y18490000D03*
X65390000Y18490000D03*
X64390000Y17490000D03*
X65390000Y17490000D03*
X64390000Y16490000D03*
X65390000Y16490000D03*
X64390000Y15490000D03*
X65390000Y15490000D03*
X64390000Y14490000D03*
X65390000Y14490000D03*
X64390000Y13490000D03*
X65390000Y13490000D03*
X64210000Y12480000D03*
X65390000Y12550000D03*
X65320000Y11760000D03*
X64440000Y10700000D03*
X57075000Y26693334D03*
X57750000Y26693334D03*
X56400000Y26703334D03*
X57065000Y25916668D03*
X56390001Y25926668D03*
X57740000Y25916668D03*
X56390000Y25150000D03*
X57065000Y25140000D03*
X57740000Y25140000D03*
X57019999Y18505001D03*
X57570000Y18505000D03*
X56470000Y18505001D03*
X57029999Y17805001D03*
X56480000Y17805001D03*
X57580000Y17805000D03*
X11690000Y29590000D03*
X10690000Y29590000D03*
X65390000Y29490000D03*
X64390000Y29490000D03*
X57429999Y14305001D03*
X57970000Y15005000D03*
X56870000Y15005001D03*
X56880000Y14305001D03*
X57980000Y14305000D03*
X57419999Y15005001D03*
X57970000Y13605000D03*
X57419999Y13605001D03*
X56880000Y12905001D03*
X57980000Y12905000D03*
X56870000Y13605001D03*
X57429999Y12905001D03*
X58680000Y12905001D03*
X59219999Y13605001D03*
X59770000Y13605000D03*
X59780000Y12905000D03*
X58670000Y13605001D03*
X59229999Y12905001D03*
X59219999Y15005001D03*
X59780000Y14305000D03*
X59229999Y14305001D03*
X58670000Y15005001D03*
X59770000Y15005000D03*
X58680000Y14305001D03*
X21660000Y32820000D03*
X36660000Y32820000D03*
X52660000Y32820000D03*
X53660000Y32820000D03*
X54660000Y32820000D03*
X59660000Y32820000D03*
X43660000Y32820000D03*
X44660000Y32820000D03*
X48660000Y32820000D03*
X19660000Y32820000D03*
X51660000Y32820000D03*
X28660000Y32820000D03*
X56660000Y32820000D03*
X22660000Y32820000D03*
X37660000Y32820000D03*
X27660000Y32820000D03*
X55660000Y32820000D03*
X39660000Y32820000D03*
X46660000Y32820000D03*
X50660000Y32820000D03*
X31660000Y32820000D03*
X20660000Y32820000D03*
X23660000Y32820000D03*
X34660000Y32820000D03*
X32660000Y32820000D03*
X29660000Y32820000D03*
X57660000Y32820000D03*
X61660000Y32820000D03*
X45660000Y32820000D03*
X49660000Y32820000D03*
X41660000Y32820000D03*
X18660000Y32820000D03*
X60660000Y32820000D03*
X30660000Y32820000D03*
X42660000Y32820000D03*
X24660000Y32820000D03*
X58660000Y32820000D03*
X40660000Y32820000D03*
X33660000Y32820000D03*
X25660000Y32820000D03*
X35660000Y32820000D03*
X26660000Y32820000D03*
X38660000Y32820000D03*
X47660000Y32820000D03*
X62660000Y32820000D03*
X63660000Y32820000D03*
X64370000Y32530000D03*
X12590000Y32770000D03*
X13660000Y32820000D03*
X14660000Y32820000D03*
X15660000Y32820000D03*
X16660000Y32820000D03*
X17660000Y32820000D03*
X64770000Y31920000D03*
X64890000Y31060000D03*
X64900000Y29990000D03*
X64890000Y17980000D03*
X64890000Y13980000D03*
X64100000Y11360000D03*
X64890000Y27980000D03*
X64890000Y21980000D03*
X64890000Y25980000D03*
X64890000Y20980000D03*
X64890000Y15980000D03*
X64820000Y12910000D03*
X64890000Y14980000D03*
X64890000Y24980000D03*
X64890000Y23980000D03*
X64890000Y19980000D03*
X64890000Y16980000D03*
X64890000Y22980000D03*
X64890000Y18980000D03*
X64890000Y26980000D03*
X64890000Y28980000D03*
X10850000Y32400000D03*
X11190000Y27110000D03*
X11190000Y20110000D03*
X11190000Y29110000D03*
X11190000Y19110000D03*
X11190000Y31110000D03*
X11190000Y28110000D03*
X11190000Y26110000D03*
X11190000Y24110000D03*
X11190000Y23110000D03*
X11190000Y22110000D03*
X11190000Y21110000D03*
X11190000Y25110000D03*
X11190000Y15110000D03*
X11190000Y13110000D03*
X11190000Y14110000D03*
X11190000Y17110000D03*
X11190000Y18110000D03*
X11190000Y16110000D03*
X11190000Y30110000D03*
X11190000Y12090000D03*
X47210000Y11080000D03*
X54210000Y11080000D03*
X41210000Y11080000D03*
X43210000Y11080000D03*
X62210000Y11080000D03*
X55210000Y11080000D03*
X48210000Y11080000D03*
X61210000Y11080000D03*
X49210000Y11080000D03*
X51210000Y11080000D03*
X58210000Y11080000D03*
X57210000Y11080000D03*
X56210000Y11080000D03*
X50210000Y11080000D03*
X42210000Y11080000D03*
X44210000Y11080000D03*
X45210000Y11080000D03*
X46210000Y11080000D03*
X60210000Y11080000D03*
X53210000Y11080000D03*
X59210000Y11080000D03*
X63210000Y11080000D03*
X52210000Y11080000D03*
X11800000Y32570000D03*
X11360000Y31990000D03*
X65310000Y32360000D03*
X64650000Y11940000D03*
X64980000Y11120000D03*
X23920000Y22730000D03*
X23920000Y22130000D03*
X23920000Y21530000D03*
X24520000Y22730000D03*
X25130000Y22730000D03*
X35410000Y22640000D03*
X34200000Y22640000D03*
X34200000Y21440000D03*
X34800000Y22640000D03*
X34200000Y22040000D03*
X44190000Y22070000D03*
X45400000Y22670000D03*
X44190000Y21470000D03*
X44190000Y22670000D03*
X44790000Y22670000D03*
X57019999Y19895001D03*
X56480000Y19195001D03*
X56470000Y19895001D03*
X57570000Y19895000D03*
X57580000Y19195000D03*
X57029999Y19195001D03*
X55279999Y19895001D03*
X54740000Y19195001D03*
X55840000Y19195000D03*
X55830000Y19895000D03*
X54730000Y19895001D03*
X55289999Y19195001D03*
X53590000Y19195001D03*
X54139999Y19195001D03*
X53580000Y19895001D03*
X54129999Y19895001D03*
G04 #@! TO.N,+3V3*
X48980000Y27800000D03*
X48310000Y20530000D03*
G04 #@! TO.N,+5V*
X40880000Y26380000D03*
X41570000Y26380000D03*
X50860000Y26380000D03*
X51500000Y26380000D03*
X31040000Y26370000D03*
X31690000Y26370000D03*
X53620000Y25220000D03*
X54180000Y25220000D03*
X54730000Y25460000D03*
X53620000Y24690000D03*
X54180000Y24685000D03*
X53620000Y24150000D03*
X54180000Y24150000D03*
X13720000Y25640000D03*
X20580000Y26340000D03*
X21260000Y26340000D03*
X20970000Y26860000D03*
X21640000Y26860000D03*
X31410000Y26860000D03*
X32060000Y26860000D03*
X24050000Y25630000D03*
X41280000Y26910000D03*
X41970000Y26910000D03*
X33930000Y25640000D03*
X51260000Y26900000D03*
X51900000Y26900000D03*
X43950000Y25640000D03*
G04 #@! TO.N,+1V2*
X18870000Y27840000D03*
X18060000Y20470000D03*
G04 #@! TO.N,+1V5*
X29180000Y27790000D03*
X28510000Y20410000D03*
G04 #@! TO.N,+2V5*
X39030000Y27800000D03*
X38310000Y20470000D03*
G04 #@! TO.N,Net-(1V2-Pad1)*
X20160000Y27660000D03*
X14180002Y28840000D03*
G04 #@! TO.N,Net-(1V5-Pad1)*
X30530000Y27720000D03*
X23540000Y28810000D03*
G04 #@! TO.N,Net-(2V5-Pad1)*
X40470000Y27730000D03*
X34380000Y28870000D03*
G04 #@! TO.N,Net-(3V3-Pad1)*
X50320000Y27780000D03*
X44410000Y28830000D03*
G04 #@! TO.N,Net-(C3-Pad1)*
X56600000Y31300000D03*
X54750000Y27700000D03*
G04 #@! TO.N,Net-(R34-Pad2)*
X54740000Y26940000D03*
X57560000Y31300000D03*
G04 #@! TO.N,REG_EN2*
X26050000Y8690000D03*
X52925000Y15350000D03*
G04 #@! TO.N,REG_EN1*
X27050000Y9630000D03*
X53420000Y17785000D03*
G04 #@! TO.N,REG_CHG*
X28043332Y10610000D03*
X53920000Y15345000D03*
G04 #@! TO.N,REG_POWER*
X29044998Y11945000D03*
X54420000Y17785000D03*
G04 #@! TO.N,BAT_ISET*
X30046664Y11945000D03*
X54920000Y15345000D03*
G04 #@! TO.N,BAT_PG*
X31048330Y11945000D03*
X55420000Y17785000D03*
G04 #@! TO.N,BAT_CHG*
X32060000Y11945000D03*
X55920000Y15345000D03*
G04 #@! TD*
D13*
G04 #@! TO.N,GND*
X23050000Y5050000D02*
X18050000Y5050000D01*
X23050000Y3250000D02*
X18050000Y3250000D01*
G04 #@! TO.N,+5V*
X17050000Y5050000D02*
X13050000Y5050000D01*
X17050000Y3250000D02*
X13050000Y3250000D01*
X13500000Y7280000D02*
X13500000Y3280000D01*
X14540000Y7310000D02*
X14540000Y3310000D01*
X15550000Y7280000D02*
X15550000Y3280000D01*
X16550000Y7270000D02*
X16550000Y3270000D01*
X20489999Y26470000D02*
X20490000Y26469999D01*
X53620000Y24150000D02*
X53620000Y25220000D01*
X54180000Y25220000D02*
X54180000Y24150000D01*
X54180000Y24150000D02*
X53620000Y24150000D01*
X53620000Y25220000D02*
X54180000Y25220000D01*
X53620000Y24510000D02*
X53620000Y24150000D01*
X54730000Y24700000D02*
X54180000Y24150000D01*
X54730000Y25460000D02*
X54730000Y24700000D01*
X53290000Y26900000D02*
X54730000Y25460000D01*
X13050000Y26300000D02*
X13650000Y26900000D01*
X13650000Y26900000D02*
X53290000Y26900000D01*
X13050000Y5050000D02*
X13050000Y26300000D01*
X15730000Y25220000D02*
X15050000Y24540000D01*
X49760000Y25220000D02*
X15730000Y25220000D01*
X50830000Y24150000D02*
X49760000Y25220000D01*
X53620000Y24150000D02*
X50830000Y24150000D01*
X52760000Y26080000D02*
X53620000Y25220000D01*
X14800000Y26080000D02*
X52760000Y26080000D01*
X14050000Y25330000D02*
X14800000Y26080000D01*
X14050000Y5050000D02*
X14050000Y25330000D01*
X13730000Y26440000D02*
X53370000Y26440000D01*
X49920000Y25620000D02*
X15890000Y25620000D01*
X52930000Y26570000D02*
X54370000Y25130000D01*
X52770000Y25610000D02*
X49980000Y25610000D01*
X53260000Y25190000D02*
X50470000Y25190000D01*
X53420000Y24750000D02*
X50630000Y24750000D01*
X13190000Y25780000D02*
X13790000Y26380000D01*
X13590000Y25500000D02*
X14190000Y26100000D01*
X14550000Y25080000D02*
X15150000Y25680000D01*
X14820000Y24980000D02*
X15420000Y25580000D01*
X13490000Y4400000D02*
X13490000Y25650000D01*
X14530000Y4740000D02*
X14530000Y25020000D01*
X17050000Y5050000D02*
X17050000Y16820000D01*
X17050000Y16820000D02*
X15050000Y18820000D01*
X15050000Y24540000D02*
X15050000Y18820000D01*
X16050000Y16370000D02*
X15050000Y17370000D01*
X16050000Y5050000D02*
X16050000Y16370000D01*
X15050000Y17370000D02*
X15050000Y5050000D01*
X15050000Y18820000D02*
X15050000Y17370000D01*
X16970000Y16170000D02*
X14970000Y18170000D01*
X16560000Y4680000D02*
X16560000Y16450000D01*
X15480000Y4820000D02*
X15480000Y16590000D01*
G04 #@! TO.N,REG_EN2*
X26050000Y5050000D02*
X26050000Y8690000D01*
G04 #@! TO.N,REG_EN1*
X27050000Y7561666D02*
X27050000Y9630000D01*
X27050000Y5050000D02*
X27050000Y7561666D01*
G04 #@! TO.N,REG_CHG*
X28050000Y10603332D02*
X28043332Y10610000D01*
X28050000Y5050000D02*
X28050000Y10603332D01*
G04 #@! TO.N,REG_POWER*
X29050000Y5050000D02*
X29050000Y7564998D01*
X29050000Y11939998D02*
X29044998Y11945000D01*
X29050000Y7564998D02*
X29050000Y11939998D01*
G04 #@! TO.N,BAT_ISET*
X30050000Y5050000D02*
X30050000Y7566664D01*
X30050000Y11941664D02*
X30046664Y11945000D01*
X30050000Y7566664D02*
X30050000Y11941664D01*
G04 #@! TO.N,BAT_PG*
X31050000Y5600000D02*
X31050000Y7568330D01*
X31050000Y11943330D02*
X31048330Y11945000D01*
X31050000Y7568330D02*
X31050000Y11943330D01*
G04 #@! TO.N,BAT_CHG*
X32050000Y11935000D02*
X32060000Y11945000D01*
X32050000Y5050000D02*
X32050000Y11935000D01*
G04 #@! TD*
D14*
G04 #@! TO.N,GND*
X64300374Y33457004D02*
X64589309Y33369770D01*
X64855796Y33228076D01*
X65089685Y33037321D01*
X65282070Y32804767D01*
X65425622Y32539275D01*
X65514871Y32250958D01*
X65548624Y31929813D01*
X65548001Y12022124D01*
X65516379Y11699622D01*
X65429145Y11410690D01*
X65287452Y11144204D01*
X65096697Y10910315D01*
X64864143Y10717930D01*
X64598650Y10574378D01*
X64310334Y10485129D01*
X63989185Y10451376D01*
X32853177Y10451997D01*
X32827000Y10459937D01*
X32827000Y11805312D01*
X32840758Y11944999D01*
X32825756Y12097318D01*
X32781327Y12243782D01*
X32709177Y12378766D01*
X32612079Y12497079D01*
X32493766Y12594177D01*
X32358782Y12666327D01*
X32212318Y12710756D01*
X32059999Y12725758D01*
X31907682Y12710756D01*
X31761217Y12666327D01*
X31626234Y12594177D01*
X31554165Y12535031D01*
X31482096Y12594177D01*
X31347113Y12666327D01*
X31200648Y12710756D01*
X31048330Y12725759D01*
X30896012Y12710756D01*
X30749547Y12666327D01*
X30614564Y12594177D01*
X30547497Y12539136D01*
X30480430Y12594177D01*
X30345447Y12666327D01*
X30198982Y12710756D01*
X30046664Y12725759D01*
X29894346Y12710756D01*
X29747881Y12666327D01*
X29612898Y12594177D01*
X29545831Y12539136D01*
X29478764Y12594177D01*
X29343781Y12666327D01*
X29197316Y12710756D01*
X29044998Y12725759D01*
X28892680Y12710756D01*
X28746215Y12666327D01*
X28611232Y12594177D01*
X28492919Y12497079D01*
X28395821Y12378766D01*
X28323671Y12243783D01*
X28279242Y12097318D01*
X28264239Y11945000D01*
X28273001Y11856044D01*
X28273001Y11352292D01*
X28195650Y11375756D01*
X28043332Y11390759D01*
X27891014Y11375756D01*
X27744549Y11331327D01*
X27609566Y11259177D01*
X27491253Y11162079D01*
X27394155Y11043766D01*
X27322005Y10908783D01*
X27277576Y10762318D01*
X27262573Y10610000D01*
X27273001Y10504130D01*
X27273001Y10409257D01*
X27063054Y10409473D01*
X27050000Y10410759D01*
X27037216Y10409500D01*
X24961656Y10411638D01*
X24862688Y10440766D01*
X24820198Y10448871D01*
X24777872Y10457560D01*
X24771244Y10458210D01*
X24586600Y10475014D01*
X24543368Y10474712D01*
X24500135Y10475014D01*
X24493507Y10474364D01*
X24309114Y10454983D01*
X24266754Y10446288D01*
X24224301Y10438190D01*
X24217933Y10436267D01*
X24217921Y10436264D01*
X24217910Y10436259D01*
X24040809Y10381438D01*
X24000983Y10364697D01*
X23960868Y10348490D01*
X23954992Y10345365D01*
X23954988Y10345363D01*
X23954987Y10345362D01*
X23791894Y10257178D01*
X23756057Y10233006D01*
X23719875Y10209330D01*
X23714722Y10205126D01*
X23714715Y10205121D01*
X23714709Y10205115D01*
X23571856Y10086936D01*
X23541404Y10056271D01*
X23510505Y10026013D01*
X23506260Y10020881D01*
X23389077Y9877201D01*
X23365146Y9841183D01*
X23340727Y9805520D01*
X23337564Y9799669D01*
X23337559Y9799661D01*
X23337556Y9799653D01*
X23250516Y9635956D01*
X23234043Y9595992D01*
X23217008Y9556246D01*
X23215041Y9549892D01*
X23215039Y9549886D01*
X23215039Y9549884D01*
X23161451Y9372390D01*
X23153060Y9330011D01*
X23144065Y9287695D01*
X23143370Y9281075D01*
X23143369Y9281068D01*
X23143369Y9281061D01*
X23125277Y9096548D01*
X23125277Y9096540D01*
X23123000Y9073422D01*
X23123001Y3070833D01*
X17829066Y3028048D01*
X17829066Y3232811D01*
X17830759Y3250000D01*
X17829066Y3267189D01*
X17829066Y5032811D01*
X17830759Y5050000D01*
X17829066Y5067189D01*
X17829066Y7200000D01*
X17827000Y7220978D01*
X17827000Y15416679D01*
X52248000Y15416679D01*
X52248000Y15283321D01*
X52274016Y15152526D01*
X52325050Y15029320D01*
X52399140Y14918437D01*
X52493437Y14824140D01*
X52604320Y14750050D01*
X52727526Y14699016D01*
X52858321Y14673000D01*
X52991679Y14673000D01*
X53122474Y14699016D01*
X53245680Y14750050D01*
X53356563Y14824140D01*
X53420000Y14887577D01*
X53488437Y14819140D01*
X53599320Y14745050D01*
X53722526Y14694016D01*
X53853321Y14668000D01*
X53986679Y14668000D01*
X54117474Y14694016D01*
X54240680Y14745050D01*
X54351563Y14819140D01*
X54420000Y14887577D01*
X54488437Y14819140D01*
X54599320Y14745050D01*
X54722526Y14694016D01*
X54853321Y14668000D01*
X54986679Y14668000D01*
X55117474Y14694016D01*
X55240680Y14745050D01*
X55351563Y14819140D01*
X55420000Y14887577D01*
X55488437Y14819140D01*
X55599320Y14745050D01*
X55722526Y14694016D01*
X55853321Y14668000D01*
X55986679Y14668000D01*
X56117474Y14694016D01*
X56240680Y14745050D01*
X56351563Y14819140D01*
X56445860Y14913437D01*
X56519950Y15024320D01*
X56570984Y15147526D01*
X56597000Y15278321D01*
X56597000Y15411679D01*
X56570984Y15542474D01*
X56519950Y15665680D01*
X56445860Y15776563D01*
X56351563Y15870860D01*
X56240680Y15944950D01*
X56117474Y15995984D01*
X55986679Y16022000D01*
X55853321Y16022000D01*
X55722526Y15995984D01*
X55599320Y15944950D01*
X55488437Y15870860D01*
X55420000Y15802423D01*
X55351563Y15870860D01*
X55240680Y15944950D01*
X55117474Y15995984D01*
X54986679Y16022000D01*
X54853321Y16022000D01*
X54722526Y15995984D01*
X54599320Y15944950D01*
X54488437Y15870860D01*
X54420000Y15802423D01*
X54351563Y15870860D01*
X54240680Y15944950D01*
X54117474Y15995984D01*
X53986679Y16022000D01*
X53853321Y16022000D01*
X53722526Y15995984D01*
X53599320Y15944950D01*
X53488437Y15870860D01*
X53425000Y15807423D01*
X53356563Y15875860D01*
X53245680Y15949950D01*
X53122474Y16000984D01*
X52991679Y16027000D01*
X52858321Y16027000D01*
X52727526Y16000984D01*
X52604320Y15949950D01*
X52493437Y15875860D01*
X52399140Y15781563D01*
X52325050Y15670680D01*
X52274016Y15547474D01*
X52248000Y15416679D01*
X17827000Y15416679D01*
X17827000Y16781845D01*
X17830758Y16820001D01*
X17827000Y16858157D01*
X17827000Y16858166D01*
X17815757Y16972319D01*
X17771327Y17118784D01*
X17735907Y17185050D01*
X17699177Y17253767D01*
X17626409Y17342435D01*
X17626408Y17342436D01*
X17602080Y17372080D01*
X17572436Y17396408D01*
X17117165Y17851679D01*
X52743000Y17851679D01*
X52743000Y17718321D01*
X52769016Y17587526D01*
X52820050Y17464320D01*
X52894140Y17353437D01*
X52988437Y17259140D01*
X53099320Y17185050D01*
X53222526Y17134016D01*
X53353321Y17108000D01*
X53486679Y17108000D01*
X53617474Y17134016D01*
X53740680Y17185050D01*
X53851563Y17259140D01*
X53920000Y17327577D01*
X53988437Y17259140D01*
X54099320Y17185050D01*
X54222526Y17134016D01*
X54353321Y17108000D01*
X54486679Y17108000D01*
X54617474Y17134016D01*
X54740680Y17185050D01*
X54851563Y17259140D01*
X54920000Y17327577D01*
X54988437Y17259140D01*
X55099320Y17185050D01*
X55222526Y17134016D01*
X55353321Y17108000D01*
X55486679Y17108000D01*
X55617474Y17134016D01*
X55740680Y17185050D01*
X55851563Y17259140D01*
X55945860Y17353437D01*
X56019950Y17464320D01*
X56070984Y17587526D01*
X56097000Y17718321D01*
X56097000Y17851679D01*
X56070984Y17982474D01*
X56019950Y18105680D01*
X55945860Y18216563D01*
X55851563Y18310860D01*
X55740680Y18384950D01*
X55617474Y18435984D01*
X55486679Y18462000D01*
X55353321Y18462000D01*
X55222526Y18435984D01*
X55099320Y18384950D01*
X54988437Y18310860D01*
X54920000Y18242423D01*
X54851563Y18310860D01*
X54740680Y18384950D01*
X54617474Y18435984D01*
X54486679Y18462000D01*
X54353321Y18462000D01*
X54222526Y18435984D01*
X54099320Y18384950D01*
X53988437Y18310860D01*
X53920000Y18242423D01*
X53851563Y18310860D01*
X53740680Y18384950D01*
X53617474Y18435984D01*
X53486679Y18462000D01*
X53353321Y18462000D01*
X53222526Y18435984D01*
X53099320Y18384950D01*
X52988437Y18310860D01*
X52894140Y18216563D01*
X52820050Y18105680D01*
X52769016Y17982474D01*
X52743000Y17851679D01*
X17117165Y17851679D01*
X15827000Y19141843D01*
X15827000Y20536679D01*
X17383000Y20536679D01*
X17383000Y20403321D01*
X17409016Y20272526D01*
X17460050Y20149320D01*
X17534140Y20038437D01*
X17628437Y19944140D01*
X17739320Y19870050D01*
X17862526Y19819016D01*
X17993321Y19793000D01*
X18126679Y19793000D01*
X18257474Y19819016D01*
X18380680Y19870050D01*
X18491563Y19944140D01*
X18585860Y20038437D01*
X18659950Y20149320D01*
X18710984Y20272526D01*
X18737000Y20403321D01*
X18737000Y20476679D01*
X27833000Y20476679D01*
X27833000Y20343321D01*
X27859016Y20212526D01*
X27910050Y20089320D01*
X27984140Y19978437D01*
X28078437Y19884140D01*
X28189320Y19810050D01*
X28312526Y19759016D01*
X28443321Y19733000D01*
X28576679Y19733000D01*
X28707474Y19759016D01*
X28830680Y19810050D01*
X28941563Y19884140D01*
X29035860Y19978437D01*
X29109950Y20089320D01*
X29160984Y20212526D01*
X29187000Y20343321D01*
X29187000Y20476679D01*
X29175066Y20536679D01*
X37633000Y20536679D01*
X37633000Y20403321D01*
X37659016Y20272526D01*
X37710050Y20149320D01*
X37784140Y20038437D01*
X37878437Y19944140D01*
X37989320Y19870050D01*
X38112526Y19819016D01*
X38243321Y19793000D01*
X38376679Y19793000D01*
X38507474Y19819016D01*
X38630680Y19870050D01*
X38741563Y19944140D01*
X38835860Y20038437D01*
X38909950Y20149320D01*
X38960984Y20272526D01*
X38987000Y20403321D01*
X38987000Y20536679D01*
X38975066Y20596679D01*
X47633000Y20596679D01*
X47633000Y20463321D01*
X47659016Y20332526D01*
X47710050Y20209320D01*
X47784140Y20098437D01*
X47878437Y20004140D01*
X47989320Y19930050D01*
X48112526Y19879016D01*
X48243321Y19853000D01*
X48376679Y19853000D01*
X48507474Y19879016D01*
X48630680Y19930050D01*
X48741563Y20004140D01*
X48835860Y20098437D01*
X48909950Y20209320D01*
X48960984Y20332526D01*
X48987000Y20463321D01*
X48987000Y20596679D01*
X48960984Y20727474D01*
X48909950Y20850680D01*
X48835860Y20961563D01*
X48741563Y21055860D01*
X48630680Y21129950D01*
X48507474Y21180984D01*
X48376679Y21207000D01*
X48243321Y21207000D01*
X48112526Y21180984D01*
X47989320Y21129950D01*
X47878437Y21055860D01*
X47784140Y20961563D01*
X47710050Y20850680D01*
X47659016Y20727474D01*
X47633000Y20596679D01*
X38975066Y20596679D01*
X38960984Y20667474D01*
X38909950Y20790680D01*
X38835860Y20901563D01*
X38741563Y20995860D01*
X38630680Y21069950D01*
X38507474Y21120984D01*
X38376679Y21147000D01*
X38243321Y21147000D01*
X38112526Y21120984D01*
X37989320Y21069950D01*
X37878437Y20995860D01*
X37784140Y20901563D01*
X37710050Y20790680D01*
X37659016Y20667474D01*
X37633000Y20536679D01*
X29175066Y20536679D01*
X29160984Y20607474D01*
X29109950Y20730680D01*
X29035860Y20841563D01*
X28941563Y20935860D01*
X28830680Y21009950D01*
X28707474Y21060984D01*
X28576679Y21087000D01*
X28443321Y21087000D01*
X28312526Y21060984D01*
X28189320Y21009950D01*
X28078437Y20935860D01*
X27984140Y20841563D01*
X27910050Y20730680D01*
X27859016Y20607474D01*
X27833000Y20476679D01*
X18737000Y20476679D01*
X18737000Y20536679D01*
X18710984Y20667474D01*
X18659950Y20790680D01*
X18585860Y20901563D01*
X18491563Y20995860D01*
X18380680Y21069950D01*
X18257474Y21120984D01*
X18126679Y21147000D01*
X17993321Y21147000D01*
X17862526Y21120984D01*
X17739320Y21069950D01*
X17628437Y20995860D01*
X17534140Y20901563D01*
X17460050Y20790680D01*
X17409016Y20667474D01*
X17383000Y20536679D01*
X15827000Y20536679D01*
X15827000Y24218157D01*
X16051844Y24443000D01*
X20228666Y24443000D01*
X20279700Y24415722D01*
X20402398Y24378502D01*
X20530000Y24365934D01*
X21030000Y24365934D01*
X21157602Y24378502D01*
X21280300Y24415722D01*
X21331334Y24443000D01*
X30998666Y24443000D01*
X31049700Y24415722D01*
X31172398Y24378502D01*
X31300000Y24365934D01*
X31800000Y24365934D01*
X31927602Y24378502D01*
X32050300Y24415722D01*
X32101334Y24443000D01*
X40588666Y24443000D01*
X40639700Y24415722D01*
X40762398Y24378502D01*
X40890000Y24365934D01*
X41390000Y24365934D01*
X41517602Y24378502D01*
X41640300Y24415722D01*
X41691334Y24443000D01*
X49438157Y24443000D01*
X50253592Y23627564D01*
X50277920Y23597920D01*
X50307564Y23573592D01*
X50307565Y23573591D01*
X50396234Y23500822D01*
X50475410Y23458502D01*
X50531216Y23428673D01*
X50677681Y23384243D01*
X50791834Y23373000D01*
X50791836Y23373000D01*
X50830000Y23369241D01*
X50868163Y23373000D01*
X53581834Y23373000D01*
X53620000Y23369241D01*
X53658166Y23373000D01*
X54141834Y23373000D01*
X54180000Y23369241D01*
X54218166Y23373000D01*
X54332319Y23384243D01*
X54478784Y23428673D01*
X54613766Y23500823D01*
X54732080Y23597920D01*
X54756412Y23627569D01*
X55252435Y24123592D01*
X55282080Y24147920D01*
X55324198Y24199241D01*
X55379177Y24266233D01*
X55451327Y24401216D01*
X55465756Y24448783D01*
X55495757Y24547681D01*
X55507000Y24661834D01*
X55507000Y24661843D01*
X55510758Y24699999D01*
X55507000Y24738155D01*
X55507000Y25421837D01*
X55510759Y25460000D01*
X55506819Y25500000D01*
X55495757Y25612319D01*
X55451327Y25758784D01*
X55412022Y25832318D01*
X55379178Y25893766D01*
X55306409Y25982435D01*
X55306408Y25982436D01*
X55282080Y26012080D01*
X55252437Y26036407D01*
X54981565Y26307279D01*
X55060680Y26340050D01*
X55171563Y26414140D01*
X55265860Y26508437D01*
X55339950Y26619320D01*
X55390984Y26742526D01*
X55417000Y26873321D01*
X55417000Y27006679D01*
X55390984Y27137474D01*
X55339950Y27260680D01*
X55305313Y27312517D01*
X55349950Y27379320D01*
X55400984Y27502526D01*
X55427000Y27633321D01*
X55427000Y27766679D01*
X55400984Y27897474D01*
X55349950Y28020680D01*
X55275860Y28131563D01*
X55181563Y28225860D01*
X55070680Y28299950D01*
X54947474Y28350984D01*
X54816679Y28377000D01*
X54683321Y28377000D01*
X54552526Y28350984D01*
X54429320Y28299950D01*
X54318437Y28225860D01*
X54224140Y28131563D01*
X54150050Y28020680D01*
X54099016Y27897474D01*
X54073000Y27766679D01*
X54073000Y27633321D01*
X54099016Y27502526D01*
X54150050Y27379320D01*
X54184687Y27327483D01*
X54140050Y27260680D01*
X54107279Y27181564D01*
X53866412Y27422431D01*
X53842080Y27452080D01*
X53723766Y27549177D01*
X53588784Y27621327D01*
X53442319Y27665757D01*
X53328166Y27677000D01*
X53328163Y27677000D01*
X53290000Y27680759D01*
X53251837Y27677000D01*
X50989776Y27677000D01*
X50997000Y27713321D01*
X50997000Y27846679D01*
X50970984Y27977474D01*
X50919950Y28100680D01*
X50845860Y28211563D01*
X50751563Y28305860D01*
X50640680Y28379950D01*
X50517474Y28430984D01*
X50386679Y28457000D01*
X50253321Y28457000D01*
X50122526Y28430984D01*
X49999320Y28379950D01*
X49888437Y28305860D01*
X49794140Y28211563D01*
X49720050Y28100680D01*
X49669016Y27977474D01*
X49651989Y27891871D01*
X49630984Y27997474D01*
X49579950Y28120680D01*
X49505860Y28231563D01*
X49411563Y28325860D01*
X49300680Y28399950D01*
X49177474Y28450984D01*
X49046679Y28477000D01*
X48913321Y28477000D01*
X48782526Y28450984D01*
X48659320Y28399950D01*
X48548437Y28325860D01*
X48454140Y28231563D01*
X48380050Y28120680D01*
X48329016Y27997474D01*
X48303000Y27866679D01*
X48303000Y27733321D01*
X48314203Y27677000D01*
X41147000Y27677000D01*
X41147000Y27796679D01*
X41120984Y27927474D01*
X41069950Y28050680D01*
X40995860Y28161563D01*
X40901563Y28255860D01*
X40790680Y28329950D01*
X40667474Y28380984D01*
X40536679Y28407000D01*
X40403321Y28407000D01*
X40272526Y28380984D01*
X40149320Y28329950D01*
X40038437Y28255860D01*
X39944140Y28161563D01*
X39870050Y28050680D01*
X39819016Y27927474D01*
X39793000Y27796679D01*
X39793000Y27677000D01*
X39695797Y27677000D01*
X39707000Y27733321D01*
X39707000Y27866679D01*
X39680984Y27997474D01*
X39629950Y28120680D01*
X39555860Y28231563D01*
X39461563Y28325860D01*
X39350680Y28399950D01*
X39227474Y28450984D01*
X39096679Y28477000D01*
X38963321Y28477000D01*
X38832526Y28450984D01*
X38709320Y28399950D01*
X38598437Y28325860D01*
X38504140Y28231563D01*
X38430050Y28120680D01*
X38379016Y27997474D01*
X38353000Y27866679D01*
X38353000Y27733321D01*
X38364203Y27677000D01*
X31207000Y27677000D01*
X31207000Y27786679D01*
X31180984Y27917474D01*
X31129950Y28040680D01*
X31055860Y28151563D01*
X30961563Y28245860D01*
X30850680Y28319950D01*
X30727474Y28370984D01*
X30596679Y28397000D01*
X30463321Y28397000D01*
X30332526Y28370984D01*
X30209320Y28319950D01*
X30098437Y28245860D01*
X30004140Y28151563D01*
X29930050Y28040680D01*
X29879016Y27917474D01*
X29857000Y27806789D01*
X29857000Y27856679D01*
X29830984Y27987474D01*
X29779950Y28110680D01*
X29705860Y28221563D01*
X29611563Y28315860D01*
X29500680Y28389950D01*
X29377474Y28440984D01*
X29246679Y28467000D01*
X29113321Y28467000D01*
X28982526Y28440984D01*
X28859320Y28389950D01*
X28748437Y28315860D01*
X28654140Y28221563D01*
X28580050Y28110680D01*
X28529016Y27987474D01*
X28503000Y27856679D01*
X28503000Y27723321D01*
X28512214Y27677000D01*
X20837000Y27677000D01*
X20837000Y27726679D01*
X20810984Y27857474D01*
X20759950Y27980680D01*
X20685860Y28091563D01*
X20591563Y28185860D01*
X20480680Y28259950D01*
X20357474Y28310984D01*
X20226679Y28337000D01*
X20093321Y28337000D01*
X19962526Y28310984D01*
X19839320Y28259950D01*
X19728437Y28185860D01*
X19634140Y28091563D01*
X19560050Y27980680D01*
X19541289Y27935388D01*
X19520984Y28037474D01*
X19469950Y28160680D01*
X19395860Y28271563D01*
X19301563Y28365860D01*
X19190680Y28439950D01*
X19067474Y28490984D01*
X18936679Y28517000D01*
X18803321Y28517000D01*
X18672526Y28490984D01*
X18549320Y28439950D01*
X18438437Y28365860D01*
X18344140Y28271563D01*
X18270050Y28160680D01*
X18219016Y28037474D01*
X18193000Y27906679D01*
X18193000Y27773321D01*
X18212159Y27677000D01*
X13688155Y27677000D01*
X13649999Y27680758D01*
X13611843Y27677000D01*
X13611834Y27677000D01*
X13497681Y27665757D01*
X13351216Y27621327D01*
X13216233Y27549177D01*
X13169695Y27510984D01*
X13097920Y27452080D01*
X13073592Y27422436D01*
X12527565Y26876408D01*
X12497921Y26852080D01*
X12473593Y26822436D01*
X12473591Y26822434D01*
X12400823Y26733766D01*
X12328673Y26598783D01*
X12302884Y26513766D01*
X12289134Y26468437D01*
X12284244Y26452318D01*
X12269241Y26300000D01*
X12273001Y26261827D01*
X12273000Y11249569D01*
X12149449Y11350335D01*
X12115342Y11372996D01*
X12081525Y11396150D01*
X12075974Y11399152D01*
X11869074Y11509163D01*
X11831164Y11524789D01*
X11793544Y11540913D01*
X11787525Y11542776D01*
X11787515Y11542780D01*
X11787505Y11542782D01*
X11563189Y11610508D01*
X11522994Y11618467D01*
X11482928Y11626983D01*
X11476657Y11627642D01*
X11476654Y11627643D01*
X11476651Y11627643D01*
X11243440Y11650509D01*
X11054337Y11669050D01*
X10914867Y11711159D01*
X10786228Y11779558D01*
X10673326Y11871639D01*
X10580460Y11983893D01*
X10511164Y12112054D01*
X10468082Y12251228D01*
X10450668Y12416912D01*
X10451264Y28906679D01*
X13503002Y28906679D01*
X13503002Y28773321D01*
X13529018Y28642526D01*
X13580052Y28519320D01*
X13654142Y28408437D01*
X13748439Y28314140D01*
X13859322Y28240050D01*
X13982528Y28189016D01*
X14113323Y28163000D01*
X14246681Y28163000D01*
X14377476Y28189016D01*
X14500682Y28240050D01*
X14611565Y28314140D01*
X14705862Y28408437D01*
X14779952Y28519320D01*
X14830986Y28642526D01*
X14857002Y28773321D01*
X14857002Y28876679D01*
X22863000Y28876679D01*
X22863000Y28743321D01*
X22889016Y28612526D01*
X22940050Y28489320D01*
X23014140Y28378437D01*
X23108437Y28284140D01*
X23219320Y28210050D01*
X23342526Y28159016D01*
X23473321Y28133000D01*
X23606679Y28133000D01*
X23737474Y28159016D01*
X23860680Y28210050D01*
X23971563Y28284140D01*
X24065860Y28378437D01*
X24139950Y28489320D01*
X24190984Y28612526D01*
X24217000Y28743321D01*
X24217000Y28876679D01*
X24205066Y28936679D01*
X33703000Y28936679D01*
X33703000Y28803321D01*
X33729016Y28672526D01*
X33780050Y28549320D01*
X33854140Y28438437D01*
X33948437Y28344140D01*
X34059320Y28270050D01*
X34182526Y28219016D01*
X34313321Y28193000D01*
X34446679Y28193000D01*
X34577474Y28219016D01*
X34700680Y28270050D01*
X34811563Y28344140D01*
X34905860Y28438437D01*
X34979950Y28549320D01*
X35030984Y28672526D01*
X35057000Y28803321D01*
X35057000Y28896679D01*
X43733000Y28896679D01*
X43733000Y28763321D01*
X43759016Y28632526D01*
X43810050Y28509320D01*
X43884140Y28398437D01*
X43978437Y28304140D01*
X44089320Y28230050D01*
X44212526Y28179016D01*
X44343321Y28153000D01*
X44476679Y28153000D01*
X44607474Y28179016D01*
X44730680Y28230050D01*
X44841563Y28304140D01*
X44935860Y28398437D01*
X45009950Y28509320D01*
X45060984Y28632526D01*
X45087000Y28763321D01*
X45087000Y28896679D01*
X45060984Y29027474D01*
X45009950Y29150680D01*
X44935860Y29261563D01*
X44841563Y29355860D01*
X44730680Y29429950D01*
X44607474Y29480984D01*
X44476679Y29507000D01*
X44343321Y29507000D01*
X44212526Y29480984D01*
X44089320Y29429950D01*
X43978437Y29355860D01*
X43884140Y29261563D01*
X43810050Y29150680D01*
X43759016Y29027474D01*
X43733000Y28896679D01*
X35057000Y28896679D01*
X35057000Y28936679D01*
X35030984Y29067474D01*
X34979950Y29190680D01*
X34905860Y29301563D01*
X34811563Y29395860D01*
X34700680Y29469950D01*
X34577474Y29520984D01*
X34446679Y29547000D01*
X34313321Y29547000D01*
X34182526Y29520984D01*
X34059320Y29469950D01*
X33948437Y29395860D01*
X33854140Y29301563D01*
X33780050Y29190680D01*
X33729016Y29067474D01*
X33703000Y28936679D01*
X24205066Y28936679D01*
X24190984Y29007474D01*
X24139950Y29130680D01*
X24065860Y29241563D01*
X23971563Y29335860D01*
X23860680Y29409950D01*
X23737474Y29460984D01*
X23606679Y29487000D01*
X23473321Y29487000D01*
X23342526Y29460984D01*
X23219320Y29409950D01*
X23108437Y29335860D01*
X23014140Y29241563D01*
X22940050Y29130680D01*
X22889016Y29007474D01*
X22863000Y28876679D01*
X14857002Y28876679D01*
X14857002Y28906679D01*
X14830986Y29037474D01*
X14779952Y29160680D01*
X14705862Y29271563D01*
X14611565Y29365860D01*
X14500682Y29439950D01*
X14377476Y29490984D01*
X14246681Y29517000D01*
X14113323Y29517000D01*
X13982528Y29490984D01*
X13859322Y29439950D01*
X13748439Y29365860D01*
X13654142Y29271563D01*
X13580052Y29160680D01*
X13529018Y29037474D01*
X13503002Y28906679D01*
X10451264Y28906679D01*
X10451353Y31366679D01*
X55923000Y31366679D01*
X55923000Y31233321D01*
X55949016Y31102526D01*
X56000050Y30979320D01*
X56074140Y30868437D01*
X56168437Y30774140D01*
X56279320Y30700050D01*
X56402526Y30649016D01*
X56533321Y30623000D01*
X56666679Y30623000D01*
X56797474Y30649016D01*
X56920680Y30700050D01*
X57031563Y30774140D01*
X57080000Y30822577D01*
X57128437Y30774140D01*
X57239320Y30700050D01*
X57362526Y30649016D01*
X57493321Y30623000D01*
X57626679Y30623000D01*
X57757474Y30649016D01*
X57880680Y30700050D01*
X57991563Y30774140D01*
X58085860Y30868437D01*
X58159950Y30979320D01*
X58210984Y31102526D01*
X58237000Y31233321D01*
X58237000Y31366679D01*
X58210984Y31497474D01*
X58159950Y31620680D01*
X58085860Y31731563D01*
X57991563Y31825860D01*
X57880680Y31899950D01*
X57757474Y31950984D01*
X57626679Y31977000D01*
X57493321Y31977000D01*
X57362526Y31950984D01*
X57239320Y31899950D01*
X57128437Y31825860D01*
X57080000Y31777423D01*
X57031563Y31825860D01*
X56920680Y31899950D01*
X56797474Y31950984D01*
X56666679Y31977000D01*
X56533321Y31977000D01*
X56402526Y31950984D01*
X56279320Y31899950D01*
X56168437Y31825860D01*
X56074140Y31731563D01*
X56000050Y31620680D01*
X55949016Y31497474D01*
X55923000Y31366679D01*
X10451353Y31366679D01*
X10451374Y31917874D01*
X10482996Y32240374D01*
X10570230Y32529309D01*
X10711924Y32795796D01*
X10902679Y33029685D01*
X11135233Y33222070D01*
X11400725Y33365622D01*
X11689042Y33454871D01*
X12010187Y33488624D01*
X63977891Y33488624D01*
X64300374Y33457004D01*
G04 #@! TA.AperFunction,Conductor*
D15*
G36*
X64300374Y33457004D02*
G01*
X64589309Y33369770D01*
X64855796Y33228076D01*
X65089685Y33037321D01*
X65282070Y32804767D01*
X65425622Y32539275D01*
X65514871Y32250958D01*
X65548624Y31929813D01*
X65548001Y12022124D01*
X65516379Y11699622D01*
X65429145Y11410690D01*
X65287452Y11144204D01*
X65096697Y10910315D01*
X64864143Y10717930D01*
X64598650Y10574378D01*
X64310334Y10485129D01*
X63989185Y10451376D01*
X32853177Y10451997D01*
X32827000Y10459937D01*
X32827000Y11805312D01*
X32840758Y11944999D01*
X32825756Y12097318D01*
X32781327Y12243782D01*
X32709177Y12378766D01*
X32612079Y12497079D01*
X32493766Y12594177D01*
X32358782Y12666327D01*
X32212318Y12710756D01*
X32059999Y12725758D01*
X31907682Y12710756D01*
X31761217Y12666327D01*
X31626234Y12594177D01*
X31554165Y12535031D01*
X31482096Y12594177D01*
X31347113Y12666327D01*
X31200648Y12710756D01*
X31048330Y12725759D01*
X30896012Y12710756D01*
X30749547Y12666327D01*
X30614564Y12594177D01*
X30547497Y12539136D01*
X30480430Y12594177D01*
X30345447Y12666327D01*
X30198982Y12710756D01*
X30046664Y12725759D01*
X29894346Y12710756D01*
X29747881Y12666327D01*
X29612898Y12594177D01*
X29545831Y12539136D01*
X29478764Y12594177D01*
X29343781Y12666327D01*
X29197316Y12710756D01*
X29044998Y12725759D01*
X28892680Y12710756D01*
X28746215Y12666327D01*
X28611232Y12594177D01*
X28492919Y12497079D01*
X28395821Y12378766D01*
X28323671Y12243783D01*
X28279242Y12097318D01*
X28264239Y11945000D01*
X28273001Y11856044D01*
X28273001Y11352292D01*
X28195650Y11375756D01*
X28043332Y11390759D01*
X27891014Y11375756D01*
X27744549Y11331327D01*
X27609566Y11259177D01*
X27491253Y11162079D01*
X27394155Y11043766D01*
X27322005Y10908783D01*
X27277576Y10762318D01*
X27262573Y10610000D01*
X27273001Y10504130D01*
X27273001Y10409257D01*
X27063054Y10409473D01*
X27050000Y10410759D01*
X27037216Y10409500D01*
X24961656Y10411638D01*
X24862688Y10440766D01*
X24820198Y10448871D01*
X24777872Y10457560D01*
X24771244Y10458210D01*
X24586600Y10475014D01*
X24543368Y10474712D01*
X24500135Y10475014D01*
X24493507Y10474364D01*
X24309114Y10454983D01*
X24266754Y10446288D01*
X24224301Y10438190D01*
X24217933Y10436267D01*
X24217921Y10436264D01*
X24217910Y10436259D01*
X24040809Y10381438D01*
X24000983Y10364697D01*
X23960868Y10348490D01*
X23954992Y10345365D01*
X23954988Y10345363D01*
X23954987Y10345362D01*
X23791894Y10257178D01*
X23756057Y10233006D01*
X23719875Y10209330D01*
X23714722Y10205126D01*
X23714715Y10205121D01*
X23714709Y10205115D01*
X23571856Y10086936D01*
X23541404Y10056271D01*
X23510505Y10026013D01*
X23506260Y10020881D01*
X23389077Y9877201D01*
X23365146Y9841183D01*
X23340727Y9805520D01*
X23337564Y9799669D01*
X23337559Y9799661D01*
X23337556Y9799653D01*
X23250516Y9635956D01*
X23234043Y9595992D01*
X23217008Y9556246D01*
X23215041Y9549892D01*
X23215039Y9549886D01*
X23215039Y9549884D01*
X23161451Y9372390D01*
X23153060Y9330011D01*
X23144065Y9287695D01*
X23143370Y9281075D01*
X23143369Y9281068D01*
X23143369Y9281061D01*
X23125277Y9096548D01*
X23125277Y9096540D01*
X23123000Y9073422D01*
X23123001Y3070833D01*
X17829066Y3028048D01*
X17829066Y3232811D01*
X17830759Y3250000D01*
X17829066Y3267189D01*
X17829066Y5032811D01*
X17830759Y5050000D01*
X17829066Y5067189D01*
X17829066Y7200000D01*
X17827000Y7220978D01*
X17827000Y15416679D01*
X52248000Y15416679D01*
X52248000Y15283321D01*
X52274016Y15152526D01*
X52325050Y15029320D01*
X52399140Y14918437D01*
X52493437Y14824140D01*
X52604320Y14750050D01*
X52727526Y14699016D01*
X52858321Y14673000D01*
X52991679Y14673000D01*
X53122474Y14699016D01*
X53245680Y14750050D01*
X53356563Y14824140D01*
X53420000Y14887577D01*
X53488437Y14819140D01*
X53599320Y14745050D01*
X53722526Y14694016D01*
X53853321Y14668000D01*
X53986679Y14668000D01*
X54117474Y14694016D01*
X54240680Y14745050D01*
X54351563Y14819140D01*
X54420000Y14887577D01*
X54488437Y14819140D01*
X54599320Y14745050D01*
X54722526Y14694016D01*
X54853321Y14668000D01*
X54986679Y14668000D01*
X55117474Y14694016D01*
X55240680Y14745050D01*
X55351563Y14819140D01*
X55420000Y14887577D01*
X55488437Y14819140D01*
X55599320Y14745050D01*
X55722526Y14694016D01*
X55853321Y14668000D01*
X55986679Y14668000D01*
X56117474Y14694016D01*
X56240680Y14745050D01*
X56351563Y14819140D01*
X56445860Y14913437D01*
X56519950Y15024320D01*
X56570984Y15147526D01*
X56597000Y15278321D01*
X56597000Y15411679D01*
X56570984Y15542474D01*
X56519950Y15665680D01*
X56445860Y15776563D01*
X56351563Y15870860D01*
X56240680Y15944950D01*
X56117474Y15995984D01*
X55986679Y16022000D01*
X55853321Y16022000D01*
X55722526Y15995984D01*
X55599320Y15944950D01*
X55488437Y15870860D01*
X55420000Y15802423D01*
X55351563Y15870860D01*
X55240680Y15944950D01*
X55117474Y15995984D01*
X54986679Y16022000D01*
X54853321Y16022000D01*
X54722526Y15995984D01*
X54599320Y15944950D01*
X54488437Y15870860D01*
X54420000Y15802423D01*
X54351563Y15870860D01*
X54240680Y15944950D01*
X54117474Y15995984D01*
X53986679Y16022000D01*
X53853321Y16022000D01*
X53722526Y15995984D01*
X53599320Y15944950D01*
X53488437Y15870860D01*
X53425000Y15807423D01*
X53356563Y15875860D01*
X53245680Y15949950D01*
X53122474Y16000984D01*
X52991679Y16027000D01*
X52858321Y16027000D01*
X52727526Y16000984D01*
X52604320Y15949950D01*
X52493437Y15875860D01*
X52399140Y15781563D01*
X52325050Y15670680D01*
X52274016Y15547474D01*
X52248000Y15416679D01*
X17827000Y15416679D01*
X17827000Y16781845D01*
X17830758Y16820001D01*
X17827000Y16858157D01*
X17827000Y16858166D01*
X17815757Y16972319D01*
X17771327Y17118784D01*
X17735907Y17185050D01*
X17699177Y17253767D01*
X17626409Y17342435D01*
X17626408Y17342436D01*
X17602080Y17372080D01*
X17572436Y17396408D01*
X17117165Y17851679D01*
X52743000Y17851679D01*
X52743000Y17718321D01*
X52769016Y17587526D01*
X52820050Y17464320D01*
X52894140Y17353437D01*
X52988437Y17259140D01*
X53099320Y17185050D01*
X53222526Y17134016D01*
X53353321Y17108000D01*
X53486679Y17108000D01*
X53617474Y17134016D01*
X53740680Y17185050D01*
X53851563Y17259140D01*
X53920000Y17327577D01*
X53988437Y17259140D01*
X54099320Y17185050D01*
X54222526Y17134016D01*
X54353321Y17108000D01*
X54486679Y17108000D01*
X54617474Y17134016D01*
X54740680Y17185050D01*
X54851563Y17259140D01*
X54920000Y17327577D01*
X54988437Y17259140D01*
X55099320Y17185050D01*
X55222526Y17134016D01*
X55353321Y17108000D01*
X55486679Y17108000D01*
X55617474Y17134016D01*
X55740680Y17185050D01*
X55851563Y17259140D01*
X55945860Y17353437D01*
X56019950Y17464320D01*
X56070984Y17587526D01*
X56097000Y17718321D01*
X56097000Y17851679D01*
X56070984Y17982474D01*
X56019950Y18105680D01*
X55945860Y18216563D01*
X55851563Y18310860D01*
X55740680Y18384950D01*
X55617474Y18435984D01*
X55486679Y18462000D01*
X55353321Y18462000D01*
X55222526Y18435984D01*
X55099320Y18384950D01*
X54988437Y18310860D01*
X54920000Y18242423D01*
X54851563Y18310860D01*
X54740680Y18384950D01*
X54617474Y18435984D01*
X54486679Y18462000D01*
X54353321Y18462000D01*
X54222526Y18435984D01*
X54099320Y18384950D01*
X53988437Y18310860D01*
X53920000Y18242423D01*
X53851563Y18310860D01*
X53740680Y18384950D01*
X53617474Y18435984D01*
X53486679Y18462000D01*
X53353321Y18462000D01*
X53222526Y18435984D01*
X53099320Y18384950D01*
X52988437Y18310860D01*
X52894140Y18216563D01*
X52820050Y18105680D01*
X52769016Y17982474D01*
X52743000Y17851679D01*
X17117165Y17851679D01*
X15827000Y19141843D01*
X15827000Y20536679D01*
X17383000Y20536679D01*
X17383000Y20403321D01*
X17409016Y20272526D01*
X17460050Y20149320D01*
X17534140Y20038437D01*
X17628437Y19944140D01*
X17739320Y19870050D01*
X17862526Y19819016D01*
X17993321Y19793000D01*
X18126679Y19793000D01*
X18257474Y19819016D01*
X18380680Y19870050D01*
X18491563Y19944140D01*
X18585860Y20038437D01*
X18659950Y20149320D01*
X18710984Y20272526D01*
X18737000Y20403321D01*
X18737000Y20476679D01*
X27833000Y20476679D01*
X27833000Y20343321D01*
X27859016Y20212526D01*
X27910050Y20089320D01*
X27984140Y19978437D01*
X28078437Y19884140D01*
X28189320Y19810050D01*
X28312526Y19759016D01*
X28443321Y19733000D01*
X28576679Y19733000D01*
X28707474Y19759016D01*
X28830680Y19810050D01*
X28941563Y19884140D01*
X29035860Y19978437D01*
X29109950Y20089320D01*
X29160984Y20212526D01*
X29187000Y20343321D01*
X29187000Y20476679D01*
X29175066Y20536679D01*
X37633000Y20536679D01*
X37633000Y20403321D01*
X37659016Y20272526D01*
X37710050Y20149320D01*
X37784140Y20038437D01*
X37878437Y19944140D01*
X37989320Y19870050D01*
X38112526Y19819016D01*
X38243321Y19793000D01*
X38376679Y19793000D01*
X38507474Y19819016D01*
X38630680Y19870050D01*
X38741563Y19944140D01*
X38835860Y20038437D01*
X38909950Y20149320D01*
X38960984Y20272526D01*
X38987000Y20403321D01*
X38987000Y20536679D01*
X38975066Y20596679D01*
X47633000Y20596679D01*
X47633000Y20463321D01*
X47659016Y20332526D01*
X47710050Y20209320D01*
X47784140Y20098437D01*
X47878437Y20004140D01*
X47989320Y19930050D01*
X48112526Y19879016D01*
X48243321Y19853000D01*
X48376679Y19853000D01*
X48507474Y19879016D01*
X48630680Y19930050D01*
X48741563Y20004140D01*
X48835860Y20098437D01*
X48909950Y20209320D01*
X48960984Y20332526D01*
X48987000Y20463321D01*
X48987000Y20596679D01*
X48960984Y20727474D01*
X48909950Y20850680D01*
X48835860Y20961563D01*
X48741563Y21055860D01*
X48630680Y21129950D01*
X48507474Y21180984D01*
X48376679Y21207000D01*
X48243321Y21207000D01*
X48112526Y21180984D01*
X47989320Y21129950D01*
X47878437Y21055860D01*
X47784140Y20961563D01*
X47710050Y20850680D01*
X47659016Y20727474D01*
X47633000Y20596679D01*
X38975066Y20596679D01*
X38960984Y20667474D01*
X38909950Y20790680D01*
X38835860Y20901563D01*
X38741563Y20995860D01*
X38630680Y21069950D01*
X38507474Y21120984D01*
X38376679Y21147000D01*
X38243321Y21147000D01*
X38112526Y21120984D01*
X37989320Y21069950D01*
X37878437Y20995860D01*
X37784140Y20901563D01*
X37710050Y20790680D01*
X37659016Y20667474D01*
X37633000Y20536679D01*
X29175066Y20536679D01*
X29160984Y20607474D01*
X29109950Y20730680D01*
X29035860Y20841563D01*
X28941563Y20935860D01*
X28830680Y21009950D01*
X28707474Y21060984D01*
X28576679Y21087000D01*
X28443321Y21087000D01*
X28312526Y21060984D01*
X28189320Y21009950D01*
X28078437Y20935860D01*
X27984140Y20841563D01*
X27910050Y20730680D01*
X27859016Y20607474D01*
X27833000Y20476679D01*
X18737000Y20476679D01*
X18737000Y20536679D01*
X18710984Y20667474D01*
X18659950Y20790680D01*
X18585860Y20901563D01*
X18491563Y20995860D01*
X18380680Y21069950D01*
X18257474Y21120984D01*
X18126679Y21147000D01*
X17993321Y21147000D01*
X17862526Y21120984D01*
X17739320Y21069950D01*
X17628437Y20995860D01*
X17534140Y20901563D01*
X17460050Y20790680D01*
X17409016Y20667474D01*
X17383000Y20536679D01*
X15827000Y20536679D01*
X15827000Y24218157D01*
X16051844Y24443000D01*
X20228666Y24443000D01*
X20279700Y24415722D01*
X20402398Y24378502D01*
X20530000Y24365934D01*
X21030000Y24365934D01*
X21157602Y24378502D01*
X21280300Y24415722D01*
X21331334Y24443000D01*
X30998666Y24443000D01*
X31049700Y24415722D01*
X31172398Y24378502D01*
X31300000Y24365934D01*
X31800000Y24365934D01*
X31927602Y24378502D01*
X32050300Y24415722D01*
X32101334Y24443000D01*
X40588666Y24443000D01*
X40639700Y24415722D01*
X40762398Y24378502D01*
X40890000Y24365934D01*
X41390000Y24365934D01*
X41517602Y24378502D01*
X41640300Y24415722D01*
X41691334Y24443000D01*
X49438157Y24443000D01*
X50253592Y23627564D01*
X50277920Y23597920D01*
X50307564Y23573592D01*
X50307565Y23573591D01*
X50396234Y23500822D01*
X50475410Y23458502D01*
X50531216Y23428673D01*
X50677681Y23384243D01*
X50791834Y23373000D01*
X50791836Y23373000D01*
X50830000Y23369241D01*
X50868163Y23373000D01*
X53581834Y23373000D01*
X53620000Y23369241D01*
X53658166Y23373000D01*
X54141834Y23373000D01*
X54180000Y23369241D01*
X54218166Y23373000D01*
X54332319Y23384243D01*
X54478784Y23428673D01*
X54613766Y23500823D01*
X54732080Y23597920D01*
X54756412Y23627569D01*
X55252435Y24123592D01*
X55282080Y24147920D01*
X55324198Y24199241D01*
X55379177Y24266233D01*
X55451327Y24401216D01*
X55465756Y24448783D01*
X55495757Y24547681D01*
X55507000Y24661834D01*
X55507000Y24661843D01*
X55510758Y24699999D01*
X55507000Y24738155D01*
X55507000Y25421837D01*
X55510759Y25460000D01*
X55506819Y25500000D01*
X55495757Y25612319D01*
X55451327Y25758784D01*
X55412022Y25832318D01*
X55379178Y25893766D01*
X55306409Y25982435D01*
X55306408Y25982436D01*
X55282080Y26012080D01*
X55252437Y26036407D01*
X54981565Y26307279D01*
X55060680Y26340050D01*
X55171563Y26414140D01*
X55265860Y26508437D01*
X55339950Y26619320D01*
X55390984Y26742526D01*
X55417000Y26873321D01*
X55417000Y27006679D01*
X55390984Y27137474D01*
X55339950Y27260680D01*
X55305313Y27312517D01*
X55349950Y27379320D01*
X55400984Y27502526D01*
X55427000Y27633321D01*
X55427000Y27766679D01*
X55400984Y27897474D01*
X55349950Y28020680D01*
X55275860Y28131563D01*
X55181563Y28225860D01*
X55070680Y28299950D01*
X54947474Y28350984D01*
X54816679Y28377000D01*
X54683321Y28377000D01*
X54552526Y28350984D01*
X54429320Y28299950D01*
X54318437Y28225860D01*
X54224140Y28131563D01*
X54150050Y28020680D01*
X54099016Y27897474D01*
X54073000Y27766679D01*
X54073000Y27633321D01*
X54099016Y27502526D01*
X54150050Y27379320D01*
X54184687Y27327483D01*
X54140050Y27260680D01*
X54107279Y27181564D01*
X53866412Y27422431D01*
X53842080Y27452080D01*
X53723766Y27549177D01*
X53588784Y27621327D01*
X53442319Y27665757D01*
X53328166Y27677000D01*
X53328163Y27677000D01*
X53290000Y27680759D01*
X53251837Y27677000D01*
X50989776Y27677000D01*
X50997000Y27713321D01*
X50997000Y27846679D01*
X50970984Y27977474D01*
X50919950Y28100680D01*
X50845860Y28211563D01*
X50751563Y28305860D01*
X50640680Y28379950D01*
X50517474Y28430984D01*
X50386679Y28457000D01*
X50253321Y28457000D01*
X50122526Y28430984D01*
X49999320Y28379950D01*
X49888437Y28305860D01*
X49794140Y28211563D01*
X49720050Y28100680D01*
X49669016Y27977474D01*
X49651989Y27891871D01*
X49630984Y27997474D01*
X49579950Y28120680D01*
X49505860Y28231563D01*
X49411563Y28325860D01*
X49300680Y28399950D01*
X49177474Y28450984D01*
X49046679Y28477000D01*
X48913321Y28477000D01*
X48782526Y28450984D01*
X48659320Y28399950D01*
X48548437Y28325860D01*
X48454140Y28231563D01*
X48380050Y28120680D01*
X48329016Y27997474D01*
X48303000Y27866679D01*
X48303000Y27733321D01*
X48314203Y27677000D01*
X41147000Y27677000D01*
X41147000Y27796679D01*
X41120984Y27927474D01*
X41069950Y28050680D01*
X40995860Y28161563D01*
X40901563Y28255860D01*
X40790680Y28329950D01*
X40667474Y28380984D01*
X40536679Y28407000D01*
X40403321Y28407000D01*
X40272526Y28380984D01*
X40149320Y28329950D01*
X40038437Y28255860D01*
X39944140Y28161563D01*
X39870050Y28050680D01*
X39819016Y27927474D01*
X39793000Y27796679D01*
X39793000Y27677000D01*
X39695797Y27677000D01*
X39707000Y27733321D01*
X39707000Y27866679D01*
X39680984Y27997474D01*
X39629950Y28120680D01*
X39555860Y28231563D01*
X39461563Y28325860D01*
X39350680Y28399950D01*
X39227474Y28450984D01*
X39096679Y28477000D01*
X38963321Y28477000D01*
X38832526Y28450984D01*
X38709320Y28399950D01*
X38598437Y28325860D01*
X38504140Y28231563D01*
X38430050Y28120680D01*
X38379016Y27997474D01*
X38353000Y27866679D01*
X38353000Y27733321D01*
X38364203Y27677000D01*
X31207000Y27677000D01*
X31207000Y27786679D01*
X31180984Y27917474D01*
X31129950Y28040680D01*
X31055860Y28151563D01*
X30961563Y28245860D01*
X30850680Y28319950D01*
X30727474Y28370984D01*
X30596679Y28397000D01*
X30463321Y28397000D01*
X30332526Y28370984D01*
X30209320Y28319950D01*
X30098437Y28245860D01*
X30004140Y28151563D01*
X29930050Y28040680D01*
X29879016Y27917474D01*
X29857000Y27806789D01*
X29857000Y27856679D01*
X29830984Y27987474D01*
X29779950Y28110680D01*
X29705860Y28221563D01*
X29611563Y28315860D01*
X29500680Y28389950D01*
X29377474Y28440984D01*
X29246679Y28467000D01*
X29113321Y28467000D01*
X28982526Y28440984D01*
X28859320Y28389950D01*
X28748437Y28315860D01*
X28654140Y28221563D01*
X28580050Y28110680D01*
X28529016Y27987474D01*
X28503000Y27856679D01*
X28503000Y27723321D01*
X28512214Y27677000D01*
X20837000Y27677000D01*
X20837000Y27726679D01*
X20810984Y27857474D01*
X20759950Y27980680D01*
X20685860Y28091563D01*
X20591563Y28185860D01*
X20480680Y28259950D01*
X20357474Y28310984D01*
X20226679Y28337000D01*
X20093321Y28337000D01*
X19962526Y28310984D01*
X19839320Y28259950D01*
X19728437Y28185860D01*
X19634140Y28091563D01*
X19560050Y27980680D01*
X19541289Y27935388D01*
X19520984Y28037474D01*
X19469950Y28160680D01*
X19395860Y28271563D01*
X19301563Y28365860D01*
X19190680Y28439950D01*
X19067474Y28490984D01*
X18936679Y28517000D01*
X18803321Y28517000D01*
X18672526Y28490984D01*
X18549320Y28439950D01*
X18438437Y28365860D01*
X18344140Y28271563D01*
X18270050Y28160680D01*
X18219016Y28037474D01*
X18193000Y27906679D01*
X18193000Y27773321D01*
X18212159Y27677000D01*
X13688155Y27677000D01*
X13649999Y27680758D01*
X13611843Y27677000D01*
X13611834Y27677000D01*
X13497681Y27665757D01*
X13351216Y27621327D01*
X13216233Y27549177D01*
X13169695Y27510984D01*
X13097920Y27452080D01*
X13073592Y27422436D01*
X12527565Y26876408D01*
X12497921Y26852080D01*
X12473593Y26822436D01*
X12473591Y26822434D01*
X12400823Y26733766D01*
X12328673Y26598783D01*
X12302884Y26513766D01*
X12289134Y26468437D01*
X12284244Y26452318D01*
X12269241Y26300000D01*
X12273001Y26261827D01*
X12273000Y11249569D01*
X12149449Y11350335D01*
X12115342Y11372996D01*
X12081525Y11396150D01*
X12075974Y11399152D01*
X11869074Y11509163D01*
X11831164Y11524789D01*
X11793544Y11540913D01*
X11787525Y11542776D01*
X11787515Y11542780D01*
X11787505Y11542782D01*
X11563189Y11610508D01*
X11522994Y11618467D01*
X11482928Y11626983D01*
X11476657Y11627642D01*
X11476654Y11627643D01*
X11476651Y11627643D01*
X11243440Y11650509D01*
X11054337Y11669050D01*
X10914867Y11711159D01*
X10786228Y11779558D01*
X10673326Y11871639D01*
X10580460Y11983893D01*
X10511164Y12112054D01*
X10468082Y12251228D01*
X10450668Y12416912D01*
X10451264Y28906679D01*
X13503002Y28906679D01*
X13503002Y28773321D01*
X13529018Y28642526D01*
X13580052Y28519320D01*
X13654142Y28408437D01*
X13748439Y28314140D01*
X13859322Y28240050D01*
X13982528Y28189016D01*
X14113323Y28163000D01*
X14246681Y28163000D01*
X14377476Y28189016D01*
X14500682Y28240050D01*
X14611565Y28314140D01*
X14705862Y28408437D01*
X14779952Y28519320D01*
X14830986Y28642526D01*
X14857002Y28773321D01*
X14857002Y28876679D01*
X22863000Y28876679D01*
X22863000Y28743321D01*
X22889016Y28612526D01*
X22940050Y28489320D01*
X23014140Y28378437D01*
X23108437Y28284140D01*
X23219320Y28210050D01*
X23342526Y28159016D01*
X23473321Y28133000D01*
X23606679Y28133000D01*
X23737474Y28159016D01*
X23860680Y28210050D01*
X23971563Y28284140D01*
X24065860Y28378437D01*
X24139950Y28489320D01*
X24190984Y28612526D01*
X24217000Y28743321D01*
X24217000Y28876679D01*
X24205066Y28936679D01*
X33703000Y28936679D01*
X33703000Y28803321D01*
X33729016Y28672526D01*
X33780050Y28549320D01*
X33854140Y28438437D01*
X33948437Y28344140D01*
X34059320Y28270050D01*
X34182526Y28219016D01*
X34313321Y28193000D01*
X34446679Y28193000D01*
X34577474Y28219016D01*
X34700680Y28270050D01*
X34811563Y28344140D01*
X34905860Y28438437D01*
X34979950Y28549320D01*
X35030984Y28672526D01*
X35057000Y28803321D01*
X35057000Y28896679D01*
X43733000Y28896679D01*
X43733000Y28763321D01*
X43759016Y28632526D01*
X43810050Y28509320D01*
X43884140Y28398437D01*
X43978437Y28304140D01*
X44089320Y28230050D01*
X44212526Y28179016D01*
X44343321Y28153000D01*
X44476679Y28153000D01*
X44607474Y28179016D01*
X44730680Y28230050D01*
X44841563Y28304140D01*
X44935860Y28398437D01*
X45009950Y28509320D01*
X45060984Y28632526D01*
X45087000Y28763321D01*
X45087000Y28896679D01*
X45060984Y29027474D01*
X45009950Y29150680D01*
X44935860Y29261563D01*
X44841563Y29355860D01*
X44730680Y29429950D01*
X44607474Y29480984D01*
X44476679Y29507000D01*
X44343321Y29507000D01*
X44212526Y29480984D01*
X44089320Y29429950D01*
X43978437Y29355860D01*
X43884140Y29261563D01*
X43810050Y29150680D01*
X43759016Y29027474D01*
X43733000Y28896679D01*
X35057000Y28896679D01*
X35057000Y28936679D01*
X35030984Y29067474D01*
X34979950Y29190680D01*
X34905860Y29301563D01*
X34811563Y29395860D01*
X34700680Y29469950D01*
X34577474Y29520984D01*
X34446679Y29547000D01*
X34313321Y29547000D01*
X34182526Y29520984D01*
X34059320Y29469950D01*
X33948437Y29395860D01*
X33854140Y29301563D01*
X33780050Y29190680D01*
X33729016Y29067474D01*
X33703000Y28936679D01*
X24205066Y28936679D01*
X24190984Y29007474D01*
X24139950Y29130680D01*
X24065860Y29241563D01*
X23971563Y29335860D01*
X23860680Y29409950D01*
X23737474Y29460984D01*
X23606679Y29487000D01*
X23473321Y29487000D01*
X23342526Y29460984D01*
X23219320Y29409950D01*
X23108437Y29335860D01*
X23014140Y29241563D01*
X22940050Y29130680D01*
X22889016Y29007474D01*
X22863000Y28876679D01*
X14857002Y28876679D01*
X14857002Y28906679D01*
X14830986Y29037474D01*
X14779952Y29160680D01*
X14705862Y29271563D01*
X14611565Y29365860D01*
X14500682Y29439950D01*
X14377476Y29490984D01*
X14246681Y29517000D01*
X14113323Y29517000D01*
X13982528Y29490984D01*
X13859322Y29439950D01*
X13748439Y29365860D01*
X13654142Y29271563D01*
X13580052Y29160680D01*
X13529018Y29037474D01*
X13503002Y28906679D01*
X10451264Y28906679D01*
X10451353Y31366679D01*
X55923000Y31366679D01*
X55923000Y31233321D01*
X55949016Y31102526D01*
X56000050Y30979320D01*
X56074140Y30868437D01*
X56168437Y30774140D01*
X56279320Y30700050D01*
X56402526Y30649016D01*
X56533321Y30623000D01*
X56666679Y30623000D01*
X56797474Y30649016D01*
X56920680Y30700050D01*
X57031563Y30774140D01*
X57080000Y30822577D01*
X57128437Y30774140D01*
X57239320Y30700050D01*
X57362526Y30649016D01*
X57493321Y30623000D01*
X57626679Y30623000D01*
X57757474Y30649016D01*
X57880680Y30700050D01*
X57991563Y30774140D01*
X58085860Y30868437D01*
X58159950Y30979320D01*
X58210984Y31102526D01*
X58237000Y31233321D01*
X58237000Y31366679D01*
X58210984Y31497474D01*
X58159950Y31620680D01*
X58085860Y31731563D01*
X57991563Y31825860D01*
X57880680Y31899950D01*
X57757474Y31950984D01*
X57626679Y31977000D01*
X57493321Y31977000D01*
X57362526Y31950984D01*
X57239320Y31899950D01*
X57128437Y31825860D01*
X57080000Y31777423D01*
X57031563Y31825860D01*
X56920680Y31899950D01*
X56797474Y31950984D01*
X56666679Y31977000D01*
X56533321Y31977000D01*
X56402526Y31950984D01*
X56279320Y31899950D01*
X56168437Y31825860D01*
X56074140Y31731563D01*
X56000050Y31620680D01*
X55949016Y31497474D01*
X55923000Y31366679D01*
X10451353Y31366679D01*
X10451374Y31917874D01*
X10482996Y32240374D01*
X10570230Y32529309D01*
X10711924Y32795796D01*
X10902679Y33029685D01*
X11135233Y33222070D01*
X11400725Y33365622D01*
X11689042Y33454871D01*
X12010187Y33488624D01*
X63977891Y33488624D01*
X64300374Y33457004D01*
G37*
G04 #@! TD.AperFunction*
G04 #@! TD*
M02*
