%FSLAX45Y45*%
G04 Gerber Fmt 4.5, Leading zero omitted, Abs format (unit mm)*
G04 Created by KiCad (PCBNEW (6.0.4)) date 2022-07-14 17:56:22*
%MOMM*%
%LPD*%
G01*
G04 APERTURE LIST*
%TA.AperFunction,Profile*%
%ADD10C,0.200000*%
%TD*%
%ADD11C,0.200000*%
%ADD12C,0.020000*%
G04 APERTURE END LIST*
D10*
X19683711Y-11629623D02*
G75*
G03*
X19683711Y-11629623I-500000J0D01*
G01*
X21183711Y-11629623D02*
G75*
G03*
X21183711Y-11629623I-2000000J0D01*
G01*
D11*
D12*
X17382243Y-11616071D02*
X17402243Y-11636071D01*
X17402243Y-11616071D02*
X17382243Y-11636071D01*
X17385795Y-11503048D02*
X17405795Y-11523048D01*
X17405795Y-11503048D02*
X17385795Y-11523048D01*
X17385795Y-11729094D02*
X17405795Y-11749094D01*
X17405795Y-11729094D02*
X17385795Y-11749094D01*
X17396437Y-11390471D02*
X17416437Y-11410471D01*
X17416437Y-11390471D02*
X17396437Y-11410471D01*
X17396437Y-11841671D02*
X17416437Y-11861671D01*
X17416437Y-11841671D02*
X17396437Y-11861671D01*
X17414126Y-11278785D02*
X17434126Y-11298785D01*
X17434126Y-11278785D02*
X17414126Y-11298785D01*
X17414126Y-11953357D02*
X17434126Y-11973357D01*
X17434126Y-11953357D02*
X17414126Y-11973357D01*
X17438794Y-11168429D02*
X17458794Y-11188429D01*
X17458794Y-11168429D02*
X17438794Y-11188429D01*
X17438794Y-12063713D02*
X17458794Y-12083713D01*
X17458794Y-12063713D02*
X17438794Y-12083713D01*
X17470342Y-11059841D02*
X17490342Y-11079841D01*
X17490342Y-11059841D02*
X17470342Y-11079841D01*
X17470342Y-12172302D02*
X17490342Y-12192302D01*
X17490342Y-12172302D02*
X17470342Y-12192302D01*
X17508646Y-10953447D02*
X17528646Y-10973447D01*
X17528646Y-10953447D02*
X17508646Y-10973447D01*
X17508646Y-12278695D02*
X17528646Y-12298695D01*
X17528646Y-12278695D02*
X17508646Y-12298695D01*
X17553555Y-10849668D02*
X17573555Y-10869668D01*
X17573555Y-10849668D02*
X17553555Y-10869668D01*
X17553555Y-12382474D02*
X17573555Y-12402474D01*
X17573555Y-12382474D02*
X17553555Y-12402474D01*
X17604891Y-10748915D02*
X17624891Y-10768915D01*
X17624891Y-10748915D02*
X17604891Y-10768915D01*
X17604891Y-12483228D02*
X17624891Y-12503228D01*
X17624891Y-12483228D02*
X17604891Y-12503228D01*
X17662453Y-10651583D02*
X17682453Y-10671583D01*
X17682453Y-10651583D02*
X17662453Y-10671583D01*
X17662453Y-12580559D02*
X17682453Y-12600559D01*
X17682453Y-12580559D02*
X17662453Y-12600559D01*
X17726013Y-10558058D02*
X17746013Y-10578058D01*
X17746013Y-10558058D02*
X17726013Y-10578058D01*
X17795320Y-10468708D02*
X17815320Y-10488708D01*
X17815320Y-10468708D02*
X17795320Y-10488708D01*
X17870100Y-10383886D02*
X17890100Y-10403886D01*
X17890100Y-10383886D02*
X17870100Y-10403886D01*
X17950059Y-10303928D02*
X17970059Y-10323928D01*
X17970059Y-10303928D02*
X17950059Y-10323928D01*
X18034880Y-10229147D02*
X18054880Y-10249147D01*
X18054880Y-10229147D02*
X18034880Y-10249147D01*
X18034880Y-13002995D02*
X18054880Y-13022995D01*
X18054880Y-13002995D02*
X18034880Y-13022995D01*
X18124230Y-10159841D02*
X18144230Y-10179841D01*
X18144230Y-10159841D02*
X18124230Y-10179841D01*
X18124230Y-13072302D02*
X18144230Y-13092302D01*
X18144230Y-13072302D02*
X18124230Y-13092302D01*
X18217755Y-10096281D02*
X18237755Y-10116281D01*
X18237755Y-10096281D02*
X18217755Y-10116281D01*
X18217755Y-13135861D02*
X18237755Y-13155861D01*
X18237755Y-13135861D02*
X18217755Y-13155861D01*
X18315087Y-10038719D02*
X18335087Y-10058719D01*
X18335087Y-10038719D02*
X18315087Y-10058719D01*
X18315087Y-13193423D02*
X18335087Y-13213423D01*
X18335087Y-13193423D02*
X18315087Y-13213423D01*
X18415841Y-9987382D02*
X18435841Y-10007382D01*
X18435841Y-9987382D02*
X18415841Y-10007382D01*
X18415841Y-13244760D02*
X18435841Y-13264760D01*
X18435841Y-13244760D02*
X18415841Y-13264760D01*
X18519619Y-13289669D02*
X18539619Y-13309669D01*
X18539619Y-13289669D02*
X18519619Y-13309669D01*
X18606220Y-10055123D02*
X18626220Y-10075123D01*
X18626220Y-10055123D02*
X18606220Y-10075123D01*
X18626013Y-13327973D02*
X18646013Y-13347973D01*
X18646013Y-13327973D02*
X18626013Y-13347973D01*
X18734602Y-13359521D02*
X18754602Y-13379521D01*
X18754602Y-13359521D02*
X18734602Y-13379521D01*
X18844957Y-13384188D02*
X18864957Y-13404188D01*
X18864957Y-13384188D02*
X18844957Y-13404188D01*
X18956644Y-13401878D02*
X18976644Y-13421878D01*
X18976644Y-13401878D02*
X18956644Y-13421878D01*
X18969220Y-9719623D02*
X18989220Y-9739623D01*
X18989220Y-9719623D02*
X18969220Y-9739623D01*
X19023711Y-9979623D02*
X19043711Y-9999623D01*
X19043711Y-9979623D02*
X19023711Y-9999623D01*
X19069220Y-9719623D02*
X19089220Y-9739623D01*
X19089220Y-9719623D02*
X19069220Y-9739623D01*
X19069220Y-13412519D02*
X19089220Y-13432519D01*
X19089220Y-13412519D02*
X19069220Y-13432519D01*
X19169220Y-9719623D02*
X19189220Y-9739623D01*
X19189220Y-9719623D02*
X19169220Y-9739623D01*
X19182243Y-13416071D02*
X19202243Y-13436071D01*
X19202243Y-13416071D02*
X19182243Y-13436071D01*
X19269220Y-9719623D02*
X19289220Y-9739623D01*
X19289220Y-9719623D02*
X19269220Y-9739623D01*
X19295266Y-13412519D02*
X19315266Y-13432519D01*
X19315266Y-13412519D02*
X19295266Y-13432519D01*
X19348711Y-9979623D02*
X19368711Y-9999623D01*
X19368711Y-9979623D02*
X19348711Y-9999623D01*
X19369220Y-9719623D02*
X19389220Y-9739623D01*
X19389220Y-9719623D02*
X19369220Y-9739623D01*
X19407843Y-13401878D02*
X19427843Y-13421878D01*
X19427843Y-13401878D02*
X19407843Y-13421878D01*
X19519530Y-13384188D02*
X19539530Y-13404188D01*
X19539530Y-13384188D02*
X19519530Y-13404188D01*
X19629885Y-13359521D02*
X19649885Y-13379521D01*
X19649885Y-13359521D02*
X19629885Y-13379521D01*
X19640220Y-10055123D02*
X19660220Y-10075123D01*
X19660220Y-10055123D02*
X19640220Y-10075123D01*
X19738474Y-13327973D02*
X19758474Y-13347973D01*
X19758474Y-13327973D02*
X19738474Y-13347973D01*
X19844868Y-9942473D02*
X19864868Y-9962473D01*
X19864868Y-9942473D02*
X19844868Y-9962473D01*
X19844868Y-13289669D02*
X19864868Y-13309669D01*
X19864868Y-13289669D02*
X19844868Y-13309669D01*
X19948646Y-9987382D02*
X19968646Y-10007382D01*
X19968646Y-9987382D02*
X19948646Y-10007382D01*
X19948646Y-13244760D02*
X19968646Y-13264760D01*
X19968646Y-13244760D02*
X19948646Y-13264760D01*
X20049400Y-10038719D02*
X20069400Y-10058719D01*
X20069400Y-10038719D02*
X20049400Y-10058719D01*
X20049400Y-13193423D02*
X20069400Y-13213423D01*
X20069400Y-13193423D02*
X20049400Y-13213423D01*
X20146732Y-10096281D02*
X20166732Y-10116281D01*
X20166732Y-10096281D02*
X20146732Y-10116281D01*
X20146732Y-13135861D02*
X20166732Y-13155861D01*
X20166732Y-13135861D02*
X20146732Y-13155861D01*
X20240257Y-10159841D02*
X20260257Y-10179841D01*
X20260257Y-10159841D02*
X20240257Y-10179841D01*
X20240257Y-13072302D02*
X20260257Y-13092302D01*
X20260257Y-13072302D02*
X20240257Y-13092302D01*
X20329607Y-10229147D02*
X20349607Y-10249147D01*
X20349607Y-10229147D02*
X20329607Y-10249147D01*
X20329607Y-13002995D02*
X20349607Y-13022995D01*
X20349607Y-13002995D02*
X20329607Y-13022995D01*
X20414428Y-10303928D02*
X20434428Y-10323928D01*
X20434428Y-10303928D02*
X20414428Y-10323928D01*
X20414428Y-12928215D02*
X20434428Y-12948215D01*
X20434428Y-12928215D02*
X20414428Y-12948215D01*
X20494387Y-10383886D02*
X20514387Y-10403886D01*
X20514387Y-10383886D02*
X20494387Y-10403886D01*
X20494387Y-12848256D02*
X20514387Y-12868256D01*
X20514387Y-12848256D02*
X20494387Y-12868256D01*
X20569167Y-10468708D02*
X20589167Y-10488708D01*
X20589167Y-10468708D02*
X20569167Y-10488708D01*
X20569167Y-12763434D02*
X20589167Y-12783434D01*
X20589167Y-12763434D02*
X20569167Y-12783434D01*
X20638474Y-10558058D02*
X20658474Y-10578058D01*
X20658474Y-10558058D02*
X20638474Y-10578058D01*
X20638474Y-12674085D02*
X20658474Y-12694085D01*
X20658474Y-12674085D02*
X20638474Y-12694085D01*
X20702034Y-10651583D02*
X20722034Y-10671583D01*
X20722034Y-10651583D02*
X20702034Y-10671583D01*
X20702034Y-12580559D02*
X20722034Y-12600559D01*
X20722034Y-12580559D02*
X20702034Y-12600559D01*
X20759595Y-10748915D02*
X20779595Y-10768915D01*
X20779595Y-10748915D02*
X20759595Y-10768915D01*
X20759595Y-12483228D02*
X20779595Y-12503228D01*
X20779595Y-12483228D02*
X20759595Y-12503228D01*
X20810932Y-10849668D02*
X20830932Y-10869668D01*
X20830932Y-10849668D02*
X20810932Y-10869668D01*
X20810932Y-12382474D02*
X20830932Y-12402474D01*
X20830932Y-12382474D02*
X20810932Y-12402474D01*
X20855841Y-10953447D02*
X20875841Y-10973447D01*
X20875841Y-10953447D02*
X20855841Y-10973447D01*
X20855841Y-12278695D02*
X20875841Y-12298695D01*
X20875841Y-12278695D02*
X20855841Y-12298695D01*
X20894145Y-11059841D02*
X20914145Y-11079841D01*
X20914145Y-11059841D02*
X20894145Y-11079841D01*
X20894145Y-12172302D02*
X20914145Y-12192302D01*
X20914145Y-12172302D02*
X20894145Y-12192302D01*
X20925693Y-11168429D02*
X20945693Y-11188429D01*
X20945693Y-11168429D02*
X20925693Y-11188429D01*
X20925693Y-12063713D02*
X20945693Y-12083713D01*
X20945693Y-12063713D02*
X20925693Y-12083713D01*
X20950360Y-11278785D02*
X20970360Y-11298785D01*
X20970360Y-11278785D02*
X20950360Y-11298785D01*
X20950360Y-11953357D02*
X20970360Y-11973357D01*
X20970360Y-11953357D02*
X20950360Y-11973357D01*
X20968050Y-11390471D02*
X20988050Y-11410471D01*
X20988050Y-11390471D02*
X20968050Y-11410471D01*
X20968050Y-11841671D02*
X20988050Y-11861671D01*
X20988050Y-11841671D02*
X20968050Y-11861671D01*
X20978691Y-11503048D02*
X20998691Y-11523048D01*
X20998691Y-11503048D02*
X20978691Y-11523048D01*
X20978691Y-11729094D02*
X20998691Y-11749094D01*
X20998691Y-11729094D02*
X20978691Y-11749094D01*
X20982243Y-11616071D02*
X21002243Y-11636071D01*
X21002243Y-11616071D02*
X20982243Y-11636071D01*
D11*
X17431330Y-13950099D02*
X17431330Y-13750099D01*
X17478949Y-13750099D01*
X17507521Y-13759623D01*
X17526568Y-13778671D01*
X17536092Y-13797718D01*
X17545616Y-13835813D01*
X17545616Y-13864385D01*
X17536092Y-13902480D01*
X17526568Y-13921528D01*
X17507521Y-13940575D01*
X17478949Y-13950099D01*
X17431330Y-13950099D01*
X17631330Y-13950099D02*
X17631330Y-13816766D01*
X17631330Y-13854861D02*
X17640854Y-13835813D01*
X17650378Y-13826290D01*
X17669425Y-13816766D01*
X17688473Y-13816766D01*
X17755140Y-13950099D02*
X17755140Y-13816766D01*
X17755140Y-13750099D02*
X17745616Y-13759623D01*
X17755140Y-13769147D01*
X17764663Y-13759623D01*
X17755140Y-13750099D01*
X17755140Y-13769147D01*
X17878949Y-13950099D02*
X17859901Y-13940575D01*
X17850378Y-13921528D01*
X17850378Y-13750099D01*
X17983711Y-13950099D02*
X17964663Y-13940575D01*
X17955140Y-13921528D01*
X17955140Y-13750099D01*
X18212282Y-13950099D02*
X18212282Y-13750099D01*
X18278949Y-13892956D01*
X18345616Y-13750099D01*
X18345616Y-13950099D01*
X18526568Y-13950099D02*
X18526568Y-13845337D01*
X18517044Y-13826290D01*
X18497997Y-13816766D01*
X18459901Y-13816766D01*
X18440854Y-13826290D01*
X18526568Y-13940575D02*
X18507521Y-13950099D01*
X18459901Y-13950099D01*
X18440854Y-13940575D01*
X18431330Y-13921528D01*
X18431330Y-13902480D01*
X18440854Y-13883432D01*
X18459901Y-13873909D01*
X18507521Y-13873909D01*
X18526568Y-13864385D01*
X18621806Y-13816766D02*
X18621806Y-14016766D01*
X18621806Y-13826290D02*
X18640854Y-13816766D01*
X18678949Y-13816766D01*
X18697997Y-13826290D01*
X18707521Y-13835813D01*
X18717044Y-13854861D01*
X18717044Y-13912004D01*
X18707521Y-13931051D01*
X18697997Y-13940575D01*
X18678949Y-13950099D01*
X18640854Y-13950099D01*
X18621806Y-13940575D01*
X18802759Y-13931051D02*
X18812282Y-13940575D01*
X18802759Y-13950099D01*
X18793235Y-13940575D01*
X18802759Y-13931051D01*
X18802759Y-13950099D01*
X18802759Y-13826290D02*
X18812282Y-13835813D01*
X18802759Y-13845337D01*
X18793235Y-13835813D01*
X18802759Y-13826290D01*
X18802759Y-13845337D01*
D12*
X17153711Y-14269623D02*
X17173711Y-14289623D01*
X17173711Y-14269623D02*
X17153711Y-14289623D01*
D11*
X17469425Y-14170099D02*
X17488473Y-14170099D01*
X17507521Y-14179623D01*
X17517044Y-14189147D01*
X17526568Y-14208194D01*
X17536092Y-14246290D01*
X17536092Y-14293909D01*
X17526568Y-14332004D01*
X17517044Y-14351051D01*
X17507521Y-14360575D01*
X17488473Y-14370099D01*
X17469425Y-14370099D01*
X17450378Y-14360575D01*
X17440854Y-14351051D01*
X17431330Y-14332004D01*
X17421806Y-14293909D01*
X17421806Y-14246290D01*
X17431330Y-14208194D01*
X17440854Y-14189147D01*
X17450378Y-14179623D01*
X17469425Y-14170099D01*
X17621806Y-14351051D02*
X17631330Y-14360575D01*
X17621806Y-14370099D01*
X17612282Y-14360575D01*
X17621806Y-14351051D01*
X17621806Y-14370099D01*
X17707521Y-14189147D02*
X17717044Y-14179623D01*
X17736092Y-14170099D01*
X17783711Y-14170099D01*
X17802759Y-14179623D01*
X17812282Y-14189147D01*
X17821806Y-14208194D01*
X17821806Y-14227242D01*
X17812282Y-14255813D01*
X17697997Y-14370099D01*
X17821806Y-14370099D01*
X17945616Y-14170099D02*
X17964663Y-14170099D01*
X17983711Y-14179623D01*
X17993235Y-14189147D01*
X18002759Y-14208194D01*
X18012282Y-14246290D01*
X18012282Y-14293909D01*
X18002759Y-14332004D01*
X17993235Y-14351051D01*
X17983711Y-14360575D01*
X17964663Y-14370099D01*
X17945616Y-14370099D01*
X17926568Y-14360575D01*
X17917044Y-14351051D01*
X17907521Y-14332004D01*
X17897997Y-14293909D01*
X17897997Y-14246290D01*
X17907521Y-14208194D01*
X17917044Y-14189147D01*
X17926568Y-14179623D01*
X17945616Y-14170099D01*
X18136092Y-14170099D02*
X18155140Y-14170099D01*
X18174187Y-14179623D01*
X18183711Y-14189147D01*
X18193235Y-14208194D01*
X18202759Y-14246290D01*
X18202759Y-14293909D01*
X18193235Y-14332004D01*
X18183711Y-14351051D01*
X18174187Y-14360575D01*
X18155140Y-14370099D01*
X18136092Y-14370099D01*
X18117044Y-14360575D01*
X18107521Y-14351051D01*
X18097997Y-14332004D01*
X18088473Y-14293909D01*
X18088473Y-14246290D01*
X18097997Y-14208194D01*
X18107521Y-14189147D01*
X18117044Y-14179623D01*
X18136092Y-14170099D01*
X18288473Y-14370099D02*
X18288473Y-14236766D01*
X18288473Y-14255813D02*
X18297997Y-14246290D01*
X18317044Y-14236766D01*
X18345616Y-14236766D01*
X18364663Y-14246290D01*
X18374187Y-14265337D01*
X18374187Y-14370099D01*
X18374187Y-14265337D02*
X18383711Y-14246290D01*
X18402759Y-14236766D01*
X18431330Y-14236766D01*
X18450378Y-14246290D01*
X18459901Y-14265337D01*
X18459901Y-14370099D01*
X18555140Y-14370099D02*
X18555140Y-14236766D01*
X18555140Y-14255813D02*
X18564663Y-14246290D01*
X18583711Y-14236766D01*
X18612282Y-14236766D01*
X18631330Y-14246290D01*
X18640854Y-14265337D01*
X18640854Y-14370099D01*
X18640854Y-14265337D02*
X18650378Y-14246290D01*
X18669425Y-14236766D01*
X18697997Y-14236766D01*
X18717044Y-14246290D01*
X18726568Y-14265337D01*
X18726568Y-14370099D01*
X19117044Y-14160575D02*
X18945616Y-14417718D01*
X19374187Y-14170099D02*
X19393235Y-14170099D01*
X19412282Y-14179623D01*
X19421806Y-14189147D01*
X19431330Y-14208194D01*
X19440854Y-14246290D01*
X19440854Y-14293909D01*
X19431330Y-14332004D01*
X19421806Y-14351051D01*
X19412282Y-14360575D01*
X19393235Y-14370099D01*
X19374187Y-14370099D01*
X19355140Y-14360575D01*
X19345616Y-14351051D01*
X19336092Y-14332004D01*
X19326568Y-14293909D01*
X19326568Y-14246290D01*
X19336092Y-14208194D01*
X19345616Y-14189147D01*
X19355140Y-14179623D01*
X19374187Y-14170099D01*
X19526568Y-14351051D02*
X19536092Y-14360575D01*
X19526568Y-14370099D01*
X19517044Y-14360575D01*
X19526568Y-14351051D01*
X19526568Y-14370099D01*
X19659901Y-14170099D02*
X19678949Y-14170099D01*
X19697997Y-14179623D01*
X19707521Y-14189147D01*
X19717044Y-14208194D01*
X19726568Y-14246290D01*
X19726568Y-14293909D01*
X19717044Y-14332004D01*
X19707521Y-14351051D01*
X19697997Y-14360575D01*
X19678949Y-14370099D01*
X19659901Y-14370099D01*
X19640854Y-14360575D01*
X19631330Y-14351051D01*
X19621806Y-14332004D01*
X19612282Y-14293909D01*
X19612282Y-14246290D01*
X19621806Y-14208194D01*
X19631330Y-14189147D01*
X19640854Y-14179623D01*
X19659901Y-14170099D01*
X19850378Y-14170099D02*
X19869425Y-14170099D01*
X19888473Y-14179623D01*
X19897997Y-14189147D01*
X19907521Y-14208194D01*
X19917044Y-14246290D01*
X19917044Y-14293909D01*
X19907521Y-14332004D01*
X19897997Y-14351051D01*
X19888473Y-14360575D01*
X19869425Y-14370099D01*
X19850378Y-14370099D01*
X19831330Y-14360575D01*
X19821806Y-14351051D01*
X19812282Y-14332004D01*
X19802759Y-14293909D01*
X19802759Y-14246290D01*
X19812282Y-14208194D01*
X19821806Y-14189147D01*
X19831330Y-14179623D01*
X19850378Y-14170099D01*
X19983711Y-14170099D02*
X20117044Y-14170099D01*
X20031330Y-14370099D01*
X20202759Y-14370099D02*
X20240854Y-14370099D01*
X20259901Y-14360575D01*
X20269425Y-14351051D01*
X20288473Y-14322480D01*
X20297997Y-14284385D01*
X20297997Y-14208194D01*
X20288473Y-14189147D01*
X20278949Y-14179623D01*
X20259901Y-14170099D01*
X20221806Y-14170099D01*
X20202759Y-14179623D01*
X20193235Y-14189147D01*
X20183711Y-14208194D01*
X20183711Y-14255813D01*
X20193235Y-14274861D01*
X20202759Y-14284385D01*
X20221806Y-14293909D01*
X20259901Y-14293909D01*
X20278949Y-14284385D01*
X20288473Y-14274861D01*
X20297997Y-14255813D01*
X20374187Y-14170099D02*
X20374187Y-14208194D01*
X20450378Y-14170099D02*
X20450378Y-14208194D01*
X20745616Y-14446290D02*
X20736092Y-14436766D01*
X20717044Y-14408194D01*
X20707521Y-14389147D01*
X20697997Y-14360575D01*
X20688473Y-14312956D01*
X20688473Y-14274861D01*
X20697997Y-14227242D01*
X20707521Y-14198671D01*
X20717044Y-14179623D01*
X20736092Y-14151051D01*
X20745616Y-14141528D01*
X20831330Y-14370099D02*
X20869425Y-14370099D01*
X20888473Y-14360575D01*
X20897997Y-14351051D01*
X20917044Y-14322480D01*
X20926568Y-14284385D01*
X20926568Y-14208194D01*
X20917044Y-14189147D01*
X20907521Y-14179623D01*
X20888473Y-14170099D01*
X20850378Y-14170099D01*
X20831330Y-14179623D01*
X20821806Y-14189147D01*
X20812282Y-14208194D01*
X20812282Y-14255813D01*
X20821806Y-14274861D01*
X20831330Y-14284385D01*
X20850378Y-14293909D01*
X20888473Y-14293909D01*
X20907521Y-14284385D01*
X20917044Y-14274861D01*
X20926568Y-14255813D01*
X20993235Y-14170099D02*
X21117044Y-14170099D01*
X21050378Y-14246290D01*
X21078949Y-14246290D01*
X21097997Y-14255813D01*
X21107521Y-14265337D01*
X21117044Y-14284385D01*
X21117044Y-14332004D01*
X21107521Y-14351051D01*
X21097997Y-14360575D01*
X21078949Y-14370099D01*
X21021806Y-14370099D01*
X21002759Y-14360575D01*
X20993235Y-14351051D01*
X21355140Y-14370099D02*
X21355140Y-14170099D01*
X21440854Y-14370099D02*
X21440854Y-14265337D01*
X21431330Y-14246290D01*
X21412282Y-14236766D01*
X21383711Y-14236766D01*
X21364663Y-14246290D01*
X21355140Y-14255813D01*
X21564663Y-14370099D02*
X21545616Y-14360575D01*
X21536092Y-14351051D01*
X21526568Y-14332004D01*
X21526568Y-14274861D01*
X21536092Y-14255813D01*
X21545616Y-14246290D01*
X21564663Y-14236766D01*
X21593235Y-14236766D01*
X21612282Y-14246290D01*
X21621806Y-14255813D01*
X21631330Y-14274861D01*
X21631330Y-14332004D01*
X21621806Y-14351051D01*
X21612282Y-14360575D01*
X21593235Y-14370099D01*
X21564663Y-14370099D01*
X21745616Y-14370099D02*
X21726568Y-14360575D01*
X21717044Y-14341528D01*
X21717044Y-14170099D01*
X21897997Y-14360575D02*
X21878949Y-14370099D01*
X21840854Y-14370099D01*
X21821806Y-14360575D01*
X21812282Y-14341528D01*
X21812282Y-14265337D01*
X21821806Y-14246290D01*
X21840854Y-14236766D01*
X21878949Y-14236766D01*
X21897997Y-14246290D01*
X21907521Y-14265337D01*
X21907521Y-14284385D01*
X21812282Y-14303432D01*
X21983711Y-14360575D02*
X22002759Y-14370099D01*
X22040854Y-14370099D01*
X22059901Y-14360575D01*
X22069425Y-14341528D01*
X22069425Y-14332004D01*
X22059901Y-14312956D01*
X22040854Y-14303432D01*
X22012282Y-14303432D01*
X21993235Y-14293909D01*
X21983711Y-14274861D01*
X21983711Y-14265337D01*
X21993235Y-14246290D01*
X22012282Y-14236766D01*
X22040854Y-14236766D01*
X22059901Y-14246290D01*
X22136092Y-14446290D02*
X22145616Y-14436766D01*
X22164663Y-14408194D01*
X22174187Y-14389147D01*
X22183711Y-14360575D01*
X22193235Y-14312956D01*
X22193235Y-14274861D01*
X22183711Y-14227242D01*
X22174187Y-14198671D01*
X22164663Y-14179623D01*
X22145616Y-14151051D01*
X22136092Y-14141528D01*
M02*
