%TF.GenerationSoftware,KiCad,Pcbnew,(6.0.4)*%
%TF.CreationDate,2022-07-20T18:17:01+08:00*%
%TF.ProjectId,SmartKnob_Screen,536d6172-744b-46e6-9f62-5f5363726565,rev?*%
%TF.SameCoordinates,Original*%
%TF.FileFunction,Copper,L4,Bot*%
%TF.FilePolarity,Positive*%
%FSLAX46Y46*%
G04 Gerber Fmt 4.6, Leading zero omitted, Abs format (unit mm)*
G04 Created by KiCad (PCBNEW (6.0.4)) date 2022-07-20 18:17:01*
%MOMM*%
%LPD*%
G01*
G04 APERTURE LIST*
G04 Aperture macros list*
%AMRoundRect*
0 Rectangle with rounded corners*
0 $1 Rounding radius*
0 $2 $3 $4 $5 $6 $7 $8 $9 X,Y pos of 4 corners*
0 Add a 4 corners polygon primitive as box body*
4,1,4,$2,$3,$4,$5,$6,$7,$8,$9,$2,$3,0*
0 Add four circle primitives for the rounded corners*
1,1,$1+$1,$2,$3*
1,1,$1+$1,$4,$5*
1,1,$1+$1,$6,$7*
1,1,$1+$1,$8,$9*
0 Add four rect primitives between the rounded corners*
20,1,$1+$1,$2,$3,$4,$5,0*
20,1,$1+$1,$4,$5,$6,$7,0*
20,1,$1+$1,$6,$7,$8,$9,0*
20,1,$1+$1,$8,$9,$2,$3,0*%
%AMRotRect*
0 Rectangle, with rotation*
0 The origin of the aperture is its center*
0 $1 length*
0 $2 width*
0 $3 Rotation angle, in degrees counterclockwise*
0 Add horizontal line*
21,1,$1,$2,0,0,$3*%
G04 Aperture macros list end*
%TA.AperFunction,ComponentPad*%
%ADD10C,0.800000*%
%TD*%
%TA.AperFunction,ComponentPad*%
%ADD11C,6.400000*%
%TD*%
%TA.AperFunction,SMDPad,CuDef*%
%ADD12RoundRect,0.200000X-0.275000X0.200000X-0.275000X-0.200000X0.275000X-0.200000X0.275000X0.200000X0*%
%TD*%
%TA.AperFunction,SMDPad,CuDef*%
%ADD13RoundRect,0.140000X0.219203X0.021213X0.021213X0.219203X-0.219203X-0.021213X-0.021213X-0.219203X0*%
%TD*%
%TA.AperFunction,SMDPad,CuDef*%
%ADD14R,0.300000X1.100000*%
%TD*%
%TA.AperFunction,SMDPad,CuDef*%
%ADD15R,2.300000X3.100000*%
%TD*%
%TA.AperFunction,SMDPad,CuDef*%
%ADD16RotRect,0.610000X2.000000X315.000000*%
%TD*%
%TA.AperFunction,SMDPad,CuDef*%
%ADD17RotRect,2.680000X3.600000X315.000000*%
%TD*%
%TA.AperFunction,ViaPad*%
%ADD18C,0.450000*%
%TD*%
%TA.AperFunction,Conductor*%
%ADD19C,0.300000*%
%TD*%
%TA.AperFunction,Conductor*%
%ADD20C,0.700000*%
%TD*%
%TA.AperFunction,Conductor*%
%ADD21C,0.500000*%
%TD*%
%TA.AperFunction,Conductor*%
%ADD22C,0.150000*%
%TD*%
G04 APERTURE END LIST*
D10*
%TO.P,H7,1,1*%
%TO.N,unconnected-(H7-Pad1)*%
X205469747Y-73837616D03*
X207166803Y-69740560D03*
X203069747Y-71437616D03*
X203772691Y-73134672D03*
X205469747Y-69037616D03*
X203772691Y-69740560D03*
X207166803Y-73134672D03*
X207869747Y-71437616D03*
D11*
X205469747Y-71437616D03*
%TD*%
D12*
%TO.P,R22,1*%
%TO.N,/Screen_GND*%
X201819747Y-58082616D03*
%TO.P,R22,2*%
%TO.N,Net-(R22-Pad2)*%
X201819747Y-59732616D03*
%TD*%
D13*
%TO.P,C16,1*%
%TO.N,/Screen_VCC*%
X181154064Y-83177027D03*
%TO.P,C16,2*%
%TO.N,/Screen_GND*%
X180475242Y-82498205D03*
%TD*%
D14*
%TO.P,U5,1,GND*%
%TO.N,/Screen_GND*%
X196509747Y-54092616D03*
%TO.P,U5,2,BL_K*%
%TO.N,Net-(R22-Pad2)*%
X196009747Y-54092616D03*
%TO.P,U5,3,BL_A*%
%TO.N,/Screen_VCC*%
X195509747Y-54092616D03*
%TO.P,U5,4,DP_VDD*%
X195009747Y-54092616D03*
%TO.P,U5,5,DP_DC*%
%TO.N,/Screen_DP_CMD*%
X194509747Y-54092616D03*
%TO.P,U5,6,DP_CS*%
%TO.N,/Screen_DP_CS*%
X194009747Y-54092616D03*
%TO.P,U5,7,DP_CLK*%
%TO.N,/Screen_DP_CLK*%
X193509747Y-54092616D03*
%TO.P,U5,8,DP_SDA*%
%TO.N,/Screen_DP_DATA*%
X193009747Y-54092616D03*
%TO.P,U5,9,DP_~{RST}*%
%TO.N,unconnected-(U5-Pad9)*%
X192509747Y-54092616D03*
%TO.P,U5,10,TP_VDD*%
%TO.N,/Screen_VCC*%
X192009747Y-54092616D03*
%TO.P,U5,11,GND*%
%TO.N,/Screen_GND*%
X191509747Y-54092616D03*
%TO.P,U5,12,TP_RST*%
%TO.N,unconnected-(U5-Pad12)*%
X191009747Y-54092616D03*
%TO.P,U5,13,TP_INT*%
%TO.N,unconnected-(U5-Pad13)*%
X190509747Y-54092616D03*
%TO.P,U5,14,TP_SDA*%
%TO.N,/Screen_TP_SDA*%
X190009747Y-54092616D03*
%TO.P,U5,15,TP_SCL*%
%TO.N,/Screen_TP_SCL*%
X189509747Y-54092616D03*
D15*
%TO.P,U5,MP,MP*%
%TO.N,/Screen_GND*%
X198179747Y-55792616D03*
X187839747Y-55792616D03*
%TD*%
D13*
%TO.P,C14,1*%
%TO.N,/Screen_VCC*%
X180454064Y-83877027D03*
%TO.P,C14,2*%
%TO.N,/Screen_GND*%
X179775242Y-83198205D03*
%TD*%
D16*
%TO.P,J8,1,Pin_1*%
%TO.N,/Screen_TP_SCL*%
X180766987Y-79235534D03*
%TO.P,J8,2,Pin_2*%
%TO.N,/Screen_TP_SDA*%
X181474094Y-79942641D03*
%TO.P,J8,3,Pin_3*%
%TO.N,/Screen_GND*%
X182181201Y-80649748D03*
%TO.P,J8,4,Pin_4*%
%TO.N,/Screen_VCC*%
X182888307Y-81356855D03*
%TO.P,J8,5,Pin_5*%
%TO.N,/Screen_DP_DATA*%
X183595414Y-82063962D03*
%TO.P,J8,6,Pin_6*%
%TO.N,/Screen_DP_CLK*%
X184302521Y-82771068D03*
%TO.P,J8,7,Pin_7*%
%TO.N,/Screen_DP_CS*%
X185009628Y-83478175D03*
%TO.P,J8,8,Pin_8*%
%TO.N,/Screen_DP_CMD*%
X185716735Y-84185282D03*
D17*
%TO.P,J8,MP,MountPin*%
%TO.N,/Screen_GND*%
X189810883Y-84319632D03*
X180632637Y-75141386D03*
%TD*%
D18*
%TO.N,/Screen_VCC*%
X195264653Y-55037616D03*
X192014653Y-55037616D03*
%TO.N,/Screen_GND*%
X175599976Y-71402097D03*
X208162282Y-60821962D03*
X200226218Y-54666120D03*
X209373496Y-62730531D03*
X176165479Y-75878515D03*
X203244858Y-86600000D03*
X180478541Y-59080249D03*
X178402073Y-61757215D03*
X189123558Y-88836594D03*
X198076394Y-88836594D03*
X182126344Y-85271335D03*
X208162282Y-81982232D03*
X179037670Y-60821962D03*
X176480959Y-76964403D03*
X211281147Y-68029233D03*
X177313089Y-63738070D03*
X186973734Y-88138074D03*
X185935949Y-55115210D03*
X211564457Y-72532326D03*
X203244858Y-56204194D03*
X188037670Y-88521114D03*
X210718993Y-65839791D03*
X201264003Y-87688984D03*
X211034473Y-75878515D03*
X205073608Y-85271335D03*
X211281147Y-74774961D03*
X190227112Y-89083268D03*
X178402073Y-81046979D03*
X200226218Y-88138074D03*
X196972840Y-89083268D03*
X175741911Y-73658095D03*
X205921824Y-84523532D03*
X191343978Y-89260162D03*
X195855974Y-89260162D03*
X183955094Y-86600000D03*
X198179747Y-55792616D03*
X206721411Y-59080249D03*
X183019841Y-85964403D03*
X175635495Y-72532326D03*
X176863999Y-64775855D03*
X183955094Y-56204194D03*
X204180111Y-85964403D03*
X193599976Y-89402097D03*
X207469214Y-59928465D03*
X176480959Y-65839791D03*
X181278128Y-58280662D03*
X184928410Y-55628577D03*
X185935949Y-87688984D03*
X211458041Y-73658095D03*
X176165479Y-66925679D03*
X210335953Y-78028339D03*
X175918805Y-74774961D03*
X209373496Y-80073663D03*
X175635495Y-70271868D03*
X176863999Y-78028339D03*
X182126344Y-57532859D03*
X201264003Y-55115210D03*
X179730738Y-59928465D03*
X194730205Y-89366578D03*
X210718993Y-76964403D03*
X195469747Y-52437616D03*
X202271542Y-55628577D03*
X175741911Y-69146099D03*
X210335953Y-64775855D03*
X191469747Y-52437616D03*
X187839747Y-55792616D03*
X192469747Y-52437616D03*
X192469747Y-89366578D03*
X177826456Y-80073663D03*
X205073608Y-57532859D03*
X177826456Y-62730531D03*
X209886863Y-79066124D03*
X211458041Y-69146099D03*
X199162282Y-88521114D03*
X209886863Y-63738070D03*
X211564457Y-70271868D03*
X206721411Y-83723945D03*
X211599976Y-71402097D03*
X184928410Y-87175617D03*
X177313089Y-79066124D03*
X205921824Y-58280662D03*
X208797879Y-61757215D03*
X183019841Y-56839791D03*
X202271542Y-87175617D03*
X194469747Y-52437616D03*
X207469214Y-82875729D03*
X204180111Y-56839791D03*
X208797879Y-81046979D03*
X175918805Y-68029233D03*
X211034473Y-66925679D03*
X193469747Y-52437616D03*
%TD*%
D19*
%TO.N,Net-(R22-Pad2)*%
X198945997Y-59732616D02*
X201819747Y-59732616D01*
X196009747Y-54092616D02*
X196009747Y-56796366D01*
X198945997Y-59732653D02*
G75*
G02*
X196009747Y-56796366I3J2936253D01*
G01*
D20*
%TO.N,/Screen_VCC*%
X186249747Y-64547616D02*
X189366471Y-61430892D01*
D21*
X182888307Y-81363962D02*
X181814653Y-82437616D01*
D20*
X185189747Y-77259267D02*
X185189747Y-69877616D01*
D19*
X195014653Y-53887616D02*
X195014653Y-54787616D01*
D21*
X181814653Y-82437616D02*
X181814653Y-82516438D01*
D19*
X195014653Y-54787616D02*
X195264653Y-55037616D01*
X195514653Y-54787616D02*
X195264653Y-55037616D01*
D20*
X185189747Y-69877616D02*
X185189747Y-67106682D01*
D21*
X181814653Y-82516438D02*
X180454064Y-83877027D01*
X182888307Y-81356855D02*
X182888307Y-81363962D01*
D19*
X192014653Y-55037616D02*
X192014653Y-53887616D01*
D20*
X183907546Y-80337616D02*
X182888307Y-81356855D01*
D21*
X183914653Y-80337616D02*
X183907546Y-80337616D01*
D19*
X195514653Y-53887616D02*
X195514653Y-54787616D01*
D20*
X186249759Y-64547628D02*
G75*
G03*
X185189747Y-67106682I2559041J-2559072D01*
G01*
X185189722Y-77259267D02*
G75*
G02*
X183914653Y-80337616I-4353422J-33D01*
G01*
X192014665Y-55037616D02*
G75*
G02*
X189366471Y-61430892I-9041465J16D01*
G01*
D22*
%TO.N,/Screen_DP_CMD*%
X194514653Y-53887616D02*
X194514653Y-57220230D01*
X193050187Y-60755764D02*
X188679119Y-65126832D01*
X186628866Y-83273151D02*
X186346060Y-83555957D01*
X187214653Y-68662366D02*
X187214653Y-81858937D01*
X187214643Y-68662366D02*
G75*
G02*
X188679119Y-65126832I5000057J-34D01*
G01*
X187214692Y-81858937D02*
G75*
G02*
X186628865Y-83273150I-1999992J37D01*
G01*
X194514688Y-57220230D02*
G75*
G02*
X193050187Y-60755764I-4999988J30D01*
G01*
%TO.N,/Screen_DP_CS*%
X194014653Y-57166548D02*
X194014653Y-53887616D01*
X185638953Y-82848850D02*
X185935974Y-82551829D01*
X188279119Y-64973150D02*
X192550187Y-60702082D01*
X186814653Y-80430509D02*
X186814653Y-68508684D01*
X188279117Y-64973148D02*
G75*
G03*
X186814653Y-68508684I3535583J-3535552D01*
G01*
X194014700Y-57166548D02*
G75*
G02*
X192550186Y-60702081I-5000000J48D01*
G01*
X186814673Y-80430509D02*
G75*
G02*
X185935974Y-82551829I-2999973J9D01*
G01*
%TO.N,/Screen_DP_CLK*%
X184950187Y-82123402D02*
X184931846Y-82141743D01*
X192050187Y-60602082D02*
X187879119Y-64773150D01*
X193514653Y-53887616D02*
X193514653Y-57066548D01*
X186414653Y-68308684D02*
X186414653Y-78587868D01*
X184950193Y-82123408D02*
G75*
G03*
X186414653Y-78587868I-3535493J3535508D01*
G01*
X187879117Y-64773148D02*
G75*
G03*
X186414653Y-68308684I3535583J-3535552D01*
G01*
X193514700Y-57066548D02*
G75*
G02*
X192050186Y-60602081I-5000000J48D01*
G01*
%TO.N,/Screen_DP_DATA*%
X184224739Y-81434637D02*
X184550187Y-81109189D01*
X187479119Y-64573150D02*
X191550187Y-60502082D01*
X186014653Y-77573655D02*
X186014653Y-68108684D01*
X193014653Y-56966548D02*
X193014653Y-53887616D01*
X191550153Y-60502048D02*
G75*
G03*
X193014653Y-56966548I-3535453J3535548D01*
G01*
X187479117Y-64573148D02*
G75*
G03*
X186014653Y-68108684I3535583J-3535552D01*
G01*
X186014635Y-77573655D02*
G75*
G02*
X184550187Y-81109189I-4999935J-45D01*
G01*
%TO.N,/Screen_TP_SCL*%
X183814653Y-74116800D02*
X183814653Y-66908684D01*
X185279119Y-63373150D02*
X188050187Y-60602082D01*
X181396312Y-78606209D02*
X182350187Y-77652334D01*
X189514653Y-57066548D02*
X189514653Y-54104460D01*
X183814656Y-66908684D02*
G75*
G02*
X185279119Y-63373150I5000044J-16D01*
G01*
X183814666Y-74116800D02*
G75*
G02*
X182350186Y-77652333I-4999966J0D01*
G01*
X189509728Y-54092635D02*
G75*
G02*
X189514653Y-54104460I-11828J-11865D01*
G01*
X189514700Y-57066548D02*
G75*
G02*
X188050186Y-60602081I-5000000J48D01*
G01*
%TO.N,/Screen_TP_SDA*%
X182750187Y-78666548D02*
X182103419Y-79313316D01*
X184214653Y-67108684D02*
X184214653Y-75131014D01*
X188550187Y-60702082D02*
X185679119Y-63573150D01*
X190014653Y-54104460D02*
X190014653Y-57166548D01*
X188550153Y-60702048D02*
G75*
G03*
X190014653Y-57166548I-3535453J3535548D01*
G01*
X190014680Y-54104460D02*
G75*
G03*
X190009747Y-54092616I-16780J-40D01*
G01*
X184214656Y-67108684D02*
G75*
G02*
X185679119Y-63573150I5000044J-16D01*
G01*
X184214676Y-75131014D02*
G75*
G02*
X182750186Y-78666547I-4999976J14D01*
G01*
%TD*%
%TA.AperFunction,Conductor*%
%TO.N,/Screen_GND*%
G36*
X194376677Y-51656926D02*
G01*
X194379871Y-51657064D01*
X195238711Y-51713355D01*
X195241898Y-51713635D01*
X196097397Y-51807327D01*
X196100587Y-51807746D01*
X196951222Y-51938672D01*
X196954378Y-51939229D01*
X197601778Y-52068004D01*
X197798470Y-52107129D01*
X197801622Y-52107828D01*
X198637563Y-52312382D01*
X198640681Y-52313217D01*
X199466938Y-52554049D01*
X199469990Y-52555010D01*
X199877479Y-52693334D01*
X200284954Y-52831654D01*
X200287987Y-52832758D01*
X201090097Y-53144681D01*
X201093080Y-53145917D01*
X201861191Y-53483894D01*
X201880797Y-53492521D01*
X201883718Y-53493883D01*
X201945248Y-53524226D01*
X202655598Y-53874532D01*
X202658462Y-53876023D01*
X203170433Y-54156900D01*
X203413010Y-54289982D01*
X203415786Y-54291585D01*
X203783660Y-54514817D01*
X204151524Y-54738042D01*
X204154247Y-54739776D01*
X204373512Y-54886284D01*
X204869857Y-55217931D01*
X204872462Y-55219755D01*
X205142557Y-55417797D01*
X205566536Y-55728672D01*
X205569097Y-55730638D01*
X206240254Y-56269298D01*
X206242725Y-56271370D01*
X206864111Y-56816311D01*
X206889789Y-56838830D01*
X206892166Y-56841008D01*
X207513867Y-57436157D01*
X207516112Y-57438402D01*
X208091771Y-58039744D01*
X208111258Y-58060100D01*
X208113437Y-58062477D01*
X208531465Y-58539147D01*
X208680896Y-58709541D01*
X208682968Y-58712012D01*
X208765774Y-58815185D01*
X209221631Y-59383172D01*
X209223597Y-59385733D01*
X209304973Y-59496715D01*
X209732514Y-60079807D01*
X209734338Y-60082412D01*
X209981469Y-60452270D01*
X210212493Y-60798022D01*
X210214227Y-60800745D01*
X210660678Y-61536473D01*
X210662293Y-61539269D01*
X211076246Y-62293807D01*
X211077737Y-62296671D01*
X211458384Y-63068546D01*
X211459745Y-63071467D01*
X211633050Y-63465331D01*
X211806352Y-63859189D01*
X211807588Y-63862172D01*
X212119511Y-64664282D01*
X212120615Y-64667315D01*
X212214451Y-64943746D01*
X212361598Y-65377225D01*
X212397254Y-65482265D01*
X212398220Y-65485331D01*
X212546513Y-65994101D01*
X212639052Y-66311588D01*
X212639887Y-66314706D01*
X212844441Y-67150647D01*
X212845140Y-67153799D01*
X212851194Y-67184233D01*
X213011664Y-67990969D01*
X213013038Y-67997879D01*
X213013597Y-68001047D01*
X213141728Y-68833524D01*
X213144522Y-68851677D01*
X213144942Y-68854872D01*
X213231745Y-69647461D01*
X213238633Y-69710357D01*
X213238914Y-69713558D01*
X213294148Y-70556267D01*
X213295204Y-70572382D01*
X213295343Y-70575592D01*
X213314118Y-71436002D01*
X213314118Y-71439219D01*
X213297976Y-72179023D01*
X213295344Y-72299624D01*
X213295205Y-72302834D01*
X213238915Y-73161659D01*
X213238634Y-73164861D01*
X213148783Y-73985291D01*
X213144943Y-74020354D01*
X213144523Y-74023550D01*
X213015656Y-74860810D01*
X213013599Y-74874173D01*
X213013040Y-74877341D01*
X212964003Y-75123868D01*
X212845140Y-75721433D01*
X212844441Y-75724585D01*
X212639887Y-76560526D01*
X212639054Y-76563638D01*
X212425604Y-77295955D01*
X212398225Y-77389887D01*
X212397259Y-77392953D01*
X212313264Y-77640392D01*
X212120615Y-78207917D01*
X212119511Y-78210950D01*
X211807588Y-79013060D01*
X211806352Y-79016043D01*
X211729955Y-79189668D01*
X211470842Y-79778548D01*
X211459748Y-79803760D01*
X211458386Y-79806681D01*
X211450382Y-79822913D01*
X211077737Y-80578561D01*
X211076246Y-80581425D01*
X210837040Y-81017441D01*
X210670228Y-81321500D01*
X210662293Y-81335963D01*
X210660684Y-81338749D01*
X210492081Y-81616598D01*
X210214227Y-82074487D01*
X210212493Y-82077210D01*
X210094683Y-82253526D01*
X209734338Y-82792820D01*
X209732514Y-82795425D01*
X209338893Y-83332255D01*
X209223597Y-83489499D01*
X209221631Y-83492060D01*
X208682971Y-84163217D01*
X208680899Y-84165688D01*
X208239003Y-84669574D01*
X208113439Y-84812752D01*
X208111261Y-84815129D01*
X207516112Y-85436830D01*
X207513867Y-85439075D01*
X207215162Y-85725023D01*
X206892169Y-86034221D01*
X206889792Y-86036400D01*
X206549722Y-86334633D01*
X206242728Y-86603859D01*
X206240254Y-86605934D01*
X205569097Y-87144594D01*
X205566536Y-87146560D01*
X204872462Y-87655477D01*
X204869857Y-87657301D01*
X204394947Y-87974625D01*
X204154247Y-88135456D01*
X204151524Y-88137190D01*
X203588709Y-88478715D01*
X203415796Y-88583641D01*
X203413010Y-88585250D01*
X203170433Y-88718332D01*
X202658462Y-88999209D01*
X202655598Y-89000700D01*
X202023815Y-89312261D01*
X201926879Y-89360065D01*
X201883723Y-89381347D01*
X201880797Y-89382711D01*
X201093080Y-89729315D01*
X201090097Y-89730551D01*
X200287987Y-90042474D01*
X200284954Y-90043578D01*
X200103973Y-90105013D01*
X199469990Y-90320222D01*
X199466938Y-90321183D01*
X198870111Y-90495143D01*
X198640681Y-90562015D01*
X198637563Y-90562850D01*
X197801622Y-90767404D01*
X197798470Y-90768103D01*
X196954378Y-90936003D01*
X196951222Y-90936560D01*
X196100587Y-91067486D01*
X196097397Y-91067905D01*
X195241898Y-91161597D01*
X195238711Y-91161877D01*
X194379871Y-91218168D01*
X194376677Y-91218306D01*
X193516257Y-91237081D01*
X193513049Y-91237081D01*
X192652629Y-91218306D01*
X192649435Y-91218168D01*
X191790595Y-91161877D01*
X191787408Y-91161597D01*
X190931909Y-91067905D01*
X190928719Y-91067486D01*
X190078084Y-90936560D01*
X190074928Y-90936003D01*
X189230836Y-90768103D01*
X189227684Y-90767404D01*
X188391743Y-90562850D01*
X188388625Y-90562015D01*
X188159195Y-90495143D01*
X187562368Y-90321183D01*
X187559316Y-90320222D01*
X186925333Y-90105013D01*
X186744352Y-90043578D01*
X186741319Y-90042474D01*
X185939209Y-89730551D01*
X185936226Y-89729315D01*
X185148509Y-89382711D01*
X185145583Y-89381347D01*
X185102428Y-89360065D01*
X185005491Y-89312261D01*
X184373708Y-89000700D01*
X184370844Y-88999209D01*
X183858873Y-88718332D01*
X183616296Y-88585250D01*
X183613510Y-88583641D01*
X183440598Y-88478715D01*
X182877782Y-88137190D01*
X182875059Y-88135456D01*
X182634359Y-87974625D01*
X182159449Y-87657301D01*
X182156844Y-87655477D01*
X181462770Y-87146560D01*
X181460209Y-87144594D01*
X180789052Y-86605934D01*
X180786578Y-86603859D01*
X180479585Y-86334633D01*
X180139514Y-86036400D01*
X180137137Y-86034221D01*
X179814144Y-85725023D01*
X179515439Y-85439075D01*
X179513194Y-85436830D01*
X178918045Y-84815129D01*
X178915867Y-84812752D01*
X178790303Y-84669574D01*
X178348407Y-84165688D01*
X178346335Y-84163217D01*
X178090444Y-83844383D01*
X179944277Y-83844383D01*
X179944372Y-83952603D01*
X179946837Y-83958974D01*
X179946837Y-83958975D01*
X179974590Y-84030711D01*
X179983419Y-84053534D01*
X179998929Y-84073137D01*
X180257954Y-84332162D01*
X180259663Y-84333507D01*
X180259668Y-84333512D01*
X180268330Y-84340331D01*
X180277997Y-84347942D01*
X180283178Y-84349936D01*
X180372614Y-84384359D01*
X180372617Y-84384360D01*
X180378994Y-84386814D01*
X180385829Y-84386808D01*
X180480382Y-84386725D01*
X180487214Y-84386719D01*
X180588144Y-84347672D01*
X180607748Y-84332162D01*
X180909199Y-84030711D01*
X180910544Y-84029002D01*
X180910549Y-84028997D01*
X180921546Y-84015028D01*
X180924979Y-84010668D01*
X180943220Y-83963275D01*
X180959955Y-83937529D01*
X181214575Y-83682909D01*
X181240201Y-83666220D01*
X181250221Y-83662343D01*
X181288144Y-83647672D01*
X181307748Y-83632162D01*
X181609199Y-83330711D01*
X181610544Y-83329002D01*
X181610549Y-83328997D01*
X181621544Y-83315031D01*
X181624979Y-83310668D01*
X181643220Y-83263274D01*
X181659955Y-83237528D01*
X182142703Y-82754780D01*
X182154548Y-82731532D01*
X182160614Y-82721635D01*
X182163649Y-82717457D01*
X182175949Y-82700528D01*
X182184010Y-82675718D01*
X182188454Y-82664990D01*
X182197653Y-82646936D01*
X182197654Y-82646933D01*
X182200299Y-82641742D01*
X182201210Y-82635988D01*
X182203010Y-82630450D01*
X182204405Y-82630903D01*
X182221701Y-82596961D01*
X182366911Y-82451751D01*
X182404800Y-82431499D01*
X182440945Y-82424309D01*
X182490975Y-82432009D01*
X182524350Y-82470066D01*
X182527960Y-82511324D01*
X182519192Y-82555401D01*
X182520614Y-82562550D01*
X182527481Y-82597069D01*
X182530873Y-82614123D01*
X182555741Y-82651341D01*
X183008035Y-83103635D01*
X183045253Y-83128503D01*
X183052399Y-83129924D01*
X183052400Y-83129925D01*
X183096826Y-83138762D01*
X183103975Y-83140184D01*
X183148052Y-83131416D01*
X183198081Y-83139116D01*
X183231457Y-83177173D01*
X183235067Y-83218430D01*
X183226299Y-83262507D01*
X183237980Y-83321229D01*
X183262848Y-83358447D01*
X183715142Y-83810741D01*
X183752360Y-83835609D01*
X183759506Y-83837030D01*
X183759507Y-83837031D01*
X183803933Y-83845868D01*
X183811082Y-83847290D01*
X183855159Y-83838522D01*
X183905188Y-83846222D01*
X183938564Y-83884279D01*
X183942174Y-83925537D01*
X183933406Y-83969614D01*
X183934828Y-83976763D01*
X183942440Y-84015028D01*
X183945087Y-84028336D01*
X183969955Y-84065554D01*
X184422249Y-84517848D01*
X184459467Y-84542716D01*
X184466613Y-84544137D01*
X184466614Y-84544138D01*
X184511040Y-84552975D01*
X184518189Y-84554397D01*
X184562266Y-84545629D01*
X184612295Y-84553329D01*
X184645671Y-84591386D01*
X184649281Y-84632644D01*
X184640513Y-84676721D01*
X184652194Y-84735443D01*
X184677062Y-84772661D01*
X185129356Y-85224955D01*
X185166574Y-85249823D01*
X185173720Y-85251244D01*
X185173721Y-85251245D01*
X185218147Y-85260082D01*
X185225296Y-85261504D01*
X185284017Y-85249823D01*
X185290078Y-85245774D01*
X185290079Y-85245773D01*
X185318213Y-85226975D01*
X185318214Y-85226974D01*
X185321236Y-85224955D01*
X186756408Y-83789783D01*
X186781276Y-83752564D01*
X186792957Y-83693843D01*
X186781276Y-83635121D01*
X186756408Y-83597903D01*
X186742040Y-83583535D01*
X186720648Y-83537659D01*
X186733749Y-83488764D01*
X186742039Y-83478884D01*
X186767457Y-83453465D01*
X186778673Y-83444261D01*
X186778981Y-83444055D01*
X186791438Y-83435732D01*
X186795055Y-83430319D01*
X186796855Y-83428305D01*
X186797838Y-83427322D01*
X186798519Y-83426443D01*
X186955973Y-83250263D01*
X186955979Y-83250256D01*
X186957362Y-83248708D01*
X187102016Y-83044849D01*
X187105235Y-83039026D01*
X187221934Y-82827887D01*
X187221937Y-82827881D01*
X187222934Y-82826077D01*
X187277236Y-82694991D01*
X187317800Y-82597069D01*
X187317804Y-82597059D01*
X187318598Y-82595141D01*
X187387803Y-82354946D01*
X187390328Y-82340092D01*
X187429329Y-82110567D01*
X187429678Y-82108513D01*
X187436663Y-81984184D01*
X187443065Y-81870238D01*
X187443164Y-81869452D01*
X187443149Y-81869193D01*
X187443149Y-81868734D01*
X187443356Y-81865050D01*
X187444571Y-81858941D01*
X187443150Y-81851796D01*
X187443150Y-81851790D01*
X187441575Y-81843872D01*
X187440153Y-81829437D01*
X187440153Y-71437616D01*
X188309199Y-71437616D01*
X188329007Y-71891301D01*
X188329217Y-71892894D01*
X188329217Y-71892897D01*
X188385311Y-72318965D01*
X188388282Y-72341534D01*
X188486571Y-72784887D01*
X188487057Y-72786428D01*
X188487059Y-72786436D01*
X188602940Y-73153963D01*
X188623126Y-73217986D01*
X188623739Y-73219467D01*
X188623742Y-73219474D01*
X188733009Y-73483265D01*
X188796910Y-73637536D01*
X188797650Y-73638957D01*
X188797653Y-73638964D01*
X188977219Y-73983907D01*
X189006598Y-74040343D01*
X189007461Y-74041698D01*
X189007467Y-74041708D01*
X189112936Y-74207261D01*
X189250595Y-74423342D01*
X189527044Y-74783617D01*
X189833841Y-75118428D01*
X190168652Y-75425225D01*
X190528927Y-75701674D01*
X190618434Y-75758696D01*
X190910561Y-75944802D01*
X190910571Y-75944808D01*
X190911926Y-75945671D01*
X190913361Y-75946418D01*
X191313305Y-76154616D01*
X191313312Y-76154619D01*
X191314733Y-76155359D01*
X191316210Y-76155971D01*
X191316219Y-76155975D01*
X191732795Y-76328527D01*
X191732802Y-76328530D01*
X191734283Y-76329143D01*
X191735820Y-76329627D01*
X191735821Y-76329628D01*
X192165833Y-76465210D01*
X192165841Y-76465212D01*
X192167382Y-76465698D01*
X192168958Y-76466047D01*
X192168964Y-76466049D01*
X192539363Y-76548164D01*
X192610735Y-76563987D01*
X192612327Y-76564197D01*
X192612335Y-76564198D01*
X193059372Y-76623052D01*
X193059375Y-76623052D01*
X193060968Y-76623262D01*
X193514653Y-76643070D01*
X193968338Y-76623262D01*
X193969931Y-76623052D01*
X193969934Y-76623052D01*
X194416971Y-76564198D01*
X194416979Y-76564197D01*
X194418571Y-76563987D01*
X194489943Y-76548164D01*
X194860342Y-76466049D01*
X194860348Y-76466047D01*
X194861924Y-76465698D01*
X194863465Y-76465212D01*
X194863473Y-76465210D01*
X195293485Y-76329628D01*
X195293486Y-76329627D01*
X195295023Y-76329143D01*
X195296504Y-76328530D01*
X195296511Y-76328527D01*
X195713087Y-76155975D01*
X195713096Y-76155971D01*
X195714573Y-76155359D01*
X195715994Y-76154619D01*
X195716001Y-76154616D01*
X196115945Y-75946418D01*
X196117380Y-75945671D01*
X196118735Y-75944808D01*
X196118745Y-75944802D01*
X196410872Y-75758696D01*
X196500379Y-75701674D01*
X196860654Y-75425225D01*
X197195465Y-75118428D01*
X197502262Y-74783617D01*
X197778711Y-74423342D01*
X197916370Y-74207261D01*
X198021839Y-74041708D01*
X198021845Y-74041698D01*
X198022708Y-74040343D01*
X198052087Y-73983907D01*
X198231653Y-73638964D01*
X198231656Y-73638957D01*
X198232396Y-73637536D01*
X198296298Y-73483265D01*
X198405564Y-73219474D01*
X198405567Y-73219467D01*
X198406180Y-73217986D01*
X198426366Y-73153963D01*
X198542247Y-72786436D01*
X198542249Y-72786428D01*
X198542735Y-72784887D01*
X198641024Y-72341534D01*
X198643996Y-72318965D01*
X198700089Y-71892897D01*
X198700089Y-71892894D01*
X198700299Y-71891301D01*
X198720107Y-71437616D01*
X198719684Y-71427916D01*
X198719596Y-71425903D01*
X202114346Y-71425903D01*
X202132707Y-71788353D01*
X202133022Y-71790317D01*
X202133022Y-71790321D01*
X202184847Y-72113871D01*
X202190105Y-72146700D01*
X202285869Y-72496751D01*
X202418877Y-72834413D01*
X202587575Y-73155735D01*
X202588690Y-73157394D01*
X202744826Y-73389749D01*
X202789989Y-73456959D01*
X202791281Y-73458493D01*
X202791283Y-73458496D01*
X202813526Y-73484910D01*
X203023750Y-73734560D01*
X203025195Y-73735941D01*
X203025197Y-73735943D01*
X203284677Y-73983907D01*
X203284684Y-73983913D01*
X203286126Y-73985291D01*
X203317310Y-74009219D01*
X203572453Y-74204998D01*
X203572460Y-74205003D01*
X203574045Y-74206219D01*
X203575752Y-74207257D01*
X203575758Y-74207261D01*
X203882424Y-74393717D01*
X203882429Y-74393720D01*
X203884140Y-74394760D01*
X203942229Y-74421971D01*
X204210975Y-74547861D01*
X204210981Y-74547863D01*
X204212784Y-74548708D01*
X204214672Y-74549355D01*
X204214676Y-74549356D01*
X204314559Y-74583553D01*
X204556132Y-74666262D01*
X204558070Y-74666699D01*
X204558078Y-74666701D01*
X204792159Y-74719453D01*
X204910168Y-74746048D01*
X204912156Y-74746275D01*
X204912159Y-74746275D01*
X205228673Y-74782337D01*
X205270749Y-74787131D01*
X205272751Y-74787141D01*
X205272760Y-74787142D01*
X205449266Y-74788066D01*
X205633659Y-74789031D01*
X205635648Y-74788825D01*
X205635657Y-74788825D01*
X205992658Y-74751932D01*
X205992661Y-74751932D01*
X205994650Y-74751726D01*
X206349502Y-74675653D01*
X206351399Y-74675026D01*
X206351405Y-74675024D01*
X206692158Y-74562330D01*
X206692163Y-74562328D01*
X206694062Y-74561700D01*
X207024300Y-74411202D01*
X207336353Y-74225919D01*
X207626570Y-74008018D01*
X207891556Y-73760048D01*
X207998211Y-73636050D01*
X208126912Y-73486422D01*
X208126916Y-73486416D01*
X208128212Y-73484910D01*
X208333769Y-73185823D01*
X208345049Y-73164875D01*
X208504870Y-72868055D01*
X208504870Y-72868054D01*
X208505823Y-72866285D01*
X208519519Y-72832557D01*
X208641607Y-72531888D01*
X208642360Y-72530034D01*
X208695608Y-72343108D01*
X208741234Y-72182935D01*
X208741234Y-72182934D01*
X208741784Y-72181004D01*
X208744761Y-72163592D01*
X208802595Y-71825246D01*
X208802595Y-71825242D01*
X208802931Y-71823279D01*
X208825086Y-71461041D01*
X208825168Y-71437616D01*
X208805542Y-71075233D01*
X208746894Y-70717089D01*
X208649909Y-70367373D01*
X208515723Y-70030178D01*
X208345904Y-69709446D01*
X208344779Y-69707784D01*
X208143571Y-69410601D01*
X208143568Y-69410597D01*
X208142440Y-69408931D01*
X208141135Y-69407392D01*
X207909014Y-69133684D01*
X207909010Y-69133680D01*
X207907711Y-69132148D01*
X207644462Y-68882334D01*
X207580373Y-68833511D01*
X207357375Y-68663632D01*
X207357370Y-68663629D01*
X207355773Y-68662412D01*
X207310375Y-68635026D01*
X207046729Y-68475984D01*
X207046719Y-68475979D01*
X207045022Y-68474955D01*
X206715842Y-68322155D01*
X206605703Y-68284875D01*
X206373972Y-68206438D01*
X206373966Y-68206436D01*
X206372086Y-68205800D01*
X206017774Y-68127251D01*
X205657052Y-68087427D01*
X205294138Y-68086793D01*
X204933278Y-68125358D01*
X204578694Y-68202670D01*
X204567433Y-68206438D01*
X204236431Y-68317189D01*
X204236427Y-68317191D01*
X204234534Y-68317824D01*
X204232725Y-68318656D01*
X204232720Y-68318658D01*
X203906634Y-68468641D01*
X203904823Y-68469474D01*
X203903120Y-68470493D01*
X203903111Y-68470498D01*
X203718343Y-68581081D01*
X203593419Y-68655846D01*
X203591828Y-68657049D01*
X203591821Y-68657054D01*
X203545792Y-68691866D01*
X203303965Y-68874759D01*
X203039846Y-69123652D01*
X203038541Y-69125180D01*
X203038540Y-69125181D01*
X202924513Y-69258689D01*
X202804151Y-69399614D01*
X202599640Y-69699417D01*
X202428703Y-70019554D01*
X202293340Y-70356279D01*
X202292800Y-70358200D01*
X202292798Y-70358206D01*
X202232149Y-70573974D01*
X202195135Y-70705654D01*
X202135237Y-71063591D01*
X202114346Y-71425903D01*
X198719596Y-71425903D01*
X198700369Y-70985536D01*
X198700299Y-70983931D01*
X198663409Y-70703728D01*
X198641235Y-70535298D01*
X198641234Y-70535290D01*
X198641024Y-70533698D01*
X198542735Y-70090345D01*
X198523765Y-70030178D01*
X198406665Y-69658784D01*
X198406664Y-69658783D01*
X198406180Y-69657246D01*
X198304016Y-69410601D01*
X198233012Y-69239182D01*
X198233008Y-69239173D01*
X198232396Y-69237696D01*
X198173825Y-69125181D01*
X198023455Y-68836324D01*
X198022708Y-68834889D01*
X198021845Y-68833534D01*
X198021839Y-68833524D01*
X197832195Y-68535843D01*
X197778711Y-68451890D01*
X197502262Y-68091615D01*
X197498425Y-68087427D01*
X197196549Y-67757987D01*
X197195465Y-67756804D01*
X196860654Y-67450007D01*
X196500379Y-67173558D01*
X196295276Y-67042893D01*
X196118745Y-66930430D01*
X196118735Y-66930424D01*
X196117380Y-66929561D01*
X195812263Y-66770727D01*
X195716001Y-66720616D01*
X195715994Y-66720613D01*
X195714573Y-66719873D01*
X195713096Y-66719261D01*
X195713087Y-66719257D01*
X195296511Y-66546705D01*
X195296504Y-66546702D01*
X195295023Y-66546089D01*
X195293485Y-66545604D01*
X194863473Y-66410022D01*
X194863465Y-66410020D01*
X194861924Y-66409534D01*
X194860348Y-66409185D01*
X194860342Y-66409183D01*
X194489943Y-66327068D01*
X194418571Y-66311245D01*
X194416979Y-66311035D01*
X194416971Y-66311034D01*
X193969934Y-66252180D01*
X193969931Y-66252180D01*
X193968338Y-66251970D01*
X193514653Y-66232162D01*
X193060968Y-66251970D01*
X193059375Y-66252180D01*
X193059372Y-66252180D01*
X192612335Y-66311034D01*
X192612327Y-66311035D01*
X192610735Y-66311245D01*
X192539363Y-66327068D01*
X192168964Y-66409183D01*
X192168958Y-66409185D01*
X192167382Y-66409534D01*
X192165841Y-66410020D01*
X192165833Y-66410022D01*
X191735821Y-66545604D01*
X191734283Y-66546089D01*
X191732802Y-66546702D01*
X191732795Y-66546705D01*
X191316219Y-66719257D01*
X191316210Y-66719261D01*
X191314733Y-66719873D01*
X191313312Y-66720613D01*
X191313305Y-66720616D01*
X191217043Y-66770727D01*
X190911926Y-66929561D01*
X190910571Y-66930424D01*
X190910561Y-66930430D01*
X190734030Y-67042893D01*
X190528927Y-67173558D01*
X190168652Y-67450007D01*
X189833841Y-67756804D01*
X189832757Y-67757987D01*
X189530882Y-68087427D01*
X189527044Y-68091615D01*
X189250595Y-68451890D01*
X189197111Y-68535843D01*
X189007467Y-68833524D01*
X189007461Y-68833534D01*
X189006598Y-68834889D01*
X189005851Y-68836324D01*
X188855482Y-69125181D01*
X188796910Y-69237696D01*
X188796298Y-69239173D01*
X188796294Y-69239182D01*
X188725290Y-69410601D01*
X188623126Y-69657246D01*
X188622642Y-69658783D01*
X188622641Y-69658784D01*
X188505542Y-70030178D01*
X188486571Y-70090345D01*
X188388282Y-70533698D01*
X188388072Y-70535290D01*
X188388071Y-70535298D01*
X188365897Y-70703728D01*
X188329007Y-70983931D01*
X188314684Y-71311980D01*
X188309199Y-71437616D01*
X187440153Y-71437616D01*
X187440153Y-68691866D01*
X187441575Y-68677428D01*
X187444571Y-68662368D01*
X187443150Y-68655223D01*
X187443150Y-68655220D01*
X187442582Y-68652365D01*
X187441218Y-68635026D01*
X187454750Y-68290667D01*
X187455206Y-68284875D01*
X187473432Y-68130894D01*
X187498589Y-67918351D01*
X187499497Y-67912619D01*
X187571501Y-67550639D01*
X187572857Y-67544989D01*
X187673043Y-67189759D01*
X187674839Y-67184233D01*
X187678778Y-67173558D01*
X187777395Y-66906246D01*
X187802581Y-66837978D01*
X187804805Y-66832610D01*
X187959327Y-66497429D01*
X187961964Y-66492252D01*
X188142303Y-66170233D01*
X188145339Y-66165279D01*
X188194267Y-66092054D01*
X188313729Y-65913266D01*
X188350390Y-65858399D01*
X188353797Y-65853709D01*
X188582313Y-65563837D01*
X188586057Y-65559454D01*
X188820030Y-65306344D01*
X188833258Y-65295046D01*
X188835635Y-65293458D01*
X188835636Y-65293457D01*
X188841696Y-65289408D01*
X188850227Y-65276640D01*
X188859428Y-65265429D01*
X193188779Y-60936077D01*
X193199993Y-60926874D01*
X193203284Y-60924675D01*
X193212762Y-60918342D01*
X193214132Y-60916291D01*
X193250230Y-60877242D01*
X193490235Y-60617612D01*
X193490237Y-60617609D01*
X193491223Y-60616543D01*
X193745440Y-60294077D01*
X193973573Y-59952659D01*
X194003651Y-59898953D01*
X194173504Y-59595664D01*
X194173506Y-59595659D01*
X194174215Y-59594394D01*
X194190679Y-59558683D01*
X194245065Y-59440713D01*
X194346130Y-59221491D01*
X194346631Y-59220133D01*
X194346636Y-59220121D01*
X194439726Y-58967793D01*
X194488256Y-58836250D01*
X194570492Y-58544673D01*
X194599324Y-58442447D01*
X194599326Y-58442437D01*
X194599719Y-58441045D01*
X194679830Y-58038313D01*
X194686016Y-57986056D01*
X194709779Y-57785288D01*
X194728096Y-57630537D01*
X194744134Y-57222430D01*
X194744571Y-57220231D01*
X194741575Y-57205166D01*
X194740153Y-57190733D01*
X194740153Y-55116739D01*
X194757466Y-55069173D01*
X194801303Y-55043863D01*
X194851153Y-55052653D01*
X194866479Y-55064413D01*
X194875899Y-55073833D01*
X194896662Y-55114583D01*
X194902167Y-55149343D01*
X194902168Y-55149346D01*
X194903079Y-55155098D01*
X194905724Y-55160289D01*
X194905725Y-55160292D01*
X194954434Y-55255889D01*
X194954436Y-55255892D01*
X194957080Y-55261081D01*
X195041188Y-55345189D01*
X195046377Y-55347833D01*
X195046380Y-55347835D01*
X195141977Y-55396544D01*
X195141980Y-55396545D01*
X195147171Y-55399190D01*
X195152923Y-55400101D01*
X195152926Y-55400102D01*
X195258901Y-55416886D01*
X195264653Y-55417797D01*
X195270405Y-55416886D01*
X195376380Y-55400102D01*
X195376383Y-55400101D01*
X195382135Y-55399190D01*
X195387326Y-55396545D01*
X195387329Y-55396544D01*
X195482926Y-55347835D01*
X195482929Y-55347833D01*
X195488118Y-55345189D01*
X195572226Y-55261081D01*
X195574870Y-55255891D01*
X195575379Y-55255191D01*
X195617343Y-55226884D01*
X195667685Y-55232175D01*
X195702849Y-55268586D01*
X195709247Y-55298686D01*
X195709247Y-56763595D01*
X195708123Y-56776446D01*
X195704611Y-56796362D01*
X195704887Y-56797928D01*
X195705169Y-56803315D01*
X195705169Y-56803316D01*
X195713722Y-56966546D01*
X195722557Y-57135162D01*
X195722858Y-57137063D01*
X195722859Y-57137072D01*
X195775322Y-57468333D01*
X195775626Y-57470250D01*
X195863431Y-57797955D01*
X195907759Y-57913438D01*
X195955137Y-58036864D01*
X195985009Y-58114687D01*
X196020294Y-58183939D01*
X196124660Y-58388771D01*
X196139030Y-58416975D01*
X196323804Y-58701507D01*
X196325021Y-58703010D01*
X196325024Y-58703014D01*
X196400560Y-58796295D01*
X196537308Y-58965167D01*
X196777203Y-59205064D01*
X196778693Y-59206271D01*
X196778699Y-59206276D01*
X197006335Y-59390614D01*
X197040860Y-59418572D01*
X197325390Y-59603350D01*
X197627676Y-59757374D01*
X197944406Y-59878956D01*
X197946277Y-59879457D01*
X197946279Y-59879458D01*
X198270232Y-59966262D01*
X198270236Y-59966263D01*
X198272110Y-59966765D01*
X198274016Y-59967067D01*
X198274026Y-59967069D01*
X198605290Y-60019537D01*
X198607197Y-60019839D01*
X198609120Y-60019940D01*
X198609122Y-60019940D01*
X198934750Y-60037006D01*
X198944730Y-60037529D01*
X198945997Y-60037752D01*
X198965915Y-60034240D01*
X198978764Y-60033116D01*
X201157491Y-60033116D01*
X201205057Y-60050429D01*
X201223917Y-60074502D01*
X201255815Y-60139471D01*
X201260144Y-60143792D01*
X201260145Y-60143794D01*
X201334068Y-60217588D01*
X201338397Y-60221909D01*
X201343894Y-60224596D01*
X201437681Y-60270440D01*
X201443229Y-60273152D01*
X201511529Y-60283116D01*
X202127965Y-60283116D01*
X202134110Y-60282211D01*
X202191170Y-60273812D01*
X202191173Y-60273811D01*
X202196859Y-60272974D01*
X202202019Y-60270441D01*
X202202021Y-60270440D01*
X202274085Y-60235058D01*
X202301602Y-60221548D01*
X202305923Y-60217219D01*
X202305925Y-60217218D01*
X202379719Y-60143295D01*
X202379720Y-60143293D01*
X202384040Y-60138966D01*
X202386727Y-60133469D01*
X202432759Y-60039298D01*
X202432759Y-60039297D01*
X202435283Y-60034134D01*
X202445247Y-59965834D01*
X202445247Y-59499398D01*
X202436608Y-59440713D01*
X202435943Y-59436193D01*
X202435942Y-59436190D01*
X202435105Y-59430504D01*
X202428648Y-59417351D01*
X202403469Y-59366068D01*
X202383679Y-59325761D01*
X202379350Y-59321440D01*
X202379349Y-59321438D01*
X202305426Y-59247644D01*
X202305424Y-59247643D01*
X202301097Y-59243323D01*
X202276887Y-59231489D01*
X202201429Y-59194604D01*
X202201428Y-59194604D01*
X202196265Y-59192080D01*
X202127965Y-59182116D01*
X201511529Y-59182116D01*
X201508846Y-59182511D01*
X201448324Y-59191420D01*
X201448321Y-59191421D01*
X201442635Y-59192258D01*
X201437475Y-59194791D01*
X201437473Y-59194792D01*
X201391630Y-59217300D01*
X201337892Y-59243684D01*
X201333571Y-59248013D01*
X201333569Y-59248014D01*
X201259775Y-59321937D01*
X201255454Y-59326266D01*
X201252768Y-59331761D01*
X201224000Y-59390614D01*
X201187557Y-59425745D01*
X201157518Y-59432116D01*
X198978764Y-59432116D01*
X198965914Y-59430992D01*
X198963368Y-59430543D01*
X198945997Y-59427480D01*
X198939622Y-59428604D01*
X198939618Y-59428604D01*
X198934336Y-59429535D01*
X198917341Y-59430543D01*
X198779299Y-59422791D01*
X198655018Y-59415811D01*
X198646790Y-59414883D01*
X198410193Y-59374684D01*
X198363586Y-59366765D01*
X198355496Y-59364919D01*
X198079451Y-59285390D01*
X198071618Y-59282649D01*
X197859058Y-59194604D01*
X197806214Y-59172715D01*
X197798741Y-59169116D01*
X197796348Y-59167793D01*
X197547319Y-59030158D01*
X197540293Y-59025743D01*
X197306013Y-58859511D01*
X197299525Y-58854337D01*
X197107320Y-58682570D01*
X197085323Y-58662912D01*
X197079460Y-58657049D01*
X197065957Y-58641938D01*
X196888040Y-58442846D01*
X196882869Y-58436362D01*
X196873978Y-58423830D01*
X196716639Y-58202079D01*
X196712224Y-58195053D01*
X196573267Y-57943623D01*
X196569667Y-57936146D01*
X196459740Y-57670752D01*
X196456999Y-57662919D01*
X196377477Y-57386882D01*
X196375630Y-57378792D01*
X196327513Y-57095578D01*
X196326584Y-57087331D01*
X196319401Y-56959399D01*
X196311847Y-56824864D01*
X196312855Y-56807874D01*
X196314883Y-56796370D01*
X196311371Y-56776451D01*
X196310247Y-56763602D01*
X196310247Y-53527796D01*
X196307735Y-53515167D01*
X196302936Y-53491041D01*
X196302935Y-53491040D01*
X196301514Y-53483894D01*
X196268251Y-53434112D01*
X196218469Y-53400849D01*
X196211323Y-53399428D01*
X196211322Y-53399427D01*
X196178137Y-53392826D01*
X196178136Y-53392826D01*
X196174567Y-53392116D01*
X195844927Y-53392116D01*
X195841358Y-53392826D01*
X195841357Y-53392826D01*
X195808172Y-53399427D01*
X195808171Y-53399428D01*
X195801025Y-53400849D01*
X195794967Y-53404897D01*
X195788231Y-53407687D01*
X195786862Y-53404381D01*
X195751716Y-53412994D01*
X195732032Y-53405830D01*
X195731263Y-53407687D01*
X195724527Y-53404897D01*
X195718469Y-53400849D01*
X195711323Y-53399428D01*
X195711322Y-53399427D01*
X195678137Y-53392826D01*
X195678136Y-53392826D01*
X195674567Y-53392116D01*
X195344927Y-53392116D01*
X195341358Y-53392826D01*
X195341357Y-53392826D01*
X195308172Y-53399427D01*
X195308171Y-53399428D01*
X195301025Y-53400849D01*
X195294967Y-53404897D01*
X195288231Y-53407687D01*
X195286862Y-53404381D01*
X195251716Y-53412994D01*
X195232032Y-53405830D01*
X195231263Y-53407687D01*
X195224527Y-53404897D01*
X195218469Y-53400849D01*
X195211323Y-53399428D01*
X195211322Y-53399427D01*
X195178137Y-53392826D01*
X195178136Y-53392826D01*
X195174567Y-53392116D01*
X194844927Y-53392116D01*
X194841358Y-53392826D01*
X194841357Y-53392826D01*
X194808172Y-53399427D01*
X194808171Y-53399428D01*
X194801025Y-53400849D01*
X194794967Y-53404897D01*
X194788231Y-53407687D01*
X194786862Y-53404381D01*
X194751716Y-53412994D01*
X194732032Y-53405830D01*
X194731263Y-53407687D01*
X194724527Y-53404897D01*
X194718469Y-53400849D01*
X194711323Y-53399428D01*
X194711322Y-53399427D01*
X194678137Y-53392826D01*
X194678136Y-53392826D01*
X194674567Y-53392116D01*
X194344927Y-53392116D01*
X194341358Y-53392826D01*
X194341357Y-53392826D01*
X194308172Y-53399427D01*
X194308171Y-53399428D01*
X194301025Y-53400849D01*
X194294967Y-53404897D01*
X194288231Y-53407687D01*
X194286862Y-53404381D01*
X194251716Y-53412994D01*
X194232032Y-53405830D01*
X194231263Y-53407687D01*
X194224527Y-53404897D01*
X194218469Y-53400849D01*
X194211323Y-53399428D01*
X194211322Y-53399427D01*
X194178137Y-53392826D01*
X194178136Y-53392826D01*
X194174567Y-53392116D01*
X193844927Y-53392116D01*
X193841358Y-53392826D01*
X193841357Y-53392826D01*
X193808172Y-53399427D01*
X193808171Y-53399428D01*
X193801025Y-53400849D01*
X193794967Y-53404897D01*
X193788231Y-53407687D01*
X193786862Y-53404381D01*
X193751716Y-53412994D01*
X193732032Y-53405830D01*
X193731263Y-53407687D01*
X193724527Y-53404897D01*
X193718469Y-53400849D01*
X193711323Y-53399428D01*
X193711322Y-53399427D01*
X193678137Y-53392826D01*
X193678136Y-53392826D01*
X193674567Y-53392116D01*
X193344927Y-53392116D01*
X193341358Y-53392826D01*
X193341357Y-53392826D01*
X193308172Y-53399427D01*
X193308171Y-53399428D01*
X193301025Y-53400849D01*
X193294967Y-53404897D01*
X193288231Y-53407687D01*
X193286862Y-53404381D01*
X193251716Y-53412994D01*
X193232032Y-53405830D01*
X193231263Y-53407687D01*
X193224527Y-53404897D01*
X193218469Y-53400849D01*
X193211323Y-53399428D01*
X193211322Y-53399427D01*
X193178137Y-53392826D01*
X193178136Y-53392826D01*
X193174567Y-53392116D01*
X192844927Y-53392116D01*
X192841358Y-53392826D01*
X192841357Y-53392826D01*
X192808172Y-53399427D01*
X192808171Y-53399428D01*
X192801025Y-53400849D01*
X192794967Y-53404897D01*
X192788231Y-53407687D01*
X192786862Y-53404381D01*
X192751716Y-53412994D01*
X192732032Y-53405830D01*
X192731263Y-53407687D01*
X192724527Y-53404897D01*
X192718469Y-53400849D01*
X192711323Y-53399428D01*
X192711322Y-53399427D01*
X192678137Y-53392826D01*
X192678136Y-53392826D01*
X192674567Y-53392116D01*
X192344927Y-53392116D01*
X192341358Y-53392826D01*
X192341357Y-53392826D01*
X192308172Y-53399427D01*
X192308171Y-53399428D01*
X192301025Y-53400849D01*
X192294967Y-53404897D01*
X192288231Y-53407687D01*
X192286862Y-53404381D01*
X192251716Y-53412994D01*
X192232032Y-53405830D01*
X192231263Y-53407687D01*
X192224527Y-53404897D01*
X192218469Y-53400849D01*
X192211323Y-53399428D01*
X192211322Y-53399427D01*
X192178137Y-53392826D01*
X192178136Y-53392826D01*
X192174567Y-53392116D01*
X191844927Y-53392116D01*
X191841358Y-53392826D01*
X191841357Y-53392826D01*
X191808172Y-53399427D01*
X191808171Y-53399428D01*
X191801025Y-53400849D01*
X191751243Y-53434112D01*
X191717980Y-53483894D01*
X191716559Y-53491040D01*
X191716558Y-53491041D01*
X191711759Y-53515167D01*
X191709247Y-53527796D01*
X191709247Y-54600344D01*
X191691934Y-54647910D01*
X191687997Y-54651874D01*
X191686934Y-54652545D01*
X191592030Y-54760003D01*
X191589792Y-54764769D01*
X191589791Y-54764771D01*
X191576483Y-54793116D01*
X191531100Y-54889778D01*
X191509044Y-55031438D01*
X191512519Y-55058017D01*
X191513104Y-55070021D01*
X191495957Y-55593789D01*
X191495642Y-55598609D01*
X191482739Y-55729617D01*
X191441332Y-56150022D01*
X191440702Y-56154810D01*
X191421631Y-56270319D01*
X191350444Y-56701486D01*
X191349499Y-56706236D01*
X191292315Y-56951486D01*
X191226578Y-57233416D01*
X191223686Y-57245817D01*
X191222435Y-57250487D01*
X191166118Y-57436138D01*
X191061594Y-57780702D01*
X191060037Y-57785288D01*
X190864869Y-58303835D01*
X190863016Y-58308308D01*
X190634350Y-58812982D01*
X190632208Y-58817325D01*
X190371022Y-59305968D01*
X190368617Y-59310134D01*
X190287418Y-59440713D01*
X190076029Y-59780652D01*
X190073339Y-59784678D01*
X189750600Y-60235058D01*
X189747653Y-60238899D01*
X189396153Y-60667202D01*
X189392987Y-60670813D01*
X189144538Y-60936077D01*
X189039343Y-61048392D01*
X189028988Y-61057557D01*
X189013320Y-61069004D01*
X189010109Y-61073181D01*
X189010108Y-61073182D01*
X188992238Y-61096429D01*
X188985895Y-61103655D01*
X185929942Y-64159607D01*
X185920543Y-64167557D01*
X185901045Y-64181439D01*
X185896679Y-64185700D01*
X185894250Y-64188069D01*
X185894247Y-64188073D01*
X185892203Y-64190067D01*
X185890487Y-64192356D01*
X185890484Y-64192360D01*
X185886854Y-64197203D01*
X185882198Y-64202816D01*
X185788814Y-64304726D01*
X185650048Y-64456161D01*
X185431058Y-64741551D01*
X185430192Y-64742911D01*
X185243444Y-65036043D01*
X185237775Y-65044941D01*
X185071669Y-65364022D01*
X184934006Y-65696366D01*
X184825832Y-66039444D01*
X184825488Y-66040997D01*
X184825485Y-66041007D01*
X184765574Y-66311245D01*
X184747971Y-66390644D01*
X184747761Y-66392236D01*
X184747760Y-66392244D01*
X184704706Y-66719257D01*
X184701015Y-66747294D01*
X184688108Y-67042893D01*
X184686625Y-67076849D01*
X184685670Y-67085889D01*
X184684251Y-67094325D01*
X184684100Y-67106679D01*
X184684505Y-67109507D01*
X184688500Y-67137405D01*
X184689247Y-67147895D01*
X184689247Y-77214554D01*
X184688366Y-77225937D01*
X184684138Y-77253094D01*
X184684821Y-77258317D01*
X184684821Y-77258320D01*
X184687316Y-77277397D01*
X184687871Y-77290219D01*
X184683386Y-77392967D01*
X184678096Y-77514159D01*
X184674704Y-77591853D01*
X184674142Y-77598275D01*
X184631114Y-77925122D01*
X184629994Y-77931475D01*
X184579170Y-78160734D01*
X184558643Y-78253330D01*
X184556972Y-78259565D01*
X184468864Y-78539016D01*
X184457842Y-78573973D01*
X184455636Y-78580034D01*
X184333383Y-78875187D01*
X184329482Y-78884604D01*
X184326757Y-78890448D01*
X184174527Y-79182885D01*
X184171311Y-79188454D01*
X184063119Y-79358285D01*
X183994177Y-79466503D01*
X183990474Y-79471791D01*
X183789793Y-79733327D01*
X183785644Y-79738272D01*
X183600694Y-79940111D01*
X183589790Y-79949869D01*
X183583524Y-79954447D01*
X183583521Y-79954450D01*
X183581210Y-79956138D01*
X183561937Y-79975411D01*
X183561499Y-79975731D01*
X183561107Y-79976241D01*
X182508987Y-81028361D01*
X182444781Y-81114031D01*
X182442930Y-81118969D01*
X182425116Y-81166487D01*
X182408151Y-81192837D01*
X181848634Y-81752354D01*
X181823766Y-81789573D01*
X181813257Y-81842404D01*
X181813256Y-81842406D01*
X181812121Y-81848114D01*
X181812085Y-81848294D01*
X181811179Y-81848114D01*
X181796194Y-81889283D01*
X181791833Y-81894043D01*
X181509169Y-82176707D01*
X181509166Y-82176711D01*
X181486603Y-82199274D01*
X181483959Y-82204462D01*
X181483959Y-82204463D01*
X181474759Y-82222518D01*
X181468692Y-82232418D01*
X181456781Y-82248812D01*
X181456779Y-82248817D01*
X181453357Y-82253526D01*
X181451558Y-82259064D01*
X181451557Y-82259065D01*
X181445295Y-82278338D01*
X181440851Y-82289066D01*
X181431757Y-82306915D01*
X181429007Y-82312312D01*
X181428096Y-82318066D01*
X181426296Y-82323604D01*
X181424902Y-82323151D01*
X181407605Y-82357094D01*
X181093554Y-82671145D01*
X181067928Y-82687834D01*
X181019984Y-82706382D01*
X181000380Y-82721892D01*
X180698929Y-83023343D01*
X180697584Y-83025052D01*
X180697579Y-83025057D01*
X180690760Y-83033719D01*
X180683149Y-83043386D01*
X180681154Y-83048568D01*
X180681154Y-83048569D01*
X180664908Y-83090779D01*
X180648173Y-83116525D01*
X180393553Y-83371145D01*
X180367927Y-83387834D01*
X180319984Y-83406382D01*
X180300380Y-83421892D01*
X179998929Y-83723343D01*
X179997584Y-83725052D01*
X179997579Y-83725057D01*
X179990760Y-83733719D01*
X179983149Y-83743386D01*
X179981155Y-83748567D01*
X179946732Y-83838003D01*
X179946731Y-83838006D01*
X179944277Y-83844383D01*
X178090444Y-83844383D01*
X177807675Y-83492060D01*
X177805709Y-83489499D01*
X177690413Y-83332255D01*
X177296792Y-82795425D01*
X177294968Y-82792820D01*
X176934623Y-82253526D01*
X176816813Y-82077210D01*
X176815079Y-82074487D01*
X176537225Y-81616598D01*
X176368622Y-81338749D01*
X176367013Y-81335963D01*
X176359079Y-81321500D01*
X176192266Y-81017441D01*
X175953060Y-80581425D01*
X175951569Y-80578561D01*
X175578924Y-79822913D01*
X175570920Y-79806681D01*
X175569558Y-79803760D01*
X175558465Y-79778548D01*
X175535771Y-79726973D01*
X179690765Y-79726973D01*
X179692187Y-79734122D01*
X179693013Y-79738272D01*
X179702446Y-79785695D01*
X179727314Y-79822913D01*
X180179608Y-80275207D01*
X180216826Y-80300075D01*
X180223972Y-80301496D01*
X180223973Y-80301497D01*
X180268399Y-80310334D01*
X180275548Y-80311756D01*
X180319625Y-80302988D01*
X180369654Y-80310688D01*
X180403030Y-80348745D01*
X180406640Y-80390003D01*
X180397872Y-80434080D01*
X180399294Y-80441229D01*
X180400721Y-80448400D01*
X180409553Y-80492802D01*
X180434421Y-80530020D01*
X180886715Y-80982314D01*
X180923933Y-81007182D01*
X180931079Y-81008603D01*
X180931080Y-81008604D01*
X180975506Y-81017441D01*
X180982655Y-81018863D01*
X181041376Y-81007182D01*
X181047437Y-81003133D01*
X181047438Y-81003132D01*
X181075572Y-80984334D01*
X181075573Y-80984333D01*
X181078595Y-80982314D01*
X182513767Y-79547142D01*
X182538635Y-79509923D01*
X182550316Y-79451202D01*
X182538635Y-79392480D01*
X182513767Y-79355262D01*
X182499399Y-79340894D01*
X182478007Y-79295018D01*
X182491108Y-79246123D01*
X182499399Y-79236242D01*
X182888779Y-78846861D01*
X182899993Y-78837658D01*
X182906704Y-78833174D01*
X182906705Y-78833173D01*
X182912762Y-78829126D01*
X182914135Y-78827072D01*
X182936558Y-78802816D01*
X183190233Y-78528396D01*
X183190234Y-78528394D01*
X183191222Y-78527326D01*
X183445438Y-78204859D01*
X183673570Y-77863441D01*
X183798485Y-77640392D01*
X183873490Y-77506464D01*
X183873493Y-77506458D01*
X183874211Y-77505176D01*
X184046124Y-77132274D01*
X184046625Y-77130917D01*
X184046630Y-77130904D01*
X184187749Y-76748386D01*
X184188249Y-76747032D01*
X184260112Y-76492232D01*
X184299316Y-76353230D01*
X184299318Y-76353220D01*
X184299711Y-76351828D01*
X184379821Y-75949096D01*
X184379993Y-75947647D01*
X184427915Y-75542769D01*
X184427916Y-75542756D01*
X184428086Y-75541320D01*
X184435611Y-75349822D01*
X184443692Y-75144167D01*
X184443692Y-75144163D01*
X184444119Y-75133289D01*
X184444571Y-75131015D01*
X184441575Y-75115953D01*
X184440153Y-75101516D01*
X184440153Y-67138184D01*
X184441575Y-67123747D01*
X184443149Y-67115834D01*
X184444571Y-67108685D01*
X184442593Y-67098741D01*
X184441228Y-67081399D01*
X184454761Y-66736987D01*
X184455217Y-66731194D01*
X184482359Y-66501879D01*
X184498599Y-66364669D01*
X184499507Y-66358937D01*
X184508926Y-66311588D01*
X184538028Y-66165279D01*
X184571510Y-65996958D01*
X184572866Y-65991309D01*
X184673051Y-65636078D01*
X184674847Y-65630551D01*
X184802587Y-65284297D01*
X184804810Y-65278929D01*
X184959331Y-64943746D01*
X184961969Y-64938569D01*
X185114733Y-64665788D01*
X185142311Y-64616545D01*
X185145343Y-64611597D01*
X185249202Y-64456161D01*
X185350391Y-64304720D01*
X185353802Y-64300025D01*
X185432560Y-64200121D01*
X185582303Y-64010170D01*
X185586075Y-64005755D01*
X185742953Y-63836044D01*
X185820031Y-63752662D01*
X185833257Y-63741365D01*
X185835637Y-63739775D01*
X185835638Y-63739774D01*
X185841696Y-63735726D01*
X185850226Y-63722960D01*
X185859429Y-63711746D01*
X188688778Y-60882396D01*
X188699992Y-60873193D01*
X188706700Y-60868711D01*
X188706701Y-60868710D01*
X188712761Y-60864661D01*
X188714299Y-60862359D01*
X188991187Y-60562831D01*
X189245403Y-60240368D01*
X189473535Y-59898953D01*
X189489466Y-59870508D01*
X189585544Y-59698953D01*
X189674177Y-59540692D01*
X189693215Y-59499398D01*
X189816726Y-59231489D01*
X189846091Y-59167793D01*
X189857334Y-59137320D01*
X189910336Y-58993655D01*
X189988218Y-58782555D01*
X190099681Y-58387354D01*
X190179793Y-57984625D01*
X190181865Y-57967127D01*
X190217400Y-57666911D01*
X190228060Y-57576853D01*
X190237323Y-57341147D01*
X190243673Y-57179587D01*
X190243673Y-57179584D01*
X190244090Y-57168968D01*
X190244571Y-57166550D01*
X190241575Y-57151485D01*
X190240153Y-57137052D01*
X190240153Y-54862444D01*
X190257466Y-54814878D01*
X190301303Y-54789568D01*
X190328589Y-54789866D01*
X190344927Y-54793116D01*
X190674567Y-54793116D01*
X190678136Y-54792406D01*
X190678137Y-54792406D01*
X190711322Y-54785805D01*
X190711323Y-54785804D01*
X190718469Y-54784383D01*
X190724527Y-54780335D01*
X190731263Y-54777545D01*
X190732632Y-54780851D01*
X190767778Y-54772238D01*
X190787462Y-54779402D01*
X190788231Y-54777545D01*
X190794967Y-54780335D01*
X190801025Y-54784383D01*
X190808171Y-54785804D01*
X190808172Y-54785805D01*
X190841357Y-54792406D01*
X190841358Y-54792406D01*
X190844927Y-54793116D01*
X191174567Y-54793116D01*
X191178136Y-54792406D01*
X191178137Y-54792406D01*
X191211322Y-54785805D01*
X191211323Y-54785804D01*
X191218469Y-54784383D01*
X191268251Y-54751120D01*
X191301514Y-54701338D01*
X191310247Y-54657436D01*
X191310247Y-53527796D01*
X191307735Y-53515167D01*
X191302936Y-53491041D01*
X191302935Y-53491040D01*
X191301514Y-53483894D01*
X191268251Y-53434112D01*
X191218469Y-53400849D01*
X191211323Y-53399428D01*
X191211322Y-53399427D01*
X191178137Y-53392826D01*
X191178136Y-53392826D01*
X191174567Y-53392116D01*
X190844927Y-53392116D01*
X190841358Y-53392826D01*
X190841357Y-53392826D01*
X190808172Y-53399427D01*
X190808171Y-53399428D01*
X190801025Y-53400849D01*
X190794967Y-53404897D01*
X190788231Y-53407687D01*
X190786862Y-53404381D01*
X190751716Y-53412994D01*
X190732032Y-53405830D01*
X190731263Y-53407687D01*
X190724527Y-53404897D01*
X190718469Y-53400849D01*
X190711323Y-53399428D01*
X190711322Y-53399427D01*
X190678137Y-53392826D01*
X190678136Y-53392826D01*
X190674567Y-53392116D01*
X190344927Y-53392116D01*
X190341358Y-53392826D01*
X190341357Y-53392826D01*
X190308172Y-53399427D01*
X190308171Y-53399428D01*
X190301025Y-53400849D01*
X190294967Y-53404897D01*
X190288231Y-53407687D01*
X190286862Y-53404381D01*
X190251716Y-53412994D01*
X190232032Y-53405830D01*
X190231263Y-53407687D01*
X190224527Y-53404897D01*
X190218469Y-53400849D01*
X190211323Y-53399428D01*
X190211322Y-53399427D01*
X190178137Y-53392826D01*
X190178136Y-53392826D01*
X190174567Y-53392116D01*
X189844927Y-53392116D01*
X189841358Y-53392826D01*
X189841357Y-53392826D01*
X189808172Y-53399427D01*
X189808171Y-53399428D01*
X189801025Y-53400849D01*
X189794967Y-53404897D01*
X189788231Y-53407687D01*
X189786862Y-53404381D01*
X189751716Y-53412994D01*
X189732032Y-53405830D01*
X189731263Y-53407687D01*
X189724527Y-53404897D01*
X189718469Y-53400849D01*
X189711323Y-53399428D01*
X189711322Y-53399427D01*
X189678137Y-53392826D01*
X189678136Y-53392826D01*
X189674567Y-53392116D01*
X189344927Y-53392116D01*
X189341358Y-53392826D01*
X189341357Y-53392826D01*
X189308172Y-53399427D01*
X189308171Y-53399428D01*
X189301025Y-53400849D01*
X189251243Y-53434112D01*
X189217980Y-53483894D01*
X189216559Y-53491040D01*
X189216558Y-53491041D01*
X189211759Y-53515167D01*
X189209247Y-53527796D01*
X189209247Y-54657436D01*
X189217980Y-54701338D01*
X189251243Y-54751120D01*
X189257305Y-54755171D01*
X189262457Y-54760322D01*
X189261358Y-54761421D01*
X189286197Y-54795297D01*
X189289153Y-54816004D01*
X189289153Y-57037048D01*
X189287731Y-57051483D01*
X189284735Y-57066546D01*
X189286156Y-57073691D01*
X189286156Y-57073692D01*
X189286755Y-57076703D01*
X189288119Y-57094043D01*
X189274592Y-57438245D01*
X189274136Y-57444037D01*
X189262641Y-57541150D01*
X189232465Y-57796091D01*
X189230752Y-57810559D01*
X189229846Y-57816281D01*
X189170486Y-58114687D01*
X189157834Y-58178290D01*
X189156477Y-58183939D01*
X189056294Y-58539147D01*
X189054499Y-58544673D01*
X188926748Y-58890945D01*
X188924524Y-58896314D01*
X188854891Y-59047355D01*
X188773998Y-59222822D01*
X188770002Y-59231489D01*
X188767368Y-59236658D01*
X188681146Y-59390614D01*
X188587020Y-59558683D01*
X188583984Y-59563637D01*
X188518796Y-59661195D01*
X188378927Y-59870519D01*
X188375528Y-59875198D01*
X188147015Y-60165058D01*
X188143245Y-60169471D01*
X187974261Y-60352273D01*
X187909281Y-60422566D01*
X187896052Y-60433864D01*
X187893675Y-60435452D01*
X187893673Y-60435454D01*
X187887613Y-60439503D01*
X187883563Y-60445564D01*
X187879082Y-60452270D01*
X187869880Y-60463483D01*
X185140525Y-63192839D01*
X185129312Y-63202041D01*
X185122601Y-63206525D01*
X185122600Y-63206526D01*
X185116542Y-63210574D01*
X185115169Y-63212628D01*
X184838087Y-63512376D01*
X184583875Y-63834844D01*
X184583075Y-63836041D01*
X184583073Y-63836044D01*
X184363958Y-64163976D01*
X184355748Y-64176263D01*
X184346733Y-64192360D01*
X184159356Y-64526947D01*
X184155110Y-64534528D01*
X184154506Y-64535838D01*
X184154502Y-64535846D01*
X184059672Y-64741551D01*
X183983201Y-64907431D01*
X183982704Y-64908778D01*
X183982702Y-64908783D01*
X183938541Y-65028486D01*
X183841078Y-65292671D01*
X183817503Y-65376262D01*
X183744078Y-65636609D01*
X183729619Y-65687875D01*
X183649510Y-66090605D01*
X183649340Y-66092042D01*
X183649338Y-66092054D01*
X183601417Y-66496930D01*
X183601416Y-66496943D01*
X183601246Y-66498379D01*
X183599347Y-66546705D01*
X183585886Y-66889308D01*
X183585220Y-66906246D01*
X183584735Y-66908683D01*
X183586157Y-66915832D01*
X183586157Y-66915834D01*
X183587731Y-66923745D01*
X183589153Y-66938182D01*
X183589153Y-74087301D01*
X183587731Y-74101738D01*
X183584735Y-74116800D01*
X183586727Y-74126817D01*
X183588091Y-74144152D01*
X183574562Y-74488498D01*
X183574106Y-74494291D01*
X183567665Y-74548708D01*
X183539446Y-74787131D01*
X183530725Y-74860810D01*
X183529816Y-74866549D01*
X183457813Y-75228529D01*
X183456457Y-75234179D01*
X183358507Y-75581483D01*
X183356271Y-75589410D01*
X183354477Y-75594930D01*
X183340503Y-75632808D01*
X183226733Y-75941191D01*
X183224509Y-75946559D01*
X183069987Y-76281740D01*
X183067350Y-76286917D01*
X182887008Y-76608939D01*
X182883983Y-76613876D01*
X182678908Y-76920789D01*
X182675512Y-76925460D01*
X182649751Y-76958138D01*
X182447016Y-77215303D01*
X182443252Y-77219711D01*
X182283095Y-77392967D01*
X182209280Y-77472819D01*
X182196055Y-77484114D01*
X182193674Y-77485705D01*
X182193672Y-77485707D01*
X182187612Y-77489756D01*
X182183563Y-77495816D01*
X182179083Y-77502521D01*
X182169880Y-77513735D01*
X181473386Y-78210229D01*
X181427510Y-78231621D01*
X181378615Y-78218520D01*
X181368734Y-78210229D01*
X181354366Y-78195861D01*
X181317148Y-78170993D01*
X181310002Y-78169572D01*
X181310001Y-78169571D01*
X181265575Y-78160734D01*
X181258426Y-78159312D01*
X181199705Y-78170993D01*
X181193644Y-78175042D01*
X181193643Y-78175043D01*
X181173820Y-78188288D01*
X181162486Y-78195861D01*
X179727314Y-79631033D01*
X179702446Y-79668252D01*
X179690765Y-79726973D01*
X175535771Y-79726973D01*
X175299351Y-79189668D01*
X175222954Y-79016043D01*
X175221718Y-79013060D01*
X174909795Y-78210950D01*
X174908691Y-78207917D01*
X174716042Y-77640392D01*
X174632047Y-77392953D01*
X174631081Y-77389887D01*
X174603703Y-77295955D01*
X174390252Y-76563638D01*
X174389419Y-76560526D01*
X174184865Y-75724585D01*
X174184166Y-75721433D01*
X174065303Y-75123868D01*
X174016266Y-74877341D01*
X174015707Y-74874173D01*
X174013651Y-74860810D01*
X173884783Y-74023550D01*
X173884363Y-74020354D01*
X173880523Y-73985291D01*
X173790672Y-73164861D01*
X173790391Y-73161659D01*
X173734101Y-72302834D01*
X173733962Y-72299624D01*
X173731331Y-72179023D01*
X173715188Y-71439219D01*
X173715188Y-71436002D01*
X173733963Y-70575592D01*
X173734102Y-70572382D01*
X173735159Y-70556267D01*
X173790392Y-69713558D01*
X173790673Y-69710357D01*
X173797562Y-69647461D01*
X173884364Y-68854872D01*
X173884784Y-68851677D01*
X173887578Y-68833524D01*
X174015709Y-68001047D01*
X174016268Y-67997879D01*
X174017643Y-67990969D01*
X174178112Y-67184233D01*
X174184166Y-67153799D01*
X174184865Y-67150647D01*
X174389419Y-66314706D01*
X174390254Y-66311588D01*
X174482793Y-65994101D01*
X174631086Y-65485331D01*
X174632052Y-65482265D01*
X174667709Y-65377225D01*
X174814855Y-64943746D01*
X174908691Y-64667315D01*
X174909795Y-64664282D01*
X175221718Y-63862172D01*
X175222954Y-63859189D01*
X175396256Y-63465331D01*
X175569561Y-63071467D01*
X175570922Y-63068546D01*
X175951569Y-62296671D01*
X175953060Y-62293807D01*
X176367013Y-61539269D01*
X176368628Y-61536473D01*
X176815079Y-60800745D01*
X176816813Y-60798022D01*
X177047837Y-60452270D01*
X177294968Y-60082412D01*
X177296792Y-60079807D01*
X177724333Y-59496715D01*
X177805709Y-59385733D01*
X177807675Y-59383172D01*
X178263532Y-58815185D01*
X178346338Y-58712012D01*
X178348410Y-58709541D01*
X178497842Y-58539147D01*
X178915869Y-58062477D01*
X178918048Y-58060100D01*
X178937535Y-58039744D01*
X179513194Y-57438402D01*
X179515439Y-57436157D01*
X180137140Y-56841008D01*
X180139517Y-56838830D01*
X180165195Y-56816311D01*
X180786581Y-56271370D01*
X180789052Y-56269298D01*
X181460209Y-55730638D01*
X181462770Y-55728672D01*
X181886749Y-55417797D01*
X182156844Y-55219755D01*
X182159449Y-55217931D01*
X182655794Y-54886284D01*
X182875059Y-54739776D01*
X182877782Y-54738042D01*
X183245646Y-54514817D01*
X183613520Y-54291585D01*
X183616296Y-54289982D01*
X183858873Y-54156900D01*
X184370844Y-53876023D01*
X184373708Y-53874532D01*
X185084058Y-53524226D01*
X185145588Y-53493883D01*
X185148509Y-53492521D01*
X185168116Y-53483894D01*
X185936226Y-53145917D01*
X185939209Y-53144681D01*
X186741319Y-52832758D01*
X186744352Y-52831654D01*
X187151827Y-52693335D01*
X187559316Y-52555010D01*
X187562368Y-52554049D01*
X188388625Y-52313217D01*
X188391743Y-52312382D01*
X189227684Y-52107828D01*
X189230836Y-52107129D01*
X189427528Y-52068004D01*
X190074928Y-51939229D01*
X190078084Y-51938672D01*
X190928719Y-51807746D01*
X190931909Y-51807327D01*
X191787408Y-51713635D01*
X191790595Y-51713355D01*
X192649435Y-51657064D01*
X192652629Y-51656926D01*
X193513049Y-51638151D01*
X193516257Y-51638151D01*
X194376677Y-51656926D01*
G37*
%TD.AperFunction*%
%TD*%
M02*
