%TF.GenerationSoftware,KiCad,Pcbnew,(6.0.4)*%
%TF.CreationDate,2022-07-14T17:56:19+08:00*%
%TF.ProjectId,SmartKnob_Screen,536d6172-744b-46e6-9f62-5f5363726565,rev?*%
%TF.SameCoordinates,Original*%
%TF.FileFunction,Legend,Bot*%
%TF.FilePolarity,Positive*%
%FSLAX46Y46*%
G04 Gerber Fmt 4.6, Leading zero omitted, Abs format (unit mm)*
G04 Created by KiCad (PCBNEW (6.0.4)) date 2022-07-14 17:56:19*
%MOMM*%
%LPD*%
G01*
G04 APERTURE LIST*
%ADD10C,0.100000*%
%ADD11C,0.150000*%
%ADD12C,0.120000*%
G04 APERTURE END LIST*
D10*
%TO.C,R22*%
X198983632Y-103380515D02*
X198697918Y-103180515D01*
X198983632Y-103037658D02*
X198383632Y-103037658D01*
X198383632Y-103266230D01*
X198412204Y-103323372D01*
X198440775Y-103351944D01*
X198497918Y-103380515D01*
X198583632Y-103380515D01*
X198640775Y-103351944D01*
X198669346Y-103323372D01*
X198697918Y-103266230D01*
X198697918Y-103037658D01*
X198440775Y-103609087D02*
X198412204Y-103637658D01*
X198383632Y-103694801D01*
X198383632Y-103837658D01*
X198412204Y-103894801D01*
X198440775Y-103923372D01*
X198497918Y-103951944D01*
X198555061Y-103951944D01*
X198640775Y-103923372D01*
X198983632Y-103580515D01*
X198983632Y-103951944D01*
X198440775Y-104180515D02*
X198412204Y-104209087D01*
X198383632Y-104266230D01*
X198383632Y-104409087D01*
X198412204Y-104466230D01*
X198440775Y-104494801D01*
X198497918Y-104523372D01*
X198555061Y-104523372D01*
X198640775Y-104494801D01*
X198983632Y-104151944D01*
X198983632Y-104523372D01*
%TO.C,C16*%
X177679459Y-125935533D02*
X177679459Y-125895127D01*
X177639053Y-125814315D01*
X177598647Y-125773909D01*
X177517835Y-125733503D01*
X177437023Y-125733503D01*
X177376413Y-125753706D01*
X177275398Y-125814315D01*
X177214789Y-125874924D01*
X177154180Y-125975940D01*
X177133977Y-126036549D01*
X177133977Y-126117361D01*
X177174383Y-126198173D01*
X177214789Y-126238579D01*
X177295601Y-126278985D01*
X177336007Y-126278985D01*
X178123926Y-126299188D02*
X177881490Y-126056752D01*
X178002708Y-126177970D02*
X177578444Y-126602234D01*
X177598647Y-126501219D01*
X177598647Y-126420407D01*
X177578444Y-126359797D01*
X178063317Y-127087107D02*
X177982505Y-127006295D01*
X177962302Y-126945686D01*
X177962302Y-126905280D01*
X177982505Y-126804265D01*
X178043114Y-126703249D01*
X178204739Y-126541625D01*
X178265348Y-126521422D01*
X178305754Y-126521422D01*
X178366363Y-126541625D01*
X178447175Y-126622437D01*
X178467378Y-126683046D01*
X178467378Y-126723452D01*
X178447175Y-126784062D01*
X178346160Y-126885077D01*
X178285551Y-126905280D01*
X178245145Y-126905280D01*
X178184535Y-126885077D01*
X178103723Y-126804265D01*
X178083520Y-126743655D01*
X178083520Y-126703249D01*
X178103723Y-126642640D01*
D11*
%TO.C,U5*%
X192094108Y-100748610D02*
X192094108Y-101558134D01*
X192046489Y-101653372D01*
X191998870Y-101700991D01*
X191903632Y-101748610D01*
X191713156Y-101748610D01*
X191617918Y-101700991D01*
X191570299Y-101653372D01*
X191522680Y-101558134D01*
X191522680Y-100748610D01*
X190570299Y-100748610D02*
X191046489Y-100748610D01*
X191094108Y-101224801D01*
X191046489Y-101177182D01*
X190951251Y-101129563D01*
X190713156Y-101129563D01*
X190617918Y-101177182D01*
X190570299Y-101224801D01*
X190522680Y-101320039D01*
X190522680Y-101558134D01*
X190570299Y-101653372D01*
X190617918Y-101700991D01*
X190713156Y-101748610D01*
X190951251Y-101748610D01*
X191046489Y-101700991D01*
X191094108Y-101653372D01*
D10*
%TO.C,C14*%
X176979459Y-126635533D02*
X176979459Y-126595127D01*
X176939053Y-126514315D01*
X176898647Y-126473909D01*
X176817835Y-126433503D01*
X176737023Y-126433503D01*
X176676413Y-126453706D01*
X176575398Y-126514315D01*
X176514789Y-126574924D01*
X176454180Y-126675940D01*
X176433977Y-126736549D01*
X176433977Y-126817361D01*
X176474383Y-126898173D01*
X176514789Y-126938579D01*
X176595601Y-126978985D01*
X176636007Y-126978985D01*
X177423926Y-126999188D02*
X177181490Y-126756752D01*
X177302708Y-126877970D02*
X176878444Y-127302234D01*
X176898647Y-127201219D01*
X176898647Y-127120407D01*
X176878444Y-127059797D01*
X177504739Y-127645686D02*
X177787581Y-127362843D01*
X177242099Y-127706295D02*
X177444129Y-127302234D01*
X177706769Y-127564874D01*
D11*
%TO.C,J8*%
X182514182Y-125047752D02*
X183019258Y-124542676D01*
X183086602Y-124407989D01*
X183086602Y-124273302D01*
X183019258Y-124138615D01*
X182951915Y-124071272D01*
X183254961Y-125182439D02*
X183153945Y-125148768D01*
X183086602Y-125148768D01*
X182985587Y-125182439D01*
X182951915Y-125216111D01*
X182918243Y-125317126D01*
X182918243Y-125384470D01*
X182951915Y-125485485D01*
X183086602Y-125620172D01*
X183187617Y-125653844D01*
X183254961Y-125653844D01*
X183355976Y-125620172D01*
X183389648Y-125586500D01*
X183423319Y-125485485D01*
X183423319Y-125418142D01*
X183389648Y-125317126D01*
X183254961Y-125182439D01*
X183221289Y-125081424D01*
X183221289Y-125014081D01*
X183254961Y-124913065D01*
X183389648Y-124778378D01*
X183490663Y-124744707D01*
X183558006Y-124744707D01*
X183659022Y-124778378D01*
X183793709Y-124913065D01*
X183827380Y-125014081D01*
X183827380Y-125081424D01*
X183793709Y-125182439D01*
X183659022Y-125317126D01*
X183558006Y-125350798D01*
X183490663Y-125350798D01*
X183389648Y-125317126D01*
D12*
%TO.C,R22*%
X200664704Y-103528972D02*
X200664704Y-104003488D01*
X199619704Y-103528972D02*
X199619704Y-104003488D01*
%TO.C,C16*%
X178958803Y-128027040D02*
X178806300Y-127874537D01*
X179467920Y-127517923D02*
X179315417Y-127365420D01*
%TO.C,U5*%
X197907204Y-102341230D02*
X197907204Y-102941230D01*
X195032204Y-99751230D02*
X194832204Y-100151230D01*
X194632204Y-99751230D02*
X195032204Y-99751230D01*
X184757204Y-102341230D02*
X184757204Y-102941230D01*
X194832204Y-100151230D02*
X194632204Y-99751230D01*
X184867204Y-102341230D02*
X184757204Y-102341230D01*
X197797204Y-102341230D02*
X197907204Y-102341230D01*
%TO.C,C14*%
X178258803Y-128727040D02*
X178106300Y-128574537D01*
X178767920Y-128217923D02*
X178615417Y-128065420D01*
%TO.C,J8*%
X191089046Y-128456997D02*
X191873935Y-127672109D01*
X191873935Y-127672109D02*
X180461231Y-116259405D01*
X185068032Y-128814086D02*
X185651395Y-129397449D01*
X179676343Y-117044294D02*
X180401127Y-117769078D01*
X190364262Y-127732213D02*
X191089046Y-128456997D01*
X179319254Y-123065308D02*
X178046462Y-124338100D01*
X189982424Y-128114051D02*
X190364262Y-127732213D01*
X178735891Y-122481945D02*
X179319254Y-123065308D01*
X180401127Y-117769078D02*
X180019289Y-118150916D01*
X180461231Y-116259405D02*
X179676343Y-117044294D01*
%TD*%
M02*
