%TF.GenerationSoftware,KiCad,Pcbnew,(6.0.4)*%
%TF.CreationDate,2022-07-20T18:17:01+08:00*%
%TF.ProjectId,SmartKnob_Screen,536d6172-744b-46e6-9f62-5f5363726565,rev?*%
%TF.SameCoordinates,Original*%
%TF.FileFunction,Legend,Bot*%
%TF.FilePolarity,Positive*%
%FSLAX46Y46*%
G04 Gerber Fmt 4.6, Leading zero omitted, Abs format (unit mm)*
G04 Created by KiCad (PCBNEW (6.0.4)) date 2022-07-20 18:17:01*
%MOMM*%
%LPD*%
G01*
G04 APERTURE LIST*
%ADD10C,0.100000*%
%ADD11C,0.150000*%
%ADD12C,0.120000*%
G04 APERTURE END LIST*
D10*
%TO.C,R22*%
X200661175Y-58521901D02*
X200375461Y-58321901D01*
X200661175Y-58179044D02*
X200061175Y-58179044D01*
X200061175Y-58407616D01*
X200089747Y-58464758D01*
X200118318Y-58493330D01*
X200175461Y-58521901D01*
X200261175Y-58521901D01*
X200318318Y-58493330D01*
X200346889Y-58464758D01*
X200375461Y-58407616D01*
X200375461Y-58179044D01*
X200118318Y-58750473D02*
X200089747Y-58779044D01*
X200061175Y-58836187D01*
X200061175Y-58979044D01*
X200089747Y-59036187D01*
X200118318Y-59064758D01*
X200175461Y-59093330D01*
X200232604Y-59093330D01*
X200318318Y-59064758D01*
X200661175Y-58721901D01*
X200661175Y-59093330D01*
X200118318Y-59321901D02*
X200089747Y-59350473D01*
X200061175Y-59407616D01*
X200061175Y-59550473D01*
X200089747Y-59607616D01*
X200118318Y-59636187D01*
X200175461Y-59664758D01*
X200232604Y-59664758D01*
X200318318Y-59636187D01*
X200661175Y-59293330D01*
X200661175Y-59664758D01*
%TO.C,C16*%
X179357002Y-81076919D02*
X179357002Y-81036513D01*
X179316596Y-80955701D01*
X179276190Y-80915295D01*
X179195378Y-80874889D01*
X179114566Y-80874889D01*
X179053956Y-80895092D01*
X178952941Y-80955701D01*
X178892332Y-81016310D01*
X178831723Y-81117326D01*
X178811520Y-81177935D01*
X178811520Y-81258747D01*
X178851926Y-81339559D01*
X178892332Y-81379965D01*
X178973144Y-81420371D01*
X179013550Y-81420371D01*
X179801469Y-81440574D02*
X179559033Y-81198138D01*
X179680251Y-81319356D02*
X179255987Y-81743620D01*
X179276190Y-81642605D01*
X179276190Y-81561793D01*
X179255987Y-81501183D01*
X179740860Y-82228493D02*
X179660048Y-82147681D01*
X179639845Y-82087072D01*
X179639845Y-82046666D01*
X179660048Y-81945651D01*
X179720657Y-81844635D01*
X179882282Y-81683011D01*
X179942891Y-81662808D01*
X179983297Y-81662808D01*
X180043906Y-81683011D01*
X180124718Y-81763823D01*
X180144921Y-81824432D01*
X180144921Y-81864838D01*
X180124718Y-81925448D01*
X180023703Y-82026463D01*
X179963094Y-82046666D01*
X179922688Y-82046666D01*
X179862078Y-82026463D01*
X179781266Y-81945651D01*
X179761063Y-81885041D01*
X179761063Y-81844635D01*
X179781266Y-81784026D01*
D11*
%TO.C,U5*%
X193771651Y-55889996D02*
X193771651Y-56699520D01*
X193724032Y-56794758D01*
X193676413Y-56842377D01*
X193581175Y-56889996D01*
X193390699Y-56889996D01*
X193295461Y-56842377D01*
X193247842Y-56794758D01*
X193200223Y-56699520D01*
X193200223Y-55889996D01*
X192247842Y-55889996D02*
X192724032Y-55889996D01*
X192771651Y-56366187D01*
X192724032Y-56318568D01*
X192628794Y-56270949D01*
X192390699Y-56270949D01*
X192295461Y-56318568D01*
X192247842Y-56366187D01*
X192200223Y-56461425D01*
X192200223Y-56699520D01*
X192247842Y-56794758D01*
X192295461Y-56842377D01*
X192390699Y-56889996D01*
X192628794Y-56889996D01*
X192724032Y-56842377D01*
X192771651Y-56794758D01*
D10*
%TO.C,C14*%
X178657002Y-81776919D02*
X178657002Y-81736513D01*
X178616596Y-81655701D01*
X178576190Y-81615295D01*
X178495378Y-81574889D01*
X178414566Y-81574889D01*
X178353956Y-81595092D01*
X178252941Y-81655701D01*
X178192332Y-81716310D01*
X178131723Y-81817326D01*
X178111520Y-81877935D01*
X178111520Y-81958747D01*
X178151926Y-82039559D01*
X178192332Y-82079965D01*
X178273144Y-82120371D01*
X178313550Y-82120371D01*
X179101469Y-82140574D02*
X178859033Y-81898138D01*
X178980251Y-82019356D02*
X178555987Y-82443620D01*
X178576190Y-82342605D01*
X178576190Y-82261793D01*
X178555987Y-82201183D01*
X179182282Y-82787072D02*
X179465124Y-82504229D01*
X178919642Y-82847681D02*
X179121672Y-82443620D01*
X179384312Y-82706260D01*
D11*
%TO.C,J8*%
X184191725Y-80189138D02*
X184696801Y-79684062D01*
X184764145Y-79549375D01*
X184764145Y-79414688D01*
X184696801Y-79280001D01*
X184629458Y-79212658D01*
X184932504Y-80323825D02*
X184831488Y-80290154D01*
X184764145Y-80290154D01*
X184663130Y-80323825D01*
X184629458Y-80357497D01*
X184595786Y-80458512D01*
X184595786Y-80525856D01*
X184629458Y-80626871D01*
X184764145Y-80761558D01*
X184865160Y-80795230D01*
X184932504Y-80795230D01*
X185033519Y-80761558D01*
X185067191Y-80727886D01*
X185100862Y-80626871D01*
X185100862Y-80559528D01*
X185067191Y-80458512D01*
X184932504Y-80323825D01*
X184898832Y-80222810D01*
X184898832Y-80155467D01*
X184932504Y-80054451D01*
X185067191Y-79919764D01*
X185168206Y-79886093D01*
X185235549Y-79886093D01*
X185336565Y-79919764D01*
X185471252Y-80054451D01*
X185504923Y-80155467D01*
X185504923Y-80222810D01*
X185471252Y-80323825D01*
X185336565Y-80458512D01*
X185235549Y-80492184D01*
X185168206Y-80492184D01*
X185067191Y-80458512D01*
D12*
%TO.C,R22*%
X202342247Y-58670358D02*
X202342247Y-59144874D01*
X201297247Y-58670358D02*
X201297247Y-59144874D01*
%TO.C,C16*%
X180636346Y-83168426D02*
X180483843Y-83015923D01*
X181145463Y-82659309D02*
X180992960Y-82506806D01*
%TO.C,U5*%
X199584747Y-57482616D02*
X199584747Y-58082616D01*
X196709747Y-54892616D02*
X196509747Y-55292616D01*
X196309747Y-54892616D02*
X196709747Y-54892616D01*
X186434747Y-57482616D02*
X186434747Y-58082616D01*
X196509747Y-55292616D02*
X196309747Y-54892616D01*
X186544747Y-57482616D02*
X186434747Y-57482616D01*
X199474747Y-57482616D02*
X199584747Y-57482616D01*
%TO.C,C14*%
X179936346Y-83868426D02*
X179783843Y-83715923D01*
X180445463Y-83359309D02*
X180292960Y-83206806D01*
%TO.C,J8*%
X192766589Y-83598383D02*
X193551478Y-82813495D01*
X193551478Y-82813495D02*
X182138774Y-71400791D01*
X186745575Y-83955472D02*
X187328938Y-84538835D01*
X181353886Y-72185680D02*
X182078670Y-72910464D01*
X192041805Y-82873599D02*
X192766589Y-83598383D01*
X180996797Y-78206694D02*
X179724005Y-79479486D01*
X191659967Y-83255437D02*
X192041805Y-82873599D01*
X180413434Y-77623331D02*
X180996797Y-78206694D01*
X182078670Y-72910464D02*
X181696832Y-73292302D01*
X182138774Y-71400791D02*
X181353886Y-72185680D01*
%TD*%
M02*
