%TF.GenerationSoftware,KiCad,Pcbnew,(6.0.4)*%
%TF.CreationDate,2022-07-20T18:17:01+08:00*%
%TF.ProjectId,SmartKnob_Screen,536d6172-744b-46e6-9f62-5f5363726565,rev?*%
%TF.SameCoordinates,Original*%
%TF.FileFunction,Legend,Top*%
%TF.FilePolarity,Positive*%
%FSLAX46Y46*%
G04 Gerber Fmt 4.6, Leading zero omitted, Abs format (unit mm)*
G04 Created by KiCad (PCBNEW (6.0.4)) date 2022-07-20 18:17:01*
%MOMM*%
%LPD*%
G01*
G04 APERTURE LIST*
%ADD10C,0.150000*%
%ADD11C,0.300000*%
G04 APERTURE END LIST*
D10*
X192514653Y-81587616D02*
X194514653Y-81587616D01*
X194514653Y-81587616D02*
X194514653Y-90437616D01*
X194514653Y-90437616D02*
X192514653Y-90437616D01*
X192514653Y-90437616D02*
X192514653Y-81587616D01*
G36*
X192514653Y-81587616D02*
G01*
X194514653Y-81587616D01*
X194514653Y-90437616D01*
X192514653Y-90437616D01*
X192514653Y-81587616D01*
G37*
G36*
X197514653Y-81587616D02*
G01*
X189514653Y-81587616D01*
X193514653Y-77437616D01*
X197514653Y-81587616D01*
G37*
X197514653Y-81587616D02*
X189514653Y-81587616D01*
X193514653Y-77437616D01*
X197514653Y-81587616D01*
D11*
X184140843Y-62492377D02*
X184140843Y-60492377D01*
X184617033Y-60492377D01*
X184902748Y-60587616D01*
X185093224Y-60778092D01*
X185188462Y-60968568D01*
X185283700Y-61349520D01*
X185283700Y-61635235D01*
X185188462Y-62016187D01*
X185093224Y-62206663D01*
X184902748Y-62397139D01*
X184617033Y-62492377D01*
X184140843Y-62492377D01*
X186140843Y-62492377D02*
X186140843Y-61159044D01*
X186140843Y-60492377D02*
X186045605Y-60587616D01*
X186140843Y-60682854D01*
X186236081Y-60587616D01*
X186140843Y-60492377D01*
X186140843Y-60682854D01*
X186997986Y-62397139D02*
X187188462Y-62492377D01*
X187569414Y-62492377D01*
X187759891Y-62397139D01*
X187855129Y-62206663D01*
X187855129Y-62111425D01*
X187759891Y-61920949D01*
X187569414Y-61825711D01*
X187283700Y-61825711D01*
X187093224Y-61730473D01*
X186997986Y-61539996D01*
X186997986Y-61444758D01*
X187093224Y-61254282D01*
X187283700Y-61159044D01*
X187569414Y-61159044D01*
X187759891Y-61254282D01*
X188712272Y-61159044D02*
X188712272Y-63159044D01*
X188712272Y-61254282D02*
X188902748Y-61159044D01*
X189283700Y-61159044D01*
X189474176Y-61254282D01*
X189569414Y-61349520D01*
X189664653Y-61539996D01*
X189664653Y-62111425D01*
X189569414Y-62301901D01*
X189474176Y-62397139D01*
X189283700Y-62492377D01*
X188902748Y-62492377D01*
X188712272Y-62397139D01*
X190807510Y-62492377D02*
X190617033Y-62397139D01*
X190521795Y-62206663D01*
X190521795Y-60492377D01*
X192426557Y-62492377D02*
X192426557Y-61444758D01*
X192331319Y-61254282D01*
X192140843Y-61159044D01*
X191759891Y-61159044D01*
X191569414Y-61254282D01*
X192426557Y-62397139D02*
X192236081Y-62492377D01*
X191759891Y-62492377D01*
X191569414Y-62397139D01*
X191474176Y-62206663D01*
X191474176Y-62016187D01*
X191569414Y-61825711D01*
X191759891Y-61730473D01*
X192236081Y-61730473D01*
X192426557Y-61635235D01*
X193188462Y-61159044D02*
X193664653Y-62492377D01*
X194140843Y-61159044D02*
X193664653Y-62492377D01*
X193474176Y-62968568D01*
X193378938Y-63063806D01*
X193188462Y-63159044D01*
X197093224Y-61444758D02*
X196426557Y-61444758D01*
X196426557Y-62492377D02*
X196426557Y-60492377D01*
X197378938Y-60492377D01*
X198140843Y-62492377D02*
X198140843Y-61159044D01*
X198140843Y-61539996D02*
X198236081Y-61349520D01*
X198331319Y-61254282D01*
X198521795Y-61159044D01*
X198712272Y-61159044D01*
X199664653Y-62492377D02*
X199474176Y-62397139D01*
X199378938Y-62301901D01*
X199283700Y-62111425D01*
X199283700Y-61539996D01*
X199378938Y-61349520D01*
X199474176Y-61254282D01*
X199664653Y-61159044D01*
X199950367Y-61159044D01*
X200140843Y-61254282D01*
X200236081Y-61349520D01*
X200331319Y-61539996D01*
X200331319Y-62111425D01*
X200236081Y-62301901D01*
X200140843Y-62397139D01*
X199950367Y-62492377D01*
X199664653Y-62492377D01*
X201188462Y-61159044D02*
X201188462Y-62492377D01*
X201188462Y-61349520D02*
X201283700Y-61254282D01*
X201474176Y-61159044D01*
X201759891Y-61159044D01*
X201950367Y-61254282D01*
X202045605Y-61444758D01*
X202045605Y-62492377D01*
X202712272Y-61159044D02*
X203474176Y-61159044D01*
X202997986Y-60492377D02*
X202997986Y-62206663D01*
X203093224Y-62397139D01*
X203283700Y-62492377D01*
X203474176Y-62492377D01*
D10*
%TO.C,H7*%
X204707842Y-71959996D02*
X204707842Y-70959996D01*
X204707842Y-71436187D02*
X205279270Y-71436187D01*
X205279270Y-71959996D02*
X205279270Y-70959996D01*
X205660223Y-70959996D02*
X206326889Y-70959996D01*
X205898318Y-71959996D01*
%TD*%
M02*
