G04 #@! TF.GenerationSoftware,KiCad,Pcbnew,(5.99.0-12889-g70df3822b5)*
G04 #@! TF.CreationDate,2021-11-17T17:44:22+08:00*
G04 #@! TF.ProjectId,PowerSupply,506f7765-7253-4757-9070-6c792e6b6963,rev?*
G04 #@! TF.SameCoordinates,PX5e56640PY77750e0*
G04 #@! TF.FileFunction,Paste,Bot*
G04 #@! TF.FilePolarity,Positive*
%FSLAX46Y46*%
G04 Gerber Fmt 4.6, Leading zero omitted, Abs format (unit mm)*
G04 Created by KiCad (PCBNEW (5.99.0-12889-g70df3822b5)) date 2021-11-17 17:44:22*
%MOMM*%
%LPD*%
G01*
G04 APERTURE LIST*
G04 Aperture macros list*
%AMRoundRect*
0 Rectangle with rounded corners*
0 $1 Rounding radius*
0 $2 $3 $4 $5 $6 $7 $8 $9 X,Y pos of 4 corners*
0 Add a 4 corners polygon primitive as box body*
4,1,4,$2,$3,$4,$5,$6,$7,$8,$9,$2,$3,0*
0 Add four circle primitives for the rounded corners*
1,1,$1+$1,$2,$3*
1,1,$1+$1,$4,$5*
1,1,$1+$1,$6,$7*
1,1,$1+$1,$8,$9*
0 Add four rect primitives between the rounded corners*
20,1,$1+$1,$2,$3,$4,$5,0*
20,1,$1+$1,$4,$5,$6,$7,0*
20,1,$1+$1,$6,$7,$8,$9,0*
20,1,$1+$1,$8,$9,$2,$3,0*%
G04 Aperture macros list end*
%ADD10C,0.010000*%
%ADD11R,0.240000X0.600000*%
%ADD12R,0.600000X0.240000*%
%ADD13R,0.240000X0.990000*%
%ADD14R,0.517500X0.427500*%
%ADD15R,0.300000X1.300000*%
%ADD16R,1.800000X2.200000*%
%ADD17RoundRect,0.140000X-0.140000X-0.170000X0.140000X-0.170000X0.140000X0.170000X-0.140000X0.170000X0*%
%ADD18RoundRect,0.140000X0.170000X-0.140000X0.170000X0.140000X-0.170000X0.140000X-0.170000X-0.140000X0*%
%ADD19RoundRect,0.225000X0.250000X-0.225000X0.250000X0.225000X-0.250000X0.225000X-0.250000X-0.225000X0*%
%ADD20RoundRect,0.140000X0.140000X0.170000X-0.140000X0.170000X-0.140000X-0.170000X0.140000X-0.170000X0*%
%ADD21RoundRect,0.140000X-0.170000X0.140000X-0.170000X-0.140000X0.170000X-0.140000X0.170000X0.140000X0*%
%ADD22R,1.900000X2.500000*%
%ADD23RoundRect,0.135000X-0.135000X-0.185000X0.135000X-0.185000X0.135000X0.185000X-0.135000X0.185000X0*%
%ADD24RoundRect,0.135000X0.135000X0.185000X-0.135000X0.185000X-0.135000X-0.185000X0.135000X-0.185000X0*%
%ADD25RoundRect,0.135000X0.185000X-0.135000X0.185000X0.135000X-0.185000X0.135000X-0.185000X-0.135000X0*%
%ADD26RoundRect,0.135000X-0.185000X0.135000X-0.185000X-0.135000X0.185000X-0.135000X0.185000X0.135000X0*%
%ADD27R,1.340000X0.490000*%
%ADD28RoundRect,0.225000X0.225000X0.250000X-0.225000X0.250000X-0.225000X-0.250000X0.225000X-0.250000X0*%
%ADD29RoundRect,0.225000X-0.225000X-0.250000X0.225000X-0.250000X0.225000X0.250000X-0.225000X0.250000X0*%
%ADD30R,2.500000X1.900000*%
%ADD31RoundRect,0.275000X-3.225000X-0.275000X3.225000X-0.275000X3.225000X0.275000X-3.225000X0.275000X0*%
%ADD32RoundRect,0.275000X0.275000X-3.225000X0.275000X3.225000X-0.275000X3.225000X-0.275000X-3.225000X0*%
G04 APERTURE END LIST*
D10*
G04 #@! TO.C,U1*
X58090000Y26945000D02*
X57170000Y26945000D01*
X57170000Y26945000D02*
X57170000Y27795000D01*
X57170000Y27795000D02*
X58090000Y27795000D01*
X58090000Y27795000D02*
X58090000Y26945000D01*
G36*
X58090000Y26945000D02*
G01*
X57170000Y26945000D01*
X57170000Y27795000D01*
X58090000Y27795000D01*
X58090000Y26945000D01*
G37*
X58090000Y26945000D02*
X57170000Y26945000D01*
X57170000Y27795000D01*
X58090000Y27795000D01*
X58090000Y26945000D01*
X56970000Y25895000D02*
X56050000Y25895000D01*
X56050000Y25895000D02*
X56050000Y26745000D01*
X56050000Y26745000D02*
X56970000Y26745000D01*
X56970000Y26745000D02*
X56970000Y25895000D01*
G36*
X56970000Y25895000D02*
G01*
X56050000Y25895000D01*
X56050000Y26745000D01*
X56970000Y26745000D01*
X56970000Y25895000D01*
G37*
X56970000Y25895000D02*
X56050000Y25895000D01*
X56050000Y26745000D01*
X56970000Y26745000D01*
X56970000Y25895000D01*
X58090000Y25895000D02*
X57170000Y25895000D01*
X57170000Y25895000D02*
X57170000Y26745000D01*
X57170000Y26745000D02*
X58090000Y26745000D01*
X58090000Y26745000D02*
X58090000Y25895000D01*
G36*
X58090000Y25895000D02*
G01*
X57170000Y25895000D01*
X57170000Y26745000D01*
X58090000Y26745000D01*
X58090000Y25895000D01*
G37*
X58090000Y25895000D02*
X57170000Y25895000D01*
X57170000Y26745000D01*
X58090000Y26745000D01*
X58090000Y25895000D01*
X56970000Y24845000D02*
X56050000Y24845000D01*
X56050000Y24845000D02*
X56050000Y25695000D01*
X56050000Y25695000D02*
X56970000Y25695000D01*
X56970000Y25695000D02*
X56970000Y24845000D01*
G36*
X56970000Y24845000D02*
G01*
X56050000Y24845000D01*
X56050000Y25695000D01*
X56970000Y25695000D01*
X56970000Y24845000D01*
G37*
X56970000Y24845000D02*
X56050000Y24845000D01*
X56050000Y25695000D01*
X56970000Y25695000D01*
X56970000Y24845000D01*
X56695000Y24645000D02*
X56695000Y23920000D01*
X56695000Y23920000D02*
X56695069Y23917383D01*
X56695069Y23917383D02*
X56695274Y23914774D01*
X56695274Y23914774D02*
X56695616Y23912178D01*
X56695616Y23912178D02*
X56696093Y23909604D01*
X56696093Y23909604D02*
X56696704Y23907059D01*
X56696704Y23907059D02*
X56697447Y23904549D01*
X56697447Y23904549D02*
X56698321Y23902082D01*
X56698321Y23902082D02*
X56699323Y23899663D01*
X56699323Y23899663D02*
X56700450Y23897300D01*
X56700450Y23897300D02*
X56701699Y23895000D01*
X56701699Y23895000D02*
X56703066Y23892768D01*
X56703066Y23892768D02*
X56704549Y23890611D01*
X56704549Y23890611D02*
X56706143Y23888534D01*
X56706143Y23888534D02*
X56707843Y23886543D01*
X56707843Y23886543D02*
X56709645Y23884645D01*
X56709645Y23884645D02*
X56711543Y23882843D01*
X56711543Y23882843D02*
X56713534Y23881143D01*
X56713534Y23881143D02*
X56715611Y23879549D01*
X56715611Y23879549D02*
X56717768Y23878066D01*
X56717768Y23878066D02*
X56720000Y23876699D01*
X56720000Y23876699D02*
X56722300Y23875450D01*
X56722300Y23875450D02*
X56724663Y23874323D01*
X56724663Y23874323D02*
X56727082Y23873321D01*
X56727082Y23873321D02*
X56729549Y23872447D01*
X56729549Y23872447D02*
X56732059Y23871704D01*
X56732059Y23871704D02*
X56734604Y23871093D01*
X56734604Y23871093D02*
X56737178Y23870616D01*
X56737178Y23870616D02*
X56739774Y23870274D01*
X56739774Y23870274D02*
X56742383Y23870069D01*
X56742383Y23870069D02*
X56745000Y23870000D01*
X56745000Y23870000D02*
X56845000Y23870000D01*
X56845000Y23870000D02*
X56847617Y23870069D01*
X56847617Y23870069D02*
X56850226Y23870274D01*
X56850226Y23870274D02*
X56852822Y23870616D01*
X56852822Y23870616D02*
X56855396Y23871093D01*
X56855396Y23871093D02*
X56857941Y23871704D01*
X56857941Y23871704D02*
X56860451Y23872447D01*
X56860451Y23872447D02*
X56862918Y23873321D01*
X56862918Y23873321D02*
X56865337Y23874323D01*
X56865337Y23874323D02*
X56867700Y23875450D01*
X56867700Y23875450D02*
X56870000Y23876699D01*
X56870000Y23876699D02*
X56872232Y23878066D01*
X56872232Y23878066D02*
X56874389Y23879549D01*
X56874389Y23879549D02*
X56876466Y23881143D01*
X56876466Y23881143D02*
X56878457Y23882843D01*
X56878457Y23882843D02*
X56880355Y23884645D01*
X56880355Y23884645D02*
X56882157Y23886543D01*
X56882157Y23886543D02*
X56883857Y23888534D01*
X56883857Y23888534D02*
X56885451Y23890611D01*
X56885451Y23890611D02*
X56886934Y23892768D01*
X56886934Y23892768D02*
X56888301Y23895000D01*
X56888301Y23895000D02*
X56889550Y23897300D01*
X56889550Y23897300D02*
X56890677Y23899663D01*
X56890677Y23899663D02*
X56891679Y23902082D01*
X56891679Y23902082D02*
X56892553Y23904549D01*
X56892553Y23904549D02*
X56893296Y23907059D01*
X56893296Y23907059D02*
X56893907Y23909604D01*
X56893907Y23909604D02*
X56894384Y23912178D01*
X56894384Y23912178D02*
X56894726Y23914774D01*
X56894726Y23914774D02*
X56894931Y23917383D01*
X56894931Y23917383D02*
X56895000Y23920000D01*
X56895000Y23920000D02*
X56895000Y24395000D01*
X56895000Y24395000D02*
X57245000Y24395000D01*
X57245000Y24395000D02*
X57245000Y23920000D01*
X57245000Y23920000D02*
X57245069Y23917383D01*
X57245069Y23917383D02*
X57245274Y23914774D01*
X57245274Y23914774D02*
X57245616Y23912178D01*
X57245616Y23912178D02*
X57246093Y23909604D01*
X57246093Y23909604D02*
X57246704Y23907059D01*
X57246704Y23907059D02*
X57247447Y23904549D01*
X57247447Y23904549D02*
X57248321Y23902082D01*
X57248321Y23902082D02*
X57249323Y23899663D01*
X57249323Y23899663D02*
X57250450Y23897300D01*
X57250450Y23897300D02*
X57251699Y23895000D01*
X57251699Y23895000D02*
X57253066Y23892768D01*
X57253066Y23892768D02*
X57254549Y23890611D01*
X57254549Y23890611D02*
X57256143Y23888534D01*
X57256143Y23888534D02*
X57257843Y23886543D01*
X57257843Y23886543D02*
X57259645Y23884645D01*
X57259645Y23884645D02*
X57261543Y23882843D01*
X57261543Y23882843D02*
X57263534Y23881143D01*
X57263534Y23881143D02*
X57265611Y23879549D01*
X57265611Y23879549D02*
X57267768Y23878066D01*
X57267768Y23878066D02*
X57270000Y23876699D01*
X57270000Y23876699D02*
X57272300Y23875450D01*
X57272300Y23875450D02*
X57274663Y23874323D01*
X57274663Y23874323D02*
X57277082Y23873321D01*
X57277082Y23873321D02*
X57279549Y23872447D01*
X57279549Y23872447D02*
X57282059Y23871704D01*
X57282059Y23871704D02*
X57284604Y23871093D01*
X57284604Y23871093D02*
X57287178Y23870616D01*
X57287178Y23870616D02*
X57289774Y23870274D01*
X57289774Y23870274D02*
X57292383Y23870069D01*
X57292383Y23870069D02*
X57295000Y23870000D01*
X57295000Y23870000D02*
X57395000Y23870000D01*
X57395000Y23870000D02*
X57397617Y23870069D01*
X57397617Y23870069D02*
X57400226Y23870274D01*
X57400226Y23870274D02*
X57402822Y23870616D01*
X57402822Y23870616D02*
X57405396Y23871093D01*
X57405396Y23871093D02*
X57407941Y23871704D01*
X57407941Y23871704D02*
X57410451Y23872447D01*
X57410451Y23872447D02*
X57412918Y23873321D01*
X57412918Y23873321D02*
X57415337Y23874323D01*
X57415337Y23874323D02*
X57417700Y23875450D01*
X57417700Y23875450D02*
X57420000Y23876699D01*
X57420000Y23876699D02*
X57422232Y23878066D01*
X57422232Y23878066D02*
X57424389Y23879549D01*
X57424389Y23879549D02*
X57426466Y23881143D01*
X57426466Y23881143D02*
X57428457Y23882843D01*
X57428457Y23882843D02*
X57430355Y23884645D01*
X57430355Y23884645D02*
X57432157Y23886543D01*
X57432157Y23886543D02*
X57433857Y23888534D01*
X57433857Y23888534D02*
X57435451Y23890611D01*
X57435451Y23890611D02*
X57436934Y23892768D01*
X57436934Y23892768D02*
X57438301Y23895000D01*
X57438301Y23895000D02*
X57439550Y23897300D01*
X57439550Y23897300D02*
X57440677Y23899663D01*
X57440677Y23899663D02*
X57441679Y23902082D01*
X57441679Y23902082D02*
X57442553Y23904549D01*
X57442553Y23904549D02*
X57443296Y23907059D01*
X57443296Y23907059D02*
X57443907Y23909604D01*
X57443907Y23909604D02*
X57444384Y23912178D01*
X57444384Y23912178D02*
X57444726Y23914774D01*
X57444726Y23914774D02*
X57444931Y23917383D01*
X57444931Y23917383D02*
X57445000Y23920000D01*
X57445000Y23920000D02*
X57445000Y24645000D01*
X57445000Y24645000D02*
X56695000Y24645000D01*
X56695000Y24645000D02*
X56695000Y24645000D01*
G36*
X57445000Y23920000D02*
G01*
X57444931Y23917383D01*
X57444726Y23914774D01*
X57444384Y23912178D01*
X57443907Y23909604D01*
X57443296Y23907059D01*
X57442553Y23904549D01*
X57441679Y23902082D01*
X57440677Y23899663D01*
X57439550Y23897300D01*
X57438301Y23895000D01*
X57436934Y23892768D01*
X57435451Y23890611D01*
X57433857Y23888534D01*
X57432157Y23886543D01*
X57430355Y23884645D01*
X57428457Y23882843D01*
X57426466Y23881143D01*
X57424389Y23879549D01*
X57422232Y23878066D01*
X57420000Y23876699D01*
X57417700Y23875450D01*
X57415337Y23874323D01*
X57412918Y23873321D01*
X57410451Y23872447D01*
X57407941Y23871704D01*
X57405396Y23871093D01*
X57402822Y23870616D01*
X57400226Y23870274D01*
X57397617Y23870069D01*
X57395000Y23870000D01*
X57295000Y23870000D01*
X57292383Y23870069D01*
X57289774Y23870274D01*
X57287178Y23870616D01*
X57284604Y23871093D01*
X57282059Y23871704D01*
X57279549Y23872447D01*
X57277082Y23873321D01*
X57274663Y23874323D01*
X57272300Y23875450D01*
X57270000Y23876699D01*
X57267768Y23878066D01*
X57265611Y23879549D01*
X57263534Y23881143D01*
X57261543Y23882843D01*
X57259645Y23884645D01*
X57257843Y23886543D01*
X57256143Y23888534D01*
X57254549Y23890611D01*
X57253066Y23892768D01*
X57251699Y23895000D01*
X57250450Y23897300D01*
X57249323Y23899663D01*
X57248321Y23902082D01*
X57247447Y23904549D01*
X57246704Y23907059D01*
X57246093Y23909604D01*
X57245616Y23912178D01*
X57245274Y23914774D01*
X57245069Y23917383D01*
X57245000Y23920000D01*
X57245000Y24395000D01*
X56895000Y24395000D01*
X56895000Y23920000D01*
X56894931Y23917383D01*
X56894726Y23914774D01*
X56894384Y23912178D01*
X56893907Y23909604D01*
X56893296Y23907059D01*
X56892553Y23904549D01*
X56891679Y23902082D01*
X56890677Y23899663D01*
X56889550Y23897300D01*
X56888301Y23895000D01*
X56886934Y23892768D01*
X56885451Y23890611D01*
X56883857Y23888534D01*
X56882157Y23886543D01*
X56880355Y23884645D01*
X56878457Y23882843D01*
X56876466Y23881143D01*
X56874389Y23879549D01*
X56872232Y23878066D01*
X56870000Y23876699D01*
X56867700Y23875450D01*
X56865337Y23874323D01*
X56862918Y23873321D01*
X56860451Y23872447D01*
X56857941Y23871704D01*
X56855396Y23871093D01*
X56852822Y23870616D01*
X56850226Y23870274D01*
X56847617Y23870069D01*
X56845000Y23870000D01*
X56745000Y23870000D01*
X56742383Y23870069D01*
X56739774Y23870274D01*
X56737178Y23870616D01*
X56734604Y23871093D01*
X56732059Y23871704D01*
X56729549Y23872447D01*
X56727082Y23873321D01*
X56724663Y23874323D01*
X56722300Y23875450D01*
X56720000Y23876699D01*
X56717768Y23878066D01*
X56715611Y23879549D01*
X56713534Y23881143D01*
X56711543Y23882843D01*
X56709645Y23884645D01*
X56707843Y23886543D01*
X56706143Y23888534D01*
X56704549Y23890611D01*
X56703066Y23892768D01*
X56701699Y23895000D01*
X56700450Y23897300D01*
X56699323Y23899663D01*
X56698321Y23902082D01*
X56697447Y23904549D01*
X56696704Y23907059D01*
X56696093Y23909604D01*
X56695616Y23912178D01*
X56695274Y23914774D01*
X56695069Y23917383D01*
X56695000Y23920000D01*
X56695000Y24645000D01*
X57445000Y24645000D01*
X57445000Y23920000D01*
G37*
X57445000Y23920000D02*
X57444931Y23917383D01*
X57444726Y23914774D01*
X57444384Y23912178D01*
X57443907Y23909604D01*
X57443296Y23907059D01*
X57442553Y23904549D01*
X57441679Y23902082D01*
X57440677Y23899663D01*
X57439550Y23897300D01*
X57438301Y23895000D01*
X57436934Y23892768D01*
X57435451Y23890611D01*
X57433857Y23888534D01*
X57432157Y23886543D01*
X57430355Y23884645D01*
X57428457Y23882843D01*
X57426466Y23881143D01*
X57424389Y23879549D01*
X57422232Y23878066D01*
X57420000Y23876699D01*
X57417700Y23875450D01*
X57415337Y23874323D01*
X57412918Y23873321D01*
X57410451Y23872447D01*
X57407941Y23871704D01*
X57405396Y23871093D01*
X57402822Y23870616D01*
X57400226Y23870274D01*
X57397617Y23870069D01*
X57395000Y23870000D01*
X57295000Y23870000D01*
X57292383Y23870069D01*
X57289774Y23870274D01*
X57287178Y23870616D01*
X57284604Y23871093D01*
X57282059Y23871704D01*
X57279549Y23872447D01*
X57277082Y23873321D01*
X57274663Y23874323D01*
X57272300Y23875450D01*
X57270000Y23876699D01*
X57267768Y23878066D01*
X57265611Y23879549D01*
X57263534Y23881143D01*
X57261543Y23882843D01*
X57259645Y23884645D01*
X57257843Y23886543D01*
X57256143Y23888534D01*
X57254549Y23890611D01*
X57253066Y23892768D01*
X57251699Y23895000D01*
X57250450Y23897300D01*
X57249323Y23899663D01*
X57248321Y23902082D01*
X57247447Y23904549D01*
X57246704Y23907059D01*
X57246093Y23909604D01*
X57245616Y23912178D01*
X57245274Y23914774D01*
X57245069Y23917383D01*
X57245000Y23920000D01*
X57245000Y24395000D01*
X56895000Y24395000D01*
X56895000Y23920000D01*
X56894931Y23917383D01*
X56894726Y23914774D01*
X56894384Y23912178D01*
X56893907Y23909604D01*
X56893296Y23907059D01*
X56892553Y23904549D01*
X56891679Y23902082D01*
X56890677Y23899663D01*
X56889550Y23897300D01*
X56888301Y23895000D01*
X56886934Y23892768D01*
X56885451Y23890611D01*
X56883857Y23888534D01*
X56882157Y23886543D01*
X56880355Y23884645D01*
X56878457Y23882843D01*
X56876466Y23881143D01*
X56874389Y23879549D01*
X56872232Y23878066D01*
X56870000Y23876699D01*
X56867700Y23875450D01*
X56865337Y23874323D01*
X56862918Y23873321D01*
X56860451Y23872447D01*
X56857941Y23871704D01*
X56855396Y23871093D01*
X56852822Y23870616D01*
X56850226Y23870274D01*
X56847617Y23870069D01*
X56845000Y23870000D01*
X56745000Y23870000D01*
X56742383Y23870069D01*
X56739774Y23870274D01*
X56737178Y23870616D01*
X56734604Y23871093D01*
X56732059Y23871704D01*
X56729549Y23872447D01*
X56727082Y23873321D01*
X56724663Y23874323D01*
X56722300Y23875450D01*
X56720000Y23876699D01*
X56717768Y23878066D01*
X56715611Y23879549D01*
X56713534Y23881143D01*
X56711543Y23882843D01*
X56709645Y23884645D01*
X56707843Y23886543D01*
X56706143Y23888534D01*
X56704549Y23890611D01*
X56703066Y23892768D01*
X56701699Y23895000D01*
X56700450Y23897300D01*
X56699323Y23899663D01*
X56698321Y23902082D01*
X56697447Y23904549D01*
X56696704Y23907059D01*
X56696093Y23909604D01*
X56695616Y23912178D01*
X56695274Y23914774D01*
X56695069Y23917383D01*
X56695000Y23920000D01*
X56695000Y24645000D01*
X57445000Y24645000D01*
X57445000Y23920000D01*
X56970000Y26945000D02*
X56050000Y26945000D01*
X56050000Y26945000D02*
X56050000Y27795000D01*
X56050000Y27795000D02*
X56970000Y27795000D01*
X56970000Y27795000D02*
X56970000Y26945000D01*
G36*
X56970000Y26945000D02*
G01*
X56050000Y26945000D01*
X56050000Y27795000D01*
X56970000Y27795000D01*
X56970000Y26945000D01*
G37*
X56970000Y26945000D02*
X56050000Y26945000D01*
X56050000Y27795000D01*
X56970000Y27795000D01*
X56970000Y26945000D01*
X58090000Y24845000D02*
X57170000Y24845000D01*
X57170000Y24845000D02*
X57170000Y25695000D01*
X57170000Y25695000D02*
X58090000Y25695000D01*
X58090000Y25695000D02*
X58090000Y24845000D01*
G36*
X58090000Y24845000D02*
G01*
X57170000Y24845000D01*
X57170000Y25695000D01*
X58090000Y25695000D01*
X58090000Y24845000D01*
G37*
X58090000Y24845000D02*
X57170000Y24845000D01*
X57170000Y25695000D01*
X58090000Y25695000D01*
X58090000Y24845000D01*
G04 #@! TD*
D11*
G04 #@! TO.C,U1*
X57820000Y28470000D03*
D12*
X58720000Y28070000D03*
X58720000Y27570000D03*
X58720000Y27070000D03*
X58720000Y26570000D03*
X58720000Y26070000D03*
X58720000Y25570000D03*
X58720000Y25070000D03*
X58720000Y24570000D03*
D11*
X57820000Y24170000D03*
X56320000Y24170000D03*
D12*
X55420000Y24570000D03*
X55420000Y25070000D03*
X55420000Y25570000D03*
X55420000Y26070000D03*
X55420000Y26570000D03*
X55420000Y27070000D03*
X55420000Y27570000D03*
X55420000Y28070000D03*
D11*
X56320000Y28470000D03*
D13*
X57340000Y24360000D03*
D14*
X57070000Y24580000D03*
D13*
X56790000Y28275000D03*
D14*
X57070000Y28040000D03*
D13*
X57340000Y28275000D03*
X56790000Y24360000D03*
G04 #@! TD*
D15*
G04 #@! TO.C,J1*
X59420000Y16605000D03*
X58920000Y16605000D03*
X58420000Y16605000D03*
X57920000Y16605000D03*
X57420000Y16605000D03*
X56920000Y16605000D03*
X56420000Y16605000D03*
X55920000Y16605000D03*
X55420000Y16605000D03*
X54920000Y16605000D03*
X54420000Y16605000D03*
X53920000Y16605000D03*
X53420000Y16605000D03*
X52920000Y16605000D03*
D16*
X51020000Y13355000D03*
X61320000Y13355000D03*
G04 #@! TD*
D17*
G04 #@! TO.C,C7*
X44440000Y23800000D03*
X45400000Y23800000D03*
G04 #@! TD*
G04 #@! TO.C,C8*
X34440000Y23810000D03*
X35400000Y23810000D03*
G04 #@! TD*
D18*
G04 #@! TO.C,C10*
X52040000Y28310000D03*
X52040000Y29270000D03*
G04 #@! TD*
G04 #@! TO.C,C12*
X42230000Y28310000D03*
X42230000Y29270000D03*
G04 #@! TD*
D19*
G04 #@! TO.C,C13*
X46105000Y20205000D03*
X46105000Y21755000D03*
G04 #@! TD*
G04 #@! TO.C,C14*
X45045000Y20205000D03*
X45045000Y21755000D03*
G04 #@! TD*
G04 #@! TO.C,C15*
X36200000Y20175000D03*
X36200000Y21725000D03*
G04 #@! TD*
G04 #@! TO.C,C16*
X35140000Y20175000D03*
X35140000Y21725000D03*
G04 #@! TD*
D20*
G04 #@! TO.C,C17*
X45400000Y26560000D03*
X44440000Y26560000D03*
G04 #@! TD*
G04 #@! TO.C,C18*
X35400000Y26550000D03*
X34440000Y26550000D03*
G04 #@! TD*
D21*
G04 #@! TO.C,C19*
X49360001Y29270000D03*
X49360001Y28310000D03*
G04 #@! TD*
G04 #@! TO.C,C20*
X39400001Y29270000D03*
X39400001Y28310000D03*
G04 #@! TD*
D18*
G04 #@! TO.C,C21*
X50219999Y28310000D03*
X50219999Y29270000D03*
G04 #@! TD*
G04 #@! TO.C,C22*
X40340000Y28310000D03*
X40340000Y29270000D03*
G04 #@! TD*
D17*
G04 #@! TO.C,C23*
X24570000Y23790000D03*
X25530000Y23790000D03*
G04 #@! TD*
G04 #@! TO.C,C24*
X14210000Y23790000D03*
X15170000Y23790000D03*
G04 #@! TD*
D18*
G04 #@! TO.C,C26*
X32370000Y28310000D03*
X32370000Y29270000D03*
G04 #@! TD*
G04 #@! TO.C,C28*
X22030000Y28310000D03*
X22030000Y29270000D03*
G04 #@! TD*
D19*
G04 #@! TO.C,C29*
X25204999Y20175000D03*
X25204999Y21725000D03*
G04 #@! TD*
G04 #@! TO.C,C30*
X26280000Y20175000D03*
X26280000Y21725000D03*
G04 #@! TD*
G04 #@! TO.C,C31*
X15805000Y20175000D03*
X15805000Y21725000D03*
G04 #@! TD*
G04 #@! TO.C,C32*
X14755001Y20175000D03*
X14755001Y21725000D03*
G04 #@! TD*
D20*
G04 #@! TO.C,C33*
X25530000Y27410000D03*
X24570000Y27410000D03*
G04 #@! TD*
G04 #@! TO.C,C34*
X15170000Y26580000D03*
X14210000Y26580000D03*
G04 #@! TD*
D21*
G04 #@! TO.C,C35*
X29540001Y29270000D03*
X29540001Y28310000D03*
G04 #@! TD*
G04 #@! TO.C,C36*
X19310001Y29270000D03*
X19310001Y28310000D03*
G04 #@! TD*
D18*
G04 #@! TO.C,C37*
X31450000Y28310000D03*
X31450000Y29270000D03*
G04 #@! TD*
G04 #@! TO.C,C38*
X20210000Y28300000D03*
X20210000Y29260000D03*
G04 #@! TD*
D22*
G04 #@! TO.C,L3*
X47880000Y20350000D03*
X51980000Y20350000D03*
G04 #@! TD*
G04 #@! TO.C,L4*
X42490000Y20460000D03*
X38390000Y20460000D03*
G04 #@! TD*
G04 #@! TO.C,L5*
X32620000Y20460000D03*
X28520000Y20460000D03*
G04 #@! TD*
G04 #@! TO.C,L6*
X22180000Y20460000D03*
X18080000Y20460000D03*
G04 #@! TD*
D23*
G04 #@! TO.C,R3*
X44410000Y25640000D03*
X45430000Y25640000D03*
G04 #@! TD*
G04 #@! TO.C,R4*
X34410000Y25640000D03*
X35430000Y25640000D03*
G04 #@! TD*
D24*
G04 #@! TO.C,R5*
X45430000Y24710000D03*
X44410000Y24710000D03*
G04 #@! TD*
G04 #@! TO.C,R6*
X35430000Y24690000D03*
X34410000Y24690000D03*
G04 #@! TD*
G04 #@! TO.C,R9*
X45430000Y27470000D03*
X44410000Y27470000D03*
G04 #@! TD*
G04 #@! TO.C,R10*
X35430000Y27480000D03*
X34410000Y27480000D03*
G04 #@! TD*
D25*
G04 #@! TO.C,R11*
X51115000Y28280000D03*
X51115000Y29300000D03*
G04 #@! TD*
G04 #@! TO.C,R12*
X41235000Y28280000D03*
X41235000Y29300000D03*
G04 #@! TD*
G04 #@! TO.C,R13*
X46685000Y28280000D03*
X46685000Y29300000D03*
G04 #@! TD*
D26*
G04 #@! TO.C,R14*
X48500000Y29300000D03*
X48500000Y28280000D03*
G04 #@! TD*
D25*
G04 #@! TO.C,R15*
X36725000Y28280000D03*
X36725000Y29300000D03*
G04 #@! TD*
D26*
G04 #@! TO.C,R16*
X38540000Y29300000D03*
X38540000Y28280000D03*
G04 #@! TD*
G04 #@! TO.C,R17*
X47540000Y29300000D03*
X47540000Y28280000D03*
G04 #@! TD*
G04 #@! TO.C,R18*
X37580000Y29300000D03*
X37580000Y28280000D03*
G04 #@! TD*
D23*
G04 #@! TO.C,R19*
X24540000Y25640000D03*
X25560000Y25640000D03*
G04 #@! TD*
G04 #@! TO.C,R20*
X14180000Y25640000D03*
X15200000Y25640000D03*
G04 #@! TD*
D24*
G04 #@! TO.C,R21*
X25560000Y24710000D03*
X24540000Y24710000D03*
G04 #@! TD*
G04 #@! TO.C,R22*
X15200000Y24710000D03*
X14180000Y24710000D03*
G04 #@! TD*
G04 #@! TO.C,R23*
X25560000Y26540000D03*
X24540000Y26540000D03*
G04 #@! TD*
G04 #@! TO.C,R24*
X15200000Y27500000D03*
X14180000Y27500000D03*
G04 #@! TD*
D25*
G04 #@! TO.C,R25*
X30520000Y28280000D03*
X30520000Y29300000D03*
G04 #@! TD*
G04 #@! TO.C,R26*
X21105000Y28270000D03*
X21105000Y29290000D03*
G04 #@! TD*
G04 #@! TO.C,R27*
X27780000Y28280000D03*
X27780000Y29300000D03*
G04 #@! TD*
D26*
G04 #@! TO.C,R28*
X28680000Y29300000D03*
X28680000Y28280000D03*
G04 #@! TD*
D25*
G04 #@! TO.C,R29*
X16530000Y28280000D03*
X16530000Y29300000D03*
G04 #@! TD*
D26*
G04 #@! TO.C,R30*
X18450000Y29300000D03*
X18450000Y28280000D03*
G04 #@! TD*
G04 #@! TO.C,R31*
X17500000Y29300000D03*
X17500000Y28280000D03*
G04 #@! TD*
D23*
G04 #@! TO.C,R32*
X24540000Y28300000D03*
X25560000Y28300000D03*
G04 #@! TD*
D25*
G04 #@! TO.C,R33*
X26860000Y28280000D03*
X26860000Y29300000D03*
G04 #@! TD*
D27*
G04 #@! TO.C,3V3*
X49150001Y26945000D03*
X49150001Y26295000D03*
X49150001Y25645000D03*
X49150001Y24995000D03*
X46770001Y24995000D03*
X46770001Y25645000D03*
X46770001Y26295000D03*
X46770001Y26945000D03*
G04 #@! TD*
G04 #@! TO.C,2V5*
X39140000Y26945000D03*
X39140000Y26295000D03*
X39140000Y25645000D03*
X39140000Y24995000D03*
X36760000Y24995000D03*
X36760000Y25645000D03*
X36760000Y26295000D03*
X36760000Y26945000D03*
G04 #@! TD*
G04 #@! TO.C,1V5*
X29260000Y26945000D03*
X29260000Y26295000D03*
X29260000Y25645000D03*
X29260000Y24995000D03*
X26880000Y24995000D03*
X26880000Y25645000D03*
X26880000Y26295000D03*
X26880000Y26945000D03*
G04 #@! TD*
G04 #@! TO.C,1V2*
X18910001Y26945000D03*
X18910001Y26295000D03*
X18910001Y25645000D03*
X18910001Y24995000D03*
X16530001Y24995000D03*
X16530001Y25645000D03*
X16530001Y26295000D03*
X16530001Y26945000D03*
G04 #@! TD*
D28*
G04 #@! TO.C,C1*
X58005000Y21240000D03*
X56455000Y21240000D03*
G04 #@! TD*
D20*
G04 #@! TO.C,C2*
X57520000Y22320000D03*
X56560000Y22320000D03*
G04 #@! TD*
D21*
G04 #@! TO.C,C3*
X56600000Y30610000D03*
X56600000Y29650000D03*
G04 #@! TD*
D18*
G04 #@! TO.C,C4*
X58680000Y29650000D03*
X58680000Y30610000D03*
G04 #@! TD*
G04 #@! TO.C,C5*
X54140000Y29650000D03*
X54140000Y30610000D03*
G04 #@! TD*
D20*
G04 #@! TO.C,C6*
X57520000Y23240000D03*
X56560000Y23240000D03*
G04 #@! TD*
D17*
G04 #@! TO.C,C39*
X59580000Y25060000D03*
X60540000Y25060000D03*
G04 #@! TD*
D29*
G04 #@! TO.C,C40*
X53894999Y23350000D03*
X55444999Y23350000D03*
G04 #@! TD*
G04 #@! TO.C,C41*
X53895000Y22289999D03*
X55445000Y22289999D03*
G04 #@! TD*
D30*
G04 #@! TO.C,L1*
X61350000Y19050000D03*
X61350000Y23150000D03*
G04 #@! TD*
D25*
G04 #@! TO.C,R1*
X54140000Y27710000D03*
X54140000Y28730000D03*
G04 #@! TD*
G04 #@! TO.C,R2*
X55420000Y29620000D03*
X55420000Y30640000D03*
G04 #@! TD*
D23*
G04 #@! TO.C,R7*
X59550000Y27570000D03*
X60570000Y27570000D03*
G04 #@! TD*
D26*
G04 #@! TO.C,R8*
X54140000Y26940000D03*
X54140000Y25920000D03*
G04 #@! TD*
D25*
G04 #@! TO.C,R34*
X57560000Y29620000D03*
X57560000Y30640000D03*
G04 #@! TD*
D29*
G04 #@! TO.C,C42*
X53905000Y21240000D03*
X55455000Y21240000D03*
G04 #@! TD*
D31*
G04 #@! TO.C,J2*
X17450000Y32870000D03*
G04 #@! TD*
D32*
G04 #@! TO.C,J3*
X64900000Y17480000D03*
G04 #@! TD*
D31*
G04 #@! TO.C,J4*
X58580000Y32870000D03*
G04 #@! TD*
G04 #@! TO.C,J5*
X31160000Y32870000D03*
G04 #@! TD*
D32*
G04 #@! TO.C,J6*
X64890000Y26480000D03*
G04 #@! TD*
G04 #@! TO.C,J7*
X11180000Y17480000D03*
G04 #@! TD*
D31*
G04 #@! TO.C,J8*
X44870000Y11090000D03*
G04 #@! TD*
G04 #@! TO.C,J9*
X44870000Y32870000D03*
G04 #@! TD*
D32*
G04 #@! TO.C,J10*
X11180000Y26480000D03*
G04 #@! TD*
M02*
