%FSLAX45Y45*%
G04 Gerber Fmt 4.5, Leading zero omitted, Abs format (unit mm)*
G04 Created by KiCad (PCBNEW (5.1.8)-1) date 2021-09-12 16:14:28*
%MOMM*%
%LPD*%
G01*
G04 APERTURE LIST*
%TA.AperFunction,Profile*%
%ADD10C,0.050000*%
%TD*%
%ADD11C,0.200000*%
%ADD12C,0.300000*%
G04 APERTURE END LIST*
D10*
X1119933Y1120067D02*
G75*
G02*
X999867Y1240133I0J120067D01*
G01*
X1119933Y1120067D02*
G75*
G02*
X1240000Y1000000I0J-120067D01*
G01*
X999938Y3194000D02*
G75*
G02*
X1200000Y3394062I200062J0D01*
G01*
X6400000Y3394062D02*
G75*
G02*
X6600062Y3194000I0J-200062D01*
G01*
X6600000Y1200000D02*
G75*
G02*
X6399938Y999938I-200062J0D01*
G01*
X3270000Y1000000D02*
X6399938Y999938D01*
X6600062Y3194000D02*
X6600000Y1200000D01*
X6400000Y3394062D02*
X1200000Y3394062D01*
X999938Y3194000D02*
X999867Y1240133D01*
D11*
X1052000Y3175000D02*
X1082000Y3145000D01*
X1082000Y3175000D02*
X1052000Y3145000D01*
X1054000Y3074000D02*
X1084000Y3044000D01*
X1084000Y3074000D02*
X1054000Y3044000D01*
X1054000Y2974000D02*
X1084000Y2944000D01*
X1084000Y2974000D02*
X1054000Y2944000D01*
X1054000Y2874000D02*
X1084000Y2844000D01*
X1084000Y2874000D02*
X1054000Y2844000D01*
X1054000Y2774000D02*
X1084000Y2744000D01*
X1084000Y2774000D02*
X1054000Y2744000D01*
X1054000Y2674000D02*
X1084000Y2644000D01*
X1084000Y2674000D02*
X1054000Y2644000D01*
X1054000Y2574000D02*
X1084000Y2544000D01*
X1084000Y2574000D02*
X1054000Y2544000D01*
X1054000Y2474000D02*
X1084000Y2444000D01*
X1084000Y2474000D02*
X1054000Y2444000D01*
X1054000Y2374000D02*
X1084000Y2344000D01*
X1084000Y2374000D02*
X1054000Y2344000D01*
X1054000Y2274000D02*
X1084000Y2244000D01*
X1084000Y2274000D02*
X1054000Y2244000D01*
X1054000Y2174000D02*
X1084000Y2144000D01*
X1084000Y2174000D02*
X1054000Y2144000D01*
X1054000Y2074000D02*
X1084000Y2044000D01*
X1084000Y2074000D02*
X1054000Y2044000D01*
X1054000Y1974000D02*
X1084000Y1944000D01*
X1084000Y1974000D02*
X1054000Y1944000D01*
X1054000Y1874000D02*
X1084000Y1844000D01*
X1084000Y1874000D02*
X1054000Y1844000D01*
X1054000Y1774000D02*
X1084000Y1744000D01*
X1084000Y1774000D02*
X1054000Y1744000D01*
X1054000Y1674000D02*
X1084000Y1644000D01*
X1084000Y1674000D02*
X1054000Y1644000D01*
X1054000Y1574000D02*
X1084000Y1544000D01*
X1084000Y1574000D02*
X1054000Y1544000D01*
X1054000Y1474000D02*
X1084000Y1444000D01*
X1084000Y1474000D02*
X1054000Y1444000D01*
X1054000Y1374000D02*
X1084000Y1344000D01*
X1084000Y1374000D02*
X1054000Y1344000D01*
X1054000Y1274000D02*
X1084000Y1244000D01*
X1084000Y1274000D02*
X1054000Y1244000D01*
X1070000Y3255000D02*
X1100000Y3225000D01*
X1100000Y3255000D02*
X1070000Y3225000D01*
X1104000Y3126000D02*
X1134000Y3096000D01*
X1134000Y3126000D02*
X1104000Y3096000D01*
X1104000Y3026000D02*
X1134000Y2996000D01*
X1134000Y3026000D02*
X1104000Y2996000D01*
X1104000Y2926000D02*
X1134000Y2896000D01*
X1134000Y2926000D02*
X1104000Y2896000D01*
X1104000Y2826000D02*
X1134000Y2796000D01*
X1134000Y2826000D02*
X1104000Y2796000D01*
X1104000Y2726000D02*
X1134000Y2696000D01*
X1134000Y2726000D02*
X1104000Y2696000D01*
X1104000Y2626000D02*
X1134000Y2596000D01*
X1134000Y2626000D02*
X1104000Y2596000D01*
X1104000Y2526000D02*
X1134000Y2496000D01*
X1134000Y2526000D02*
X1104000Y2496000D01*
X1104000Y2426000D02*
X1134000Y2396000D01*
X1134000Y2426000D02*
X1104000Y2396000D01*
X1104000Y2326000D02*
X1134000Y2296000D01*
X1134000Y2326000D02*
X1104000Y2296000D01*
X1104000Y2226000D02*
X1134000Y2196000D01*
X1134000Y2226000D02*
X1104000Y2196000D01*
X1104000Y2126000D02*
X1134000Y2096000D01*
X1134000Y2126000D02*
X1104000Y2096000D01*
X1104000Y2026000D02*
X1134000Y1996000D01*
X1134000Y2026000D02*
X1104000Y1996000D01*
X1104000Y1926000D02*
X1134000Y1896000D01*
X1134000Y1926000D02*
X1104000Y1896000D01*
X1104000Y1826000D02*
X1134000Y1796000D01*
X1134000Y1826000D02*
X1104000Y1796000D01*
X1104000Y1726000D02*
X1134000Y1696000D01*
X1134000Y1726000D02*
X1104000Y1696000D01*
X1104000Y1626000D02*
X1134000Y1596000D01*
X1134000Y1626000D02*
X1104000Y1596000D01*
X1104000Y1526000D02*
X1134000Y1496000D01*
X1134000Y1526000D02*
X1104000Y1496000D01*
X1104000Y1426000D02*
X1134000Y1396000D01*
X1134000Y1426000D02*
X1104000Y1396000D01*
X1104000Y1326000D02*
X1134000Y1296000D01*
X1134000Y1326000D02*
X1104000Y1296000D01*
X1104000Y1224000D02*
X1134000Y1194000D01*
X1134000Y1224000D02*
X1104000Y1194000D01*
X1115000Y3317000D02*
X1145000Y3287000D01*
X1145000Y3317000D02*
X1115000Y3287000D01*
X1121000Y3214000D02*
X1151000Y3184000D01*
X1151000Y3214000D02*
X1121000Y3184000D01*
X1154000Y3074000D02*
X1184000Y3044000D01*
X1184000Y3074000D02*
X1154000Y3044000D01*
X1154000Y2974000D02*
X1184000Y2944000D01*
X1184000Y2974000D02*
X1154000Y2944000D01*
X1154000Y2874000D02*
X1184000Y2844000D01*
X1184000Y2874000D02*
X1154000Y2844000D01*
X1154000Y2774000D02*
X1184000Y2744000D01*
X1184000Y2774000D02*
X1154000Y2744000D01*
X1154000Y2674000D02*
X1184000Y2644000D01*
X1184000Y2674000D02*
X1154000Y2644000D01*
X1154000Y2574000D02*
X1184000Y2544000D01*
X1184000Y2574000D02*
X1154000Y2544000D01*
X1154000Y2474000D02*
X1184000Y2444000D01*
X1184000Y2474000D02*
X1154000Y2444000D01*
X1154000Y2374000D02*
X1184000Y2344000D01*
X1184000Y2374000D02*
X1154000Y2344000D01*
X1154000Y2274000D02*
X1184000Y2244000D01*
X1184000Y2274000D02*
X1154000Y2244000D01*
X1154000Y2174000D02*
X1184000Y2144000D01*
X1184000Y2174000D02*
X1154000Y2144000D01*
X1154000Y2074000D02*
X1184000Y2044000D01*
X1184000Y2074000D02*
X1154000Y2044000D01*
X1154000Y1974000D02*
X1184000Y1944000D01*
X1184000Y1974000D02*
X1154000Y1944000D01*
X1154000Y1874000D02*
X1184000Y1844000D01*
X1184000Y1874000D02*
X1154000Y1844000D01*
X1154000Y1774000D02*
X1184000Y1744000D01*
X1184000Y1774000D02*
X1154000Y1744000D01*
X1154000Y1674000D02*
X1184000Y1644000D01*
X1184000Y1674000D02*
X1154000Y1644000D01*
X1154000Y1574000D02*
X1184000Y1544000D01*
X1184000Y1574000D02*
X1154000Y1544000D01*
X1154000Y1474000D02*
X1184000Y1444000D01*
X1184000Y1474000D02*
X1154000Y1444000D01*
X1154000Y1374000D02*
X1184000Y1344000D01*
X1184000Y1374000D02*
X1154000Y1344000D01*
X1154000Y1274000D02*
X1184000Y1244000D01*
X1184000Y1274000D02*
X1154000Y1244000D01*
X1154000Y1174000D02*
X1184000Y1144000D01*
X1184000Y1174000D02*
X1154000Y1144000D01*
X1163000Y3162000D02*
X1193000Y3132000D01*
X1193000Y3162000D02*
X1163000Y3132000D01*
X1165000Y3272000D02*
X1195000Y3242000D01*
X1195000Y3272000D02*
X1165000Y3242000D01*
X1201000Y3347000D02*
X1231000Y3317000D01*
X1231000Y3347000D02*
X1201000Y3317000D01*
X1214000Y3228000D02*
X1244000Y3198000D01*
X1244000Y3228000D02*
X1214000Y3198000D01*
X1244000Y3292000D02*
X1274000Y3262000D01*
X1274000Y3292000D02*
X1244000Y3262000D01*
X1301000Y3347000D02*
X1331000Y3317000D01*
X1331000Y3347000D02*
X1301000Y3317000D01*
X1301000Y3247000D02*
X1331000Y3217000D01*
X1331000Y3247000D02*
X1301000Y3217000D01*
X1351000Y3297000D02*
X1381000Y3267000D01*
X1381000Y3297000D02*
X1351000Y3267000D01*
X1401000Y3347000D02*
X1431000Y3317000D01*
X1431000Y3347000D02*
X1401000Y3317000D01*
X1401000Y3247000D02*
X1431000Y3217000D01*
X1431000Y3247000D02*
X1401000Y3217000D01*
X1406000Y2791000D02*
X1436000Y2761000D01*
X1436000Y2791000D02*
X1406000Y2761000D01*
X1406000Y2734000D02*
X1436000Y2704000D01*
X1436000Y2734000D02*
X1406000Y2704000D01*
X1451000Y3297000D02*
X1481000Y3267000D01*
X1481000Y3297000D02*
X1451000Y3267000D01*
X1501000Y3347000D02*
X1531000Y3317000D01*
X1531000Y3347000D02*
X1501000Y3317000D01*
X1501000Y3247000D02*
X1531000Y3217000D01*
X1531000Y3247000D02*
X1501000Y3217000D01*
X1551000Y3297000D02*
X1581000Y3267000D01*
X1581000Y3297000D02*
X1551000Y3267000D01*
X1601000Y3347000D02*
X1631000Y3317000D01*
X1631000Y3347000D02*
X1601000Y3317000D01*
X1601000Y3247000D02*
X1631000Y3217000D01*
X1631000Y3247000D02*
X1601000Y3217000D01*
X1651000Y3297000D02*
X1681000Y3267000D01*
X1681000Y3297000D02*
X1651000Y3267000D01*
X1663000Y2714000D02*
X1693000Y2684000D01*
X1693000Y2714000D02*
X1663000Y2684000D01*
X1663000Y2659000D02*
X1693000Y2629000D01*
X1693000Y2659000D02*
X1663000Y2629000D01*
X1663000Y2604000D02*
X1693000Y2574000D01*
X1693000Y2604000D02*
X1663000Y2574000D01*
X1663000Y2549000D02*
X1693000Y2519000D01*
X1693000Y2549000D02*
X1663000Y2519000D01*
X1663000Y2494000D02*
X1693000Y2464000D01*
X1693000Y2494000D02*
X1663000Y2464000D01*
X1698000Y2068000D02*
X1728000Y2038000D01*
X1728000Y2068000D02*
X1698000Y2038000D01*
X1699000Y2453000D02*
X1729000Y2423000D01*
X1729000Y2453000D02*
X1699000Y2423000D01*
X1701000Y3347000D02*
X1731000Y3317000D01*
X1731000Y3347000D02*
X1701000Y3317000D01*
X1701000Y3247000D02*
X1731000Y3217000D01*
X1731000Y3247000D02*
X1701000Y3217000D01*
X1727000Y2400000D02*
X1757000Y2370000D01*
X1757000Y2400000D02*
X1727000Y2370000D01*
X1751000Y3297000D02*
X1781000Y3267000D01*
X1781000Y3297000D02*
X1751000Y3267000D01*
X1754000Y2453000D02*
X1784000Y2423000D01*
X1784000Y2453000D02*
X1754000Y2423000D01*
X1782000Y2400000D02*
X1812000Y2370000D01*
X1812000Y2400000D02*
X1782000Y2370000D01*
X1801000Y3347000D02*
X1831000Y3317000D01*
X1831000Y3347000D02*
X1801000Y3317000D01*
X1801000Y3247000D02*
X1831000Y3217000D01*
X1831000Y3247000D02*
X1801000Y3217000D01*
X1809000Y2453000D02*
X1839000Y2423000D01*
X1839000Y2453000D02*
X1809000Y2423000D01*
X1816000Y2805000D02*
X1846000Y2775000D01*
X1846000Y2805000D02*
X1816000Y2775000D01*
X1837000Y2400000D02*
X1867000Y2370000D01*
X1867000Y2400000D02*
X1837000Y2370000D01*
X1851000Y3297000D02*
X1881000Y3267000D01*
X1881000Y3297000D02*
X1851000Y3267000D01*
X1901000Y3347000D02*
X1931000Y3317000D01*
X1931000Y3347000D02*
X1901000Y3317000D01*
X1901000Y3247000D02*
X1931000Y3217000D01*
X1931000Y3247000D02*
X1901000Y3217000D01*
X1920000Y2662000D02*
X1950000Y2632000D01*
X1950000Y2662000D02*
X1920000Y2632000D01*
X1951000Y3297000D02*
X1981000Y3267000D01*
X1981000Y3297000D02*
X1951000Y3267000D01*
X1977000Y2662000D02*
X2007000Y2632000D01*
X2007000Y2662000D02*
X1977000Y2632000D01*
X2001000Y3347000D02*
X2031000Y3317000D01*
X2031000Y3347000D02*
X2001000Y3317000D01*
X2001000Y3247000D02*
X2031000Y3217000D01*
X2031000Y3247000D02*
X2001000Y3217000D01*
X2034000Y2662000D02*
X2064000Y2632000D01*
X2064000Y2662000D02*
X2034000Y2632000D01*
X2051000Y3297000D02*
X2081000Y3267000D01*
X2081000Y3297000D02*
X2051000Y3267000D01*
X2101000Y3347000D02*
X2131000Y3317000D01*
X2131000Y3347000D02*
X2101000Y3317000D01*
X2101000Y3247000D02*
X2131000Y3217000D01*
X2131000Y3247000D02*
X2101000Y3217000D01*
X2151000Y3297000D02*
X2181000Y3267000D01*
X2181000Y3297000D02*
X2151000Y3267000D01*
X2201000Y3347000D02*
X2231000Y3317000D01*
X2231000Y3347000D02*
X2201000Y3317000D01*
X2201000Y3247000D02*
X2231000Y3217000D01*
X2231000Y3247000D02*
X2201000Y3217000D01*
X2251000Y3297000D02*
X2281000Y3267000D01*
X2281000Y3297000D02*
X2251000Y3267000D01*
X2284000Y2294000D02*
X2314000Y2264000D01*
X2314000Y2294000D02*
X2284000Y2264000D01*
X2284000Y2234000D02*
X2314000Y2204000D01*
X2314000Y2234000D02*
X2284000Y2204000D01*
X2284000Y2174000D02*
X2314000Y2144000D01*
X2314000Y2174000D02*
X2284000Y2144000D01*
X2285000Y2488000D02*
X2315000Y2458000D01*
X2315000Y2488000D02*
X2285000Y2458000D01*
X2285000Y2488000D02*
X2315000Y2458000D01*
X2315000Y2488000D02*
X2285000Y2458000D01*
X2285000Y2424000D02*
X2315000Y2394000D01*
X2315000Y2424000D02*
X2285000Y2394000D01*
X2285000Y2424000D02*
X2315000Y2394000D01*
X2315000Y2424000D02*
X2285000Y2394000D01*
X2285000Y2359000D02*
X2315000Y2329000D01*
X2315000Y2359000D02*
X2285000Y2329000D01*
X2285000Y2359000D02*
X2315000Y2329000D01*
X2315000Y2359000D02*
X2285000Y2329000D01*
X2301000Y3347000D02*
X2331000Y3317000D01*
X2331000Y3347000D02*
X2301000Y3317000D01*
X2301000Y3247000D02*
X2331000Y3217000D01*
X2331000Y3247000D02*
X2301000Y3217000D01*
X2344000Y2294000D02*
X2374000Y2264000D01*
X2374000Y2294000D02*
X2344000Y2264000D01*
X2351000Y3297000D02*
X2381000Y3267000D01*
X2381000Y3297000D02*
X2351000Y3267000D01*
X2401000Y3347000D02*
X2431000Y3317000D01*
X2431000Y3347000D02*
X2401000Y3317000D01*
X2401000Y3247000D02*
X2431000Y3217000D01*
X2431000Y3247000D02*
X2401000Y3217000D01*
X2405000Y2294000D02*
X2435000Y2264000D01*
X2435000Y2294000D02*
X2405000Y2264000D01*
X2408500Y2790500D02*
X2438500Y2760500D01*
X2438500Y2790500D02*
X2408500Y2760500D01*
X2448500Y2750500D02*
X2478500Y2720500D01*
X2478500Y2750500D02*
X2448500Y2720500D01*
X2451000Y3297000D02*
X2481000Y3267000D01*
X2481000Y3297000D02*
X2451000Y3267000D01*
X2501000Y3347000D02*
X2531000Y3317000D01*
X2531000Y3347000D02*
X2501000Y3317000D01*
X2501000Y3247000D02*
X2531000Y3217000D01*
X2531000Y3247000D02*
X2501000Y3217000D01*
X2551000Y3297000D02*
X2581000Y3267000D01*
X2581000Y3297000D02*
X2551000Y3267000D01*
X2590000Y884000D02*
X2620000Y854000D01*
X2620000Y884000D02*
X2590000Y854000D01*
X2601000Y3347000D02*
X2631000Y3317000D01*
X2631000Y3347000D02*
X2601000Y3317000D01*
X2601000Y3247000D02*
X2631000Y3217000D01*
X2631000Y3247000D02*
X2601000Y3217000D01*
X2651000Y3297000D02*
X2681000Y3267000D01*
X2681000Y3297000D02*
X2651000Y3267000D01*
X2690000Y978000D02*
X2720000Y948000D01*
X2720000Y978000D02*
X2690000Y948000D01*
X2698000Y2712000D02*
X2728000Y2682000D01*
X2728000Y2712000D02*
X2698000Y2682000D01*
X2698000Y2657000D02*
X2728000Y2627000D01*
X2728000Y2657000D02*
X2698000Y2627000D01*
X2698000Y2602000D02*
X2728000Y2572000D01*
X2728000Y2602000D02*
X2698000Y2572000D01*
X2698000Y2492000D02*
X2728000Y2462000D01*
X2728000Y2492000D02*
X2698000Y2462000D01*
X2698000Y2547000D02*
X2728000Y2517000D01*
X2728000Y2547000D02*
X2698000Y2517000D01*
X2701000Y3347000D02*
X2731000Y3317000D01*
X2731000Y3347000D02*
X2701000Y3317000D01*
X2701000Y3247000D02*
X2731000Y3217000D01*
X2731000Y3247000D02*
X2701000Y3217000D01*
X2734000Y2451000D02*
X2764000Y2421000D01*
X2764000Y2451000D02*
X2734000Y2421000D01*
X2743000Y2062000D02*
X2773000Y2032000D01*
X2773000Y2062000D02*
X2743000Y2032000D01*
X2751000Y3297000D02*
X2781000Y3267000D01*
X2781000Y3297000D02*
X2751000Y3267000D01*
X2758000Y2395000D02*
X2788000Y2365000D01*
X2788000Y2395000D02*
X2758000Y2365000D01*
X2789000Y2451000D02*
X2819000Y2421000D01*
X2819000Y2451000D02*
X2789000Y2421000D01*
X2789333Y1076000D02*
X2819333Y1046000D01*
X2819333Y1076000D02*
X2789333Y1046000D01*
X2801000Y3347000D02*
X2831000Y3317000D01*
X2831000Y3347000D02*
X2801000Y3317000D01*
X2801000Y3247000D02*
X2831000Y3217000D01*
X2831000Y3247000D02*
X2801000Y3217000D01*
X2813000Y2395000D02*
X2843000Y2365000D01*
X2843000Y2395000D02*
X2813000Y2365000D01*
X2844000Y2451000D02*
X2874000Y2421000D01*
X2874000Y2451000D02*
X2844000Y2421000D01*
X2846000Y2800000D02*
X2876000Y2770000D01*
X2876000Y2800000D02*
X2846000Y2770000D01*
X2851000Y3297000D02*
X2881000Y3267000D01*
X2881000Y3297000D02*
X2851000Y3267000D01*
X2868000Y2395000D02*
X2898000Y2365000D01*
X2898000Y2395000D02*
X2868000Y2365000D01*
X2889500Y1209500D02*
X2919500Y1179500D01*
X2919500Y1209500D02*
X2889500Y1179500D01*
X2901000Y3347000D02*
X2931000Y3317000D01*
X2931000Y3347000D02*
X2901000Y3317000D01*
X2901000Y3247000D02*
X2931000Y3217000D01*
X2931000Y3247000D02*
X2901000Y3217000D01*
X2951000Y3297000D02*
X2981000Y3267000D01*
X2981000Y3297000D02*
X2951000Y3267000D01*
X2952000Y2660000D02*
X2982000Y2630000D01*
X2982000Y2660000D02*
X2952000Y2630000D01*
X2989666Y1209500D02*
X3019666Y1179500D01*
X3019666Y1209500D02*
X2989666Y1179500D01*
X3001000Y3347000D02*
X3031000Y3317000D01*
X3031000Y3347000D02*
X3001000Y3317000D01*
X3001000Y3247000D02*
X3031000Y3217000D01*
X3031000Y3247000D02*
X3001000Y3217000D01*
X3009000Y2660000D02*
X3039000Y2630000D01*
X3039000Y2660000D02*
X3009000Y2630000D01*
X3051000Y3297000D02*
X3081000Y3267000D01*
X3081000Y3297000D02*
X3051000Y3267000D01*
X3066000Y2660000D02*
X3096000Y2630000D01*
X3096000Y2660000D02*
X3066000Y2630000D01*
X3089833Y1209500D02*
X3119833Y1179500D01*
X3119833Y1209500D02*
X3089833Y1179500D01*
X3101000Y3347000D02*
X3131000Y3317000D01*
X3131000Y3347000D02*
X3101000Y3317000D01*
X3101000Y3247000D02*
X3131000Y3217000D01*
X3131000Y3247000D02*
X3101000Y3217000D01*
X3151000Y3297000D02*
X3181000Y3267000D01*
X3181000Y3297000D02*
X3151000Y3267000D01*
X3191000Y1209500D02*
X3221000Y1179500D01*
X3221000Y1209500D02*
X3191000Y1179500D01*
X3201000Y3347000D02*
X3231000Y3317000D01*
X3231000Y3347000D02*
X3201000Y3317000D01*
X3201000Y3247000D02*
X3231000Y3217000D01*
X3231000Y3247000D02*
X3201000Y3217000D01*
X3251000Y3297000D02*
X3281000Y3267000D01*
X3281000Y3297000D02*
X3251000Y3267000D01*
X3301000Y3347000D02*
X3331000Y3317000D01*
X3331000Y3347000D02*
X3301000Y3317000D01*
X3301000Y3247000D02*
X3331000Y3217000D01*
X3331000Y3247000D02*
X3301000Y3217000D01*
X3311000Y2473000D02*
X3341000Y2443000D01*
X3341000Y2473000D02*
X3311000Y2443000D01*
X3311000Y2409000D02*
X3341000Y2379000D01*
X3341000Y2409000D02*
X3311000Y2379000D01*
X3311000Y2344000D02*
X3341000Y2314000D01*
X3341000Y2344000D02*
X3311000Y2314000D01*
X3312000Y2285000D02*
X3342000Y2255000D01*
X3342000Y2285000D02*
X3312000Y2255000D01*
X3312000Y2225000D02*
X3342000Y2195000D01*
X3342000Y2225000D02*
X3312000Y2195000D01*
X3312000Y2165000D02*
X3342000Y2135000D01*
X3342000Y2165000D02*
X3312000Y2135000D01*
X3351000Y3297000D02*
X3381000Y3267000D01*
X3381000Y3297000D02*
X3351000Y3267000D01*
X3354000Y1074000D02*
X3384000Y1044000D01*
X3384000Y1074000D02*
X3354000Y1044000D01*
X3372000Y2285000D02*
X3402000Y2255000D01*
X3402000Y2285000D02*
X3372000Y2255000D01*
X3401000Y3347000D02*
X3431000Y3317000D01*
X3431000Y3347000D02*
X3401000Y3317000D01*
X3401000Y3247000D02*
X3431000Y3217000D01*
X3431000Y3247000D02*
X3401000Y3217000D01*
X3433000Y2285000D02*
X3463000Y2255000D01*
X3463000Y2285000D02*
X3433000Y2255000D01*
X3439000Y2742000D02*
X3469000Y2712000D01*
X3469000Y2742000D02*
X3439000Y2712000D01*
X3439000Y2795000D02*
X3469000Y2765000D01*
X3469000Y2795000D02*
X3439000Y2765000D01*
X3451000Y3297000D02*
X3481000Y3267000D01*
X3481000Y3297000D02*
X3451000Y3267000D01*
X3454000Y1074000D02*
X3484000Y1044000D01*
X3484000Y1074000D02*
X3454000Y1044000D01*
X3501000Y3347000D02*
X3531000Y3317000D01*
X3531000Y3347000D02*
X3501000Y3317000D01*
X3501000Y3247000D02*
X3531000Y3217000D01*
X3531000Y3247000D02*
X3501000Y3217000D01*
X3551000Y3297000D02*
X3581000Y3267000D01*
X3581000Y3297000D02*
X3551000Y3267000D01*
X3554000Y1074000D02*
X3584000Y1044000D01*
X3584000Y1074000D02*
X3554000Y1044000D01*
X3601000Y3347000D02*
X3631000Y3317000D01*
X3631000Y3347000D02*
X3601000Y3317000D01*
X3601000Y3247000D02*
X3631000Y3217000D01*
X3631000Y3247000D02*
X3601000Y3217000D01*
X3651000Y3297000D02*
X3681000Y3267000D01*
X3681000Y3297000D02*
X3651000Y3267000D01*
X3654000Y1074000D02*
X3684000Y1044000D01*
X3684000Y1074000D02*
X3654000Y1044000D01*
X3686000Y2714000D02*
X3716000Y2684000D01*
X3716000Y2714000D02*
X3686000Y2684000D01*
X3686000Y2659000D02*
X3716000Y2629000D01*
X3716000Y2659000D02*
X3686000Y2629000D01*
X3686000Y2549000D02*
X3716000Y2519000D01*
X3716000Y2549000D02*
X3686000Y2519000D01*
X3686000Y2494000D02*
X3716000Y2464000D01*
X3716000Y2494000D02*
X3686000Y2464000D01*
X3686000Y2604000D02*
X3716000Y2574000D01*
X3716000Y2604000D02*
X3686000Y2574000D01*
X3701000Y3347000D02*
X3731000Y3317000D01*
X3731000Y3347000D02*
X3701000Y3317000D01*
X3701000Y3247000D02*
X3731000Y3217000D01*
X3731000Y3247000D02*
X3701000Y3217000D01*
X3722000Y2453000D02*
X3752000Y2423000D01*
X3752000Y2453000D02*
X3722000Y2423000D01*
X3723000Y2068000D02*
X3753000Y2038000D01*
X3753000Y2068000D02*
X3723000Y2038000D01*
X3748000Y2399000D02*
X3778000Y2369000D01*
X3778000Y2399000D02*
X3748000Y2369000D01*
X3751000Y3297000D02*
X3781000Y3267000D01*
X3781000Y3297000D02*
X3751000Y3267000D01*
X3754000Y1074000D02*
X3784000Y1044000D01*
X3784000Y1074000D02*
X3754000Y1044000D01*
X3777000Y2453000D02*
X3807000Y2423000D01*
X3807000Y2453000D02*
X3777000Y2423000D01*
X3801000Y3347000D02*
X3831000Y3317000D01*
X3831000Y3347000D02*
X3801000Y3317000D01*
X3801000Y3247000D02*
X3831000Y3217000D01*
X3831000Y3247000D02*
X3801000Y3217000D01*
X3803000Y2399000D02*
X3833000Y2369000D01*
X3833000Y2399000D02*
X3803000Y2369000D01*
X3831000Y2801000D02*
X3861000Y2771000D01*
X3861000Y2801000D02*
X3831000Y2771000D01*
X3832000Y2453000D02*
X3862000Y2423000D01*
X3862000Y2453000D02*
X3832000Y2423000D01*
X3851000Y3297000D02*
X3881000Y3267000D01*
X3881000Y3297000D02*
X3851000Y3267000D01*
X3854000Y1074000D02*
X3884000Y1044000D01*
X3884000Y1074000D02*
X3854000Y1044000D01*
X3858000Y2399000D02*
X3888000Y2369000D01*
X3888000Y2399000D02*
X3858000Y2369000D01*
X3901000Y3347000D02*
X3931000Y3317000D01*
X3931000Y3347000D02*
X3901000Y3317000D01*
X3901000Y3247000D02*
X3931000Y3217000D01*
X3931000Y3247000D02*
X3901000Y3217000D01*
X3934000Y2658000D02*
X3964000Y2628000D01*
X3964000Y2658000D02*
X3934000Y2628000D01*
X3951000Y3297000D02*
X3981000Y3267000D01*
X3981000Y3297000D02*
X3951000Y3267000D01*
X3954000Y1074000D02*
X3984000Y1044000D01*
X3984000Y1074000D02*
X3954000Y1044000D01*
X3991000Y2658000D02*
X4021000Y2628000D01*
X4021000Y2658000D02*
X3991000Y2628000D01*
X4001000Y3347000D02*
X4031000Y3317000D01*
X4031000Y3347000D02*
X4001000Y3317000D01*
X4001000Y3247000D02*
X4031000Y3217000D01*
X4031000Y3247000D02*
X4001000Y3217000D01*
X4048000Y2658000D02*
X4078000Y2628000D01*
X4078000Y2658000D02*
X4048000Y2628000D01*
X4051000Y3297000D02*
X4081000Y3267000D01*
X4081000Y3297000D02*
X4051000Y3267000D01*
X4054000Y1074000D02*
X4084000Y1044000D01*
X4084000Y1074000D02*
X4054000Y1044000D01*
X4101000Y3347000D02*
X4131000Y3317000D01*
X4131000Y3347000D02*
X4101000Y3317000D01*
X4101000Y3247000D02*
X4131000Y3217000D01*
X4131000Y3247000D02*
X4101000Y3217000D01*
X4106000Y1123000D02*
X4136000Y1093000D01*
X4136000Y1123000D02*
X4106000Y1093000D01*
X4151000Y3297000D02*
X4181000Y3267000D01*
X4181000Y3297000D02*
X4151000Y3267000D01*
X4154000Y1174000D02*
X4184000Y1144000D01*
X4184000Y1174000D02*
X4154000Y1144000D01*
X4154000Y1074000D02*
X4184000Y1044000D01*
X4184000Y1074000D02*
X4154000Y1044000D01*
X4201000Y3347000D02*
X4231000Y3317000D01*
X4231000Y3347000D02*
X4201000Y3317000D01*
X4201000Y3247000D02*
X4231000Y3217000D01*
X4231000Y3247000D02*
X4201000Y3217000D01*
X4206000Y1123000D02*
X4236000Y1093000D01*
X4236000Y1123000D02*
X4206000Y1093000D01*
X4251000Y3297000D02*
X4281000Y3267000D01*
X4281000Y3297000D02*
X4251000Y3267000D01*
X4254000Y1174000D02*
X4284000Y1144000D01*
X4284000Y1174000D02*
X4254000Y1144000D01*
X4254000Y1074000D02*
X4284000Y1044000D01*
X4284000Y1074000D02*
X4254000Y1044000D01*
X4301000Y3347000D02*
X4331000Y3317000D01*
X4331000Y3347000D02*
X4301000Y3317000D01*
X4301000Y3247000D02*
X4331000Y3217000D01*
X4331000Y3247000D02*
X4301000Y3217000D01*
X4306000Y1123000D02*
X4336000Y1093000D01*
X4336000Y1123000D02*
X4306000Y1093000D01*
X4311000Y2478000D02*
X4341000Y2448000D01*
X4341000Y2478000D02*
X4311000Y2448000D01*
X4311000Y2414000D02*
X4341000Y2384000D01*
X4341000Y2414000D02*
X4311000Y2384000D01*
X4311000Y2349000D02*
X4341000Y2319000D01*
X4341000Y2349000D02*
X4311000Y2319000D01*
X4311000Y2288000D02*
X4341000Y2258000D01*
X4341000Y2288000D02*
X4311000Y2258000D01*
X4311000Y2228000D02*
X4341000Y2198000D01*
X4341000Y2228000D02*
X4311000Y2198000D01*
X4311000Y2168000D02*
X4341000Y2138000D01*
X4341000Y2168000D02*
X4311000Y2138000D01*
X4351000Y3297000D02*
X4381000Y3267000D01*
X4381000Y3297000D02*
X4351000Y3267000D01*
X4354000Y1174000D02*
X4384000Y1144000D01*
X4384000Y1174000D02*
X4354000Y1144000D01*
X4354000Y1074000D02*
X4384000Y1044000D01*
X4384000Y1074000D02*
X4354000Y1044000D01*
X4371000Y2288000D02*
X4401000Y2258000D01*
X4401000Y2288000D02*
X4371000Y2258000D01*
X4401000Y3347000D02*
X4431000Y3317000D01*
X4431000Y3347000D02*
X4401000Y3317000D01*
X4401000Y3247000D02*
X4431000Y3217000D01*
X4431000Y3247000D02*
X4401000Y3217000D01*
X4406000Y1123000D02*
X4436000Y1093000D01*
X4436000Y1123000D02*
X4406000Y1093000D01*
X4432000Y2288000D02*
X4462000Y2258000D01*
X4462000Y2288000D02*
X4432000Y2258000D01*
X4436000Y2790000D02*
X4466000Y2760000D01*
X4466000Y2790000D02*
X4436000Y2760000D01*
X4436000Y2738000D02*
X4466000Y2708000D01*
X4466000Y2738000D02*
X4436000Y2708000D01*
X4451000Y3297000D02*
X4481000Y3267000D01*
X4481000Y3297000D02*
X4451000Y3267000D01*
X4454000Y1174000D02*
X4484000Y1144000D01*
X4484000Y1174000D02*
X4454000Y1144000D01*
X4454000Y1074000D02*
X4484000Y1044000D01*
X4484000Y1074000D02*
X4454000Y1044000D01*
X4501000Y3347000D02*
X4531000Y3317000D01*
X4531000Y3347000D02*
X4501000Y3317000D01*
X4501000Y3247000D02*
X4531000Y3217000D01*
X4531000Y3247000D02*
X4501000Y3217000D01*
X4506000Y1123000D02*
X4536000Y1093000D01*
X4536000Y1123000D02*
X4506000Y1093000D01*
X4551000Y3297000D02*
X4581000Y3267000D01*
X4581000Y3297000D02*
X4551000Y3267000D01*
X4554000Y1174000D02*
X4584000Y1144000D01*
X4584000Y1174000D02*
X4554000Y1144000D01*
X4554000Y1074000D02*
X4584000Y1044000D01*
X4584000Y1074000D02*
X4554000Y1044000D01*
X4601000Y3347000D02*
X4631000Y3317000D01*
X4631000Y3347000D02*
X4601000Y3317000D01*
X4601000Y3247000D02*
X4631000Y3217000D01*
X4631000Y3247000D02*
X4601000Y3217000D01*
X4606000Y1123000D02*
X4636000Y1093000D01*
X4636000Y1123000D02*
X4606000Y1093000D01*
X4651000Y3297000D02*
X4681000Y3267000D01*
X4681000Y3297000D02*
X4651000Y3267000D01*
X4654000Y1174000D02*
X4684000Y1144000D01*
X4684000Y1174000D02*
X4654000Y1144000D01*
X4654000Y1074000D02*
X4684000Y1044000D01*
X4684000Y1074000D02*
X4654000Y1044000D01*
X4689000Y2713000D02*
X4719000Y2683000D01*
X4719000Y2713000D02*
X4689000Y2683000D01*
X4689000Y2658000D02*
X4719000Y2628000D01*
X4719000Y2658000D02*
X4689000Y2628000D01*
X4689000Y2493000D02*
X4719000Y2463000D01*
X4719000Y2493000D02*
X4689000Y2463000D01*
X4689000Y2603000D02*
X4719000Y2573000D01*
X4719000Y2603000D02*
X4689000Y2573000D01*
X4689000Y2548000D02*
X4719000Y2518000D01*
X4719000Y2548000D02*
X4689000Y2518000D01*
X4701000Y3347000D02*
X4731000Y3317000D01*
X4731000Y3347000D02*
X4701000Y3317000D01*
X4701000Y3247000D02*
X4731000Y3217000D01*
X4731000Y3247000D02*
X4701000Y3217000D01*
X4706000Y1123000D02*
X4736000Y1093000D01*
X4736000Y1123000D02*
X4706000Y1093000D01*
X4723000Y2074000D02*
X4753000Y2044000D01*
X4753000Y2074000D02*
X4723000Y2044000D01*
X4725000Y2452000D02*
X4755000Y2422000D01*
X4755000Y2452000D02*
X4725000Y2422000D01*
X4750000Y2398000D02*
X4780000Y2368000D01*
X4780000Y2398000D02*
X4750000Y2368000D01*
X4751000Y3297000D02*
X4781000Y3267000D01*
X4781000Y3297000D02*
X4751000Y3267000D01*
X4754000Y1174000D02*
X4784000Y1144000D01*
X4784000Y1174000D02*
X4754000Y1144000D01*
X4754000Y1074000D02*
X4784000Y1044000D01*
X4784000Y1074000D02*
X4754000Y1044000D01*
X4780000Y2452000D02*
X4810000Y2422000D01*
X4810000Y2452000D02*
X4780000Y2422000D01*
X4801000Y3347000D02*
X4831000Y3317000D01*
X4831000Y3347000D02*
X4801000Y3317000D01*
X4801000Y3247000D02*
X4831000Y3217000D01*
X4831000Y3247000D02*
X4801000Y3217000D01*
X4805000Y2398000D02*
X4835000Y2368000D01*
X4835000Y2398000D02*
X4805000Y2368000D01*
X4806000Y1123000D02*
X4836000Y1093000D01*
X4836000Y1123000D02*
X4806000Y1093000D01*
X4826000Y2801000D02*
X4856000Y2771000D01*
X4856000Y2801000D02*
X4826000Y2771000D01*
X4835000Y2452000D02*
X4865000Y2422000D01*
X4865000Y2452000D02*
X4835000Y2422000D01*
X4851000Y3297000D02*
X4881000Y3267000D01*
X4881000Y3297000D02*
X4851000Y3267000D01*
X4854000Y1174000D02*
X4884000Y1144000D01*
X4884000Y1174000D02*
X4854000Y1144000D01*
X4854000Y1074000D02*
X4884000Y1044000D01*
X4884000Y1074000D02*
X4854000Y1044000D01*
X4860000Y2398000D02*
X4890000Y2368000D01*
X4890000Y2398000D02*
X4860000Y2368000D01*
X4901000Y3347000D02*
X4931000Y3317000D01*
X4931000Y3347000D02*
X4901000Y3317000D01*
X4901000Y3247000D02*
X4931000Y3217000D01*
X4931000Y3247000D02*
X4901000Y3217000D01*
X4906000Y1123000D02*
X4936000Y1093000D01*
X4936000Y1123000D02*
X4906000Y1093000D01*
X4951000Y3297000D02*
X4981000Y3267000D01*
X4981000Y3297000D02*
X4951000Y3267000D01*
X4951000Y2658000D02*
X4981000Y2628000D01*
X4981000Y2658000D02*
X4951000Y2628000D01*
X4954000Y1174000D02*
X4984000Y1144000D01*
X4984000Y1174000D02*
X4954000Y1144000D01*
X4954000Y1074000D02*
X4984000Y1044000D01*
X4984000Y1074000D02*
X4954000Y1044000D01*
X5001000Y3347000D02*
X5031000Y3317000D01*
X5031000Y3347000D02*
X5001000Y3317000D01*
X5001000Y3247000D02*
X5031000Y3217000D01*
X5031000Y3247000D02*
X5001000Y3217000D01*
X5006000Y1123000D02*
X5036000Y1093000D01*
X5036000Y1123000D02*
X5006000Y1093000D01*
X5009000Y2658000D02*
X5039000Y2628000D01*
X5039000Y2658000D02*
X5009000Y2628000D01*
X5051000Y3297000D02*
X5081000Y3267000D01*
X5081000Y3297000D02*
X5051000Y3267000D01*
X5054000Y1174000D02*
X5084000Y1144000D01*
X5084000Y1174000D02*
X5054000Y1144000D01*
X5054000Y1074000D02*
X5084000Y1044000D01*
X5084000Y1074000D02*
X5054000Y1044000D01*
X5067000Y2658000D02*
X5097000Y2628000D01*
X5097000Y2658000D02*
X5067000Y2628000D01*
X5101000Y3347000D02*
X5131000Y3317000D01*
X5131000Y3347000D02*
X5101000Y3317000D01*
X5101000Y3247000D02*
X5131000Y3217000D01*
X5131000Y3247000D02*
X5101000Y3217000D01*
X5106000Y1123000D02*
X5136000Y1093000D01*
X5136000Y1123000D02*
X5106000Y1093000D01*
X5151000Y3297000D02*
X5181000Y3267000D01*
X5181000Y3297000D02*
X5151000Y3267000D01*
X5154000Y1174000D02*
X5184000Y1144000D01*
X5184000Y1174000D02*
X5154000Y1144000D01*
X5154000Y1074000D02*
X5184000Y1044000D01*
X5184000Y1074000D02*
X5154000Y1044000D01*
X5201000Y3347000D02*
X5231000Y3317000D01*
X5231000Y3347000D02*
X5201000Y3317000D01*
X5201000Y3247000D02*
X5231000Y3217000D01*
X5231000Y3247000D02*
X5201000Y3217000D01*
X5206000Y1123000D02*
X5236000Y1093000D01*
X5236000Y1123000D02*
X5206000Y1093000D01*
X5251000Y3297000D02*
X5281000Y3267000D01*
X5281000Y3297000D02*
X5251000Y3267000D01*
X5254000Y1174000D02*
X5284000Y1144000D01*
X5284000Y1174000D02*
X5254000Y1144000D01*
X5254000Y1074000D02*
X5284000Y1044000D01*
X5284000Y1074000D02*
X5254000Y1044000D01*
X5277500Y1550000D02*
X5307500Y1520000D01*
X5307500Y1550000D02*
X5277500Y1520000D01*
X5301000Y3347000D02*
X5331000Y3317000D01*
X5331000Y3347000D02*
X5301000Y3317000D01*
X5301000Y3247000D02*
X5331000Y3217000D01*
X5331000Y3247000D02*
X5301000Y3217000D01*
X5306000Y1123000D02*
X5336000Y1093000D01*
X5336000Y1123000D02*
X5306000Y1093000D01*
X5327000Y1793500D02*
X5357000Y1763500D01*
X5357000Y1793500D02*
X5327000Y1763500D01*
X5343000Y2004500D02*
X5373000Y1974500D01*
X5373000Y2004500D02*
X5343000Y1974500D01*
X5344000Y1934500D02*
X5374000Y1904500D01*
X5374000Y1934500D02*
X5344000Y1904500D01*
X5347000Y2537000D02*
X5377000Y2507000D01*
X5377000Y2537000D02*
X5347000Y2507000D01*
X5347000Y2484000D02*
X5377000Y2454000D01*
X5377000Y2484000D02*
X5347000Y2454000D01*
X5347000Y2430000D02*
X5377000Y2400000D01*
X5377000Y2430000D02*
X5347000Y2400000D01*
X5351000Y3297000D02*
X5381000Y3267000D01*
X5381000Y3297000D02*
X5351000Y3267000D01*
X5354000Y1174000D02*
X5384000Y1144000D01*
X5384000Y1174000D02*
X5354000Y1144000D01*
X5354000Y1074000D02*
X5384000Y1044000D01*
X5384000Y1074000D02*
X5354000Y1044000D01*
X5377000Y1549500D02*
X5407000Y1519500D01*
X5407000Y1549500D02*
X5377000Y1519500D01*
X5398000Y2004500D02*
X5428000Y1974500D01*
X5428000Y2004500D02*
X5398000Y1974500D01*
X5399000Y1934500D02*
X5429000Y1904500D01*
X5429000Y1934500D02*
X5399000Y1904500D01*
X5401000Y3347000D02*
X5431000Y3317000D01*
X5431000Y3347000D02*
X5401000Y3317000D01*
X5401000Y3247000D02*
X5431000Y3217000D01*
X5431000Y3247000D02*
X5401000Y3217000D01*
X5403000Y2537000D02*
X5433000Y2507000D01*
X5433000Y2537000D02*
X5403000Y2507000D01*
X5403000Y2483500D02*
X5433000Y2453500D01*
X5433000Y2483500D02*
X5403000Y2453500D01*
X5403000Y2430000D02*
X5433000Y2400000D01*
X5433000Y2430000D02*
X5403000Y2400000D01*
X5406000Y1123000D02*
X5436000Y1093000D01*
X5436000Y1123000D02*
X5406000Y1093000D01*
X5427000Y1793500D02*
X5457000Y1763500D01*
X5457000Y1793500D02*
X5427000Y1763500D01*
X5451000Y3297000D02*
X5481000Y3267000D01*
X5481000Y3297000D02*
X5451000Y3267000D01*
X5454000Y1174000D02*
X5484000Y1144000D01*
X5484000Y1174000D02*
X5454000Y1144000D01*
X5454000Y1074000D02*
X5484000Y1044000D01*
X5484000Y1074000D02*
X5454000Y1044000D01*
X5458000Y2561000D02*
X5488000Y2531000D01*
X5488000Y2561000D02*
X5458000Y2531000D01*
X5458000Y2004500D02*
X5488000Y1974500D01*
X5488000Y2004500D02*
X5458000Y1974500D01*
X5459000Y2709000D02*
X5489000Y2679000D01*
X5489000Y2709000D02*
X5459000Y2679000D01*
X5459000Y1934500D02*
X5489000Y1904500D01*
X5489000Y1934500D02*
X5459000Y1904500D01*
X5460000Y2785000D02*
X5490000Y2755000D01*
X5490000Y2785000D02*
X5460000Y2755000D01*
X5477000Y1549500D02*
X5507000Y1519500D01*
X5507000Y1549500D02*
X5477000Y1519500D01*
X5501000Y3347000D02*
X5531000Y3317000D01*
X5531000Y3347000D02*
X5501000Y3317000D01*
X5501000Y3247000D02*
X5531000Y3217000D01*
X5531000Y3247000D02*
X5501000Y3217000D01*
X5506000Y1123000D02*
X5536000Y1093000D01*
X5536000Y1123000D02*
X5506000Y1093000D01*
X5513000Y2004500D02*
X5543000Y1974500D01*
X5543000Y2004500D02*
X5513000Y1974500D01*
X5514000Y1934500D02*
X5544000Y1904500D01*
X5544000Y1934500D02*
X5514000Y1904500D01*
X5527000Y1793500D02*
X5557000Y1763500D01*
X5557000Y1793500D02*
X5527000Y1763500D01*
X5551000Y3297000D02*
X5581000Y3267000D01*
X5581000Y3297000D02*
X5551000Y3267000D01*
X5554000Y1174000D02*
X5584000Y1144000D01*
X5584000Y1174000D02*
X5554000Y1144000D01*
X5554000Y1074000D02*
X5584000Y1044000D01*
X5584000Y1074000D02*
X5554000Y1044000D01*
X5568000Y2004500D02*
X5598000Y1974500D01*
X5598000Y2004500D02*
X5568000Y1974500D01*
X5569000Y1934500D02*
X5599000Y1904500D01*
X5599000Y1934500D02*
X5569000Y1904500D01*
X5577000Y1549500D02*
X5607000Y1519500D01*
X5607000Y1549500D02*
X5577000Y1519500D01*
X5601000Y3347000D02*
X5631000Y3317000D01*
X5631000Y3347000D02*
X5601000Y3317000D01*
X5601000Y3247000D02*
X5631000Y3217000D01*
X5631000Y3247000D02*
X5601000Y3217000D01*
X5606000Y1123000D02*
X5636000Y1093000D01*
X5636000Y1123000D02*
X5606000Y1093000D01*
X5624000Y2530000D02*
X5654000Y2500000D01*
X5654000Y2530000D02*
X5624000Y2500000D01*
X5624000Y2763000D02*
X5654000Y2733000D01*
X5654000Y2763000D02*
X5624000Y2733000D01*
X5624000Y2607667D02*
X5654000Y2577667D01*
X5654000Y2607667D02*
X5624000Y2577667D01*
X5625000Y2685333D02*
X5655000Y2655333D01*
X5655000Y2685333D02*
X5625000Y2655333D01*
X5632000Y2004500D02*
X5662000Y1974500D01*
X5662000Y2004500D02*
X5632000Y1974500D01*
X5632000Y1865500D02*
X5662000Y1835500D01*
X5662000Y1865500D02*
X5632000Y1835500D01*
X5633000Y1934500D02*
X5663000Y1904500D01*
X5663000Y1934500D02*
X5633000Y1904500D01*
X5633000Y1795500D02*
X5663000Y1765500D01*
X5663000Y1795500D02*
X5633000Y1765500D01*
X5645000Y3145000D02*
X5675000Y3115000D01*
X5675000Y3145000D02*
X5645000Y3115000D01*
X5651000Y3297000D02*
X5681000Y3267000D01*
X5681000Y3297000D02*
X5651000Y3267000D01*
X5654000Y1174000D02*
X5684000Y1144000D01*
X5684000Y1174000D02*
X5654000Y1144000D01*
X5654000Y1074000D02*
X5684000Y1044000D01*
X5684000Y1074000D02*
X5654000Y1044000D01*
X5672000Y1515500D02*
X5702000Y1485500D01*
X5702000Y1515500D02*
X5672000Y1485500D01*
X5672000Y1375500D02*
X5702000Y1345500D01*
X5702000Y1375500D02*
X5672000Y1345500D01*
X5673000Y1445500D02*
X5703000Y1415500D01*
X5703000Y1445500D02*
X5673000Y1415500D01*
X5673000Y1305500D02*
X5703000Y1275500D01*
X5703000Y1305500D02*
X5673000Y1275500D01*
X5687000Y2004500D02*
X5717000Y1974500D01*
X5717000Y2004500D02*
X5687000Y1974500D01*
X5687000Y1865500D02*
X5717000Y1835500D01*
X5717000Y1865500D02*
X5687000Y1835500D01*
X5688000Y1934500D02*
X5718000Y1904500D01*
X5718000Y1934500D02*
X5688000Y1904500D01*
X5688000Y1795500D02*
X5718000Y1765500D01*
X5718000Y1795500D02*
X5688000Y1765500D01*
X5691000Y2921000D02*
X5721000Y2891000D01*
X5721000Y2921000D02*
X5691000Y2891000D01*
X5691500Y2762000D02*
X5721500Y2732000D01*
X5721500Y2762000D02*
X5691500Y2732000D01*
X5691500Y2606667D02*
X5721500Y2576667D01*
X5721500Y2606667D02*
X5691500Y2576667D01*
X5691500Y2529000D02*
X5721500Y2499000D01*
X5721500Y2529000D02*
X5691500Y2499000D01*
X5692500Y2684333D02*
X5722500Y2654333D01*
X5722500Y2684333D02*
X5692500Y2654333D01*
X5701000Y3347000D02*
X5731000Y3317000D01*
X5731000Y3347000D02*
X5701000Y3317000D01*
X5701000Y3247000D02*
X5731000Y3217000D01*
X5731000Y3247000D02*
X5701000Y3217000D01*
X5706000Y1123000D02*
X5736000Y1093000D01*
X5736000Y1123000D02*
X5706000Y1093000D01*
X5727000Y1515500D02*
X5757000Y1485500D01*
X5757000Y1515500D02*
X5727000Y1485500D01*
X5727000Y1375500D02*
X5757000Y1345500D01*
X5757000Y1375500D02*
X5727000Y1345500D01*
X5728000Y1445500D02*
X5758000Y1415500D01*
X5758000Y1445500D02*
X5728000Y1415500D01*
X5728000Y1305500D02*
X5758000Y1275500D01*
X5758000Y1305500D02*
X5728000Y1275500D01*
X5741000Y3145000D02*
X5771000Y3115000D01*
X5771000Y3145000D02*
X5741000Y3115000D01*
X5742000Y2004500D02*
X5772000Y1974500D01*
X5772000Y2004500D02*
X5742000Y1974500D01*
X5742000Y1865500D02*
X5772000Y1835500D01*
X5772000Y1865500D02*
X5742000Y1835500D01*
X5743000Y1934500D02*
X5773000Y1904500D01*
X5773000Y1934500D02*
X5743000Y1904500D01*
X5743000Y1795500D02*
X5773000Y1765500D01*
X5773000Y1795500D02*
X5743000Y1765500D01*
X5751000Y3297000D02*
X5781000Y3267000D01*
X5781000Y3297000D02*
X5751000Y3267000D01*
X5754000Y1174000D02*
X5784000Y1144000D01*
X5784000Y1174000D02*
X5754000Y1144000D01*
X5754000Y1074000D02*
X5784000Y1044000D01*
X5784000Y1074000D02*
X5754000Y1044000D01*
X5759000Y2762000D02*
X5789000Y2732000D01*
X5789000Y2762000D02*
X5759000Y2732000D01*
X5759000Y2606667D02*
X5789000Y2576667D01*
X5789000Y2606667D02*
X5759000Y2576667D01*
X5759000Y2529000D02*
X5789000Y2499000D01*
X5789000Y2529000D02*
X5759000Y2499000D01*
X5760000Y2684333D02*
X5790000Y2654333D01*
X5790000Y2684333D02*
X5760000Y2654333D01*
X5782000Y1515500D02*
X5812000Y1485500D01*
X5812000Y1515500D02*
X5782000Y1485500D01*
X5782000Y1375500D02*
X5812000Y1345500D01*
X5812000Y1375500D02*
X5782000Y1345500D01*
X5783000Y1445500D02*
X5813000Y1415500D01*
X5813000Y1445500D02*
X5783000Y1415500D01*
X5783000Y1305500D02*
X5813000Y1275500D01*
X5813000Y1305500D02*
X5783000Y1275500D01*
X5801000Y3347000D02*
X5831000Y3317000D01*
X5831000Y3347000D02*
X5801000Y3317000D01*
X5801000Y3247000D02*
X5831000Y3217000D01*
X5831000Y3247000D02*
X5801000Y3217000D01*
X5806000Y1123000D02*
X5836000Y1093000D01*
X5836000Y1123000D02*
X5806000Y1093000D01*
X5851000Y3297000D02*
X5881000Y3267000D01*
X5881000Y3297000D02*
X5851000Y3267000D01*
X5852000Y1515500D02*
X5882000Y1485500D01*
X5882000Y1515500D02*
X5852000Y1485500D01*
X5852000Y1375500D02*
X5882000Y1345500D01*
X5882000Y1375500D02*
X5852000Y1345500D01*
X5853000Y1445500D02*
X5883000Y1415500D01*
X5883000Y1445500D02*
X5853000Y1415500D01*
X5853000Y1305500D02*
X5883000Y1275500D01*
X5883000Y1305500D02*
X5853000Y1275500D01*
X5854000Y1174000D02*
X5884000Y1144000D01*
X5884000Y1174000D02*
X5854000Y1144000D01*
X5854000Y1074000D02*
X5884000Y1044000D01*
X5884000Y1074000D02*
X5854000Y1044000D01*
X5901000Y3347000D02*
X5931000Y3317000D01*
X5931000Y3347000D02*
X5901000Y3317000D01*
X5901000Y3247000D02*
X5931000Y3217000D01*
X5931000Y3247000D02*
X5901000Y3217000D01*
X5906000Y1123000D02*
X5936000Y1093000D01*
X5936000Y1123000D02*
X5906000Y1093000D01*
X5907000Y1515500D02*
X5937000Y1485500D01*
X5937000Y1515500D02*
X5907000Y1485500D01*
X5907000Y1375500D02*
X5937000Y1345500D01*
X5937000Y1375500D02*
X5907000Y1345500D01*
X5908000Y1445500D02*
X5938000Y1415500D01*
X5938000Y1445500D02*
X5908000Y1415500D01*
X5908000Y1305500D02*
X5938000Y1275500D01*
X5938000Y1305500D02*
X5908000Y1275500D01*
X5951000Y3297000D02*
X5981000Y3267000D01*
X5981000Y3297000D02*
X5951000Y3267000D01*
X5954000Y1174000D02*
X5984000Y1144000D01*
X5984000Y1174000D02*
X5954000Y1144000D01*
X5954000Y1074000D02*
X5984000Y1044000D01*
X5984000Y1074000D02*
X5954000Y1044000D01*
X5962000Y1515500D02*
X5992000Y1485500D01*
X5992000Y1515500D02*
X5962000Y1485500D01*
X5962000Y1375500D02*
X5992000Y1345500D01*
X5992000Y1375500D02*
X5962000Y1345500D01*
X5963000Y1445500D02*
X5993000Y1415500D01*
X5993000Y1445500D02*
X5963000Y1415500D01*
X5963000Y1305500D02*
X5993000Y1275500D01*
X5993000Y1305500D02*
X5963000Y1275500D01*
X6001000Y3347000D02*
X6031000Y3317000D01*
X6031000Y3347000D02*
X6001000Y3317000D01*
X6001000Y3247000D02*
X6031000Y3217000D01*
X6031000Y3247000D02*
X6001000Y3217000D01*
X6006000Y1123000D02*
X6036000Y1093000D01*
X6036000Y1123000D02*
X6006000Y1093000D01*
X6051000Y3297000D02*
X6081000Y3267000D01*
X6081000Y3297000D02*
X6051000Y3267000D01*
X6054000Y1174000D02*
X6084000Y1144000D01*
X6084000Y1174000D02*
X6054000Y1144000D01*
X6054000Y1074000D02*
X6084000Y1044000D01*
X6084000Y1074000D02*
X6054000Y1044000D01*
X6101000Y3347000D02*
X6131000Y3317000D01*
X6131000Y3347000D02*
X6101000Y3317000D01*
X6101000Y3247000D02*
X6131000Y3217000D01*
X6131000Y3247000D02*
X6101000Y3217000D01*
X6106000Y1123000D02*
X6136000Y1093000D01*
X6136000Y1123000D02*
X6106000Y1093000D01*
X6151000Y3297000D02*
X6181000Y3267000D01*
X6181000Y3297000D02*
X6151000Y3267000D01*
X6154000Y1174000D02*
X6184000Y1144000D01*
X6184000Y1174000D02*
X6154000Y1144000D01*
X6154000Y1074000D02*
X6184000Y1044000D01*
X6184000Y1074000D02*
X6154000Y1044000D01*
X6201000Y3347000D02*
X6231000Y3317000D01*
X6231000Y3347000D02*
X6201000Y3317000D01*
X6201000Y3247000D02*
X6231000Y3217000D01*
X6231000Y3247000D02*
X6201000Y3217000D01*
X6206000Y1123000D02*
X6236000Y1093000D01*
X6236000Y1123000D02*
X6206000Y1093000D01*
X6251000Y3297000D02*
X6281000Y3267000D01*
X6281000Y3297000D02*
X6251000Y3267000D01*
X6254000Y1174000D02*
X6284000Y1144000D01*
X6284000Y1174000D02*
X6254000Y1144000D01*
X6254000Y1074000D02*
X6284000Y1044000D01*
X6284000Y1074000D02*
X6254000Y1044000D01*
X6301000Y3347000D02*
X6331000Y3317000D01*
X6331000Y3347000D02*
X6301000Y3317000D01*
X6301000Y3247000D02*
X6331000Y3217000D01*
X6331000Y3247000D02*
X6301000Y3217000D01*
X6306000Y1123000D02*
X6336000Y1093000D01*
X6336000Y1123000D02*
X6306000Y1093000D01*
X6345000Y1201000D02*
X6375000Y1171000D01*
X6375000Y1201000D02*
X6345000Y1171000D01*
X6351000Y3297000D02*
X6381000Y3267000D01*
X6381000Y3297000D02*
X6351000Y3267000D01*
X6354000Y1074000D02*
X6384000Y1044000D01*
X6384000Y1074000D02*
X6354000Y1044000D01*
X6371000Y3220000D02*
X6401000Y3190000D01*
X6401000Y3220000D02*
X6371000Y3190000D01*
X6395000Y1151000D02*
X6425000Y1121000D01*
X6425000Y1151000D02*
X6395000Y1121000D01*
X6401000Y3347000D02*
X6431000Y3317000D01*
X6431000Y3347000D02*
X6401000Y3317000D01*
X6406000Y1263000D02*
X6436000Y1233000D01*
X6436000Y1263000D02*
X6406000Y1233000D01*
X6414000Y3160000D02*
X6444000Y3130000D01*
X6444000Y3160000D02*
X6414000Y3130000D01*
X6422000Y3268000D02*
X6452000Y3238000D01*
X6452000Y3268000D02*
X6422000Y3238000D01*
X6424000Y3064000D02*
X6454000Y3034000D01*
X6454000Y3064000D02*
X6424000Y3034000D01*
X6424000Y2964000D02*
X6454000Y2934000D01*
X6454000Y2964000D02*
X6424000Y2934000D01*
X6424000Y2864000D02*
X6454000Y2834000D01*
X6454000Y2864000D02*
X6424000Y2834000D01*
X6424000Y2764000D02*
X6454000Y2734000D01*
X6454000Y2764000D02*
X6424000Y2734000D01*
X6424000Y2664000D02*
X6454000Y2634000D01*
X6454000Y2664000D02*
X6424000Y2634000D01*
X6424000Y2564000D02*
X6454000Y2534000D01*
X6454000Y2564000D02*
X6424000Y2534000D01*
X6424000Y2464000D02*
X6454000Y2434000D01*
X6454000Y2464000D02*
X6424000Y2434000D01*
X6424000Y2364000D02*
X6454000Y2334000D01*
X6454000Y2364000D02*
X6424000Y2334000D01*
X6424000Y2264000D02*
X6454000Y2234000D01*
X6454000Y2264000D02*
X6424000Y2234000D01*
X6424000Y2164000D02*
X6454000Y2134000D01*
X6454000Y2164000D02*
X6424000Y2134000D01*
X6424000Y2064000D02*
X6454000Y2034000D01*
X6454000Y2064000D02*
X6424000Y2034000D01*
X6424000Y1964000D02*
X6454000Y1934000D01*
X6454000Y1964000D02*
X6424000Y1934000D01*
X6424000Y1864000D02*
X6454000Y1834000D01*
X6454000Y1864000D02*
X6424000Y1834000D01*
X6424000Y1764000D02*
X6454000Y1734000D01*
X6454000Y1764000D02*
X6424000Y1734000D01*
X6424000Y1664000D02*
X6454000Y1634000D01*
X6454000Y1664000D02*
X6424000Y1634000D01*
X6424000Y1564000D02*
X6454000Y1534000D01*
X6454000Y1564000D02*
X6424000Y1534000D01*
X6424000Y1464000D02*
X6454000Y1434000D01*
X6454000Y1464000D02*
X6424000Y1434000D01*
X6424000Y1364000D02*
X6454000Y1334000D01*
X6454000Y1364000D02*
X6424000Y1334000D01*
X6429000Y1085000D02*
X6459000Y1055000D01*
X6459000Y1085000D02*
X6429000Y1055000D01*
X6450000Y1209000D02*
X6480000Y1179000D01*
X6480000Y1209000D02*
X6450000Y1179000D01*
X6462000Y3207000D02*
X6492000Y3177000D01*
X6492000Y3207000D02*
X6462000Y3177000D01*
X6467000Y1306000D02*
X6497000Y1276000D01*
X6497000Y1306000D02*
X6467000Y1276000D01*
X6472000Y3313000D02*
X6502000Y3283000D01*
X6502000Y3313000D02*
X6472000Y3283000D01*
X6474000Y3121000D02*
X6504000Y3091000D01*
X6504000Y3121000D02*
X6474000Y3091000D01*
X6474000Y2913000D02*
X6504000Y2883000D01*
X6504000Y2913000D02*
X6474000Y2883000D01*
X6474000Y2813000D02*
X6504000Y2783000D01*
X6504000Y2813000D02*
X6474000Y2783000D01*
X6474000Y2713000D02*
X6504000Y2683000D01*
X6504000Y2713000D02*
X6474000Y2683000D01*
X6474000Y2613000D02*
X6504000Y2583000D01*
X6504000Y2613000D02*
X6474000Y2583000D01*
X6474000Y2513000D02*
X6504000Y2483000D01*
X6504000Y2513000D02*
X6474000Y2483000D01*
X6474000Y2413000D02*
X6504000Y2383000D01*
X6504000Y2413000D02*
X6474000Y2383000D01*
X6474000Y2313000D02*
X6504000Y2283000D01*
X6504000Y2313000D02*
X6474000Y2283000D01*
X6474000Y2213000D02*
X6504000Y2183000D01*
X6504000Y2213000D02*
X6474000Y2183000D01*
X6474000Y2113000D02*
X6504000Y2083000D01*
X6504000Y2113000D02*
X6474000Y2083000D01*
X6474000Y2013000D02*
X6504000Y1983000D01*
X6504000Y2013000D02*
X6474000Y1983000D01*
X6474000Y1913000D02*
X6504000Y1883000D01*
X6504000Y1913000D02*
X6474000Y1883000D01*
X6474000Y1813000D02*
X6504000Y1783000D01*
X6504000Y1813000D02*
X6474000Y1783000D01*
X6474000Y1713000D02*
X6504000Y1683000D01*
X6504000Y1713000D02*
X6474000Y1683000D01*
X6474000Y1613000D02*
X6504000Y1583000D01*
X6504000Y1613000D02*
X6474000Y1583000D01*
X6474000Y1513000D02*
X6504000Y1483000D01*
X6504000Y1513000D02*
X6474000Y1483000D01*
X6474000Y1413000D02*
X6504000Y1383000D01*
X6504000Y1413000D02*
X6474000Y1383000D01*
X6475000Y3014000D02*
X6505000Y2984000D01*
X6505000Y3014000D02*
X6475000Y2984000D01*
X6483000Y1127000D02*
X6513000Y1097000D01*
X6513000Y1127000D02*
X6483000Y1097000D01*
X6516000Y3251000D02*
X6546000Y3221000D01*
X6546000Y3251000D02*
X6516000Y3221000D01*
X6517000Y1191000D02*
X6547000Y1161000D01*
X6547000Y1191000D02*
X6517000Y1161000D01*
X6523000Y3167000D02*
X6553000Y3137000D01*
X6553000Y3167000D02*
X6523000Y3137000D01*
X6523000Y3065000D02*
X6553000Y3035000D01*
X6553000Y3065000D02*
X6523000Y3035000D01*
X6524000Y2964000D02*
X6554000Y2934000D01*
X6554000Y2964000D02*
X6524000Y2934000D01*
X6524000Y2864000D02*
X6554000Y2834000D01*
X6554000Y2864000D02*
X6524000Y2834000D01*
X6524000Y2764000D02*
X6554000Y2734000D01*
X6554000Y2764000D02*
X6524000Y2734000D01*
X6524000Y2664000D02*
X6554000Y2634000D01*
X6554000Y2664000D02*
X6524000Y2634000D01*
X6524000Y2564000D02*
X6554000Y2534000D01*
X6554000Y2564000D02*
X6524000Y2534000D01*
X6524000Y2464000D02*
X6554000Y2434000D01*
X6554000Y2464000D02*
X6524000Y2434000D01*
X6524000Y2364000D02*
X6554000Y2334000D01*
X6554000Y2364000D02*
X6524000Y2334000D01*
X6524000Y2264000D02*
X6554000Y2234000D01*
X6554000Y2264000D02*
X6524000Y2234000D01*
X6524000Y2164000D02*
X6554000Y2134000D01*
X6554000Y2164000D02*
X6524000Y2134000D01*
X6524000Y2064000D02*
X6554000Y2034000D01*
X6554000Y2064000D02*
X6524000Y2034000D01*
X6524000Y1964000D02*
X6554000Y1934000D01*
X6554000Y1964000D02*
X6524000Y1934000D01*
X6524000Y1864000D02*
X6554000Y1834000D01*
X6554000Y1864000D02*
X6524000Y1834000D01*
X6524000Y1764000D02*
X6554000Y1734000D01*
X6554000Y1764000D02*
X6524000Y1734000D01*
X6524000Y1664000D02*
X6554000Y1634000D01*
X6554000Y1664000D02*
X6524000Y1634000D01*
X6524000Y1564000D02*
X6554000Y1534000D01*
X6554000Y1564000D02*
X6524000Y1534000D01*
X6524000Y1464000D02*
X6554000Y1434000D01*
X6554000Y1464000D02*
X6524000Y1434000D01*
X6524000Y1364000D02*
X6554000Y1334000D01*
X6554000Y1364000D02*
X6524000Y1334000D01*
X6524000Y1270000D02*
X6554000Y1240000D01*
X6554000Y1270000D02*
X6524000Y1240000D01*
D12*
X36429Y-715714D02*
X36429Y-415714D01*
X107857Y-415714D01*
X150714Y-430000D01*
X179286Y-458571D01*
X193571Y-487143D01*
X207857Y-544286D01*
X207857Y-587143D01*
X193571Y-644286D01*
X179286Y-672857D01*
X150714Y-701428D01*
X107857Y-715714D01*
X36429Y-715714D01*
X336429Y-715714D02*
X336429Y-515714D01*
X336429Y-572857D02*
X350714Y-544286D01*
X365000Y-530000D01*
X393571Y-515714D01*
X422143Y-515714D01*
X522143Y-715714D02*
X522143Y-515714D01*
X522143Y-415714D02*
X507857Y-430000D01*
X522143Y-444286D01*
X536429Y-430000D01*
X522143Y-415714D01*
X522143Y-444286D01*
X707857Y-715714D02*
X679286Y-701428D01*
X665000Y-672857D01*
X665000Y-415714D01*
X865000Y-715714D02*
X836428Y-701428D01*
X822143Y-672857D01*
X822143Y-415714D01*
X1207857Y-715714D02*
X1207857Y-415714D01*
X1307857Y-630000D01*
X1407857Y-415714D01*
X1407857Y-715714D01*
X1679286Y-715714D02*
X1679286Y-558571D01*
X1665000Y-530000D01*
X1636428Y-515714D01*
X1579286Y-515714D01*
X1550714Y-530000D01*
X1679286Y-701428D02*
X1650714Y-715714D01*
X1579286Y-715714D01*
X1550714Y-701428D01*
X1536428Y-672857D01*
X1536428Y-644286D01*
X1550714Y-615714D01*
X1579286Y-601429D01*
X1650714Y-601429D01*
X1679286Y-587143D01*
X1822143Y-515714D02*
X1822143Y-815714D01*
X1822143Y-530000D02*
X1850714Y-515714D01*
X1907857Y-515714D01*
X1936428Y-530000D01*
X1950714Y-544286D01*
X1965000Y-572857D01*
X1965000Y-658571D01*
X1950714Y-687143D01*
X1936428Y-701428D01*
X1907857Y-715714D01*
X1850714Y-715714D01*
X1822143Y-701428D01*
X2093571Y-687143D02*
X2107857Y-701428D01*
X2093571Y-715714D01*
X2079286Y-701428D01*
X2093571Y-687143D01*
X2093571Y-715714D01*
X2093571Y-530000D02*
X2107857Y-544286D01*
X2093571Y-558571D01*
X2079286Y-544286D01*
X2093571Y-530000D01*
X2093571Y-558571D01*
X-280000Y-1195000D02*
X-250000Y-1225000D01*
X-250000Y-1195000D02*
X-280000Y-1225000D01*
X93571Y-1045714D02*
X122143Y-1045714D01*
X150714Y-1060000D01*
X165000Y-1074286D01*
X179286Y-1102857D01*
X193571Y-1160000D01*
X193571Y-1231429D01*
X179286Y-1288571D01*
X165000Y-1317143D01*
X150714Y-1331429D01*
X122143Y-1345714D01*
X93571Y-1345714D01*
X65000Y-1331429D01*
X50714Y-1317143D01*
X36429Y-1288571D01*
X22143Y-1231429D01*
X22143Y-1160000D01*
X36429Y-1102857D01*
X50714Y-1074286D01*
X65000Y-1060000D01*
X93571Y-1045714D01*
X322143Y-1317143D02*
X336429Y-1331429D01*
X322143Y-1345714D01*
X307857Y-1331429D01*
X322143Y-1317143D01*
X322143Y-1345714D01*
X436428Y-1045714D02*
X622143Y-1045714D01*
X522143Y-1160000D01*
X565000Y-1160000D01*
X593571Y-1174286D01*
X607857Y-1188571D01*
X622143Y-1217143D01*
X622143Y-1288571D01*
X607857Y-1317143D01*
X593571Y-1331429D01*
X565000Y-1345714D01*
X479286Y-1345714D01*
X450714Y-1331429D01*
X436428Y-1317143D01*
X807857Y-1045714D02*
X836428Y-1045714D01*
X865000Y-1060000D01*
X879286Y-1074286D01*
X893571Y-1102857D01*
X907857Y-1160000D01*
X907857Y-1231429D01*
X893571Y-1288571D01*
X879286Y-1317143D01*
X865000Y-1331429D01*
X836428Y-1345714D01*
X807857Y-1345714D01*
X779286Y-1331429D01*
X765000Y-1317143D01*
X750714Y-1288571D01*
X736428Y-1231429D01*
X736428Y-1160000D01*
X750714Y-1102857D01*
X765000Y-1074286D01*
X779286Y-1060000D01*
X807857Y-1045714D01*
X1036428Y-1345714D02*
X1036428Y-1145714D01*
X1036428Y-1174286D02*
X1050714Y-1160000D01*
X1079286Y-1145714D01*
X1122143Y-1145714D01*
X1150714Y-1160000D01*
X1165000Y-1188571D01*
X1165000Y-1345714D01*
X1165000Y-1188571D02*
X1179286Y-1160000D01*
X1207857Y-1145714D01*
X1250714Y-1145714D01*
X1279286Y-1160000D01*
X1293571Y-1188571D01*
X1293571Y-1345714D01*
X1436428Y-1345714D02*
X1436428Y-1145714D01*
X1436428Y-1174286D02*
X1450714Y-1160000D01*
X1479286Y-1145714D01*
X1522143Y-1145714D01*
X1550714Y-1160000D01*
X1565000Y-1188571D01*
X1565000Y-1345714D01*
X1565000Y-1188571D02*
X1579286Y-1160000D01*
X1607857Y-1145714D01*
X1650714Y-1145714D01*
X1679286Y-1160000D01*
X1693571Y-1188571D01*
X1693571Y-1345714D01*
X2279286Y-1031428D02*
X2022143Y-1417143D01*
X2665000Y-1045714D02*
X2693571Y-1045714D01*
X2722143Y-1060000D01*
X2736429Y-1074286D01*
X2750714Y-1102857D01*
X2765000Y-1160000D01*
X2765000Y-1231429D01*
X2750714Y-1288571D01*
X2736429Y-1317143D01*
X2722143Y-1331429D01*
X2693571Y-1345714D01*
X2665000Y-1345714D01*
X2636429Y-1331429D01*
X2622143Y-1317143D01*
X2607857Y-1288571D01*
X2593571Y-1231429D01*
X2593571Y-1160000D01*
X2607857Y-1102857D01*
X2622143Y-1074286D01*
X2636429Y-1060000D01*
X2665000Y-1045714D01*
X2893571Y-1317143D02*
X2907857Y-1331429D01*
X2893571Y-1345714D01*
X2879286Y-1331429D01*
X2893571Y-1317143D01*
X2893571Y-1345714D01*
X3093571Y-1045714D02*
X3122143Y-1045714D01*
X3150714Y-1060000D01*
X3165000Y-1074286D01*
X3179286Y-1102857D01*
X3193571Y-1160000D01*
X3193571Y-1231429D01*
X3179286Y-1288571D01*
X3165000Y-1317143D01*
X3150714Y-1331429D01*
X3122143Y-1345714D01*
X3093571Y-1345714D01*
X3065000Y-1331429D01*
X3050714Y-1317143D01*
X3036428Y-1288571D01*
X3022143Y-1231429D01*
X3022143Y-1160000D01*
X3036428Y-1102857D01*
X3050714Y-1074286D01*
X3065000Y-1060000D01*
X3093571Y-1045714D01*
X3479286Y-1345714D02*
X3307857Y-1345714D01*
X3393571Y-1345714D02*
X3393571Y-1045714D01*
X3365000Y-1088571D01*
X3336428Y-1117143D01*
X3307857Y-1131429D01*
X3593571Y-1074286D02*
X3607857Y-1060000D01*
X3636428Y-1045714D01*
X3707857Y-1045714D01*
X3736428Y-1060000D01*
X3750714Y-1074286D01*
X3765000Y-1102857D01*
X3765000Y-1131429D01*
X3750714Y-1174286D01*
X3579286Y-1345714D01*
X3765000Y-1345714D01*
X3879286Y-1045714D02*
X3879286Y-1102857D01*
X3993571Y-1045714D02*
X3993571Y-1102857D01*
X4436429Y-1460000D02*
X4422143Y-1445714D01*
X4393571Y-1402857D01*
X4379286Y-1374286D01*
X4365000Y-1331429D01*
X4350714Y-1260000D01*
X4350714Y-1202857D01*
X4365000Y-1131429D01*
X4379286Y-1088571D01*
X4393571Y-1060000D01*
X4422143Y-1017143D01*
X4436429Y-1002857D01*
X4693571Y-1045714D02*
X4550714Y-1045714D01*
X4536429Y-1188571D01*
X4550714Y-1174286D01*
X4579286Y-1160000D01*
X4650714Y-1160000D01*
X4679286Y-1174286D01*
X4693571Y-1188571D01*
X4707857Y-1217143D01*
X4707857Y-1288571D01*
X4693571Y-1317143D01*
X4679286Y-1331429D01*
X4650714Y-1345714D01*
X4579286Y-1345714D01*
X4550714Y-1331429D01*
X4536429Y-1317143D01*
X4979286Y-1045714D02*
X4836429Y-1045714D01*
X4822143Y-1188571D01*
X4836429Y-1174286D01*
X4865000Y-1160000D01*
X4936429Y-1160000D01*
X4965000Y-1174286D01*
X4979286Y-1188571D01*
X4993571Y-1217143D01*
X4993571Y-1288571D01*
X4979286Y-1317143D01*
X4965000Y-1331429D01*
X4936429Y-1345714D01*
X4865000Y-1345714D01*
X4836429Y-1331429D01*
X4822143Y-1317143D01*
X5279286Y-1345714D02*
X5107857Y-1345714D01*
X5193571Y-1345714D02*
X5193571Y-1045714D01*
X5165000Y-1088571D01*
X5136429Y-1117143D01*
X5107857Y-1131429D01*
X5636428Y-1345714D02*
X5636428Y-1045714D01*
X5765000Y-1345714D02*
X5765000Y-1188571D01*
X5750714Y-1160000D01*
X5722143Y-1145714D01*
X5679286Y-1145714D01*
X5650714Y-1160000D01*
X5636428Y-1174286D01*
X5950714Y-1345714D02*
X5922143Y-1331429D01*
X5907857Y-1317143D01*
X5893571Y-1288571D01*
X5893571Y-1202857D01*
X5907857Y-1174286D01*
X5922143Y-1160000D01*
X5950714Y-1145714D01*
X5993571Y-1145714D01*
X6022143Y-1160000D01*
X6036428Y-1174286D01*
X6050714Y-1202857D01*
X6050714Y-1288571D01*
X6036428Y-1317143D01*
X6022143Y-1331429D01*
X5993571Y-1345714D01*
X5950714Y-1345714D01*
X6222143Y-1345714D02*
X6193571Y-1331429D01*
X6179286Y-1302857D01*
X6179286Y-1045714D01*
X6450714Y-1331429D02*
X6422143Y-1345714D01*
X6365000Y-1345714D01*
X6336428Y-1331429D01*
X6322143Y-1302857D01*
X6322143Y-1188571D01*
X6336428Y-1160000D01*
X6365000Y-1145714D01*
X6422143Y-1145714D01*
X6450714Y-1160000D01*
X6465000Y-1188571D01*
X6465000Y-1217143D01*
X6322143Y-1245714D01*
X6579286Y-1331429D02*
X6607857Y-1345714D01*
X6665000Y-1345714D01*
X6693571Y-1331429D01*
X6707857Y-1302857D01*
X6707857Y-1288571D01*
X6693571Y-1260000D01*
X6665000Y-1245714D01*
X6622143Y-1245714D01*
X6593571Y-1231429D01*
X6579286Y-1202857D01*
X6579286Y-1188571D01*
X6593571Y-1160000D01*
X6622143Y-1145714D01*
X6665000Y-1145714D01*
X6693571Y-1160000D01*
X6807857Y-1460000D02*
X6822143Y-1445714D01*
X6850714Y-1402857D01*
X6865000Y-1374286D01*
X6879286Y-1331429D01*
X6893571Y-1260000D01*
X6893571Y-1202857D01*
X6879286Y-1131429D01*
X6865000Y-1088571D01*
X6850714Y-1060000D01*
X6822143Y-1017143D01*
X6807857Y-1002857D01*
M02*
