G04 #@! TF.GenerationSoftware,KiCad,Pcbnew,(6.0.0)*
G04 #@! TF.CreationDate,2022-03-25T20:26:53+08:00*
G04 #@! TF.ProjectId,Dual-Power,4475616c-2d50-46f7-9765-722e6b696361,rev?*
G04 #@! TF.SameCoordinates,Original*
G04 #@! TF.FileFunction,Copper,L3,Inr*
G04 #@! TF.FilePolarity,Positive*
%FSLAX46Y46*%
G04 Gerber Fmt 4.6, Leading zero omitted, Abs format (unit mm)*
G04 Created by KiCad (PCBNEW (6.0.0)) date 2022-03-25 20:26:53*
%MOMM*%
%LPD*%
G01*
G04 APERTURE LIST*
G04 Aperture macros list*
%AMRoundRect*
0 Rectangle with rounded corners*
0 $1 Rounding radius*
0 $2 $3 $4 $5 $6 $7 $8 $9 X,Y pos of 4 corners*
0 Add a 4 corners polygon primitive as box body*
4,1,4,$2,$3,$4,$5,$6,$7,$8,$9,$2,$3,0*
0 Add four circle primitives for the rounded corners*
1,1,$1+$1,$2,$3*
1,1,$1+$1,$4,$5*
1,1,$1+$1,$6,$7*
1,1,$1+$1,$8,$9*
0 Add four rect primitives between the rounded corners*
20,1,$1+$1,$2,$3,$4,$5,0*
20,1,$1+$1,$4,$5,$6,$7,0*
20,1,$1+$1,$6,$7,$8,$9,0*
20,1,$1+$1,$8,$9,$2,$3,0*%
G04 Aperture macros list end*
G04 #@! TA.AperFunction,ComponentPad*
%ADD10RoundRect,0.250000X-0.500000X0.500000X-0.500000X-0.500000X0.500000X-0.500000X0.500000X0.500000X0*%
G04 #@! TD*
G04 #@! TA.AperFunction,ComponentPad*
%ADD11C,1.500000*%
G04 #@! TD*
G04 #@! TA.AperFunction,ComponentPad*
%ADD12RoundRect,0.250001X1.399999X-1.099999X1.399999X1.099999X-1.399999X1.099999X-1.399999X-1.099999X0*%
G04 #@! TD*
G04 #@! TA.AperFunction,ComponentPad*
%ADD13O,3.300000X2.700000*%
G04 #@! TD*
G04 #@! TA.AperFunction,ViaPad*
%ADD14C,0.500000*%
G04 #@! TD*
G04 #@! TA.AperFunction,ViaPad*
%ADD15C,0.450000*%
G04 #@! TD*
G04 #@! TA.AperFunction,ViaPad*
%ADD16C,0.550000*%
G04 #@! TD*
G04 #@! TA.AperFunction,Conductor*
%ADD17C,0.500000*%
G04 #@! TD*
G04 #@! TA.AperFunction,Conductor*
%ADD18C,0.400000*%
G04 #@! TD*
G04 #@! TA.AperFunction,Conductor*
%ADD19C,0.300000*%
G04 #@! TD*
G04 APERTURE END LIST*
D10*
G04 #@! TO.N,Vout1(12V)*
G04 #@! TO.C,J1*
X163500000Y-65860000D03*
D11*
X163500000Y-68860000D03*
X163500000Y-71860000D03*
X163500000Y-74860000D03*
X163500000Y-77860000D03*
G04 #@! TO.N,GND*
X166500000Y-65860000D03*
X166500000Y-68860000D03*
X166500000Y-71860000D03*
X166500000Y-74860000D03*
X166500000Y-77860000D03*
G04 #@! TD*
D10*
G04 #@! TO.N,Vout2(-12V)*
G04 #@! TO.C,J2*
X163500000Y-96110000D03*
D11*
X163500000Y-99110000D03*
X163500000Y-102110000D03*
X163500000Y-105110000D03*
X163500000Y-108110000D03*
G04 #@! TO.N,GND*
X166500000Y-96110000D03*
X166500000Y-99110000D03*
X166500000Y-102110000D03*
X166500000Y-105110000D03*
X166500000Y-108110000D03*
G04 #@! TD*
D12*
G04 #@! TO.N,VIN*
G04 #@! TO.C,J3*
X122100000Y-70900000D03*
D13*
X122100000Y-66700000D03*
G04 #@! TO.N,GND*
X116600000Y-70900000D03*
X116600000Y-66700000D03*
G04 #@! TD*
D14*
G04 #@! TO.N,GND*
X142400000Y-86160000D03*
X143200000Y-86160000D03*
X144000000Y-86160000D03*
X141600000Y-86960000D03*
X142400000Y-86960000D03*
X143200000Y-86960000D03*
X144000000Y-86960000D03*
X141600000Y-87760000D03*
X142400000Y-87760000D03*
X143200000Y-87760000D03*
X144000000Y-87760000D03*
X141600000Y-88560000D03*
X142400000Y-88560000D03*
X143200000Y-88560000D03*
X144000000Y-88560000D03*
D15*
X169400000Y-61800000D03*
X167400000Y-60700000D03*
X169400000Y-60700000D03*
X168400000Y-60700000D03*
X165400000Y-60700000D03*
X166400000Y-60700000D03*
X165400000Y-113800000D03*
X166400000Y-113800000D03*
X169400000Y-113800000D03*
X167400000Y-113800000D03*
X168400000Y-113800000D03*
X117400000Y-60700000D03*
X118400000Y-60700000D03*
X119400000Y-60700000D03*
X120400000Y-60700000D03*
X121400000Y-60700000D03*
X122400000Y-60700000D03*
X123400000Y-60700000D03*
X124400000Y-60700000D03*
X125400000Y-60700000D03*
X126400000Y-60700000D03*
X127400000Y-60700000D03*
X128400000Y-60700000D03*
X129400000Y-60700000D03*
X130400000Y-60700000D03*
X131400000Y-60700000D03*
X132400000Y-60700000D03*
X133400000Y-60700000D03*
X134400000Y-60700000D03*
X135400000Y-60700000D03*
X136400000Y-60700000D03*
X137400000Y-60700000D03*
X138400000Y-60700000D03*
X139400000Y-60700000D03*
X140400000Y-60700000D03*
X141400000Y-60700000D03*
X142400000Y-60700000D03*
X143400000Y-60700000D03*
X144400000Y-60700000D03*
X145400000Y-60700000D03*
X146400000Y-60700000D03*
X147400000Y-60700000D03*
X148400000Y-60700000D03*
X149400000Y-60700000D03*
X150400000Y-60700000D03*
X151400000Y-60700000D03*
X152400000Y-60700000D03*
X153400000Y-60700000D03*
X154400000Y-60700000D03*
X155400000Y-60700000D03*
X156400000Y-60700000D03*
X157400000Y-60700000D03*
X158400000Y-60700000D03*
X159400000Y-60700000D03*
X160400000Y-60700000D03*
X161400000Y-60700000D03*
X162400000Y-60700000D03*
X163400000Y-60700000D03*
X164400000Y-60700000D03*
X142400000Y-113800000D03*
X128400000Y-113800000D03*
X144400000Y-113800000D03*
X136400000Y-113800000D03*
X134400000Y-113800000D03*
X152400000Y-113800000D03*
X119400000Y-113800000D03*
X129400000Y-113800000D03*
X124400000Y-113800000D03*
X123400000Y-113800000D03*
X118400000Y-113800000D03*
X125400000Y-113800000D03*
X117400000Y-113800000D03*
X137400000Y-113800000D03*
X138400000Y-113800000D03*
X121400000Y-113800000D03*
X141400000Y-113800000D03*
X143400000Y-113800000D03*
X146400000Y-113800000D03*
X149400000Y-113800000D03*
X120400000Y-113800000D03*
X150400000Y-113800000D03*
X151400000Y-113800000D03*
X154400000Y-113800000D03*
X155400000Y-113800000D03*
X147400000Y-113800000D03*
X158400000Y-113800000D03*
X139400000Y-113800000D03*
X159400000Y-113800000D03*
X132400000Y-113800000D03*
X160400000Y-113800000D03*
X161400000Y-113800000D03*
X145400000Y-113800000D03*
X133400000Y-113800000D03*
X130400000Y-113800000D03*
X148400000Y-113800000D03*
X153400000Y-113800000D03*
X122400000Y-113800000D03*
X126400000Y-113800000D03*
X156400000Y-113800000D03*
X157400000Y-113800000D03*
X127400000Y-113800000D03*
X135400000Y-113800000D03*
X131400000Y-113800000D03*
X140400000Y-113800000D03*
X163400000Y-113800000D03*
X164400000Y-113800000D03*
X162400000Y-113800000D03*
X169400000Y-83900000D03*
X169400000Y-72900000D03*
X169400000Y-101900000D03*
X169400000Y-96900000D03*
X169400000Y-86900000D03*
X169400000Y-100900000D03*
X169400000Y-69900000D03*
X169400000Y-91900000D03*
X169400000Y-105900000D03*
X169400000Y-73900000D03*
X169400001Y-107900000D03*
X169400000Y-95900000D03*
X169400001Y-84900000D03*
X169400001Y-103900000D03*
X169400000Y-104900000D03*
X169400000Y-74900000D03*
X169400000Y-108900000D03*
X169400000Y-81900000D03*
X169400000Y-68900000D03*
X169400000Y-88900000D03*
X169400001Y-75900000D03*
X169400000Y-97900000D03*
X169400000Y-76900000D03*
X169400000Y-90900000D03*
X169400000Y-99900000D03*
X169400000Y-67900000D03*
X169400001Y-98900000D03*
X169400000Y-63900000D03*
X169400000Y-106900000D03*
X169400001Y-66900000D03*
X169400001Y-70900000D03*
X169400001Y-93900000D03*
X169400001Y-102900000D03*
X169400001Y-94900000D03*
X169400000Y-65900000D03*
X169400001Y-71900000D03*
X169400000Y-79900000D03*
X169400000Y-85900000D03*
X169400000Y-92900000D03*
X169400001Y-80900000D03*
X169400000Y-64900000D03*
X169400000Y-77900000D03*
X169400001Y-89900000D03*
X169400001Y-112900000D03*
X169400000Y-87900000D03*
X169400000Y-111900000D03*
X169400000Y-78900000D03*
X169400000Y-110900000D03*
X169400001Y-62900000D03*
X169400000Y-109900000D03*
X169400000Y-82900000D03*
D14*
X141600000Y-86160000D03*
D15*
X133750000Y-87500000D03*
X138000000Y-88600000D03*
X140600000Y-89930000D03*
X140100000Y-94350000D03*
X133750000Y-86850000D03*
X133750000Y-88150000D03*
X133750000Y-86200000D03*
G04 #@! TO.N,VIN*
X123400000Y-84200000D03*
X123400000Y-85200000D03*
X123400000Y-86200000D03*
X123400000Y-87200000D03*
X123400000Y-88200000D03*
X123400000Y-89200000D03*
X121800000Y-86200000D03*
X121800000Y-87200000D03*
X122600000Y-88700000D03*
X121800000Y-89200000D03*
X121800000Y-84200000D03*
X121800000Y-85200000D03*
X122600000Y-89700000D03*
X122600000Y-84700000D03*
X122600000Y-86700000D03*
X122600000Y-87700000D03*
X122600000Y-85700000D03*
X121800000Y-88200000D03*
X123100000Y-73199999D03*
X121100000Y-73200000D03*
X122100000Y-73200000D03*
X121100000Y-64500000D03*
X123100000Y-64499999D03*
X122100000Y-64500000D03*
X123400000Y-81500000D03*
X146849982Y-87199990D03*
X135910016Y-91010014D03*
X123400000Y-92200000D03*
G04 #@! TO.N,INTVcc*
X135950000Y-88600000D03*
X138950000Y-88000000D03*
X139200000Y-94600000D03*
G04 #@! TO.N,Vout2(-12V)*
X160400000Y-96900000D03*
X157400000Y-96900000D03*
X161400000Y-96900000D03*
X158400000Y-96900000D03*
X159400000Y-96900000D03*
X158400000Y-94900000D03*
X159400000Y-95900000D03*
X158400000Y-95900000D03*
X161400000Y-94900000D03*
X159400000Y-94900000D03*
X157400000Y-95900000D03*
X157400000Y-94900000D03*
X160400000Y-95900000D03*
X161400000Y-95900000D03*
X160400000Y-94900000D03*
X160900000Y-105300000D03*
X160900000Y-106700000D03*
X160900000Y-101800000D03*
X160900000Y-108100000D03*
X160900000Y-103200000D03*
X160900000Y-107400000D03*
X160900000Y-106000000D03*
X160900000Y-104600000D03*
X160900000Y-103900000D03*
X160900000Y-102500000D03*
X144099998Y-97800001D03*
G04 #@! TO.N,Net-(C23-Pad1)*
X147600000Y-80200000D03*
G04 #@! TO.N,Vout1(12V)*
X160500000Y-65800000D03*
X160500000Y-68600000D03*
X160500000Y-67900000D03*
X160500000Y-67200000D03*
X160500000Y-66500000D03*
X160500000Y-69300000D03*
X160500000Y-70000000D03*
X160500000Y-71400000D03*
X160500000Y-70700000D03*
X160500000Y-72100000D03*
X158300000Y-76600000D03*
X159300000Y-76600000D03*
X160300000Y-76600000D03*
X161300000Y-76600000D03*
X157300000Y-77600000D03*
X158300000Y-77600000D03*
X159300000Y-77600000D03*
X160300000Y-77600000D03*
X161300000Y-77600000D03*
X157300000Y-78600000D03*
X158300000Y-78600000D03*
X159300000Y-78600000D03*
X160300000Y-78600000D03*
X161300000Y-78600000D03*
X157300000Y-76600000D03*
X157850000Y-70800000D03*
X140250000Y-84350000D03*
G04 #@! TO.N,Net-(C25-Pad1)*
X154950000Y-70800000D03*
X141200000Y-83600000D03*
G04 #@! TO.N,Net-(D1-Pad2)*
X137940000Y-86200000D03*
G04 #@! TO.N,Net-(D2-Pad2)*
X137940000Y-87410000D03*
G04 #@! TO.N,Net-(Q1-Pad4)*
X136100000Y-104350000D03*
D16*
X144850000Y-90900000D03*
D15*
G04 #@! TO.N,Net-(Q1-Pad1)*
X138000000Y-93650000D03*
X138000000Y-103300000D03*
G04 #@! TO.N,Net-(Q2-Pad4)*
X146850000Y-86050000D03*
D16*
X136900000Y-81900000D03*
D15*
G04 #@! TO.N,Net-(Q3-Pad4)*
X137000000Y-68700000D03*
X137000000Y-74400000D03*
X146150001Y-83550005D03*
G04 #@! TD*
D17*
G04 #@! TO.N,VIN*
X123400000Y-92200000D02*
X134720030Y-92200000D01*
X146399990Y-87199990D02*
X146849982Y-87199990D01*
X144400000Y-85200000D02*
X146399990Y-87199990D01*
X123400000Y-85200000D02*
X144400000Y-85200000D01*
X134720030Y-92200000D02*
X135910016Y-91010014D01*
D18*
G04 #@! TO.N,INTVcc*
X139200000Y-88250000D02*
X139200000Y-94600000D01*
D19*
X136550000Y-88000000D02*
X135950000Y-88600000D01*
D18*
X138950000Y-88000000D02*
X139200000Y-88250000D01*
D19*
X138950000Y-88000000D02*
X136550000Y-88000000D01*
D17*
G04 #@! TO.N,Net-(Q1-Pad4)*
X136100000Y-104350000D02*
X142500000Y-104350000D01*
X146400000Y-92450000D02*
X144850000Y-90900000D01*
X146400000Y-100450000D02*
X146400000Y-92450000D01*
X142500000Y-104350000D02*
X146400000Y-100450000D01*
G04 #@! TO.N,Net-(Q2-Pad4)*
X142700000Y-81900000D02*
X146850000Y-86050000D01*
X136900000Y-81900000D02*
X142700000Y-81900000D01*
G04 #@! TO.N,Net-(Q3-Pad4)*
X137450000Y-71600000D02*
X137000000Y-72050000D01*
X137000000Y-71600000D02*
X137000000Y-74400000D01*
X137550000Y-71600000D02*
X139550000Y-71600000D01*
X137000000Y-71600000D02*
X137550000Y-71600000D01*
X137450000Y-71600000D02*
X137000000Y-71150000D01*
X137000000Y-68700000D02*
X137000000Y-71150000D01*
X137550000Y-71600000D02*
X137450000Y-71600000D01*
X137000000Y-71150000D02*
X137000000Y-71600000D01*
X139550000Y-71600000D02*
X146150001Y-78200001D01*
X146150001Y-78200001D02*
X146150001Y-83550005D01*
G04 #@! TD*
G04 #@! TA.AperFunction,Conductor*
G04 #@! TO.N,GND*
G36*
X169131133Y-59810925D02*
G01*
X169215545Y-59848916D01*
X169228804Y-59855874D01*
X169443324Y-59985555D01*
X169455647Y-59994061D01*
X169652968Y-60148652D01*
X169664176Y-60158582D01*
X169841418Y-60335824D01*
X169851348Y-60347032D01*
X170005939Y-60544353D01*
X170014443Y-60556674D01*
X170075769Y-60658119D01*
X170144126Y-60771196D01*
X170151084Y-60784455D01*
X170189075Y-60868867D01*
X170200000Y-60919758D01*
X170200000Y-113580242D01*
X170189075Y-113631133D01*
X170151084Y-113715545D01*
X170144126Y-113728804D01*
X170084680Y-113827141D01*
X170038403Y-113903693D01*
X170014445Y-113943324D01*
X170005939Y-113955647D01*
X169851348Y-114152968D01*
X169841418Y-114164176D01*
X169664176Y-114341418D01*
X169652968Y-114351348D01*
X169455647Y-114505939D01*
X169443324Y-114514445D01*
X169228804Y-114644126D01*
X169215545Y-114651084D01*
X169131133Y-114689075D01*
X169080242Y-114700000D01*
X113919758Y-114700000D01*
X113868867Y-114689075D01*
X113784455Y-114651084D01*
X113771196Y-114644126D01*
X113556676Y-114514445D01*
X113544353Y-114505939D01*
X113347032Y-114351348D01*
X113335824Y-114341418D01*
X113158582Y-114164176D01*
X113148652Y-114152968D01*
X112994061Y-113955647D01*
X112985555Y-113943324D01*
X112961598Y-113903693D01*
X112915320Y-113827141D01*
X112855874Y-113728804D01*
X112848916Y-113715545D01*
X112810925Y-113631133D01*
X112800000Y-113580242D01*
X112800000Y-112833789D01*
X113395996Y-112833789D01*
X113404913Y-113071295D01*
X113405990Y-113076430D01*
X113405991Y-113076435D01*
X113437477Y-113226494D01*
X113453719Y-113303904D01*
X113541020Y-113524963D01*
X113543741Y-113529447D01*
X113543743Y-113529451D01*
X113611233Y-113640670D01*
X113664319Y-113728153D01*
X113820090Y-113907664D01*
X114003880Y-114058362D01*
X114008441Y-114060958D01*
X114008442Y-114060959D01*
X114205875Y-114173345D01*
X114205880Y-114173347D01*
X114210433Y-114175939D01*
X114433844Y-114257034D01*
X114667725Y-114299326D01*
X114692619Y-114300500D01*
X114859680Y-114300500D01*
X114862296Y-114300278D01*
X114862297Y-114300278D01*
X115031590Y-114285913D01*
X115036823Y-114285469D01*
X115266874Y-114225760D01*
X115483576Y-114128143D01*
X115680732Y-113995409D01*
X115852705Y-113831355D01*
X115994579Y-113640670D01*
X116025302Y-113580242D01*
X116099913Y-113433493D01*
X116099915Y-113433488D01*
X116102295Y-113428807D01*
X116172775Y-113201824D01*
X116204004Y-112966211D01*
X116195087Y-112728705D01*
X116189442Y-112701798D01*
X116147361Y-112501242D01*
X116147360Y-112501239D01*
X116146281Y-112496096D01*
X116058980Y-112275037D01*
X115991607Y-112164009D01*
X115938408Y-112076341D01*
X115935681Y-112071847D01*
X115795336Y-111910113D01*
X115783356Y-111896307D01*
X115783355Y-111896306D01*
X115779910Y-111892336D01*
X115596120Y-111741638D01*
X115478687Y-111674791D01*
X115394125Y-111626655D01*
X115394120Y-111626653D01*
X115389567Y-111624061D01*
X115166156Y-111542966D01*
X114932275Y-111500674D01*
X114907381Y-111499500D01*
X114740320Y-111499500D01*
X114737704Y-111499722D01*
X114737703Y-111499722D01*
X114726484Y-111500674D01*
X114563177Y-111514531D01*
X114333126Y-111574240D01*
X114116424Y-111671857D01*
X113919268Y-111804591D01*
X113747295Y-111968645D01*
X113605421Y-112159330D01*
X113603042Y-112164008D01*
X113603042Y-112164009D01*
X113548875Y-112270549D01*
X113497705Y-112371193D01*
X113427225Y-112598176D01*
X113426534Y-112603386D01*
X113426534Y-112603388D01*
X113411139Y-112719543D01*
X113395996Y-112833789D01*
X112800000Y-112833789D01*
X112800000Y-111104376D01*
X166634455Y-111104376D01*
X166635179Y-111111265D01*
X166635179Y-111111268D01*
X166652502Y-111276087D01*
X166653227Y-111282983D01*
X166711103Y-111452993D01*
X166805206Y-111605955D01*
X166930859Y-111734268D01*
X167081817Y-111831554D01*
X167149994Y-111856368D01*
X167244063Y-111890607D01*
X167244065Y-111890608D01*
X167250578Y-111892978D01*
X167308253Y-111900264D01*
X167385417Y-111910012D01*
X167385423Y-111910012D01*
X167389283Y-111910500D01*
X167485155Y-111910500D01*
X167488602Y-111910113D01*
X167488608Y-111910113D01*
X167611581Y-111896319D01*
X167618472Y-111895546D01*
X167788073Y-111836485D01*
X167940375Y-111741316D01*
X168058451Y-111624061D01*
X168062890Y-111619653D01*
X168062891Y-111619652D01*
X168067807Y-111614770D01*
X168164037Y-111463136D01*
X168169984Y-111446436D01*
X168221957Y-111300479D01*
X168221958Y-111300475D01*
X168224281Y-111293951D01*
X168245545Y-111115624D01*
X168243640Y-111097494D01*
X168227498Y-110943913D01*
X168227498Y-110943911D01*
X168226773Y-110937017D01*
X168168897Y-110767007D01*
X168074794Y-110614045D01*
X167949141Y-110485732D01*
X167798183Y-110388446D01*
X167730006Y-110363632D01*
X167635937Y-110329393D01*
X167635935Y-110329392D01*
X167629422Y-110327022D01*
X167571747Y-110319736D01*
X167494583Y-110309988D01*
X167494577Y-110309988D01*
X167490717Y-110309500D01*
X167394845Y-110309500D01*
X167391398Y-110309887D01*
X167391392Y-110309887D01*
X167268419Y-110323681D01*
X167261528Y-110324454D01*
X167091927Y-110383515D01*
X166939625Y-110478684D01*
X166812193Y-110605230D01*
X166715963Y-110756864D01*
X166713636Y-110763399D01*
X166658043Y-110919521D01*
X166658042Y-110919525D01*
X166655719Y-110926049D01*
X166634455Y-111104376D01*
X112800000Y-111104376D01*
X112800000Y-108100000D01*
X160369965Y-108100000D01*
X160388026Y-108237183D01*
X160391137Y-108244694D01*
X160391138Y-108244697D01*
X160426046Y-108328973D01*
X160440976Y-108365017D01*
X160525209Y-108474791D01*
X160634982Y-108559024D01*
X160642490Y-108562134D01*
X160642492Y-108562135D01*
X160678980Y-108577248D01*
X160762817Y-108611974D01*
X160900000Y-108630035D01*
X161037183Y-108611974D01*
X161121020Y-108577248D01*
X161157508Y-108562135D01*
X161157510Y-108562134D01*
X161165018Y-108559024D01*
X161274791Y-108474791D01*
X161359024Y-108365017D01*
X161373954Y-108328973D01*
X161408862Y-108244697D01*
X161408863Y-108244694D01*
X161411974Y-108237183D01*
X161430035Y-108100000D01*
X161429411Y-108095262D01*
X162444520Y-108095262D01*
X162461759Y-108300553D01*
X162518544Y-108498586D01*
X162612712Y-108681818D01*
X162616480Y-108686572D01*
X162645402Y-108723062D01*
X162740677Y-108843270D01*
X162745296Y-108847201D01*
X162892950Y-108972865D01*
X162892955Y-108972869D01*
X162897564Y-108976791D01*
X163077398Y-109077297D01*
X163273329Y-109140959D01*
X163279347Y-109141677D01*
X163279349Y-109141677D01*
X163421410Y-109158616D01*
X163477894Y-109165351D01*
X163483938Y-109164886D01*
X163483939Y-109164886D01*
X163545266Y-109160167D01*
X163683300Y-109149546D01*
X163768596Y-109125731D01*
X163875885Y-109095776D01*
X163875889Y-109095774D01*
X163881725Y-109094145D01*
X164065610Y-109001258D01*
X164227951Y-108874424D01*
X164231907Y-108869840D01*
X164231911Y-108869837D01*
X164358602Y-108723062D01*
X164362564Y-108718472D01*
X164383387Y-108681818D01*
X164461327Y-108544618D01*
X164464323Y-108539344D01*
X164529351Y-108343863D01*
X164534823Y-108300553D01*
X164554736Y-108142919D01*
X164554736Y-108142915D01*
X164555171Y-108139474D01*
X164555583Y-108110000D01*
X164553547Y-108089232D01*
X164536072Y-107911006D01*
X164536072Y-107911004D01*
X164535480Y-107904970D01*
X164475935Y-107707749D01*
X164389240Y-107544697D01*
X164382065Y-107531203D01*
X164382064Y-107531201D01*
X164379218Y-107525849D01*
X164249011Y-107366200D01*
X164090275Y-107234882D01*
X163999665Y-107185889D01*
X163914393Y-107139783D01*
X163914391Y-107139782D01*
X163909055Y-107136897D01*
X163899991Y-107134091D01*
X163718046Y-107077770D01*
X163718047Y-107077770D01*
X163712254Y-107075977D01*
X163507369Y-107054443D01*
X163501336Y-107054992D01*
X163501332Y-107054992D01*
X163375721Y-107066424D01*
X163302203Y-107073114D01*
X163296390Y-107074825D01*
X163296389Y-107074825D01*
X163110392Y-107129567D01*
X163104572Y-107131280D01*
X163083122Y-107142494D01*
X162927374Y-107223917D01*
X162927370Y-107223920D01*
X162922002Y-107226726D01*
X162917279Y-107230523D01*
X162917278Y-107230524D01*
X162877114Y-107262817D01*
X162761447Y-107355815D01*
X162629024Y-107513630D01*
X162529776Y-107694162D01*
X162467484Y-107890532D01*
X162444520Y-108095262D01*
X161429411Y-108095262D01*
X161411974Y-107962817D01*
X161390514Y-107911006D01*
X161362135Y-107842494D01*
X161359024Y-107834983D01*
X161354075Y-107828533D01*
X161354073Y-107828530D01*
X161351740Y-107825489D01*
X161350568Y-107822458D01*
X161350011Y-107821493D01*
X161350161Y-107821406D01*
X161326543Y-107760321D01*
X161340580Y-107691876D01*
X161351740Y-107674511D01*
X161354073Y-107671470D01*
X161354075Y-107671467D01*
X161359024Y-107665017D01*
X161411974Y-107537183D01*
X161430035Y-107400000D01*
X161411974Y-107262817D01*
X161359024Y-107134983D01*
X161354075Y-107128533D01*
X161354073Y-107128530D01*
X161351740Y-107125489D01*
X161350568Y-107122458D01*
X161350011Y-107121493D01*
X161350161Y-107121406D01*
X161326543Y-107060321D01*
X161340580Y-106991876D01*
X161351740Y-106974511D01*
X161354073Y-106971470D01*
X161354075Y-106971467D01*
X161359024Y-106965017D01*
X161411974Y-106837183D01*
X161430035Y-106700000D01*
X161411974Y-106562817D01*
X161359024Y-106434983D01*
X161354075Y-106428533D01*
X161354073Y-106428530D01*
X161351740Y-106425489D01*
X161350568Y-106422458D01*
X161350011Y-106421493D01*
X161350161Y-106421406D01*
X161326543Y-106360321D01*
X161340580Y-106291876D01*
X161351740Y-106274511D01*
X161354073Y-106271470D01*
X161354075Y-106271467D01*
X161359024Y-106265017D01*
X161411974Y-106137183D01*
X161430035Y-106000000D01*
X161411974Y-105862817D01*
X161403878Y-105843270D01*
X161362135Y-105742494D01*
X161359024Y-105734983D01*
X161354075Y-105728533D01*
X161354073Y-105728530D01*
X161351740Y-105725489D01*
X161350568Y-105722458D01*
X161350011Y-105721493D01*
X161350161Y-105721406D01*
X161326543Y-105660321D01*
X161340580Y-105591876D01*
X161351740Y-105574511D01*
X161354073Y-105571470D01*
X161354075Y-105571467D01*
X161359024Y-105565017D01*
X161411974Y-105437183D01*
X161430035Y-105300000D01*
X161411974Y-105162817D01*
X161400869Y-105136005D01*
X161383992Y-105095262D01*
X162444520Y-105095262D01*
X162461759Y-105300553D01*
X162518544Y-105498586D01*
X162612712Y-105681818D01*
X162616480Y-105686572D01*
X162645402Y-105723062D01*
X162740677Y-105843270D01*
X162745296Y-105847201D01*
X162892950Y-105972865D01*
X162892955Y-105972869D01*
X162897564Y-105976791D01*
X163077398Y-106077297D01*
X163222785Y-106124536D01*
X163261708Y-106137183D01*
X163273329Y-106140959D01*
X163279347Y-106141677D01*
X163279349Y-106141677D01*
X163421410Y-106158616D01*
X163477894Y-106165351D01*
X163483938Y-106164886D01*
X163483939Y-106164886D01*
X163545266Y-106160167D01*
X163683300Y-106149546D01*
X163768596Y-106125731D01*
X163875885Y-106095776D01*
X163875889Y-106095774D01*
X163881725Y-106094145D01*
X164065610Y-106001258D01*
X164227951Y-105874424D01*
X164231907Y-105869840D01*
X164231911Y-105869837D01*
X164358602Y-105723062D01*
X164362564Y-105718472D01*
X164368443Y-105708124D01*
X164461327Y-105544618D01*
X164464323Y-105539344D01*
X164529351Y-105343863D01*
X164534823Y-105300553D01*
X164554736Y-105142919D01*
X164554736Y-105142915D01*
X164555171Y-105139474D01*
X164555583Y-105110000D01*
X164546905Y-105021493D01*
X164536072Y-104911006D01*
X164536072Y-104911004D01*
X164535480Y-104904970D01*
X164517357Y-104844943D01*
X164477688Y-104713555D01*
X164475935Y-104707749D01*
X164414359Y-104591941D01*
X164382065Y-104531203D01*
X164382064Y-104531201D01*
X164379218Y-104525849D01*
X164249011Y-104366200D01*
X164231864Y-104352015D01*
X164094946Y-104238746D01*
X164094945Y-104238745D01*
X164090275Y-104234882D01*
X163909055Y-104136897D01*
X163899991Y-104134091D01*
X163718046Y-104077770D01*
X163718047Y-104077770D01*
X163712254Y-104075977D01*
X163507369Y-104054443D01*
X163501336Y-104054992D01*
X163501332Y-104054992D01*
X163375721Y-104066424D01*
X163302203Y-104073114D01*
X163296390Y-104074825D01*
X163296389Y-104074825D01*
X163110392Y-104129567D01*
X163104572Y-104131280D01*
X163054407Y-104157506D01*
X162927374Y-104223917D01*
X162927370Y-104223920D01*
X162922002Y-104226726D01*
X162917279Y-104230523D01*
X162917278Y-104230524D01*
X162905892Y-104239679D01*
X162761447Y-104355815D01*
X162629024Y-104513630D01*
X162529776Y-104694162D01*
X162527942Y-104699944D01*
X162527941Y-104699946D01*
X162471271Y-104878594D01*
X162467484Y-104890532D01*
X162444520Y-105095262D01*
X161383992Y-105095262D01*
X161362135Y-105042494D01*
X161359024Y-105034983D01*
X161354075Y-105028533D01*
X161354073Y-105028530D01*
X161351740Y-105025489D01*
X161350568Y-105022458D01*
X161350011Y-105021493D01*
X161350161Y-105021406D01*
X161326543Y-104960321D01*
X161340580Y-104891876D01*
X161351740Y-104874511D01*
X161354073Y-104871470D01*
X161354075Y-104871467D01*
X161359024Y-104865017D01*
X161395003Y-104778156D01*
X161408862Y-104744697D01*
X161408863Y-104744694D01*
X161411974Y-104737183D01*
X161430035Y-104600000D01*
X161411974Y-104462817D01*
X161359024Y-104334983D01*
X161354075Y-104328533D01*
X161354073Y-104328530D01*
X161351740Y-104325489D01*
X161350568Y-104322458D01*
X161350011Y-104321493D01*
X161350161Y-104321406D01*
X161326543Y-104260321D01*
X161340580Y-104191876D01*
X161351740Y-104174511D01*
X161354073Y-104171470D01*
X161354075Y-104171467D01*
X161359024Y-104165017D01*
X161391892Y-104085666D01*
X161408862Y-104044697D01*
X161408863Y-104044694D01*
X161411974Y-104037183D01*
X161430035Y-103900000D01*
X161411974Y-103762817D01*
X161359024Y-103634983D01*
X161354075Y-103628533D01*
X161354073Y-103628530D01*
X161351740Y-103625489D01*
X161350568Y-103622458D01*
X161350011Y-103621493D01*
X161350161Y-103621406D01*
X161326543Y-103560321D01*
X161340580Y-103491876D01*
X161351740Y-103474511D01*
X161354073Y-103471470D01*
X161354075Y-103471467D01*
X161359024Y-103465017D01*
X161411974Y-103337183D01*
X161430035Y-103200000D01*
X161411974Y-103062817D01*
X161397775Y-103028536D01*
X161362135Y-102942494D01*
X161359024Y-102934983D01*
X161354075Y-102928533D01*
X161354073Y-102928530D01*
X161351740Y-102925489D01*
X161350568Y-102922458D01*
X161350011Y-102921493D01*
X161350161Y-102921406D01*
X161326543Y-102860321D01*
X161340580Y-102791876D01*
X161351740Y-102774511D01*
X161354073Y-102771470D01*
X161354075Y-102771467D01*
X161359024Y-102765017D01*
X161411974Y-102637183D01*
X161430035Y-102500000D01*
X161411974Y-102362817D01*
X161401633Y-102337850D01*
X161362135Y-102242494D01*
X161359024Y-102234983D01*
X161354075Y-102228533D01*
X161354073Y-102228530D01*
X161351740Y-102225489D01*
X161350568Y-102222458D01*
X161350011Y-102221493D01*
X161350161Y-102221406D01*
X161326543Y-102160321D01*
X161339886Y-102095262D01*
X162444520Y-102095262D01*
X162461759Y-102300553D01*
X162518544Y-102498586D01*
X162612712Y-102681818D01*
X162616480Y-102686572D01*
X162699359Y-102791139D01*
X162740677Y-102843270D01*
X162745296Y-102847201D01*
X162892950Y-102972865D01*
X162892955Y-102972869D01*
X162897564Y-102976791D01*
X163077398Y-103077297D01*
X163273329Y-103140959D01*
X163279347Y-103141677D01*
X163279349Y-103141677D01*
X163393626Y-103155303D01*
X163477894Y-103165351D01*
X163483938Y-103164886D01*
X163483939Y-103164886D01*
X163545266Y-103160167D01*
X163683300Y-103149546D01*
X163768596Y-103125731D01*
X163875885Y-103095776D01*
X163875889Y-103095774D01*
X163881725Y-103094145D01*
X164065610Y-103001258D01*
X164227951Y-102874424D01*
X164231907Y-102869840D01*
X164231911Y-102869837D01*
X164358602Y-102723062D01*
X164362564Y-102718472D01*
X164383387Y-102681818D01*
X164461327Y-102544618D01*
X164464323Y-102539344D01*
X164523046Y-102362817D01*
X164527439Y-102349611D01*
X164527439Y-102349610D01*
X164529351Y-102343863D01*
X164534823Y-102300553D01*
X164554736Y-102142919D01*
X164554736Y-102142915D01*
X164555171Y-102139474D01*
X164555583Y-102110000D01*
X164551805Y-102071470D01*
X164536072Y-101911006D01*
X164536072Y-101911004D01*
X164535480Y-101904970D01*
X164475935Y-101707749D01*
X164379218Y-101525849D01*
X164249011Y-101366200D01*
X164224503Y-101345925D01*
X164094946Y-101238746D01*
X164094945Y-101238745D01*
X164090275Y-101234882D01*
X163909055Y-101136897D01*
X163899991Y-101134091D01*
X163718046Y-101077770D01*
X163718047Y-101077770D01*
X163712254Y-101075977D01*
X163507369Y-101054443D01*
X163501336Y-101054992D01*
X163501332Y-101054992D01*
X163375721Y-101066424D01*
X163302203Y-101073114D01*
X163296390Y-101074825D01*
X163296389Y-101074825D01*
X163292475Y-101075977D01*
X163104572Y-101131280D01*
X163020819Y-101175065D01*
X162927374Y-101223917D01*
X162927370Y-101223920D01*
X162922002Y-101226726D01*
X162917279Y-101230523D01*
X162917278Y-101230524D01*
X162773748Y-101345925D01*
X162761447Y-101355815D01*
X162629024Y-101513630D01*
X162529776Y-101694162D01*
X162467484Y-101890532D01*
X162463156Y-101929120D01*
X162446390Y-102078594D01*
X162444520Y-102095262D01*
X161339886Y-102095262D01*
X161340580Y-102091876D01*
X161351740Y-102074511D01*
X161354073Y-102071470D01*
X161354075Y-102071467D01*
X161359024Y-102065017D01*
X161411974Y-101937183D01*
X161430035Y-101800000D01*
X161411974Y-101662817D01*
X161359024Y-101534983D01*
X161274791Y-101425209D01*
X161165018Y-101340976D01*
X161157510Y-101337866D01*
X161157508Y-101337865D01*
X161121020Y-101322752D01*
X161037183Y-101288026D01*
X160900000Y-101269965D01*
X160762817Y-101288026D01*
X160755306Y-101291137D01*
X160755303Y-101291138D01*
X160755301Y-101291139D01*
X160634983Y-101340976D01*
X160525209Y-101425209D01*
X160440976Y-101534983D01*
X160388026Y-101662817D01*
X160369965Y-101800000D01*
X160388026Y-101937183D01*
X160440976Y-102065017D01*
X160445925Y-102071467D01*
X160445927Y-102071470D01*
X160448260Y-102074511D01*
X160449432Y-102077542D01*
X160449989Y-102078507D01*
X160449839Y-102078594D01*
X160473457Y-102139679D01*
X160459420Y-102208124D01*
X160448260Y-102225489D01*
X160445927Y-102228530D01*
X160445925Y-102228533D01*
X160440976Y-102234983D01*
X160437865Y-102242494D01*
X160398368Y-102337850D01*
X160388026Y-102362817D01*
X160369965Y-102500000D01*
X160388026Y-102637183D01*
X160440976Y-102765017D01*
X160445925Y-102771467D01*
X160445927Y-102771470D01*
X160448260Y-102774511D01*
X160449432Y-102777542D01*
X160449989Y-102778507D01*
X160449839Y-102778594D01*
X160473457Y-102839679D01*
X160459420Y-102908124D01*
X160448260Y-102925489D01*
X160445927Y-102928530D01*
X160445925Y-102928533D01*
X160440976Y-102934983D01*
X160437865Y-102942494D01*
X160402226Y-103028536D01*
X160388026Y-103062817D01*
X160369965Y-103200000D01*
X160388026Y-103337183D01*
X160440976Y-103465017D01*
X160445925Y-103471467D01*
X160445927Y-103471470D01*
X160448260Y-103474511D01*
X160449432Y-103477542D01*
X160449989Y-103478507D01*
X160449839Y-103478594D01*
X160473457Y-103539679D01*
X160459420Y-103608124D01*
X160448260Y-103625489D01*
X160445927Y-103628530D01*
X160445925Y-103628533D01*
X160440976Y-103634983D01*
X160388026Y-103762817D01*
X160369965Y-103900000D01*
X160388026Y-104037183D01*
X160391137Y-104044694D01*
X160391138Y-104044697D01*
X160408108Y-104085666D01*
X160440976Y-104165017D01*
X160445925Y-104171467D01*
X160445927Y-104171470D01*
X160448260Y-104174511D01*
X160449432Y-104177542D01*
X160449989Y-104178507D01*
X160449839Y-104178594D01*
X160473457Y-104239679D01*
X160459420Y-104308124D01*
X160448260Y-104325489D01*
X160445927Y-104328530D01*
X160445925Y-104328533D01*
X160440976Y-104334983D01*
X160388026Y-104462817D01*
X160369965Y-104600000D01*
X160388026Y-104737183D01*
X160391137Y-104744694D01*
X160391138Y-104744697D01*
X160404997Y-104778156D01*
X160440976Y-104865017D01*
X160445925Y-104871467D01*
X160445927Y-104871470D01*
X160448260Y-104874511D01*
X160449432Y-104877542D01*
X160449989Y-104878507D01*
X160449839Y-104878594D01*
X160473457Y-104939679D01*
X160459420Y-105008124D01*
X160448260Y-105025489D01*
X160445927Y-105028530D01*
X160445925Y-105028533D01*
X160440976Y-105034983D01*
X160437865Y-105042494D01*
X160399132Y-105136005D01*
X160388026Y-105162817D01*
X160369965Y-105300000D01*
X160388026Y-105437183D01*
X160440976Y-105565017D01*
X160445925Y-105571467D01*
X160445927Y-105571470D01*
X160448260Y-105574511D01*
X160449432Y-105577542D01*
X160449989Y-105578507D01*
X160449839Y-105578594D01*
X160473457Y-105639679D01*
X160459420Y-105708124D01*
X160448260Y-105725489D01*
X160445927Y-105728530D01*
X160445925Y-105728533D01*
X160440976Y-105734983D01*
X160437865Y-105742494D01*
X160396123Y-105843270D01*
X160388026Y-105862817D01*
X160369965Y-106000000D01*
X160388026Y-106137183D01*
X160440976Y-106265017D01*
X160445925Y-106271467D01*
X160445927Y-106271470D01*
X160448260Y-106274511D01*
X160449432Y-106277542D01*
X160449989Y-106278507D01*
X160449839Y-106278594D01*
X160473457Y-106339679D01*
X160459420Y-106408124D01*
X160448260Y-106425489D01*
X160445927Y-106428530D01*
X160445925Y-106428533D01*
X160440976Y-106434983D01*
X160388026Y-106562817D01*
X160369965Y-106700000D01*
X160388026Y-106837183D01*
X160440976Y-106965017D01*
X160445925Y-106971467D01*
X160445927Y-106971470D01*
X160448260Y-106974511D01*
X160449432Y-106977542D01*
X160449989Y-106978507D01*
X160449839Y-106978594D01*
X160473457Y-107039679D01*
X160459420Y-107108124D01*
X160448260Y-107125489D01*
X160445927Y-107128530D01*
X160445925Y-107128533D01*
X160440976Y-107134983D01*
X160388026Y-107262817D01*
X160369965Y-107400000D01*
X160388026Y-107537183D01*
X160440976Y-107665017D01*
X160445925Y-107671467D01*
X160445927Y-107671470D01*
X160448260Y-107674511D01*
X160449432Y-107677542D01*
X160449989Y-107678507D01*
X160449839Y-107678594D01*
X160473457Y-107739679D01*
X160459420Y-107808124D01*
X160448260Y-107825489D01*
X160445927Y-107828530D01*
X160445925Y-107828533D01*
X160440976Y-107834983D01*
X160437865Y-107842494D01*
X160409487Y-107911006D01*
X160388026Y-107962817D01*
X160369965Y-108100000D01*
X112800000Y-108100000D01*
X112800000Y-104384891D01*
X135545420Y-104384891D01*
X135575233Y-104532743D01*
X135643707Y-104667132D01*
X135745799Y-104778156D01*
X135786578Y-104803440D01*
X135849776Y-104842624D01*
X135873986Y-104857635D01*
X135882101Y-104859993D01*
X135882104Y-104859994D01*
X135957330Y-104881849D01*
X136018825Y-104899715D01*
X136026324Y-104900266D01*
X136027240Y-104900333D01*
X136027242Y-104900333D01*
X136029515Y-104900500D01*
X142485043Y-104900500D01*
X142490236Y-104900609D01*
X142543846Y-104902856D01*
X142543847Y-104902856D01*
X142552294Y-104903210D01*
X142560525Y-104901279D01*
X142560529Y-104901279D01*
X142594747Y-104893253D01*
X142606232Y-104891124D01*
X142624088Y-104888678D01*
X142641060Y-104886353D01*
X142641061Y-104886353D01*
X142649432Y-104885206D01*
X142663390Y-104879166D01*
X142684325Y-104872242D01*
X142690903Y-104870699D01*
X142699136Y-104868768D01*
X142737348Y-104847761D01*
X142747835Y-104842624D01*
X142780097Y-104828663D01*
X142780102Y-104828660D01*
X142787855Y-104825305D01*
X142794421Y-104819988D01*
X142794423Y-104819987D01*
X142799676Y-104815733D01*
X142817965Y-104803443D01*
X142831308Y-104796107D01*
X142839422Y-104789103D01*
X142864034Y-104764491D01*
X142873679Y-104755806D01*
X142896676Y-104737183D01*
X142905070Y-104730386D01*
X142916064Y-104714916D01*
X142929459Y-104699066D01*
X146778666Y-100849858D01*
X146782414Y-100846263D01*
X146821935Y-100809922D01*
X146821937Y-100809920D01*
X146828156Y-100804201D01*
X146851136Y-100767138D01*
X146857753Y-100757510D01*
X146879002Y-100729516D01*
X146879004Y-100729513D01*
X146884112Y-100722783D01*
X146887223Y-100714925D01*
X146887226Y-100714920D01*
X146889710Y-100708645D01*
X146899618Y-100688944D01*
X146903180Y-100683199D01*
X146907635Y-100676014D01*
X146919800Y-100634142D01*
X146923584Y-100623091D01*
X146936524Y-100590408D01*
X146936525Y-100590405D01*
X146939636Y-100582547D01*
X146941226Y-100567418D01*
X146945471Y-100545784D01*
X146947901Y-100537419D01*
X146949715Y-100531175D01*
X146950500Y-100520485D01*
X146950500Y-100485678D01*
X146951179Y-100472717D01*
X146954518Y-100440952D01*
X146954518Y-100440949D01*
X146955401Y-100432546D01*
X146952236Y-100413833D01*
X146950500Y-100393154D01*
X146950500Y-99095262D01*
X162444520Y-99095262D01*
X162461759Y-99300553D01*
X162518544Y-99498586D01*
X162612712Y-99681818D01*
X162616480Y-99686572D01*
X162645402Y-99723062D01*
X162740677Y-99843270D01*
X162745296Y-99847201D01*
X162892950Y-99972865D01*
X162892955Y-99972869D01*
X162897564Y-99976791D01*
X163077398Y-100077297D01*
X163273329Y-100140959D01*
X163279347Y-100141677D01*
X163279349Y-100141677D01*
X163421410Y-100158616D01*
X163477894Y-100165351D01*
X163483938Y-100164886D01*
X163483939Y-100164886D01*
X163545266Y-100160167D01*
X163683300Y-100149546D01*
X163768596Y-100125731D01*
X163875885Y-100095776D01*
X163875889Y-100095774D01*
X163881725Y-100094145D01*
X164065610Y-100001258D01*
X164227951Y-99874424D01*
X164231907Y-99869840D01*
X164231911Y-99869837D01*
X164358602Y-99723062D01*
X164362564Y-99718472D01*
X164383387Y-99681818D01*
X164461327Y-99544618D01*
X164464323Y-99539344D01*
X164529351Y-99343863D01*
X164534823Y-99300553D01*
X164554736Y-99142919D01*
X164554736Y-99142915D01*
X164555171Y-99139474D01*
X164555583Y-99110000D01*
X164535480Y-98904970D01*
X164475935Y-98707749D01*
X164379218Y-98525849D01*
X164249011Y-98366200D01*
X164183464Y-98311975D01*
X164094946Y-98238746D01*
X164094945Y-98238745D01*
X164090275Y-98234882D01*
X163909055Y-98136897D01*
X163899991Y-98134091D01*
X163718046Y-98077770D01*
X163718047Y-98077770D01*
X163712254Y-98075977D01*
X163507369Y-98054443D01*
X163501336Y-98054992D01*
X163501332Y-98054992D01*
X163375721Y-98066424D01*
X163302203Y-98073114D01*
X163296390Y-98074825D01*
X163296389Y-98074825D01*
X163292475Y-98075977D01*
X163104572Y-98131280D01*
X163033668Y-98168348D01*
X162927374Y-98223917D01*
X162927370Y-98223920D01*
X162922002Y-98226726D01*
X162917279Y-98230523D01*
X162917278Y-98230524D01*
X162793510Y-98330036D01*
X162761447Y-98355815D01*
X162629024Y-98513630D01*
X162529776Y-98694162D01*
X162467484Y-98890532D01*
X162444520Y-99095262D01*
X146950500Y-99095262D01*
X146950500Y-96900000D01*
X156869965Y-96900000D01*
X156888026Y-97037183D01*
X156940976Y-97165017D01*
X157025209Y-97274791D01*
X157134982Y-97359024D01*
X157142490Y-97362134D01*
X157142492Y-97362135D01*
X157178980Y-97377248D01*
X157262817Y-97411974D01*
X157400000Y-97430035D01*
X157537183Y-97411974D01*
X157621020Y-97377248D01*
X157657508Y-97362135D01*
X157657510Y-97362134D01*
X157665018Y-97359024D01*
X157774791Y-97274791D01*
X157779736Y-97268347D01*
X157779740Y-97268343D01*
X157801625Y-97239822D01*
X157858053Y-97198620D01*
X157927799Y-97194465D01*
X157988719Y-97228678D01*
X157998375Y-97239822D01*
X158020260Y-97268343D01*
X158020264Y-97268347D01*
X158025209Y-97274791D01*
X158134982Y-97359024D01*
X158142490Y-97362134D01*
X158142492Y-97362135D01*
X158178980Y-97377248D01*
X158262817Y-97411974D01*
X158400000Y-97430035D01*
X158537183Y-97411974D01*
X158621020Y-97377248D01*
X158657508Y-97362135D01*
X158657510Y-97362134D01*
X158665018Y-97359024D01*
X158774791Y-97274791D01*
X158779736Y-97268347D01*
X158779740Y-97268343D01*
X158801625Y-97239822D01*
X158858053Y-97198620D01*
X158927799Y-97194465D01*
X158988719Y-97228678D01*
X158998375Y-97239822D01*
X159020260Y-97268343D01*
X159020264Y-97268347D01*
X159025209Y-97274791D01*
X159134982Y-97359024D01*
X159142490Y-97362134D01*
X159142492Y-97362135D01*
X159178980Y-97377248D01*
X159262817Y-97411974D01*
X159400000Y-97430035D01*
X159537183Y-97411974D01*
X159621020Y-97377248D01*
X159657508Y-97362135D01*
X159657510Y-97362134D01*
X159665018Y-97359024D01*
X159774791Y-97274791D01*
X159779736Y-97268347D01*
X159779740Y-97268343D01*
X159801625Y-97239822D01*
X159858053Y-97198620D01*
X159927799Y-97194465D01*
X159988719Y-97228678D01*
X159998375Y-97239822D01*
X160020260Y-97268343D01*
X160020264Y-97268347D01*
X160025209Y-97274791D01*
X160134982Y-97359024D01*
X160142490Y-97362134D01*
X160142492Y-97362135D01*
X160178980Y-97377248D01*
X160262817Y-97411974D01*
X160400000Y-97430035D01*
X160537183Y-97411974D01*
X160621020Y-97377248D01*
X160657508Y-97362135D01*
X160657510Y-97362134D01*
X160665018Y-97359024D01*
X160774791Y-97274791D01*
X160779736Y-97268347D01*
X160779740Y-97268343D01*
X160801625Y-97239822D01*
X160858053Y-97198620D01*
X160927799Y-97194465D01*
X160988719Y-97228678D01*
X160998375Y-97239822D01*
X161020260Y-97268343D01*
X161020264Y-97268347D01*
X161025209Y-97274791D01*
X161134982Y-97359024D01*
X161142490Y-97362134D01*
X161142492Y-97362135D01*
X161178980Y-97377248D01*
X161262817Y-97411974D01*
X161400000Y-97430035D01*
X161537183Y-97411974D01*
X161621020Y-97377248D01*
X161657508Y-97362135D01*
X161657510Y-97362134D01*
X161665018Y-97359024D01*
X161774791Y-97274791D01*
X161859024Y-97165017D01*
X161911974Y-97037183D01*
X161930035Y-96900000D01*
X161911974Y-96762817D01*
X161900304Y-96734641D01*
X161866392Y-96652772D01*
X162449500Y-96652772D01*
X162449948Y-96656473D01*
X162459319Y-96733909D01*
X162460364Y-96742547D01*
X162515887Y-96882783D01*
X162520999Y-96889517D01*
X162520999Y-96889518D01*
X162601968Y-96996190D01*
X162607078Y-97002922D01*
X162613810Y-97008032D01*
X162690300Y-97066091D01*
X162727217Y-97094113D01*
X162735078Y-97097225D01*
X162735079Y-97097226D01*
X162860047Y-97146704D01*
X162860049Y-97146704D01*
X162867453Y-97149636D01*
X162875357Y-97150592D01*
X162875359Y-97150593D01*
X162928073Y-97156972D01*
X162957228Y-97160500D01*
X164042772Y-97160500D01*
X164071927Y-97156972D01*
X164124641Y-97150593D01*
X164124643Y-97150592D01*
X164132547Y-97149636D01*
X164139951Y-97146704D01*
X164139953Y-97146704D01*
X164264921Y-97097226D01*
X164264922Y-97097225D01*
X164272783Y-97094113D01*
X164309701Y-97066091D01*
X164386190Y-97008032D01*
X164392922Y-97002922D01*
X164398032Y-96996190D01*
X164479001Y-96889518D01*
X164479001Y-96889517D01*
X164484113Y-96882783D01*
X164539636Y-96742547D01*
X164540682Y-96733909D01*
X164550052Y-96656473D01*
X164550500Y-96652772D01*
X164550500Y-95567228D01*
X164542168Y-95498375D01*
X164540593Y-95485359D01*
X164540592Y-95485357D01*
X164539636Y-95477453D01*
X164519977Y-95427799D01*
X164487226Y-95345079D01*
X164487225Y-95345078D01*
X164484113Y-95337217D01*
X164464427Y-95311281D01*
X164398032Y-95223810D01*
X164392922Y-95217078D01*
X164272783Y-95125887D01*
X164264922Y-95122775D01*
X164264921Y-95122774D01*
X164139953Y-95073296D01*
X164139951Y-95073296D01*
X164132547Y-95070364D01*
X164124643Y-95069408D01*
X164124641Y-95069407D01*
X164064546Y-95062135D01*
X164042772Y-95059500D01*
X162957228Y-95059500D01*
X162935454Y-95062135D01*
X162875359Y-95069407D01*
X162875357Y-95069408D01*
X162867453Y-95070364D01*
X162860049Y-95073296D01*
X162860047Y-95073296D01*
X162735079Y-95122774D01*
X162735078Y-95122775D01*
X162727217Y-95125887D01*
X162607078Y-95217078D01*
X162601968Y-95223810D01*
X162535574Y-95311281D01*
X162515887Y-95337217D01*
X162512775Y-95345078D01*
X162512774Y-95345079D01*
X162480023Y-95427799D01*
X162460364Y-95477453D01*
X162459408Y-95485357D01*
X162459407Y-95485359D01*
X162457832Y-95498375D01*
X162449500Y-95567228D01*
X162449500Y-96652772D01*
X161866392Y-96652772D01*
X161862135Y-96642494D01*
X161859024Y-96634983D01*
X161774791Y-96525209D01*
X161739821Y-96498375D01*
X161698618Y-96441947D01*
X161694464Y-96372201D01*
X161728677Y-96311281D01*
X161739821Y-96301625D01*
X161768345Y-96279737D01*
X161774791Y-96274791D01*
X161859024Y-96165017D01*
X161911974Y-96037183D01*
X161930035Y-95900000D01*
X161911974Y-95762817D01*
X161859024Y-95634983D01*
X161774791Y-95525209D01*
X161739821Y-95498375D01*
X161698618Y-95441947D01*
X161694464Y-95372201D01*
X161728677Y-95311281D01*
X161739821Y-95301625D01*
X161768345Y-95279737D01*
X161774791Y-95274791D01*
X161859024Y-95165017D01*
X161902730Y-95059500D01*
X161908862Y-95044697D01*
X161908863Y-95044694D01*
X161911974Y-95037183D01*
X161930035Y-94900000D01*
X161911974Y-94762817D01*
X161898017Y-94729120D01*
X161862135Y-94642494D01*
X161859024Y-94634983D01*
X161774791Y-94525209D01*
X161665018Y-94440976D01*
X161657510Y-94437866D01*
X161657508Y-94437865D01*
X161591325Y-94410452D01*
X161537183Y-94388026D01*
X161400000Y-94369965D01*
X161262817Y-94388026D01*
X161255306Y-94391137D01*
X161255303Y-94391138D01*
X161255301Y-94391139D01*
X161134983Y-94440976D01*
X161025209Y-94525209D01*
X161020265Y-94531652D01*
X161020261Y-94531656D01*
X160998375Y-94560178D01*
X160941947Y-94601380D01*
X160872201Y-94605535D01*
X160811281Y-94571322D01*
X160801625Y-94560178D01*
X160779740Y-94531657D01*
X160779735Y-94531652D01*
X160774791Y-94525209D01*
X160665018Y-94440976D01*
X160657510Y-94437866D01*
X160657508Y-94437865D01*
X160591325Y-94410452D01*
X160537183Y-94388026D01*
X160400000Y-94369965D01*
X160262817Y-94388026D01*
X160255306Y-94391137D01*
X160255303Y-94391138D01*
X160255301Y-94391139D01*
X160134983Y-94440976D01*
X160025209Y-94525209D01*
X160020265Y-94531652D01*
X160020261Y-94531656D01*
X159998375Y-94560178D01*
X159941947Y-94601380D01*
X159872201Y-94605535D01*
X159811281Y-94571322D01*
X159801625Y-94560178D01*
X159779740Y-94531657D01*
X159779735Y-94531652D01*
X159774791Y-94525209D01*
X159665018Y-94440976D01*
X159657510Y-94437866D01*
X159657508Y-94437865D01*
X159591325Y-94410452D01*
X159537183Y-94388026D01*
X159400000Y-94369965D01*
X159262817Y-94388026D01*
X159255306Y-94391137D01*
X159255303Y-94391138D01*
X159255301Y-94391139D01*
X159134983Y-94440976D01*
X159025209Y-94525209D01*
X159020265Y-94531652D01*
X159020261Y-94531656D01*
X158998375Y-94560178D01*
X158941947Y-94601380D01*
X158872201Y-94605535D01*
X158811281Y-94571322D01*
X158801625Y-94560178D01*
X158779740Y-94531657D01*
X158779735Y-94531652D01*
X158774791Y-94525209D01*
X158665018Y-94440976D01*
X158657510Y-94437866D01*
X158657508Y-94437865D01*
X158591325Y-94410452D01*
X158537183Y-94388026D01*
X158400000Y-94369965D01*
X158262817Y-94388026D01*
X158255306Y-94391137D01*
X158255303Y-94391138D01*
X158255301Y-94391139D01*
X158134983Y-94440976D01*
X158025209Y-94525209D01*
X158020265Y-94531652D01*
X158020261Y-94531656D01*
X157998375Y-94560178D01*
X157941947Y-94601380D01*
X157872201Y-94605535D01*
X157811281Y-94571322D01*
X157801625Y-94560178D01*
X157779740Y-94531657D01*
X157779735Y-94531652D01*
X157774791Y-94525209D01*
X157665018Y-94440976D01*
X157657510Y-94437866D01*
X157657508Y-94437865D01*
X157591325Y-94410452D01*
X157537183Y-94388026D01*
X157400000Y-94369965D01*
X157262817Y-94388026D01*
X157255306Y-94391137D01*
X157255303Y-94391138D01*
X157255301Y-94391139D01*
X157134983Y-94440976D01*
X157025209Y-94525209D01*
X156940976Y-94634983D01*
X156937865Y-94642494D01*
X156901984Y-94729120D01*
X156888026Y-94762817D01*
X156869965Y-94900000D01*
X156888026Y-95037183D01*
X156891137Y-95044694D01*
X156891138Y-95044697D01*
X156897270Y-95059500D01*
X156940976Y-95165017D01*
X157025209Y-95274791D01*
X157031655Y-95279737D01*
X157060179Y-95301625D01*
X157101382Y-95358053D01*
X157105536Y-95427799D01*
X157071323Y-95488719D01*
X157060178Y-95498376D01*
X157031654Y-95520263D01*
X157031652Y-95520265D01*
X157025209Y-95525209D01*
X157020265Y-95531652D01*
X156990106Y-95570956D01*
X156940976Y-95634983D01*
X156888026Y-95762817D01*
X156869965Y-95900000D01*
X156888026Y-96037183D01*
X156940976Y-96165017D01*
X157025209Y-96274791D01*
X157031655Y-96279737D01*
X157060179Y-96301625D01*
X157101382Y-96358053D01*
X157105536Y-96427799D01*
X157071323Y-96488719D01*
X157060178Y-96498376D01*
X157031654Y-96520263D01*
X157031652Y-96520265D01*
X157025209Y-96525209D01*
X156940976Y-96634983D01*
X156937865Y-96642494D01*
X156899697Y-96734641D01*
X156888026Y-96762817D01*
X156869965Y-96900000D01*
X146950500Y-96900000D01*
X146950500Y-93104376D01*
X166634455Y-93104376D01*
X166635179Y-93111265D01*
X166635179Y-93111268D01*
X166638319Y-93141139D01*
X166653227Y-93282983D01*
X166711103Y-93452993D01*
X166805206Y-93605955D01*
X166930859Y-93734268D01*
X167081817Y-93831554D01*
X167135808Y-93851205D01*
X167244063Y-93890607D01*
X167244065Y-93890608D01*
X167250578Y-93892978D01*
X167308253Y-93900264D01*
X167385417Y-93910012D01*
X167385423Y-93910012D01*
X167389283Y-93910500D01*
X167485155Y-93910500D01*
X167488602Y-93910113D01*
X167488608Y-93910113D01*
X167611581Y-93896319D01*
X167618472Y-93895546D01*
X167788073Y-93836485D01*
X167940375Y-93741316D01*
X168067807Y-93614770D01*
X168164037Y-93463136D01*
X168186962Y-93398755D01*
X168221957Y-93300479D01*
X168221958Y-93300475D01*
X168224281Y-93293951D01*
X168245545Y-93115624D01*
X168243640Y-93097494D01*
X168227498Y-92943913D01*
X168227498Y-92943911D01*
X168226773Y-92937017D01*
X168168897Y-92767007D01*
X168114154Y-92678024D01*
X168078427Y-92619950D01*
X168078426Y-92619949D01*
X168074794Y-92614045D01*
X167949141Y-92485732D01*
X167865566Y-92431872D01*
X167804010Y-92392201D01*
X167804008Y-92392200D01*
X167798183Y-92388446D01*
X167691342Y-92349559D01*
X167635937Y-92329393D01*
X167635935Y-92329392D01*
X167629422Y-92327022D01*
X167571747Y-92319736D01*
X167494583Y-92309988D01*
X167494577Y-92309988D01*
X167490717Y-92309500D01*
X167394845Y-92309500D01*
X167391398Y-92309887D01*
X167391392Y-92309887D01*
X167268419Y-92323681D01*
X167261528Y-92324454D01*
X167091927Y-92383515D01*
X166939625Y-92478684D01*
X166812193Y-92605230D01*
X166765591Y-92678663D01*
X166719933Y-92750609D01*
X166715963Y-92756864D01*
X166713636Y-92763399D01*
X166658043Y-92919521D01*
X166658042Y-92919525D01*
X166655719Y-92926049D01*
X166634455Y-93104376D01*
X146950500Y-93104376D01*
X146950500Y-92464957D01*
X146950609Y-92459764D01*
X146952856Y-92406154D01*
X146952856Y-92406153D01*
X146953210Y-92397706D01*
X146951279Y-92389475D01*
X146951279Y-92389471D01*
X146943253Y-92355253D01*
X146941123Y-92343764D01*
X146936353Y-92308940D01*
X146936353Y-92308939D01*
X146935206Y-92300568D01*
X146929166Y-92286610D01*
X146922242Y-92265675D01*
X146920699Y-92259097D01*
X146918768Y-92250864D01*
X146897761Y-92212652D01*
X146892624Y-92202165D01*
X146878663Y-92169903D01*
X146878660Y-92169898D01*
X146875305Y-92162145D01*
X146865733Y-92150324D01*
X146853440Y-92132031D01*
X146846107Y-92118692D01*
X146839103Y-92110578D01*
X146814491Y-92085966D01*
X146805806Y-92076321D01*
X146785705Y-92051499D01*
X146780386Y-92044930D01*
X146764916Y-92033936D01*
X146749066Y-92020541D01*
X145380326Y-90651802D01*
X145361377Y-90623442D01*
X145359870Y-90624312D01*
X145355808Y-90617276D01*
X145352698Y-90609767D01*
X145275936Y-90509729D01*
X145265395Y-90495992D01*
X145260451Y-90489549D01*
X145218239Y-90457158D01*
X145146680Y-90402249D01*
X145140233Y-90397302D01*
X145070235Y-90368308D01*
X145007745Y-90342423D01*
X145007743Y-90342422D01*
X145000236Y-90339313D01*
X144850000Y-90319534D01*
X144699764Y-90339313D01*
X144692257Y-90342422D01*
X144692255Y-90342423D01*
X144629765Y-90368308D01*
X144559767Y-90397302D01*
X144553320Y-90402249D01*
X144481762Y-90457158D01*
X144439549Y-90489549D01*
X144434605Y-90495992D01*
X144424064Y-90509729D01*
X144347302Y-90609767D01*
X144318307Y-90679766D01*
X144309523Y-90700974D01*
X144289313Y-90749764D01*
X144269534Y-90900000D01*
X144289313Y-91050236D01*
X144347302Y-91190233D01*
X144439549Y-91310451D01*
X144559767Y-91402698D01*
X144567272Y-91405807D01*
X144574313Y-91409872D01*
X144573444Y-91411377D01*
X144601802Y-91430327D01*
X145216406Y-92044930D01*
X145813181Y-92641705D01*
X145846666Y-92703028D01*
X145849500Y-92729386D01*
X145849500Y-100170613D01*
X145829815Y-100237652D01*
X145813181Y-100258294D01*
X142308295Y-103763181D01*
X142246972Y-103796666D01*
X142220614Y-103799500D01*
X138530546Y-103799500D01*
X138463507Y-103779815D01*
X138417752Y-103727011D01*
X138407808Y-103657853D01*
X138432171Y-103600012D01*
X138454077Y-103571465D01*
X138454079Y-103571461D01*
X138459024Y-103565017D01*
X138495257Y-103477542D01*
X138508862Y-103444697D01*
X138508863Y-103444694D01*
X138511974Y-103437183D01*
X138530035Y-103300000D01*
X138511974Y-103162817D01*
X138502921Y-103140959D01*
X138462135Y-103042494D01*
X138459024Y-103034983D01*
X138374791Y-102925209D01*
X138265018Y-102840976D01*
X138257510Y-102837866D01*
X138257508Y-102837865D01*
X138221020Y-102822752D01*
X138137183Y-102788026D01*
X138000000Y-102769965D01*
X137862817Y-102788026D01*
X137855306Y-102791137D01*
X137855303Y-102791138D01*
X137771027Y-102826046D01*
X137734983Y-102840976D01*
X137625209Y-102925209D01*
X137620265Y-102931652D01*
X137583360Y-102979747D01*
X137540976Y-103034983D01*
X137537865Y-103042494D01*
X137497080Y-103140959D01*
X137488026Y-103162817D01*
X137469965Y-103300000D01*
X137488026Y-103437183D01*
X137491137Y-103444694D01*
X137491138Y-103444697D01*
X137504743Y-103477542D01*
X137540976Y-103565017D01*
X137545921Y-103571461D01*
X137545923Y-103571465D01*
X137567829Y-103600012D01*
X137593024Y-103665181D01*
X137578986Y-103733626D01*
X137530173Y-103783617D01*
X137469454Y-103799500D01*
X136062215Y-103799500D01*
X135987045Y-103809797D01*
X135958940Y-103813647D01*
X135958939Y-103813647D01*
X135950568Y-103814794D01*
X135812145Y-103874695D01*
X135694930Y-103969614D01*
X135607558Y-104092558D01*
X135591595Y-104136897D01*
X135560266Y-104223917D01*
X135556467Y-104234468D01*
X135545420Y-104384891D01*
X112800000Y-104384891D01*
X112800000Y-97800001D01*
X143569963Y-97800001D01*
X143588024Y-97937184D01*
X143640974Y-98065018D01*
X143725207Y-98174792D01*
X143834980Y-98259025D01*
X143842488Y-98262135D01*
X143842490Y-98262136D01*
X143878978Y-98277249D01*
X143962815Y-98311975D01*
X144099998Y-98330036D01*
X144237181Y-98311975D01*
X144321018Y-98277249D01*
X144357506Y-98262136D01*
X144357508Y-98262135D01*
X144365016Y-98259025D01*
X144474789Y-98174792D01*
X144559022Y-98065018D01*
X144611972Y-97937184D01*
X144630033Y-97800001D01*
X144611972Y-97662818D01*
X144559022Y-97534984D01*
X144474789Y-97425210D01*
X144365016Y-97340977D01*
X144357508Y-97337867D01*
X144357506Y-97337866D01*
X144321018Y-97322753D01*
X144237181Y-97288027D01*
X144099998Y-97269966D01*
X143962815Y-97288027D01*
X143955304Y-97291138D01*
X143955301Y-97291139D01*
X143955299Y-97291140D01*
X143834981Y-97340977D01*
X143828534Y-97345924D01*
X143807408Y-97362135D01*
X143725207Y-97425210D01*
X143640974Y-97534984D01*
X143588024Y-97662818D01*
X143569963Y-97800001D01*
X112800000Y-97800001D01*
X112800000Y-92234891D01*
X122845420Y-92234891D01*
X122875233Y-92382743D01*
X122943707Y-92517132D01*
X123001872Y-92580386D01*
X123030098Y-92611081D01*
X123045799Y-92628156D01*
X123086578Y-92653440D01*
X123166556Y-92703028D01*
X123173986Y-92707635D01*
X123182101Y-92709993D01*
X123182104Y-92709994D01*
X123257330Y-92731849D01*
X123318825Y-92749715D01*
X123326324Y-92750266D01*
X123327240Y-92750333D01*
X123327242Y-92750333D01*
X123329515Y-92750500D01*
X134705073Y-92750500D01*
X134710266Y-92750609D01*
X134763876Y-92752856D01*
X134763877Y-92752856D01*
X134772324Y-92753210D01*
X134780555Y-92751279D01*
X134780559Y-92751279D01*
X134814777Y-92743253D01*
X134826262Y-92741124D01*
X134844118Y-92738678D01*
X134861090Y-92736353D01*
X134861091Y-92736353D01*
X134869462Y-92735206D01*
X134883420Y-92729166D01*
X134904355Y-92722242D01*
X134910933Y-92720699D01*
X134919166Y-92718768D01*
X134957378Y-92697761D01*
X134967865Y-92692624D01*
X135000127Y-92678663D01*
X135000132Y-92678660D01*
X135007885Y-92675305D01*
X135014451Y-92669988D01*
X135014453Y-92669987D01*
X135019706Y-92665733D01*
X135037995Y-92653443D01*
X135051338Y-92646107D01*
X135059452Y-92639103D01*
X135084064Y-92614491D01*
X135093709Y-92605806D01*
X135100450Y-92600347D01*
X135125100Y-92580386D01*
X135136094Y-92564916D01*
X135149489Y-92549066D01*
X136323005Y-91375549D01*
X136325996Y-91372558D01*
X136328549Y-91369195D01*
X136328553Y-91369190D01*
X136389016Y-91289533D01*
X136389017Y-91289532D01*
X136394128Y-91282798D01*
X136449651Y-91142561D01*
X136465417Y-90992560D01*
X136440264Y-90843844D01*
X136436667Y-90836199D01*
X136379644Y-90715019D01*
X136379642Y-90715016D01*
X136376045Y-90707372D01*
X136298277Y-90617276D01*
X136283012Y-90599591D01*
X136283011Y-90599590D01*
X136277491Y-90593195D01*
X136233410Y-90563908D01*
X136158903Y-90514406D01*
X136158901Y-90514405D01*
X136151863Y-90509729D01*
X136143827Y-90507118D01*
X136143825Y-90507117D01*
X136074540Y-90484605D01*
X136008417Y-90463120D01*
X135999975Y-90462766D01*
X135999974Y-90462766D01*
X135866170Y-90457158D01*
X135866169Y-90457158D01*
X135857722Y-90456804D01*
X135849495Y-90458734D01*
X135849492Y-90458734D01*
X135719108Y-90489316D01*
X135710880Y-90491246D01*
X135703475Y-90495317D01*
X135703472Y-90495318D01*
X135584403Y-90560777D01*
X135578708Y-90563908D01*
X135570594Y-90570912D01*
X134528325Y-91613181D01*
X134467002Y-91646666D01*
X134440644Y-91649500D01*
X123362215Y-91649500D01*
X123287045Y-91659797D01*
X123258940Y-91663647D01*
X123258939Y-91663647D01*
X123250568Y-91664794D01*
X123112145Y-91724695D01*
X122994930Y-91819614D01*
X122907558Y-91942558D01*
X122904694Y-91950514D01*
X122868337Y-92051499D01*
X122856467Y-92084468D01*
X122845420Y-92234891D01*
X112800000Y-92234891D01*
X112800000Y-89200000D01*
X121269965Y-89200000D01*
X121288026Y-89337183D01*
X121340976Y-89465017D01*
X121425209Y-89574791D01*
X121534982Y-89659024D01*
X121542490Y-89662134D01*
X121542492Y-89662135D01*
X121578980Y-89677248D01*
X121662817Y-89711974D01*
X121800000Y-89730035D01*
X121808059Y-89728974D01*
X121929125Y-89713035D01*
X121929126Y-89713035D01*
X121937183Y-89711974D01*
X121937305Y-89712902D01*
X122000098Y-89714397D01*
X122057960Y-89753560D01*
X122085280Y-89816325D01*
X122088026Y-89837183D01*
X122140976Y-89965017D01*
X122225209Y-90074791D01*
X122334982Y-90159024D01*
X122342490Y-90162134D01*
X122342492Y-90162135D01*
X122378980Y-90177248D01*
X122462817Y-90211974D01*
X122600000Y-90230035D01*
X122737183Y-90211974D01*
X122821020Y-90177248D01*
X122857508Y-90162135D01*
X122857510Y-90162134D01*
X122865018Y-90159024D01*
X122974791Y-90074791D01*
X123059024Y-89965017D01*
X123111974Y-89837183D01*
X123114720Y-89816325D01*
X123142985Y-89752428D01*
X123201309Y-89713956D01*
X123262700Y-89712860D01*
X123262817Y-89711974D01*
X123270874Y-89713035D01*
X123270875Y-89713035D01*
X123391941Y-89728974D01*
X123400000Y-89730035D01*
X123537183Y-89711974D01*
X123621020Y-89677248D01*
X123657508Y-89662135D01*
X123657510Y-89662134D01*
X123665018Y-89659024D01*
X123774791Y-89574791D01*
X123859024Y-89465017D01*
X123911974Y-89337183D01*
X123930035Y-89200000D01*
X123911974Y-89062817D01*
X123859024Y-88934983D01*
X123774791Y-88825209D01*
X123739821Y-88798375D01*
X123698618Y-88741947D01*
X123694464Y-88672201D01*
X123728677Y-88611281D01*
X123739821Y-88601625D01*
X123760875Y-88585469D01*
X123774791Y-88574791D01*
X123859024Y-88465017D01*
X123902126Y-88360959D01*
X123908862Y-88344697D01*
X123908863Y-88344694D01*
X123911974Y-88337183D01*
X123930035Y-88200000D01*
X123911974Y-88062817D01*
X123895755Y-88023659D01*
X123862135Y-87942494D01*
X123859024Y-87934983D01*
X123774791Y-87825209D01*
X123739821Y-87798375D01*
X123698618Y-87741947D01*
X123694464Y-87672201D01*
X123728677Y-87611281D01*
X123739821Y-87601625D01*
X123760581Y-87585695D01*
X123774791Y-87574791D01*
X123859024Y-87465017D01*
X123885151Y-87401941D01*
X123908862Y-87344697D01*
X123908863Y-87344694D01*
X123911974Y-87337183D01*
X123930035Y-87200000D01*
X123911974Y-87062817D01*
X123903208Y-87041652D01*
X123867698Y-86955925D01*
X123859024Y-86934983D01*
X123774791Y-86825209D01*
X123739821Y-86798375D01*
X123698618Y-86741947D01*
X123694464Y-86672201D01*
X123728677Y-86611281D01*
X123739821Y-86601625D01*
X123768345Y-86579737D01*
X123774791Y-86574791D01*
X123859024Y-86465017D01*
X123873954Y-86428973D01*
X123908862Y-86344697D01*
X123908863Y-86344694D01*
X123911974Y-86337183D01*
X123930035Y-86200000D01*
X123911974Y-86062817D01*
X123903202Y-86041638D01*
X123862135Y-85942494D01*
X123859024Y-85934983D01*
X123857974Y-85933614D01*
X123842203Y-85868597D01*
X123865056Y-85802570D01*
X123919979Y-85759381D01*
X123966062Y-85750500D01*
X137373938Y-85750500D01*
X137440977Y-85770185D01*
X137486732Y-85822989D01*
X137496676Y-85892147D01*
X137482570Y-85932906D01*
X137480976Y-85934983D01*
X137477865Y-85942494D01*
X137436799Y-86041638D01*
X137428026Y-86062817D01*
X137409965Y-86200000D01*
X137428026Y-86337183D01*
X137431137Y-86344694D01*
X137431138Y-86344697D01*
X137466046Y-86428973D01*
X137480976Y-86465017D01*
X137565209Y-86574791D01*
X137674982Y-86659024D01*
X137682490Y-86662134D01*
X137682492Y-86662135D01*
X137750826Y-86690439D01*
X137805230Y-86734279D01*
X137827295Y-86800573D01*
X137810016Y-86868273D01*
X137758879Y-86915884D01*
X137750826Y-86919561D01*
X137714274Y-86934701D01*
X137674983Y-86950976D01*
X137565209Y-87035209D01*
X137560265Y-87041652D01*
X137497981Y-87122822D01*
X137480976Y-87144983D01*
X137477865Y-87152494D01*
X137432934Y-87260969D01*
X137428026Y-87272817D01*
X137409965Y-87410000D01*
X137411026Y-87418059D01*
X137411026Y-87425500D01*
X137391341Y-87492539D01*
X137338537Y-87538294D01*
X137287026Y-87549500D01*
X136584102Y-87549500D01*
X136569528Y-87548641D01*
X136544894Y-87545725D01*
X136544891Y-87545725D01*
X136535689Y-87544636D01*
X136477965Y-87555179D01*
X136474124Y-87555818D01*
X136416038Y-87564551D01*
X136409525Y-87567679D01*
X136402427Y-87568975D01*
X136394201Y-87573248D01*
X136350331Y-87596036D01*
X136346857Y-87597771D01*
X136293921Y-87623191D01*
X136288699Y-87628018D01*
X136288486Y-87628161D01*
X136282211Y-87631421D01*
X136277172Y-87635725D01*
X136239903Y-87672994D01*
X136236393Y-87676369D01*
X136201251Y-87708853D01*
X136201249Y-87708856D01*
X136194444Y-87715146D01*
X136190763Y-87721484D01*
X136185172Y-87727725D01*
X135850835Y-88062062D01*
X135810607Y-88088942D01*
X135684983Y-88140976D01*
X135678536Y-88145923D01*
X135589739Y-88214060D01*
X135575209Y-88225209D01*
X135490976Y-88334983D01*
X135487865Y-88342494D01*
X135443128Y-88450500D01*
X135438026Y-88462817D01*
X135419965Y-88600000D01*
X135438026Y-88737183D01*
X135441137Y-88744694D01*
X135441138Y-88744697D01*
X135459373Y-88788719D01*
X135490976Y-88865017D01*
X135575209Y-88974791D01*
X135684982Y-89059024D01*
X135692490Y-89062134D01*
X135692492Y-89062135D01*
X135694139Y-89062817D01*
X135812817Y-89111974D01*
X135950000Y-89130035D01*
X136087183Y-89111974D01*
X136205861Y-89062817D01*
X136207508Y-89062135D01*
X136207510Y-89062134D01*
X136215018Y-89059024D01*
X136324791Y-88974791D01*
X136409024Y-88865017D01*
X136461058Y-88739393D01*
X136487938Y-88699165D01*
X136700284Y-88486819D01*
X136761607Y-88453334D01*
X136787965Y-88450500D01*
X138575500Y-88450500D01*
X138642539Y-88470185D01*
X138688294Y-88522989D01*
X138699500Y-88574500D01*
X138699500Y-93342154D01*
X138679815Y-93409193D01*
X138627011Y-93454948D01*
X138557853Y-93464892D01*
X138494297Y-93435867D01*
X138467535Y-93398755D01*
X138466196Y-93399528D01*
X138462135Y-93392494D01*
X138459024Y-93384983D01*
X138374791Y-93275209D01*
X138265018Y-93190976D01*
X138257510Y-93187866D01*
X138257508Y-93187865D01*
X138221020Y-93172752D01*
X138137183Y-93138026D01*
X138000000Y-93119965D01*
X137862817Y-93138026D01*
X137855306Y-93141137D01*
X137855303Y-93141138D01*
X137855301Y-93141139D01*
X137734983Y-93190976D01*
X137625209Y-93275209D01*
X137620265Y-93281652D01*
X137573840Y-93342154D01*
X137540976Y-93384983D01*
X137537865Y-93392494D01*
X137506180Y-93468990D01*
X137488026Y-93512817D01*
X137469965Y-93650000D01*
X137488026Y-93787183D01*
X137491137Y-93794694D01*
X137491138Y-93794697D01*
X137507387Y-93833925D01*
X137540976Y-93915017D01*
X137625209Y-94024791D01*
X137734982Y-94109024D01*
X137742490Y-94112134D01*
X137742492Y-94112135D01*
X137778980Y-94127248D01*
X137862817Y-94161974D01*
X138000000Y-94180035D01*
X138137183Y-94161974D01*
X138221020Y-94127248D01*
X138257508Y-94112135D01*
X138257510Y-94112134D01*
X138265018Y-94109024D01*
X138374791Y-94024791D01*
X138459024Y-93915017D01*
X138462135Y-93907506D01*
X138466196Y-93900472D01*
X138468064Y-93901551D01*
X138504782Y-93855989D01*
X138571076Y-93833925D01*
X138638775Y-93851205D01*
X138686385Y-93902343D01*
X138699500Y-93957846D01*
X138699500Y-94410452D01*
X138692194Y-94447180D01*
X138693240Y-94447460D01*
X138691139Y-94455301D01*
X138688026Y-94462817D01*
X138669965Y-94600000D01*
X138688026Y-94737183D01*
X138691137Y-94744694D01*
X138691138Y-94744697D01*
X138726046Y-94828973D01*
X138740976Y-94865017D01*
X138825209Y-94974791D01*
X138934982Y-95059024D01*
X138942490Y-95062134D01*
X138942492Y-95062135D01*
X138969438Y-95073296D01*
X139062817Y-95111974D01*
X139200000Y-95130035D01*
X139337183Y-95111974D01*
X139430562Y-95073296D01*
X139457508Y-95062135D01*
X139457510Y-95062134D01*
X139465018Y-95059024D01*
X139574791Y-94974791D01*
X139659024Y-94865017D01*
X139673954Y-94828973D01*
X139708862Y-94744697D01*
X139708863Y-94744694D01*
X139711974Y-94737183D01*
X139730035Y-94600000D01*
X139711974Y-94462817D01*
X139708861Y-94455301D01*
X139706760Y-94447460D01*
X139707806Y-94447180D01*
X139700500Y-94410452D01*
X139700500Y-88319952D01*
X139701834Y-88308011D01*
X139701360Y-88307973D01*
X139702069Y-88299167D01*
X139704018Y-88290552D01*
X139700738Y-88237680D01*
X139700500Y-88230002D01*
X139700500Y-88214060D01*
X139699041Y-88203867D01*
X139698027Y-88193973D01*
X139695688Y-88156279D01*
X139695141Y-88147461D01*
X139692142Y-88139152D01*
X139691552Y-88136305D01*
X139687387Y-88119600D01*
X139686575Y-88116823D01*
X139685323Y-88108082D01*
X139681668Y-88100043D01*
X139681667Y-88100040D01*
X139666034Y-88065657D01*
X139662281Y-88056439D01*
X139661871Y-88055303D01*
X139646460Y-88012613D01*
X139641247Y-88005477D01*
X139639889Y-88002923D01*
X139631200Y-87988052D01*
X139629640Y-87985613D01*
X139625984Y-87977572D01*
X139595540Y-87942240D01*
X139589381Y-87934483D01*
X139581477Y-87923664D01*
X139570684Y-87912871D01*
X139564427Y-87906132D01*
X139538167Y-87875656D01*
X139532400Y-87868963D01*
X139524989Y-87864159D01*
X139518867Y-87858818D01*
X139507164Y-87849350D01*
X139437940Y-87780127D01*
X139417135Y-87748989D01*
X139416198Y-87749530D01*
X139412133Y-87742489D01*
X139409024Y-87734983D01*
X139324791Y-87625209D01*
X139215018Y-87540976D01*
X139207510Y-87537866D01*
X139207508Y-87537865D01*
X139171020Y-87522752D01*
X139087183Y-87488026D01*
X138950000Y-87469965D01*
X138812817Y-87488026D01*
X138805306Y-87491137D01*
X138805303Y-87491138D01*
X138687192Y-87540061D01*
X138639740Y-87549500D01*
X138592974Y-87549500D01*
X138525935Y-87529815D01*
X138480180Y-87477011D01*
X138468974Y-87425500D01*
X138468974Y-87418059D01*
X138470035Y-87410000D01*
X138451974Y-87272817D01*
X138447067Y-87260969D01*
X138402135Y-87152494D01*
X138399024Y-87144983D01*
X138314791Y-87035209D01*
X138205018Y-86950976D01*
X138197510Y-86947866D01*
X138197508Y-86947865D01*
X138129174Y-86919561D01*
X138074770Y-86875721D01*
X138052705Y-86809427D01*
X138069984Y-86741727D01*
X138121121Y-86694116D01*
X138129174Y-86690439D01*
X138197508Y-86662135D01*
X138197510Y-86662134D01*
X138205018Y-86659024D01*
X138314791Y-86574791D01*
X138399024Y-86465017D01*
X138413954Y-86428973D01*
X138448862Y-86344697D01*
X138448863Y-86344694D01*
X138451974Y-86337183D01*
X138470035Y-86200000D01*
X138451974Y-86062817D01*
X138443202Y-86041638D01*
X138402135Y-85942494D01*
X138399024Y-85934983D01*
X138397974Y-85933614D01*
X138382203Y-85868597D01*
X138405056Y-85802570D01*
X138459979Y-85759381D01*
X138506062Y-85750500D01*
X144120613Y-85750500D01*
X144187652Y-85770185D01*
X144208294Y-85786819D01*
X146000132Y-87578656D01*
X146003727Y-87582404D01*
X146030281Y-87611281D01*
X146045789Y-87628146D01*
X146072338Y-87644607D01*
X146082852Y-87651126D01*
X146092480Y-87657743D01*
X146120474Y-87678992D01*
X146120477Y-87678994D01*
X146127207Y-87684102D01*
X146135065Y-87687213D01*
X146135070Y-87687216D01*
X146141345Y-87689700D01*
X146161046Y-87699608D01*
X146166791Y-87703170D01*
X146173976Y-87707625D01*
X146199864Y-87715146D01*
X146215848Y-87719790D01*
X146226899Y-87723574D01*
X146259582Y-87736514D01*
X146259585Y-87736515D01*
X146267443Y-87739626D01*
X146282572Y-87741216D01*
X146304207Y-87745461D01*
X146318815Y-87749705D01*
X146326314Y-87750256D01*
X146327230Y-87750323D01*
X146327232Y-87750323D01*
X146329505Y-87750490D01*
X146364312Y-87750490D01*
X146377273Y-87751169D01*
X146409038Y-87754508D01*
X146409041Y-87754508D01*
X146417444Y-87755391D01*
X146425774Y-87753982D01*
X146425777Y-87753982D01*
X146436157Y-87752226D01*
X146456836Y-87750490D01*
X146887767Y-87750490D01*
X146967075Y-87739626D01*
X146991042Y-87736343D01*
X146991043Y-87736343D01*
X146999414Y-87735196D01*
X147137837Y-87675295D01*
X147168831Y-87650197D01*
X147196061Y-87628146D01*
X147255052Y-87580376D01*
X147342424Y-87457432D01*
X147385717Y-87337183D01*
X147390652Y-87323475D01*
X147390652Y-87323473D01*
X147393515Y-87315522D01*
X147404562Y-87165099D01*
X147402021Y-87152494D01*
X147398249Y-87133789D01*
X165995996Y-87133789D01*
X166004913Y-87371295D01*
X166005990Y-87376430D01*
X166005991Y-87376435D01*
X166048421Y-87578656D01*
X166053719Y-87603904D01*
X166055648Y-87608788D01*
X166055649Y-87608792D01*
X166083373Y-87678992D01*
X166141020Y-87824963D01*
X166143741Y-87829447D01*
X166143743Y-87829451D01*
X166209909Y-87938488D01*
X166264319Y-88028153D01*
X166314688Y-88086198D01*
X166413440Y-88200000D01*
X166420090Y-88207664D01*
X166542426Y-88307973D01*
X166584528Y-88342494D01*
X166603880Y-88358362D01*
X166608441Y-88360958D01*
X166608442Y-88360959D01*
X166805875Y-88473345D01*
X166805880Y-88473347D01*
X166810433Y-88475939D01*
X167033844Y-88557034D01*
X167267725Y-88599326D01*
X167292619Y-88600500D01*
X167459680Y-88600500D01*
X167462296Y-88600278D01*
X167462297Y-88600278D01*
X167631590Y-88585913D01*
X167636823Y-88585469D01*
X167866874Y-88525760D01*
X168083576Y-88428143D01*
X168280732Y-88295409D01*
X168452705Y-88131355D01*
X168594579Y-87940670D01*
X168627634Y-87875656D01*
X168699913Y-87733493D01*
X168699915Y-87733488D01*
X168702295Y-87728807D01*
X168705783Y-87717576D01*
X168771215Y-87506848D01*
X168772775Y-87501824D01*
X168774191Y-87491139D01*
X168803315Y-87271412D01*
X168803315Y-87271408D01*
X168804004Y-87266211D01*
X168795087Y-87028705D01*
X168779817Y-86955925D01*
X168747361Y-86801242D01*
X168747360Y-86801239D01*
X168746281Y-86796096D01*
X168739157Y-86778055D01*
X168673497Y-86611796D01*
X168658980Y-86575037D01*
X168654921Y-86568347D01*
X168538408Y-86376341D01*
X168535681Y-86371847D01*
X168393554Y-86208059D01*
X168383356Y-86196307D01*
X168383355Y-86196306D01*
X168379910Y-86192336D01*
X168196120Y-86041638D01*
X168078687Y-85974791D01*
X167994125Y-85926655D01*
X167994120Y-85926653D01*
X167989567Y-85924061D01*
X167766156Y-85842966D01*
X167532275Y-85800674D01*
X167507381Y-85799500D01*
X167340320Y-85799500D01*
X167337704Y-85799722D01*
X167337703Y-85799722D01*
X167228627Y-85808977D01*
X167163177Y-85814531D01*
X166933126Y-85874240D01*
X166716424Y-85971857D01*
X166519268Y-86104591D01*
X166347295Y-86268645D01*
X166205421Y-86459330D01*
X166203042Y-86464008D01*
X166203042Y-86464009D01*
X166104386Y-86658053D01*
X166097705Y-86671193D01*
X166096146Y-86676213D01*
X166096145Y-86676216D01*
X166049882Y-86825209D01*
X166027225Y-86898176D01*
X166026534Y-86903386D01*
X166026534Y-86903388D01*
X166009718Y-87030263D01*
X165995996Y-87133789D01*
X147398249Y-87133789D01*
X147377374Y-87030265D01*
X147374749Y-87017247D01*
X147324976Y-86919561D01*
X147310115Y-86890394D01*
X147310114Y-86890393D01*
X147306275Y-86882858D01*
X147226493Y-86796096D01*
X147209904Y-86778055D01*
X147209902Y-86778053D01*
X147204183Y-86771834D01*
X147141290Y-86732839D01*
X147094687Y-86680784D01*
X147083626Y-86611796D01*
X147111618Y-86547778D01*
X147139096Y-86523459D01*
X147144998Y-86519626D01*
X147152642Y-86516029D01*
X147266819Y-86417475D01*
X147350285Y-86291847D01*
X147396894Y-86148401D01*
X147403210Y-85997706D01*
X147397836Y-85974791D01*
X147370698Y-85859092D01*
X147370698Y-85859091D01*
X147368768Y-85850864D01*
X147364697Y-85843459D01*
X147364696Y-85843456D01*
X147299238Y-85724389D01*
X147296106Y-85718692D01*
X147289103Y-85710578D01*
X145860452Y-84281927D01*
X145826967Y-84220604D01*
X145831951Y-84150912D01*
X145873823Y-84094979D01*
X145939287Y-84070562D01*
X145990134Y-84077577D01*
X146034469Y-84093538D01*
X146109681Y-84099062D01*
X146176462Y-84103966D01*
X146176463Y-84103966D01*
X146184892Y-84104585D01*
X146193179Y-84102914D01*
X146193180Y-84102914D01*
X146288591Y-84083675D01*
X146332744Y-84074772D01*
X146467133Y-84006298D01*
X146544687Y-83934983D01*
X146571936Y-83909927D01*
X146571938Y-83909925D01*
X146578157Y-83904206D01*
X146629731Y-83821026D01*
X146653182Y-83783203D01*
X146653183Y-83783202D01*
X146657636Y-83776019D01*
X146665102Y-83750323D01*
X146697902Y-83637423D01*
X146699716Y-83631180D01*
X146700501Y-83620490D01*
X146700501Y-80854376D01*
X166634455Y-80854376D01*
X166635179Y-80861265D01*
X166635179Y-80861268D01*
X166646715Y-80971026D01*
X166653227Y-81032983D01*
X166711103Y-81202993D01*
X166714734Y-81208895D01*
X166801338Y-81349667D01*
X166805206Y-81355955D01*
X166930859Y-81484268D01*
X167081817Y-81581554D01*
X167141619Y-81603320D01*
X167244063Y-81640607D01*
X167244065Y-81640608D01*
X167250578Y-81642978D01*
X167308253Y-81650264D01*
X167385417Y-81660012D01*
X167385423Y-81660012D01*
X167389283Y-81660500D01*
X167485155Y-81660500D01*
X167488602Y-81660113D01*
X167488608Y-81660113D01*
X167611581Y-81646319D01*
X167618472Y-81645546D01*
X167788073Y-81586485D01*
X167940375Y-81491316D01*
X168052269Y-81380200D01*
X168062890Y-81369653D01*
X168062891Y-81369652D01*
X168067807Y-81364770D01*
X168164037Y-81213136D01*
X168193052Y-81131652D01*
X168221957Y-81050479D01*
X168221958Y-81050475D01*
X168224281Y-81043951D01*
X168245545Y-80865624D01*
X168243640Y-80847494D01*
X168227498Y-80693913D01*
X168227498Y-80693911D01*
X168226773Y-80687017D01*
X168218303Y-80662135D01*
X168188568Y-80574791D01*
X168168897Y-80517007D01*
X168140879Y-80471464D01*
X168078427Y-80369950D01*
X168078426Y-80369949D01*
X168074794Y-80364045D01*
X167949141Y-80235732D01*
X167798183Y-80138446D01*
X167730006Y-80113632D01*
X167635937Y-80079393D01*
X167635935Y-80079392D01*
X167629422Y-80077022D01*
X167571747Y-80069736D01*
X167494583Y-80059988D01*
X167494577Y-80059988D01*
X167490717Y-80059500D01*
X167394845Y-80059500D01*
X167391398Y-80059887D01*
X167391392Y-80059887D01*
X167268419Y-80073681D01*
X167261528Y-80074454D01*
X167091927Y-80133515D01*
X166939625Y-80228684D01*
X166812193Y-80355230D01*
X166715963Y-80506864D01*
X166713636Y-80513399D01*
X166658043Y-80669521D01*
X166658042Y-80669525D01*
X166655719Y-80676049D01*
X166634455Y-80854376D01*
X146700501Y-80854376D01*
X146700501Y-80200000D01*
X147069965Y-80200000D01*
X147088026Y-80337183D01*
X147091137Y-80344694D01*
X147091138Y-80344697D01*
X147099152Y-80364045D01*
X147140976Y-80465017D01*
X147225209Y-80574791D01*
X147334982Y-80659024D01*
X147342490Y-80662134D01*
X147342492Y-80662135D01*
X147360324Y-80669521D01*
X147462817Y-80711974D01*
X147600000Y-80730035D01*
X147737183Y-80711974D01*
X147839676Y-80669521D01*
X147857508Y-80662135D01*
X147857510Y-80662134D01*
X147865018Y-80659024D01*
X147974791Y-80574791D01*
X148059024Y-80465017D01*
X148100848Y-80364045D01*
X148108862Y-80344697D01*
X148108863Y-80344694D01*
X148111974Y-80337183D01*
X148130035Y-80200000D01*
X148111974Y-80062817D01*
X148059024Y-79934983D01*
X147974791Y-79825209D01*
X147865018Y-79740976D01*
X147857510Y-79737866D01*
X147857508Y-79737865D01*
X147821020Y-79722752D01*
X147737183Y-79688026D01*
X147600000Y-79669965D01*
X147462817Y-79688026D01*
X147455306Y-79691137D01*
X147455303Y-79691138D01*
X147455301Y-79691139D01*
X147334983Y-79740976D01*
X147225209Y-79825209D01*
X147140976Y-79934983D01*
X147088026Y-80062817D01*
X147069965Y-80200000D01*
X146700501Y-80200000D01*
X146700501Y-78600000D01*
X156769965Y-78600000D01*
X156788026Y-78737183D01*
X156791137Y-78744694D01*
X156791138Y-78744697D01*
X156800000Y-78766091D01*
X156840976Y-78865017D01*
X156925209Y-78974791D01*
X157034982Y-79059024D01*
X157042490Y-79062134D01*
X157042492Y-79062135D01*
X157078980Y-79077248D01*
X157162817Y-79111974D01*
X157300000Y-79130035D01*
X157437183Y-79111974D01*
X157521020Y-79077248D01*
X157557508Y-79062135D01*
X157557510Y-79062134D01*
X157565018Y-79059024D01*
X157674791Y-78974791D01*
X157679736Y-78968347D01*
X157679740Y-78968343D01*
X157701625Y-78939822D01*
X157758053Y-78898620D01*
X157827799Y-78894465D01*
X157888719Y-78928678D01*
X157898375Y-78939822D01*
X157920260Y-78968343D01*
X157920264Y-78968347D01*
X157925209Y-78974791D01*
X158034982Y-79059024D01*
X158042490Y-79062134D01*
X158042492Y-79062135D01*
X158078980Y-79077248D01*
X158162817Y-79111974D01*
X158300000Y-79130035D01*
X158437183Y-79111974D01*
X158521020Y-79077248D01*
X158557508Y-79062135D01*
X158557510Y-79062134D01*
X158565018Y-79059024D01*
X158674791Y-78974791D01*
X158679736Y-78968347D01*
X158679740Y-78968343D01*
X158701625Y-78939822D01*
X158758053Y-78898620D01*
X158827799Y-78894465D01*
X158888719Y-78928678D01*
X158898375Y-78939822D01*
X158920260Y-78968343D01*
X158920264Y-78968347D01*
X158925209Y-78974791D01*
X159034982Y-79059024D01*
X159042490Y-79062134D01*
X159042492Y-79062135D01*
X159078980Y-79077248D01*
X159162817Y-79111974D01*
X159300000Y-79130035D01*
X159437183Y-79111974D01*
X159521020Y-79077248D01*
X159557508Y-79062135D01*
X159557510Y-79062134D01*
X159565018Y-79059024D01*
X159674791Y-78974791D01*
X159679736Y-78968347D01*
X159679740Y-78968343D01*
X159701625Y-78939822D01*
X159758053Y-78898620D01*
X159827799Y-78894465D01*
X159888719Y-78928678D01*
X159898375Y-78939822D01*
X159920260Y-78968343D01*
X159920264Y-78968347D01*
X159925209Y-78974791D01*
X160034982Y-79059024D01*
X160042490Y-79062134D01*
X160042492Y-79062135D01*
X160078980Y-79077248D01*
X160162817Y-79111974D01*
X160300000Y-79130035D01*
X160437183Y-79111974D01*
X160521020Y-79077248D01*
X160557508Y-79062135D01*
X160557510Y-79062134D01*
X160565018Y-79059024D01*
X160674791Y-78974791D01*
X160679736Y-78968347D01*
X160679740Y-78968343D01*
X160701625Y-78939822D01*
X160758053Y-78898620D01*
X160827799Y-78894465D01*
X160888719Y-78928678D01*
X160898375Y-78939822D01*
X160920260Y-78968343D01*
X160920264Y-78968347D01*
X160925209Y-78974791D01*
X161034982Y-79059024D01*
X161042490Y-79062134D01*
X161042492Y-79062135D01*
X161078980Y-79077248D01*
X161162817Y-79111974D01*
X161300000Y-79130035D01*
X161437183Y-79111974D01*
X161521020Y-79077248D01*
X161557508Y-79062135D01*
X161557510Y-79062134D01*
X161565018Y-79059024D01*
X161674791Y-78974791D01*
X161759024Y-78865017D01*
X161800000Y-78766091D01*
X161808862Y-78744697D01*
X161808863Y-78744694D01*
X161811974Y-78737183D01*
X161830035Y-78600000D01*
X161811974Y-78462817D01*
X161759024Y-78334983D01*
X161674791Y-78225209D01*
X161639821Y-78198375D01*
X161598618Y-78141947D01*
X161594464Y-78072201D01*
X161628677Y-78011281D01*
X161639821Y-78001625D01*
X161668345Y-77979737D01*
X161674791Y-77974791D01*
X161759024Y-77865017D01*
X161767207Y-77845262D01*
X162444520Y-77845262D01*
X162461759Y-78050553D01*
X162518544Y-78248586D01*
X162521316Y-78253981D01*
X162521317Y-78253982D01*
X162562946Y-78334983D01*
X162612712Y-78431818D01*
X162616480Y-78436572D01*
X162645402Y-78473062D01*
X162740677Y-78593270D01*
X162745296Y-78597201D01*
X162892950Y-78722865D01*
X162892955Y-78722869D01*
X162897564Y-78726791D01*
X163077398Y-78827297D01*
X163273329Y-78890959D01*
X163279347Y-78891677D01*
X163279349Y-78891677D01*
X163421410Y-78908616D01*
X163477894Y-78915351D01*
X163483938Y-78914886D01*
X163483939Y-78914886D01*
X163545266Y-78910167D01*
X163683300Y-78899546D01*
X163806970Y-78865017D01*
X163875885Y-78845776D01*
X163875889Y-78845774D01*
X163881725Y-78844145D01*
X164065610Y-78751258D01*
X164227951Y-78624424D01*
X164231907Y-78619840D01*
X164231911Y-78619837D01*
X164349058Y-78484119D01*
X164362564Y-78468472D01*
X164365777Y-78462817D01*
X164461327Y-78294618D01*
X164464323Y-78289344D01*
X164508629Y-78156155D01*
X164527439Y-78099611D01*
X164527439Y-78099610D01*
X164529351Y-78093863D01*
X164534821Y-78050569D01*
X164554736Y-77892919D01*
X164554736Y-77892915D01*
X164555171Y-77889474D01*
X164555423Y-77871464D01*
X164555535Y-77863461D01*
X164555535Y-77863454D01*
X164555583Y-77860000D01*
X164535480Y-77654970D01*
X164475935Y-77457749D01*
X164434022Y-77378922D01*
X164382065Y-77281203D01*
X164382064Y-77281201D01*
X164379218Y-77275849D01*
X164249011Y-77116200D01*
X164229429Y-77100000D01*
X164094946Y-76988746D01*
X164094945Y-76988745D01*
X164090275Y-76984882D01*
X163986328Y-76928678D01*
X163914393Y-76889783D01*
X163914391Y-76889782D01*
X163909055Y-76886897D01*
X163899991Y-76884091D01*
X163718046Y-76827770D01*
X163718047Y-76827770D01*
X163712254Y-76825977D01*
X163507369Y-76804443D01*
X163501336Y-76804992D01*
X163501332Y-76804992D01*
X163375721Y-76816424D01*
X163302203Y-76823114D01*
X163296390Y-76824825D01*
X163296389Y-76824825D01*
X163292475Y-76825977D01*
X163104572Y-76881280D01*
X163079352Y-76894465D01*
X162927374Y-76973917D01*
X162927370Y-76973920D01*
X162922002Y-76976726D01*
X162917279Y-76980523D01*
X162917278Y-76980524D01*
X162803255Y-77072201D01*
X162761447Y-77105815D01*
X162629024Y-77263630D01*
X162529776Y-77444162D01*
X162527942Y-77449944D01*
X162527941Y-77449946D01*
X162482898Y-77591941D01*
X162467484Y-77640532D01*
X162460731Y-77700738D01*
X162445563Y-77835967D01*
X162444520Y-77845262D01*
X161767207Y-77845262D01*
X161795106Y-77777907D01*
X161808862Y-77744697D01*
X161808863Y-77744694D01*
X161811974Y-77737183D01*
X161830035Y-77600000D01*
X161811974Y-77462817D01*
X161807657Y-77452393D01*
X161762135Y-77342494D01*
X161759024Y-77334983D01*
X161674791Y-77225209D01*
X161639821Y-77198375D01*
X161598618Y-77141947D01*
X161594464Y-77072201D01*
X161628677Y-77011281D01*
X161639821Y-77001625D01*
X161665401Y-76981996D01*
X161674791Y-76974791D01*
X161759024Y-76865017D01*
X161811974Y-76737183D01*
X161830035Y-76600000D01*
X161811974Y-76462817D01*
X161759024Y-76334983D01*
X161674791Y-76225209D01*
X161565018Y-76140976D01*
X161557510Y-76137866D01*
X161557508Y-76137865D01*
X161521020Y-76122752D01*
X161437183Y-76088026D01*
X161300000Y-76069965D01*
X161162817Y-76088026D01*
X161155306Y-76091137D01*
X161155303Y-76091138D01*
X161155301Y-76091139D01*
X161034983Y-76140976D01*
X160925209Y-76225209D01*
X160920265Y-76231652D01*
X160920261Y-76231656D01*
X160898375Y-76260178D01*
X160841947Y-76301380D01*
X160772201Y-76305535D01*
X160711281Y-76271322D01*
X160701625Y-76260178D01*
X160679740Y-76231657D01*
X160679735Y-76231652D01*
X160674791Y-76225209D01*
X160565018Y-76140976D01*
X160557510Y-76137866D01*
X160557508Y-76137865D01*
X160521020Y-76122752D01*
X160437183Y-76088026D01*
X160300000Y-76069965D01*
X160162817Y-76088026D01*
X160155306Y-76091137D01*
X160155303Y-76091138D01*
X160155301Y-76091139D01*
X160034983Y-76140976D01*
X159925209Y-76225209D01*
X159920265Y-76231652D01*
X159920261Y-76231656D01*
X159898375Y-76260178D01*
X159841947Y-76301380D01*
X159772201Y-76305535D01*
X159711281Y-76271322D01*
X159701625Y-76260178D01*
X159679740Y-76231657D01*
X159679735Y-76231652D01*
X159674791Y-76225209D01*
X159565018Y-76140976D01*
X159557510Y-76137866D01*
X159557508Y-76137865D01*
X159521020Y-76122752D01*
X159437183Y-76088026D01*
X159300000Y-76069965D01*
X159162817Y-76088026D01*
X159155306Y-76091137D01*
X159155303Y-76091138D01*
X159155301Y-76091139D01*
X159034983Y-76140976D01*
X158925209Y-76225209D01*
X158920265Y-76231652D01*
X158920261Y-76231656D01*
X158898375Y-76260178D01*
X158841947Y-76301380D01*
X158772201Y-76305535D01*
X158711281Y-76271322D01*
X158701625Y-76260178D01*
X158679740Y-76231657D01*
X158679735Y-76231652D01*
X158674791Y-76225209D01*
X158565018Y-76140976D01*
X158557510Y-76137866D01*
X158557508Y-76137865D01*
X158521020Y-76122752D01*
X158437183Y-76088026D01*
X158300000Y-76069965D01*
X158162817Y-76088026D01*
X158155306Y-76091137D01*
X158155303Y-76091138D01*
X158155301Y-76091139D01*
X158034983Y-76140976D01*
X157925209Y-76225209D01*
X157920265Y-76231652D01*
X157920261Y-76231656D01*
X157898375Y-76260178D01*
X157841947Y-76301380D01*
X157772201Y-76305535D01*
X157711281Y-76271322D01*
X157701625Y-76260178D01*
X157679740Y-76231657D01*
X157679735Y-76231652D01*
X157674791Y-76225209D01*
X157565018Y-76140976D01*
X157557510Y-76137866D01*
X157557508Y-76137865D01*
X157521020Y-76122752D01*
X157437183Y-76088026D01*
X157300000Y-76069965D01*
X157162817Y-76088026D01*
X157155306Y-76091137D01*
X157155303Y-76091138D01*
X157155301Y-76091139D01*
X157034983Y-76140976D01*
X156925209Y-76225209D01*
X156840976Y-76334983D01*
X156788026Y-76462817D01*
X156769965Y-76600000D01*
X156788026Y-76737183D01*
X156840976Y-76865017D01*
X156925209Y-76974791D01*
X156934599Y-76981996D01*
X156960179Y-77001625D01*
X157001382Y-77058053D01*
X157005536Y-77127799D01*
X156971323Y-77188719D01*
X156960178Y-77198376D01*
X156931654Y-77220263D01*
X156931652Y-77220265D01*
X156925209Y-77225209D01*
X156840976Y-77334983D01*
X156837865Y-77342494D01*
X156792344Y-77452393D01*
X156788026Y-77462817D01*
X156769965Y-77600000D01*
X156788026Y-77737183D01*
X156791137Y-77744694D01*
X156791138Y-77744697D01*
X156804894Y-77777907D01*
X156840976Y-77865017D01*
X156925209Y-77974791D01*
X156931655Y-77979737D01*
X156960179Y-78001625D01*
X157001382Y-78058053D01*
X157005536Y-78127799D01*
X156971323Y-78188719D01*
X156960178Y-78198376D01*
X156931654Y-78220263D01*
X156931652Y-78220265D01*
X156925209Y-78225209D01*
X156840976Y-78334983D01*
X156788026Y-78462817D01*
X156769965Y-78600000D01*
X146700501Y-78600000D01*
X146700501Y-78214958D01*
X146700610Y-78209765D01*
X146702857Y-78156155D01*
X146702857Y-78156154D01*
X146703211Y-78147707D01*
X146701280Y-78139476D01*
X146701280Y-78139472D01*
X146693254Y-78105254D01*
X146691124Y-78093765D01*
X146686354Y-78058941D01*
X146686354Y-78058940D01*
X146685207Y-78050569D01*
X146679167Y-78036611D01*
X146672243Y-78015676D01*
X146670700Y-78009098D01*
X146668769Y-78000865D01*
X146647762Y-77962653D01*
X146642625Y-77952166D01*
X146628664Y-77919904D01*
X146628661Y-77919899D01*
X146625306Y-77912146D01*
X146615734Y-77900325D01*
X146603441Y-77882032D01*
X146596108Y-77868693D01*
X146589104Y-77860579D01*
X146564492Y-77835967D01*
X146555807Y-77826322D01*
X146535706Y-77801500D01*
X146530387Y-77794931D01*
X146514917Y-77783937D01*
X146499067Y-77770542D01*
X143573786Y-74845262D01*
X162444520Y-74845262D01*
X162461759Y-75050553D01*
X162518544Y-75248586D01*
X162612712Y-75431818D01*
X162616480Y-75436572D01*
X162645402Y-75473062D01*
X162740677Y-75593270D01*
X162745296Y-75597201D01*
X162892950Y-75722865D01*
X162892955Y-75722869D01*
X162897564Y-75726791D01*
X163077398Y-75827297D01*
X163273329Y-75890959D01*
X163279347Y-75891677D01*
X163279349Y-75891677D01*
X163421410Y-75908616D01*
X163477894Y-75915351D01*
X163483938Y-75914886D01*
X163483939Y-75914886D01*
X163545266Y-75910167D01*
X163683300Y-75899546D01*
X163768596Y-75875731D01*
X163875885Y-75845776D01*
X163875889Y-75845774D01*
X163881725Y-75844145D01*
X164065610Y-75751258D01*
X164227951Y-75624424D01*
X164231907Y-75619840D01*
X164231911Y-75619837D01*
X164358602Y-75473062D01*
X164362564Y-75468472D01*
X164383387Y-75431818D01*
X164461327Y-75294618D01*
X164464323Y-75289344D01*
X164529351Y-75093863D01*
X164534823Y-75050553D01*
X164554736Y-74892919D01*
X164554736Y-74892915D01*
X164555171Y-74889474D01*
X164555583Y-74860000D01*
X164549553Y-74798501D01*
X164536072Y-74661006D01*
X164536072Y-74661004D01*
X164535480Y-74654970D01*
X164475935Y-74457749D01*
X164379218Y-74275849D01*
X164249011Y-74116200D01*
X164090275Y-73984882D01*
X163909055Y-73886897D01*
X163899991Y-73884091D01*
X163718046Y-73827770D01*
X163718047Y-73827770D01*
X163712254Y-73825977D01*
X163507369Y-73804443D01*
X163501336Y-73804992D01*
X163501332Y-73804992D01*
X163375721Y-73816424D01*
X163302203Y-73823114D01*
X163296390Y-73824825D01*
X163296389Y-73824825D01*
X163292475Y-73825977D01*
X163104572Y-73881280D01*
X163020819Y-73925065D01*
X162927374Y-73973917D01*
X162927370Y-73973920D01*
X162922002Y-73976726D01*
X162761447Y-74105815D01*
X162629024Y-74263630D01*
X162529776Y-74444162D01*
X162527942Y-74449944D01*
X162527941Y-74449946D01*
X162472089Y-74626014D01*
X162467484Y-74640532D01*
X162444520Y-74845262D01*
X143573786Y-74845262D01*
X140828524Y-72100000D01*
X159969965Y-72100000D01*
X159988026Y-72237183D01*
X159991137Y-72244694D01*
X159991138Y-72244697D01*
X160011816Y-72294618D01*
X160040976Y-72365017D01*
X160125209Y-72474791D01*
X160234982Y-72559024D01*
X160242490Y-72562134D01*
X160242492Y-72562135D01*
X160278980Y-72577248D01*
X160362817Y-72611974D01*
X160500000Y-72630035D01*
X160637183Y-72611974D01*
X160721020Y-72577248D01*
X160757508Y-72562135D01*
X160757510Y-72562134D01*
X160765018Y-72559024D01*
X160874791Y-72474791D01*
X160959024Y-72365017D01*
X160988184Y-72294618D01*
X161008862Y-72244697D01*
X161008863Y-72244694D01*
X161011974Y-72237183D01*
X161030035Y-72100000D01*
X161011974Y-71962817D01*
X160963282Y-71845262D01*
X162444520Y-71845262D01*
X162461759Y-72050553D01*
X162518544Y-72248586D01*
X162521316Y-72253981D01*
X162521317Y-72253982D01*
X162534441Y-72279518D01*
X162612712Y-72431818D01*
X162616480Y-72436572D01*
X162734741Y-72585780D01*
X162740677Y-72593270D01*
X162745296Y-72597201D01*
X162892950Y-72722865D01*
X162892955Y-72722869D01*
X162897564Y-72726791D01*
X163077398Y-72827297D01*
X163273329Y-72890959D01*
X163279347Y-72891677D01*
X163279349Y-72891677D01*
X163421410Y-72908616D01*
X163477894Y-72915351D01*
X163483938Y-72914886D01*
X163483939Y-72914886D01*
X163545266Y-72910167D01*
X163683300Y-72899546D01*
X163784384Y-72871323D01*
X163875885Y-72845776D01*
X163875889Y-72845774D01*
X163881725Y-72844145D01*
X164065610Y-72751258D01*
X164227951Y-72624424D01*
X164231907Y-72619840D01*
X164231911Y-72619837D01*
X164358602Y-72473062D01*
X164362564Y-72468472D01*
X164383387Y-72431818D01*
X164461327Y-72294618D01*
X164464323Y-72289344D01*
X164525032Y-72106846D01*
X164527439Y-72099611D01*
X164527439Y-72099610D01*
X164529351Y-72093863D01*
X164530324Y-72086167D01*
X164554736Y-71892919D01*
X164554736Y-71892915D01*
X164555171Y-71889474D01*
X164555583Y-71860000D01*
X164551902Y-71822458D01*
X164536072Y-71661006D01*
X164536072Y-71661004D01*
X164535480Y-71654970D01*
X164475935Y-71457749D01*
X164379218Y-71275849D01*
X164249011Y-71116200D01*
X164225585Y-71096820D01*
X164094946Y-70988746D01*
X164094945Y-70988745D01*
X164090275Y-70984882D01*
X163987145Y-70929120D01*
X163914393Y-70889783D01*
X163914391Y-70889782D01*
X163909055Y-70886897D01*
X163899991Y-70884091D01*
X163718046Y-70827770D01*
X163718047Y-70827770D01*
X163712254Y-70825977D01*
X163507369Y-70804443D01*
X163501336Y-70804992D01*
X163501332Y-70804992D01*
X163375721Y-70816424D01*
X163302203Y-70823114D01*
X163296390Y-70824825D01*
X163296389Y-70824825D01*
X163228870Y-70844697D01*
X163104572Y-70881280D01*
X163026728Y-70921976D01*
X162927374Y-70973917D01*
X162927370Y-70973920D01*
X162922002Y-70976726D01*
X162917279Y-70980523D01*
X162917278Y-70980524D01*
X162772635Y-71096820D01*
X162761447Y-71105815D01*
X162709779Y-71167390D01*
X162637042Y-71254075D01*
X162629024Y-71263630D01*
X162529776Y-71444162D01*
X162527942Y-71449944D01*
X162527941Y-71449946D01*
X162469317Y-71634753D01*
X162467484Y-71640532D01*
X162463215Y-71678594D01*
X162446397Y-71828530D01*
X162444520Y-71845262D01*
X160963282Y-71845262D01*
X160959024Y-71834983D01*
X160954075Y-71828533D01*
X160954073Y-71828530D01*
X160951740Y-71825489D01*
X160950568Y-71822458D01*
X160950011Y-71821493D01*
X160950161Y-71821406D01*
X160926543Y-71760321D01*
X160940580Y-71691876D01*
X160951740Y-71674511D01*
X160954073Y-71671470D01*
X160954075Y-71671467D01*
X160959024Y-71665017D01*
X161011974Y-71537183D01*
X161030035Y-71400000D01*
X161011974Y-71262817D01*
X160994792Y-71221334D01*
X160962135Y-71142494D01*
X160959024Y-71134983D01*
X160954075Y-71128533D01*
X160954073Y-71128530D01*
X160951740Y-71125489D01*
X160950568Y-71122458D01*
X160950011Y-71121493D01*
X160950161Y-71121406D01*
X160926543Y-71060321D01*
X160940580Y-70991876D01*
X160951740Y-70974511D01*
X160954073Y-70971470D01*
X160954075Y-70971467D01*
X160959024Y-70965017D01*
X161011974Y-70837183D01*
X161030035Y-70700000D01*
X161011974Y-70562817D01*
X160997775Y-70528536D01*
X160962135Y-70442494D01*
X160959024Y-70434983D01*
X160954075Y-70428533D01*
X160954073Y-70428530D01*
X160951740Y-70425489D01*
X160950568Y-70422458D01*
X160950011Y-70421493D01*
X160950161Y-70421406D01*
X160926543Y-70360321D01*
X160940580Y-70291876D01*
X160951740Y-70274511D01*
X160954073Y-70271470D01*
X160954075Y-70271467D01*
X160959024Y-70265017D01*
X161011974Y-70137183D01*
X161030035Y-70000000D01*
X161011974Y-69862817D01*
X161004916Y-69845776D01*
X160966897Y-69753990D01*
X160959024Y-69734983D01*
X160954075Y-69728533D01*
X160954073Y-69728530D01*
X160951740Y-69725489D01*
X160950568Y-69722458D01*
X160950011Y-69721493D01*
X160950161Y-69721406D01*
X160926543Y-69660321D01*
X160940580Y-69591876D01*
X160951740Y-69574511D01*
X160954073Y-69571470D01*
X160954075Y-69571467D01*
X160959024Y-69565017D01*
X161011974Y-69437183D01*
X161030035Y-69300000D01*
X161011974Y-69162817D01*
X160959024Y-69034983D01*
X160954075Y-69028533D01*
X160954073Y-69028530D01*
X160951740Y-69025489D01*
X160950568Y-69022458D01*
X160950011Y-69021493D01*
X160950161Y-69021406D01*
X160926543Y-68960321D01*
X160940580Y-68891876D01*
X160951740Y-68874511D01*
X160954073Y-68871470D01*
X160954075Y-68871467D01*
X160959024Y-68865017D01*
X160967207Y-68845262D01*
X162444520Y-68845262D01*
X162461759Y-69050553D01*
X162518544Y-69248586D01*
X162521316Y-69253981D01*
X162521317Y-69253982D01*
X162553132Y-69315888D01*
X162612712Y-69431818D01*
X162616480Y-69436572D01*
X162723399Y-69571470D01*
X162740677Y-69593270D01*
X162745296Y-69597201D01*
X162892950Y-69722865D01*
X162892955Y-69722869D01*
X162897564Y-69726791D01*
X163077398Y-69827297D01*
X163273329Y-69890959D01*
X163279347Y-69891677D01*
X163279349Y-69891677D01*
X163421410Y-69908616D01*
X163477894Y-69915351D01*
X163483938Y-69914886D01*
X163483939Y-69914886D01*
X163545266Y-69910167D01*
X163683300Y-69899546D01*
X163785971Y-69870880D01*
X163875885Y-69845776D01*
X163875889Y-69845774D01*
X163881725Y-69844145D01*
X164065610Y-69751258D01*
X164227951Y-69624424D01*
X164231907Y-69619840D01*
X164231911Y-69619837D01*
X164358602Y-69473062D01*
X164362564Y-69468472D01*
X164383387Y-69431818D01*
X164461327Y-69294618D01*
X164464323Y-69289344D01*
X164529351Y-69093863D01*
X164534823Y-69050553D01*
X164554736Y-68892919D01*
X164554736Y-68892915D01*
X164555171Y-68889474D01*
X164555583Y-68860000D01*
X164536604Y-68666436D01*
X164536072Y-68661006D01*
X164536072Y-68661004D01*
X164535480Y-68654970D01*
X164475935Y-68457749D01*
X164434022Y-68378922D01*
X164382065Y-68281203D01*
X164382064Y-68281201D01*
X164379218Y-68275849D01*
X164249011Y-68116200D01*
X164159267Y-68041957D01*
X164094946Y-67988746D01*
X164094945Y-67988745D01*
X164090275Y-67984882D01*
X163999665Y-67935890D01*
X163914393Y-67889783D01*
X163914391Y-67889782D01*
X163909055Y-67886897D01*
X163899991Y-67884091D01*
X163718046Y-67827770D01*
X163718047Y-67827770D01*
X163712254Y-67825977D01*
X163507369Y-67804443D01*
X163501336Y-67804992D01*
X163501332Y-67804992D01*
X163375721Y-67816424D01*
X163302203Y-67823114D01*
X163296390Y-67824825D01*
X163296389Y-67824825D01*
X163292475Y-67825977D01*
X163104572Y-67881280D01*
X163053349Y-67908059D01*
X162927374Y-67973917D01*
X162927370Y-67973920D01*
X162922002Y-67976726D01*
X162917279Y-67980523D01*
X162917278Y-67980524D01*
X162840871Y-68041957D01*
X162761447Y-68105815D01*
X162629024Y-68263630D01*
X162529776Y-68444162D01*
X162527942Y-68449944D01*
X162527941Y-68449946D01*
X162520315Y-68473986D01*
X162467484Y-68640532D01*
X162444520Y-68845262D01*
X160967207Y-68845262D01*
X161011974Y-68737183D01*
X161030035Y-68600000D01*
X161011974Y-68462817D01*
X161007657Y-68452393D01*
X160962135Y-68342494D01*
X160959024Y-68334983D01*
X160954075Y-68328533D01*
X160954073Y-68328530D01*
X160951740Y-68325489D01*
X160950568Y-68322458D01*
X160950011Y-68321493D01*
X160950161Y-68321406D01*
X160926543Y-68260321D01*
X160940580Y-68191876D01*
X160951740Y-68174511D01*
X160954073Y-68171470D01*
X160954075Y-68171467D01*
X160959024Y-68165017D01*
X161011974Y-68037183D01*
X161030035Y-67900000D01*
X161011974Y-67762817D01*
X160959024Y-67634983D01*
X160954075Y-67628533D01*
X160954073Y-67628530D01*
X160951740Y-67625489D01*
X160950568Y-67622458D01*
X160950011Y-67621493D01*
X160950161Y-67621406D01*
X160926543Y-67560321D01*
X160940580Y-67491876D01*
X160951740Y-67474511D01*
X160954073Y-67471470D01*
X160954075Y-67471467D01*
X160959024Y-67465017D01*
X161011974Y-67337183D01*
X161030035Y-67200000D01*
X161011974Y-67062817D01*
X160959024Y-66934983D01*
X160954075Y-66928533D01*
X160954073Y-66928530D01*
X160951740Y-66925489D01*
X160950568Y-66922458D01*
X160950011Y-66921493D01*
X160950161Y-66921406D01*
X160926543Y-66860321D01*
X160940580Y-66791876D01*
X160951740Y-66774511D01*
X160954073Y-66771470D01*
X160954075Y-66771467D01*
X160959024Y-66765017D01*
X161011974Y-66637183D01*
X161030035Y-66500000D01*
X161017234Y-66402772D01*
X162449500Y-66402772D01*
X162460364Y-66492547D01*
X162463296Y-66499951D01*
X162463296Y-66499953D01*
X162466506Y-66508059D01*
X162515887Y-66632783D01*
X162607078Y-66752922D01*
X162727217Y-66844113D01*
X162735078Y-66847225D01*
X162735079Y-66847226D01*
X162860047Y-66896704D01*
X162860049Y-66896704D01*
X162867453Y-66899636D01*
X162875357Y-66900592D01*
X162875359Y-66900593D01*
X162928073Y-66906972D01*
X162957228Y-66910500D01*
X164042772Y-66910500D01*
X164071927Y-66906972D01*
X164124641Y-66900593D01*
X164124643Y-66900592D01*
X164132547Y-66899636D01*
X164139951Y-66896704D01*
X164139953Y-66896704D01*
X164264921Y-66847226D01*
X164264922Y-66847225D01*
X164272783Y-66844113D01*
X164392922Y-66752922D01*
X164484113Y-66632783D01*
X164533495Y-66508059D01*
X164536704Y-66499953D01*
X164536704Y-66499951D01*
X164539636Y-66492547D01*
X164550500Y-66402772D01*
X164550500Y-65317228D01*
X164544781Y-65269965D01*
X164540593Y-65235359D01*
X164540592Y-65235357D01*
X164539636Y-65227453D01*
X164524823Y-65190039D01*
X164487226Y-65095079D01*
X164487225Y-65095078D01*
X164484113Y-65087217D01*
X164440709Y-65030034D01*
X164398032Y-64973810D01*
X164392922Y-64967078D01*
X164272783Y-64875887D01*
X164264922Y-64872775D01*
X164264921Y-64872774D01*
X164139953Y-64823296D01*
X164139951Y-64823296D01*
X164132547Y-64820364D01*
X164124643Y-64819408D01*
X164124641Y-64819407D01*
X164071927Y-64813028D01*
X164042772Y-64809500D01*
X162957228Y-64809500D01*
X162928073Y-64813028D01*
X162875359Y-64819407D01*
X162875357Y-64819408D01*
X162867453Y-64820364D01*
X162860049Y-64823296D01*
X162860047Y-64823296D01*
X162735079Y-64872774D01*
X162735078Y-64872775D01*
X162727217Y-64875887D01*
X162607078Y-64967078D01*
X162601968Y-64973810D01*
X162559292Y-65030034D01*
X162515887Y-65087217D01*
X162512775Y-65095078D01*
X162512774Y-65095079D01*
X162475177Y-65190039D01*
X162460364Y-65227453D01*
X162459408Y-65235357D01*
X162459407Y-65235359D01*
X162455219Y-65269965D01*
X162449500Y-65317228D01*
X162449500Y-66402772D01*
X161017234Y-66402772D01*
X161011974Y-66362817D01*
X160959024Y-66234983D01*
X160954075Y-66228533D01*
X160954073Y-66228530D01*
X160951740Y-66225489D01*
X160950568Y-66222458D01*
X160950011Y-66221493D01*
X160950161Y-66221406D01*
X160926543Y-66160321D01*
X160940580Y-66091876D01*
X160951740Y-66074511D01*
X160954073Y-66071470D01*
X160954075Y-66071467D01*
X160959024Y-66065017D01*
X161005477Y-65952868D01*
X161008862Y-65944697D01*
X161008863Y-65944694D01*
X161011974Y-65937183D01*
X161030035Y-65800000D01*
X161011974Y-65662817D01*
X160959024Y-65534983D01*
X160874791Y-65425209D01*
X160765018Y-65340976D01*
X160757510Y-65337866D01*
X160757508Y-65337865D01*
X160721020Y-65322752D01*
X160637183Y-65288026D01*
X160500000Y-65269965D01*
X160362817Y-65288026D01*
X160355306Y-65291137D01*
X160355303Y-65291138D01*
X160355301Y-65291139D01*
X160234983Y-65340976D01*
X160125209Y-65425209D01*
X160040976Y-65534983D01*
X159988026Y-65662817D01*
X159969965Y-65800000D01*
X159988026Y-65937183D01*
X159991137Y-65944694D01*
X159991138Y-65944697D01*
X159994523Y-65952868D01*
X160040976Y-66065017D01*
X160045925Y-66071467D01*
X160045927Y-66071470D01*
X160048260Y-66074511D01*
X160049432Y-66077542D01*
X160049989Y-66078507D01*
X160049839Y-66078594D01*
X160073457Y-66139679D01*
X160059420Y-66208124D01*
X160048260Y-66225489D01*
X160045927Y-66228530D01*
X160045925Y-66228533D01*
X160040976Y-66234983D01*
X159988026Y-66362817D01*
X159969965Y-66500000D01*
X159988026Y-66637183D01*
X160040976Y-66765017D01*
X160045925Y-66771467D01*
X160045927Y-66771470D01*
X160048260Y-66774511D01*
X160049432Y-66777542D01*
X160049989Y-66778507D01*
X160049839Y-66778594D01*
X160073457Y-66839679D01*
X160059420Y-66908124D01*
X160048260Y-66925489D01*
X160045927Y-66928530D01*
X160045925Y-66928533D01*
X160040976Y-66934983D01*
X159988026Y-67062817D01*
X159969965Y-67200000D01*
X159988026Y-67337183D01*
X160040976Y-67465017D01*
X160045925Y-67471467D01*
X160045927Y-67471470D01*
X160048260Y-67474511D01*
X160049432Y-67477542D01*
X160049989Y-67478507D01*
X160049839Y-67478594D01*
X160073457Y-67539679D01*
X160059420Y-67608124D01*
X160048260Y-67625489D01*
X160045927Y-67628530D01*
X160045925Y-67628533D01*
X160040976Y-67634983D01*
X159988026Y-67762817D01*
X159969965Y-67900000D01*
X159988026Y-68037183D01*
X160040976Y-68165017D01*
X160045925Y-68171467D01*
X160045927Y-68171470D01*
X160048260Y-68174511D01*
X160049432Y-68177542D01*
X160049989Y-68178507D01*
X160049839Y-68178594D01*
X160073457Y-68239679D01*
X160059420Y-68308124D01*
X160048260Y-68325489D01*
X160045927Y-68328530D01*
X160045925Y-68328533D01*
X160040976Y-68334983D01*
X160037865Y-68342494D01*
X159992344Y-68452393D01*
X159988026Y-68462817D01*
X159969965Y-68600000D01*
X159988026Y-68737183D01*
X160040976Y-68865017D01*
X160045925Y-68871467D01*
X160045927Y-68871470D01*
X160048260Y-68874511D01*
X160049432Y-68877542D01*
X160049989Y-68878507D01*
X160049839Y-68878594D01*
X160073457Y-68939679D01*
X160059420Y-69008124D01*
X160048260Y-69025489D01*
X160045927Y-69028530D01*
X160045925Y-69028533D01*
X160040976Y-69034983D01*
X159988026Y-69162817D01*
X159969965Y-69300000D01*
X159988026Y-69437183D01*
X160040976Y-69565017D01*
X160045925Y-69571467D01*
X160045927Y-69571470D01*
X160048260Y-69574511D01*
X160049432Y-69577542D01*
X160049989Y-69578507D01*
X160049839Y-69578594D01*
X160073457Y-69639679D01*
X160059420Y-69708124D01*
X160048260Y-69725489D01*
X160045927Y-69728530D01*
X160045925Y-69728533D01*
X160040976Y-69734983D01*
X160033103Y-69753990D01*
X159995085Y-69845776D01*
X159988026Y-69862817D01*
X159969965Y-70000000D01*
X159988026Y-70137183D01*
X160040976Y-70265017D01*
X160045925Y-70271467D01*
X160045927Y-70271470D01*
X160048260Y-70274511D01*
X160049432Y-70277542D01*
X160049989Y-70278507D01*
X160049839Y-70278594D01*
X160073457Y-70339679D01*
X160059420Y-70408124D01*
X160048260Y-70425489D01*
X160045927Y-70428530D01*
X160045925Y-70428533D01*
X160040976Y-70434983D01*
X160037865Y-70442494D01*
X160002226Y-70528536D01*
X159988026Y-70562817D01*
X159969965Y-70700000D01*
X159988026Y-70837183D01*
X160040976Y-70965017D01*
X160045925Y-70971467D01*
X160045927Y-70971470D01*
X160048260Y-70974511D01*
X160049432Y-70977542D01*
X160049989Y-70978507D01*
X160049839Y-70978594D01*
X160073457Y-71039679D01*
X160059420Y-71108124D01*
X160048260Y-71125489D01*
X160045927Y-71128530D01*
X160045925Y-71128533D01*
X160040976Y-71134983D01*
X160037865Y-71142494D01*
X160005209Y-71221334D01*
X159988026Y-71262817D01*
X159969965Y-71400000D01*
X159988026Y-71537183D01*
X160040976Y-71665017D01*
X160045925Y-71671467D01*
X160045927Y-71671470D01*
X160048260Y-71674511D01*
X160049432Y-71677542D01*
X160049989Y-71678507D01*
X160049839Y-71678594D01*
X160073457Y-71739679D01*
X160059420Y-71808124D01*
X160048260Y-71825489D01*
X160045927Y-71828530D01*
X160045925Y-71828533D01*
X160040976Y-71834983D01*
X159988026Y-71962817D01*
X159969965Y-72100000D01*
X140828524Y-72100000D01*
X139949858Y-71221334D01*
X139946263Y-71217586D01*
X139909922Y-71178065D01*
X139909920Y-71178063D01*
X139904201Y-71171844D01*
X139867138Y-71148864D01*
X139857510Y-71142247D01*
X139829516Y-71120998D01*
X139829513Y-71120996D01*
X139822783Y-71115888D01*
X139814925Y-71112777D01*
X139814920Y-71112774D01*
X139808645Y-71110290D01*
X139788944Y-71100382D01*
X139783199Y-71096820D01*
X139776014Y-71092365D01*
X139750046Y-71084821D01*
X139734142Y-71080200D01*
X139723091Y-71076416D01*
X139690408Y-71063476D01*
X139690405Y-71063475D01*
X139682547Y-71060364D01*
X139667418Y-71058774D01*
X139645784Y-71054529D01*
X139637419Y-71052099D01*
X139631175Y-71050285D01*
X139623676Y-71049734D01*
X139622760Y-71049667D01*
X139622758Y-71049667D01*
X139620485Y-71049500D01*
X139585678Y-71049500D01*
X139572717Y-71048821D01*
X139540952Y-71045482D01*
X139540949Y-71045482D01*
X139532546Y-71044599D01*
X139524216Y-71046008D01*
X139524213Y-71046008D01*
X139513833Y-71047764D01*
X139493154Y-71049500D01*
X137729388Y-71049500D01*
X137662349Y-71029815D01*
X137641708Y-71013182D01*
X137586820Y-70958295D01*
X137553334Y-70896972D01*
X137550500Y-70870613D01*
X137550500Y-70800000D01*
X154419965Y-70800000D01*
X154438026Y-70937183D01*
X154441137Y-70944694D01*
X154441138Y-70944697D01*
X154454405Y-70976726D01*
X154490976Y-71065017D01*
X154575209Y-71174791D01*
X154684982Y-71259024D01*
X154692490Y-71262134D01*
X154692492Y-71262135D01*
X154713605Y-71270880D01*
X154812817Y-71311974D01*
X154950000Y-71330035D01*
X155087183Y-71311974D01*
X155186395Y-71270880D01*
X155207508Y-71262135D01*
X155207510Y-71262134D01*
X155215018Y-71259024D01*
X155324791Y-71174791D01*
X155409024Y-71065017D01*
X155445595Y-70976726D01*
X155458862Y-70944697D01*
X155458863Y-70944694D01*
X155461974Y-70937183D01*
X155480035Y-70800000D01*
X157319965Y-70800000D01*
X157338026Y-70937183D01*
X157341137Y-70944694D01*
X157341138Y-70944697D01*
X157354405Y-70976726D01*
X157390976Y-71065017D01*
X157475209Y-71174791D01*
X157584982Y-71259024D01*
X157592490Y-71262134D01*
X157592492Y-71262135D01*
X157613605Y-71270880D01*
X157712817Y-71311974D01*
X157850000Y-71330035D01*
X157987183Y-71311974D01*
X158086395Y-71270880D01*
X158107508Y-71262135D01*
X158107510Y-71262134D01*
X158115018Y-71259024D01*
X158224791Y-71174791D01*
X158309024Y-71065017D01*
X158345595Y-70976726D01*
X158358862Y-70944697D01*
X158358863Y-70944694D01*
X158361974Y-70937183D01*
X158380035Y-70800000D01*
X158361974Y-70662817D01*
X158309024Y-70534983D01*
X158224791Y-70425209D01*
X158115018Y-70340976D01*
X158107510Y-70337866D01*
X158107508Y-70337865D01*
X158071020Y-70322752D01*
X157987183Y-70288026D01*
X157850000Y-70269965D01*
X157712817Y-70288026D01*
X157705306Y-70291137D01*
X157705303Y-70291138D01*
X157621027Y-70326046D01*
X157584983Y-70340976D01*
X157475209Y-70425209D01*
X157390976Y-70534983D01*
X157338026Y-70662817D01*
X157319965Y-70800000D01*
X155480035Y-70800000D01*
X155461974Y-70662817D01*
X155409024Y-70534983D01*
X155324791Y-70425209D01*
X155215018Y-70340976D01*
X155207510Y-70337866D01*
X155207508Y-70337865D01*
X155171020Y-70322752D01*
X155087183Y-70288026D01*
X154950000Y-70269965D01*
X154812817Y-70288026D01*
X154805306Y-70291137D01*
X154805303Y-70291138D01*
X154721027Y-70326046D01*
X154684983Y-70340976D01*
X154575209Y-70425209D01*
X154490976Y-70534983D01*
X154438026Y-70662817D01*
X154419965Y-70800000D01*
X137550500Y-70800000D01*
X137550500Y-68662215D01*
X137535206Y-68550568D01*
X137475305Y-68412145D01*
X137380386Y-68294930D01*
X137257442Y-68207558D01*
X137160379Y-68172613D01*
X137123485Y-68159330D01*
X137123483Y-68159330D01*
X137115532Y-68156467D01*
X137040321Y-68150944D01*
X136973539Y-68146039D01*
X136973538Y-68146039D01*
X136965109Y-68145420D01*
X136956822Y-68147091D01*
X136956821Y-68147091D01*
X136913393Y-68155848D01*
X136817257Y-68175233D01*
X136682868Y-68243707D01*
X136632488Y-68290034D01*
X136578065Y-68340078D01*
X136578063Y-68340080D01*
X136571844Y-68345799D01*
X136567390Y-68352983D01*
X136510857Y-68444162D01*
X136492365Y-68473986D01*
X136450285Y-68618825D01*
X136449500Y-68629515D01*
X136449500Y-71135043D01*
X136449391Y-71140235D01*
X136446790Y-71202294D01*
X136448720Y-71210524D01*
X136448950Y-71212953D01*
X136449500Y-71224621D01*
X136449500Y-71574787D01*
X136449167Y-71583869D01*
X136445420Y-71634891D01*
X136447092Y-71643181D01*
X136447123Y-71643680D01*
X136449500Y-71667500D01*
X136449500Y-72014322D01*
X136448821Y-72027283D01*
X136445762Y-72056391D01*
X136444599Y-72067454D01*
X136446008Y-72075784D01*
X136446008Y-72075787D01*
X136447764Y-72086167D01*
X136449500Y-72106846D01*
X136449500Y-74437785D01*
X136464794Y-74549432D01*
X136524695Y-74687855D01*
X136619614Y-74805070D01*
X136742558Y-74892442D01*
X136821636Y-74920912D01*
X136876515Y-74940670D01*
X136876517Y-74940670D01*
X136884468Y-74943533D01*
X136959679Y-74949056D01*
X137026461Y-74953961D01*
X137026462Y-74953961D01*
X137034891Y-74954580D01*
X137043178Y-74952909D01*
X137043179Y-74952909D01*
X137108817Y-74939674D01*
X137182743Y-74924767D01*
X137317132Y-74856293D01*
X137382448Y-74796232D01*
X137421935Y-74759922D01*
X137421937Y-74759920D01*
X137428156Y-74754201D01*
X137494896Y-74646560D01*
X137503181Y-74633198D01*
X137503182Y-74633197D01*
X137507635Y-74626014D01*
X137549715Y-74481175D01*
X137550500Y-74470485D01*
X137550500Y-72329388D01*
X137570185Y-72262349D01*
X137586818Y-72241708D01*
X137641705Y-72186820D01*
X137703028Y-72153334D01*
X137729387Y-72150500D01*
X139270613Y-72150500D01*
X139337652Y-72170185D01*
X139358294Y-72186819D01*
X145563182Y-78391706D01*
X145596667Y-78453029D01*
X145599501Y-78479387D01*
X145599501Y-83587790D01*
X145614795Y-83699437D01*
X145618152Y-83707195D01*
X145619815Y-83713151D01*
X145618883Y-83783015D01*
X145580327Y-83841284D01*
X145516390Y-83869458D01*
X145447371Y-83858593D01*
X145412703Y-83834178D01*
X143099858Y-81521334D01*
X143096263Y-81517586D01*
X143059922Y-81478065D01*
X143059920Y-81478063D01*
X143054201Y-81471844D01*
X143017138Y-81448864D01*
X143007510Y-81442247D01*
X142979516Y-81420998D01*
X142979513Y-81420996D01*
X142972783Y-81415888D01*
X142964925Y-81412777D01*
X142964920Y-81412774D01*
X142958645Y-81410290D01*
X142938944Y-81400382D01*
X142933199Y-81396820D01*
X142926014Y-81392365D01*
X142900046Y-81384821D01*
X142884142Y-81380200D01*
X142873091Y-81376416D01*
X142840408Y-81363476D01*
X142840405Y-81363475D01*
X142832547Y-81360364D01*
X142817418Y-81358774D01*
X142795784Y-81354529D01*
X142787419Y-81352099D01*
X142781175Y-81350285D01*
X142773676Y-81349734D01*
X142772760Y-81349667D01*
X142772758Y-81349667D01*
X142770485Y-81349500D01*
X142735678Y-81349500D01*
X142722717Y-81348821D01*
X142690952Y-81345482D01*
X142690949Y-81345482D01*
X142682546Y-81344599D01*
X142674216Y-81346008D01*
X142674213Y-81346008D01*
X142663833Y-81347764D01*
X142643154Y-81349500D01*
X137099496Y-81349500D01*
X137066048Y-81342848D01*
X137065598Y-81344527D01*
X137057741Y-81342422D01*
X137050236Y-81339313D01*
X137042181Y-81338253D01*
X137042179Y-81338252D01*
X136908059Y-81320595D01*
X136900000Y-81319534D01*
X136749764Y-81339313D01*
X136742257Y-81342422D01*
X136742255Y-81342423D01*
X136691430Y-81363476D01*
X136609767Y-81397302D01*
X136489549Y-81489549D01*
X136397302Y-81609767D01*
X136339313Y-81749764D01*
X136319534Y-81900000D01*
X136339313Y-82050236D01*
X136397302Y-82190233D01*
X136489549Y-82310451D01*
X136609767Y-82402698D01*
X136679766Y-82431693D01*
X136742255Y-82457577D01*
X136742257Y-82457578D01*
X136749764Y-82460687D01*
X136900000Y-82480466D01*
X136908059Y-82479405D01*
X137042179Y-82461748D01*
X137042181Y-82461747D01*
X137050236Y-82460687D01*
X137057741Y-82457578D01*
X137065598Y-82455473D01*
X137066048Y-82457152D01*
X137099496Y-82450500D01*
X142420613Y-82450500D01*
X142487652Y-82470185D01*
X142508294Y-82486819D01*
X144455929Y-84434454D01*
X144489414Y-84495777D01*
X144484430Y-84565469D01*
X144442558Y-84621402D01*
X144382199Y-84642548D01*
X144382546Y-84644599D01*
X144363833Y-84647764D01*
X144343154Y-84649500D01*
X140878983Y-84649500D01*
X140811944Y-84629815D01*
X140766189Y-84577011D01*
X140756245Y-84507853D01*
X140759023Y-84494307D01*
X140761974Y-84487183D01*
X140780035Y-84350000D01*
X140761974Y-84212817D01*
X140758862Y-84205303D01*
X140757354Y-84199677D01*
X140759015Y-84129827D01*
X140798176Y-84071963D01*
X140862404Y-84044457D01*
X140931037Y-84055997D01*
X140934982Y-84059024D01*
X141062817Y-84111974D01*
X141200000Y-84130035D01*
X141337183Y-84111974D01*
X141436395Y-84070880D01*
X141457508Y-84062135D01*
X141457510Y-84062134D01*
X141465018Y-84059024D01*
X141574791Y-83974791D01*
X141659024Y-83865017D01*
X141675513Y-83825209D01*
X141708862Y-83744697D01*
X141708863Y-83744694D01*
X141711974Y-83737183D01*
X141730035Y-83600000D01*
X141711974Y-83462817D01*
X141659024Y-83334983D01*
X141574791Y-83225209D01*
X141465018Y-83140976D01*
X141457510Y-83137866D01*
X141457508Y-83137865D01*
X141421020Y-83122752D01*
X141337183Y-83088026D01*
X141200000Y-83069965D01*
X141062817Y-83088026D01*
X141055306Y-83091137D01*
X141055303Y-83091138D01*
X141055301Y-83091139D01*
X140934983Y-83140976D01*
X140825209Y-83225209D01*
X140740976Y-83334983D01*
X140688026Y-83462817D01*
X140669965Y-83600000D01*
X140688026Y-83737183D01*
X140691138Y-83744697D01*
X140692646Y-83750323D01*
X140690985Y-83820173D01*
X140651824Y-83878037D01*
X140587596Y-83905543D01*
X140518963Y-83894003D01*
X140515018Y-83890976D01*
X140387183Y-83838026D01*
X140250000Y-83819965D01*
X140112817Y-83838026D01*
X140105306Y-83841137D01*
X140105303Y-83841138D01*
X140032090Y-83871464D01*
X139984983Y-83890976D01*
X139875209Y-83975209D01*
X139790976Y-84084983D01*
X139787176Y-84094157D01*
X139743469Y-84199677D01*
X139738026Y-84212817D01*
X139719965Y-84350000D01*
X139738026Y-84487183D01*
X139740782Y-84493836D01*
X139739129Y-84563256D01*
X139699967Y-84621119D01*
X139635738Y-84648623D01*
X139621017Y-84649500D01*
X123966062Y-84649500D01*
X123899023Y-84629815D01*
X123853268Y-84577011D01*
X123843324Y-84507853D01*
X123857430Y-84467094D01*
X123859024Y-84465017D01*
X123911974Y-84337183D01*
X123930035Y-84200000D01*
X123911974Y-84062817D01*
X123886193Y-84000574D01*
X123862135Y-83942494D01*
X123859024Y-83934983D01*
X123774791Y-83825209D01*
X123665018Y-83740976D01*
X123657510Y-83737866D01*
X123657508Y-83737865D01*
X123597841Y-83713151D01*
X123537183Y-83688026D01*
X123400000Y-83669965D01*
X123262817Y-83688026D01*
X123255306Y-83691137D01*
X123255303Y-83691138D01*
X123202159Y-83713151D01*
X123134983Y-83740976D01*
X123025209Y-83825209D01*
X123020265Y-83831652D01*
X122999592Y-83858593D01*
X122940976Y-83934983D01*
X122937865Y-83942494D01*
X122913808Y-84000574D01*
X122888026Y-84062817D01*
X122886965Y-84070879D01*
X122886964Y-84070881D01*
X122885280Y-84083675D01*
X122857015Y-84147572D01*
X122798691Y-84186044D01*
X122737300Y-84187140D01*
X122737183Y-84188026D01*
X122729126Y-84186965D01*
X122729125Y-84186965D01*
X122608059Y-84171026D01*
X122600000Y-84169965D01*
X122591941Y-84171026D01*
X122470875Y-84186965D01*
X122470874Y-84186965D01*
X122462817Y-84188026D01*
X122462695Y-84187098D01*
X122399902Y-84185603D01*
X122342040Y-84146440D01*
X122314720Y-84083675D01*
X122313036Y-84070881D01*
X122313035Y-84070879D01*
X122311974Y-84062817D01*
X122286193Y-84000574D01*
X122262135Y-83942494D01*
X122259024Y-83934983D01*
X122174791Y-83825209D01*
X122065018Y-83740976D01*
X122057510Y-83737866D01*
X122057508Y-83737865D01*
X121997841Y-83713151D01*
X121937183Y-83688026D01*
X121800000Y-83669965D01*
X121662817Y-83688026D01*
X121655306Y-83691137D01*
X121655303Y-83691138D01*
X121602159Y-83713151D01*
X121534983Y-83740976D01*
X121425209Y-83825209D01*
X121420265Y-83831652D01*
X121399592Y-83858593D01*
X121340976Y-83934983D01*
X121337865Y-83942494D01*
X121313808Y-84000574D01*
X121288026Y-84062817D01*
X121269965Y-84200000D01*
X121288026Y-84337183D01*
X121340976Y-84465017D01*
X121425209Y-84574791D01*
X121431655Y-84579737D01*
X121460179Y-84601625D01*
X121501382Y-84658053D01*
X121505536Y-84727799D01*
X121471323Y-84788719D01*
X121460178Y-84798376D01*
X121431654Y-84820263D01*
X121431652Y-84820265D01*
X121425209Y-84825209D01*
X121340976Y-84934983D01*
X121288026Y-85062817D01*
X121269965Y-85200000D01*
X121288026Y-85337183D01*
X121340976Y-85465017D01*
X121425209Y-85574791D01*
X121431655Y-85579737D01*
X121460179Y-85601625D01*
X121501382Y-85658053D01*
X121505536Y-85727799D01*
X121471323Y-85788719D01*
X121460178Y-85798376D01*
X121431654Y-85820263D01*
X121431652Y-85820265D01*
X121425209Y-85825209D01*
X121420265Y-85831652D01*
X121391916Y-85868597D01*
X121340976Y-85934983D01*
X121337865Y-85942494D01*
X121296799Y-86041638D01*
X121288026Y-86062817D01*
X121269965Y-86200000D01*
X121288026Y-86337183D01*
X121291137Y-86344694D01*
X121291138Y-86344697D01*
X121326046Y-86428973D01*
X121340976Y-86465017D01*
X121425209Y-86574791D01*
X121431655Y-86579737D01*
X121460179Y-86601625D01*
X121501382Y-86658053D01*
X121505536Y-86727799D01*
X121471323Y-86788719D01*
X121460178Y-86798376D01*
X121431654Y-86820263D01*
X121431652Y-86820265D01*
X121425209Y-86825209D01*
X121340976Y-86934983D01*
X121332302Y-86955925D01*
X121296793Y-87041652D01*
X121288026Y-87062817D01*
X121269965Y-87200000D01*
X121288026Y-87337183D01*
X121291137Y-87344694D01*
X121291138Y-87344697D01*
X121314849Y-87401941D01*
X121340976Y-87465017D01*
X121425209Y-87574791D01*
X121439419Y-87585695D01*
X121460179Y-87601625D01*
X121501382Y-87658053D01*
X121505536Y-87727799D01*
X121471323Y-87788719D01*
X121460178Y-87798376D01*
X121431654Y-87820263D01*
X121431652Y-87820265D01*
X121425209Y-87825209D01*
X121420265Y-87831652D01*
X121399420Y-87858818D01*
X121340976Y-87934983D01*
X121337865Y-87942494D01*
X121304246Y-88023659D01*
X121288026Y-88062817D01*
X121269965Y-88200000D01*
X121288026Y-88337183D01*
X121291137Y-88344694D01*
X121291138Y-88344697D01*
X121297874Y-88360959D01*
X121340976Y-88465017D01*
X121425209Y-88574791D01*
X121439125Y-88585469D01*
X121460179Y-88601625D01*
X121501382Y-88658053D01*
X121505536Y-88727799D01*
X121471323Y-88788719D01*
X121460178Y-88798376D01*
X121431654Y-88820263D01*
X121431652Y-88820265D01*
X121425209Y-88825209D01*
X121420265Y-88831652D01*
X121394663Y-88865017D01*
X121340976Y-88934983D01*
X121288026Y-89062817D01*
X121269965Y-89200000D01*
X112800000Y-89200000D01*
X112800000Y-81500000D01*
X122869965Y-81500000D01*
X122888026Y-81637183D01*
X122940976Y-81765017D01*
X123025209Y-81874791D01*
X123134982Y-81959024D01*
X123142490Y-81962134D01*
X123142492Y-81962135D01*
X123178980Y-81977248D01*
X123262817Y-82011974D01*
X123400000Y-82030035D01*
X123537183Y-82011974D01*
X123621020Y-81977248D01*
X123657508Y-81962135D01*
X123657510Y-81962134D01*
X123665018Y-81959024D01*
X123774791Y-81874791D01*
X123859024Y-81765017D01*
X123911974Y-81637183D01*
X123930035Y-81500000D01*
X123911974Y-81362817D01*
X123902239Y-81339313D01*
X123862135Y-81242494D01*
X123859024Y-81234983D01*
X123774791Y-81125209D01*
X123665018Y-81040976D01*
X123657510Y-81037866D01*
X123657508Y-81037865D01*
X123621020Y-81022752D01*
X123537183Y-80988026D01*
X123400000Y-80969965D01*
X123262817Y-80988026D01*
X123255306Y-80991137D01*
X123255303Y-80991138D01*
X123255301Y-80991139D01*
X123134983Y-81040976D01*
X123025209Y-81125209D01*
X122940976Y-81234983D01*
X122937865Y-81242494D01*
X122897762Y-81339313D01*
X122888026Y-81362817D01*
X122869965Y-81500000D01*
X112800000Y-81500000D01*
X112800000Y-69757229D01*
X120149500Y-69757229D01*
X120149501Y-72042770D01*
X120149949Y-72046471D01*
X120149949Y-72046474D01*
X120152488Y-72067454D01*
X120160364Y-72132547D01*
X120215888Y-72272783D01*
X120221000Y-72279517D01*
X120221000Y-72279518D01*
X120258853Y-72329388D01*
X120307078Y-72392922D01*
X120427217Y-72484112D01*
X120567453Y-72539636D01*
X120657229Y-72550500D01*
X120717923Y-72550500D01*
X120784962Y-72570185D01*
X120830717Y-72622989D01*
X120840661Y-72692147D01*
X120811636Y-72755703D01*
X120793410Y-72772875D01*
X120731656Y-72820261D01*
X120731652Y-72820265D01*
X120725209Y-72825209D01*
X120640976Y-72934983D01*
X120637865Y-72942494D01*
X120591139Y-73055302D01*
X120588026Y-73062817D01*
X120569965Y-73200000D01*
X120588026Y-73337183D01*
X120640976Y-73465017D01*
X120725209Y-73574791D01*
X120834982Y-73659024D01*
X120842490Y-73662134D01*
X120842492Y-73662135D01*
X120878980Y-73677248D01*
X120962817Y-73711974D01*
X121088117Y-73728471D01*
X121091934Y-73728973D01*
X121100000Y-73730035D01*
X121108067Y-73728973D01*
X121111883Y-73728471D01*
X121237183Y-73711974D01*
X121321020Y-73677248D01*
X121357508Y-73662135D01*
X121357510Y-73662134D01*
X121365018Y-73659024D01*
X121474791Y-73574791D01*
X121479736Y-73568347D01*
X121479740Y-73568343D01*
X121501625Y-73539822D01*
X121558053Y-73498620D01*
X121627799Y-73494465D01*
X121688719Y-73528678D01*
X121698375Y-73539822D01*
X121720260Y-73568343D01*
X121720264Y-73568347D01*
X121725209Y-73574791D01*
X121834982Y-73659024D01*
X121842490Y-73662134D01*
X121842492Y-73662135D01*
X121878980Y-73677248D01*
X121962817Y-73711974D01*
X122088117Y-73728471D01*
X122091934Y-73728973D01*
X122100000Y-73730035D01*
X122108067Y-73728973D01*
X122111883Y-73728471D01*
X122237183Y-73711974D01*
X122321020Y-73677248D01*
X122357508Y-73662135D01*
X122357510Y-73662134D01*
X122365018Y-73659024D01*
X122474791Y-73574791D01*
X122501625Y-73539821D01*
X122558051Y-73498619D01*
X122627797Y-73494464D01*
X122688718Y-73528676D01*
X122698375Y-73539821D01*
X122720260Y-73568342D01*
X122720264Y-73568346D01*
X122725209Y-73574790D01*
X122834982Y-73659023D01*
X122842490Y-73662133D01*
X122842492Y-73662134D01*
X122878980Y-73677247D01*
X122962817Y-73711973D01*
X123100000Y-73730034D01*
X123237183Y-73711973D01*
X123321020Y-73677247D01*
X123357508Y-73662134D01*
X123357510Y-73662133D01*
X123365018Y-73659023D01*
X123474791Y-73574790D01*
X123559024Y-73465016D01*
X123600000Y-73366091D01*
X123608862Y-73344696D01*
X123608863Y-73344693D01*
X123611974Y-73337182D01*
X123630035Y-73199999D01*
X123611974Y-73062816D01*
X123600001Y-73033909D01*
X123573954Y-72971026D01*
X123559024Y-72934982D01*
X123474791Y-72825208D01*
X123406589Y-72772874D01*
X123365387Y-72716446D01*
X123361232Y-72646700D01*
X123395445Y-72585780D01*
X123457162Y-72553028D01*
X123482076Y-72550499D01*
X123542770Y-72550499D01*
X123546471Y-72550051D01*
X123546474Y-72550051D01*
X123624638Y-72540593D01*
X123632547Y-72539636D01*
X123772783Y-72484112D01*
X123892922Y-72392922D01*
X123941147Y-72329388D01*
X123979000Y-72279518D01*
X123979000Y-72279517D01*
X123984112Y-72272783D01*
X123993693Y-72248586D01*
X124036705Y-72139950D01*
X124036705Y-72139949D01*
X124039636Y-72132547D01*
X124050500Y-72042771D01*
X124050499Y-69757230D01*
X124049777Y-69751258D01*
X124040593Y-69675362D01*
X124040592Y-69675357D01*
X124039636Y-69667453D01*
X123984112Y-69527217D01*
X123892922Y-69407078D01*
X123772783Y-69315888D01*
X123753010Y-69308059D01*
X123639950Y-69263295D01*
X123639949Y-69263295D01*
X123632547Y-69260364D01*
X123542771Y-69249500D01*
X122100387Y-69249500D01*
X120657230Y-69249501D01*
X120653529Y-69249949D01*
X120653526Y-69249949D01*
X120575362Y-69259407D01*
X120567453Y-69260364D01*
X120508784Y-69283593D01*
X120446991Y-69308059D01*
X120427217Y-69315888D01*
X120307078Y-69407078D01*
X120215888Y-69527217D01*
X120212776Y-69535078D01*
X120212775Y-69535079D01*
X120175924Y-69628154D01*
X120160364Y-69667453D01*
X120149500Y-69757229D01*
X112800000Y-69757229D01*
X112800000Y-66700000D01*
X120144396Y-66700000D01*
X120144778Y-66704854D01*
X120161904Y-66922458D01*
X120164779Y-66958994D01*
X120165914Y-66963723D01*
X120165915Y-66963727D01*
X120220705Y-67191941D01*
X120225427Y-67211610D01*
X120324846Y-67451628D01*
X120460588Y-67673140D01*
X120629311Y-67870689D01*
X120826860Y-68039412D01*
X121048372Y-68175154D01*
X121288390Y-68274573D01*
X121293126Y-68275710D01*
X121536273Y-68334085D01*
X121536277Y-68334086D01*
X121541006Y-68335221D01*
X121545856Y-68335603D01*
X121545858Y-68335603D01*
X121599071Y-68339791D01*
X121735147Y-68350500D01*
X122464853Y-68350500D01*
X122600929Y-68339791D01*
X122654142Y-68335603D01*
X122654144Y-68335603D01*
X122658994Y-68335221D01*
X122663723Y-68334086D01*
X122663727Y-68334085D01*
X122906874Y-68275710D01*
X122911610Y-68274573D01*
X123151628Y-68175154D01*
X123373140Y-68039412D01*
X123570689Y-67870689D01*
X123739412Y-67673140D01*
X123875154Y-67451628D01*
X123974573Y-67211610D01*
X123979295Y-67191941D01*
X124034085Y-66963727D01*
X124034086Y-66963723D01*
X124035221Y-66958994D01*
X124038097Y-66922458D01*
X124055222Y-66704854D01*
X124055604Y-66700000D01*
X124035221Y-66441006D01*
X124026931Y-66406473D01*
X123975710Y-66193126D01*
X123974573Y-66188390D01*
X123875154Y-65948372D01*
X123739412Y-65726860D01*
X123678297Y-65655303D01*
X123573850Y-65533012D01*
X123570689Y-65529311D01*
X123373140Y-65360588D01*
X123179378Y-65241851D01*
X123132503Y-65190039D01*
X123121080Y-65121109D01*
X123148737Y-65056946D01*
X123206693Y-65017921D01*
X123227979Y-65013185D01*
X123237183Y-65011973D01*
X123321395Y-64977092D01*
X123357508Y-64962134D01*
X123357510Y-64962133D01*
X123365018Y-64959023D01*
X123474791Y-64874790D01*
X123559024Y-64765016D01*
X123600000Y-64666091D01*
X123608862Y-64644696D01*
X123608863Y-64644693D01*
X123611974Y-64637182D01*
X123630035Y-64499999D01*
X123611974Y-64362816D01*
X123600001Y-64333909D01*
X123573954Y-64271026D01*
X123559024Y-64234982D01*
X123474791Y-64125208D01*
X123365018Y-64040975D01*
X123357510Y-64037865D01*
X123357508Y-64037864D01*
X123321020Y-64022751D01*
X123237183Y-63988025D01*
X123111883Y-63971528D01*
X123108059Y-63971025D01*
X123100000Y-63969964D01*
X123091941Y-63971025D01*
X123088117Y-63971528D01*
X122962817Y-63988025D01*
X122955306Y-63991136D01*
X122955303Y-63991137D01*
X122871027Y-64026045D01*
X122834983Y-64040975D01*
X122725209Y-64125208D01*
X122720265Y-64131651D01*
X122720263Y-64131653D01*
X122698376Y-64160177D01*
X122641949Y-64201380D01*
X122572203Y-64205535D01*
X122511282Y-64171323D01*
X122501625Y-64160178D01*
X122479740Y-64131657D01*
X122479735Y-64131652D01*
X122474791Y-64125209D01*
X122365018Y-64040976D01*
X122357510Y-64037866D01*
X122357508Y-64037865D01*
X122321020Y-64022752D01*
X122237183Y-63988026D01*
X122100000Y-63969965D01*
X121962817Y-63988026D01*
X121955306Y-63991137D01*
X121955303Y-63991138D01*
X121955301Y-63991139D01*
X121834983Y-64040976D01*
X121725209Y-64125209D01*
X121720265Y-64131652D01*
X121720261Y-64131656D01*
X121698375Y-64160178D01*
X121641947Y-64201380D01*
X121572201Y-64205535D01*
X121511281Y-64171322D01*
X121501625Y-64160178D01*
X121479740Y-64131657D01*
X121479735Y-64131652D01*
X121474791Y-64125209D01*
X121365018Y-64040976D01*
X121357510Y-64037866D01*
X121357508Y-64037865D01*
X121321020Y-64022752D01*
X121237183Y-63988026D01*
X121100000Y-63969965D01*
X120962817Y-63988026D01*
X120955306Y-63991137D01*
X120955303Y-63991138D01*
X120955301Y-63991139D01*
X120834983Y-64040976D01*
X120725209Y-64125209D01*
X120640976Y-64234983D01*
X120637865Y-64242494D01*
X120591139Y-64355302D01*
X120588026Y-64362817D01*
X120569965Y-64500000D01*
X120588026Y-64637183D01*
X120640976Y-64765017D01*
X120725209Y-64874791D01*
X120834982Y-64959024D01*
X120842490Y-64962134D01*
X120842492Y-64962135D01*
X120854426Y-64967078D01*
X120962817Y-65011974D01*
X120970879Y-65013035D01*
X120970881Y-65013036D01*
X120972014Y-65013185D01*
X120972900Y-65013577D01*
X120978726Y-65015138D01*
X120978483Y-65016046D01*
X121035911Y-65041451D01*
X121074383Y-65099775D01*
X121075215Y-65169640D01*
X121038143Y-65228863D01*
X121020620Y-65241851D01*
X120831023Y-65358036D01*
X120831015Y-65358042D01*
X120826860Y-65360588D01*
X120629311Y-65529311D01*
X120626150Y-65533012D01*
X120521704Y-65655303D01*
X120460588Y-65726860D01*
X120324846Y-65948372D01*
X120225427Y-66188390D01*
X120224290Y-66193126D01*
X120173070Y-66406473D01*
X120164779Y-66441006D01*
X120144396Y-66700000D01*
X112800000Y-66700000D01*
X112800000Y-61533789D01*
X113395996Y-61533789D01*
X113404913Y-61771295D01*
X113405990Y-61776430D01*
X113405991Y-61776435D01*
X113452639Y-61998758D01*
X113453719Y-62003904D01*
X113541020Y-62224963D01*
X113543741Y-62229447D01*
X113543743Y-62229451D01*
X113611233Y-62340670D01*
X113664319Y-62428153D01*
X113820090Y-62607664D01*
X114003880Y-62758362D01*
X114008441Y-62760958D01*
X114008442Y-62760959D01*
X114205875Y-62873345D01*
X114205880Y-62873347D01*
X114210433Y-62875939D01*
X114433844Y-62957034D01*
X114667725Y-62999326D01*
X114692619Y-63000500D01*
X114859680Y-63000500D01*
X114862296Y-63000278D01*
X114862297Y-63000278D01*
X115031590Y-62985913D01*
X115036823Y-62985469D01*
X115266874Y-62925760D01*
X115425341Y-62854376D01*
X166634455Y-62854376D01*
X166635179Y-62861265D01*
X166635179Y-62861268D01*
X166649813Y-63000500D01*
X166653227Y-63032983D01*
X166711103Y-63202993D01*
X166805206Y-63355955D01*
X166930859Y-63484268D01*
X167081817Y-63581554D01*
X167149994Y-63606368D01*
X167244063Y-63640607D01*
X167244065Y-63640608D01*
X167250578Y-63642978D01*
X167308253Y-63650264D01*
X167385417Y-63660012D01*
X167385423Y-63660012D01*
X167389283Y-63660500D01*
X167485155Y-63660500D01*
X167488602Y-63660113D01*
X167488608Y-63660113D01*
X167611581Y-63646319D01*
X167618472Y-63645546D01*
X167788073Y-63586485D01*
X167940375Y-63491316D01*
X168067807Y-63364770D01*
X168164037Y-63213136D01*
X168169984Y-63196436D01*
X168221957Y-63050479D01*
X168221958Y-63050475D01*
X168224281Y-63043951D01*
X168245545Y-62865624D01*
X168243640Y-62847494D01*
X168227498Y-62693913D01*
X168227498Y-62693911D01*
X168226773Y-62687017D01*
X168168897Y-62517007D01*
X168074794Y-62364045D01*
X167949141Y-62235732D01*
X167798183Y-62138446D01*
X167730006Y-62113632D01*
X167635937Y-62079393D01*
X167635935Y-62079392D01*
X167629422Y-62077022D01*
X167571747Y-62069736D01*
X167494583Y-62059988D01*
X167494577Y-62059988D01*
X167490717Y-62059500D01*
X167394845Y-62059500D01*
X167391398Y-62059887D01*
X167391392Y-62059887D01*
X167268419Y-62073681D01*
X167261528Y-62074454D01*
X167091927Y-62133515D01*
X166939625Y-62228684D01*
X166812193Y-62355230D01*
X166715963Y-62506864D01*
X166713636Y-62513399D01*
X166658043Y-62669521D01*
X166658042Y-62669525D01*
X166655719Y-62676049D01*
X166634455Y-62854376D01*
X115425341Y-62854376D01*
X115483576Y-62828143D01*
X115680732Y-62695409D01*
X115852705Y-62531355D01*
X115994579Y-62340670D01*
X116049840Y-62231979D01*
X116099913Y-62133493D01*
X116099915Y-62133488D01*
X116102295Y-62128807D01*
X116117639Y-62079393D01*
X116171215Y-61906848D01*
X116172775Y-61901824D01*
X116186271Y-61800000D01*
X116203315Y-61671412D01*
X116203315Y-61671408D01*
X116204004Y-61666211D01*
X116195087Y-61428705D01*
X116167700Y-61298176D01*
X116147361Y-61201242D01*
X116147360Y-61201239D01*
X116146281Y-61196096D01*
X116058980Y-60975037D01*
X115991607Y-60864009D01*
X115938408Y-60776341D01*
X115935681Y-60771847D01*
X115779910Y-60592336D01*
X115596120Y-60441638D01*
X115478687Y-60374791D01*
X115394125Y-60326655D01*
X115394120Y-60326653D01*
X115389567Y-60324061D01*
X115166156Y-60242966D01*
X114932275Y-60200674D01*
X114907381Y-60199500D01*
X114740320Y-60199500D01*
X114737704Y-60199722D01*
X114737703Y-60199722D01*
X114726484Y-60200674D01*
X114563177Y-60214531D01*
X114333126Y-60274240D01*
X114116424Y-60371857D01*
X113919268Y-60504591D01*
X113747295Y-60668645D01*
X113605421Y-60859330D01*
X113603042Y-60864008D01*
X113603042Y-60864009D01*
X113548875Y-60970549D01*
X113497705Y-61071193D01*
X113427225Y-61298176D01*
X113395996Y-61533789D01*
X112800000Y-61533789D01*
X112800000Y-60919758D01*
X112810925Y-60868867D01*
X112848916Y-60784455D01*
X112855874Y-60771196D01*
X112924231Y-60658119D01*
X112985557Y-60556674D01*
X112994061Y-60544353D01*
X113148652Y-60347032D01*
X113158582Y-60335824D01*
X113335824Y-60158582D01*
X113347032Y-60148652D01*
X113544353Y-59994061D01*
X113556676Y-59985555D01*
X113771196Y-59855874D01*
X113784455Y-59848916D01*
X113868867Y-59810925D01*
X113919758Y-59800000D01*
X169080242Y-59800000D01*
X169131133Y-59810925D01*
G37*
G04 #@! TD.AperFunction*
G04 #@! TD*
M02*
